<?xml version="1.0" encoding="UTF-8" standalone="no"?>
<svg
   version="1.0"
   width="562.000000pt"
   height="600.000000pt"
   viewBox="0 0 562.000000 600.000000"
   preserveAspectRatio="xMidYMid meet"
   id="svg23"
   sodipodi:docname="frog15_t1.svg"
   inkscape:version="1.4.3 (0d15f75, 2025-12-25)"
   xmlns:inkscape="http://www.inkscape.org/namespaces/inkscape"
   xmlns:sodipodi="http://sodipodi.sourceforge.net/DTD/sodipodi-0.dtd"
   xmlns="http://www.w3.org/2000/svg"
   xmlns:svg="http://www.w3.org/2000/svg">
  <defs
     id="defs23" />
  <sodipodi:namedview
     id="namedview23"
     pagecolor="#505050"
     bordercolor="#ffffff"
     borderopacity="1"
     inkscape:showpageshadow="0"
     inkscape:pageopacity="0"
     inkscape:pagecheckerboard="1"
     inkscape:deskcolor="#505050"
     inkscape:document-units="pt"
     inkscape:zoom="0.4967308"
     inkscape:cx="591.86989"
     inkscape:cy="304.99418"
     inkscape:window-width="1920"
     inkscape:window-height="1022"
     inkscape:window-x="0"
     inkscape:window-y="30"
     inkscape:window-maximized="1"
     inkscape:current-layer="svg23" />
  <g
     transform="translate(0.000000,600.000000) scale(0.050000,-0.050000)"
     fill="#000000"
     stroke="none"
     id="g23">
    <path
       d="M9171 11894 c-45 -34 -48 -85 -22 -394 34 -412 -141 -785 -492 -1049 l-120 -91 -94 55 c-91 54 -98 55 -433 55 -328 0 -345 2 -479 57 -195 80 -395 71 -608 -27 l-146 -67 -152 75 c-552 273 -811 589 -885 1082 -64 424 -225 420 -428 -10 -259 -545 -211 -1272 116 -1752 68 -101 71 -95 -73 -164 -69 -33 -170 -92 -224 -131 -83 -60 -105 -68 -132 -48 -18 14 -95 72 -171 131 -557 425 -1408 589 -1408 271 0 -36 17 -109 38 -163 163 -413 44 -756 -354 -1021 -195 -129 -208 -241 -50 -431 63 -75 150 -248 142 -281 -3 -14 -64 -72 -136 -129 -335 -267 -590 -560 -730 -842 -54 -108 -117 -191 -224 -297 -289 -285 -507 -639 -653 -1062 l-65 -189 -169 -85 c-1170 -589 -1436 -2403 -512 -3491 l114 -134 -23 -92 c-13 -50 -18 -125 -11 -165 10 -60 2 -89 -40 -149 -216 -311 108 -720 469 -594 58 20 78 13 246 -84 408 -236 738 -213 738 50 0 38 24 39 161 10 257 -55 430 54 415 262 -7 92 -3 119 16 112 111 -43 399 -132 490 -152 99 -22 114 -32 135 -90 72 -198 318 -354 693 -440 172 -39 279 -80 487 -185 400 -202 629 -179 694 70 1 2 46 -13 100 -33 277 -104 529 -33 529 150 0 38 10 48 52 48 129 0 269 139 242 240 -8 32 11 37 163 49 638 48 1086 161 1543 391 109 55 224 100 254 100 l54 0 -82 -85 c-226 -235 -142 -475 166 -475 30 0 48 -12 48 -31 0 -226 309 -271 701 -101 22 9 39 -5 60 -52 96 -216 381 -191 709 63 l160 124 110 -15 c470 -60 695 312 392 647 -87 97 -87 84 -2 203 97 135 313 593 387 822 370 1144 266 1981 -341 2730 -93 115 -137 189 -147 243 -46 270 -171 554 -357 813 -147 205 -129 225 101 120 249 -114 347 -52 347 220 0 301 58 408 279 517 224 110 235 146 128 420 -128 326 -102 519 101 754 132 152 129 220 -16 382 -232 260 -282 552 -152 882 192 487 -508 421 -1138 -108 -164 -137 -161 -136 -195 -39 -37 106 -37 103 63 236 341 454 461 1025 329 1570 -117 487 -518 936 -708 794z m263 -267 c440 -473 445 -1424 11 -1966 -40 -50 -75 -95 -78 -99 -4 -5 -43 33 -87 84 -91 102 -209 183 -240 164 -30 -19 -24 -82 12 -111 167 -140 299 -439 338 -769 16 -142 55 -335 89 -445 168 -546 80 -952 -328 -1520 -198 -276 -137 -318 105 -72 l150 152 -11 -177 c-17 -280 -161 -591 -363 -787 -133 -128 -69 -193 82 -83 156 113 282 301 366 547 32 94 61 152 67 135 7 -16 31 -83 55 -148 24 -65 91 -186 150 -270 277 -394 315 -454 362 -559 134 -302 169 -730 89 -1083 -28 -120 -33 -177 -18 -196 55 -66 155 139 200 411 l26 155 96 -120 c533 -670 561 -1740 74 -2830 -91 -205 -273 -512 -332 -561 -52 -43 -31 -96 79 -204 219 -213 146 -498 -115 -446 -243 48 -249 47 -443 -100 -99 -74 -220 -152 -269 -174 -206 -93 -312 35 -181 218 124 172 39 217 -130 69 -185 -162 -500 -274 -610 -217 -106 55 -54 178 139 328 67 51 121 109 121 128 0 96 -168 41 -334 -109 -112 -101 -209 -133 -283 -93 -133 70 56 261 451 455 l276 136 22 220 c39 392 31 373 235 594 346 376 536 656 447 656 -15 0 -159 -140 -322 -310 -335 -351 -342 -356 -289 -185 100 319 138 856 66 916 -53 44 -74 -7 -92 -225 -112 -1351 -1154 -2194 -2713 -2196 l-186 0 -121 101 c-151 126 -330 216 -587 298 l-201 63 8 275 c8 293 -27 605 -93 841 l-36 128 66 125 c71 133 146 392 146 501 0 79 75 204 130 216 370 81 560 149 786 281 210 123 524 442 524 533 0 72 -70 39 -201 -94 -341 -348 -1093 -693 -1051 -483 51 249 24 454 -88 675 -109 216 -161 148 -87 -113 64 -229 60 -483 -11 -637 -30 -64 -50 -89 -57 -70 -50 140 -105 53 -105 -167 -1 -222 -20 -328 -83 -476 -50 -116 -61 -118 -115 -27 -46 79 -94 106 -127 73 -16 -16 0 -77 61 -228 152 -374 170 -481 172 -1014 l2 -470 70 -17 c477 -119 829 -306 914 -484 77 -161 -92 -174 -257 -20 -104 98 -261 180 -308 162 -56 -21 -30 -89 57 -149 281 -194 317 -411 61 -376 -112 16 -301 112 -377 193 -162 172 -338 152 -181 -21 255 -283 8 -399 -369 -173 -168 100 -289 146 -535 201 -477 107 -679 334 -597 670 44 184 45 181 -75 356 -463 676 -561 1340 -322 2191 61 218 62 241 4 232 -32 -4 -63 -41 -109 -132 l-64 -126 -19 76 c-11 42 -30 140 -43 217 -35 219 -172 426 -212 322 -6 -15 8 -85 29 -155 22 -71 46 -187 53 -260 7 -73 37 -203 67 -290 46 -134 52 -172 36 -248 -119 -585 49 -1320 436 -1896 84 -125 89 -141 71 -205 -11 -38 -20 -103 -20 -144 0 -92 -12 -94 -253 -24 -193 56 -461 175 -612 272 l-95 61 60 76 c322 407 282 1111 -90 1567 -160 196 -220 133 -85 -91 402 -669 282 -1409 -253 -1564 -134 -39 -114 -96 44 -124 348 -63 692 -393 489 -470 -107 -41 -394 37 -465 127 -50 64 -205 145 -247 129 -56 -22 -37 -66 77 -183 130 -133 149 -224 60 -283 -93 -61 -237 -15 -512 162 -169 109 -202 119 -276 81 -264 -136 -483 169 -284 396 24 28 32 78 32 195 0 140 5 160 45 189 65 45 62 52 -120 246 -819 878 -751 2341 143 3106 538 461 1365 376 1849 -190 151 -177 217 -122 91 77 -229 361 -685 582 -1167 567 -116 -4 -211 -2 -211 4 0 158 303 725 505 949 l89 99 -2 -230 c-1 -206 4 -239 48 -329 60 -120 112 -135 106 -30 -41 643 80 1010 467 1420 126 134 408 380 435 380 32 0 5 -189 -48 -339 -105 -297 -67 -393 175 -441 453 -89 574 -219 576 -620 2 -295 -2 -277 77 -310 58 -25 89 -25 209 -2 228 44 348 4 455 -150 185 -267 427 -161 729 321 79 126 173 268 209 315 179 235 284 550 311 936 17 239 46 368 109 490 66 127 -11 163 -105 50 -78 -95 -142 -304 -156 -510 -24 -352 -126 -661 -294 -883 -36 -48 -105 -150 -153 -227 -179 -285 -233 -358 -310 -413 -106 -77 -158 -74 -212 12 -125 203 -315 262 -670 207 -38 -6 -40 6 -40 204 -1 401 -183 615 -604 711 -199 45 -206 48 -206 89 0 21 27 118 60 217 107 320 71 584 -121 870 -126 189 -126 189 39 309 392 286 515 670 361 1128 -50 146 -37 166 99 160 381 -16 877 -274 1372 -713 352 -313 717 -472 973 -424 196 37 137 117 -111 151 -276 37 -489 140 -687 329 -106 102 -106 109 10 187 168 113 365 183 365 129 0 -87 380 -283 548 -283 524 0 1126 729 827 1001 l-63 58 79 34 c146 63 318 59 495 -11 170 -68 288 -77 511 -41 187 30 301 -8 465 -156 229 -208 286 -240 311 -175 6 17 -26 71 -82 135 l-92 105 75 58 c476 368 706 931 574 1407 -22 78 34 52 146 -68z m-3846 -80 c60 -510 349 -861 978 -1190 426 -223 422 -216 304 -451 -215 -430 -680 -594 -990 -350 -570 449 -753 1413 -387 2037 62 107 78 100 95 -46z m5112 -1957 c0 -16 -13 -63 -29 -105 -142 -370 -82 -745 161 -1005 106 -113 107 -128 20 -219 -224 -233 -259 -523 -110 -898 32 -80 58 -150 58 -155 0 -5 -48 -30 -108 -56 -248 -110 -353 -279 -365 -590 -8 -228 4 -214 -139 -148 -94 44 -145 55 -252 53 l-133 -2 -40 93 c-22 50 -57 147 -79 214 -22 67 -55 150 -72 185 -46 88 -75 335 -47 395 22 50 55 65 55 26 0 -146 486 -843 566 -812 50 19 47 26 -117 273 -245 367 -404 726 -380 854 15 81 17 81 108 10 188 -147 772 -442 807 -407 41 41 -2 82 -208 201 -589 342 -661 407 -677 605 -7 82 -11 149 -10 151 1 3 246 22 821 64 162 12 180 17 180 53 0 57 -134 69 -614 55 -435 -12 -446 -10 -468 106 -21 115 425 593 712 762 286 168 213 237 -87 83 -137 -70 -204 -124 -423 -345 l-260 -261 -12 117 c-15 133 -24 121 286 376 285 233 856 452 856 327z m-1884 -7815 c-9 -91 -20 -177 -26 -191 -14 -37 -244 -136 -346 -149 l-85 -11 175 184 c97 101 199 217 226 258 70 103 74 96 56 -91z"
       id="path1" />
    <path
       d="M8645 9766 c-52 -20 -24 -80 54 -115 43 -20 131 -80 194 -134 120 -101 161 -117 179 -69 44 114 -297 368 -427 318z"
       id="path2" />
    <path
       d="M7174 9700 c-145 -92 -263 -302 -186 -332 34 -13 400 343 382 372 -23 37 -101 21 -196 -40z"
       id="path3" />
    <path
       d="M3804 9706 c4 -22 112 -88 287 -176 354 -177 434 -236 779 -571 363 -352 625 -499 888 -499 245 0 230 81 -24 134 -288 60 -474 174 -796 490 -233 230 -388 351 -582 455 -321 173 -568 248 -552 167z"
       id="path4" />
    <path
       d="M7184 9149 c-199 -140 -104 -469 136 -469 194 0 297 185 207 373 -55 117 -239 169 -343 96z"
       id="path5" />
    <path
       d="M8902 9129 c-164 -138 -78 -449 124 -449 225 0 288 339 86 462 -84 51 -137 48 -210 -13z"
       id="path6" />
    <path
       d="M3351 8502 c-30 -49 32 -78 195 -91 515 -40 635 -53 1460 -160 366 -48 598 -35 642 35 34 55 -17 73 -208 74 -93 0 -422 32 -730 72 -616 79 -1331 116 -1359 70z"
       id="path7" />
    <path
       d="M8193 8507 c-22 -22 -15 -117 11 -143 38 -38 112 -28 137 17 42 79 -86 187 -148 126z"
       id="path8" />
    <path
       d="M8601 8471 c-41 -49 -18 -120 41 -127 66 -8 106 40 90 106 -15 57 -91 70 -131 21z"
       id="path9" />
    <path
       d="M7760 8181 c-272 -21 -521 -65 -770 -138 -280 -82 -307 -95 -321 -151 -28 -110 10 -114 317 -32 753 200 1581 204 2207 9 196 -61 260 -63 277 -8 65 202 -892 381 -1710 320z"
       id="path10" />
    <path
       d="M5416 8000 c-175 -101 -404 -190 -846 -330 -938 -296 -1077 -350 -1041 -409 24 -38 100 -20 791 187 821 245 1062 342 1248 499 162 136 55 173 -152 53z"
       id="path11" />
    <path
       d="M6233 8010 c-136 -136 -114 -800 28 -826 26 -4 30 44 33 350 1 196 5 387 9 424 8 77 -22 100 -70 52z"
       id="path12" />
    <path
       d="M5370 7517 c-236 -316 -510 -598 -855 -876 -254 -206 -312 -282 -210 -280 251 4 1315 1107 1315 1363 0 102 -51 60 -250 -207z"
       id="path13" />
    <path
       d="M6467 6830 c-67 -175 563 -607 854 -586 149 10 124 72 -51 126 -249 77 -522 240 -670 400 -73 79 -118 99 -133 60z"
       id="path14" />
    <path
       d="M2913 6563 c-136 -150 -195 -575 -109 -781 90 -213 177 -192 124 30 -43 183 -28 410 40 605 28 82 46 156 40 165 -17 29 -59 21 -95 -19z"
       id="path15" />
    <path
       d="M6420 6385 c0 -218 518 -664 779 -672 158 -5 128 47 -90 155 -205 102 -435 296 -552 467 -61 88 -137 116 -137 50z"
       id="path16" />
    <path
       d="M5873 6107 c-38 -38 66 -411 147 -530 172 -250 303 -240 152 12 -38 62 -102 196 -142 297 -89 223 -116 261 -157 221z"
       id="path17" />
    <path
       d="M6180 6068 c0 -152 276 -519 466 -618 171 -90 245 -25 92 81 -121 84 -317 305 -406 456 -84 144 -152 180 -152 81z"
       id="path18" />
    <path
       d="M9272 5754 c-68 -101 -174 -214 -300 -319 -64 -53 -57 -95 15 -95 147 0 413 303 413 469 0 82 -52 60 -128 -55z"
       id="path19" />
    <path
       d="M9525 5136 c-11 -14 -45 -89 -76 -165 -158 -399 -414 -664 -802 -832 -211 -91 -241 -139 -86 -139 366 0 849 434 992 893 62 201 47 335 -28 243z"
       id="path20" />
    <path
       d="M4084 4899 c-106 -42 -45 -88 136 -102 286 -22 488 -119 669 -320 92 -103 211 -308 211 -364 0 -61 69 -120 98 -85 61 74 -40 354 -199 547 -212 259 -672 421 -915 324z"
       id="path21" />
    <path
       d="M9523 4325 c-98 -193 -193 -323 -337 -459 -109 -102 -122 -146 -43 -146 167 0 501 440 505 666 3 130 -40 110 -125 -61z"
       id="path22" />
    <path
       d="M10204 4054 c-10 -13 -38 -91 -63 -174 -24 -82 -95 -247 -156 -366 -139 -268 -125 -332 35 -159 145 157 260 434 260 627 0 77 -41 116 -76 72z"
       id="path23" />
  </g>
  <path
     style="fill:#ffffff;stroke-width:0.91638"
     d="m 330.3551,781.52488 c -4.74686,-0.7715 -13.55234,-4.38574 -21.07675,-8.65105 -9.92881,-5.62827 -16.94435,-8.23748 -33.06215,-12.29643 -26.08443,-6.56885 -37.2255,-14.51925 -40.83333,-29.13915 -1.35618,-5.49562 -1.32925,-6.37777 0.47672,-15.62202 2.34073,-11.98145 2.19389,-12.53076 -7.13668,-26.69825 -13.41022,-20.36202 -22.26671,-41.90983 -25.84876,-62.88998 -1.66749,-9.76649 -1.86951,-13.74855 -1.45853,-28.74805 0.52199,-19.05068 1.56598,-26.13228 7.12017,-48.29782 3.99601,-15.94722 4.23465,-17.95613 2.2246,-18.72746 -2.4219,-0.92936 -5.68391,2.16792 -9.26399,8.79618 -1.91346,3.54266 -3.74911,6.13472 -4.0792,5.76012 -0.33009,-0.37459 -1.64414,-5.83571 -2.9201,-12.13583 -2.86931,-14.16725 -5.42424,-21.06029 -9.34827,-25.22096 -5.79883,-6.14855 -7.70435,-1.36385 -4.25728,10.68989 0.95655,3.34491 2.43592,10.52477 3.28746,15.95523 0.85155,5.43047 2.6982,13.82643 4.10367,18.65769 3.71737,12.77843 3.66762,12.29507 2.1581,20.96464 -1.93025,11.08592 -1.89588,35.58179 0.0665,47.38421 4.4566,26.80383 13.49645,50.2795 28.66819,74.44862 l 6.02822,9.60318 -0.61182,6.08406 c -1.29355,12.86326 -1.32805,12.95693 -4.7725,12.95693 -7.9289,0 -40.76585,-13.05872 -53.7951,-21.39343 l -5.20831,-3.33172 4.22465,-5.73594 c 5.28028,-7.16919 7.09809,-10.71712 9.91974,-19.36103 8.31929,-25.48541 2.90183,-57.57622 -13.63106,-80.745 -7.21214,-10.10689 -14.25022,-14.63827 -14.25022,-9.1748 0,1.26336 3.0156,8.17058 6.70133,15.34937 10.16595,19.80043 13.79042,32.9636 13.68696,49.70755 -0.15771,25.52388 -11.23643,43.28271 -31.20939,50.02769 -10.52553,3.55452 -9.44059,6.70648 3.40731,9.89888 10.31394,2.56277 19.80041,7.3965 26.61006,13.55888 8.42836,7.62724 10.3725,12.62548 6.0201,15.47728 -4.21113,2.75924 -17.42564,1.19071 -25.66247,-3.04607 -1.51868,-0.78116 -4.6169,-3.067 -6.88494,-5.07964 -4.81052,-4.26881 -12.83714,-8.24113 -15.80172,-7.82019 -1.43369,0.20357 -2.15098,1.00795 -2.3393,2.62333 -0.20617,1.7685 1.17152,3.96961 5.71904,9.13716 9.90024,11.25011 10.91996,16.0255 4.16473,19.50358 -5.91467,3.0453 -12.92768,0.73329 -31.14711,-10.26837 -12.79853,-7.7283 -15.622914,-8.33125 -24.112906,-5.14763 -5.176869,1.94124 -9.699231,1.06868 -14.2329,-2.74615 -6.291883,-5.29427 -6.978442,-14.13072 -1.715275,-22.07664 2.747785,-4.1484 2.954505,-5.04671 3.420379,-14.86326 0.474732,-10.00321 0.602017,-10.53266 2.989808,-12.43663 1.371682,-1.09373 2.493966,-2.82204 2.493966,-3.84068 0,-1.03464 -3.287788,-5.46843 -7.449249,-10.04577 -29.403034,-32.34142 -42.648788,-67.72903 -40.79755,-108.99552 1.606031,-35.80047 15.239714,-68.301 38.726419,-92.31759 13.439572,-13.74278 25.796089,-21.3482 41.593688,-25.60086 10.72529,-2.88721 30.87752,-2.90312 41.39788,-0.0327 17.99729,4.91049 29.76664,11.88909 45.17522,26.78647 11.54227,11.15934 14.91044,12.78813 13.92823,6.73546 -1.20771,-7.44221 -13.10103,-22.40996 -23.88101,-30.05427 -16.77603,-11.89622 -34.34823,-17.01709 -58.39394,-17.01709 -11.26659,0 -13.64448,-0.23004 -13.64448,-1.31995 0,-2.37615 4.73051,-14.54993 8.84643,-22.76597 8.29078,-16.54975 20.81946,-35.79355 27.17109,-41.73427 l 2.27921,-2.13176 0.33932,14.96109 c 0.33882,14.93876 0.34389,14.96953 3.39777,20.62679 2.95826,5.48014 5.202,7.53766 6.59556,6.04818 0.36913,-0.39453 0.87589,-9.78949 1.12613,-20.87769 0.37055,-16.4188 0.81443,-21.58103 2.3917,-27.81516 4.13564,-16.34599 10.6255,-28.76633 22.43387,-42.9341 7.1203,-8.54301 26.74741,-27.05485 32.64147,-30.78671 l 3.02002,-1.91214 -0.65965,5.83055 c -0.36281,3.2068 -2.02659,10.40014 -3.6973,15.98522 -3.97667,13.29374 -4.44347,16.26463 -3.25128,20.69209 1.4097,5.23521 5.50155,7.55701 19.22628,10.90941 19.34522,4.72524 26.95733,9.80475 31.1945,20.81587 1.72063,4.47139 2.13525,7.65177 2.43483,18.67659 0.51834,19.07549 0.50815,19.03611 5.49541,21.24221 4.06653,1.79882 4.43517,1.80779 14.4904,0.3526 16.1118,-2.33167 21.2235,-0.67149 29.46944,9.57107 5.14275,6.38798 10.77339,10.07677 15.3593,10.06228 5.08324,-0.0161 12.41859,-4.26315 18.87651,-10.92933 6.96079,-7.18524 35.19569,-48.87422 39.28217,-58.00032 6.00351,-13.40726 8.70318,-24.75442 10.74209,-45.15074 1.57439,-15.74948 3.0478,-22.90682 6.31227,-30.66285 1.26833,-3.01342 2.30606,-6.72848 2.30606,-8.2557 0,-6.31828 -7.82105,-1.67573 -12.40015,7.36068 -3.41603,6.74122 -5.74432,16.51141 -7.29386,30.60723 -2.04441,18.59742 -5.51225,31.79144 -11.46577,43.62365 -3.3993,6.75585 -31.85573,49.14739 -35.31075,52.60241 -4.02638,4.02637 -10.0513,7.16862 -12.34764,6.43979 -0.9559,-0.30339 -3.21106,-2.55836 -5.01149,-5.01103 -4.66053,-6.3489 -8.70753,-9.61646 -14.83521,-11.97797 -4.53579,-1.74802 -6.93857,-2.03868 -15.88267,-1.92128 -5.7961,0.0761 -11.55962,0.23897 -12.80781,0.362 l -2.26946,0.22368 -1.07284,-13.74571 c -0.75341,-9.653 -1.6514,-15.27509 -3.01596,-18.88227 -5.61432,-14.84128 -15.95144,-22.66559 -36.73312,-27.80378 -12.45858,-3.08034 -13.74634,-3.66273 -13.7429,-6.21526 0.002,-1.14483 1.48295,-6.82378 3.29202,-12.61988 2.63356,-8.43768 3.38716,-12.54819 3.78053,-20.62084 0.73644,-15.11311 -2.14343,-24.38254 -12.69711,-40.86818 -5.99883,-9.37061 -5.89058,-10.74664 1.26894,-16.12914 3.15006,-2.36821 9.08685,-7.68296 13.19287,-11.81055 5.77978,-5.81016 8.31825,-9.2347 11.24216,-15.1663 7.71171,-15.64438 8.35765,-29.3408 2.36202,-50.08302 -1.2081,-4.17944 -1.98017,-8.16284 -1.71571,-8.85201 0.75717,-1.97314 4.15679,-2.38785 11.71682,-1.42934 25.61945,3.24823 54.08728,18.52138 86.2259,46.26067 25.2435,21.78801 48.79896,32.14697 65.90786,28.98422 9.99467,-1.84762 11.04012,-6.14108 2.12474,-8.72601 -2.6413,-0.76582 -8.99406,-2.18538 -14.11725,-3.15458 -15.89394,-3.00681 -28.88091,-9.72873 -40.54606,-20.98624 l -6.03825,-5.82725 3.91515,-3.52148 c 4.44555,-3.99857 17.66946,-10.86251 22.31393,-11.58215 2.72696,-0.42255 3.28037,-0.14614 4.65284,2.32386 2.92082,5.25652 20.27027,14.47624 31.47575,16.72662 8.83107,1.77353 20.89832,-1.3328 33.20136,-8.54666 2.88355,-1.69075 9.40281,-7.19781 14.48728,-12.2379 7.73153,-7.66407 9.88057,-10.45064 13.13122,-17.02674 6.45778,-13.06412 6.17232,-22.33829 -0.89878,-29.20056 l -3.51346,-3.40969 6.13855,-2.21472 c 9.11656,-3.28916 18.94645,-3.0132 30.37519,0.85274 12.81099,4.33351 18.60706,4.96452 31.89983,3.47289 16.17079,-1.81458 21.35366,-0.4818 31.46133,8.09029 13.59859,11.53268 18.50488,15.15171 20.54103,15.15171 4.98984,0 4.08661,-3.93957 -2.73129,-11.91294 l -5.09329,-5.95647 3.90931,-3.2057 c 22.12535,-18.143135 36.01734,-39.890896 40.05961,-62.712889 1.74334,-9.842534 1.10921,-24.461768 -1.42366,-32.82139 -1.33597,-4.40933 6.35404,1.76964 13.07865,10.508785 11.76361,15.287688 17.9479,35.743118 17.9479,59.365213 0,26.768291 -7.64594,49.573841 -22.9694,68.510801 l -3.16066,3.90599 -7.44043,-7.13892 c -8.20545,-7.87291 -12.51042,-10.33881 -14.7723,-8.46161 -2.38425,1.97875 -1.52334,4.34428 3.71941,10.21995 10.86017,12.17121 16.76861,27.07589 20.10564,50.71866 0.78252,5.5441 3.36925,17.70905 5.7483,27.03322 l 4.32555,16.95303 -0.0319,15.57847 c -0.0294,14.37297 -0.22822,16.21667 -2.56899,23.82588 -3.67724,11.95371 -10.43277,25.08464 -21.16203,41.13329 -8.61169,12.88122 -11.45845,18.32999 -10.22245,19.566 1.49123,1.49122 6.48068,-1.87685 14.98018,-10.1122 l 9.64988,-9.34997 -0.61856,8.4512 c -0.79586,10.87359 -3.2545,20.37097 -7.76562,29.99745 -4.32364,9.22643 -7.76912,14.3659 -14.9226,22.25949 -2.95656,3.26245 -5.63047,6.94733 -5.94202,8.18862 -2.25846,8.99842 13.79863,0.0412 22.86669,-12.75585 5.04498,-7.1196 7.35071,-11.59836 11.68269,-22.69303 1.86954,-4.78809 3.68209,-8.70561 4.02789,-8.70561 0.3458,0 1.78366,2.96844 3.19526,6.59652 3.36791,8.65629 5.5963,12.40654 18.40528,30.97507 13.20409,19.1413 15.61295,23.41804 19.14472,33.98994 6.14313,18.38868 7.24191,43.98702 2.82321,65.77217 -1.86044,9.17236 -1.90277,10.07365 -0.53719,11.43923 4.2949,4.2949 10.33005,-8.98306 14.88245,-32.74293 l 0.76943,-4.01582 6.46559,8.64542 c 31.84773,42.58493 35.54089,103.29193 10.38767,170.74933 -6.76635,18.14642 -19.04509,41.3847 -27.44999,51.95085 -3.91735,4.92464 -3.51938,6.86313 2.8991,14.12168 3.07444,3.47683 6.33898,7.78399 7.25454,9.57147 3.69317,7.21032 3.14079,14.02794 -1.48913,18.37932 -2.61652,2.45911 -5.84909,2.66142 -20.99216,1.3138 l -8.26229,-0.73529 -7.77437,5.34971 c -17.11311,11.77592 -20.93356,14.17384 -24.69884,15.50231 -5.26789,1.85861 -7.5705,1.74514 -10.44335,-0.51463 -3.52609,-2.77363 -3.18574,-6.55976 1.25099,-13.91595 2.01604,-3.34264 3.66552,-7.14398 3.66552,-8.44743 0,-4.9692 -4.37972,-3.80994 -13.97733,3.69968 -12.38596,9.69134 -30.17938,16.39673 -37.61122,14.17364 -7.27003,-2.17468 -6.23176,-8.69076 2.68079,-16.82438 12.23969,-11.16999 13.31682,-12.3735 13.01016,-14.53672 -0.74198,-5.23396 -10.6828,-2.04303 -21.81471,7.00233 -3.28686,2.67079 -7.29584,5.52707 -8.90885,6.34728 -6.3052,3.20623 -14.01973,0.68303 -12.79774,-4.18577 1.52528,-6.0772 14.64257,-15.55932 36.94938,-26.70964 15.94958,-7.97259 14.09991,-5.132 15.90701,-24.42886 1.94438,-20.76264 2.92602,-23.36475 12.97831,-34.4025 17.50333,-19.21924 28.33474,-32.89325 31.91714,-40.29351 2.02925,-4.19187 1.94953,-6.85506 -0.20567,-6.86994 -0.64583,-0.004 -10.15696,9.12277 -21.13585,20.28275 -10.9789,11.15996 -20.11952,20.13269 -20.3125,19.93938 -0.19299,-0.19331 0.85078,-5.01728 2.31947,-10.71992 3.71162,-14.41157 5.62592,-30.33406 5.26483,-43.79116 -0.25326,-9.43764 -0.57128,-11.47448 -2.04557,-13.10107 -0.96013,-1.05933 -2.11519,-1.92604 -2.5668,-1.92604 -1.66737,0 -3.32246,6.23796 -4.3765,16.49484 -0.59563,5.79611 -1.85567,14.58083 -2.80008,19.52161 -12.13331,63.47606 -59.72935,108.55897 -128.71711,121.92068 -15.30483,2.96428 -25.6211,4.06056 -44.90263,4.77163 l -15.57847,0.57453 -5.04009,-4.27482 c -12.42832,-10.5412 -23.45329,-16.36957 -43.34983,-22.91697 l -12.09119,-3.97887 -0.12144,-20.0082 c -0.14789,-24.36253 -2.37269,-42.57056 -7.09156,-58.03799 -1.23337,-4.04272 -1.1907,-4.25869 2.17229,-10.99656 5.42533,-10.86981 8.02318,-19.4172 10.91705,-35.91895 0.98666,-5.62625 4.00734,-11.09493 6.95299,-12.58779 1.00802,-0.51087 6.85866,-2.1766 13.00145,-3.70162 14.3826,-3.57065 22.48656,-6.49749 33.33921,-12.04087 9.9717,-5.09338 15.71182,-9.16361 25.74188,-18.25317 11.94503,-10.82496 19.07476,-22.00441 15.45869,-24.23927 -1.55494,-0.96101 -6.16756,2.09099 -13.51327,8.94121 -13.03812,12.15867 -25.8352,20.87418 -41.95465,28.57344 -13.38937,6.39525 -22.61658,8.82459 -25.48224,6.70896 -1.48652,-1.09745 -1.5577,-1.83083 -0.6942,-7.15307 2.24113,-13.81341 0.49773,-25.4528 -5.82957,-38.91993 -4.08585,-8.6964 -6.02772,-11.0846 -8.30306,-10.21147 -1.95775,0.75126 -1.75011,4.63238 0.85624,16.00504 4.2406,18.50362 3.9464,31.57704 -0.95173,42.29149 -2.25766,4.93857 -2.30991,4.98069 -3.41841,2.75726 -1.48857,-2.98577 -3.8941,-3.34601 -5.26303,-0.78814 -0.60482,1.13014 -1.42867,8.30423 -1.83076,15.94243 -0.40209,7.63821 -1.39684,16.45692 -2.21055,19.59714 -1.57936,6.09497 -5.76349,15.66627 -6.84855,15.66627 -0.36012,0 -1.99045,-2.06131 -3.62295,-4.58068 -4.05351,-6.25563 -9.25343,-7.49713 -9.25343,-2.2093 0,1.24612 2.12032,7.71663 4.71183,14.37892 9.84242,25.30305 10.11116,26.94954 10.77914,66.04167 l 0.54569,31.9353 10.53837,3.04035 c 13.84832,3.99528 22.84697,7.28398 30.69874,11.21938 16.43799,8.23889 25.80101,17.17221 25.02637,23.87782 -0.61491,5.32284 -8.82535,3.17546 -18.08765,-4.73071 -6.68487,-5.70609 -14.92565,-9.94889 -18.62968,-9.59157 -2.61041,0.25184 -2.97112,0.61308 -2.97112,2.97549 0,2.23685 1.2763,3.77735 7.59215,9.1638 4.17569,3.56122 8.59953,7.91825 9.83075,9.68228 7.4429,10.66385 0.007,16.09753 -14.53682,10.62311 -7.1434,-2.68877 -11.96022,-5.66863 -19.49377,-12.05954 -6.66677,-5.6556 -12.44891,-7.92949 -14.62638,-5.75202 -1.78974,1.78974 -0.75623,4.55276 3.69645,9.88228 6.1302,7.33738 7.68737,12.94725 4.39902,15.84795 -1.82949,1.61381 -6.02795,2.47616 -9.3929,1.92926 z M 667.14901,577.53537 c 3.08071,-3.15738 7.18581,-8.5741 9.12245,-12.03713 9.29802,-16.62643 12.62207,-38.02042 5.75492,-37.03945 -1.72077,0.24581 -2.66397,2.0281 -5.89486,11.13902 -2.11547,5.96551 -6.59684,16.61249 -9.95859,23.65996 -6.17518,12.94547 -8.24277,20.01829 -5.85191,20.01829 0.67469,0 3.7473,-2.58331 6.82799,-5.74069 z M 618.4942,548.3411 c 13.30698,-9.52891 27.36425,-34.46043 24.92031,-44.19785 -1.0372,-4.13252 -3.42824,-2.58561 -7.59567,4.91409 -7.56607,13.61588 -13.73931,22.39042 -21.61495,30.72313 -9.17414,9.70658 -10.1345,12.33866 -4.50198,12.33866 2.65579,0 4.80752,-0.92459 8.79229,-3.77803 z m -33.00599,-17.68893 c 17.28686,-6.52073 37.03766,-25.31184 46.78576,-44.51242 5.96026,-11.73978 9.17107,-26.32134 6.55798,-29.78236 l -1.38376,-1.83276 -1.81826,1.83276 c -1.00006,1.00802 -3.77906,6.36884 -6.17557,11.91294 -7.16269,16.5702 -14.37429,27.42499 -24.36629,36.67582 -7.60435,7.0403 -14.37285,11.43832 -28.22841,18.34219 -11.7814,5.87038 -14.35617,7.99104 -11.81565,9.73174 2.19476,1.50379 13.7185,0.16907 20.4442,-2.36791 z m -238.82154,1.12332 c 1.76347,-1.76348 1.27274,-9.3367 -1.01307,-15.63403 -6.74057,-18.57007 -19.99606,-32.41052 -38.00889,-39.68622 -13.2273,-5.34275 -28.0588,-6.64152 -35.7883,-3.13393 -7.00507,3.17886 -3.47652,5.76952 9.96746,7.3181 16.84071,1.93985 28.27049,6.76038 38.51259,16.24276 8.60392,7.96571 19.18244,24.28579 19.18244,29.59383 0,1.86013 3.74047,6.39914 5.27336,6.39914 0.42611,0 1.2696,-0.49484 1.87441,-1.09965 z m 260.49075,-90.37658 c 5.47376,-3.47136 14.10148,-13.15058 16.99669,-19.06815 2.708,-5.53496 3.82339,-11.7004 2.28835,-12.64911 -2.03649,-1.25862 -4.4111,0.5172 -8.81406,6.59148 -2.46306,3.398 -8.51954,10.14194 -13.45884,14.98653 -10.4198,10.21997 -11.41174,12.72659 -5.03625,12.72659 2.7535,0 5.17601,-0.78113 8.02411,-2.58734 z m -191.3155,-4.21957 c -0.1071,-1.47473 -2.43942,-7.04131 -5.18293,-12.37019 -2.74351,-5.32888 -6.51286,-13.40022 -8.37634,-17.9363 -4.98298,-12.12955 -6.88786,-15.24901 -9.11694,-14.92994 -1.68212,0.24078 -1.85822,0.87464 -1.74173,6.2691 0.15567,7.20838 5.41088,23.83528 9.59386,30.35389 6.34796,9.89245 15.2945,15.09078 14.82408,8.61344 z m 38.11945,2.30934 c 2.21814,-1.40477 0.39451,-4.98528 -4.40225,-8.64333 -7.20702,-5.49614 -19.27297,-18.7162 -25.14164,-27.54643 -6.32118,-9.51109 -8.20227,-11.54634 -10.67178,-11.54634 -1.54538,0 -1.83265,0.61067 -1.83203,3.89461 9.6e-4,5.17701 3.81316,13.02992 10.85298,22.35653 10.17778,13.48388 19.4378,20.46312 29.46703,22.20918 0.252,0.0439 1.02947,-0.28202 1.72769,-0.72422 z M 196.43766,421.98376 c 0.18275,-1.25487 -0.4009,-6.98555 -1.297,-12.73483 -1.9973,-12.81436 -1.0933,-23.01636 3.31736,-37.43768 3.03487,-9.92298 3.02129,-12.13198 -0.0746,-12.13198 -2.65267,0 -6.12356,3.75058 -8.70787,9.40957 -6.76431,14.81221 -7.7316,36.58756 -2.12201,47.77036 3.77541,7.52632 8.16553,10.05866 8.8841,5.12456 z m 290.2022,-3.72399 c 1.03448,-1.67382 -2.92685,-4.93569 -11.45444,-9.43192 -14.24879,-7.51276 -26.46975,-17.3524 -35.00883,-28.18713 -5.73895,-7.28178 -8.81737,-9.67387 -11.24879,-8.74084 -3.90151,1.49714 1.22971,12.90504 10.12722,22.51519 9.43991,10.19596 25.12052,21.16788 34.2554,23.96891 3.49504,1.07168 12.64303,0.98644 13.32944,-0.12421 z m 7.65926,-36.10659 c 1.25196,-1.25197 1.2515,-1.54283 -0.005,-2.79884 -0.77093,-0.77093 -6.16764,-3.21 -11.99269,-5.42016 -5.82505,-2.21017 -12.39606,-4.93008 -14.60225,-6.04426 -7.89097,-3.98513 -18.79067,-11.65217 -25.76621,-18.12439 -8.89363,-8.25193 -12.64903,-8.75765 -11.29134,-1.52057 1.91743,10.22081 29.36098,30.21772 47.7084,34.76301 6.35197,1.57361 13.92615,1.16765 15.9486,-0.85479 z m -197.40021,-9.76645 c 8.92574,-5.57806 19.83187,-14.79556 33.46783,-28.28593 28.09825,-27.79821 46.5115,-52.98333 44.52466,-60.89954 -0.32173,-1.28188 -1.04389,-2.3307 -1.60477,-2.3307 -1.47693,0 -5.93471,4.95859 -14.57955,16.2175 -17.38933,22.64762 -34.05416,39.82547 -58.30258,60.09741 -14.40828,12.04548 -16.7848,14.52027 -16.7848,17.47896 0,2.75785 7.19687,1.52341 13.27921,-2.2777 z m 122.67243,-58.29738 c 0.77184,-9.71866 1.02921,-48.66253 0.32626,-49.36547 -0.31255,-0.31255 -1.58085,-0.31413 -2.81845,-0.004 -5.23373,1.31358 -8.4293,14.69427 -7.66544,32.09716 0.64926,14.79219 3.75495,24.37376 7.90032,24.37376 1.45264,0 1.77346,-1.00937 2.25731,-7.10194 z m -170.81655,1.15624 c 19.60552,-4.96975 72.27275,-21.11093 88.93135,-27.25522 17.32946,-6.39174 27.75179,-11.94278 34.23919,-18.23618 2.95527,-2.86689 5.19143,-5.76532 4.96926,-6.44097 -0.22218,-0.67565 -1.87043,-1.35358 -3.66278,-1.5065 -2.48748,-0.21224 -5.3957,0.84316 -12.28686,4.45888 -16.28355,8.54386 -25.57636,11.9949 -76.40887,28.37576 -44.14886,14.22705 -52.5142,17.85931 -49.4988,21.49265 1.55909,1.87859 3.22816,1.77049 13.71751,-0.88842 z M 468.68302,275.8417 c 49.46808,-12.03144 98.10103,-12.69178 137.04436,-1.86082 17.40999,4.84208 20.50994,5.44876 23.13815,4.52825 5.16205,-1.80797 3.18936,-8.00428 -3.6609,-11.49902 -24.32583,-12.41012 -84.8701,-17.27499 -128.9847,-10.36423 -18.37469,2.87848 -47.2602,11.00379 -50.44675,14.19034 -1.7316,1.7316 -2.487,7.19605 -1.176,8.50704 1.37078,1.37079 8.03805,0.40152 24.08584,-3.50156 z M 368.38488,251.56529 c 4.14447,-0.66851 6.02251,-1.48874 7.62731,-3.33122 1.91885,-2.20304 1.98944,-2.58393 0.71504,-3.85834 -0.88703,-0.88702 -3.55879,-1.53018 -7.16912,-1.72575 -13.52525,-0.73268 -30.82699,-2.31295 -48.49538,-4.42936 -45.25363,-5.42071 -90.71674,-8.25958 -96.38714,-6.01872 -3.2028,1.26569 -2.97438,3.73021 0.50008,5.39547 1.36006,0.65186 13.72616,2.21109 27.4802,3.46494 13.75405,1.25386 39.64654,4.10664 57.53886,6.33953 43.20294,5.39154 48.31072,5.757 58.19015,4.16345 z M 555.261,242.77532 c 0.79202,-0.79201 1.44003,-2.66737 1.44003,-4.16747 0,-5.29897 -7.95058,-9.51744 -11.00384,-5.83848 -1.56609,1.88701 -0.56439,8.76161 1.49621,10.26835 2.20667,1.61356 6.32562,1.47959 8.0676,-0.2624 z m 25.65865,0 c 1.70005,-1.70005 1.90887,-6.88838 0.34037,-8.45688 -1.88622,-1.88622 -6.87982,-1.33383 -8.47038,0.93701 -0.78458,1.12016 -1.42652,2.67789 -1.42652,3.46162 0,4.58937 6.33515,7.27964 9.55653,4.05825 z m -185.94039,-8.0828 c 3.4908,-2.55253 -1.35967,-5.56677 -13.34439,-8.29263 -17.52903,-3.9869 -28.7002,-10.73549 -48.86381,-29.51902 -24.63132,-22.94546 -31.58424,-28.12629 -49.60955,-36.96564 -12.9325,-6.3419 -20.97954,-9.17067 -26.08792,-9.17067 -3.03726,0 -3.69444,0.31422 -3.69444,1.76641 0,2.06922 4.21124,4.72329 24.74227,15.59348 17.08701,9.04674 23.99027,14.10458 40.65725,29.78851 24.35547,22.91894 35.57496,31.06537 49.15172,35.68886 5.54122,1.88702 8.65112,2.34377 16.0869,2.36267 6.46012,0.0164 9.73957,-0.35812 10.96197,-1.25197 z m 101.22241,-14.99176 c 6.43444,-3.23278 9.30116,-10.6496 7.39992,-19.14522 -1.91578,-8.56064 -10.18851,-14.12682 -19.19963,-12.91818 -12.05213,1.61653 -17.18418,18.7485 -8.53654,28.49696 4.65805,5.25102 13.79423,6.85325 20.33625,3.56644 z m 114.58555,-1.86456 c 6.9558,-6.95582 6.93288,-17.98552 -0.0519,-24.97029 -4.83236,-4.83236 -9.58799,-6.20528 -14.09164,-4.06816 -8.79432,4.17318 -11.80866,15.46437 -6.7921,25.44209 2.40251,4.77849 6.45282,7.05833 12.54718,7.06257 4.47254,0.003 5.2336,-0.31135 8.38846,-3.46621 z M 473.03375,171.05826 c 7.75457,-6.45911 18.73103,-18.51662 18.40823,-20.22122 -0.87425,-4.61663 -12.83924,0.0752 -19.90373,7.80493 -5.0311,5.50482 -7.39163,9.97737 -7.39163,14.00511 0,4.15277 2.53894,3.69887 8.88713,-1.58882 z m 132.07501,-2.29595 c 1.02762,-8.976 -24.83762,-25.70915 -30.04362,-19.4363 -1.88568,2.2721 -0.0998,5.03268 5.18534,8.01543 2.7926,1.57604 8.41794,5.49739 12.50075,8.71409 8.42296,6.63616 11.82241,7.38078 12.35753,2.70678 z"
     id="path24"
     transform="scale(0.75)" />
  <path
     style="fill:#ffffff;stroke-width:0.91638"
     d="m 404.51716,168.73551 c -6.2822,-1.69385 -11.77271,-5.285 -18.95906,-12.40043 -14.49732,-14.35425 -24.32111,-33.2292 -29.30421,-56.30365 -2.30454,-10.671266 -2.25668,-35.846509 0.0872,-45.875193 2.16186,-9.249858 5.37689,-17.824222 9.38178,-25.020874 4.95894,-8.911031 4.74433,-9.08561 7.21088,5.865766 5.32647,32.287312 23.37434,52.81301 67.08515,76.295441 16.54898,8.89048 21.1422,12.07026 21.92165,15.17587 0.74365,2.9629 -4.99365,15.09278 -10.91285,23.07209 -11.54835,15.56764 -30.67662,23.46027 -46.51054,19.19098 z"
     id="path25"
     transform="scale(0.75)" />
  <path
     style="fill:#ffffff;stroke-width:0.91638"
     d="m 678.57961,371.76517 c -4.30621,-2.10059 -6.45826,-2.5037 -14.77968,-2.76846 -9.52341,-0.303 -9.76496,-0.36408 -10.8829,-2.75181 -1.57026,-3.35383 -10.73719,-27.78662 -12.92519,-34.44978 -2.39193,-7.28414 -3.25675,-17.92164 -1.75231,-21.55369 1.28152,-3.09386 2.76849,-3.70814 2.76849,-1.1437 0,5.25327 16.36142,31.84392 27.87266,45.29879 6.07357,7.09906 9.7068,9.30695 11.82673,7.18701 1.32307,-1.32307 -0.53251,-4.86905 -11.20508,-21.41265 -9.18686,-14.24062 -17.35182,-29.98741 -20.58882,-39.70724 -2.42638,-7.28574 -3.16958,-15.34822 -1.50939,-16.37428 0.49381,-0.30519 3.07113,1.04473 5.72738,2.99983 12.07716,8.88921 44.35277,25.61483 51.202,26.53351 3.35088,0.44945 3.57028,0.33354 3.57028,-1.8861 0,-3.03862 -1.88428,-4.43824 -22.45132,-16.67648 -26.25872,-15.62502 -34.20508,-22.11782 -36.05025,-29.45587 -1.50221,-5.97417 -1.94486,-15.05308 -0.7526,-15.43601 0.58521,-0.18795 14.91316,-1.38476 31.8399,-2.65957 16.92673,-1.27481 31.46281,-2.58144 32.3024,-2.90362 0.83959,-0.32218 1.52653,-1.31592 1.52653,-2.2083 0,-3.93222 -1.42457,-4.11542 -35.73946,-4.59606 -35.08338,-0.49141 -35.09323,-0.49285 -36.00755,-5.27583 -1.59876,-8.36336 22.58551,-35.12044 45.92155,-50.80685 10.60259,-7.12703 12.99614,-9.22485 12.99614,-11.39045 0,-3.6787 -15.49282,1.57769 -26.34056,8.9368 -2.397,1.62612 -11.62033,10.12269 -20.49628,18.88125 l -16.13811,15.92466 -0.57575,-3.48416 c -0.95602,-5.78533 -0.67386,-9.83795 0.83493,-11.99204 2.27393,-3.2465 18.47526,-16.53954 26.74998,-21.94812 14.07397,-9.19913 34.55791,-17.65397 42.77112,-17.65397 5.21753,0 5.2784,0.57841 1.34016,12.73455 -3.94784,12.18577 -4.64046,25.67636 -1.87892,36.59679 2.24074,8.86089 6.28905,17.29703 11.00725,22.93761 5.92792,7.08679 8.38483,10.50599 8.38483,11.6689 0,0.62542 -2.05616,3.54165 -4.56924,6.48051 -14.45612,16.90536 -16.48629,34.70971 -6.84009,59.98706 1.73905,4.55707 3.1619,8.78988 3.1619,9.40625 0,0.61635 -2.80712,2.42125 -6.23805,4.01087 -17.04413,7.89689 -23.23018,18.05094 -24.69184,40.53027 -0.79933,12.29318 -1.02915,12.49925 -9.39084,8.42038 z"
     id="path26"
     transform="scale(0.75)" />
</svg>
