<?xml version="1.0" encoding="UTF-8" standalone="no"?>
<svg
   version="1.0"
   width="600.000000pt"
   height="471.000000pt"
   viewBox="0 0 600.000000 471.000000"
   preserveAspectRatio="xMidYMid meet"
   id="svg7"
   sodipodi:docname="frog16_t1.svg"
   inkscape:version="1.4.3 (0d15f75, 2025-12-25)"
   xmlns:inkscape="http://www.inkscape.org/namespaces/inkscape"
   xmlns:sodipodi="http://sodipodi.sourceforge.net/DTD/sodipodi-0.dtd"
   xmlns="http://www.w3.org/2000/svg"
   xmlns:svg="http://www.w3.org/2000/svg">
  <defs
     id="defs7" />
  <sodipodi:namedview
     id="namedview7"
     pagecolor="#505050"
     bordercolor="#ffffff"
     borderopacity="1"
     inkscape:showpageshadow="0"
     inkscape:pageopacity="0"
     inkscape:pagecheckerboard="1"
     inkscape:deskcolor="#505050"
     inkscape:document-units="pt"
     inkscape:zoom="1.1"
     inkscape:cx="400"
     inkscape:cy="314.09091"
     inkscape:window-width="1920"
     inkscape:window-height="1022"
     inkscape:window-x="0"
     inkscape:window-y="30"
     inkscape:window-maximized="1"
     inkscape:current-layer="svg7" />
  <g
     transform="translate(0.000000,471.000000) scale(0.050000,-0.050000)"
     fill="#000000"
     stroke="none"
     id="g7">
    <path
       d="M6190 9200 c-410 -62 -759 -301 -921 -631 l-50 -102 -165 -26 c-217 -35 -528 -128 -712 -213 l-149 -69 -92 36 c-522 201 -1447 -372 -1539 -955 -15 -91 -29 -117 -85 -158 -309 -227 -837 -952 -837 -1151 0 -16 -65 -74 -145 -128 -345 -233 -583 -586 -668 -992 -26 -124 -41 -151 -147 -264 -511 -547 -642 -1289 -348 -1979 l69 -163 -79 -147 c-360 -670 -218 -1222 321 -1254 134 -8 167 -2 267 43 l114 53 82 -71 c353 -301 927 -237 933 105 l1 44 108 -48 c427 -189 817 -52 784 275 -13 130 -12 130 122 77 53 -20 173 -53 266 -72 143 -29 183 -46 250 -108 44 -40 122 -102 173 -137 80 -56 96 -78 118 -170 64 -275 293 -505 648 -653 430 -179 724 -120 864 174 2 4 48 -16 102 -43 426 -216 983 -65 915 248 l-13 59 146 0 c308 1 505 231 355 413 -16 19 -16 27 -1 27 225 0 816 125 1182 250 263 91 270 92 403 71 75 -12 193 -21 264 -21 l128 0 -21 -81 c-66 -248 242 -389 592 -271 86 28 159 52 163 52 4 0 11 -42 17 -92 46 -403 692 -448 1092 -77 108 99 132 113 160 92 283 -206 753 -175 925 62 161 223 122 615 -103 1032 l-82 151 51 121 c303 718 255 1290 -150 1767 l-120 141 96 120 c359 447 427 871 173 1080 l-70 58 -3 227 -4 228 -94 190 c-107 217 -374 634 -484 755 l-74 82 31 119 c17 66 31 191 31 279 0 136 6 164 42 197 217 196 83 521 -266 649 -203 74 -334 148 -543 306 -443 335 -873 337 -1423 6 l-154 -92 -163 29 c-90 16 -329 40 -533 53 -299 19 -378 30 -410 58 -371 321 -921 502 -1340 439z m361 -161 c302 -42 552 -163 933 -452 248 -188 477 -347 500 -347 45 0 4 75 -99 184 l-115 122 280 -13 c433 -20 699 -86 1088 -270 130 -62 169 -65 149 -12 -13 34 -268 208 -363 247 -89 37 -75 60 92 148 431 228 765 199 1134 -97 178 -144 264 -193 450 -261 258 -95 360 -184 360 -314 0 -101 -73 -138 -550 -282 -499 -150 -516 -151 -660 -52 -102 70 -110 72 -110 23 0 -56 73 -139 162 -184 51 -26 92 -68 120 -124 206 -402 611 -610 821 -420 l82 74 73 -85 c250 -289 506 -790 510 -994 3 -190 1 -190 -214 -116 -1469 510 -2741 425 -4419 -293 -286 -122 -365 -97 -277 86 67 137 41 175 -63 94 -143 -113 -151 -345 -12 -402 85 -36 188 -11 483 113 1615 683 3004 752 4364 219 381 -150 448 -305 284 -655 -143 -304 -349 -527 -656 -709 -109 -64 -198 -125 -198 -135 0 -40 197 9 351 88 197 99 209 95 361 -107 325 -433 349 -918 75 -1540 l-86 -197 86 -143 c339 -566 299 -1014 -96 -1064 -191 -24 -392 41 -471 151 -66 93 -112 78 -274 -86 -185 -189 -324 -261 -518 -271 -341 -17 -434 134 -298 482 29 73 -52 63 -238 -30 -273 -138 -451 -171 -548 -104 -224 157 542 857 1151 1051 171 54 184 78 43 78 -139 0 -316 -48 -513 -140 l-165 -77 0 47 c0 28 48 108 117 194 357 444 624 1071 553 1296 -23 73 -44 42 -119 -175 -426 -1232 -1578 -2035 -3141 -2187 l-240 -24 -136 101 c-178 134 -439 266 -677 345 -191 63 -193 65 -206 137 -25 137 -115 413 -183 556 -37 79 -68 148 -68 154 0 5 64 52 142 104 482 321 604 1088 230 1448 -101 97 -109 65 -25 -103 226 -459 68 -986 -373 -1245 l-91 -53 -92 90 c-170 165 -404 281 -619 307 -143 17 -113 -28 71 -105 448 -189 818 -712 827 -1170 l2 -130 259 -92 c834 -296 1285 -811 678 -773 -161 10 -175 15 -275 92 -124 96 -262 162 -339 163 -83 0 -67 -30 60 -117 288 -197 390 -428 227 -512 -209 -108 -587 -13 -834 211 -156 141 -223 136 -148 -12 178 -348 -172 -477 -652 -241 -311 153 -487 358 -489 570 0 91 -1 91 -133 171 -513 311 -794 943 -699 1575 21 137 -2 150 -70 40 l-47 -75 -18 88 c-24 112 11 327 76 469 41 90 45 120 33 233 -48 428 190 919 603 1245 232 183 233 233 2 121 -422 -207 -766 -788 -766 -1294 0 -168 -8 -219 -53 -330 -90 -225 -86 -546 9 -732 17 -33 42 -139 57 -235 34 -227 106 -440 215 -631 104 -182 106 -177 -42 -134 -250 72 -394 146 -507 261 l-109 111 75 64 c94 80 175 190 175 238 0 52 -26 45 -122 -36 -311 -260 -838 -325 -1266 -157 -172 68 -115 -47 71 -142 216 -110 467 -127 850 -57 105 20 336 -240 405 -456 93 -287 -426 -313 -745 -37 -144 126 -223 124 -179 -4 103 -297 -18 -445 -317 -391 -155 28 -284 119 -411 291 -120 162 -151 171 -167 53 -20 -147 -98 -197 -291 -184 -432 27 -477 580 -95 1158 l50 74 -65 127 c-144 287 -215 616 -190 891 125 1370 1714 2005 2463 984 119 -161 153 -96 55 103 -267 541 -1033 713 -1701 383 -172 -85 -176 -83 -126 63 94 274 362 621 556 721 l65 33 75 -78 c313 -329 1331 -48 1396 385 62 415 -452 659 -927 442 -138 -63 -146 -55 -58 64 154 210 484 495 506 437 59 -154 491 -192 812 -73 364 136 692 418 814 701 46 107 48 154 18 398 -7 58 254 177 557 254 281 72 316 69 299 -26 -37 -212 -39 -325 -5 -325 41 0 73 64 152 309 172 533 439 777 931 851 146 22 153 22 321 -1z m-2561 -981 c621 -169 -195 -1126 -960 -1126 -301 0 -387 154 -250 445 198 418 843 781 1210 681z m6821 -468 c48 -254 -148 -614 -316 -582 -100 19 -276 146 -224 162 185 57 279 159 304 330 15 105 18 110 95 133 119 36 127 33 141 -43z m-8054 -1174 c198 -60 319 -292 235 -452 -214 -407 -1265 -508 -1203 -115 59 378 582 684 968 567z m6413 -4521 c-215 -228 -195 -218 -395 -211 l-165 6 200 114 c110 62 272 163 360 224 220 152 220 101 0 -133z"
       id="path1" />
    <path
       d="M5640 8182 c-63 -17 -79 -93 -24 -111 34 -11 40 -38 49 -236 18 -358 102 -560 324 -779 516 -508 1540 -331 1834 318 54 118 62 126 124 126 259 0 477 231 411 435 -30 91 -70 82 -84 -18 -52 -391 -646 -376 -1769 45 -529 198 -746 253 -865 220z m565 -267 c151 -55 275 -107 275 -115 0 -61 -142 -104 -238 -72 -109 37 4 -282 140 -397 256 -215 674 -128 808 169 20 45 47 78 59 73 13 -5 119 -24 237 -44 245 -40 247 -43 152 -192 -528 -823 -1838 -438 -1838 539 l0 167 65 -14 c36 -7 189 -59 340 -114z"
       id="path2" />
    <path
       d="M4492 7347 c-126 -39 -298 -205 -333 -324 -79 -263 186 -397 454 -231 367 226 269 675 -121 555z m209 -98 c62 -74 -3 -243 -131 -340 -245 -187 -437 6 -225 226 123 129 297 185 356 114z"
       id="path3" />
    <path
       d="M9683 6914 c-85 -92 -35 -220 72 -182 71 25 99 113 56 179 -40 61 -72 62 -128 3z"
       id="path4" />
    <path
       d="M8867 6910 c-47 -123 211 -285 272 -171 29 53 -11 136 -82 172 -73 38 -175 37 -190 -1z"
       id="path5" />
    <path
       d="M5050 6083 c-370 -225 -383 -838 -26 -1176 219 -206 610 -379 909 -402 214 -16 205 33 -18 94 -372 101 -686 264 -833 432 -258 294 -255 716 6 968 112 107 88 161 -38 84z"
       id="path6" />
    <path
       d="M10746 4855 c-435 -577 -801 -762 -1671 -845 -259 -25 -158 -71 185 -85 692 -27 1339 343 1599 917 83 183 20 190 -113 13z"
       id="path7" />
  </g>
  <path
     style="fill:#ffffff;stroke-width:0.909091"
     d="m 319.90881,599.15917 c -13.95536,-3.17619 -28.96424,-11.10825 -38.92858,-20.57341 -8.03281,-7.63039 -11.48288,-13.95564 -12.27819,-22.51051 -0.31064,-3.3414 -0.88234,-6.58114 -1.27046,-7.19945 -0.38812,-0.61831 -4.67354,-3.75072 -9.52317,-6.9609 -28.08996,-18.59403 -45.08488,-49.61856 -45.87916,-83.75325 -0.11609,-4.9889 0.13988,-13.26392 0.56881,-18.38892 0.67488,-8.06355 0.59431,-9.31818 -0.59834,-9.31818 -0.75802,0 -2.52451,1.8119 -3.92554,4.02644 -1.40103,2.21455 -2.83015,3.85165 -3.17584,3.63799 -0.34569,-0.21364 -0.9076,-2.79293 -1.24869,-5.73176 -0.78258,-6.74276 1.36922,-18.73526 5.00295,-27.88264 2.53776,-6.38844 2.6437,-7.23624 2.51566,-20.13239 -0.11157,-11.23851 0.20438,-14.81503 1.9121,-21.64492 2.59848,-10.39232 10.22033,-26.1884 17.13009,-35.50161 4.72997,-6.3752 9.0725,-10.71711 28.76933,-28.76518 3.48206,-3.19057 4.39613,-4.52873 3.62399,-5.30532 -0.77366,-0.77811 -2.43295,-0.47291 -6.61709,1.21714 -20.25074,8.17965 -38.32524,27.74175 -48.62775,52.63005 -4.8323,11.67365 -6.85548,21.21556 -7.76749,36.63401 -0.68484,11.57763 -1.23195,14.87006 -3.62382,21.80789 -5.58263,16.19289 -5.53987,34.5445 0.11103,47.65572 0.98914,2.29501 2.98142,10.10706 4.4273,17.36009 3.80077,19.06613 7.55016,29.66329 15.3905,43.49926 2.00695,3.5417 3.649,6.82957 3.649,7.30638 0,0.47681 -2.9659,0.0398 -6.5909,-0.97105 -15.94347,-4.4461 -27.8115,-10.84582 -36.41954,-19.63887 l -4.37407,-4.4681 6.32276,-6.10411 c 6.70705,-6.47511 10.83344,-12.90734 9.87783,-15.39762 -0.92436,-2.40883 -2.49862,-1.81934 -9.7296,3.64331 -7.90117,5.96894 -17.17623,10.50723 -27.08787,13.25411 -5.85071,1.62145 -9.53343,1.94458 -22.45315,1.97009 -16.02345,0.0317 -20.23972,-0.62155 -32.079558,-4.96991 -6.155023,-2.26051 -8.374988,-2.27148 -8.374988,-0.0414 0,4.44818 14.369676,12.59059 26.552586,15.04572 3.85391,0.77664 10.60391,1.39871 15,1.38234 7.29389,-0.0271 10.48971,-0.32098 24.3565,-2.23946 4.16296,-0.57595 4.92581,-0.37305 9.06543,2.41108 5.97784,4.02046 12.58029,12.27262 16.94078,21.17368 4.18,8.5326 4.44516,12.0138 1.20809,15.86083 -2.80018,3.32782 -7.01782,4.63361 -14.94157,4.62594 -10.65352,-0.0103 -20.9344,-3.84246 -30.94141,-11.53324 -7.36982,-5.66402 -11.22701,-7.6992 -13.17508,-6.95165 -1.642,0.6301 -1.5796,2.15926 0.53242,13.04621 0.63618,3.27939 0.86353,7.41431 0.51084,9.29141 -1.42688,7.5945 -8.41198,11.4775 -18.71044,10.4011 -12.018337,-1.25617 -20.141419,-6.40177 -30.565014,-19.36154 -3.827985,-4.75938 -7.583774,-8.89279 -8.346196,-9.18536 -1.872236,-0.71844 -3.495671,1.72304 -4.237916,6.3734 -1.289587,8.0796 -5.547099,10.99291 -15.976293,10.93222 -10.799184,-0.0628 -18.228492,-4.10668 -22.297676,-12.13683 -7.433287,-14.66889 -2.464119,-38.939 12.870869,-62.86314 l 4.130552,-6.44408 -4.568136,-9.63996 c -8.818566,-18.60942 -12.27826,-32.7914 -12.331442,-50.549 -0.144174,-48.14038 32.890769,-91.99463 78.126272,-103.71348 12.16721,-3.15208 29.02552,-3.34198 39.97865,-0.45034 18.38337,4.85321 30.75432,13.50887 46.64135,32.63384 10.85184,13.06355 7.45462,-4.63082 -3.72981,-19.4267 -6.64727,-8.79368 -17.23632,-16.36302 -29.17979,-20.85853 -10.13378,-3.81435 -18.21814,-5.20625 -30.54993,-5.25986 -17.30798,-0.0752 -30.372673,2.9623 -48.340701,11.23917 -4.47681,2.06222 -8.359618,3.52952 -8.628462,3.26067 -1.814588,-1.81458 8.47839,-22.98842 16.239326,-33.40614 6.331914,-8.49952 17.239837,-19.04513 22.438447,-21.69315 l 3.98134,-2.02798 4.20048,4.30015 c 2.31026,2.36508 6.24593,5.24023 8.74593,6.38921 14.83084,6.81615 40.57903,4.39567 61.33601,-5.76593 6.63908,-3.25017 10.10303,-5.68467 15.13976,-10.64036 5.56637,-5.4768 6.76184,-7.21993 8.09375,-11.80154 5.00994,-17.23357 -6.38974,-33.33722 -26.65972,-37.6606 -10.41253,-2.2209 -21.9719,-0.85166 -34.22651,4.0542 -3.31889,1.32863 -6.28203,2.16801 -6.58477,1.86528 C 138.21525,196.70011 170.0235,165 175.07134,165 c 0.72021,0 1.81241,0.80531 2.4271,1.78958 1.40229,2.24543 5.71213,4.50157 11.59247,6.06852 5.93217,1.58075 23.81556,1.54871 31.38587,-0.0562 25.51319,-5.40891 52.81684,-25.66932 63.74185,-47.29901 l 3.6978,-7.32103 -0.4415,-11.54741 c -0.50508,-13.210078 -0.85225,-12.475964 7.97962,-16.873316 11.54831,-5.749864 35.8987,-12.942912 43.81522,-12.942912 h 4.14689 L 342.64075,82.5 c -0.42676,3.125 -0.78641,8.947601 -0.79924,12.939114 -0.0198,6.156076 0.21438,7.303526 1.54325,7.561976 2.24656,0.43692 4.69016,-4.053811 8.55848,-15.728363 7.42309,-22.40281 13.96608,-34.12839 24.68794,-44.242857 14.81217,-13.973056 40.06718,-20.704553 62.57763,-16.679509 20.48319,3.662555 33.50084,10.414164 64.8888,33.654602 18.00709,13.332902 26.05976,18.631401 28.31606,18.631401 3.56386,0 1.84642,-3.191507 -7.24288,-13.459446 l -5.87892,-6.641263 9.44498,0.556654 c 36.1363,2.129752 48.38608,4.759466 74.62122,16.01928 13.55183,5.816283 16.18738,6.389414 16.18738,3.520131 0,-2.190418 -8.82253,-8.9211 -19.77272,-15.084539 -4.125,-2.321804 -7.5,-4.55142 -7.5,-4.954703 0,-2.155662 13.04498,-9.171659 24.61275,-13.237503 9.96614,-3.502899 23.71059,-4.044737 32.77337,-1.292001 9.62554,2.923667 15.57834,6.20247 27.2493,15.008911 9.91376,7.480521 20.52674,13.323403 34.63216,19.066416 11.98147,4.878249 17.22487,9.57904 18.55897,16.638438 1.19039,6.298931 -3.25983,9.291531 -23.73564,15.961331 -22.37898,7.28973 -38.83112,11.6593 -44.22083,11.74474 -4.61546,0.0732 -5.79036,-0.34123 -11.71539,-4.13201 -3.62201,-2.31733 -6.93855,-3.99511 -7.37008,-3.72841 -1.33101,0.82261 -0.86419,4.32686 0.97911,7.3499 0.96631,1.58476 4.19526,4.53722 7.17543,6.56102 6.03532,4.09851 7.31438,5.56595 13.95661,16.01214 11.54736,18.16048 28.99379,28.31516 43.85683,25.52683 1.74816,-0.32795 5.32638,-2.35281 7.95159,-4.49966 l 4.77313,-3.90338 4.40131,5.07447 c 11.16331,12.87067 26.1319,38.77399 31.2679,54.10947 2.71557,8.10833 3.48759,19.49911 1.45961,21.53584 -0.89088,0.89473 -4.7182,-0.0228 -18.63636,-4.46763 -28.26908,-9.02793 -47.05313,-13.41639 -73.42432,-17.15393 -16.5377,-2.34385 -64.50273,-2.35653 -81.81818,-0.0216 -39.47805,5.32341 -74.70317,15.14149 -121.61481,33.89696 -19.46647,7.78277 -24.59673,9.49881 -27.71943,9.27196 -4.88494,-0.35488 -5.19063,-1.7237 -2.10581,-9.42948 3.78729,-9.46045 2.72247,-11.64615 -3.75084,-7.69917 -4.8086,2.93196 -7.86282,8.4643 -8.27872,14.99592 -0.6015,9.44641 3.33989,14.12708 11.89583,14.12708 5.5292,0 11.00979,-1.77116 32.93742,-10.6444 44.49161,-18.00397 83.87762,-28.6631 124.09091,-33.58301 16.37849,-2.00383 58.21865,-2.28773 72.72727,-0.49347 15.16406,1.87531 30.45461,4.58267 42.72727,7.56534 16.00833,3.89054 42.50467,12.78831 52.36278,17.584 17.58061,8.55246 20.83675,18.47213 12.36515,37.66976 -8.06181,18.26899 -21.43427,33.95049 -38.40547,45.03702 -17.70988,11.56905 -19.04973,12.53922 -19.04973,13.79365 0,2.78765 10.84549,0.0946 24.66553,-6.1247 4.31603,-1.94231 8.98843,-3.53146 10.3831,-3.53146 3.35204,0 9.00138,5.90783 16.01453,16.7473 10.1556,15.69642 14.04752,30.02121 13.22555,48.67858 -0.65153,14.78869 -3.99664,27.97015 -11.89071,46.85555 l -5.93177,14.19087 6.30273,11.00118 c 16.28593,28.4265 19.08667,50.71874 7.79129,62.01411 -4.91356,4.91356 -10.54106,6.87604 -19.71734,6.87604 -10.62341,0 -17.72191,-2.52612 -24.35496,-8.66716 -2.95202,-2.73305 -6.04887,-4.9692 -6.88188,-4.9692 -2.61531,0 -6.26411,2.41943 -10.96971,7.27372 -7.01096,7.23252 -15.10573,13.35147 -21.95236,16.59412 -5.94947,2.81774 -6.71976,2.95034 -17.13855,2.95034 -9.33462,0 -11.36367,-0.26705 -14.05874,-1.85034 -6.82116,-4.00728 -8.37275,-12.25588 -4.54477,-24.16093 3.46788,-10.7851 1.88293,-11.09715 -15.5747,-3.0664 -14.39022,6.61971 -22.34799,8.94787 -28.76523,8.41571 -4.11424,-0.34119 -5.49869,-0.89519 -7.21059,-2.88539 -2.76199,-3.21099 -2.67749,-4.58943 0.69493,-11.33827 9.17406,-18.3589 46.61178,-46.3618 75.36819,-56.37435 13.01811,-4.53271 14.16157,-6.47177 3.80999,-6.46093 -9.94736,0.0104 -21.14154,3.20976 -37.75837,10.79149 -7.26913,3.31669 -6.96071,3.25665 -6.96071,1.35489 0,-2.01931 2.8014,-6.46992 10.51056,-16.6982 9.20193,-12.20887 15.22773,-22.15739 22.3007,-36.81819 9.48573,-19.66198 13.92445,-35.68995 12.28651,-44.36596 -0.58866,-3.11805 -2.61097,-5.24205 -3.83021,-4.0228 -0.25972,0.25972 -2.83906,6.76714 -5.73186,14.46094 -19.1675,50.97861 -51.93012,88.05952 -100.20916,113.41731 -31.781,16.69247 -64.6936,26.24067 -107.01187,31.045 l -16.68535,1.89425 -3.31465,-2.44144 c -16.25287,-11.97118 -33.8196,-21.33246 -51.22628,-27.29839 -5.35138,-1.83412 -10.3583,-3.80308 -11.12649,-4.37547 -0.76818,-0.57239 -2.8003,-6.15435 -4.51582,-12.40435 C 376.10633,478.37164 372.00552,466.926 367.35692,456.56503 366.06061,453.67573 365,450.96546 365,450.54216 c 0,-0.42329 2.96591,-2.82211 6.59091,-5.33071 7.12559,-4.9311 15.58724,-13.09656 19.42469,-18.74476 1.32032,-1.94332 3.93409,-6.85241 5.80838,-10.90909 9.22905,-19.97515 9.19167,-42.98098 -0.0964,-59.32166 -2.823,-4.96658 -8.53835,-11.34727 -11.66095,-13.01843 -1.63582,-0.87546 -1.88486,-0.75013 -1.88486,0.94862 0,1.07655 1.5829,5.48867 3.51755,9.80471 4.78314,10.67073 6.48245,18.10982 6.48245,28.37824 0,22.8975 -11.73071,42.48259 -32.80001,54.76149 l -4.16365,2.42652 -2.19999,-2.39642 c -4.55709,-4.96398 -15.89519,-13.28759 -22.89141,-16.80522 -8.0465,-4.0457 -18.86813,-7.15363 -24.90854,-7.15363 -6.90855,0 -4.59173,2.61458 7.07634,7.98583 19.60464,9.02475 35.80117,24.83984 45.77309,44.69511 5.36662,10.68561 7.76693,19.10339 8.99965,31.56145 l 1.03856,10.49585 13.62889,4.91682 c 15.83515,5.71277 36.01896,15.43331 46.21056,22.25507 13.05078,8.73553 21.5257,18.82388 20.21164,24.05948 -1.11726,4.45151 -9.74582,6.45411 -21.74708,5.04727 -6.71175,-0.78678 -7.62622,-1.17591 -15.39598,-6.55127 -9.38156,-6.49047 -16.81349,-9.8671 -21.78662,-9.89858 -5.82289,-0.0369 -4.0417,2.91058 6.17184,10.21286 9.91464,7.08859 17.62295,17.42153 17.67184,23.68896 0.0295,3.77855 -1.40888,5.83012 -5.69226,8.11908 -3.34352,1.78673 -5.11079,2.03873 -13.83324,1.97251 -8.42876,-0.064 -11.06618,-0.4587 -16.7856,-2.51207 -8.26425,-2.96699 -16.88297,-8.0283 -24.0089,-14.09913 -10.55451,-8.99173 -14.2865,-8.51536 -10.25209,1.30865 4.69512,11.43284 3.72696,17.88292 -3.22583,21.49109 -4.29305,2.22789 -13.52567,2.78481 -20.36422,1.22837 z M 639.54545,365.49585 c 37.776,-5.7371 69.16501,-27.66009 84.0378,-58.69438 5.49334,-11.46269 3.93913,-14.69375 -3.40831,-7.08558 -2.59622,2.68835 -8.19767,9.12123 -12.44767,14.2953 -22.08005,26.88088 -47.20716,39.46421 -89.09091,44.61553 C 594.5729,361.5863 595,361.50413 595,363.17421 c 0,3.16147 29.04726,4.67537 44.54545,2.32164 z M 403.06818,328.06818 c 6.23883,-1.24776 2.33498,-3.94552 -11.70454,-8.08843 -11.87796,-3.50506 -19.55509,-6.56825 -30.29383,-12.0873 -22.36087,-11.4921 -32.98327,-25.77498 -34.02736,-45.75323 -0.71842,-13.74674 2.6879,-22.84887 12.82023,-34.25733 6.529,-7.35132 5.44557,-10.38578 -2.29772,-6.43544 -12.17346,6.21043 -20.14553,21.4824 -20.12523,38.55355 0.0317,26.66676 15.16597,46.07851 46.41823,59.53774 9.64789,4.155 20.28621,7.21825 28.33774,8.15971 3.29236,0.38498 6.44635,0.75372 7.00885,0.81943 0.5625,0.0657 2.30113,-0.1362 3.86363,-0.4487 z M 609.1503,179.12785 C 613.05599,173.16701 605.47243,165 596.03173,165 c -3.91397,0 -5.57718,1.28767 -5.57718,4.31787 0,5.71936 7.24619,12.02042 13.84268,12.03717 2.60142,0.007 3.72828,-0.51054 4.85307,-2.22719 z m -304.7171,-1.76038 c 10.73251,-5.25093 18.74862,-15.96009 18.74862,-25.04732 0,-5.6333 -3.16531,-11.68533 -7.27273,-13.90538 -4.90342,-2.65028 -15.55171,-1.8641 -21.46982,1.58515 -5.60614,3.26742 -14.01932,11.77561 -16.21085,16.39391 -4.67899,9.86026 -1.56599,19.77806 7.22613,23.02193 4.41309,1.62821 13.45978,0.65184 18.97865,-2.04829 z m 348.44235,0.75049 c 5.02622,-3.16474 2.76326,-14.02705 -2.92228,-14.02705 -3.01131,0 -7.68054,5.71656 -7.68054,9.40334 0,6.28668 4.70387,8.33796 10.60282,4.62371 z m -180.60282,-3.11681 c 9.35237,-2.26636 24.03172,-9.31081 31.0727,-14.91142 7.11647,-5.66066 13.78059,-13.93426 18.02811,-22.38215 1.9677,-3.91355 4.09998,-7.451 4.73841,-7.86099 0.63842,-0.40998 3.91418,-1.21875 7.27943,-1.79725 10.62672,-1.82678 18.50909,-7.11249 22.76367,-15.26474 2.49324,-4.77731 2.67141,-12.789794 0.36277,-16.31324 -2.69145,-4.107663 -3.78568,-2.937294 -6.10962,6.53471 -0.54,2.20097 -2.3632,5.4677 -4.16414,7.46112 -11.45377,12.67796 -42.71151,10.21616 -93.97133,-7.40099 -10.25,-3.522756 -27.29257,-9.382105 -37.87238,-13.020776 -26.37039,-9.069471 -38.16428,-10.688153 -41.64695,-5.715945 -1.8638,2.66095 -1.78189,3.121197 1.01711,5.715222 2.28172,2.114628 2.46729,2.960889 3.56893,16.275419 1.98198,23.95452 6.34051,35.14114 18.83421,48.33986 11.41418,12.0583 23.3835,18.63257 39.49347,21.69217 9.36764,1.77909 26.26203,1.15558 36.60561,-1.351 z"
     id="path8"
     transform="scale(0.75)" />
  <path
     style="fill:#ffffff;stroke-width:0.909091"
     d="m 445,167.62686 c -7.80177,-1.17418 -19.66559,-5.3109 -26.13537,-9.11298 -2.86324,-1.68264 -8.72051,-6.53661 -13.01616,-10.78661 -6.2998,-6.23286 -8.54184,-9.22168 -11.59306,-15.45454 -4.91708,-10.04434 -6.42915,-16.26432 -7.14008,-29.37129 l -0.58227,-10.734914 2.64256,0.603011 c 6.64531,1.516405 38.0524,12.863313 41.22047,14.892333 1.07894,0.69102 1.09998,1.08317 0.12137,2.26232 -1.80136,2.17051 -7.92684,3.47196 -13.03478,2.76944 l -4.54292,-0.62481 0.40536,4.87468 c 0.82759,9.95236 9.01641,22.15721 17.82834,26.57187 17.50065,8.7676 38.36206,2.75043 47.67497,-13.75113 1.52782,-2.70715 3.34012,-5.13785 4.02733,-5.40156 1.34604,-0.51652 21.57817,2.83828 26.44242,4.38457 3.88969,1.23648 3.77863,2.87766 -0.65941,9.74417 -9.30773,14.40088 -22.9963,24.29631 -38.5482,27.8664 -7.80547,1.79182 -18.15995,2.31512 -25.11057,1.26904 z"
     id="path9"
     transform="scale(0.75)" />
  <path
     style="fill:#ffffff;stroke-width:0.909091"
     d="M 695.2215,158.65826 C 690.91775,156.70476 685,152.45764 685,151.32238 c 0,-0.404 2.35227,-1.81039 5.22727,-3.12532 9.09467,-4.15957 12.85105,-9.14212 15.14589,-20.08987 0.69331,-3.3075 1.60889,-6.34528 2.03461,-6.75061 0.42573,-0.40533 3.02356,-1.39592 5.77296,-2.2013 4.66692,-1.36709 5.07445,-1.36104 6.13636,0.0912 1.78429,2.44017 1.40026,13.80204 -0.6959,20.58861 -3.2682,10.5812 -11.67624,20.64701 -17.2069,20.59948 -1.27786,-0.011 -4.06461,-0.81032 -6.19279,-1.77632 z"
     id="path10"
     transform="scale(0.75)" />
  <path
     style="fill:#ffffff;stroke-width:0.909091"
     d="m 189.59868,163.01876 c -5.91069,-3.0883 -7.80388,-6.15075 -7.67123,-12.4091 0.29904,-14.10802 13.58077,-32.22345 33.20265,-45.28626 15.73916,-10.477988 30.43547,-15.416197 43.70338,-14.68508 25.33872,1.39627 28.3852,21.23007 6.76863,44.06649 -8.66523,9.15421 -16.45942,15.12062 -26.88056,20.57693 -12.51099,6.55051 -21.35534,8.99771 -34.1761,9.45639 -10.06446,0.36007 -11.2217,0.22695 -14.94677,-1.71937 z"
     id="path11"
     transform="scale(0.75)" />
  <path
     style="fill:#ffffff;stroke-width:0.909091"
     d="m 134.40341,253.20324 c -5.72471,-1.22209 -11.083,-4.30667 -13.12931,-7.55809 -5.66418,-8.99992 5.52089,-28.38034 22.02823,-38.16841 17.15448,-10.1718 38.1999,-11.03043 48.76224,-1.98947 7.31008,6.25716 10.41951,17.23376 6.95195,24.5411 -3.88273,8.18224 -18.37975,17.4273 -33.56197,21.40319 -8.10365,2.12216 -24.91587,3.08141 -31.05114,1.77168 z"
     id="path12"
     transform="scale(0.75)" />
  <path
     style="fill:#ffffff;stroke-width:0.909091"
     d="m 288.96091,171.40087 c -2.54944,-1.06753 -4.87,-4.44779 -4.87,-7.09391 0,-8.12183 14.78852,-21.12514 24.02538,-21.12514 8.09529,0 8.09674,10.9907 0.003,19.94991 -5.93559,6.56999 -14.44469,10.24275 -19.15801,8.26914 z"
     id="path13"
     transform="scale(0.75)" />
  <path
     style="fill:#ffffff;stroke-width:0.909091"
     d="m 583.22537,515 -6.77463,-0.45455 10.84502,-6.25006 c 5.96475,-3.43753 15.88182,-9.5236 22.03791,-13.52459 6.15609,-4.00099 11.43829,-7.02915 11.7382,-6.72923 0.86044,0.86043 -3.87141,6.63023 -13.8183,16.84938 -10.37353,10.65748 -11.12738,10.97463 -24.0282,10.10905 z"
     id="path14"
     transform="scale(0.75)" />
</svg>
