<?xml version="1.0" encoding="UTF-8" standalone="no"?>
<svg
   version="1.0"
   width="600.000000pt"
   height="600.000000pt"
   viewBox="0 0 600.000000 600.000000"
   preserveAspectRatio="xMidYMid meet"
   id="svg8"
   sodipodi:docname="frog4_t2.svg.svg"
   inkscape:version="1.4.3 (0d15f75, 2025-12-25)"
   xmlns:inkscape="http://www.inkscape.org/namespaces/inkscape"
   xmlns:sodipodi="http://sodipodi.sourceforge.net/DTD/sodipodi-0.dtd"
   xmlns="http://www.w3.org/2000/svg"
   xmlns:svg="http://www.w3.org/2000/svg">
  <defs
     id="defs8" />
  <sodipodi:namedview
     id="namedview8"
     pagecolor="#505050"
     bordercolor="#ffffff"
     borderopacity="1"
     inkscape:showpageshadow="0"
     inkscape:pageopacity="0"
     inkscape:pagecheckerboard="1"
     inkscape:deskcolor="#505050"
     inkscape:document-units="pt"
     inkscape:zoom="0.57613318"
     inkscape:cx="272.50643"
     inkscape:cy="82.446214"
     inkscape:window-width="1920"
     inkscape:window-height="1022"
     inkscape:window-x="0"
     inkscape:window-y="30"
     inkscape:window-maximized="1"
     inkscape:current-layer="svg8" />
  <g
     transform="translate(0.000000,600.000000) scale(0.050000,-0.050000)"
     fill="#000000"
     stroke="none"
     id="g8">
    <path
       d="M9056 11699 c-331 -53 -617 -347 -695 -714 l-26 -125 -123 0 c-67 0 -168 -6 -225 -13 l-102 -12 -65 132 c-309 628 -1164 627 -1474 -2 -64 -129 -75 -172 -82 -325 l-9 -177 -142 -34 c-246 -59 -495 -148 -723 -258 -202 -98 -241 -109 -479 -141 -310 -41 -595 -122 -845 -240 -102 -48 -237 -98 -300 -111 -481 -99 -1085 -485 -1356 -867 -51 -72 -98 -116 -130 -122 -868 -170 -1431 -754 -1511 -1569 l-14 -139 -103 -50 c-472 -231 -608 -851 -283 -1287 49 -66 105 -175 131 -255 25 -77 93 -258 150 -402 238 -592 269 -1025 127 -1784 -39 -211 -46 -229 -109 -277 -224 -170 -240 -832 -26 -1074 129 -147 199 -143 238 14 35 138 124 313 160 313 142 0 319 235 320 425 0 137 50 165 299 165 335 -1 581 -157 581 -369 1 -205 111 -368 304 -447 90 -38 160 -140 233 -337 126 -342 382 -34 384 461 1 106 2 242 4 302 2 130 -45 235 -153 339 -206 197 2 376 415 356 l197 -9 78 -91 c97 -114 218 -165 353 -149 143 16 299 -108 353 -280 66 -209 271 83 247 351 -16 176 -165 423 -256 423 -9 0 -32 32 -51 72 -54 114 -164 173 -345 187 -370 28 -444 230 -84 230 151 0 158 -2 237 -73 89 -80 183 -108 300 -89 104 17 233 -50 310 -160 171 -242 320 114 172 410 -55 111 -168 223 -223 223 -9 0 -43 31 -77 69 -77 88 -173 119 -312 103 -305 -36 -1017 314 -1345 661 -193 204 -190 218 41 187 398 -55 825 78 1131 350 l120 107 89 -20 c48 -11 174 -26 278 -33 l190 -14 13 -190 c23 -321 125 -558 366 -850 410 -496 470 -607 594 -1101 139 -554 113 -950 -74 -1129 -174 -168 -205 -689 -53 -908 138 -199 217 -195 279 14 50 169 101 244 179 260 132 27 246 205 246 386 0 116 86 358 133 377 128 49 346 -288 347 -535 0 -203 60 -304 232 -391 99 -49 140 -109 196 -282 50 -155 90 -174 192 -88 116 98 147 200 152 505 6 313 -15 387 -134 489 -92 79 -195 279 -148 290 103 22 567 -279 641 -415 82 -150 204 -216 382 -204 81 6 191 -89 259 -222 58 -115 94 -135 152 -83 156 138 155 467 -1 650 -39 46 -91 126 -116 179 -56 122 -163 195 -309 211 -94 11 -278 91 -278 121 0 6 25 6 55 0 30 -6 93 3 140 19 114 39 202 13 317 -92 104 -97 153 -88 187 34 56 202 -75 461 -265 524 -39 12 -103 54 -143 91 -82 77 -174 102 -297 80 -340 -62 -878 109 -1109 353 -73 77 -128 221 -172 450 -65 340 -68 332 85 195 70 -63 102 -107 102 -140 0 -96 53 -181 143 -230 61 -34 102 -77 137 -143 60 -114 86 -127 166 -80 148 86 200 366 95 508 -35 47 -37 57 -11 57 58 0 149 -60 179 -119 37 -71 123 -141 174 -141 59 0 133 -57 199 -153 88 -128 157 -110 227 58 58 139 19 329 -86 423 -63 56 -53 67 42 53 114 -18 170 -50 261 -147 l76 -81 53 53 c111 110 71 413 -66 506 -30 21 -83 66 -117 100 -85 85 -134 108 -237 108 -190 0 -753 198 -894 314 l-48 40 98 56 c541 305 791 610 824 1005 10 124 11 125 123 208 61 46 159 123 216 171 l104 88 140 -147 c78 -83 196 -180 270 -223 l132 -77 0 -133 c1 -271 70 -479 253 -759 199 -305 326 -604 301 -706 -38 -150 -333 -349 -507 -342 -231 10 -528 -309 -527 -567 2 -218 113 -303 220 -167 80 101 154 139 266 139 62 0 108 15 156 49 37 27 88 65 113 83 58 42 225 64 225 29 0 -94 -89 -358 -139 -411 -203 -216 -144 -802 97 -964 92 -62 129 -37 161 108 36 161 105 289 192 355 94 72 132 165 127 308 -7 192 112 503 192 503 138 0 470 -370 470 -524 0 -118 125 -266 245 -290 73 -15 160 -129 206 -272 111 -343 409 69 308 426 -14 50 -28 130 -31 179 -8 107 -88 231 -183 281 -98 53 -285 268 -285 329 0 28 115 -20 175 -71 44 -38 97 -61 164 -70 126 -17 207 -66 271 -167 95 -151 210 -61 210 165 0 247 -265 554 -479 554 -184 0 -465 147 -569 298 l-58 83 18 345 c46 876 21 1128 -144 1430 -53 98 -68 148 -68 231 0 355 -231 787 -530 993 -59 41 -90 80 -107 137 -29 99 -165 304 -246 372 -79 67 -88 52 222 325 408 358 524 564 524 926 0 310 -118 562 -373 795 l-127 117 40 139 c172 604 -317 1202 -907 1108z m390 -204 c348 -160 494 -564 342 -947 -62 -156 -62 -153 31 -217 492 -341 603 -934 251 -1345 -40 -47 -203 -199 -362 -338 -331 -288 -547 -525 -689 -756 -112 -181 -113 -203 -5 -114 88 73 99 59 65 -84 -142 -604 -1224 -1469 -2199 -1757 -467 -138 -523 -102 -252 163 722 704 833 1822 219 2202 -99 61 -97 42 7 -82 466 -558 239 -1612 -461 -2136 l-57 -43 -103 79 c-141 107 -137 79 19 -162 271 -417 305 -542 328 -1188 34 -958 149 -1251 580 -1470 241 -123 733 -227 861 -183 164 58 290 4 311 -131 31 -206 -132 -315 -294 -197 -104 77 -140 88 -321 98 -123 8 -208 26 -324 73 -264 105 -198 38 217 -223 525 -330 612 -377 700 -377 86 0 196 -57 237 -123 16 -26 5 -47 -53 -102 -51 -48 -76 -92 -86 -150 -27 -170 -227 -118 -321 85 -65 140 -555 430 -785 464 -50 8 -101 39 -167 103 -52 50 -95 87 -95 81 0 -18 155 -393 222 -540 38 -81 81 -144 112 -160 97 -52 204 -286 113 -249 -142 59 -144 60 -218 25 -52 -25 -82 -58 -104 -115 -36 -92 -44 -94 -100 -34 -62 66 -86 145 -72 242 30 222 -240 630 -424 640 -64 3 -69 8 -81 88 -15 99 -38 110 -55 26 -6 -32 -54 -160 -105 -283 -79 -188 -94 -242 -90 -336 3 -90 -6 -128 -43 -183 -51 -76 -115 -103 -115 -48 0 130 -169 237 -283 181 -78 -39 -77 -39 -77 0 0 36 80 188 99 188 195 0 291 678 162 1145 -22 80 -59 222 -82 315 -76 312 -169 469 -574 968 -261 323 -402 741 -337 1000 l13 53 75 -73 c171 -167 225 -179 123 -28 -267 394 -233 683 127 1075 62 68 25 78 -67 16 -107 -70 -106 -72 -105 204 1 364 103 610 352 849 103 100 363 267 449 289 82 21 49 51 -40 37 -578 -94 -901 -534 -905 -1230 l-2 -350 -69 -130 c-66 -125 -69 -138 -70 -355 -2 -278 9 -268 -249 -242 -258 25 -253 19 -158 175 693 1140 -296 2724 -1761 2820 l-191 12 160 162 c222 224 476 402 743 520 l117 52 -40 -47 c-22 -26 -45 -51 -51 -57 -79 -69 -259 -349 -259 -402 0 -13 97 70 215 184 403 388 822 615 1323 718 285 58 299 56 232 -24 -85 -100 -35 -88 212 53 437 250 1138 499 1138 404 0 -58 158 -272 211 -285 93 -23 95 16 9 184 -220 427 -100 866 288 1050 394 187 777 -4 932 -464 61 -183 113 -227 161 -134 14 25 28 50 33 56 5 5 127 14 271 20 l262 10 27 159 c92 542 520 823 952 626z m-6672 -2955 c1435 -151 2258 -1783 1409 -2794 -273 -325 -584 -456 -1083 -456 -270 0 -348 -7 -430 -37 -367 -134 -896 -72 -1329 157 -93 49 -173 84 -178 79 -38 -38 322 -286 512 -353 127 -45 133 -51 250 -224 270 -401 849 -868 1626 -1313 244 -139 265 -147 412 -158 246 -18 290 -69 248 -293 -42 -225 -292 -258 -430 -56 -111 164 -605 189 -823 43 -192 -130 -215 -344 -54 -511 115 -118 136 -160 136 -266 l0 -85 -49 46 c-127 119 -335 53 -391 -124 -34 -108 -37 -109 -105 -56 -75 60 -115 162 -115 297 0 257 -342 483 -730 484 -293 0 -430 -93 -430 -291 0 -121 -49 -231 -120 -269 -54 -29 -56 -27 -79 56 -40 149 -215 232 -331 156 -118 -77 -49 139 83 260 104 95 132 181 199 619 89 577 39 1049 -163 1553 -63 157 -139 359 -169 447 -33 97 -88 205 -138 270 -182 240 -213 506 -88 759 102 208 213 287 798 570 472 228 914 244 1376 48 163 -69 178 -65 82 19 -349 307 -989 315 -1577 19 -190 -95 -187 -97 -146 111 170 866 910 1389 1827 1293z m6881 -463 c102 -131 160 -285 178 -475 14 -156 33 -164 72 -31 l26 90 68 -51 c226 -166 380 -482 414 -850 10 -115 31 -182 88 -295 151 -294 166 -447 130 -1308 l-17 -413 51 -87 c118 -201 464 -396 701 -397 131 -1 151 -24 87 -100 -29 -35 -53 -85 -53 -112 0 -63 -47 -63 -139 1 -45 31 -126 59 -221 74 -112 19 -169 41 -225 85 -116 91 -109 54 35 -178 185 -301 285 -427 372 -471 141 -72 197 -179 93 -179 -87 0 -182 -61 -214 -138 -14 -34 -34 -62 -45 -62 -77 0 -156 120 -156 237 0 176 -411 583 -589 583 -64 0 -71 5 -71 55 -1 122 -35 114 -77 -17 -22 -70 -76 -230 -120 -354 -66 -187 -76 -237 -61 -290 36 -127 0 -174 -132 -174 -103 0 -124 -21 -70 -70 52 -47 50 -91 -8 -207 -27 -52 -55 -128 -62 -168 -18 -95 -54 -80 -108 45 -49 114 -54 247 -12 328 28 52 28 62 0 92 -56 62 -29 151 73 240 65 57 177 446 177 614 0 88 -2 91 -37 59 -22 -20 -71 -33 -125 -33 -144 -1 -292 -50 -356 -118 -85 -91 -142 -84 -142 16 0 56 -15 97 -52 140 l-51 62 56 21 c31 12 79 18 105 13 159 -31 510 186 606 374 90 176 -3 475 -271 872 -154 228 -217 395 -229 608 l-10 178 48 -13 c26 -8 93 -20 148 -27 55 -6 107 -22 116 -34 22 -32 169 136 226 257 63 135 45 138 -68 12 -93 -105 -97 -106 -205 -105 -213 2 -477 129 -680 327 -176 173 -177 177 -63 303 253 279 402 615 404 908 0 74 13 98 113 205 131 143 139 142 282 -42z m-1643 -1931 c-101 -296 -510 -647 -977 -838 -140 -57 -147 -87 -19 -88 46 0 96 -24 169 -82 211 -167 699 -353 974 -370 149 -10 183 -31 136 -83 -17 -19 -38 -69 -46 -110 -16 -88 -44 -94 -127 -24 -45 38 -107 60 -236 82 -120 22 -234 59 -358 119 -288 138 -280 121 68 -150 140 -108 290 -213 334 -232 77 -33 78 -35 35 -55 -25 -12 -60 -56 -79 -98 -42 -96 -55 -96 -104 -1 -48 95 -160 150 -313 154 l-109 4 -97 128 c-99 130 -259 289 -276 272 -10 -10 189 -347 265 -448 55 -73 58 -86 21 -86 -15 0 -53 -20 -84 -44 -45 -35 -58 -39 -66 -16 -15 47 -188 221 -283 286 -120 82 -119 79 -106 266 16 225 -26 582 -94 793 l-56 175 53 12 c435 95 907 294 1313 552 98 62 113 33 62 -118z m-5264 -1164 c300 -408 1175 -874 1563 -833 191 21 249 -16 249 -157 0 -217 -179 -294 -327 -141 -140 144 -492 139 -634 -10 -88 -93 -81 -96 -402 210 -353 338 -531 476 -979 759 -34 22 -94 83 -132 135 l-70 95 227 2 c125 2 254 10 287 18 123 31 144 24 218 -78z m5772 -397 c54 -68 88 -190 72 -255 l-13 -53 -55 59 c-30 32 -84 73 -119 92 -54 27 -65 45 -65 101 0 129 99 159 180 56z m-360 -410 c50 -82 56 -255 9 -255 -55 0 -209 144 -209 196 0 136 130 175 200 59z m-741 -68 c50 -64 56 -217 10 -283 -42 -59 -59 -56 -89 17 -14 33 -47 77 -73 98 -62 49 -64 147 -3 190 64 45 107 38 155 -22z m4235 -12 c66 -72 106 -167 106 -253 0 -98 -25 -117 -68 -52 -18 28 -69 74 -112 103 -66 43 -80 64 -80 118 0 118 82 163 154 84z m-2579 -39 c38 -79 14 -140 -76 -192 -43 -25 -93 -67 -111 -95 -41 -62 -60 -62 -76 2 -48 190 187 444 263 285z m-4327 -98 c82 -65 132 -181 132 -307 0 -133 8 -131 -106 -21 -52 49 -116 95 -143 102 l-50 12 40 77 c21 43 39 100 39 128 0 62 18 64 88 9z m6593 -679 c96 -51 131 -281 63 -417 -44 -88 -64 -83 -100 22 -16 47 -55 123 -87 167 -66 92 -58 158 26 217 54 38 50 37 98 11z m-6907 -142 c96 -104 139 -342 84 -464 -23 -49 -23 -49 -92 53 -38 56 -84 113 -102 126 -117 84 -112 70 -56 177 29 53 52 118 52 145 0 55 39 43 114 -37z m4133 -215 c76 -70 113 -145 113 -231 0 -80 -18 -89 -69 -32 -20 22 -76 55 -124 73 -69 26 -86 42 -75 66 8 18 19 70 23 116 10 95 35 97 132 8z m-7705 -448 c92 -70 98 -159 20 -299 -33 -58 -69 -144 -82 -191 -55 -213 -196 127 -151 366 23 126 130 188 213 124z m2102 -248 c86 -77 86 -386 1 -532 -40 -69 -85 -93 -85 -46 0 47 -95 252 -151 325 -136 179 70 402 235 253z m5745 -222 c71 -101 97 -323 46 -392 -26 -35 -31 -32 -82 54 -29 50 -85 118 -124 150 -70 58 -71 61 -50 141 45 165 115 181 210 47z m-2789 -124 c80 -43 88 -146 20 -253 -33 -53 -66 -131 -73 -172 -20 -123 -75 -104 -124 43 -77 230 30 461 177 382z m1548 -226 c61 -83 58 -297 -7 -402 -51 -83 -64 -78 -97 39 -13 44 -51 122 -84 173 -121 182 59 363 188 190z"
       id="path1" />
    <path
       d="M9090 11211 c-220 -80 -313 -362 -183 -555 208 -308 673 -178 673 189 0 270 -248 454 -490 366z m322 -161 c30 -46 30 -54 0 -100 -58 -89 -172 -55 -172 50 0 105 114 139 172 50z"
       id="path2" />
    <path
       d="M6973 10931 c-400 -143 -302 -752 121 -751 358 2 529 402 279 652 -119 120 -251 152 -400 99z m334 -153 c33 -47 19 -114 -31 -145 -49 -31 -134 2 -148 58 -27 105 118 175 179 87z"
       id="path3" />
    <path
       d="M9022 9975 c-20 -55 11 -130 60 -146 55 -17 118 26 118 80 0 103 -144 157 -178 66z"
       id="path4" />
    <path
       d="M8571 9929 c-37 -38 -41 -111 -7 -145 40 -40 113 -28 148 26 63 96 -60 199 -141 119z"
       id="path5" />
    <path
       d="M9040 9448 c-27 -5 -149 -23 -270 -40 -583 -80 -1420 -322 -1458 -419 -41 -107 45 -111 314 -18 635 221 1312 336 1968 334 436 -2 495 15 397 112 -32 32 -802 57 -951 31z"
       id="path6" />
    <path
       d="M1014 6196 c211 -391 866 -735 1400 -736 186 0 168 30 -49 80 -544 125 -904 304 -1213 600 -195 188 -214 195 -138 56z"
       id="path7" />
    <path
       d="M1620 4310 c0 -58 571 -1237 701 -1447 69 -112 68 -54 -1 121 -177 450 -700 1441 -700 1326z"
       id="path8" />
  </g>
  <path
     style="fill:#ffffff;stroke-width:0.91638"
     d="m 471.01079,689.39874 c -3.51046,-4.17195 -4.32907,-6.80849 -4.21273,-13.56827 0.13402,-7.78716 -1.2666,-13.71202 -5.04072,-21.32318 -6.74695,-13.60639 -15.45332,-22.08385 -24.16814,-23.53271 -2.39233,-0.39774 -3.3458,-1.09984 -3.81405,-2.80857 -1.78734,-6.52231 -2.24924,-7.6564 -3.25422,-7.99004 -0.64348,-0.21361 -1.53266,1.26543 -2.15864,3.59065 -0.58544,2.17463 -3.54571,10.13945 -6.57839,17.69959 -4.89218,12.19566 -5.58637,14.72739 -6.15601,22.45132 -0.69162,9.37767 -2.14797,13.29647 -6.0953,16.40144 -2.77367,2.18178 -4.03431,1.80689 -4.03431,-1.19973 0,-2.91358 -3.54543,-7.8884 -7.10233,-9.96574 -3.73485,-2.18128 -9.86429,-2.32131 -13.74593,-0.31404 -2.37632,1.22885 -2.97763,1.28702 -2.97763,0.28805 0,-2.4616 5.65496,-12.54103 7.03602,-12.54103 2.47834,0 7.28025,-5.81459 9.32354,-11.28981 3.71853,-9.96424 4.9665,-20.62019 4.47318,-38.19472 -0.44918,-16.00189 -0.46233,-16.08411 -6.05815,-37.92081 -7.92364,-30.92054 -11.71638,-38.34918 -33.91293,-66.42347 -16.16736,-20.44853 -21.37101,-29.21422 -26.88592,-45.29009 -2.60849,-7.6037 -2.90108,-9.5472 -2.94894,-19.58794 -0.0292,-6.13069 0.26564,-11.46665 0.65526,-11.85769 0.38962,-0.39105 2.65766,1.15033 5.04009,3.42528 13.46657,12.85905 15.36081,12.17951 6.5864,-2.36279 -14.75792,-24.45907 -12.41851,-41.71312 8.93523,-65.90061 2.16169,-2.44856 3.93034,-4.8197 3.93034,-5.26919 0,-1.57072 -3.7323,-0.79811 -7.43452,1.539 -5.8972,3.72274 -6.31119,3.06698 -6.31119,-9.99671 0,-24.84044 5.30405,-39.90146 19.39302,-55.06707 7.31429,-7.87324 19.4825,-16.73304 29.93303,-21.79454 5.46433,-2.64655 7.34975,-3.9768 6.64098,-4.68557 -2.42374,-2.42374 -21.51967,2.79641 -31.29587,8.55518 -25.30899,14.90855 -35.6191,40.28007 -35.65968,87.75269 -0.008,9.36917 -0.0271,9.449 -4.26968,17.86942 l -4.26162,8.45821 -0.41624,13.7457 c -0.305,10.07189 -0.78434,14.32839 -1.79349,15.92587 -1.34602,2.13074 -1.57755,2.16548 -10.21331,1.53237 -10.58201,-0.77581 -16.44801,-1.79413 -17.7321,-3.07822 -0.65178,-0.65178 0.0778,-2.63404 2.34013,-6.35828 23.67125,-38.96708 21.16994,-85.19449 -6.88749,-127.28934 -8.1044,-12.15909 -23.94104,-28.29159 -36.49933,-37.18117 -21.45447,-15.18689 -48.21656,-24.58418 -74.2548,-26.07398 -5.5287,-0.31633 -10.05219,-0.83001 -10.05219,-1.14152 0,-0.89561 15.4148,-15.79636 22.12162,-21.3839 8.86955,-7.38936 19.18922,-14.14907 30.01106,-19.65819 5.23654,-2.6658 9.88625,-4.8469 10.33268,-4.8469 0.44644,0 -1.50214,2.72754 -4.33017,6.06119 -5.60655,6.60896 -10.30725,13.60615 -13.76386,20.4881 -4.18571,8.33357 -2.9301,7.71004 12.14164,-6.02945 20.54416,-18.72818 33.3809,-27.79666 51.16172,-36.14305 14.40216,-6.76042 33.11085,-12.33408 50.63001,-15.08359 4.50221,-0.70659 4.73794,-0.11651 1.63411,4.0905 -4.40469,5.97022 -1.68478,5.54164 12.1899,-1.9208 12.85717,-6.91517 25.22079,-12.94881 35.38113,-17.26654 12.19504,-5.1824 31.93282,-11.6915 37.72597,-12.44122 4.61091,-0.59672 4.70167,-0.56142 5.66545,2.20326 1.22032,3.50063 7.45353,12.70916 10.54408,15.57714 2.83592,2.63168 8.20664,3.18999 8.67806,0.90213 0.17369,-0.84291 -1.71073,-6.20373 -4.18759,-11.91295 -5.63422,-12.98701 -6.96008,-18.42034 -6.89367,-28.24981 0.0894,-13.224932 4.90007,-24.058841 14.63307,-32.954254 9.5735,-8.749644 24.56704,-13.798923 35.78777,-12.052018 16.59379,2.583413 28.86388,13.936769 36.52971,33.800453 1.89225,4.903178 4.04067,9.842704 4.77429,10.976724 2.00006,3.091688 5.1953,2.644653 7.47622,-1.045976 2.33721,-3.781685 3.08091,-3.937957 22.66948,-4.763562 l 14.81875,-0.624571 1.0396,-6.061296 c 2.98816,-17.422375 7.41256,-27.460253 16.21781,-36.794285 13.44113,-14.248306 31.199,-17.385239 48.73985,-8.609908 11.46211,5.734257 21.23233,18.258687 23.97218,30.729876 1.8624,8.477195 0.79797,20.943952 -2.61023,30.571521 -1.59904,4.517036 -2.90736,8.927316 -2.90736,9.800616 0,0.89186 3.31366,4.22387 7.56014,7.60199 25.16343,20.0178 33.95477,47.82403 23.00947,72.77698 -2.76192,6.29662 -9.38346,15.58126 -13.91389,19.50994 -26.97137,23.38884 -46.24174,42.33366 -56.70979,55.75175 -5.20544,6.67238 -14.00793,20.92187 -14.01062,22.68041 -0.003,1.72324 0.71752,1.44627 5.64592,-2.17152 2.48526,-1.82435 4.76659,-3.06906 5.06962,-2.76603 0.30303,0.30304 -0.13749,3.34077 -0.97893,6.75054 -10.48228,42.47713 -84.39218,100.55978 -151.294,118.89554 -18.37098,5.03493 -24.06388,5.1612 -21.55759,0.47818 0.60943,-1.13873 5.23627,-6.44891 10.28187,-11.80038 12.68411,-13.45309 19.84735,-23.33165 26.77034,-36.91803 17.15881,-33.67417 18.96685,-70.22051 4.62217,-93.42903 -4.80007,-7.76612 -17.4164,-19.13091 -21.23769,-19.13091 -2.03604,0 -1.36916,1.37085 3.84139,7.89632 5.9561,7.45917 10.60095,16.5184 13.33576,26.00975 2.74705,9.53383 3.45492,29.34771 1.45879,40.83245 -4.58736,26.39346 -19.54319,52.96235 -39.53328,70.23051 -4.53608,3.91844 -8.58802,7.1302 -9.00432,7.13727 -0.41628,0.007 -3.16846,-1.84284 -6.11595,-4.11088 -4.70041,-3.61688 -8.24743,-5.17377 -8.24743,-3.62002 0,1.02129 3.19874,6.63835 9.6763,16.99182 15.49168,24.7613 17.8217,32.49175 19.59782,65.02089 2.56312,46.94267 4.11036,60.25032 8.68066,74.6614 7.52669,23.73315 25.35535,36.94608 60.5561,44.87847 11.53101,2.59848 21.98413,3.18162 33.5337,1.87071 10.16291,-1.15352 14.57627,2.71139 14.57627,12.76491 0,4.50007 -0.34985,5.46658 -2.97824,8.22775 -4.30006,4.51731 -7.48405,4.8622 -13.57391,1.4703 -10.35688,-5.76853 -12.23329,-6.37366 -22.87575,-7.37727 -7.81949,-0.7374 -13.19977,-1.89866 -21.38322,-4.61527 -6.01413,-1.99646 -11.08061,-3.62994 -11.25885,-3.62994 -0.17824,0 -0.32407,0.59772 -0.32407,1.32827 0,1.78091 7.5959,7.09373 31.64182,22.13127 23.38591,14.62481 34.27131,20.52672 37.85918,20.52672 6.82081,0 17.55513,5.74707 17.55513,9.39889 0,0.69013 -1.27393,2.46595 -2.83096,3.94627 -3.24685,3.08691 -5.16114,6.44781 -6.70016,11.76348 -1.27441,4.40168 -4.48657,6.6387 -8.19581,5.70774 -3.31538,-0.83211 -9.48581,-6.51727 -11.62534,-10.71108 -5.10571,-10.00804 -32.4011,-27.08985 -50.58767,-31.65845 -6.71297,-1.68634 -8.24498,-2.57548 -15.03946,-8.72861 -2.79156,-2.52805 -5.27153,-4.4005 -5.51103,-4.16099 -0.43779,0.43779 8.97863,24.02772 14.28721,35.79218 1.99335,4.41752 4.52395,7.96558 8.43967,11.83298 5.33105,5.26528 8.97133,11.16284 9.0149,14.60491 0.0187,1.4786 -0.30403,1.46252 -4.5957,-0.2291 -2.53871,-1.00067 -5.65861,-1.81939 -6.9331,-1.81939 -4.74453,0 -9.67113,3.9445 -12.27297,9.82638 -0.95353,2.15563 -2.1326,3.91933 -2.62015,3.91933 -0.48754,0 -1.99459,-1.31696 -3.349,-2.92658 z m 41.03055,-488.17569 c 31.7132,-10.24961 58.64514,-16.04843 90.02052,-19.38267 5.04009,-0.53562 21.32875,-1.28083 36.19702,-1.65603 31.2006,-0.78736 33.70799,-1.34405 29.49385,-6.54829 -2.38794,-2.94899 -7.2284,-3.52234 -35.45032,-4.19907 -23.84768,-0.57185 -25.33866,-0.5034 -41.23712,1.89338 -39.32509,5.92847 -78.49566,15.8361 -96.34343,24.36867 -5.88846,2.81512 -7.58127,4.06877 -8.05779,5.96736 -1.63346,6.50827 4.18269,6.40666 25.37727,-0.44335 z m 66.02578,-52.46093 c 6.81077,-3.62745 5.07006,-12.67965 -2.43826,-12.67965 -5.72021,0 -8.79235,6.65697 -5.18724,11.24012 2.12052,2.69579 4.44342,3.13431 7.6255,1.43953 z m 33.41283,-4.94237 c 4.59982,-3.22185 0.94331,-12.31918 -4.95147,-12.31918 -5.51048,0 -7.76264,6.47391 -3.94192,11.33117 2.18557,2.77851 5.76875,3.17659 8.89339,0.98801 z M 483.77566,119.53629 c 3.59154,-1.34377 6.23079,-3.21333 9.20292,-6.51905 12.18211,-13.549429 7.22273,-33.751489 -10.24924,-41.750422 -4.15226,-1.900967 -5.98715,-2.230363 -10.26395,-1.842559 -11.23111,1.018402 -20.2988,7.719305 -23.50395,17.369093 -3.09409,9.315423 -0.13717,21.988948 6.62321,28.387448 6.62777,6.27298 18.26189,8.07044 28.19101,4.35549 z M 625.52814,99.117428 c 4.321,-2.101595 8.72563,-6.469041 11.19092,-11.096436 1.57153,-2.949807 1.96791,-5.222448 1.92643,-11.045047 -0.0617,-8.664065 -1.46035,-12.427249 -6.75242,-18.168469 -10.07118,-10.925929 -27.20371,-10.478598 -36.62941,0.956396 -6.41275,7.779775 -7.46755,20.903995 -2.34241,29.145169 3.20042,5.146257 7.96218,9.218704 12.92297,11.052237 4.67302,1.727172 15.33775,1.269982 19.68392,-0.84385 z"
     id="path9"
     transform="scale(0.75)" />
  <path
     style="fill:#ffffff;stroke-width:1.70051"
     d="m 166.20404,655.5576 c -3.83366,-3.5716 -7.18115,-13.14911 -7.1971,-20.59167 -0.0406,-18.94661 -37.34045,-35.87041 -63.217308,-28.68312 -10.371706,2.88072 -13.645337,6.69 -15.125991,17.60098 -0.727223,5.35895 -2.547966,11.61425 -4.046095,13.90068 -2.971327,4.53481 -7.746989,5.6055 -7.746989,1.73686 0,-1.33117 -2.0518,-4.85872 -4.559557,-7.83901 -4.206935,-4.99966 -5.193279,-5.35784 -12.753807,-4.63137 -4.506836,0.43305 -8.194249,0.0965 -8.194249,-0.74797 0,-2.85175 4.729004,-10.70525 8.502538,-14.12025 6.11747,-5.53624 8.369475,-11.62356 11.779853,-31.84181 6.340383,-37.58865 6.105932,-61.29854 -0.883434,-89.34109 -3.809348,-15.28375 -21.970538,-62.63993 -26.90736,-70.16222 -9.36543,-14.27022 -11.810171,-20.95249 -11.806757,-32.27163 0.0041,-13.61167 5.567153,-25.60925 16.025279,-34.56102 10.574867,-9.05169 49.331086,-27.79736 66.146177,-31.99368 20.03615,-5.00017 39.51348,-3.8479 60.17935,3.56016 15.70429,5.62949 20.18371,5.55725 13.06862,-0.21077 -25.03749,-20.29724 -61.93262,-21.64871 -102.741258,-3.76342 -7.370524,3.2303 -13.752872,5.52134 -14.182999,5.09122 -0.430126,-0.43013 0.785312,-6.98012 2.700974,-14.55553 9.461322,-37.41445 35.601883,-65.23587 71.654873,-76.26232 56.69901,-17.34083 123.92284,12.40404 150.50154,66.59319 9.67733,19.7303 12.73925,31.97114 12.73925,50.92846 0,26.83824 -7.71042,46.80026 -25.63075,66.35713 -17.15072,18.71701 -37.56396,26.52603 -69.59768,26.62439 -10.21039,0.0314 -21.16065,1.2863 -29.75888,3.41047 -24.87711,6.14585 -52.29194,3.54292 -75.672586,-7.18482 -22.11973,-10.14917 -22.106599,-10.14483 -22.106599,-7.30885 0,3.54578 13.529105,13.10733 29.867375,21.10846 10.88911,5.33258 14.70619,8.23156 18.53837,14.07942 17.60235,26.86101 56.01715,58.57446 106.52652,87.94329 14.73508,8.56776 20.44355,10.90794 31.14906,12.76959 7.20922,1.25365 13.99894,3.17063 15.08826,4.25996 3.07614,3.07613 2.03461,15.23191 -1.74018,20.30979 -2.34714,3.15738 -5.20751,4.67579 -9.4977,5.04175 -5.13302,0.43785 -7.33472,-0.56424 -13.43514,-6.11492 -9.05744,-8.24124 -15.69752,-10.56357 -30.20373,-10.56357 -22.26864,0 -37.46035,9.7241 -37.46035,23.97807 0,7.91983 1.73917,11.71172 9.6163,20.96634 3.44433,4.04665 5.68827,8.5233 5.68827,11.34809 v 4.6651 l -5.39574,-2.69175 c -4.74864,-2.36893 -6.2133,-2.40428 -12.21277,-0.2948 -5.27001,1.85301 -7.63864,4.03726 -10.43752,9.62498 l -3.62049,7.228 z m -7.20658,-44.32139 c 0,-6.29761 -32.20389,-73.17581 -44.58075,-92.58139 -9.45517,-14.82469 -7.40352,-4.34203 3.89353,19.89343 12.82897,27.52189 27.71329,57.49459 33.39984,67.25758 4.00507,6.87612 7.28738,9.32203 7.28738,5.43038 z M 169.83751,434.4365 c -0.95904,-0.95906 -8.84555,-3.64429 -17.52558,-5.96722 -32.90279,-8.80536 -52.607002,-18.85281 -73.219438,-37.3356 -17.035785,-15.27566 -20.018205,-14.97002 -8.920993,0.91422 12.378356,17.71804 37.596011,33.87009 63.449601,40.63983 13.58728,3.55782 39.26537,4.79773 36.21641,1.74877 z"
     id="path21"
     transform="scale(0.75)" />
  <path
     style="fill:#ffffff;stroke-width:0.956615"
     d="m 48.594898,670.19538 c -4.44221,-4.76816 -6.70484,-23.01776 -3.735034,-30.12551 2.853031,-6.82826 8.540306,-8.10882 13.589325,-3.0598 4.550853,4.55085 4.354986,8.06996 -1.120063,20.12399 -2.404905,5.29471 -4.907725,10.87847 -5.561822,12.40835 l -1.189269,2.78162 z"
     id="path22"
     transform="scale(0.75)" />
  <path
     style="fill:#ffffff;stroke-width:0.465666"
     d="m 296.74987,620.19085 c -4.45475,-6.4912 -6.81534,-9.20608 -10.47307,-12.04493 -2.39238,-1.85678 -3.67113,-3.18174 -3.77563,-3.91205 -0.0922,-0.64424 0.91259,-3.35463 2.4117,-6.5056 1.41334,-2.9707 2.79332,-6.6403 3.06663,-8.15467 0.27331,-1.51437 0.59275,-2.84922 0.70986,-2.96634 0.98211,-0.9821 6.41911,3.45615 8.71822,7.11673 1.72677,2.74932 3.55599,7.61716 4.40493,11.7222 1.05625,5.10747 0.70923,12.53707 -0.74117,15.86851 -0.58541,1.34461 -1.24618,2.44474 -1.4684,2.44474 -0.22222,0 -1.5061,-1.60586 -2.85307,-3.56859 z"
     id="path23"
     transform="scale(0.75)" />
  <path
     style="fill:#ffffff;stroke-width:0.465666"
     d="m 192.39762,690.97055 c -0.17075,-0.17074 -0.31045,-0.8258 -0.31045,-1.45568 0,-2.74675 -5.62736,-14.80858 -9.97574,-21.38227 -2.5663,-3.87961 -3.29933,-6.76473 -2.58859,-10.18835 1.2922,-6.22449 7.00964,-10.42749 12.35412,-9.08173 6.85565,1.72627 9.66368,7.30155 9.63756,19.13518 -0.0206,9.34058 -2.11344,17.00044 -5.78428,21.17073 -1.7735,2.0148 -2.64739,2.48736 -3.33262,1.80212 z"
     id="path24"
     transform="scale(0.75)" />
  <path
     style="fill:#ffffff;stroke-width:0.465666"
     d="m 288.21731,547.21438 c -1.297,-0.60395 -3.70682,-2.30162 -5.35515,-3.77259 -3.26295,-2.91187 -6.56883,-4.76343 -10.91329,-6.11236 -3.90459,-1.21234 -15.86451,-1.24568 -20.25646,-0.0565 -4.82978,1.30777 -8.58067,3.40168 -12.34367,6.89079 -2.29238,2.12552 -3.86047,3.22648 -4.59547,3.22648 -0.61364,0 -2.34449,-0.82465 -3.84635,-1.83256 -2.6488,-1.77763 -4.61422,-3.55897 -22.31185,-20.2222 -17.81704,-16.77566 -27.23085,-24.22725 -47.94034,-37.94763 -15.38967,-10.19591 -17.17501,-11.68635 -22.57737,-18.84795 l -3.22185,-4.27102 14.29661,-0.30452 c 7.86313,-0.16748 15.65868,-0.5256 17.32343,-0.79582 1.66476,-0.27021 4.41997,-0.73689 6.12269,-1.03705 4.51045,-0.79511 5.61022,-0.12475 11.14598,6.79405 2.45903,3.07339 6.46261,7.48807 8.89684,9.8104 19.52745,18.62977 52.20744,36.89026 76.97948,43.01358 6.8651,1.69696 10.34161,2.0287 18.01944,1.7195 8.88991,-0.35801 11.41277,0.0657 13.6376,2.29056 1.90331,1.90331 2.81139,5.58022 2.41815,9.79133 -0.54129,5.79651 -2.74101,9.71185 -6.51214,11.59108 -3.02239,1.50611 -5.83847,1.52885 -8.96628,0.0724 z"
     id="path25"
     transform="scale(0.75)" />
  <path
     style="fill:#ffffff;stroke-width:0.465666"
     d="m 319.95308,559.21154 c -5.70474,-5.18944 -9.48212,-7.8418 -12.11054,-8.50365 l -2.04767,-0.51561 1.37073,-2.53078 c 1.8829,-3.47642 3.66492,-8.74285 3.6735,-10.85641 0.0166,-4.08048 2.01987,-3.79783 6.74768,0.95204 3.53611,3.55261 5.27315,6.57392 6.52143,11.34303 0.88278,3.37273 1.40125,11.64491 0.82344,13.13821 -0.4168,1.0772 -0.56822,0.98514 -4.97857,-3.02683 z"
     id="path26"
     transform="scale(0.75)" />
  <path
     style="fill:#ffffff;stroke-width:0.465666"
     d="m 386.62794,707.23005 c -1.31293,-1.49101 -3.09735,-5.54434 -4.06176,-9.22637 -2.48714,-9.49561 -0.0694,-20.58028 5.06836,-23.23712 3.17321,-1.64093 7.59079,-0.36788 9.77258,2.81625 2.27119,3.31458 1.70028,8.14058 -1.63704,13.83802 -2.08602,3.56126 -4.0895,8.3286 -4.83362,11.50181 -1.1303,4.81999 -2.5805,6.26982 -4.30852,4.30741 z"
     id="path27"
     transform="scale(0.75)" />
  <path
     style="fill:#ffffff;stroke-width:0.230171"
     d="m 580.99548,692.91865 c -0.43821,-0.51195 -1.4511,-2.01572 -2.25087,-3.34172 -2.77984,-4.60889 -6.07342,-8.51183 -9.98606,-11.83361 -3.18822,-2.70675 -3.35274,-3.42126 -1.94345,-8.44021 2.07709,-7.39717 5.00595,-10.12748 8.61156,-8.02778 1.20178,0.69985 3.91242,3.5267 5.17132,5.39302 2.80012,4.15121 4.63377,11.15236 4.61717,17.62903 -0.009,3.68687 -0.37724,5.79543 -1.30969,7.50865 -0.58601,1.07669 -1.50005,2.04343 -1.93204,2.04343 -0.0997,0 -0.53973,-0.41886 -0.97794,-0.93081 z"
     id="path28"
     transform="scale(0.75)" />
  <path
     style="fill:#ffffff;stroke-width:0.230171"
     d="m 493.31916,719.68612 c -0.58836,-0.67103 -0.98364,-1.63408 -2.10422,-5.12669 -1.15912,-3.61271 -3.22579,-8.08858 -5.25827,-11.38805 -1.78936,-2.90478 -2.21821,-3.81826 -2.72754,-5.80972 -0.98437,-3.84884 -0.19801,-7.44848 2.16673,-9.91843 3.08749,-3.22483 7.19419,-2.93377 10.87623,0.77087 2.59382,2.60973 3.72045,5.46486 4.25221,10.77596 0.76021,7.59283 -1.53746,16.44769 -5.26318,20.28351 -0.87785,0.90379 -1.41179,1.01722 -1.94196,0.41255 z"
     id="path29"
     transform="scale(0.75)" />
  <path
     style="fill:#ffffff;stroke-width:0.230171"
     d="m 574.8603,623.29672 c -2.76664,-2.58733 -5.21999,-4.05335 -9.83945,-5.87964 -2.3034,-0.91063 -3.94775,-1.96284 -4.11618,-2.63389 -0.0728,-0.29018 0.13632,-1.59326 0.46477,-2.89574 0.32845,-1.30248 0.75155,-3.56544 0.94022,-5.0288 0.42808,-3.3202 0.54202,-3.87161 0.97779,-4.7322 0.43913,-0.86723 0.68392,-1.02784 1.57321,-1.03224 1.48989,-0.007 6.42672,3.98359 9.17184,7.41456 1.68978,2.11197 3.34364,5.2599 3.96294,7.54301 0.58457,2.15506 0.59432,7.469 0.0153,8.35333 -0.22446,0.34283 -0.6085,0.62333 -0.85342,0.62333 -0.24493,0 -1.2786,-0.77928 -2.29705,-1.73172 z"
     id="path30"
     transform="scale(0.75)" />
  <path
     style="fill:#ffffff;stroke-width:0.582861"
     d="m 643.58608,617.6601 c -1.44008,-1.59128 -4.25427,-8.16787 -5.0711,-11.85088 -1.04944,-4.73184 -0.51714,-12.41027 1.07409,-15.49374 1.62571,-3.15029 1.59412,-4.29706 -0.1908,-6.92729 -1.70204,-2.50811 -1.91423,-5.82144 -0.54266,-8.47376 0.50297,-0.97264 2.36485,-3.34606 4.13752,-5.27428 3.63768,-3.95689 5.00258,-6.71987 8.02911,-16.2534 3.02114,-9.51658 4.98757,-19.77519 4.98757,-26.01955 0,-2.8716 -0.15969,-5.38077 -0.35487,-5.57595 -0.19517,-0.19518 -1.37095,0.31755 -2.61283,1.13939 -1.9168,1.26848 -3.43044,1.61082 -10.01792,2.2658 -10.69383,1.06326 -16.35283,3.11412 -21.75713,7.88494 -2.1629,1.90937 -4.58605,3.6356 -5.38479,3.83607 -2.02371,0.50792 -3.58602,-1.53051 -3.59027,-4.68441 -0.005,-3.88207 -1.04994,-6.60053 -3.86462,-10.05619 -1.45101,-1.78146 -2.55135,-3.30507 -2.44519,-3.38581 1.57356,-1.19681 5.96075,-2.08496 10.29909,-2.08496 3.0131,0 6.43387,-0.38687 8.29397,-0.93799 10.40154,-3.08186 23.62679,-12.22322 29.41097,-20.32901 3.7304,-5.22769 4.52848,-7.74105 4.53678,-14.28751 0.0156,-12.26389 -5.23683,-24.88821 -19.85214,-47.71535 -11.21324,-17.51356 -14.27769,-25.87695 -15.45284,-42.17335 -0.36339,-5.03936 -0.54352,-9.26497 -0.40028,-9.39024 0.45701,-0.39966 13.05982,2.06693 20.75601,4.06233 3.37139,0.8741 15.41165,-15.10483 16.86783,-22.38571 0.64851,-3.24251 -1.08254,-2.26789 -6.5766,3.70278 -2.82751,3.07281 -5.8492,5.95797 -6.71486,6.41147 -2.07862,1.08895 -10.27324,1.07797 -15.43665,-0.0207 -13.26948,-2.82346 -25.3157,-9.79426 -37.56584,-21.73826 -7.49685,-7.30951 -9.06726,-9.53628 -8.45256,-11.98541 0.18891,-0.75268 2.35022,-3.7085 4.80291,-6.56851 17.21268,-20.07114 25.47487,-37.8813 26.93375,-58.05904 0.58112,-8.0373 1.24192,-9.41517 7.99398,-16.66856 4.77452,-5.12902 7.21474,-6.81671 9.02532,-6.24206 1.55546,0.49369 7.46034,7.0652 10.73748,11.94969 5.63871,8.40436 8.38936,16.22461 9.94192,28.26546 1.06068,8.22601 1.27255,9.03434 2.36799,9.03434 0.95244,0 2.10303,-2.51756 3.52817,-7.71988 0.54933,-2.00525 1.07181,-3.73915 1.16108,-3.85311 0.29409,-0.37545 7.35337,5.3123 10.50538,8.46432 11.16033,11.16031 18.8618,29.55672 21.18815,50.61183 0.86408,7.82055 2.29868,12.39286 7.06519,22.51803 4.22275,8.97009 6.38735,15.96508 7.64147,24.69369 1.03898,7.23121 0.88006,38.08258 -0.33832,65.67897 l -0.96973,21.96441 2.74465,4.55575 c 4.99826,8.29644 13.93576,15.91166 25.22976,21.4971 7.50127,3.70974 13.64904,5.43283 21.74321,6.09414 9.33858,0.76298 10.05234,1.3946 6.64244,5.87803 -2.62013,3.44501 -3.2945,4.80736 -3.77608,7.62834 -0.69561,4.07474 -1.5602,4.10327 -8.98668,0.29648 -5.53401,-2.83673 -7.79848,-3.62843 -14.43252,-5.04593 -9.18163,-1.96184 -10.66202,-2.53545 -15.73724,-6.09767 -4.09604,-2.87496 -5.25116,-3.23934 -5.236,-1.65172 0.0144,1.50904 4.37277,9.36284 10.80753,19.47523 10.69239,16.80339 15.0474,21.97749 22.69722,26.96619 6.92365,4.51513 9.8861,8.3857 7.72291,10.09031 -0.40072,0.31577 -2.08514,0.72654 -3.74316,0.91282 -3.53079,0.39669 -7.99161,2.5227 -10.21242,4.8672 -0.86339,0.91147 -2.34739,3.0998 -3.29779,4.86295 -1.49979,2.78237 -1.93995,3.18954 -3.33295,3.08311 -3.86156,-0.29502 -8.10798,-6.87887 -9.00625,-13.9637 -0.957,-7.54807 -4.61505,-13.83369 -13.54649,-23.27689 -9.2989,-9.83172 -19.48164,-16.50259 -25.9733,-17.01549 -1.81945,-0.14376 -3.63595,-0.5237 -4.03667,-0.84431 -0.40072,-0.32061 -0.73216,-1.79668 -0.73653,-3.28014 -0.0153,-5.16628 -1.31965,-6.81113 -3.16632,-3.99276 -0.47835,0.73005 -3.94465,10.36911 -7.70291,21.42014 -7.26933,21.3752 -7.5441,22.6762 -6.35669,30.09841 1.00012,6.25155 -0.5367,7.72289 -8.79433,8.41962 -5.17539,0.43667 -7.19486,1.09234 -7.19486,2.336 0,0.2804 0.98358,1.59889 2.18573,2.92997 3.03836,3.36425 2.92557,5.86845 -0.6131,13.61188 -1.46499,3.20573 -3.11994,7.53347 -3.67766,9.6172 -1.43901,5.37635 -2.15017,6.14065 -3.90723,4.19913 z"
     id="path31"
     transform="scale(0.75)" />
  <path
     style="fill:#ffffff;stroke-width:0.582861"
     d="m 519.29763,519.20229 c -4.33969,-7.23997 -9.54288,-9.85978 -21.24158,-10.69516 -7.02314,-0.50151 -7.32609,-0.57797 -8.45148,-2.13289 -6.23383,-8.61311 -15.72714,-19.35217 -20.34414,-23.01375 -3.97294,-3.1508 -4.57989,-2.18957 -1.79863,2.84853 4.04807,7.33283 11.24053,19.08149 15.07586,24.62594 2.0905,3.02206 3.6675,5.71051 3.50445,5.97432 -0.16305,0.26382 -0.87111,0.4805 -1.57349,0.48152 -0.70237,10e-4 -2.85076,1.04933 -4.7742,2.32958 -1.92344,1.28026 -3.6762,2.32857 -3.89503,2.32959 -0.21883,10e-4 -0.57375,-0.55229 -0.78871,-1.22959 -0.65286,-2.05698 -12.99532,-14.34046 -18.38204,-18.29421 -8.03215,-5.89543 -7.50521,-4.41923 -7.45799,-20.89313 0.0649,-22.65336 -1.92849,-36.64322 -7.85819,-55.14856 l -1.95407,-6.09822 9.67652,-2.44025 c 26.1867,-6.60382 51.00447,-17.06382 76.10552,-32.07634 10.74581,-6.4269 11.51255,-6.40974 9.89974,0.2216 -3.63904,14.96251 -18.40798,31.93435 -40.19137,46.18622 -3.52631,2.3071 -11.0015,6.41707 -16.61153,9.13326 -5.61004,2.71619 -11.60282,5.62428 -13.31729,6.46241 -2.98721,1.46032 -4.16211,2.6875 -3.35028,3.49933 0.20867,0.20867 2.2279,0.57692 4.48717,0.81832 4.93454,0.52725 7.33048,1.63951 14.22041,6.60151 15.57096,11.21388 43.69224,21.73389 63.2404,23.65788 6.6363,0.65316 10.49149,1.69152 10.49149,2.82577 0,0.3227 -0.66151,1.56152 -1.47003,2.75293 -0.80852,1.19142 -1.87173,3.62923 -2.3627,5.41735 -1.89882,6.91563 -2.7723,7.31199 -7.81778,3.54757 -3.89218,-2.90396 -7.30152,-4.18956 -15.45252,-5.82689 -9.14317,-1.83663 -16.14509,-4.19724 -26.81159,-9.03918 -11.13713,-5.05559 -11.94865,-5.33883 -11.94865,-4.17048 0,2.4107 32.01376,26.8481 41.31271,31.53566 l 3.13533,1.58051 -1.80056,1.09498 c -1.81179,1.10182 -3.4335,3.29633 -6.00669,8.12834 -0.76631,1.43902 -1.78322,2.69087 -2.2598,2.78188 -0.53567,0.10231 -1.76859,-1.33948 -3.22926,-3.77635 z"
     id="path32"
     transform="scale(0.75)" />
  <path
     style="fill:#ffffff;stroke-width:0.308679"
     d="m 542.84687,538.01211 c -2.94101,-1.27663 -8.56736,-6.30178 -10.76261,-9.61259 -1.04542,-1.57667 -1.15432,-1.93369 -1.12843,-3.6994 0.0379,-2.58118 1.27147,-5.08545 3.15844,-6.41167 1.10748,-0.77836 1.61802,-0.93108 3.08291,-0.92218 5.37255,0.0326 9.13345,6.30112 9.15475,15.25864 0.0132,5.54382 -0.68217,6.61255 -3.50506,5.3872 z"
     id="path33"
     transform="scale(0.75)" />
  <path
     style="fill:#ffffff;stroke-width:0.308679"
     d="m 491.35581,547.05563 c -0.34712,-0.38199 -1.29198,-1.98655 -2.09967,-3.56569 -1.11546,-2.18086 -2.12324,-3.56661 -4.19157,-5.76365 -2.30118,-2.44438 -2.80269,-3.16649 -3.2372,-4.66117 -0.874,-3.00644 -0.076,-5.82573 2.21946,-7.84116 4.24429,-3.72654 8.66455,-2.5615 11.51508,3.035 1.99181,3.91057 2.10386,11.44842 0.22982,15.46021 -0.65203,1.39579 -2.93813,4.03099 -3.497,4.03099 -0.16928,0 -0.59179,-0.31254 -0.93892,-0.69453 z"
     id="path34"
     transform="scale(0.75)" />
  <path
     style="fill:#ffffff;stroke-width:0.308679"
     d="m 569.28142,511.79395 c -2.6186,-2.81703 -5.63907,-5.22103 -9.19022,-7.31451 -2.69265,-1.58738 -3.57937,-2.74549 -3.86744,-5.0511 -0.47159,-3.77448 1.09713,-7.68268 3.48409,-8.68002 6.54367,-2.73411 15.09704,11.85062 12.71344,21.67823 -0.2032,0.83782 -0.45475,1.61705 -0.559,1.73162 -0.10425,0.11458 -1.26564,-0.94932 -2.58087,-2.36422 z"
     id="path35"
     transform="scale(0.75)" />
  <path
     style="fill:#ffffff;stroke-width:0.257039"
     d="m 588.63405,551.15076 c -0.98744,-1.50702 -1.27199,-2.85632 -1.28651,-6.10046 -0.012,-2.67582 0.0862,-3.53527 0.58735,-5.14077 2.49758,-8.00153 9.1292,-14.54981 13.50998,-13.34022 1.38943,0.38364 2.79871,1.78653 3.65054,3.63398 0.63452,1.37614 0.74186,1.92634 0.74024,3.79435 -0.002,1.75429 -0.11319,2.39404 -0.56668,3.24648 -0.85232,1.60216 -2.55335,3.15665 -5.80114,5.30139 -3.41169,2.25297 -5.92634,4.51603 -7.55649,6.80049 -1.72444,2.41658 -2.57096,2.88275 -3.27729,1.80476 z"
     id="path36"
     transform="scale(0.75)" />
  <path
     style="fill:#ffffff;stroke-width:0.202728"
     d="m 756.03325,612.5929 c -0.69304,-0.74073 -1.02295,-1.42424 -2.21238,-4.5836 -1.41763,-3.7655 -3.31574,-7.48138 -5.65115,-11.06312 -2.00484,-3.07476 -2.66287,-4.43554 -3.07568,-6.36039 -0.46162,-2.15245 0.43362,-4.59688 2.40583,-6.56909 1.60812,-1.60812 4.76021,-3.70821 5.56577,-3.70821 1.06522,0 3.69066,1.53057 4.93981,2.8798 1.86747,2.0171 3.34126,5.46094 4.09139,9.56046 0.46897,2.56294 0.46413,7.91998 -0.009,10.31546 -0.73356,3.71154 -2.28256,7.4201 -3.83672,9.18572 -0.92968,1.05617 -1.47183,1.14002 -2.21756,0.34297 z"
     id="path37"
     transform="scale(0.75)" />
  <path
     style="fill:#ffffff;stroke-width:0.202728"
     d="m 780.88,548.83499 c -0.45192,-0.47387 -1.24203,-1.41923 -1.7558,-2.10078 -1.18434,-1.57109 -3.35355,-3.59016 -5.81879,-5.41602 -1.05925,-0.78453 -2.58285,-1.91779 -3.38578,-2.51836 -1.56609,-1.1714 -2.56637,-2.46763 -2.92394,-3.78902 -0.12999,-0.4804 -0.18365,-1.75106 -0.12892,-3.05291 0.21959,-5.22283 2.62314,-8.00836 6.31289,-7.31615 3.66586,0.68771 9.0815,8.83198 10.36215,15.58303 0.37893,1.99758 0.39109,5.93864 0.0231,7.50236 -0.50651,2.15258 -1.35483,2.50261 -2.68496,1.10785 z"
     id="path38"
     transform="scale(0.75)" />
  <path
     style="fill:#ffffff;stroke-width:0.186979"
     d="m 480.51619,91.63098 c -2.25019,-0.507045 -3.98425,-1.796512 -4.88112,-3.629647 -0.7206,-1.472855 -0.72497,-3.389883 -0.0112,-4.933089 1.27646,-2.75993 4.65796,-4.596564 7.47818,-4.06172 3.3838,0.641725 5.69287,4.066113 5.00078,7.41625 -0.7881,3.814922 -3.99617,6.017256 -7.58661,5.208206 z"
     id="path39"
     transform="scale(0.75)" />
  <path
     style="fill:#ffffff;stroke-width:0.186979"
     d="m 620.86501,73.208646 c -2.96694,-0.642527 -4.69344,-3.052946 -4.69877,-6.560089 -0.006,-3.950676 2.37598,-6.620572 5.86251,-6.571137 2.00775,0.02847 3.91544,1.244623 5.41409,3.451486 0.91903,1.353333 1.4528,2.508882 1.45818,3.156779 0.007,0.788727 -1.27743,3.067207 -2.44882,4.345572 -1.57418,1.717947 -3.76545,2.571908 -5.58719,2.177389 z"
     id="path40"
     transform="scale(0.75)" />
</svg>
