<?xml version="1.0" encoding="UTF-8" standalone="no"?>
<svg
   version="1.0"
   width="600.000000pt"
   height="600.000000pt"
   viewBox="0 0 600.000000 600.000000"
   preserveAspectRatio="xMidYMid meet"
   id="svg9"
   sodipodi:docname="frog9_t0.svg"
   inkscape:version="1.4.3 (0d15f75, 2025-12-25)"
   xmlns:inkscape="http://www.inkscape.org/namespaces/inkscape"
   xmlns:sodipodi="http://sodipodi.sourceforge.net/DTD/sodipodi-0.dtd"
   xmlns="http://www.w3.org/2000/svg"
   xmlns:svg="http://www.w3.org/2000/svg">
  <defs
     id="defs9" />
  <sodipodi:namedview
     id="namedview9"
     pagecolor="#505050"
     bordercolor="#ffffff"
     borderopacity="1"
     inkscape:showpageshadow="0"
     inkscape:pageopacity="0"
     inkscape:pagecheckerboard="1"
     inkscape:deskcolor="#505050"
     inkscape:document-units="pt"
     inkscape:zoom="0.58063092"
     inkscape:cx="467.5948"
     inkscape:cy="252.31174"
     inkscape:window-width="1496"
     inkscape:window-height="910"
     inkscape:window-x="1920"
     inkscape:window-y="142"
     inkscape:window-maximized="0"
     inkscape:current-layer="svg9" />
  <g
     transform="translate(0.000000,600.000000) scale(0.066667,-0.066667)"
     fill="#000000"
     stroke="none"
     id="g9">
    <path
       d="M4350 8526 c-387 -75 -779 -393 -976 -793 -238 -482 -25 -784 582 -827 77 -6 139 -16 139 -23 0 -27 -60 -318 -67 -325 -4 -4 -29 10 -56 30 -582 443 -1391 -117 -1229 -850 9 -41 -1 -59 -101 -173 -344 -393 -632 -1045 -632 -1430 l0 -84 -125 9 c-583 41 -976 -515 -814 -1153 81 -318 312 -645 606 -857 60 -43 63 -48 38 -67 -52 -39 -178 -98 -250 -117 -353 -93 -318 -572 43 -567 102 1 150 22 247 107 86 76 122 94 181 94 52 0 51 12 13 -135 -55 -214 175 -416 393 -343 142 48 212 154 206 314 -7 169 70 193 197 64 242 -248 641 -2 473 292 l-37 64 93 -10 c182 -19 230 -228 76 -329 -212 -138 -140 -470 106 -498 132 -15 286 64 317 163 41 129 211 73 291 -96 106 -226 415 -253 542 -47 65 105 29 270 -79 358 l-49 41 67 -7 c45 -4 92 -23 140 -57 284 -200 620 201 342 407 -52 39 -49 59 11 59 137 0 481 138 656 263 77 55 96 63 96 42 -1 -39 -216 -197 -293 -217 -218 -55 -292 -315 -132 -466 118 -111 281 -96 427 41 157 146 236 123 194 -57 -34 -148 85 -308 247 -333 228 -34 415 204 313 399 -62 121 82 119 197 -2 244 -257 636 -24 475 283 -62 118 28 154 195 77 135 -63 237 -59 323 10 200 161 79 485 -180 485 -50 0 -179 30 -255 59 l-42 15 99 117 c365 431 402 1018 85 1335 -172 173 -449 242 -649 162 -18 -7 -31 18 -63 115 l-40 125 120 125 c232 242 306 413 306 700 0 283 -73 444 -309 681 l-130 131 22 81 c36 134 20 400 -31 534 -217 563 -963 635 -1266 121 -21 -35 -32 -41 -63 -32 -21 5 -74 14 -120 19 l-82 10 -35 156 c-42 194 -44 189 89 202 233 21 426 94 525 199 330 351 -159 1155 -834 1370 -104 33 -432 55 -533 36z m488 -157 c378 -117 726 -448 832 -792 94 -300 -17 -448 -390 -522 -155 -31 -1196 -46 -1388 -21 -461 62 -596 268 -414 634 275 555 859 856 1360 701z m128 -1592 c14 -72 38 -165 52 -207 20 -62 21 -80 6 -99 -98 -117 -623 -152 -843 -56 -66 29 -66 29 -18 194 20 71 37 151 37 176 1 121 -21 114 350 119 183 3 345 4 361 4 24 0 33 -23 55 -131z m1263 -31 c301 -138 455 -545 334 -884 l-26 -71 149 -147 c537 -531 377 -1143 -412 -1579 -64 -36 -82 -69 -44 -84 30 -11 178 44 268 99 94 58 80 77 191 -255 232 -692 217 -1102 -65 -1757 -22 -52 -21 -57 7 -93 48 -61 256 -210 329 -235 171 -60 230 -177 136 -271 -75 -75 -176 -65 -276 29 -216 203 -504 132 -394 -98 82 -172 -54 -322 -224 -246 -87 38 -124 112 -98 197 81 271 -165 361 -393 144 -108 -103 -229 -110 -291 -16 -63 96 -3 210 129 246 64 17 279 170 329 234 20 25 33 73 40 149 9 98 18 123 78 213 220 333 357 888 274 1107 -28 74 -66 41 -78 -68 -80 -747 -285 -1126 -731 -1356 -367 -189 -925 -230 -1077 -78 -2 2 -14 63 -27 136 -13 73 -63 253 -112 399 -107 322 -124 415 -118 659 9 319 -88 248 -103 -76 -10 -205 7 -300 115 -626 49 -146 96 -319 106 -385 31 -199 24 -189 174 -251 154 -65 348 -127 432 -140 153 -24 209 -209 85 -282 -65 -38 -121 -31 -210 27 -248 160 -484 18 -286 -172 68 -66 75 -78 75 -140 0 -190 -275 -200 -354 -13 -99 238 -386 290 -488 89 -97 -190 -346 -135 -330 73 2 31 29 63 114 140 150 135 147 266 -12 471 -404 520 -499 1085 -288 1704 66 193 -12 202 -103 12 -225 -470 -159 -1123 162 -1599 67 -100 68 -99 -68 -68 -293 67 -637 272 -975 582 -77 71 -147 127 -155 124 -137 -45 373 -512 767 -701 73 -35 144 -79 159 -98 15 -19 55 -50 88 -69 130 -73 140 -232 17 -290 -83 -40 -148 -19 -239 75 -175 182 -393 97 -383 -149 3 -100 0 -114 -35 -156 -128 -151 -380 -32 -324 152 34 110 37 173 11 213 -66 100 -279 68 -399 -60 -164 -175 -435 -42 -315 155 31 51 59 67 158 92 33 9 127 53 210 99 149 82 150 83 219 65 159 -41 152 13 -14 109 -635 365 -940 1034 -700 1536 290 609 1148 449 1441 -267 52 -127 91 -135 85 -18 -13 253 -258 560 -550 689 l-84 38 0 86 c1 208 112 576 263 874 140 275 379 600 441 600 56 0 65 35 40 158 -150 726 581 1187 1106 698 151 -141 275 -181 562 -181 277 1 487 58 581 158 l45 49 105 -28 c157 -42 163 -41 214 50 157 279 477 398 742 277z m980 -2940 c465 -239 438 -890 -56 -1380 -188 -186 -205 -229 -70 -178 27 10 73 1 184 -37 85 -29 177 -51 217 -51 156 0 272 -115 226 -225 -40 -96 -138 -113 -265 -45 -127 68 -301 46 -349 -43 -26 -48 -162 14 -314 143 l-50 43 37 90 c235 568 262 1055 85 1577 -52 154 -48 158 144 151 109 -5 149 -13 211 -45z"
       id="path1" />
    <path
       d="M4800 8171 c-194 -132 -144 -398 86 -460 177 -48 346 110 312 292 -30 163 -262 261 -398 168z m242 -75 c101 -69 104 -201 5 -278 -103 -82 -275 2 -280 136 -5 143 152 224 275 142z"
       id="path2" />
    <path
       d="M3883 7869 c-344 -123 -283 -595 78 -600 144 -2 275 103 315 250 58 217 -178 427 -393 350z m197 -97 c189 -100 129 -374 -90 -414 -64 -12 -128 10 -183 63 -178 170 54 468 273 351z"
       id="path3" />
    <path
       d="M5226 7560 c-100 -40 -128 -180 -52 -256 100 -100 271 -26 271 117 0 100 -123 178 -219 139z m120 -99 c31 -30 30 -64 -1 -99 -44 -49 -140 -20 -140 43 0 73 89 109 141 56z"
       id="path4" />
    <path
       d="M6023 6451 c-230 -56 -345 -341 -224 -556 182 -324 645 -188 642 187 -3 254 -195 423 -418 369z m258 -161 c44 -48 43 -102 -3 -148 -89 -89 -220 12 -174 133 29 76 115 84 177 15z"
       id="path5" />
    <path
       d="M3510 6241 c-244 -74 -355 -357 -231 -586 154 -283 566 -245 674 62 105 296 -161 610 -443 524z m284 -161 c94 -120 -36 -262 -154 -169 -51 40 -56 133 -10 179 45 45 125 40 164 -10z"
       id="path6" />
    <path
       d="M5441 5429 c-56 -33 -13 -164 54 -164 75 0 94 82 33 143 -41 41 -49 43 -87 21z"
       id="path7" />
    <path
       d="M5063 5365 c-40 -61 14 -153 85 -142 53 7 71 76 32 128 -41 55 -87 61 -117 14z"
       id="path8" />
    <path
       d="M5723 4948 c-347 -14 -535 -44 -1193 -186 -210 -46 -406 -88 -435 -94 -46 -9 -53 -17 -57 -59 -9 -93 61 -92 507 10 709 161 1015 202 1533 203 422 1 439 3 430 69 -9 58 -283 78 -785 57z"
       id="path9" />
  </g>
  <path
     style="fill:#ffffff;stroke-width:1.05266"
     d="m 380.01258,715.20304 c -4.74066,-2.47184 -6.8124,-4.67162 -9.62696,-10.22185 -5.7201,-11.27995 -15.88923,-18.6159 -25.83414,-18.63664 -8.66555,-0.0181 -13.65307,3.10334 -19.34372,12.10619 -7.42008,11.7389 -21.79511,11.80673 -26.25682,0.12388 -2.57218,-6.73514 -1.50718,-9.47364 6.87313,-17.67308 16.32138,-15.96914 15.77701,-23.64322 -3.60958,-50.88458 -9.84035,-13.82734 -18.96488,-31.12116 -23.30509,-44.1704 -9.3044,-27.97454 -9.57543,-60.29068 -0.75522,-90.04374 4.12026,-13.89877 5.54147,-20.36435 4.91699,-22.36902 -2.20057,-7.06413 -11.81134,6.71419 -17.6913,25.36283 -4.77023,15.12911 -6.17954,26.95722 -5.53815,46.48121 0.98044,29.84503 8.87797,55.6453 24.42302,79.78707 2.71981,4.22393 4.70665,7.91835 4.41518,8.20981 -0.29146,0.29146 -3.59921,-0.18188 -7.35056,-1.05188 -27.24264,-6.31799 -53.45854,-21.82801 -88.16074,-52.15821 -6.65503,-5.81658 -12.93151,-10.57562 -13.94774,-10.57562 -2.95983,0 -2.31924,5.78287 1.20336,10.86326 3.75919,5.42164 19.31722,20.53483 28.52875,27.71309 10.56329,8.23162 24.65272,17.31611 37.2549,24.02093 6.30559,3.3548 13.1742,7.61515 15.26357,9.46743 2.08936,1.85228 6.00755,4.86396 8.70708,6.69262 6.5259,4.42064 9.27288,10.8872 7.07639,16.65827 -1.82846,4.80412 -5.67688,7.73473 -11.11496,8.46413 -5.21307,0.69921 -8.20695,-0.78278 -16.96232,-8.39651 -9.83701,-8.55434 -19.02356,-10.3067 -26.4203,-5.03975 -4.68205,3.33391 -6.78333,8.87558 -7.4358,19.61032 -0.40643,6.68672 -1.15228,10.39846 -2.50315,12.45696 -2.09619,3.19426 -9.19109,6.90651 -13.27016,6.94331 -4.11618,0.0371 -11.68602,-4.19917 -13.85269,-7.75237 -2.47135,-4.05284 -2.50955,-6.50479 -0.25177,-16.15832 3.2932,-14.0807 -0.53609,-19.81111 -13.14878,-19.67669 -8.80177,0.0938 -14.44686,2.51088 -22.66981,9.7066 -7.05875,6.17695 -11.66218,8.04645 -18.04258,7.32728 -11.35482,-1.27984 -15.58631,-12.0193 -8.43169,-21.3995 2.0301,-2.66159 4.2503,-4.0075 8.73475,-5.29511 3.30703,-0.94954 12.60884,-5.05528 20.6707,-9.12389 l 14.65793,-7.39745 7.44793,1.15477 c 8.05972,1.24961 10.34933,0.51303 8.42041,-2.70889 -0.59705,-0.99725 -6.79875,-5.60276 -13.78157,-10.23446 -27.83376,-18.46213 -43.2334,-34.73279 -54.79694,-57.8963 -8.38488,-16.79614 -11.31055,-29.80939 -10.58633,-47.0874 1.59628,-38.08277 27.55626,-63.80184 62.18339,-61.60631 17.22231,1.09198 33.90365,8.92671 48.30864,22.68916 9.42645,9.00598 15.89958,18.18162 21.9796,31.15604 6.66199,14.21632 9.42546,15.54859 9.37948,4.52188 -0.0324,-7.76438 -3.21027,-17.77202 -8.40616,-26.47226 -8.34464,-13.97261 -27.37016,-30.59957 -41.64187,-36.39203 l -5.71577,-2.31986 v -7.20903 c 0,-19.22962 11.8107,-56.95844 25.95077,-82.89873 6.10066,-11.19182 19.64014,-31.45172 26.14673,-39.12489 2.70018,-3.18429 6.88492,-6.87815 9.29942,-8.20857 2.4145,-1.33043 4.81043,-2.8394 5.3243,-3.35326 0.54396,-0.54397 0.21503,-5.55249 -0.78733,-11.9883 -2.15276,-13.82209 -2.16731,-20.67183 -0.0658,-30.96939 2.5685,-12.5858 7.88271,-22.59799 16.66037,-31.38885 15.93298,-15.95695 36.77734,-21.00317 56.77453,-13.74458 9.08837,3.2989 14.56911,6.64347 24.46549,14.92979 15.13986,12.67675 23.52258,15.31444 48.76106,15.34311 27.40529,0.0311 44.62614,-4.61013 54.10273,-14.58143 l 2.94096,-3.09449 10.21729,2.49493 c 7.45083,1.8194 10.84417,2.21699 12.53255,1.46841 1.27341,-0.5646 4.49975,-4.34235 7.16965,-8.39501 19.81194,-30.07263 54.80347,-35.28173 78.41218,-11.67303 10.2188,10.21881 16.65658,24.28138 18.42663,40.25085 0.80241,7.23947 -1.01287,20.25045 -3.9031,27.97527 l -2.09694,5.60457 12.00265,12.29651 c 6.60145,6.76307 13.45328,14.42814 15.22628,17.03347 28.40669,41.74208 12.89722,84.84552 -42.8135,118.98595 -10.66965,6.53854 -13.72518,9.16058 -12.96959,11.12961 1.28145,3.33938 13.55237,0.0513 25.97688,-6.96063 5.81794,-3.28345 6.10023,-3.33748 7.52002,-1.43945 2.00723,2.68333 12.36015,33.92257 16.17781,48.81543 5.45304,21.27257 6.79134,32.97038 6.14191,53.68566 -0.77903,24.84971 -4.54665,40.79133 -16.63549,70.38849 -2.25812,5.52858 -4.10568,10.62754 -4.10568,11.33103 0,4.13844 17.4394,18.12035 30.69899,24.61269 9.98952,4.8912 12.24553,6.4543 14.70992,10.1919 2.72468,4.13239 2.43754,8.01429 -0.88488,11.96277 -6.5033,7.72873 -13.63338,7.52486 -24.14643,-0.69043 -14.73679,-11.5159 -28.37921,-14.24176 -35.52318,-7.09778 -3.46242,3.46242 -3.63771,8.95637 -0.56471,17.6996 2.57563,7.32817 2.10034,11.68352 -1.77806,16.29273 -3.63543,4.32047 -9.39588,5.97708 -14.74596,4.24071 -10.55343,-3.42511 -12.9018,-7.79785 -10.94462,-20.37918 1.25407,-8.06146 1.20103,-9.00759 -0.75241,-13.42366 -5.05582,-11.42953 -19.61081,-10.79647 -34.38108,1.49537 -11.07131,9.21355 -18.3912,10.57316 -24.42719,4.53718 -3.01528,-3.01528 -3.57904,-4.32905 -3.57904,-8.34051 0,-6.69918 3.33931,-10.21786 15.09416,-15.9049 9.92038,-4.79952 25.92079,-16.59158 28.14049,-20.73914 0.68849,-1.28646 1.88777,-6.59627 2.66506,-11.79957 1.28781,-8.62078 2.06513,-10.59146 8.75706,-22.20112 15.56319,-27.00025 24.3619,-56.21071 24.23331,-80.45112 -0.0687,-12.95731 -1.47724,-18.41259 -4.87895,-18.89671 -2.94363,-0.41893 -3.7624,2.44084 -6.6224,23.13036 -2.48214,17.95609 -6.67097,35.29614 -11.84499,49.03347 -15.49924,41.15133 -52.19048,66.75332 -102.91334,71.80966 -13.10707,1.3066 -22.5054,0.79607 -31.55664,-1.71418 -8.92679,-2.47573 -11.26079,-4.63189 -12.64998,-11.68612 -2.20642,-11.20403 -6.21681,-25.9462 -12.05594,-44.31754 -7.8215,-24.60837 -9.08797,-31.35432 -9.61017,-51.18959 -0.4921,-18.69195 -1.01985,-22.63219 -3.03134,-22.63219 -4.16087,0 -6.85269,12.20923 -6.84648,31.05347 0.005,15.99136 1.48795,23.65213 9.28092,47.95279 6.23193,19.43288 8.10767,26.4696 10.75088,40.33126 1.08936,5.71297 2.58457,11.12338 3.32267,12.02314 3.00078,3.65806 29.89111,14.15533 46.44656,18.1315 9.6252,2.31172 12.63547,4.03344 14.98039,8.56803 3.82416,7.39509 1.21194,14.35687 -6.49081,17.29857 l -4.65769,1.7788 -10.25732,-5.09365 c -8.96465,-4.45171 -11.25997,-5.14622 -18.21314,-5.51091 -7.40082,-0.38817 -8.19021,-0.22004 -11.31609,2.41022 -2.59214,2.18113 -3.36029,3.66414 -3.36029,6.48744 0,4.66898 1.24193,6.9569 7.52878,13.86979 4.24918,4.6723 5.10314,6.29024 5.10314,9.66858 0,2.2315 -0.46189,5.27214 -1.02642,6.75697 -2.28162,6.00111 -12.68693,8.80438 -19.4981,5.25294 z M 378.73095,395.2285 c 5.08602,-0.88965 17.42587,-3.45701 27.42188,-5.70522 61.28528,-13.78377 83.49527,-16.6706 136.71924,-17.77065 28.92308,-0.5978 33.61513,-0.92051 35.10913,-2.41478 2.23384,-2.23424 1.20486,-5.49077 -2.22933,-7.0555 -10.40343,-4.74012 -70.83138,-4.18872 -106.26555,0.96965 -24.09807,3.50811 -106.96239,20.98756 -109.50713,23.09949 -0.85167,0.70683 -1.54849,2.86154 -1.54849,4.78825 0,6.05614 4.20788,6.90367 20.30025,4.08876 z m 82.82339,-61.46611 c 3.63455,-6.79121 -4.17803,-16.73075 -10.16055,-12.92674 -3.83921,2.44118 -3.57278,10.59538 0.44591,13.64704 2.7335,2.07574 8.44488,1.65226 9.71464,-0.7203 z m 31.72649,-3.33683 c 2.89215,-2.89215 2.02622,-7.70477 -2.13625,-11.87273 -5.66814,-5.67561 -12.03756,-1.15963 -9.64194,6.83623 2.03751,6.80062 7.62484,9.18984 11.77819,5.0365 z M 331.75831,312.48582 c 7.14323,-2.67263 15.13368,-9.72231 18.20062,-16.05775 8.98367,-18.55779 1.51957,-40.90149 -16.64311,-49.82094 -15.6427,-7.68192 -34.97521,0.0974 -43.56616,17.53096 -3.37027,6.83924 -3.43755,23.56849 -0.12362,30.73554 4.11252,8.89416 12.28262,16.0932 21.43496,18.88731 5.22925,1.59643 14.55859,1.02167 20.69731,-1.27512 z m 223.22737,-22.8444 c 6.85978,-3.5162 11.51009,-8.16074 14.7243,-14.70602 2.5552,-5.2033 2.93701,-7.21527 2.93701,-15.47687 0,-8.61109 -0.32295,-10.15208 -3.46535,-16.5352 -2.04998,-4.16411 -5.2172,-8.53865 -7.75452,-10.7105 -14.88199,-12.73843 -38.22408,-7.06952 -47.19497,11.46188 -3.72995,7.70503 -4.16364,20.01678 -1.0006,28.40525 2.92825,7.7658 11.03127,16.2912 17.86398,18.79516 6.50349,2.38331 17.99103,1.79009 23.89015,-1.2337 z"
     id="path10"
     transform="scale(0.75)" />
  <path
     style="fill:#ffffff;stroke-width:1.05266"
     d="m 618.8785,633.36044 c -6.57831,-3.54633 -19.38868,-13.06516 -19.38868,-14.40692 0,-0.41392 1.43599,-4.2349 3.19109,-8.49105 5.0487,-12.24324 11.30481,-32.73791 13.89936,-45.53358 2.05958,-10.15732 2.37794,-14.90557 2.34099,-34.91462 -0.0476,-25.77538 -1.05828,-32.55126 -8.46868,-56.77599 -3.65433,-11.9461 -3.74735,-12.61578 -1.93626,-13.94008 2.29257,-1.67637 12.04553,-1.79914 21.4689,-0.27027 18.32943,2.97383 33.99327,19.49169 38.45475,40.55137 2.04613,9.65844 1.9495,15.8693 -0.42598,27.37934 -3.89927,18.89333 -14.3541,37.54149 -30.6309,54.63596 -17.36686,18.23931 -19.31372,21.52655 -11.83994,19.99161 6.35565,-1.30528 9.8072,-0.88371 20.86984,2.54905 5.74574,1.78292 14.13029,3.70708 18.63233,4.2759 9.21879,1.16475 11.41855,2.06538 16.27786,6.66443 4.18925,3.96487 5.28403,8.76331 3.00494,13.17059 -3.79325,7.33534 -9.8029,8.24882 -22.03769,3.34977 -12.85304,-5.14661 -24.99037,-4.1738 -31.14114,2.49598 -3.25966,3.53472 -4.49354,3.46117 -12.27079,-0.73149 z"
     id="path11"
     transform="scale(0.75)" />
  <path
     style="fill:#ffffff;stroke-width:0.294037"
     d="m 549.53839,256.72928 c -5.09561,-1.31113 -8.41844,-6.58753 -7.47155,-11.86426 0.90299,-5.03212 3.82914,-7.90139 8.08305,-7.92593 2.55098,-0.0147 5.12294,1.21439 7.48601,3.57746 4.18057,4.18057 4.39269,8.9357 0.583,13.06873 -2.18101,2.36611 -6.13623,3.79865 -8.68051,3.144 z"
     id="path12"
     transform="scale(0.75)" />
  <path
     style="fill:#ffffff;stroke-width:0.401607"
     d="m 327.45463,276.50198 c -6.15711,-1.97019 -9.12911,-9.47099 -6.09969,-15.39455 3.11948,-6.09965 11.82517,-6.60141 16.02243,-0.92347 1.78065,2.40881 2.7494,5.62309 2.45188,8.1352 -0.72777,6.14482 -6.60278,10.02972 -12.37462,8.18282 z"
     id="path13"
     transform="scale(0.75)" />
  <path
     style="fill:#ff9955;stroke-width:0.401607"
     d="m 392.77194,234.0817 c -8.81928,-0.76103 -17.08099,-2.64605 -22.1815,-5.06103 -3.76407,-1.7822 -4.0116,-2.94175 -2.12271,-9.94389 4.24104,-15.72163 5.22786,-20.54115 5.22786,-25.53228 0,-5.94904 0.97422,-6.30024 18.87554,-6.80441 6.95785,-0.19596 19.85681,-0.37256 28.66437,-0.39244 14.0907,-0.0318 16.09825,0.0404 16.71762,0.60087 0.95448,0.8638 1.71555,3.45896 3.65099,12.4495 0.90347,4.1968 2.52952,10.70284 3.61345,14.45787 2.34366,8.11908 2.42484,9.29585 0.77119,11.17925 -5.73233,6.52878 -31.54446,10.91669 -53.21681,9.04656 z"
     id="path14"
     transform="scale(0.75)" />
  <path
     style="fill:#ff7f2a;stroke-width:0.451201"
     d="m 392.54474,233.8929 c -4.83606,-0.49519 -11.63896,-1.72302 -15.10173,-2.72566 -7.14858,-2.06988 -9.93992,-3.76819 -9.93992,-6.04768 0,-0.67428 1.10441,-5.56262 2.45423,-10.86297 2.92377,-11.48074 3.86258,-16.28627 3.86258,-19.77154 0,-4.92033 0.92905,-6.00328 5.86562,-6.83733 3.19071,-0.53908 46.50621,-1.34151 52.9536,-0.98098 4.76317,0.26635 4.92237,0.30965 5.67209,1.54248 0.42426,0.69763 1.43357,4.16776 2.24291,7.71139 0.80933,3.54364 2.47801,10.30074 3.70818,15.01579 3.01142,11.54237 3.04779,11.86858 1.52524,13.67803 -3.1048,3.68985 -11.77619,6.6397 -25.49395,8.6726 -3.37244,0.49978 -24.3185,0.95711 -27.74885,0.60587 z"
     id="path16"
     transform="scale(0.75)" />
  <path
     style="fill:#ff0000;stroke-width:0.451201"
     d="m 352.54724,175.06141 c -17.05427,-1.06474 -32.60991,-5.88159 -40.85181,-12.6499 -3.27866,-2.69246 -6.51467,-7.22965 -7.86938,-11.03362 -1.20453,-3.38231 -1.61578,-10.18603 -0.87572,-14.48823 1.42622,-8.29111 6.94646,-20.71901 13.90673,-31.30866 19.25303,-29.292425 47.48061,-48.090652 78.32867,-52.163181 6.54435,-0.863978 18.71442,-0.640593 24.59073,0.451371 24.47225,4.547544 49.69349,20.340012 67.09334,42.010991 14.25822,17.758169 22.06466,39.586429 18.92291,52.911949 -2.31737,9.82891 -10.83681,16.80192 -26.04992,21.32139 -9.23876,2.74463 -15.68929,3.52717 -37.34036,4.52992 -13.02429,0.6032 -81.76646,0.92297 -89.85519,0.41797 z M 476.0911,153.37629 c 5.03648,-2.42669 7.97221,-7.15231 7.97221,-12.83281 0,-2.67203 -0.21439,-3.59947 -1.28806,-5.57216 -3.793,-6.96899 -12.54186,-9.99259 -19.30484,-6.67174 -8.06621,3.96079 -10.14426,15.81802 -3.90937,22.30668 4.46689,4.6487 10.52422,5.66376 16.53006,2.77003 z m -114.36496,-0.99554 c 13.28457,-5.14351 21.63744,-19.49424 18.6749,-32.08461 -1.78534,-7.58744 -7.55357,-14.75231 -14.70275,-18.26266 -4.08999,-2.00824 -8.70749,-3.199897 -12.44865,-3.212661 -5.84532,-0.01994 -14.25145,3.531571 -19.29272,8.150971 -3.72921,3.41715 -6.00244,6.86566 -7.6208,11.56085 -5.1848,15.04212 2.73957,30.37832 17.79554,34.44012 4.904,1.323 13.3855,1.03762 17.59448,-0.59201 z m 83.02289,-37.37042 c 11.75378,-2.44362 19.93756,-14.94954 17.44972,-26.665555 -1.7057,-8.032705 -9.12139,-15.002641 -18.4424,-17.333837 -4.60542,-1.15182 -10.77729,-0.704008 -14.53546,1.054651 -5.90918,2.765239 -11.11785,9.000279 -12.74843,15.260525 -4.12338,15.830706 11.53815,31.164136 28.27657,27.684216 z"
     id="path17"
     transform="scale(0.75)" />
  <path
     style="fill:#ececec;stroke-width:0.451201"
     d="m 437.1717,107.39627 c -4.86481,-1.02845 -9.69274,-4.69388 -11.77937,-8.943066 -1.07367,-2.186384 -1.26021,-3.115427 -1.2414,-6.18263 0.0253,-4.121922 0.92749,-6.633676 3.39046,-9.43884 5.80667,-6.613433 15.71212,-6.822612 22.49811,-0.475105 6.26829,5.863249 6.26073,14.880749 -0.0176,21.012451 -3.61528,3.53084 -8.28117,4.9931 -12.85019,4.02719 z"
     id="path18"
     transform="scale(0.75)" />
  <path
     style="fill:#ececec;stroke-width:0.451201"
     d="m 466.46405,146.69342 c -2.32203,-1.08542 -3.42943,-2.69895 -3.42943,-4.99682 0,-3.61948 3.15607,-6.78755 6.76185,-6.78755 3.13805,0 5.98831,1.98355 6.92392,4.8185 0.42294,1.28152 0.35006,1.8184 -0.4795,3.53203 -1.85198,3.8257 -5.89829,5.24685 -9.77684,3.43384 z"
     id="path19"
     transform="scale(0.75)" />
  <path
     style="fill:#ececec;stroke-width:0.451201"
     d="m 348.5731,145.70506 c -5.12677,-1.02757 -10.89441,-5.45571 -13.5963,-10.43865 -1.47371,-2.71786 -1.53937,-3.04106 -1.53937,-7.57657 0,-4.53895 0.0705,-4.88535 1.68229,-8.2608 3.98885,-8.35376 13.16047,-13.62739 21.12429,-12.14636 11.85745,2.20512 18.6995,12.7478 15.33608,23.63084 -2.04401,6.6138 -6.88989,11.55487 -13.58827,13.85518 -3.13559,1.07681 -6.86715,1.44778 -9.41872,0.93636 z"
     id="path20"
     transform="scale(0.75)" />
  <path
     style="fill:#ff6600;stroke-width:0.451201"
     d="m 385.09993,232.62303 c -6.08545,-1.09361 -13.12612,-3.19619 -15.15567,-4.526 -0.59125,-0.3874 -1.37859,-1.16771 -1.74965,-1.73402 -0.62008,-0.94636 -0.43596,-2.03066 2.2762,-13.40477 1.94524,-8.15784 3.0991,-14.06449 3.38586,-17.33238 0.50045,-5.70278 1.02523,-6.61612 4.27112,-7.43345 3.91492,-0.98578 54.20546,-1.85001 58.17912,-0.99979 0.86451,0.18498 1.56478,0.7383 1.94906,1.5401 0.91056,1.89981 8.19022,31.44919 8.19932,33.28239 0.0201,4.04919 -7.6484,7.68453 -21.9166,10.38985 -4.13006,0.78308 -7.20846,0.96374 -19.13473,1.12296 -13.52537,0.18057 -14.50745,0.1368 -20.30403,-0.90489 z"
     id="path21"
     transform="scale(0.75)" />
</svg>
