<?xml version="1.0" encoding="UTF-8" standalone="no"?>
<svg
   version="1.0"
   width="600.000000pt"
   height="600.000000pt"
   viewBox="0 0 600.000000 600.000000"
   preserveAspectRatio="xMidYMid meet"
   id="svg29"
   sodipodi:docname="frog18_t2.svg"
   inkscape:version="1.4.3 (0d15f75, 2025-12-25)"
   xmlns:inkscape="http://www.inkscape.org/namespaces/inkscape"
   xmlns:sodipodi="http://sodipodi.sourceforge.net/DTD/sodipodi-0.dtd"
   xmlns="http://www.w3.org/2000/svg"
   xmlns:svg="http://www.w3.org/2000/svg">
  <defs
     id="defs29" />
  <sodipodi:namedview
     id="namedview29"
     pagecolor="#505050"
     bordercolor="#ffffff"
     borderopacity="1"
     inkscape:showpageshadow="0"
     inkscape:pageopacity="0"
     inkscape:pagecheckerboard="1"
     inkscape:deskcolor="#505050"
     inkscape:document-units="pt"
     inkscape:zoom="10.447621"
     inkscape:cx="507.43612"
     inkscape:cy="137.59114"
     inkscape:window-width="1496"
     inkscape:window-height="910"
     inkscape:window-x="1920"
     inkscape:window-y="142"
     inkscape:window-maximized="0"
     inkscape:current-layer="svg29" />
  <g
     transform="translate(0.000000,600.000000) scale(0.066667,-0.066667)"
     fill="#000000"
     stroke="none"
     id="g29">
    <path
       d="M4436 8814 c-42 -32 -81 -142 -100 -279 -43 -317 -61 -350 -139 -258 -19 23 -72 69 -117 103 -45 33 -135 109 -200 167 -250 228 -370 169 -401 -198 -23 -276 -30 -314 -70 -373 -21 -31 -41 -56 -44 -56 -25 0 -139 96 -220 186 -136 152 -247 198 -348 144 -76 -41 -88 -88 -97 -393 -10 -301 -13 -315 -67 -282 -143 90 -177 108 -224 115 -153 25 -198 -47 -192 -314 3 -182 0 -213 -27 -265 -16 -33 -30 -69 -30 -81 0 -13 -22 -26 -56 -32 -112 -20 -274 -155 -274 -227 0 -10 -20 -23 -44 -28 -132 -29 -236 -177 -222 -313 5 -52 1 -91 -12 -115 -12 -21 -21 -66 -21 -102 -1 -54 -9 -71 -54 -110 -34 -30 -58 -69 -68 -110 -13 -49 -35 -79 -94 -129 -162 -136 -326 -355 -381 -511 -22 -61 -33 -72 -86 -88 -193 -58 -321 -259 -304 -476 7 -90 4 -110 -36 -187 -51 -102 -87 -245 -88 -346 0 -62 -7 -80 -52 -126 -28 -29 -63 -85 -76 -123 -14 -38 -31 -80 -39 -92 -51 -82 -75 -158 -69 -215 4 -43 -2 -74 -20 -100 -64 -94 -70 -230 -14 -322 27 -45 27 -47 -12 -158 -116 -334 -16 -789 232 -1048 70 -72 76 -85 63 -119 -8 -21 -13 -88 -12 -148 3 -107 2 -110 -53 -171 -366 -405 93 -798 506 -434 40 35 74 61 77 58 2 -3 18 -30 36 -59 208 -347 739 -404 829 -89 27 95 23 94 172 42 323 -113 547 -32 586 210 8 51 15 63 34 55 76 -29 241 -67 333 -76 l105 -10 37 -77 c115 -245 372 -386 702 -386 158 -1 169 -3 229 -44 352 -242 732 -250 834 -17 17 39 33 73 35 75 2 3 30 -6 62 -20 332 -142 590 -50 590 210 0 64 1 65 60 75 133 23 217 125 214 260 -2 76 0 80 31 71 88 -26 500 -27 618 -1 114 25 118 25 138 -2 72 -100 174 -152 273 -137 40 6 46 2 46 -29 0 -252 322 -339 600 -163 l83 53 20 -48 c112 -270 524 -254 657 26 l23 48 61 -31 c331 -163 601 182 386 494 -42 60 -42 60 -13 96 127 157 208 394 219 646 5 113 16 204 28 228 55 107 12 462 -55 462 -8 0 -14 9 -14 19 0 10 -12 42 -28 71 -27 50 -27 53 0 113 103 233 99 517 -9 732 -45 90 -49 107 -35 156 46 167 -19 424 -136 535 -36 34 -47 60 -56 127 -12 103 -52 209 -110 294 -40 57 -43 69 -29 122 12 47 10 74 -10 127 -13 36 -23 80 -21 97 21 160 -25 283 -125 331 -60 29 -131 141 -131 206 0 72 -62 153 -142 183 -46 18 -68 35 -68 54 0 34 -81 128 -136 156 -40 21 -41 26 -41 138 1 153 -39 250 -140 340 -63 57 -73 74 -73 124 -1 156 -147 304 -301 305 l-54 0 1 144 2 143 -51 46 c-47 41 -59 45 -132 39 -44 -4 -80 -3 -80 2 -3 68 -48 448 -60 502 -59 264 -171 252 -380 -43 -85 -120 -90 -117 -132 46 -58 226 -220 471 -312 471 -88 0 -126 -57 -180 -270 -35 -135 -47 -156 -72 -120 -11 17 -57 57 -101 89 -45 34 -97 90 -120 131 -161 280 -370 319 -495 93 -25 -47 -81 -116 -124 -155 l-78 -70 -38 86 c-92 206 -378 405 -477 330z m132 -97 c120 -73 217 -185 284 -325 48 -100 82 -151 126 -185 47 -38 63 -63 78 -126 15 -64 33 -93 97 -153 70 -67 144 -206 121 -229 -3 -3 -81 43 -173 101 -231 147 -242 139 -165 -120 64 -216 52 -227 -48 -48 -15 27 -69 70 -135 108 -137 80 -169 108 -232 205 -28 43 -71 92 -96 110 -70 50 -79 78 -53 161 12 39 37 162 54 274 38 249 56 279 142 227z m829 -53 c54 -28 101 -80 174 -192 39 -59 90 -113 139 -147 96 -64 124 -118 89 -167 -13 -19 -24 -58 -24 -88 -1 -97 -20 -98 -90 -8 -96 124 -107 117 -212 -127 -48 -111 -93 -216 -100 -232 -14 -31 -47 39 -71 149 -5 27 -40 73 -84 113 -59 54 -78 85 -95 149 -12 44 -39 99 -61 122 -57 59 -41 121 49 184 42 30 81 75 104 121 67 131 110 160 182 123z m756 -80 c53 -62 176 -303 193 -379 17 -77 42 -133 100 -227 30 -47 13 -75 -152 -243 l-103 -105 11 168 c17 252 -18 275 -149 101 -120 -159 -114 -157 -184 -67 -61 78 -61 78 -40 137 12 33 21 75 21 94 0 20 27 66 60 104 76 89 79 93 127 263 52 183 70 207 116 154z m-2334 -111 c65 -58 160 -136 212 -173 103 -74 105 -79 68 -135 -21 -33 -27 -94 -33 -401 -10 -431 -10 -431 -141 -376 -30 12 -77 22 -105 22 -63 0 -67 6 -138 165 -61 136 -105 194 -183 242 -59 36 -60 48 -12 111 47 62 62 131 83 382 26 313 60 335 249 163z m3028 -242 c12 -43 33 -176 45 -296 13 -120 28 -235 32 -256 17 -78 -110 -165 -225 -154 -140 13 -222 -43 -280 -190 -17 -44 -136 -180 -157 -180 -4 0 -7 17 -7 38 0 20 -13 49 -30 63 -24 20 -30 44 -30 112 0 58 10 106 30 143 17 31 30 64 30 74 0 10 41 54 91 98 92 80 179 217 179 282 0 17 26 59 58 94 31 35 86 106 120 157 81 121 113 124 144 15z m-3883 -84 c25 -16 83 -70 127 -121 59 -66 132 -124 263 -204 l181 -113 77 -160 77 -161 -36 -38 c-62 -65 -78 -159 -47 -279 48 -183 47 -177 12 -158 -17 10 -51 17 -76 17 -25 0 -49 7 -54 15 -16 26 -176 16 -243 -14 l-62 -28 -34 35 c-45 48 -124 72 -201 62 l-63 -9 -18 73 c-11 41 -39 104 -62 142 -95 149 -95 148 -59 261 26 80 34 157 42 380 13 341 38 384 176 300z m1387 -117 c55 -56 110 -123 123 -147 34 -66 93 -117 228 -199 99 -60 127 -86 172 -161 l55 -90 -107 -105 c-78 -77 -115 -126 -135 -180 -36 -100 -44 -107 -77 -68 -15 18 -52 57 -82 87 -30 31 -65 77 -78 103 -30 59 -75 75 -121 45 -31 -20 -38 -19 -79 13 -25 19 -61 39 -81 44 l-36 9 3 273 c7 560 19 580 215 376z m1411 -185 c175 -224 177 -224 268 -101 77 102 98 110 97 34 -1 -29 -2 -149 -4 -267 l-3 -213 -139 4 c-95 3 -183 -4 -276 -24 l-137 -28 -62 73 c-85 98 -189 149 -330 160 l-111 10 -37 131 c-21 73 -34 135 -29 140 4 4 86 -40 182 -99 201 -124 209 -125 256 -15 19 45 64 152 99 236 36 85 67 154 69 154 2 0 72 -88 157 -195z m1402 -248 c28 -42 17 -292 -12 -292 -8 0 -60 -43 -115 -96 -105 -100 -167 -143 -167 -114 0 9 8 63 17 120 16 95 14 107 -17 172 l-34 70 43 46 c114 122 240 163 285 94z m-4728 -13 c139 -58 209 -126 210 -202 1 -57 13 -90 56 -155 31 -45 65 -112 78 -149 l22 -65 -86 -9 c-105 -11 -200 -62 -256 -139 l-43 -58 -22 51 c-22 54 -89 117 -125 117 -30 0 -24 57 11 115 29 46 31 68 26 261 -6 257 9 283 129 233z m4327 -182 c55 -62 57 -73 40 -251 -9 -86 -15 -101 -39 -101 -47 0 -33 -28 26 -53 31 -13 76 -38 102 -57 68 -51 80 -57 90 -42 4 8 -10 36 -33 63 -39 47 -40 49 -12 65 17 9 70 54 120 101 307 286 610 54 412 -316 -89 -167 -165 -206 -310 -159 -26 9 -34 6 -34 -13 0 -30 108 -83 169 -84 27 0 74 -26 135 -76 51 -42 148 -112 215 -157 217 -143 293 -282 247 -452 -25 -93 -49 -106 -111 -58 -318 242 -1206 112 -2222 -326 -251 -108 -331 -136 -390 -137 -101 -2 -108 32 -21 111 53 49 60 60 38 69 -101 38 -228 -166 -148 -239 73 -66 149 -51 508 104 1037 448 2008 592 2223 330 83 -100 -25 -462 -211 -709 -33 -43 -55 -86 -50 -95 14 -22 91 45 163 141 32 42 60 79 63 82 3 3 24 -9 46 -26 22 -18 52 -32 67 -32 15 0 32 -15 37 -34 6 -18 24 -49 41 -67 23 -25 32 -56 34 -120 2 -89 18 -134 59 -168 13 -11 23 -36 23 -56 0 -78 71 -155 143 -155 102 0 171 124 143 262 -10 50 -16 101 -13 113 7 30 -40 36 -68 8 -21 -21 -20 -30 7 -92 32 -72 29 -120 -11 -182 -44 -69 -141 -21 -141 69 0 20 -17 52 -37 71 -32 29 -38 49 -40 129 -1 52 -3 101 -5 110 -2 8 -4 23 -6 33 -1 11 -12 19 -25 19 -29 0 -51 58 -41 110 8 41 -27 59 -48 25 -18 -28 -67 -15 -93 24 -25 39 -24 45 26 192 36 107 52 178 52 242 0 73 6 97 33 126 115 123 81 356 -75 521 -106 113 -75 166 40 67 15 -14 43 -60 63 -104 30 -69 39 -78 69 -70 64 16 132 -76 132 -178 0 -32 10 -54 30 -67 21 -12 30 -34 30 -71 0 -46 5 -52 38 -52 99 0 205 -196 136 -254 -32 -26 -30 -51 6 -83 70 -64 44 -233 -37 -233 -44 0 -46 -9 -14 -73 36 -74 -1 -161 -63 -145 -41 10 -60 -15 -35 -46 60 -73 190 38 173 148 -16 100 41 56 101 -79 44 -97 66 -210 41 -210 -9 0 -16 6 -16 13 0 21 -48 35 -64 19 -9 -9 2 -24 29 -42 168 -107 248 -246 257 -444 8 -171 6 -172 -106 -63 -47 45 -89 82 -93 82 -26 0 4 -52 90 -157 232 -283 279 -549 155 -867 -19 -48 -43 -54 -43 -10 0 76 -82 168 -166 187 -33 7 -51 24 -67 64 -47 110 -149 176 -257 164 -49 -6 -69 -1 -89 20 -40 45 -170 76 -236 58 -167 -46 -247 -256 -137 -359 30 -28 36 -45 28 -83 -8 -47 42 -172 69 -172 17 0 60 -44 60 -61 0 -7 -20 -24 -44 -36 -97 -50 -7 -308 100 -290 17 3 30 -10 39 -40 25 -80 43 -110 75 -124 40 -18 52 -115 31 -256 -11 -73 14 -146 56 -169 17 -9 28 -31 28 -56 0 -82 71 -152 155 -153 70 0 160 78 160 138 0 24 13 44 39 58 52 28 81 89 81 171 0 69 16 111 64 160 35 38 33 135 -4 208 -16 32 -30 81 -30 109 0 55 -36 116 -68 116 -27 0 -27 -2 1 -55 15 -28 19 -62 13 -99 -6 -37 -3 -56 8 -56 33 0 64 -104 47 -154 -22 -61 -59 -101 -95 -101 -24 0 -27 -7 -19 -34 38 -119 19 -201 -50 -209 -34 -4 -41 -13 -48 -71 -22 -161 -186 -157 -186 4 0 52 -5 63 -30 63 -60 0 -80 144 -28 203 26 31 25 51 -2 74 -26 21 -31 83 -8 98 32 20 15 52 -29 52 -61 0 -112 65 -101 131 9 54 -10 76 -43 49 -53 -44 -146 73 -114 143 9 21 17 55 17 75 0 61 94 103 178 80 34 -9 36 29 2 47 -17 9 -68 19 -114 21 -122 6 -198 111 -120 167 37 27 29 46 -25 62 -102 29 -100 204 3 265 81 47 238 14 266 -58 11 -28 34 -28 93 2 87 43 244 -124 219 -234 -12 -57 14 -69 49 -21 56 77 163 -19 172 -153 4 -66 8 -73 39 -73 43 0 78 -45 78 -100 0 -28 10 -44 30 -51 102 -32 121 -338 24 -400 -11 -7 -14 -64 -11 -166 8 -247 -76 -501 -222 -676 l-61 -73 31 -40 c152 -198 162 -343 29 -434 -78 -53 -318 -8 -337 63 -3 9 -12 45 -22 80 -28 104 -60 84 -58 -37 5 -257 -227 -416 -432 -297 -114 67 -138 197 -65 347 17 36 29 74 25 85 -11 30 -114 -89 -124 -144 -15 -78 -224 -210 -363 -228 -272 -36 -345 223 -119 421 50 44 71 72 62 81 -26 26 -164 -65 -212 -139 -56 -88 -138 -109 -240 -60 -190 90 -63 354 224 462 72 27 87 44 52 58 -30 12 47 66 139 97 97 33 110 68 27 75 -53 5 -56 7 -66 73 -46 307 201 752 517 929 79 45 108 93 43 73 -57 -18 -199 -93 -245 -130 -106 -85 -97 -92 -89 68 l8 143 83 78 c200 190 271 544 172 858 l-32 102 33 45 c86 122 135 411 89 531 -24 64 -45 29 -45 -77 0 -194 -74 -381 -213 -537 -91 -101 -83 -147 14 -78 l56 40 20 -56 c56 -156 38 -445 -38 -599 -144 -295 -379 -363 -723 -210 -86 38 -159 67 -163 63 -27 -27 105 -117 270 -185 100 -41 242 -53 341 -28 l51 13 -10 -120 c-12 -162 -35 -247 -97 -360 -29 -52 -67 -143 -86 -202 -117 -369 -691 -812 -1239 -956 l-100 -26 -64 65 c-69 70 -229 161 -314 179 -29 6 -81 37 -117 70 -36 33 -103 76 -149 96 l-83 37 9 69 c34 241 -76 605 -246 818 -53 67 -54 56 3 126 25 32 66 97 90 145 49 97 47 96 101 58 238 -168 615 -238 896 -167 206 52 544 245 546 311 0 29 -14 24 -142 -57 -381 -237 -774 -259 -1173 -64 -152 74 -158 82 -132 193 12 49 22 126 22 171 0 55 12 105 37 157 41 84 63 230 47 315 -16 83 -34 65 -44 -44 -14 -156 -70 -291 -70 -171 0 136 -244 554 -324 554 -31 0 -27 -10 45 -103 280 -360 298 -871 43 -1221 -62 -85 -56 -84 -156 -17 -83 56 -202 114 -268 130 -34 9 -38 16 -33 69 11 117 -139 335 -239 350 -25 3 -37 18 -44 53 -22 108 -91 167 -212 182 -73 9 -79 13 -88 57 -45 220 -308 285 -475 118 -35 -35 -64 -77 -64 -92 -1 -43 -32 -74 -93 -94 -73 -25 -124 -66 -147 -121 -12 -29 -35 -50 -67 -61 -189 -62 -265 -430 -105 -510 51 -26 62 -126 19 -176 -56 -64 -75 -167 -42 -228 10 -19 7 -49 -9 -97 -45 -132 18 -292 127 -319 54 -14 76 -47 77 -115 1 -127 86 -219 203 -220 75 -1 142 -55 142 -116 2 -175 182 -284 318 -192 62 43 83 95 90 225 4 81 9 93 50 121 24 16 51 52 59 79 10 34 23 48 45 48 89 0 180 116 170 214 -4 40 1 48 38 58 124 33 185 195 116 308 -21 34 -26 63 -21 106 10 74 -25 134 -96 164 -27 11 -49 29 -49 40 0 11 -18 28 -40 38 -30 14 -35 23 -22 36 53 53 -38 153 -127 141 -56 -8 -66 -5 -74 21 -37 117 -322 96 -322 -23 0 -33 28 -28 60 11 60 73 217 31 228 -62 5 -43 57 -67 57 -26 0 32 72 32 108 -1 31 -28 35 -66 10 -91 -14 -14 -8 -22 22 -33 34 -13 39 -22 31 -53 -9 -36 3 -46 43 -40 69 12 133 -93 94 -153 -21 -32 -20 -37 14 -69 101 -96 37 -256 -104 -256 -59 0 -63 -11 -36 -90 31 -87 -85 -223 -141 -167 -35 35 -56 18 -56 -43 0 -77 -40 -120 -112 -120 -62 0 -70 -29 -19 -65 31 -22 31 -26 8 -40 -21 -13 -23 -23 -11 -56 47 -122 -89 -233 -194 -160 -44 31 -82 118 -69 158 17 52 -5 103 -43 103 -23 0 -41 13 -52 36 -15 34 -20 36 -62 20 -62 -23 -119 -1 -163 64 -33 50 -35 67 -11 144 8 25 3 34 -22 40 -20 6 -30 18 -27 36 3 17 -6 28 -25 31 -83 14 -101 23 -128 68 -38 62 -38 154 0 225 36 67 38 86 8 86 -12 0 -27 17 -32 38 -13 52 34 157 70 157 41 0 50 28 21 60 -29 33 -21 95 19 139 36 40 4 66 -44 35 -77 -50 -169 184 -95 245 11 10 25 36 30 58 17 74 84 123 168 123 33 0 37 5 31 38 -13 72 111 160 175 124 37 -21 54 -1 54 60 0 219 331 300 413 102 10 -26 16 -67 12 -91 -9 -62 36 -91 106 -68 100 33 209 -60 201 -171 -4 -61 -4 -61 45 -57 83 8 228 -155 228 -256 0 -58 -11 -69 -42 -38 -13 13 -22 14 -35 1 -28 -28 44 -107 114 -126 323 -86 606 -392 675 -730 28 -134 31 -409 5 -435 -24 -24 -6 -37 95 -68 116 -35 192 -90 217 -156 1 -3 40 -14 86 -27 236 -61 400 -210 400 -362 0 -135 -191 -234 -246 -128 -47 91 -219 213 -301 213 -56 0 -47 -22 26 -65 385 -225 297 -632 -110 -511 -134 40 -219 90 -236 138 -30 88 -174 215 -214 190 -9 -6 11 -39 46 -77 146 -158 142 -341 -10 -404 -166 -70 -451 22 -706 227 -56 45 -107 82 -113 82 -20 0 -11 -50 14 -78 66 -73 -300 -21 -464 66 -134 72 -281 265 -281 371 0 21 -14 37 -40 47 -447 170 -775 947 -619 1467 16 54 15 69 -16 139 -69 163 -22 388 111 524 41 43 47 58 49 143 10 409 429 862 860 928 141 21 169 53 47 53 -457 0 -991 -506 -992 -940 0 -97 -16 -108 -88 -60 -321 212 -489 663 -378 1010 37 114 96 203 127 191 24 -9 43 65 20 79 -7 5 -50 -30 -94 -77 -314 -337 -142 -1038 318 -1296 16 -8 8 -35 -34 -118 l-55 -106 -84 57 c-47 32 -100 78 -119 104 -38 51 -63 59 -63 21 0 -14 57 -81 127 -150 126 -122 128 -125 128 -197 0 -40 14 -113 30 -161 44 -127 26 -151 -40 -53 -69 103 -187 217 -282 272 -136 79 -157 49 -28 -40 193 -132 342 -371 331 -529 -36 -506 205 -1029 581 -1261 72 -45 60 -53 -47 -31 -221 45 -314 88 -362 165 -52 84 -148 158 -291 227 l-100 48 46 53 c101 115 157 309 141 484 -17 186 -52 206 -52 30 0 -419 -378 -752 -853 -752 -85 0 -21 -38 72 -42 130 -6 291 32 435 104 135 68 131 68 303 -21 237 -122 336 -311 239 -458 -95 -145 -568 -66 -662 112 -40 74 -99 123 -122 100 -8 -8 0 -34 23 -68 81 -119 81 -259 0 -355 -142 -169 -523 -29 -662 243 -48 93 -67 92 -186 -15 -386 -344 -713 -28 -349 336 31 31 49 61 43 74 -18 48 -26 141 -17 192 10 52 12 54 62 44 80 -15 66 23 -38 104 -141 109 -250 269 -315 460 -37 108 -58 415 -34 478 l14 36 33 -53 c18 -29 43 -57 55 -62 12 -4 22 -24 22 -44 0 -20 10 -45 22 -55 13 -10 23 -34 23 -53 0 -44 69 -127 106 -127 16 0 38 -19 52 -46 23 -44 88 -88 106 -70 5 5 -13 40 -39 77 -43 59 -48 75 -39 128 5 34 4 61 -3 61 -21 0 -48 -35 -48 -63 0 -15 -6 -27 -14 -27 -24 0 -76 78 -76 114 0 19 -7 39 -16 44 -9 6 -14 35 -11 65 3 40 -2 55 -18 57 -12 1 -30 2 -40 3 -97 10 -75 295 26 330 40 14 46 22 37 51 -24 78 -24 98 2 158 15 35 39 67 54 72 25 8 38 51 14 51 -56 0 -138 -132 -138 -223 0 -77 -52 -136 -88 -100 -42 41 -33 186 15 249 34 45 38 63 32 128 -8 79 15 146 63 185 12 11 23 38 23 61 0 81 131 219 227 238 43 9 51 18 59 64 23 140 202 292 228 193 12 -46 38 -36 64 26 63 151 243 231 343 152 23 -18 37 -41 32 -52 -4 -12 -12 -31 -17 -43 -13 -34 15 -28 78 15 121 81 265 29 286 -104 10 -58 -16 -129 -47 -129 -37 0 -77 -43 -54 -58 11 -8 30 -11 41 -6 52 19 157 -62 131 -103 -5 -9 15 -36 44 -60 85 -70 86 -223 2 -223 -18 0 -20 -13 -13 -58 14 -91 -86 -169 -126 -97 -20 35 -48 11 -48 -41 0 -82 -109 -147 -163 -98 -39 35 -57 30 -67 -20 -11 -57 -65 -106 -116 -106 -21 0 -52 -13 -66 -30 -15 -16 -36 -30 -46 -30 -10 0 -27 -10 -37 -22 -32 -39 23 -45 83 -10 30 18 74 32 99 32 33 0 58 14 92 53 37 41 58 52 100 52 66 0 147 48 166 98 11 28 25 37 61 37 56 0 128 66 142 129 5 24 22 68 38 98 46 87 39 181 -20 247 -27 31 -55 77 -63 102 -9 27 -33 55 -58 67 -36 17 -41 26 -33 60 60 227 -87 392 -282 318 -28 -11 -42 -9 -56 8 -90 108 -286 90 -415 -39 -32 -32 -79 -61 -109 -67 -115 -25 -191 -92 -237 -209 -37 -95 -93 -125 -93 -49 0 159 99 385 168 385 85 0 177 97 177 186 0 51 -27 50 -46 -2 -21 -55 -88 -124 -120 -124 -70 0 -86 138 -30 264 68 153 286 296 261 171 -7 -35 -3 -45 16 -45 27 0 54 56 54 115 0 155 256 501 491 663 53 37 63 62 25 62 -51 0 11 104 83 140 22 11 36 29 32 41 -17 62 -5 134 33 192 47 71 49 77 19 77 -17 0 -23 17 -23 64 0 104 64 178 185 213 46 14 64 28 72 58 43 162 284 252 390 145 38 -38 44 -53 35 -92 -9 -42 -7 -45 21 -36 25 8 32 4 32 -20 0 -23 -15 -35 -58 -47 -102 -27 -184 -140 -188 -257 -1 -33 -10 -44 -42 -51 -23 -5 -59 -30 -81 -56 -22 -26 -64 -59 -95 -72 -31 -14 -75 -48 -100 -77 -24 -28 -69 -71 -100 -94 -58 -43 -59 -87 -1 -56 59 32 37 -102 -28 -174 -31 -34 -60 -81 -65 -104 -5 -23 -15 -57 -23 -76 -37 -91 -12 -210 58 -268 34 -30 37 -37 21 -72 -66 -146 84 -358 185 -262 l35 33 41 -32 c42 -34 147 -44 164 -17 5 8 19 15 31 15 37 0 126 79 157 139 34 64 34 64 65 33 21 -21 29 -19 83 21 l61 43 59 -29 c139 -69 302 37 364 235 41 130 108 203 187 203 68 0 130 33 152 81 14 33 27 39 79 39 142 0 249 128 211 252 -15 50 -13 58 21 93 25 27 37 56 37 92 0 37 11 63 37 88 74 69 67 172 -17 249 -63 57 -51 101 41 158 74 45 79 63 51 164 -69 254 -69 251 -52 313 29 108 118 134 257 74 61 -26 81 -29 112 -15 138 63 293 -87 316 -306 8 -73 7 -77 -67 -157 -111 -120 -142 -151 -149 -144 -24 24 -94 -28 -103 -78 -6 -32 -30 -73 -58 -100 -27 -25 -51 -52 -54 -60 -4 -9 -32 -27 -63 -42 -54 -25 -85 -62 -66 -81 4 -4 23 3 42 16 46 32 90 32 78 -1 -7 -16 -3 -22 10 -17 25 8 40 36 52 91 7 33 25 49 78 72 53 23 66 34 52 48 -41 41 26 168 73 139 17 -11 134 101 196 188 41 59 34 211 -16 291 -57 93 -25 188 36 106 17 -23 56 -66 86 -96 29 -30 58 -72 63 -93 5 -21 26 -47 47 -56 50 -23 49 -32 -22 -118 -67 -80 -132 -254 -106 -280 18 -18 14 -24 65 84 23 48 67 115 99 150 38 42 64 89 76 139 100 411 471 549 739 274 73 -75 134 -120 220 -163 94 -47 143 -85 232 -179 62 -66 117 -114 122 -105 14 22 -65 148 -137 221 l-64 64 38 9 c21 6 107 6 191 2 193 -9 279 -41 455 -169 56 -41 52 2 -7 62 -30 31 -63 71 -71 88 -9 17 -28 30 -42 28 -39 -3 -30 20 28 72 28 26 52 54 52 61 0 155 205 261 298 154z m-609 -173 c83 -38 47 -52 -115 -46 -85 3 -190 -2 -233 -11 -67 -15 -85 -13 -132 11 l-55 28 89 19 c49 10 96 21 105 24 32 13 302 -7 341 -25z m-3333 -305 c30 -10 67 -14 83 -7 90 35 203 -3 229 -78 17 -48 27 -48 85 1 49 42 162 66 218 47 27 -9 64 -17 82 -17 19 0 50 -13 69 -29 l36 -29 -43 -41 c-24 -22 -49 -59 -57 -81 -8 -23 -28 -45 -44 -50 -47 -12 -36 -55 15 -55 62 0 136 -66 136 -121 0 -47 -45 -104 -82 -104 -26 0 -31 -38 -8 -52 51 -32 -15 -128 -97 -141 -60 -10 -74 -30 -33 -50 14 -7 37 -18 51 -25 110 -53 -30 -240 -149 -198 -65 23 -72 21 -72 -21 0 -70 -102 -132 -163 -99 -43 23 -57 20 -66 -14 -5 -16 -21 -34 -36 -40 -54 -20 -95 -79 -95 -137 0 -191 -206 -338 -329 -234 l-47 39 -36 -39 c-60 -64 -188 -44 -188 30 0 12 -14 41 -31 64 -29 39 -29 45 -8 107 26 77 21 90 -21 53 -42 -38 -54 -122 -27 -179 66 -135 72 -184 27 -223 -16 -14 -30 -35 -30 -46 0 -22 -93 -55 -155 -55 -54 0 -100 49 -100 106 0 66 -36 48 -42 -21 -6 -72 -49 -98 -102 -63 -74 49 -77 176 -6 240 46 42 38 68 -22 68 -88 0 -136 124 -88 227 8 20 27 61 40 92 15 34 47 70 77 88 57 34 62 44 37 91 -43 79 56 237 166 267 40 11 59 26 66 50 9 38 65 70 123 70 36 0 37 3 28 71 -15 112 80 229 189 234 49 2 52 5 53 60 3 105 113 221 236 251 66 15 71 15 131 -7z m4832 -80 c142 -152 126 -543 -17 -428 -31 25 -32 29 -9 82 41 98 21 210 -49 272 -26 23 -28 34 -15 71 19 55 41 55 90 3z m-168 -229 c-9 -18 -31 -30 -53 -30 -47 0 -47 11 4 63 45 48 80 25 49 -33z m-517 -4565 c-92 -93 -135 -111 -178 -78 -27 20 -22 27 76 124 57 57 117 123 133 147 l29 44 12 -76 13 -76 -85 -85z m-242 -138 c28 -21 27 -24 -26 -75 -60 -59 -100 -126 -114 -193 -14 -66 -95 -86 -391 -95 -267 -8 -281 -1 -120 56 143 50 371 171 481 255 104 79 126 86 170 52z"
       id="path1" />
    <path
       d="M5155 8255 c-17 -17 -11 -35 12 -35 12 0 33 -20 45 -45 13 -24 38 -52 57 -61 18 -10 45 -32 59 -49 30 -38 49 -25 36 25 -5 21 -27 44 -53 55 -25 10 -49 31 -54 47 -18 55 -75 90 -102 63z"
       id="path2" />
    <path
       d="M5671 7644 c-107 -130 33 -395 149 -279 61 61 57 176 -9 255 -42 49 -109 61 -140 24z"
       id="path3" />
    <path
       d="M4834 6934 c-38 -7 -46 -45 -13 -58 17 -6 11 -25 -26 -85 -69 -110 -70 -307 -3 -428 211 -381 841 -355 977 40 l18 54 103 -5 c128 -6 185 28 185 111 0 57 -25 83 -40 42 -47 -131 -219 -107 -508 72 -363 225 -532 288 -693 257z m255 -104 c74 -23 97 -42 71 -57 -26 -17 -16 -38 18 -38 78 0 116 -98 54 -142 -59 -41 -147 -12 -147 48 0 44 -38 7 -42 -41 -32 -326 453 -407 517 -86 10 50 11 50 91 7 72 -38 76 -50 35 -128 -245 -474 -1062 -151 -843 334 66 146 84 154 246 103z"
       id="path4" />
    <path
       d="M1935 6668 c-16 -19 -13 -23 19 -23 20 0 46 10 56 23 16 18 13 22 -19 22 -20 0 -46 -10 -56 -22z"
       id="path5" />
    <path
       d="M4280 6630 c-39 -16 -80 -72 -80 -109 0 -15 -10 -43 -23 -63 -34 -51 -2 -62 45 -15 21 21 38 55 38 74 0 40 50 83 95 83 36 0 24 37 -14 41 -16 1 -43 -3 -61 -11z"
       id="path6" />
    <path
       d="M1850 6589 c-4 -15 -27 -38 -51 -52 -44 -26 -87 -94 -70 -111 6 -6 28 11 49 37 24 29 54 47 76 47 31 0 36 7 36 53 0 54 -28 72 -40 26z"
       id="path7" />
    <path
       d="M7194 6381 c-43 -42 -24 -111 30 -111 60 0 81 88 30 124 -24 16 -34 14 -60 -13z"
       id="path8" />
    <path
       d="M6710 6365 c-13 -32 11 -68 63 -93 75 -37 127 28 68 87 -38 38 -118 42 -131 6z"
       id="path9" />
    <path
       d="M3949 6170 c-83 -41 -128 -97 -146 -181 -6 -26 -40 -81 -77 -122 -36 -41 -66 -81 -66 -89 0 -8 -10 -34 -22 -58 -43 -82 -15 -224 51 -259 29 -16 30 -26 22 -140 -12 -176 50 -262 206 -287 45 -7 62 -19 73 -47 23 -61 88 -112 142 -112 61 0 92 -35 102 -118 34 -264 368 -187 361 83 -2 65 3 98 18 111 12 10 22 30 22 46 0 22 11 28 51 28 104 0 170 159 105 253 -23 32 -22 36 9 70 58 61 58 156 0 222 -29 33 -45 64 -39 78 26 69 -67 172 -156 172 -72 1 -150 71 -150 136 0 84 -67 149 -155 149 -20 0 -45 10 -56 23 -65 79 -187 97 -295 42z m226 -71 c20 -19 38 -42 42 -51 4 -13 19 -14 56 -3 97 27 177 -115 84 -150 -38 -15 -64 -53 -46 -71 5 -5 21 2 36 16 32 29 130 -8 131 -50 1 -47 20 -58 67 -41 95 36 189 -47 140 -123 -16 -24 -19 -39 -8 -42 113 -38 126 -229 16 -229 -41 0 -34 -37 17 -88 81 -81 38 -195 -66 -176 -47 9 -50 7 -70 -55 -11 -35 -31 -71 -43 -81 -19 -14 -20 -28 -6 -82 41 -152 -97 -272 -198 -171 -27 27 -37 53 -37 98 0 82 -67 156 -128 141 -50 -12 -112 42 -112 99 0 55 -25 74 -84 64 -163 -26 -267 217 -145 339 25 25 11 42 -39 49 -75 11 -130 161 -78 213 9 9 16 26 16 38 0 35 62 92 99 92 44 0 55 18 37 64 -57 152 198 311 319 200z"
       id="path10" />
    <path
       d="M4174 5459 c-12 -45 -14 -46 -37 -24 -30 30 -57 32 -57 4 0 -28 29 -49 83 -62 24 -6 52 -17 61 -24 30 -24 134 -23 134 1 0 12 -17 22 -42 23 -50 2 -89 38 -92 84 -3 53 -36 52 -50 -2z"
       id="path11" />
    <path
       d="M4170 5214 c0 -59 118 -135 165 -107 28 18 17 56 -13 46 -16 -5 -36 1 -47 14 -10 13 -28 23 -38 23 -11 0 -24 14 -29 30 -14 42 -38 38 -38 -6z"
       id="path12" />
    <path
       d="M1373 5656 c-75 -31 -149 -150 -121 -196 32 -51 150 14 203 112 35 66 -12 113 -82 84z m37 -76 c-20 -38 -90 -91 -107 -81 -18 11 9 58 56 95 45 35 73 28 51 -14z"
       id="path13" />
    <path
       d="M8109 5537 c-5 -8 1 -22 14 -32 12 -10 22 -38 22 -62 0 -51 37 -59 50 -11 16 63 -57 152 -86 105z"
       id="path14" />
    <path
       d="M3083 5390 c-201 -106 -207 -320 -10 -320 67 0 167 43 167 72 0 27 -19 30 -68 9 -127 -53 -216 -4 -170 93 74 153 325 150 261 -3 -29 -68 -29 -66 5 -66 33 0 70 76 65 134 -7 92 -145 137 -250 81z"
       id="path15" />
    <path
       d="M1223 5195 c-199 -105 -254 -347 -89 -393 81 -23 253 56 212 97 -6 6 -37 -1 -70 -16 -153 -69 -228 6 -147 149 107 188 355 150 257 -39 -23 -46 -13 -81 18 -61 9 6 28 32 41 59 80 154 -65 287 -222 204z"
       id="path16" />
    <path
       d="M2564 4909 c-76 -71 -94 -149 -46 -197 84 -84 275 5 297 137 20 125 -141 163 -251 60z m172 2 c39 -15 28 -79 -21 -128 -60 -60 -155 -58 -162 4 -8 71 111 152 183 124z"
       id="path17" />
    <path
       d="M7230 4799 c-344 -261 -813 -371 -1190 -279 -123 30 -130 30 -130 5 0 -25 47 -47 161 -76 416 -108 953 36 1224 328 109 117 76 129 -65 22z"
       id="path18" />
    <path
       d="M5070 4824 c0 -71 238 -230 417 -279 236 -65 287 -31 64 42 -175 58 -296 119 -393 200 -76 63 -88 68 -88 37z"
       id="path19" />
    <path
       d="M6975 4384 c-153 -81 -181 -107 -105 -97 85 11 285 130 285 169 0 22 -12 17 -180 -72z"
       id="path20" />
    <path
       d="M765 4016 c-17 -27 -30 -54 -30 -61 0 -7 -17 -33 -38 -58 -29 -35 -37 -60 -35 -107 2 -35 -2 -79 -7 -100 -12 -43 8 -84 33 -69 9 6 17 30 17 54 0 24 7 47 15 53 8 5 11 25 6 46 -19 74 73 183 126 150 8 -4 30 6 50 23 35 30 76 32 161 5 29 -9 34 -7 30 17 -13 63 -149 81 -209 27 -31 -27 -89 -27 -89 1 0 12 7 25 15 31 20 12 19 37 0 37 -9 0 -29 -22 -45 -49z"
       id="path21" />
    <path
       d="M3025 3056 c-13 -10 -34 -44 -47 -75 -13 -31 -30 -56 -38 -56 -13 0 -60 -76 -60 -97 0 -4 10 -8 23 -8 12 0 22 10 22 21 0 22 53 48 85 42 29 -6 38 23 17 56 -15 24 -14 34 5 56 51 59 46 100 -7 61z"
       id="path22" />
    <path
       d="M3285 2392 c0 -36 36 -66 56 -46 12 12 -22 84 -41 84 -8 0 -15 -17 -15 -38z"
       id="path23" />
    <path
       d="M3068 6646 c-4 -7 -4 -23 0 -35 12 -31 -82 -123 -103 -102 -9 9 -34 16 -57 16 -22 0 -44 8 -48 19 -8 20 -99 -73 -100 -102 0 -9 -20 -31 -45 -50 -25 -18 -45 -46 -45 -62 0 -38 18 -38 41 -1 10 16 33 31 52 34 21 3 36 18 42 42 10 43 74 84 111 70 18 -7 22 -20 15 -47 -7 -28 -3 -38 13 -38 12 0 26 14 31 31 4 17 28 39 54 48 25 10 46 25 46 34 0 39 75 86 150 94 41 4 75 13 75 20 0 19 -71 33 -128 23 -28 -4 -55 -2 -60 6 -11 18 -33 18 -44 0z"
       id="path24" />
    <path
       d="M2390 6286 c-26 -16 -52 -43 -57 -60 -6 -17 -16 -31 -24 -31 -61 0 -118 -103 -112 -204 7 -135 5 -129 25 -123 18 6 31 78 29 161 -2 57 47 121 92 121 19 0 27 11 27 38 0 27 13 46 45 64 25 14 45 34 45 44 0 26 -14 24 -70 -10z"
       id="path25" />
    <path
       d="M2894 5967 c-22 -27 -55 -47 -81 -50 -24 -3 -49 -16 -57 -29 -10 -18 -26 -22 -65 -14 -50 9 -51 8 -51 -43 0 -57 -21 -82 -85 -99 -30 -8 -44 -25 -54 -61 -16 -64 -1 -78 36 -33 16 20 50 47 77 60 28 14 51 40 56 62 9 37 89 86 187 115 40 12 113 94 113 127 0 27 -39 9 -76 -35z"
       id="path26" />
    <path
       d="M1973 5622 c-34 -50 0 -76 38 -29 28 34 27 62 -1 62 -7 0 -24 -15 -37 -33z"
       id="path27" />
    <path
       d="M8760 7230 c0 -11 5 -15 10 -10 6 6 6 15 0 20 -5 6 -10 1 -10 -10z"
       id="path28" />
    <path
       d="M711 7198 c-7 -11 -4 -14 7 -7 9 6 17 14 17 17 0 13 -13 7 -24 -10z"
       id="path29" />
  </g>
  <path
     style="fill:#ffffff;stroke-width:1.09515"
     d="m 396.91175,733.62182 c -12.79305,-1.76055 -27.67244,-9.02535 -44.48423,-21.71926 -4.82694,-3.64463 -9.34154,-6.6266 -10.03244,-6.6266 -1.68173,0 -1.6058,4.68805 0.10361,6.39746 5.78008,5.78008 -21.89275,2.28054 -37.13059,-4.69558 -11.15968,-5.10907 -23.62342,-19.35885 -26.94419,-30.80525 -1.47926,-5.0989 -2.01983,-5.64978 -9.88638,-10.07491 -22.13847,-12.45344 -39.33037,-37.40904 -48.45485,-70.33662 -4.14549,-14.95983 -4.99248,-39.24323 -1.8307,-52.48651 l 2.20318,-9.22813 -2.62919,-8.05431 c -5.02898,-15.40585 -2.53571,-29.64104 7.48045,-42.70914 5.54263,-7.23149 5.67485,-7.5806 6.99851,-18.47895 2.49555,-20.54697 12.20652,-38.75244 29.231,-54.80026 14.56622,-13.73062 28.96769,-21.09457 50.50244,-25.82358 3.5705,-0.78409 6.7116,-2.1014 6.98022,-2.92736 0.87841,-2.70089 -19.59794,-1.07355 -29.1395,2.31584 -27.21914,9.6689 -53.14523,34.50742 -62.31624,59.70215 -1.4781,4.06065 -3.11782,11.52485 -3.64382,16.5871 -0.526,5.06225 -1.42729,9.675 -2.00284,10.25056 -1.37029,1.37028 -9.90406,-4.47779 -17.33412,-11.8788 -15.7396,-15.67804 -25.45392,-40.9407 -24.15258,-62.81012 0.89497,-15.04003 7.2428,-30.57975 13.45661,-32.94224 2.0415,-0.77617 2.69315,-1.82545 2.69315,-4.33648 0,-4.95346 -2.27399,-4.15022 -9.08856,3.21033 -15.77121,17.03478 -19.19505,41.91179 -9.61229,69.84108 5.80082,16.90668 17.81385,33.2235 31.29734,42.50994 3.31157,2.28077 6.02104,4.81646 6.02104,5.63488 0,0.81841 -1.74116,4.94549 -3.86923,9.17128 l -3.86923,7.68326 -6.32102,-4.43394 c -3.47656,-2.43868 -8.24205,-6.40126 -10.58997,-8.80574 -4.38164,-4.48721 -7.10987,-5.56667 -7.10987,-2.81311 0,2.03358 3.97676,6.92248 13.98145,17.18835 l 8.13087,8.34313 0.93628,8.0841 c 0.51496,4.44627 1.72935,10.70627 2.69865,13.91112 0.96929,3.20486 1.59253,6.33645 1.38499,6.95908 -0.20755,0.62265 -2.95958,-2.34047 -6.11563,-6.58471 -6.69633,-9.00521 -16.01349,-17.64338 -23.75448,-22.02337 -13.28,-7.51406 -14.22935,-4.25186 -1.60478,5.5144 11.68274,9.03768 20.6764,20.38917 25.27506,31.90129 1.88592,4.72113 2.37124,8.60466 2.63904,21.11711 0.18047,8.43265 0.86598,18.60848 1.52335,22.61294 2.94689,17.95149 11.27713,39.27118 20.95647,53.63419 5.75214,8.53551 19.18555,22.15224 27.32371,27.69657 l 6.02332,4.10356 -4.92817,-0.76941 c -7.52222,-1.17438 -20.74381,-4.79592 -24.53634,-6.72076 -1.86448,-0.94629 -7.82531,-6.26704 -13.2463,-11.82389 -8.38931,-8.59957 -11.42886,-10.89562 -20.42142,-15.42616 l -10.56508,-5.32277 3.75109,-4.3823 c 8.70537,-10.17027 12.98297,-24.88405 12.12276,-41.69899 -0.5985,-11.69919 -1.39461,-15.12117 -3.36603,-14.46862 -0.73191,0.24227 -1.55696,4.88864 -2.02773,11.41943 -1.34457,18.65223 -7.86257,32.60732 -20.88198,44.70846 -12.48773,11.60699 -33.01906,20.07944 -49.1776,20.29363 -3.19391,0.0423 -6.71733,0.43514 -7.82981,0.87293 -1.9214,0.75611 -1.92665,0.87564 -0.1047,2.38711 2.73468,2.26869 20.84439,1.96145 30.05369,-0.50987 3.91515,-1.05063 11.30741,-3.88172 16.42723,-6.29133 5.11982,-2.4096 10.78722,-4.43098 12.59422,-4.49196 3.71666,-0.12541 17.36865,6.39228 25.02049,11.94522 9.49602,6.89126 16.04379,19.01056 14.2695,26.41145 -2.35445,9.8208 -8.04317,13.34345 -21.60954,13.38138 -16.29609,0.0456 -32.29792,-6.30731 -38.42292,-15.25424 -4.79078,-6.99802 -7.85259,-9.91014 -10.41951,-9.91014 -3.13244,0 -2.81606,2.30226 1.31917,9.59915 3.03115,5.34868 3.55923,7.3633 3.55923,13.57843 0,6.34599 -0.43219,7.91734 -3.31336,12.04664 -4.85555,6.95898 -9.12437,8.80904 -19.1372,8.29383 -14.97825,-0.7707 -29.35402,-10.04247 -39.067959,-25.1972 -2.627563,-4.09928 -5.511555,-7.73494 -6.408871,-8.07928 -1.902465,-0.73003 -5.260911,1.31953 -13.838102,8.44499 -12.333498,10.24602 -25.775007,14.27967 -33.750899,10.12829 -12.381225,-6.44433 -11.422745,-21.12754 2.433229,-37.27524 l 5.758559,-6.711 v -11.85319 -11.85321 h 4.380596 c 4.159286,0 4.555908,-0.36954 3.997294,-3.72446 -0.09035,-0.54261 -3.403802,-3.61495 -7.363226,-6.82741 C 27.837005,601.07089 16.97481,576.64834 16.97481,547.52062 c 0,-14.4222 0.406743,-15.19094 5.017499,-9.48311 2.047639,2.53485 4.284868,5.84086 4.971619,7.34669 2.295299,5.03287 4.074947,9.27762 5.40431,12.89018 1.390091,3.77757 6.758525,9.0128 9.24213,9.0128 0.808158,0 2.461167,1.60166 3.673353,3.55924 2.565576,4.14319 8.636068,8.1204 10.123708,6.63276 0.60325,-0.60326 -0.552614,-3.5784 -2.913284,-7.49869 -3.234713,-5.37177 -3.852532,-7.35563 -3.562869,-11.44067 0.430569,-6.07218 -2.002799,-6.80783 -4.69502,-1.41938 l -1.760001,3.52264 -2.438265,-2.59542 c -2.57786,-2.744 -4.339578,-8.01826 -5.22061,-15.62954 -0.589813,-5.09542 -1.733807,-6.49536 -5.768518,-7.05911 -4.017723,-0.56138 -5.69368,-4.68542 -5.140372,-12.64893 0.544388,-7.83514 3.287251,-13.34244 7.709123,-15.47889 2.968645,-1.4343 3.017607,-1.61139 2.299522,-8.31677 -0.608964,-5.68643 -0.357856,-7.57849 1.476965,-11.12869 1.215869,-2.3526 3.269527,-5.16348 4.563682,-6.24641 4.510929,-3.77468 0.991534,-6.54662 -3.663198,-2.88521 -3.902537,3.06974 -7.097768,9.52657 -8.519072,17.21511 -1.505989,8.14665 -2.728302,10.30399 -5.599119,9.88229 -4.753539,-0.69827 -5.066181,-13.09759 -0.519431,-20.6005 1.637593,-2.70232 2.520224,-6.50024 2.992042,-12.87463 0.519346,-7.01652 1.21007,-9.71466 3.083948,-12.04664 2.88475,-3.58998 3.948192,-5.87242 5.590971,-11.99976 1.737296,-6.47989 10.105101,-14.8389 17.473523,-17.45517 5.42003,-1.92446 5.779912,-2.29773 7.319037,-7.59147 1.992835,-6.85426 6.957226,-13.78311 12.19439,-17.01986 l 3.947831,-2.43989 2.337151,2.93107 c 1.285433,1.61209 2.926357,2.93107 3.6465,2.93107 0.720141,0 2.505688,-2.34088 3.967881,-5.20196 6.786727,-13.27961 20.981384,-19.56302 28.983374,-12.82979 2.99292,2.51837 3.19229,3.08271 2.1477,6.07921 -0.63332,1.81674 -0.82769,3.62694 -0.43195,4.02268 0.39575,0.39575 3.59535,-0.86145 7.11024,-2.79377 10.85818,-5.96931 20.4943,-3.72102 24.04584,5.61035 2.43601,6.40037 0.72542,11.68759 -4.58954,14.18573 -5.94387,2.79375 -5.13389,5.51965 1.88002,6.32692 5.72733,0.65919 10.51251,4.60887 10.51251,8.677 0,1.12819 1.71314,3.86769 3.80695,6.08779 6.04128,6.40562 6.73427,15.24704 1.39501,17.79811 -2.59712,1.24089 -3.01166,2.08873 -3.01166,6.15967 0,7.81125 -6.14154,13.32518 -9.85634,8.84912 -2.67529,-3.22352 -5.47574,-1.29293 -5.47574,3.77491 0,2.70396 -4.11493,7.67736 -7.37892,8.91833 -2.0984,0.79781 -3.54563,0.51458 -6.4071,-1.25391 -4.26174,-2.6339 -5.48982,-2.23198 -6.44319,2.10869 -0.90925,4.13978 -5.55251,8.23747 -11.12641,9.81908 -2.48846,0.70611 -5.13609,2.02079 -5.88363,2.92152 -0.74754,0.90073 -1.96166,1.63768 -2.69805,1.63768 -0.73639,0 -2.241421,0.99728 -3.344507,2.21618 -1.521905,1.68169 -1.699119,2.52267 -0.73479,3.487 0.964328,0.96432 2.997075,0.5619 8.428457,-1.6686 3.9367,-1.61668 8.18109,-2.93943 9.43198,-2.93943 1.25089,0 4.43649,-1.90319 7.07911,-4.22931 3.54493,-3.12039 6.13884,-4.41218 9.89275,-4.9267 6.21465,-0.85182 11.99131,-4.2645 14.09077,-8.32442 1.16125,-2.24562 2.65453,-3.20578 5.75738,-3.70195 5.81822,-0.93037 10.27342,-6.00443 14.57563,-16.60026 5.01198,-12.34389 4.95558,-18.26145 -0.24719,-25.93336 -2.173,-3.20427 -4.73526,-7.38876 -5.69388,-9.29885 -0.95864,-1.91009 -3.17464,-4.49234 -4.92446,-5.73831 -3.15734,-2.24823 -3.1776,-2.33406 -2.66926,-11.31162 0.44901,-7.92992 0.19765,-9.65324 -2.037,-13.96553 -1.40208,-2.70564 -4.27408,-6.08266 -6.38225,-7.5045 -3.4593,-2.33312 -4.67921,-2.52965 -12.51204,-2.01578 -8.13456,0.53368 -8.91707,0.38784 -12.47336,-2.32468 -3.03616,-2.31579 -5.27877,-2.97795 -11.22325,-3.31385 -8.824548,-0.49863 -15.748501,2.18313 -24.544659,9.50654 -3.214712,2.67647 -7.835181,5.22997 -11.270554,6.22865 -7.684616,2.23399 -13.761315,7.87305 -18.391143,17.06666 -4.036242,8.01492 -5.693153,9.73264 -7.140975,7.40307 -2.099785,-3.37859 2.71092,-21.855 7.765673,-29.82552 2.455831,-3.87245 3.929016,-4.9908 7.887145,-5.98748 8.429256,-2.1225 14.003929,-8.67002 14.003929,-16.44776 0,-4.73457 -1.888792,-5.28555 -4.117027,-1.201 -2.671168,4.8965 -6.664318,9.62115 -9.343294,11.05489 -1.889343,1.01116 -2.608149,0.80185 -4.262471,-1.24115 -4.315128,-5.32896 -1.464282,-19.48281 5.761895,-28.60659 7.255615,-9.16097 17.871367,-14.27491 17.393794,-8.37915 -0.33933,4.18911 -0.01606,5.20195 1.660325,5.20195 2.445344,0 4.620638,-4.27217 5.40441,-10.61402 0.817392,-6.61386 2.631278,-11.30242 7.448115,-19.25195 8.314317,-13.72164 21.684467,-28.63963 33.990337,-37.92536 6.11528,-4.61445 8.00692,-7.77395 4.65439,-7.77395 -3.2549,0 -1.53315,-3.82432 4.10681,-9.12201 5.51456,-5.17991 5.73542,-5.60737 5.40427,-10.45972 -0.26811,-3.92871 0.40172,-6.52733 2.99779,-11.63001 3.75543,-7.38145 4.11321,-9.30877 1.72806,-9.30877 -2.53758,0 -2.12129,-8.51034 0.63767,-13.03588 3.06924,-5.0345 6.07195,-7.37255 12.10153,-9.42282 5.61649,-1.90979 7.56986,-3.73503 9.66594,-9.03187 1.64773,-4.16384 7.66298,-9.75902 12.79859,-11.90481 7.1714,-2.99641 17.20733,-1.38415 21.17991,3.40251 0.80666,0.97197 1.39034,3.71496 1.29705,6.09553 -0.15338,3.91462 0.0881,4.32832 2.52602,4.32832 4.10835,0 2.32718,2.7366 -3.14021,4.82461 -8.61531,3.29021 -15.91949,13.00031 -15.97436,21.23611 -0.0195,2.92355 -0.68631,3.96498 -3.50612,5.47575 -1.91514,1.02606 -5.48806,3.62532 -7.93983,5.77613 -2.45176,2.15081 -6.42903,5.07946 -8.83835,6.50811 -5.55398,3.29333 -21.35541,18.47843 -21.35541,20.52243 0,1.15713 0.85647,1.35171 3.44605,0.78295 l 3.44604,-0.75688 -0.60151,4.48465 c -0.37096,2.76572 -2.17966,6.63452 -4.71884,10.09357 -5.04937,6.87863 -9.23778,18.04547 -9.23778,24.62914 0,5.87797 2.36977,11.97949 6.2098,15.9886 2.68254,2.80065 2.74995,3.17445 1.50698,8.35578 -2.18321,9.10061 2.27091,19.90872 9.39977,22.80898 2.97989,1.21232 3.97303,1.11602 7.60933,-0.73787 4.15208,-2.11685 4.21454,-2.11648 8.69142,0.0507 5.90827,2.86014 9.88924,2.7544 16.50773,-0.43846 5.00554,-2.41476 12.37307,-9.31844 15.39453,-14.42534 1.09283,-1.84711 1.55925,-1.93528 3.64207,-0.68845 2.11486,1.26601 3.01246,1.02969 7.82937,-2.06131 l 5.44065,-3.49126 4.57199,2.06131 c 6.27194,2.82774 12.6472,2.48538 18.5918,-0.99837 6.31877,-3.70305 10.1333,-8.82392 14.62313,-19.631 5.98022,-14.39447 8.27118,-16.74664 17.77396,-18.24883 6.37709,-1.00808 10.75232,-3.53828 12.41014,-7.17679 0.95483,-2.09562 2.29882,-2.68032 7.51852,-3.27086 7.26472,-0.82191 12.37001,-3.78701 16.21877,-9.41967 2.29684,-3.36142 2.53223,-4.66504 2.01134,-11.13895 -0.50808,-6.31489 -0.27334,-7.73448 1.69228,-10.23335 1.2552,-1.59573 2.70546,-5.16693 3.22277,-7.93599 0.51732,-2.76906 1.96548,-6.12561 3.21813,-7.459 3.34955,-3.56543 5.23263,-9.91232 4.24291,-14.30061 -0.46137,-2.04565 -2.61278,-5.88421 -4.7809,-8.53012 -2.16813,-2.64592 -3.94206,-5.49804 -3.94206,-6.33806 0,-1.69714 4.40578,-6.10307 9.04785,-9.04818 1.66348,-1.05538 3.30345,-3.03023 3.64437,-4.38856 0.34092,-1.35832 -0.89691,-8.11491 -2.75074,-15.01463 -3.74711,-13.94633 -4.17817,-20.21935 -1.71652,-24.97965 3.15066,-6.09272 9.59346,-7.0608 20.50737,-3.08138 5.8338,2.12711 7.05549,2.23179 11.81379,1.01227 4.71749,-1.20905 5.84538,-1.12208 10.1518,0.78286 8.0762,3.57248 14.74794,14.73376 15.81026,26.44928 l 0.56441,6.22442 -8.52584,9.50566 c -5.61507,6.26036 -9.31662,9.50566 -10.84207,9.50566 -3.76041,0 -7.132,3.11757 -9.88363,9.13896 -2.96863,6.49627 -9.66996,13.76457 -15.93983,17.28844 -7.06272,3.96947 -7.4888,9.42047 -0.47491,6.07578 4.79173,-2.28502 5.97242,-2.30794 5.97242,-0.11598 0,2.12069 3.23419,1.67047 4.51045,-0.62788 0.50171,-0.90349 1.63517,-3.48349 2.51882,-5.73332 1.20942,-3.07932 2.83541,-4.6876 6.57707,-6.50544 4.85399,-2.35825 4.95488,-2.51219 4.30602,-6.5699 -0.84321,-5.27313 1.73739,-9.66521 5.67887,-9.66521 3.138,0 15.48475,-11.65617 18.74434,-17.69593 3.03517,-5.62396 2.50565,-17.3382 -1.13074,-25.01488 -3.05184,-6.44263 -3.7539,-12.05421 -1.50568,-12.03485 1.88784,0.0162 13.5397,13.48236 16.23161,18.75894 1.21074,2.37325 3.41331,4.86721 4.89461,5.54214 1.4813,0.67492 2.69327,1.56998 2.69327,1.98901 0,0.41903 -1.75601,3.06165 -3.90223,5.87247 -5.23219,6.85239 -10.29344,17.91307 -10.61805,23.20431 -0.40649,6.62591 2.36562,5.44897 6.62209,-2.81151 2.01742,-3.91516 5.8734,-9.93797 8.56886,-13.38404 3.30275,-4.22244 5.91111,-9.29164 7.99898,-15.54552 1.70397,-5.10398 4.44184,-11.57281 6.08413,-14.37518 10.06471,-17.17412 29.02873,-24.20952 44.65256,-16.56549 3.37721,1.65231 10.13404,6.61447 15.0152,11.02701 5.05154,4.56657 12.73783,10.09253 17.84184,12.82714 6.31909,3.38564 12.08923,7.79571 19.54025,14.93446 10.2487,9.81918 13.04336,11.68362 13.04336,8.70182 0,-2.05366 -6.02186,-11.31418 -11.71269,-18.012 -6.07759,-7.15301 -5.68913,-7.373 11.54121,-6.53599 15.89211,0.77199 24.44636,3.32572 35.65893,10.64536 8.7674,5.72342 10.5088,6.39817 10.5088,4.07187 0,-2.03789 -12.09944,-16.11965 -13.85045,-16.11965 -2.68086,0 -1.55182,-2.7724 2.89896,-7.11847 2.42497,-2.36792 4.3806,-5.32828 4.3806,-6.6312 0,-3.25769 4.251,-9.25244 8.67542,-12.23406 5.63591,-3.79804 11.21665,-3.3617 16.25531,1.27096 l 4.09072,3.76111 -0.21399,10.98367 c -0.21884,11.23224 -1.36557,15.44373 -4.20513,15.44373 -3.56527,0 -1.2589,3.42294 4.14533,6.1522 3.16224,1.597 7.88837,4.37 10.5025,6.16221 6.41498,4.39801 8.34459,2.70415 4.02316,-3.53165 -1.693,-2.44301 -2.88177,-4.62874 -2.6417,-4.85718 8.81791,-8.39095 20.99032,-17.43202 26.01466,-19.32241 14.51312,-5.46052 25.40652,1.28896 26.23204,16.2532 0.48489,8.78954 -2.04942,16.56122 -8.2968,25.44286 -6.9462,9.87515 -10.62339,11.40394 -22.53916,9.37063 -4.85089,-0.82775 -5.2764,-0.72838 -4.92817,1.15098 0.46191,2.4929 11.01948,8.08027 15.26802,8.08027 2.83907,0 10.82671,5.39924 36.63143,24.76099 7.70744,5.78302 13.64127,12.74455 15.89685,18.65004 2.80716,7.3496 0.19924,23.39306 -3.8026,23.39306 -0.91333,0 -4.01858,-1.49893 -6.90057,-3.33096 -2.882,-1.83203 -8.68971,-4.41932 -12.90604,-5.74953 -6.98461,-2.20359 -9.8077,-2.41073 -31.75932,-2.33041 -21.44333,0.0785 -25.7796,0.41364 -39.42536,3.04749 -30.70774,5.92705 -64.40363,16.1295 -96.37311,29.17985 -46.35717,18.92358 -48.17086,19.53747 -53.65511,18.16102 -3.89086,-0.97654 -3.44707,-2.59717 2.31251,-8.44466 5.46066,-5.54404 5.50926,-7.53467 0.18397,-7.53467 -2.52985,0 -4.44626,1.10995 -7.55037,4.37306 -7.28697,7.6602 -7.0732,16.42938 0.49069,20.12849 3.97537,1.94415 4.56528,1.95934 11.32363,0.29155 6.957,-1.71681 10.76115,-3.17593 44.70438,-17.14676 33.5813,-13.82185 77.17841,-26.76472 107.3246,-31.8619 18.4973,-3.12757 44.65911,-3.90079 55.30502,-1.63456 9.83517,2.09365 17.01191,5.58161 20.14713,9.79168 6.4039,8.59928 -1.96509,38.94199 -16.20939,58.76901 -4.4953,6.25714 -7.58913,12.04598 -6.83889,12.79622 1.87836,1.87837 8.37115,-3.74709 17.68567,-15.32316 l 3.28544,-4.08315 5.63836,2.84207 c 7.96404,4.01436 12.45289,11.35012 13.53419,22.11784 0.60314,6.00613 1.5262,8.99659 3.78149,12.25096 1.64096,2.36792 3.45956,6.42375 4.04132,9.01297 1.17206,5.2165 3.27459,8.02978 7.71865,10.32789 6.33293,3.27489 12.71799,0.53139 16.38291,-7.03933 2.08416,-4.3053 2.23969,-5.8966 1.55204,-15.88061 -0.89388,-12.97857 -2.18141,-14.87847 -7.28326,-10.74724 l -2.51593,2.03727 2.41211,7.34779 c 2.40275,7.3193 2.40397,7.36618 0.31392,12.09107 -2.63367,5.95383 -5.84817,7.23579 -9.51229,3.79354 -1.44535,-1.35786 -2.94333,-4.15009 -3.32884,-6.20496 -0.38549,-2.05489 -1.9451,-5.21481 -3.4658,-7.02204 -2.3856,-2.83513 -2.85729,-4.71597 -3.43838,-13.71034 -0.62905,-9.73691 -0.87106,-10.56836 -3.66942,-12.60683 -2.48838,-1.81266 -2.99596,-3.00769 -2.99596,-7.0536 0,-5.2655 -2.00994,-7.22437 -4.9279,-4.80269 -2.2414,1.86021 -6.44713,0.56356 -8.08232,-2.49179 -1.17107,-2.18818 -0.79937,-4.41264 2.61266,-15.63543 2.18789,-7.19636 4.25698,-16.53402 4.59799,-20.75034 0.50456,-6.23846 1.35722,-8.87434 4.57873,-14.15453 3.68569,-6.041 3.95871,-7.09839 3.95871,-15.33208 0,-7.6542 -0.46001,-9.801 -3.4204,-15.96207 -1.88121,-3.91516 -5.94695,-10.23122 -9.03498,-14.03569 -5.90493,-7.27494 -6.65603,-8.96244 -3.98913,-8.96244 2.80099,0 8.23451,5.76619 11.86234,12.58865 3.0556,5.7463 3.96586,6.63433 7.35725,7.17755 2.12862,0.34096 4.52081,1.02201 5.31598,1.51346 2.17152,1.34206 5.54694,9.46071 5.57426,13.40729 0.0142,2.05134 1.11073,4.76667 2.67631,6.62726 1.45875,1.73362 2.814,4.83414 3.01166,6.89003 0.31229,3.24806 0.83529,3.83451 3.99018,4.47434 4.58353,0.92957 8.67811,4.66762 11.27415,10.29249 2.62032,5.67747 2.57422,7.62014 -0.27218,11.4701 l -2.34205,3.1678 3.52621,5.27527 c 2.96339,4.43324 3.44529,6.02526 3.01916,9.97408 -0.56023,5.19132 -3.28416,8.99053 -6.44596,8.99053 -3.0135,0 -3.45811,2.43153 -1.49949,8.20051 2.40506,7.08396 0.70377,10.81919 -5.14887,11.3045 -3.53446,0.29308 -4.09903,0.71162 -4.09903,3.03877 0,3.26101 4.18518,5.27927 7.93983,3.82889 5.63002,-2.17481 10.20142,-10.11039 8.99319,-15.61142 -0.97407,-4.43493 1.12731,-3.89023 4.46819,1.15818 3.22638,4.87539 8.11049,18.02376 8.14472,21.92614 0.0218,2.48249 -0.092,2.52968 -1.97965,0.82137 -1.10151,-0.99686 -2.79729,-1.81247 -3.76839,-1.81247 -3.13792,0 -3.21517,2.16062 -0.16699,4.67071 15.08987,12.42605 20.24669,19.97756 22.3049,32.66265 1.38281,8.52242 1.50094,18.51924 0.21884,18.51924 -0.51522,0 -4.1637,-2.9569 -8.10773,-6.57089 -7.0996,-6.50548 -9.57742,-7.85258 -9.56836,-5.20196 0.003,0.75292 3.74381,6.29711 8.31387,12.32043 8.64843,11.3986 14.01839,20.95811 17.53287,31.21174 3.25629,9.50032 2.76835,27.43633 -1.0639,39.10786 -1.62371,4.94519 -3.36824,9.24838 -3.87673,9.56265 -0.50849,0.31426 -1.25533,-1.49728 -1.65962,-4.02564 -0.87589,-5.47746 -7.89881,-12.92071 -13.78347,-14.60841 -2.89306,-0.82972 -4.52155,-2.4521 -7.39167,-7.36396 -5.06819,-8.67359 -10.21506,-11.9034 -20.31008,-12.74514 -5.71376,-0.47644 -8.78649,-1.33037 -11.16799,-3.10368 -4.08091,-3.03871 -14.04594,-5.22114 -19.32117,-4.23151 -5.70633,1.07052 -12.32832,6.30976 -15.03069,11.89212 -3.77906,7.80651 -2.67277,17.28581 2.52032,21.59571 1.03077,0.85545 1.73412,3.22663 1.76301,5.94354 0.0722,6.79414 2.69348,12.90904 7.02981,16.39937 3.54351,2.85219 5.15328,6.19089 2.98496,6.19089 -0.48875,0 -1.9672,1.00483 -3.28544,2.23296 -1.82779,1.70284 -2.3968,3.49105 -2.3968,7.53229 0,9.19448 4.71218,16.72003 11.62741,18.56944 2.41856,0.64683 3.56468,1.95895 4.92298,5.63604 0.97378,2.63612 3.08449,6.10693 4.69048,7.71293 4.09111,4.0911 5.09746,8.68045 4.31638,19.68438 -0.81698,11.50974 -0.22481,14.24387 4.02709,18.5935 1.90813,1.952 3.27013,4.51354 3.27013,6.15023 0,6.56833 6.48687,12.45164 13.72907,12.45164 6.85925,0 14.7448,-6.40444 14.7448,-11.97533 0,-1.20781 1.52649,-3.31963 3.39219,-4.69291 4.64825,-3.42142 6.62748,-7.69755 7.58027,-16.37725 0.63124,-5.75045 1.56127,-8.39503 4.22718,-12.0201 4.28714,-5.82959 4.44279,-10.75715 0.68002,-21.52702 -1.50583,-4.31001 -2.73787,-8.85576 -2.73787,-10.10164 0,-4.21109 -3.13154,-8.72738 -6.05144,-8.72738 -3.10094,0 -3.24145,0.57685 -1.06703,4.3806 0.86081,1.50583 1.58258,5.24879 1.60391,8.31767 0.0284,4.08411 0.60455,6.09177 2.14933,7.48979 5.45419,4.93598 2.75348,17.70921 -4.26141,20.15462 -3.77249,1.31509 -3.77737,1.3358 -2.06138,8.76986 1.66741,7.22358 -0.11436,12.04075 -4.80028,12.97792 -1.77229,0.35447 -3.40206,1.19042 -3.62172,1.85769 -0.21965,0.66728 -0.94252,3.33369 -1.60636,5.92537 -3.2197,12.56993 -13.85304,11.89958 -15.08783,-0.95115 -0.43697,-4.54773 -0.99841,-5.74607 -3.05917,-6.52957 -5.24877,-1.99558 -6.39493,-9.51189 -2.50569,-16.43188 1.28796,-2.29162 2.00786,-4.8228 1.59978,-5.62485 -0.40809,-0.80205 -1.44221,-2.68364 -2.29804,-4.1813 -1.35719,-2.37499 -1.34107,-3.05115 0.12617,-5.29043 2.27033,-3.46497 1.33704,-5.26023 -3.17459,-6.10662 -5.27244,-0.98912 -7.75653,-4.19692 -8.42957,-10.88541 -0.58465,-5.8102 -1.31967,-6.39554 -5.74757,-4.57716 -1.32119,0.54257 -2.93458,-0.2646 -5.34302,-2.67304 -3.08584,-3.08584 -3.38352,-3.93762 -2.81803,-8.06335 1.29247,-9.42961 3.19284,-13.2396 7.31988,-14.67536 2.10597,-0.73267 5.6771,-1.05896 7.93584,-0.72511 3.609,0.53342 4.10681,0.33451 4.10681,-1.64103 0,-2.94287 -2.40639,-4.12056 -10.40391,-5.09167 -3.614,-0.43884 -7.91154,-1.47944 -9.5501,-2.31243 -5.38391,-2.73705 -6.84695,-8.45428 -3.04412,-11.8958 2.87348,-2.60046 2.77427,-4.60348 -0.27378,-5.52782 -11.92896,-3.6175 -10.22348,-20.95003 2.41816,-24.57561 5.74193,-1.64675 13.51688,0.55054 17.89409,5.0571 l 3.70407,3.81353 4.5731,-1.82979 c 5.80363,-2.32215 9.58029,-0.97537 14.99109,5.34593 4.24261,4.95653 6.17069,10.441 5.26412,14.97387 -0.86069,4.30346 1.28722,5.01675 5.1979,1.72613 4.1328,-3.47752 4.41559,-3.47744 8.55094,0.002 3.19711,2.69019 4.39188,5.53278 6.38394,15.18855 0.73992,3.58652 1.45812,4.46479 4.24066,5.18582 3.40236,0.88164 5.90644,4.52135 5.90644,8.58511 0,1.15829 1.47097,3.19352 3.26883,4.52273 4.85377,3.58855 6.90341,10.05507 6.43317,20.29635 -0.32093,6.98962 -0.8961,9.26895 -3.12836,12.39724 -2.54017,3.55981 -2.78503,5.04295 -3.43514,20.80783 -0.58309,14.13944 -1.19403,18.52969 -3.65759,26.28358 -3.55866,11.20068 -8.96419,21.47862 -15.47351,29.42104 -2.64838,3.23145 -4.81523,6.36873 -4.81523,6.97174 0,0.60302 1.79606,3.54312 3.99123,6.53355 4.63703,6.3169 9.08717,16.51478 9.12456,20.90973 0.0397,4.6637 -3.83688,11.23061 -8.23376,13.94803 -3.39615,2.09893 -5.04456,2.36787 -11.80689,1.92621 -4.94177,-0.32276 -9.51258,-1.36074 -12.31202,-2.79594 -3.93347,-2.0166 -4.66471,-3.02593 -6.27441,-8.66054 -3.61246,-12.64508 -5.73472,-12.09102 -7.21259,1.88301 -0.53871,5.09381 -1.52831,10.65039 -2.1991,12.34796 -3.47328,8.78978 -13.71434,16.07862 -22.59099,16.07862 -5.54383,0 -15.42821,-4.82675 -18.472,-9.02026 -3.56703,-4.91439 -3.66574,-14.24046 -0.23996,-22.67136 2.93153,-7.21453 3.58176,-11.01919 1.88323,-11.01919 -1.79954,0 -9.02868,8.90634 -11.04252,13.60443 -2.49782,5.82717 -8.13004,10.58558 -18.45045,15.58793 -17.78,8.61807 -33.43803,4.72724 -34.94974,-8.68459 -0.76447,-6.78238 2.51813,-13.59292 10.61654,-22.02657 7.16565,-7.46227 8.00827,-9.43269 4.03377,-9.43269 -3.38912,0 -10.76645,5.37792 -18.25837,13.30998 -5.56182,5.88857 -6.42793,6.4027 -10.78598,6.4027 -9.1939,0 -16.56856,-6.09839 -16.55428,-13.68937 0.009,-4.55265 5.52666,-13.73087 11.1589,-18.56055 2.58852,-2.21967 8.77214,-5.9697 13.74137,-8.3334 9.1633,-4.35868 9.98398,-5.12103 7.83085,-7.27417 -1.36228,-1.36228 5.45246,-5.74851 12.29699,-7.91482 2.18591,-0.69185 4.81408,-2.18576 5.84039,-3.31981 1.76516,-1.95049 1.74662,-2.1258 -0.34315,-3.24422 -1.21505,-0.65027 -3.16686,-1.1823 -4.33736,-1.1823 -3.84622,0 -5.02728,-2.94426 -4.98332,-12.42277 0.0521,-11.23093 2.41789,-20.46752 8.45909,-33.02592 8.17956,-17.00359 20.79124,-31.7668 34.64835,-40.5593 14.92351,-9.46913 12.1253,-12.96438 -3.86329,-4.82564 -4.80201,2.44439 -10.45579,5.80231 -12.56395,7.46207 -7.27251,5.72562 -6.96757,6.04314 -6.27868,-6.53734 l 0.62382,-11.39239 7.20091,-7.44223 c 18.4988,-19.1187 23.99207,-48.15444 14.81906,-78.32917 l -2.10386,-6.92067 2.75359,-4.03082 c 6.77408,-9.91617 11.50464,-36.64846 8.23727,-46.54866 -2.59216,-7.85433 -5.48048,-4.24594 -5.54349,6.9255 -0.0845,14.99038 -6.23388,30.74788 -17.52259,44.90111 -9.06803,11.36906 -8.82685,14.86295 0.64291,9.3133 l 4.66409,-2.73334 1.98381,5.745 c 1.50217,4.3502 1.97074,8.93565 1.92994,18.88679 -0.0851,20.74883 -4.42003,33.57221 -15.33439,45.36101 -13.45437,14.53232 -28.07793,15.55437 -56.27543,3.93312 -13.46245,-5.54838 -13.17194,-5.47113 -13.17194,-3.50277 0,3.96383 16.86524,14.31126 29.02145,17.80569 7.01491,2.01651 19.29537,2.59369 25.97256,1.22069 l 4.06959,-0.83681 -0.62475,7.43489 c -1.10425,13.14112 -3.48287,22.15829 -8.99411,34.09589 -2.96304,6.41808 -6.53746,14.87254 -7.94315,18.7877 -6.93777,19.32311 -29.58322,43.39763 -56.5597,60.12899 -17.23524,10.68963 -37.50028,19.67206 -53.5572,23.73911 l -7.83455,1.9844 -6.48169,-6.00091 c -6.51847,-6.03496 -17.90063,-12.70118 -26.03578,-15.24848 -2.40932,-0.75441 -7.5839,-3.72067 -11.49906,-6.59169 -3.91516,-2.87102 -9.99779,-6.62573 -13.51696,-8.34381 l -6.39849,-3.12378 0.72565,-7.76108 c 1.90696,-20.39568 -7.38485,-51.39126 -20.7266,-69.1397 -2.74159,-3.64712 -4.98471,-6.86535 -4.98471,-7.15161 0,-0.28627 1.52853,-2.43631 3.39673,-4.77788 1.8682,-2.34156 5.36247,-7.83032 7.76503,-12.19722 2.40257,-4.36691 4.78811,-7.93983 5.30121,-7.93983 0.51311,0 4.08599,1.97697 7.93975,4.39327 8.7791,5.50447 21.72951,10.27562 34.32749,12.64682 14.47235,2.72398 35.29662,1.78939 46.7047,-2.09611 19.35364,-6.59169 43.50535,-21.24235 43.50535,-26.39076 0,-2.87522 -2.9636,-1.92468 -13.1553,4.21944 -20.09416,12.11384 -32.95211,16.08877 -54.19636,16.75435 -13.78017,0.43173 -16.42256,0.19952 -26.1053,-2.29418 -11.14927,-2.87138 -31.89342,-12.03977 -34.54311,-15.26718 -1.06241,-1.29406 -1.30679,-3.37987 -0.82396,-7.03279 0.37753,-2.85622 1.20589,-9.82708 1.8408,-15.49082 0.66398,-5.9231 2.24691,-12.9016 3.72619,-16.42723 4.76155,-11.34851 5.98202,-31.34933 1.99406,-32.67865 -1.45901,-0.48633 -1.88752,1.03402 -3.56189,12.63765 -0.63425,4.39534 -1.84411,9.56992 -2.6886,11.49907 l -1.53543,3.50754 -0.0894,-3.38779 c -0.19006,-7.20793 -7.21221,-23.1783 -16.17019,-36.77565 -4.63049,-7.02865 -11.3561,-14.04644 -13.46164,-14.04644 -2.78189,0 -1.84576,2.94208 3.09959,9.74132 7.93423,10.90857 11.63537,17.95311 15.59576,29.68405 3.04961,9.03319 3.57629,12.27964 3.99759,24.64085 0.7162,21.01421 -3.72834,37.85903 -13.74468,52.09236 -6.13975,8.72465 -6.07396,8.71745 -17.38307,1.89971 -5.45013,-3.28563 -12.86845,-7.08051 -16.48515,-8.43307 l -6.57582,-2.45919 -0.62668,-6.07197 c -0.34467,-3.33958 -1.98283,-8.84809 -3.64034,-12.24114 -3.43339,-7.02842 -13.44519,-17.66823 -16.62536,-17.66823 -2.7526,0 -4.04135,-1.66477 -5.75349,-7.43226 -1.76921,-5.95968 -8.14634,-11.89769 -13.82558,-12.87357 -10.20268,-1.75316 -10.57925,-1.97742 -12.54475,-7.4711 -4.04132,-11.29577 -10.25427,-16.22932 -21.32578,-16.9343 -5.92354,-0.3772 -7.91453,0.006 -13.02394,2.50565 -6.69122,3.27371 -12.24106,9.13205 -14.10013,14.88391 -1.00288,3.10285 -2.42173,4.36163 -7.95937,7.06141 -8.04964,3.92447 -9.74873,5.29513 -13.05368,10.53052 -1.51508,2.40006 -4.52439,4.96213 -7.54687,6.42529 -15.05491,7.28796 -21.05104,33.88344 -9.85545,43.71329 7.16539,6.2913 7.49677,9.27378 2.15016,19.352 -3.99584,7.53207 -4.66042,12.00897 -2.64215,17.7986 0.88245,2.5314 0.84556,4.4625 -0.14248,7.45626 -2.76544,8.37939 -0.83303,20.34143 4.19533,25.96997 1.03111,1.15418 3.91493,2.9795 6.40848,4.05626 5.49244,2.37173 6.09155,3.25904 7.0703,10.47152 1.64985,12.15778 6.3237,17.26384 17.62467,19.25446 7.71138,1.35833 12.93453,5.37548 12.93453,9.948 0,1.46229 0.5682,4.33389 1.26265,6.38136 3.23068,9.52493 10.67931,14.73099 19.81988,13.85269 10.04852,-0.96553 14.58021,-6.74794 16.16277,-20.6236 0.93108,-8.16369 1.41068,-9.46816 4.77236,-12.98046 2.0555,-2.14759 4.51339,-5.44825 5.462,-7.33481 1.26434,-2.51447 2.73169,-3.61901 5.49696,-4.13777 6.7114,-1.25907 13.79907,-11.48271 13.82136,-19.9367 0.004,-1.6546 1.49193,-3.08058 5.20807,-4.9925 9.53272,-4.90448 12.86411,-16.3489 7.97584,-27.39964 -1.22724,-2.77437 -2.11018,-7.0675 -2.0518,-9.9764 0.12312,-6.13351 -1.9208,-9.62123 -7.82117,-13.34597 -2.36819,-1.49497 -4.81929,-3.67759 -5.44687,-4.85025 -0.6276,-1.17267 -2.07782,-2.42943 -3.22271,-2.7928 -1.79947,-0.57113 -1.92119,-1.08576 -0.89794,-3.79666 0.95934,-2.54158 0.81858,-3.69321 -0.74258,-6.07586 -2.36901,-3.61555 -8.79133,-6.44229 -12.81054,-5.63845 -2.4577,0.49155 -3.48999,-0.053 -5.77178,-3.04455 -7.20538,-9.44674 -29.16986,-6.27565 -29.16986,4.21136 0,2.54552 3.08321,2.0796 6.77062,-1.02316 6.27656,-5.28137 15.73507,-2.82584 18.82077,4.8861 1.83641,4.58964 5.3057,6.05894 6.56397,2.77995 0.91583,-2.38663 5.80569,-2.01189 8.4664,0.64882 2.1558,2.1558 2.24849,3.49687 0.52827,7.64351 -0.48911,1.17898 0.16196,2.12063 2.06604,2.98818 2.08388,0.94949 2.78019,2.09547 2.78019,4.57567 0,1.81991 0.36961,3.34896 0.82136,3.39789 0.45175,0.0489 2.2355,0.191 3.96388,0.31568 3.52956,0.25463 8.35655,5.08713 8.35655,8.36609 0,1.14273 -0.54257,3.26851 -1.20572,4.72395 -1.03488,2.27131 -0.72454,3.3105 2.1903,7.33432 4.52709,6.24946 4.61293,11.72409 0.26022,16.59562 -2.46801,2.76217 -4.27546,3.64043 -8.48741,4.12409 l -5.35161,0.61452 v 8.41126 c 0,7.81268 -0.22889,8.65047 -3.21655,11.77285 -3.4902,3.64758 -5.03055,4.04317 -8.1523,2.09361 -3.37931,-2.11042 -5.25135,-0.44603 -5.89207,5.23852 -0.65175,5.78224 -3.59289,9.17125 -7.95926,9.17125 -6.19557,0 -8.11477,3.85597 -3.52748,7.08725 1.78223,1.25539 2.09063,1.96901 1.11449,2.57886 -0.88474,0.55275 -1.26195,3.21209 -1.09515,7.72076 0.24131,6.52244 0.0697,7.04285 -3.32207,10.07745 -8.76525,7.84214 -18.87403,1.12195 -18.87403,-12.54719 0,-6.07009 -1.75929,-9.44138 -4.92692,-9.44138 -0.81675,0 -2.43215,-1.2041 -3.58977,-2.67578 -1.91967,-2.44046 -2.64899,-2.61961 -8.29309,-2.03709 -6.07938,0.62745 -6.25806,0.56474 -10.15056,-3.56252 -3.90393,-4.13937 -3.95196,-4.30163 -3.26326,-11.02384 0.62957,-6.14488 0.48611,-6.89022 -1.44413,-7.50285 -1.17872,-0.37411 -2.29755,-1.74567 -2.48629,-3.04792 -0.25786,-1.77901 -1.42332,-2.59102 -4.6875,-3.26589 -10.85871,-2.24506 -14.46125,-13.84688 -8.14445,-26.22883 2.36823,-4.64211 2.14245,-7.45937 -0.59778,-7.45937 -5.11727,0 -1.1462,-14.60424 4.34587,-15.98267 2.50381,-0.62841 2.81473,-1.13911 2.19182,-3.60008 -1.96632,-7.76853 -1.87778,-9.93064 0.56875,-13.88919 2.89714,-4.68768 1.59245,-6.40969 -3.50897,-4.63132 -3.90365,1.36082 -5.92717,-0.0879 -8.73039,-6.25028 -2.83067,-6.22279 -2.55445,-8.79735 1.91415,-17.8411 4.38275,-8.87001 6.64023,-10.85982 13.6851,-12.06246 4.45811,-0.76107 4.82677,-1.08915 5.43611,-4.83794 1.14351,-7.03504 6.53541,-10.95498 14.38051,-10.45474 l 4.6284,0.29514 0.74571,-5.03445 c 0.41013,-2.76895 1.53604,-6.5628 2.50202,-8.43079 4.88901,-9.45431 18.83699,-13.36267 27.80653,-7.79166 3.41859,2.12328 6.80656,9.53861 6.80656,14.89767 0,2.44658 0.63732,4.97725 1.41628,5.62371 0.77895,0.64648 4.92428,1.07644 9.21185,0.95547 6.9557,-0.19626 8.1162,0.075 10.77151,2.51792 3.70468,3.40833 5.97909,8.60229 5.97909,13.65418 0,3.60412 0.23416,3.8682 3.42997,3.8682 8.50649,0 20.66331,13.83191 20.66331,23.51053 0,2.98745 -1.01706,3.50823 -2.99281,1.53249 -1.56116,-1.56117 -4.67324,-0.44922 -4.67324,1.66974 0,3.70298 5.65054,8.20683 14.53531,11.5856 13.06045,4.96672 22.85972,11.17863 31.90821,20.22713 9.72615,9.72615 17.4433,21.83974 21.60475,33.91292 4.69826,13.63057 6.17699,37.48318 3.02131,48.73506 -0.49744,1.77363 2.52929,3.59921 11.0666,6.67487 8.22649,2.96368 12.92617,6.01448 15.10003,9.80222 1.41991,2.47404 3.3061,3.60297 8.41463,5.03636 20.22847,5.6758 34.11819,16.81391 36.179,29.01173 1.40078,8.29114 -6.14296,17.47481 -14.35432,17.47481 -3.05709,0 -4.14543,-0.76594 -7.01521,-4.93701 -5.80653,-8.4395 -18.7101,-16.96597 -25.67553,-16.96597 -5.55832,0 -4.97653,2.42744 1.54331,6.43913 11.59981,7.13743 18.35515,15.3445 20.84188,25.32081 1.67465,6.71834 -0.29219,12.39751 -5.84185,16.86813 -3.96603,3.19489 -4.72792,3.38621 -13.14179,3.30004 -14.38074,-0.14726 -28.23001,-6.36749 -32.40707,-14.55521 -4.27608,-8.38183 -16.34324,-18.25259 -19.02973,-15.56609 -0.8504,0.85039 -0.51872,2.03728 1.17367,4.2 6.89442,8.81045 10.18408,14.46566 10.99088,18.8943 2.75197,15.10585 -8.06328,23.31811 -27.23452,20.67982 z m -99.5788,-143.4085 c 0,-3.18566 -1.97378,-6.4989 -3.87154,-6.4989 -1.97526,0 -2.19122,5.54581 -0.29002,7.44701 2.03736,2.03736 4.16156,1.55342 4.16156,-0.94811 z m -35.6919,-43.18639 c 1.50583,-1.50583 3.96324,-2.73788 5.4609,-2.73788 3.55961,0 4.17807,-1.20182 2.74052,-5.32559 -1.00369,-2.8792 -0.83757,-3.82308 1.10827,-6.29681 2.90074,-3.68769 2.91862,-5.89998 0.0477,-5.89998 -1.37796,0 -2.95981,1.31202 -4.10681,3.40625 -1.02606,1.87345 -2.96648,4.95356 -4.31204,6.84468 -5.18136,7.28225 -6.85426,10.0577 -6.8582,11.37826 -0.007,2.24981 2.9951,1.55563 5.91966,-1.36893 z M 63.288667,473.64015 c 0.494173,-2.40283 1.261223,-6.90484 1.704557,-10.00445 1.126004,-7.87254 4.84762,-12.3368 10.336801,-12.39949 1.677605,-0.0192 4.280361,-0.84086 5.783903,-1.82601 2.508802,-1.64383 8.285451,-1.72504 14.6084,-0.20536 2.34583,0.56381 2.542149,-1.83434 0.369782,-4.5171 -2.982681,-3.68345 -11.016036,-4.32439 -16.16009,-1.28933 -6.539696,3.85851 -9.922085,2.86509 -6.872281,-2.01842 0.730114,-1.16909 0.952885,-2.50022 0.495047,-2.95806 -1.408601,-1.4086 -4.361545,1.23776 -7.034411,6.30408 -1.402271,2.65796 -3.705088,6.55751 -5.11737,8.66568 -2.025797,3.02398 -2.714213,5.92767 -3.261511,13.75684 -0.381547,5.45812 -0.337442,10.28011 0.09801,10.71556 1.857215,1.85722 4.201901,-0.10425 5.049162,-4.22394 z m 558.645323,-58.4425 c 8.66999,-4.26822 15.90299,-10.42816 14.24856,-12.13471 -1.42,-1.46472 -21.42014,8.46276 -27.06759,13.43554 l -3.49756,3.07974 4.78317,-0.52872 c 2.63075,-0.29078 7.82078,-2.02412 11.53342,-3.85185 z m -42.60017,-7.84086 c 22.07573,-2.49914 45.14433,-11.40765 60.27514,-23.27672 7.49613,-5.88021 14.74257,-13.76722 14.74257,-16.04579 0,-2.45311 -3.41463,-0.87824 -15.18318,7.00266 -18.74172,12.55053 -34.57208,19.27569 -54.67658,23.22808 -13.51745,2.65741 -33.81585,2.40691 -47.71553,-0.58889 -5.93903,-1.28004 -10.99041,-2.32734 -11.22527,-2.32734 -0.23487,0 -0.42702,0.97297 -0.42702,2.16217 0,2.65709 3.81341,4.72937 13.15972,7.15124 14.12212,3.65942 25.7724,4.42415 41.05015,2.69459 z m -72.82741,-8.69731 c 0,-1.75065 -4.34911,-4.01356 -14.60293,-7.59811 -13.10796,-4.5823 -23.97847,-10.1641 -32.35907,-16.61576 -3.844,-2.95922 -7.41692,-5.3804 -7.93983,-5.3804 -0.52292,0 -0.95077,1.18638 -0.95077,2.63639 0,5.15209 16.40429,17.21391 30.99911,22.79317 10.53693,4.02802 24.85349,6.42706 24.85349,4.16471 z M 397.4299,390.53683 c 7.04876,-2.94517 11.60825,-11.82046 11.60825,-22.59609 0,-4.12406 0.54028,-6.72178 1.57698,-7.58216 0.86734,-0.71982 1.72977,-2.37518 1.91651,-3.67858 0.26112,-1.82254 1.33669,-2.53101 4.65742,-3.06783 8.84269,-1.42949 13.52529,-11.13023 10.06943,-20.86042 -1.82066,-5.12616 -1.81565,-5.17156 1.02693,-9.33352 3.69571,-5.41105 3.28433,-12.52866 -1.08887,-18.83918 -1.83442,-2.64709 -3.10287,-6.0914 -3.30899,-8.9852 -0.27545,-3.86725 -1.12177,-5.42724 -4.81155,-8.86902 -2.78128,-2.59436 -5.5438,-4.17639 -7.29276,-4.17639 -3.78218,0 -9.41399,-2.47819 -11.85016,-5.21447 -1.09261,-1.22723 -2.67622,-4.86817 -3.51913,-8.09097 -1.92436,-7.3578 -6.04228,-11.31318 -12.83922,-12.33243 -2.9138,-0.43696 -5.78839,-1.68501 -6.99114,-3.03534 -2.9833,-3.34933 -8.32904,-5.27641 -14.63685,-5.27641 -11.61542,0 -21.1909,7.02922 -24.12217,17.70772 -0.60667,2.21009 -3.71027,7.38467 -6.89687,11.49906 -3.1866,4.11439 -6.62805,9.71486 -7.64765,12.4455 -3.49802,9.36813 -1.76602,20.5976 3.77558,24.47908 2.38054,1.66741 2.55086,2.44106 2.25181,10.22899 -0.65516,17.06173 4.17464,25.06618 16.69274,27.66492 5.35202,1.11107 6.51992,1.83326 8.79631,5.43929 3.50492,5.55216 7.8432,8.81154 11.72831,8.81154 4.52028,0 8.07605,4.04813 9.53624,10.85669 1.61216,7.51724 2.83247,9.63213 7.03721,12.19594 4.11519,2.50922 9.26087,2.72797 14.33164,0.60928 z m -157.50619,-8.21629 c 5.19958,-2.36154 8.75977,-6.47588 10.23881,-11.83254 4.29722,-15.56324 -19.67573,-16.62422 -27.14188,-1.20123 -3.09057,6.38428 -2.96856,8.08768 0.85309,11.90932 3.8464,3.84639 9.22687,4.22335 16.04998,1.12445 z m -124.8533,-11.35559 c 4.56685,-2.38209 6.61696,-4.94985 5.13511,-6.43168 -0.80813,-0.80815 -3.36379,-0.40715 -8.53269,1.33882 -6.71992,2.26988 -7.63494,2.34675 -10.24422,0.86069 -5.634187,-3.20887 -2.559338,-14.21039 5.81217,-20.79542 4.4275,-3.48267 12.59224,-4.08555 15.26926,-1.12746 1.49225,1.64891 1.86817,3.22394 1.39928,5.86271 -2.18923,12.32031 -2.18887,12.05625 -0.0159,11.65367 2.73695,-0.50704 6.97685,-9.1468 6.97685,-14.21692 0,-7.68373 -8.6152,-14.09734 -16.70482,-12.43594 -5.59273,1.1486 -14.394341,7.51832 -18.082319,13.08614 -7.46088,11.26388 -4.887123,23.35097 5.298429,24.88292 3.73374,0.56157 9.72606,-0.61053 13.68881,-2.67753 z m 168.02561,-23.53063 c 2.10816,-1.05315 4.30643,-2.99331 4.88505,-4.31149 0.57861,-1.31817 1.88367,-2.61415 2.90012,-2.87997 2.9558,-0.77295 5.48614,-5.65962 5.55612,-10.7301 0.054,-3.9125 -0.50254,-5.1932 -3.37015,-7.7554 -2.88572,-2.57838 -4.40362,-3.069 -9.49524,-3.069 -6.80236,0 -11.31647,1.88073 -16.72279,6.96728 -4.84179,4.55543 -6.75124,8.42702 -6.75124,13.68882 0,3.49918 0.65129,4.88565 3.36948,7.17285 2.75925,2.32176 4.49466,2.83491 9.58255,2.83352 3.72036,-10e-4 7.75089,-0.76993 10.0461,-1.91651 z m 445.72564,-32.4694 c 0,-4.57512 -2.74037,-8.3232 -6.08541,-8.3232 -3.01838,0 -3.37237,1.72479 -0.99823,4.8637 0.88434,1.1692 1.6079,3.16511 1.6079,4.43535 0,1.27024 0.57965,2.88918 1.28812,3.59766 1.95773,1.95773 4.18762,-0.47765 4.18762,-4.57351 z m -609.12225,-0.0118 c 5.58462,-2.91754 11.1709,-10.30452 11.1709,-14.77175 0,-2.80395 -3.76093,-4.8841 -7.24809,-4.00888 -3.9857,1.00034 -11.07932,7.91453 -12.48276,12.16702 -2.42177,7.33801 1.44892,10.32859 8.55995,6.61361 z m 363.66931,-57.70796 c 6.37625,-1.43729 13.89799,-5.37603 19.50362,-10.21302 4.24258,-3.66085 11.30012,-15.44523 11.30012,-18.86848 0,-1.11121 2.24898,-1.46781 9.25724,-1.46781 5.09148,0 10.45812,-0.54716 11.92587,-1.21591 4.15619,-1.89369 6.33766,-8.52263 4.43572,-13.47903 -1.0047,-2.61821 -2.18066,-2.11142 -4.59473,1.98012 -3.18456,5.39743 -8.12864,6.7686 -16.58983,4.60094 -8.07739,-2.06933 -13.39819,-4.70995 -35.02816,-17.38382 -21.51573,-12.60693 -33.04676,-17.39607 -43.5222,-18.07592 -4.32276,-0.28054 -9.12772,-0.19179 -10.6777,0.19723 -2.93947,0.73777 -3.77405,3.65221 -1.65316,5.77309 0.82319,0.82319 0.10028,3.19609 -2.46408,8.08819 -3.41151,6.5082 -3.62871,7.58397 -3.62319,17.94538 0.005,9.60442 0.37631,11.81382 2.88589,17.17691 9.6177,20.55341 33.46736,30.66244 58.84459,24.94213 z m 126.40491,-15.3215 c 1.94743,-3.10851 -0.0695,-7.56751 -4.20443,-9.2952 -9.76624,-4.0806 -14.1625,5.04273 -4.70315,9.76022 4.28511,2.13704 7.3786,1.97554 8.90758,-0.46502 z m 36.28605,-0.52152 c 3.16933,-3.16933 0.97831,-11.42084 -3.03258,-11.42084 -1.95881,0 -6.19796,4.67403 -6.19796,6.83379 0,5.65742 5.45123,8.36637 9.23054,4.58705 z M 376.12799,227.06548 c 1.26147,-1.6037 2.59547,-4.19099 2.96445,-5.74954 0.94055,-3.97283 3.34712,-6.42352 7.12211,-7.25264 2.23591,-0.49109 3.11919,-1.2701 2.86428,-2.52616 -0.28062,-1.38277 -1.52164,-1.78981 -5.20116,-1.70592 -4.07858,0.093 -5.31212,0.68459 -7.90601,3.79165 -1.69038,2.02481 -3.09089,4.68572 -3.11224,5.91314 -0.0213,1.22741 -0.7431,3.46371 -1.60391,4.96954 -0.86081,1.50583 -1.58258,3.35389 -1.60391,4.1068 -0.0694,2.44648 4.12284,1.44518 6.47639,-1.54687 z m -217.44506,-1.34614 c 1.66869,-1.74173 4.47139,-3.45427 6.22821,-3.80564 2.88455,-0.57691 3.19423,-1.05993 3.19423,-4.98219 0,-4.2626 -2.13689,-7.3707 -3.09382,-4.49993 -0.26685,0.80059 -3.12964,4.01691 -6.36173,7.14737 -5.64277,5.46533 -7.475,9.30719 -4.4387,9.30719 0.7908,0 2.80312,-1.42506 4.47181,-3.1668 z m 20.09402,-17.86317 c 2.25314,-1.86994 1.57505,-3.06331 -1.74065,-3.06331 -3.18835,0 -7.37791,3.37827 -5.95464,4.80154 0.94857,0.94857 5.77021,-0.14056 7.69529,-1.73823 z"
     id="path30"
     transform="scale(0.75)" />
  <path
     style="fill:#ffffff;stroke-width:0.374667"
     d="m 388.99478,384.62248 c -1.58167,-0.5644 -2.09753,-0.91451 -4.14953,-2.81627 -2.19166,-2.03119 -2.90512,-3.7532 -3.26325,-7.87614 -0.55301,-6.36658 -2.877,-10.6044 -6.89284,-12.56917 -1.85772,-0.9089 -2.3382,-0.99086 -4.47009,-0.76256 -5.24852,0.56207 -9.27108,-2.9706 -10.00091,-8.78294 -0.37397,-2.97836 -1.10202,-4.64377 -2.32109,-5.3095 -0.53775,-0.29367 -2.65571,-0.46586 -5.89713,-0.47944 -4.7364,-0.0198 -5.19133,-0.0867 -7.1547,-1.05088 -5.90578,-2.90034 -10.03157,-10.59139 -9.59747,-17.89102 0.23803,-4.00252 1.27131,-6.73029 3.68325,-9.72349 1.83334,-2.27515 2.26306,-3.68712 1.35221,-4.44307 -0.26219,-0.21759 -1.6921,-0.72159 -3.17759,-1.12 -3.07771,-0.82545 -4.82714,-2.00767 -6.44013,-4.35206 -2.00806,-2.91862 -2.76257,-5.31285 -2.79881,-8.8812 -0.0319,-3.14224 0.005,-3.28516 1.3722,-5.27276 0.77275,-1.12365 1.40594,-2.28355 1.40709,-2.57757 0.0154,-3.94252 5.69434,-9.3249 9.84996,-9.3356 1.00697,-0.003 1.69045,-0.27208 2.34167,-0.9233 1.12051,-1.12051 1.12985,-1.47838 0.12653,-4.84731 -1.59089,-5.34187 -0.28039,-9.64201 4.35245,-14.28155 5.66167,-5.66987 14.38611,-8.06106 20.12609,-5.51614 2.03546,0.90245 5.12326,3.65885 6.75583,6.03075 l 1.12524,1.63482 2.10712,-0.24331 c 6.40709,-0.73983 6.44802,-0.73699 8.64919,0.60081 2.72911,1.65866 4.2099,3.80457 4.42633,6.41447 0.22502,2.71338 -0.53331,4.11384 -2.86827,5.29706 -3.67924,1.86441 -5.80139,4.54936 -4.91089,6.21326 0.54767,1.02335 1.39692,0.9267 3.36742,-0.38322 1.25483,-0.83416 2.12407,-1.1212 3.39893,-1.1224 2.45064,-0.002 5.05927,1.00101 6.72662,2.58713 1.19173,1.13366 1.48747,1.71457 1.70404,3.34716 0.14412,1.08648 0.54582,2.32587 0.89267,2.7542 0.79879,0.98647 2.879,1.03046 5.62339,0.11892 4.44181,-1.47533 9.31153,-0.0431 11.77597,3.46334 1.57203,2.23673 1.55625,4.39858 -0.0546,7.476 -0.66972,1.27948 -1.21767,2.58527 -1.21767,2.90175 0,0.31649 0.7563,0.93094 1.68068,1.36545 2.25592,1.0604 4.44096,3.31791 5.70726,5.89651 1.45945,2.97191 1.68049,7.51028 0.48597,9.97783 -1.04977,2.16853 -2.51509,3.19524 -5.05147,3.53943 -2.24912,0.30521 -3.19711,0.88823 -3.19711,1.96622 0,1.20762 1.31501,3.3855 3.57031,5.91307 2.78151,3.1173 3.91459,5.53764 3.91937,8.37208 0.006,3.30704 -1.23642,5.37415 -4.10232,6.82769 -1.09434,0.55504 -1.88578,0.61917 -5.08671,0.41223 -4.54402,-0.29378 -4.52096,-0.30955 -6.17546,4.22386 -1.43382,3.92878 -2.71042,6.43911 -4.0633,7.99016 -1.57312,1.80357 -1.65645,2.4687 -0.81446,6.50073 0.94688,4.53435 0.96796,7.68152 0.0708,10.56425 -2.01716,6.48117 -7.64108,10.04573 -12.89278,8.17172 z m -3.13798,-38.83175 c 0.71071,-0.55904 0.9872,-1.12333 0.9872,-2.01479 0,-1.65012 -0.64932,-2.10007 -2.88992,-2.00258 -1.87386,0.0815 -2.30595,-0.10227 -4.62509,-1.96748 -0.52709,-0.42392 -1.62299,-0.99132 -2.43534,-1.2609 -1.23066,-0.40838 -1.66448,-0.84753 -2.60101,-2.63293 -1.76484,-3.36452 -3.21737,-3.62308 -3.69164,-0.65716 -0.32797,2.051 0.30764,3.86175 2.05065,5.8419 4.01762,4.56426 10.45911,6.85398 13.20515,4.69394 z m 0.77756,-20.71778 c 1.97853,-1.29637 0.61004,-2.7005 -3.14996,-3.23198 -3.53002,-0.49896 -6.31118,-2.43 -7.28729,-5.05976 -0.15297,-0.41213 -0.42734,-1.65218 -0.60972,-2.75566 -0.37229,-2.25254 -0.87052,-3.05168 -1.90262,-3.05168 -1.12385,0 -2.12484,1.30278 -2.79548,3.63825 -1.08156,3.76654 -1.01965,3.73366 -3.39186,1.80128 -2.9913,-2.4367 -5.00681,-2.33728 -5.00681,0.24698 0,2.22321 2.52103,4.09379 7.49335,5.56001 1.5455,0.45574 3.79851,1.32716 5.00668,1.93649 1.20817,0.60933 2.89417,1.25577 3.74667,1.43654 2.37352,0.50328 6.7776,0.21302 7.89704,-0.52047 z"
     id="path31"
     transform="scale(0.75)" />
  <path
     style="fill:#ffffff;stroke-width:0.374667"
     d="m 229.39477,377.84774 c -2.02163,-1.13685 -2.75884,-4.23855 -1.5919,-6.69768 1.55508,-3.2771 5.49215,-6.36719 9.57031,-7.51146 2.83088,-0.79431 5.17371,-0.54102 6.63593,0.71741 2.94887,2.5379 -0.91069,10.24686 -6.47004,12.92302 -2.3692,1.14049 -6.60191,1.43605 -8.1443,0.56871 z"
     id="path32"
     transform="scale(0.75)" />
  <path
     style="fill:#ffffff;stroke-width:0.374667"
     d="m 270.83134,343.60993 c -3.63907,-0.93811 -5.48325,-3.73674 -4.64889,-7.05488 1.11478,-4.43334 4.74511,-8.54928 9.55553,-10.83374 2.31749,-1.10057 3.38918,-1.3774 5.95097,-1.53723 3.63042,-0.22649 5.3414,0.21283 7.20646,1.85037 2.41312,2.11875 2.44569,4.45131 0.14011,10.03557 -1.30932,3.17127 -1.26947,4.1279 0.17199,4.1279 h 0.92453 l -1.00644,1.03033 c -0.87066,0.89133 -1.04108,0.94632 -1.26318,0.40762 -0.4924,-1.19432 -1.696,-1.11469 -6.23121,0.41225 -4.64013,1.56226 -8.58509,2.13275 -10.79987,1.56181 z"
     id="path33"
     transform="scale(0.75)" />
  <path
     style="fill:#ffffff;stroke-width:0.165773"
     d="m 115.65991,310.95724 c -0.10941,-0.10941 -0.19892,-0.47622 -0.19892,-0.81512 0,-2.8002 6.03501,-8.86614 9.1728,-9.21981 1.24889,-0.14077 1.57999,0.63086 0.9651,2.24912 -1.34392,3.53692 -8.54602,9.17876 -9.93898,7.78581 z"
     id="path34"
     transform="scale(0.75)" />
  <path
     style="fill:#ffffff;stroke-width:1.18232"
     d="m 176.36856,344.00286 c -1.75543,-1.38082 -3.39975,-4.16682 -3.83797,-6.50274 -1.01376,-5.40381 -3.57722,-5.21121 -4.61587,0.34681 -1.48508,7.94699 -5.20685,9.6161 -10.01936,4.49341 -3.99743,-4.25506 -3.84051,-10.88938 0.40239,-17.01188 3.80433,-5.48965 3.42933,-8.46764 -1.06629,-8.46764 -1.67566,0 -4.35257,-1.30593 -5.94869,-2.90206 -6.24637,-6.24637 -1.97377,-22.52901 8.45238,-32.21151 4.57024,-4.24426 5.16354,-5.30503 4.08958,-7.31175 -4.17886,-7.80827 3.61684,-21.2906 14.37944,-24.86864 2.19886,-0.73101 4.72761,-2.792 5.85092,-4.76864 1.42954,-2.5155 3.5579,-3.94179 7.67231,-5.14149 l 5.69397,-1.66028 0.0127,-6.38258 c 0.0165,-8.28843 3.81236,-14.67254 10.54072,-17.72823 2.66318,-1.20948 6.03923,-2.21074 7.50235,-2.22502 1.73286,-0.0169 2.66251,-0.74724 2.6668,-2.09502 0.0304,-9.53513 8.24134,-20.06972 18.68991,-23.97903 5.80704,-2.17269 7.29042,-2.31053 11.66981,-1.08438 3.03849,0.85073 7.54832,1.08846 11.43538,0.6028 8.31477,-1.03886 14.07156,1.26017 17.4366,6.96348 1.36165,2.30784 2.82221,4.18638 3.24569,4.17455 0.42347,-0.0118 3.09241,-1.59535 5.93099,-3.51892 2.83856,-1.92358 7.04997,-3.85178 9.35868,-4.2849 5.17467,-0.97077 18.39785,1.34919 22.31352,3.91482 l 2.89685,1.89809 -3.47583,3.66643 c -1.9117,2.01653 -4.34712,5.39556 -5.41203,7.50895 -1.06491,2.11339 -2.66368,3.84253 -3.55282,3.84253 -2.20241,0 -3.2401,3.10964 -1.50375,4.50629 0.77419,0.62273 3.12238,1.49881 5.21819,1.94684 4.09909,0.87629 9.78607,6.64512 9.78607,9.92694 0,2.94207 -3.36205,7.25448 -6.62205,8.49393 -2.89212,1.09959 -3.78794,3.95632 -1.65417,5.27507 1.92333,1.18868 1.35051,5.98404 -0.96513,8.07967 -1.18111,1.06888 -4.24036,2.6674 -6.79832,3.55225 -6.07054,2.09992 -6.32846,4.36596 -0.82922,7.28514 6.31772,3.35366 6.61655,7.53301 0.9442,13.20536 -4.18467,4.18467 -4.39928,4.25161 -11.31404,3.52888 -6.47257,-0.67652 -7.04845,-0.54652 -7.04845,1.59114 0,1.28032 -1.4974,4.00374 -3.32756,6.05204 -3.43542,3.8449 -6.80128,4.55235 -13.40408,2.81732 -2.54714,-0.66932 -3.2834,-0.35627 -3.92632,1.66939 -0.43523,1.37126 -2.27073,3.25823 -4.0789,4.19327 -4.48284,2.31816 -6.82249,6.24774 -7.83017,13.1512 -1.61529,11.06607 -7.90024,19.24947 -16.63644,21.66164 -4.80377,1.32638 -9.04705,0.13741 -13.11772,-3.67562 l -2.6142,-2.44876 -4.22526,3.70983 c -7.15409,6.28139 -12.36958,4.73009 -17.11633,-5.09109 -3.20781,-6.63707 -3.28326,-7.17628 -1.72746,-12.34582 2.06337,-6.85606 0.56332,-8.44393 -3.45996,-3.66253 -4.01484,4.77136 -4.06054,10.26599 -0.16512,19.85266 3.76027,9.2541 3.71351,10.55432 -0.59001,16.4062 -2.70427,3.67723 -4.79273,5.13551 -8.79977,6.1445 -6.86972,1.72981 -6.92501,1.72407 -10.5062,-1.0929 z m 3.4182,-41.869 c 1.98881,-3.03532 1.47463,-5.37242 -1.18198,-5.37242 -1.90394,0 -3.65293,2.07255 -4.73923,5.616 -0.66132,2.15718 -0.35848,2.66021 1.60152,2.66021 1.32937,0 3.27324,-1.30671 4.31969,-2.90379 z m 49.62793,-5.61295 c 3.65502,-2.73338 7.40899,-6.44625 8.34216,-8.25081 1.19197,-2.30502 4.65554,-4.69322 11.64347,-8.02842 9.72147,-4.63987 14.84741,-9.30624 14.84741,-13.51625 0,-2.93219 -2.77253,-2.23309 -6.47655,1.63308 -1.85461,1.93579 -5.27942,4.13123 -7.61068,4.87874 -2.33127,0.74752 -5.08308,2.09396 -6.11514,2.99208 -1.19776,1.04233 -3.18395,1.37146 -5.49133,0.90999 -3.4857,-0.69714 -3.64491,-0.54508 -4.45606,4.25609 -0.65983,3.90551 -1.61887,5.39781 -4.44795,6.92117 -5.70305,3.07091 -7.96568,5.80547 -7.96568,9.62717 0,1.95082 0.2441,3.54695 0.54244,3.54695 0.29834,0 3.5329,-2.2364 7.18791,-4.96979 z m -30.23596,-19.78113 c 0.67315,-1.2578 1.22391,-5.00851 1.22391,-8.33493 0,-7.48985 2.42317,-12.40142 6.88589,-13.95713 2.39373,-0.83446 3.61516,-2.2109 4.09618,-4.616 0.39848,-1.9924 1.92908,-4.09259 3.65633,-5.01699 2.89957,-1.5518 4.89905,-4.57821 3.7704,-5.70686 -1.22322,-1.22321 -6.46377,1.04179 -9.11081,3.93775 -2.99004,3.27122 -3.13553,3.40727 -9.02592,8.44027 -4.64278,3.96699 -7.0231,13.12222 -5.70035,21.9248 0.8997,5.98733 2.22156,7.034 4.20437,3.32909 z m 42.13589,-38.39476 c 0.35146,-0.91588 2.12789,-2.28194 3.94764,-3.0357 1.81974,-0.75377 3.88545,-2.63649 4.59047,-4.18383 2.90631,-6.37866 11.70535,-8.53928 10.19014,-2.5022 -1.08432,4.32026 1.75847,5.25669 4.50638,1.48443 1.26971,-1.74304 3.81176,-3.94649 5.649,-4.89657 1.83724,-0.95007 3.66873,-2.76175 4.06997,-4.02596 0.84028,-2.6475 9.45691,-7.1773 13.70354,-7.20401 3.4863,-0.0219 6.70267,-1.87184 5.44361,-3.13091 -0.50213,-0.50212 -5.26951,-1.28734 -10.5942,-1.74493 -9.77981,-0.84045 -11.98425,-0.16166 -10.66236,3.28314 0.32912,0.85768 -1.00501,3.16285 -2.96475,5.12259 -3.01674,3.01674 -4.16783,3.44842 -7.50612,2.81495 -2.16862,-0.41152 -4.87402,-1.22404 -6.012,-1.8056 -2.89264,-1.47827 -6.06265,0.50142 -9.30203,5.80918 -1.49327,2.44675 -4.20104,5.85919 -6.01725,7.58321 -3.58152,3.3997 -4.44689,8.09743 -1.49162,8.09743 0.99581,0 2.09813,-0.74935 2.44958,-1.66522 z"
     id="path35"
     transform="scale(0.75)" />
  <path
     style="fill:#ffffff;stroke-width:0.203161"
     d="m 680.77361,230.79666 c -1.38762,-0.69752 -3.20544,-2.138 -3.76048,-2.97988 -0.51393,-0.77953 -0.485,-1.41956 0.13836,-3.06087 2.25215,-5.92992 2.72624,-7.95576 2.72624,-11.64938 0,-3.57435 -0.73037,-6.76125 -2.23278,-9.74254 -0.97841,-1.94148 -1.71575,-2.94058 -3.67337,-4.97744 -2.04139,-2.12401 -2.22104,-2.415 -2.21808,-3.59274 0.003,-1.32886 0.85659,-3.86821 1.7696,-5.26647 1.24956,-1.91366 2.77719,-1.54114 5.80497,1.41558 4.82946,4.71612 8.10922,12.35745 9.29884,21.66489 0.36067,2.82184 0.31471,8.38679 -0.0881,10.66595 -0.59607,3.37275 -1.54274,5.63711 -2.90399,6.94616 -1.43228,1.37735 -2.91789,1.55361 -4.86122,0.57674 z"
     id="path36"
     transform="scale(0.75)" />
  <path
     style="fill:#ffffff;stroke-width:0.172575"
     d="m 658.2512,214.32009 c -1.09701,-0.41913 -0.69216,-1.36203 1.74138,-4.05571 2.15212,-2.38219 3.54485,-3.34724 4.8306,-3.34724 0.54253,0 0.76515,0.0995 1.06241,0.47458 0.32356,0.40833 0.36479,0.63119 0.29531,1.59632 -0.10115,1.4051 -0.86438,3.14385 -1.76317,4.01674 -1.124,1.09161 -2.00393,1.41411 -3.97411,1.45649 -0.94916,0.0204 -1.93575,-0.0431 -2.19242,-0.14118 z"
     id="path37"
     transform="scale(0.75)" />
  <path
     style="fill:#ffffff;stroke-width:0.509997"
     d="m 533.32937,662.13272 c -1.19211,-0.11838 -2.16748,-0.41226 -2.16748,-0.65305 0,-0.24079 2.81135,-1.51688 6.24746,-2.83577 17.9064,-6.87302 34.43715,-15.52516 45.77676,-23.95939 8.54168,-6.35317 11.26522,-7.17758 14.39484,-4.35728 1.94635,1.75398 2.19653,1.21023 -3.54566,7.70617 -4.49142,5.08097 -7.15464,9.60164 -8.54684,14.50777 -0.47758,1.68299 -1.24936,3.49493 -1.71509,4.02652 -2.22414,2.53871 -8.60854,4.06614 -20.26716,4.84882 -8.88358,0.59638 -27.04348,1.02738 -30.17683,0.71621 z"
     id="path38"
     transform="scale(0.75)" />
  <path
     style="fill:#ffffff;stroke-width:0.621707"
     d="m 459.44148,250.59329 c -18.89816,-4.80499 -32.01791,-18.93413 -32.01791,-34.48125 0,-6.77837 5.36929,-20.2693 9.42536,-23.68226 1.86069,-1.56566 2.36198,-1.68621 5.78693,-1.3916 4.42702,0.38081 13.31514,3.10666 15.25702,4.6791 1.23665,1.00138 1.27145,1.18362 0.36902,1.93258 -1.18399,0.98262 -1.3188,3.09976 -0.21926,3.44343 0.42743,0.1336 1.87414,0.42624 3.21491,0.65032 3.49927,0.58483 5.96132,3.3845 5.9355,6.74942 -0.0212,2.76 -0.64217,3.88368 -3.07167,5.55814 -3.55377,2.44934 -10.75879,0.50509 -11.55392,-3.11778 -0.88897,-4.05049 -1.54277,-4.29395 -3.39096,-1.2627 -0.89709,1.47133 -1.23258,3.13056 -1.23427,6.10423 -0.007,13.04535 9.04972,22.35777 22.76849,23.41023 11.3006,0.86694 20.6201,-5.82905 23.46284,-16.85787 0.51931,-2.01478 1.18807,-3.90708 1.48611,-4.20512 0.75612,-0.75612 9.51632,3.97287 10.98563,5.93033 l 1.19751,1.59535 -2.69507,5.45584 c -4.87587,9.8706 -13.7356,16.99845 -24.54341,19.74575 -5.06631,1.28784 -15.59137,1.16045 -21.16285,-0.25614 z"
     id="path39"
     transform="scale(0.75)" />
  <path
     style="fill:#ffffff;stroke-width:0.621707"
     d="m 279.62991,182.81383 c -4.17579,-3.8959 -8.14255,-5.31366 -14.78272,-5.28349 -2.73551,0.0124 -5.69974,0.21439 -6.58717,0.44879 -1.54305,0.40758 -1.64766,0.27061 -2.39535,-3.13633 -1.15941,-5.28297 -3.87671,-11.43544 -8.43436,-19.09687 -5.85232,-9.83781 -5.82046,-9.61421 -2.8808,-20.2138 2.01473,-7.26454 2.4809,-11.41569 3.49359,-31.10975 1.16182,-22.594283 1.9873,-27.656931 5.00094,-30.670574 0.85025,-0.850248 1.6448,-1.01772 3.35033,-0.706167 3.9758,0.72627 7.65689,3.445304 16.84586,12.443193 10.45427,10.236876 12.82639,12.050584 28.86686,22.071488 l 11.91014,7.44057 6.68826,14.01896 6.68826,14.01897 -2.49026,2.82907 c -3.18753,3.62123 -4.924,7.23788 -5.67472,11.8191 -0.76378,4.66095 -0.37688,7.81263 2.30412,18.76916 1.1986,4.89836 2.05678,9.02861 1.90705,9.17834 -0.14973,0.14973 -1.22443,-0.11731 -2.38824,-0.59341 -1.1638,-0.47611 -3.7748,-1.06571 -5.80221,-1.31023 -2.02741,-0.24453 -4.39441,-0.90779 -5.26,-1.47392 -1.19033,-0.77853 -2.9431,-1.01635 -7.19367,-0.97604 -6.55204,0.0621 -11.50246,1.00905 -16.24866,3.10805 -1.86729,0.8258 -3.45703,1.49079 -3.53277,1.47776 -0.0757,-0.013 -1.59875,-1.38683 -3.38448,-3.05287 z"
     id="path40"
     transform="scale(0.75)" />
  <path
     style="fill:#ffffff;stroke-width:0.621707"
     d="m 212.98886,190.04507 c -2.17446,-4.55618 -7.03688,-9.43191 -10.22364,-10.25164 -2.95724,-0.76069 -2.95685,-3.38605 0.001,-9.01494 l 2.35014,-4.47186 0.35192,-18.96207 c 0.37788,-20.36113 0.64375,-22.04983 3.58783,-22.78874 2.0306,-0.50965 5.23512,0.52664 11.8164,3.82124 8.84041,4.42552 13.82154,9.8285 13.82154,14.99208 0,3.92728 1.98883,9.24782 5.73653,15.34638 3.41028,5.54947 7.90167,15.14687 7.93056,16.94635 0.006,0.35824 -2.57739,0.97845 -5.74033,1.37824 -11.51609,1.45562 -18.0486,4.91294 -24.3709,12.89824 -1.35065,1.70592 -2.6518,3.3397 -2.89144,3.63063 -0.23964,0.29092 -1.30612,-1.29484 -2.36996,-3.52391 z"
     id="path41"
     transform="scale(0.75)" />
  <path
     style="fill:#ffffff;stroke-width:0.621707"
     d="m 349.37316,143.22919 c -3.41012,-1.13815 -7.5042,-2.07421 -9.11474,-2.08397 -5.60089,-0.034 -6.38854,-0.91016 -12.20943,-13.58204 -6.08685,-13.25089 -8.86987,-16.954 -17.50634,-23.2941 -1.53872,-1.12958 -2.88051,-2.62065 -2.98175,-3.31347 -0.10123,-0.69283 0.82672,-2.729114 2.06213,-4.525081 4.6745,-6.795528 5.78623,-11.423477 7.78185,-32.394707 1.97857,-20.792063 3.3384,-25.607408 7.34164,-25.99788 2.7971,-0.272827 6.2481,1.886403 14.59536,9.132085 7.92854,6.882217 14.17173,11.947478 21.06068,17.087082 2.63238,1.963927 4.96968,4.149068 5.19401,4.855869 0.25949,0.817571 -0.18204,2.451047 -1.21365,4.489983 -2.0688,4.08891 -2.65586,10.299038 -3.18025,33.641499 -0.66519,29.61046 -1.5348,36.9778 -4.45482,37.74141 -0.65109,0.17026 -3.9697,-0.62024 -7.37469,-1.75668 z"
     id="path42"
     transform="scale(0.75)" />
  <path
     style="fill:#ffffff;stroke-width:0.621707"
     d="m 405.17361,165.20698 c -3.51803,-3.8404 -7.57467,-8.78819 -9.01475,-10.99509 -1.44008,-2.20691 -3.55135,-4.55463 -4.69171,-5.21718 -2.17128,-1.26149 -2.80909,-1.18998 -7.96785,0.8934 -1.8485,0.74652 -2.18417,0.6445 -5.9481,-1.8078 -2.19398,-1.42943 -5.2991,-3.04535 -6.90028,-3.59092 l -2.91122,-0.99195 0.0285,-12.22028 c 0.0426,-18.27442 1.00409,-43.369731 1.84371,-48.12037 0.73988,-4.186267 2.45621,-7.308534 4.01756,-7.308534 2.87497,0 18.3818,15.414919 23.45302,23.314013 3.6556,5.694081 8.60919,10.303861 16.47092,15.327721 12.12456,7.74793 14.43907,9.68786 18.20057,15.255 1.89253,2.801 3.97903,6.09648 4.63666,7.32328 l 1.19571,2.23056 -8.08968,8.21939 c -8.75927,8.8997 -11.26995,12.17063 -13.29347,17.3188 -2.12387,5.40346 -3.17599,7.37656 -3.92683,7.36416 -0.38846,-0.006 -3.58469,-3.15381 -7.10273,-6.9942 z"
     id="path43"
     transform="scale(0.75)" />
  <path
     style="fill:#ffffff;stroke-width:0.621707"
     d="m 440.10786,130.24762 c -0.71727,-1.02582 -2.47089,-3.88099 -3.89693,-6.34483 -2.87778,-4.97205 -5.96739,-7.65764 -15.12887,-13.1505 -10.85882,-6.51053 -12.47176,-8.04566 -21.0136,-19.999734 -1.53872,-2.153407 -4.47629,-5.298156 -6.52792,-6.988336 -5.05248,-4.162337 -6.25776,-6.448615 -5.41798,-10.27727 0.35264,-1.607762 1.35509,-6.158856 2.22766,-10.113542 0.87257,-3.954686 2.44284,-12.347731 3.4895,-18.651211 2.903,-17.483353 4.23146,-21.09733 7.75515,-21.09733 2.21221,0 10.2614,5.671011 15.53667,10.946279 5.1945,5.194499 10.07532,12.19651 14.03816,20.139071 3.99703,8.011115 6.56608,11.697047 11.51573,16.522187 4.39931,4.288629 4.56098,4.556262 6.44958,10.676371 1.8643,6.041381 2.12623,6.483874 6.9645,11.765481 5.78337,6.313316 7.99815,9.358134 10.44292,14.356654 2.03974,4.1704 2.82288,6.98489 1.94355,6.98489 -0.70866,0 -6.79194,-3.56021 -16.24049,-9.50467 -8.85436,-5.570621 -14.73193,-8.301314 -16.04782,-7.455742 -1.93134,1.241039 -1.18608,7.534612 2.35926,19.923432 1.78738,6.24583 3.16097,11.98108 3.05242,12.74499 -0.18893,1.32953 -0.25314,1.30917 -1.50149,-0.47619 z"
     id="path44"
     transform="scale(0.75)" />
  <path
     style="fill:#ffffff;stroke-width:0.621707"
     d="m 475.71411,114.30512 c -1.00136,-1.56082 -3.05939,-7.52874 -3.83225,-11.11277 -0.77207,-3.580419 -1.99826,-5.390463 -7.72166,-11.398335 -6.24453,-6.554918 -6.25304,-6.568272 -8.8236,-13.851216 -1.99126,-5.641658 -2.77673,-7.139417 -5.69144,-10.852574 -3.75312,-4.781251 -2.4453,-9.707181 3.84267,-14.47352 4.55993,-3.456468 8.28002,-7.82152 11.19985,-13.141598 4.3114,-7.855607 8.16839,-11.321755 11.68995,-10.505378 5.06388,1.17392 10.20146,5.98129 16.94072,15.851876 4.95966,7.264129 8.88683,11.486696 15.07546,16.209456 7.75109,5.915122 9.25413,9.137387 6.61974,14.191584 -0.76871,1.474785 -1.55108,4.639065 -1.88502,7.623861 -0.31398,2.806455 -0.83985,5.37162 -1.1686,5.700365 -0.73765,0.737656 -3.29523,-1.61602 -7.57134,-6.967734 -3.59442,-4.498542 -6.0892,-6.108008 -7.93588,-5.119694 -2.8798,1.541218 -5.23072,6.08243 -14.64961,28.298187 -2.31957,5.47102 -4.42699,10.18705 -4.68315,10.48005 -0.25617,0.29302 -0.8888,-0.12664 -1.40584,-0.93256 z m 1.44602,-31.570387 c 0,-2.946693 -2.09981,-5.724889 -5.72471,-7.574172 -1.35287,-0.690183 -2.92634,-2.142579 -3.49661,-3.227547 -1.81754,-3.458005 -5.35601,-6.653778 -7.36728,-6.653778 -3.57999,0 -4.63836,3.330467 -1.41542,4.453993 1.2318,0.429408 2.62227,1.802841 3.9903,3.94141 1.15483,1.805288 2.86113,3.802241 3.79179,4.437673 0.93065,0.635433 3.12172,2.478196 4.86903,4.095029 4.02652,3.725844 5.3529,3.856526 5.3529,0.527392 z"
     id="path45"
     transform="scale(0.75)" />
  <path
     style="fill:#ffffff;stroke-width:0.621707"
     d="m 550.77579,119.36775 c 0.18959,-0.85485 0.52751,-7.28952 0.75093,-14.29926 0.34636,-10.867024 0.26111,-13.08853 -0.5786,-15.0764 -1.93815,-4.588268 -5.14077,-2.703211 -13.23731,7.791481 -6.63789,8.603989 -8.88513,11.015159 -10.26629,11.015159 -1.09123,0 -5.29278,-4.55831 -8.24592,-8.946087 -1.9454,-2.890477 -2.00486,-4.409069 -0.37608,-9.60509 0.67947,-2.167582 1.2354,-4.689639 1.2354,-5.60457 0,-2.337091 1.97361,-5.775661 6.83205,-11.903262 2.30448,-2.906481 4.63402,-6.153641 5.17675,-7.215914 0.54273,-1.062272 2.50504,-6.937403 4.3607,-13.055847 3.82143,-12.599963 4.75905,-15.067239 6.31852,-16.626711 1.05354,-1.053538 1.18066,-1.02567 2.94846,0.646363 2.66378,2.519474 5.68578,7.386489 10.73567,17.290045 4.19954,8.235921 5.63382,11.819511 9.05382,22.621208 0.7996,2.525438 2.93589,7.185882 4.74732,10.356542 1.81143,3.170661 3.29351,6.441966 3.29351,7.269567 0,2.542893 -3.50358,6.993676 -13.50065,17.150646 -6.78711,6.89565 -9.49216,9.29178 -9.24828,8.19213 z"
     id="path46"
     transform="scale(0.75)" />
  <path
     style="fill:#ffffff;stroke-width:0.621707"
     d="m 556.49086,162.5166 c -0.20566,-0.53596 -0.37394,-1.72864 -0.37394,-2.65041 0,-1.64521 -1.04835,-3.57281 -3.23447,-5.9472 -1.53782,-1.67027 -1.94988,-4.54201 -1.60307,-11.17221 0.29197,-5.58191 1.33045,-8.85067 5.58952,-17.59374 0.36555,-0.7504 3.50104,-4.10762 6.96776,-7.46049 8.97633,-8.68156 15.08684,-17.760343 16.24326,-24.133697 0.63787,-3.515526 1.5614,-5.101932 6.38567,-10.96913 2.34583,-2.85296 6.41786,-8.181521 9.04895,-11.841247 4.41442,-6.140246 7.25217,-9.199482 8.53345,-9.199482 1.32168,0 3.05973,3.035457 4.21831,7.367173 2.09532,7.833951 7.30638,48.487693 6.61735,51.624813 -0.57907,2.6365 -5.62669,7.09837 -9.7942,8.65763 -2.67535,1.00098 -5.30174,1.36146 -11.15928,1.53165 -6.30281,0.18312 -8.23493,0.47493 -10.90189,1.64653 -4.44054,1.95073 -8.09296,6.08164 -11.88774,13.44512 -3.02676,5.87321 -9.70307,14.51399 -12.93998,16.74749 -1.18831,0.81993 -1.37703,0.81411 -1.7097,-0.0528 z"
     id="path47"
     transform="scale(0.75)" />
  <path
     style="fill:#ffffff;stroke-width:0.621707"
     d="m 611.05715,168.01632 c 1.32388,-6.88385 2.3326,-15.85672 2.05155,-18.24901 -0.18492,-1.57397 -1.37876,-4.9687 -2.65298,-7.54385 l -2.31675,-4.68208 2.36581,-2.88717 c 4.75479,-5.80259 13.44074,-11.58684 18.66272,-12.4281 3.12367,-0.50322 6.4851,1.0628 7.67963,3.5778 0.97207,2.0466 1.25658,13.57763 0.47653,19.31343 -0.4292,3.156 -0.81795,3.95143 -2.73456,5.59537 -1.22883,1.054 -5.00578,4.43428 -8.39322,7.51173 -7.29143,6.62418 -13.48973,11.49164 -14.641,11.49742 -0.5674,0.003 -0.72345,-0.53186 -0.49773,-1.70554 z"
     id="path48"
     transform="scale(0.75)" />
  <path
     style="fill:#ffff00;stroke-width:0.167583"
     d="m 492.42504,152.44556 c -3.84985,-4.55183 -5.33001,-6.13492 -7.40288,-7.91765 -4.63997,-3.99051 -10.17304,-6.85756 -16.12523,-8.35553 -2.90407,-0.73086 -5.33774,-1.0737 -12.06451,-1.69957 -3.59467,-0.33445 -6.54335,-0.61919 -6.55262,-0.63277 -0.009,-0.0136 -0.96994,-3.41824 -2.1348,-7.56593 -3.30333,-11.76207 -4.29925,-16.33938 -3.55506,-16.33938 0.7585,0 8.97263,4.58588 17.06299,9.52613 8.49875,5.18962 11.64675,6.87693 13.94914,7.47662 2.00824,0.52308 3.27327,0.2686 4.43382,-0.89196 1.3972,-1.39719 1.5823,-1.79326 7.99936,-17.11629 5.5761,-13.314926 8.73171,-20.611002 9.88189,-22.847847 l 0.33065,-0.643039 2.09759,2.570249 c 1.84118,2.256061 7.7878,9.721769 15.80819,19.846427 5.06562,6.39467 7.68983,9.21156 9.73769,10.4527 1.28417,0.77828 2.68383,0.89802 3.87349,0.33136 1.16194,-0.55345 2.82461,-2.32466 5.49671,-5.85554 6.67106,-8.81504 8.52013,-10.20349 9.13282,-6.8578 0.16918,0.92381 -0.38083,45.00134 -0.56381,45.18433 -0.048,0.048 -3.42338,-0.008 -7.5008,-0.12369 -11.09689,-0.31581 -16.70745,-0.0889 -23.4406,0.94792 -2.2486,0.34627 -17.02241,3.26094 -17.70058,3.49208 -0.10346,0.0353 -1.34701,-1.3061 -2.76345,-2.98082 z m 21.07568,-4.70316 c 5.10715,-1.35983 8.55884,-8.14699 7.5941,-14.93254 -0.61001,-4.29057 -2.44672,-8.09665 -5.26402,-10.90827 -1.22978,-1.2273 -1.80278,-1.65974 -2.94643,-2.22366 -2.4681,-1.21698 -4.73446,-1.45544 -6.70748,-0.70575 -1.20089,0.4563 -1.92503,1.10062 -2.91267,2.59161 -1.67925,2.53508 -2.41463,4.88028 -2.561,8.16731 -0.2698,6.05861 1.92087,12.09733 5.67792,15.65155 2.33989,2.21357 4.71367,3.00035 7.11958,2.35975 z"
     id="path49"
     transform="scale(0.75)" />
  <path
     style="fill:#ffff00;stroke-width:0.167583"
     d="m 508.11295,162.97088 c -1.44183,-0.35771 -8.4128,-3.80618 -8.01386,-3.96436 0.16776,-0.0665 3.01987,-0.69432 6.33802,-1.39513 3.31815,-0.70081 7.27731,-1.58709 8.79813,-1.96951 l 2.76513,-0.69532 3.93821,0.016 c 5.45915,0.0222 12.34618,0.48757 18.26659,1.23444 4.33055,0.54631 5.93498,0.91267 7.62505,1.7411 1.57577,0.77241 2.93271,1.7919 2.93271,2.2034 0,0.40063 -0.94993,0.84994 -2.31316,1.09411 -1.02189,0.18304 -3.27988,0.22011 -10.86791,0.17842 -12.521,-0.0688 -17.83306,0.22037 -22.68179,1.23466 -2.60621,0.54518 -5.36125,0.67598 -6.78712,0.32221 z"
     id="path50"
     transform="scale(0.75)" />
  <path
     style="fill:#aa0000;stroke-width:0.916653"
     id="path51"
     sodipodi:type="arc"
     sodipodi:cx="354.01364"
     sodipodi:cy="187.70059"
     sodipodi:rx="5.0714927"
     sodipodi:ry="7.9916859"
     sodipodi:start="0"
     sodipodi:end="6.2831282"
     sodipodi:arc-type="slice"
     d="m 359.08513,187.70059 a 5.0714927,7.9916859 0 0 1 -5.07142,7.99169 5.0714927,7.9916859 0 0 1 -5.07156,-7.99146 5.0714927,7.9916859 0 0 1 5.07127,-7.99191 5.0714927,7.9916859 0 0 1 5.07171,7.99123 l -5.07149,4.5e-4 z"
     transform="matrix(0.97177902,-0.23589307,0.20927977,0.97785581,0,0)" />
</svg>
