<?xml version="1.0" encoding="UTF-8" standalone="no"?>
<svg
   version="1.0"
   width="600.000000pt"
   height="600.000000pt"
   viewBox="0 0 600.000000 600.000000"
   preserveAspectRatio="xMidYMid meet"
   id="svg8"
   sodipodi:docname="frog6_t2.svg.svg"
   inkscape:version="1.4.3 (0d15f75, 2025-12-25)"
   xmlns:inkscape="http://www.inkscape.org/namespaces/inkscape"
   xmlns:sodipodi="http://sodipodi.sourceforge.net/DTD/sodipodi-0.dtd"
   xmlns="http://www.w3.org/2000/svg"
   xmlns:svg="http://www.w3.org/2000/svg">
  <defs
     id="defs8" />
  <sodipodi:namedview
     id="namedview8"
     pagecolor="#505050"
     bordercolor="#ffffff"
     borderopacity="1"
     inkscape:showpageshadow="0"
     inkscape:pageopacity="0"
     inkscape:pagecheckerboard="1"
     inkscape:deskcolor="#505050"
     inkscape:document-units="pt"
     inkscape:zoom="0.40646166"
     inkscape:cx="152.53591"
     inkscape:cy="618.75454"
     inkscape:window-width="1024"
     inkscape:window-height="1022"
     inkscape:window-x="0"
     inkscape:window-y="30"
     inkscape:window-maximized="0"
     inkscape:current-layer="svg8" />
  <g
     transform="translate(0.000000,600.000000) scale(0.050000,-0.050000)"
     fill="#000000"
     stroke="none"
     id="g8">
    <path
       d="M4127 11661 c-167 -40 -366 -230 -367 -350 -1 -59 -20 -80 -113 -127 -184 -94 -294 -287 -285 -499 l6 -110 -96 -49 c-305 -155 -461 -531 -342 -822 19 -47 32 -88 28 -91 -5 -4 -62 -39 -129 -79 -388 -232 -629 -795 -468 -1095 18 -35 19 -49 2 -55 -13 -4 -89 -54 -168 -111 -352 -252 -555 -708 -530 -1192 l10 -189 -105 -131 c-823 -1025 -837 -2579 -33 -3772 590 -876 1682 -1509 2605 -1509 l191 0 68 -85 c37 -47 147 -161 245 -254 211 -200 264 -278 279 -408 37 -335 564 -400 644 -79 l13 52 59 -71 c161 -195 519 -109 519 124 0 33 13 41 65 41 151 0 305 146 291 275 l-8 65 206 0 c244 0 275 -30 178 -173 -230 -338 241 -654 502 -337 l58 70 36 -80 c124 -283 592 -214 592 86 0 74 0 74 87 74 312 0 394 412 106 541 l-79 35 140 71 c77 39 207 121 288 182 l148 112 6 -63 c11 -103 -11 -145 -106 -202 -229 -138 -228 -417 3 -519 108 -48 189 -39 296 34 94 63 91 64 91 -41 0 -179 204 -318 391 -267 128 34 229 153 229 267 l0 52 87 -51 c201 -118 453 -4 453 206 0 60 5 66 45 55 289 -79 535 60 535 302 0 190 -149 312 -381 310 l-137 -2 87 127 c344 503 178 1118 -349 1288 l-70 23 -57 293 c-52 269 -54 295 -24 312 19 10 67 46 107 80 753 634 857 1372 288 2051 l-88 106 -3 244 c-10 877 -1048 1184 -1444 428 l-54 -104 -233 0 c-127 0 -268 -7 -313 -15 -75 -13 -83 -10 -115 43 -170 288 -598 463 -934 382 l-104 -25 -72 72 -72 71 44 96 c317 693 -128 1637 -930 1969 -81 34 -104 52 -94 76 148 340 -17 725 -385 900 l-100 47 1 152 c3 222 -125 415 -323 486 -56 21 -65 34 -65 91 0 138 -83 255 -223 313 -59 25 -75 44 -86 102 -36 191 -295 310 -544 251z m313 -179 c81 -57 110 -134 72 -192 -56 -85 -196 -92 -218 -10 -13 52 -66 51 -95 -1 -74 -139 221 -234 367 -118 121 95 319 -73 251 -213 -134 -272 -830 -145 -916 167 -75 274 305 532 539 367z m-610 -517 c185 -286 739 -394 1018 -199 l58 41 88 -47 c279 -148 313 -450 66 -575 -365 -184 -1148 -44 -1428 255 -179 191 -162 461 36 582 85 52 94 49 162 -57z m-24 -823 c433 -214 1107 -239 1384 -51 l77 53 102 -47 c383 -177 512 -604 249 -825 -431 -363 -2001 -156 -2437 320 -203 223 -190 504 32 709 164 151 199 154 323 29 69 -69 164 -135 270 -188z m-638 -739 c590 -448 1852 -610 2438 -314 154 77 178 75 384 -39 652 -363 993 -1064 788 -1622 -58 -160 -60 -160 -160 -76 -761 642 -1873 924 -3048 775 -356 -45 -574 -41 -718 13 -539 205 -499 951 70 1278 134 77 124 77 246 -15z m-648 -1210 c196 -224 491 -270 1170 -185 1101 139 2214 -188 2960 -870 186 -170 186 -171 74 -265 -295 -246 -439 -615 -362 -923 21 -85 20 -91 -47 -174 -141 -177 -213 -342 -259 -594 l-23 -132 -26 186 c-212 1537 -1487 2399 -2842 1921 -1427 -503 -1968 -2260 -1066 -3459 1045 -1388 2992 -702 2916 1027 -54 1205 -1028 1891 -1891 1331 -823 -534 -692 -1874 198 -2038 622 -114 1035 666 605 1143 -244 270 -656 213 -745 -104 -68 -244 196 -479 358 -317 78 78 23 185 -57 112 -121 -109 -237 66 -153 229 128 247 529 106 623 -219 176 -605 -532 -968 -990 -508 -547 550 -196 1582 593 1744 1177 243 1830 -1663 893 -2606 -735 -739 -1973 -419 -2461 638 -572 1238 136 2675 1462 2968 1460 321 2658 -969 2420 -2608 -41 -283 -52 -311 -190 -474 -160 -189 -330 -447 -429 -652 l-79 -163 -91 -12 c-691 -93 -1098 -844 -830 -1534 36 -94 -603 4 -971 149 -1655 652 -2539 2359 -2059 3975 112 380 342 792 534 961 l89 78 -24 144 c-79 465 162 1029 529 1240 122 70 101 71 171 -9z m7125 -1209 c265 -117 411 -408 387 -771 l-12 -197 118 -127 c549 -587 414 -1356 -332 -1904 -143 -105 -142 -104 -85 -327 139 -545 131 -1012 -29 -1755 -50 -231 -65 -338 -52 -363 27 -50 196 -171 302 -217 108 -46 145 -87 145 -164 0 -142 -168 -189 -291 -82 -185 161 -330 131 -274 -55 48 -162 -51 -270 -205 -223 -89 26 -117 68 -117 179 0 178 -143 239 -290 122 -89 -71 -145 -75 -217 -19 -93 73 -70 199 47 259 150 76 180 137 180 360 l0 197 110 147 c266 351 521 1042 402 1088 -47 18 -48 16 -115 -215 -190 -655 -598 -1155 -1150 -1410 -267 -123 -321 -105 -397 138 -98 310 -111 621 -39 932 47 203 -32 225 -100 28 -97 -285 -84 -670 35 -1023 l64 -192 150 -74 c83 -40 182 -79 220 -86 154 -28 236 -104 212 -198 -29 -117 -151 -147 -282 -69 -132 77 -221 -13 -129 -130 109 -139 -26 -313 -189 -245 -53 22 -83 54 -117 126 -70 147 -227 185 -265 65 -24 -74 -113 -139 -191 -139 -163 0 -217 137 -113 290 80 118 71 170 -68 384 -355 549 -480 1032 -411 1593 22 181 -55 199 -101 23 -112 -425 -4 -976 294 -1505 l81 -145 -135 0 c-223 1 -698 118 -738 183 -7 11 6 40 27 63 471 517 196 1385 -511 1613 -169 54 -165 40 -66 236 142 283 564 803 793 977 l68 52 115 -104 c119 -107 320 -226 349 -208 41 25 10 82 -70 133 -539 340 -638 1042 -212 1503 l78 86 -31 148 c-175 841 932 1324 1414 616 78 -115 86 -121 145 -109 155 32 359 45 514 31 209 -18 203 -21 257 110 139 336 522 509 827 374z m-3575 -2152 c15 -72 46 -171 67 -221 l40 -89 -93 -90 c-111 -109 -107 -112 -83 54 10 73 21 214 24 312 3 98 8 176 11 172 4 -3 19 -65 34 -138z m3992 -1793 c446 -228 466 -776 44 -1193 -163 -162 -180 -197 -81 -177 36 7 83 13 105 13 38 0 335 -15 383 -20 111 -10 183 -182 116 -277 -97 -139 -562 -48 -817 160 l-57 47 71 329 c94 435 114 591 114 900 0 284 -2 281 122 218z m-4681 -11 c434 -127 690 -442 688 -848 -1 -475 -240 -737 -736 -808 -116 -16 -163 -31 -163 -51 0 -80 306 -65 522 25 l107 46 157 -76 c86 -42 200 -84 255 -94 155 -29 217 -143 128 -238 -49 -53 -98 -55 -224 -10 -121 43 -155 20 -119 -80 91 -253 -182 -334 -304 -90 -61 122 -232 120 -232 -3 0 -132 -89 -221 -221 -221 -91 0 -179 94 -179 191 0 126 -75 237 -333 492 -161 161 -266 283 -305 357 -391 732 218 1626 959 1408z"
       id="path1" />
    <path
       d="M9380 6648 c-90 -39 -180 -125 -180 -172 0 -52 65 -45 119 13 107 113 250 109 374 -12 104 -101 154 -17 54 90 -100 108 -236 138 -367 81z"
       id="path2" />
    <path
       d="M7150 6516 c-153 -53 -287 -227 -224 -290 24 -25 33 -25 51 -3 113 140 155 178 215 198 85 28 152 13 255 -54 51 -33 84 -44 97 -31 97 97 -218 241 -394 180z"
       id="path3" />
    <path
       d="M9388 6243 c-225 -105 -289 -411 -127 -607 223 -271 620 -111 619 248 -2 290 -251 472 -492 359z m305 -155 c31 -47 32 -58 5 -105 -44 -79 -146 -84 -184 -9 -69 135 96 240 179 114z"
       id="path4" />
    <path
       d="M7190 6092 c-207 -93 -291 -371 -175 -581 144 -259 492 -254 632 10 175 334 -131 716 -457 571z m311 -153 c61 -115 -46 -240 -149 -172 -60 39 -71 131 -21 182 46 45 143 40 170 -10z"
       id="path5" />
    <path
       d="M8824 5316 c-46 -46 -14 -136 49 -136 43 0 72 74 47 120 -24 45 -61 51 -96 16z"
       id="path6" />
    <path
       d="M8368 5271 c-22 -56 2 -101 55 -107 61 -7 88 39 56 97 -24 46 -95 52 -111 10z"
       id="path7" />
    <path
       d="M9162 4869 c-302 -189 -844 -201 -1159 -26 -116 64 -170 62 -159 -6 23 -154 625 -287 989 -218 233 44 517 193 517 271 0 62 -67 55 -188 -21z"
       id="path8" />
  </g>
  <path
     style="fill:#ff7f2a;stroke-width:1.63635"
     d="M 251.99849,688.11834 C 164.66736,670.53436 92.078019,596.61403 76.753647,509.66023 67.03777,454.53024 82.806719,389.93824 114.61825,354.56107 l 8.35405,-9.29042 -0.71338,-15.63945 c -0.86749,-19.01829 1.3786,-30.74425 8.68746,-45.35381 6.8822,-13.7567 15.2624,-23.67487 24.65419,-29.17883 l 7.23579,-4.24046 6.04361,5.30637 c 14.17963,12.44987 32.64845,15.33883 71.66404,11.20996 68.1191,-7.2088 126.22864,4.96242 174.66418,36.58395 14.32657,9.35323 37.24364,28.31847 37.24364,30.82134 0,0.82005 -4.23407,5.7396 -9.40904,10.93234 -15.52142,15.57475 -23.51996,36.89621 -20.3611,54.27593 1.36425,7.50598 1.11276,8.66849 -3.27976,15.16032 -9.39959,13.89196 -15.72783,29.10054 -16.20275,38.93987 -0.10859,2.24999 -1.55897,-2.80976 -3.22306,-11.24387 -11.14056,-56.46399 -40.10911,-97.03888 -83.60302,-117.09888 -33.42022,-15.41388 -70.26935,-16.23364 -108.46467,-2.41295 -44.63651,16.15137 -78.91586,53.90368 -92.8812,102.29128 -5.05419,17.51191 -5.42946,59.01778 -0.69382,76.73686 12.04452,45.06622 46.46929,83.88441 85.30176,96.18828 16.81673,5.32831 49.44722,5.21928 64.63597,-0.21595 34.84643,-12.46967 60.62827,-42.5701 68.10225,-79.50976 3.2182,-15.90578 2.35947,-49.14447 -1.6513,-63.91683 -13.14674,-48.42161 -52.18189,-78.5238 -92.48591,-71.32106 -39.14772,6.99608 -67.23721,41.467 -67.23721,82.51228 0,37.58988 25.37217,66.7948 58.26503,67.06663 34.16936,0.28239 55.96486,-38.90526 38.7126,-69.60409 -6.93291,-12.33646 -15.78059,-18.16554 -28.69351,-18.90403 -13.22812,-0.75652 -20.1636,2.84448 -25.52234,13.25152 -4.99201,9.69481 -3.80362,17.4661 3.83973,25.10946 6.5765,6.57649 12.48752,7.03936 18.10884,1.41803 4.42061,-4.42059 4.69904,-5.46097 2.42431,-9.05892 -1.3553,-2.14366 -2.0992,-2.11004 -6.14086,0.27743 -6.59694,3.89691 -10.26683,1.39692 -10.26683,-6.99393 0,-16.78126 19.21939,-19.86837 33.04936,-5.30856 13.62531,14.34436 12.3285,38.40464 -2.73939,50.82486 -16.0496,13.22943 -37.84664,10.67852 -54.36314,-6.36218 -32.96853,-34.01485 -14.2608,-96.33165 33.55976,-111.78994 13.41634,-4.33692 32.73328,-3.00691 45.31126,3.11978 21.07554,10.26581 37.84008,33.63455 45.19606,63.00053 2.87958,11.49561 3.32159,17.06309 2.66325,33.54525 -0.91698,22.95727 -4.34165,35.59192 -13.95821,51.49602 -21.90422,36.22568 -61.2024,52.89648 -100.81245,42.76593 -54.12288,-13.8423 -91.97005,-69.91468 -88.88516,-131.68759 1.63129,-32.66555 11.04007,-57.11431 32.2518,-83.80641 15.05619,-18.94617 45.98473,-38.73598 71.18139,-45.54583 13.40509,-3.62296 43.38668,-4.99713 57.06346,-2.61542 53.14844,9.2554 95.41281,53.28891 107.53757,112.03893 5.19609,25.17752 3.37027,70.17368 -3.36158,82.84364 -1.19547,2.24999 -4.91035,7.4045 -8.25529,11.45448 -9.14714,11.07512 -21.88576,30.62045 -27.88231,42.7808 -5.26654,10.68 -5.43793,10.83503 -12.96342,11.72632 -17.9714,2.12844 -39.0011,16.95531 -49.11086,34.62531 -9.50348,16.61037 -12.38764,39.51234 -7.39154,58.69363 1.34999,5.18297 2.45453,9.75582 2.45453,10.16192 0,1.64296 -16.42799,0.28477 -30.27254,-2.50281 z"
     id="path9"
     transform="scale(0.75)" />
  <path
     style="fill:#ff9955;stroke-width:1.63635"
     d="m 441.81553,309.03913 c -17.13696,-14.23707 -46.33138,-30.65756 -68.79202,-38.6923 -18.702,-6.69016 -47.56051,-12.43877 -72.84422,-14.51054 -20.09183,-1.64635 -28.05158,-1.52696 -53.08986,0.79629 -36.42738,3.38003 -43.77611,3.40242 -54.67228,0.16661 -10.33317,-3.06863 -21.61458,-13.4793 -24.68356,-22.77842 -3.0611,-9.27519 -1.33709,-26.17414 3.67822,-36.05436 4.6577,-9.17575 17.72688,-22.25371 26.34633,-26.36404 l 5.65712,-2.69769 11.32181,7.52672 c 30.07417,19.99327 82.79752,31.73713 122.74673,27.34123 17.01874,-1.8727 25.90546,-4.14198 38.6269,-9.8636 l 7.9311,-3.5671 10.52802,5.18293 c 26.38226,12.98794 47.86833,37.33055 56.98579,64.562 3.62914,10.83926 3.65197,31.00545 0.0477,42.11129 -1.55453,4.78999 -3.2882,9.20638 -3.85256,9.8142 -0.56437,0.60783 -3.23521,-0.73013 -5.93519,-2.97322 z"
     id="path10"
     transform="scale(0.75)" />
  <path
     style="fill:#ff9955;stroke-width:0.902179"
     d="m 304.03435,192.92957 c -38.58563,-4.52628 -67.39905,-13.61403 -84.80483,-26.74741 -19.20069,-14.48772 -21.40254,-36.03346 -5.29002,-51.76432 5.92298,-5.78268 9.87735,-8.40365 12.68616,-8.40843 1.09068,-0.002 4.4849,2.12803 7.5427,4.73307 8.58457,7.31349 13.31038,10.4937 21.14832,14.23166 14.71201,7.01625 33.36256,10.78953 53.37475,10.79849 17.43705,0.008 30.70438,-3.03943 38.81563,-8.91519 l 3.51551,-2.54663 4.80231,2.11939 c 23.96824,10.57785 34.40658,35.39731 21.68755,51.56694 -7.98887,10.1562 -28.05498,15.6342 -56.33668,15.37978 -7.93917,-0.0714 -15.6528,-0.27273 -17.1414,-0.44735 z"
     id="path11"
     transform="scale(0.75)" />
  <path
     style="fill:#ffb380;stroke-width:0.902179"
     d="m 292.51926,124.92566 c -28.1718,-4.4113 -48.92355,-15.51511 -55.59143,-29.745767 -4.65765,-9.940417 -2.70377,-20.171654 5.21918,-27.329561 5.20069,-4.698515 7.98134,-5.209747 10.37741,-1.907921 5.71415,7.874227 7.81998,10.072227 12.92956,13.495504 8.71022,5.835598 18.40592,8.713403 31.06867,9.221567 8.92191,0.358042 11.48353,0.133597 16.75723,-1.468239 3.42394,-1.039989 7.73569,-2.915838 9.58167,-4.168552 4.19415,-2.84623 4.5366,-2.834605 10.04253,0.340883 16.84672,9.716181 19.90287,26.880966 6.3521,35.676396 -6.92609,4.49554 -14.10867,6.11645 -28.45549,6.42163 -7.19487,0.15305 -15.42152,-0.0881 -18.28143,-0.53594 z"
     id="path12"
     transform="scale(0.75)" />
  <path
     style="fill:#ffb380;stroke-width:0.902179"
     d="m 290.51918,78.936236 c -11.37527,-2.044698 -22.69465,-8.098195 -27.14151,-14.515022 -3.53706,-5.103977 -4.09109,-12.633405 -1.34673,-18.302488 4.01065,-8.284906 13.62135,-14.381417 22.68206,-14.38828 12.04174,-0.0091 21.08189,11.045583 14.00833,17.130007 -2.7297,2.347992 -8.8275,2.923285 -10.43986,0.984941 -0.51594,-0.620248 -1.69746,-2.122225 -2.6256,-3.337726 -1.61572,-2.115962 -1.78354,-2.147095 -3.9438,-0.731638 -2.639,1.729141 -3.54783,5.195003 -2.12509,8.104168 2.85295,5.833627 16.45828,7.603271 24.07554,3.131505 2.27649,-1.336428 5.11836,-2.428351 6.31526,-2.426496 5.10262,0.0079 11.6385,6.697234 11.64569,11.919108 0.004,3.245389 -4.83052,8.672851 -9.60922,10.786726 -4.4316,1.960331 -15.16959,2.782198 -21.49507,1.645195 z"
     id="path13"
     transform="scale(0.75)" />
  <path
     style="fill:#ffffff;stroke-width:1.33753"
     d="m 514.62184,759.67073 c -2.2837,-0.96021 -5.21006,-3.4492 -6.50303,-5.53107 -1.29299,-2.08188 -3.85858,-5.44042 -5.70132,-7.46344 -5.4093,-5.93847 -13.19814,-4.42108 -15.56367,3.03204 -0.99202,3.12558 -7.18756,6.66506 -11.66658,6.66506 -4.89086,0 -9.05797,-3.6525 -9.05797,-7.93939 0,-2.07632 1.55722,-7.17655 3.46049,-11.33383 4.25104,-9.28549 4.1324,-9.70813 -8.74129,-31.14041 -5.21787,-8.68676 -11.83358,-21.813 -14.7016,-29.16942 -8.10943,-20.80059 -9.83149,-31.08118 -9.68994,-57.84818 0.10419,-19.70135 -0.17198,-23.07239 -1.8902,-23.07239 -5.65175,0 -9.85894,25.24879 -7.52371,45.15239 2.61969,22.3282 7.35064,35.63928 25.42882,71.54711 0.86244,1.71302 -15.01087,1.10304 -25.9974,-0.99904 -13.6535,-2.61234 -27.23416,-7.17426 -28.10376,-9.44041 -0.37944,-0.98881 1.13945,-4.08525 3.37533,-6.881 8.07316,-10.09473 11.39762,-19.74215 11.98516,-34.78035 0.64272,-16.45085 -2.19594,-27.57454 -10.18464,-39.90994 -9.45337,-14.59701 -27.82521,-28.1676 -43.43825,-32.08623 -4.54577,-1.14091 -4.56948,-2.92753 -0.15445,-11.64018 9.44384,-18.63651 36.36191,-52.77819 50.46436,-64.00671 l 6.54529,-5.21145 6.19185,5.10969 c 9.87029,8.14522 18.44963,13.57167 22.84784,14.45131 3.50428,0.70086 4.07574,0.42256 4.07574,-1.98492 0,-1.82639 -2.44175,-4.60669 -7.02204,-7.99563 -25.59775,-18.93971 -35.98834,-46.15893 -27.77349,-72.75552 2.83243,-9.17035 10.71072,-22.3402 16.59414,-27.73982 2.86897,-2.63305 3.41215,-4.04899 2.73536,-7.13041 -5.12526,-23.33514 -1.31414,-40.41961 11.98281,-53.71657 7.57632,-7.57631 15.71339,-12.19485 26.23366,-14.89002 21.3124,-5.45998 39.56654,2.56427 56.22056,24.71375 l 3.40055,4.52266 9.30599,-1.62926 c 5.11828,-0.8961 15.92676,-1.51588 24.01882,-1.37731 8.09205,0.13858 15.73538,0.18631 16.98519,0.10608 1.40928,-0.0905 3.81352,-3.37513 6.3301,-8.64813 7.39595,-15.49683 20.8136,-24.9214 36.98426,-25.97776 10.93848,-0.71457 18.08488,1.73494 26.42461,9.05731 11.04368,9.69648 15.7328,22.98508 15.45028,43.78481 l -0.18584,13.68076 8.82423,10.39478 c 15.50756,18.2676 21.89089,35.24711 20.50141,54.53328 -1.76606,24.51315 -14.9785,46.54518 -39.79821,66.3643 l -12.22029,9.75821 0.71529,6.07724 c 0.39342,3.34249 2.10156,12.09613 3.79591,19.45255 2.72349,11.82474 3.07194,16.70901 3.00583,42.1322 -0.0666,25.6016 -0.47322,30.8115 -3.70596,47.48232 -1.99715,10.29898 -4.55417,23.76227 -5.68227,29.91842 l -2.05111,11.193 3.77672,3.99606 c 2.0772,2.19784 8.47372,6.74078 14.2145,10.09541 13.41059,7.83654 15.88944,12.097 10.29394,17.6925 -3.97795,3.97795 -10.67069,3.46917 -16.62652,-1.26394 -6.67664,-5.30592 -13.13998,-7.38877 -16.81877,-5.41995 -2.58445,1.38315 -2.74035,2.24367 -1.91821,10.58717 0.829,8.41304 0.66202,9.30069 -2.26814,12.05696 -2.43201,2.28769 -4.20603,2.8097 -7.6759,2.25866 -6.50092,-1.03238 -9.07744,-4.02099 -10.09781,-11.71282 -1.73519,-13.08048 -9.61781,-16.28511 -20.87253,-8.48558 -7.22091,5.00409 -12.07649,4.28353 -15.47946,-2.29709 -1.83361,-3.5458 -1.8335,-4.2735 10e-4,-7.07343 1.12473,-1.71655 4.62476,-4.85232 7.77786,-6.96838 7.6131,-5.10917 9.16064,-8.84067 10.04862,-24.22972 l 0.74779,-12.95938 7.08563,-9.75557 c 19.36016,-26.65525 35.22506,-73.88443 24.26582,-72.23833 -2.16349,0.32496 -3.68028,3.45452 -7.70872,15.90536 -11.23746,34.73198 -28.76183,60.55392 -53.45057,78.75879 -9.04192,6.66729 -23.75177,14.52799 -32.48596,17.35995 -6.89102,2.23433 -10.60641,-0.32852 -14.13034,-9.74706 -6.584,-17.59732 -8.3882,-39.53452 -4.85827,-59.07151 2.61528,-14.4746 2.54487,-16.71913 -0.5244,-16.71913 -5.93203,0 -11.86587,25.67801 -10.30736,44.60394 1.08803,13.21269 2.74995,21.39528 7.15794,35.24287 l 3.49009,10.96398 10.20884,4.66659 c 5.61487,2.56663 11.97146,5.09043 14.12577,5.60845 4.99749,1.20172 11.65434,4.51737 12.92476,6.43759 1.80772,2.73235 1.04963,8.40357 -1.42237,10.6407 -3.07225,2.78036 -8.52972,2.83149 -13.75596,0.12891 -5.36178,-2.77269 -12.37705,-2.08145 -13.01513,1.28242 -0.26515,1.39785 0.84228,5.19336 2.46098,8.43447 2.52013,5.0461 2.71383,6.44629 1.34797,9.74378 -2.09108,5.0483 -7.49969,6.97585 -13.03875,4.64685 z m 85.14359,-270.00564 c 12.26936,-4.15102 24.1924,-11.82274 24.1924,-15.56628 0,-4.60202 -3.78743,-4.4835 -13.13057,0.41091 -24.08831,12.61866 -51.04841,13.52028 -75.96999,2.5406 -9.44833,-4.16263 -12.55173,-4.21124 -12.55173,-0.1966 0,6.10758 15.72096,13.3237 34.85681,15.99972 13.76942,1.92556 31.38405,0.60731 42.60308,-3.18835 z m -35.43709,-33.7104 c 2.65111,-1.01732 2.76009,-6.35096 0.17365,-8.49752 -4.68121,-3.88506 -9.98081,2.60669 -6.02204,7.37671 1.7743,2.1379 2.72375,2.31985 5.84839,1.12081 z m 29.93632,-2.1307 c 4.04695,-4.04695 -0.23039,-12.45125 -4.86034,-9.54981 -2.80529,1.75798 -3.60572,6.68338 -1.49871,9.22217 1.95274,2.35291 4.21712,2.46958 6.35905,0.32764 z m -92.217,-12.15128 c 11.51734,-7.62181 15.02207,-25.60346 7.41423,-38.04009 -11.4908,-18.78417 -37.3281,-15.19156 -44.48544,6.18559 -7.99302,23.87312 16.86056,45.22928 37.07121,31.8545 z m 143.21555,-9.98692 c 2.52244,-1.28623 6.43471,-4.65155 8.69395,-7.47849 3.83616,-4.80013 4.10769,-5.86757 4.10769,-16.14804 0,-9.76563 -0.41453,-11.63454 -3.6725,-16.55768 -4.63236,-6.99996 -10.5146,-10.13028 -19.11996,-10.17494 -8.42961,-0.0438 -14.55736,3.35377 -19.99,11.08346 -3.52948,5.02185 -4.0311,6.87195 -4.0311,14.86784 0,7.98119 0.50802,9.86331 4.03049,14.932 7.22445,10.39575 20.15978,14.48405 29.98143,9.47585 z m -174.6051,-51.60915 c 8.84125,-9.20159 12.30053,-9.93765 23.14895,-4.92557 7.27591,3.36153 8.4868,3.58227 9.95391,1.81451 4.02447,-4.84917 -8.17699,-12.48861 -19.94638,-12.48861 -7.88437,0 -11.11389,1.25261 -16.80158,6.5167 -5.62921,5.20995 -7.96899,10.30415 -6.2274,13.55834 0.78385,1.46464 1.7826,2.66298 2.21944,2.66298 0.43684,0 3.88072,-3.21226 7.65306,-7.13835 z m 152.17446,-12.92461 c 7.39136,-5.35428 13.57357,-5.36544 20.61556,-0.0372 6.45914,4.88724 9.93536,5.22605 9.93536,0.96836 0,-4.18447 -7.49467,-11.06419 -13.95038,-12.80573 -10.15983,-2.74078 -26.17552,4.99355 -26.17552,12.64073 0,4.37274 2.78902,4.14958 9.57498,-0.76615 z"
     id="path14"
     transform="scale(0.75)" />
  <path
     style="fill:#ffffff;stroke-width:1.33753"
     d="m 344.07961,758.94123 c -2.95558,-1.72147 -6.35324,-8.19815 -6.35324,-12.11068 0,-6.22077 -5.94251,-14.71691 -22.6801,-32.42621 -19.19211,-20.30632 -22.99773,-26.51779 -26.36586,-43.03394 -1.80788,-8.86525 -1.90752,-12.23906 -0.60975,-20.64522 3.25531,-21.0859 16.3719,-40.11119 33.45396,-48.52411 26.66929,-13.13464 64.19682,1.12916 77.46613,29.44402 3.31342,7.07036 3.60583,9.05019 3.60583,24.41346 0,15.60395 -0.2498,17.22787 -3.74519,24.34621 -7.19916,14.66106 -20.19661,23.03662 -42.36817,27.30206 -11.62439,2.23634 -13.94336,3.79055 -10.0629,6.74432 3.65533,2.78241 17.9742,1.45058 30.8407,-2.86857 l 9.75947,-3.27614 9.84446,4.54842 c 5.41445,2.50163 12.63137,5.25017 16.03761,6.10787 7.90161,1.98965 12.41678,6.5366 11.2212,11.3002 -1.28079,5.10307 -6.2757,6.9252 -13.60792,4.96413 -11.7607,-3.14551 -13.44154,-2.0992 -11.04175,6.87332 2.08859,7.80903 -0.71471,12.93542 -7.07357,12.93542 -3.92292,0 -7.29317,-2.72819 -15.28389,-12.37216 -1.1647,-1.40567 -3.79061,-2.34067 -6.57371,-2.34067 -5.13613,0 -6.50669,1.6626 -7.94592,9.63913 -1.51526,8.39782 -11.33786,13.16083 -18.51739,8.97914 z"
     id="path15"
     transform="scale(0.75)" />
  <path
     style="fill:#ffffff;stroke-width:0.793985"
     d="m 686.00335,710.67642 c -10.93729,-2.12788 -23.17592,-7.49905 -30.69425,-13.4708 l -4.49274,-3.56854 1.93124,-8.92945 c 8.36837,-38.6927 9.61052,-47.21469 10.35001,-71.00782 0.44244,-14.23559 0.73826,-17.24659 1.73186,-17.62787 2.18136,-0.83706 11.45034,4.70622 16.89396,10.1034 10.72773,10.63617 14.17649,23.92294 10.22244,39.38314 -2.99432,11.70768 -8.13284,19.99944 -20.64482,33.31345 -6.89885,7.34108 -8.74077,10.75915 -5.74282,10.65703 0.76421,-0.026 3.17594,-0.34527 5.3594,-0.70941 6.27577,-1.04664 30.4505,0.54152 33.26343,2.18524 4.5642,2.66707 6.97137,10.9326 4.51861,15.51562 -2.40261,4.48932 -11.97427,6.24203 -22.69632,4.15601 z"
     id="path16"
     transform="scale(0.75)" />
  <path
     style="fill:#ffffff;stroke-width:0.25845"
     d="m 637.23437,404.43859 c -0.81917,-0.40821 -1.66443,-1.09209 -2.10995,-1.70711 -3.35013,-4.62472 -1.7286,-10.51788 3.29665,-11.98107 3.11356,-0.90656 6.34484,0.93296 8.45759,4.81477 1.00567,1.84774 0.96267,2.90181 -0.20344,4.987 -2.23806,4.00202 -6.05538,5.57346 -9.44085,3.88641 z"
     id="path17"
     transform="scale(0.75)" />
  <path
     style="fill:#ffffff;stroke-width:0.243738"
     d="m 491.8862,416.28656 c -2.06713,-0.75746 -4.05198,-2.86731 -4.7703,-5.07073 -0.19042,-0.58409 -0.2678,-1.70875 -0.20279,-2.9473 0.0846,-1.61154 0.23275,-2.22059 0.75846,-3.11764 1.4292,-2.43875 3.63708,-3.59521 6.85539,-3.59076 4.14134,0.006 6.56554,2.71719 6.53102,7.30496 -0.0395,5.25561 -4.72837,9.04965 -9.17178,7.42147 z"
     id="path18"
     transform="scale(0.75)" />
</svg>
