<?xml version="1.0" encoding="UTF-8" standalone="no"?>
<svg
   version="1.0"
   width="600.000000pt"
   height="428.000000pt"
   viewBox="0 0 600.000000 428.000000"
   preserveAspectRatio="xMidYMid meet"
   id="svg18"
   sodipodi:docname="frog13_t2.svg"
   inkscape:version="1.4.3 (0d15f75, 2025-12-25)"
   xmlns:inkscape="http://www.inkscape.org/namespaces/inkscape"
   xmlns:sodipodi="http://sodipodi.sourceforge.net/DTD/sodipodi-0.dtd"
   xmlns="http://www.w3.org/2000/svg"
   xmlns:svg="http://www.w3.org/2000/svg">
  <defs
     id="defs18" />
  <sodipodi:namedview
     id="namedview18"
     pagecolor="#505050"
     bordercolor="#ffffff"
     borderopacity="1"
     inkscape:showpageshadow="0"
     inkscape:pageopacity="0"
     inkscape:pagecheckerboard="1"
     inkscape:deskcolor="#505050"
     inkscape:document-units="pt"
     inkscape:zoom="0.85837547"
     inkscape:cx="704.81977"
     inkscape:cy="458.4241"
     inkscape:window-width="1920"
     inkscape:window-height="1022"
     inkscape:window-x="0"
     inkscape:window-y="30"
     inkscape:window-maximized="1"
     inkscape:current-layer="svg18" />
  <g
     transform="translate(0.000000,428.000000) scale(0.050000,-0.050000)"
     fill="#000000"
     stroke="none"
     id="g18">
    <path
       d="M6006 8318 c-122 -47 -280 -182 -359 -308 -67 -106 -99 -111 -178 -29 -433 452 -1106 292 -1335 -319 l-45 -119 -90 55 c-524 326 -1117 -3 -1119 -620 l0 -93 -91 -10 c-50 -6 -109 -27 -132 -48 -26 -23 -98 -45 -198 -59 -326 -47 -519 -266 -519 -589 l0 -94 -90 -10 c-174 -20 -349 -205 -350 -371 0 -25 -15 -50 -35 -56 -368 -117 -575 -548 -440 -917 l29 -80 -133 -93 c-704 -495 -945 -1510 -569 -2403 l52 -123 -56 -161 c-167 -476 32 -1031 370 -1031 107 0 212 56 246 130 21 48 56 68 56 33 0 -32 209 -227 286 -266 223 -114 514 -15 514 173 0 38 -5 39 189 -31 244 -87 439 27 434 255 -1 47 1 86 4 86 4 0 75 -39 160 -88 161 -91 528 -224 677 -244 78 -11 92 -21 141 -110 71 -126 184 -206 376 -267 85 -27 235 -85 334 -130 452 -203 754 -171 830 89 l26 88 82 -37 c338 -152 671 -58 671 189 0 68 2 70 75 70 47 0 103 19 148 49 72 49 75 50 298 28 453 -43 1211 3 1721 105 208 42 221 43 366 11 82 -18 215 -33 295 -33 129 0 151 -6 192 -49 58 -62 158 -96 255 -88 70 6 75 3 88 -59 44 -214 309 -260 610 -104 l145 75 12 -67 c47 -248 419 -237 784 23 70 50 177 113 237 140 185 82 318 228 358 396 8 31 48 103 91 160 692 928 584 2575 -213 3239 -118 99 -142 131 -181 239 -25 69 -80 171 -122 226 -70 93 -78 115 -90 270 -32 416 -197 747 -496 991 -131 107 -155 159 -156 338 -6 624 -446 989 -986 817 l-95 -30 -77 60 c-113 90 -355 214 -506 260 -111 34 -149 58 -230 145 -252 271 -596 290 -864 48 -81 -73 -82 -73 -187 -52 -58 11 -165 26 -237 33 -128 13 -134 15 -200 105 -195 262 -502 366 -773 262z m440 -118 c94 -47 246 -191 291 -274 30 -56 8 -63 -266 -88 -276 -25 -316 -33 -299 -61 20 -32 430 -7 568 35 206 62 584 11 539 -73 -46 -88 80 -191 256 -210 l95 -10 -129 62 c-212 100 -216 127 -35 293 257 237 565 204 769 -80 121 -169 67 -253 -164 -254 -72 -1 -110 -39 -41 -42 249 -9 400 54 362 154 -26 68 243 -28 448 -161 160 -103 158 -98 79 -190 -52 -62 -77 -121 -49 -121 5 0 65 40 132 90 495 365 1006 74 1057 -602 20 -260 34 -294 165 -398 575 -453 644 -1302 151 -1840 -161 -177 -95 -172 83 6 146 147 244 316 287 499 29 126 46 124 128 -11 161 -267 167 -605 18 -1014 -10 -28 1 -22 38 20 83 97 137 261 149 460 l12 180 106 -99 c711 -662 774 -2211 124 -3066 -44 -58 -80 -117 -80 -130 -3 -124 -132 -281 -300 -364 -71 -35 -206 -115 -300 -178 -448 -303 -790 -161 -479 198 122 141 65 133 -136 -20 -366 -276 -631 -342 -736 -182 -65 98 42 241 321 432 75 51 91 70 64 75 -61 12 -254 -96 -371 -208 -154 -148 -320 -173 -394 -59 -90 137 94 321 488 490 267 114 303 144 303 253 0 414 263 836 677 1088 267 162 238 187 -54 47 -95 -46 -196 -118 -287 -204 l-141 -133 14 90 c42 273 136 467 398 823 185 251 283 414 260 436 -6 6 -26 -10 -43 -36 -18 -26 -86 -115 -153 -198 -249 -309 -313 -399 -390 -546 -87 -167 -151 -381 -172 -575 -7 -70 -43 -200 -79 -290 -59 -148 -83 -243 -120 -478 -13 -84 -72 -135 -200 -175 -44 -14 -210 -84 -368 -155 -752 -338 -1588 -491 -2503 -459 -454 16 -479 21 -479 96 0 203 -245 398 -590 470 -199 42 -216 57 -257 233 -20 83 -67 216 -106 297 l-70 146 24 169 c82 577 -205 1184 -668 1413 -157 77 -285 92 -156 18 502 -289 745 -684 746 -1214 0 -294 -3 -297 -144 -169 -137 124 -293 209 -454 246 -102 24 -179 18 -106 -8 474 -168 881 -666 881 -1079 0 -54 96 -102 290 -144 388 -84 651 -363 475 -501 -84 -67 -199 -47 -314 55 -110 97 -298 189 -366 181 -42 -5 -30 -17 81 -82 288 -167 394 -373 248 -482 -129 -95 -514 -9 -694 156 -194 178 -338 204 -157 29 185 -179 206 -310 61 -385 -148 -76 -278 -59 -594 79 -113 49 -263 107 -333 128 -178 55 -305 144 -355 248 -31 62 -76 107 -177 172 -551 359 -871 946 -871 1601 0 554 178 884 613 1136 166 97 169 134 6 78 -886 -302 -964 -1746 -140 -2590 227 -232 222 -242 -60 -124 -288 120 -360 176 -364 284 -7 165 -117 309 -364 475 -143 96 -143 97 -73 163 260 242 339 968 164 1518 -119 377 -366 662 -640 741 -97 28 -77 -10 35 -69 697 -365 854 -1984 219 -2245 -105 -43 -115 -67 -27 -67 181 0 598 -348 597 -498 -1 -100 -33 -119 -92 -55 -72 77 -226 173 -277 173 -30 0 -7 -30 95 -122 203 -183 250 -319 145 -417 -112 -105 -445 6 -525 175 -42 89 -190 241 -202 207 -4 -13 21 -68 56 -123 171 -267 127 -480 -100 -480 -149 0 -343 153 -509 401 -122 181 -148 187 -110 24 48 -210 -128 -338 -301 -220 -215 147 -276 585 -129 914 l54 121 -61 145 c-353 837 -179 1761 422 2230 176 137 225 165 292 165 71 0 122 18 122 42 0 10 -25 18 -56 18 -118 0 -192 368 -115 569 117 308 454 460 756 341 26 -11 35 -4 35 23 0 43 138 256 154 239 40 -39 182 103 560 558 259 312 295 344 338 301 41 -42 101 -30 210 42 118 79 110 116 -10 46 -252 -149 -261 425 -11 709 189 216 580 223 836 17 l47 -38 -127 -91 c-159 -114 -391 -327 -375 -345 7 -7 84 40 170 104 196 145 342 245 357 245 47 0 5 -207 -59 -291 -95 -125 -88 -146 19 -59 88 72 89 72 152 39 134 -69 439 -30 665 84 141 72 103 78 -89 15 -191 -62 -512 -81 -561 -32 -37 37 -30 308 12 452 192 652 835 781 1282 258 91 -107 76 -145 -129 -328 -150 -134 -165 -161 -58 -107 193 98 330 265 309 378 l-13 67 76 -27 c84 -30 320 -38 362 -11 33 21 -34 41 -139 42 -239 1 -252 51 -63 239 206 205 395 249 611 141z m-3598 -1481 c-54 -54 -67 -59 -117 -39 -84 32 -19 100 97 100 l81 0 -61 -61z m-186 -82 c37 -13 71 -26 75 -29 11 -8 -482 -608 -564 -686 l-72 -68 -21 57 c-166 435 178 863 582 726z m-680 -724 c14 -51 -26 -138 -130 -286 -4 -6 -241 35 -248 43 -16 16 43 162 83 208 101 112 270 133 295 35z m6838 -4778 c-38 -84 -39 -85 -154 -91 -245 -13 -278 13 -96 76 88 30 183 65 210 76 78 33 80 29 40 -61z"
       id="path1" />
    <path
       d="M6350 7330 c-55 -16 -106 -29 -113 -29 -51 -4 -271 -184 -346 -284 -154 -205 -117 -227 74 -44 360 345 722 378 1052 95 95 -81 121 -80 76 5 -116 223 -450 338 -743 257z"
       id="path2" />
    <path
       d="M9399 7089 c-321 -99 -449 -602 -234 -921 181 -269 551 -269 730 -1 290 435 -46 1061 -496 922z m251 -87 c210 -96 322 -340 271 -589 -74 -356 -421 -495 -645 -260 -333 351 -31 1035 374 849z"
       id="path3" />
    <path
       d="M9424 6828 c-271 -137 -189 -618 106 -618 165 0 287 166 265 362 -23 201 -215 334 -371 256z m248 -119 c44 -66 12 -149 -58 -149 -60 0 -94 36 -94 100 0 104 96 135 152 49z"
       id="path4" />
    <path
       d="M6390 6942 c-671 -176 -569 -1209 119 -1211 510 -1 773 579 453 1001 -123 163 -385 259 -572 210z m320 -110 c479 -226 388 -964 -126 -1025 -404 -48 -695 360 -534 746 112 268 414 396 660 279z"
       id="path5" />
    <path
       d="M6432 6680 c-199 -62 -296 -331 -188 -523 124 -220 439 -226 565 -10 160 272 -88 624 -377 533z m299 -149 c64 -97 -28 -204 -122 -142 -54 35 -67 125 -25 167 40 40 113 28 147 -25z"
       id="path6" />
    <path
       d="M3730 6672 c-252 -110 -252 -432 0 -432 200 0 370 157 341 313 -24 124 -194 183 -341 119z m245 -77 c46 -36 29 -143 -30 -199 -114 -106 -234 -127 -307 -54 -135 135 183 374 337 253z"
       id="path7" />
    <path
       d="M2936 6299 c-173 -91 -250 -307 -147 -410 106 -106 362 -20 455 153 112 209 -86 374 -308 257z m255 -87 c57 -88 -25 -218 -180 -283 -154 -64 -250 24 -177 165 80 155 287 223 357 118z"
       id="path8" />
    <path
       d="M8764 5998 c-49 -19 -113 -145 -96 -190 18 -47 86 -31 140 34 83 98 56 194 -44 156z"
       id="path9" />
    <path
       d="M7780 5950 c-38 -45 -7 -127 66 -171 79 -48 107 -49 132 -3 52 97 -129 257 -198 174z"
       id="path10" />
    <path
       d="M2609 5573 c-224 -101 -232 -393 -12 -393 142 0 273 124 269 255 -4 125 -131 194 -257 138z m167 -77 c47 -47 27 -129 -47 -194 -114 -100 -229 -78 -229 44 0 119 199 227 276 150z"
       id="path11" />
    <path
       d="M5580 5533 c0 -115 267 -354 550 -494 497 -245 944 -261 1730 -63 l370 93 360 -1 c198 -1 504 -5 680 -10 458 -12 758 106 881 345 76 146 11 153 -113 12 -209 -239 -561 -325 -1028 -252 -355 55 -763 20 -1215 -105 -884 -245 -1705 -83 -2078 411 -64 86 -137 120 -137 64z"
       id="path12" />
    <path
       d="M1800 5179 c-64 -107 -175 -255 -265 -350 -168 -178 -185 -206 -100 -161 139 73 348 324 437 525 84 191 44 183 -72 -14z"
       id="path13" />
    <path
       d="M4400 4373 c0 -6 63 -48 141 -93 289 -170 511 -434 720 -861 92 -189 101 -200 90 -120 -46 325 -439 884 -716 1018 -93 45 -235 79 -235 56z"
       id="path14" />
    <path
       d="M9629 4142 c-664 -467 -1694 -596 -2545 -319 -218 71 -250 64 -101 -22 707 -408 2394 -167 2791 398 45 64 5 49 -145 -57z"
       id="path15" />
    <path
       d="M10125 4010 c-9 -16 -109 -129 -222 -250 -113 -121 -200 -220 -193 -220 80 0 410 336 456 465 15 43 -17 47 -41 5z"
       id="path16" />
    <path
       d="M5658 3743 c78 -145 424 -386 685 -477 213 -74 231 -45 31 49 -235 111 -385 204 -559 346 -151 124 -190 144 -157 82z"
       id="path17" />
    <path
       d="M8834 3026 c-596 -245 -1142 -272 -1674 -83 -93 33 -188 65 -210 70 l-40 10 40 -34 c391 -329 1318 -337 1930 -16 301 158 277 186 -46 53z"
       id="path18" />
  </g>
  <path
     style="fill:#ffffff;stroke-width:0.909091"
     d="m 296.36364,545.0934 c -3,-0.87738 -12.61364,-4.4771 -21.36364,-7.99936 -8.75,-3.52228 -17.95455,-7.07419 -20.45455,-7.89317 -9.82683,-3.21916 -14.98448,-7.28365 -22.55079,-17.77115 -1.65942,-2.30009 -6.79138,-6.78012 -11.97589,-10.45455 -28.47703,-20.18261 -46.09596,-46.37973 -53.41225,-79.41729 -2.57101,-11.60968 -2.80062,-39.57363 -0.4105,-49.99498 2.10358,-9.17202 6.00598,-18.85233 10.17893,-25.24991 4.7596,-7.29697 15.0843,-17.24175 23.071,-22.22208 9.6741,-6.03256 13.73587,-8.99129 13.73587,-10.0057 0,-2.86583 -13.55057,1.60074 -22.46289,7.40427 -6.86774,4.47214 -16.88714,14.93993 -21.09789,22.04208 -4.06623,6.85839 -8.61278,19.09156 -10.68186,28.74117 -2.2262,10.38232 -2.23249,33.41497 -0.0123,45 5.27126,27.50555 17.13281,50.21692 37.96456,72.69094 5.07958,5.48003 8.80621,10.1068 8.28142,10.28174 -2.65661,0.88554 -30.43806,-12.09758 -34.06286,-15.91861 -1.85799,-1.95857 -2.76982,-4.17489 -3.44663,-8.37747 -1.80895,-11.2326 -6.59794,-17.66972 -21.34536,-28.69133 -5.72491,-4.27855 -10.40893,-8.21545 -10.40893,-8.74866 0,-0.5332 1.84137,-3.01752 4.09195,-5.52069 19.81446,-22.03846 20.95872,-82.15208 2.22556,-116.91958 -9.19398,-17.06341 -24.38005,-30.59864 -36.54478,-32.5721 -5.38224,-0.87314 -4.1777,0.99503 4.09091,6.34476 4.125,2.66884 10.05352,7.59179 13.17449,10.93988 26.65793,28.59786 35.11343,91.26191 16.46596,122.03008 -4.0359,6.6592 -8.19645,10.52642 -15.77682,14.66451 -3.5,1.91064 -6.36363,3.87375 -6.36363,4.36247 0,0.48873 2.05408,1.13933 4.56462,1.44578 9.75422,1.19063 26.39444,12.63878 34.6827,23.86101 3.21427,4.3521 3.9345,6.04801 3.9345,9.26453 0,2.16549 -0.41868,4.19601 -0.9304,4.51226 -0.51171,0.31627 -2.93117,-1.10012 -5.37657,-3.14753 -5.61873,-4.70427 -14.44339,-10.04745 -16.5941,-10.04745 -3.08182,0 -1.64995,2.3051 6.42388,10.34153 9.25182,9.20895 12.41474,14.51165 11.6108,19.46572 -0.86504,5.33067 -4.07883,7.76828 -10.79149,8.18515 -10.83952,0.67317 -20.64839,-4.73332 -27.52496,-15.17129 -2.2833,-3.46584 -5.77516,-7.76843 -7.75966,-9.56132 -6.94935,-6.27831 -7.18425,-3.68502 -0.74773,8.25469 3.99,7.40143 4.73877,9.58273 5.12042,14.91675 0.34532,4.82646 0.10748,6.76581 -1.04561,8.52565 -2.12619,3.24497 -6.55421,5.25291 -11.58403,5.25291 -9.295201,0 -19.410559,-7.65636 -31.550354,-23.8806 -10.757091,-14.37632 -12.525061,-15.02912 -10.101823,-3.72995 1.253217,5.84354 -0.02038,10.69995 -3.740296,14.26224 -2.360832,2.2608 -3.510152,2.6735 -7.289494,2.61752 -5.796814,-0.0858 -11.072282,-3.7272 -15.197324,-10.48982 -4.943835,-8.10496 -6.106294,-13.30125 -6.078402,-27.171 0.02633,-13.0916 0.759746,-16.70327 5.567368,-27.41607 l 2.500489,-5.57183 -2.117059,-5.5515 c -5.294412,-13.88338 -9.272257,-26.25395 -10.995588,-34.19482 -2.406595,-11.08926 -3.372419,-34.56199 -1.88083,-45.71041 4.280968,-31.99677 18.424456,-57.3206 42.064492,-75.31623 8.303649,-6.32103 13.550616,-8.91854 18.071785,-8.94644 3.662636,-0.0226 6.911986,-1.94702 5.940807,-3.51842 -0.355896,-0.57585 -1.609302,-1.047 -2.785346,-1.047 -6.241614,0 -11.483742,-16.47938 -9.563525,-30.06432 2.984121,-21.11171 24.86374,-36.35883 45.12129,-31.4434 8.40122,2.03852 9.09675,1.96301 9.69996,-1.05307 0.28169,-1.40844 2.276,-5.19253 4.43181,-8.40909 3.10609,-4.6344 4.46671,-5.91072 6.55522,-6.14904 3.4596,-0.39476 14.60465,-11.89142 35.33067,-36.44529 8.61858,-10.21032 16.80137,-19.39712 18.18398,-20.41511 2.4371,-1.79439 2.59746,-1.8015 5.25298,-0.23284 1.86535,1.10189 3.60313,1.42829 5.44753,1.02319 3.59761,-0.79016 13.60383,-7.52701 13.60383,-9.15898 0,-1.74253 -1.23573,-1.62251 -5.45454,0.52977 -4.33595,2.21203 -7.55258,2.31754 -9.55666,0.31347 -7.72271,-7.72271 -2.5329,-34.144296 9.16272,-46.647854 7.79169,-8.329951 19.69491,-12.033141 32.36133,-10.06788 6.87638,1.066908 17.23863,5.474029 21.98676,9.351098 l 2.59053,2.115275 -5.77235,4.045619 c -3.17478,2.225091 -9.96236,7.640704 -15.08351,12.034696 -8.96427,7.691421 -12.85415,11.993276 -11.79891,13.048506 0.78771,0.78773 3.8758,-1.11578 17.01918,-10.490707 14.2985,-10.198853 16.8722,-11.884046 18.14983,-11.884046 2.7536,0 -0.6284,12.060556 -5.49867,19.608833 -5.31363,8.23543 -4.53459,8.92208 3.36007,2.96155 l 5.02411,-3.79324 4.7096,1.74499 c 6.42168,2.37936 19.34514,2.18411 29.25506,-0.44198 8.11463,-2.15034 20.45454,-7.656073 20.45454,-9.126253 0,-1.391454 -1.48811,-1.203429 -10.0393,1.268475 -10.38848,3.003015 -17.92502,4.126208 -27.74149,4.134394 -11.8935,0.0099 -11.78411,0.143302 -11.68157,-14.243655 0.0724,-10.159016 0.40072,-12.594003 2.55252,-18.931296 5.15663,-15.18686 14.80433,-26.95244 26.64839,-32.498266 5.17317,-2.422274 7.50851,-2.948028 14.44829,-3.252744 14.74365,-0.64737 25.2102,3.85278 37.85862,16.277517 7.17793,7.050987 7.95454,8.144495 7.95454,11.200253 0,3.120881 -0.80021,4.161634 -10.2067,13.274624 -5.61369,5.438535 -9.88488,10.210067 -9.49153,10.603407 1.23707,1.237078 10.76352,-4.449489 16.59915,-9.908446 6.6968,-6.264522 9.87567,-12.570655 8.91585,-17.686943 -0.5613,-2.991973 -0.45781,-3.236272 1.10001,-2.596725 5.82201,2.390175 25.95923,3.37125 27.22309,1.326294 1.19334,-1.930871 -1.25889,-2.755618 -9.69039,-3.259124 -9.67452,-0.577736 -12.76216,-1.873957 -11.94127,-5.01306 0.29445,-1.125956 3.83919,-5.372913 7.87721,-9.437683 9.76438,-9.82907 17.12923,-13.590655 26.50753,-13.538698 5.39505,0.02989 7.44136,0.515524 12.28992,2.916669 3.19942,1.584445 7.98138,4.784934 10.62656,7.112196 4.62842,4.072135 11.09966,11.739078 11.09966,13.150559 0,1.283877 -3.0667,1.85079 -19.9295,3.684177 -11.18765,1.216363 -17.32676,2.268481 -18.18644,3.116783 -1.12323,1.108352 -1.08416,1.362552 0.29043,1.89003 3.32027,1.27411 28.11058,-0.300612 36.91642,-2.344995 10.87263,-2.524209 26.65814,-2.260397 32.39595,0.54141 3.22402,1.57431 3.48986,1.984877 3.23027,4.988761 -0.37043,4.286481 2.77713,8.0887 8.86346,10.706967 4.19848,1.806138 15.51032,3.712438 15.51032,2.613838 0,-0.265716 -3.10061,-1.955596 -6.89026,-3.75529 -9.12125,-4.331666 -12.20065,-6.610817 -12.20065,-9.030076 0,-2.860275 12.0567,-14.12715 18.66268,-17.440105 4.82646,-2.42051 6.33527,-2.722135 13.61005,-2.720754 9.68747,0.0018 13.33703,1.543941 21.15707,8.939803 6.2363,5.898031 9.51415,11.366518 9.13105,15.233439 -0.42634,4.303422 -3.64249,6.237641 -11.46172,6.893177 -3.75441,0.314756 -6.98215,1.070272 -7.56312,1.770294 -1.62418,1.957018 1.19878,2.475359 9.85673,1.809856 11.82039,-0.908587 18.54561,-4.714897 17.22865,-9.750993 -0.58936,-2.253681 1.24013,-2.237951 7.94336,0.0683 9.53633,3.280977 29.61707,14.877292 29.61707,17.103393 0,0.383598 -1.63636,2.875246 -3.63636,5.536995 -3.36864,4.483231 -4.68709,8.293343 -2.86985,8.293343 0.42159,0 3.60459,-1.993091 7.07332,-4.429091 8.24438,-5.789804 14.5261,-8.919425 21.47736,-10.700254 16.90683,-4.33133 33.72315,3.985713 42.67034,21.103968 4.47153,8.555169 6.00881,14.224229 7.62431,28.116289 2.14456,18.44151 1.78432,17.67809 13.69696,29.02711 19.19374,18.28564 27.77936,35.73072 29.11304,59.1547 1.24588,21.8817 -5.82434,41.52659 -21.90802,60.87231 -3.28261,3.94839 -5.96837,7.51509 -5.96837,7.92601 0,1.74708 2.84129,0.47918 7.39556,-3.30021 11.86812,-9.84883 21.11725,-24.42726 24.39767,-38.45545 0.61421,-2.62655 1.44743,-4.97992 1.85162,-5.22972 1.16542,-0.72026 5.1451,4.56706 8.06929,10.72071 7.60413,16.00213 7.79193,34.95384 0.57169,57.69363 -1.151,3.625 -1.80362,6.59091 -1.45027,6.59091 1.19944,0 5.32014,-4.98422 7.16273,-8.66373 2.9533,-5.89751 4.64152,-12.87109 5.93552,-24.51809 l 1.21202,-10.90909 7.66243,7.72727 c 8.59438,8.66709 14.46937,16.99864 20.31743,28.81289 10.37903,20.96771 15.96522,46.69996 15.96522,73.54223 0,37.59514 -9.34286,69.41486 -28.72649,97.83603 -3.70043,5.42574 -6.72806,10.74592 -6.72806,11.82262 0,6.6048 -9.05483,16.44722 -21.81818,23.71592 -4.75,2.70512 -13.04486,7.61085 -18.43303,10.90163 -11.60245,7.0861 -18.22423,9.76328 -25.71589,10.39692 -12.98285,1.09807 -16.48751,-6.91519 -8.10847,-18.53968 6.77048,-9.39288 7.96023,-11.27057 7.45894,-11.77186 -1.05201,-1.05201 -4.30255,0.78167 -14.85404,8.37945 -17.85044,12.85349 -31.57043,18.594 -39.94633,16.71378 -4.39761,-0.98718 -8.583,-5.34721 -8.583,-8.94114 0,-5.49955 7.72801,-13.96784 21.67451,-23.75075 3.07902,-2.15981 5.59822,-4.48129 5.59822,-5.15885 0,-4.01164 -12.21008,1.66859 -23.99852,11.1643 -10.09161,8.12889 -13.3574,9.81951 -19.0306,9.85164 -3.82804,0.0217 -4.73376,-0.35679 -7.04545,-2.94402 -4.81835,-5.39266 -3.30257,-10.67202 5.2754,-18.37382 3.97855,-3.57219 9.69957,-6.8973 23.57083,-13.69961 10.7695,-5.28123 19.05134,-9.91591 20.09897,-11.24776 1.29575,-1.64728 1.95509,-4.40032 2.41688,-10.09164 2.27753,-28.06923 17.03877,-50.70693 45.31455,-69.49393 6.36887,-4.2316 11.57976,-8.2478 11.57976,-8.9249 0,-1.50087 -1.57704,-1.07923 -10.93556,2.92373 -9.23645,3.95074 -15.57071,8.13454 -24.9506,16.47996 l -7.8795,7.01049 0.60894,-3.53408 c 3.17942,-18.45263 8.86055,-30.38197 25.71108,-53.98864 15.22536,-21.32988 20.64745,-30.90909 17.49537,-30.90909 -0.83697,0 -15.92419,18.5616 -26.97081,33.18182 -13.40099,17.73623 -19.11728,31.01744 -23.08533,53.63636 -1.05258,6 -3.73224,16.26673 -5.95478,22.81495 -3.51811,10.36531 -6.05182,20.51316 -8.05296,32.25309 -0.83415,4.89369 -4.63083,7.78997 -16.56467,12.63629 -5.93165,2.40883 -17.53482,7.23318 -25.78482,10.72078 -51.81395,21.90375 -104.99377,31.04184 -165.49026,28.43678 -28.12515,-1.2111 -27.38094,-0.97505 -28.40435,-9.00907 -1.03372,-8.11504 -10.0243,-17.3778 -22.36893,-23.04617 -3.19496,-1.46705 -10.53782,-3.86987 -16.31748,-5.3396 -12.22912,-3.10978 -14.15917,-4.5092 -16.13317,-11.69769 -2.5343,-9.22885 -6.86072,-21.23391 -9.82554,-27.26415 l -2.93016,-5.95976 1.22007,-8.18181 c 1.65386,-11.09079 0.9448,-29.47823 -1.51982,-39.41209 -6.67033,-26.88533 -22.14828,-47.60626 -43.23036,-57.87416 -16.13286,-7.85741 -19.15931,-5.96444 -4.91962,3.07712 16.13832,10.2471 29.72443,25.05278 36.30323,39.56202 5.0755,11.19377 6.54078,18.67735 7.02148,35.8605 0.50127,17.91801 0.16031,19.07446 -4.50458,15.27892 -14.8333,-12.06897 -22.86513,-16.66988 -33.45975,-19.1669 -11.5529,-2.72288 -13.38795,-1.11794 -3.49429,3.05611 7.73271,3.26238 19.71271,11.16028 26.88478,17.72399 14.35554,13.13787 26.6233,35.46703 26.6233,48.4584 0,6.8033 2.88035,8.84269 18.3307,12.97865 24.58642,6.58165 40.39728,19.64805 35.71488,29.51545 -2.42165,5.10325 -8.65229,7.25624 -14.53098,5.02116 -1.33207,-0.50645 -5.76542,-3.35001 -9.85187,-6.31902 -8.36648,-6.07864 -16.24163,-9.9909 -21.54228,-10.70186 -5.52783,-0.74144 -4.42726,1.01755 4.06404,6.49536 13.40578,8.64819 19.81551,16.03577 19.81551,22.83853 0,7.6319 -5.62393,10.9054 -17.45455,10.15972 -12.26725,-0.77322 -24.07472,-5.54452 -32.86522,-13.28059 -7.44727,-6.55396 -16.22569,-11.13834 -16.22569,-8.4736 0,1.23125 2.89304,5.02392 8.24162,10.80448 2.85096,3.08121 5.90927,7.50244 6.79625,9.82498 1.48732,3.89447 1.50098,4.45704 0.17575,7.23607 -3.29833,6.91667 -15.42666,9.59352 -27.48634,6.06652 z M 540.2631,387.6769 c 10.84079,-1.17825 27.49392,-4.80798 36.06434,-7.86062 8.26761,-2.94478 27.19562,-12.66994 29.30953,-15.05916 1.61728,-1.82791 1.5971,-1.84273 -1.78793,-1.31228 -1.88304,0.29507 -9.24786,2.77869 -16.36629,5.51915 -25.0206,9.63246 -40.89539,12.83563 -63.39184,12.79103 -19.16648,-0.038 -25.96238,-1.21278 -47.60987,-8.23017 -8.43543,-2.73448 -15.5502,-4.75872 -15.8106,-4.49831 -1.1891,1.1891 10.39236,8.70906 18.59651,12.0749 15.49077,6.35523 39.35377,8.9277 60.99615,6.57546 z M 434.05467,354.5018 c -0.64237,-0.77402 -6.72655,-4.23055 -13.5204,-7.68121 -13.75106,-6.98427 -21.01232,-11.62644 -33.62519,-21.49684 -10.81716,-8.46514 -13.8118,-9.0236 -8.41143,-1.5686 9.0298,12.46527 41.90527,31.98113 54.11366,32.1235 2.25534,0.0263 2.4521,-0.1614 1.44336,-1.37685 z m -76.88664,-3.36544 c -2.59157,-14.90261 -12.90121,-34.28423 -27.03106,-50.81708 -7.417,-8.67836 -14.86118,-14.82455 -22.05982,-18.21339 -5.65666,-2.66294 -14.89533,-4.44174 -14.89533,-2.86794 0,0.47017 3.20503,2.79238 7.12229,5.16046 20.91564,12.64404 34.16444,27.96369 49.00335,56.66278 6.7057,12.96909 8.8394,15.70395 7.86057,10.07517 z m 296.10466,-19.02857 c 5.7601,-4.1648 17.57725,-16.5638 21.76866,-22.84048 3.70637,-5.55035 4.43726,-7.90367 2.4547,-7.90367 -1.03818,0 -28.33942,29.42211 -30.04122,32.37494 -1.28093,2.22257 1.60881,1.41255 5.81786,-1.63079 z m -89.63633,-2.99931 c 40.20574,-5.33953 75.87267,-20.38546 87.253,-36.80729 4.49266,-6.4829 2.0273,-5.79364 -11.29963,3.15915 -37.92738,25.47891 -93.26372,35.43146 -143.46828,25.80358 -5.13321,-0.98441 -14.94881,-3.41014 -21.81245,-5.39051 -6.86364,-1.98037 -13.24793,-3.60068 -14.1873,-3.60068 -5.20817,0 7.90207,7.71976 19.8783,11.70503 8.95975,2.98149 20.09367,5.26295 31.63767,6.48288 10.49853,1.10944 39.05461,0.36689 51.99869,-1.35216 z M 97.947857,258.60243 C 103.18752,255.13182 112.77132,245.02524 117.68706,237.78648 124.63094,227.56117 129.71277,215 126.90572,215 c -0.45186,0 -2.97416,3.375 -5.60511,7.5 -6.63723,10.40633 -13.08204,18.83396 -21.68434,28.35578 -9.371275,10.373 -9.99322,13.26077 -1.668413,7.74665 z M 478.18182,247.70611 c 14.07069,-1.30679 27.66987,-3.89054 50.84786,-9.66071 l 20.06123,-4.99425 44.09091,0.26984 c 39.74426,0.24326 44.79783,0.10908 51.26171,-1.36096 13.78308,-3.13463 23.22667,-8.24385 29.04788,-15.71563 4.10118,-5.26405 6.74394,-11.82723 5.33125,-13.23992 -1.3858,-1.3858 -4.72953,0.87917 -11.83647,8.01773 -6.3382,6.36641 -16.48018,11.98687 -26.0771,14.45135 -8.67018,2.22649 -23.88655,2.66065 -36.36364,1.03752 -30.07426,-3.9123 -48.69288,-2.52346 -84.0909,6.27271 -21.62194,5.3729 -30.66709,6.76875 -47.72728,7.36527 -24.20986,0.84652 -43.62555,-2.66342 -61.15836,-11.05614 -12.07645,-5.78083 -15.83547,-8.55503 -26.64154,-19.66177 -9.38008,-9.64108 -12.13345,-11.3926 -13.26669,-8.43943 -1.98368,5.16939 12.55926,20.0794 29.15539,29.89131 23.58835,13.94582 48.95476,19.46171 77.36575,16.82308 z M 181.28981,223.50289 c 14.30148,-7.12673 13.03942,-25.77562 -1.74436,-25.77562 -9.03365,0 -17.27272,8.34213 -17.27272,17.48878 0,4.63332 1.8839,7.68304 5.79845,9.38675 4.27557,1.86083 7.87887,1.561 13.21863,-1.09991 z m 268.51435,-37.51963 c 6.07085,-2.36257 14.81016,-9.95131 18.19,-15.79521 7.98852,-13.8125 7.49807,-31.67073 -1.24393,-45.29395 -14.94942,-23.29665 -49.04127,-24.02473 -64.06507,-1.36821 -5.01285,7.55959 -6.94554,14.26535 -6.97517,24.20138 -0.0559,18.75578 9.28137,33.49612 24.74456,39.06303 7.03186,2.53155 21.81537,2.12504 29.34961,-0.80704 z m 81.55948,0.83492 c 2.19999,-2.19999 2.27192,-3.76902 0.35776,-7.80283 -2.88028,-6.06972 -10.82256,-8.74418 -13.56011,-4.56616 -2.56094,3.90849 0.39628,9.04955 7.29326,12.67913 3.52802,1.85665 3.75417,1.84478 5.90909,-0.31014 z m 53.05336,-2.63444 c 5.14244,-3.39034 7.80679,-10.68722 4.94664,-13.54738 -3.65954,-3.65953 -11.63504,3.6763 -11.84016,10.89052 -0.12463,4.38373 2.65139,5.45365 6.89352,2.65686 z m -381.9021,-4.25201 c 5.34204,-1.82022 12.25753,-7.87692 14.41376,-12.62381 4.98639,-10.97738 -1.60616,-20.52508 -13.33632,-19.31443 -10.55453,1.08933 -19.55987,9.63746 -20.96683,19.90236 -1.47289,10.7459 7.58627,16.22797 19.88939,12.03588 z m 445.70342,-9.70153 c 21.4071,-10.93357 25.40398,-46.65575 7.25129,-64.80844 -12.95826,-12.958259 -32.92224,-11.558708 -43.68403,3.06242 -13.28864,18.05414 -9.91174,47.3623 6.85078,59.458 8.08822,5.83638 20.72139,6.8135 29.58196,2.28802 z M 260.1761,152.41657 c 7.09997,-3.62547 12.10588,-10.69044 12.09323,-17.0675 -0.005,-2.69053 -3.33063,-7.46421 -6.5792,-9.44489 -4.60128,-2.80543 -12.82168,-2.49093 -18.97988,0.72616 -6.5028,3.39709 -10.05438,8.46765 -10.60812,15.14511 -0.47841,5.76896 0.86462,8.55955 5.53817,11.50744 3.80655,2.40101 12.97651,1.97244 18.5358,-0.86632 z m 131.44683,-40.82566 c 1.79128,-1.375 6.06628,-4.97783 9.5,-8.00628 12.58302,-11.097909 23.72782,-16.039337 36.1498,-16.028251 10.90575,0.0097 16.58208,2.466797 33.11729,14.335201 4.35298,3.12442 5.48048,1.57173 2.52313,-3.474608 -8.99203,-15.343735 -30.34721,-22.06881 -51.91144,-16.347715 -8.18369,2.171174 -13.75128,5.64792 -22.56504,14.091009 -5.49642,5.265264 -12.52758,14.794174 -12.52758,16.977884 0,1.6685 2.35546,1.03067 5.71384,-1.54724 z"
     id="path19"
     transform="scale(0.75)" />
  <path
     style="fill:#ffffff;stroke-width:0.909091"
     d="m 425.26004,181.91596 c -12.73346,-4.15571 -21.56366,-14.50092 -23.91825,-28.02193 -2.55642,-14.68005 5.01687,-29.97368 18.36646,-37.08952 7.81108,-4.16361 17.56037,-4.82571 25.7463,-1.7485 7.52137,2.82739 16.566,11.82421 19.59301,19.48944 3.02675,7.66459 3.06329,20.43693 0.0799,27.95151 -2.71962,6.85032 -9.70671,14.44593 -16.21994,17.63256 -6.10382,2.98632 -17.36444,3.837 -23.64753,1.78644 z m 21.03756,-13.1659 c 12.59806,-6.71167 15.15331,-25.25636 5.06001,-36.72296 -10.77143,-12.237 -27.97063,-10.15011 -35.73985,4.33654 -1.57901,2.94424 -1.95316,5.20645 -1.96579,11.88558 -0.0144,7.60676 0.19847,8.59577 2.73317,12.69915 6.51053,10.53976 18.77081,13.73745 29.91246,7.80169 z"
     id="path20"
     transform="scale(0.75)" />
  <path
     style="fill:#ffffff;stroke-width:0.909091"
     d="m 628.53188,166.52846 c -6.95269,-2.6018 -12.67458,-8.39808 -16.4209,-16.63441 -1.68389,-3.70204 -2.02694,-6.10847 -2.06515,-14.48665 -0.0448,-9.8293 0.0285,-10.19761 3.38357,-16.98608 7.30259,-14.77577 18.13209,-19.53883 30.44032,-13.38834 6.54791,3.27203 11.3551,8.29874 14.64377,15.31246 2.13324,4.54958 2.3956,6.20426 2.3956,15.10911 0,8.87213 -0.2667,10.56861 -2.36465,15.04148 -4.79394,10.2208 -12.42533,16.21212 -21.49863,16.87836 -3.11409,0.22866 -6.55629,-0.11335 -8.51393,-0.84593 z m 14.45888,-11.43172 c 4.25277,-2.17053 5.98214,-4.08758 8.30292,-9.204 2.43185,-5.36127 2.5254,-15.31492 0.19208,-20.43819 -2.1687,-4.76184 -8.18177,-10.10678 -12.75575,-11.33842 -11.09634,-2.98794 -21.91183,7.32016 -21.91183,20.88387 0,8.4219 5.22386,17.88339 11.34674,20.5513 4.02872,1.75543 10.90907,1.54447 14.82584,-0.45456 z"
     id="path21"
     transform="scale(0.75)" />
  <path
     style="fill:#ffffff;stroke-width:0.277271"
     d="m 638.59057,132.82156 c -2.54544,-0.90732 -3.9521,-3.47037 -3.71526,-6.76949 0.29593,-4.12235 2.93833,-6.52932 6.13354,-5.58705 1.62802,0.4801 3.84402,2.8115 4.47338,4.70633 1.71426,5.16116 -2.07473,9.36719 -6.89166,7.65021 z"
     id="path22"
     transform="scale(0.75)" />
  <path
     style="fill:#ffffff;stroke-width:0.277271"
     d="m 441.94903,145.31282 c -1.35606,-0.59047 -2.86396,-2.0733 -3.66312,-3.60219 -0.60749,-1.1622 -0.7378,-1.77838 -0.73826,-3.49085 -6.9e-4,-2.55722 0.69909,-4.07428 2.39794,-5.19853 0.964,-0.63795 1.45098,-0.7628 2.97519,-0.7628 1.48573,0 2.06048,0.13989 3.11032,0.75706 2.67222,1.57089 3.94406,3.93859 3.79151,7.05838 -0.0822,1.68061 -0.22884,2.17969 -0.93629,3.18627 -1.15757,1.64702 -2.64204,2.43844 -4.55894,2.43053 -0.83874,-0.003 -1.909,-0.1735 -2.37835,-0.37787 z"
     id="path23"
     transform="scale(0.75)" />
  <path
     style="fill:#ffffff;stroke-width:0.255558"
     d="m 182.4346,125.33121 c -1.71979,-0.66143 -2.64967,-1.53493 -2.64967,-2.48901 0,-2.46928 4.33431,-4.11389 10.86121,-4.12118 l 3.0667,-0.003 -3.07551,3.03147 c -1.69154,1.66731 -3.47405,3.27442 -3.96115,3.57137 -1.10531,0.67381 -2.50835,0.67737 -4.24158,0.0108 z"
     id="path24"
     transform="scale(0.75)" />
  <path
     style="fill:#ffffff;stroke-width:0.255558"
     d="m 139.60424,178.82659 c -0.22617,-0.66764 -0.81502,-2.38412 -1.30854,-3.8144 -7.12614,-20.65237 3.0483,-42.61059 22.02351,-47.53053 3.34948,-0.86846 8.12261,-1.06676 11.67121,-0.48488 2.32088,0.38056 6.94175,1.76272 9.40251,2.8124 l 0.96911,0.41339 -1.03292,1.47252 c -3.26233,4.65077 -17.84248,22.55475 -28.86043,35.43973 -4.40725,5.15407 -11.8001,12.90567 -12.30839,12.90567 -0.0797,0 -0.32988,-0.54625 -0.55606,-1.2139 z"
     id="path25"
     transform="scale(0.75)" />
  <path
     style="fill:#ffffff;stroke-width:0.255558"
     d="m 118.32328,194.83314 c -1.68669,-0.26884 -4.90671,-0.8609 -7.15562,-1.31567 l -4.08893,-0.82687 -0.0821,-0.85803 c -0.20871,-2.18048 3.56255,-10.66566 5.85541,-13.17441 3.26243,-3.56962 8.79388,-6.26244 12.89995,-6.27997 2.89654,-0.0124 5.61716,1.76822 6.24756,4.08888 0.80445,2.96136 -1.18228,7.79306 -6.4861,15.77414 l -2.07899,3.12841 -1.02223,-0.0238 c -0.56223,-0.0131 -2.40224,-0.2438 -4.08892,-0.51264 z"
     id="path26"
     transform="scale(0.75)" />
  <path
     style="fill:#ffffff;stroke-width:0.255558"
     d="m 170.08855,220.62832 c -1.54313,-0.80613 -2.4703,-2.06412 -2.97301,-4.03378 -0.86298,-3.38125 0.0901,-6.13395 3.19262,-9.22061 3.00716,-2.99182 6.53779,-4.59424 10.09816,-4.58318 3.02605,0.009 5.15956,1.42984 5.90181,3.92928 0.49039,1.6513 0.47664,2.07718 -0.13048,4.04282 -1.08684,3.51876 -4.77135,7.38298 -8.92569,9.36101 -1.57192,0.74845 -2.24566,0.91848 -3.96115,0.99967 -1.78207,0.0843 -2.22357,0.0161 -3.20226,-0.49521 z"
     id="path27"
     transform="scale(0.75)" />
  <path
     style="fill:#ffffff;stroke-width:0.255558"
     d="m 192.23507,176.43928 c -1.4351,-0.33793 -2.28885,-0.84934 -3.31614,-1.98643 -2.03929,-2.25724 -1.97058,-5.70336 0.19962,-10.01282 3.43383,-6.81867 11.96306,-12.01139 18.07204,-11.00251 2.2267,0.36773 3.38868,0.95708 4.70716,2.38746 2.20178,2.38865 2.46054,5.67699 0.72986,9.27522 -0.76727,1.59523 -1.44218,2.48502 -3.29533,4.34453 -5.1065,5.12405 -12.38877,8.10326 -17.09721,6.99455 z"
     id="path28"
     transform="scale(0.75)" />
  <path
     style="fill:#ffffff;stroke-width:0.255558"
     d="m 247.00284,150.24166 c -2.74284,-0.73707 -5.12692,-2.73222 -6.00159,-5.0225 -0.63948,-1.67445 -0.45408,-4.21362 0.44306,-6.06792 1.94032,-4.01047 7.09732,-8.03545 12.32462,-9.61922 2.33984,-0.70893 6.67802,-0.63893 8.64915,0.13957 2.19149,0.86552 3.60567,2.33523 4.01105,4.16856 0.44417,2.0087 0.003,4.59135 -1.19985,7.03193 -1.93414,3.92275 -8.05566,8.34544 -13.00103,9.393 -2.20152,0.46634 -3.42324,0.46087 -5.22541,-0.0234 z"
     id="path29"
     transform="scale(0.75)" />
  <path
     style="fill:#ffffff;stroke-width:0.237398"
     d="m 567.07696,501.02601 c -2.22994,-0.19208 -3.46926,-0.66757 -3.24733,-1.24592 0.15978,-0.41636 1.86441,-1.44783 3.55048,-2.14839 0.78341,-0.32551 3.98828,-1.50133 7.12193,-2.61293 6.29705,-2.23377 8.43316,-3.01818 11.68672,-4.29153 3.62387,-1.41828 3.90772,-1.22843 2.70185,1.80712 -2.07193,5.21572 -3.45047,7.28186 -5.18493,7.77116 -2.03354,0.57366 -12.87826,1.04355 -16.62872,0.72049 z"
     id="path30"
     transform="scale(0.75)" />
</svg>
