<?xml version="1.0" encoding="UTF-8" standalone="no"?>
<svg
   version="1.0"
   width="1101"
   height="866"
   viewBox="52 222 1101 866"
   preserveAspectRatio="xMidYMid meet"
   id="svg39"
   sodipodi:docname="frog11.svg"
   inkscape:version="1.4.3 (0d15f75, 2025-12-25)"
   xmlns:inkscape="http://www.inkscape.org/namespaces/inkscape"
   xmlns:sodipodi="http://sodipodi.sourceforge.net/DTD/sodipodi-0.dtd"
   xmlns="http://www.w3.org/2000/svg"
   xmlns:svg="http://www.w3.org/2000/svg">
  <defs
     id="defs39" />
  <sodipodi:namedview
     id="namedview39"
     pagecolor="#505050"
     bordercolor="#ffffff"
     borderopacity="1"
     inkscape:showpageshadow="0"
     inkscape:pageopacity="0"
     inkscape:pagecheckerboard="1"
     inkscape:deskcolor="#505050"
     inkscape:zoom="0.71184127"
     inkscape:cx="505.73072"
     inkscape:cy="514.86197"
     inkscape:window-width="1728"
     inkscape:window-height="1056"
     inkscape:window-x="0"
     inkscape:window-y="33"
     inkscape:window-maximized="1"
     inkscape:current-layer="svg39" />
  <metadata
     id="metadata1">
Created by potrace 1.16, written by Peter Selinger 2001-2019
</metadata>
  <g
     transform="translate(0.000000,1254.000000) scale(0.100000,-0.100000)"
     fill="#000000"
     stroke="none"
     id="g39">
    <path
       d="M5920 10009 c-73 -14 -163 -64 -214 -119 -228 -244 -94 -646 232 -699 110 -18 247 22 320 92 l33 32 44 -24 c100 -53 212 -183 266 -307 47 -111 74 -289 63 -421 -6 -82 -7 -83 -34 -83 -41 0 -250 -37 -369 -66 -117 -27 -97 -33 -189 49 -111 99 -192 122 -263 74 -48 -32 -76 -89 -108 -218 -16 -62 -35 -115 -43 -120 -9 -5 -44 16 -108 67 -142 111 -297 215 -359 241 -71 29 -132 29 -181 2 -84 -47 -108 -147 -117 -496 -3 -134 -7 -243 -9 -243 -1 0 -53 36 -116 79 -132 93 -315 198 -410 235 -127 50 -222 24 -269 -71 -21 -43 -23 -61 -23 -178 0 -136 15 -270 65 -567 16 -97 29 -179 29 -182 0 -17 -41 0 -133 56 -147 89 -376 204 -453 227 -147 46 -236 10 -271 -109 -28 -96 -6 -332 71 -775 8 -44 13 -81 12 -82 -1 -1 -76 35 -167 80 -281 140 -409 173 -499 127 -97 -50 -107 -186 -40 -595 10 -65 18 -119 17 -120 -1 0 -15 -7 -31 -15 -48 -25 -69 -62 -70 -125 -1 -30 -3 -55 -5 -55 -2 0 -57 30 -123 66 -200 110 -368 174 -457 174 -142 0 -190 -119 -146 -356 19 -102 84 -368 114 -464 11 -35 19 -66 17 -67 -2 -2 -63 26 -137 62 -215 105 -294 123 -377 85 -33 -15 -47 -29 -62 -62 -40 -88 -20 -217 86 -561 18 -59 21 -83 14 -98 -10 -18 -12 -18 -48 -3 -20 9 -77 30 -127 46 -137 45 -206 30 -249 -56 -25 -51 -16 -115 38 -248 l43 -107 -90 -98 c-185 -204 -260 -322 -261 -413 0 -117 67 -186 289 -295 224 -110 569 -223 935 -305 80 -18 146 -34 148 -35 2 -2 -9 -20 -23 -40 -32 -48 -55 -125 -55 -186 0 -127 125 -239 268 -239 42 0 42 0 42 -37 0 -46 32 -118 68 -157 15 -16 54 -41 87 -57 106 -51 248 -36 331 35 44 37 82 106 91 163 7 45 16 53 63 53 32 0 40 -6 87 -69 43 -58 63 -75 120 -103 62 -30 75 -33 163 -33 79 0 102 4 137 23 55 29 109 86 123 128 11 34 12 34 74 34 71 0 114 12 169 48 55 37 79 82 85 164 l5 70 31 -6 c79 -15 234 -36 264 -36 17 0 32 -4 32 -8 0 -4 24 -33 54 -64 38 -40 55 -67 59 -93 10 -63 49 -127 118 -197 53 -53 89 -77 171 -117 93 -46 268 -101 320 -101 10 0 46 -23 79 -50 162 -135 368 -177 514 -105 53 25 125 96 125 121 0 19 19 27 34 15 49 -41 206 -63 286 -41 99 27 184 119 196 212 6 44 9 48 34 48 84 0 184 72 216 156 l17 44 201 0 c480 0 898 91 1271 277 204 102 348 205 480 345 92 96 123 137 143 191 10 25 32 56 52 72 19 16 51 44 70 62 l36 33 39 -40 38 -39 -16 -70 c-21 -86 -40 -265 -32 -301 6 -26 4 -27 -42 -34 -80 -10 -139 -35 -186 -77 -26 -22 -55 -39 -69 -39 -36 0 -137 -28 -193 -54 -71 -32 -159 -116 -192 -183 -21 -43 -27 -71 -27 -122 -1 -85 29 -142 97 -188 59 -39 104 -53 179 -53 54 0 57 -1 63 -29 9 -41 68 -106 120 -131 92 -45 223 -43 331 5 39 17 60 22 62 15 19 -55 130 -124 217 -136 112 -14 272 46 365 136 37 36 64 53 107 65 87 25 190 83 255 143 67 63 122 164 140 257 l11 60 58 -29 c50 -24 75 -30 157 -34 80 -3 106 -1 148 15 l51 20 39 -28 c155 -111 383 -65 431 86 8 25 18 32 54 41 158 40 232 165 182 309 -32 95 -154 185 -273 201 -47 6 -59 13 -105 61 -29 29 -56 53 -61 53 -5 0 -17 7 -26 14 -17 12 -14 21 36 132 118 261 151 414 150 699 -1 225 -14 307 -79 494 -61 176 -140 315 -273 486 -72 91 -326 343 -424 420 -95 74 -82 88 63 70 43 -6 64 -4 93 10 52 25 69 63 76 180 9 127 29 173 115 265 120 128 125 196 23 308 -74 81 -82 133 -46 293 21 94 21 98 4 142 -24 63 -52 78 -166 89 -123 11 -158 21 -216 61 -60 42 -106 108 -134 194 -13 38 -31 83 -42 101 -18 29 -19 39 -9 96 17 95 13 249 -8 351 -50 242 -192 438 -386 530 -88 41 -152 55 -263 55 -152 0 -288 -49 -405 -144 l-54 -44 -69 31 c-38 16 -114 47 -169 68 l-100 37 -26 70 c-78 210 -192 238 -366 90 -31 -26 -60 -48 -63 -48 -3 0 -18 24 -34 53 -65 119 -204 317 -271 384 -102 103 -174 118 -262 54 -49 -36 -67 -63 -168 -259 -79 -154 -105 -188 -105 -139 0 55 -41 260 -71 353 -63 200 -159 354 -304 492 -99 94 -228 177 -332 214 l-63 23 -11 55 c-22 109 -108 229 -204 286 -79 46 -179 62 -275 43z m208 -133 c187 -96 227 -351 77 -501 -57 -56 -115 -79 -205 -79 -62 -1 -85 4 -132 27 -103 50 -167 154 -168 268 0 112 45 204 129 262 90 62 206 71 299 23z m387 -408 c125 -64 271 -193 352 -313 130 -193 195 -409 210 -698 6 -124 7 -129 31 -140 21 -10 27 -8 48 16 14 16 24 41 24 59 l0 30 151 -4 c140 -3 152 -2 165 16 19 27 18 31 -12 55 -21 16 -41 21 -89 21 -34 0 -64 3 -68 6 -3 4 19 56 50 118 127 254 170 280 274 169 56 -58 237 -329 227 -338 -2 -2 -48 3 -102 11 -88 13 -101 13 -122 -1 -26 -17 -31 -47 -11 -62 6 -5 46 -15 87 -22 145 -24 224 -43 244 -57 25 -17 97 -19 114 -2 7 7 12 19 12 29 0 9 26 36 58 61 79 62 98 71 122 58 25 -14 66 -93 85 -166 8 -32 16 -58 17 -59 2 -1 47 -16 102 -34 101 -33 266 -105 266 -116 0 -3 -7 -20 -16 -37 -39 -76 22 -109 71 -38 39 57 143 152 201 184 88 49 161 69 259 69 257 2 468 -179 546 -469 32 -116 30 -303 -4 -437 -22 -87 -23 -100 -9 -113 8 -8 21 -13 28 -10 8 3 20 8 27 11 9 4 18 -8 26 -37 19 -63 56 -134 96 -183 74 -90 170 -134 314 -144 115 -7 121 -14 102 -98 -8 -32 -16 -95 -18 -140 -6 -105 12 -163 78 -245 27 -34 49 -71 49 -83 0 -13 -27 -53 -65 -96 -96 -108 -126 -175 -134 -297 -4 -54 -11 -104 -15 -111 -6 -10 -22 -11 -60 -6 -73 11 -110 7 -169 -16 -29 -12 -68 -22 -87 -24 -35 -3 -60 -26 -60 -54 0 -23 8 -32 80 -86 548 -412 805 -802 852 -1292 31 -320 -62 -676 -248 -955 -37 -56 -63 -105 -60 -114 9 -23 45 -16 87 17 28 22 46 29 62 25 40 -10 91 -50 108 -85 20 -42 35 -51 85 -51 104 0 212 -60 246 -136 17 -41 18 -50 6 -87 -25 -79 -131 -118 -162 -59 -21 41 -101 111 -153 134 -25 11 -66 21 -92 21 -41 2 -46 -1 -49 -20 -3 -19 6 -27 52 -47 71 -31 141 -96 161 -150 15 -39 15 -47 2 -79 -47 -110 -200 -100 -341 23 -48 42 -78 60 -97 60 -37 0 -45 -27 -19 -63 12 -16 19 -32 15 -35 -4 -4 -48 -7 -98 -7 -79 1 -99 4 -142 27 -27 14 -58 35 -68 46 -18 20 -18 21 6 59 290 459 328 1149 91 1670 -43 96 -120 213 -139 213 -31 0 -26 -32 29 -159 62 -145 114 -316 142 -466 29 -156 27 -529 -4 -683 -46 -230 -143 -457 -259 -611 -33 -44 -42 -84 -22 -97 18 -11 5 -114 -22 -174 -49 -104 -175 -198 -318 -235 -55 -14 -73 -25 -117 -70 -67 -68 -144 -106 -229 -113 -75 -6 -138 13 -176 54 -56 60 -12 167 101 245 94 65 55 106 -53 56 -66 -30 -116 -79 -154 -149 -24 -45 -37 -58 -93 -86 -111 -56 -225 -53 -290 8 -81 76 -35 190 117 289 127 82 121 77 101 96 -14 15 -22 16 -67 5 -100 -24 -223 -116 -262 -197 l-21 -43 -64 0 c-115 0 -174 44 -174 129 1 120 146 238 318 257 47 6 65 14 100 45 77 67 188 88 255 49 61 -36 87 2 51 73 -23 43 -14 269 15 380 75 286 243 524 481 678 93 60 119 91 88 102 -52 18 -283 -124 -384 -236 -62 -69 -159 -214 -196 -293 -16 -35 -32 -64 -35 -64 -6 0 -42 43 -43 51 0 3 25 37 56 75 117 147 236 343 305 504 39 91 79 233 79 278 0 28 -3 33 -20 30 -16 -2 -32 -30 -70 -125 -67 -167 -127 -281 -231 -437 -140 -210 -244 -327 -422 -471 -42 -33 -48 -43 -43 -66 6 -33 -9 -55 -113 -162 -268 -278 -688 -469 -1201 -547 -173 -27 -432 -42 -571 -34 l-116 6 -17 39 c-9 21 -46 65 -82 98 -72 66 -162 106 -262 117 -35 4 -71 15 -92 30 -54 36 -122 63 -181 71 l-53 8 -12 86 c-16 109 -47 231 -86 339 -30 82 -105 244 -133 283 -11 16 -9 28 21 93 53 117 92 235 116 356 31 156 31 408 0 549 -25 117 -69 232 -119 318 -42 72 -133 171 -157 171 -30 0 -27 -23 12 -78 185 -266 247 -648 161 -1000 -24 -98 -96 -292 -109 -292 -4 0 -23 17 -40 38 -79 90 -241 201 -276 188 -25 -10 -15 -32 26 -61 64 -44 186 -179 244 -268 155 -238 232 -479 264 -822 6 -72 9 -80 29 -83 23 -3 53 30 53 61 0 17 5 19 45 12 60 -8 101 -26 147 -63 30 -24 50 -30 108 -35 80 -7 185 -50 233 -95 85 -80 88 -205 6 -247 -16 -9 -51 -19 -77 -22 -46 -5 -48 -4 -77 36 -40 55 -132 116 -212 141 -78 24 -97 25 -113 5 -17 -21 -6 -32 63 -65 88 -43 154 -94 188 -147 63 -100 26 -196 -88 -229 -71 -21 -123 -13 -213 32 -58 29 -76 45 -104 88 -18 28 -48 65 -67 80 -48 41 -131 77 -181 79 -36 2 -43 -1 -46 -18 -2 -16 9 -26 50 -47 70 -33 115 -72 150 -127 45 -71 34 -134 -30 -178 -111 -74 -300 -36 -437 89 -47 43 -60 49 -146 68 -52 11 -129 32 -171 46 -174 57 -341 210 -309 281 14 30 13 32 -68 109 -176 166 -313 434 -377 738 -35 167 -43 415 -20 576 59 402 214 747 480 1069 88 106 101 131 67 131 -49 0 -212 -165 -314 -318 -178 -265 -304 -621 -338 -957 -33 -330 50 -736 206 -1009 25 -44 43 -81 41 -83 -1 -2 -70 8 -151 22 -144 25 -150 27 -191 65 -49 45 -103 74 -167 91 -35 8 -51 19 -66 44 -10 18 -35 45 -54 60 l-35 28 48 61 c124 158 220 403 261 661 16 99 15 378 0 465 -32 173 -109 354 -201 468 -295 367 -857 347 -1242 -43 -163 -165 -279 -380 -319 -593 -9 -48 -9 -66 0 -75 18 -18 35 8 70 112 64 185 166 353 293 478 212 210 429 304 677 290 142 -7 254 -51 361 -141 113 -96 196 -237 246 -421 26 -94 28 -113 28 -310 0 -195 -1 -218 -27 -330 -80 -341 -261 -618 -480 -736 -60 -32 -74 -61 -31 -67 30 -4 126 34 184 74 48 33 51 34 80 19 33 -17 55 -47 65 -88 5 -19 15 -29 34 -33 128 -28 186 -60 241 -132 63 -82 43 -170 -47 -208 -34 -15 -83 -18 -121 -8 -15 4 -29 21 -39 45 -21 54 -120 143 -181 163 -92 31 -113 -11 -32 -63 89 -58 149 -157 136 -226 -15 -80 -126 -132 -224 -106 -70 18 -107 46 -154 114 -59 83 -72 89 -188 82 -107 -6 -130 -20 -130 -80 0 -75 -43 -148 -104 -176 -114 -52 -255 12 -271 124 -7 49 6 116 41 205 14 34 23 70 20 77 -15 41 -84 -10 -125 -93 -12 -23 -27 -43 -34 -43 -75 -9 -162 23 -190 70 -33 55 -17 145 38 217 21 27 23 38 18 88 -3 31 -3 56 2 56 4 0 18 -9 33 -20 22 -18 27 -19 40 -6 13 13 11 28 -21 123 -19 59 -40 142 -47 183 -16 107 -13 315 6 429 20 121 79 301 140 432 32 66 44 103 37 110 -17 17 -39 0 -81 -59 -81 -116 -145 -275 -184 -455 -32 -149 -32 -405 1 -530 l22 -88 -21 -43 -21 -44 -85 19 c-241 53 -609 162 -804 239 -273 109 -390 190 -390 271 0 66 107 211 317 430 132 137 140 151 118 185 -20 31 -42 30 -76 -2 l-27 -25 -32 78 c-18 43 -35 97 -38 120 -8 72 24 74 190 12 l58 -21 -30 -35 c-37 -41 -38 -58 -4 -79 24 -16 27 -16 52 3 15 11 54 52 87 91 38 44 68 71 81 71 38 2 49 27 36 77 -19 72 5 104 95 120 51 9 79 28 100 68 28 54 200 243 227 250 16 4 29 19 41 48 9 23 38 66 66 96 53 58 68 94 49 117 -22 26 -50 16 -97 -35 -34 -37 -49 -47 -54 -37 -13 22 -67 225 -104 388 -55 243 -47 309 39 309 69 0 233 -69 440 -185 l86 -48 -135 -138 c-74 -76 -137 -149 -141 -163 -7 -31 10 -56 37 -56 11 0 87 67 182 160 89 88 169 160 178 160 34 0 41 26 35 117 -4 49 -3 94 2 102 11 15 63 26 177 36 l80 8 68 65 c55 53 70 76 83 118 14 49 18 54 62 70 35 13 76 45 157 124 66 64 121 110 138 114 20 5 29 14 33 35 4 19 36 56 96 111 74 69 89 87 86 109 -2 20 -9 27 -30 29 -32 4 -49 -7 -119 -73 -27 -26 -52 -46 -53 -44 -8 8 -76 440 -87 549 -25 244 13 288 188 219 71 -28 377 -186 416 -214 14 -10 14 -18 -9 -75 -16 -37 -39 -74 -57 -89 -187 -155 -228 -206 -195 -239 23 -23 49 -11 139 68 56 50 99 80 113 80 32 0 53 27 65 82 14 61 30 96 49 103 8 3 44 10 80 15 60 8 69 13 119 62 29 29 63 72 74 94 16 35 26 43 57 49 46 8 83 27 124 64 18 16 41 30 51 32 12 3 36 37 63 87 36 68 42 87 33 103 -25 48 -61 30 -110 -56 -33 -59 -113 -122 -178 -141 -69 -21 -86 -32 -110 -74 -37 -67 -48 -68 -60 -8 -47 233 -81 502 -81 635 0 119 15 167 56 177 55 14 284 -102 508 -258 53 -37 96 -69 96 -71 0 -2 -22 -25 -50 -51 -67 -63 -69 -114 -4 -114 9 0 59 36 112 80 53 44 149 118 212 163 117 84 137 110 110 143 -21 24 -46 16 -130 -41 l-80 -54 0 202 c0 218 11 322 38 377 24 49 71 53 149 10 75 -40 343 -238 343 -253 0 -2 -53 -36 -119 -75 -65 -40 -122 -79 -125 -88 -9 -23 1 -51 21 -58 17 -7 30 -1 197 88 59 33 173 87 252 121 79 35 151 68 159 75 22 18 18 37 -10 56 -22 15 -29 15 -70 1 -25 -9 -45 -15 -45 -14 0 14 44 156 55 177 28 53 52 49 145 -28 30 -25 57 -47 59 -49 2 -1 -6 -11 -19 -21 -18 -15 -22 -24 -16 -46 6 -25 10 -28 44 -24 20 3 78 17 127 32 102 31 299 72 394 82 l64 7 -7 -27 c-13 -53 35 -90 74 -58 44 38 73 315 51 486 -33 247 -154 460 -326 576 -41 28 -75 55 -75 60 0 5 6 24 14 42 8 18 17 41 20 50 5 16 8 16 43 2 21 -9 56 -25 78 -36z m-3560 -2983 c36 -13 130 -57 209 -96 l144 -72 -61 -69 c-34 -38 -83 -80 -108 -93 -54 -28 -95 -72 -104 -113 -3 -16 -27 -49 -53 -75 -44 -43 -52 -47 -113 -53 l-66 -6 -28 168 c-15 93 -30 223 -33 289 -4 108 -2 122 14 136 37 32 81 29 199 -16z m-1278 -1406 c62 -25 250 -114 262 -125 2 -2 -23 -35 -55 -74 -33 -39 -73 -89 -89 -112 -23 -31 -43 -45 -82 -58 -29 -9 -67 -29 -86 -43 l-34 -26 -36 137 c-51 195 -61 256 -47 297 17 52 43 53 167 4z"
       id="path1" />
    <path
       d="M7534 8171 c-51 -23 -101 -100 -85 -130 12 -22 75 -54 99 -49 30 6 25 36 -9 57 l-32 20 31 30 c17 17 39 31 49 31 24 0 60 -25 74 -52 9 -18 7 -24 -17 -43 -25 -20 -27 -25 -15 -39 14 -17 35 -15 78 6 34 17 36 42 8 97 -38 77 -109 105 -181 72z"
       id="path2" />
    <path
       d="M9220 8109 c-128 -25 -258 -134 -324 -271 -45 -94 -55 -142 -56 -253 0 -158 46 -277 151 -390 176 -188 441 -188 617 0 129 138 185 356 137 539 -50 192 -199 344 -370 375 -67 12 -91 12 -155 0z m191 -94 c99 -34 197 -140 239 -260 113 -320 -117 -665 -409 -614 -181 32 -321 226 -321 444 0 247 168 443 381 445 36 0 85 -7 110 -15z"
       id="path3" />
    <path
       d="M9243 7786 c-64 -30 -108 -87 -123 -162 -44 -213 187 -366 341 -227 58 53 79 99 79 178 0 75 -19 122 -72 172 -68 66 -140 78 -225 39z"
       id="path4" />
    <path
       d="M6280 8024 c-57 -11 -178 -56 -228 -84 -117 -68 -254 -227 -307 -357 -32 -80 -53 -209 -37 -225 22 -22 45 5 59 67 41 179 197 373 366 454 175 84 342 83 516 -2 96 -46 224 -176 277 -280 45 -89 70 -100 67 -28 -3 72 -67 185 -153 271 -126 125 -251 180 -425 185 -60 2 -121 1 -135 -1z"
       id="path5" />
    <path
       d="M8332 7850 c-59 -36 -63 -110 -7 -110 21 0 25 5 25 30 0 34 17 45 54 36 32 -8 44 -43 20 -60 -22 -16 -12 -46 16 -46 26 0 60 34 60 60 0 37 -30 81 -65 96 -46 19 -64 18 -103 -6z"
       id="path6" />
    <path
       d="M6306 7814 c-207 -50 -362 -235 -390 -465 -10 -83 9 -182 54 -278 151 -317 564 -378 805 -119 93 100 135 213 135 363 -1 250 -178 468 -410 505 -83 13 -121 12 -194 -6z m239 -91 c67 -22 111 -51 167 -110 87 -94 123 -198 115 -336 -4 -76 -10 -99 -41 -163 -86 -172 -258 -267 -433 -237 -142 25 -249 106 -315 240 -27 55 -33 80 -36 155 -11 235 120 414 342 464 68 15 126 11 201 -13z"
       id="path7" />
    <path
       d="M6360 7524 c-75 -33 -128 -109 -137 -199 -11 -104 60 -203 166 -231 142 -36 271 71 271 225 0 150 -165 263 -300 205z"
       id="path8" />
    <path
       d="M5311 7742 c-47 -23 -72 -61 -78 -114 -5 -39 -2 -47 18 -62 29 -20 69 -21 94 -2 16 12 17 16 6 29 -7 9 -22 17 -34 19 -48 7 -4 88 48 88 33 0 52 -26 37 -51 -16 -25 -7 -39 23 -39 30 0 47 30 43 73 -2 23 -12 38 -37 54 -41 28 -74 29 -120 5z"
       id="path9" />
    <path
       d="M4964 7156 c-62 -27 -93 -102 -64 -156 19 -35 92 -45 104 -14 8 21 -1 34 -23 34 -10 0 -24 7 -31 15 -10 12 -9 20 4 40 30 46 105 40 92 -8 -6 -24 3 -47 19 -47 17 0 45 33 45 54 0 33 -29 74 -61 85 -40 14 -47 13 -85 -3z"
       id="path10" />
    <path
       d="M8690 7034 c-102 -92 -58 -222 51 -150 71 48 102 132 61 169 -30 27 -68 21 -112 -19z"
       id="path11" />
    <path
       d="M7856 7028 c-25 -35 -19 -73 15 -113 77 -87 181 -89 181 -2 0 95 -149 182 -196 115z"
       id="path12" />
    <path
       d="M4304 6576 c-48 -21 -74 -62 -74 -113 0 -38 5 -50 34 -79 28 -28 41 -34 78 -34 118 0 180 127 99 204 -34 33 -92 42 -137 22z m100 -62 c25 -24 20 -69 -10 -93 -33 -26 -55 -26 -84 -3 -27 22 -29 65 -5 92 22 24 77 26 99 4z"
       id="path13" />
    <path
       d="M8158 6480 c-578 -36 -1212 -182 -1800 -415 -128 -51 -149 -62 -157 -86 -11 -31 9 -69 36 -69 8 0 99 33 202 74 674 269 1423 411 2061 393 498 -15 940 -103 1269 -253 70 -32 85 -35 106 -26 36 17 34 64 -2 89 -116 79 -472 189 -783 242 -269 45 -670 67 -932 51z"
       id="path14" />
    <path
       d="M3633 6060 c-83 -50 -82 -164 1 -204 45 -21 61 -20 114 5 59 29 90 91 72 145 -23 68 -119 96 -187 54z m115 -46 c30 -21 28 -59 -4 -89 -47 -44 -116 -26 -116 30 0 34 41 75 75 75 13 0 33 -7 45 -16z"
       id="path15" />
    <path
       d="M3155 5616 c-49 -21 -85 -71 -85 -116 0 -87 44 -126 134 -117 44 4 55 10 88 47 30 33 38 51 38 80 0 45 -30 87 -76 106 -41 17 -60 17 -99 0z m99 -62 c51 -50 -32 -147 -96 -113 -47 25 -50 58 -9 100 33 33 80 39 105 13z"
       id="path16" />
    <path
       d="M9733 5513 c-51 -150 -120 -268 -217 -370 -57 -60 -76 -87 -68 -95 17 -17 53 -2 114 49 102 85 177 203 213 338 10 35 15 71 12 79 -8 22 -46 20 -54 -1z"
       id="path17" />
    <path
       d="M3932 5474 c-43 -22 -66 -66 -58 -112 20 -128 216 -111 216 19 0 80 -85 130 -158 93z m92 -54 c13 -12 10 -58 -4 -75 -16 -20 -59 -19 -82 2 -24 22 -23 39 7 69 25 25 55 26 79 4z"
       id="path18" />
    <path
       d="M6843 5365 c-3 -9 -3 -39 -1 -66 4 -42 12 -58 41 -87 33 -32 43 -36 99 -40 50 -2 70 1 95 17 56 35 95 141 57 155 -23 9 -22 10 -45 -40 -52 -109 -176 -90 -194 30 -6 36 -11 46 -26 46 -11 0 -22 -7 -26 -15z"
       id="path19" />
    <path
       d="M8772 5227 c-6 -6 -10 -34 -10 -60 0 -58 -22 -94 -69 -113 -54 -23 -107 4 -134 67 -9 22 -18 29 -33 27 -29 -4 -31 -31 -7 -81 50 -104 196 -117 272 -24 39 48 50 168 17 189 -18 11 -24 10 -36 -5z"
       id="path20" />
    <path
       d="M2461 5196 c-50 -28 -67 -100 -31 -136 24 -24 63 -26 80 -5 15 18 6 31 -24 37 -28 5 -30 24 -6 48 24 24 43 22 49 -6 8 -43 51 -33 51 12 0 53 -65 80 -119 50z"
       id="path21" />
    <path
       d="M6286 5055 c-13 -34 -6 -116 14 -155 61 -119 238 -119 298 0 27 53 25 84 -4 88 -16 2 -25 -5 -34 -28 -28 -67 -112 -101 -171 -70 -29 16 -49 63 -52 122 -2 45 -5 53 -23 56 -13 2 -24 -4 -28 -13z"
       id="path22" />
    <path
       d="M10422 4960 c-28 -12 -56 -74 -48 -106 10 -36 57 -83 92 -90 24 -4 37 0 62 21 27 22 32 34 32 69 0 50 -21 83 -66 102 -38 16 -41 16 -72 4z m68 -60 c31 -31 21 -80 -16 -80 -35 0 -58 62 -32 88 17 17 25 15 48 -8z"
       id="path23" />
    <path
       d="M4930 4793 c-8 -3 -27 -17 -42 -31 -30 -28 -38 -84 -18 -123 29 -53 119 -61 166 -14 35 36 34 102 -3 137 -29 27 -76 41 -103 31z m70 -69 c21 -25 1 -68 -33 -72 -16 -2 -35 2 -43 9 -17 14 -18 51 -2 67 17 17 63 15 78 -4z"
       id="path24" />
    <path
       d="M7107 4707 c-8 -7 -18 -29 -21 -49 -21 -121 92 -228 206 -197 72 19 142 107 124 154 -9 26 -43 17 -56 -14 -18 -44 -53 -72 -99 -78 -36 -5 -44 -2 -76 30 -32 32 -35 40 -35 95 0 63 -14 82 -43 59z"
       id="path25" />
    <path
       d="M8115 4658 c-2 -7 -9 -37 -15 -66 -43 -189 -269 -194 -308 -6 -9 47 -36 57 -53 21 -16 -36 11 -123 52 -165 47 -48 93 -64 165 -60 76 5 132 38 174 105 48 75 53 183 9 183 -11 0 -21 -6 -24 -12z"
       id="path26" />
    <path
       d="M1952 4600 c-12 -5 -29 -25 -39 -44 -13 -29 -14 -40 -4 -64 15 -37 54 -56 82 -41 26 13 20 43 -9 47 -24 4 -30 30 -10 50 16 16 38 15 38 -2 0 -7 7 -19 15 -26 12 -10 18 -10 30 0 21 18 19 37 -10 65 -25 26 -54 30 -93 15z"
       id="path27" />
    <path
       d="M10643 4560 c-33 -13 -56 -65 -48 -107 15 -80 91 -108 146 -54 47 47 33 132 -26 159 -30 14 -42 14 -72 2z m68 -72 c15 -29 -14 -72 -40 -58 -25 13 -32 44 -15 69 16 23 39 18 55 -11z"
       id="path28" />
    <path
       d="M8931 4516 c-6 -7 -8 -26 -5 -43 8 -43 -13 -112 -46 -145 -23 -22 -37 -28 -73 -28 -41 0 -49 4 -80 42 -25 30 -39 39 -52 34 -25 -9 -13 -62 22 -98 79 -82 222 -47 274 67 23 50 25 133 3 163 -18 25 -27 27 -43 8z"
       id="path29" />
    <path
       d="M3010 4480 c-41 -10 -85 -58 -94 -101 -7 -39 14 -90 49 -117 57 -45 155 -19 188 51 21 44 21 60 1 103 -25 52 -83 78 -144 64z m80 -70 c42 -42 11 -113 -50 -113 -62 0 -90 65 -48 110 27 29 71 30 98 3z"
       id="path30" />
    <path
       d="M1719 4201 c-36 -36 -39 -86 -8 -125 16 -21 29 -26 64 -26 36 0 48 5 69 31 78 93 -39 205 -125 120z m91 -36 c27 -32 -23 -82 -55 -55 -19 16 -19 29 2 52 20 22 36 23 53 3z"
       id="path31" />
    <path
       d="M10605 4098 c-33 -17 -45 -40 -45 -80 0 -44 35 -88 69 -88 82 0 120 93 62 151 -31 31 -53 35 -86 17z m57 -63 c9 -21 9 -29 -5 -42 -13 -13 -19 -14 -31 -3 -19 15 -21 41 -4 58 18 18 27 15 40 -13z"
       id="path32" />
    <path
       d="M4494 4071 c-67 -41 -80 -137 -27 -193 56 -59 136 -57 187 2 92 110 -38 266 -160 191z m116 -61 c11 -11 20 -31 20 -45 0 -31 -41 -75 -70 -75 -25 0 -70 42 -70 65 0 20 19 57 34 67 21 14 66 8 86 -12z"
       id="path33" />
    <path
       d="M3281 3924 c-81 -57 -45 -184 53 -184 23 0 51 7 62 15 51 35 55 127 7 165 -31 24 -89 26 -122 4z m91 -51 c22 -20 23 -41 1 -65 -18 -21 -53 -24 -71 -6 -27 27 -3 88 35 88 9 0 25 -7 35 -17z"
       id="path34" />
    <path
       d="M1269 3901 c-54 -54 -31 -131 38 -131 32 0 59 22 48 40 -3 5 -17 10 -31 10 -17 0 -24 5 -24 20 0 28 30 38 46 16 16 -23 48 -17 52 10 4 27 -40 64 -75 64 -14 0 -37 -13 -54 -29z"
       id="path35" />
    <path
       d="M1646 3814 c-56 -56 -19 -148 60 -148 79 0 119 100 60 150 -37 33 -86 32 -120 -2z m94 -44 c15 -28 -22 -65 -50 -50 -22 12 -26 40 -8 58 18 18 46 14 58 -8z"
       id="path36" />
    <path
       d="M4723 3479 c-81 -23 -112 -136 -55 -200 39 -43 113 -52 156 -18 57 45 67 120 24 181 -17 24 -33 33 -78 43 -8 2 -29 -1 -47 -6z m77 -69 c40 -40 14 -110 -41 -110 -34 0 -69 31 -69 60 0 12 11 32 25 45 29 30 58 32 85 5z"
       id="path37" />
    <path
       d="M7897 3403 c-2 -5 -10 -25 -16 -45 -17 -51 -53 -78 -105 -78 -50 0 -73 15 -95 61 -21 45 -55 47 -59 4 -8 -91 122 -163 221 -121 64 26 120 124 96 167 -10 19 -34 25 -42 12z"
       id="path38" />
    <path
       d="M6705 3240 c-17 -27 -6 -94 22 -134 88 -128 278 -107 338 37 32 78 -19 111 -53 35 -11 -24 -29 -52 -40 -62 -30 -26 -110 -33 -149 -13 -41 21 -53 39 -67 94 -12 47 -36 67 -51 43z"
       id="path39" />
  </g>
  <path
     style="fill:#ffffff;stroke-width:1.23784"
     d="m 491.71127,824.90895 c -6.31696,-1.48826 -14.09505,-5.52817 -20.25022,-10.51786 -6.2936,-5.10193 -7.91253,-5.78457 -23.36428,-9.85189 -14.0513,-3.69867 -24.20628,-8.65506 -32.26274,-15.74665 -6.74462,-5.93685 -8.39577,-8.83782 -8.18726,-14.38446 0.13877,-3.69112 -1.03754,-5.51879 -8.78625,-13.65155 -14.41371,-15.12809 -24.06447,-31.88899 -31.06506,-53.95197 -6.02138,-18.97697 -7.49893,-29.36506 -7.48272,-52.60805 0.0123,-17.65896 0.5193,-23.98726 2.74334,-34.24395 7.89616,-36.41481 20.0961,-60.95953 48.83397,-98.24775 3.23385,-4.19601 5.87973,-8.13094 5.87973,-8.74429 0,-0.61336 -1.3722,-1.11519 -3.0493,-1.11519 -4.10635,0 -17.18571,12.34796 -27.16838,25.6491 -19.51396,26.00085 -34.34435,65.45277 -38.08148,101.30459 -3.37847,32.41113 5.05766,74.61094 20.34935,101.79293 2.02819,3.60523 3.47999,6.7626 3.22622,7.01637 -0.25377,0.25377 -6.48936,-0.61989 -13.85687,-1.94148 -11.79907,-2.11652 -14.15913,-2.97852 -19.8034,-7.2331 -3.52437,-2.65663 -9.47158,-5.99789 -13.21604,-7.42504 -4.76848,-1.81744 -8.24666,-4.28102 -11.60992,-8.22325 l -4.80183,-5.62846 3.87661,-5.17621 c 18.64783,-24.89941 28.66888,-61.21925 27.01128,-97.89855 -0.86903,-19.22999 -3.48191,-29.69948 -11.61363,-46.53426 -4.62116,-9.56704 -7.43682,-13.50773 -15.10239,-21.13674 -15.72543,-15.65041 -32.65955,-21.90499 -55.84775,-20.62724 -34.96273,1.92655 -68.55811,26.20009 -86.12463,62.22728 -5.40505,11.08523 -10.98314,29.54413 -10.18318,33.698 1.0228,5.31095 4.26834,1.67543 9.12198,-10.21811 9.54196,-23.38191 16.27616,-33.99023 30.35865,-47.82364 11.63646,-11.43065 24.36461,-19.56784 37.64735,-24.0682 12.85497,-4.35544 31.63051,-4.73632 43.45323,-0.88152 19.96673,6.51019 34.07198,22.16542 42.76545,47.46481 3.76826,10.96623 4.04835,12.96498 4.51011,32.18503 0.57024,23.7349 -1.09866,35.30659 -7.79343,54.03777 -8.2839,23.17733 -21.60986,41.87691 -37.75433,52.9785 -10.27007,7.06213 -12.37975,10.5098 -6.43112,10.5098 4.25715,0 10.89971,-2.59628 17.82081,-6.96539 4.65726,-2.94 5.05251,-2.99248 7.99875,-1.06203 1.70467,1.11694 3.87812,3.89455 4.82989,6.17246 1.47966,3.54133 2.76552,4.44038 8.87093,6.20239 9.38632,2.70888 14.62966,6.04605 19.01823,12.10427 7.4734,10.31674 2.0103,20.68339 -10.89987,20.68339 -4.75577,0 -5.57034,-0.46102 -8.21396,-4.64878 -5.72543,-9.06965 -17.48523,-17.63227 -24.21599,-17.63227 -5.72194,0 -4.43242,4.57842 2.67256,9.48892 6.60292,4.56351 12.06866,13.16477 12.06866,18.99207 0,6.51844 -5.33301,11.29198 -13.49121,12.07588 -9.64039,0.92632 -12.39896,-0.36957 -21.96356,-10.31778 l -8.84127,-9.19587 -7.2506,0.007 c -3.98783,0.004 -9.33509,0.58581 -11.88283,1.29336 -4.77904,1.32722 -4.91842,1.56986 -6.46951,11.26198 -1.85993,11.62206 -14.23339,17.82351 -25.86527,12.9634 -9.90317,-4.13781 -11.80186,-13.05919 -6.34017,-29.79063 1.71142,-5.2428 2.7926,-10.04862 2.40262,-10.67962 -2.23956,-3.62368 -8.33475,0.8139 -13.78054,10.03287 -2.5445,4.3075 -6.31344,4.7542 -14.03731,1.66372 -5.31814,-2.12791 -8.64235,-6.75812 -8.64235,-12.03776 0,-1.66671 1.67108,-6.20715 3.71351,-10.08987 2.28385,-4.34167 3.71351,-8.91731 3.71351,-11.88515 0,-4.59199 1.44125,-6.26295 3.09459,-3.5878 1.13009,1.82853 3.9659,1.50273 4.75206,-0.54595 0.37648,-0.98108 -1.06967,-7.52614 -3.21368,-14.54458 -3.7668,-12.33074 -3.8989,-13.53255 -3.91986,-35.66076 -0.0174,-18.35838 0.42263,-24.49567 2.21863,-30.94591 3.05983,-10.9893 8.48425,-26.36415 12.39177,-35.1229 5.45827,-12.23487 3.22887,-16.12474 -4.16839,-7.273 -9.06452,10.84684 -18.35189,35.81042 -21.16974,56.90236 -1.66994,12.49965 -0.81656,34.6282 1.73953,45.10722 1.41271,5.79154 1.4301,7.66858 0.10038,10.83106 -0.92401,2.19757 -2.52685,3.82544 -3.76664,3.82544 -3.90076,0 -44.07917,-10.89765 -64.2336,-17.42218 -34.264741,-11.0924 -55.701049,-22.0218 -59.719297,-30.44815 -1.866531,-3.91416 -1.832374,-4.46158 0.589423,-9.44637 3.353101,-6.90169 14.258528,-20.47811 29.896402,-37.21872 6.913879,-7.40142 12.57069,-14.46372 12.57069,-15.694 0,-2.26589 -3.070816,-6.1272 -4.87283,-6.1272 -0.540367,0 -2.363438,1.08625 -4.051267,2.4139 l -3.068781,2.41391 -3.422893,-9.83278 c -3.765454,-10.81684 -3.543697,-13.56258 1.095369,-13.56258 2.541051,0 16.334474,4.36906 17.845058,5.65241 0.236537,0.20096 -0.587732,2.08837 -1.831708,4.19426 -1.724918,2.92004 -1.943898,4.33601 -0.922567,5.96542 2.698499,4.30513 5.822531,3.05549 14.669371,-5.8679 4.74742,-4.7885 9.32328,-8.70635 10.1686,-8.70635 2.59851,0 3.89487,-4.07075 3.21558,-10.09738 -0.73571,-6.52724 -0.001,-7.23794 10.79673,-10.44454 4.66957,-1.38671 6.63816,-2.81031 8.8543,-6.40303 4.26908,-6.92088 19.24599,-23.52524 22.01102,-24.40282 1.33085,-0.4224 2.76293,-1.84932 3.18239,-3.17095 0.41947,-1.32163 3.02597,-5.26623 5.79222,-8.7658 6.99759,-8.85261 8.55764,-12.13989 7.07553,-14.90923 -1.79279,-3.34987 -4.25295,-2.78855 -9.81941,2.24041 -2.7432,2.47831 -5.25432,4.23933 -5.58028,3.91336 -1.70544,-1.70543 -12.03134,-46.29593 -12.62081,-54.50061 -0.98839,-13.75723 1.84533,-15.85142 15.40184,-11.38232 6.15406,2.02877 30.12214,13.53272 37.23169,17.87009 l 4.07631,2.48685 -13.11875,14.36691 c -10.66649,11.68134 -13.04817,14.97593 -12.74116,17.62493 0.79279,6.84066 4.71064,4.82807 21.5493,-11.06975 8.77986,-8.28929 17.23004,-15.65419 18.77819,-16.36647 3.54625,-1.63154 4.52176,-5.46343 3.53286,-13.87741 -0.82799,-7.04485 0.84615,-10.45277 5.19073,-10.56643 1.14278,-0.0299 6.17973,-0.5294 11.19319,-1.10999 8.82816,-1.02236 9.32545,-1.26308 15.78185,-7.63928 3.6868,-3.64101 7.55547,-8.91146 8.65542,-11.79166 1.43073,-3.7463 3.0811,-5.6596 5.88028,-6.81709 3.35145,-1.38585 24.46741,-18.8416 30.77815,-25.4431 22.21962,-23.24336 24.21358,-26.58549 16.32202,-27.35764 -3.04978,-0.2984 -5.05024,0.74365 -10.03993,5.2298 l -6.23128,5.60246 -3.2069,-20.08383 c -6.45703,-40.43845 -7.09,-51.42216 -3.23131,-56.07161 3.26814,-3.93786 11.49914,-1.48699 35.51267,10.57425 13.92479,6.99397 22.59052,12.04544 22.59052,13.16853 0,4.34372 -5.49971,11.85812 -14.84423,20.28209 -11.70805,10.55465 -14.37016,14.60985 -11.85182,18.0539 2.18298,2.98539 4.86782,1.75712 15.77666,-7.21754 4.5469,-3.74072 9.63123,-7.14368 11.29853,-7.56214 2.39992,-0.60235 3.64321,-2.48579 5.96804,-9.04099 3.12459,-8.81025 3.60437,-9.18742 13.87878,-10.91074 5.49425,-0.92156 13.93746,-8.05041 17.60875,-14.8676 1.80166,-3.34547 3.57124,-4.72592 7.33604,-5.7228 2.72889,-0.72258 7.4204,-3.21442 10.42557,-5.53741 3.00517,-2.323 5.88867,-4.22362 6.40779,-4.22362 1.07776,0 7.88841,-11.70751 9.03891,-15.53789 0.41971,-1.39733 0.0218,-3.55445 -0.88433,-4.79359 -2.51907,-3.44504 -6.27911,-1.47822 -10.87954,5.69092 -4.76731,7.42921 -11.30964,12.48315 -19.81757,15.30903 -4.82899,1.60392 -6.85488,3.14726 -9.37804,7.14418 -2.95398,4.67942 -3.29739,4.88477 -4.1798,2.49939 -3.04826,-8.24022 -8.55788,-50.40281 -8.54562,-65.39576 0.0102,-12.44784 1.68875,-16.16259 7.18755,-15.90623 7.17246,0.33437 29.81607,12.31537 49.44974,26.16443 l 7.77116,5.48156 -4.98603,5.40921 c -5.8284,6.32308 -6.42968,10.00636 -1.82225,11.16276 2.4225,0.608 4.29358,-0.11386 7.98556,-3.08082 2.65196,-2.13118 11.67251,-9.09319 20.04564,-15.47113 18.38517,-14.00425 20.56057,-16.21839 18.75893,-19.09305 -2.24203,-3.57736 -5.79875,-3.00161 -13.93221,2.25528 l -7.84317,5.0693 0.49706,-24.51455 c 0.43046,-21.22926 0.82325,-25.17809 2.93099,-29.46589 3.36169,-6.83872 7.4511,-7.12231 17.28795,-1.1989 7.80564,4.70029 30.327,21.23951 30.327,22.27152 0,0.33096 -5.32166,4.01472 -11.8259,8.18613 -10.48822,6.72649 -11.78337,7.95094 -11.44998,10.82496 0.62294,5.37016 4.74345,4.66766 20.50071,-3.49519 7.99403,-4.14121 21.08569,-10.55645 29.09254,-14.25609 8.00688,-3.69965 14.92096,-7.67261 15.36462,-8.82881 1.27188,-3.31445 -3.06383,-5.76484 -8.66263,-4.89581 -5.35803,0.83165 -5.32842,1.40448 -0.58886,-11.39294 2.82834,-7.63687 4.61113,-8.0952 11.63642,-2.99151 6.29398,4.57242 8.42959,7.17371 6.74448,8.21517 -2.03735,1.25914 -1.51795,6.83852 0.71642,7.69592 1.10789,0.42515 10.15957,-1.25932 20.11484,-3.74325 9.95526,-2.48393 22.97445,-5.27873 28.93154,-6.21066 l 10.83107,-1.69442 v 3.39051 c 0,3.90275 2.59306,6.55899 5.82026,5.96207 3.79791,-0.70248 6.51404,-8.57753 8.00323,-23.20431 2.49205,-24.47683 -2.40373,-47.4799 -13.8307,-64.98424 -5.12143,-7.84527 -9.01612,-11.84059 -22.47379,-23.054478 -3.75487,-3.128814 -3.76114,-3.155481 -1.83179,-7.773088 l 1.936,-4.633504 4.68975,1.945789 c 13.54847,5.621293 30.10864,19.121331 39.22503,31.976681 13.77718,19.4277 20.52935,40.49476 22.49458,70.1841 0.47117,7.1182 1.40832,13.63847 2.08252,14.48948 3.11145,3.92742 9.58755,-0.6176 9.58755,-6.72867 0,-2.7545 0.0976,-2.76854 14.05539,-2.02052 13.44359,0.72046 14.17697,0.63168 16.84833,-2.03969 l 2.79293,-2.79293 -2.53966,-2.53966 c -1.74756,-1.74756 -4.68595,-2.71764 -9.42131,-3.11033 -3.7849,-0.31388 -6.88165,-0.79135 -6.88165,-1.06105 0,-0.26971 2.4531,-5.35322 5.45133,-11.29671 11.85669,-23.50387 16.11219,-26.00117 25.85032,-15.17001 5.82994,6.48429 22.51139,30.8037 21.69158,31.62352 -0.26351,0.26351 -4.30463,-0.0626 -8.98025,-0.7248 -9.51739,-1.34782 -12.50159,-0.8154 -14.30377,2.55198 -2.02236,3.77884 1.34483,5.69557 14.01249,7.97643 6.42334,1.15655 14.86761,3.08945 18.76504,4.29534 8.67441,2.68391 12.58175,2.07357 14.85387,-2.32021 0.95564,-1.848 4.89154,-5.53225 8.74644,-8.18723 l 7.00892,-4.82723 2.82379,3.54136 c 1.55307,1.94775 4.09345,7.27077 5.64527,11.82895 l 2.8215,8.28758 8.15125,2.8598 c 4.4832,1.57289 12.73391,4.79845 18.33491,7.16792 8.95005,3.78627 10.03715,4.58186 8.97431,6.56778 -0.66512,1.24281 -1.20932,3.96735 -1.20932,6.05454 0,6.48248 3.99971,4.76758 15.16963,-6.50409 6.87506,-6.93769 12.62998,-11.48262 17.63303,-13.92566 6.90045,-3.36956 8.43626,-3.62668 21.66214,-3.62668 13.04053,0 14.81932,0.28701 21.19669,3.42015 14.7861,7.26426 25.89122,20.80745 31.4246,38.32366 2.52724,8.00014 3.07786,12.2469 3.06201,23.61595 -0.0109,7.79012 -0.80484,17.1149 -1.81266,21.28878 -3.01403,12.48249 -1.92558,16.83718 3.67154,14.68936 1.22951,-0.4718 2.27701,0.46469 3.1587,2.82397 4.89278,13.0926 11.54192,21.95624 20.27387,27.02612 4.52492,2.62723 8.3926,3.61152 26.09809,6.64167 5.6181,0.96149 5.2948,-0.88146 3.62704,20.67595 -0.96871,12.5213 0.40982,17.32449 7.96582,27.75523 2.13405,2.94597 3.87619,5.96903 3.87139,6.7179 -0.005,0.74886 -3.34365,5.53927 -7.41971,10.64534 -7.52765,9.42989 -10.49528,15.97412 -11.78779,25.99456 -0.39518,3.06365 -0.99316,7.3806 -1.32884,9.59324 l -0.61036,4.02296 h -8.1905 c -4.50478,0 -11.30312,0.90588 -15.10741,2.01306 -13.04283,3.79591 -13.72499,4.18922 -13.72499,7.91333 0,2.90029 2.13582,5.11827 13.68029,14.20657 53.01382,41.73478 76.74362,80.90891 78.81262,130.10739 1.3562,32.24791 -6.2612,59.69343 -24.8559,89.5565 -3.1598,5.07476 -5.7452,9.94874 -5.7452,10.83107 0,2.49208 6.0109,1.89972 10.0729,-0.99264 5.0258,-3.5787 8.5194,-2.38056 14.8094,5.07899 4.684,5.55505 5.7277,6.18394 10.2804,6.19481 9.3743,0.0224 21.18,7.33636 24.043,14.89543 2.2172,5.85403 -3.9007,14.80055 -10.1211,14.80055 -1.2945,0 -4.5678,-2.51542 -7.274,-5.58982 -6.1909,-7.03331 -13.7436,-11.50319 -21.1526,-12.51871 -4.8487,-0.66458 -5.8903,-0.43639 -6.6138,1.44887 -0.9172,2.39012 -0.6583,2.63661 10.0607,9.57826 6.8838,4.45799 11.7924,10.87058 11.7924,15.40562 0,1.67279 -1.6053,4.612 -3.6183,6.62503 -6.5812,6.58113 -17.8664,4.31361 -30.3995,-6.10811 -9.07897,-7.54941 -16.53571,-6.93389 -12.41991,1.0252 l 1.93914,3.74986 -8.38719,-0.0272 c -8.20429,-0.0266 -15.02542,-2.14984 -20.56966,-6.40281 -2.16867,-1.66359 -1.97761,-2.31867 3.92039,-13.44183 7.45349,-14.05666 12.85883,-29.10849 16.56215,-46.1192 2.34804,-10.78547 2.7456,-16.37551 2.7456,-38.60615 0,-22.29256 -0.39424,-27.8065 -2.76828,-38.71749 -3.62497,-16.66014 -9.97109,-34.2114 -16.48915,-45.60351 -6.20303,-10.84149 -9.13776,-13.94339 -11.221,-11.86015 -1.65325,1.65325 -1.28799,2.96077 6.46687,23.1488 2.87672,7.48891 6.91568,20.022 8.97545,27.85132 3.60859,13.71648 3.74952,15.24986 3.86774,42.08644 0.13363,30.32835 -0.72159,37.4527 -6.6873,55.70848 -4.80914,14.71655 -11.1264,28.2099 -17.58773,37.56652 -5.06194,7.33016 -5.2589,7.97112 -5.38105,17.51135 -0.15154,11.8353 -2.56235,17.40159 -10.84242,25.03389 -6.12755,5.64818 -12.74102,9.35963 -22.91584,12.86028 -3.77171,1.29766 -9.03452,4.44798 -12.00539,7.18643 -12.78363,11.78354 -28.38038,14.577 -37.68315,6.74924 -6.85528,-5.76834 -4.32048,-13.98352 7.35133,-23.82534 9.16093,-7.7246 8.01978,-11.88828 -2.26386,-8.26001 -7.78788,2.74773 -12.08764,6.26562 -17.23395,14.10014 -3.5078,5.34011 -6.19729,7.81264 -11.32135,10.40802 -8.84353,4.47934 -18.82439,4.71157 -24.95429,0.58062 -11.01107,-7.42036 -6.69591,-18.19581 12.55395,-31.34865 4.72963,-3.23162 8.59933,-6.31477 8.59933,-6.85146 0,-2.40383 -4.59152,-3.17248 -10.24525,-1.71511 -8.33222,2.14779 -19.22124,10.01603 -23.60083,17.05355 -3.63236,5.83682 -3.70784,5.87972 -10.34361,5.87972 -8.15708,0 -13.14202,-2.39476 -15.16841,-7.28688 -2.14289,-5.1734 -0.60112,-10.6724 4.60922,-16.43963 6.04107,-6.68675 13.06461,-10.53633 23.03756,-12.62684 5.32007,-1.11518 10.37386,-3.16648 13.71798,-5.56806 2.91211,-2.09131 7.89786,-4.49862 11.07943,-5.34956 5.02246,-1.3433 6.61216,-1.25327 12.06469,0.68329 8.26731,2.9363 9.40471,1.81707 7.25594,-7.14 -2.65221,-11.05565 -1.09133,-31.0727 3.53229,-45.29923 7.48312,-23.02488 23.20851,-44.61713 42.14206,-57.86451 10.408,-7.28224 13.71344,-10.24434 13.71344,-12.28901 0,-2.63412 -5.72919,-1.91329 -12.72897,1.60151 -19.66647,9.87511 -34.69834,25.43597 -47.33165,48.99727 -3.39861,6.33845 -3.9319,6.82321 -5.22626,4.75063 -1.22605,-1.96322 -0.53692,-3.50294 4.61192,-10.30441 10.27437,-13.57212 18.53771,-26.91423 25.46476,-41.11573 9.89486,-20.28598 14.87574,-41.02447 9.60949,-40.01028 -1.32822,0.2558 -4.69088,6.2213 -9.28949,16.48001 -16.01404,35.72457 -37.1314,65.26323 -59.81349,83.66623 -6.71451,5.44778 -8.03673,7.14288 -8.03673,10.30311 0,3.15905 -2.09141,5.84323 -12.68782,16.28402 -13.97393,13.76869 -25.54168,22.10251 -42.41477,30.5571 -33.97285,17.02276 -70.33301,25.2277 -117.6618,26.55123 l -26.08078,0.72934 -1.59169,-3.84271 c -2.01333,-4.8606 -11.74914,-14.02757 -18.62172,-17.53371 -2.89549,-1.47717 -9.18378,-3.50295 -13.97397,-4.50174 -4.79019,-0.99877 -10.99493,-3.15505 -13.78829,-4.79173 -2.79338,-1.63667 -8.39118,-3.8383 -12.43958,-4.89249 -4.0484,-1.0542 -7.71168,-2.33648 -8.14062,-2.8495 -0.42894,-0.51303 -1.47395,-5.27385 -2.32224,-10.5796 -2.43242,-15.21386 -7.16274,-30.04479 -14.4419,-45.27964 -3.6995,-7.74282 -6.72636,-14.72511 -6.72636,-15.51621 0,-0.79109 1.98581,-6.30917 4.41291,-12.26239 2.42711,-5.95323 5.85582,-16.23876 7.61935,-22.85673 2.89526,-10.86498 3.2085,-14.25494 3.22775,-34.93264 0.0244,-26.17982 -1.51566,-34.14266 -10.17839,-52.62845 -5.24721,-11.19725 -16.02332,-24.11741 -20.11522,-24.11741 -3.26342,0 -2.88781,1.79671 2.08802,9.9878 21.59183,35.544 24.76585,75.7977 9.16624,116.24884 -2.1052,5.45895 -3.94756,9.92536 -4.09415,9.92536 -0.14658,0 -3.30899,-2.86519 -7.02759,-6.36709 -11.84316,-11.15306 -24.42112,-18.14733 -26.52193,-14.74815 -0.48195,0.77981 3.97045,6.10853 10.37121,12.41251 25.63786,25.25017 39.928,58.08411 44.06035,101.23589 0.47294,4.93857 1.36514,9.29147 1.98268,9.67314 2.15473,1.3317 6.05202,-0.89179 6.80221,-3.88081 1.21267,-4.83167 8.64478,-3.72718 17.93961,2.66599 2.61889,1.80133 7.68667,3.58454 12.29718,4.32705 15.19604,2.44725 25.28033,9.05301 28.3003,18.53823 2.70795,8.50525 -2.14363,15.16165 -11.78807,16.17329 -3.23664,0.33951 -5.07507,-0.72119 -11.40114,-6.57803 -8.03815,-7.44191 -17.95927,-12.14405 -25.62293,-12.14405 -3.3954,0 -4.28599,0.49191 -4.28599,2.36734 0,1.65472 2.93288,4.05902 9.74327,7.98725 10.88182,6.27662 15.50534,11.00623 17.6027,18.00659 3.73427,12.46389 -10.35084,20.79351 -26.27934,15.54102 -5.37867,-1.77364 -8.39693,-4.02098 -15.92067,-11.85425 -9.95448,-10.364 -17.25939,-14.64533 -25.06619,-14.69106 -6.59926,-0.0386 -6.29574,3.56367 0.61892,7.34579 10.17164,5.56359 17.02025,13.81725 17.02025,20.51209 0,4.30341 -5.7168,9.89732 -11.85699,11.6021 -5.56481,1.54505 -7.96003,1.54746 -14.46626,0.0146 z m 155.67715,-97.69851 c 7.41331,-4.56404 11.53352,-17.31128 5.59542,-17.31128 -1.61678,0 -3.31858,1.70154 -5.00195,5.00122 -2.65045,5.19534 -6.28713,7.37714 -12.29637,7.37714 -4.60804,0 -8.41284,-3.23486 -11.65085,-9.90563 -1.45244,-2.99228 -3.31655,-5.64786 -4.14246,-5.9013 -2.28833,-0.70223 -3.32506,5.5624 -1.77609,10.7324 3.50207,11.68891 18.31532,16.75317 29.2723,10.00745 z m 89.06586,-19.90175 c 5.20059,-4.56619 8.09196,-12.39002 5.66123,-15.31888 -2.54809,-3.07024 -4.27681,-2.22389 -6.87274,3.36477 -4.51492,9.71998 -13.22806,11.00958 -18.13981,2.68479 -3.00448,-5.09222 -6.39657,-5.21861 -6.97065,-0.25974 -0.8502,7.34384 6.39699,13.34502 16.1251,13.35274 4.76269,0.004 6.63895,-0.6998 10.19687,-3.82368 z M 431.6759,705.04935 c 3.43115,-3.06572 4.0425,-4.45464 4.0425,-9.18405 0,-9.41028 -7.39083,-14.83231 -16.23803,-11.91247 -9.81022,3.23766 -10.69836,19.67573 -1.26869,23.48108 5.0951,2.05613 9.33455,1.30531 13.46422,-2.38456 z M 126.70761,660.88476 c 2.03452,-4.46529 1.74582,-7.09714 -1.11544,-10.16834 -3.27835,-3.5189 -10.16404,-3.63735 -13.56798,-0.23341 -4.60228,4.60229 -2.05508,14.15501 4.03386,15.12805 4.42439,0.70704 9.12434,-1.3788 10.64956,-4.7263 z m 162.80543,-5.49439 c 1.54878,-1.47192 2.33502,-3.93069 2.33502,-7.30222 0,-6.79655 -2.96099,-9.9835 -9.27568,-9.9835 -6.32831,0 -9.07772,1.58767 -10.67271,6.16305 -3.74513,10.74333 9.32671,18.99808 17.61337,11.12267 z M 83.508954,653.63182 c 1.872153,-2.25579 0.655953,-4.38664 -2.503725,-4.38664 -1.321441,0 -2.402619,-0.52415 -2.402619,-1.16478 0,-1.7913 2.208267,-2.74499 3.082112,-1.33109 1.233614,1.99603 5.5827,1.46061 6.447797,-0.79378 0.880599,-2.29482 -4.665933,-7.85088 -7.8374,-7.85088 -2.864127,0 -9.119528,6.8727 -9.119528,10.01947 0,6.04169 8.675046,9.91571 12.333363,5.5077 z m 326.846796,-6.44798 c 6.83534,-4.03773 8.31651,-13.77263 3.04814,-20.03375 -9.13655,-10.85816 -25.80211,-1.24916 -21.6823,12.50155 2.45808,8.20435 11.38666,11.81341 18.63416,7.5322 z m 607.67485,-11.10288 c 1.411,-1.79384 2.5655,-4.50384 2.5655,-6.02225 0,-4.36441 -4.5914,-9.28377 -8.6649,-9.28377 -3.9272,0 -8.6648,4.8734 -8.6648,8.91316 0,2.76876 2.2324,7.38776 4.2083,8.70706 3.0043,2.00603 8.023,0.90577 10.5559,-2.3142 z M 132.97757,623.7026 c 1.41103,-1.79384 2.56551,-4.50385 2.56551,-6.02225 0,-4.31891 -4.59264,-9.28377 -8.58776,-9.28377 -5.42239,0 -9.97978,4.31774 -9.97978,9.45499 0,7.08536 1.77961,9.11255 7.99964,9.11255 4.39919,0 5.92653,-0.62249 8.00239,-3.26152 z m 705.58009,-17.58315 c 5.61509,-4.10841 7.93952,-8.50033 8.44914,-15.96432 0.54177,-7.93472 -1.53687,-12.45462 -5.09906,-11.08768 -1.50457,0.57736 -2.03576,2.35852 -2.03576,6.82616 0,8.77249 -3.98143,14.33321 -10.61463,14.82511 -4.23014,0.3137 -5.47033,-0.20068 -8.39322,-3.48113 -3.80131,-4.26631 -6.15845,-4.30894 -6.77273,-0.12248 -1.43062,9.75023 15.12126,15.84183 24.46626,9.00434 z m -578.05599,-0.76056 c 8.99708,-8.14224 4.14631,-21.71904 -7.75986,-21.71904 -9.33774,0 -15.27578,7.17174 -13.00301,15.70454 1.61433,6.06076 6.6889,9.42091 13.13951,8.70038 2.92107,-0.32629 6.35159,-1.53493 7.62336,-2.68588 z m 762.59793,-13.98967 c 3.3629,-4.27516 3.1257,-9.63972 -0.5905,-13.35589 -6.3209,-6.32094 -15.5659,-2.40872 -15.4898,6.5549 0.086,10.18525 10.0902,14.41625 16.0803,6.80099 z M 748.891,593.3987 c 2.88911,-0.79814 6.79836,-3.30402 9.38595,-6.01649 7.53062,-7.89409 9.79718,-23.02076 3.30854,-22.08081 -2.03036,0.29412 -2.94149,1.60147 -3.71143,5.32538 -0.56126,2.71457 -2.24482,6.72241 -3.74125,8.9063 -7.35755,10.73765 -21.67363,8.03829 -25.98633,-4.89984 -1.24044,-3.72131 -2.42676,-5.22851 -4.11535,-5.22851 -3.60855,0 -3.73668,7.3599 -0.24783,14.23512 2.0667,4.07269 4.31153,6.31904 8.34974,8.35539 6.18225,3.11753 9.53658,3.39846 16.75796,1.40346 z m -600.14906,-7.98103 c 0.45562,-1.18732 -0.30008,-2.66615 -1.95461,-3.82504 -2.11655,-1.48248 -2.38993,-2.25983 -1.26951,-3.60985 1.19395,-1.43863 1.78046,-1.28513 3.57972,0.93685 1.35865,1.67788 2.90728,2.36749 4.20137,1.87089 5.62449,-2.15831 -1.6336,-11.61776 -7.79956,-10.16513 -6.24878,1.47213 -9.30304,8.53412 -6.19921,14.33367 1.5915,2.97375 8.35067,3.30205 9.4418,0.45861 z m 530.61832,0.24724 c 5.48299,-2.29094 10.73352,-8.77762 10.73352,-13.26057 0,-5.26817 -3.67332,-4.69327 -8.51602,1.33282 -3.11771,3.87958 -4.81992,4.95134 -7.86386,4.95134 -4.62466,0 -9.61469,-4.20753 -9.61469,-8.10697 0,-10.13851 -4.61439,-14.28327 -7.30592,-6.56235 -1.88522,5.40793 -1.73687,6.91781 1.29513,13.18106 1.97437,4.07851 3.95561,6.07363 7.73647,7.79065 6.11421,2.77666 8.24866,2.88295 13.53537,0.67402 z M 452.78433,568.55996 c 3.08469,-4.13159 2.07245,-11.3271 -1.96028,-13.9348 -5.48047,-3.54386 -8.88469,-3.55676 -13.05291,-0.0494 -3.25979,2.74294 -3.90949,4.16517 -3.90949,8.55802 0,5.55933 2.22125,8.69167 6.8081,9.60056 4.52365,0.89637 9.64672,-0.8689 12.11458,-4.17434 z m 548.45837,-14.71803 c 5.9513,-4.68127 4.0033,-14.78401 -3.45118,-17.89869 -5.25331,-2.19498 -9.04054,-1.11092 -11.28551,3.23036 -2.76492,5.34676 -2.19706,8.42668 2.40147,13.02521 4.85448,4.85448 7.76051,5.24158 12.33522,1.64312 z m -399.2728,-4.8917 c 4.25223,-2.59251 9.18094,-11.4197 8.03853,-14.39677 -1.11194,-2.89766 -5.18252,-1.81821 -7.0958,1.8817 -1.00872,1.95062 -3.81261,4.4855 -6.2309,5.63304 -3.74216,1.77578 -4.89689,1.84671 -7.75477,0.47637 -4.00657,-1.92111 -6.48167,-6.36055 -6.5067,-11.67067 -0.01,-2.12926 -0.91407,-4.61485 -2.00895,-5.52353 -5.21412,-4.32734 -7.04243,10.98425 -2.20046,18.42835 4.79372,7.36993 16.11233,9.8336 23.75905,5.17151 z M 823.54514,531.619 c 4.70971,-2.87144 7.67038,-8.95735 7.64303,-15.71093 -0.0234,-5.77991 -1.42304,-8.15597 -4.4618,-7.57446 -1.77473,0.33963 -2.49236,1.87912 -3.02232,6.48358 -0.5216,4.53181 -1.54244,6.76716 -4.09199,8.96019 -5.67382,4.88041 -9.17189,3.88427 -15.45796,-4.40198 -1.56785,-2.06672 -2.94972,-2.73051 -4.46992,-2.14716 -3.423,1.31353 -1.50774,8.0693 3.6501,12.87519 3.62117,3.37405 5.26894,4.02222 10.21549,4.01833 3.73,-0.003 7.40402,-0.92288 9.99537,-2.50276 z m -624.03426,-5.66346 c 0.69129,-1.80149 -0.60768,-3.33998 -3.93273,-4.6579 -0.68081,-0.26983 -0.19626,-1.5322 1.07679,-2.80524 1.27304,-1.27306 2.53541,-1.75761 2.80525,-1.0768 2.29283,5.78475 6.63957,5.4335 6.63957,-0.53651 0,-6.5937 -8.91421,-8.61044 -14.29138,-3.23326 -3.31662,3.31661 -4.15216,10.20675 -1.55293,12.80598 2.17983,2.17983 8.35558,1.84868 9.25543,-0.49627 z m 703.06865,-1.56837 c 10.48248,-7.59347 19.78589,-21.87826 23.37622,-35.89271 2.11199,-8.24395 1.74045,-10.0707 -2.04835,-10.0707 -1.67062,0 -2.91937,1.29867 -3.86831,4.02297 -3.48633,10.00878 -11.4105,23.43692 -19.43669,32.93703 -4.80771,5.69059 -8.74129,10.84308 -8.74129,11.44998 0,2.32641 6.02941,0.95013 10.71842,-2.44657 z M 655.47487,513.68114 c 6.56627,-3.39554 10.54443,-16.68984 4.99425,-16.68984 -1.31574,0 -2.72798,1.05777 -3.13831,2.35059 -1.20559,3.79849 -6.94733,8.78994 -10.11118,8.78994 -3.98055,0 -7.47024,-3.7946 -9.11829,-9.91495 -1.00602,-3.73611 -1.93093,-4.98805 -3.46933,-4.69605 -2.57204,0.4882 -3.5912,10.66378 -1.46581,14.6351 3.50694,6.55278 14.87631,9.36864 22.30867,5.52521 z M 354.33066,501.56443 c 3.94908,-3.5859 3.82394,-11.07386 -0.2532,-15.151 -6.81864,-6.81865 -19.24272,-2.13117 -19.24272,7.26009 0,10.36628 11.59948,15.06114 19.49592,7.89091 z m -77.5286,-11.85451 c 5.84229,-5.84229 6.3193,-10.53525 1.63651,-16.10044 -10.02143,-11.90978 -29.18271,0.88869 -22.68415,15.1515 1.72821,3.79298 5.3039,5.56324 11.45441,5.67087 3.96746,0.0694 5.61068,-0.73938 9.59323,-4.72193 z m 44.86732,-42.70099 c 9.38465,-3.92116 12.146,-13.11924 5.83355,-19.43168 -7.93471,-7.93473 -22.37626,-2.6894 -22.37626,8.12731 0,5.69544 1.63534,8.76135 5.91084,11.08159 4.24939,2.30605 5.57921,2.33392 10.63187,0.22278 z M 594.3586,433.38642 c 61.19536,-23.19767 112.57327,-34.54326 171.74795,-37.92644 53.98798,-3.08666 114.50958,5.92989 154.39606,23.00202 10.95178,4.68756 14.82006,5.21994 17.18887,2.36571 2.59005,-3.12083 -0.44236,-7.54905 -7.68159,-11.21746 -15.58118,-7.89557 -53.95114,-18.44256 -80.47636,-22.12102 -36.08816,-5.00462 -84.7535,-5.55718 -116.11548,-1.3184 -50.42017,6.81463 -104.02445,20.55326 -147.30253,37.75328 -16.64357,6.61465 -18.56754,7.88249 -18.56754,12.23545 0,7.04139 1.26515,6.91053 26.81062,-2.77314 z M 388.9553,395.89433 c 4.96298,-2.35509 8.39615,-8.88785 7.19206,-13.6853 -2.32513,-9.26407 -14.82826,-12.35189 -21.79707,-5.38307 -7.69582,7.69582 -2.78744,20.69171 7.95407,21.05997 1.25874,0.0432 4.25165,-0.85306 6.65094,-1.9916 z m 212.63318,-44.1747 c 14.75685,-3.9419 26.64486,-13.93551 33.31161,-28.00327 3.58339,-7.56145 3.82348,-8.96198 3.82348,-22.3032 0,-13.44851 -0.21899,-14.6974 -3.96287,-22.60108 -12.63151,-26.66612 -41.12149,-37.2595 -66.72206,-24.80915 -22.30921,10.84968 -34.35759,40.0019 -26.38892,63.85061 5.8786,17.59359 16.65874,28.3321 33.94419,33.81311 6.55466,2.07842 18.32239,2.10239 25.99457,0.053 z m 150.14955,-5.99193 c 2.53158,-2.53159 1.72893,-9.17576 -1.58412,-13.11311 -8.82534,-10.48831 -22.85992,-6.35385 -17.34291,5.10907 3.59604,7.47166 14.74474,12.18633 18.92703,8.00404 z m 73.42554,-4.55815 c 3.70753,-3.70754 4.80572,-5.77245 4.80572,-9.0362 0,-8.44387 -7.57679,-10.01378 -14.23856,-2.95024 -11.24983,11.9283 -2.11577,23.53506 9.43284,11.98644 z m -376.67125,-8.50103 c 0.25385,-1.78743 -0.24613,-2.78513 -1.39573,-2.78513 -0.9852,0 -2.41454,-0.75098 -3.17631,-1.66886 -1.05498,-1.27117 -0.81807,-2.18196 0.99417,-3.82201 2.97242,-2.69 6.73977,-2.08178 7.26355,1.17266 0.8318,5.1684 1.3275,5.72961 3.86251,4.37291 3.44752,-1.84507 4.23513,-5.55574 2.06851,-9.74552 -5.33609,-10.31885 -21.7717,-4.45126 -21.7717,7.7726 0,7.06927 11.2033,11.40437 12.155,4.70335 z m 446.56698,-9.48144 c 19.44569,-8.90253 32.76434,-36.03979 29.03948,-59.16907 -2.67185,-16.59067 -14.67,-33.58763 -28.38579,-40.21218 -5.83203,-2.8168 -8.6345,-3.36437 -17.46808,-3.41301 -9.04093,-0.0498 -11.49645,0.4208 -17.44869,3.34395 -7.85696,3.85857 -19.26247,15.10153 -23.25094,22.91957 -8.27541,16.22115 -8.32396,36.32505 -0.12817,53.08093 5.32655,10.88991 17.2676,21.80677 27.51702,25.1569 9.85389,3.22085 20.70414,2.606 30.12517,-1.70709 z M 522.71327,296.15235 c 0.69761,-0.85101 1.93146,-4.05391 2.74188,-7.11756 7.10153,-26.84588 35.96594,-50.75129 61.27929,-50.75129 6.33699,0 17.3132,2.82029 24.9537,6.41175 8.35222,3.926 21.9641,17.26677 27.78236,27.22903 2.71289,4.6451 5.48247,8.44566 6.15461,8.44566 2.26631,0 2.80271,-4.0607 1.29245,-9.78411 -3.30961,-12.54231 -17.58842,-28.47309 -31.89199,-35.5817 -7.4731,-3.714 -10.92713,-4.6011 -22.28351,-5.72312 -12.56247,-1.24116 -14.04327,-1.14446 -22.68966,1.48181 -13.22093,4.01572 -20.53242,8.06857 -28.82422,15.9776 -12.71576,12.12878 -21.17235,27.1474 -22.72511,40.35903 -1.08797,9.25693 0.76929,13.25048 4.2102,9.0529 z m -39.93094,-19.98089 c 2.00181,-1.46377 2.10766,-2.02213 0.70394,-3.71351 -0.90868,-1.09488 -2.41947,-1.9907 -3.35732,-1.9907 -0.93786,0 -1.70519,-0.79576 -1.70519,-1.76834 0,-2.77187 3.75532,-5.82849 6.65293,-5.4151 2.01452,0.28741 2.63084,1.24529 2.63084,4.08885 0,5.03101 4.85528,6.01812 6.95322,1.41364 2.00474,-4.3999 0.41485,-9.10644 -3.81509,-11.29382 -4.88014,-2.52361 -8.52401,-2.3598 -13.38114,0.6016 -4.51944,2.7555 -6.46778,6.7055 -6.46778,13.11255 0,3.29377 0.64764,4.55206 2.78513,5.41123 4.02771,1.61894 6.33225,1.50464 9.00046,-0.4464 z m 313.2796,-16.24643 c 3.76881,-3.76883 3.18784,-7.09225 -2.10624,-12.0483 -4.13849,-3.87424 -9.05195,-4.39961 -13.30256,-1.42238 -5.72559,4.01035 -6.18913,11.63453 -0.70736,11.63453 2.10213,0 3.15965,-0.88084 3.71527,-3.09459 0.81897,-3.26306 3.95815,-4.10095 6.3612,-1.6979 1.01239,1.01239 1.02675,1.98905 0.0522,3.54953 -1.48855,2.38354 -0.54154,6.19431 1.53933,6.19431 0.73312,0 2.73478,-1.40184 4.44815,-3.1152 z M 717.09089,233.2287 c 4.77144,-1.66335 5.81694,-4.65669 3.53446,-10.11946 -2.60934,-6.24501 -7.52419,-9.58247 -14.1115,-9.58247 -4.63529,0 -6.2062,0.67909 -9.73576,4.20865 -5.58764,5.58764 -5.80712,10.99305 -0.5566,13.70819 2.00862,1.0387 4.79375,1.88855 6.18918,1.88855 3.33427,0 3.38296,-4.21854 0.0754,-6.53524 -2.42729,-1.70013 -2.4188,-1.76461 0.60667,-4.60689 2.64869,-2.48831 3.49814,-2.68682 6.20998,-1.45121 4.10776,1.87161 5.09903,4.71836 2.60331,7.47611 -2.40168,2.65382 -2.57021,4.68361 -0.45959,5.53527 0.85102,0.34339 1.60344,0.66832 1.67205,0.72207 0.0686,0.0537 1.85618,-0.50586 3.97239,-1.24357 z"
     id="path40"
     transform="translate(52,222)" />
  <path
     style="fill:#ffffff;stroke-width:0.20031"
     d="m 250.1686,602.0033 c -1.20001,-0.26996 -2.87541,-1.35067 -3.62776,-2.34005 -2.37909,-3.12865 -1.06406,-7.76946 2.77322,-9.78679 0.95766,-0.50346 1.27705,-0.56404 2.97575,-0.56441 1.60644,-3.4e-4 2.03869,0.072 2.77417,0.46397 3.25705,1.73603 4.59075,5.25296 3.1658,8.34813 -1.43762,3.12271 -4.61886,4.65357 -8.06118,3.87915 z"
     id="path41"
     transform="translate(52,222)" />
  <path
     style="fill:#ffffff;stroke-width:0.20031"
     d="m 279.84395,652.60992 c -1.85119,-0.65946 -2.61858,-1.83773 -2.61019,-4.00777 0.011,-2.85008 2.12512,-5.49291 4.40139,-5.50216 0.75022,-0.003 2.38483,0.74799 3.2887,1.51103 1.85586,1.56669 2.2815,3.37884 1.2259,5.21931 -1.39796,2.43738 -4.02087,3.59355 -6.3058,2.77959 z"
     id="path42"
     transform="translate(52,222)" />
  <path
     style="fill:#ffffff;stroke-width:0.20031"
     d="m 402.10323,642.25681 c -1.56625,-0.77647 -3.91662,-3.05428 -4.57768,-4.43636 -0.35404,-0.7402 -0.43475,-1.16753 -0.34465,-1.82484 0.28246,-2.06082 1.98014,-5.17676 3.30021,-6.05727 1.50683,-1.00508 4.27937,-1.03749 6.5219,-0.0762 2.13897,0.91686 3.80717,3.37636 3.81917,5.63075 0.0123,2.30922 -2.39474,5.60114 -4.99514,6.83149 -1.53536,0.72644 -2.14452,0.71539 -3.72381,-0.0675 z"
     id="path43"
     transform="translate(52,222)" />
  <path
     style="fill:#ffffff;stroke-width:0.20031"
     d="m 441.88994,566.4938 c -2.7185,-0.76237 -3.67933,-4.75563 -1.68956,-7.02186 1.7044,-1.94119 6.49676,-1.6575 7.89641,0.46745 0.9706,1.47356 0.83229,3.29683 -0.3698,4.87489 -1.27064,1.66805 -3.5447,2.32238 -5.83705,1.67952 z"
     id="path44"
     transform="translate(52,222)" />
  <path
     style="fill:#ffffff;stroke-width:0.20031"
     d="m 344.48097,498.57284 c -0.5791,-0.16248 -1.30021,-0.44856 -1.60247,-0.63573 -1.4898,-0.92255 -2.65282,-2.49794 -2.65282,-3.59343 0,-1.93765 3.36566,-5.29758 5.76588,-5.75606 1.63489,-0.3123 4.23583,0.90828 4.79689,2.2511 0.21495,0.51444 0.27566,1.24005 0.2199,2.6283 -0.0657,1.63545 -0.16467,2.0927 -0.6725,3.10685 -0.48792,0.97439 -0.76388,1.27423 -1.52792,1.66016 -1.17762,0.59484 -2.92635,0.73177 -4.32696,0.33881 z"
     id="path45"
     transform="translate(52,222)" />
  <path
     style="fill:#ffffff;stroke-width:0.20031"
     d="m 264.67791,488.16921 c -2.74995,-1.05657 -4.77202,-3.45399 -4.51698,-5.35544 0.17493,-1.30419 1.11787,-2.94491 2.57263,-4.4764 2.67812,-2.81936 6.20812,-3.93448 8.89761,-2.81073 0.88718,0.37068 2.24556,1.63553 2.68811,2.50301 1.56675,3.07107 -0.63363,7.73418 -4.56211,9.66816 -1.50232,0.7396 -3.82111,0.9548 -5.07926,0.4714 z"
     id="path46"
     transform="translate(52,222)" />
  <path
     style="fill:#ffffff;stroke-width:0.20031"
     d="m 314.27815,441.47332 c -2.94453,-1.08003 -4.16213,-4.507 -2.66548,-7.50205 1.27668,-2.55486 3.94048,-4.57084 6.28872,-4.75933 2.24042,-0.17984 5.02786,1.14959 6.23499,2.97369 1.75447,2.65118 -0.19977,6.81564 -4.10438,8.74641 -1.35453,0.66979 -1.70164,0.7551 -3.23135,0.79415 -1.11691,0.0285 -1.99547,-0.0596 -2.5225,-0.25287 z"
     id="path47"
     transform="translate(52,222)" />
  <path
     style="fill:#ffffff;stroke-width:0.0866556"
     d="m 124.59345,621.55457 c -0.59101,-0.21092 -1.05834,-0.54211 -1.61806,-1.14668 -0.62853,-0.67888 -0.79193,-1.03823 -0.78667,-1.73002 0.003,-0.4565 0.056,-0.66379 0.27719,-1.0936 0.35646,-0.69269 1.14167,-1.67349 1.88341,-2.35256 1.55731,-1.42575 2.87503,-1.45205 4.24239,-0.0847 0.62104,0.62104 0.94573,1.19538 1.07689,1.90493 0.29265,1.5831 -0.8411,3.47203 -2.58045,4.29928 -0.81058,0.38552 -1.76602,0.4634 -2.4947,0.20334 z"
     id="path48"
     transform="translate(52,222)" />
  <path
     style="fill:#ffffff;stroke-width:0.0866556"
     d="m 117.30456,660.09172 c -0.56922,-0.22498 -1.45762,-1.03596 -1.76508,-1.61125 -1.13908,-2.13138 0.23295,-4.80008 2.731,-5.31201 1.04636,-0.21443 2.25654,0.20749 3.07375,1.07165 1.36665,1.44517 1.25759,3.24155 -0.29126,4.79757 -0.85094,0.85488 -1.52171,1.17311 -2.5499,1.20973 -0.58975,0.021 -0.8306,-0.0103 -1.19851,-0.15569 z"
     id="path49"
     transform="translate(52,222)" />
  <path
     style="fill:#ffffff;stroke-width:0.539156"
     d="m 103.26221,551.15785 c -4.392783,-17.52372 -5.203194,-23.69934 -3.609599,-27.5064 1.598689,-3.81924 4.710859,-3.69282 15.447369,0.62747 6.72539,2.70625 23.66744,10.64048 25.21101,11.80672 l 1.20885,0.91334 -7.94829,10.0217 c -4.37156,5.51194 -8.79747,10.63034 -9.83534,11.37422 -1.03787,0.74388 -3.62416,2.0092 -5.74731,2.8118 -2.12315,0.80261 -5.22732,2.41692 -6.89818,3.58735 -1.67085,1.17044 -3.22665,2.12806 -3.45734,2.12806 -0.2307,0 -2.19772,-7.09392 -4.37117,-15.76426 z"
     id="path50"
     transform="translate(52,222)" />
  <path
     style="fill:#ffffff;stroke-width:0.539156"
     d="m 226.54506,428.76349 c -2.94022,-18.18177 -3.7791,-26.16173 -3.8287,-36.42076 l -0.0451,-9.3282 1.34789,-1.04726 c 5.11442,-3.97371 13.13548,-1.72953 38.71176,10.831 13.99124,6.87111 15.21222,7.57991 14.7014,8.53441 -1.31279,2.45297 -11.87221,12.47916 -15.67227,14.88084 -5.82151,3.67927 -7.90141,5.87519 -10.28986,10.86385 -2.24202,4.68281 -6.87653,10.08305 -10.06565,11.72874 -1.6771,0.86543 -7.69227,1.90167 -11.24358,1.93694 l -1.67596,0.0167 z"
     id="path51"
     transform="translate(52,222)" />
  <path
     style="fill:#ffffff;stroke-width:0.539156"
     d="m 584.81823,344.22115 c -6.78522,-0.8996 -14.12203,-3.83029 -19.53349,-7.80267 -3.01418,-2.21261 -7.26759,-6.68376 -9.59815,-10.08948 -2.63391,-3.84901 -5.93842,-11.09526 -6.55147,-14.36629 -0.7895,-4.21244 -0.66714,-14.95982 0.2233,-19.61371 2.77982,-14.52882 12.08369,-25.84219 25.74749,-31.30857 11.20837,-4.48405 21.80402,-4.04913 32.79203,1.34603 3.71675,1.82494 5.50698,3.17559 9.47302,7.14696 9.96965,9.98307 13.70466,19.91211 12.99681,34.55034 -0.35957,7.43578 -1.19904,10.68621 -4.31188,16.69569 -8.46199,16.33623 -24.79628,25.62152 -41.23766,23.4417 z m 15.26195,-22.1584 c 10.03478,-3.76364 16.26953,-16.14736 13.52439,-26.8627 -2.05282,-8.01293 -8.0336,-14.0999 -16.18118,-16.46847 -11.40291,-3.31491 -22.87703,3.67807 -26.47202,16.13355 -1.34384,4.65597 -0.92522,11.45645 0.95753,15.55513 4.78741,10.42198 17.46079,15.65958 28.17128,11.64249 z"
     id="path52"
     transform="translate(52,222)" />
  <path
     style="fill:#ffffff;stroke-width:0.539156"
     d="m 540.30269,101.57138 c -6.72183,-1.578477 -15.29218,-8.535031 -18.5252,-15.036906 -6.9967,-14.070932 -2.87565,-31.41379 9.38301,-39.487162 5.2263,-3.441959 9.20354,-4.797988 15.031,-5.124776 9.06408,-0.508288 15.22779,1.87958 21.85534,8.466915 6.38942,6.350654 9.10643,12.872074 9.10643,21.857399 0,8.467531 -2.64885,15.180035 -8.39319,21.269338 -4.01309,4.254089 -8.3209,6.752722 -13.55392,7.861632 -4.03484,0.85499 -11.66481,0.9541 -14.90347,0.19356 z"
     id="path53"
     transform="translate(52,222)" />
  <path
     style="fill:#ffffff;stroke-width:0.539156"
     d="m 873.79501,317.78044 c -4.37735,-0.55319 -6.50061,-1.24717 -11.14605,-3.64299 -4.85929,-2.50612 -12.1821,-9.66262 -15.28421,-14.93708 -13.03338,-22.16046 -7.31257,-51.37232 12.60735,-64.37618 5.39832,-3.52406 10.02483,-4.9611 16.96448,-5.26931 9.96607,-0.44263 16.2643,1.87288 23.51663,8.64575 7.02341,6.55909 12.08399,15.57738 14.2792,25.44646 0.41254,1.85466 0.70324,6.22552 0.68134,10.24395 -0.0311,5.71264 -0.29191,7.96335 -1.40986,12.16866 -5.51215,20.73471 -22.30589,33.98327 -40.20888,31.72074 z m 12.92755,-20.95629 c 6.11632,-1.88914 12.8403,-8.61234 14.57788,-14.57619 0.39754,-1.36447 0.70181,-5.02156 0.6953,-8.35692 -0.0108,-5.54464 -0.12465,-6.17102 -1.74844,-9.62238 -2.10801,-4.48056 -6.78079,-9.27611 -11.09567,-11.38718 -5.98543,-2.9284 -13.34539,-2.23624 -19.66689,1.84954 -5.35299,3.45981 -8.64347,8.79369 -9.8826,16.01976 -2.86508,16.70784 11.79892,30.80569 27.12042,26.07337 z"
     id="path54"
     transform="translate(52,222)" />
  <path
     style="fill:#ffffff;stroke-width:0.0776964"
     d="m 1011.4335,633.53989 c -0.509,-0.23695 -1.6132,-1.32345 -1.9042,-1.8736 -0.5805,-1.0977 -0.5839,-2.33521 -0.01,-3.4724 0.2665,-0.52774 1.3445,-1.60606 1.8717,-1.87235 0.5248,-0.2651 0.836,-0.2605 1.2765,0.0189 0.8388,0.53193 2.0875,3.10437 2.0857,4.2965 0,0.73628 -0.2473,1.1937 -1.0903,2.02638 -0.6756,0.66724 -1.2995,1.06626 -1.6672,1.06626 -0.086,0 -0.3387,-0.0853 -0.5627,-0.18965 z"
     id="path55"
     transform="translate(52,222)" />
  <path
     style="fill:#ffffff;stroke-width:0.0776964"
     d="m 1015.4378,589.10614 c -0.7907,-0.2953 -1.8214,-1.24685 -2.2324,-2.06101 -0.4645,-0.92002 -0.5999,-2.13404 -0.3543,-3.17563 0.2793,-1.18477 1.2354,-2.51475 2.1182,-2.94667 0.6107,-0.29877 1.2748,-0.29443 1.9218,0.0125 0.8906,0.42257 1.9913,1.72164 2.3881,2.81845 0.2592,0.71665 0.2307,1.80875 -0.07,2.66926 -0.265,0.75914 -0.8211,1.64802 -1.2727,2.0346 -0.5624,0.48142 -1.0565,0.69795 -1.662,0.72836 -0.3426,0.0172 -0.6573,-0.0128 -0.8369,-0.0799 z"
     id="path56"
     transform="translate(52,222)" />
  <path
     style="fill:#ffffff;stroke-width:0.0776964"
     d="m 994.63105,549.84973 c -1.1841,-0.3168 -2.3244,-1.48996 -2.97527,-3.06099 -0.30995,-0.74814 -0.4476,-1.35051 -0.49719,-2.17581 -0.0883,-1.46924 0.28407,-2.5757 1.16179,-3.45235 1.17577,-1.17433 1.9218,-1.3128 3.00473,-0.55771 1.23624,0.862 2.35735,2.10222 2.87549,3.181 0.4358,0.90736 0.5729,1.49605 0.57315,2.46099 3e-4,1.23421 -0.34555,2.11098 -1.11757,2.83311 -0.81333,0.76078 -1.96655,1.05499 -3.02513,0.77176 z"
     id="path57"
     transform="translate(52,222)" />
  <path
     style="fill:#ffffff;stroke-width:0.279813"
     d="m 422.0151,701.50797 c -2.42578,-0.8653 -4.28152,-2.77476 -4.81849,-4.95796 -0.39049,-1.58768 1.77791,-4.81386 4.32689,-6.43761 2.40404,-1.53142 5.25608,-0.73794 7.13903,1.98618 0.65443,0.94678 0.85212,1.57571 0.94276,2.99932 0.1497,2.35091 -0.45835,3.96658 -1.98441,5.27283 -1.75219,1.4998 -3.56077,1.86671 -5.60578,1.13724 z"
     id="path58"
     transform="translate(52,222)" />
  <path
     style="fill:#ffffff;stroke-width:0.199499"
     d="m 380.81952,391.21813 c -1.42976,-0.71248 -2.49207,-1.69018 -3.17382,-2.92103 -0.53408,-0.96425 -0.59196,-1.24514 -0.5903,-2.86457 0.002,-1.56904 0.0708,-1.92675 0.5486,-2.8362 1.07882,-2.05339 2.74577,-3.10915 5.33663,-3.37995 2.78438,-0.29102 5.15174,0.73854 6.2656,2.72491 0.53648,0.95672 0.61488,1.28888 0.61217,2.59349 -0.004,2.00282 -0.71987,3.60789 -2.22022,4.97913 -2.33713,2.13601 -4.71335,2.73341 -6.77866,1.70422 z"
     id="path59"
     transform="translate(52,222)" />
</svg>
