<?xml version="1.0" encoding="UTF-8" standalone="no"?>
<svg
   version="1.0"
   width="600.000000pt"
   height="533.000000pt"
   viewBox="0 0 600.000000 533.000000"
   preserveAspectRatio="xMidYMid meet"
   id="svg33"
   sodipodi:docname="frog12_t2.svg"
   inkscape:version="1.4.3 (0d15f75, 2025-12-25)"
   xmlns:inkscape="http://www.inkscape.org/namespaces/inkscape"
   xmlns:sodipodi="http://sodipodi.sourceforge.net/DTD/sodipodi-0.dtd"
   xmlns="http://www.w3.org/2000/svg"
   xmlns:svg="http://www.w3.org/2000/svg">
  <defs
     id="defs33" />
  <sodipodi:namedview
     id="namedview33"
     pagecolor="#505050"
     bordercolor="#ffffff"
     borderopacity="1"
     inkscape:showpageshadow="0"
     inkscape:pageopacity="0"
     inkscape:pagecheckerboard="1"
     inkscape:deskcolor="#505050"
     inkscape:document-units="pt"
     inkscape:zoom="0.27188445"
     inkscape:cx="-695.14826"
     inkscape:cy="-424.81282"
     inkscape:window-width="1920"
     inkscape:window-height="1022"
     inkscape:window-x="0"
     inkscape:window-y="30"
     inkscape:window-maximized="1"
     inkscape:current-layer="svg33" />
  <g
     transform="translate(0.000000,533.000000) scale(0.050000,-0.050000)"
     fill="#000000"
     stroke="none"
     id="g33">
    <path
       d="M4560 10511 c-178 -38 -280 -77 -474 -180 l-166 -88 -118 48 c-621 252 -1297 -106 -1471 -780 -192 -742 501 -1480 1250 -1332 153 30 147 40 82 -143 -68 -194 -70 -196 -148 -123 -237 220 -337 204 -422 -69 l-43 -140 -230 210 c-1142 1038 -1278 927 -863 -709 42 -168 75 -305 72 -305 -2 0 -66 36 -141 80 -293 171 -395 82 -348 -303 14 -109 21 -202 17 -206 -4 -3 -124 64 -267 151 -454 274 -672 338 -781 229 -75 -76 -66 -175 35 -370 156 -299 130 -521 -87 -754 -167 -180 -164 -221 30 -412 208 -205 215 -290 44 -495 -140 -166 -133 -252 31 -369 119 -86 119 -72 -3 -231 -591 -773 -573 -1830 42 -2386 l118 -107 -114 -47 c-501 -204 -567 -680 -96 -680 78 0 88 -6 100 -55 62 -250 394 -294 652 -86 l75 60 52 -68 c158 -208 473 -191 591 33 39 74 63 96 113 105 35 7 88 31 117 54 39 31 83 42 172 43 l120 2 60 -126 c228 -484 1370 -857 1603 -525 29 41 33 42 173 12 228 -47 391 -6 506 128 58 67 82 80 177 93 137 18 211 48 295 119 l66 55 174 -27 c248 -38 1160 -34 1371 6 150 29 158 28 184 -8 55 -80 171 -139 292 -150 107 -10 121 -16 156 -77 80 -135 327 -196 530 -129 70 24 76 22 151 -46 309 -278 1239 104 1422 584 30 79 42 92 82 86 26 -5 91 -14 145 -20 87 -12 101 -20 118 -73 87 -266 381 -322 598 -114 l75 71 55 -56 c211 -211 584 -195 673 28 30 74 39 81 108 81 500 3 380 544 -160 719 -94 30 -96 23 33 148 616 601 619 1595 9 2335 l-76 92 55 51 c30 27 91 73 136 101 179 111 198 202 71 353 -184 218 -175 295 63 540 180 185 180 218 4 395 -212 212 -249 466 -112 780 194 448 -109 496 -656 104 -161 -115 -167 -118 -155 -64 112 500 -38 624 -432 358 -67 -45 -69 -74 16 358 101 512 113 767 40 840 -103 103 -205 50 -616 -318 -240 -215 -235 -212 -235 -137 -1 228 -125 304 -315 193 -111 -65 -102 -99 -82 332 50 1073 -95 1179 -685 503 -239 -274 -243 -276 -268 -124 -40 244 -249 242 -426 -3 -45 -61 -58 -42 -104 149 -125 523 -317 1101 -443 1337 -203 381 -422 197 -601 -505 l-23 -93 -80 133 c-420 703 -1205 1086 -1913 934z m700 -162 c915 -230 1419 -1063 1420 -2345 1 -660 88 -904 323 -904 79 0 73 47 -12 97 -135 79 -205 337 -179 655 l13 163 223 10 c225 10 500 80 494 125 -4 25 -57 23 -307 -9 -108 -14 -244 -20 -303 -12 l-106 13 -14 184 c-19 265 -68 538 -132 739 l-56 175 88 290 c108 356 184 550 222 564 122 47 418 -776 654 -1819 12 -50 21 -55 101 -55 109 0 130 28 69 92 l-46 49 128 129 c172 174 187 166 213 -114 l13 -142 -58 14 c-124 31 -139 32 -168 12 -31 -22 -4 -55 92 -112 60 -36 -137 -276 -233 -283 -165 -13 -241 -85 -89 -85 82 0 83 -5 29 -82 -27 -37 -59 -58 -91 -58 -74 0 -188 -54 -188 -89 0 -37 32 -39 153 -8 168 42 345 -63 431 -256 38 -87 100 -139 137 -117 12 8 10 32 -7 66 -15 30 -48 97 -74 150 -42 87 -104 153 -220 234 -84 59 1017 1359 1132 1337 82 -16 91 -892 16 -1600 -14 -135 -79 -174 -318 -190 -218 -14 -249 -24 -201 -59 53 -39 289 -36 437 5 97 27 126 29 159 9 50 -31 98 3 59 42 -23 23 -35 156 -13 156 30 0 111 -71 160 -141 55 -80 109 -104 109 -49 0 52 -94 183 -180 253 -134 107 -115 217 56 324 151 94 167 86 185 -92 14 -141 7 -175 -34 -175 -40 0 -56 -55 -27 -90 41 -49 95 -35 175 45 313 312 709 636 755 618 54 -21 11 -412 -107 -962 -64 -300 -69 -304 -167 -162 -137 196 -496 464 -496 369 0 -11 93 -110 207 -219 116 -111 227 -237 255 -289 41 -78 61 -95 134 -113 57 -15 83 -31 76 -48 -5 -15 35 -100 89 -191 130 -215 148 -181 -204 -389 -218 -129 -228 -130 -266 -39 -16 39 -50 90 -76 115 -31 29 -60 95 -81 183 -48 196 -210 452 -286 452 -37 0 -35 -13 9 -77 74 -104 145 -268 183 -418 23 -92 54 -166 77 -184 101 -81 110 -190 18 -218 -159 -49 -189 -48 -241 8 -59 64 -94 50 -94 -38 0 -256 561 -84 1170 357 143 103 348 252 455 329 477 345 640 369 519 76 -155 -373 -117 -662 118 -894 123 -120 122 -129 -14 -262 -241 -236 -258 -420 -59 -658 94 -112 91 -123 -47 -208 -327 -202 -409 -477 -252 -842 141 -329 57 -312 -600 120 -341 224 -712 419 -925 488 -161 51 -212 117 -134 174 100 74 608 -138 1155 -482 216 -135 306 -160 174 -47 -260 221 -723 477 -1065 587 l-174 57 12 173 c15 204 -37 418 -120 496 -68 65 -79 27 -32 -110 61 -174 43 -687 -23 -687 -8 0 -37 -40 -66 -88 -28 -48 -110 -141 -182 -207 -175 -161 -143 -212 55 -86 177 112 80 -141 -131 -343 -123 -118 -135 -151 -47 -128 160 40 393 377 393 568 0 131 477 -82 1107 -495 485 -317 596 -364 712 -302 99 53 94 130 -27 411 -66 156 -68 370 -3 370 69 0 316 -412 398 -662 219 -672 -65 -1480 -609 -1733 -156 -73 -167 -133 -20 -113 216 28 622 -168 677 -328 64 -183 -209 -283 -336 -122 -80 100 -196 176 -281 183 -88 7 -92 -28 -7 -74 117 -63 229 -199 229 -278 0 -261 -394 -212 -586 74 -76 111 -120 110 -136 -5 -26 -199 -266 -297 -400 -164 -90 90 -74 260 36 386 17 18 24 43 17 54 -27 45 -152 -44 -205 -146 -28 -54 -35 -57 -130 -45 -226 27 -243 91 -75 295 534 651 441 1627 -185 1957 -144 76 -132 42 49 -141 521 -526 502 -1304 -44 -1825 -126 -120 -144 -158 -88 -189 44 -25 28 -167 -31 -290 -183 -377 -1052 -715 -1209 -470 -45 70 -19 146 91 267 76 83 93 112 70 120 -66 26 -210 -85 -273 -209 -86 -168 -458 -197 -540 -43 -67 124 62 341 263 443 89 45 91 91 4 82 -128 -14 -319 -171 -377 -308 -50 -121 -215 -118 -320 6 -215 256 294 682 853 713 202 11 223 22 161 90 -49 55 -58 292 -17 457 75 297 265 590 522 801 234 192 178 214 -90 35 -332 -220 -551 -622 -574 -1053 -11 -189 -15 -206 -54 -213 -252 -46 -321 -63 -442 -114 -257 -106 -461 -310 -516 -515 -13 -47 -37 -94 -54 -102 -118 -61 -944 -87 -1330 -42 -269 31 -270 32 -270 107 -1 295 -534 692 -930 694 -146 1 -146 1 -143 237 6 459 -207 861 -572 1081 -148 89 -174 43 -37 -66 330 -265 527 -675 494 -1032 -17 -182 -26 -206 -93 -244 -99 -57 -72 -76 112 -76 526 0 1049 -300 1049 -601 0 -199 -356 -339 -419 -164 -55 152 -315 345 -465 345 -45 0 -7 -64 59 -98 418 -215 395 -596 -34 -557 -149 14 -227 56 -275 149 -65 125 -286 267 -286 183 0 -13 45 -71 100 -129 234 -248 45 -392 -394 -299 -550 115 -933 405 -979 741 l-13 93 88 -6 c121 -10 113 21 -37 131 -763 562 -583 1767 335 2244 l110 58 -68 6 c-172 17 -532 -246 -719 -526 -381 -569 -338 -1235 112 -1733 106 -117 91 -244 -29 -253 -80 -6 -86 -2 -124 72 -94 184 -421 359 -636 340 -87 -8 -92 -5 162 -107 279 -113 428 -260 364 -359 -37 -56 -135 -91 -148 -52 -15 45 -108 142 -136 142 -36 0 -35 -24 6 -141 87 -245 -211 -401 -381 -199 -45 54 -80 147 -72 192 16 83 -45 92 -94 13 -138 -223 -387 -335 -533 -240 -112 74 -68 261 88 370 44 30 95 66 114 79 26 18 29 29 10 48 -44 44 -195 -33 -301 -154 -143 -162 -385 -142 -385 33 0 146 415 399 653 399 76 0 56 26 -106 131 -724 472 -825 1564 -214 2338 181 229 180 -62 -2 -419 -122 -239 -137 -324 -71 -390 106 -106 301 -38 920 318 570 329 1078 562 1222 562 49 0 47 -13 -13 -110 -126 -206 -31 -269 261 -170 97 33 236 72 308 88 211 44 284 84 224 121 -31 19 -387 -52 -552 -110 -199 -71 -211 -60 -103 102 201 300 269 469 267 663 l-1 135 -112 23 c-262 54 -378 173 -383 394 -5 196 -12 205 -178 254 -335 99 -655 262 -1177 597 -456 295 -513 296 -142 4 337 -265 825 -533 1201 -660 l208 -70 -7 -129 c-12 -230 112 -394 350 -464 170 -49 186 -176 52 -417 l-55 -98 -180 -44 c-325 -80 -640 -225 -1250 -575 -744 -427 -907 -454 -716 -122 237 415 227 652 -40 903 l-132 125 45 55 c240 298 240 449 -1 693 -162 164 -160 125 -17 282 218 241 246 527 83 855 -194 392 10 342 888 -215 355 -225 658 -396 840 -473 87 -37 122 -63 126 -94 8 -50 74 -59 91 -13 7 17 35 30 62 30 65 0 65 27 1 56 -63 29 -63 53 0 116 97 97 119 65 130 -192 13 -308 97 -409 374 -452 193 -30 237 33 52 75 -62 14 -155 52 -205 86 l-91 61 -14 180 c-23 309 -51 1116 -41 1204 18 169 97 112 549 -400 157 -178 332 -373 388 -434 129 -139 146 -197 75 -262 -103 -95 -162 -431 -72 -414 22 4 37 28 40 66 23 256 138 376 290 301 79 -40 95 -39 95 6 0 50 -59 100 -138 116 -36 7 -68 23 -71 35 -4 12 -17 61 -30 109 -15 56 -37 91 -62 97 -21 6 -161 151 -312 323 -620 707 -693 759 -847 601 -85 -88 -98 -118 -50 -118 25 0 31 -53 34 -340 2 -187 4 -369 5 -405 1 -57 -9 -69 -89 -107 l-90 -43 -7 41 c-4 23 -20 61 -36 86 -18 27 -28 80 -24 126 3 44 -1 86 -8 94 -22 22 -226 -143 -274 -221 -54 -87 -61 -87 -211 -4 -170 95 -156 155 99 418 114 118 123 134 93 166 -9 10 -63 204 -119 429 -240 970 -285 1300 -181 1300 68 0 460 -319 944 -768 331 -308 311 -273 225 -390 -130 -178 -76 -195 92 -29 85 85 133 116 191 125 122 20 109 92 -18 92 -155 0 -209 56 -178 181 76 309 80 312 244 156 128 -123 134 -136 86 -189 -50 -55 -18 -79 66 -50 86 30 79 17 176 312 132 405 132 405 342 185 169 -178 172 -187 79 -245 -71 -44 -231 -212 -231 -243 0 -36 75 -15 122 35 160 174 333 175 197 1 -46 -58 -35 -102 23 -87 20 6 93 -13 162 -42 172 -70 418 -72 641 -5 171 52 259 114 135 96 -609 -87 -815 -55 -805 128 19 388 303 1557 377 1557 74 0 319 -461 568 -1068 l163 -396 -41 -44 c-87 -92 -44 -119 68 -43 39 26 82 52 96 57 17 6 14 25 -12 71 l-36 63 48 0 c27 0 71 -18 99 -40 60 -47 95 -51 95 -11 0 58 -105 131 -217 150 -137 23 -171 241 -38 241 70 0 135 32 135 67 0 31 117 193 140 193 10 0 37 -28 61 -61 l44 -62 -46 -48 c-40 -42 -41 -49 -12 -61 125 -48 -99 -704 -326 -955 -66 -73 -126 -155 -133 -183 -27 -110 49 -154 91 -52 13 32 60 87 105 123 428 344 570 1412 275 2072 -308 689 -1047 1005 -1624 692 -162 -88 -167 -100 -86 -235 574 -952 -730 -1955 -1496 -1151 -716 751 138 1980 1069 1538 l151 -72 142 96 c330 221 773 292 1185 188z m-231 -420 c460 -119 814 -590 902 -1196 13 -91 12 -97 -26 -85 -66 21 -139 -27 -220 -143 -116 -169 -225 -195 -277 -65 -153 382 -427 889 -514 950 -212 148 -332 -107 -518 -1105 -54 -290 -38 -283 -212 -90 l-139 155 127 126 c338 333 427 835 225 1269 -52 112 -54 109 118 168 161 55 362 61 534 16z m-3114 -3115 c184 -116 195 -140 98 -226 -36 -32 -100 -106 -142 -163 -41 -58 -81 -105 -89 -105 -52 0 -79 64 -101 240 -13 105 -27 215 -32 247 -24 157 26 158 266 7z m8725 42 c0 -400 -148 -671 -258 -475 -26 45 -75 111 -111 146 -126 127 -116 151 129 300 185 113 240 120 240 29z m-8097 -800 c81 -114 -5 -166 -158 -97 -101 46 -109 90 -32 180 l52 63 50 -46 c27 -25 66 -71 88 -100z"
       id="path1" />
    <path
       d="M3604 7350 c-68 -86 -155 -668 -105 -699 46 -29 66 26 113 309 66 395 47 388 325 129 151 -140 217 -190 249 -185 78 11 48 64 -122 217 -335 302 -384 326 -460 229z"
       id="path2" />
    <path
       d="M6812 6771 c-496 -205 -488 -904 14 -1088 603 -222 1057 542 580 977 -177 162 -377 200 -594 111z m464 -125 c183 -112 275 -349 216 -551 -124 -425 -705 -482 -901 -89 -217 436 273 895 685 640z"
       id="path3" />
    <path
       d="M6904 6429 c-142 -100 -133 -342 15 -419 200 -103 412 83 342 298 -45 135 -241 201 -357 121z"
       id="path4" />
    <path
       d="M5095 6778 c-253 -59 -492 -298 -529 -529 -15 -93 17 -80 73 30 217 424 705 539 1028 242 128 -118 174 -108 88 20 -127 188 -421 294 -660 237z"
       id="path5" />
    <path
       d="M8229 6522 c-111 -50 -242 -205 -279 -329 -193 -648 666 -1008 946 -396 197 430 -249 915 -667 725z m401 -112 c305 -175 281 -667 -39 -812 -272 -124 -571 98 -570 422 0 351 320 555 609 390z"
       id="path6" />
    <path
       d="M8308 6172 c-205 -205 79 -526 289 -325 152 145 55 393 -154 393 -50 0 -85 -18 -135 -68z"
       id="path7" />
    <path
       d="M5086 6507 c-372 -132 -490 -650 -213 -936 222 -229 602 -226 812 6 400 443 -41 1128 -599 930z m384 -104 c287 -131 363 -531 144 -760 -267 -278 -716 -149 -794 228 -77 369 311 686 650 532z"
       id="path8" />
    <path
       d="M5139 6145 c-132 -119 -96 -342 65 -402 96 -36 166 -17 249 66 204 204 -99 528 -314 336z"
       id="path9" />
    <path
       d="M10897 6187 c-652 -484 -1011 -663 -1402 -700 -110 -10 -135 -19 -135 -48 0 -157 680 44 1120 331 250 164 740 571 740 615 0 35 -51 4 -323 -198z"
       id="path10" />
    <path
       d="M840 5453 c236 -135 1608 -387 1575 -289 -5 15 -160 50 -386 89 -209 36 -532 98 -719 138 -412 88 -546 106 -470 62z"
       id="path11" />
    <path
       d="M10860 5379 c-351 -88 -789 -175 -1045 -209 -152 -20 -110 -50 70 -50 293 0 812 109 1245 261 374 131 259 130 -270 -2z"
       id="path12" />
    <path
       d="M6502 5404 c-42 -80 101 -217 176 -170 53 34 48 83 -15 146 -68 68 -132 77 -161 24z"
       id="path13" />
    <path
       d="M7232 5390 c-67 -62 -67 -156 0 -166 51 -7 168 86 168 134 0 89 -89 106 -168 32z"
       id="path14" />
    <path
       d="M6223 4988 c-748 -82 -1703 -362 -1703 -500 0 -71 74 -68 283 11 1236 466 2841 489 3952 58 227 -89 275 -92 275 -17 0 143 -764 375 -1474 449 -356 37 -987 37 -1333 -1z"
       id="path15" />
    <path
       d="M3573 4927 c-76 -77 55 -329 228 -438 75 -47 79 -54 79 -152 0 -148 69 -258 204 -325 169 -84 229 -46 74 48 -139 85 -235 335 -159 411 30 30 -1 59 -94 86 -119 35 -217 139 -256 273 -31 105 -47 126 -76 97z"
       id="path16" />
    <path
       d="M1860 4808 c-428 -52 -977 -160 -947 -188 33 -30 1475 160 1515 200 29 29 -288 22 -568 -12z"
       id="path17" />
    <path
       d="M9760 4821 c0 -30 275 -79 850 -151 604 -76 773 -62 330 26 -501 100 -1180 172 -1180 125z"
       id="path18" />
    <path
       d="M2304 4500 c-384 -101 -1062 -468 -1253 -679 -69 -76 -23 -58 199 77 418 256 810 444 1155 556 265 86 187 121 -101 46z"
       id="path19" />
    <path
       d="M3780 3693 c0 -72 248 -313 322 -313 47 0 29 45 -39 100 -42 34 -107 102 -144 151 -64 85 -139 119 -139 62z"
       id="path20" />
    <path
       d="M8491 3555 c-4 -14 -13 -58 -20 -98 -20 -122 -45 -130 -268 -85 -103 20 -77 -50 40 -108 145 -72 295 3 325 165 19 98 -50 211 -77 126z"
       id="path21" />
    <path
       d="M10168 3492 c-192 -192 37 -512 266 -373 135 83 130 296 -10 391 -103 70 -173 65 -256 -18z m223 -61 c62 -62 66 -174 9 -231 -126 -126 -301 105 -179 236 53 57 109 56 170 -5z"
       id="path22" />
    <path
       d="M1632 3458 c-126 -99 -151 -274 -54 -383 165 -184 477 21 404 266 -45 151 -229 212 -350 117z m224 -69 c72 -51 62 -190 -18 -257 -76 -65 -126 -66 -189 -3 -134 134 52 368 207 260z"
       id="path23" />
    <path
       d="M5011 3462 c-65 -203 177 -376 364 -262 83 50 90 110 10 92 -208 -48 -259 -26 -283 123 -14 84 -70 113 -91 47z"
       id="path24" />
    <path
       d="M4449 3279 c-81 -132 377 -473 653 -485 137 -6 117 28 -50 87 -242 85 -427 212 -513 350 -44 71 -67 84 -90 48z"
       id="path25" />
    <path
       d="M866 3101 c-209 -127 -145 -481 87 -481 258 0 362 346 143 479 -83 51 -148 52 -230 2z m242 -132 c70 -182 -111 -348 -239 -220 -124 124 21 358 173 280 29 -15 59 -42 66 -60z"
       id="path26" />
    <path
       d="M10730 3104 c-114 -23 -178 -171 -122 -281 92 -177 332 -115 332 85 0 131 -95 220 -210 196z m90 -104 c71 -71 38 -200 -50 -200 -100 0 -140 169 -53 220 47 27 58 25 103 -20z"
       id="path27" />
    <path
       d="M5918 2977 c-32 -61 9 -188 75 -231 109 -71 327 -1 327 106 0 60 -3 60 -113 -5 -106 -62 -178 -45 -198 47 -32 143 -50 159 -91 83z"
       id="path28" />
    <path
       d="M7412 2955 c-51 -193 -110 -230 -231 -146 -100 70 -150 48 -92 -40 129 -198 457 -58 397 170 -12 45 -63 56 -74 16z"
       id="path29" />
    <path
       d="M7938 2925 c-1 -8 -5 -49 -9 -91 -10 -110 -66 -194 -180 -271 -116 -78 -144 -132 -56 -111 135 32 293 172 319 282 7 31 28 72 45 93 30 33 28 39 -18 74 -51 39 -97 50 -101 24z"
       id="path30" />
    <path
       d="M1230 2555 c-83 -73 -89 -179 -14 -254 81 -81 166 -82 246 -3 159 160 -62 405 -232 257z m179 -66 c61 -61 16 -169 -70 -169 -21 0 -53 23 -71 50 -63 96 60 199 141 119z"
       id="path31" />
    <path
       d="M6467 2570 c-54 -142 204 -214 301 -84 57 77 16 116 -59 57 -72 -56 -121 -54 -161 7 -37 57 -64 64 -81 20z"
       id="path32" />
    <path
       d="M10583 2360 c-12 -34 -40 -85 -62 -114 -23 -29 -41 -81 -41 -120 0 -128 -92 -245 -231 -293 -94 -32 -120 -93 -40 -93 181 0 351 165 351 340 0 51 15 102 42 138 46 62 61 183 25 196 -12 4 -32 -20 -44 -54z"
       id="path33" />
  </g>
  <path
     style="fill:#ffffff;stroke-width:0.909091"
     d="m 239.09091,678.96008 c -8.82462,-1.86686 -23.73421,-6.93196 -30.61045,-10.39902 -20.75494,-10.46481 -31.48142,-23.30297 -34.74056,-41.57979 l -0.5383,-3.01872 4.76284,0.54869 c 5.28585,0.60894 7.70301,-0.32002 6.4595,-2.48251 -0.43317,-0.75328 -3.24212,-3.32024 -6.24212,-5.70435 -13.10012,-10.41068 -19.91404,-18.71218 -25.82799,-31.46663 -5.65584,-12.19779 -6.86358,-18.234 -6.79248,-33.94866 0.0678,-14.9844 1.33174,-21.48241 6.67552,-34.31874 8.73831,-20.99037 26.40623,-39.73841 47.98704,-50.92073 3.12315,-1.61829 5.67997,-3.30414 5.68182,-3.74632 0.002,-0.44218 -2.758,-0.60443 -6.133,-0.36055 -18.369,1.32739 -44.57386,25.63039 -55.85788,51.8039 -14.44488,33.50519 -8.93966,68.841 15.19684,97.54244 4.79516,5.70207 5.88831,7.80061 5.88831,11.30387 0,3.93921 -2.80186,6.4234 -7.24479,6.4234 -3.35976,0 -3.81906,-0.32925 -6.66476,-4.77781 -5.83264,-9.11788 -17.67783,-17.52072 -29.66454,-21.04369 -5.27923,-1.55159 -17.335,-1.99193 -17.335,-0.63317 0,0.44993 5.18452,2.99128 11.52115,5.64745 17.31844,7.25948 26.84407,14.22423 28.10977,20.55271 0.47731,2.38655 0.14352,3.27764 -1.95688,5.22422 -3.13253,2.90314 -6.95501,4.02958 -7.5311,2.21933 -0.22402,-0.70397 -2.33485,-3.22313 -4.69071,-5.59813 -6.82019,-6.87558 -8.32561,-5.59348 -5.62779,4.79298 1.98197,7.6305 1.5101,11.61651 -1.79398,15.154 -6.01295,6.43772 -13.87244,6.43669 -20.60802,-0.003 -4.078987,-3.89964 -5.552465,-6.9607 -6.324078,-13.13789 -0.920447,-7.3687 -2.490543,-7.24623 -8.821208,0.6881 -9.880298,12.38312 -21.769509,18.02754 -30.767039,14.60669 -9.495816,-3.6103 -7.528775,-17.10839 3.619399,-24.83677 7.217124,-5.00322 9.354191,-7.04931 8.819122,-8.44368 -0.743651,-1.93792 -6.120408,-1.64104 -10.470328,0.57812 -2.047093,1.04435 -6.442792,4.45417 -9.768221,7.57739 -6.891763,6.4727 -12.792888,9.25057 -17.696912,8.33057 -6.489966,-1.21752 -9.770949,-6.85165 -7.146111,-12.27135 4.257149,-8.79005 25.795434,-21.08401 39.435647,-22.50969 4.202314,-0.43923 5.355051,-0.87961 5.145857,-1.96586 -0.148271,-0.76991 -4.146053,-4.18956 -8.88396,-7.59922 -14.683962,-10.5674 -23.525443,-20.44744 -30.390068,-33.9598 -7.361686,-14.49078 -10.584695,-28.58767 -10.590046,-46.31904 -0.0073,-24.29609 6.821564,-46.75646 20.280128,-66.70173 5.467984,-8.10341 10.451968,-13.75281 12.132932,-13.75281 4.205591,0 1.211801,14.3484 -6.446758,30.89754 -2.854081,6.16729 -5.761498,12.83522 -6.460926,14.81761 -2.859386,8.10436 -0.668405,14.271 5.694654,16.02793 8.182408,2.25927 20.817486,-2.96402 58.488206,-24.17879 32.92131,-18.54009 52.34852,-28.12779 68.65989,-33.88499 6.99091,-2.46748 13.15829,-3.55897 13.15829,-2.32872 0,0.24282 -1.43182,3.14042 -3.18182,6.43913 -3.44945,6.50213 -4.06083,11.25815 -1.69917,13.21815 2.47491,2.05398 10.89837,1.2046 21.69917,-2.18805 5.5,-1.7276 14.5,-4.27036 20,-5.65057 11.80877,-2.96338 15.22673,-4.4925 14.8217,-6.63092 -0.20132,-1.0629 -1.37294,-1.62733 -3.79099,-1.82632 -4.3503,-0.358 -23.7044,3.64069 -34.75601,7.18083 -9.00282,2.88386 -10.36561,3.11466 -10.36561,1.75545 0,-0.49346 3.12616,-5.88294 6.94704,-11.97664 11.77404,-18.77777 14.87114,-27.38635 14.87114,-41.33523 v -8.3725 l -6.59091,-1.48737 c -8.05365,-1.81746 -15.72121,-5.20953 -19.17416,-8.48249 -4.56966,-4.33145 -6.20165,-8.79228 -7.02897,-19.21275 -0.93145,-11.73191 -1.39751,-12.27043 -14.21457,-16.42446 -22.69614,-7.35584 -39.77391,-16.06087 -74.809569,-38.13256 -21.306552,-13.42266 -24.938218,-15.50438 -26.980064,-15.46535 -2.35182,0.045 7.130668,8.86697 19.187153,17.85075 23.50085,17.51142 52.52252,33.00568 78.24746,41.77519 l 11.81818,4.02876 -0.29604,7.23308 c -0.6822,16.66809 5.76001,25.83939 22.6963,32.31111 3.65677,1.39733 7.01797,3.37884 8.14484,4.80158 2.95324,3.72868 1.91611,10.24162 -3.27421,20.56105 l -4.19883,8.34814 -8.80876,2.11071 c -22.10685,5.29714 -46.06948,15.96001 -82.899665,36.88864 -20.092362,11.41741 -39.606599,21.54151 -45.591391,23.65306 -2.050462,0.72345 -5.108497,1.31536 -6.795634,1.31536 -2.666668,0 -3.067521,-0.29725 -3.067521,-2.27469 0,-1.25108 2.999851,-8.35159 6.666336,-15.77892 7.41785,-15.02659 9.158338,-21.29297 8.657455,-31.16995 -0.490308,-9.66845 -3.635876,-15.5655 -13.659881,-25.60847 l -7.99872,-8.01383 4.529536,-5.98339 c 7.080769,-9.35348 9.538827,-15.06713 9.498921,-22.07984 -0.0441,-7.74955 -1.955497,-11.28997 -11.771805,-21.80453 -4.257013,-4.55982 -7.740024,-8.85925 -7.740024,-9.55429 0,-0.69505 2.464503,-4.04865 5.476672,-7.45245 3.01217,-3.4038 7.152423,-9.52835 9.200561,-13.6101 3.304679,-6.58591 3.773224,-8.32569 4.162132,-15.45454 0.545943,-10.00736 -1.035699,-17.19746 -6.587942,-29.94863 -7.881176,-18.09974 -4.551226,-20.20615 15.811261,-10.00164 9.915936,4.96929 15.66218,8.36411 51.028229,30.14696 11.25,6.92916 28.15216,16.54171 37.56035,21.36121 13.45357,6.89182 17.47826,9.3752 18.85027,11.63128 2.10574,3.46261 2.97996,3.54296 6.48244,0.59582 1.48554,-1.25 3.69232,-2.27273 4.90396,-2.27273 3.07626,0 2.80395,-2.36981 -0.46665,-4.0611 -1.46829,-0.75928 -2.91402,-1.77594 -3.21271,-2.25925 -0.68023,-1.10062 5.65743,-8.2251 7.31672,-8.2251 1.69814,0 2.83409,5.20113 3.51718,16.10402 1.05106,16.7763 4.82635,23.772 14.89182,27.5949 6.20249,2.35571 20.41902,3.53746 21.50072,1.78723 1.05668,-1.70974 -1.26274,-3.32343 -7.20567,-5.01317 -5.94932,-1.69156 -14.29656,-5.65549 -17.68187,-8.39675 -2.07685,-1.68173 -2.22818,-2.57224 -3.37713,-19.87298 -0.66156,-9.96179 -1.48626,-31.08213 -1.83266,-46.93411 -0.65146,-29.81282 -0.48086,-31.63278 2.96541,-31.63278 2.21794,0 15.45263,13.41107 37.97105,38.47712 23.04739,25.65486 27.81677,31.54295 27.81677,34.34155 0,0.94108 -1.38806,3.5295 -3.08457,5.75205 -4.68749,6.14095 -6.46089,11.64344 -6.46089,20.04679 0,5.73295 0.28592,7.30525 1.36364,7.49886 2.57033,0.46179 3.68748,-1.2612 4.59999,-7.09459 1.32727,-8.48494 5.01482,-15.42975 9.30588,-17.52592 3.40459,-1.66313 3.52382,-1.65884 8.80598,0.31656 5.60525,2.09622 7.28815,1.90355 7.28815,-0.83438 0,-3.11482 -3.5983,-6.37073 -8.67016,-7.84516 l -4.9145,-1.42868 -1.73198,-5.77314 c -1.54275,-5.14238 -2.57011,-6.60119 -9.40311,-13.3521 -4.21912,-4.16842 -14.36404,-15.14714 -22.54429,-24.39714 -27.40717,-30.9913 -36.94945,-39.19787 -43.82247,-37.68831 -3.09721,0.68026 -12.54986,9.50322 -12.54986,11.71385 0,0.66931 0.77412,1.41939 1.72026,1.6668 1.52676,0.39926 1.78914,1.71494 2.33259,11.69694 0.33678,6.1859 0.48313,17.99708 0.3252,26.24708 l -0.28714,15 -4.76921,2.55582 c -4.78582,2.56472 -6.59442,2.58709 -6.59442,0.0816 0,-0.74041 -0.81818,-2.94996 -1.81818,-4.91012 -1.21826,-2.38798 -1.81819,-5.35798 -1.81819,-9.00104 0,-2.99042 -0.4327,-5.70454 -0.96156,-6.03139 -2.06517,-1.27635 -15.42043,9.63292 -19.11907,15.61744 -2.48368,4.01869 -5.18027,3.97409 -12.19209,-0.20167 -11.36716,-6.76948 -10.85807,-9.27745 5.46323,-26.91399 4.24522,-4.58732 7.71858,-8.83095 7.71858,-9.43031 0,-0.59935 -0.61471,-2.56096 -1.36604,-4.35914 -1.81603,-4.34635 -10.29048,-37.46482 -15.38782,-60.13611 -7.39039,-32.87006 -9.35849,-50.17897 -5.94544,-52.28836 2.93085,-1.81136 16.28932,8.10447 44.06294,32.70737 17.70982,15.68801 36.72518,33.61932 37.8188,35.66277 0.80232,1.49913 0.33639,2.70866 -2.72406,7.07165 -4.27482,6.09417 -5.87353,9.72235 -4.62425,10.49445 1.35629,0.83823 4.1091,-1.0228 11.56135,-7.81604 5.27602,-4.80946 8.09201,-6.66636 11.70028,-7.71531 9.24706,-2.6882 8.61603,-6.23141 -1.28838,-7.2341 -11.41897,-1.15602 -12.9369,-3.72982 -9.70761,-16.4601 1.22546,-4.83089 2.90474,-9.53112 3.73175,-10.44494 1.43307,-1.58352 1.62908,-1.58781 4.17588,-0.0914 3.53309,2.07597 13.44715,12.43082 13.44715,14.045 0,0.69771 -0.60063,2.06267 -1.33473,3.03323 -3.41037,4.50892 -0.19831,6.37111 6.30355,3.65446 3.88924,-1.62503 4.81807,-3.45449 10.88945,-21.44844 5.40314,-16.01344 7.45808,-20.26729 10.02998,-20.76259 2.14135,-0.41239 20.47539,18.16344 20.47539,20.74543 0,1.0544 -2.1248,3.37726 -5.38187,5.88351 -7.05652,5.42987 -14.09333,13.65231 -13.34737,15.59627 0.89373,2.329 4.79812,0.80465 10.02231,-3.91294 6.91761,-6.24678 14.16147,-8.95444 14.16147,-5.29336 0,0.62673 -0.98177,2.58623 -2.18171,4.35444 -3.21088,4.73149 -3.66399,6.77166 -1.72562,7.76967 0.89903,0.46289 2.0917,0.67635 2.6504,0.47435 0.55868,-0.202 4.85413,0.96712 9.54545,2.59804 8.14598,2.83191 9.14306,2.96609 22.16603,2.98264 14.59835,0.0186 20.30472,-1.0431 30.22727,-5.62375 8.89196,-4.10489 6.00336,-4.71284 -12.04545,-2.53513 -6,0.72394 -14.71658,1.32902 -19.37017,1.34462 C 300.52395,206.84197 295,203.92985 295,195.67452 c 0,-17.63084 17.05892,-91.89718 23.29905,-101.432882 1.35191,-2.065891 1.4372,-2.078033 3.226,-0.459191 6.68229,6.04738 22.07981,37.274423 40.52691,82.190843 l 5.44012,13.24602 -2.58523,3.11762 c -2.91896,3.5201 -3.40256,6.29943 -1.0961,6.29943 1.74453,0 13.91652,-7.00467 13.91652,-8.00861 0,-0.36007 -0.81897,-2.1827 -1.81994,-4.0503 l -1.81996,-3.39563 h 1.93657 c 1.06511,0 4.16702,1.27614 6.89316,2.83588 5.64297,3.22858 7.64157,2.68354 6.11167,-1.66672 -1.1126,-3.16365 -5.74352,-6.27856 -12.06744,-8.11698 -2.7341,-0.79483 -5.88457,-2.43079 -7.00103,-3.63547 -4.01671,-4.3341 -3.38751,-10.77255 1.14391,-11.70538 8.43638,-1.73671 9.33565,-2.24538 11.27908,-6.37982 1.04481,-2.22274 3.40978,-5.74306 5.25551,-7.82292 l 3.35585,-3.78157 3.03056,3.82639 3.03055,3.82639 -2.39151,2.49621 c -2.89256,3.01917 -2.90049,3.14556 -0.40897,6.51552 1.88366,2.54778 1.92878,3.02747 0.90461,9.61522 -1.38746,8.92449 -5.56191,21.34296 -10.71183,31.86638 -3.87316,7.91447 -7.0921,12.8043 -16.95987,25.7634 -2.38149,3.12756 -4.57356,6.65698 -4.87127,7.84315 -1.62549,6.47645 3.63624,9.46985 6.58743,3.74759 0.83808,-1.625 4.83721,-6.24825 8.88699,-10.2739 7.90864,-7.86155 11.64352,-13.44776 16.48995,-24.66379 6.94671,-16.07669 10.40799,-35.21961 10.40799,-57.56231 0,-36.41829 -8.88029,-61.938886 -28.81609,-82.812999 -8.50124,-8.901382 -15.51757,-14.056931 -25.78375,-18.945748 -10.65683,-5.07484 -16.8534,-6.560873 -29.55023,-7.086587 -12.82888,-0.531181 -21.57297,1.211948 -32.53984,6.486797 -8.20964,3.948682 -11.48119,6.504483 -11.48119,8.969355 0,1.063369 2.2652,6.454132 5.03377,11.979473 7.55589,15.079544 9.35573,26.895318 6.2112,40.775709 -2.95871,13.06016 -8.84541,22.87914 -19.91339,33.2154 -12.13471,11.33248 -27.9663,17.76528 -43.60431,17.7176 -16.1511,-0.0492 -29.767,-5.92655 -41.81818,-18.05085 -11.31801,-11.38669 -16.7149,-22.22534 -18.66012,-37.47542 -3.8041,-29.82318 18.38854,-62.266064 47.71476,-69.753075 7.04566,-1.798766 20.9735,-1.774807 28.08687,0.04831 3.07217,0.787383 9.31242,3.188776 13.86723,5.336427 l 8.28145,3.904823 8.97192,-5.792696 c 31.73522,-20.489772 68.81965,-21.809051 104.35177,-3.712317 37.40076,19.04845 60.55912,57.395106 67.37311,111.559438 0.78627,6.25 1.81513,23.02272 2.28638,37.27272 0.47124,14.25 1.28168,28.43631 1.80098,31.52512 3.03135,18.03084 9.29316,26.6567 19.351,26.6567 6.16355,0 6.27701,-3.09922 0.26488,-7.23567 -4.36515,-3.0033 -8.67377,-10.39107 -10.62543,-18.21887 -1.12211,-4.5006 -1.69476,-33.98285 -0.67872,-34.94309 0.18765,-0.17737 6.47756,-0.77283 13.97756,-1.32325 19.18416,-1.40793 34.09091,-5.23705 34.09091,-8.75701 0,-1.7708 -3.30117,-1.74505 -21.05156,0.16417 -10.46106,1.12519 -15.88219,1.3094 -20.45454,0.69506 l -6.22117,-0.83588 -0.68019,-9.09091 c -1.56405,-20.90422 -4.53176,-37.3135 -9.87769,-54.61656 l -2.83069,-9.162024 5.62187,-18.060225 c 6.38576,-20.514279 11.20533,-33.557856 13.53101,-36.620033 l 1.59128,-2.095199 2.39771,1.886035 c 7.63472,6.005479 22.39196,47.588857 35.3086,99.493646 2.97481,11.95411 5.86431,22.28366 6.4211,22.95455 1.04217,1.25574 6.94211,1.61704 10.56245,0.64682 2.81562,-0.75456 2.62228,-3.7183 -0.45455,-6.96791 l -2.5,-2.64038 8.0668,-7.63664 c 8.03335,-7.60498 10.90888,-9.0718 11.85193,-6.04572 0.84414,2.7087 2.31705,14.12095 2.33599,18.09954 l 0.018,3.78135 -4.77273,-1.27056 c -6.03239,-1.6059 -8.37183,-1.61647 -9.6771,-0.0437 -1.4805,1.7839 -0.38642,3.87812 3.1764,6.08007 3.81302,2.35658 3.86191,3.92413 0.29057,9.31589 -4.23986,6.40101 -8.9403,9.67262 -16.0275,11.15545 -9.3023,1.94629 -11.59797,5.83655 -3.44418,5.83655 2.19098,0 4.19317,0.33908 4.44931,0.75352 0.25612,0.41443 -0.75961,2.24002 -2.25721,4.05686 -1.92251,2.33234 -3.71379,3.46719 -6.09387,3.86071 -7.4282,1.22819 -12.00732,3.91395 -12.00732,7.04258 0,1.61784 0.42731,1.73778 4.31818,1.21215 13.06269,-1.76472 14.25693,-1.7437 19.09134,0.336 5.36718,2.3089 11.78671,8.6705 14.78796,14.6545 2.6935,5.3704 6.2345,8.99277 8.79078,8.99277 3.14734,0 2.69784,-2.64968 -1.98891,-11.7241 -4.22595,-8.18221 -7.42047,-12.18906 -13.57201,-17.02317 l -3.57264,-2.80752 2.58224,-4.44988 c 12.34631,-21.27589 66.53363,-83.08624 72.83926,-83.08624 2.81969,0 3.54198,9.08386 3.54198,44.54545 0,34.81891 -1.27458,58.5915 -3.50938,65.45455 -1.60953,4.94289 -6.8666,7.09278 -20.19262,8.25782 -5.9639,0.52139 -11.83016,1.35264 -13.03613,1.84722 -2.0615,0.84543 -2.10048,0.99155 -0.65164,2.44255 2.36869,2.3722 18.62732,2.6249 29.20795,0.45396 6.11399,-1.25447 9.04777,-1.45968 11.60817,-0.81196 4.5947,1.16235 5.87098,-0.0926 3.92374,-3.85817 -1.51377,-2.92729 -1.98052,-9.24051 -0.68317,-9.24051 0.95711,0 6.86714,5.66745 11.15754,10.69957 3.87391,4.54364 6.26645,5.03868 6.26645,1.29659 0,-3.43605 -3.97439,-9.36303 -11.24659,-16.77196 -5.22516,-5.3234 -6.02614,-6.58417 -6.02614,-9.48531 0,-2.80766 0.69777,-4.01359 4.33783,-7.49693 2.3858,-2.28308 6.31149,-5.11984 8.72374,-6.30393 6.17031,-3.02875 7.04817,-1.95655 7.6385,9.3296 0.45013,8.60552 0.43367,8.69196 -1.81712,9.5477 -2.80286,1.06565 -3.64119,3.0521 -2.52597,5.98535 1.03192,2.71415 4.52281,3.76114 7.42198,2.226 1.17158,-0.62035 6.22104,-5.01825 11.22104,-9.7731 21.51733,-20.46233 42.4583,-36.9468 44.4302,-34.9749 1.16836,1.16836 0.4979,15.66883 -1.27336,27.5395 -1.9959,13.37627 -7.38483,40.78327 -9.28144,47.20363 -0.65344,2.21199 -1.62447,4.16727 -2.15786,4.34507 -0.53337,0.17779 -3.33143,-2.7601 -6.2179,-6.52865 -10.69657,-13.9653 -31.13352,-28.59853 -32.92704,-23.57635 -0.19429,0.54404 5.61893,7.07712 12.91825,14.51795 7.29932,7.44084 15.09729,16.27518 17.32881,19.63187 3.20286,4.81778 4.76906,6.32865 7.437,7.17427 4.80336,1.52245 7.47061,3.38688 7.47061,5.22203 0,0.87134 2.44776,5.87327 5.43945,11.1154 2.9917,5.24213 5.44624,10.43078 5.45454,11.53033 0.0186,2.46677 -2.62037,4.47839 -16.832,12.83044 -12.04963,7.08148 -15.1135,8.48957 -16.51575,7.59032 -0.51609,-0.33097 -1.77081,-2.23813 -2.78825,-4.23813 -1.01744,-2 -3.10058,-5.20497 -4.62919,-7.12215 -1.62623,-2.03962 -3.96037,-7.13131 -5.62608,-12.27273 -5.14025,-15.86605 -14.42002,-30.15057 -19.58696,-30.15057 -1.20367,0 -2.18849,0.40627 -2.18849,0.90282 0,0.49655 1.77997,3.76304 3.95548,7.25886 4.01497,6.45164 7.93312,15.93084 11.62229,28.11785 1.39444,4.60649 3.13158,7.99704 5.49824,10.7315 6.19862,7.16196 5.55975,11.11871 -2.16571,13.41293 -6.90621,2.05093 -9.44918,1.7774 -13.46283,-1.44805 -4.88594,-3.92645 -6.53502,-3.13428 -6.17715,2.96733 0.23011,3.92321 0.69522,5.00346 2.84215,6.60108 5.97097,4.44327 21.42803,0.98119 41.97844,-9.40236 14.05059,-7.09937 23.70057,-13.33238 48.63637,-31.41469 23.38235,-16.95582 35.21935,-24.73092 41.72577,-27.40745 6.29495,-2.58953 7.93999,-2.643 9.19455,-0.29883 0.78338,1.46374 0.31044,3.81129 -2.31684,11.50043 -9.52448,27.87479 -7.6444,42.16128 7.77427,59.0757 3.49224,3.83101 6.34952,7.6908 6.34952,8.5773 0,0.88649 -3.28844,5.16132 -7.30764,9.49962 -9.69886,10.4689 -12.18016,15.27634 -12.18016,23.59868 0,7.31618 1.93473,11.80864 8.95395,20.7912 2.29362,2.93517 4.17021,5.61834 4.17021,5.96261 0,1.40049 -2.62254,3.70436 -9.18795,8.07149 -13.37255,8.89504 -19.16931,18.00482 -19.75817,31.0505 -0.40279,8.92355 0.69271,14.58426 4.9617,25.63807 3.36828,8.72159 3.82631,12.34593 1.66501,13.1753 -2.22203,0.85267 -13.05986,-4.98966 -33.88286,-18.26518 -10.58276,-6.74696 -23.08314,-14.52819 -27.77861,-17.29161 -11.08593,-6.52442 -33.05243,-17.2383 -40.26334,-19.63794 -10.0174,-3.33358 -14.50474,-7.77464 -10.68088,-10.57071 4.71398,-3.44694 19.41854,0.76395 42.19783,12.08403 8.25,4.0998 20.77126,10.93428 27.82504,15.18773 11.9368,7.19793 21.46079,12.44088 22.59929,12.44088 0.26662,0 0.48476,-0.596 0.48476,-1.32446 0,-0.72844 -2.76136,-3.54334 -6.13636,-6.25533 -18.26238,-14.67477 -46.70611,-30.06312 -69.60707,-37.65816 l -10.19792,-3.38211 0.0161,-13.64451 c 0.0138,-11.69424 -0.27985,-14.5862 -2.05463,-20.23263 -3.0768,-9.78878 -10.20196,-17.01339 -10.20196,-10.34437 0,1.43713 0.61894,4.36722 1.37541,6.51131 3.81391,10.80977 3.00775,44.7075 -1.10497,46.46219 -0.41589,0.17744 -2.37241,2.57261 -4.34783,5.32261 -1.97542,2.75 -7.18431,8.74719 -11.57532,13.32709 -7.51331,7.8365 -9.9041,12.12746 -6.75701,12.12746 0.67464,0 3.92473,-1.43182 7.22242,-3.18182 7.48365,-3.97138 9.24704,-4.11427 8.41412,-0.68182 -1.10845,4.56797 -6.32085,12.15178 -13.90863,20.23646 -9.86452,10.51051 -10.05959,13.13238 -0.65107,8.75117 9.23595,-4.30085 20.6851,-20.58641 23.25504,-33.07854 1.15181,-5.59879 1.21315,-5.68181 4.1975,-5.68181 9.49781,0 32.05898,11.49004 70.1222,35.71212 29.67748,18.88569 37.59943,22.55468 44.61849,20.66464 8.49397,-2.28719 9.2189,-8.62806 2.83794,-24.82298 -4.05776,-10.29859 -5.59139,-17.84404 -4.81254,-23.67775 0.94852,-7.10459 4.03322,-5.31141 12.25494,7.12397 14.65246,22.16186 20.88502,41.28804 20.88502,64.0909 0,35.67821 -16.80314,67.75344 -42.83318,81.7635 -9.31557,5.01388 -11.52024,6.98171 -9.94649,8.87797 0.89365,1.07679 2.30325,1.2738 6.19988,0.86652 9.62694,-1.00621 23.21467,3.26741 34.80811,10.94788 7.18121,4.75744 10.66383,9.30653 10.63485,13.89153 -0.0368,5.82471 -4.28465,9.10715 -11.78564,9.10715 -4.51674,0 -4.85025,-0.18703 -11.41704,-6.40251 -9.14169,-8.65264 -18.00268,-12.65549 -22.1732,-10.01649 -1.74308,1.10297 -0.28559,2.85309 4.91345,5.89993 4.97313,2.91444 11.87142,10.55427 13.2203,14.64143 1.32234,4.00672 -0.0879,8.72788 -3.38061,11.31797 -1.7676,1.39039 -3.67049,1.82758 -7.88874,1.81243 -9.25121,-0.0332 -17.94533,-5.08178 -25.94706,-15.06709 -6.29514,-7.85567 -8.82039,-7.72538 -10.49682,0.5416 -2.92033,14.40106 -21.7811,18.67881 -27.97756,6.34552 -2.75846,-5.49038 -1.39337,-13.31364 3.42552,-19.63153 2.99257,-3.92346 2.9983,-6.71399 0.0138,-6.71399 -2.69522,0 -7.77174,4.27883 -11.49229,9.68648 -2.15292,3.12915 -3.26593,3.94989 -5.35646,3.94989 -4.41075,0 -11.68334,-1.87123 -13.73761,-3.53468 -2.95089,-2.38949 -1.71112,-5.66694 6.05866,-16.01664 17.11358,-22.79607 25.0669,-49.10895 22.29349,-73.75607 -2.95004,-26.2167 -15.23771,-46.29095 -34.67749,-56.65225 -10.57829,-5.63816 -10.18048,-3.14405 1.45718,9.13585 12.06949,12.73559 18.40314,23.22848 22.83286,37.82689 2.11942,6.9847 2.43167,9.60784 2.4669,20.72417 0.0448,14.1432 -1.12394,20.4789 -5.88965,31.92665 -4.05744,9.74639 -10.76522,19.52589 -19.85663,28.94963 -4.35871,4.51805 -8.39929,9.10545 -8.97905,10.19423 -1.19023,2.23522 -0.642,4.45585 1.28238,5.19431 1.90365,0.7305 1.64186,8.34664 -0.50098,14.57492 -3.91436,11.37729 -15.75287,22.40861 -33.20568,30.94165 -13.17303,6.44056 -20.79794,8.69847 -31.43997,9.31007 -7.16344,0.41168 -9.31245,0.21613 -12.0855,-1.09977 -3.29507,-1.56361 -6.01998,-5.26331 -6.01998,-8.17351 0,-2.4589 2.74047,-7.00932 7.8456,-13.02725 5.58943,-6.58883 6.06259,-8.33639 2.25713,-8.33639 -4.00178,0 -10.95528,5.23582 -15.35681,11.56332 -4.86231,6.98989 -7.52842,8.93175 -14.83195,10.80282 -8.83807,2.26422 -18.20531,0.17765 -21.4528,-4.77865 -1.95673,-2.98635 -1.66436,-8.75759 0.69004,-13.62113 2.52759,-5.22131 9.47428,-12.19568 15.31187,-15.3729 10.1055,-5.5001 4.63616,-9.51226 -6.13291,-4.49893 -5.66216,2.63591 -15.14024,11.75881 -18.38788,17.69882 -1.2227,2.23634 -3.244,4.60464 -4.49178,5.26288 -3.0302,1.59854 -8.50649,0.84855 -12.17907,-1.66793 -10.38992,-7.1193 -8.98931,-19.53943 3.43917,-30.4971 13.24531,-11.67783 30.22501,-18.21717 51.62834,-19.88346 4.33642,-0.3376 8.63126,-1.15993 9.54408,-1.82739 1.59716,-1.16787 1.58831,-1.31052 -0.23484,-3.78787 -2.64236,-3.5905 -3.22409,-6.60661 -3.20275,-16.60515 0.0499,-23.37474 13.55439,-48.40866 36.72452,-68.07803 7.05222,-5.98671 9.82462,-9.47229 8.54889,-10.74801 -0.64038,-0.64039 -9.23841,3.84221 -15.62794,8.14765 -22.50093,15.16171 -35.94264,39.78941 -38.62151,70.76175 -0.50416,5.82887 -1.1583,11.22768 -1.45365,11.99736 -0.32247,0.84034 -2.59382,1.7935 -5.68547,2.38588 -21.8586,4.18821 -35.35099,10.03023 -45.74686,19.80773 -7.49298,7.04728 -11.46271,12.81774 -14.42626,20.97022 -1.15144,3.16753 -2.96,6.32687 -4.019,7.02076 -6.61012,4.33112 -70.79825,5.87339 -94.13816,2.2619 -3.25,-0.50289 -6.42046,-0.92256 -7.04546,-0.93262 -2.36766,-0.0381 -4.77272,-3.62221 -4.77272,-7.11252 0,-5.9206 -4.09645,-12.63728 -13.13838,-21.54212 -14.33577,-14.11844 -33.82482,-23.11111 -50.20578,-23.16604 -6.8412,-0.0229 -7.56439,-1.0949 -7.5675,-11.21708 -0.009,-28.89859 -8.57815,-50.83024 -26.21085,-67.08226 -6.62683,-6.10794 -14.35754,-11.1964 -18.55931,-12.21599 -4.95986,-1.20355 -2.68427,2.57859 7.02102,11.66931 22.18731,20.78236 31.8121,44.92088 28.30901,70.99767 -0.73916,5.50221 -1.77618,7.05889 -7.4184,11.13588 -1.4764,1.06682 -2.35452,2.28302 -1.95138,2.70267 0.40314,0.41966 6.94859,1.24761 14.54546,1.8399 7.59685,0.59229 17.15772,1.93402 21.24636,2.98162 31.61106,8.09944 52.3382,29.11218 42.85443,43.44488 -3.11322,4.70496 -10.306,8.45489 -16.21744,8.45489 -4.73679,0 -6.20653,-1.18951 -10.26011,-8.30384 -4.37038,-7.67037 -16.15682,-16.58844 -25.04242,-18.94806 -8.77851,-2.33118 -7.81274,2.45477 1.62702,8.06284 6.78398,4.03028 14.05632,11.29109 16.02269,15.99729 2.07902,4.9758 1.68281,9.881 -1.06157,13.14252 -1.30394,1.54962 -3.17204,3.24633 -4.15136,3.77045 -3.17803,1.70083 -11.06438,2.46087 -16.92402,1.63105 -8.25236,-1.16868 -12.22902,-3.52912 -16.47219,-9.77748 -4.02054,-5.9205 -7.68183,-9.32276 -12.89409,-11.98186 -7.64184,-3.89857 -8.52148,-0.40371 -1.8337,7.28539 10.47911,12.04808 10.94452,18.26016 1.63242,21.78842 -3.6115,1.36835 -18.0739,1.07213 -25.62264,-0.52482 z m 451.99146,-86.54386 c 3.61998,-1.84677 9.2312,-7.39187 11.19705,-11.06509 0.58622,-1.09536 1.45,-4.71109 1.91951,-8.03498 0.46952,-3.32388 1.81204,-7.88433 2.98339,-10.13433 3.62286,-6.95901 4.12268,-13.63637 1.02072,-13.63637 -1.87792,0 -9.21673,14.37443 -9.97887,19.54546 -1.36726,9.27684 -5.51,14.54589 -14.67996,18.6711 -5.35031,2.4069 -7.37062,4.55045 -6.15011,6.52529 0.87895,1.42216 9.55859,0.23573 13.68827,-1.87108 z M 95.326094,559.63828 c 8.352426,-5.50664 7.849676,-17.30018 -0.914779,-21.45918 -6.346846,-3.01178 -13.57382,0.19514 -16.253769,7.21248 -1.978489,5.1806 -0.726474,9.39164 3.934609,13.23369 3.969952,3.27238 9.199761,3.6727 13.233939,1.01301 z M 450.58968,546.05424 c 5.02791,-5.62721 2.37367,-9.31974 -3.77453,-5.25105 -4.79418,3.17264 -6.564,3.00526 -10.32012,-0.97604 -2.71121,-2.87373 -3.37105,-3.1836 -4.60271,-2.1614 -2.14947,1.7839 -1.81474,6.67436 0.60768,8.87826 2.9342,2.66951 4.13468,2.98732 10.13514,2.68315 4.71499,-0.239 5.67536,-0.62208 7.95454,-3.17292 z m 67.59214,-0.48572 c 6.34746,-2.98978 12.67556,-8.89843 14.98083,-13.98785 1.07321,-2.36937 2.82025,-6.01487 3.8823,-8.10112 1.65267,-3.24643 1.75228,-4.00851 0.69106,-5.28721 -1.6114,-1.94161 -6.20805,-4.30772 -7.51942,-3.87059 -0.56308,0.18769 -1.52431,3.31184 -2.13606,6.94256 -1.35764,8.05745 -4.03403,12.36797 -10.76801,17.34265 -5.30741,3.92082 -8.67616,7.1756 -8.67616,8.38264 0,1.44224 5.06847,0.68766 9.54546,-1.42108 z M 72.460781,533.96953 c 2.081286,-1.04608 4.298925,-3.27905 5.79951,-5.8396 5.619238,-9.58851 3.016574,-20.35454 -6.03728,-24.97348 -9.065591,-4.62491 -19.300094,0.29089 -22.334081,10.72744 -4.621314,15.89676 8.202336,27.30793 22.571851,20.08564 z m 419.811949,-3.46721 c 4.77485,-2.3554 7.27272,-6.62216 7.27272,-12.42296 0,-3.96932 -0.33901,-5.01501 -1.89604,-5.84831 -2.39436,-1.28141 -2.62359,-1.0366 -5.37668,5.74216 -1.47494,3.63164 -3.10491,6.06264 -4.64344,6.92535 -2.20341,1.23557 -2.7621,1.12567 -7.9173,-1.55732 -8.62724,-4.48999 -11.65069,-3.35274 -7.56408,2.84519 4.35924,6.61141 12.10424,8.27237 20.12482,4.31589 z m -77.00031,-2.43013 c 4.89789,-2.48019 6.09122,-4.00016 6.09122,-7.75854 0,-1.9225 -0.16209,-3.49547 -0.36019,-3.49547 -0.1981,0 -3.4926,1.48757 -7.32108,3.30571 -8.92128,4.2367 -10.65882,3.70167 -12.83356,-3.95173 -0.82254,-2.89469 -2.09092,-5.87671 -2.81864,-6.62671 -1.17354,-1.20949 -1.47544,-1.1581 -2.67067,0.45455 -3.37503,4.55375 -2.18333,11.53981 2.8224,16.54554 2.74341,2.74341 3.47795,2.99991 8.59052,2.99991 3.3514,0 6.7559,-0.59008 8.5,-1.47326 z m 310.33553,-1.55877 c 2.8608,-2.62172 3.36408,-3.70183 3.71897,-7.98137 0.52263,-6.30225 -1.37907,-11.05202 -5.40857,-13.50875 -12.20029,-7.4383 -24.26895,8.79969 -15.15334,20.38831 2.39636,3.04648 4.66005,4.00194 9.65744,4.07622 3.1709,0.0471 4.47953,-0.49458 7.1855,-2.97441 z M 346.43762,523.9712 c 0.81433,-1.31761 -0.61333,-2.11661 -13.00967,-7.28094 -5.61462,-2.33905 -13.09074,-6.169 -16.6136,-8.51099 -5.74627,-3.82012 -7.92354,-5.95226 -15.7024,-15.37696 -4.10811,-4.9773 -7.21272,0.21952 -3.927,6.57341 2.9706,5.74451 15.29037,15.50572 25.74419,20.39764 9.6836,4.53151 21.94868,6.72165 23.50848,4.19784 z M 125.64801,507.1791 c 4.31333,-3.43152 7.53381,-9.60925 7.53381,-14.45183 0,-12.10356 -12.75269,-19.72653 -23.14966,-13.8378 -11.037127,6.25132 -12.158032,23.47163 -1.94559,29.8899 4.43145,2.78506 13.0346,2.0011 17.56144,-1.60027 z m 570.35392,-4.24267 c 9.1439,-6.10853 8.23468,-20.78854 -1.67687,-27.07426 -5.18439,-3.28784 -9.67965,-3.49347 -13.87976,-0.6349 -13.42416,9.1364 -8.06176,29.77273 7.73652,29.77273 3.40538,0 5.59671,-0.57825 7.82011,-2.06357 z m -341.63529,-3.45216 c 4.64788,-1.29067 9.32049,-5.49257 8.49629,-7.64039 -0.50712,-1.32153 -1.25097,-1.50979 -4.0154,-1.01627 -10.42925,1.86189 -12.68446,1.78174 -14.99926,-0.53306 -1.21906,-1.21906 -2.51162,-3.8295 -2.87235,-5.80097 -1.8123,-9.9046 -7.7941,-10.19053 -7.7941,-0.37255 0,7.19348 4.67841,13.23652 11.81818,15.26538 4.26201,1.21111 5.31799,1.22214 9.36664,0.0979 z m 209.73845,-6.16559 c 6.13433,-3.25598 9.619,-14.56367 6.18339,-20.06495 -2.40045,-3.84374 -4.59043,-1.78467 -5.72482,5.38263 -0.35611,2.25 -1.26759,5.06686 -2.02551,6.25969 -1.29032,2.03073 -1.76214,2.13503 -7.41264,1.63864 -3.31903,-0.29157 -7.35785,-0.80604 -8.97515,-1.14324 -3.70758,-0.77305 -4.94371,1.45283 -2.39698,4.31626 4.40527,4.95309 14.46154,6.73736 20.35171,3.61097 z m -288.40498,-9.0541 c 0.21793,-0.65447 -1.99817,-3.5457 -4.92466,-6.42494 -2.9265,-2.87924 -7.45072,-7.55967 -10.05383,-10.40095 -4.69041,-5.11955 -7.97897,-6.53924 -8.99775,-3.88438 -0.84046,2.19021 2.29678,6.91938 8.80798,13.2774 8.28222,8.08738 14.01493,10.89657 15.16826,7.43287 z M 73.636364,456.97367 c 2.5,-1.39636 10.597091,-6.09955 17.993536,-10.45153 22.73098,-13.37465 48.51166,-25.57751 66.55192,-31.50126 13.68773,-4.49453 17.40327,-7.96543 7.5,-7.00616 -16.20783,1.56994 -42.8438,12.40443 -69.728232,28.36274 -15.361098,9.11819 -28.226315,19.31941 -28.226315,22.3815 0,1.24517 1.053124,0.92699 5.909091,-1.78529 z M 283.18182,445.14228 c 0,-0.99906 -1.85603,-2.92662 -4.59561,-4.77273 -5.68052,-3.8279 -11.27066,-11.91153 -12.72195,-18.3966 -0.93197,-4.16446 -0.8692,-5.23551 0.45713,-7.80035 0.84559,-1.63519 1.32802,-3.51879 1.07207,-4.18577 -0.25594,-0.66699 -3.04691,-2.14802 -6.20213,-3.29118 -8.36758,-3.03161 -14.14518,-9.06746 -17.50419,-18.28656 -1.90979,-5.24155 -2.98765,-7.04545 -4.2098,-7.04545 -2.25128,0 -2.95287,1.43855 -2.88519,5.91583 0.11023,7.29151 7.95014,18.73257 17.19842,25.09825 3.66956,2.52579 3.80908,2.80521 4.37015,8.75204 1.15694,12.26245 5.12236,18.20857 15.37911,23.06086 6.51832,3.08372 9.64199,3.39202 9.64199,0.95166 z m 44.60223,-36.52501 c 41.63472,-13.99776 78.48721,-20.38558 124.03413,-21.49942 48.54393,-1.18715 91.87862,5.41769 131.04812,19.97362 16.11297,5.98781 19.40643,6.18283 19.40643,1.14912 0,-9.61672 -45.63003,-24.22049 -94.09091,-30.11355 -16.33478,-1.98639 -61.35933,-2.75364 -80.77533,-1.37649 -49.75125,3.52881 -123.11056,23.05366 -125.72278,33.46158 -1.64599,6.55815 2.62672,6.29707 26.10034,-1.59486 z M 93.636364,400.39039 c 39.938196,-4.87414 68.142566,-9.54924 68.168396,-11.29948 0.0203,-1.37755 -13.067,-1.61335 -26.35021,-0.47476 -15.3061,1.31198 -39.383646,4.89596 -55.45455,8.2545 -16.177212,3.38075 -19.545455,4.34144 -19.545455,5.57477 0,1.23684 12.605314,0.45616 33.181819,-2.05503 z m 652.056376,1.65506 c -1.1554,-3.56904 -61.17402,-13.24368 -84.88834,-13.68349 -6.81478,-0.12639 -9.82513,0.14157 -10.08794,0.89794 -0.21403,0.61603 1.11067,1.50568 3.09085,2.07578 5.9149,1.70292 28.83463,5.28941 52.10178,8.15293 31.86681,3.92189 40.40315,4.47051 39.78365,2.55684 z m -67.76945,-33.91513 c 20.49396,-2.82709 51.13076,-10.61382 69.34944,-17.62602 8.38994,-3.22921 10.20608,-4.23761 9.28711,-5.15659 -0.89938,-0.89936 -8.90438,0.65589 -35.65075,6.92641 -24.71325,5.79386 -50.89308,11.08585 -63.3341,12.80236 -4.33375,0.59794 -8.42466,1.43897 -9.09091,1.86897 -4.34551,2.80463 12.71866,3.49142 29.43921,1.18487 z m -516.80263,-0.76614 c 1.47346,-1.47345 -2.60266,-2.78554 -17.62504,-5.67349 C 134.57303,359.97539 112.75,355.72137 95,352.23732 c -37.715975,-7.40308 -40.909091,-7.90268 -40.909091,-6.40067 0,6.54195 101.583281,26.97401 107.029751,21.52753 z m 284.58615,-5.59754 c 3.81585,-2.67273 1.93254,-8.6235 -3.86272,-12.20518 -3.94083,-2.43556 -6.48773,-2.3141 -8.26216,0.39403 -2.43515,3.71651 0.59484,9.35486 6.41807,11.94302 3.46387,1.53953 3.31565,1.54295 5.70681,-0.13187 z m 41.70825,-0.8929 c 4.78921,-2.80667 7.04059,-6.61424 5.81576,-9.83577 -1.71622,-4.51399 -7.48467,-4.0723 -11.85737,0.90794 -3.19474,3.63859 -3.76378,8.72939 -1.14618,10.254 2.28853,1.33294 2.81661,1.23552 7.18779,-1.32617 z m 160.80588,-11.77035 c 16.42201,-4.47385 38.31743,-14.39509 51.70316,-23.42769 19.46415,-13.13428 50.31649,-39.3745 48.46825,-41.22274 -1.3359,-1.33591 -5.5514,1.126 -19.75599,11.53785 -45.89211,33.63853 -65.71182,43.87069 -93.0565,48.04153 -10.59452,1.61596 -12.76413,2.59222 -11.73293,5.27948 1.37832,3.59186 10.71753,3.512 24.37401,-0.20843 z m -284.56674,-0.0378 c 13.88404,-3.8558 24.59343,-17.7038 25.65364,-33.17197 2.10298,-30.68177 -27.76269,-50.83274 -55.09579,-37.17424 -13.61287,6.80243 -22.32445,25.2495 -19.38597,41.05045 4.29129,23.07526 25.47071,35.78243 48.82812,29.29576 z m 212.45705,-6.51293 c 13.6507,-6.09783 22.75217,-23.7351 19.96954,-38.69796 -2.93823,-15.79954 -14.63787,-27.96222 -29.54928,-30.71875 -20.87441,-3.85885 -40.31123,16.22194 -38.53294,39.80958 0.63664,8.44451 3.65607,15.09404 9.80725,21.598 10.24273,10.83017 25.05643,13.92751 38.30543,8.00913 z m -98.0927,-8.91193 c 7.5795,-1.97421 12.12162,-4.57138 17.63238,-10.08214 12.17272,-12.17272 15.21911,-32.47326 6.98223,-46.52841 -9.99409,-17.05364 -27.75211,-24.67752 -45.0374,-19.33548 -17.29365,5.34463 -28.05031,19.81903 -28.05031,37.74512 0,18.84694 11.24715,33.13584 30,38.11341 6.53492,1.73456 12.04932,1.76068 18.4731,0.0875 z M 310.25306,291.30035 c 15.7246,-26.79367 44.06763,-33.76076 65.69155,-16.14783 2.7635,2.2509 6.13185,4.81809 7.48524,5.70486 6.24946,4.0948 2.42604,-6.04501 -4.71054,-12.49247 -10.64614,-9.61815 -29.19955,-13.40456 -42.96305,-8.76797 -15.85415,5.34088 -30.17266,21.09724 -31.47336,34.6339 -0.61251,6.37451 0.96319,5.60107 5.97016,-2.93049 z m -72.94891,-26.6899 c 0.71627,-1.71424 2.54573,-10.14513 4.06549,-18.7353 2.98526,-16.87368 3.70701,-19.05697 6.29977,-19.05697 0.93299,0 6.5436,4.40125 12.46802,9.78055 13.52156,12.27742 16.00955,14.05397 19.1711,13.68911 6.03486,-0.69647 2.01058,-6.19593 -15.67217,-21.41713 C 253.6335,220.2603 248.37,216.81818 245.2063,216.81818 c -2.53542,0 -6.16617,4.43828 -7.8087,9.54546 -2.37069,7.37127 -5.12487,25.49647 -5.12487,33.7267 0,7.09421 0.13251,7.63693 1.86457,7.63693 1.26424,0 2.28386,-1.00351 3.16685,-3.11682 z"
     id="path34"
     transform="scale(0.75)" />
  <path
     style="fill:#ffffff;stroke-width:0.136185"
     d="m 118.12653,289.19794 c -2.49758,-0.4878 -4.08184,-3.81042 -5.29645,-11.10812 -0.2244,-1.34823 -0.86739,-6.06704 -1.42887,-10.48624 -0.56148,-4.41921 -1.17843,-9.16866 -1.371,-10.55434 -0.46738,-3.36317 -0.4397,-5.72495 0.0791,-6.74524 1.10292,-2.1692 4.09092,-1.60175 10.55706,2.00489 3.93696,2.19593 10.03891,6.03173 12.9226,8.12339 0.89412,0.64854 2.12335,1.66942 2.73163,2.26864 1.35073,1.33059 1.77281,2.11139 1.76681,3.26844 -0.007,1.36972 -0.39719,1.91596 -3.74424,5.24312 -4.21853,4.19345 -6.3683,6.67779 -10.04328,11.6063 -1.18825,1.59358 -2.62387,3.44969 -3.19027,4.12471 -1.05807,1.26098 -2.20096,2.39368 -2.38725,2.36594 -0.0579,-0.009 -0.32596,-0.0588 -0.59581,-0.11149 z"
     id="path35"
     transform="scale(0.75)" />
  <path
     style="fill:#ffffff;stroke-width:0.136185"
     d="m 164.4343,315.14005 c -3.72129,-0.7731 -8.15496,-2.87343 -9.77447,-4.63039 -0.89752,-0.97369 -1.15662,-1.67405 -1.08172,-2.92397 0.0747,-1.24705 0.62608,-2.53136 1.75902,-4.09736 0.55975,-0.77372 4.14629,-5.20154 4.89683,-6.04545 0.15361,-0.17272 4.04281,3.43258 5.63635,5.22491 0.73699,0.82892 1.93278,2.24228 2.65731,3.14079 3.5484,4.40046 3.95729,7.70546 1.12199,9.06885 -0.7101,0.34146 -0.93919,0.37844 -2.55058,0.41178 -1.11006,0.023 -2.10398,-0.0327 -2.66473,-0.14916 z"
     id="path36"
     transform="scale(0.75)" />
  <path
     style="fill:#ffffff;stroke-width:0.178833"
     d="m 88.088965,555.63394 c -1.905139,-0.86166 -3.717887,-2.94207 -4.33561,-4.97579 -0.340372,-1.1206 -0.363588,-1.40877 -0.193497,-2.40176 0.244551,-1.42768 0.750855,-2.4138 1.783235,-3.47318 1.783289,-1.82993 4.448809,-2.3568 6.605427,-1.30564 2.802086,1.36578 4.29071,4.3955 3.560379,7.24626 -0.542704,2.11838 -1.85696,3.78277 -3.626812,4.59303 -1.238077,0.56681 -2.928521,0.70812 -3.793122,0.31708 z"
     id="path37"
     transform="scale(0.75)" />
  <path
     style="fill:#ffffff;stroke-width:0.178833"
     d="m 62.891323,530.13788 c -1.799879,-0.35421 -4.285979,-1.95429 -5.580013,-3.59136 -1.621717,-2.05163 -2.321656,-4.09368 -2.317523,-6.7613 0.0031,-1.97636 0.311195,-3.45825 1.064562,-5.11977 1.99083,-4.39068 5.968102,-7.12112 9.931024,-6.81775 1.598245,0.12235 2.986769,0.64765 4.64686,1.75799 2.506116,1.67619 3.395656,3.07232 3.937601,6.18006 0.335263,1.92255 0.3363,2.83717 0.0054,4.73488 -1.101994,6.3193 -6.379552,10.66188 -11.687879,9.61725 z"
     id="path38"
     transform="scale(0.75)" />
  <path
     style="fill:#ffffff;stroke-width:0.178833"
     d="m 114.16779,504.78516 c -1.40107,-0.46332 -2.77835,-1.42877 -4.25318,-2.98138 -2.17544,-2.29018 -2.96667,-4.34678 -2.84586,-7.39711 0.12917,-3.26127 1.16769,-5.51664 3.71829,-8.07497 1.73002,-1.73528 3.39439,-2.68534 5.47749,-3.12668 1.53767,-0.32577 2.16916,-0.32631 3.69429,-0.003 5.15002,1.09128 7.81449,5.63009 6.64079,11.31233 -0.78225,3.78712 -2.63554,6.42947 -6.17296,8.80118 -2.46628,1.65355 -4.35905,2.09803 -6.25886,1.46977 z"
     id="path39"
     transform="scale(0.75)" />
  <path
     style="fill:#ffffff;stroke-width:0.103063"
     d="m 716.60887,523.76441 c -1.80024,-0.4943 -3.40384,-1.9702 -4.3384,-3.99294 -1.31766,-2.8519 -1.21497,-6.21819 0.25823,-8.46525 0.7766,-1.18454 1.77045,-1.95438 3.4954,-2.70755 0.84623,-0.3695 1.62714,-0.44641 2.28457,-0.22501 0.96026,0.32339 3.20806,2.36975 4.0921,3.72539 1.69375,2.59729 1.90551,5.87617 0.5572,8.62727 -0.44741,0.91289 -1.62804,2.166 -2.45155,2.60204 -1.07734,0.57044 -2.73332,0.75571 -3.89755,0.43605 z"
     id="path40"
     transform="scale(0.75)" />
  <path
     style="fill:#ffffff;stroke-width:0.103063"
     d="m 686.59235,499.54752 c -1.86674,-0.40597 -3.90855,-1.80444 -5.34285,-3.65941 -1.94377,-2.51386 -2.88954,-6.01969 -2.4189,-8.96649 0.16464,-1.03084 0.73883,-2.59282 1.2952,-3.52333 0.88559,-1.48113 2.71074,-3.22266 4.11748,-3.92884 2.53441,-1.27227 5.37338,-0.47614 8.19823,2.29901 1.58445,1.55659 2.5369,3.20442 3.15583,5.4599 0.24337,0.88687 0.27009,1.16546 0.27703,2.88821 0.009,2.31746 -0.16479,3.15542 -1.01963,4.9067 -0.45218,0.92636 -0.71085,1.30647 -1.35515,1.99137 -2.07185,2.20239 -4.43771,3.06995 -6.90724,2.53288 z"
     id="path41"
     transform="scale(0.75)" />
  <path
     style="fill:#ffffff;stroke-width:0.142164"
     d="m 696.20663,289.3198 c -1.40965,-0.52242 -2.46884,-1.62403 -4.09706,-4.26109 -2.36164,-3.82492 -4.71305,-6.87222 -7.75297,-10.04746 -3.31505,-3.4626 -4.25721,-4.75136 -4.69566,-6.42303 -0.81595,-3.11099 1.70582,-5.59729 12.25261,-12.08031 8.93233,-5.49061 13.00273,-7.33711 15.24884,-6.91749 1.2088,0.22582 1.82052,1.10076 2.01324,2.87951 0.12502,1.15387 -0.0448,7.3152 -0.26876,9.75209 -0.93946,10.22148 -3.2137,18.65187 -6.33295,23.47561 -0.86256,1.3339 -2.4926,2.95823 -3.40999,3.39805 -0.85913,0.41189 -2.18045,0.51203 -2.9573,0.22412 z"
     id="path42"
     transform="scale(0.75)" />
  <path
     style="fill:#ffffff;stroke-width:0.275104"
     d="m 348.00649,344.12556 c -13.66186,-2.00961 -23.78085,-11.5662 -26.52974,-25.05523 -0.63204,-3.10148 -0.75436,-7.82831 -0.27991,-10.81636 1.0005,-6.30094 4.16867,-12.40652 8.9279,-17.20549 2.87635,-2.90037 5.16951,-4.59419 8.56943,-6.32971 16.91775,-8.63582 36.47208,-0.1668 42.31405,18.3263 3.60264,11.40436 0.7631,23.5869 -7.4056,31.77246 -4.56247,4.57187 -9.80873,7.47079 -15.96749,8.82312 -1.89171,0.41538 -8.0075,0.72338 -9.62864,0.48491 z m 8.3091,-15.64691 c 3.49143,-1.05099 8.57128,-5.58884 10.36382,-9.25805 5.41611,-11.08638 -5.59369,-24.67228 -17.68445,-21.82229 -5.50681,1.29805 -10.14064,6.20263 -11.45904,12.12856 -0.58485,2.6288 -0.41898,6.35375 0.39745,8.92579 1.12482,3.54354 3.93757,6.92343 7.16998,8.61568 3.86988,2.02597 7.60588,2.4959 11.21224,1.41031 z"
     id="path43"
     transform="scale(0.75)" />
  <path
     style="fill:#ffffff;stroke-width:0.275104"
     d="m 462.80336,327.37897 c -14.42139,-2.3611 -25.07345,-13.96831 -26.6517,-29.04152 -0.72119,-6.88771 1.28535,-14.42925 5.52915,-20.78126 1.91518,-2.86658 6.41372,-7.30644 9.42345,-9.30051 8.18972,-5.42604 18.00061,-6.79693 26.95494,-3.76644 9.97348,3.3754 17.67555,11.35009 20.93872,21.67986 0.80971,2.56319 1.55441,7.23669 1.55209,9.7405 -0.002,2.65609 -0.71896,6.86121 -1.6349,9.59509 -3.7186,11.09927 -12.34348,18.83876 -23.94815,21.48973 -3.14534,0.71853 -8.99428,0.90344 -12.1636,0.38455 z m 11.37134,-16.21082 c 2.4057,-0.83662 5.34132,-2.77475 6.86327,-4.53122 1.51369,-1.74694 3.20585,-5.2593 3.72721,-7.73649 0.73512,-3.49281 0.17733,-7.5965 -1.47703,-10.86661 -1.14912,-2.27141 -4.21763,-5.09897 -6.94567,-6.40027 -11.76459,-5.61182 -22.83362,1.29429 -22.83362,14.24618 0,5.79623 1.95586,10.06491 6.01652,13.13109 3.91582,2.95681 9.84123,3.82941 14.64932,2.15732 z"
     id="path44"
     transform="scale(0.75)" />
  <path
     style="fill:#ffffff;stroke-width:0.275104"
     d="m 558.09345,339.32593 c -3.67337,-0.65713 -8.23294,-2.69459 -11.27594,-5.0387 -7.2047,-5.54999 -11.42558,-13.90132 -11.80366,-23.35442 -0.37426,-9.35748 2.38176,-17.36586 7.99909,-23.24358 7.95243,-8.32106 19.46385,-10.3506 30.08518,-5.3042 3.15161,1.49739 5.37798,3.06355 7.80477,5.49034 6.16028,6.16028 9.20278,14.94672 8.46457,24.4448 -0.69983,9.00416 -4.99825,17.00548 -11.88362,22.12082 -4.42096,3.28445 -9.02081,4.88734 -14.48361,5.04702 -1.89134,0.0553 -4.09939,-0.0176 -4.90678,-0.16208 z m 8.00715,-14.41972 c 2.71493,-0.57531 4.97229,-1.88568 7.35554,-4.26982 3.43939,-3.44069 4.85337,-7.07312 4.60578,-11.83202 -0.36923,-7.09718 -4.9874,-12.42115 -12.0828,-13.92947 -4.7554,-1.01088 -7.9224,0.0788 -11.91963,4.10127 -2.86304,2.88111 -3.95736,4.76584 -4.69671,8.08905 -1.93135,8.68108 5.16833,17.97361 13.91255,18.20965 0.52958,0.0143 1.80094,-0.1516 2.82527,-0.36866 z"
     id="path45"
     transform="scale(0.75)" />
</svg>
