<?xml version="1.0" encoding="UTF-8" standalone="no"?>
<svg
   version="1.0"
   width="600.000000pt"
   height="600.000000pt"
   viewBox="0 0 600.000000 600.000000"
   preserveAspectRatio="xMidYMid meet"
   id="svg6"
   sodipodi:docname="frog5_t1.svg.svg"
   inkscape:version="1.4.3 (0d15f75, 2025-12-25)"
   xmlns:inkscape="http://www.inkscape.org/namespaces/inkscape"
   xmlns:sodipodi="http://sodipodi.sourceforge.net/DTD/sodipodi-0.dtd"
   xmlns="http://www.w3.org/2000/svg"
   xmlns:svg="http://www.w3.org/2000/svg">
  <defs
     id="defs6" />
  <sodipodi:namedview
     id="namedview6"
     pagecolor="#505050"
     bordercolor="#ffffff"
     borderopacity="1"
     inkscape:showpageshadow="0"
     inkscape:pageopacity="0"
     inkscape:pagecheckerboard="1"
     inkscape:deskcolor="#505050"
     inkscape:document-units="pt"
     inkscape:zoom="0.71685991"
     inkscape:cx="368.27279"
     inkscape:cy="509.86252"
     inkscape:window-width="1024"
     inkscape:window-height="1022"
     inkscape:window-x="0"
     inkscape:window-y="30"
     inkscape:window-maximized="0"
     inkscape:current-layer="svg6" />
  <g
     transform="translate(0.000000,600.000000) scale(0.050000,-0.050000)"
     fill="#000000"
     stroke="none"
     id="g6">
    <path
       d="M6155 11398 c-80 -21 -297 -203 -407 -341 -110 -137 -104 -135 -179 -55 -156 165 -369 298 -476 298 -106 0 -304 -260 -398 -522 -7 -19 -47 9 -127 90 -279 280 -621 421 -737 304 -117 -116 -195 -701 -133 -991 28 -133 42 -129 -154 -49 -477 193 -651 149 -603 -150 82 -505 393 -991 839 -1306 121 -85 435 -256 473 -256 80 -2 69 -42 -45 -166 -210 -229 -310 -490 -317 -825 -4 -190 -8 -207 -66 -292 -222 -322 -319 -730 -247 -1039 l16 -71 -160 -119 c-349 -257 -622 -582 -808 -961 -103 -212 -116 -229 -213 -284 -647 -366 -671 -1357 -49 -1990 l161 -163 3 -140 c5 -217 100 -346 368 -502 221 -130 320 -217 344 -307 91 -339 660 -294 660 52 0 74 30 90 50 27 113 -356 707 -234 639 131 -11 56 -6 65 50 89 70 29 128 102 149 187 11 44 21 53 48 42 19 -8 138 -19 264 -24 314 -13 337 -36 191 -191 -178 -188 -134 -432 93 -523 134 -54 351 18 386 128 20 64 50 48 50 -26 0 -133 175 -293 320 -293 152 0 320 160 320 305 l0 79 79 -14 c427 -72 468 535 42 633 l-106 25 132 45 c177 59 359 153 490 251 l107 80 -14 -67 c-22 -100 -42 -129 -133 -191 -332 -225 -75 -721 284 -548 48 23 89 42 93 42 3 0 6 -30 6 -67 0 -137 152 -278 299 -278 159 0 321 136 321 270 0 49 6 57 35 45 159 -64 274 -45 383 64 69 69 70 70 137 38 176 -84 399 31 438 226 9 49 20 61 45 51 253 -102 520 118 442 364 -48 148 -152 222 -349 247 -66 9 -146 26 -177 38 l-56 22 121 112 c656 608 499 1695 -265 1839 -54 10 -77 25 -83 56 -22 111 -97 445 -105 465 -4 12 75 88 176 168 755 603 870 1471 278 2107 -142 153 -160 182 -160 249 0 213 -131 509 -305 692 -137 145 -139 111 12 219 421 301 793 936 793 1355 0 209 -219 218 -651 27 -140 -62 -133 -73 -96 142 70 401 -28 922 -182 961 -130 32 -424 -110 -631 -305 -142 -134 -160 -145 -160 -98 0 122 -267 491 -355 491 -95 0 -317 -143 -496 -319 l-122 -121 -103 158 c-169 259 -356 411 -469 380z m204 -273 c176 -181 274 -364 240 -447 -36 -87 -46 -87 -192 1 -179 108 -267 89 -479 -102 -41 -38 -42 -37 -115 86 -40 67 -73 132 -73 142 0 55 256 340 379 422 78 52 101 42 240 -102z m-1163 -4 c184 -97 421 -340 532 -546 l59 -108 -109 -130 c-59 -71 -127 -156 -150 -188 l-43 -59 -107 100 c-155 144 -293 241 -451 313 -75 35 -140 66 -144 69 -32 25 148 414 239 517 72 83 76 83 174 32z m2244 -83 c82 -128 148 -282 170 -402 l13 -70 -146 -70 c-157 -75 -344 -208 -455 -323 l-68 -71 -60 94 c-32 52 -103 144 -156 206 l-96 111 66 99 c141 208 353 406 542 506 106 56 100 59 190 -80z m-3336 -6 c186 -76 441 -305 544 -487 8 -14 -18 -79 -57 -146 -116 -198 -157 -341 -167 -584 -4 -118 -11 -215 -15 -215 -3 0 -82 57 -174 127 -92 69 -206 148 -252 174 -166 93 -228 627 -121 1028 46 170 62 177 242 103z m4404 -72 c105 -288 37 -951 -107 -1056 -39 -28 -140 -103 -225 -167 -189 -144 -176 -146 -176 32 0 248 -77 498 -214 696 -77 112 37 281 313 464 273 182 351 188 409 31z m-2148 -392 c144 -93 305 -250 402 -393 109 -159 110 -162 35 -269 -36 -53 -69 -100 -72 -105 -3 -4 -39 23 -80 62 -167 157 -345 277 -411 277 -42 0 -308 -179 -424 -284 l-100 -91 -65 97 c-36 53 -65 109 -65 125 0 84 360 470 550 591 119 76 99 76 230 -10z m1407 -313 c299 -635 0 -1396 -690 -1755 -203 -106 -205 -105 -114 75 168 333 147 644 -65 982 -97 156 -95 168 51 353 215 271 618 560 712 509 21 -11 69 -85 106 -164z m-2809 102 c233 -130 429 -316 592 -562 l76 -116 -64 -89 c-223 -311 -275 -664 -141 -967 36 -81 36 -87 4 -76 -19 6 -97 29 -172 51 -549 162 -884 1007 -631 1596 106 249 148 269 336 163z m-1687 -276 c480 -133 1144 -556 1209 -771 53 -176 203 -412 373 -590 l87 -91 -132 -25 c-72 -14 -176 -47 -231 -75 l-99 -51 -110 41 c-676 253 -1189 840 -1297 1486 -22 129 -8 134 200 76z m6012 -53 c-39 -435 -427 -1021 -834 -1259 l-90 -54 -140 45 c-177 57 -441 51 -573 -14 l-84 -41 100 122 c97 120 278 448 278 505 0 167 729 634 1170 749 174 46 182 43 173 -53z m-2853 -138 c578 -467 691 -1054 284 -1474 -267 -275 -843 -235 -1079 74 -308 406 -190 915 305 1320 282 230 300 233 490 80z m1666 -1231 c369 -85 634 -413 683 -847 l17 -153 159 -166 c614 -640 431 -1516 -430 -2061 -213 -135 -255 -245 -75 -200 93 23 175 -511 146 -961 -23 -369 -111 -688 -328 -1202 -246 -582 -244 -729 10 -858 138 -70 178 -179 102 -277 -79 -100 -202 -88 -296 28 -71 88 -188 72 -187 -24 0 -27 6 -91 14 -144 22 -150 -90 -240 -235 -190 -82 29 -120 114 -105 233 21 152 -123 235 -201 116 -101 -154 -330 -100 -330 78 0 74 45 132 167 215 78 53 114 139 132 314 14 137 24 168 85 243 272 338 525 1119 390 1204 -51 32 -85 -20 -102 -152 -92 -713 -572 -1319 -1191 -1503 -151 -45 -158 -43 -202 55 -112 254 -149 463 -149 848 0 305 -5 366 -30 376 -91 35 -130 -145 -114 -519 28 -620 263 -1092 545 -1092 72 0 189 -118 189 -190 0 -135 -161 -206 -282 -124 -93 63 -121 71 -173 52 -53 -20 -62 -108 -16 -169 82 -109 -11 -289 -149 -289 -80 0 -180 89 -180 159 0 198 -188 300 -268 146 -75 -145 -234 -184 -324 -78 -74 85 -45 252 47 282 136 43 128 193 -25 468 -316 565 -421 1027 -341 1502 28 171 30 209 8 223 -95 60 -152 -90 -171 -452 -18 -345 67 -708 265 -1125 l106 -225 -113 0 c-230 0 -364 35 -454 117 -68 63 -111 83 -261 118 -189 44 -329 96 -329 120 0 8 18 63 41 122 375 986 -363 2190 -1297 2115 l-146 -12 91 175 c159 305 477 667 750 851 l108 72 71 -121 c132 -224 457 -480 530 -419 53 45 37 78 -73 148 -532 341 -627 1045 -213 1591 l78 104 0 215 c0 976 1061 1463 1679 770 102 -115 166 -134 177 -53 6 39 13 42 70 25 131 -37 414 -21 564 34 315 114 403 137 525 136 70 0 135 -10 149 -24 53 -53 111 -26 190 90 163 238 432 347 702 285z m-807 -208 c-26 -39 -89 -53 -89 -19 0 6 101 65 115 67 3 1 -8 -21 -26 -48z m-4184 -3820 c770 -163 1202 -1138 873 -1971 -35 -87 -58 -170 -53 -185 14 -36 289 -142 480 -185 208 -46 294 -139 234 -252 -37 -69 -114 -84 -188 -38 -75 45 -132 51 -167 16 -41 -41 -27 -74 57 -126 92 -59 130 -125 111 -198 -44 -175 -285 -183 -371 -13 -50 97 -168 196 -267 223 -150 40 -201 -31 -104 -146 110 -130 31 -296 -140 -296 -108 0 -210 93 -210 192 0 50 -181 213 -340 307 -268 157 -360 261 -360 407 0 64 9 65 111 16 180 -86 310 -115 340 -74 40 55 16 85 -97 122 -242 78 -491 252 -660 460 -658 810 -172 1936 751 1741z m5845 -56 c619 -317 522 -1248 -178 -1704 -191 -125 -212 -240 -30 -166 61 25 78 23 207 -28 78 -31 179 -56 225 -56 113 -1 175 -33 217 -110 102 -189 -123 -332 -300 -192 -177 140 -353 74 -221 -83 93 -110 44 -230 -100 -249 -99 -13 -178 41 -223 155 -32 81 -116 164 -224 222 -142 77 -132 136 137 786 198 481 341 1170 293 1412 -16 80 57 85 197 13z"
       id="path1" />
    <path
       d="M8010 8243 c-246 -153 -281 -503 -75 -743 259 -303 684 -141 685 261 0 351 -361 636 -610 482z m204 -166 c128 -121 -37 -334 -172 -222 -64 53 -74 145 -22 210 53 67 129 72 194 12z"
       id="path2" />
    <path
       d="M4980 8003 c-662 -217 -393 -1211 274 -1013 433 129 472 770 60 983 -70 36 -261 53 -334 30z m122 -194 c109 -57 121 -192 23 -269 -71 -56 -138 -50 -207 18 -136 137 13 340 184 251z"
       id="path3" />
    <path
       d="M7464 7076 c-63 -63 4 -175 80 -134 46 24 48 129 4 146 -44 17 -57 15 -84 -12z"
       id="path4" />
    <path
       d="M6859 6978 c-19 -35 -16 -50 17 -83 70 -70 169 5 120 92 -26 47 -110 41 -137 -9z"
       id="path5" />
    <path
       d="M8060 6589 c-427 -442 -1439 -520 -1959 -150 -110 79 -214 13 -128 -82 222 -246 1029 -376 1514 -245 352 96 744 357 729 486 -9 80 -74 76 -156 -9z"
       id="path6" />
  </g>
  <path
     style="fill:#F0ACAF;stroke-width:1.14616"
     d="m 400.5824,248.86493 c -26.04418,-7.62057 -40.62864,-33.3918 -33.77913,-59.68883 3.35424,-12.8778 9.14142,-21.99872 22.24073,-35.05261 13.48767,-13.44092 21.74115,-19.44987 26.71499,-19.44987 4.34366,0 12.0803,5.39539 22.12543,15.42985 24.43658,24.41063 31.18756,49.77451 19.53585,73.39744 -5.2299,10.60322 -12.65397,18.20094 -22.10778,22.62491 -6.47497,3.03001 -9.09273,3.57852 -18.55543,3.88798 -6.79991,0.22238 -12.99121,-0.21738 -16.17466,-1.14887 z"
     id="path7"
     transform="scale(0.75)" />
  <path
     style="fill:#F0ACAF;stroke-width:1.14616"
     d="m 461.3288,236.85965 c 0,-0.55068 1.74071,-4.81322 3.86825,-9.47231 5.50801,-12.06194 6.83597,-18.89842 6.18012,-31.81589 -0.61896,-12.19086 -3.29397,-20.30494 -10.81792,-32.81379 -2.27607,-3.78406 -4.15154,-8.27959 -4.16772,-9.99007 -0.0693,-7.32485 22.76459,-31.17819 39.58531,-41.35268 8.30057,-5.02083 11.96055,-6.18385 14.52763,-4.6164 3.01617,1.84165 8.99461,14.08814 11.63831,23.84039 2.11417,7.79888 2.40095,11.25985 1.94692,23.49625 -0.4532,12.21407 -1.03743,15.7368 -3.92488,23.66563 -8.87782,24.37816 -26.78823,43.94746 -51.67253,56.45852 -3.93992,1.98087 -7.16349,3.15103 -7.16349,2.60035 z"
     id="path8"
     transform="scale(0.75)" />
  <path
     style="fill:#F0ACAF;stroke-width:1.14616"
     d="m 549.00992,215.7836 c -9.24056,-3.13176 -29.94447,-3.43749 -36.5305,-0.53944 -2.44094,1.07408 -4.62505,1.95288 -4.85358,1.95288 -0.22853,0 1.61905,-2.68811 4.10573,-5.97358 6.16816,-8.14955 14.44679,-22.95611 17.48733,-31.27657 1.75086,-4.79123 4.18629,-8.51442 8.03001,-12.27593 15.77557,-15.43817 57.58127,-37.55113 76.80551,-40.62596 4.15563,-0.66468 4.29809,-0.57471 4.29809,2.71416 0,6.72425 -4.66091,21.7499 -10.28803,33.1661 -10.09933,20.48932 -25.82758,39.02953 -42.29577,49.85755 -4.65119,3.05821 -8.77736,5.50889 -9.16927,5.44594 -0.39191,-0.063 -3.80719,-1.16326 -7.58952,-2.44515 z"
     id="path9"
     transform="scale(0.75)" />
  <path
     style="fill:#F0ACAF;stroke-width:1.14616"
     d="m 534.19452,156.24018 c -0.26117,-0.82983 -0.71816,-6.66741 -1.01552,-12.9724 -0.62495,-13.25066 -4.32686,-25.88931 -10.61512,-36.24089 -6.54016,-10.766267 -4.82227,-16.994219 7.52104,-27.266429 8.79777,-7.321573 22.78615,-15.946658 27.33972,-16.857372 4.9561,-0.991221 7.72868,1.669214 10.206,9.793176 2.61958,8.590516 2.56602,36.103965 -0.0933,47.911035 -2.87368,12.75896 -4.93874,16.09946 -14.5159,23.48134 -15.61422,12.03513 -18.31496,13.77828 -18.82696,12.15154 z"
     id="path10"
     transform="scale(0.75)" />
  <path
     style="fill:#F0ACAF;stroke-width:0.265969"
     d="m 377.3308,143.68989 c -3.48048,-5.26934 -5.10684,-8.34998 -5.10684,-9.67337 0,-4.45009 17.66225,-24.341 31.38437,-35.344541 2.43231,-1.950423 8.15976,-5.794732 10.10084,-6.779759 1.44625,-0.73392 2.75213,-0.768144 4.14211,-0.108554 1.89895,0.901112 9.65016,6.199889 13.09195,8.949744 4.05224,3.23759 12.40985,11.52043 15.38262,15.245 4.4729,5.60411 8.87015,12.24888 9.73593,14.71219 0.64277,1.8288 0.4921,3.07437 -0.60793,5.0258 -0.82984,1.47212 -6.44467,9.7625 -7.05185,10.41217 -0.30158,0.32268 -0.53768,0.23397 -1.62812,-0.61175 -0.70147,-0.54405 -2.35257,-1.97758 -3.66911,-3.18564 -10.95305,-10.05047 -21.12823,-17.11545 -26.32514,-18.27847 -1.42508,-0.31892 -1.4699,-0.30974 -3.69174,0.75637 -5.0966,2.44552 -16.72014,10.35522 -23.30928,15.86172 -1.24304,1.03879 -3.73626,3.23519 -5.5405,4.88087 -1.80425,1.64569 -3.37512,2.99215 -3.49083,2.99215 -0.11571,0 -1.65313,-2.18427 -3.41648,-4.85393 z"
     id="path11"
     transform="scale(0.75)" />
  <path
     style="fill:#F0ACAF;stroke-width:0.265969"
     d="m 391.52452,95.032695 c -1.90455,-2.225037 -8.66179,-14.225862 -8.66179,-15.383299 0,-3.310868 15.04964,-20.396551 23.68047,-26.884177 4.13987,-3.111852 6.09359,-3.572631 8.76778,-2.067853 1.86829,1.051294 11.47521,10.657414 14.7323,14.731069 6.22804,7.78945 10.03881,15.258861 10.10914,19.814709 0.0338,2.187727 -0.90393,4.725885 -2.28949,6.197163 -0.9123,0.968732 -1.06204,1.033371 -1.99477,0.861086 -1.37372,-0.253734 -3.45417,-1.28627 -8.32225,-4.130359 -6.33553,-3.701416 -9.23768,-4.668497 -13.40281,-4.466214 -5.04325,0.244931 -9.14303,2.511077 -17.40523,9.620722 -1.80393,1.552287 -3.50013,2.822341 -3.76933,2.822341 -0.26921,0 -0.91902,-0.501833 -1.44402,-1.115188 z"
     id="path12"
     transform="scale(0.75)" />
  <path
     style="fill:#F0ACAF;stroke-width:0.265969"
     d="m 361.05325,122.84032 c -7.92337,-7.45953 -13.15409,-11.71892 -19.54874,-15.91859 -4.89747,-3.21641 -7.88663,-4.86155 -14.6283,-8.050934 -3.07195,-1.453287 -6.16675,-2.929765 -6.87735,-3.28106 l -1.29199,-0.638715 0.16056,-1.367552 c 0.57496,-4.897053 8.43459,-21.767083 13.98463,-30.016819 0.7873,-1.170264 2.52036,-3.234851 3.85123,-4.587969 l 2.41978,-2.460216 h 1.39406 c 2.58855,0 9.6347,4.049349 16.14176,9.276499 7.8202,6.282002 16.05881,15.297148 21.5404,23.570703 2.0913,3.156465 7.32313,12.274903 7.32313,12.763293 0,0.0855 -2.07146,2.63464 -4.60325,5.66471 -6.10187,7.30279 -10.83034,13.20386 -13.22816,16.50855 -1.07672,1.48395 -2.02329,2.6917 -2.10347,2.68389 -0.0802,-0.008 -2.12062,-1.87342 -4.53429,-4.14579 z"
     id="path13"
     transform="scale(0.75)" />
  <path
     style="fill:#F0ACAF;stroke-width:0.265969"
     d="m 355.4679,228.21604 c -7.75239,-2.32055 -9.76365,-3.0448 -13.14891,-4.73489 -17.00672,-8.49062 -31.09631,-28.08636 -36.9566,-51.39905 -0.85243,-3.391 -1.87631,-9.01199 -2.32547,-12.76652 -0.45711,-3.82093 -0.46691,-15.11384 -0.0163,-18.75083 0.97761,-7.89023 3.06005,-15.2788 6.39916,-22.7045 5.69647,-12.66812 8.77917,-14.40536 17.69081,-9.96962 3.61382,1.79878 9.94456,5.68108 13.596,8.33771 11.91633,8.66981 20.51318,17.93669 30.42123,32.79224 l 3.77709,5.66316 -3.16048,4.44367 c -4.09745,5.76108 -5.95036,8.82439 -8.42371,13.92647 -4.62005,9.53034 -6.79033,18.81221 -6.78774,29.02988 0.002,9.00328 1.26624,14.7666 5.45619,24.87869 0.6874,1.65899 1.14701,3.11234 1.02134,3.22965 -0.12566,0.11732 -3.51985,-0.7719 -7.54263,-1.97606 z"
     id="path14"
     transform="scale(0.75)" />
  <path
     style="fill:#F0ACAF;stroke-width:0.740784"
     d="m 459.45057,119.41589 c -2.27087,-3.34174 -6.8464,-9.33063 -10.16784,-13.30864 l -6.03898,-7.232741 3.51771,-4.990198 c 11.36694,-16.125066 27.10824,-30.525424 39.38638,-36.031215 3.06606,-1.374888 3.18113,-1.375655 4.66687,-0.03108 4.07985,3.69221 13.06226,20.964394 15.00332,28.849741 2.32533,9.44638 3.02796,7.985881 -6.02648,12.526854 -10.90421,5.468669 -22.16942,13.141959 -29.83969,20.325299 l -6.37244,5.96788 z"
     id="path15"
     transform="scale(0.75)" />
  <path
     style="fill:#F0ACAF;stroke-width:0.644209"
     d="m 290.21608,231.33205 c -33.92465,-13.73661 -60.38736,-37.59075 -75.10665,-67.703 -5.33305,-10.91019 -11.15568,-30.498 -10.45932,-35.18603 0.51954,-3.49762 4.41263,-3.1562 18.92417,1.65964 24.34439,8.07899 52.90353,24.75297 67.64362,39.49306 4.86591,4.86591 5.54525,5.96864 8.86025,14.38243 4.13894,10.50503 12.29806,22.86916 22.6688,34.35176 6.06667,6.71709 6.11259,6.18357 -0.64253,7.46635 -6.25795,1.18837 -13.85088,3.67488 -18.64512,6.10583 -2.45989,1.2473 -4.92399,2.24556 -5.47578,2.21835 -0.55178,-0.0272 -4.04713,-1.28198 -7.76744,-2.78839 z"
     id="path16"
     transform="scale(0.75)" />
  <path
     style="fill:#F0ACAF;stroke-width:0.644209"
     d="m 284.4182,152.65697 c -5.13756,-3.81646 -11.66018,-8.46454 -14.4947,-10.32906 -8.36425,-5.50193 -10.26005,-8.26247 -12.97585,-18.89449 -4.08986,-16.01135 -3.35757,-38.716718 1.76821,-54.825178 0.73284,-2.303047 1.78745,-4.694672 2.34358,-5.314723 3.39925,-3.789959 18.63017,3.175287 31.89319,14.585057 5.69444,4.898754 13.30496,13.568435 15.43433,17.582344 l 1.44251,2.719149 -5.27731,10.499281 c -7.66075,15.24119 -9.01168,20.89485 -10.33924,43.27003 l -0.45369,7.64661 z"
     id="path17"
     transform="scale(0.75)" />
  <path
     style="fill:#F0ACAF;stroke-width:0.364321"
     d="m 377.57262,143.63348 c -3.4447,-5.21263 -5.05458,-8.25989 -5.05458,-9.56754 0,-3.09931 6.88319,-11.8424 18.37465,-23.33965 9.34898,-9.3537 14.23622,-13.418662 21.13115,-17.575845 3.84169,-2.316282 4.50635,-2.198716 10.58831,1.872887 6.37528,4.267967 10.5977,7.737308 16.23714,13.341208 6.44577,6.40515 8.93639,9.42046 13.46463,16.3012 3.52306,5.35335 4.31003,7.35467 3.66297,9.31527 -0.39218,1.18832 -3.96831,6.86209 -6.65168,10.55336 l -1.25081,1.72061 -1.43718,-1.16441 c -0.79045,-0.64043 -3.07074,-2.62084 -5.06731,-4.40092 -10.03928,-8.95068 -19.54235,-15.44756 -24.37544,-16.66455 -2.08383,-0.52471 -2.99066,-0.19674 -8.48843,3.07001 -7.61968,4.52758 -15.90504,10.6292 -23.25461,17.12551 -2.40452,2.12536 -4.49733,3.86688 -4.6507,3.87004 -0.15336,0.003 -1.60601,-2.00257 -3.22811,-4.45718 z"
     id="path18"
     transform="scale(0.75)" />
  <path
     style="fill:#F0ACAF;stroke-width:0.808571"
     d="m 459.67763,119.06215 c -1.95134,-2.77947 -6.24651,-8.41859 -9.54483,-12.53138 -3.29831,-4.11279 -5.82062,-7.933295 -5.60513,-8.49 0.21548,-0.556707 2.92677,-4.286908 6.02508,-8.289337 10.36152,-13.385134 23.80851,-25.406784 34.56561,-30.901748 l 4.01834,-2.052657 2.45024,2.841399 c 5.96967,6.922695 14.32641,25.208877 14.4823,31.69012 0.0953,3.959802 0.0492,4.037326 -3.54207,5.95797 -15.54207,8.312143 -23.83125,13.880233 -33.0191,22.179913 -2.83075,2.55711 -5.40236,4.64929 -5.71469,4.64929 -0.31232,0 -2.16441,-2.27411 -4.11575,-5.05357 z"
     id="path19"
     transform="scale(0.75)" />
  <path
     style="fill:#F0ACAF;stroke-width:0.808571"
     d="m 357.47328,119.12144 c -9.84448,-8.91244 -17.50707,-14.14326 -29.14047,-19.892528 -4.92089,-2.431925 -9.05622,-4.51616 -9.18961,-4.631633 -0.13339,-0.115472 0.53685,-2.526526 1.48943,-5.357898 2.89505,-8.605056 11.11436,-23.850343 15.32472,-28.424477 3.80867,-4.13774 3.92791,-4.196824 6.51353,-3.227432 6.14662,2.304471 12.27046,6.873912 21.43275,15.992532 8.9332,8.890631 13.52427,14.807338 19.14768,24.676416 l 2.0818,3.65356 -8.2481,10.15859 c -4.53646,5.58723 -8.9597,11.0896 -9.82941,12.22749 l -1.5813,2.0689 z"
     id="path20"
     transform="scale(0.75)" />
  <path
     style="fill:#F0ACAF;stroke-width:0.808571"
     d="m 389.87869,91.640835 c -3.56475,-5.588742 -6.21153,-10.821191 -6.21153,-12.279669 0,-3.056575 14.18464,-19.309914 21.93993,-25.13967 7.10244,-5.339001 7.74586,-5.180118 16.99962,4.197793 14.52617,14.721065 19.99315,26.112143 15.28546,31.848996 l -1.56642,1.908863 -8.33858,-4.25639 c -7.24199,-3.696642 -8.95423,-4.254892 -13.02007,-4.245 -5.48405,0.01334 -8.69094,1.446306 -15.59059,6.966489 -2.6365,2.109378 -5.23279,4.167888 -5.76954,4.574468 -0.686,0.519641 -1.79351,-0.542598 -3.72828,-3.57588 z"
     id="path21"
     transform="scale(0.75)" />
  <path
     style="fill:#ffffff;stroke-width:1.27747"
     d="m 401.66675,708.45661 c -2.42739,-2.42738 -3.73415,-5.04357 -3.73415,-7.4759 0,-2.05799 -1.31194,-5.69509 -2.91541,-8.08248 -2.27091,-3.38112 -3.92978,-4.42623 -7.504,-4.72759 -4.0444,-0.34101 -5.07854,0.2317 -8.71965,4.82897 -7.47605,9.43929 -15.12082,11.00103 -20.48279,4.18439 -5.17707,-6.58159 -3.02665,-12.99986 6.58602,-19.65692 2.53407,-1.75492 2.9782,-3.07131 2.78315,-8.24921 -0.18233,-4.84088 -2.29247,-10.27882 -9.84748,-25.37752 -5.28848,-10.56903 -11.10876,-23.1959 -12.93396,-28.05968 -8.41213,-22.41657 -11.05114,-44.93033 -7.85491,-67.01111 1.05554,-7.29201 1.60467,-14.07776 1.22031,-15.07941 -0.41983,-1.09405 -2.03633,-1.66608 -4.04872,-1.43271 -5.0849,0.58969 -7.91528,10.44164 -8.73629,30.40908 -1.05238,25.59482 3.86747,46.9661 17.5312,76.15354 l 6.21195,13.26951 -9.81709,-0.007 c -12.55135,-0.009 -18.18537,-1.62337 -26.98612,-7.73209 -4.9073,-3.40622 -10.39676,-5.75389 -17.75849,-7.59474 -9.33711,-2.33479 -20.64253,-6.13389 -20.64253,-6.93676 0,-0.15194 1.36507,-4.28973 3.03348,-9.19505 4.86045,-14.29032 6.35483,-25.4606 5.55879,-41.55101 -2.82909,-57.18446 -45.41463,-102.5434 -93.07215,-99.13352 l -8.64088,0.61826 3.0401,-5.99936 c 11.65868,-23.0073 36.06972,-50.66442 55.71442,-63.12309 l 3.31919,-2.10504 4.63631,7.51143 c 5.35658,8.67834 19.04051,21.98265 26.55057,25.81399 6.27246,3.19997 10.57285,2.86678 11.10475,-0.86041 0.29166,-2.04373 -1.73892,-4.34285 -8.30356,-9.4017 -20.066,-15.46329 -28.71719,-31.91759 -28.89652,-54.96031 -0.13937,-17.90865 5.34619,-33.74181 17.1315,-49.44723 l 4.99159,-6.65192 0.0189,-12.51017 c 0.0231,-15.28171 2.3301,-25.59664 8.43734,-37.724 6.15446,-12.22113 18.56063,-24.68219 29.9872,-30.11986 24.45193,-11.6362 48.39767,-7.34354 69.18516,12.40254 9.8124,9.32083 14.17839,11.15192 15.63646,6.55793 0.69271,-2.18253 1.60291,-2.42475 6.79282,-1.8077 3.29611,0.39189 6.69719,0.92758 7.55793,1.19044 4.11808,1.25755 23.81248,-2.40489 38.33034,-7.12806 16.59976,-5.40048 23.85838,-6.01911 36.90777,-3.14553 3.63901,0.80134 4.41991,0.34515 8.94231,-5.22388 14.75762,-18.17307 28.52687,-24.15559 46.81815,-20.34175 23.87881,4.97887 40.73663,25.04001 45.37274,53.99445 l 1.99312,12.4479 7.9154,8.47105 c 13.62823,14.58489 20.93108,27.07274 24.36165,41.65832 2.67197,11.36033 1.80976,28.67231 -1.98883,39.93242 -6.51505,19.31247 -22.32263,38.78985 -43.88727,54.07591 -14.15701,10.03516 -18.13126,13.98757 -17.00807,16.91455 0.61469,1.60188 1.77281,1.94639 4.62523,1.37591 3.0571,-0.61142 4.1886,-0.17592 5.75529,2.21517 5.17098,7.89191 8.37556,45.00988 5.80325,67.21788 -2.67969,23.13503 -6.29555,35.99398 -19.21814,68.34476 -18.11722,45.35521 -18.34058,52.04559 -2.08464,62.44439 7.51389,4.80656 9.7321,7.70784 9.7321,12.72892 0,3.36796 -6.38698,9.77859 -9.7425,9.77859 -2.89034,0 -8.44257,-3.22757 -11.87783,-6.90472 -3.4391,-3.68124 -9.0952,-4.40966 -11.52328,-1.484 -1.04557,1.25984 -1.25409,4.54757 -0.66842,10.53914 0.75726,7.74714 0.54503,9.09577 -1.92318,12.22115 -2.78368,3.52481 -8.34713,4.65472 -13.39024,2.7195 -3.3146,-1.27194 -5.80585,-7.50696 -5.80585,-14.53074 0,-5.25099 -0.62131,-7.13019 -3.21495,-9.72383 -3.94691,-3.94689 -7.06325,-3.25329 -12.82323,2.85408 -4.76707,5.05455 -9.9864,5.67438 -14.94405,1.77469 -6.87634,-5.40893 -5.2133,-13.32857 4.16336,-19.82661 6.81317,-4.72153 9.66806,-10.47667 11.4101,-23.0014 1.23405,-8.87249 2.15836,-11.1931 7.60608,-19.09589 8.14859,-11.82084 14.27009,-24.18538 19.70704,-39.80532 8.01374,-23.02288 8.88925,-38.81294 2.15207,-38.81294 -3.31298,0 -4.51031,2.89941 -7.05444,17.08287 -6.59306,36.75595 -28.98025,69.00168 -59.37834,85.52649 -8.34195,4.53479 -22.43843,9.8082 -26.21856,9.8082 -2.5926,0 -7.45036,-10.53627 -10.94896,-23.74779 -2.06267,-7.78912 -2.80678,-15.22915 -3.24649,-32.46099 -0.73414,-28.76908 -1.06724,-30.93528 -4.67769,-30.41928 -5.21991,0.74603 -6.59202,6.37198 -6.48424,26.58687 0.18399,34.50962 8.45154,62.16459 22.33369,74.70628 5.40032,4.87887 9.73002,7.02463 14.31511,7.09444 3.25672,0.0496 7.15345,3.04147 10.38516,7.97369 1.92349,2.93562 2.04775,4.0828 0.77508,7.1553 -2.8727,6.93532 -10.50459,8.29778 -18.58887,3.31853 -5.60484,-3.45212 -9.51953,-3.98835 -11.88049,-1.62739 -2.13882,2.13882 -1.91118,8.0823 0.4872,12.72025 2.44105,4.72047 1.56881,9.10085 -2.65278,13.32245 -4.34202,4.34202 -10.05395,4.09089 -14.79532,-0.65049 z m 98.33861,-315.61992 c 25.46063,-7.23105 50.8781,-25.53289 48.00997,-34.56958 -1.2953,-4.08111 -4.91102,-2.89478 -14.07763,4.61895 -18.63445,15.27435 -40.7765,22.38694 -69.62823,22.36638 -22.20652,-0.0158 -39.94188,-4.25884 -53.60215,-12.82379 -7.70956,-4.83387 -10.51321,-5.52379 -13.48047,-3.31729 -2.3064,1.71509 -2.3456,2.10979 -0.5371,5.40966 4.75237,8.67142 25.88933,17.35551 50.54937,20.76814 14.19719,1.96472 41.71684,0.68565 52.76624,-2.45247 z m -33.81925,-51.84285 c 2.35404,-2.35404 2.48167,-3.66179 0.68505,-7.01883 -1.69385,-3.16498 -6.58538,-3.17653 -9.43993,-0.0223 -4.71796,5.21329 3.76238,12.03361 8.75488,7.04112 z m 39.06955,-6.29612 c 1.50362,-4.13196 -0.74344,-8.30357 -4.47276,-8.30357 -4.25637,0 -6.7068,4.79073 -4.53044,8.85728 1.88708,3.52606 7.6475,3.17179 9.0032,-0.55371 z m -151.82064,-1.18231 c 11.94493,-4.99091 19.04837,-15.47867 19.94482,-29.44722 0.83582,-13.02395 -1.99392,-20.99448 -10.45885,-29.4594 -10.65714,-10.65715 -24.0769,-12.54746 -38.01206,-5.35439 -13.17208,6.79918 -19.93408,19.37374 -18.57224,34.53681 1.31672,14.66086 10.29856,26.94897 22.61241,30.93621 6.69547,2.168 17.70009,1.62329 24.48592,-1.21201 z m 204.31035,-23.89769 c 11.28262,-3.75906 18.95884,-17.51556 17.19468,-30.81447 -3.23689,-24.40084 -28.08076,-39.58882 -43.9264,-26.85382 -7.93098,6.37407 -11.09537,13.4546 -11.00449,24.62331 0.0632,7.76126 0.72071,10.82767 3.46198,16.1445 7.38192,14.31766 21.35148,21.20598 34.27423,16.90048 z"
     id="path22"
     transform="scale(0.75)" />
  <path
     style="fill:#ffffff;stroke-width:1.27747"
     d="m 231.5579,699.97125 c -3.4939,-1.89577 -7.36152,-7.76717 -7.36152,-11.17547 0,-2.89751 -11.26804,-12.63073 -25.29856,-21.85264 -14.53472,-9.55331 -19.31752,-14.82428 -20.33506,-22.41057 -0.38048,-2.83674 -0.39814,-5.15772 -0.0392,-5.15772 0.35891,0 3.74006,1.40242 7.51366,3.11651 10.36891,4.70985 18.57138,6.49195 20.91771,4.54467 3.05999,-2.53956 2.29439,-6.28626 -1.60125,-7.83619 -12.55263,-4.9942 -27.72876,-13.4712 -35.03594,-19.57017 -33.64281,-28.08018 -42.70385,-74.44248 -20.77248,-106.28585 26.61539,-38.64437 86.97186,-26.07419 111.13657,23.14592 8.65364,17.62625 10.15339,24.76283 10.07753,47.95381 -0.0633,19.34586 -0.17336,20.12648 -4.79052,33.97446 -2.59917,7.7955 -4.72575,15.06031 -4.72575,16.14403 0,2.43561 11.45834,7.4287 28.44287,12.39426 14.34553,4.19402 18.46143,6.49913 19.58288,10.96737 1.88384,7.50583 -5.99143,11.95109 -13.534,7.63936 -4.72538,-2.70126 -9.8758,-2.39095 -11.5271,0.69451 -1.22027,2.28011 -0.55864,3.38576 5.22463,8.73087 7.20837,6.66225 8.27063,10.37505 4.57998,16.0077 -4.06618,6.20578 -14.00485,5.88303 -18.97815,-0.61629 -1.61293,-2.10784 -4.60275,-5.85718 -6.64406,-8.33188 -5.89236,-7.14335 -17.61208,-12.06229 -22.50293,-9.44478 -3.3772,1.80741 -3.18655,4.81217 0.66495,10.48016 4.96436,7.30571 4.19708,13.81017 -2.00757,17.01872 -4.5314,2.34326 -8.50066,2.30329 -12.98667,-0.13079 z"
     id="path23"
     transform="scale(0.75)" />
  <path
     style="fill:#ffffff;stroke-width:1.27747"
     d="m 578.09453,665.87582 c -3.05383,-1.57512 -6.07695,-5.46904 -10.43536,-13.4412 -1.1514,-2.10608 -5.6723,-6.25958 -10.04643,-9.23 l -7.95298,-5.40077 0.56326,-6.55996 c 0.35544,-4.13965 4.13348,-15.51521 10.23987,-30.83194 15.46085,-38.78064 22.26878,-65.42207 23.5856,-92.29737 0.89468,-18.25976 0.89209,-18.25749 13.313,-11.63721 13.86246,7.38861 22.99504,20.65215 25.16989,36.55503 1.22055,8.92481 -0.1326,22.96539 -2.99518,31.07881 -5.24302,14.86032 -17.45454,31.05659 -30.38948,40.30594 -9.58996,6.85745 -14.92295,12.13534 -14.92295,14.76875 0,2.61515 4.15525,3.08974 9.44466,1.07872 2.43172,-0.92453 5.66879,-0.47149 13.17725,1.84424 5.4745,1.68842 12.77768,3.4389 16.22931,3.88998 12.06495,1.57669 18.15964,13.37749 10.15918,19.67065 -4.70008,3.69708 -10.29609,3.3193 -17.03286,-1.14991 -13.56767,-9.00087 -23.09238,-4.66854 -15.3704,6.99126 3.42738,5.17518 3.2976,10.31925 -0.31937,12.65875 -4.44082,2.87238 -8.9538,3.49252 -12.41701,1.70623 z"
     id="path24"
     transform="scale(0.75)" />
  <path
     style="fill:#ffffff;stroke-width:0.41616"
     d="m 538.29522,277.39171 c -2.82957,-1.49654 -4.95645,-4.34869 -5.5455,-7.43651 -0.64468,-3.37944 1.6488,-7.95468 4.96038,-9.8954 3.645,-2.13611 8.22054,-0.70894 11.16679,3.48307 4.90872,6.98426 -3.28509,17.70797 -10.58167,13.84884 z"
     id="path25"
     transform="scale(0.75)" />
  <path
     style="fill:#ffffff;stroke-width:0.169168"
     d="m 334.31639,299.66403 c -3.86129,-0.55487 -8.14392,-4.48817 -9.46692,-8.6947 -0.84368,-2.68252 -0.33612,-5.90246 1.32407,-8.39974 3.26425,-4.91013 9.57522,-5.93682 14.95416,-2.4328 6.16972,4.01917 6.50794,12.23447 0.69641,16.91566 -2.56399,2.06528 -5.1206,2.95461 -7.50772,2.61158 z"
     id="path26"
     transform="scale(0.75)" />
</svg>
