<?xml version="1.0" encoding="UTF-8" standalone="no"?>
<svg
   version="1.0"
   width="600.000000pt"
   height="600.000000pt"
   viewBox="0 0 600.000000 600.000000"
   preserveAspectRatio="xMidYMid meet"
   id="svg6"
   sodipodi:docname="frog5_t0.svg.svg"
   inkscape:version="1.4.3 (0d15f75, 2025-12-25)"
   xmlns:inkscape="http://www.inkscape.org/namespaces/inkscape"
   xmlns:sodipodi="http://sodipodi.sourceforge.net/DTD/sodipodi-0.dtd"
   xmlns="http://www.w3.org/2000/svg"
   xmlns:svg="http://www.w3.org/2000/svg">
  <defs
     id="defs6" />
  <sodipodi:namedview
     id="namedview6"
     pagecolor="#505050"
     bordercolor="#ffffff"
     borderopacity="1"
     inkscape:showpageshadow="0"
     inkscape:pageopacity="0"
     inkscape:pagecheckerboard="1"
     inkscape:deskcolor="#505050"
     inkscape:document-units="pt"
     inkscape:zoom="4.2445694"
     inkscape:cx="374.5963"
     inkscape:cy="158.90893"
     inkscape:window-width="1920"
     inkscape:window-height="1022"
     inkscape:window-x="0"
     inkscape:window-y="30"
     inkscape:window-maximized="1"
     inkscape:current-layer="svg6" />
  <g
     transform="translate(0.000000,600.000000) scale(0.050000,-0.050000)"
     fill="#000000"
     stroke="none"
     id="g6">
    <path
       d="M5928 11043 c-82 -60 -243 -226 -328 -339 l-50 -66 -69 51 c-158 118 -369 -46 -493 -385 -48 -131 -54 -134 -141 -76 -216 142 -325 67 -395 -273 -81 -390 -3 -833 188 -1074 l60 -77 -145 -69 c-386 -184 -607 -550 -630 -1044 -11 -232 -13 -243 -78 -333 -198 -275 -297 -709 -229 -1003 l18 -75 -153 -107 c-327 -229 -627 -580 -803 -939 -90 -184 -106 -204 -202 -259 -658 -375 -657 -1410 0 -2030 l112 -105 1 -135 c3 -225 75 -324 359 -499 215 -132 324 -231 341 -311 73 -330 667 -283 669 53 l1 62 32 -66 c153 -309 627 -230 627 104 0 103 4 110 71 150 46 27 85 74 110 129 l39 88 85 -17 c47 -9 163 -17 258 -17 210 -1 240 -36 123 -142 -335 -305 81 -777 422 -478 l67 59 12 -62 c71 -351 587 -325 644 33 l12 79 94 -7 c162 -11 306 121 310 284 l3 91 47 -59 c90 -115 273 -156 402 -90 l56 30 13 -83 c52 -320 563 -325 623 -6 11 59 18 66 50 50 104 -56 290 -3 372 106 34 45 40 47 83 18 164 -107 464 46 464 237 0 33 8 40 35 29 302 -124 578 204 398 475 -55 83 -197 155 -304 155 -46 0 -112 10 -148 23 l-65 22 118 123 c623 645 487 1622 -250 1797 -91 21 -104 31 -104 75 -1 52 -67 365 -90 424 -10 24 3 42 47 64 93 49 399 348 487 477 398 587 363 1198 -98 1694 -140 151 -150 167 -166 281 -82 581 -499 979 -1025 980 -85 0 -155 4 -155 10 0 5 24 79 54 165 111 314 69 920 -78 1161 -80 130 -206 125 -391 -16 -132 -100 -123 -102 -204 35 -149 248 -301 349 -425 283 -34 -19 -46 -16 -63 15 -35 63 -239 269 -327 329 -109 76 -196 76 -298 1z m264 -160 c88 -64 185 -169 262 -285 l52 -79 -46 -100 c-56 -119 -37 -118 -173 -8 -190 156 -247 154 -430 -8 l-93 -83 -48 65 c-27 36 -55 75 -62 87 -19 32 164 285 277 385 112 98 156 102 261 26z m-711 -398 c201 -227 205 -246 88 -413 -49 -71 -119 -193 -155 -271 l-64 -142 -148 185 -148 186 24 90 c51 196 212 460 280 460 21 0 76 -43 123 -95z m1329 -2 c185 -220 215 -330 121 -453 -38 -50 -85 -117 -104 -150 -46 -77 -46 -77 -165 100 -55 83 -115 170 -133 194 -30 41 -28 52 41 190 119 237 134 244 240 119z m-614 -162 c913 -721 722 -2025 -266 -1821 -692 143 -702 1151 -17 1778 157 144 156 144 283 43z m1346 -71 c292 -661 -71 -1560 -647 -1606 -130 -10 -129 -10 -76 80 104 176 130 515 62 784 l-40 154 84 139 c144 241 448 539 550 539 15 0 45 -41 67 -90z m-2750 -167 c109 -79 329 -317 426 -461 l82 -120 -20 -145 c-24 -164 -2 -380 51 -505 l32 -77 -57 14 c-104 27 -275 51 -360 51 -291 0 -497 800 -316 1233 34 82 61 84 162 10z m3316 -1225 c328 -125 592 -528 592 -903 0 -48 34 -96 166 -234 622 -653 410 -1545 -492 -2070 -121 -71 -128 -140 -14 -142 70 -1 70 -1 105 -140 147 -579 72 -1173 -241 -1919 -260 -618 -263 -798 -16 -907 129 -57 173 -176 102 -277 -65 -92 -186 -77 -293 37 -96 103 -192 59 -168 -78 35 -196 -13 -285 -153 -285 -125 0 -185 74 -169 208 23 194 -96 258 -224 122 -83 -88 -179 -96 -254 -21 -91 91 -61 219 69 292 105 60 162 168 180 345 13 133 23 156 123 294 267 370 481 1114 326 1136 -50 7 -50 6 -98 -236 -109 -554 -401 -1003 -805 -1237 -140 -82 -398 -183 -466 -183 -119 0 -272 730 -225 1076 22 167 0 233 -66 192 -55 -34 -71 -119 -73 -398 -3 -597 242 -1170 500 -1170 64 0 160 -51 185 -99 90 -166 -83 -322 -239 -217 -178 121 -270 52 -179 -135 46 -96 32 -163 -44 -217 -122 -85 -297 10 -297 160 0 143 -137 219 -221 123 -135 -155 -136 -155 -217 -155 -195 0 -233 179 -70 335 124 119 120 155 -60 506 -299 583 -387 1006 -303 1448 47 243 -42 312 -116 91 -121 -363 -32 -964 216 -1459 110 -218 110 -220 16 -212 -41 4 -144 13 -228 20 -135 12 -159 21 -210 74 -76 80 -133 108 -299 146 -299 69 -337 98 -278 211 73 141 115 400 104 640 -39 836 -671 1520 -1364 1476 -152 -9 -151 -21 -25 200 163 286 420 564 721 779 l90 65 65 -114 c152 -270 559 -550 559 -386 0 22 -52 74 -131 130 -390 278 -531 722 -376 1179 49 144 181 384 236 430 25 21 31 72 31 249 0 966 1006 1425 1619 738 106 -119 174 -137 168 -44 l-3 50 185 -8 c212 -10 354 15 496 86 90 46 120 50 375 50 l277 0 72 99 c64 87 254 259 289 262 6 0 57 14 112 30 122 35 295 22 438 -33z m-4963 -3927 c762 -162 1218 -1183 872 -1951 -33 -71 -54 -148 -49 -170 12 -47 283 -156 471 -191 175 -31 261 -115 234 -224 -21 -84 -105 -105 -206 -51 -68 36 -95 41 -122 24 -60 -38 -55 -102 13 -137 126 -65 160 -195 73 -282 -88 -88 -261 -49 -311 71 -54 129 -298 276 -377 227 -51 -32 -50 -76 3 -139 100 -119 85 -229 -38 -280 -124 -52 -288 36 -288 154 0 64 -145 201 -323 307 -268 158 -357 258 -357 401 l0 71 63 -33 c187 -96 364 -131 386 -74 16 44 -17 72 -139 116 -323 116 -626 389 -779 700 -388 793 108 1623 874 1461z m5709 -62 c266 -132 396 -369 396 -721 l0 -241 -84 -171 c-103 -206 -288 -415 -487 -547 -180 -119 -194 -226 -21 -156 62 25 79 23 200 -26 73 -29 184 -59 247 -66 144 -17 215 -76 215 -178 0 -162 -176 -218 -327 -104 -178 135 -333 72 -203 -83 63 -75 64 -144 1 -207 -97 -96 -263 -44 -310 98 -25 75 -98 151 -201 208 -161 88 -155 159 50 655 239 578 320 892 343 1335 15 291 12 288 181 204z m-1724 -2088 c-8 -36 -36 -76 -67 -95 -147 -92 -206 -184 -207 -323 0 -67 -5 -82 -16 -52 -27 69 -156 167 -252 192 l-91 23 101 35 c140 50 379 173 462 240 82 65 88 63 70 -20z"
       id="path1" />
    <path
       d="M7941 8465 c-176 -88 -258 -380 -166 -587 202 -455 755 -374 753 110 -1 356 -318 613 -587 477z m161 -146 c96 -51 86 -226 -15 -251 -149 -38 -245 116 -138 223 54 53 92 60 153 28z"
       id="path2" />
    <path
       d="M4910 8193 c-478 -222 -335 -973 185 -973 148 0 229 30 335 122 422 371 -15 1086 -520 851z m224 -176 c76 -72 60 -199 -32 -246 -109 -56 -222 14 -222 137 0 132 157 199 254 109z"
       id="path3" />
    <path
       d="M7401 7301 c-50 -93 71 -165 127 -76 16 25 16 45 0 70 -33 52 -101 55 -127 6z"
       id="path4" />
    <path
       d="M6841 7251 c-41 -50 -18 -120 43 -127 72 -9 107 52 64 113 -35 50 -73 55 -107 14z"
       id="path5" />
    <path
       d="M7980 6819 c-454 -418 -1318 -467 -1912 -109 -79 47 -133 29 -124 -42 13 -113 399 -283 746 -329 364 -49 841 25 1102 171 286 160 470 410 301 410 -2 0 -53 -45 -113 -101z"
       id="path6" />
  </g>
  <path
     style="fill:#ffffff;stroke-width:0.91638"
     d="m 404.5819,688.01262 c -4.21992,-1.54262 -8.24542,-7.57573 -8.25085,-12.36574 -0.004,-3.9044 -2.99181,-8.77074 -6.11266,-9.95728 -4.11497,-1.5645 -7.29239,-0.16816 -11.90608,5.23221 -2.36376,2.76682 -5.49874,5.65164 -6.96661,6.4107 -5.93421,3.06871 -15.33195,-1.51636 -15.33195,-7.48031 0,-4.58235 1.2664,-7.12263 6.34842,-12.73439 7.994,-8.82724 7.73552,-10.97311 -4.34065,-36.03588 -15.7721,-32.73325 -20.16689,-47.18831 -20.98832,-69.03352 -0.36843,-9.79818 -0.0977,-16.27005 1.0158,-24.28408 1.74776,-12.57867 1.23522,-16.42412 -2.18904,-16.42412 -5.17828,0 -9.37344,15.83831 -9.29846,35.10528 0.0901,23.14817 5.63876,45.54266 17.47424,70.52619 3.05984,6.45903 5.56334,12.24149 5.56334,12.84992 0,1.34939 -2.53633,1.37881 -14.79409,0.17163 -13.3974,-1.31942 -13.98211,-1.50149 -18.8589,-5.87242 -5.98023,-5.35992 -8.35084,-6.43017 -21.58217,-9.74369 -12.46502,-3.12162 -17.15888,-5.33797 -17.15888,-8.10211 0,-0.97364 0.8557,-3.76321 1.90154,-6.19903 1.04585,-2.43583 2.77175,-7.93394 3.83532,-12.21802 2.66925,-10.75171 2.84468,-35.25632 0.33458,-46.73539 -6.50475,-29.7472 -22.15343,-53.82054 -44.59683,-68.60607 -13.59602,-8.95695 -30.6054,-13.83244 -44.396,-12.72546 -8.36682,0.6716 -8.68618,0.16642 -4.57327,-7.23443 11.9604,-21.52175 27.60429,-39.42993 47.52389,-54.40244 4.8734,-3.66308 8.97917,-6.49888 9.12392,-6.30178 0.14476,0.1971 2.2503,3.59427 4.67898,7.54925 9.45371,15.39484 28.83158,30.42853 35.78296,27.76103 2.35273,-0.90282 1.56545,-4.63905 -1.59676,-7.5778 -1.63803,-1.52227 -5.77956,-4.95182 -9.20339,-7.6212 -23.81308,-18.56583 -31.59384,-49.26914 -19.90262,-78.5369 3.44627,-8.62739 8.02877,-17.00845 12.50865,-22.87742 l 3.29205,-4.31282 0.74959,-14.74484 c 0.91377,-17.97439 3.13227,-27.10761 9.25583,-38.1048 10.96874,-19.69854 30.8638,-32.13967 51.63895,-32.29176 16.57432,-0.12134 28.98709,5.39374 44.07972,19.58492 11.27359,10.60023 14.11043,11.40307 14.11043,3.99328 v -2.14127 l 13.9748,0.0772 c 15.44804,0.0853 19.73918,-0.65376 29.4965,-5.08013 l 6.47142,-2.93573 19.00083,-0.28042 19.00081,-0.28041 4.08059,-5.30303 c 2.24433,-2.91666 7.21427,-8.22954 11.04433,-11.80639 8.10537,-7.56953 12.68704,-9.39603 25.22396,-10.05565 23.00914,-1.21059 44.63426,14.6081 54.81509,40.09703 2.42373,6.06809 4.71186,16.48958 4.73372,21.56013 0.0188,4.35334 0.79943,5.57686 10.62246,16.64837 13.02547,14.68097 19.47279,26.44104 22.47749,40.99951 2.16489,10.48936 2.1672,18.02509 0.009,28.48293 -3.662,17.74257 -11.4939,31.2776 -27.05069,46.74885 -7.00022,6.96173 -13.44738,12.27705 -20.70417,17.06941 -5.7961,3.82773 -11.34577,7.85911 -12.33261,8.95863 -2.53359,2.82291 -0.95117,5.01716 3.87805,5.37748 4.60917,0.3439 5.16096,0.99958 7.07832,8.41109 2.91853,11.28152 4.23862,20.6824 4.76343,33.92229 1.13717,28.68844 -4.45901,54.33481 -20.79575,95.30356 -10.73076,26.91026 -12.20482,31.9257 -12.29633,41.83779 -0.0741,8.0205 0.0443,8.54044 2.6883,11.80865 1.52117,1.88031 5.4387,4.92509 8.70561,6.76618 7.10271,4.00278 9.76376,7.94927 8.80523,13.05867 -1.56403,8.33697 -9.64116,10.76261 -17.0102,5.10832 -10.58867,-8.12472 -10.8498,-8.22417 -13.81358,-5.26039 -1.63406,1.63406 -1.81474,2.86393 -1.60366,10.91574 0.20961,7.99562 0.01,9.38335 -1.68269,11.67507 -2.51005,3.39912 -7.3363,4.64946 -12.25656,3.17532 -5.31823,-1.59338 -6.62597,-4.14417 -6.77482,-13.21458 -0.16064,-9.7884 -1.70904,-12.56035 -7.01612,-12.56035 -2.82433,0 -4.41369,0.68358 -7.08083,3.04542 -8.12429,7.1944 -11.86691,7.91546 -17.12449,3.29924 -5.59619,-4.91352 -5.17569,-12.83696 0.90368,-17.02785 9.9489,-6.85839 13.1762,-12.29549 14.97506,-25.22876 1.24802,-8.97294 1.78475,-10.25478 8.32792,-19.88892 9.67969,-14.25236 19.19426,-36.29918 22.97997,-53.24839 1.91737,-8.58438 2.30267,-18.3868 0.83082,-21.13699 -0.964,-1.80125 -4.9348,-2.45708 -5.85564,-0.96712 -0.27377,0.44296 -1.91619,6.98377 -3.64983,14.53511 -3.80469,16.57238 -6.80471,25.55489 -12.11528,36.27509 -14.19155,28.64779 -34.07398,46.34551 -63.34493,56.38449 -7.72606,2.64979 -9.7773,2.53226 -12.07297,-0.69172 -2.77226,-3.89327 -6.87198,-17.24895 -9.31099,-30.33242 -1.79702,-9.63966 -2.14123,-14.53302 -2.17228,-30.8812 -0.0393,-20.68111 -0.39073,-22.45368 -4.06224,-20.48875 -4.53174,2.42532 -5.11707,4.82695 -5.45956,22.40095 -0.18093,9.28432 0.14803,20.20284 0.75368,25.01445 1.9505,15.4961 7.41811,33.03336 13.41068,43.01448 5.89629,9.82077 10.59289,13.67663 18.39979,15.10606 6.39229,1.17041 10.84651,3.72541 12.68179,7.27445 3.0776,5.95142 0.31735,12.84106 -5.88968,14.70072 -3.44322,1.03162 -4.07161,0.89649 -10.42146,-2.24103 -8.0908,-3.99775 -11.0372,-4.22591 -13.13942,-1.01752 -1.44576,2.20652 -1.39459,2.70173 1.03459,10.01219 2.25622,6.78991 2.41929,8.01992 1.39206,10.4999 -2.03636,4.9162 -9.31353,7.8103 -14.69361,5.84358 z m 83.39061,-311.43377 c 16.41036,-2.86221 28.86781,-7.71983 39.94894,-15.57753 13.1568,-9.32959 20.32429,-21.39007 13.19328,-22.19989 -1.70985,-0.19417 -4.00883,1.26581 -9.15597,5.81453 -11.72412,10.36107 -24.73283,16.87853 -41.52126,20.80248 -11.38791,2.66168 -38.41619,2.89453 -49.83421,0.42933 -10.99312,-2.37346 -20.67305,-5.80801 -30.61099,-10.86111 -9.77869,-4.97214 -12.17774,-5.404 -13.74562,-2.47439 -2.52879,4.72508 5.5479,11.87635 19.4823,17.25002 9.21689,3.55441 22.18517,7.02566 30.54823,8.17692 8.7889,1.20988 31.13999,0.48065 41.6953,-1.36036 z m -24.94617,-52.23218 c 2.54381,-1.78176 2.58719,-4.04108 0.13739,-7.1555 -2.33752,-2.97168 -5.73671,-3.13913 -7.67076,-0.37787 -1.91998,2.74115 -1.79548,4.92543 0.40623,7.12714 2.2017,2.2017 4.38599,2.3262 7.12714,0.40623 z m 38.21771,-4.64489 c 2.35449,-2.35449 1.46209,-6.95069 -1.63652,-8.42861 -2.20865,-1.05344 -2.88326,-1.01924 -4.81099,0.24385 -2.47418,1.62114 -3.13515,6.58194 -1.14247,8.57462 1.57537,1.57537 5.844,1.35612 7.58998,-0.38986 z m -154.38822,-1.26074 c 7.0053,-1.32853 12.27286,-4.27974 17.49578,-9.8022 6.98957,-7.39045 8.61517,-11.68801 8.61517,-22.77571 0,-8.80962 -0.15101,-9.51689 -3.46273,-16.21771 -4.12089,-8.33804 -10.47847,-14.4201 -18.07221,-17.28896 -4.06788,-1.53682 -6.4542,-1.82282 -12.37113,-1.48264 -9.17234,0.52734 -14.52205,2.80188 -21.00031,8.92876 -14.09121,13.32687 -14.00601,37.1243 0.18231,50.92643 4.09976,3.98816 6.86052,5.49134 13.23967,7.20877 5.90234,1.58906 9.09666,1.69362 15.37345,0.50326 z M 552.1819,294.06851 c 3.67054,-1.07973 6.07087,-2.59167 9.1425,-5.75877 5.70565,-5.88298 7.63981,-12.13375 7.11982,-23.00961 -0.33771,-7.06352 -0.8204,-8.96869 -3.79967,-14.9968 -5.51242,-11.15364 -12.85152,-16.28895 -24.17482,-16.91561 -10.79245,-0.59728 -16.97746,3.44619 -22.16914,14.49315 -2.05927,4.38176 -2.36627,6.23706 -2.35036,14.2039 0.0171,8.54815 0.22027,9.55364 3.02455,14.96651 4.81622,9.29638 12.18769,15.55203 20.77322,17.62877 4.44409,1.07498 7.1536,0.94172 12.4339,-0.61154 z"
     id="path7"
     transform="scale(0.75)" />
  <path
     style="fill:#ffffff;stroke-width:0.91638"
     d="m 234.73526,676.50268 c -3.69057,-2.14375 -5.60893,-4.85543 -6.54283,-9.24853 -0.91829,-4.31964 -9.38416,-12.24995 -21.78238,-20.40438 -18.24164,-11.99771 -22.02527,-16.07579 -23.21147,-25.01776 -0.53975,-4.06883 -0.42799,-4.85082 0.62667,-4.38489 19.74873,8.72466 29.23317,10.13491 29.23317,4.34673 0,-2.45297 -2.49675,-4.11996 -11.98623,-8.00278 -15.44484,-6.31957 -30.83978,-18.4214 -41.18293,-32.37354 -18.17416,-24.51559 -21.99819,-57.79532 -9.40014,-81.80743 5.08684,-9.6956 14.30205,-19.00451 23.24353,-23.47986 9.21959,-4.61455 15.58034,-5.90155 26.49236,-5.36033 33.60563,1.6668 63.37561,31.05244 72.61022,71.67279 1.36172,5.98978 1.91195,11.74723 1.97571,20.67299 0.10218,14.3037 -1.29788,21.72653 -6.87215,36.43475 -4.93119,13.01144 -4.8383,13.95831 1.70611,17.39105 5.89824,3.0938 16.72994,6.7968 26.26953,8.98067 7.64605,1.7504 10.75077,3.26629 13.283,6.48552 3.8959,4.95283 1.34996,12.57132 -4.20108,12.57132 -1.50415,0 -5.06244,-0.96474 -7.90728,-2.14386 -5.95211,-2.46701 -9.32894,-1.74741 -10.31944,2.19904 -0.72477,2.88774 0.21069,4.49727 4.16113,7.15947 4.82422,3.25104 7.60412,7.86569 7.00372,11.62619 -1.00895,6.31924 -7.5242,10.17362 -14.17142,8.38371 -3.70321,-0.99717 -6.42098,-3.62265 -11.37924,-10.99278 -2.92264,-4.34433 -12.23962,-10.71825 -16.96229,-11.60424 -8.42443,-1.58042 -10.52178,2.90037 -5.30994,11.34422 1.84821,2.99433 3.26756,6.49113 3.26756,8.05013 0,8.00374 -10.50379,12.23018 -18.64389,7.5018 z"
     id="path8"
     transform="scale(0.75)" />
  <path
     style="fill:#ffffff;stroke-width:0.91638"
     d="m 571.59623,642.7379 c -1.86127,-1.19201 -4.23679,-4.30745 -6.34827,-8.32559 -3.32556,-6.32856 -4.22679,-7.21692 -14.76573,-14.55495 -5.49089,-3.82318 -6.31433,-6.02927 -4.86704,-13.03925 0.64416,-3.11995 5.30259,-16.1881 10.35208,-29.04033 16.95804,-43.16252 20.33971,-56.47188 22.69831,-89.3347 1.26126,-17.57334 1.23422,-17.54106 10.75789,-12.84394 12.35602,6.09404 20.84921,16.38567 24.67885,29.90461 0.82691,2.91904 1.59698,10.70546 1.89343,19.14501 l 0.49967,14.22493 -3.90246,7.76819 c -8.32018,16.56202 -16.63274,26.74036 -30.72034,37.61558 -5.2437,4.04798 -10.37204,8.42537 -11.39632,9.72753 -3.94447,5.01457 -1.44991,6.85721 6.07293,4.48584 l 4.98779,-1.57226 8.30177,2.87426 c 4.56598,1.58084 11.39283,3.46567 15.17077,4.18851 3.77795,0.72284 8.28665,1.98698 10.01934,2.80919 10.58352,5.02221 5.42553,20.87019 -6.28149,19.29995 -1.955,-0.26222 -6.4068,-2.20012 -9.89289,-4.30645 -7.44417,-4.49783 -12.61406,-5.58262 -15.04071,-3.15598 -2.04924,2.04924 -1.41542,5.79043 1.66738,9.8419 3.14828,4.13754 3.72502,7.23204 1.97764,10.6111 -2.83628,5.48476 -10.32807,7.22131 -15.8626,3.67685 z"
     id="path9"
     transform="scale(0.75)" />
  <path
     style="fill:#ffffff;stroke-width:0.23693"
     d="m 533.45408,262.02037 c -1.72644,-0.46393 -3.01608,-1.24837 -4.24599,-2.58268 -1.58481,-1.7193 -2.03579,-2.92657 -2.03721,-5.4535 -10e-4,-1.93388 0.0721,-2.28627 0.76886,-3.70156 0.54416,-1.10534 1.2758,-2.04461 2.49404,-3.20182 3.16445,-3.00592 5.42881,-3.5062 8.74391,-1.93186 2.19373,1.04179 3.35372,2.17355 4.30386,4.19909 0.62208,1.32618 0.74622,1.9037 0.82516,3.83863 0.10965,2.68777 -0.27478,4.3033 -1.43833,6.04433 -1.7985,2.69111 -5.59452,3.81584 -9.4143,2.78937 z"
     id="path10"
     transform="scale(0.75)" />
  <path
     style="fill:#ffffff;stroke-width:0.23693"
     d="m 331.93921,282.58612 c -6.70342,-2.32865 -8.69887,-11.72287 -3.55801,-16.75044 3.05575,-2.98841 7.34891,-3.7337 11.13913,-1.93373 7.11352,3.3782 7.84374,13.25596 1.29081,17.46097 -2.48909,1.59724 -6.2876,2.12096 -8.87193,1.2232 z"
     id="path11"
     transform="scale(0.75)" />
  <path
     style="fill:#F0ACAF;fill-opacity:1;stroke-width:0.235595"
     d="m 401.33635,234.18267 c -8.60102,-1.04728 -15.63907,-3.47239 -21.47453,-7.39951 -10.86227,-7.31003 -17.27109,-18.8849 -19.05764,-34.41971 -0.33215,-2.88821 -0.3297,-11.02705 0.004,-14.16702 2.46086,-23.13702 14.45913,-45.75879 33.63184,-63.41015 6.56148,-6.04082 8.58912,-7.47806 10.53514,-7.46751 1.6983,0.009 3.13305,0.85094 7.78729,4.56869 14.96106,11.95072 25.80986,25.89762 32.63623,41.95618 8.1728,19.22592 9.06673,40.02325 2.38668,55.52598 -6.05706,14.05693 -17.55714,22.82847 -32.54917,24.82648 -3.05146,0.40667 -10.50909,0.39947 -13.90011,-0.0134 z"
     id="path20"
     transform="scale(0.75)" />
  <path
     style="fill:#F0ACAF;fill-opacity:1;stroke-width:0.235595"
     d="m 352.92155,213.78061 c -6.62328,-1.59821 -14.85879,-2.79976 -22.26375,-3.24827 -2.54513,-0.15415 -3.75527,-0.33625 -4.74625,-0.71422 -9.13518,-3.48417 -17.43863,-19.57979 -20.42925,-39.60062 -0.92464,-6.19001 -1.09375,-8.69455 -1.07375,-15.90267 0.016,-5.77807 0.10875,-7.71275 0.50805,-10.60178 1.40753,-10.18386 4.5112,-18.67025 7.06232,-19.31054 1.48054,-0.37159 5.02774,1.53999 9.43602,5.08504 2.42088,1.94682 12.47045,12.02692 15.82659,15.87466 4.55708,5.22459 8.35439,10.11834 12.23653,15.7697 l 3.73274,5.43387 -0.78935,5.65428 c -1.42385,10.19948 -1.50756,16.95122 -0.31246,25.20108 0.85473,5.9002 1.93717,9.6025 4.80664,16.44036 0.28031,0.66798 0.29814,0.8768 0.0731,0.85609 -0.16371,-0.0151 -1.99394,-0.43671 -4.06717,-0.93698 z"
     id="path21"
     transform="scale(0.75)" />
  <path
     style="fill:#F0ACAF;fill-opacity:1;stroke-width:0.235595"
     d="m 346.76216,143.45065 -9.69331,-12.15825 0.82041,-3.09569 c 1.78742,-6.74457 3.37859,-11.01521 6.21044,-16.66856 3.85628,-7.69848 8.14334,-13.797074 11.15858,-15.873749 1.58534,-1.091867 2.3054,-1.047567 4.3144,0.265429 1.73684,1.135117 6.32608,5.72098 9.51602,9.509 6.18722,7.34729 7.71895,10.30858 7.08775,13.7027 -0.37151,1.99772 -1.40806,3.94997 -4.817,9.07238 -5.20565,7.82225 -8.72469,14.19415 -12.43619,22.51809 -1.19885,2.68873 -2.24455,4.88822 -2.32376,4.88775 -0.0792,-4.7e-4 -4.50602,-5.47206 -9.83734,-12.1591 z"
     id="path22"
     transform="scale(0.75)" />
  <path
     style="fill:#F0ACAF;fill-opacity:1;stroke-width:0.235595"
     d="m 380.70707,106.94025 c -2.60389,-3.56236 -3.53772,-5.01977 -3.59035,-5.60337 -0.13529,-1.500202 2.63394,-6.201447 7.37335,-12.517506 6.48494,-8.642285 12.91528,-14.939481 17.31813,-16.959543 1.25321,-0.574984 1.83716,-0.701291 3.22111,-0.696716 1.53596,0.0051 1.8911,0.106037 3.88732,1.105105 7.02167,3.514217 15.78176,12.693677 23.35408,24.472139 l 1.30579,2.031106 -2.47603,5.390145 c -2.41295,5.2528 -3.29721,6.81509 -4.01279,7.08969 -0.63696,0.24442 -1.84604,-0.5633 -6.81411,-4.55216 -5.68586,-4.56517 -8.83608,-6.703424 -11.36774,-7.715998 -1.56501,-0.625948 -2.08677,-0.718581 -4.03555,-0.71648 -4.30274,0.0046 -7.10408,1.633052 -15.40411,8.954368 -2.18776,1.92978 -4.26173,3.73935 -4.60881,4.02127 l -0.63107,0.51258 z"
     id="path23"
     transform="scale(0.75)" />
  <path
     style="fill:#F0ACAF;fill-opacity:1;stroke-width:0.235595"
     d="m 451.48374,144.18013 c -0.94516,-0.51345 -2.49838,-2.59823 -7.9833,-10.71547 -2.75805,-4.08169 -5.84792,-8.60562 -6.86639,-10.05318 -2.90589,-4.13018 -2.95231,-4.38502 -1.4624,-8.02853 1.01173,-2.47413 5.05212,-10.55486 6.80841,-13.61672 4.12622,-7.193564 5.81807,-7.489325 10.74522,-1.878435 6.0926,6.938065 10.30713,13.283135 11.89607,17.909785 0.53902,1.56952 0.64961,2.29851 0.66121,4.35851 0.0225,3.99954 -0.56908,5.29782 -5.55667,12.19405 -1.38149,1.91016 -3.27344,4.69223 -4.20433,6.18237 -1.54681,2.47608 -2.79914,4.01981 -3.24147,3.99569 -0.0951,-0.005 -0.4535,-0.16182 -0.79635,-0.34807 z"
     id="path24"
     transform="scale(0.75)" />
  <path
     style="fill:#F0ACAF;fill-opacity:1;stroke-width:0.235595"
     d="m 452.96175,223.67959 c -0.47811,-0.19138 -0.53709,-0.33287 -0.40796,-0.97856 0.083,-0.41515 0.87432,-2.03054 1.75841,-3.58975 2.50926,-4.4254 3.67251,-7.4338 4.9678,-12.84772 1.64693,-6.88369 2.38226,-15.90645 1.92822,-23.65999 -0.45384,-7.75025 -1.0765,-11.47257 -3.47612,-20.78077 l -1.5264,-5.92096 3.06285,-5.07192 c 4.75927,-7.88108 6.82414,-10.92654 10.5759,-15.5983 6.78706,-8.45138 16.71117,-18.14774 22.19604,-21.68666 2.35847,-1.52173 4.40591,-2.47571 5.62268,-2.61982 1.0573,-0.12522 1.14405,-0.0895 1.95162,0.80442 3.8294,4.2387 7.92011,16.82883 9.43501,29.03855 0.46908,3.78061 0.39318,16.95507 -0.11974,20.78517 -1.81363,13.54281 -5.7454,25.3384 -11.78052,35.34245 -3.30347,5.47596 -5.77878,8.69444 -9.89369,12.86411 -8.50588,8.61907 -17.49157,13.00782 -28.50601,13.92277 -3.59685,0.29878 -5.03603,0.29803 -5.78809,-0.003 z"
     id="path25"
     transform="scale(0.75)" />
</svg>
