<?xml version="1.0" encoding="UTF-8" standalone="no"?>
<svg
   version="1.0"
   width="941"
   height="704"
   viewBox="230 349 941 704"
   preserveAspectRatio="xMidYMid meet"
   id="svg7"
   sodipodi:docname="frog2.svg"
   inkscape:version="1.4.3 (0d15f75, 2025-12-25)"
   xmlns:inkscape="http://www.inkscape.org/namespaces/inkscape"
   xmlns:sodipodi="http://sodipodi.sourceforge.net/DTD/sodipodi-0.dtd"
   xmlns="http://www.w3.org/2000/svg"
   xmlns:svg="http://www.w3.org/2000/svg">
  <defs
     id="defs7" />
  <sodipodi:namedview
     id="namedview7"
     pagecolor="#505050"
     bordercolor="#ffffff"
     borderopacity="1"
     inkscape:showpageshadow="0"
     inkscape:pageopacity="0"
     inkscape:pagecheckerboard="1"
     inkscape:deskcolor="#505050"
     inkscape:zoom="1.062776"
     inkscape:cx="630.42446"
     inkscape:cy="414.48056"
     inkscape:window-width="1920"
     inkscape:window-height="1022"
     inkscape:window-x="0"
     inkscape:window-y="30"
     inkscape:window-maximized="1"
     inkscape:current-layer="svg7" />
  <metadata
     id="metadata1">
Created by potrace 1.16, written by Peter Selinger 2001-2019
</metadata>
  <g
     transform="translate(0.000000,1254.000000) scale(0.100000,-0.100000)"
     fill="#000000"
     stroke="none"
     id="g7">
    <path
       d="M7125 8735 c-391 -72 -698 -367 -792 -763 -24 -103 -14 -96 -154 -104 -463 -27 -945 -188 -1412 -470 -506 -306 -923 -706 -1206 -1158 -141 -225 -259 -492 -315 -710 l-22 -85 -75 -41 c-403 -216 -607 -689 -534 -1239 31 -239 101 -419 250 -650 273 -421 723 -789 1213 -989 172 -71 301 -98 442 -94 105 3 120 6 169 33 33 18 67 47 85 73 l31 43 55 -6 c64 -7 178 13 237 43 54 28 126 108 148 165 20 54 17 53 135 32 169 -31 388 -55 548 -62 161 -6 164 -7 200 -35 20 -16 55 -51 78 -78 96 -113 228 -221 331 -273 124 -63 315 -86 429 -52 101 30 177 99 209 192 15 43 25 45 130 23 198 -41 387 44 430 195 9 30 17 55 18 55 1 0 70 5 154 10 360 22 643 80 940 191 74 28 137 48 140 46 2 -3 0 -22 -6 -44 -14 -51 -14 -136 1 -187 8 -25 31 -59 58 -86 73 -74 162 -93 297 -64 31 6 34 4 52 -39 30 -70 84 -123 149 -147 46 -18 74 -21 148 -18 81 3 98 7 168 42 55 27 103 61 156 112 l77 74 34 -26 c131 -98 295 -121 422 -59 66 33 105 73 144 148 24 46 27 63 27 152 0 91 -3 106 -33 174 l-33 73 40 92 c52 118 75 181 106 286 23 81 31 114 57 260 15 82 15 450 1 516 -6 27 -19 85 -28 129 -21 96 -45 174 -87 278 l-32 79 30 25 c140 118 221 194 283 265 140 162 239 322 310 503 59 150 77 232 92 415 43 496 -127 959 -491 1344 l-81 85 11 70 c16 102 14 353 -4 436 -63 304 -237 543 -483 665 -300 149 -666 112 -938 -95 -121 -92 -240 -235 -297 -356 -22 -48 -37 -69 -50 -69 -9 0 -59 9 -110 20 -195 41 -510 71 -706 66 l-54 -1 -46 90 c-167 329 -479 517 -853 514 -68 0 -154 -7 -193 -14z m357 -209 c134 -29 204 -61 309 -143 100 -78 178 -191 233 -339 43 -114 27 -109 320 -110 306 -2 425 -17 742 -95 91 -22 91 -22 125 -3 26 15 42 39 74 109 64 143 101 201 182 285 149 157 311 230 508 230 189 0 328 -55 462 -183 130 -124 196 -273 223 -497 10 -79 9 -116 -5 -220 -9 -69 -19 -148 -22 -177 l-5 -52 109 -108 c247 -243 395 -518 458 -850 34 -176 19 -510 -24 -532 -9 -5 -182 -11 -386 -15 -2715 -47 -3267 -68 -4182 -161 -133 -14 -262 -25 -287 -25 -42 0 -44 2 -60 41 -73 181 -108 445 -87 643 20 184 61 342 131 502 62 144 162 304 238 383 37 39 45 61 38 117 -3 31 -11 64 -16 74 -15 27 -38 156 -45 251 -19 256 87 532 267 694 99 89 259 166 383 185 84 13 246 10 317 -4z m-1178 -883 c2 -10 8 -55 11 -101 4 -46 16 -111 26 -145 21 -69 25 -56 -57 -173 -50 -72 -114 -176 -136 -225 -93 -196 -142 -352 -173 -554 -29 -181 -14 -509 30 -675 68 -255 190 -485 366 -686 124 -143 240 -243 418 -364 67 -44 299 -166 409 -213 99 -42 302 -108 353 -114 97 -11 155 58 118 140 -14 30 -32 39 -179 87 -502 163 -893 442 -1100 784 -28 46 -22 52 59 60 31 3 117 13 191 21 334 37 732 63 1425 95 455 20 3018 66 3038 53 16 -10 5 -45 -40 -130 -69 -131 -146 -235 -263 -357 -276 -285 -609 -461 -1075 -566 -154 -35 -172 -41 -197 -69 -33 -37 -35 -64 -9 -107 30 -49 69 -60 160 -45 94 15 227 47 305 72 33 10 66 19 73 19 24 0 6 -53 -66 -194 -382 -749 -1118 -1194 -2076 -1256 -224 -14 -209 -16 -262 36 -97 94 -259 179 -456 239 -48 14 -88 29 -91 33 -8 13 -44 264 -85 588 -43 342 -57 398 -107 410 -69 17 -114 -38 -114 -141 0 -138 40 -526 75 -745 47 -289 29 -263 233 -329 311 -100 453 -198 428 -296 -9 -36 -61 -65 -118 -65 -94 0 -166 23 -342 111 -91 45 -118 48 -151 14 -35 -34 -31 -63 17 -134 52 -77 58 -136 18 -176 -40 -39 -131 -52 -218 -30 -141 35 -186 68 -442 325 -129 129 -254 260 -277 291 -113 148 -205 347 -246 529 -30 137 -30 456 0 654 23 152 20 183 -23 211 -112 73 -204 -194 -204 -590 0 -214 19 -335 82 -514 38 -110 135 -295 194 -372 34 -44 43 -64 35 -72 -16 -16 -368 25 -583 69 -19 4 -36 22 -64 71 -44 75 -133 161 -228 223 -36 24 -66 48 -66 54 0 6 16 33 35 61 81 113 161 285 188 405 33 146 37 178 37 326 0 349 -85 606 -281 849 -273 339 -725 528 -1194 500 -66 -4 -142 -11 -170 -15 -30 -5 -54 -4 -60 1 -16 15 85 285 151 407 15 26 42 76 62 112 110 203 273 412 497 635 190 191 323 301 530 440 183 122 250 161 430 249 377 185 760 291 1072 295 70 1 82 -2 87 -16z m-2286 -2329 c153 -25 365 -110 489 -195 194 -134 339 -330 412 -557 93 -289 72 -593 -60 -854 -42 -82 -111 -186 -146 -220 l-29 -28 -89 11 c-113 14 -246 7 -280 -15 -48 -32 -42 -94 12 -114 15 -5 71 -18 123 -27 144 -26 255 -60 355 -109 155 -77 243 -172 252 -274 4 -49 2 -61 -18 -86 -12 -16 -37 -35 -55 -42 -38 -16 -146 -19 -172 -5 -10 5 -39 36 -66 69 -54 67 -133 127 -228 172 -100 47 -178 35 -178 -27 0 -38 16 -59 70 -92 104 -64 200 -171 200 -222 0 -43 -35 -61 -117 -61 -37 0 -86 5 -108 10 -243 58 -498 182 -735 355 -456 336 -754 751 -825 1152 -18 101 -19 336 -1 435 30 170 104 333 210 460 189 226 581 331 984 264z m6526 -691 c18 -36 61 -173 80 -256 28 -121 40 -327 27 -461 -24 -252 -78 -440 -187 -659 -44 -89 -44 -126 2 -216 80 -158 44 -271 -87 -271 -60 0 -115 30 -191 104 -93 92 -141 99 -197 28 -17 -20 -50 -62 -74 -92 -89 -114 -204 -174 -283 -148 -84 28 -82 105 7 236 27 41 49 83 49 94 0 30 -19 58 -45 68 -42 16 -87 -6 -160 -80 -81 -80 -145 -119 -212 -127 -85 -10 -117 42 -80 128 24 56 114 146 233 236 118 88 156 128 194 203 12 25 66 90 120 145 178 183 292 336 403 540 68 127 146 314 167 403 12 50 15 54 69 82 31 16 70 38 86 49 42 27 62 26 79 -6z"
       id="path1" />
    <path
       d="M7223 8006 c-160 -52 -253 -179 -253 -344 0 -94 10 -131 52 -202 103 -172 349 -215 508 -89 208 165 178 495 -56 610 -76 38 -181 48 -251 25z"
       id="path2" />
    <path
       d="M9915 8009 c-108 -38 -189 -110 -231 -205 -20 -45 -24 -71 -24 -145 0 -77 4 -98 28 -152 33 -72 104 -143 178 -179 40 -18 66 -23 139 -23 82 0 97 3 157 33 105 51 168 139 190 264 19 108 -20 236 -95 311 -65 66 -143 100 -236 104 -42 1 -89 -2 -106 -8z"
       id="path3" />
    <path
       d="M8065 6475 c-48 -47 -21 -131 72 -220 112 -108 218 -134 270 -66 37 48 -2 167 -76 234 -62 56 -111 77 -181 77 -51 0 -65 -4 -85 -25z"
       id="path4" />
    <path
       d="M9333 6480 c-49 -22 -123 -93 -149 -141 -24 -47 -25 -131 0 -158 49 -54 142 -31 237 57 98 90 136 195 89 242 -27 27 -118 27 -177 0z"
       id="path5" />
    <path
       d="M5329 7237 c-275 -95 -445 -323 -389 -522 17 -62 86 -137 155 -170 168 -79 437 -13 601 150 152 149 185 313 91 451 -57 86 -144 124 -284 124 -62 0 -97 -7 -174 -33z m282 -143 c37 -19 69 -69 69 -109 0 -82 -111 -216 -220 -267 -105 -49 -217 -61 -285 -29 -62 28 -80 55 -79 115 1 119 151 258 327 302 61 16 146 10 188 -12z"
       id="path6" />
    <path
       d="M4415 6546 c-223 -71 -391 -295 -346 -462 18 -68 51 -106 120 -141 69 -36 126 -42 210 -22 140 32 291 158 349 291 72 168 -49 349 -232 347 -34 0 -79 -6 -101 -13z m172 -171 c84 -97 -96 -305 -265 -305 -134 0 -136 132 -4 250 101 90 219 114 269 55z"
       id="path7" />
  </g>
  <path
     style="fill:#ffffff;stroke-width:0.901764"
     d="m 441.41363,652.11564 c -8.45542,-2.5226 -13.44087,-5.44596 -21.31451,-12.4984 -17.94652,-16.07474 -45.99742,-45.53422 -51.9265,-54.534 -8.75413,-13.28792 -17.19727,-32.97442 -20.23492,-47.18082 -2.22913,-10.4252 -2.22544,-48.75068 0.006,-63.50592 2.13834,-14.13877 1.99995,-18.12652 -0.72357,-20.85003 -3.24224,-3.24225 -8.01719,-3.03635 -11.3091,0.48764 -7.82287,8.37441 -12.82108,41.17749 -10.81333,70.96756 1.40891,20.9048 5.71566,36.29784 15.59374,55.73455 3.02473,5.95165 7.64937,13.98176 10.27699,17.84468 2.6276,3.86293 4.77747,7.41363 4.77747,7.89044 0,1.18568 -3.78238,1.08039 -18.03528,-0.50201 -16.97373,-1.88448 -39.7586,-5.69154 -41.19426,-6.88303 -0.65983,-0.54761 -3.39281,-4.12549 -6.07332,-7.95084 -5.29142,-7.55144 -11.7168,-13.71189 -21.37048,-20.48937 -3.39849,-2.38595 -6.18567,-4.70336 -6.19374,-5.14978 -0.008,-0.44643 1.96108,-3.89568 4.37585,-7.665 9.03813,-14.10802 14.6977,-27.13698 18.25373,-42.02212 1.95882,-8.19942 2.15232,-10.94047 2.13257,-30.2091 -0.024,-23.37514 -0.95981,-30.5358 -5.95149,-45.5391 -6.16325,-18.52467 -15.36736,-33.08974 -30.52606,-48.30609 -19.44131,-19.51524 -42.19999,-31.67772 -70.81068,-37.84195 -11.40583,-2.45741 -37.30606,-3.37667 -51.94673,-1.8437 -5.52446,0.57845 -10.25033,0.84587 -10.50192,0.59427 -0.2516,-0.2516 0.61478,-3.89645 1.92527,-8.09966 7.72471,-24.77583 23.50811,-53.41695 42.78635,-77.64162 10.80185,-13.57339 42.4899,-45.36411 55.59617,-55.77631 52.14771,-41.42839 116.39085,-68.60262 168.70613,-71.36107 5.91797,-0.31204 11.2799,-0.20754 11.91543,0.23222 0.66957,0.46332 1.54591,4.37237 2.08391,9.29561 0.51064,4.67284 1.55667,10.93083 2.32453,13.90665 0.76785,2.97582 1.40254,6.22523 1.41041,7.22091 0.008,0.99567 -3.72187,7.48838 -8.28834,14.42823 -15.10082,22.94931 -23.63766,44.0717 -28.6072,70.7817 -2.25176,12.10263 -2.24688,45.81892 0.009,60.41821 3.00021,19.41852 12.91064,44.30465 24.75746,62.16865 13.73419,20.70995 34.66172,41.11614 57.00644,55.58629 13.66349,8.8483 40.15491,21.4147 56.375,26.7419 19.45461,6.38953 24.42947,6.89532 29.10717,2.95929 3.26941,-2.75102 4.19867,-6.76848 2.50384,-10.82476 -1.73214,-4.14561 -3.55052,-5.14813 -18.7107,-10.31562 -40.86168,-13.92812 -72.16889,-33.11862 -93.88132,-57.5468 -6.95715,-7.82735 -16.87515,-21.63634 -16.87515,-23.49556 0,-1.38572 1.68288,-1.73656 15.78088,-3.28994 63.92532,-7.04358 136.4088,-10.83367 251.14136,-13.13192 160.24588,-3.20996 205.60227,-3.52749 205.60227,-1.43938 0,2.00011 -7.60568,16.61726 -12.24719,23.53754 -9.97634,14.87427 -27.83759,33.22428 -42.54877,43.7131 -23.56239,16.79959 -46.36029,26.72788 -80.67839,35.13472 -17.98,4.40453 -19.35282,4.88816 -22.55985,7.94763 -6.2026,5.91723 -0.262,16.45656 9.27591,16.45656 4.04888,0 22.877,-3.96427 34.17535,-7.19564 5.17532,-1.48016 9.60262,-2.49824 9.83845,-2.26241 0.88146,0.88146 -1.8452,7.78447 -7.1697,18.15129 -17.74444,34.54842 -43.5944,63.39609 -75.65279,84.42592 -18.25314,11.97379 -43.67146,23.42002 -67.42382,30.36189 -20.48591,5.98722 -52.07071,10.71907 -74.25692,11.12473 l -11.37578,0.20799 -4.57355,-4.26622 c -9.42218,-8.78903 -23.01607,-16.09113 -41.72023,-22.41044 -6.16642,-2.08337 -11.66272,-4.33986 -12.21402,-5.01443 -1.205,-1.47449 -2.67946,-10.91146 -8.01079,-51.27123 -5.97603,-45.24027 -6.85329,-48.24439 -14.08828,-48.24439 -7.72031,0 -10.34394,6.40239 -9.42309,22.99499 1.74244,31.397 8.74496,82.88487 12.19138,89.64042 2.11037,4.13666 3.82079,5.01115 21.34561,10.91345 26.43036,8.90166 40.0178,17.78681 40.0178,26.1686 0,1.05472 -1.15141,3.06909 -2.55869,4.47637 -5.82675,5.82675 -16.95661,4.37155 -37.39937,-4.88985 -15.28458,-6.92453 -18.20854,-7.33712 -21.79456,-3.07538 -2.87513,3.4169 -2.61584,5.30471 1.71433,12.48192 4.75753,7.88555 5.49966,11.06735 3.52428,15.10992 -1.33388,2.72974 -2.51318,3.67087 -6.15861,4.91487 -6.0366,2.05996 -11.26716,1.92593 -19.38794,-0.49682 z M 211.5255,312.82621 c 8.28747,-2.43426 15.38247,-6.79753 22.66056,-13.93575 10.5562,-10.35335 14.80912,-20.76697 12.46754,-30.5278 -3.29476,-13.73408 -15.83412,-21.60742 -30.53348,-19.17166 -20.53219,3.40229 -39.85139,23.28862 -40.08696,41.26373 -0.14712,11.22648 5.23337,18.25922 17.25478,22.55336 4.53164,1.61875 12.37354,1.54054 18.23756,-0.18188 z m 99.35247,-60.72407 c 16.89563,-4.32118 32.79204,-16.59204 39.71699,-30.6586 3.30037,-6.70401 4.35702,-16.52416 2.47009,-22.95613 -2.70017,-9.20401 -9.96056,-16.5835 -18.86721,-19.17666 -7.36675,-2.14483 -20.69461,-1.86135 -28.49974,0.60619 -24.54704,7.76036 -41.59966,25.05845 -42.64365,43.2575 -0.21377,3.7265 0.0617,8.44159 0.6121,10.47796 2.07054,7.66018 10.05675,15.31885 19.30695,18.51507 6.47092,2.23591 19.02162,2.20652 27.90447,-0.0653 z"
     id="path8"
     transform="translate(230,349)" />
  <path
     style="fill:#ffffff;stroke-width:0.901764"
     d="m 397.40189,339.27389 c -1.34345,-1.61875 -5.21936,-13.48756 -6.84185,-20.95109 -3.34933,-15.40711 -4.53644,-31.52714 -3.25836,-44.24632 3.28213,-32.66327 15.3652,-63.12919 34.39585,-86.72477 6.0164,-7.45957 6.18931,-7.81634 6.17801,-12.74719 -0.006,-2.79006 -0.8017,-7.59285 -1.76733,-10.67287 -2.83504,-9.04281 -4.81252,-25.68624 -4.17085,-35.10401 1.28064,-18.796 8.67731,-37.553939 20.09554,-50.962244 7.61104,-8.937547 17.04543,-15.698462 28.64392,-20.526926 11.531,-4.800366 17.24141,-5.704699 33.40943,-5.290901 13.65463,0.349471 14.91345,0.537482 23.4777,3.506523 20.7151,7.181483 34.45422,21.123224 44.17081,44.822248 2.77793,6.77545 3.97909,8.67607 6.22198,9.84517 2.27776,1.18728 7.74415,1.5732 30.28329,2.138 29.86182,0.7483 36.74314,1.52971 59.44268,6.75007 24.76605,5.6956 24.20592,5.87023 31.93235,-9.95544 6.61243,-13.543935 9.90685,-18.64028 16.84195,-26.053928 15.44112,-16.506601 30.68404,-23.346125 51.84619,-23.263474 12.79133,0.04996 18.56745,1.350821 29.30734,6.600413 6.33695,3.097466 9.15602,5.244217 16.27062,12.390297 10.11181,10.156532 14.9064,18.439401 18.38949,31.768652 4.15295,15.89276 4.60245,23.50566 2.42819,41.12564 -1.05572,8.55543 -1.91949,16.61757 -1.91949,17.91585 0,1.77872 2.46146,4.92095 9.98709,12.74919 26.68058,27.75345 40.74977,54.14831 46.50173,87.24075 1.89952,10.92839 1.38116,42.49922 -0.77933,47.46638 l -1.42662,3.27992 -7.07719,0.53279 c -8.07386,0.60782 -30.86929,1.14061 -102.66419,2.39951 -194.96755,3.4187 -254.68011,5.92557 -343.68341,14.42859 -31.54159,3.01337 -34.89389,3.15576 -36.23554,1.53917 z m 212.36595,-51.53458 c 2.20919,-1.90165 2.52055,-2.78815 2.45455,-6.98867 -0.21215,-13.50136 -13.39884,-25.97244 -27.48496,-25.99341 -5.31283,-0.008 -6.16605,0.2499 -8.34132,2.52039 -4.92297,5.13848 -2.43498,13.05291 7.02237,22.33851 9.96981,9.78875 20.60535,13.06756 26.34936,8.12318 z m 94.23921,-0.16771 c 5.57478,-2.82495 12.96014,-10.00869 16.49627,-16.04591 3.10559,-5.30218 3.64922,-12.16504 1.16089,-14.65535 -2.23966,-2.24142 -11.11182,-2.70356 -16.6417,-0.86683 -8.30425,2.75824 -17.33277,12.69449 -18.71744,20.59933 -0.77272,4.41128 0.83523,10.18813 3.32027,11.92873 3.03175,2.12352 9.09548,1.71877 14.38171,-0.95997 z M 512.43668,173.72652 c 9.95496,-3.09834 16.79491,-9.3143 21.64767,-19.67281 2.21769,-4.73379 2.46542,-6.25933 2.46542,-15.182 0,-8.88891 -0.25256,-10.45833 -2.43106,-15.10694 -8.52271,-18.18628 -30.5081,-25.997383 -48.13227,-17.10073 -6.58113,3.32215 -13.22587,10.24023 -16.45499,17.13191 -2.18101,4.65477 -2.4161,6.16511 -2.41678,15.52664 -6.8e-4,9.36449 0.23365,10.8704 2.41603,15.52664 4.33611,9.25137 12.25236,16.21059 21.93085,19.27952 5.34674,1.69539 14.81909,1.51374 20.97513,-0.40223 z m 273.00004,-1.80183 c 9.72653,-4.61155 15.01805,-10.59923 18.51777,-20.95394 1.59435,-4.71727 1.89053,-7.30353 1.6026,-13.99432 -0.30455,-7.07672 -0.76878,-9.05175 -3.36921,-14.33399 -3.56611,-7.24378 -9.32773,-13.083 -16.25173,-16.4706 -4.19847,-2.05411 -6.44138,-2.49312 -14.2058,-2.78054 -8.75956,-0.32426 -9.51578,-0.20298 -15.13735,2.42767 -7.43939,3.48131 -15.02388,10.90676 -18.31582,17.93173 -2.18584,4.66457 -2.4375,6.2257 -2.4375,15.12101 0,8.85658 0.25705,10.46773 2.39907,15.03705 3.81851,8.14561 12.8475,16.87471 20.14504,19.47594 1.48791,0.53037 6.96613,0.99603 12.17382,1.03479 8.61604,0.0641 9.95566,-0.16048 14.87911,-2.4948 z"
     id="path9"
     transform="translate(230,349)" />
  <path
     style="fill:#ffffff;stroke-width:0.901764"
     d="m 290.81315,236.82791 c -10.37272,-3.41025 -13.22447,-9.81368 -8.68547,-19.50271 5.8742,-12.53915 23.24817,-22.99499 38.20968,-22.99499 8.40236,0 12.96535,2.10888 15.55771,7.19033 2.31958,4.54674 2.2759,5.7606 -0.41525,11.54111 -4.26356,9.15796 -14.76469,18.2326 -25.2886,21.85336 -5.94403,2.04505 -15.96675,3.03444 -19.37807,1.9129 z"
     id="path10"
     transform="translate(230,349)" />
  <path
     style="fill:#ffffff;stroke-width:0.901764"
     d="m 194.7401,294.91792 c -4.52051,-4.52051 -1.85327,-12.62153 6.79041,-20.62406 11.58891,-10.72928 24.45546,-12.69669 27.94467,-4.273 1.54842,3.73822 0.56221,8.09307 -3.01303,13.30475 -5.84696,8.52321 -15.28597,13.80573 -24.66857,13.80573 -3.93647,0 -5.25328,-0.41322 -7.05348,-2.21342 z"
     id="path12"
     transform="translate(230,349)" />
  <path
     style="fill:#ffffff;stroke-width:0.901764"
     d="M 208.30756,639.69174 C 202.37124,638.32472 190.75975,634.4336 182.76863,631.1334 128.13176,608.56934 75.749811,557.47925 58.747995,510.17139 52.78992,493.59294 52.3232,490.49785 52.3232,467.5648 c 0,-23.60607 0.744091,-28.11982 7.132684,-43.26776 11.694285,-27.72822 30.855997,-42.87261 62.958496,-49.75903 12.0517,-2.58525 36.47777,-2.84932 48.97351,-0.52945 17.48317,3.2458 40.62812,12.9934 52.76515,22.22229 20.86725,15.86727 34.84967,38.81257 41.01268,67.30227 3.29476,15.23068 1.88002,38.74731 -3.28563,54.61528 -4.14431,12.73063 -14.86653,31.84025 -21.32596,38.00809 -2.40786,2.29916 -2.69254,2.34959 -8.8007,1.55901 -8.66458,-1.12148 -21.07963,-1.07438 -26.55908,0.10076 -5.03964,1.08081 -7.25708,3.3235 -7.25708,7.33974 0,3.88423 2.71429,5.80056 10.51662,7.42486 26.693,5.55699 38.25859,9.47107 49.30092,16.68462 18.05564,11.79508 23.32048,28.32625 10.93139,34.3237 -2.62751,1.27196 -5.55232,1.78438 -10.18495,1.78438 h -6.49893 l -7.8067,-8.15286 c -15.37103,-16.05259 -34.65478,-24.15951 -39.58164,-16.64017 -1.9874,3.03315 -0.91167,7.01228 2.73087,10.10156 1.63269,1.38471 5.70394,4.50083 9.04721,6.92471 9.39897,6.81429 15.69813,16.33846 13.30024,20.1096 -1.80725,2.84224 -13.09318,3.88474 -21.38474,1.97534 z"
     id="path13"
     transform="translate(230,349)" />
  <path
     style="fill:#ffffff;stroke-width:0.940932"
     d="m 733.73392,639.27207 c -3.52096,-1.02929 -5.92681,-4.04397 -5.9138,-7.41034 0.0107,-2.76512 3.03686,-9.44396 7.87382,-17.37776 4.02068,-6.5949 4.3077,-10.06208 1.09861,-13.27117 -4.13382,-4.13382 -7.91001,-2.96755 -17.46803,5.39496 -10.26305,8.97935 -13.16916,10.94404 -18.63044,12.59514 -10.46779,3.1647 -15.01536,-1.75202 -10.60436,-11.46517 2.35392,-5.1834 10.36331,-13.15157 24.37726,-24.25178 9.86231,-7.81178 12.33325,-10.32846 16.56986,-16.87658 2.73851,-4.23266 9.33437,-12.35336 14.65747,-18.04599 26.94584,-28.81648 43.57493,-56.00566 54.50689,-89.12081 l 3.01782,-9.14158 8.39937,-4.80659 c 4.61967,-2.64363 9.1156,-4.66866 9.99099,-4.50008 2.05811,0.39636 5.29038,8.47505 8.73169,21.82397 6.37229,24.71822 6.24703,52.0198 -0.36319,79.15856 -2.92671,12.01584 -6.12682,20.92179 -12.17154,33.87355 -6.03795,12.93726 -6.25057,16.54079 -1.58226,26.81657 2.19004,4.82067 3.33428,8.91597 3.61078,12.92322 0.39187,5.67921 0.29932,5.97169 -2.90307,9.17409 -3.03618,3.03618 -3.76413,3.30785 -8.86333,3.30785 -6.42192,0 -10.55029,-2.1843 -19.57475,-10.35689 -6.72088,-6.08646 -10.56603,-7.83716 -14.3307,-6.52479 -1.70211,0.59336 -5.6499,4.49959 -10.44044,10.33055 -12.13502,14.77049 -21.40806,20.25945 -29.98865,17.75107 z"
     id="path14"
     transform="translate(230,349)" />
</svg>
