<?xml version="1.0" encoding="UTF-8" standalone="no"?>
<svg
   version="1.0"
   width="600.000000pt"
   height="600.000000pt"
   viewBox="0 0 600.000000 600.000000"
   preserveAspectRatio="xMidYMid meet"
   id="svg9"
   sodipodi:docname="frog7_t2.svg.svg"
   inkscape:version="1.4.3 (0d15f75, 2025-12-25)"
   xmlns:inkscape="http://www.inkscape.org/namespaces/inkscape"
   xmlns:sodipodi="http://sodipodi.sourceforge.net/DTD/sodipodi-0.dtd"
   xmlns="http://www.w3.org/2000/svg"
   xmlns:svg="http://www.w3.org/2000/svg">
  <defs
     id="defs9" />
  <sodipodi:namedview
     id="namedview9"
     pagecolor="#505050"
     bordercolor="#ffffff"
     borderopacity="1"
     inkscape:showpageshadow="0"
     inkscape:pageopacity="0"
     inkscape:pagecheckerboard="1"
     inkscape:deskcolor="#505050"
     inkscape:document-units="pt"
     inkscape:zoom="0.5101722"
     inkscape:cx="472.38952"
     inkscape:cy="271.47697"
     inkscape:window-width="1920"
     inkscape:window-height="1022"
     inkscape:window-x="0"
     inkscape:window-y="30"
     inkscape:window-maximized="1"
     inkscape:current-layer="svg9" />
  <g
     transform="translate(0.000000,600.000000) scale(0.066667,-0.066667)"
     fill="#000000"
     stroke="none"
     id="g9">
    <path
       d="M6533 8827 c-132 -47 -188 -173 -199 -446 -9 -221 -12 -224 -77 -93 -113 226 -258 293 -378 173 -137 -137 -58 -408 179 -613 253 -219 346 -389 347 -637 0 -106 -8 -107 -81 -6 -104 143 -223 192 -319 132 -173 -109 -129 -310 122 -554 221 -216 279 -382 167 -483 -73 -67 -138 -172 -162 -260 l-19 -73 -66 9 c-36 5 -125 9 -197 9 l-131 0 -47 97 c-110 222 -286 331 -538 330 l-153 0 -18 42 c-51 125 9 257 206 452 198 197 240 315 158 442 -112 174 -410 35 -626 -293 -112 -171 -122 -173 -136 -31 -19 194 75 429 298 740 78 108 157 233 176 277 188 438 -220 617 -421 184 -66 -142 -84 -160 -94 -92 -62 397 -82 460 -175 544 -78 70 -145 81 -226 36 -145 -80 -167 -263 -67 -560 153 -461 76 -662 -119 -307 -118 215 -317 257 -406 86 -78 -150 1 -341 247 -600 162 -171 253 -396 173 -427 -82 -32 -459 152 -605 293 -220 214 -252 398 -143 834 65 264 42 418 -72 480 -150 80 -319 -72 -357 -323 -26 -173 -34 -187 -89 -154 -90 53 -172 185 -248 399 -100 284 -240 389 -393 297 -221 -135 -138 -538 197 -953 105 -130 107 -149 17 -139 -154 17 -333 134 -538 351 -197 209 -375 239 -464 79 -79 -145 60 -408 295 -554 112 -70 103 -80 -97 -99 -254 -23 -336 -79 -336 -226 0 -249 345 -314 828 -156 346 113 577 80 775 -112 139 -136 17 -162 -288 -62 -266 88 -390 69 -458 -68 -73 -149 87 -325 321 -352 104 -13 103 -22 -15 -109 -188 -136 -213 -319 -57 -401 135 -71 306 -3 537 213 174 163 259 209 425 234 346 51 939 -119 1175 -336 45 -41 43 -52 -13 -64 -137 -30 -389 -181 -605 -364 -138 -115 -146 -119 -302 -138 -1357 -163 -2474 -1089 -2692 -2232 -17 -86 -21 -93 -50 -82 -17 6 -89 12 -159 12 -567 0 -627 -848 -78 -1102 57 -26 78 -44 73 -60 -4 -13 -22 -64 -40 -113 -96 -262 -36 -543 156 -734 222 -222 552 -322 1220 -369 378 -27 502 -67 618 -198 273 -310 804 -74 626 278 -43 84 -33 88 36 16 196 -204 539 -93 539 175 0 177 -104 268 -345 298 -89 12 -255 55 -255 66 0 1 93 3 206 5 119 1 257 12 325 26 l118 23 219 -189 c240 -207 254 -223 340 -410 57 -123 59 -133 59 -287 1 -246 94 -351 308 -350 196 1 297 121 280 332 -5 61 -6 110 -2 110 61 0 232 -132 232 -180 0 -193 290 -332 473 -228 215 123 197 369 -40 529 -50 34 -87 65 -83 69 20 20 172 -42 213 -86 231 -247 632 -64 545 248 -38 137 -157 203 -366 203 -189 0 -769 149 -845 216 -52 47 -150 327 -120 344 3 1 63 30 133 65 319 155 677 484 898 826 81 126 86 129 100 47 34 -205 178 -432 458 -725 139 -146 164 -183 164 -236 0 -68 -72 -210 -143 -282 -111 -114 -139 -232 -84 -352 114 -247 483 -190 526 81 36 228 423 115 478 -140 50 -238 343 -328 509 -156 128 133 104 292 -65 440 -53 47 -96 91 -96 98 0 37 58 6 133 -70 200 -204 482 -147 520 105 24 163 -84 276 -305 318 -143 27 -337 121 -437 210 -91 83 -112 139 -152 426 -70 489 -170 712 -430 963 l-105 101 -8 147 c-9 146 -37 253 -98 373 l-31 60 106 104 c470 463 530 956 166 1359 l-51 56 33 108 c62 203 5 417 -150 565 l-77 73 46 64 c97 134 274 203 431 168 81 -19 95 -29 246 -183 231 -236 397 -292 517 -172 87 87 56 265 -57 325 -40 22 -19 36 78 50 145 22 254 157 211 262 -53 127 -156 162 -383 128 -266 -40 -418 5 -319 95 51 46 120 61 341 70 318 13 567 103 739 269 312 300 74 621 -267 361 -128 -98 -457 -190 -457 -128 0 10 68 89 150 177 281 298 349 590 157 677 -146 67 -262 -5 -383 -237 -56 -108 -143 -210 -179 -210 -26 0 -44 55 -82 250 -62 308 -131 410 -278 410 -201 0 -261 -209 -157 -540 121 -386 14 -813 -251 -1006 -147 -106 -139 61 14 287 184 274 205 464 61 554 -108 68 -215 17 -300 -144 -55 -104 -62 -105 -77 -13 -9 62 12 277 42 410 81 368 -36 613 -254 534z m148 -147 c39 -52 39 -233 1 -394 -73 -311 -34 -591 83 -591 49 0 65 18 136 148 77 142 168 163 211 49 22 -58 -22 -179 -119 -327 -213 -323 -184 -598 51 -484 324 156 497 718 354 1147 -90 268 -64 420 69 409 73 -6 113 -66 144 -218 71 -339 93 -397 160 -424 95 -40 213 58 322 267 52 100 137 198 172 198 192 0 143 -256 -98 -508 -200 -211 -235 -302 -138 -363 106 -68 332 -13 557 134 199 130 310 83 225 -97 -92 -193 -401 -329 -794 -350 -295 -15 -442 -88 -442 -218 0 -137 193 -189 514 -140 158 24 225 -3 218 -88 -7 -80 -57 -111 -201 -125 -185 -18 -207 -108 -50 -204 120 -73 109 -201 -18 -201 -91 0 -164 47 -297 193 -275 299 -619 298 -835 -5 -52 -73 -63 -81 -96 -72 -52 15 -250 14 -319 -1 l-56 -13 0 65 c0 113 -60 212 -240 397 -179 185 -210 243 -178 334 33 97 124 77 227 -50 147 -181 245 -174 261 17 22 250 -89 490 -329 714 -199 186 -255 271 -256 397 -3 193 139 185 238 -13 142 -285 262 -244 277 96 10 216 25 275 87 345 36 42 120 29 159 -24z m-4447 -66 c22 -23 62 -99 89 -169 129 -347 265 -525 398 -525 89 0 117 41 142 206 38 244 148 366 242 267 46 -50 44 -164 -6 -362 -164 -643 83 -1046 745 -1216 300 -77 305 269 8 589 -211 227 -272 345 -238 458 38 129 138 93 251 -92 272 -444 473 -161 291 409 -72 228 -79 325 -27 403 101 150 219 8 281 -339 33 -187 57 -247 102 -250 82 -5 118 29 198 191 87 177 186 239 247 153 72 -103 18 -239 -240 -604 -274 -388 -342 -886 -124 -905 60 -5 92 27 237 231 161 226 386 332 428 201 20 -64 -26 -141 -184 -304 -210 -218 -266 -356 -210 -518 l23 -64 -70 -36 c-92 -47 -187 -141 -244 -242 l-46 -82 -101 94 c-239 225 -662 372 -1081 377 -289 4 -425 -49 -642 -252 -72 -67 -153 -138 -180 -157 -217 -151 -414 -11 -212 151 147 118 179 152 179 187 0 57 -48 91 -165 118 -216 49 -326 162 -240 248 45 45 150 39 317 -17 420 -141 634 -12 385 232 -238 232 -476 264 -919 122 -367 -117 -690 -65 -647 105 13 53 100 85 268 98 254 20 312 119 146 252 -258 206 -355 373 -269 465 64 69 105 48 329 -169 273 -265 515 -380 664 -318 107 45 89 124 -74 336 -236 307 -320 595 -214 730 42 53 108 52 163 -2z m4584 -2309 c237 -81 350 -398 227 -635 l-39 -76 101 -101 c450 -449 166 -1125 -668 -1590 -160 -89 -150 -121 23 -69 40 11 20 -34 -221 -496 -376 -724 -719 -1119 -1189 -1373 -129 -69 -139 -68 -151 5 -16 95 -101 272 -184 383 l-83 110 68 73 c179 192 263 398 263 649 0 265 -53 286 -64 25 -13 -307 -254 -717 -390 -662 -221 89 -311 92 -158 6 285 -161 397 -352 522 -889 70 -301 94 -319 558 -437 235 -60 342 -79 470 -87 219 -12 292 -58 292 -185 0 -169 -237 -233 -380 -102 -83 76 -132 99 -269 127 -141 29 -138 29 -167 0 -50 -49 11 -134 182 -257 139 -99 171 -183 110 -285 -97 -158 -347 -113 -391 71 -23 97 -99 182 -213 239 -177 88 -260 32 -222 -150 46 -216 -193 -349 -340 -189 l-50 55 4 154 4 154 -81 172 c-92 197 -110 219 -351 422 -311 264 -478 497 -535 749 -15 68 0 75 59 29 35 -28 75 -39 75 -22 0 4 -31 46 -70 93 -167 205 -192 386 -83 598 61 117 63 125 63 267 0 383 197 781 454 916 67 36 77 77 15 61 -295 -73 -548 -488 -568 -930 -8 -170 -12 -187 -64 -292 -70 -143 -82 -287 -34 -446 17 -56 37 -154 46 -218 25 -187 129 -422 239 -541 24 -26 33 -46 24 -55 -41 -41 -593 -59 -687 -23 -24 10 -22 17 25 65 479 500 300 1547 -343 2006 -331 236 -873 287 -1159 111 -69 -43 -47 -63 39 -36 828 263 1627 -375 1627 -1299 0 -654 -412 -1028 -1185 -1075 -170 -10 -212 -40 -85 -59 222 -33 564 25 796 135 l113 54 137 -62 c198 -89 286 -117 420 -132 186 -21 278 -118 234 -247 -50 -144 -243 -168 -374 -45 -84 78 -168 111 -285 111 -48 0 -111 10 -140 22 -144 61 -132 -4 16 -86 169 -93 244 -170 244 -250 0 -246 -316 -291 -512 -71 -121 136 -239 171 -725 212 -413 35 -622 75 -809 153 -894 376 -338 1507 741 1508 172 0 220 -6 446 -59 50 -11 41 21 -13 50 -180 93 -521 126 -758 74 -276 -62 -496 -180 -685 -370 -149 -151 -141 -148 -242 -89 -366 212 -417 704 -90 875 121 64 299 36 338 -54 39 -87 62 -60 89 103 203 1198 1255 2109 2625 2273 180 21 205 33 360 163 209 176 423 306 583 354 88 27 87 28 95 -112 8 -136 63 -267 134 -320 68 -50 77 -18 24 84 -69 132 -72 348 -6 473 247 470 954 357 997 -159 11 -128 93 -142 93 -16 l0 42 179 0 c143 0 184 -5 199 -23 78 -93 92 -86 104 49 28 309 316 498 606 399z m58 -2349 c76 -172 97 -417 49 -570 -28 -89 0 -99 50 -18 42 67 41 67 139 -35 189 -198 301 -432 348 -723 83 -518 94 -552 208 -653 96 -85 344 -212 441 -225 193 -26 274 -83 274 -190 0 -175 -271 -229 -353 -71 -48 93 -291 162 -315 89 -21 -67 10 -126 130 -242 116 -113 118 -116 118 -189 0 -228 -344 -250 -383 -25 -50 286 -467 467 -630 273 -21 -25 -37 -63 -37 -89 0 -169 -182 -256 -307 -146 -89 78 -75 191 39 302 73 72 143 210 156 307 14 106 -12 151 -200 352 -282 298 -410 515 -446 752 -13 84 -1 88 86 25 34 -25 96 -55 137 -68 138 -41 265 -18 134 24 -126 41 -304 167 -304 215 0 4 48 96 107 206 118 221 225 443 271 564 25 69 42 88 129 145 126 83 118 84 159 -10z"
       id="path1" />
    <path
       d="M6647 6134 c-159 -34 -246 -234 -167 -388 127 -250 489 -153 484 129 -2 121 -82 233 -181 253 -75 16 -85 16 -136 6z m193 -119 c69 -69 -20 -176 -93 -110 -34 31 -35 77 -2 113 32 35 58 34 95 -3z"
       id="path2" />
    <path
       d="M5040 6046 c-181 -96 -218 -338 -75 -481 183 -183 493 -50 495 212 1 220 -232 369 -420 269z m273 -101 c31 -28 36 -95 9 -122 -58 -58 -169 18 -131 90 33 62 76 74 122 32z"
       id="path3" />
    <path
       d="M6618 5277 c-47 -47 14 -171 67 -138 37 22 43 75 13 119 -26 41 -52 47 -80 19z"
       id="path4" />
    <path
       d="M6298 5224 c-18 -47 10 -116 46 -116 40 0 79 72 62 117 -22 56 -86 56 -108 -1z"
       id="path5" />
    <path
       d="M6488 4881 c-467 -49 -1076 -215 -1085 -296 -7 -58 51 -52 329 31 474 143 947 201 1235 154 110 -18 146 -9 140 35 -8 56 -376 101 -619 76z"
       id="path6" />
    <path
       d="M8460 5655 c0 -11 5 -15 10 -10 6 6 6 15 0 20 -5 6 -10 1 -10 -10z"
       id="path7" />
    <path
       d="M8390 4790 c6 -5 15 -5 20 0 6 6 1 10 -10 10 -11 0 -16 -4 -10 -10z"
       id="path8" />
    <path
       d="M8865 4530 c0 -11 5 -15 10 -10 6 6 6 15 0 20 -5 6 -10 1 -10 -10z"
       id="path9" />
  </g>
  <path
     style="fill:#d45500;stroke-width:1.31638"
     d="m 201.50017,262.17349 c -1.86143,-1.86143 -3.38052,-3.85563 -3.37575,-4.43155 0.0206,-2.48317 5.18069,-8.44098 12.85259,-14.8394 8.66777,-7.229 10.83365,-10.07177 10.83365,-14.2194 0,-4.11241 -4.15703,-6.699 -17.43825,-10.85048 -13.94914,-4.36026 -20.73688,-9.23902 -20.73688,-14.90488 0,-4.31731 4.47565,-7.4448 10.65399,-7.4448 2.64146,0 10.8498,1.74035 18.24076,3.86746 22.26186,6.40692 36.73507,6.85297 42.28485,1.30319 10.79145,-10.79145 -14.74544,-36.54947 -40.39326,-40.74303 -10.47476,-1.71268 -25.11844,0.23879 -45.39422,6.0494 -19.1964,5.50127 -41.43861,7.40073 -50.42739,4.30644 -6.26082,-2.15522 -10.64631,-7.5277 -9.38604,-11.49845 1.34152,-4.22676 7.23273,-6.59539 21.43299,-8.61737 14.78802,-2.10568 17.01481,-2.7856 21.06601,-6.43222 5.56345,-5.00786 3.31689,-9.32109 -11.6026,-22.27606 -10.73521,-9.32165 -19.14406,-20.32054 -20.40004,-26.683488 -0.57446,-2.910284 -0.0279,-4.930635 2.04757,-7.569206 5.3447,-6.794682 7.7654,-5.473607 32.68792,17.839164 16.664,15.58768 35.4215,25.95137 46.97003,25.95137 6.90094,0 13.57499,-3.20213 14.51976,-6.9664 1.1551,-4.60228 -2.13126,-11.436 -12.40951,-25.804601 -11.15328,-15.591862 -16.26007,-24.701066 -19.79563,-35.310332 -4.64936,-13.951488 -2.98498,-26.987356 3.91731,-30.681349 6.65737,-3.562917 11.81219,2.351488 20.87148,23.946983 12.18086,29.036687 24.10636,42.31115 36.00593,40.078777 5.81483,-1.090869 7.83693,-4.273615 10.12962,-15.943852 4.59755,-23.402403 12.97307,-33.95255 20.4208,-25.722901 3.83066,4.232838 3.84444,12.548537 0.0492,29.672052 -8.92033,40.246913 -4.46082,64.099133 15.75503,84.267593 10.53738,10.51267 23.75921,18.05902 41.24567,23.54093 14.15092,4.43623 21.67696,4.50828 25.93693,0.24831 6.30319,-6.30319 5.90212,-15.92348 -1.27322,-30.53933 -4.27991,-8.718 -6.20326,-11.35103 -21.38851,-29.28066 -13.10325,-15.47135 -16.85197,-25.77622 -12.40182,-34.091407 3.38706,-6.328786 10.10456,-2.871154 18.55276,9.549467 11.38627,16.74022 18.92324,22.88544 25.91591,21.1304 5.0706,-1.27265 8.29594,-9.81053 8.33085,-22.05289 0.0321,-11.270119 -1.10398,-17.689594 -6.69164,-37.810028 -4.3227,-15.565537 -4.8859,-26.196238 -1.64952,-31.135584 8.28895,-12.65054 16.84121,-2.347616 23.57596,28.402019 4.49121,20.505991 5.97896,23.694907 11.05458,23.694907 5.4763,0 10.82584,-5.130486 16.38974,-15.718621 5.56673,-10.593493 10.34586,-16.70389 13.96238,-17.851732 6.672,-2.117614 11.99231,7.280208 9.13055,16.128269 -2.62266,8.108771 -6.23641,14.523049 -19.0994,33.90078 -6.72984,10.1383 -14.09614,22.57813 -16.36957,27.64406 -12.45107,27.74502 -12.91065,54.33522 -1.01079,58.48353 2.22149,0.77441 4.49761,1.40803 5.05803,1.40803 2.37826,0 9.70121,-7.60137 18.17438,-18.86535 12.24013,-16.27169 22.85786,-24.57532 31.42412,-24.57532 8.04127,0 9.19177,7.07467 2.63232,16.18673 -2.35304,3.26872 -8.93148,11.17696 -14.61876,17.57386 -16.05722,18.06077 -20.38337,29.45206 -16.24858,42.78457 1.88889,6.09067 1.88192,6.12574 -1.52548,7.67826 -7.68792,3.50286 -16.22179,11.21759 -21.9651,19.85678 l -6.08456,9.15249 -8.11845,-7.38455 c -15.16009,-13.78966 -35.95432,-23.78148 -62.09016,-29.83491 -9.30851,-2.15599 -16.50216,-2.76653 -33.56778,-2.84899 -30.78153,-0.14872 -37.4017,2.45876 -61.21184,24.10939 -13.01603,11.83551 -18.78098,15.43424 -26.77161,16.71199 -4.54991,0.72756 -5.76793,0.3713 -8.67729,-2.53806 z"
     id="path11"
     transform="scale(0.75)" />
  <path
     style="fill:#d45500;stroke-width:1.31638"
     d="m 705.66456,236.89129 c -2.12645,-1.10887 -8.96831,-6.93452 -15.20417,-12.94591 -12.94034,-12.47452 -20.49003,-17.33988 -31.27822,-20.15707 -15.71751,-4.10441 -28.1948,0.31315 -42.00216,14.87078 l -9.41863,9.93043 -17.20762,0.23063 -17.20762,0.23062 -0.8632,-5.92373 c -1.35249,-9.28145 -5.96842,-16.92875 -18.32147,-30.35344 -15.80164,-17.17245 -19.05149,-21.81115 -19.05149,-27.1933 0,-6.50799 2.06821,-9.58883 6.43714,-9.58883 2.8606,0 5.95337,2.24162 13.48712,9.77536 11.13635,11.13636 15.67549,13.13007 20.01611,8.79164 2.40116,-2.39995 2.91343,-4.67204 3.30187,-14.64489 0.87744,-22.52739 -6.40936,-37.57134 -30.07841,-62.098385 -8.32612,-8.627948 -16.47125,-18.162758 -18.10027,-21.188466 -3.91456,-7.270801 -4.09368,-18.232224 -0.35895,-21.966948 4.62832,-4.628328 9.59914,-1.099008 17.49602,12.422323 6.81998,11.677411 10.34409,15.191878 15.2336,15.191878 3.11677,0 4.27981,-0.88679 6.04687,-4.610609 1.9414,-4.0912 2.77808,-9.555764 5.45465,-35.625898 1.28902,-12.55528 8.93242,-20.261325 15.699,-15.827685 6.76926,4.435384 7.60128,14.722607 3.15414,38.997862 -4.79577,26.178301 -2.08074,48.709618 6.11747,50.767238 5.2136,1.30853 7.79031,-0.52223 12.80829,-9.10035 6.39402,-10.930394 10.36821,-14.634711 14.5696,-13.580229 2.03208,0.510021 3.74561,2.283744 4.6147,4.776828 1.97337,5.660821 -0.61611,13.178031 -10.10386,29.331261 -9.24754,15.74427 -12.0776,23.46512 -12.0776,32.94951 0,9.03573 2.55354,12.75255 8.76129,12.75255 15.66032,0 33.75323,-21.05098 41.53222,-48.32249 2.32449,-8.14915 2.92335,-13.63759 2.91457,-26.711384 -0.01,-14.448863 -0.52549,-18.313548 -4.23104,-31.70225 -5.86897,-21.205436 -5.41352,-30.094577 1.68013,-32.791576 8.33444,-3.168755 13.12754,3.41368 17.72651,24.344123 5.85267,26.636243 8.78077,32.251401 16.8179,32.251401 8.93358,0 14.43833,-5.004543 25.33921,-23.036715 7.43862,-12.304891 12.76982,-17.77118 17.33201,-17.77118 4.43324,0 7.71472,4.248815 7.71472,9.988916 0,6.682822 -8.37215,21.429296 -18.5843,32.733896 -17.73266,19.629609 -21.0829,28.518409 -12.67982,33.641869 9.23683,5.63181 26.29432,2.18473 46.40253,-9.37728 13.85536,-7.96669 19.23994,-9.78211 23.01754,-7.7604 8.30872,4.4467 -4.18334,23.71825 -20.84856,32.16316 -11.21751,5.68434 -28.01929,9.7706 -48.67663,11.83836 -30.18285,3.02123 -39.71548,7.77403 -39.71548,19.80141 0,12.43592 13.46902,16.84692 42.0566,13.77326 14.22238,-1.52917 15.92402,-1.47933 19.0325,0.55743 4.31209,2.8254 4.47132,7.82002 0.37975,11.91159 -2.20751,2.20751 -5.63747,3.42037 -12.59176,4.45254 -16.9764,2.51966 -20.47177,8.07896 -10.46502,16.64437 3.02637,2.59044 5.8605,4.70991 6.2981,4.70991 0.43759,0 1.8618,1.80492 3.16493,4.01093 2.19355,3.71339 2.21235,4.25049 0.25348,7.24011 -2.52377,3.85177 -9.66527,4.39292 -15.79429,1.19683 z"
     id="path12"
     transform="scale(0.75)" />
  <path
     style="fill:#ffffff;stroke-width:1.31638"
     d="m 408.07895,767.96263 c -1.44802,-0.83369 -4.55798,-3.33112 -6.91101,-5.54985 l -4.27825,-4.03403 v -14.1676 -14.16761 l -6.39428,-13.54733 c -7.99803,-16.94513 -9.93724,-19.3064 -31.89619,-38.83813 -17.68593,-15.73105 -30.6967,-30.28495 -37.59148,-42.05003 -4.13038,-7.04794 -9.68299,-21.74604 -9.68299,-25.63145 v -2.68025 l 4.43362,2.74014 c 4.58233,2.83202 7.41383,3.49072 7.41383,1.72466 0,-0.55852 -3.03218,-5.14941 -6.73817,-10.20198 -14.82387,-20.21012 -15.95119,-30.49637 -5.83982,-53.28536 3.8864,-8.75916 4.46151,-11.58058 5.09832,-25.01129 1.51982,-32.0534 14.15404,-59.06002 34.94184,-74.69094 4.0821,-3.06943 7.86628,-5.58702 8.40929,-5.59463 0.54301,-0.008 0.98728,-0.90239 0.98728,-1.98841 0,-4.61529 -12.10736,-0.53332 -22.04886,7.43374 -12.1786,9.75987 -24.44287,30.95451 -29.21437,50.48715 -1.4149,5.79208 -3.15771,17.04716 -3.8729,25.01129 -1.03271,11.49971 -2.17467,16.51238 -5.54806,24.35309 -5.29949,12.31753 -6.45794,25.59241 -3.29208,37.72426 1.16337,4.45809 3.02885,13.04749 4.14553,19.08756 3.59229,19.4306 10.05255,35.13723 19.59299,47.63589 l 4.72047,6.18416 -3.6326,1.43509 c -4.41895,1.74575 -43.63683,3.17399 -52.14018,1.89883 l -6.11252,-0.91663 6.64598,-8.14747 c 7.6189,-9.34021 14.46153,-22.7526 17.92404,-35.13335 1.89803,-6.78668 2.37064,-13.0491 2.28492,-30.27682 -0.0951,-19.12114 -0.52674,-23.29561 -3.60666,-34.88417 -1.99304,-7.49908 -6.59491,-19.39507 -10.69387,-27.64406 -18.12759,-36.48099 -46.08641,-58.58832 -82.43073,-65.17879 -11.71803,-2.12489 -34.77381,-1.76605 -43.98804,0.68464 -13.25424,3.52518 -22.76947,9.26652 -19.98023,12.05575 0.41888,0.41889 5.67532,-0.58222 11.68098,-2.22468 50.96489,-13.93822 102.6488,10.59166 126.26826,59.92861 17.11515,35.75055 17.1867,78.40288 0.17858,106.4679 -16.09817,26.56355 -46.02787,40.8834 -93.87095,44.91251 -16.77856,1.41302 -17.5621,4.9581 -1.47656,6.68072 17.18014,1.83983 45.23352,-3.32495 65.61953,-12.08091 l 11.11766,-4.77513 14.06966,5.97422 c 14.89332,6.32398 24.76868,9.4148 34.4736,10.78973 9.55453,1.35361 13.8045,3.0968 17.85323,7.32276 7.26986,7.5881 4.02344,18.93947 -6.57402,22.9867 -7.40011,2.82611 -13.92653,1.11701 -22.84228,-5.98181 -7.638,-6.08147 -15.41449,-9.17884 -23.15751,-9.22364 -2.98602,-0.0173 -7.79862,-0.66476 -10.69466,-1.43886 -8.74752,-2.33818 -13.82203,-2.86081 -13.82203,-1.42353 0,1.89817 6.60569,7.22463 14.76615,11.90661 3.82479,2.19444 9.25635,6.35524 12.07012,9.24622 4.18554,4.30041 5.11596,6.19795 5.11596,10.43375 0,10.57717 -7.57778,17.38065 -19.35872,17.38065 -8.43661,0 -13.70322,-2.52793 -22.92053,-11.00166 -15.05693,-13.84228 -23.60972,-16.23637 -73.92154,-20.69213 -21.14185,-1.87239 -43.11746,-5.60913 -53.97173,-9.17738 -36.078443,-11.86049 -54.233553,-36.51373 -48.19982,-65.45168 5.916924,-28.37772 31.65085,-54.1372 64.65462,-64.71882 21.59819,-6.92477 46.29637,-8.12958 67.54634,-3.295 15.45818,3.51689 19.42164,1.50248 8.18,-4.15743 -15.89686,-8.00372 -50.25614,-10.19402 -71.119,-4.53364 -22.385649,6.07355 -38.238312,15.03895 -55.737505,31.52213 -6.795524,6.40097 -12.42001,10.65256 -14.092405,10.65256 -4.002858,0 -16.376033,-8.59571 -21.536768,-14.96171 -13.102538,-16.16257 -15.902921,-35.47702 -7.322144,-50.50141 6.366764,-11.14778 15.021137,-16.3388 27.241818,-16.34004 7.966264,-8e-4 13.280199,2.64501 16.468007,8.19946 4.207084,7.33041 4.98486,6.02813 9.679599,-16.20735 5.860967,-27.759 15.751477,-52.47397 30.171838,-75.39511 40.67497,-64.65278 112.0639,-107.9256 197.70315,-119.83896 7.82307,-1.08828 16.1165,-2.59454 18.42982,-3.34725 2.31333,-0.75272 11.30988,-6.89545 19.99234,-13.65052 21.21819,-16.50805 40.08453,-27.58789 51.76548,-30.40087 4.04671,-0.97452 4.29022,-0.39643 5.56903,13.22071 0.90114,9.59564 7.66108,23.64174 12.86443,26.73029 4.99523,2.96503 5.91648,1.17426 3.10951,-6.04434 -4.91903,-12.65008 -6.20774,-19.22562 -5.52943,-28.21335 0.84571,-11.20558 4.26987,-18.93837 12.08653,-27.29501 8.82011,-9.42943 18.14218,-13.5558 32.18178,-14.24514 13.98868,-0.68685 23.18739,2.40132 32.74255,10.99223 7.38261,6.6376 11.25214,13.66812 13.34878,24.25329 2.00475,10.12124 3.48282,13.16383 6.39495,13.16383 2.75833,0 4.11822,-2.42632 4.11822,-7.34777 v -3.1833 h 15.39547 c 14.83103,0 15.52796,0.12693 19.00898,3.46196 4.98068,4.77179 7.16637,3.42855 8.15862,-5.01397 1.26706,-10.78072 4.50182,-18.77033 10.23795,-25.28692 11.71382,-13.3076 30.6986,-17.19223 46.42304,-9.49898 18.33015,8.96811 25.87522,33.95523 16.11862,53.3802 l -3.46634,6.90132 8.58027,9.26747 c 12.24291,13.22347 18.06996,25.50233 18.81206,39.64104 1.8101,34.48705 -23.19376,68.36412 -72.55793,98.30682 -8.03253,4.87226 -14.85416,9.60738 -15.1592,10.52245 -0.41664,1.24994 1.12509,1.50239 6.19834,1.0149 4.12647,-0.39649 6.75292,-0.12798 6.75292,0.69041 0,1.92451 -25.98155,52.03208 -34.25728,66.06802 -27.5977,46.8066 -54.83751,75.92392 -89.25068,95.40223 -5.30244,3.00124 -10.55394,5.27369 -11.67001,5.04986 -1.17498,-0.23562 -2.99783,-3.54192 -4.33009,-7.85394 -2.68749,-8.69838 -11.64046,-25.75694 -17.20686,-32.78509 -2.13614,-2.6971 -3.88389,-5.52457 -3.88389,-6.28325 0,-0.7587 3.01361,-4.82006 6.6969,-9.02526 15.02241,-17.15098 21.50154,-35.57763 20.73522,-58.97099 -0.24544,-7.49248 -0.90041,-14.07543 -1.45549,-14.62878 -2.17407,-2.16732 -3.61457,2.07892 -4.89534,14.43028 -1.42895,13.7803 -5.92256,29.06041 -11.63674,39.56964 -4.21966,7.7606 -13.82574,18.73605 -17.38794,19.86665 -1.40782,0.44682 -6.96018,-0.70643 -12.33857,-2.56281 -17.03047,-5.87813 -18.68129,-3.9082 -4.40024,5.25078 12.20559,7.8279 17.23505,12.56244 23.49661,22.11888 6.72711,10.26695 11.95217,24.20055 18.46323,49.23571 2.96422,11.39752 6.15683,22.20369 7.09469,24.01372 2.5282,4.87933 7.14988,8.74903 14.14454,11.8431 10.70062,4.73338 50.73302,14.19306 69.07835,16.32325 23.7127,2.75341 27.9923,5.24726 27.9923,16.31194 0,6.46851 -4.16578,11.29664 -11.69263,13.55173 -7.23672,2.16818 -13.01313,0.35473 -23.19154,-7.28072 -6.35408,-4.76658 -10.11782,-6.44631 -19.25052,-8.5914 -6.24371,-1.46652 -12.27321,-2.66639 -13.3989,-2.66639 -2.90275,0 -6.1839,3.64852 -6.1839,6.87626 0,2.83555 8.86479,12.1669 20.17367,21.23544 10.86695,8.71416 12.47922,16.00427 5.4001,24.41733 -9.68402,11.50881 -27.52108,5.61135 -32.39886,-10.71202 -3.17556,-10.62693 -18.85967,-22.23014 -30.48286,-22.5514 -7.44078,-0.20566 -8.83687,2.47473 -8.58286,16.47862 0.22483,12.39554 -1.15278,16.2149 -7.30183,20.24391 -4.22287,2.76692 -11.37699,3.64177 -14.60112,1.78548 z m 92.33383,-375.20475 c 8.58531,-2.27249 20.94099,-5.53209 27.45709,-7.24356 28.41453,-7.46311 40.1433,-8.90598 73.04438,-8.98588 27.09269,-0.0658 30.96968,-0.33247 31.32057,-2.15452 0.66758,-3.46643 -2.96698,-5.23488 -15.10773,-7.35091 -28.9282,-5.04195 -82.6286,2.15659 -122.14878,16.37403 -11.2024,4.03009 -15.15645,6.50207 -15.15645,9.47549 0,5.09833 0.91599,5.09322 20.59092,-0.11465 z m 65.76425,-46.89822 c 1.92784,-1.28726 4.47531,-6.2309 4.47531,-8.68486 0,-2.45542 -3.54094,-6.1043 -5.92373,-6.1043 -2.985,0 -5.92373,3.91829 -5.92373,7.89831 0,2.0686 0.93087,4.69196 2.06861,5.82969 2.30081,2.30082 3.18271,2.47727 5.30354,1.06116 z m 29.3769,-2.84605 c 2.8706,-1.81701 2.28138,-9.04011 -1.00558,-12.32706 -2.26979,-2.26979 -3.3487,-2.57103 -5.15584,-1.43958 -3.08562,1.93192 -3.60577,7.85692 -1.0343,11.7815 2.221,3.38967 4.14027,3.91916 7.19572,1.98514 z M 471.26537,310.35215 c 9.24482,-4.62962 14.18248,-12.91532 14.32529,-24.03869 0.16255,-12.66091 -7.84833,-22.98852 -20.46734,-26.38647 -15.56713,-4.19179 -31.82741,9.15573 -31.80273,26.1058 0.0302,20.72653 19.80754,33.40214 37.94478,24.31936 z m 136.9039,-11.23103 c 12.96325,-7.25185 14.89723,-27.70432 3.72287,-39.37067 -3.99346,-4.16929 -14.2783,-7.00545 -20.89957,-5.76329 -5.62448,1.05516 -13.52626,7.75448 -15.92898,13.50498 -5.34357,12.78898 0.8538,29.21614 12.70174,33.66811 4.93536,1.8545 15.2944,0.81924 20.40394,-2.03913 z"
     id="path13"
     transform="scale(0.75)" />
  <path
     style="fill:#ffffff;stroke-width:0.480756"
     d="m 465.21823,283.07818 c -4.10933,-2.025 -5.26338,-6.21055 -2.71293,-9.83939 2.79683,-3.97941 5.77384,-4.62901 8.9533,-1.95368 2.52714,2.12646 3.55039,6.25863 2.33888,9.44515 -1.04723,2.75441 -5.35947,3.93456 -8.57925,2.34792 z"
     id="path14"
     transform="scale(0.75)" />
  <path
     style="fill:#ffffff;stroke-width:0.480756"
     d="m 601.8808,276.21434 c -0.54328,-0.22003 -1.67907,-1.18737 -2.52397,-2.14966 -2.52775,-2.87895 -1.97112,-6.78169 1.36799,-9.59136 2.23207,-1.87817 3.92837,-1.66996 6.54628,0.80352 1.8145,1.7144 2.22469,2.43153 2.42934,4.24714 0.53234,4.72297 -3.71166,8.35408 -7.81964,6.69036 z"
     id="path15"
     transform="scale(0.75)" />
  <path
     style="fill:#ffffff;stroke-width:0.480756"
     d="m 686.03947,714.96153 c -4.38175,-1.44964 -7.67401,-3.93237 -9.62169,-7.25584 -0.64443,-1.09964 -1.71889,-4.10539 -2.38769,-6.67945 -0.66879,-2.57406 -1.88893,-6.06027 -2.71142,-7.74715 -4.58297,-9.3994 -13.90862,-17.24256 -24.96078,-20.99278 -3.73896,-1.26871 -5.51639,-1.58343 -9.99167,-1.76917 -6.64359,-0.27574 -10.37986,0.58291 -14.4956,3.33129 -4.74676,3.16977 -6.52602,6.18881 -7.51083,12.74435 -0.82116,5.46625 -2.10434,8.35929 -4.98563,11.24057 -3.27666,3.27667 -6.16821,4.48347 -10.83237,4.52094 -3.1998,0.0257 -4.29035,-0.18118 -6.49021,-1.23127 -3.52857,-1.68434 -6.23812,-4.12323 -7.8298,-7.04766 -3.56416,-6.54854 -1.52118,-13.29126 6.75617,-22.29835 5.75013,-6.25707 9.67268,-12.90568 12.43274,-21.07314 1.2038,-3.56224 1.38094,-4.79562 1.38094,-9.61513 0,-5.34754 -0.0522,-5.62487 -1.5924,-8.46393 -2.22106,-4.09403 -6.25746,-9.05896 -15.98586,-19.66328 -17.57443,-19.15677 -25.88596,-30.28883 -31.94411,-42.78437 -4.51745,-9.3177 -7.92803,-20.98369 -7.92803,-27.11807 0,-2.18858 0.11024,-2.44845 1.03868,-2.44845 0.57127,0 2.65319,1.09543 4.62648,2.4343 8.85682,6.00928 17.651,9.11532 25.75731,9.09729 4.09344,-0.009 5.19918,-0.36449 5.02006,-1.61346 -0.11564,-0.8063 -1.376,-1.5178 -6.15487,-3.47451 -3.3052,-1.35332 -7.32921,-3.21855 -8.94224,-4.14495 -6.99075,-4.01497 -13.84123,-9.34671 -15.53935,-12.09432 l -1.04138,-1.68499 1.52335,-3.03348 c 0.83784,-1.66842 4.67293,-8.98285 8.52241,-16.25429 10.25498,-19.37105 19.15118,-37.89551 23.61071,-49.16434 2.63421,-6.65643 3.54024,-7.63851 12.70894,-13.77566 8.20107,-5.48946 9.01663,-5.62931 10.93215,-1.87457 7.53163,14.76322 10.13917,36.80901 6.24459,52.79566 -1.51351,6.2127 -1.53216,7.6921 -0.097,7.6921 1.04557,0 2.70045,-1.76502 5.29639,-5.64889 1.45242,-2.17301 2.30279,-3.00519 3.07212,-3.0064 1.48529,-0.002 12.07679,10.86623 16.98184,17.42606 9.58478,12.8183 15.99296,26.61953 19.9242,42.91055 0.7657,3.17299 2.47965,12.36746 3.80881,20.43215 5.51616,33.46956 7.28002,39.12301 14.3926,46.13051 9.42609,9.28684 31.09279,20.71671 42.82877,22.59353 16.67917,2.66733 23.50131,7.72872 22.98448,17.05231 -0.22199,4.00456 -1.27528,6.45372 -3.90753,9.08597 -2.81459,2.81459 -6.51286,4.31504 -11.25162,4.56497 -6.91624,0.36478 -11.57706,-1.93613 -15.26676,-7.53673 -1.17414,-1.78225 -3.06301,-3.90394 -4.19747,-4.71487 -8.95157,-6.39872 -22.6171,-8.50074 -24.4209,-3.7564 -0.76842,2.0211 -0.53921,6.05975 0.47011,8.2833 1.64576,3.62565 3.77054,6.23736 11.75491,14.44882 4.31057,4.43318 8.23816,8.81029 8.72798,9.72693 1.43172,2.6793 1.25969,9.07405 -0.33643,12.50557 -1.75843,3.78049 -3.87695,5.97524 -7.47973,7.74888 -2.60153,1.28073 -3.79127,1.56566 -7.05003,1.6884 -2.36331,0.089 -4.68411,-0.10502 -5.84337,-0.48855 z"
     id="path16"
     transform="scale(0.75)" />
</svg>
