<?xml version="1.0" encoding="UTF-8" standalone="no"?>
<svg
   version="1.0"
   width="600.000000pt"
   height="600.000000pt"
   viewBox="0 0 600.000000 600.000000"
   preserveAspectRatio="xMidYMid meet"
   id="svg8"
   sodipodi:docname="frog6_t0.svg.svg"
   inkscape:version="1.4.3 (0d15f75, 2025-12-25)"
   xmlns:inkscape="http://www.inkscape.org/namespaces/inkscape"
   xmlns:sodipodi="http://sodipodi.sourceforge.net/DTD/sodipodi-0.dtd"
   xmlns="http://www.w3.org/2000/svg"
   xmlns:svg="http://www.w3.org/2000/svg">
  <defs
     id="defs8" />
  <sodipodi:namedview
     id="namedview8"
     pagecolor="#505050"
     bordercolor="#ffffff"
     borderopacity="1"
     inkscape:showpageshadow="0"
     inkscape:pageopacity="0"
     inkscape:pagecheckerboard="1"
     inkscape:deskcolor="#505050"
     inkscape:document-units="pt"
     inkscape:zoom="1.0128428"
     inkscape:cx="558.82315"
     inkscape:cy="300.63895"
     inkscape:window-width="1024"
     inkscape:window-height="1022"
     inkscape:window-x="0"
     inkscape:window-y="30"
     inkscape:window-maximized="0"
     inkscape:current-layer="svg8" />
  <g
     transform="translate(0.000000,600.000000) scale(0.050000,-0.050000)"
     fill="#000000"
     stroke="none"
     id="g8">
    <path
       d="M8470 10225 c-245 -87 -456 -268 -572 -492 l-64 -125 -226 8 c-124 5 -300 -2 -391 -15 l-165 -24 -39 56 c-734 1056 -2402 322 -2116 -930 19 -84 16 -92 -66 -213 -47 -69 -90 -137 -95 -151 -5 -16 -49 7 -127 67 -983 757 -2530 307 -3144 -916 -515 -1026 -211 -2316 681 -2890 119 -77 168 -119 161 -140 -107 -307 -116 -739 -21 -1030 90 -272 173 -390 507 -720 310 -306 386 -411 387 -539 3 -440 656 -493 789 -63 10 31 21 24 73 -47 189 -262 591 -186 648 122 14 72 14 72 132 81 192 14 318 140 318 317 l0 96 255 -2 c327 -2 365 -35 246 -212 -109 -160 -99 -347 25 -478 159 -168 450 -139 586 59 67 95 68 95 128 -18 193 -361 720 -272 720 122 l0 89 105 -2 c374 -8 507 447 187 635 -47 28 -100 50 -119 50 -61 0 -34 34 54 68 131 50 345 183 508 315 176 143 165 144 165 -10 0 -137 -14 -160 -131 -219 -97 -49 -183 -149 -209 -245 -94 -335 310 -569 584 -338 73 60 96 49 96 -47 1 -164 125 -322 285 -365 232 -63 475 115 475 347 l0 73 90 -63 c244 -172 588 -25 590 251 0 65 5 75 35 64 241 -93 581 24 646 222 91 276 -89 506 -409 522 -222 11 -229 15 -167 81 491 514 335 1379 -298 1655 -64 28 -130 58 -146 67 -19 10 -39 81 -56 204 -15 103 -45 259 -66 346 -21 87 -39 164 -39 172 0 8 66 65 147 127 720 551 983 1266 731 1987 -86 246 -292 585 -432 711 -36 32 -39 56 -31 240 21 499 -190 901 -571 1090 -187 92 -474 114 -654 50z m519 -186 c354 -133 534 -461 529 -964 l-2 -255 95 -105 c731 -813 591 -1788 -356 -2483 -177 -130 -173 -113 -106 -395 174 -740 163 -1412 -38 -2317 -60 -267 -66 -315 -42 -351 42 -64 231 -202 341 -249 145 -62 210 -131 210 -222 0 -188 -275 -241 -400 -76 -130 171 -381 106 -314 -81 57 -160 26 -246 -106 -301 -148 -61 -275 34 -300 224 -33 256 -158 318 -340 166 -224 -187 -496 60 -280 255 33 30 73 55 88 55 15 0 64 40 109 90 l83 89 0 253 0 254 67 82 c367 454 747 1452 553 1452 -47 0 -52 -11 -139 -309 -220 -755 -753 -1421 -1355 -1694 -391 -178 -464 -167 -541 83 -126 409 -154 859 -76 1228 58 270 -44 271 -128 0 -103 -335 -58 -958 99 -1375 l45 -118 185 -87 c102 -47 241 -99 310 -115 216 -50 297 -188 184 -315 -73 -81 -179 -89 -290 -21 -174 108 -301 8 -184 -145 149 -196 -51 -415 -273 -301 -41 22 -76 66 -108 139 -80 180 -221 229 -312 108 -114 -152 -171 -198 -244 -198 -220 0 -292 159 -163 360 107 166 99 211 -80 477 -470 695 -653 1361 -549 2001 34 212 -50 254 -113 56 -154 -489 24 -1350 401 -1944 35 -55 71 -113 80 -128 54 -90 -769 46 -1004 166 -125 63 -124 57 -33 157 160 177 283 587 261 865 -42 511 -513 1028 -1048 1150 -124 28 -125 35 -36 206 166 319 378 594 786 1021 149 156 286 300 305 320 34 35 38 33 131 -66 190 -203 509 -370 509 -266 0 26 -39 65 -115 115 -601 396 -751 1098 -375 1760 58 102 113 173 153 195 49 29 59 45 48 80 -132 444 -53 817 234 1104 463 463 1233 362 1566 -205 47 -80 97 -95 211 -61 58 17 213 26 454 27 l366 0 74 145 c214 421 599 604 973 464z m-5069 -1497 c299 -80 762 -359 729 -439 -131 -312 -129 -721 4 -1058 l50 -126 -134 -149 c-155 -174 -169 -179 -169 -65 -3 667 -603 1274 -1260 1274 -1193 0 -1805 -1651 -829 -2238 789 -475 1700 365 1295 1193 -266 543 -1092 462 -1160 -115 -41 -351 321 -596 548 -369 119 119 57 400 -74 330 -41 -22 -53 -69 -22 -89 76 -46 -1 -191 -101 -191 -289 0 -282 467 9 617 591 304 1023 -601 542 -1135 -281 -312 -789 -319 -1105 -16 -573 551 -206 1630 626 1843 714 183 1391 -394 1391 -1185 l0 -170 -136 -152 c-276 -307 -489 -612 -627 -896 -75 -155 -84 -165 -153 -177 -208 -34 -287 -55 -402 -110 -171 -80 -342 -219 -444 -359 -95 -131 -84 -131 -258 -14 -681 456 -1008 1365 -791 2199 225 866 911 1506 1761 1642 135 22 562 -6 710 -45z m5690 -3512 c566 -332 516 -1069 -107 -1597 -94 -80 -52 -134 65 -85 58 24 95 27 176 11 56 -10 159 -19 229 -19 213 0 347 -89 347 -231 0 -165 -187 -257 -409 -202 -71 18 -156 33 -189 33 -33 0 -64 8 -70 17 -6 10 -85 55 -176 100 -92 46 -192 105 -223 131 l-58 47 52 218 c124 517 175 908 175 1341 l0 310 54 -13 c30 -8 90 -35 134 -61z m-5980 20 c591 -105 1043 -668 968 -1204 -75 -541 -459 -884 -991 -886 -69 0 -111 -10 -129 -32 -92 -112 305 -117 606 -8 l172 62 101 -50 c140 -71 339 -144 438 -161 112 -19 185 -89 185 -178 0 -150 -156 -217 -316 -135 -157 80 -245 23 -165 -106 54 -88 52 -157 -7 -226 -97 -113 -280 -63 -364 98 -100 192 -308 182 -308 -16 0 -326 -438 -316 -483 12 -26 187 -80 267 -395 585 -321 324 -416 459 -492 698 -216 684 140 1413 750 1535 61 12 128 25 150 29 72 15 118 12 280 -17z"
       id="path1" />
    <path
       d="M8689 9604 c-93 -44 -189 -149 -189 -206 0 -72 57 -66 147 18 153 140 298 137 456 -11 122 -114 199 -91 124 38 -98 168 -357 246 -538 161z"
       id="path2" />
    <path
       d="M5830 9404 c-171 -93 -291 -324 -178 -340 32 -5 53 13 82 70 103 199 370 262 553 131 141 -102 222 -27 91 84 -151 127 -375 150 -548 55z"
       id="path3" />
    <path
       d="M8740 9108 c-164 -71 -280 -257 -279 -448 3 -521 633 -691 851 -230 184 388 -198 840 -572 678z m359 -181 c117 -150 -64 -325 -198 -191 -101 101 -49 244 89 244 49 0 78 -14 109 -53z"
       id="path4" />
    <path
       d="M6040 8921 c-383 -116 -486 -624 -181 -886 330 -282 802 2 755 455 -31 299 -313 511 -574 431z m315 -207 c90 -82 24 -254 -97 -254 -170 0 -215 238 -56 297 57 21 92 11 153 -43z"
       id="path5" />
    <path
       d="M8024 7916 c-13 -13 -24 -44 -24 -68 0 -102 145 -122 156 -22 11 94 -72 150 -132 90z"
       id="path6" />
    <path
       d="M7464 7876 c-62 -62 20 -208 92 -163 42 26 55 119 23 158 -29 35 -83 37 -115 5z"
       id="path7" />
    <path
       d="M8481 7381 c-354 -248 -1034 -275 -1476 -58 -200 98 -311 63 -180 -57 358 -329 1377 -312 1774 28 166 142 66 215 -118 87z"
       id="path8" />
  </g>
  <path
     style="fill:#ff7f2a;stroke-width:0.603063"
     d="M 150.95834,484.21269 C 128.21801,468.8446 112.22337,448.69844 101.94171,422.47346 92.545714,398.50752 90.136739,370.18872 95.295959,344.3491 c 4.751481,-23.79748 16.371181,-47.98062 32.018981,-66.63849 21.29194,-25.38775 49.5279,-42.35369 81.34493,-48.87716 14.19448,-2.9103 43.65461,-1.03018 57.87049,3.69326 7.54074,2.50552 23.48048,10.43201 31.08134,15.45607 6.16388,4.07424 12.06126,9.24875 12.06126,10.58284 0,0.36349 -0.69796,2.68307 -1.55103,5.15462 -7.39272,21.41865 -6.43293,45.66091 2.7328,69.02462 l 2.30856,5.8846 -8.02324,8.89045 c -7.64105,8.46693 -10.25783,10.88497 -10.98871,10.15409 -0.18017,-0.18017 -0.54075,-3.79474 -0.80129,-8.03237 -1.33426,-21.70124 -9.83768,-40.1518 -25.91439,-56.2285 -10.33441,-10.33441 -21.11275,-17.15657 -33.74866,-21.36123 -10.34496,-3.44234 -15.61008,-4.17498 -27.43938,-3.81815 -8.26201,0.24922 -11.43252,0.6072 -16.33329,1.84418 -21.73256,5.48541 -39.48857,18.22108 -52.26045,37.48431 -18.81782,28.38205 -21.37153,63.19382 -6.4253,87.58889 8.97735,14.65275 23.2023,25.16229 40.3429,29.80576 7.37187,1.99707 21.47945,1.98994 28.94704,-0.0146 13.55525,-3.63872 26.03182,-12.0257 34.38965,-23.11738 13.91626,-18.46827 16.17616,-42.47103 5.98905,-63.61065 -6.24139,-12.95171 -17.95978,-21.98831 -31.58527,-24.35684 -6.34604,-1.10314 -16.51787,-0.43535 -21.96127,1.44178 -14.23616,4.90929 -23.3572,16.52565 -24.60966,31.34236 -1.81814,21.50842 19.28876,36.89089 34.90157,25.43589 4.35237,-3.19329 6.12822,-7.10082 6.16095,-13.55634 0.0385,-7.58669 -2.26931,-11.4582 -6.83012,-11.4582 -2.39613,0 -5.04855,2.3012 -5.04855,4.38004 0,0.87936 0.73641,2.47401 1.63647,3.54367 1.84144,2.18842 1.78072,4.45954 -0.19122,7.15287 -3.71879,5.0792 -10.4313,5.54616 -15.51849,1.07956 -3.30802,-2.90448 -4.63799,-6.05803 -4.94975,-11.73653 -0.76027,-13.84794 8.44759,-25.42411 22.94075,-28.84125 17.53812,-4.13508 33.51674,8.12607 39.42092,30.24953 1.60088,5.99864 1.48092,19.309 -0.23062,25.58772 -2.40699,8.82999 -6.56654,16.34388 -12.73745,23.00921 -20.61916,22.27114 -57.8778,19.78111 -77.62144,-5.18752 -9.05644,-11.45315 -13.18484,-23.91682 -13.11303,-39.58829 0.0567,-12.37739 2.85408,-23.57247 8.78604,-35.16189 13.86059,-27.07977 40.04467,-43.83939 68.4917,-43.83939 19.87783,0 35.79732,6.73632 50.54299,21.38723 9.42559,9.36503 15.10116,18.30681 19.4592,30.65773 3.17494,8.99798 4.31391,15.81934 4.71257,28.22415 l 0.36054,11.21836 -9.48617,10.79344 c -19.32268,21.98552 -29.93278,37.11001 -41.30712,58.88251 -2.72763,5.22115 -5.60645,10.00203 -6.39738,10.62418 -0.91725,0.72151 -4.55774,1.72024 -10.05231,2.75773 -10.34594,1.95354 -15.85048,3.72871 -22.97949,7.4107 -10.09647,5.21463 -20.82505,14.1096 -27.08515,22.45606 -6.24299,8.32366 -6.39419,8.34385 -15.64809,2.08999 z"
     id="path9"
     transform="scale(0.75)" />
  <path
     style="fill:#ffffff;stroke-width:2.2114"
     d="m 441.11259,663.97199 c -12.75046,-14.66556 -17.52442,-19.34972 -19.72074,-19.34972 -1.337,0 -6.74926,3.98051 -12.02724,8.84559 -18.97479,17.49036 -32.91191,7.36291 -21.08729,-15.32313 5.42255,-10.40338 4.87648,-12.77927 -7.228,-31.44843 -13.68282,-21.1035 -27.7493,-51.69373 -32.89582,-71.53819 -3.72801,-14.37486 -4.45568,-22.87292 -3.88181,-45.33364 0.59814,-23.41072 0.19845,-27.64247 -2.61083,-27.64247 -9.30169,0 -11.94265,46.65989 -4.41758,78.04881 4.87715,20.34379 14.1614,43.61116 22.96949,57.56406 3.1754,5.03018 5.77346,9.6631 5.77346,10.2954 0,1.96848 -16.91728,1.26207 -29.19217,-1.21898 -15.84302,-3.20224 -39.36114,-10.88713 -39.36114,-12.86182 0,-0.88082 2.53225,-5.02898 5.62723,-9.21814 15.30399,-20.71456 18.49569,-58.67812 6.8686,-81.69848 -10.84712,-21.47609 -34.21005,-41.89925 -55.61808,-48.61962 -4.86507,-1.52724 -9.6992,-3.55995 -10.7425,-4.51714 -2.70897,-2.48536 10.12813,-25.54667 23.59285,-42.38354 6.31126,-7.89188 20.59844,-24.16213 31.74929,-36.1561 l 20.27428,-21.80723 9.87954,9.10662 c 5.43375,5.00866 12.92931,10.68374 16.65681,12.61131 7.14256,3.69356 15.84249,4.68126 15.84249,1.79857 0,-0.93834 -7.38818,-8.39753 -16.41818,-16.57597 -23.14246,-20.96004 -28.91546,-33.20427 -28.91546,-61.32823 0,-19.18722 0.63445,-22.35011 7.31923,-36.48805 4.02558,-8.51388 9.81402,-18.09142 12.8632,-21.28341 5.37402,-5.62572 5.46609,-6.23313 3.00343,-19.81391 -4.543,-25.05312 2.3875,-46.72091 20.04676,-62.67499 18.54044,-16.75017 41.91363,-21.50886 66.13312,-13.46443 11.13405,3.69814 24.72463,14.79258 36.18477,29.53884 2.78672,3.5858 5.50207,4.8189 8.84559,4.01699 2.65348,-0.63642 17.38899,-1.85009 32.7456,-2.69706 l 27.9211,-1.53994 3.50909,-7.35867 C 540.1246,152.29461 554.00903,138 563.90627,133.49245 c 17.2041,-7.83534 38.78976,-3.55269 52.84558,10.48471 10.53295,10.51916 14.91588,23.31491 16.24442,47.42484 1.19121,21.61792 1.22522,21.72345 10.73545,33.31708 12.29937,14.99381 21.95353,34.87977 25.29075,52.09474 6.67316,34.42339 -10.79248,72.62707 -46.32972,101.33985 -18.14286,14.65875 -17.75885,12.9648 -10.97598,48.41778 6.58938,34.44163 5.13738,86.3885 -3.64826,130.51983 l -6.1274,30.77873 7.75453,6.81502 c 4.26499,3.74825 12.62436,9.80038 18.57633,13.44918 12.7993,7.84648 15.00433,14.46749 6.64277,19.94621 -6.50252,4.26063 -11.82193,3.05469 -20.01372,-4.53719 -6.4732,-5.99917 -16.91537,-7.23207 -20.87218,-2.4644 -1.53066,1.84432 -1.95563,6.85011 -1.10707,13.04089 1.2637,9.21978 0.8785,10.37429 -4.67556,14.01345 -9.05277,5.93161 -16.6117,0.98675 -20.65752,-13.51361 -1.68889,-6.05305 -4.07653,-12.24948 -5.30589,-13.76981 -3.25872,-4.03007 -10.83651,-3.29823 -17.1734,1.65855 -3.04068,2.37844 -8.78401,4.34656 -12.76295,4.37361 -5.67321,0.0386 -7.80081,-1.19389 -9.8589,-5.71085 -2.47683,-5.43605 -1.91095,-6.40004 10.06005,-17.13832 l 12.68446,-11.37831 -0.0613,-16.59255 c -0.0575,-15.55674 0.43383,-17.28233 7.87083,-27.64247 24.41305,-34.00863 44.64182,-92.8716 31.91612,-92.8716 -2.1878,0 -5.91405,7.81223 -11.23202,23.54828 -11.60083,34.32739 -23.86363,54.59018 -47.45888,78.42017 -16.49488,16.65899 -23.22246,21.73156 -38.86095,29.30101 -22.65021,10.96334 -29.4014,11.57815 -33.74315,3.07292 -8.66104,-16.96646 -12.7667,-60.13371 -8.29907,-87.25698 3.15053,-19.12708 -3.62149,-20.10779 -9.82751,-1.42319 -5.37583,16.18509 -3.47868,62.88192 3.45775,85.10984 5.44274,17.44138 5.21909,17.26772 38.66792,30.02302 11.21471,4.27657 13.37462,5.97955 13.95476,11.00258 0.49648,4.29876 -0.7829,6.9056 -4.6245,9.4227 -4.85596,3.18173 -6.19319,3.15281 -15.61102,-0.33768 -9.41753,-3.49038 -10.60164,-3.51601 -13.81848,-0.29918 -3.2162,3.21621 -3.21639,4.10223 -0.002,10.31763 4.82385,9.32829 4.40835,14.98873 -1.39879,19.05622 -6.66707,4.66979 -9.9464,4.33571 -15.04887,-1.53316 z m 92.7948,-333.49879 c 18.12317,-2.94048 33.30793,-9.4734 41.22358,-17.73556 4.68975,-4.89505 5.59081,-7.11366 3.66948,-9.035 -1.92135,-1.92135 -6.69421,-0.44155 -19.43685,6.02628 -15.5754,7.90567 -18.59639,8.64153 -38.81007,9.45341 -23.04899,0.92577 -35.03308,-1.0515 -54.52657,-8.99642 -8.85552,-3.60922 -12.25029,-4.12652 -14.21126,-2.16555 -1.96098,1.96098 -1.56007,3.69951 1.67832,7.27788 12.67834,14.00941 47.31328,20.54544 80.41337,15.17496 z m -27.49744,-50.73146 c 0,-6.44332 -8.50457,-9.17118 -10.70613,-3.43402 -2.12429,5.53584 0.88872,10.36327 6.01195,9.63228 3.35425,-0.47859 4.69418,-2.24784 4.69418,-6.19826 z m 38.25332,-1.3218 c 0.92582,-6.44826 -5.07642,-11.19932 -9.50516,-7.52379 -4.02643,3.34164 -4.23405,7.04406 -0.59887,10.67925 3.90418,3.90418 9.33387,2.20851 10.10403,-3.15546 z m -117.6738,-10.76191 c 9.26168,-6.06848 14.16773,-16.43373 14.16773,-29.93284 0,-16.0813 -5.69675,-25.39989 -19.17163,-31.36047 -8.94231,-3.95561 -11.33865,-4.18906 -19.10751,-1.86145 -23.65008,7.08573 -33.02603,37.18803 -17.37598,55.78706 10.74101,12.76497 28.45029,15.90994 41.48739,7.3677 z m 184.46184,-16.38371 c 13.49689,-9.55106 16.99786,-30.01636 7.8153,-45.68519 -13.05432,-22.27552 -41.67635,-21.23237 -52.17997,1.90175 -5.41667,11.93011 -5.35302,19.99971 0.24902,31.57198 8.23292,17.00697 29.15504,22.79833 44.11565,12.21146 z M 385.39278,189.2724 c 2.61719,-3.53993 8.23791,-7.58454 12.4905,-8.98802 6.59817,-2.17759 9.24534,-1.88235 18.05243,2.01345 12.72166,5.6274 14.18103,5.66062 14.18103,0.32279 0,-10.83478 -27.67104,-17.54999 -41.9311,-10.17583 -12.52297,6.47589 -20.86383,23.26386 -11.5583,23.26386 2.20381,0 6.14826,-2.89631 8.76544,-6.43625 z m 192.88757,-16.78342 c 4.12141,-3.04067 9.9428,-5.5285 12.93643,-5.5285 2.99364,0 8.70468,2.48783 12.69121,5.5285 13.72225,10.46646 20.0392,3.93301 7.51185,-7.7693 -8.46713,-7.90947 -21.04717,-10.2321 -31.58109,-5.83075 -8.36337,3.49444 -16.14614,12.9933 -13.78119,16.81989 2.09409,3.38831 3.91674,2.90817 12.22279,-3.21984 z"
     id="path10"
     transform="scale(0.75)" />
  <path
     style="fill:#ffffff;stroke-width:0.538611"
     d="m 413.11433,234.90858 c -2.02394,-0.94079 -4.33252,-3.37579 -5.08253,-5.36088 -0.82066,-2.17205 -0.7064,-6.62751 0.21569,-8.41064 1.70756,-3.30207 6.3657,-5.85087 9.53462,-5.21708 2.1386,0.42772 5.41322,2.83255 6.98688,5.13106 2.4971,3.64731 1.05692,10.25198 -2.84069,13.02732 -2.101,1.49605 -6.4918,1.90963 -8.81397,0.83022 z"
     id="path11"
     transform="scale(0.75)" />
  <path
     style="fill:#ffffff;stroke-width:0.351687"
     d="m 598.00238,220.21819 c -4.67038,-1.7428 -7.82485,-5.88645 -7.81151,-10.26104 0.0155,-5.08054 3.5689,-8.34279 9.08738,-8.34279 3.08969,0 4.52489,0.61092 6.52003,2.77539 2.12411,2.30439 2.95288,4.3603 2.95316,7.32584 2.6e-4,2.73273 -0.55114,4.13686 -2.39446,6.09742 -2.20587,2.34617 -5.76609,3.37111 -8.3546,2.40518 z"
     id="path12"
     transform="scale(0.75)" />
  <path
     style="fill:#ffffff;stroke-width:1.19064"
     d="m 233.32637,666.21362 c -5.77132,-2.91528 -8.58085,-7.34169 -10.8594,-17.10893 -2.52486,-10.82313 -5.72538,-15.35847 -25.4858,-36.11505 -21.38209,-22.46001 -28.00916,-31.83179 -32.76012,-46.32823 -3.21173,-9.79985 -3.48271,-11.98624 -3.45769,-27.89746 0.0249,-15.81264 0.30755,-18.06419 3.36193,-26.77794 9.05044,-25.81975 27.07428,-42.52862 51.38029,-47.63173 10.66622,-2.2394 17.36643,-2.23371 28.19983,0.0239 36.04828,7.5124 64.90226,42.20124 62.51277,75.15409 -0.85706,11.81933 -6.35761,27.04045 -13.2748,36.73404 -11.42886,16.01611 -30.57648,25.60144 -51.14133,25.60144 -10.92934,0 -15.3989,5.94763 -6.35327,8.45429 6.9578,1.9281 24.29235,-0.29239 37.91679,-4.85699 l 10.466,-3.50643 9.89718,4.63796 c 5.44344,2.55089 14.71632,6.01675 20.60638,7.70191 16.36369,4.68171 21.50786,12.07761 13.77738,19.80808 -4.28938,4.2894 -9.05082,4.52706 -18.4714,0.92201 -5.42711,-2.07684 -7.23974,-2.30573 -9.63105,-1.21617 -3.56821,1.62579 -3.68358,3.61372 -0.56446,9.72769 3.3146,6.49713 3.02754,10.25265 -1.09905,14.37924 -6.48853,6.48854 -14.80789,4.06164 -22.70043,-6.6221 -2.63874,-3.57193 -5.82914,-7.04643 -7.08978,-7.7211 -2.64759,-1.41694 -8.39416,-1.59283 -10.30719,-0.31547 -2.09688,1.40013 -4.04781,5.81941 -4.04781,9.16919 0,11.74847 -10.79418,18.87585 -20.87497,13.78371 z"
     id="path13"
     transform="scale(0.75)" />
  <path
     style="fill:#ffffff;stroke-width:0.98732"
     d="m 658.54247,605.20468 c -2.71513,-0.6979 -6.62704,-1.31157 -8.69313,-1.36369 -2.4321,-0.0614 -5.9833,-1.40015 -10.07239,-3.79723 -3.47372,-2.03635 -9.78058,-5.61 -14.01523,-7.94146 -4.23465,-2.33146 -8.68796,-5.05947 -9.89624,-6.06227 l -2.19687,-1.82324 4.33638,-19.2697 c 7.89665,-35.09053 10.41538,-55.84053 10.42084,-85.85004 0.003,-14.1502 0.29418,-18.51207 1.23753,-18.51147 2.64069,0.002 13.35244,5.85355 18.65937,10.19372 18.36214,15.0171 22.9625,40.6564 11.73694,65.41383 -4.28322,9.44646 -10.35329,17.7542 -21.03346,28.78723 -5.38079,5.55858 -9.59227,10.66796 -9.35884,11.35418 0.27706,0.81446 1.93559,1.14879 4.77656,0.96285 9.52053,-0.62307 18.70828,-0.46068 29.76042,0.52602 9.4841,0.8467 12.37122,1.49462 15.91548,3.5717 7.2353,4.24016 9.40131,11.37258 5.31914,17.51532 -4.67757,7.03868 -14.79196,9.40562 -26.8965,6.29425 z"
     id="path14"
     transform="scale(0.75)" />
</svg>
