<?xml version="1.0" encoding="UTF-8" standalone="no"?>
<svg
   version="1.0"
   width="600.000000pt"
   height="600.000000pt"
   viewBox="0 0 600.000000 600.000000"
   preserveAspectRatio="xMidYMid meet"
   id="svg20"
   sodipodi:docname="frog14_t1.svg"
   inkscape:version="1.4.3 (0d15f75, 2025-12-25)"
   xmlns:inkscape="http://www.inkscape.org/namespaces/inkscape"
   xmlns:sodipodi="http://sodipodi.sourceforge.net/DTD/sodipodi-0.dtd"
   xmlns="http://www.w3.org/2000/svg"
   xmlns:svg="http://www.w3.org/2000/svg">
  <defs
     id="defs20" />
  <sodipodi:namedview
     id="namedview20"
     pagecolor="#505050"
     bordercolor="#ffffff"
     borderopacity="1"
     inkscape:showpageshadow="0"
     inkscape:pageopacity="0"
     inkscape:pagecheckerboard="1"
     inkscape:deskcolor="#505050"
     inkscape:document-units="pt"
     inkscape:zoom="0.86236048"
     inkscape:cx="359.47844"
     inkscape:cy="370.49471"
     inkscape:window-width="1920"
     inkscape:window-height="1022"
     inkscape:window-x="0"
     inkscape:window-y="30"
     inkscape:window-maximized="1"
     inkscape:current-layer="svg20" />
  <g
     transform="translate(0.000000,600.000000) scale(0.050000,-0.050000)"
     fill="#000000"
     stroke="none"
     id="g20">
    <path
       d="M6100 11506 c-86 -31 -431 -212 -576 -302 -143 -89 -229 -151 -513 -369 -45 -34 -47 -33 -177 123 -81 97 -152 162 -185 170 -251 63 -1096 -529 -1563 -1095 l-80 -96 -126 81 c-146 94 -243 107 -326 42 -121 -96 -453 -619 -682 -1075 -73 -146 -137 -265 -143 -265 -6 0 -57 32 -115 70 -185 125 -305 87 -396 -125 -204 -471 -271 -1212 -165 -1831 l13 -77 -68 41 c-146 89 -255 32 -316 -167 -97 -312 -106 -905 -20 -1326 l45 -226 -60 -64 c-642 -695 -610 -1845 70 -2481 l98 -91 -130 -77 c-483 -282 -408 -801 96 -661 46 12 53 6 80 -70 76 -220 357 -232 635 -28 l97 71 88 -89 c248 -252 639 -201 639 83 0 38 14 44 110 52 120 10 196 61 238 159 l22 52 128 -77 c223 -135 615 -272 932 -327 l140 -24 14 -122 c22 -203 108 -317 354 -474 477 -303 942 -346 1024 -95 7 20 35 14 118 -24 277 -124 532 -59 573 147 10 52 14 53 129 45 289 -21 423 179 308 461 -13 32 4 35 193 35 845 1 1617 202 2170 567 78 51 146 93 152 93 9 0 55 -111 55 -132 0 -4 -47 -37 -105 -74 -122 -79 -306 -268 -335 -344 -99 -261 114 -472 395 -391 53 15 65 13 65 -12 0 -318 454 -330 825 -23 l95 79 125 -50 c710 -282 1187 84 792 606 l-79 105 78 183 c328 774 136 1522 -537 2082 -185 155 -160 170 84 49 705 -351 854 -357 886 -37 19 198 65 294 202 428 l115 110 -17 116 c-35 241 -10 350 119 524 60 79 64 123 22 241 -51 145 -39 272 40 429 83 164 86 210 22 319 -87 149 -99 233 -62 454 65 388 -24 452 -411 297 -111 -45 -325 -108 -475 -140 -151 -32 -300 -68 -332 -79 -32 -11 -60 -20 -63 -20 -23 0 -93 154 -109 239 l-20 105 101 143 c56 79 146 200 200 269 109 139 118 183 65 321 -29 77 -30 109 -10 251 79 544 -109 578 -670 123 l-63 -52 38 136 c227 790 15 1594 -574 2179 -307 305 -523 370 -586 178 -27 -79 -22 -103 79 -422 249 -781 205 -1211 -170 -1660 -153 -184 -170 -195 -170 -114 0 187 -181 667 -309 819 -57 68 -193 109 -304 91 l-62 -10 -55 167 c-125 380 -409 884 -533 948 -71 37 -157 24 -208 -32 -51 -57 -63 -50 -121 65 -124 244 -431 700 -574 851 -62 65 -177 86 -274 51z m296 -331 c163 -221 326 -479 458 -725 119 -221 167 -242 259 -112 73 104 92 102 176 -13 343 -470 609 -1441 487 -1779 -33 -92 -2 -124 89 -90 77 29 218 -102 323 -300 l59 -109 -62 -149 c-86 -206 -129 -211 -237 -26 -186 320 -379 325 -600 17 -50 -71 -103 -129 -118 -129 -15 0 -40 -5 -56 -11 -47 -18 -137 195 -147 351 -43 634 -377 1243 -894 1630 l-53 40 50 200 c27 110 87 295 132 412 91 237 94 305 15 363 -131 98 -428 -131 -747 -574 l-41 -56 -204 271 c-113 148 -205 278 -205 288 0 52 563 429 880 590 268 135 272 134 436 -89z m-1716 -282 c135 -153 658 -825 707 -907 8 -14 -11 -77 -43 -140 -295 -595 -314 -1107 -70 -1854 157 -483 170 -538 131 -567 -49 -37 -112 -30 -140 15 -14 22 -67 70 -118 107 -86 62 -96 80 -141 234 -168 581 -636 1093 -1169 1277 -83 29 -105 51 -217 219 -69 103 -205 271 -303 373 l-178 186 83 104 c302 382 775 768 1165 951 182 86 219 86 293 2z m4454 -305 c524 -415 838 -1165 749 -1788 -44 -306 -62 -365 -110 -349 -163 53 -238 -29 -105 -115 87 -56 88 -78 15 -335 -63 -225 -108 -265 -299 -269 -251 -5 -198 -152 55 -152 63 0 101 -9 101 -23 0 -30 -135 -272 -160 -287 -11 -7 -20 -34 -20 -61 0 -65 63 -64 168 0 137 84 183 13 130 -199 -22 -86 -21 -90 58 -184 90 -108 169 -255 205 -380 37 -125 66 -122 219 20 167 155 334 241 570 296 391 91 504 123 667 190 209 87 213 83 172 -157 -36 -211 -14 -365 72 -511 l39 -66 -63 -124 c-81 -158 -102 -384 -48 -524 34 -88 33 -89 -15 -154 -122 -163 -171 -353 -135 -520 l22 -101 -98 -104 c-131 -138 -180 -241 -208 -432 -15 -100 -32 -159 -48 -159 -42 0 -488 195 -657 288 l-160 87 -13 207 c-16 276 -123 549 -247 630 -107 70 -113 10 -21 -207 249 -591 34 -1048 -757 -1611 -131 -92 -156 -137 -84 -151 61 -12 119 13 298 125 201 127 200 128 124 -137 -301 -1038 -1319 -1641 -2844 -1685 l-424 -12 -96 80 c-76 64 -194 145 -343 239 -4 2 12 85 35 183 105 449 61 870 -124 1179 -122 204 -207 161 -114 -58 146 -343 164 -783 48 -1192 -10 -37 -27 -45 -95 -45 -190 -1 -181 -87 17 -160 452 -167 800 -530 650 -680 -87 -87 -234 -47 -397 108 -186 176 -364 242 -379 139 -4 -30 14 -56 60 -88 239 -164 341 -352 232 -428 -111 -77 -318 -2 -526 190 -161 150 -234 184 -285 133 -29 -29 -25 -39 41 -112 278 -307 59 -417 -415 -207 -439 194 -592 383 -509 623 20 58 16 73 -48 170 -412 621 -368 1278 121 1787 190 198 189 290 -2 178 -559 -328 -728 -1202 -360 -1868 82 -149 88 -147 -209 -75 -946 229 -1362 693 -1473 1640 -49 421 -160 731 -266 746 -64 9 -75 -39 -28 -130 68 -133 101 -285 142 -651 69 -610 157 -835 455 -1160 227 -246 62 -418 -185 -194 -181 164 -273 110 -140 -82 249 -362 -108 -459 -377 -102 -96 128 -110 128 -249 0 -126 -115 -242 -176 -337 -177 -174 -1 -161 190 22 330 75 57 94 123 42 143 -54 21 -124 -11 -226 -103 -235 -211 -548 -190 -434 29 56 108 346 300 454 301 49 0 98 78 76 121 -10 19 -78 82 -151 141 -772 626 -760 1766 24 2498 601 560 1316 498 1808 -159 93 -123 139 -67 89 109 -10 33 8 49 109 93 l121 54 0 -86 c0 -47 -13 -124 -30 -171 -53 -150 -41 -230 43 -294 306 -233 353 -328 343 -702 l-6 -247 59 -51 c52 -45 72 -49 163 -40 179 18 1247 459 1489 615 122 78 130 76 169 -40 118 -357 662 -801 706 -577 3 17 -39 59 -100 100 -466 309 -609 747 -387 1186 99 197 111 250 55 250 -115 0 -324 -363 -324 -562 0 -130 -291 -294 -1090 -613 -630 -252 -594 -251 -564 -23 42 325 -77 586 -362 799 l-66 49 34 90 c89 234 33 559 -129 744 -76 86 -75 82 -14 202 87 172 84 318 -11 549 -26 64 -25 67 48 127 142 117 184 220 181 443 -3 242 -15 240 337 56 331 -173 606 -283 904 -360 446 -117 632 -210 883 -443 152 -141 229 -174 229 -97 0 224 -524 578 -1036 698 -127 30 -121 43 75 159 131 78 138 86 162 187 46 197 114 335 164 335 10 0 76 -55 146 -123 136 -130 147 -133 322 -85 36 10 53 -7 108 -111 153 -288 454 -492 412 -279 -11 55 -9 58 59 58 130 0 216 106 103 128 -378 73 -413 98 -508 372 -93 267 -89 317 32 439 147 148 71 229 -104 111 l-74 -51 -32 76 c-62 147 -60 181 10 254 105 108 73 155 -89 128 -105 -18 -120 701 -21 1033 114 384 354 776 637 1042 196 184 199 182 95 -95 -123 -327 -165 -539 -168 -841 l-3 -254 -75 -29 c-136 -54 -120 -141 27 -142 84 -1 102 -27 171 -251 5 -18 -15 -44 -52 -66 -126 -75 -66 -182 71 -125 l76 32 67 -67 68 -67 -72 -72 c-121 -121 -59 -172 116 -94 114 50 119 48 315 -154 271 -279 313 -374 217 -486 -102 -120 -63 -189 69 -122 l71 36 21 -72 c28 -104 25 -241 -10 -355 -40 -132 -38 -168 8 -168 97 0 182 183 182 393 0 124 0 124 65 137 36 7 80 17 97 22 18 5 66 62 106 127 171 278 259 267 419 -52 61 -122 258 -188 356 -119 66 46 191 39 314 -18 123 -58 179 -63 196 -19 26 68 -209 228 -337 229 -73 0 -84 27 -44 104 46 90 63 99 175 84 149 -19 173 74 34 132 -34 14 -61 32 -61 41 0 25 224 319 339 445 l107 116 132 -6 c171 -8 207 60 64 120 -96 40 -96 42 -34 196 l48 118 117 10 c173 15 176 125 3 153 -103 16 -110 129 -8 147 118 20 115 130 -4 144 -50 6 -55 15 -67 126 -19 165 -64 355 -156 650 -115 369 -110 340 -63 340 22 0 93 -41 156 -92z m-6342 -701 c285 -193 575 -493 750 -776 l97 -158 156 -52 c460 -155 887 -603 1062 -1116 54 -158 54 -158 -14 -216 -62 -52 -125 -182 -164 -335 -23 -90 -348 -354 -436 -354 -105 0 -371 153 -447 258 -239 329 -539 535 -922 631 -173 44 -180 48 -262 153 -106 134 -428 441 -601 570 -71 54 -130 111 -130 126 -2 48 371 754 510 968 251 383 265 394 401 301z m3488 -482 c247 -247 426 -558 531 -921 78 -269 75 -270 -156 -60 -481 437 -547 548 -586 981 -12 139 -10 155 21 155 19 0 105 -70 190 -155z m1841 -150 c176 -186 345 -862 251 -1005 l-34 -51 -97 146 c-54 80 -139 184 -189 229 l-92 84 0 157 c0 138 -17 286 -51 440 -9 41 -3 45 80 45 67 0 100 -11 132 -45z m-6371 -765 c336 -252 592 -484 746 -677 138 -173 137 -172 224 -173 180 -1 536 -170 727 -345 l103 -94 -116 51 c-240 107 -337 28 -331 -270 4 -227 -13 -270 -161 -404 -119 -108 -125 -142 -52 -306 69 -157 66 -275 -10 -419 -80 -150 -77 -181 40 -341 120 -164 119 -161 25 -209 -220 -112 -352 -61 -459 176 -170 377 -438 646 -975 977 -133 81 -243 150 -246 153 -3 3 -26 103 -50 223 -114 564 -23 1519 174 1819 47 72 55 68 361 -161z m8770 -84 c0 -30 -11 -128 -24 -219 -21 -146 -20 -179 11 -277 l35 -111 -116 -146 c-64 -81 -134 -171 -156 -201 -39 -54 -41 -54 -104 -22 -76 38 -104 27 -247 -92 l-92 -76 -34 58 c-19 32 -52 63 -73 70 -51 16 -50 24 9 197 27 79 59 181 71 227 43 169 548 631 705 645 8 0 15 -23 15 -53z m-392 -1157 c6 -17 21 -91 33 -165 12 -74 43 -172 70 -217 l49 -84 -66 -41 c-37 -22 -83 -59 -103 -81 -43 -47 -91 -54 -91 -13 0 16 -46 98 -103 182 -120 180 -118 192 62 353 120 106 131 112 149 66z m-8953 -764 c112 -74 309 -202 438 -285 250 -161 499 -388 603 -548 77 -119 73 -126 -50 -83 -345 121 -782 35 -1164 -228 -169 -117 -164 -118 -197 46 -102 493 -18 1365 121 1264 24 -17 136 -92 249 -166z m9192 -2606 c521 -546 615 -1213 262 -1854 -79 -145 -85 -119 66 -304 331 -406 -93 -636 -652 -352 -135 68 -141 67 -276 -50 -227 -195 -470 -277 -565 -190 -84 75 -33 208 128 340 95 78 99 85 72 129 -34 53 -154 8 -277 -105 -130 -118 -197 -153 -294 -153 -388 0 -6 490 482 619 195 51 170 152 -34 135 -138 -12 -139 -11 -169 46 -47 91 -39 113 106 277 316 358 509 769 562 1194 16 135 26 159 96 235 42 46 107 127 143 179 l65 96 61 -36 c34 -19 135 -112 224 -206z"
       id="path1" />
    <path
       d="M3407 6871 c-30 -80 205 -320 425 -435 137 -72 280 -118 607 -196 278 -67 358 -114 617 -367 241 -235 292 -273 363 -273 97 0 42 88 -224 363 -305 314 -419 383 -757 455 -424 90 -618 179 -854 389 -109 97 -157 114 -177 64z"
       id="path2" />
    <path
       d="M11232 6776 c-65 -34 -230 -92 -366 -129 -425 -115 -624 -254 -804 -563 -168 -288 -78 -371 113 -104 230 323 326 389 743 510 349 102 522 201 522 302 0 66 -59 62 -208 -16z"
       id="path3" />
    <path
       d="M11010 6237 c-296 -54 -680 -228 -680 -307 0 -60 78 -48 400 60 477 160 538 194 447 252 -31 20 -33 20 -167 -5z"
       id="path4" />
    <path
       d="M9027 6102 c-276 -169 -78 -599 219 -475 200 83 205 386 8 480 -91 43 -150 42 -227 -5z"
       id="path5" />
    <path
       d="M6805 6090 c-135 -59 -194 -283 -103 -398 205 -260 588 -19 445 281 -58 122 -210 174 -342 117z"
       id="path6" />
    <path
       d="M3463 6073 c-68 -81 -27 -98 413 -173 195 -33 457 -78 583 -100 241 -43 305 -32 275 47 -35 91 -1210 300 -1271 226z"
       id="path7" />
    <path
       d="M10710 5770 c-363 -48 -538 -103 -526 -165 9 -48 156 -45 642 13 442 52 438 51 430 120 -7 64 -210 76 -546 32z"
       id="path8" />
    <path
       d="M3449 5578 c-32 -101 83 -116 914 -117 648 -1 698 7 611 93 -73 74 -1502 96 -1525 24z"
       id="path9" />
    <path
       d="M10235 5398 c-37 -21 -47 -68 -18 -86 29 -18 887 -154 931 -148 117 17 51 124 -98 161 -297 75 -744 115 -815 73z"
       id="path10" />
    <path
       d="M4840 5327 c-27 -5 -180 -26 -340 -48 -516 -71 -850 -144 -867 -189 -24 -63 46 -95 176 -81 425 47 1292 204 1329 241 76 74 -71 112 -298 77z"
       id="path11" />
    <path
       d="M8431 5173 c-54 -54 -82 -135 -64 -183 19 -50 93 -34 156 33 117 125 28 270 -92 150z"
       id="path12" />
    <path
       d="M7653 5187 c-44 -45 19 -171 109 -218 74 -38 92 -37 118 11 53 99 -149 284 -227 207z"
       id="path13" />
    <path
       d="M10334 5127 c-51 -51 -7 -93 204 -194 393 -190 562 -230 562 -133 0 81 -709 384 -766 327z"
       id="path14" />
    <path
       d="M4520 4921 c-628 -221 -685 -254 -564 -319 105 -56 1006 291 1020 393 11 72 -88 56 -456 -74z"
       id="path15" />
    <path
       d="M5080 4845 c-16 -6 -106 -56 -200 -112 -93 -56 -309 -180 -480 -275 -313 -174 -379 -237 -289 -271 151 -58 1125 549 1028 641 -16 15 -42 23 -59 17z"
       id="path16" />
    <path
       d="M10327 4810 c-18 -47 39 -116 187 -227 252 -190 427 -263 454 -190 19 48 -14 78 -304 270 -272 181 -316 200 -337 147z"
       id="path17" />
    <path
       d="M7540 4599 c-104 -10 -289 -32 -410 -50 -334 -48 -583 -99 -934 -191 -126 -33 -176 -115 -96 -158 29 -16 78 -11 195 18 1001 254 2115 309 3060 151 338 -57 410 -42 333 67 -91 130 -1422 231 -2148 163z"
       id="path18" />
    <path
       d="M2619 4218 c-263 -515 -91 -1299 363 -1657 213 -169 268 -75 71 123 -373 372 -495 861 -350 1401 59 219 4 306 -84 133z"
       id="path19" />
    <path
       d="M8530 3198 c-33 -10 -117 -28 -186 -40 -100 -18 -125 -29 -119 -55 16 -84 415 -7 415 80 0 40 -19 43 -110 15z"
       id="path20" />
  </g>
  <path
     style="fill:#ffffff;stroke-width:0.91638"
     d="m 319.35853,743.30708 c -19.4285,-5.85184 -39.24777,-17.74757 -44.49957,-26.7091 -3.74546,-6.39113 -4.3719,-10.57498 -2.62585,-17.53717 l 1.48803,-5.93334 -5.08815,-8.4194 c -18.4845,-30.58648 -22.43574,-56.9581 -12.58013,-83.96311 3.86746,-10.59708 10.18848,-20.65166 20.06273,-31.91295 4.74543,-5.41201 9.1557,-11.05554 9.80059,-12.54118 1.27675,-2.94124 0.90815,-5.08808 -0.87359,-5.08808 -2.34445,0 -12.1591,5.60281 -17.20315,9.82064 -29.75109,24.87781 -37.16366,76.14615 -16.78234,116.07361 2.28515,4.47665 4.15481,8.69315 4.15481,9.36999 0,1.46877 -1.5888,1.23252 -16.54261,-2.45984 -37.44472,-9.24577 -62.25274,-24.33886 -77.38442,-47.08037 -10.91478,-16.4039 -16.05158,-32.57887 -20.66199,-65.06137 -2.48419,-17.50226 -5.52377,-29.51054 -9.53534,-37.67068 -3.3128,-6.73873 -5.95388,-9.04204 -9.75013,-8.50319 -3.15642,0.44803 -3.17176,2.71121 -0.0691,10.19193 4.16017,10.03045 5.40266,15.74603 8.41006,38.68698 3.1801,24.25844 4.76817,32.82555 7.9838,43.06987 4.05514,12.91887 9.91532,22.9345 20.37476,34.82245 6.64874,7.5568 9.20246,12.0732 9.20246,16.27506 0,3.91654 -1.3943,5.26072 -5.45246,5.25645 -3.64074,-0.004 -5.97105,-1.26321 -14.98553,-8.09871 -6.36218,-4.82431 -10.90507,-6.11918 -11.94656,-3.40512 -0.70243,1.8305 0.72569,6.39571 2.99981,9.58944 3.02726,4.25137 6.45653,12.22571 6.46628,15.03648 0.026,7.48424 -7.01363,9.54087 -16.48589,4.81634 -1.76403,-0.87985 -6.96261,-5.52792 -11.55239,-10.32903 -7.01732,-7.34041 -8.6651,-8.62773 -10.35649,-8.0909 -1.10629,0.35112 -5.18606,3.29713 -9.066164,6.54667 -12.455617,10.43146 -22.692224,13.96062 -27.5005,9.48102 -4.01636,-3.7418 -2.333647,-8.87243 5.659084,-17.25466 6.016516,-6.30971 7.283542,-8.38921 6.444189,-10.57653 -1.554049,-4.04979 -9.32216,-1.74956 -17.647781,5.22571 -6.01628,5.04049 -13.357905,8.73443 -18.857698,9.48827 -10.449439,1.43225 -13.942235,-5.75098 -6.768943,-13.92091 5.783112,-6.58659 22.855476,-16.90986 27.968157,-16.91171 2.469484,-8.9e-4 4.862959,-3.22479 4.862959,-6.55019 0,-1.95558 -1.685699,-3.98372 -8.018328,-9.64719 C 51.324436,618.95041 45.916112,613.0732 40.281814,604.70421 33.924764,595.26167 29.49656,585.67721 26.489166,574.85124 23.25934,563.22458 22.4123,541.89079 24.695197,529.66781 c 4.700984,-25.16977 16.828704,-47.14044 36.536224,-66.1893 18.362486,-17.74878 37.860693,-26.8233 57.634609,-26.8233 10.79412,0 19.53128,2.03602 29.72818,6.92753 10.90338,5.23043 20.14171,12.66299 30.06369,24.18729 9.91801,11.51968 11.03282,11.66657 11.03282,1.45361 v -7.24586 l 6.41466,-3.00375 c 3.52807,-1.65207 6.7772,-3.01975 7.22032,-3.03929 1.20731,-0.0533 -0.20229,10.55369 -2.34911,17.67649 -2.95364,9.79971 -2.18278,12.79036 4.88273,18.94318 19.85558,17.29072 22.52864,23.66035 21.28461,50.71896 l -0.55415,12.05309 3.93928,2.97824 c 7.24588,5.47815 14.78721,3.95441 49.87681,-10.07765 29.57593,-11.82718 49.84218,-21.06688 61.17594,-27.89108 2.89863,-1.7453 5.94722,-3.04003 6.77463,-2.87718 1.68843,0.3323 1.83378,0.56808 5.77173,9.36225 7.09886,15.85311 26.06843,35.01571 37.78655,38.17108 3.00246,0.80848 4.06046,0.71849 5.92627,-0.50404 4.42822,-2.90148 3.4292,-4.20771 -12.96409,-16.95085 -5.66592,-4.40435 -13.35642,-13.41461 -17.20741,-20.16037 -4.42477,-7.75085 -6.38271,-15.28678 -6.42838,-24.74227 -0.0502,-10.39855 1.36077,-15.82505 7.66717,-29.48689 5.36131,-11.61446 5.73758,-14.49936 1.89113,-14.49936 -3.68207,0 -7.02152,2.9454 -12.01897,10.60073 -4.92185,7.53951 -8.81786,17.30908 -9.73044,24.39985 -0.34415,2.67408 -1.40282,5.9713 -2.35261,7.32714 -2.212,3.15772 -11.77789,9.4777 -22.29876,14.73233 -19.97352,9.97572 -76.11682,32.65235 -81.67398,32.98863 l -3.54939,0.21478 0.34212,-13.35148 c 0.27277,-10.64487 0.0247,-14.44342 -1.22374,-18.73789 -3.46411,-11.91613 -10.09233,-21.5649 -20.51799,-29.86827 -3.35049,-2.66845 -6.19597,-4.9066 -6.32327,-4.97367 -0.1273,-0.0671 0.63872,-2.56072 1.70228,-5.54147 2.69699,-7.55862 3.37199,-21.81209 1.39789,-29.51776 -2.15195,-8.3999 -4.93296,-14.33549 -9.43003,-20.12684 -2.18737,-2.8169 -3.97704,-5.82801 -3.97704,-6.69135 0,-0.86333 1.32088,-4.39236 2.9353,-7.8423 2.39889,-5.1263 3.00321,-7.69893 3.30689,-14.07768 0.33002,-6.9317 0.0376,-8.81172 -2.61312,-16.80097 l -2.98471,-8.99587 6.05221,-5.96366 c 8.00303,-7.88591 9.66966,-12.2771 10.53098,-27.74675 0.60912,-10.94004 0.74442,-11.54267 2.6525,-11.8142 1.16302,-0.16549 10.62781,3.95606 22.45132,9.7767 22.98932,11.3175 32.43115,15.18451 48.63588,19.91937 41.9105,12.24584 47.56964,15.00287 69.0013,33.61619 7.18319,6.23859 10.11565,7.7638 12.88435,6.70136 4.0412,-1.55075 -2.1772,-13.58935 -10.7956,-20.89991 -14.53062,-12.3256 -32.65206,-21.37883 -56.50862,-28.23095 -8.01357,-2.30167 -7.94756,-2.50364 2.97452,-9.10089 4.11186,-2.48368 8.19208,-5.30691 9.06715,-6.27386 0.87507,-0.96695 2.58335,-5.36482 3.79617,-9.77305 2.3156,-8.41642 6.0676,-16.97933 8.22399,-18.76897 1.0168,-0.84389 2.601,0.11168 7.81891,4.71625 9.97274,8.80051 11.74463,9.89827 15.97675,9.89827 2.07083,0 5.17362,-0.40395 6.89509,-0.89766 3.96341,-1.13668 4.49033,-0.69696 9.73993,8.12822 5.17473,8.69932 11.91927,16.46759 17.51607,20.17476 7.21873,4.78148 11.43249,3.29466 9.93863,-3.50683 -0.56412,-2.56846 -0.46449,-2.65108 3.92485,-3.25478 5.52901,-0.76043 10.2631,-3.48844 10.2631,-5.91407 0,-2.42596 -0.512,-2.65584 -11.38895,-5.11358 -10.21499,-2.30816 -15.39141,-4.51866 -18.5757,-7.93246 -4.25012,-4.55642 -11.27246,-24.42224 -11.27246,-31.88916 0,-3.87492 0.50507,-5.07416 3.89462,-9.24741 6.96802,-8.57914 7.23349,-9.02377 6.93554,-11.61636 -0.264,-2.29713 -0.62127,-2.52876 -3.75149,-2.43232 -2.14755,0.0662 -5.23321,1.20905 -8.13585,3.01343 -2.57189,1.59878 -4.80354,2.77948 -4.95923,2.62378 -0.82528,-0.82528 -4.04609,-9.29952 -4.54476,-11.95771 -0.48582,-2.58964 -0.0701,-3.74622 2.60696,-7.25341 4.98253,-6.52746 5.44478,-7.697 3.72276,-9.41902 -1.02702,-1.02703 -2.84261,-1.41645 -5.9441,-1.27492 -2.45598,0.11206 -4.72608,-0.0569 -5.04466,-0.37548 -1.24436,-1.24437 -2.98672,-11.27235 -3.58399,-20.62732 -0.7529,-11.79279 0.77262,-31.62734 3.23766,-42.09533 4.90216,-20.81747 17.00617,-43.81734 33.16884,-63.02698 7.17066,-8.52246 18.75306,-19.391109 19.67842,-18.465753 0.28939,0.289388 -1.7948,7.242983 -4.63152,15.452423 -8.21549,23.77561 -10.65607,37.49438 -10.65607,59.89915 v 10.41444 l -5.03923,2.38393 c -3.55108,1.67993 -5.20502,3.04449 -5.60062,4.62065 -0.82208,3.27546 0.97834,4.76799 6.59862,5.4702 6.01846,0.75196 7.62935,2.45285 10.50384,11.0907 l 1.99715,6.00142 -4.22988,3.88345 c -4.499,4.13052 -5.10478,5.91826 -2.78985,8.23319 1.84707,1.84708 4.89006,1.82568 9.62193,-0.0676 l 3.76802,-1.50767 4.20945,4.20946 4.20946,4.20945 -4.35383,4.65458 c -3.00431,3.21186 -4.26407,5.28581 -4.0643,6.6911 0.4231,2.97625 3.59787,3.03759 11.32637,0.21885 6.20545,-2.26326 6.8632,-2.33725 9.34907,-1.05176 3.50143,1.81066 21.56811,20.69294 25.57892,26.73367 4.67546,7.04174 4.84074,9.95637 0.89028,15.69933 -4.30878,6.26387 -4.98088,9.00363 -2.53044,10.31507 1.45663,0.77957 2.94671,0.59525 6.69172,-0.82774 2.6498,-1.00686 5.11861,-1.52736 5.48625,-1.15669 0.36763,0.37068 1.10683,3.42628 1.64266,6.79024 0.99827,6.26709 0.17274,16.21818 -1.76916,21.32575 -0.51433,1.3528 -0.93515,4.08227 -0.93515,6.0655 0,3.34231 0.18841,3.60587 2.5777,3.60587 6.40047,0 12.05031,-11.71363 12.07351,-25.03161 0.0139,-7.98744 0.84075,-9.46813 5.7263,-10.25453 5.68384,-0.9149 7.28436,-2.25976 13.51421,-11.35559 3.08775,-4.50823 6.60768,-8.8478 7.82207,-9.64351 5.52241,-3.61841 9.63901,-0.77532 16.48119,11.3826 5.01564,8.91234 9.28244,12.0974 16.94884,12.65194 4.29835,0.31092 6.55214,-0.0505 10.25961,-1.64546 5.82249,-2.50477 9.79192,-2.13165 19.75237,1.85672 8.51407,3.40919 12.47054,3.3652 12.87747,-0.14317 0.55124,-4.75253 -10.48068,-12.73331 -20.29027,-14.6785 -2.94238,-0.58346 -5.54848,-1.57862 -5.79133,-2.21148 -0.61283,-1.59702 2.9959,-8.40437 5.03341,-9.49482 0.92156,-0.49319 3.94535,-0.66246 6.71954,-0.37613 6.39329,0.65983 9.23505,-0.66496 8.83598,-4.11924 -0.21658,-1.87473 -1.31685,-3.00234 -4.63417,-4.74936 -2.39258,-1.26003 -4.35134,-2.7943 -4.35281,-3.4095 -0.004,-1.63179 15.30201,-21.56661 22.74926,-29.62931 l 6.39361,-6.92197 5.8167,0.36717 c 13.49822,0.85208 17.30419,-4.44324 6.51697,-9.06719 -4.80983,-2.06173 -4.97885,-3.89594 -1.21592,-13.19488 l 2.59579,-6.41466 5.79566,-0.72929 c 6.8829,-0.8661 10.31151,-2.33802 10.75002,-4.61506 0.49485,-2.56952 -2.33784,-4.99091 -7.64283,-6.53311 -4.57448,-1.32984 -5.94289,-2.62396 -5.94289,-5.62027 0,-0.72114 2.20695,-2.28719 4.90432,-3.4801 5.35096,-2.36645 6.73944,-4.72359 4.59004,-7.79228 -0.71479,-1.0205 -2.73562,-2.12486 -4.49073,-2.45412 -1.75511,-0.32926 -3.37325,-0.89336 -3.59586,-1.25355 -0.22261,-0.36019 -1.02666,-4.81421 -1.78678,-9.89784 -1.72213,-11.51761 -4.64445,-23.11317 -11.08556,-43.98675 -2.76168,-8.949721 -5.02327,-16.787684 -5.02575,-17.417696 -0.0148,-3.738466 11.17666,3.647049 21.91796,14.464236 18.71671,18.84894 32.38727,44.64804 38.10119,71.90461 3.31385,15.80778 2.49056,39.59389 -1.91179,55.23414 l -1.36044,4.83324 -5.75025,-0.58913 c -4.71201,-0.48276 -6.02987,-0.3095 -7.29897,0.9596 -2.3241,2.3241 -1.97315,3.20581 3.16658,7.95577 l 4.71531,4.35773 -0.53936,4.86143 c -0.92725,8.35765 -5.90896,22.50462 -9.17576,26.0572 -2.76249,3.00415 -3.43804,3.24523 -12.3146,4.39484 -9.7181,1.2586 -12.14317,2.29691 -12.14317,5.19922 0,2.80418 4.15726,4.66988 12.61704,5.66229 4.40083,0.51625 8.13161,1.0407 8.29062,1.16543 0.48518,0.38062 -5.37095,11.57654 -8.65337,16.54376 -3.10628,4.70064 -3.56164,6.31669 -2.53425,8.99399 0.85235,2.22121 4.31318,1.74252 10.90583,-1.50847 7.69372,-3.79393 9.18285,-3.14228 9.09709,3.98098 -0.0327,2.71342 -0.38752,7.20931 -0.78855,9.99087 l -0.72917,5.05738 5.20312,6.85556 c 5.09551,6.71379 10.72526,17.28289 13.73713,25.78966 2.56166,7.23516 4.03607,6.90892 16.08475,-3.55911 12.18616,-10.58748 21.35019,-14.67939 47.65178,-21.27736 11.84421,-2.97122 25.45246,-6.92186 30.24055,-8.77921 16.56115,-6.42422 16.22785,-6.58295 14.22185,6.77276 -2.468,16.43174 -1.38246,25.79819 4.12174,35.56361 l 2.67463,4.74526 -3.24509,7.02359 c -6.0128,13.01391 -7.23501,25.64733 -3.59211,37.13006 l 1.61037,5.07603 -4.16161,6.4332 c -5.68934,8.79482 -8.09058,16.28619 -8.01915,25.01806 0.0313,3.83067 0.44076,8.5791 0.90982,10.55211 0.84713,3.56316 0.80982,3.63397 -5.55366,10.53837 -7.63203,8.28078 -11.32844,15.35215 -13.21391,25.27871 -0.76586,4.03207 -1.80441,8.86665 -2.3079,10.74352 l -0.91544,3.41249 -5.23957,-1.93381 c -8.68094,-3.20394 -31.26403,-13.48431 -40.19078,-18.29582 -9.07986,-4.89404 -9.4558,-5.416 -9.48613,-13.17037 -0.0888,-22.71247 -11.35809,-49.02635 -20.99622,-49.02635 -2.94474,0 -2.47419,4.02469 1.77786,15.20635 4.96771,13.06365 6.35228,19.42836 6.36838,29.27466 0.0415,25.40583 -14.83273,46.83603 -51.90354,74.78037 -6.63,4.99777 -12.30721,9.7453 -12.61603,10.55007 -0.81795,2.13151 1.12983,3.98008 4.19365,3.98008 3.71088,0 7.96802,-1.93238 18.23144,-8.27552 4.86802,-3.00861 9.32348,-5.47019 9.90102,-5.47019 1.69333,0 1.2475,2.90773 -2.17907,14.21233 -14.22041,46.91446 -48.93141,79.81277 -102.99404,97.61543 -25.71609,8.46823 -49.46377,12.20652 -88.19323,13.8831 l -25.34425,1.09714 -6.27087,-5.08 c -3.44898,-2.794 -10.0853,-7.6251 -14.74739,-10.73577 -4.66208,-3.11067 -8.47651,-5.81833 -8.47651,-6.01701 0,-0.19868 1.01959,-5.07708 2.26577,-10.84089 6.35341,-29.38583 4.48812,-53.82162 -5.70392,-74.72317 -3.28829,-6.74353 -8.98229,-13.91287 -11.04981,-13.91287 -0.56431,0 -1.44194,0.77714 -1.95028,1.72699 -1.03454,1.93306 -0.18517,5.50536 4.45223,18.72527 6.64838,18.95261 7.47893,43.57885 2.23085,66.14567 -0.82049,3.52807 -1.89831,6.93013 -2.39518,7.56014 -0.49687,0.63001 -2.64704,1.14548 -4.77816,1.14548 -5.2672,0 -9.64653,1.63225 -9.64653,3.59542 0,2.63052 3.65929,5.18487 13.22305,9.23034 19.61313,8.29632 35.48262,20.54481 40.77022,31.46755 2.64266,5.459 2.44408,8.45957 -0.77273,11.67637 -2.14553,2.14553 -3.4678,2.67465 -6.64375,2.65853 -5.5859,-0.0284 -10.0671,-2.41723 -19.54357,-10.41845 -9.12743,-7.7065 -15.84038,-11.55455 -20.15702,-11.55455 -5.95973,0 -6.88815,4.93576 -1.67327,8.89564 18.23749,13.84848 23.86463,26.19904 13.4959,29.62103 -7.18422,2.37101 -18.36413,-2.38465 -30.73317,-13.07313 -4.03852,-3.48982 -8.81366,-7.3433 -10.61142,-8.56329 -4.95575,-3.36307 -11.26031,-2.67783 -11.26031,1.22386 0,0.68349 2.05968,3.78824 4.57708,6.89944 7.47542,9.23876 8.91815,13.73489 5.5031,17.14994 -2.52243,2.52243 -11.14838,2.37886 -20.16037,-0.33553 z M 211.85657,634.01552 c 0.86907,-2.26478 -2.01787,-6.84505 -9.58935,-15.21393 -13.68606,-15.12744 -20.37968,-27.90335 -24.13399,-46.0639 -1.85857,-8.99041 -1.38052,-26.9413 1.00056,-37.5716 1.12894,-5.04009 2.25858,-12.15349 2.51032,-15.80756 0.43015,-6.24391 0.34418,-6.64375 -1.42859,-6.64375 -3.9445,0 -9.69233,11.51644 -12.44388,24.93273 -1.88194,9.17617 -1.88876,27.52734 -0.0139,37.41076 3.04406,16.04696 9.82632,31.07979 19.51608,43.25719 9.49378,11.9311 22.77428,20.41285 24.58276,15.70006 z M 569.30528,593.1115 c 5.45003,-2.1978 8.00417,-4.87859 6.68373,-7.01512 -0.67184,-1.08706 -2.88391,-0.82809 -13.91189,1.62872 -7.21215,1.60673 -13.44758,3.25589 -13.85649,3.66481 -1.06121,1.06121 0.11446,3.61206 1.91466,4.15426 3.15507,0.95028 14.28278,-0.46183 19.16999,-2.43267 z M 288.92683,517.52062 c 15.05629,-6.38701 40.55575,-22.49777 49.68914,-31.39398 4.89122,-4.76418 5.70961,-7.5591 2.6871,-9.1767 -2.12635,-1.13799 0.55465,-2.5134 -38.45469,19.72818 -14.23664,8.11718 -25.82984,15.37009 -28.31233,17.7127 l -4.20386,3.96699 2.18591,1.77864 c 2.78854,2.26897 6.16106,1.73133 16.40873,-2.61583 z m 141.06307,-0.62486 c 45.86005,-10.29173 81.47008,-13.92819 128.01242,-13.07251 28.81401,0.52974 35.86655,1.0809 61.41428,4.79948 17.88397,2.60308 27.80274,2.93908 28.55934,0.96743 0.91965,-2.39657 -2.17917,-6.6738 -5.91933,-8.17032 -14.81618,-5.92826 -67.51232,-10.4061 -111.93061,-9.51129 -38.40188,0.77362 -77.88026,6.55104 -117.4841,17.19308 -3.99264,1.07287 -8.97638,4.992 -8.97638,7.05887 0,2.36838 2.84739,4.8017 5.61876,4.8017 1.42206,0 10.73958,-1.82989 20.70562,-4.06644 z m 301.58616,-10.45623 c 0.18574,-1.31204 -0.52937,-3.04375 -1.83276,-4.43819 -2.68914,-2.87701 -29.06247,-20.47794 -34.9072,-23.29624 -4.02049,-1.93866 -4.47829,-1.98714 -5.84619,-0.61924 -3.28543,3.28543 1.41865,9.3349 14.79016,19.02018 11.17308,8.09292 19.24819,12.08977 23.75742,11.75896 3.12395,-0.22918 3.78375,-0.62544 4.03857,-2.42547 z m -450.8051,-15.42016 c 17.12847,-4.8949 44.69399,-16.80066 49.40619,-21.33891 5.30949,-5.11351 -0.77731,-6.90285 -12.40043,-3.64534 -8.72848,2.44625 -46.06155,15.94335 -51.11005,18.47792 -7.29811,3.66396 -8.58792,6.15479 -4.35281,8.40603 3.07491,1.63452 7.78715,1.14951 18.4571,-1.8997 z m 459.03622,-10.58964 c 0.2441,-2.11899 -0.38813,-2.93443 -4.12371,-5.31872 -10.49175,-6.69652 -34.02994,-16.29439 -41.97101,-17.11398 -3.58189,-0.36969 -4.93158,-0.14057 -5.87609,0.99749 -2.36575,2.85057 1.01076,5.69507 14.82218,12.48672 17.83686,8.77113 26.54097,11.91449 32.27845,11.6569 4.2496,-0.1908 4.60281,-0.38722 4.87018,-2.70841 z M 525.96854,467.48355 c 2.18228,-6.2427 -8.83673,-17.13906 -14.65235,-14.48929 -6.78796,3.09281 2.7459,18.19222 10.97452,17.3811 2.09598,-0.20661 2.98295,-0.90401 3.67783,-2.89181 z m 39.67557,0.33354 c 6.24953,-3.81038 8.76144,-12.31535 4.46813,-15.12845 -4.03743,-2.64541 -10.36326,2.14933 -12.57498,9.53138 -2.00185,6.68158 1.90459,9.37863 8.10685,5.59707 z m -303.52128,-2.33634 c 30.87455,-3.98666 77.70797,-12.86281 80.8325,-15.31985 1.7165,-1.34981 1.38031,-4.15172 -0.62705,-5.22603 -3.44022,-1.84114 -17.63316,-0.92344 -42.89585,2.77361 -26.69834,3.90715 -48.18878,8.06034 -53.76602,10.39065 -6.96247,2.90911 -4.71722,8.29786 3.6271,8.70529 1.02895,0.0502 6.80214,-0.54541 12.82932,-1.32367 z m 483.73578,-10.13779 c 2.11265,-0.81069 1.77245,-4.31919 -0.63842,-6.5841 -3.93751,-3.69909 -15.00794,-6.41425 -36.39441,-8.92615 -19.30296,-2.26719 -27.64418,-1.54647 -28.92834,2.49956 -0.34707,1.09354 -0.0598,2.38835 0.69799,3.14615 0.77472,0.77473 9.84847,2.71084 22.7746,4.85954 33.9249,5.6393 39.21249,6.26216 42.48858,5.005 z M 331.50057,434.95959 c 5.15389,-2.06183 2.06155,-5.88754 -5.94477,-7.35462 -14.76602,-2.70574 -82.13663,-3.61847 -92.33701,-1.25098 -2.58612,0.60024 -3.26388,1.23017 -3.49928,3.25237 -0.47718,4.09927 3.96142,5.32728 22.28507,6.16545 21.95283,1.00419 76.3447,0.44846 79.49599,-0.81222 z m 380.52692,-8.01258 c 20.23771,-2.12455 33.69187,-4.00508 36.42612,-5.09139 3.37489,-1.34085 3.39455,-4.74558 0.0401,-6.94332 -6.3835,-4.18225 -54.17316,0.92041 -66.23061,7.07166 -2.94957,1.50476 -3.73435,2.38652 -3.51183,3.94583 0.51728,3.62486 6.65073,3.81235 33.27624,1.01722 z m -244.42752,0.0425 c 15.79061,-6.59774 14.5057,-29.96586 -1.89135,-34.39721 -4.60888,-1.24557 -11.34091,10e-4 -15.32519,2.83827 -5.90917,4.20771 -8.67395,16.79082 -5.17157,23.53698 3.96995,7.64678 14.36857,11.37274 22.38811,8.02196 z m -104.78832,-0.0543 c 4.35376,-1.67069 0.0138,-8.16868 -17.28296,-25.87664 -18.0109,-18.43912 -26.53843,-23.77754 -44.95595,-28.14342 -29.50602,-6.99443 -43.47575,-12.64175 -55.44101,-22.41224 -11.30492,-9.23127 -14.03559,-11.07464 -15.98913,-10.7936 -2.05823,0.2961 -2.78983,2.46842 -1.95353,5.80049 0.90226,3.59492 9.05786,12.6111 16.41813,18.1506 12.39127,9.32595 21.21575,12.94977 48.60035,19.95804 8.12892,2.08036 16.84171,4.70458 19.36175,5.8316 6.64532,2.97195 14.38731,9.00708 26.70936,20.82083 12.30326,11.79572 16.4978,15.17883 20.19555,16.28874 1.41879,0.42587 2.649,0.80974 2.73377,0.85307 0.0848,0.0433 0.80643,-0.17154 1.60367,-0.47747 z m 253.72694,-1.59822 c 5.636,-2.35488 10.71351,-10.23705 10.71351,-16.63135 0,-3.52764 -1.91335,-8.6729 -4.26399,-11.46648 -4.94246,-5.87378 -14.23604,-8.26748 -20.1368,-5.18654 -5.61549,2.93199 -10.41766,10.28606 -10.40633,15.9363 0.014,7.00401 4.74791,14.79569 10.51622,17.3091 3.61527,1.57527 9.85762,1.59319 13.57739,0.039 z M 315.15932,414.37242 c 2.31515,-1.69287 1.50245,-4.34951 -1.94678,-6.36397 -6.7797,-3.95956 -44.47379,-11.63178 -67.46846,-13.73247 -12.98433,-1.18619 -16.34485,-0.45003 -16.94434,3.71187 -0.53475,3.71248 2.87526,4.57853 49.42587,12.55279 31.04839,5.31867 34.42166,5.66863 36.93371,3.83178 z m 354.83513,-3.29974 c 1.57828,-0.96239 6.67015,-6.73643 11.31528,-12.8312 9.53999,-12.51724 14.35066,-17.02877 22.92853,-21.50284 6.22631,-3.24752 9.28679,-4.38176 28.86598,-10.69795 20.59833,-6.64496 30.18146,-12.67378 29.6024,-18.6231 -0.23986,-2.46436 -0.67619,-2.89725 -3.16379,-3.13885 -1.78535,-0.17338 -5.27931,0.81537 -9.1638,2.59328 -8.63113,3.9504 -13.33622,5.65637 -28.72957,10.4168 -20.88673,6.45926 -29.48807,10.97078 -38.90481,20.40612 -8.48832,8.50507 -17.91076,24.7787 -17.91076,30.93392 0,4.66358 0.85568,5.0688 5.16054,2.44382 z m 47.78312,-10.8966 c 28.33658,-9.45583 33.23652,-12.19587 28.56873,-15.97561 -1.09469,-0.88644 -2.99298,-1.6117 -4.21841,-1.6117 -7.57506,0 -30.47821,6.79288 -41.33179,12.25865 -8.38544,4.22285 -12.13631,7.4378 -12.13631,10.40234 0,2.28345 0.11601,2.32572 5.00058,1.82159 2.75031,-0.28386 13.60305,-3.38673 24.1172,-6.89527 z"
     id="path21"
     transform="scale(0.75)" />
  <path
     style="fill:#ffffff;stroke-width:0.91638"
     d="m 614.20389,724.42077 c -1.89688,-1.49634 -2.52004,-2.787 -2.52004,-5.21935 0,-5.08651 2.46038,-9.04579 9.85596,-15.86036 5.91605,-5.45127 6.78555,-6.64113 6.29151,-8.60952 -0.73671,-2.93528 -3.37968,-3.74184 -7.68534,-2.34534 -4.04698,1.31259 -6.89573,3.21363 -14.78063,9.86344 -7.10769,5.99436 -10.98689,7.72603 -17.19657,7.67655 -5.69489,-0.0454 -8.34404,-1.30808 -9.10495,-4.33981 -0.853,-3.3986 0.14367,-6.12598 4.22224,-11.55412 7.38313,-9.82618 20.52598,-18.39374 36.52609,-23.81062 8.53765,-2.89044 10.19929,-3.92696 10.19929,-6.36224 0,-2.60259 -1.63088,-3.11621 -11.45475,-3.6074 l -9.1638,-0.45819 -1.74671,-3.2623 c -1.14849,-2.14501 -1.5406,-4.08351 -1.14491,-5.66008 0.33099,-1.31878 4.15765,-6.65486 8.50369,-11.85797 21.03573,-25.18414 32.94917,-50.20173 37.0155,-77.73053 1.52399,-10.31734 2.34681,-12.17941 8.80135,-19.91788 3.26414,-3.91343 7.04859,-8.86718 8.40987,-11.00831 1.36129,-2.14114 2.9535,-3.89372 3.53825,-3.89462 1.83371,-0.003 9.62124,6.70602 17.8911,15.41293 22.91315,24.12408 33.85145,52.66703 30.94585,80.75166 -1.45748,14.08757 -4.34847,23.47173 -12.09812,39.27052 -6.32518,12.8948 -6.37683,11.92343 1.13059,21.26428 6.20837,7.72457 9.22616,13.7607 9.32431,18.65027 0.15716,7.83013 -4.46044,12.46002 -14.20685,14.24464 -9.40461,1.72204 -20.6727,-0.77428 -36.91724,-8.17858 -4.33138,-1.97426 -7.27505,-2.79132 -8.73569,-2.42472 -1.21164,0.3041 -5.90079,3.47117 -10.42033,7.03793 -10.90148,8.60329 -19.9618,13.09813 -27.33979,13.56332 -4.71187,0.29708 -6.02698,0.0332 -8.13988,-1.6336 z"
     id="path22"
     transform="scale(0.75)" />
  <path
     style="fill:#782121;stroke-width:1.15961"
     d="m 174.76255,446.31429 c -2.24124,-1.76621 -5.77658,-6.90722 -8.56353,-12.45292 -13.19483,-26.25607 -31.13711,-43.91897 -66.743061,-65.70375 -15.926245,-9.74415 -14.996692,-8.37934 -18.547842,-27.23291 -1.461089,-7.75713 -1.976166,-16.98596 -2.006311,-35.94784 -0.0419,-26.35519 1.066927,-38.1054 5.361981,-56.82079 2.226639,-9.70241 9.185376,-27.25078 10.806191,-27.25078 7.517462,0 58.826762,43.59227 75.500222,64.14483 4.31931,5.32419 4.88209,5.62851 12.06804,6.5257 9.59594,1.19808 23.1274,6.45635 33.9014,13.17396 7.02247,4.37852 15.34789,11.27655 13.55475,11.2308 -0.27062,-0.007 -3.07439,-0.79588 -6.2306,-1.75329 -4.51691,-1.37017 -6.57741,-1.4639 -9.67898,-0.44029 -5.46939,1.80506 -7.33804,6.89812 -8.04228,21.91947 -0.65232,13.91367 -2.52747,18.45098 -10.62593,25.71158 -6.81956,6.114 -7.58616,8.90532 -4.65707,16.95715 5.65816,15.55383 5.74521,19.7822 0.63697,30.94007 -4.60866,10.06663 -4.15947,13.75202 2.90171,23.80677 6.82098,9.71273 6.68985,10.99574 -1.44456,14.13363 -7.64745,2.95002 -13.64706,2.63954 -18.1911,-0.94139 z"
     id="path35"
     transform="scale(0.75)" />
  <path
     style="fill:#782121;stroke-width:1.15961"
     d="m 55.743305,447.16172 c -0.349002,-0.5647 -1.483596,-6.38739 -2.521319,-12.93932 -3.783967,-23.89101 -0.757175,-68.24899 5.136929,-75.28228 1.901846,-2.26942 2.436271,-1.99273 26.697479,13.82243 30.931346,20.16323 39.077796,26.19534 50.162336,37.1432 7.88311,7.78591 15.79657,18.10981 14.71248,19.1939 -0.22298,0.22299 -4.26949,-0.60905 -8.99225,-1.84897 -22.39397,-5.87935 -47.951599,-0.7054 -72.094094,14.5949 -10.138123,6.42503 -11.959477,7.16407 -13.101561,5.31614 z"
     id="path36"
     transform="scale(0.75)" />
  <path
     style="fill:#782121;stroke-width:1.15961"
     d="m 270.81549,336.23086 c -6.51695,-3.12316 -10.27956,-5.96163 -15.62199,-11.78507 -25.81715,-28.14158 -36.66703,-35.44161 -64.21541,-43.20553 -8.46391,-2.38537 -10.21953,-3.36227 -14.45421,-8.043 -9.66737,-10.68565 -27.8765,-28.17387 -38.2933,-36.77727 -5.87054,-4.84857 -11.05701,-9.47939 -11.52548,-10.2907 -1.03058,-1.7848 7.66147,-19.67931 22.10195,-45.50178 16.12454,-28.83389 25.79998,-42.05437 30.77759,-42.05437 3.91784,0 21.1694,13.72154 34.00075,27.0435 6.94258,7.20803 15.14452,17.34714 20.02983,24.76056 l 8.27297,12.55418 11.99413,4.755 c 20.36819,8.07484 36.87051,20.80912 50.63021,39.06963 10.04365,13.32893 20.75748,35.58778 20.75748,43.12536 0,1.38344 -1.35621,3.78041 -3.01381,5.3266 -3.59498,3.35337 -7.82575,11.34999 -9.71297,18.35859 -2.42631,9.01061 -22.36726,26.77835 -30.05366,26.77835 -1.69923,0 -6.95256,-1.85133 -11.67408,-4.11405 z"
     id="path37"
     transform="scale(0.75)" />
  <path
     style="fill:#782121;stroke-width:1.15961"
     d="m 345.36973,297.68952 c -7.99875,-7.49527 -8.4459,-8.20426 -11.91387,-18.8904 -7.11091,-21.91147 -19.19413,-41.1554 -35.58575,-56.67445 -12.68245,-12.00733 -21.36801,-17.65693 -41.01697,-26.67981 -6.64632,-3.05202 -8.22293,-4.45211 -13.33549,-11.84245 -8.02139,-11.59513 -15.71998,-20.95749 -25.29054,-30.75616 l -8.14511,-8.33924 5.12175,-6.69424 c 15.9105,-20.79538 48.1002,-47.798542 72.11381,-60.494523 12.80573,-6.770379 17.37626,-7.994068 20.99705,-5.621633 2.91759,1.911675 20.70408,23.710047 40.03871,49.069746 l 10.73667,14.08243 -3.12232,7.37031 c -13.85839,32.71308 -16.07752,42.80726 -15.25906,69.40934 0.67599,21.97116 2.47047,30.94309 12.75639,63.77843 7.87749,25.14698 8.18435,26.49322 6.50118,28.52131 -2.60034,3.13324 -6.26784,1.56571 -14.59645,-6.23866 z"
     id="path38"
     transform="scale(0.75)" />
  <path
     style="fill:#782121;stroke-width:1.15961"
     d="m 446.16649,239.61915 c -4.94688,-4.37642 -13.77781,-12.91825 -19.62429,-18.98183 -15.36447,-15.93501 -19.49353,-25.13794 -20.88344,-46.54532 -0.71524,-11.01623 -0.66012,-11.40085 1.47067,-10.26049 3.44946,1.8461 18.48397,17.47316 24.19863,25.15236 7.07733,9.51033 15.94654,26.92419 20.13963,39.5423 3.73595,11.24248 5.53708,19.05011 4.39462,19.05011 -0.38583,0 -4.74895,-3.58071 -9.69582,-7.95713 z"
     id="path39"
     transform="scale(0.75)" />
  <path
     style="fill:#782121;stroke-width:1.15961"
     d="m 534.95019,281.49481 c -0.95035,-1.11612 -2.97494,-4.11661 -4.4991,-6.66775 -4.3492,-7.2797 -11.33749,-14.25283 -15.7399,-15.70576 -7.68081,-2.53489 -15.42413,1.66915 -24.28076,13.18261 -6.6483,8.64268 -8.2875,10.06061 -11.63057,10.06061 -4.89061,0 -7.72319,-8.50045 -11.47153,-34.42549 -3.07489,-21.26728 -11.37293,-42.32093 -24.36426,-61.81666 -5.78741,-8.685 -23.80784,-27.85445 -32.34605,-34.4085 l -4.5216,-3.47084 2.08866,-8.60367 c 1.14876,-4.73202 4.87941,-16.80346 8.29032,-26.82543 3.41092,-10.02197 6.20167,-19.829879 6.20167,-21.795358 0,-4.883206 -4.509,-9.269588 -9.51406,-9.255336 -8.6825,0.02472 -25.50043,13.908378 -39.66926,32.748044 -3.71737,4.94283 -7.18013,8.98696 -7.69501,8.98696 -0.78474,0 -23.39307,-30.086299 -25.89881,-34.465135 -2.3599,-4.123992 63.89877,-45.54781 72.85512,-45.54781 1.66984,0 4.30013,1.615924 6.6011,4.055393 6.3031,6.682501 21.34488,28.917868 31.75162,46.936523 14.346,24.839269 15.72839,25.812179 23.5968,16.606929 4.64538,-5.43462 4.67383,-5.44757 7.11586,-3.23757 1.34851,1.22039 4.7414,5.89354 7.53976,10.38478 20.29189,32.56759 34.51144,85.77571 29.09274,108.86205 -1.02339,4.36012 -1.56605,8.40425 -1.20592,8.98696 0.36013,0.5827 3.32902,1.05945 6.59757,1.05945 5.59216,0 6.264,0.33326 11.38732,5.64862 2.9945,3.10674 7.34528,9.04746 9.66841,13.20159 l 4.22386,7.55297 -3.14946,7.38145 c -5.48829,12.86301 -7.4615,14.75493 -11.02452,10.57037 z"
     id="path40"
     transform="scale(0.75)" />
  <path
     style="fill:#782121;stroke-width:1.15961"
     d="m 550.24514,243.80755 c -2.79609,-3.98615 -8.02636,-10.37849 -11.62284,-14.20519 l -6.53905,-6.95765 -1.44733,-16.81431 c -0.79603,-9.24788 -1.73533,-18.84645 -2.08733,-21.33016 l -0.64001,-4.51584 5.6146,0.63285 c 4.33268,0.48835 6.22827,1.38703 8.30235,3.93603 9.92923,12.20286 20.18072,50.12116 16.69555,61.75364 -0.78243,2.6115 -1.82075,4.74818 -2.30738,4.74818 -0.48663,0 -3.17248,-3.26139 -5.96856,-7.24755 z"
     id="path41"
     transform="scale(0.75)" />
  <path
     style="fill:#782121;stroke-width:1.15961"
     d="m 653.05941,311.38132 c -1.09304,-1.85037 -3.02025,-3.69213 -4.28268,-4.09281 -3.0846,-0.97901 -2.95715,-2.16433 1.88615,-17.54239 4.71972,-14.98568 9.38349,-22.22317 21.63425,-33.57318 12.53803,-11.61616 26.26101,-20.68487 28.26632,-18.67956 0.36616,0.36615 0.0885,4.95486 -0.61698,10.19713 -1.74238,12.94683 -1.61172,20.69427 0.44741,26.53048 2.00261,5.67599 2.63379,4.3313 -9.18563,19.5696 -6.8632,8.84845 -9.65678,11.64878 -11.01627,11.04288 -1.00176,-0.44646 -3.67453,-1.03313 -5.93949,-1.30371 -3.46521,-0.41396 -5.11985,0.28763 -10.43647,4.42519 -3.4751,2.70443 -6.86981,5.33868 -7.54382,5.8539 -0.74105,0.56648 -2.01101,-0.39308 -3.21279,-2.42753 z"
     id="path42"
     transform="scale(0.75)" />
  <path
     style="fill:#782121;stroke-width:1.15961"
     d="m 668.51394,356.55907 c 0,-0.64897 -2.56397,-5.31392 -5.6977,-10.36654 -8.31167,-13.40116 -8.29882,-12.83616 -0.47819,-21.03528 6.67964,-7.0029 10.48146,-9.8835 11.58622,-8.77874 0.3153,0.3153 1.52831,4.94358 2.69557,10.28507 1.16727,5.34149 3.34327,12.23456 4.83555,15.31794 l 2.71325,5.60615 -2.87161,1.88676 c -1.57938,1.03771 -4.5183,3.32177 -6.53093,5.07568 -3.76699,3.28275 -6.25216,4.08129 -6.25216,2.00896 z"
     id="path43"
     transform="scale(0.75)" />
</svg>
