<?xml version="1.0" encoding="UTF-8" standalone="no"?>
<svg
   version="1.0"
   width="600.000000pt"
   height="600.000000pt"
   viewBox="0 0 600.000000 600.000000"
   preserveAspectRatio="xMidYMid meet"
   id="svg6"
   sodipodi:docname="frog10_t0.svg.svg"
   inkscape:version="1.4.3 (0d15f75, 2025-12-25)"
   xmlns:inkscape="http://www.inkscape.org/namespaces/inkscape"
   xmlns:sodipodi="http://sodipodi.sourceforge.net/DTD/sodipodi-0.dtd"
   xmlns="http://www.w3.org/2000/svg"
   xmlns:svg="http://www.w3.org/2000/svg">
  <defs
     id="defs6" />
  <sodipodi:namedview
     id="namedview6"
     pagecolor="#505050"
     bordercolor="#ffffff"
     borderopacity="1"
     inkscape:showpageshadow="0"
     inkscape:pageopacity="0"
     inkscape:pagecheckerboard="1"
     inkscape:deskcolor="#505050"
     inkscape:document-units="pt"
     inkscape:zoom="0.37566209"
     inkscape:cx="114.46457"
     inkscape:cy="155.72506"
     inkscape:window-width="1024"
     inkscape:window-height="1022"
     inkscape:window-x="0"
     inkscape:window-y="30"
     inkscape:window-maximized="0"
     inkscape:current-layer="svg6" />
  <g
     transform="translate(0.000000,600.000000) scale(0.050000,-0.050000)"
     fill="#000000"
     stroke="none"
     id="g6">
    <path
       d="M3460 10264 c-137 -136 -191 -439 -175 -979 l10 -345 -68 -128 c-85 -161 -147 -400 -147 -567 0 -128 -1 -129 -110 -252 -86 -95 -203 -290 -283 -469 -1 -3 -129 9 -283 26 -353 41 -432 36 -440 -25 -9 -58 38 -75 240 -92 85 -7 217 -23 293 -35 l138 -23 -10 -173 c-12 -208 20 -177 -245 -233 -421 -89 -510 -129 -438 -199 23 -22 74 -17 308 32 397 82 373 87 427 -87 25 -80 49 -154 54 -165 5 -11 -57 -54 -137 -95 -325 -167 -461 -274 -424 -335 24 -38 75 -19 317 118 330 187 311 185 402 52 88 -127 253 -284 406 -386 119 -79 114 -69 78 -140 -16 -30 -48 -115 -73 -189 l-45 -135 -105 0 c-819 0 -1052 -1099 -384 -1813 66 -70 116 -132 112 -136 -24 -23 -340 -91 -425 -91 -447 0 -522 -588 -78 -617 118 -7 125 -11 125 -57 0 -298 424 -367 615 -102 39 54 105 115 147 137 l77 39 -49 -72 c-188 -277 86 -610 377 -458 80 42 93 38 93 -25 0 -135 135 -245 300 -245 196 0 320 129 320 333 l0 97 52 -65 c170 -216 519 -139 562 124 26 161 -73 330 -212 361 -92 20 -182 134 -182 231 0 95 2 95 96 20 189 -151 417 -250 781 -342 l88 -22 -82 -40 c-301 -149 -187 -595 145 -574 l108 7 9 -83 c40 -355 635 -340 635 16 0 81 23 71 80 -37 118 -222 414 -236 555 -27 80 119 51 320 -61 415 -138 118 -88 256 100 276 132 14 369 56 462 82 l46 13 -51 -95 c-192 -361 290 -665 562 -355 88 101 266 19 267 -123 1 -91 75 -207 165 -260 279 -164 628 72 538 364 -29 97 -28 97 117 -1 314 -211 656 -29 591 314 -28 150 -157 241 -378 269 l-101 12 148 78 c279 145 502 339 662 575 515 758 215 1697 -542 1697 l-96 0 -72 153 c-134 281 -359 541 -612 704 -60 40 -114 74 -119 78 -5 4 18 58 52 121 34 63 73 148 86 190 18 55 33 73 58 66 18 -5 69 -16 113 -23 44 -7 183 -40 308 -72 244 -63 282 -62 282 3 0 59 -200 130 -641 228 l-51 11 8 185 c11 227 -33 200 336 214 267 10 317 17 335 46 46 73 -9 86 -355 86 l-327 0 -35 148 c-46 195 -200 499 -339 666 -83 101 -111 151 -111 198 0 35 -10 120 -23 189 -19 104 -18 154 9 292 126 645 73 1265 -120 1391 -236 155 -849 -195 -1300 -741 l-80 -97 -218 70 c-513 165 -1126 163 -1616 -5 -154 -53 -139 -59 -233 84 -441 662 -1079 1059 -1319 819z m297 -101 c235 -89 582 -386 818 -700 132 -175 155 -227 80 -179 -310 198 -833 150 -1122 -104 -92 -81 -89 -84 -105 122 -25 325 54 785 148 859 61 48 61 48 181 2z m4384 -163 c95 -51 147 -550 100 -960 -29 -255 -36 -264 -116 -151 -117 165 -342 297 -585 343 -155 30 -169 29 -465 -24 -104 -18 -97 5 55 179 342 392 848 699 1011 613z m-2011 -682 c313 -38 764 -192 714 -242 -91 -91 6 -135 152 -70 590 264 1141 -82 1215 -764 13 -118 23 -140 119 -253 129 -152 240 -346 302 -532 79 -232 85 -224 -177 -264 -383 -58 -504 -95 -511 -159 -8 -67 11 -68 295 -14 488 93 498 90 466 -150 -15 -112 -19 -120 -65 -116 -360 31 -680 30 -692 -2 -25 -66 35 -85 338 -110 405 -33 388 -20 296 -215 -77 -161 -78 -162 -268 -81 -285 121 -389 148 -428 108 -46 -45 2 -98 119 -133 127 -38 375 -144 375 -161 0 -8 -40 -52 -90 -98 -218 -201 -47 -233 178 -34 72 64 53 67 190 -27 240 -163 445 -388 560 -615 63 -126 59 -133 -116 -172 -460 -103 -898 -451 -1055 -837 -99 -244 9 -278 132 -42 449 864 1762 1053 1982 285 205 -714 -445 -1511 -1387 -1700 -126 -25 -165 -68 -105 -112 37 -27 47 -26 281 13 131 22 145 21 215 -21 42 -25 133 -51 208 -60 150 -19 218 -68 239 -172 32 -164 -218 -266 -348 -142 -125 119 -409 192 -484 124 -58 -52 -50 -84 40 -165 180 -161 40 -401 -190 -325 -81 27 -150 119 -150 201 0 232 -345 358 -511 186 -148 -151 -349 -99 -349 92 0 87 31 122 162 178 75 32 137 92 332 326 240 286 441 483 642 626 108 78 123 118 60 158 -70 44 -497 -303 -745 -605 -143 -175 -450 -298 -900 -361 -174 -24 -169 -36 -73 167 262 552 378 1287 259 1652 -45 140 -129 133 -123 -10 16 -394 11 -715 -12 -830 -59 -300 -218 -714 -392 -1019 -126 -223 -123 -373 11 -512 123 -128 64 -309 -101 -309 -73 0 -180 93 -180 157 0 51 -90 123 -155 123 -68 0 -165 -108 -165 -184 0 -80 -96 -176 -177 -176 -158 0 -219 170 -104 289 136 140 -23 269 -175 142 -162 -137 -335 -94 -320 80 8 95 76 149 204 164 167 19 291 112 377 285 205 413 358 1170 237 1170 -57 0 -63 -16 -112 -290 -43 -233 -151 -600 -230 -773 l-58 -129 -106 13 c-857 104 -1314 484 -1488 1239 -73 316 -74 320 -116 320 -140 0 -10 -593 209 -957 78 -129 79 -134 79 -329 0 -255 82 -390 265 -435 131 -32 172 -175 77 -271 -87 -86 -146 -77 -266 42 -171 170 -339 99 -305 -128 18 -120 -50 -201 -167 -201 -141 0 -216 133 -135 240 137 180 -76 257 -245 89 -112 -112 -167 -124 -251 -59 -112 88 -49 261 105 292 151 30 268 207 228 346 -12 39 -53 179 -91 311 -90 305 -135 570 -135 791 0 136 -11 203 -48 303 -186 494 -112 1328 114 1285 135 -25 151 83 20 143 -240 112 -666 478 -666 572 0 14 167 85 275 117 98 29 131 60 113 106 -18 47 -81 41 -281 -27 -198 -67 -196 -68 -246 92 -48 153 -55 148 208 148 244 0 304 23 258 97 -18 28 -61 33 -269 34 l-248 2 3 136 c5 180 4 180 258 111 282 -76 314 -77 305 -6 -6 59 -128 113 -371 166 -57 12 -109 31 -116 41 -23 38 141 306 265 432 l126 128 0 175 c0 804 831 1324 1412 884 95 -72 137 -75 179 -12 104 160 828 288 1299 230z m-2907 -4158 c-9 -188 30 -436 106 -668 54 -168 67 -245 77 -452 13 -269 57 -496 156 -806 73 -229 83 -204 -98 -242 -165 -34 -372 -137 -421 -208 -129 -188 -253 -236 -351 -137 -107 106 -8 293 155 293 38 0 93 54 93 92 0 93 -251 63 -397 -49 -94 -72 -229 -75 -285 -6 -108 134 29 283 263 283 56 0 200 29 319 64 l217 63 81 -36 c66 -30 87 -32 112 -11 48 39 39 51 -126 177 -774 589 -820 1551 -84 1751 182 50 191 44 183 -108z"
       id="path1" />
    <path
       d="M3777 8632 c-278 -99 -426 -476 -299 -762 175 -395 655 -399 853 -8 217 429 -136 919 -554 770z m294 -181 c106 -106 32 -291 -117 -291 -105 0 -174 65 -174 162 0 161 180 240 291 129z"
       id="path2" />
    <path
       d="M7114 8432 c-573 -212 -470 -1101 127 -1097 452 3 680 555 387 940 -104 135 -360 214 -514 157z m220 -171 c170 -104 41 -377 -147 -310 -182 65 -139 349 53 349 17 0 59 -18 94 -39z"
       id="path3" />
    <path
       d="M4901 7411 c-32 -38 -20 -112 22 -138 70 -43 134 82 73 143 -32 32 -66 30 -95 -5z"
       id="path4" />
    <path
       d="M5591 7356 c-26 -38 -26 -50 -3 -85 38 -58 97 -52 120 13 35 99 -58 156 -117 72z"
       id="path5" />
    <path
       d="M4433 6967 c-37 -38 -7 -109 80 -186 377 -331 1157 -368 1592 -75 191 129 106 220 -102 109 -424 -228 -1025 -198 -1376 67 -125 95 -166 113 -194 85z"
       id="path6" />
  </g>
  <path
     style="fill:#ffffff;stroke-width:1.42072"
     d="m 397.09041,668.44736 c -3.81916,-3.81916 -3.57846,-9.01114 0.71035,-15.32271 4.50328,-6.62716 4.48034,-9.5763 -0.0979,-12.57604 -3.54284,-2.32137 -3.95697,-2.23327 -14.14929,3.01 -10.04347,5.16669 -10.65175,5.30166 -14.00155,3.10681 -9.6398,-6.31625 -2.5546,-19.41886 10.50072,-19.41886 4.84378,0 13.62978,-5.24666 18.32533,-10.94318 8.06078,-9.77913 18.01387,-38.23042 22.38232,-63.98073 2.71208,-15.98667 1.7935,-23.49163 -2.79536,-22.83859 -2.55306,0.36332 -3.45446,1.98271 -4.99172,8.96769 -6.90797,31.3885 -16.19973,62.11101 -20.57174,68.01896 -1.55371,2.09956 -2.84222,2.1183 -14.57268,0.21201 -52.99674,-8.61241 -79.05432,-32.47358 -92.05205,-84.29291 -4.51835,-18.01377 -6.72721,-21.54639 -10.36322,-16.57385 -4.78505,6.54395 1.26372,33.27274 12.85121,56.78798 7.03125,14.26896 7.7656,16.67956 8.44518,27.72224 1.16541,18.93702 3.78768,23.68848 16.08258,29.14101 8.94812,3.9683 11.38736,7.69812 8.9239,13.64543 -3.54541,8.55938 -9.08659,8.91638 -18.7666,1.20903 -3.94524,-3.14125 -8.67651,-6.08867 -10.51394,-6.54983 -7.25019,-1.81969 -12.91889,6.53343 -10.98746,16.19059 0.54944,2.74717 -0.13344,5.09813 -2.2697,7.81394 -7.97404,10.13736 -24.16279,-0.84186 -16.39135,-11.11661 3.09185,-4.0878 2.7197,-10.18093 -0.73475,-12.0297 -4.02424,-2.1537 -11.1576,0.37982 -18.61731,6.61223 -6.94718,5.8042 -11.64273,5.90432 -15.78067,0.33646 -4.17352,-5.61573 -1.1714,-10.81025 9.06938,-15.69262 16.55045,-7.89056 17.87899,-13.59599 9.84309,-42.27126 -6.78801,-24.2223 -10.00464,-42.11889 -10.01242,-55.70687 -0.003,-5.5051 -1.22609,-13.3923 -2.9338,-18.92122 -8.809,-28.52021 -9.39441,-63.10254 -1.33562,-78.89908 2.94916,-5.78083 5.09236,-7.10724 11.48379,-7.10724 3.45535,0 4.14596,-0.5812 4.14596,-3.48912 0,-2.80275 -1.88652,-4.5999 -9.58984,-9.13558 -12.21023,-7.18933 -31.37694,-22.58663 -36.53634,-29.35095 -4.49294,-5.89055 -4.34514,-6.12572 6.3461,-10.09718 15.53106,-5.76929 15.85475,-5.966 15.3754,-9.34358 -0.64448,-4.54111 -4.70712,-4.70137 -17.75878,-0.70053 -6.11238,1.87368 -11.8747,3.15007 -12.80515,2.83643 -2.05193,-0.6917 -6.80134,-14.39122 -5.45571,-15.73685 0.5258,-0.52581 7.59331,-1.28354 15.70557,-1.68387 14.94333,-0.7374 18.50863,-2.00545 16.96307,-6.03314 -1.21083,-3.15537 -5.12699,-3.88786 -20.90388,-3.90997 l -13.85199,-0.0194 v -7.63999 c 0,-4.4024 0.75257,-8.24579 1.7759,-9.06956 1.22197,-0.98368 5.98573,-0.39133 15.27271,1.89907 14.95338,3.68788 19.30383,4.12191 20.58224,2.05339 2.76223,-4.46938 -6.85526,-10.04094 -24.48922,-14.18698 -5.28801,-1.2433 -7.45483,-2.43602 -7.44526,-4.09823 0.0201,-3.49121 9.85427,-18.28954 18.21275,-27.4063 l 7.34666,-8.01314 0.021,-9.74582 c 0.0459,-21.31648 7.37692,-38.92866 22.08114,-53.04838 11.97156,-11.49568 21.91789,-16.00939 37.03508,-16.80674 13.56349,-0.7154 18.91192,0.7041 32.04466,8.5048 9.97701,5.92622 12.2173,5.97161 16.88934,0.34214 5.22715,-6.29833 31.74315,-12.77391 58.28175,-14.23323 18.33483,-1.00821 36.76842,1.49062 55.19851,7.48262 14.30098,4.64954 16.94766,6.46484 16.07574,11.02602 -1.07449,5.62082 2.77297,5.95064 16.43981,1.40929 38.00185,-12.6276 66.81893,5.92515 75.34538,48.50816 2.35794,11.77605 3.27079,13.77782 10.69006,23.44184 12.63368,16.45611 23.64327,41.63782 19.85885,45.42224 -0.81712,0.81713 -9.86827,3.00877 -20.11366,4.87031 -21.23409,3.85812 -26.38706,5.83428 -27.03354,10.36734 -0.40545,2.84284 0.15442,3.1833 5.2348,3.1833 3.12884,0 10.04603,-0.91281 15.37152,-2.02846 5.3255,-1.11565 13.54428,-2.46169 18.26396,-2.99121 11.14704,-1.2506 12.74981,0.37142 11.35986,11.49625 l -0.98938,7.91878 -19.60283,-0.99506 c -22.75454,-1.15506 -29.8943,-0.30464 -29.8943,3.56067 0,3.50215 2.12397,4.15337 19.00872,5.82808 24.55198,2.4352 26.45422,2.79826 26.45422,5.04922 0,3.07038 -6.93057,16.22674 -8.9578,17.00467 -0.9563,0.36696 -7.2846,-1.56908 -14.0629,-4.30231 -16.53483,-6.66739 -23.05231,-8.06857 -26.29949,-5.65409 -3.55188,2.64107 -0.95132,6.45912 6.14307,9.01907 3.04046,1.09712 10.21405,3.89512 15.94128,6.2178 l 10.41315,4.22303 -4.91749,5.1481 c -4.48142,4.69158 -8.09487,10.11887 -8.09487,12.15827 0,0.44207 1.75813,0.80137 3.90697,0.79844 4.10307,-0.006 11.65204,-3.95265 17.0445,-8.91194 l 3.1925,-2.93606 6.75252,4.79417 c 16.50908,11.72117 31.17046,27.50028 37.84542,40.73062 3.79741,7.5268 3.16917,8.42947 -7.72496,11.09921 -20.91274,5.12494 -43.68448,19.21987 -57.10467,35.34588 -12.45562,14.96695 -19.67863,34.96151 -12.6298,34.96151 2.59867,0 4.87507,-2.87733 14.32695,-18.10908 7.19008,-11.58686 23.67879,-26.08334 37.33246,-32.82183 14.261,-7.03823 26.67997,-10.11099 40.97773,-10.13892 31.5475,-0.0616 49.96291,17.96731 50.04398,48.99374 0.10716,41.01942 -37.41551,80.18643 -89.58204,93.50771 -10.59295,2.70504 -12.48219,3.63551 -12.87026,6.3387 -0.6644,4.62815 2.76091,5.29607 16.89835,3.29513 10.85999,-1.53706 12.98547,-1.4759 16.77307,0.48276 2.38547,1.23357 8.55996,3.12802 13.7211,4.20988 14.94273,3.13226 20.81582,11.72605 13.01931,19.05048 -5.68543,5.34117 -11.62516,5.54314 -18.46992,0.62806 -7.72817,-5.54946 -15.11576,-8.58484 -23.64914,-9.71682 -5.81673,-0.77162 -7.31584,-0.45347 -9.8624,2.09309 -3.98159,3.98159 -3.8334,4.91084 1.78098,11.16806 5.88975,6.56414 7.26154,10.63705 5.00766,14.86796 -6.36953,11.95661 -22.29071,7.34683 -25.57564,-7.4051 -0.78298,-3.51628 -2.29895,-7.73613 -3.3688,-9.37747 -2.87818,-4.41562 -10.88473,-7.67114 -18.86619,-7.67114 -5.90805,0 -8.05016,0.79974 -13.2821,4.95872 -10.73729,8.53534 -21.15551,5.97181 -21.15551,-5.20557 0,-5.50192 1.7412,-7.50324 10.89943,-12.52768 3.5893,-1.96918 11.96256,-10.2116 21.23007,-20.89833 16.34353,-18.84637 29.45827,-31.77644 41.43497,-40.85154 4.96855,-3.76482 7.4164,-6.64539 7.4164,-8.72748 0,-10.1731 -13.93067,-1.82622 -41.80634,25.04923 -23.36222,22.52395 -28.53329,25.76227 -49.83934,31.21145 -11.85628,3.03232 -29.11527,5.22463 -29.11527,3.69834 0,-0.52459 1.50363,-3.96932 3.34142,-7.65496 5.49179,-11.01378 10.69545,-25.879 15.32882,-43.78962 3.72525,-14.40026 4.45823,-20.1547 4.95752,-38.91992 0.49201,-18.4915 0.1825,-23.1597 -1.93108,-29.1247 -1.88887,-5.33087 -3.31471,-7.21687 -5.71361,-7.55757 -3.67038,-0.52128 -3.39082,-3.05459 -3.2018,29.01458 0.0696,11.80134 -0.56813,25.80501 -1.41708,31.11924 -2.49248,15.60223 -10.57887,38.29439 -21.51326,60.37076 -8.87282,17.91409 -10.21642,21.64198 -10.30365,28.58796 -0.0896,7.13547 0.46551,8.71384 5.2037,14.79551 6.01735,7.72353 6.80228,13.36765 2.46257,17.70736 -5.69653,5.69653 -15.63711,2.18847 -18.51588,-6.53431 -1.59796,-4.84186 -7.25503,-9.09358 -12.09933,-9.09358 -3.46928,0 -10.58558,8.29281 -10.58558,12.33563 0,4.65681 -7.25077,11.81656 -11.96682,11.81656 -2.01358,0 -4.93971,-1.27864 -6.5025,-2.84143 z M 371.05219,365.80883 c 21.40887,-2.68444 43.08682,-13.04329 43.08682,-20.5891 0,-4.88067 -4.32391,-4.66561 -16.55824,0.82358 -13.46617,6.04185 -24.55119,8.38001 -39.84533,8.40459 -20.87035,0.0335 -34.43449,-3.95281 -50.08726,-14.72001 -7.99402,-5.49893 -12.43215,-6.46875 -13.76056,-3.00699 -2.45141,6.3883 12.73787,18.78501 30.24152,24.68156 15.50444,5.22307 29.74484,6.56034 46.92305,4.40637 z m 8.91831,-48.90302 c 0.93354,-1.12484 1.49131,-3.84196 1.2395,-6.03805 -0.35877,-3.12897 -1.18883,-3.99288 -3.83635,-3.99288 -1.85817,0 -4.24717,1.30829 -5.30889,2.90732 -1.64627,2.47941 -1.60764,3.36812 0.26245,6.03805 2.53399,3.61777 5.2246,3.99992 7.64329,1.08556 z m -45.55789,-3.9399 c 1.58873,-4.29474 0.41172,-7.95272 -2.89676,-9.00279 -3.51197,-1.11466 -6.88201,1.64865 -6.88201,5.64301 0,6.42654 7.66951,9.06162 9.77877,3.35978 z m 159.13057,-3.19457 c 8.66726,-3.05798 14.8053,-8.33834 19.4617,-16.7423 3.6094,-6.51428 4.13611,-8.92511 4.13611,-18.93111 0,-9.95401 -0.56496,-12.57089 -4.28391,-19.84271 -5.80215,-11.34522 -13.77522,-16.38103 -27.48919,-17.36226 -8.83326,-0.63202 -10.55156,-0.29628 -17.32125,3.38437 -21.4464,11.66033 -26.34208,42.87504 -9.57704,61.06296 8.78819,9.53406 22.56261,12.84518 35.07358,8.43105 z M 275.8749,291.17219 c 15.40207,-9.02621 22.13222,-32.69624 14.11718,-49.6503 -13.68554,-28.94875 -50.75384,-24.34794 -59.99677,7.44663 -4.19619,14.43436 -0.62069,28.46791 9.80345,38.47774 9.87817,9.48558 23.79537,10.92294 36.07614,3.72593 z"
     id="path7"
     transform="scale(0.75)" />
  <path
     style="fill:#ffffff;stroke-width:1.42072"
     d="m 179.74351,621.98036 c -5.0274,-6.39131 -1.15974,-14.97633 7.58327,-16.8325 8.56545,-1.81849 12.08963,-7.64041 6.4515,-10.65785 -4.20574,-2.25084 -11.58273,-0.59384 -23.62693,5.30702 -11.5194,5.64374 -15.86976,5.56987 -19.7389,-0.3352 -1.85957,-2.83805 -2.02522,-4.30152 -0.79303,-7.00588 2.44574,-5.36783 7.43461,-7.7379 19.56793,-9.29618 6.18404,-0.79422 16.35829,-2.93687 22.60945,-4.76145 10.77609,-3.1453 11.67891,-3.20138 17.40231,-1.08087 5.63901,2.08924 6.20043,2.06839 8.52431,-0.31662 2.37808,-2.44065 2.20596,-2.78285 -3.90551,-7.76467 -31.39795,-25.59435 -44.73263,-47.89324 -44.74616,-74.82664 -0.006,-11.14771 0.5054,-13.82874 3.98714,-20.91899 6.32379,-12.87784 20.13052,-22.81308 34.42556,-24.77243 l 6.33346,-0.8681 0.0281,8.36223 c 0.0418,12.40363 2.32484,26.43569 7.02398,43.1698 2.71298,9.66123 4.73953,21.42533 5.75138,33.38685 1.77146,20.94113 2.57594,25.23293 8.71263,46.48099 2.41848,8.37387 4.06562,16.08936 3.66033,17.14555 -0.4053,1.05619 -4.15801,2.68769 -8.33935,3.62556 -12.91016,2.89572 -22.63467,8.28797 -31.30394,17.35802 -9.47804,9.91621 -14.4999,11.09471 -19.60757,4.60136 z"
     id="path8"
     transform="scale(0.75)" />
  <path
     style="fill:#ffffff;stroke-width:0.392441"
     d="m 480.18728,269.97002 c -4.4911,-1.21704 -7.5793,-4.64351 -8.37576,-9.29322 -1.14481,-6.68338 3.38047,-13.11551 9.54083,-13.56111 2.0292,-0.14677 2.67718,0.003 5.20582,1.20392 4.95298,2.35216 6.95093,4.97972 7.23424,9.51394 0.49795,7.96947 -6.37093,14.09686 -13.60513,12.13647 z"
     id="path9"
     transform="scale(0.75)" />
  <path
     style="fill:#ffffff;stroke-width:0.251606"
     d="m 259.48099,255.28513 c -3.02364,-0.99446 -5.23293,-2.8914 -6.43017,-5.52105 -0.87027,-1.91149 -1.08451,-5.77879 -0.44321,-8.00074 0.95382,-3.30477 3.23829,-5.99048 6.3487,-7.46377 1.60093,-0.75831 1.88101,-0.80893 4.47548,-0.80893 2.63624,0 2.8513,0.0407 4.52891,0.85717 2.15452,1.04858 4.48855,3.33329 5.46949,5.35391 2.70531,5.57263 0.28945,12.49702 -5.27479,15.11868 -1.54823,0.72947 -1.95784,0.80914 -4.47201,0.86982 -2.16439,0.0522 -3.0804,-0.0361 -4.2024,-0.40509 z"
     id="path10"
     transform="scale(0.75)" />
  <path
     style="fill:#ffffff;stroke-width:1.51144"
     d="m 229.59404,184.15246 c -1.52274,-8.11689 0.3281,-34.87796 3.18275,-46.0191 3.16457,-12.35071 5.8246,-16.46212 10.65078,-16.46212 7.87794,0 25.6486,11.29911 41.28131,26.24787 8.08874,7.73485 26.44183,29.63039 25.56853,30.50369 -0.25284,0.25284 -4.53424,-0.93505 -9.51422,-2.63977 -11.5469,-3.95266 -29.75465,-4.18135 -42.28711,-0.53113 -9.40603,2.7396 -20.35129,8.4376 -23.50336,12.23561 -2.88275,3.4735 -4.2618,2.61842 -5.37868,-3.33505 z"
     id="path11"
     transform="scale(0.75)" />
  <path
     style="fill:#ffffff;stroke-width:0.441515"
     d="m 544.3241,210.27162 c -0.73764,-0.78921 -2.25433,-2.64548 -3.37042,-4.12505 -7.76695,-10.29639 -21.80433,-18.31172 -38.30695,-21.87325 -6.92928,-1.49546 -14.24437,-1.36546 -24.38725,0.43337 -8.99629,1.59548 -10.91564,1.71837 -10.91564,0.69887 0,-1.74989 7.97523,-11.33612 16.22456,-19.50193 15.0231,-14.87101 32.88773,-27.12603 46.25167,-31.72836 4.67349,-1.60947 10.91753,-1.79201 12.87703,-0.37644 2.8654,2.07002 5.12843,9.5298 6.62405,21.83528 0.95525,7.85945 1.09533,31.03824 0.23348,38.63258 -1.38146,12.17304 -2.44206,17.43985 -3.51194,17.43985 -0.20759,0 -0.98096,-0.64572 -1.71859,-1.43492 z"
     id="path12"
     transform="scale(0.75)" />
</svg>
