<?xml version="1.0" encoding="UTF-8" standalone="no"?>
<svg
   version="1.0"
   width="1250"
   height="897"
   viewBox="3 186 1250 897"
   preserveAspectRatio="xMidYMid meet"
   id="svg51"
   sodipodi:docname="frog10.svg"
   inkscape:version="1.4.3 (0d15f75, 2025-12-25)"
   xmlns:inkscape="http://www.inkscape.org/namespaces/inkscape"
   xmlns:sodipodi="http://sodipodi.sourceforge.net/DTD/sodipodi-0.dtd"
   xmlns="http://www.w3.org/2000/svg"
   xmlns:svg="http://www.w3.org/2000/svg">
  <defs
     id="defs51" />
  <sodipodi:namedview
     id="namedview51"
     pagecolor="#505050"
     bordercolor="#ffffff"
     borderopacity="1"
     inkscape:showpageshadow="0"
     inkscape:pageopacity="0"
     inkscape:pagecheckerboard="1"
     inkscape:deskcolor="#505050"
     inkscape:zoom="0.30305691"
     inkscape:cx="-161.6858"
     inkscape:cy="245.82841"
     inkscape:window-width="1728"
     inkscape:window-height="1056"
     inkscape:window-x="0"
     inkscape:window-y="33"
     inkscape:window-maximized="1"
     inkscape:current-layer="svg51" />
  <metadata
     id="metadata1">
Created by potrace 1.16, written by Peter Selinger 2001-2019
</metadata>
  <g
     transform="translate(0.000000,1254.000000) scale(0.100000,-0.100000)"
     fill="#000000"
     stroke="none"
     id="g51">
    <path
       d="M9188 10366 c-55 -20 -110 -68 -157 -138 -42 -62 -73 -123 -261 -513 -122 -254 -158 -309 -228 -344 l-55 -28 -65 18 c-58 17 -185 39 -312 54 l-45 6 -100 191 c-167 320 -234 393 -360 393 -141 -1 -216 -99 -330 -429 l-53 -151 -43 -7 c-24 -4 -96 -14 -159 -23 -63 -9 -166 -28 -229 -42 -135 -30 -109 -46 -213 137 -240 421 -370 619 -443 674 -98 75 -205 73 -290 -5 -91 -84 -123 -232 -155 -714 -6 -88 -13 -197 -16 -242 l-6 -83 -41 -10 c-23 -6 -97 -28 -165 -49 l-123 -39 -29 24 c-123 104 -289 52 -349 -111 -24 -65 -54 -82 -102 -57 -21 11 -57 17 -96 17 l-63 1 -145 181 c-259 325 -313 369 -439 361 -140 -9 -206 -109 -206 -313 0 -89 18 -314 45 -575 7 -74 12 -136 11 -138 -2 -1 -25 2 -52 8 -136 31 -252 -74 -255 -229 0 -34 -5 -39 -72 -82 -54 -34 -78 -44 -92 -38 -40 15 -129 10 -162 -11 l-32 -19 -103 83 c-227 182 -306 226 -406 226 -183 0 -253 -144 -208 -425 8 -55 38 -201 66 -325 l50 -225 -36 -30 -37 -31 -55 19 c-97 32 -182 0 -228 -88 l-27 -51 -116 70 c-296 177 -395 207 -509 150 -62 -31 -89 -71 -103 -153 -17 -105 37 -309 173 -654 27 -70 48 -131 46 -135 -2 -4 -21 -33 -43 -64 -37 -52 -42 -55 -73 -51 -45 8 -115 -21 -151 -63 -42 -47 -55 -102 -47 -200 l6 -82 -45 -74 c-25 -42 -45 -80 -45 -87 0 -13 -16 -15 -24 -2 -9 15 -290 198 -358 234 -55 28 -71 32 -143 32 -70 0 -86 -3 -118 -25 -85 -58 -104 -161 -67 -351 20 -104 123 -484 149 -553 11 -27 10 -28 -11 -22 -137 38 -232 -10 -258 -130 -12 -57 2 -144 44 -260 25 -69 25 -72 11 -140 -8 -38 -15 -82 -15 -99 -1 -60 -9 -73 -53 -80 -160 -27 -240 -102 -239 -223 1 -88 38 -148 182 -297 l126 -130 13 -80 c7 -43 24 -109 38 -146 l25 -67 -48 -58 c-74 -92 -89 -132 -89 -245 0 -89 2 -99 30 -144 39 -64 97 -107 182 -137 66 -22 78 -23 398 -23 351 0 377 -3 440 -50 17 -12 89 -81 160 -152 173 -171 274 -231 428 -252 213 -29 391 95 414 288 6 56 11 60 38 31 31 -34 139 -99 200 -121 86 -30 210 -30 289 1 98 38 185 134 201 223 5 26 16 42 36 54 16 10 41 35 56 56 18 25 32 37 42 33 194 -65 460 -124 662 -147 l106 -11 -1 -87 c0 -68 4 -96 22 -137 82 -184 358 -289 817 -310 l150 -7 64 -64 c164 -163 345 -248 526 -246 184 1 312 90 355 244 l15 57 75 -44 c272 -160 532 -176 699 -44 69 54 113 145 116 237 l2 68 43 7 c95 16 187 83 235 169 27 48 30 65 32 149 l2 95 33 2 c300 22 495 48 716 94 79 16 203 37 275 45 462 53 960 213 1291 414 l68 42 36 -35 35 -35 -39 -7 c-209 -32 -362 -108 -481 -239 -218 -238 -145 -552 139 -606 73 -14 173 -12 243 5 76 18 75 18 75 -2 0 -37 49 -120 94 -161 112 -103 279 -125 452 -61 78 29 183 103 298 208 117 107 167 131 279 131 71 0 72 0 117 -44 199 -194 512 -315 715 -277 316 59 417 400 190 645 -25 27 -45 51 -45 53 0 2 25 34 55 70 62 75 145 229 169 313 9 30 20 87 26 127 8 62 17 82 65 154 83 124 102 206 66 285 -23 51 -63 82 -113 90 -31 5 -39 12 -44 33 -14 67 -59 201 -84 252 l-28 56 46 134 c42 121 47 143 47 226 0 77 -3 96 -21 120 -72 97 -178 98 -346 3 -36 -21 -68 -36 -70 -34 -2 2 -1 36 4 76 13 118 12 329 -1 376 -25 88 -101 140 -187 128 -74 -10 -124 -43 -237 -158 -60 -60 -110 -108 -110 -106 -1 2 -21 31 -45 65 -59 87 -58 119 7 167 116 85 228 232 286 373 80 197 70 472 -24 689 l-22 52 76 127 c99 165 172 316 186 385 28 141 -62 240 -216 240 -41 0 -167 -12 -233 -23 -9 -1 -25 37 -49 113 -19 63 -46 144 -60 179 l-25 63 21 72 c44 153 37 232 -28 297 -49 49 -104 64 -179 48 -55 -11 -56 -11 -80 17 -28 32 -29 -1 9 379 25 259 22 343 -12 405 -34 62 -68 83 -138 88 -75 5 -124 -16 -209 -94 -37 -33 -66 -52 -73 -48 -7 4 -26 10 -42 13 l-30 6 -1 95 c-1 118 -25 170 -96 208 -89 47 -187 15 -320 -107 l-75 -68 -52 29 c-60 34 -55 14 -73 268 -28 397 -91 771 -153 911 -61 139 -176 199 -299 155z m126 -224 c51 -101 108 -448 141 -863 31 -391 30 -380 59 -406 32 -27 41 -28 78 -9 26 14 29 13 53 -16 27 -32 30 -52 15 -93 -22 -57 35 -88 78 -42 12 13 25 37 28 55 4 18 12 32 18 31 28 -3 42 6 120 79 117 110 154 138 168 124 18 -18 -25 -248 -52 -277 -24 -26 -25 -43 -3 -67 23 -25 53 -23 135 12 38 17 72 30 74 30 29 0 -95 -143 -145 -168 -45 -22 -68 -64 -52 -98 14 -32 39 -41 58 -21 13 12 19 13 40 2 13 -7 33 -10 44 -8 11 3 91 83 178 177 177 192 227 239 243 230 7 -5 9 -37 4 -98 -8 -118 -57 -580 -62 -585 -2 -2 -17 2 -34 9 -37 15 -80 1 -80 -28 0 -40 96 -102 159 -102 25 0 34 -7 57 -47 54 -94 67 -99 160 -58 61 27 80 30 88 16 3 -5 -8 -64 -25 -130 -31 -119 -31 -122 -14 -164 37 -90 79 -216 100 -297 20 -73 21 -87 9 -101 -20 -23 -17 -63 6 -84 23 -21 2 -22 279 20 133 20 175 18 179 -12 4 -25 -66 -167 -155 -315 -35 -60 -65 -108 -67 -108 -1 0 -26 23 -54 50 -55 53 -89 63 -113 34 -15 -19 -10 -29 84 -177 163 -257 191 -521 78 -752 -70 -144 -169 -245 -315 -321 -44 -24 -74 -47 -85 -66 -104 -192 -335 -421 -536 -533 -65 -37 -80 -55 -70 -86 16 -48 103 -27 250 59 140 82 288 215 375 336 18 25 35 44 37 42 6 -6 -67 -205 -107 -293 -22 -47 -40 -95 -40 -106 0 -26 28 -57 51 -57 45 0 140 129 192 263 12 31 25 57 29 57 4 0 20 -41 35 -91 30 -102 54 -130 93 -109 12 6 26 25 32 40 8 25 14 28 37 24 25 -5 35 2 93 73 88 104 225 236 238 228 5 -3 10 -32 10 -63 0 -58 -18 -274 -24 -279 -1 -2 -22 7 -47 19 -58 28 -140 36 -158 15 -23 -29 -7 -51 70 -97 115 -69 224 -150 242 -182 25 -43 57 -36 182 38 107 63 150 82 161 71 6 -6 -35 -146 -68 -235 -19 -51 -21 -53 -49 -47 -31 7 -59 -7 -59 -29 0 -7 28 -55 63 -107 67 -100 111 -214 123 -311 6 -52 5 -55 -30 -90 -39 -39 -48 -85 -21 -108 16 -13 23 -12 138 21 42 12 80 20 83 17 8 -8 -21 -61 -70 -131 -38 -54 -42 -57 -72 -51 -26 5 -34 2 -43 -14 -12 -22 -1 -70 24 -108 11 -18 13 -33 5 -71 -26 -136 -104 -273 -211 -371 -43 -39 -48 -41 -80 -32 -47 14 -143 12 -157 -2 -7 -7 -12 -22 -12 -34 0 -19 17 -31 93 -67 240 -115 344 -269 275 -407 -31 -62 -105 -100 -193 -100 -234 0 -569 222 -671 444 -28 63 -55 78 -86 49 -18 -16 -20 -26 -15 -90 l5 -73 -31 0 c-45 0 -131 -25 -191 -54 -28 -14 -96 -67 -151 -117 -168 -153 -261 -203 -380 -202 -183 0 -239 155 -123 335 71 109 169 192 326 274 78 41 94 64 66 95 -21 23 -47 24 -128 3 -181 -47 -350 -182 -440 -354 -34 -64 -37 -67 -93 -85 -34 -11 -98 -20 -153 -22 -84 -4 -100 -2 -140 19 -152 78 -66 297 161 411 93 46 166 65 299 76 58 5 123 15 145 23 34 11 40 18 43 44 2 25 -3 37 -25 54 l-27 21 33 65 c48 92 146 193 262 270 100 66 116 87 84 114 -22 18 -87 7 -156 -28 -33 -16 -59 -26 -59 -22 0 4 44 96 98 206 54 109 109 228 123 263 22 59 35 74 169 199 155 144 179 174 159 198 -16 20 -59 17 -89 -6 -34 -27 -41 -25 -29 7 14 37 -6 83 -35 83 -29 0 -47 -15 -86 -75 -87 -130 -253 -308 -385 -411 -231 -181 -526 -329 -765 -384 -61 -14 -90 -34 -90 -62 0 -26 45 -40 105 -33 208 27 487 133 680 261 50 32 97 63 105 68 8 6 -4 -14 -28 -42 -254 -303 -562 -514 -967 -663 -104 -39 -338 -110 -343 -104 -2 2 11 11 30 21 60 31 138 96 144 120 7 26 -10 54 -32 54 -7 0 -82 -35 -166 -78 -182 -93 -357 -159 -550 -208 -263 -66 -680 -124 -894 -124 l-92 0 -26 35 c-35 45 -138 118 -218 154 -112 50 -197 66 -355 66 -122 0 -142 2 -138 15 34 113 38 153 40 385 2 224 4 243 24 288 30 64 38 139 18 156 -27 22 -60 9 -79 -29 -11 -23 -18 -30 -21 -20 -53 166 -120 296 -200 385 -60 68 -90 82 -123 60 -14 -9 -24 -25 -24 -39 0 -13 31 -84 69 -157 122 -234 171 -423 171 -652 0 -143 -10 -220 -42 -338 -20 -73 -22 -77 -57 -88 -60 -18 -101 -48 -101 -73 0 -46 12 -51 97 -43 69 6 83 4 113 -13 29 -17 43 -19 85 -12 28 5 100 9 160 9 189 1 333 -50 438 -154 96 -95 132 -215 85 -285 -29 -44 -99 -80 -154 -80 -39 0 -47 5 -110 71 -111 113 -234 182 -387 213 -136 28 -207 15 -207 -38 0 -32 15 -42 111 -75 196 -66 338 -161 411 -274 43 -67 50 -157 16 -207 -63 -93 -235 -104 -413 -25 -31 13 -112 58 -179 99 -66 41 -133 78 -148 81 -15 4 -38 24 -53 46 -55 79 -220 189 -283 189 -27 0 -62 -33 -62 -60 0 -12 26 -40 69 -74 86 -69 133 -124 171 -200 86 -170 -26 -294 -227 -252 -143 30 -270 115 -403 271 -69 80 -86 95 -111 95 -23 0 -34 -7 -47 -31 l-17 -31 -110 6 c-290 17 -514 76 -595 157 -43 43 -54 93 -35 157 9 29 17 52 18 52 1 0 20 -7 42 -15 87 -31 165 -12 165 40 0 27 -17 42 -100 88 -332 182 -585 544 -683 977 -18 80 -21 126 -21 285 0 163 4 204 23 285 13 52 34 111 47 131 l24 36 -16 96 c-16 97 -14 147 8 147 7 0 42 -18 79 -40 37 -22 73 -40 80 -40 21 0 49 32 49 57 0 27 -60 89 -114 118 -20 11 -36 27 -36 36 0 27 93 173 165 260 38 44 105 110 149 145 159 127 156 123 156 154 0 20 -8 35 -25 46 -23 15 -28 15 -71 0 -128 -43 -327 -213 -427 -363 -110 -166 -167 -321 -167 -455 0 -65 -5 -101 -21 -140 -11 -29 -32 -100 -46 -158 -24 -95 -26 -124 -27 -305 0 -209 10 -298 54 -450 11 -38 20 -74 20 -79 0 -11 -116 1 -200 21 -36 8 -97 31 -136 49 -65 30 -86 48 -146 123 -10 11 -27 21 -38 21 -20 0 -20 1 -4 38 41 94 94 277 109 375 16 112 21 349 10 454 -5 43 -2 82 11 139 46 197 7 494 -65 494 -39 0 -44 -23 -31 -123 7 -50 11 -112 9 -137 l-4 -45 -18 55 c-81 242 -281 519 -482 668 -91 68 -230 136 -330 163 -120 33 -347 33 -465 1 -97 -26 -246 -90 -315 -133 -25 -16 -48 -29 -51 -29 -2 0 14 26 36 58 l40 57 -15 70 c-8 39 -15 85 -15 103 0 37 14 40 80 17 23 -8 52 -15 63 -15 31 0 67 39 67 72 0 46 54 115 98 127 62 17 132 68 235 171 79 80 97 104 97 128 0 23 5 31 25 36 45 11 159 174 186 264 7 24 22 48 33 54 12 6 65 52 119 101 53 50 99 88 100 86 2 -2 8 -20 13 -39 9 -30 7 -39 -13 -66 -53 -70 -68 -175 -33 -231 54 -89 136 -75 95 17 -12 27 -15 50 -11 74 8 41 17 45 31 14 30 -66 148 -87 274 -49 114 35 189 106 147 140 -12 10 -28 8 -83 -15 -40 -15 -96 -29 -134 -32 l-66 -4 -41 148 c-103 373 -188 758 -199 900 -9 125 17 150 104 100 66 -38 260 -190 456 -356 283 -239 283 -240 322 -240 36 0 55 20 55 59 0 16 6 21 24 21 30 0 40 14 32 44 -7 27 -60 56 -103 56 -20 0 -42 14 -77 47 l-49 47 42 37 c23 21 94 72 157 115 124 83 121 79 127 186 1 38 8 73 14 79 7 7 28 2 71 -20 75 -38 89 -38 138 -4 102 70 316 193 479 275 99 50 188 97 197 105 10 9 20 38 24 69 3 30 9 54 11 54 3 0 29 -13 58 -30 52 -30 52 -30 98 -14 42 14 48 14 69 0 57 -40 154 14 108 60 -14 14 30 164 52 177 13 9 28 1 75 -38 32 -27 60 -50 62 -52 3 -2 -1 -9 -7 -15 -17 -17 -15 -58 3 -64 40 -16 135 50 135 93 0 16 19 26 108 53 59 18 113 35 120 38 9 3 12 -18 12 -86 l0 -90 -50 -32 c-99 -64 -151 -149 -151 -249 -1 -67 24 -127 67 -160 41 -33 64 -36 87 -12 l21 21 -27 55 c-15 31 -27 69 -27 86 0 44 47 129 72 129 4 0 8 -19 8 -42 0 -56 28 -100 82 -132 129 -76 388 -73 388 4 0 32 -38 50 -105 50 -66 0 -173 24 -192 43 -28 28 41 1202 82 1401 22 104 47 132 95 106 39 -21 153 -201 430 -680 197 -341 271 -460 290 -470 45 -24 100 6 100 55 0 32 20 32 49 1 36 -38 32 -102 -12 -186 -36 -68 -36 -69 -17 -92 l18 -23 36 19 c63 34 114 117 123 200 6 57 -19 130 -58 172 -24 26 -101 61 -151 69 -29 4 -42 13 -53 36 -17 32 -19 31 50 48 55 14 335 58 420 67 74 7 102 17 122 43 7 9 31 72 54 141 57 172 137 365 159 385 41 38 68 5 198 -241 117 -219 115 -210 54 -217 -77 -9 -132 -35 -132 -62 0 -12 6 -27 13 -33 6 -5 91 -12 187 -15 156 -5 375 -29 388 -42 3 -3 -7 -14 -22 -26 -37 -29 -56 -69 -45 -97 14 -38 37 -37 109 1 37 20 111 53 164 72 114 41 125 47 189 94 83 61 131 141 317 517 98 198 192 377 210 397 46 53 73 50 104 -11z m-5160 -888 c22 -8 156 -165 324 -379 l142 -179 -162 -81 c-90 -45 -194 -100 -231 -123 -45 -27 -69 -37 -72 -29 -13 36 -57 512 -58 628 -2 156 7 182 57 163z m-2241 -2038 c101 -53 455 -264 462 -276 3 -5 -22 -50 -55 -101 -39 -59 -59 -100 -56 -112 3 -11 -2 -21 -12 -24 -9 -4 -44 -32 -77 -62 -34 -31 -84 -76 -113 -100 l-52 -43 -25 54 c-83 182 -212 564 -216 643 -5 80 24 84 144 21z m620 -53 c3 -5 -6 -16 -19 -26 -24 -18 -24 -18 -24 8 0 18 5 25 19 25 11 0 22 -3 24 -7z m-1558 -1256 c79 -49 329 -217 449 -301 83 -58 117 -76 142 -76 54 0 76 49 50 111 -9 21 57 70 176 134 378 201 734 139 1038 -181 262 -275 405 -703 369 -1101 -39 -441 -236 -764 -553 -908 -115 -52 -193 -67 -379 -74 -173 -6 -191 -11 -184 -50 12 -72 296 -111 489 -67 l77 17 106 -35 c133 -44 232 -101 311 -181 144 -146 159 -308 34 -373 -95 -49 -200 -16 -355 113 -96 79 -154 113 -211 122 -24 4 -51 20 -79 47 -86 83 -209 118 -242 68 -15 -22 -13 -25 65 -101 129 -126 185 -234 168 -324 -26 -141 -222 -159 -401 -37 -28 18 -102 86 -165 150 -128 129 -183 171 -268 203 -54 20 -73 21 -397 22 -327 0 -342 1 -387 22 -50 23 -78 62 -78 109 0 39 34 104 75 144 31 30 37 32 60 22 38 -18 73 -15 85 7 16 31 13 43 -36 116 -45 68 -64 105 -79 153 l-7 23 34 -21 c52 -32 106 -23 120 20 11 31 -14 61 -149 177 -155 135 -313 294 -337 341 -9 17 -13 38 -10 46 12 30 141 50 427 65 110 6 174 14 184 22 13 11 18 9 35 -11 11 -14 33 -50 48 -81 36 -71 52 -84 81 -69 19 11 21 18 17 64 -12 142 -146 278 -244 247 -16 -5 -80 -12 -143 -15 l-114 -5 7 64 c3 35 13 83 21 106 21 58 20 62 -26 185 -47 124 -59 184 -38 184 8 0 47 -16 88 -35 87 -42 124 -45 146 -11 9 13 14 30 13 37 -2 9 14 15 51 20 123 16 166 109 50 109 l-48 0 -50 158 c-93 295 -151 527 -151 606 0 74 24 79 115 23z m2282 -2169 c87 -83 263 -150 437 -168 59 -6 110 -9 114 -6 14 8 29 -8 57 -64 68 -135 178 -294 271 -392 26 -27 44 -51 41 -54 -18 -18 -382 58 -570 118 -126 41 -127 41 -137 77 -42 153 -233 317 -410 352 l-59 11 56 66 c30 36 72 90 91 120 l36 54 22 -44 c12 -24 35 -55 51 -70z m6832 28 c-6 -20 -31 -64 -57 -96 l-47 -59 -27 26 -26 25 66 57 c37 32 73 65 81 75 19 23 22 16 10 -28z m-7044 -324 c168 -60 275 -174 274 -292 l0 -45 -29 56 c-62 120 -210 244 -345 289 -36 12 -65 24 -65 26 0 11 98 -10 165 -34z"
       id="path1" />
    <path
       d="M8815 9093 c-190 -12 -376 -77 -550 -191 -133 -88 -309 -277 -350 -377 -26 -60 10 -106 69 -91 12 3 53 41 89 85 216 256 475 399 752 418 294 19 535 -135 694 -444 34 -64 49 -84 72 -92 27 -9 34 -7 56 15 22 22 25 31 20 69 -21 149 -203 392 -371 494 -137 82 -314 124 -481 114z"
       id="path2" />
    <path
       d="M7465 9036 c-16 -8 -42 -27 -57 -43 -32 -33 -88 -138 -88 -164 0 -29 48 -59 94 -59 63 0 85 31 47 67 -18 18 -18 19 6 56 34 54 49 56 91 14 35 -35 35 -37 18 -56 -23 -26 -17 -53 15 -65 32 -11 74 8 102 46 20 27 20 29 4 64 -28 58 -77 112 -122 134 -48 23 -69 24 -110 6z"
       id="path3" />
    <path
       d="M6465 8656 c-44 -19 -83 -69 -99 -129 -16 -55 -36 -244 -36 -338 0 -39 -4 -59 -14 -62 -18 -7 -56 -87 -56 -119 0 -30 33 -63 55 -54 9 3 22 21 30 41 14 31 18 34 45 28 24 -4 36 0 54 16 22 20 24 33 30 174 9 198 21 286 40 305 14 14 19 13 53 -11 21 -15 91 -74 156 -132 66 -57 128 -107 138 -110 26 -8 69 20 69 45 0 11 8 20 21 22 12 2 28 13 36 25 14 20 13 24 -11 48 -19 18 -36 25 -66 25 -35 0 -48 7 -112 67 -170 156 -251 195 -333 159z"
       id="path4" />
    <path
       d="M8720 8614 c-213 -56 -390 -234 -445 -449 -19 -76 -19 -204 0 -280 57 -226 243 -402 476 -451 248 -53 515 68 647 292 59 101 77 168 77 299 0 178 -52 303 -179 431 -78 78 -170 131 -273 158 -76 20 -228 20 -303 0z m303 -104 c167 -52 295 -190 341 -367 53 -202 -34 -416 -220 -544 -97 -66 -253 -95 -373 -69 -182 39 -339 179 -391 349 -65 208 20 443 204 565 125 83 300 109 439 66z"
       id="path5" />
    <path
       d="M8832 8237 c-49 -15 -127 -90 -147 -139 -25 -62 -23 -156 5 -212 27 -56 96 -119 148 -134 128 -39 249 13 309 132 64 127 8 287 -122 347 -45 21 -139 24 -193 6z"
       id="path6" />
    <path
       d="M4710 8448 c-54 -28 -87 -86 -97 -168 -3 -30 -12 -67 -20 -83 -26 -52 25 -95 97 -82 76 14 106 63 54 87 -24 11 -25 15 -19 57 17 111 37 116 144 34 24 -18 52 -33 62 -33 24 0 52 44 44 69 -9 29 -64 80 -115 106 -72 36 -99 38 -150 13z"
       id="path7" />
    <path
       d="M7428 8342 c-39 -26 -86 -91 -94 -130 -8 -40 8 -62 45 -62 21 0 34 11 61 52 19 29 40 54 47 56 7 2 29 -20 49 -48 30 -42 41 -51 63 -48 43 5 51 50 20 107 -47 83 -128 114 -191 73z"
       id="path8" />
    <path
       d="M10035 8331 c-39 -23 -83 -75 -91 -107 -7 -26 18 -64 41 -64 7 0 30 20 53 45 22 25 46 45 52 45 5 0 20 -20 32 -45 12 -25 29 -47 39 -50 74 -24 77 100 4 164 -42 36 -85 40 -130 12z"
       id="path9" />
    <path
       d="M5115 8116 c-36 -16 -82 -67 -102 -114 -25 -60 -43 -224 -50 -442 l-6 -215 -29 -37 c-32 -41 -58 -107 -58 -147 0 -56 65 -99 77 -51 7 26 11 25 34 -4 11 -14 45 -37 76 -53 48 -23 70 -27 138 -28 98 0 171 19 192 52 14 21 14 25 -1 42 -15 17 -28 18 -119 14 -120 -6 -174 6 -220 48 l-32 29 28 -6 c21 -5 34 -1 53 17 l24 22 0 250 c0 353 20 497 69 497 10 0 38 -14 62 -32 53 -38 253 -207 369 -312 80 -72 88 -77 125 -74 40 3 40 3 43 -36 7 -86 -92 -215 -240 -313 -57 -37 -73 -53 -73 -72 0 -63 75 -45 201 50 79 59 147 137 186 213 28 54 35 153 15 191 -14 28 -14 30 7 40 33 17 27 55 -13 82 -25 17 -48 23 -88 23 l-53 0 -152 131 c-84 72 -180 151 -214 175 -99 71 -180 90 -249 60z"
       id="path10" />
    <path
       d="M4030 8043 c-28 -10 -69 -56 -80 -87 -5 -18 -14 -67 -19 -111 -5 -44 -13 -93 -17 -108 -10 -42 18 -67 75 -67 88 0 147 67 84 95 -19 8 -23 18 -23 56 0 64 10 110 26 116 8 3 47 -16 88 -41 40 -25 78 -46 83 -46 18 0 43 36 43 63 0 17 -12 35 -37 57 -78 63 -168 93 -223 73z"
       id="path11" />
    <path
       d="M10010 7970 c-125 -34 -196 -74 -286 -164 -126 -126 -184 -264 -184 -436 0 -170 59 -309 181 -432 60 -59 95 -85 162 -117 185 -90 359 -92 533 -6 179 88 295 242 330 437 38 210 -23 405 -176 559 -114 115 -227 165 -395 174 -70 4 -106 1 -165 -15z m271 -96 c91 -27 165 -73 233 -144 70 -74 108 -145 131 -242 76 -322 -166 -639 -488 -638 -123 0 -263 57 -353 142 -109 103 -165 228 -166 372 0 107 12 158 59 248 68 131 201 232 352 267 60 15 174 12 232 -5z"
       id="path12" />
    <path
       d="M10106 7585 c-125 -44 -199 -190 -162 -318 46 -158 231 -235 370 -153 82 48 129 132 129 231 1 172 -175 298 -337 240z"
       id="path13" />
    <path
       d="M7330 7964 c-30 -8 -92 -33 -138 -55 -192 -96 -324 -297 -339 -512 -16 -244 120 -476 341 -581 115 -55 161 -66 281 -66 179 0 327 61 450 185 120 121 178 261 178 430 1 175 -53 304 -178 431 -65 66 -96 89 -165 122 -47 22 -109 45 -138 51 -73 15 -226 13 -292 -5z m247 -89 c111 -21 195 -65 274 -144 172 -171 205 -419 84 -627 -42 -72 -143 -167 -217 -203 -35 -18 -101 -39 -147 -48 -75 -15 -90 -15 -171 -1 -122 22 -208 66 -291 148 -79 78 -131 176 -150 280 -41 232 114 487 351 574 37 13 109 28 177 35 6 0 47 -6 90 -14z"
       id="path14" />
    <path
       d="M7472 7581 c-183 -64 -233 -308 -90 -437 53 -48 101 -67 168 -66 136 0 243 99 257 236 19 183 -163 329 -335 267z"
       id="path15" />
    <path
       d="M6321 7723 c-44 -22 -74 -88 -75 -164 -1 -65 14 -89 55 -89 33 0 49 23 49 74 0 44 16 86 32 86 7 0 31 -14 52 -30 43 -32 65 -37 84 -18 35 35 -12 110 -90 142 -47 20 -65 20 -107 -1z"
       id="path16" />
    <path
       d="M4281 7613 c-19 -10 -43 -29 -53 -43 -24 -34 -46 -142 -54 -275 -5 -78 -13 -121 -26 -147 -19 -37 -18 -68 4 -95 14 -18 55 -16 61 2 5 11 12 12 37 4 22 -8 38 -8 60 1 46 19 50 62 8 76 -20 6 -21 11 -15 153 8 160 16 205 38 209 8 1 68 -42 133 -98 122 -103 149 -116 179 -82 42 46 12 88 -148 217 -114 92 -164 109 -224 78z"
       id="path17" />
    <path
       d="M6176 7200 c-41 -13 -73 -46 -92 -97 -14 -36 -16 -63 -10 -151 3 -59 12 -141 20 -182 11 -62 11 -80 0 -107 -19 -43 -18 -103 2 -131 28 -40 74 -22 74 30 0 23 4 28 24 28 60 0 67 39 36 225 -11 66 -20 150 -20 188 0 57 3 67 18 67 9 0 79 -30 155 -67 133 -65 139 -67 165 -52 35 19 41 62 13 100 -24 32 -26 40 -10 37 16 -4 33 27 26 46 -12 30 -52 37 -107 19 -50 -16 -50 -16 -117 15 -76 35 -134 45 -177 32z"
       id="path18" />
    <path
       d="M5412 7031 c-7 -4 -44 -66 -83 -137 -39 -71 -76 -135 -83 -142 -10 -10 -30 -6 -108 22 -187 68 -260 69 -333 5 -71 -63 -82 -213 -37 -517 l19 -123 -82 -82 c-132 -132 -194 -287 -140 -347 25 -28 66 -23 81 10 7 14 27 56 45 95 29 62 110 165 129 165 4 0 11 -15 14 -34 15 -77 88 -114 131 -66 21 24 19 63 -19 277 -50 278 -67 465 -46 504 21 39 71 25 409 -116 196 -82 217 -85 247 -40 34 53 -5 99 -129 150 -37 16 -66 31 -65 34 2 3 19 38 39 76 66 126 86 227 51 258 -21 19 -22 20 -40 8z"
       id="path19" />
    <path
       d="M3655 6946 c-31 -31 -48 -96 -37 -138 6 -26 14 -34 35 -36 30 -4 41 14 52 81 l6 38 33 -21 c36 -21 60 -19 70 7 10 26 -3 51 -38 73 -45 27 -91 26 -121 -4z"
       id="path20" />
    <path
       d="M8573 6910 c-12 -5 -29 -20 -39 -34 -26 -40 -12 -86 41 -135 38 -35 51 -41 88 -41 72 0 102 52 68 119 -35 68 -109 111 -158 91z"
       id="path21" />
    <path
       d="M9263 6900 c-43 -26 -93 -96 -93 -130 0 -65 82 -92 145 -48 74 50 96 128 50 173 -29 30 -59 32 -102 5z"
       id="path22" />
    <path
       d="M2623 6535 c-61 -26 -95 -123 -73 -205 12 -44 41 -80 64 -80 33 0 49 32 42 84 -7 61 1 96 21 96 8 0 34 -12 58 -26 54 -31 85 -21 85 27 0 36 -34 73 -93 99 -50 23 -62 24 -104 5z"
       id="path23" />
    <path
       d="M3415 6503 c-36 -10 -66 -36 -88 -77 -18 -35 -21 -56 -20 -146 1 -58 8 -152 17 -210 15 -96 15 -107 -1 -148 -19 -50 -10 -108 20 -126 24 -15 51 3 57 40 4 22 10 28 26 26 11 -1 29 6 39 18 20 22 19 47 -10 240 -18 120 -24 245 -12 256 13 14 61 -11 225 -115 87 -56 168 -101 180 -101 35 0 55 29 49 71 -3 27 -1 39 9 43 20 8 17 40 -6 61 -15 14 -30 16 -66 12 -43 -4 -53 -1 -122 44 -139 91 -238 128 -297 112z"
       id="path24" />
    <path
       d="M5685 6486 c-19 -14 -19 -15 -1 -72 39 -125 30 -226 -35 -361 -32 -68 -34 -99 -7 -117 43 -26 127 96 154 225 27 126 4 259 -55 318 -25 25 -31 26 -56 7z"
       id="path25" />
    <path
       d="M8805 6473 c-828 -33 -1675 -204 -2235 -450 -195 -86 -230 -117 -208 -184 8 -24 44 -49 69 -49 6 0 45 16 86 36 225 107 537 208 897 293 580 136 1184 201 1751 188 223 -6 524 -25 645 -41 454 -62 782 -145 1063 -270 132 -59 152 -62 190 -28 21 19 23 79 2 108 -27 40 -278 148 -483 209 -485 143 -1152 213 -1777 188z"
       id="path26" />
    <path
       d="M6419 6392 c-184 -76 -336 -208 -408 -353 -23 -46 -48 -118 -57 -159 -51 -244 116 -501 377 -581 37 -11 86 -19 110 -17 43 3 44 4 44 38 0 34 -1 35 -81 66 -250 97 -377 285 -329 489 41 176 169 317 402 440 74 39 94 64 73 90 -18 22 -57 18 -131 -13z"
       id="path27" />
    <path
       d="M4291 6365 c-28 -24 -51 -77 -66 -151 -6 -33 9 -84 28 -96 36 -23 77 6 77 55 0 47 19 107 33 107 7 0 31 -18 52 -40 39 -40 71 -50 93 -28 20 20 14 53 -17 95 -59 82 -142 106 -200 58z"
       id="path28" />
    <path
       d="M5455 5836 c-126 -84 -179 -101 -310 -101 -101 0 -114 2 -162 28 -29 15 -60 38 -68 51 -33 51 -85 39 -85 -19 0 -121 249 -210 445 -160 117 31 273 126 306 187 12 22 -11 68 -34 68 -6 -1 -48 -25 -92 -54z"
       id="path29" />
    <path
       d="M10301 5426 c-8 -10 -10 -33 -5 -75 7 -69 1 -74 -47 -40 -40 28 -73 22 -77 -15 -4 -33 27 -72 75 -92 49 -21 79 -17 115 15 31 28 33 33 33 95 0 50 -5 71 -21 93 -24 32 -55 41 -73 19z"
       id="path30" />
    <path
       d="M4528 5330 c-42 -23 -70 -58 -88 -115 -26 -78 -7 -405 35 -604 14 -68 14 -78 -1 -117 -29 -76 15 -151 73 -125 19 9 31 7 56 -6 22 -12 55 -18 104 -18 62 0 76 3 95 22 18 18 20 26 11 45 -9 19 -23 26 -78 35 -37 6 -68 13 -70 15 -6 6 -46 242 -65 387 -23 164 -26 321 -8 339 7 7 20 12 29 12 20 0 275 -168 422 -278 54 -40 110 -79 125 -85 25 -11 27 -17 27 -67 0 -54 0 -55 29 -55 95 0 96 237 1 268 -17 5 -82 49 -145 97 -321 244 -452 303 -552 250z"
       id="path31" />
    <path
       d="M9281 5236 c-6 -7 -20 -46 -31 -87 -11 -41 -25 -93 -32 -117 -15 -51 -4 -75 34 -80 19 -2 31 5 46 25 44 63 75 209 53 251 -13 25 -52 29 -70 8z"
       id="path32" />
    <path
       d="M6058 5129 c-11 -6 -18 -22 -18 -39 0 -24 11 -36 72 -79 214 -151 373 -355 434 -556 22 -76 43 -100 78 -91 44 11 53 46 34 137 -48 233 -271 505 -503 615 -55 26 -71 28 -97 13z"
       id="path33" />
    <path
       d="M7780 5102 c-94 -45 -205 -271 -186 -376 9 -47 57 -102 103 -117 98 -32 264 46 363 172 43 54 50 88 24 113 -25 26 -41 19 -107 -42 -156 -144 -282 -175 -264 -66 9 51 57 150 106 214 27 36 41 63 39 79 -4 33 -37 43 -78 23z"
       id="path34" />
    <path
       d="M6687 5082 c-27 -29 -20 -50 32 -102 102 -102 273 -192 419 -221 60 -11 65 -11 85 9 35 35 12 65 -70 92 -97 32 -225 99 -316 164 -118 85 -124 87 -150 58z"
       id="path35" />
    <path
       d="M9540 4890 c-34 -34 -22 -73 25 -81 41 -8 68 -210 32 -246 -34 -34 -99 12 -177 127 -43 63 -65 73 -95 43 -48 -48 45 -208 159 -273 37 -22 64 -30 100 -30 45 0 53 4 91 44 35 36 44 54 53 102 20 119 -26 287 -89 319 -39 21 -75 19 -99 -5z"
       id="path36" />
    <path
       d="M10043 4864 c-3 -9 -1 -31 5 -48 7 -18 12 -49 12 -69 0 -43 -21 -49 -61 -19 -35 27 -60 34 -75 21 -23 -19 -16 -53 19 -86 43 -41 69 -53 112 -53 47 0 91 42 101 95 8 45 -10 132 -33 157 -20 23 -71 24 -80 2z"
       id="path37" />
    <path
       d="M5605 4812 c-39 -24 -48 -36 -84 -108 -30 -61 -71 -203 -71 -247 0 -45 62 -76 88 -44 6 7 31 71 56 141 24 71 51 135 59 144 13 12 18 9 42 -32 15 -26 47 -90 71 -144 30 -67 51 -102 69 -112 25 -14 27 -14 52 14 29 34 28 51 -13 154 -38 95 -106 203 -144 230 -40 27 -85 28 -125 4z"
       id="path38" />
    <path
       d="M8719 4781 c-23 -18 -24 -26 -24 -128 0 -101 2 -111 28 -156 49 -83 123 -113 205 -81 67 25 159 121 205 213 52 103 48 161 -10 161 -18 0 -36 -21 -86 -97 -89 -137 -153 -191 -194 -165 -24 15 -44 84 -45 159 -1 59 -6 81 -20 95 -23 23 -30 23 -59 -1z"
       id="path39" />
    <path
       d="M11027 4603 c-68 -51 -177 -218 -177 -270 0 -30 43 -58 66 -45 10 6 50 57 89 113 39 57 78 105 87 107 17 3 32 -59 44 -181 6 -56 11 -71 30 -83 32 -22 61 -4 74 47 13 46 0 163 -26 241 -31 95 -113 126 -187 71z"
       id="path40" />
    <path
       d="M11586 4217 c-53 -30 -84 -72 -70 -95 17 -26 43 -26 85 -3 l38 22 3 -63 c3 -59 5 -63 29 -66 44 -5 64 29 64 110 0 64 -2 72 -28 94 -35 30 -70 30 -121 1z"
       id="path41" />
    <path
       d="M6888 4195 c-10 -21 -8 -30 8 -52 51 -68 309 -178 477 -203 68 -10 81 -9 103 4 28 19 32 61 7 75 -10 5 -58 19 -108 31 -111 28 -239 76 -343 130 -93 47 -127 51 -144 15z"
       id="path42" />
    <path
       d="M6100 4086 c-44 -25 -130 -149 -130 -189 0 -18 32 -47 53 -47 9 0 40 32 69 70 28 39 57 69 62 67 10 -3 23 -42 42 -132 8 -34 13 -40 39 -43 39 -5 55 19 55 80 0 75 -19 136 -55 174 -26 28 -40 34 -71 34 -22 -1 -50 -7 -64 -14z"
       id="path43" />
    <path
       d="M4548 4064 c-15 -8 -36 -29 -45 -47 -37 -67 -11 -261 46 -354 27 -42 66 -53 94 -25 l20 21 -26 88 c-29 97 -43 184 -34 208 8 19 33 9 146 -62 47 -29 90 -53 97 -53 19 0 44 29 44 51 0 34 -18 57 -84 103 -115 83 -195 105 -258 70z"
       id="path44" />
    <path
       d="M8515 3938 c-87 -21 -105 -31 -105 -59 0 -37 29 -52 92 -46 110 10 185 67 148 113 -16 18 -35 17 -135 -8z"
       id="path45" />
    <path
       d="M11492 3770 c-41 -25 -60 -63 -42 -85 16 -19 41 -19 66 0 31 23 37 18 30 -26 -8 -48 5 -69 40 -69 31 0 57 50 57 108 0 82 -75 118 -151 72z"
       id="path46" />
    <path
       d="M5200 3697 c-38 -19 -67 -71 -79 -143 -18 -98 -2 -154 44 -154 31 0 42 17 50 75 10 76 25 125 36 125 6 0 36 -25 68 -55 59 -56 89 -67 111 -40 20 24 3 63 -53 122 -76 81 -121 99 -177 70z"
       id="path47" />
    <path
       d="M2254 5436 c-41 -18 -75 -64 -124 -168 -68 -147 -77 -231 -24 -244 35 -9 45 4 89 110 46 113 83 186 94 186 10 0 53 -93 93 -204 34 -93 43 -106 72 -106 63 1 67 68 12 210 -47 122 -97 197 -141 216 -40 16 -32 16 -71 0z"
       id="path48" />
    <path
       d="M1589 5245 c-34 -19 -54 -67 -54 -133 0 -42 4 -57 19 -68 37 -26 56 -10 67 56 4 29 10 55 13 57 3 3 24 -8 47 -25 33 -25 46 -29 61 -21 28 15 32 33 14 67 -32 63 -116 96 -167 67z"
       id="path49" />
    <path
       d="M1634 4728 c-12 -5 -32 -29 -45 -51 -21 -36 -24 -55 -24 -137 0 -56 5 -104 13 -117 15 -27 45 -37 70 -24 17 9 20 24 24 111 2 55 8 104 14 110 7 7 37 -13 93 -60 45 -39 87 -70 92 -70 12 0 49 37 49 50 0 40 -114 160 -177 187 -38 15 -79 16 -109 1z"
       id="path50" />
    <path
       d="M1553 3938 c-32 -15 -53 -68 -53 -130 0 -63 20 -98 55 -98 32 0 45 27 45 89 0 28 3 51 8 51 4 -1 23 -14 42 -30 51 -44 100 -36 100 15 0 22 -58 84 -97 104 -27 14 -71 13 -100 -1z"
       id="path51" />
  </g>
  <path
     style="fill:#ffffff;stroke-width:0.72262"
     d="m 442.7284,783.63699 c 0.50564,-1.45045 1.12393,-2.07674 1.79576,-1.81891 7.65136,2.93608 14.05966,3.15835 17.49316,0.60664 2.1583,-1.604 2.83796,-4.93817 1.39452,-6.84119 -0.51431,-0.67803 -4.51207,-3.38974 -8.88392,-6.02592 -12.02291,-7.24982 -18.68177,-12.273 -26.38061,-19.90048 -19.97934,-19.79417 -33.95821,-45.2529 -41.62798,-75.81407 -2.07529,-8.26927 -2.08543,-8.4185 -2.06186,-30.35004 0.0232,-21.63649 0.0592,-22.17039 1.96674,-29.16887 1.06868,-3.92093 3.06823,-9.17594 4.44342,-11.67781 l 2.50037,-4.54885 -1.39581,-8.55554 c -1.59288,-9.76359 -1.69898,-12.05911 -0.64812,-14.02265 0.70726,-1.32152 1.1535,-1.18114 8.19049,2.57668 4.09336,2.1859 8.08998,3.97435 8.88139,3.97435 2.16534,0 4.58132,-2.98642 4.58132,-5.66302 0,-2.85169 -4.24905,-7.73245 -10.10972,-11.61273 -2.1821,-1.44475 -4.07895,-3.20581 -4.21523,-3.91347 -0.13629,-0.70767 1.13045,-3.62741 2.81496,-6.48832 8.54531,-14.51299 18.05502,-25.29295 33.34726,-37.80161 5.05529,-4.13508 9.5265,-8.14441 9.93603,-8.90963 1.27182,-2.37641 0.83073,-4.40183 -1.45678,-6.68935 -1.87785,-1.87783 -2.57908,-2.14009 -4.77123,-1.78435 -11.81967,1.91807 -35.19468,20.87338 -46.25317,37.50773 -11.14453,16.76377 -16.86835,33.43162 -16.86835,49.12091 0,2.61209 -0.79294,6.66119 -2.12639,10.85825 -6.14691,19.34761 -7.69195,31.23471 -6.92794,53.30186 0.56092,16.20159 1.242,21.61529 4.13642,32.87921 1.22553,4.76929 2.38935,9.612 2.58627,10.76158 l 0.35803,2.09015 -5.33612,-0.51079 c -16.54547,-1.58377 -33.03813,-8.05645 -38.4188,-15.07778 -3.02684,-3.94977 -5.71193,-6.29591 -7.2055,-6.29591 -1.74629,0 -1.6885,-0.28307 2.36059,-11.56192 4.52726,-12.61078 7.7222,-25.92942 8.66739,-36.13149 0.46287,-4.99608 0.7528,-17.75087 0.6488,-28.54299 -0.16087,-16.6943 0.006,-20.44955 1.15361,-26.01432 1.63547,-7.92798 1.85595,-24.86408 0.42803,-32.8792 -1.96123,-11.00868 -4.9582,-15.91811 -9.08497,-14.88237 -2.54713,0.6393 -2.9188,3.01656 -1.93991,12.40759 0.46184,4.43064 0.82348,9.9705 0.80364,12.31079 l -0.0361,4.25507 -2.37766,-6.50357 c -4.2829,-11.71502 -12.02537,-25.58024 -20.92445,-37.47155 -5.7232,-7.64757 -18.97613,-21.25515 -25.40258,-26.08233 -9.95567,-7.47814 -22.97316,-14.02432 -33.92132,-17.0582 -12.26913,-3.39996 -34.56473,-3.36089 -47.73662,0.0836 -7.44892,1.94793 -21.77588,7.84075 -28.81317,11.85112 -3.03016,1.72681 -5.50938,2.96869 -5.50938,2.75975 0,-0.20896 1.47604,-2.4484 3.28009,-4.97654 l 3.28008,-4.59664 -1.47353,-7.6357 c -1.75808,-9.11016 -1.84608,-11.80045 -0.4041,-12.35379 0.5882,-0.22571 3.78763,0.30768 7.10986,1.18532 5.71914,1.51084 6.16336,1.53214 8.35188,0.40041 2.34496,-1.21263 3.67146,-3.49787 5.06016,-8.7175 1.25866,-4.73087 4.63507,-8.0854 11.20024,-11.12768 7.07091,-3.27664 14.53247,-9.16013 23.45959,-18.49807 5.21597,-5.45601 6.83182,-7.64991 7.51466,-10.20297 0.68562,-2.56345 1.37206,-3.49072 3.24052,-4.37736 4.90468,-2.32742 15.29604,-17.3974 18.21618,-26.41788 0.48032,-1.48372 1.74413,-3.48311 2.80848,-4.44308 10.85469,-9.79026 20.68849,-18.15093 21.34906,-18.15093 0.44715,0 1.10407,1.37982 1.45984,3.06627 0.57509,2.72614 0.43135,3.37723 -1.29576,5.86945 -7.39846,10.67599 -6.44585,24.40781 1.99609,28.77331 2.61947,1.35457 5.38008,0.69613 5.90485,-1.40838 0.22148,-0.88819 -0.24323,-3.63292 -1.03267,-6.09938 -0.90708,-2.83404 -1.28239,-5.42706 -1.01974,-7.04555 0.22858,-1.40858 0.54112,-2.56105 0.69452,-2.56105 0.15341,0 1.65546,1.42933 3.33789,3.1763 1.91359,1.98697 4.14128,3.47363 5.94946,3.97038 4.06808,1.11759 13.72324,0.97903 18.39404,-0.26397 11.28562,-3.00336 20.50991,-10.69366 17.36786,-14.47961 -1.27801,-1.5399 -2.94756,-1.35692 -10.75677,1.17894 -5.15819,1.67499 -8.41214,2.27787 -12.67583,2.34851 l -5.7362,0.095 -4.5531,-16.62026 c -5.07168,-18.51323 -12.15679,-47.8139 -15.02279,-62.12716 -3.00791,-15.02193 -3.99277,-22.01702 -3.99587,-28.38098 -0.006,-12.88288 4.01481,-11.75495 29.40472,8.24814 5.88378,4.63545 18.64903,15.10376 28.36724,23.2629 24.27213,20.37824 26.18642,21.78218 29.70041,21.78218 3.15104,0 5.74269,-1.93002 5.74269,-4.27662 0,-2.61967 0.84335,-3.6722 2.94237,-3.6722 4.56696,0 4.13873,-5.82815 -0.62408,-8.49372 -1.47378,-0.82482 -3.98032,-1.72958 -5.57008,-2.01056 -3.6891,-0.65204 -6.44087,-2.33431 -10.33424,-6.31775 l -3.10806,-3.17995 5.63723,-4.42877 c 3.10046,-2.43582 9.52644,-7.12168 14.27995,-10.41302 4.7535,-3.29134 9.34798,-7.03083 10.20996,-8.30999 1.16477,-1.72849 1.69693,-3.95531 2.07231,-8.67144 0.60278,-7.57329 1.02578,-9.59749 2.00556,-9.59749 0.40369,0 3.25468,1.13812 6.33554,2.52917 7.13688,3.22239 9.46332,3.22548 14.22485,0.0189 10.55803,-7.1102 28.38178,-17.27003 49.66873,-28.31203 8.77576,-4.55217 16.70046,-9.01116 17.61046,-9.90888 1.14309,-1.12765 1.9021,-3.12611 2.45534,-6.46482 0.44044,-2.65793 1.10636,-4.83261 1.47983,-4.83261 0.37347,0 2.77883,1.17427 5.34525,2.6095 l 4.66622,2.6095 4.87041,-1.26322 c 4.53072,-1.17512 5.02997,-1.18072 7.15789,-0.0803 3.77431,1.95177 7.87582,1.55845 10.43493,-1.00067 1.54725,-1.54724 2.02541,-2.5475 1.64085,-3.43244 -0.29849,-0.68689 -0.68774,-2.27504 -0.865,-3.52921 -0.57766,-4.08716 3.76645,-16.14648 5.81643,-16.14648 0.67887,0 9.79126,6.89865 11.99129,9.07815 0.156,0.15454 -0.10887,0.75391 -0.5886,1.33194 -0.47972,0.57803 -0.76994,2.29308 -0.64494,3.81122 0.20731,2.51758 0.42972,2.77986 2.52979,2.98326 1.26637,0.12265 3.38004,-0.31965 4.69703,-0.9829 3.29127,-1.65751 7.81418,-6.11867 7.81418,-7.70751 0,-0.72007 0.92905,-1.87349 2.06456,-2.56317 2.24973,-1.36643 20.1662,-7.08494 20.65769,-6.59345 0.16633,0.16634 0.52904,3.88365 0.806,8.2607 l 0.50358,7.95827 -4.64959,3.00695 c -5.71605,3.69665 -10.65195,8.87613 -13.35984,14.01913 -1.87192,3.5553 -2.04799,4.54205 -2.04799,11.47722 0,8.50057 1.00376,11.34176 5.53698,15.67266 4.3091,4.11678 7.89554,4.49381 10.90935,1.14685 1.22163,-1.35667 1.16986,-1.63141 -1.32481,-7.03079 -1.69231,-3.66277 -2.59611,-6.68913 -2.59611,-8.69295 0,-3.31908 2.59822,-9.24383 5.00905,-11.42219 1.40972,-1.27378 1.44344,-1.21479 2.19325,3.83708 1.17602,7.92356 5.04087,12.00271 14.28266,15.07462 15.5403,5.1655 32.83197,3.28911 32.83197,-3.56273 0,-3.24295 -2.51574,-4.42095 -10.96751,-5.13562 -7.05531,-0.59657 -14.76253,-2.18769 -17.37844,-3.58768 -1.15899,-0.62027 -1.28147,-2.02004 -1.28147,-14.64554 0,-19.77688 1.39965,-47.26526 4.38261,-86.07229 2.85931,-37.198376 5.06094,-49.222993 9.25621,-50.554519 5.22346,-1.657863 10.14771,5.718953 53.76506,80.543249 14.72779,25.2651 20.46294,34.01411 23.12479,35.27699 3.84448,1.82396 9.19288,-1.35947 9.19288,-5.47173 0,-4.57095 5.52732,-1.18083 6.46877,3.96754 0.66341,3.62793 -0.52843,8.35572 -3.8557,15.29467 -2.52147,5.25848 -2.54388,5.38513 -1.32438,7.48743 1.72718,2.9775 2.57519,3.11378 6.19079,0.9949 5.88659,-3.44978 10.28651,-10.01192 12.05986,-17.98636 1.44263,-6.48728 -0.78768,-14.61165 -5.36314,-19.53631 -2.33605,-2.51434 -9.59118,-5.99311 -14.71902,-7.05765 -3.16449,-0.65695 -4.14822,-1.23316 -5.28326,-3.09461 -0.76709,-1.25805 -1.39594,-2.47977 -1.39742,-2.71494 -0.008,-1.19563 24.25217,-5.71595 44.07711,-8.21292 4.96801,-0.62572 10.42359,-1.65058 12.12351,-2.27746 3.76268,-1.38758 4.38255,-2.50884 9.54434,-17.26422 8.16997,-23.35452 14.20303,-37.36075 16.65897,-38.675123 3.02007,-1.616298 5.44607,1.439899 15.07911,18.996213 7.99253,14.56647 12.35248,23.38283 12.35248,24.97822 0,1.11637 -0.898,1.50209 -5.12075,2.19946 -5.53362,0.91385 -10.29338,2.96619 -11.37927,4.90658 -0.42574,0.76074 -0.42274,1.9526 0.008,3.18823 0.7981,2.28942 1.05925,2.32886 23.71822,3.58197 13.95774,0.77191 24.63715,1.79029 30.62932,2.9208 1.9421,0.36639 3.67913,0.66618 3.86008,0.66618 0.18094,0 -1.14335,1.43095 -2.94288,3.1799 -3.87041,3.76162 -4.94379,7.32801 -3.0674,10.19175 1.66874,2.54681 4.48161,2.32815 10.74105,-0.83495 2.87152,-1.45107 10.42382,-4.70867 16.78287,-7.23912 17.24073,-6.86058 23.52255,-11.67894 30.70475,-23.55157 1.74049,-2.87714 10.2243,-19.09892 18.85289,-36.048398 20.52977,-40.327315 23.14226,-44.696539 26.72566,-44.696539 7.62061,0 14.32298,34.220899 19.81417,101.166787 2.13823,26.06842 2.55453,28.29106 5.75689,30.73362 2.72392,2.07762 3.83061,2.18032 7.4044,0.68709 2.47967,-1.03607 2.71669,-1.01197 4.25443,0.43269 2.67167,2.50987 3.52775,5.35881 2.5705,8.55392 -1.59851,5.33522 -0.44224,8.00821 3.46409,8.00821 2.96347,0 5.55211,-2.42498 7.14397,-6.69233 1.20121,-3.2201 1.73804,-3.83399 3.70415,-4.23611 1.26458,-0.25864 3.00971,-1.09332 3.87794,-1.85485 0.8683,-0.76152 4.99309,-4.47465 9.16622,-8.25138 13.73604,-12.43133 14.11254,-12.55466 13.54424,-4.43768 -0.5371,7.67073 -3.1739,18.39329 -5.28997,21.51151 -2.23492,3.2933 -2.20891,5.01356 0.11077,7.33327 2.4248,2.4247 5.6294,2.11058 14.2267,-1.3945 3.4722,-1.41561 6.3131,-2.32596 6.3131,-2.02299 0,1.88795 -4.8208,6.9541 -16.9424,17.80473 -2.53775,2.2717 -3.29101,3.44848 -3.29101,5.14155 0,4.38836 4.87161,7.75686 7.18561,4.96859 0.7455,-0.89824 1.2465,-0.89824 3.7925,0 1.6133,0.56925 3.2371,1.03499 3.6084,1.03499 1.1223,0 7.999,-6.81735 22.5392,-22.34453 7.6004,-8.11636 15.1072,-15.69124 16.6817,-16.83307 2.7866,-2.02094 2.8771,-2.03682 3.4092,-0.59838 0.5653,1.528 -0.4898,15.35462 -3.035,39.77598 -2.5924,24.87388 -2.917,26.88671 -4.2397,26.28656 -2.6151,-1.18651 -7.7802,-1.1414 -9.0002,0.0786 -4.1509,4.15087 3.869,11.13891 14.9147,12.99588 2.3611,0.39694 3.1052,1.03548 5.3345,4.57723 5.6587,8.99051 7.2914,9.57687 16.4908,5.92249 6.189,-2.45855 8.3101,-2.71138 8.3101,-0.99056 0,0.64752 -1.1941,6.2175 -2.6536,12.37773 -3.0382,12.82401 -3.3545,10.00556 3.2226,28.71824 2.3747,6.75649 5.0423,15.18817 5.928,18.73707 1.5026,6.02115 1.5325,6.58418 0.4471,8.42163 -2.6743,4.5272 -0.2876,10.05622 4.3408,10.05622 1.3798,0 9.0367,-0.97554 17.0156,-2.16786 16.4058,-2.45165 23.0723,-2.74491 24.4574,-1.07593 0.734,0.8845 0.6621,1.74247 -0.3787,4.51638 -2.3879,6.36416 -10.5233,21.48039 -17.8899,33.24105 l -2.8344,4.52491 -3.5605,-3.07967 c -7.7464,-6.70034 -10.6601,-7.78199 -13.2509,-4.91917 -1.7491,1.93279 -1.2291,3.17651 6.9905,16.71594 11.6516,19.19293 15.1862,29.94105 15.3072,46.54625 0.081,11.10229 -0.9417,16.70093 -4.7324,25.90907 -6.2264,15.12494 -15.7165,25.80751 -30.6408,34.49077 -8.31,4.83489 -8.983,5.47293 -14.4184,13.6687 -12.2783,18.51397 -30.2195,35.71082 -48.9578,46.92665 -6.6338,3.97069 -8.4859,5.81782 -8.4859,8.46294 0,4.17957 4.9611,4.97738 12.7413,2.04894 15.3295,-5.77006 36.4958,-22.08174 48.5737,-37.43317 2.4439,-3.1062 4.4434,-5.31589 4.4434,-4.91042 0,1.33177 -5.513,16.15032 -9.6612,25.96881 -2.2378,5.29638 -4.0686,10.68644 -4.0686,11.97792 0,2.92334 2.5367,5.49054 5.4253,5.49054 4.2553,0 12.0004,-10.07091 18.0139,-23.42338 1.6263,-3.61094 3.2482,-6.72793 3.6044,-6.92666 0.3562,-0.19872 1.6833,2.7282 2.9493,6.50426 2.9487,8.79543 4.3369,11.43007 6.555,12.44069 1.4854,0.67681 2.1297,0.57099 3.759,-0.6174 1.0815,-0.7888 2.4541,-2.46414 3.0503,-3.72296 0.9254,-1.9541 1.4734,-2.29106 3.7476,-2.30441 2.5056,-0.0147 3.2349,-0.6452 12.2846,-10.62131 5.2914,-5.83311 12.0577,-12.68727 15.0362,-15.23146 l 5.4154,-4.6258 0.5288,2.40496 c 0.8261,3.75707 -1.2477,30.94845 -2.3603,30.94845 -0.3131,0 -2.0739,-0.64491 -3.9127,-1.43314 -1.8389,-0.78823 -5.3849,-1.8093 -7.88,-2.26903 -5.6177,-1.03511 -8.6346,0.0234 -8.9963,3.15639 -0.2891,2.50358 1.4946,4.19269 9.803,9.28323 8.6836,5.32046 19.7748,13.77395 22.1396,16.87436 3.2821,4.30303 5.2691,3.78217 22.4817,-5.89331 4.3718,-2.45749 8.8591,-4.68698 9.9717,-4.95443 1.9303,-0.464 2,-0.39133 1.5225,1.58824 -1.314,5.44759 -5.6106,18.87703 -7.1617,22.38428 l -1.7362,3.92582 -2.8444,-0.45485 c -2.3111,-0.36956 -3.1304,-0.16892 -4.3693,1.07001 -0.8387,0.83868 -1.5249,1.78718 -1.5249,2.10778 0,0.32061 2.5888,4.75298 5.7528,9.84972 6.3154,10.17317 9.4944,17.14301 11.6334,25.50653 2.2076,8.63156 1.9516,11.26879 -1.4712,15.15733 -4.2485,4.82645 -4.7733,10.22984 -1.154,11.87893 1.4715,0.67042 8.0139,-0.68847 20.1061,-4.17612 1.0933,-0.31533 1.1678,-0.10865 0.5486,1.52025 -1.0807,2.8425 -7.6522,12.85019 -9.7032,14.77701 -1.3985,1.31388 -2.3006,1.59488 -4.0177,1.25147 -1.6783,-0.33567 -2.5796,-0.0774 -3.724,1.06697 -1.8474,1.8474 -1.5209,4.98904 1.1245,10.81975 1.5499,3.41621 1.6843,4.34691 1.0852,7.51238 -2.4365,12.87163 -10.3485,26.84944 -20.6556,36.49122 -3.7262,3.48567 -5.1001,4.35885 -6.3002,4.00426 -2.7174,-0.80288 -12.4752,-1.32237 -15.2081,-0.80965 -2.8279,0.53051 -4.4612,2.98365 -3.6624,5.50058 0.2229,0.70236 3.8894,3.09549 8.1478,5.31806 10.4186,5.43774 16.2086,9.31246 21.1047,14.12348 3.9473,3.87866 7.2795,8.76249 8.2901,12.15042 l 0.4851,1.62589 h -35.393 -35.3931 l -4.484,-4.87768 c -5.0364,-5.47862 -8.988,-11.03039 -11.779,-16.54897 -1.7163,-3.3936 -4.8632,-6.75552 -6.3234,-6.75552 -0.3217,0 -1.4973,0.78592 -2.6123,1.74649 -2.0053,1.72731 -2.0251,1.82654 -1.8044,9.03275 l 0.223,7.28625 h -2.781 c -5.7643,0 -16.9864,3.79687 -22.5659,7.63484 l -3.6079,2.48184 h -30.4448 c -27.4405,0 -30.40157,-0.11258 -30.00695,-1.14087 1.21357,-3.16262 6.41205,-9.95929 11.60665,-15.17524 6.2821,-6.30782 10.4993,-9.36945 21.712,-15.76275 9.8588,-5.62131 11.6017,-7.98676 8.3101,-11.27833 -1.9091,-1.90918 -6.6875,-1.90293 -13.6188,0.0178 -18.3467,5.08413 -33.95401,17.77704 -43.82882,35.64462 -4.24164,7.67487 -4.28341,7.68882 -22.96927,7.69207 -17.74545,0.003 -18.23206,-0.12032 -20.86941,-5.28994 -4.34208,-8.51123 2.39838,-21.67661 15.59313,-30.45608 10.52835,-7.00533 18.88227,-9.74859 35.14303,-11.5403 17.19504,-1.89466 20.20014,-3.05209 20.20014,-7.78031 0,-1.67217 -0.7017,-3.03659 -2.5182,-4.89693 l -2.5183,-2.57888 3.4216,-6.11251 c 4.2638,-7.61736 15.6378,-19.39098 25.1,-25.9819 8.2253,-5.7293 10.478,-7.84182 10.478,-9.82577 0,-2.62123 -1.7095,-3.405 -6.6794,-3.06217 -3.0048,0.20727 -6.3003,1.10233 -9.8257,2.66855 -2.9175,1.29617 -5.413,2.24819 -5.5456,2.11558 -0.1326,-0.1326 3.4662,-7.88031 7.9974,-17.21712 4.5311,-9.33681 9.929,-20.81749 11.9952,-25.51261 4.1742,-9.48518 3.8099,-9.04902 23.5566,-28.19959 10.1575,-9.85078 12.0091,-12.46917 10.5103,-14.86233 -1.2158,-1.94118 -6.0243,-1.84731 -9.0055,0.17582 l -2.5909,1.7582 0.091,-3.81334 c 0.068,-2.82659 -0.2651,-4.20765 -1.2855,-5.33714 -2.9337,-3.24738 -6.2352,-1.48463 -11.7062,6.2502 -6.0374,8.53546 -11.9133,15.46018 -21.2161,25.00293 -25.5277,26.18576 -57.04332,44.33247 -95.42549,54.94595 -7.22432,1.99769 -9.73448,6.68277 -4.70613,8.78376 3.19044,1.33306 5.9796,1.31883 13.49247,-0.0688 19.86908,-3.66979 45.79524,-14.10758 63.43295,-25.53795 3.7444,-2.42663 6.9581,-4.26199 7.1416,-4.07855 0.8282,0.82822 -18.54216,20.66159 -27.67947,28.34106 -22.66115,19.04558 -50.9635,33.6286 -87.17781,44.91904 -14.43823,4.50139 -14.90136,4.51187 -8.45884,0.19152 9.25474,-6.2062 12.139,-10.93772 8.61276,-14.12894 -1.80207,-1.6308 -1.95382,-1.57837 -18.11731,6.26007 -24.06025,11.66794 -40.24502,17.59562 -61.42269,22.49607 -26.17314,6.0564 -65.83028,11.30241 -85.44047,11.30241 h -6.46503 l -4.44998,-4.59977 c -4.79284,-4.95413 -14.53758,-11.69125 -21.12326,-14.60376 -9.82947,-4.34705 -15.52818,-5.42948 -32.42005,-6.15791 -8.71903,-0.37599 -15.95471,-0.78554 -16.07928,-0.91011 -0.12456,-0.12457 0.44733,-2.80038 1.27086,-5.94624 1.22937,-4.6961 1.6124,-9.27623 2.14025,-25.5918 1.03318,-31.93539 1.0692,-32.3659 3.11976,-37.28333 3.45903,-8.29511 3.21134,-14.93393 -0.59282,-15.88872 -2.33272,-0.58547 -5.01321,1.1126 -6.59998,4.18106 l -1.1901,2.30142 -2.38833,-6.68911 c -5.16765,-14.47328 -12.06181,-26.33394 -19.90186,-34.23899 -4.07238,-4.10614 -5.22402,-4.87768 -7.28072,-4.87768 -1.34372,0 -3.20311,0.53231 -4.13198,1.18291 -2.77299,1.94228 -1.76248,5.62952 5.94478,21.69183 10.65504,22.20563 14.1858,34.18148 15.73987,53.38753 1.2861,15.8942 -0.49644,33.41638 -4.6617,45.82417 l -1.56459,4.66072 -4.63573,1.86993 c -5.93367,2.39348 -8.73273,4.90444 -8.73273,7.83387 0,3.75232 1.9682,4.50259 10.45033,3.98361 6.59297,-0.40339 7.57814,-0.29457 10.40949,1.14988 3.02393,1.54269 3.50125,1.57284 14.43824,0.91202 26.91144,-1.62599 42.21012,2.82536 54.81113,15.948 5.61986,5.8525 8.96187,12.36452 9.44695,18.40757 l 0.36327,4.52555 H 703.1761 686.78621 l -4.84568,-3.67755 c -10.15452,-7.70667 -25.2921,-13.25872 -38.43864,-14.0983 -5.07062,-0.32383 -6.59542,-0.16163 -8.68031,0.92335 -2.09445,1.08995 -2.56705,1.77074 -2.74956,3.96082 -0.30837,3.70039 1.13994,4.7888 11.20346,8.41932 4.69022,1.69201 9.01544,3.38554 9.6116,3.76333 0.68793,0.43595 -37.64441,0.69097 -104.92295,0.69798 l -106.00688,0.0111 z m 74.2364,-56.59734 c 0.45641,-0.54994 1.30475,-3.55784 1.88521,-6.68423 1.40864,-7.58701 2.58393,-11.82661 3.27854,-11.82661 0.31377,0 2.30388,1.58217 4.42247,3.51593 4.68158,4.27314 9.08829,7.32337 10.58016,7.32337 1.8611,0 3.74982,-2.27504 3.74982,-4.51682 0,-2.57379 -1.8103,-5.33025 -7.15548,-10.89535 -5.32606,-5.5452 -8.64549,-7.25164 -13.24617,-6.80957 -6.7954,0.65294 -11.18558,7.67411 -11.92753,19.07555 -0.42266,6.49489 -0.0343,8.97831 1.67053,10.68317 1.40212,1.40212 5.6206,1.48631 6.74245,0.13456 z m 641.6475,-19.47905 c 4.541,-4.83364 3.7012,-15.12379 -1.4597,-17.88579 -4.4417,-2.37716 -12.9794,0.54205 -15.2407,5.21111 -2.3559,4.86447 1.4328,7.79752 6.596,5.10631 l 2.9464,-1.53577 -0.1604,4.19952 c -0.1034,2.7071 0.192,4.62524 0.8313,5.39749 1.4315,1.72913 4.6278,1.48629 6.4871,-0.49287 z m -696.61233,-3.70401 1.6911,-1.6333 -2.25813,-7.86719 c -2.61558,-9.11255 -4.52569,-19.28176 -3.9188,-20.8633 0.83465,-2.17505 2.38581,-1.5583 14.78176,5.87735 4.24278,2.54501 8.50073,4.58959 9.55806,4.58959 3.71071,0 5.55654,-5.78881 3.0605,-9.59824 -0.63082,-0.96276 -3.66112,-3.54951 -6.734,-5.74833 -13.59868,-9.73066 -22.05463,-11.35674 -28.70282,-5.51955 -3.09819,2.72025 -3.97684,5.74219 -3.96589,13.63992 0.0181,13.06426 4.93467,26.73309 10.40247,28.92057 1.99228,0.79703 4.01927,0.19834 6.08575,-1.79752 z m 163.14691,-18.83462 c 0.97609,-1.4897 1.13199,-3.08875 0.84188,-8.63507 -0.41801,-7.99164 -2.69459,-13.62618 -6.75767,-16.72524 -2.2231,-1.69564 -2.95581,-1.85399 -7.29893,-1.57744 l -4.82776,0.30741 -4.55814,4.90675 c -5.21266,5.61133 -9.32431,13.14724 -8.64657,15.84759 0.57419,2.28777 3.72972,4.3328 5.86043,3.79802 0.91319,-0.2292 3.88101,-3.17375 6.61617,-6.5643 2.72808,-3.38177 5.34355,-6.14891 5.81214,-6.1492 0.81267,-5.1e-4 1.93298,3.28464 3.81622,11.19047 1.11937,4.69911 1.81317,5.42926 5.15898,5.42926 2.18245,0 3.04463,-0.39573 3.98325,-1.82825 z m 229.43719,-1.51604 c 5.03282,-1.49459 8.72527,-4.88903 8.44248,-7.76111 -0.14944,-1.51777 -0.82631,-2.55758 -2.14402,-3.29366 -1.76677,-0.98692 -2.68215,-0.88808 -11.09502,1.19798 -5.04315,1.2505 -9.78595,2.83163 -10.53955,3.51363 -1.41382,1.27949 -1.79687,4.28297 -0.75556,5.92435 1.53102,2.41329 8.74341,2.60102 16.09167,0.41881 z m -110.98038,-9.26661 c 2.97189,-1.24173 4.42718,-4.18638 3.29597,-6.6691 -0.54336,-1.19256 -2.11891,-2.01646 -6.00463,-3.14 -21.18554,-6.12576 -24.11841,-7.1771 -37.62434,-13.48712 -11.71208,-5.47193 -15.01261,-6.03087 -17.35826,-2.93964 -1.43992,1.89763 -1.45276,2.08749 -0.30397,4.49652 1.44563,3.03153 5.4232,6.03821 13.15537,9.94426 11.17779,5.64668 26.80336,10.78804 36.69959,12.07547 2.47465,0.32192 4.75369,0.62656 5.06453,0.67696 0.31085,0.0504 1.69493,-0.38041 3.07574,-0.95735 z m 424.29051,-7.98264 c 2.7851,-1.95076 4.0899,-12.51921 2.126,-17.21952 -2.9806,-7.13368 -13.0363,-6.46659 -19.8715,1.31827 -2.5117,2.86059 -2.8418,4.74407 -1.1315,6.45444 1.6434,1.64334 5.2706,1.38046 8.8005,-0.63781 l 3.0712,-1.75594 v 5.32613 c 0,3.87845 0.3086,5.63479 1.1355,6.46168 1.432,1.43197 3.8694,1.45388 5.8698,0.0527 z m -49.6793,-22.01996 c 3.4888,-1.86713 4.4545,-9.68532 2.5473,-20.62228 -2.3185,-13.29476 -6.2809,-18.72997 -13.6548,-18.72997 -4.8896,0 -8.3234,2.15931 -13.5864,8.54334 -4.3277,5.24948 -10.0863,14.69631 -11.3339,18.5929 -1.3042,4.07362 1.2514,7.85921 5.3058,7.85921 1.2468,0 4.9353,-4.10266 9.4203,-10.47799 5.1339,-7.2979 9.1018,-11.98056 9.791,-11.55464 0.7909,0.48883 2.6299,8.90708 3.2346,14.80643 0.7013,6.84298 1.6483,9.92012 3.4387,11.17416 1.8383,1.28763 3.0103,1.38668 4.8374,0.40884 z M 477.4711,631.23999 c 2.40546,-2.68987 2.43009,-3.05927 0.36131,-5.417 -1.29215,-1.47262 -2.90941,-2.08771 -7.87872,-2.99648 l -6.25281,-1.14349 -1.56062,-8.37402 c -3.56587,-19.13398 -5.90452,-37.55539 -6.31522,-49.74444 -0.40612,-12.05309 -0.37664,-12.40344 1.17445,-13.95452 l 1.59103,-1.59103 4.11097,2.29845 c 5.78829,3.23624 20.92486,13.34203 34.09969,22.76633 6.16034,4.40665 12.66392,8.94434 14.4524,10.08375 4.6459,2.95984 5.05834,3.67705 5.05834,8.79627 v 4.55892 h 2.47007 c 3.61537,0 4.66832,-0.60418 6.13719,-3.52157 2.87741,-5.7149 2.47451,-14.71985 -0.88107,-19.69246 -0.87116,-1.29095 -3.53499,-3.47924 -5.91964,-4.86285 -2.38465,-1.38362 -9.70471,-6.48245 -16.26681,-11.33074 -19.60543,-14.48511 -31.34822,-21.51455 -39.27459,-23.51043 -9.9529,-2.50617 -18.81649,2.58448 -21.7604,12.4977 -1.44446,4.86401 -1.45127,23.22562 -0.0138,37.35592 1.14236,11.22986 1.23716,11.89093 3.28908,22.9354 1.2681,6.8256 1.28381,7.61186 0.2234,11.18264 -1.63197,5.49544 -1.02493,10.52424 1.53634,12.72735 1.74595,1.5018 2.44873,1.65178 5.78615,1.23479 2.39611,-0.29937 4.37725,-0.16507 5.36531,0.36373 2.74488,1.46902 7.48155,2.13803 13.06115,1.84479 4.97096,-0.26126 5.58416,-0.46881 7.40685,-2.50701 z m 184.81004,-0.75413 c 3.49504,-3.49503 0.75468,-17.55752 -5.9744,-30.65829 -6.63246,-12.91267 -18.67864,-27.05663 -30.52202,-35.83726 -5.645,-4.18518 -17.20115,-10.10216 -19.73003,-10.10216 -2.93552,0 -5.19624,1.87846 -5.19624,4.3176 0,3.42848 0.63528,4.21772 7.49586,9.31252 22.24545,16.51991 35.37664,33.41372 42.98706,55.30463 1.22911,3.53547 2.78047,7.03114 3.44747,7.76816 1.63457,1.80618 5.63712,1.74999 7.4923,-0.1052 z m -112.28757,-2.72088 c 1.21411,-0.80326 2.6917,-4.03261 6.02904,-13.17675 4.14532,-11.35794 6.60546,-16.71245 7.54961,-16.43179 0.43666,0.12981 3.88312,6.35068 7.65881,13.82416 8.53761,16.89908 10.30269,18.61182 14.52379,14.09312 2.65406,-2.84117 2.74723,-6.11051 0.35522,-12.46548 -4.7789,-12.69637 -12.68049,-25.27164 -17.23828,-27.43444 -6.40317,-3.03851 -13.76473,-0.20045 -17.83806,6.877 -3.64352,6.33067 -8.13103,19.73516 -9.13135,27.27595 -0.4422,3.33349 -0.31927,3.74617 1.72484,5.79028 2.11184,2.11185 4.66592,2.77297 6.36638,1.64795 z m 341.71939,-2.01804 c 6.87667,-3.25399 16.53947,-14.59481 20.59019,-24.16587 2.16923,-5.12536 2.35429,-10.55661 0.40835,-11.98067 -3.39884,-2.48724 -6.0794,-0.53679 -12.4928,9.09019 -8.04644,12.07823 -13.77176,17.3596 -17.73931,16.36381 -2.68819,-0.67471 -4.70165,-6.53932 -5.3029,-15.44591 -0.26213,-3.88309 -0.92543,-7.9497 -1.47399,-9.0369 -2.10461,-4.17114 -7.46503,-2.80292 -8.99249,2.29529 -0.47878,1.59802 -0.69602,6.32783 -0.53567,11.66282 0.31137,10.3591 1.46391,13.54156 6.80109,18.77962 5.16975,5.07372 11.44217,5.88972 18.73753,2.43762 z m 68.96337,-1.37912 c 3.26661,-1.68923 7.7079,-7.26398 8.79291,-11.03692 3.1963,-11.11432 -1.15937,-30.11011 -7.94968,-34.67003 -4.47772,-3.00694 -10.79609,-1.78344 -12.38607,2.39845 -0.91137,2.39715 0.29852,5.20578 2.47815,5.75285 0.97843,0.24556 2.27611,0.99581 2.88369,1.66721 2.98225,3.29533 4.53921,19.01306 2.21245,22.33496 -2.52354,3.60281 -7.8254,0.55037 -14.49352,-8.34425 -6.05909,-8.08233 -7.53887,-9.56046 -9.57095,-9.56046 -4.89677,0 -5.94955,6.13933 -2.3035,13.43371 6.60186,13.20775 21.98094,22.3453 30.33652,18.02448 z M 782.69015,605.72104 c 9.00989,-3.66105 19.70747,-12.81846 23.11825,-19.78987 1.64898,-3.37038 1.74145,-3.97437 0.87795,-5.73455 -2.28693,-4.6617 -4.80305,-4.19632 -12.16577,2.25017 -7.1978,6.3021 -13.9651,10.76921 -18.60739,12.28276 -3.52193,1.14826 -3.9231,1.15207 -5.6003,0.0531 -1.26459,-0.82859 -1.80662,-1.83614 -1.80662,-3.35825 0,-3.71259 4.09594,-12.97772 9.38658,-21.23268 6.42564,-10.02592 6.65569,-13.41311 0.91099,-13.41311 -3.42032,0 -5.93547,1.507 -10.07564,6.03702 -6.5934,7.21422 -12.4704,20.76516 -12.59454,29.03994 -0.10179,6.78568 3.40199,12.37488 9.48213,15.12577 3.55484,1.60834 11.44848,1.02569 17.07436,-1.26032 z m 225.54455,-0.3977 c 4.5405,-3.23312 5.8973,-10.90917 3.4291,-19.39956 -1.3336,-4.58724 -3.3654,-6.21531 -7.3476,-5.88757 l -2.765,0.22757 0.1074,3.6131 c 0.059,1.98721 0.2217,5.55401 0.3613,7.92624 0.3139,5.33175 -0.5953,5.75316 -5.58523,2.58868 -4.24806,-2.69407 -6.38355,-2.79977 -7.95987,-0.39398 -0.99873,1.52424 -1.0452,2.15199 -0.29353,3.96661 1.05734,2.55272 5.72908,6.94331 8.92963,8.39228 3.063,1.38669 8.4246,0.88861 11.1238,-1.03337 z m -288.52695,-13.835 c 1.83129,-2.02356 1.63512,-5.03637 -0.42997,-6.60349 -0.94392,-0.71631 -4.48024,-2.33534 -7.85849,-3.59785 -9.30305,-3.47671 -20.84741,-9.59055 -30.87833,-16.35301 -11.6524,-7.85561 -12.13244,-8.03502 -14.76111,-5.51659 -3.17247,3.03942 -2.70647,4.77339 2.82421,10.50887 9.07039,9.40624 23.95693,17.82945 38.1182,21.56829 6.89119,1.8194 11.33525,1.81727 12.98549,-0.006 z M 926.37284,570.9468 c 4.45069,-4.71912 8.33268,-21.34436 6.00801,-25.73008 -0.7482,-1.41154 -1.61686,-1.85472 -3.97275,-2.02685 -3.7892,-0.27684 -4.14249,0.33584 -7.75393,13.44787 -3.03782,11.02943 -3.12395,14.45849 -0.39773,15.83061 2.72327,1.37063 3.59265,1.15436 6.1164,-1.52155 z m 104.13996,-22.76469 c 5.0127,-2.27666 6.0854,-4.32638 6.0854,-11.62742 0,-5.36053 -0.2455,-6.6636 -1.6475,-8.74412 -2.962,-4.39535 -7.1732,-5.15181 -8.5481,-1.53551 -0.3799,0.99921 -0.4772,3.70427 -0.2162,6.01123 0.7166,6.33395 0.2718,6.89759 -3.6357,4.60765 -2.1467,-1.25812 -4.0234,-1.81402 -5.6092,-1.66161 -2.1423,0.20587 -2.4077,0.48462 -2.6265,2.75819 -0.4493,4.66997 3.3981,8.89965 9.8733,10.85444 2.7911,0.84262 3.0754,0.81283 6.3245,-0.66285 z m -385.70832,-8.64838 c 0.61401,-0.38936 0.86966,-1.72761 0.72262,-3.78269 -0.25578,-3.57495 0.81583,-2.81044 -12.87338,-9.18423 -12.62742,-5.87942 -20.47692,-12.99504 -25.26264,-22.90074 -4.18862,-8.66979 -4.51692,-17.36072 -1.04831,-27.75107 4.54849,-13.62517 15.0264,-25.14023 32.09191,-35.26851 3.77569,-2.24084 8.41225,-5.02888 10.30346,-6.19563 5.49027,-3.38713 5.58714,-7.88067 0.17971,-8.33549 -5.31427,-0.44699 -18.65103,5.45962 -28.81903,12.76342 -6.78664,4.87493 -16.49309,14.92592 -19.84217,20.54647 -2.91186,4.8868 -6.23327,12.89536 -7.70728,18.58374 -1.40168,5.40927 -1.39066,16.57638 0.0218,22.0728 4.66405,18.14991 20.38198,33.7938 38.80318,38.62043 5.54293,1.45232 11.83665,1.84199 13.43015,0.8315 z m -121.7106,-34.41767 c 2.73648,-0.57975 8.5897,-2.80148 13.00716,-4.93716 13.07119,-6.31948 20.50782,-12.87056 19.46174,-17.14423 -0.55026,-2.24803 -2.30873,-4.29899 -3.68592,-4.29899 -0.58557,0 -4.36301,2.07053 -8.39429,4.60118 -14.99218,9.41134 -18.62355,10.57384 -33.03005,10.57384 -9.63135,0 -10.00269,-0.0582 -14.11992,-2.21171 -2.32564,-1.21645 -5.70292,-3.65529 -7.50506,-5.41965 -4.76239,-4.66258 -8.02857,-4.31096 -9.0864,0.97819 -0.31149,1.55747 0.0345,3.23931 1.13342,5.50937 4.80226,9.92016 25.33554,15.92615 42.21932,12.34916 z m -62.26654,-7.4116 c 0.60708,-0.69552 2.41318,-4.08497 4.01356,-7.53209 1.60039,-3.44712 3.98819,-7.83704 5.30624,-9.75537 2.83359,-4.12408 7.79077,-9.63013 8.67017,-9.63013 0.3411,0 0.998,1.50041 1.45976,3.33425 1.81909,7.22427 8.90096,10.69674 12.96571,6.3575 1.52158,-1.62434 1.73781,-2.50295 1.64503,-6.68423 -0.0587,-2.64774 -1.43647,-12.78096 -3.0616,-22.51826 -5.19585,-31.13201 -6.47658,-46.31375 -4.17282,-49.46435 2.07781,-2.84156 9.28874,-0.65083 42.38831,12.87786 7.35266,3.00523 14.73621,5.67712 16.4079,5.93754 2.7327,0.4257 3.26141,0.25152 5.23899,-1.72607 1.61312,-1.61313 2.19956,-2.87392 2.19956,-4.72888 0,-4.01017 -2.78552,-6.56985 -12.01484,-11.04067 l -8.19222,-3.96844 2.97701,-5.91943 c 5.98818,-11.9068 8.56812,-21.02225 7.15864,-25.29301 -0.87567,-2.6533 -3.15866,-4.36755 -5.0269,-3.77459 -0.70558,0.22394 -4.85295,6.63264 -9.25814,14.30609 -5.66144,9.86173 -8.39599,13.96355 -9.4118,14.11769 -0.78749,0.1195 -5.86118,-1.25509 -11.27486,-3.05464 -16.36073,-5.43841 -21.89072,-5.74248 -28.83216,-1.58536 -10.02277,6.00248 -11.58928,21.39732 -5.91128,58.09301 l 1.14851,7.42259 -5.9752,6.30719 c -11.47789,12.11559 -17.13707,21.65054 -17.80755,30.00324 -0.33255,4.14298 -0.19594,4.73094 1.5933,6.85733 2.26142,2.68754 5.91183,3.18633 7.76668,1.06123 z M 336.1587,487.26592 c 0.40931,-0.5185 0.9486,-1.80021 1.19842,-2.84825 0.35008,-1.46865 1.03085,-2.01369 2.96935,-2.37736 5.3035,-0.99494 5.6435,-3.72456 2.92525,-23.48517 -1.83798,-13.36142 -2.62149,-26.93908 -1.61296,-27.95176 0.83031,-0.83376 6.93647,2.37256 20.5518,10.79166 14.76885,9.13238 17.59487,10.60371 20.36692,10.60371 2.95991,0 4.40548,-2.27996 4.40548,-6.94837 0,-2.65455 0.31382,-3.85673 1.08393,-4.15225 1.32922,-0.51007 1.38953,-3.97297 0.0988,-5.67189 -1.41178,-1.85822 -4.13235,-2.63548 -7.78406,-2.22388 -3.74473,0.42209 -4.27355,0.19319 -16.36604,-7.08382 -4.48452,-2.6987 -10.01257,-5.62378 -12.28454,-6.50019 -4.37916,-1.68924 -11.20914,-2.57121 -14.1655,-1.82921 -2.77286,0.69594 -6.12693,3.91547 -8.06638,7.74278 -1.64776,3.25169 -1.76881,4.23848 -1.73929,14.17762 0.0174,5.87546 0.33382,13.1215 0.70305,16.10231 1.60163,12.93032 1.64433,15.42178 0.35518,20.72581 -1.10482,4.54567 -1.13826,5.56626 -0.27166,8.29142 1.47992,4.6538 5.06287,5.89166 7.63227,2.63684 z m 314.19921,-2.19545 c 33.5113,-15.15899 80.66899,-28.6007 129.75627,-36.98539 62.6085,-10.69428 114.3766,-12.99038 179.52505,-7.96255 43.05687,3.32291 90.37967,13.93068 120.67757,27.05079 16.9702,7.34878 19.4037,7.80614 22.905,4.30486 2.0287,-2.02873 2.1738,-2.50516 1.8716,-6.14782 -0.4442,-5.35656 -1.9823,-6.82039 -12.4921,-11.88871 -36.3195,-17.51493 -88.9149,-28.72418 -152.47281,-32.49531 -15.98168,-0.94825 -58.0844,-0.94712 -74.53034,0.002 -63.14985,3.64449 -124.8627,14.53504 -176.35979,31.12246 -23.08528,7.43586 -49.07734,18.67132 -54.05546,23.36629 -2.14746,2.02532 -2.52918,2.86623 -2.52918,5.57166 0,3.75405 1.47913,6.16796 4.60909,7.52196 2.71529,1.17461 3.03705,1.08958 13.0951,-3.46023 z m -83.42905,-12.59332 c 3.5464,-3.20396 8.08642,-12.223 9.76282,-19.39447 1.58386,-6.7756 1.12434,-20.82832 -0.84731,-25.91151 -1.75277,-4.51891 -5.68053,-9.14274 -7.74078,-9.11258 -2.18866,0.0321 -4.09876,1.6543 -4.09876,3.48106 0,0.846 0.70672,4.06195 1.57048,7.14654 1.797,6.41736 2.09131,15.95541 0.65244,21.1447 -0.49591,1.78848 -2.33705,6.89886 -4.09145,11.35639 -3.5003,8.89349 -3.77693,10.64357 -1.99388,12.61382 1.7767,1.96323 3.52556,1.62204 6.78644,-1.32395 z m -138.1064,-17.32406 c 0.85253,-1.08381 1.49769,-2.96932 1.49769,-4.37704 0,-3.404 1.40489,-8.68353 2.56744,-9.64836 0.73862,-0.613 1.68359,-0.14455 4.07478,2.02001 6.06121,5.48674 8.30301,6.32387 10.82441,4.04202 4.02368,-3.64138 -2.85523,-15.03561 -10.62545,-17.60001 -3.3058,-1.09102 -8.11119,-0.61379 -10.6643,1.05907 -2.31171,1.5147 -5.11923,7.06715 -6.67136,13.19399 -1.24053,4.89685 -0.61985,9.41676 1.64095,11.94973 1.75607,1.96748 5.56576,1.63632 7.35584,-0.63941 z M 261.65362,441.81001 c 1.16385,-1.28604 1.34446,-2.47423 1.18495,-7.79569 -0.12791,-4.26699 0.11192,-6.68883 0.7486,-7.55953 0.88281,-1.20731 1.20623,-1.1537 5.61129,0.93022 5.43919,2.57314 8.27283,2.82018 9.34609,0.81479 1.41007,-2.63475 0.85585,-5.65539 -1.53786,-8.38168 -2.68887,-3.06245 -9.77053,-6.84085 -12.82146,-6.84085 -7.14768,0 -12.2522,6.06821 -12.91905,15.35805 -0.72962,10.1644 5.76215,18.58558 10.38744,13.47469 z m 351.0761,-25.63222 c 0.62437,-0.62436 1.33951,-2.41285 1.58921,-3.97441 0.40608,-2.53947 0.67312,-2.83921 2.52951,-2.83921 1.14153,0 2.72586,-0.65035 3.52075,-1.44524 1.92664,-1.92664 1.93475,-8.89455 0.0248,-21.33649 -1.80273,-11.74369 -2.50984,-22.7613 -1.55106,-24.16734 0.94047,-1.3792 2.64372,-0.77441 17.53018,6.22462 6.21882,2.92385 12.16811,5.31608 13.22067,5.31608 2.7176,0 5.46201,-2.98144 5.45743,-5.92877 -0.002,-1.30975 -0.78263,-3.66822 -1.73465,-5.24105 l -1.73095,-2.85969 1.554,-0.77015 c 2.01162,-0.99696 2.43312,-4.3864 0.77354,-6.22022 -1.50022,-1.65772 -5.49571,-1.80799 -10.78147,-0.40551 -4.15742,1.1031 -3.83483,1.16518 -11.92323,-2.29446 -5.35162,-2.28904 -6.89333,-2.62906 -11.97702,-2.6415 -5.29382,-0.0129 -6.08198,0.17411 -8.50132,2.01774 -1.46661,1.1176 -3.55606,3.71903 -4.64323,5.78096 -1.86687,3.5407 -1.97487,4.27076 -1.94433,13.143 0.0178,5.16673 0.63883,13.8508 1.38009,19.29794 1.28965,9.47693 1.29364,10.13365 0.0927,15.23349 -1.46774,6.2325 -1.01908,10.10008 1.45913,12.57829 1.94018,1.94018 4.04869,2.1385 5.65527,0.53192 z m 256.1444,-19.2182 c 7.24154,-4.52241 -0.678,-19.47991 -10.92558,-20.63496 -2.84627,-0.32082 -3.51805,-0.0975 -5.84015,1.94131 -3.54046,3.10857 -4.17443,6.452 -2.00045,10.54997 1.82716,3.44426 5.19215,6.91229 8.3645,8.62067 2.44594,1.31719 7.93154,1.06564 10.40168,-0.47699 z m 59.76349,-0.96729 c 4.14018,-2.42633 6.91308,-6.61675 7.34362,-11.09792 0.29996,-3.12134 0.0958,-3.74985 -1.98915,-6.1245 -1.93778,-2.20696 -2.79676,-2.64622 -5.17497,-2.64622 -3.70271,0 -6.14733,1.31726 -9.80148,5.28153 -5.21196,5.65439 -6.51889,9.94642 -4.08612,13.41966 2.80102,3.99902 8.10548,4.45078 13.7081,1.16745 z m -167.71885,-4.66579 c 21.35615,-5.52675 38.58564,-22.20613 44.59836,-43.17439 2.14674,-7.48636 2.35685,-25.40351 0.38379,-32.72853 -3.07978,-11.43382 -11.71859,-24.39104 -21.70047,-32.54824 -5.72334,-4.67712 -15.82355,-9.64043 -23.64078,-11.61724 -5.35549,-1.35429 -7.45571,-1.49562 -17.3201,-1.16555 -9.47766,0.31715 -12.01323,0.65406 -16.28394,2.16374 -19.41792,6.86414 -31.32663,17.36833 -39.37596,34.73193 -10.48378,22.61507 -6.19314,48.58382 11.02142,66.70628 2.79504,2.94245 7.30751,6.8295 10.02772,8.63789 5.95293,3.9575 16.14353,8.48532 21.58708,9.59143 2.18126,0.44322 4.6163,0.95702 5.41118,1.14178 3.50526,0.81474 19.73586,-0.3013 25.2917,-1.7391 z m 265.56284,-0.0485 c 18.5891,-4.60475 34.7686,-18.31809 41.6173,-35.27373 3.601,-8.91513 4.262,-12.79634 4.2656,-25.04441 0,-10.11164 -0.2087,-12.23726 -1.6873,-16.94592 -5.2917,-16.85101 -17.6081,-31.7455 -32.2724,-39.02792 -7.5976,-3.77299 -13.2479,-5.07278 -24.2078,-5.56868 -10.83,-0.49001 -18.24395,0.96997 -27.89722,5.49363 -17.53776,8.21848 -31.3755,25.9876 -34.57736,44.40098 -4.88606,28.09896 8.2258,54.39012 33.20851,66.58775 14.83827,7.24469 27.43417,8.8751 41.55067,5.3783 z m -661.00841,-1.24396 c 0.62449,-0.69552 1.54793,-3.2729 2.05209,-5.72752 l 0.91664,-4.46293 2.81185,1.4345 c 3.80299,1.94014 6.4486,1.56331 7.3619,-1.04861 1.52511,-4.36162 -3.72889,-9.16421 -10.0256,-9.16421 -4.37707,0 -6.39869,1.20592 -8.31339,4.95904 -3.65593,7.16621 -2.37231,15.27432 2.41813,15.27432 0.90361,0 2.15388,-0.56907 2.77838,-1.26459 z m 164.36165,-25.83917 c 2.36806,-0.70324 4.38503,-1.90265 5.57227,-3.31361 2.16005,-2.56707 2.20212,-2.80192 0.83692,-4.67224 -0.92756,-1.27076 -2.23603,-1.43836 -13.91043,-1.78185 -12.51727,-0.36829 -12.99565,-0.43908 -16.69278,-2.47015 -5.13828,-2.82277 -6.08961,-4.01559 -3.2026,-4.01559 1.28241,0 3.08048,-0.74011 4.30857,-1.77349 l 2.10767,-1.77349 0.46149,-26.58934 c 0.47056,-27.11088 1.14298,-36.72079 3.02949,-43.29572 1.43056,-4.98579 2.46652,-5.77021 5.63494,-4.26669 3.367,1.59774 13.20236,9.53231 30.73619,24.79609 18.59577,16.18823 18.39922,16.04903 22.66096,16.04903 3.06808,0 3.48811,0.19539 3.89368,1.8113 1.88424,7.50744 -8.22689,21.72946 -22.49031,31.63418 -7.49539,5.2049 -8.44569,6.28862 -8.15697,9.30215 0.21807,2.27621 0.40653,2.42884 3.25456,2.63597 9.09996,0.6618 31.53896,-18.77161 36.36156,-31.49114 1.98754,-5.24209 2.46296,-12.12819 1.13376,-16.42163 -1.11203,-3.59195 -1.10805,-3.62086 0.67945,-4.93796 2.19822,-1.61973 2.30255,-3.98112 0.28898,-6.54095 -2.37052,-3.01362 -5.12084,-4.05742 -10.69103,-4.05742 h -5.04565 l -6.3715,-5.5583 c -12.6483,-11.03399 -27.89381,-23.47131 -32.63685,-26.62522 -8.78337,-5.84054 -16.84085,-7.51853 -22.8728,-4.76331 -3.56139,1.62675 -8.70173,7.11 -10.52108,11.22293 -2.72665,6.16406 -4.5628,23.26306 -5.43943,50.65429 l -0.48565,15.17501 -2.53995,3.49082 c -3.30612,4.54379 -5.90625,10.9404 -5.92443,14.57468 -0.0354,7.08418 6.84935,11.18769 8.82522,5.26008 0.12416,-0.37249 1.43202,0.46041 2.90636,1.85089 3.163,2.98309 9.06387,6.00991 13.57301,6.96218 4.30262,0.90867 16.10382,0.29828 20.71638,-1.0715 z m -111.73941,-0.98155 c 1.37041,-1.10969 2.11283,-1.22476 4.19415,-0.65009 7.10105,1.9607 12.6279,-4.33008 7.19994,-8.19513 l -2.27588,-1.62057 0.47431,-11.97776 c 0.50161,-12.66739 1.40556,-20.07292 2.59545,-21.26281 1.15064,-1.15064 3.24466,0.1769 14.0812,8.92706 11.70542,9.45174 14.13064,10.7577 16.76822,9.02949 2.34133,-1.53411 3.44814,-4.11623 2.84234,-6.63101 -0.95333,-3.95738 -18.8703,-19.87398 -27.06003,-24.03887 -5.44894,-2.77106 -10.7776,-2.0352 -15.53965,2.14593 -3.88745,3.41323 -5.42555,9.44591 -7.27247,28.52388 -0.63042,6.51199 -1.64156,12.54327 -2.53278,15.10749 -0.81589,2.34751 -1.48344,4.88379 -1.48344,5.63619 0,2.07856 1.98889,5.48064 3.42263,5.85456 2.34624,0.61189 2.9119,0.50725 4.58601,-0.84836 z m 482.14914,-39.4594 c 19.91092,-5.76995 36.1732,-21.11776 42.13358,-39.76435 3.60327,-11.27247 3.12317,-28.47112 -1.11941,-40.09594 -6.67758,-18.29711 -25.0877,-34.16876 -44.06139,-37.98607 -8.44721,-1.6995 -23.616,-1.15838 -30.77609,1.09788 -19.80726,6.24159 -36.56801,23.47373 -41.8695,43.04705 -1.61488,5.96222 -2.21424,18.31819 -1.20209,24.78183 3.91972,25.03175 24.11249,45.26818 50.29779,50.40657 7.35455,1.4432 18.66845,0.81067 26.59711,-1.48697 z m -269.46528,-4.17532 c 0.57715,-0.89424 1.37786,-4.0334 1.77937,-6.9759 1.0467,-7.67086 1.72163,-8.08123 7.32967,-4.45658 6.69892,4.32973 10.10827,3.84737 10.10827,-1.43012 0,-3.96827 -3.2795,-7.99474 -8.72993,-10.71835 -6.54831,-3.27223 -10.34379,-2.88281 -14.91966,1.53075 -3.05246,2.9442 -4.83653,8.32094 -4.86839,14.67209 -0.0337,6.72643 1.33073,9.00401 5.39414,9.00401 2.17032,0 3.10943,-0.39086 3.90653,-1.6259 z M 401.91028,300.20044 c 2.80955,-1.06452 5.28603,-3.53138 5.28603,-5.26552 0,-0.79674 -1.18267,-2.53191 -2.62816,-3.85593 l -2.62817,-2.4073 0.50177,-5.53714 c 0.27597,-3.04543 0.835,-6.1598 1.2423,-6.92085 1.01255,-1.89196 3.17377,-1.26074 10.37288,3.02957 7.83403,4.6687 8.06792,4.72546 10.16191,2.46601 1.26194,-1.36166 1.76559,-2.73146 1.76559,-4.80196 0,-2.43575 -0.45641,-3.33102 -2.86744,-5.62457 -5.58756,-5.31533 -16.9331,-9.60119 -22.02992,-8.32197 -2.26605,0.56875 -7.34154,5.02477 -8.68713,7.62687 -0.53518,1.0349 -1.81254,7.34472 -2.83858,14.02181 -1.93222,12.57412 -1.85431,14.01478 0.8429,15.58618 1.66671,0.97105 8.94781,0.97407 11.50602,0.005 z m 229.37234,-30.48256 c 1.99666,-3.95934 1.6882,-3.73893 4.96246,-3.54573 2.2221,0.13111 3.31698,-0.26874 5.10122,-1.86295 2.53004,-2.26059 2.0863,0.84786 4.29594,-30.09389 0.81787,-11.45277 1.75927,-16.5365 3.29881,-17.8142 1.45633,-1.20865 3.91914,0.40918 14.42402,9.47521 16.15359,13.94103 18.70111,15.84004 21.24939,15.84004 2.47356,0 5.84886,-2.68604 5.84886,-4.65449 0,-0.60889 1.11195,-1.57168 2.471,-2.13953 6.68967,-2.79512 4.07206,-9.01402 -4.2919,-10.19666 -4.42696,-0.62597 -5.71046,-1.4101 -12.99281,-7.93779 -14.67708,-13.1561 -22.38793,-17.23277 -29.48385,-15.58786 -5.50475,1.27606 -10.0985,5.91771 -12.30476,12.43306 -1.55221,4.5839 -3.28233,17.68933 -3.96757,30.0539 -0.49541,8.93919 -0.76618,10.4951 -2.07497,11.92323 -2.49722,2.72491 -4.77808,7.96302 -4.8512,11.14101 -0.084,3.6507 1.78424,6.03778 4.72543,6.03778 1.6767,0 2.31773,-0.54839 3.58993,-3.07113 z M 468.69007,256.06209 c 5.88942,-1.76452 7.30714,-6.19791 2.7942,-8.73788 -2.14848,-1.20921 -2.214,-1.38793 -1.72179,-4.69703 1.52668,-10.26385 3.15913,-10.85423 12.63473,-4.56935 3.63295,2.40963 7.07411,4.38115 7.64704,4.38115 2.08265,0 4.58907,-3.41312 4.58907,-6.24918 0,-2.3176 -0.55014,-3.23463 -3.86902,-6.44922 -4.84124,-4.68912 -12.04815,-8.25758 -16.67709,-8.25758 -5.79694,0 -11.42141,4.02691 -13.90593,9.95613 -1.11714,2.66602 -3.84701,14.82704 -4.368,19.45855 -0.31763,2.82366 -0.17042,3.14358 2.07687,4.51368 2.7111,1.65286 6.66079,1.89085 10.79992,0.65073 z m 268.32071,-3.22151 c 0.62733,-0.24073 2.81842,-2.74446 4.86907,-5.56385 l 3.72845,-5.12617 4.40344,4.85391 c 3.69415,4.07205 4.77512,4.85186 6.71098,4.84123 2.51925,-0.0138 4.56267,-2.11991 4.55029,-4.68983 -0.0117,-2.42853 -3.27018,-8.54059 -5.86607,-11.00319 -2.73946,-2.59883 -6.88697,-4.553 -9.6632,-4.553 -4.45798,0 -9.47885,3.74889 -13.49672,10.0775 -2.46886,3.88873 -2.87764,9.59593 -0.77502,10.82059 1.43851,0.83787 3.85839,0.98764 5.53878,0.34281 z m 280.38532,-0.69677 c 3.8841,-3.88413 0.7188,-13.8404 -5.6313,-17.71247 -3.6191,-2.20681 -8.276,-1.84781 -12.48047,0.96209 -4.12877,2.75928 -8.21113,8.47473 -8.21113,11.49578 0,2.07869 2.71582,5.66645 4.28932,5.66645 0.40807,0 3.00798,-2.13766 5.77758,-4.75035 l 5.0356,-4.75034 2.2799,4.03986 c 3.3068,5.85922 6.3894,7.60009 8.9405,5.04898 z m -55.22459,-26.07774 c 2.1503,-2.44904 2.28586,-2.90569 1.84636,-6.2189 -1.93734,-14.6046 -18.88907,-37.96796 -35.39219,-48.77877 -26.18536,-17.15331 -63.56476,-16.79683 -96.16755,0.91712 -9.05479,4.91972 -15.75415,9.97823 -24.72773,18.6713 -12.26655,11.8831 -20.43602,23.34302 -20.43602,28.66714 0,3.09662 2.80616,5.77214 6.05398,5.77214 3.12882,0 4.73845,-1.33102 13.34146,-11.03215 19.34658,-21.81608 41.23098,-34.66691 65.55611,-38.49549 30.49443,-4.79957 56.48865,8.72134 73.3559,38.15604 6.50127,11.34536 7.59842,12.98244 9.34037,13.93693 2.96773,1.62618 4.74516,1.23394 7.22931,-1.59536 z M 743.7764,190.00806 c 2.01512,-1.41144 2.02631,-2.75879 0.046,-5.53983 -1.52448,-2.14092 -1.53058,-2.24542 -0.2683,-4.58935 0.71043,-1.31919 2.03211,-3.09411 2.93705,-3.94427 1.9431,-1.82544 3.0272,-1.42966 6.78577,2.47732 2.26108,2.35037 2.37982,2.68321 1.37442,3.85306 -1.84801,2.1503 -2.14304,3.91025 -0.95856,5.718 0.88269,1.34716 1.75768,1.70417 4.17146,1.70203 3.78025,-0.003 7.02503,-1.90304 9.16517,-5.36586 l 1.62356,-2.62697 -1.91263,-3.90928 c -3.91373,-7.99938 -12.33079,-14.83212 -18.27125,-14.83212 -6.08835,0 -12.08399,5.17048 -16.7076,14.40818 -3.13031,6.25416 -3.54574,8.30344 -2.07311,10.22652 2.54118,3.31845 10.78501,4.73606 14.08798,2.42257 z"
     id="path52"
     transform="translate(3,186)" />
  <path
     style="fill:#ffffff;stroke-width:2.32718"
     d="m 210.86738,800.43503 c -4.33817,-1.88304 -15.05264,-10.18283 -23.80993,-18.44402 -23.33334,-22.0115 -24.51994,-22.42706 -68.11956,-23.8567 -39.075714,-1.28127 -45.631702,-3.05128 -45.631702,-12.31979 0,-7.41977 8.609032,-15.73174 15.023891,-14.50545 8.607934,1.6455 9.611735,-4.32439 2.595851,-15.43826 -7.362815,-11.66346 -7.364649,-11.89869 -0.09285,-11.89869 12.85449,0 9.21124,-6.69562 -17.813208,-32.73745 -22.094017,-21.29066 -25.846339,-25.88727 -22.670455,-27.77135 2.967336,-1.76036 46.297505,-6.85606 59.178843,-6.95953 1.36287,-0.0109 4.22582,3.6454 6.36209,8.12522 7.01217,14.70467 15.11003,8.94352 9.67023,-6.87979 -5.48013,-15.94066 -10.26352,-18.79651 -30.200754,-18.03094 -18.960601,0.72807 -19.112082,0.59886 -15.217678,-12.98013 1.668819,-5.81883 1.12182,-10.68709 -2.327181,-20.71179 -2.479829,-7.20775 -4.508779,-13.8585 -4.508779,-14.77945 0,-0.92095 4.787773,0.0284 10.639494,2.10971 9.986907,3.55205 10.823866,3.53373 13.645379,-0.29871 1.653236,-2.24558 6.290549,-5.22792 10.305129,-6.62741 9.14378,-3.18753 10.31226,-11.39794 1.62213,-11.39794 -5.09064,0 -6.27626,-1.98342 -11.476677,-19.19924 -9.64002,-31.91301 -13.393853,-48.43468 -12.64649,-55.66072 l 0.710528,-6.8699 31.416939,21.06159 c 29.58244,19.83177 41.43529,24.93878 42.23381,18.19723 0.18951,-1.59994 0.45132,-5.00031 0.5818,-7.55637 0.17143,-3.3585 5.18796,-7.16328 18.08818,-13.71895 14.62305,-7.43119 20.93524,-9.2624 34.90771,-10.12699 25.9362,-1.60489 40.179,4.57121 62.50017,27.10191 27.33557,27.59217 39.42988,57.64228 39.42988,97.96942 0,62.62906 -33.5632,105.71825 -84.65427,108.68105 -21.67027,1.25668 -26.9816,2.47421 -26.9816,6.18518 0,7.47853 29.71578,13.12034 47.7072,9.05762 11.24342,-2.53891 29.03646,2.71247 42.86131,12.64997 19.76819,14.20963 25.69466,34.28447 12.184,41.27111 -8.74815,4.52383 -14.92804,2.70897 -32.17538,-9.44894 -7.90072,-5.56936 -16.87138,-11.07905 -19.93479,-12.24376 -3.06342,-1.16471 -9.5739,-4.83488 -14.46776,-8.15593 -10.61337,-7.20242 -22.2115,-8.16345 -22.2115,-1.84045 0,2.30882 3.79019,7.80678 8.42263,12.2177 8.30948,7.91211 14.84918,19.61047 14.84918,26.56255 0,5.74041 -8.77567,12.88183 -15.70847,12.78316 -3.51986,-0.0501 -9.94916,-1.63175 -14.28734,-3.51477 z M 157.08469,691.09075 c 0,-5.25264 0.53052,-5.61591 4.83621,-3.31157 5.74331,3.07372 11.45405,1.40541 11.45405,-3.34615 0,-4.86606 -11.67299,-13.37255 -17.23969,-12.56313 -10.92587,1.58866 -14.35496,25.12068 -3.6606,25.12068 3.38297,0 4.61003,-1.57037 4.61003,-5.89983 z m 8.33689,-72.12575 2.13542,-10.53735 8.55068,6.12926 c 14.43326,10.34598 19.25676,0.39736 5.9942,-12.36324 -15.75778,-15.16137 -29.67155,-10.62944 -29.67155,9.66448 0,13.04185 1.78428,17.64419 6.84049,17.64419 2.89673,0 4.61023,-2.93552 6.15076,-10.53734 z m 81.97657,-58.71155 c 0.83321,-8.39021 -7.25249,-28.64179 -13.80217,-34.56917 -7.39825,-6.69532 -15.86088,-1.98516 -23.51916,13.09039 -7.04608,13.87039 -7.75655,26.22464 -1.57538,27.39367 2.5733,0.48669 5.67457,-3.67705 10.12477,-13.59341 3.52837,-7.86225 7.19955,-13.40555 8.15818,-12.31843 0.95863,1.08711 3.56463,6.68911 5.79111,12.44888 6.97195,18.03601 13.45336,21.33651 14.82265,7.54807 z m -88.09676,0.88765 c 1.62295,-4.26869 3.40251,-5.27867 7.81474,-4.43521 7.91646,1.51332 9.41464,-2.31939 3.73103,-9.54493 -9.06858,-11.52882 -20.74401,-6.09301 -20.74401,9.65793 0,10.98786 5.65387,13.64459 9.19824,4.32221 z"
     id="path53"
     transform="translate(3,186)" />
  <path
     style="fill:#ffffff;stroke-width:0.9144"
     d="m 194.43681,408.91882 c -7.06286,-16.10446 -17.01247,-45.40344 -19.4871,-57.38438 -2.02699,-9.81376 1.11287,-10.85178 13.41447,-4.43476 12.12106,6.32284 45.26509,26.4354 45.26509,27.4679 0,0.52985 -2.28014,4.7275 -5.06698,9.3281 -2.78684,4.6006 -5.32496,9.39256 -5.64025,10.6488 -0.3153,1.25624 -1.63488,3.11179 -2.93242,4.12345 -1.95541,1.52461 -11.03954,9.37052 -19.84455,17.13963 l -1.93738,1.70946 z"
     id="path54"
     transform="translate(3,186)" />
  <path
     style="fill:#ffffff;stroke-width:0.9144"
     d="m 412.47356,219.22994 c -1.39783,-6.70741 -4.36637,-41.8882 -4.80321,-56.92389 -0.4089,-14.07372 -0.26397,-17.21519 0.86248,-18.69441 1.28093,-1.68208 1.47929,-1.69589 3.67668,-0.25611 1.27748,0.83704 5.80052,5.5462 10.0512,10.46481 8.38276,9.69998 35.38412,43.39307 35.39187,44.16301 0.003,0.26009 -5.44735,3.2245 -12.11105,6.58756 -6.66369,3.36307 -16.71201,8.60349 -22.32961,11.64538 l -10.2138,5.53072 z"
     id="path55"
     transform="translate(3,186)" />
  <path
     style="fill:#ffffff;stroke-width:0.03542"
     d="m 246.20531,355.45831 c -0.11319,-0.12508 -0.16064,-0.45009 -0.18376,-1.25866 -0.0615,-2.15086 0.28286,-2.95157 1.34911,-3.13693 0.34636,-0.0602 1.29087,-0.0224 1.70253,0.0682 0.61073,0.13437 1.06388,0.34323 1.18866,0.54787 0.3176,0.52088 -0.51596,1.59027 -2.24887,2.88512 -1.20682,0.90174 -1.61726,1.10482 -1.80767,0.89442 z"
     id="path56"
     transform="translate(3,186)" />
  <path
     style="fill:#ffffff;stroke-width:0.518124"
     d="m 399.21446,760.62732 c -22.20353,-4.1926 -51.8421,-12.42904 -53.75005,-14.93692 -0.26288,-0.34553 -1.10569,-2.38532 -1.87291,-4.53285 -5.08873,-14.24394 -22.00316,-28.74561 -38.35343,-32.88252 -2.81498,-0.71224 -5.55456,-1.29498 -6.08796,-1.29498 -0.5334,0 -0.96981,-0.22634 -0.96981,-0.50298 0,-0.27664 2.11002,-3.01622 4.68893,-6.08796 2.57892,-3.07174 6.3677,-8.08328 8.41952,-11.13677 2.05181,-3.05349 3.84715,-5.55905 3.98964,-5.56792 0.14248,-0.009 1.0531,1.51945 2.02359,3.39624 3.24401,6.27346 8.56715,10.95344 17.60228,15.47551 5.33698,2.67116 14.69153,5.69511 22.34216,7.22234 6.59808,1.31711 18.76288,2.52787 20.59208,2.04953 1.35498,-0.35434 3.27549,1.98372 5.87296,7.14985 6.06349,12.05968 16.47427,27.12871 26.10436,37.78462 5.07195,5.61223 5.08573,5.66512 1.46324,5.61686 -1.64859,-0.022 -7.07766,-0.81038 -12.0646,-1.75205 z"
     id="path57"
     transform="translate(3,186)" />
  <path
     style="fill:#ffffff;stroke-width:0.518124"
     d="m 570.73195,847.62837 c -12.85774,-3.3213 -23.96169,-11.1079 -37.3823,-26.2142 -7.88152,-8.87148 -9.72688,-10.23001 -12.84055,-9.45309 -1.24941,0.31175 -2.20178,1.03402 -2.99398,2.27061 -2.66868,4.16573 -1.4028,3.83674 -12.10736,3.14659 -44.53401,-2.8712 -67.40262,-12.97035 -64.20866,-28.3556 l 0.57498,-2.76968 76.25701,-0.0677 c 41.94135,-0.0372 89.66347,-0.21229 106.04913,-0.38898 l 29.79213,-0.32126 4.66311,2.26725 c 19.82553,9.63933 31.37085,24.24126 28.80052,36.4254 -2.42985,11.51812 -17.90922,15.53852 -36.31331,9.43151 -6.17133,-2.04782 -13.1003,-5.56456 -25.20394,-12.79204 -4.6007,-2.74722 -10.17042,-5.86401 -12.37716,-6.92619 -3.44278,-1.65714 -4.47911,-2.49556 -7.30171,-5.90729 -5.01987,-6.06763 -13.08552,-12.24827 -20.70729,-15.86784 -4.70132,-2.23265 -7.6849,-2.67492 -9.99304,-1.48134 -1.76875,0.91466 -3.68467,3.56692 -3.68788,5.10524 -0.003,1.46352 1.98917,3.79011 6.2042,7.2455 9.10201,7.46161 13.76259,12.82988 17.52402,20.18496 6.02284,11.77705 2.88208,21.82748 -7.81368,25.00378 -4.02545,1.19543 -11.09897,0.9717 -16.93424,-0.53561 z"
     id="path58"
     transform="translate(3,186)" />
  <path
     style="fill:#ffffff;stroke-width:0.366014"
     d="m 698.53768,797.08891 c -0.70457,-0.34204 -3.66929,-2.96921 -6.58825,-5.83815 l -5.3072,-5.21627 16.37007,-0.01 16.37006,-0.01 -0.37952,1.00654 c -1.66061,4.4042 -5.42537,7.67514 -11.1318,9.67166 -3.50581,1.22658 -7.2912,1.38707 -9.33336,0.39569 z"
     id="path59"
     transform="translate(3,186)" />
  <path
     style="fill:#ffffff;stroke-width:0.372328"
     d="m 1006.2921,812.39785 c -3.3711,-0.90737 -5.9718,-2.41865 -8.07905,-4.69473 -4.36075,-4.71013 -5.02586,-11.14567 -2.01256,-19.47333 l 1.12589,-3.11154 1.18668,0.372 c 0.72359,0.22683 12.61774,0.45197 30.47884,0.57692 l 29.2922,0.20492 -2.1123,1.69747 c -1.1617,0.93361 -3.7877,3.19497 -5.8355,5.02526 -14.0948,12.59768 -21.9536,17.55301 -30.8344,19.44267 -3.2354,0.68842 -10.5869,0.66636 -13.2098,-0.0396 z"
     id="path60"
     transform="translate(3,186)" />
  <path
     style="fill:#ffffff;stroke-width:0.372328"
     d="m 1160.3591,808.6486 c -13.4124,-1.69559 -28.8325,-8.8313 -42.0571,-19.46201 l -3.5213,-2.83059 35.1691,-0.18616 35.1691,-0.18617 0.2352,0.93082 c 0.1294,0.51195 0.255,2.02656 0.2793,3.36581 0.1524,8.4242 -5.4712,15.38076 -14.2906,17.67801 -2.2704,0.59138 -8.613,0.99 -10.9837,0.69029 z"
     id="path61"
     transform="translate(3,186)" />
  <path
     style="fill:#ffffff;stroke-width:1.0539"
     d="m 874.32056,314.50183 c -6.53499,-1.2834 -16.67348,-6.27264 -22.24598,-10.94746 -18.37817,-15.41759 -23.57181,-38.3449 -13.48251,-59.51855 3.9845,-8.36198 13.81906,-18.6159 21.67044,-22.59449 12.56136,-6.36532 29.38111,-7.51096 41.58205,-2.83226 23.52386,9.02071 37.56083,36.56558 30.49265,59.83601 -7.73506,25.46601 -32.7577,41.01732 -58.01665,36.05675 z m 25.90553,-22.4033 c 19.08345,-9.86843 18.96343,-38.28222 -0.19926,-47.17335 -5.08606,-2.35984 -15.91584,-2.64617 -20.92493,-0.55324 -5.14376,2.1492 -11.29252,7.97866 -13.46897,12.76954 -2.5864,5.69328 -2.56691,16.53147 0.0398,22.14085 2.52977,5.44378 9.24993,11.8583 14.45178,13.79449 5.05455,1.88136 15.56035,1.37007 20.10157,-0.97829 z"
     id="path62"
     transform="translate(3,186)" />
  <path
     style="fill:#ffffff;stroke-width:1.0539"
     d="m 998.56607,380.04977 c -8.54893,-2.76393 -13.66676,-5.67131 -20.00543,-11.36488 -12.42251,-11.15822 -17.44118,-23.50884 -16.69201,-41.07796 0.38857,-9.11271 0.87665,-11.28777 3.9856,-17.76163 2.39922,-4.99596 5.78627,-9.62576 10.49303,-14.34307 11.45109,-11.47674 23.49227,-16.2426 39.14674,-15.49415 8.0116,0.38304 10.2649,0.95237 17.0595,4.31047 18.3735,9.08066 29.3325,26.41556 29.4632,46.60466 0.1458,22.53672 -14.1987,42.61476 -35.0913,49.11727 -8.1749,2.54432 -20.5059,2.54836 -28.35933,0.009 z m 30.08673,-23.2158 c 17.5707,-10.07836 17.2983,-35.85028 -0.4839,-45.78023 -4.6374,-2.58965 -6.9013,-3.17819 -12.1198,-3.15075 -8.004,0.0421 -12.9578,2.11575 -18.36517,7.68763 -12.38666,12.76361 -9.17724,33.84391 6.32907,41.57103 7.9915,3.98233 17.3425,3.85797 24.6398,-0.32768 z"
     id="path63"
     transform="translate(3,186)" />
  <path
     style="fill:#ffffff;stroke-width:1.0539"
     d="m 735.61912,381.99594 c -29.20082,-5.98595 -48.14711,-34.39338 -41.06724,-61.57483 2.43162,-9.33563 6.51526,-16.10118 14.70183,-24.3572 8.64397,-8.71729 15.52923,-12.42418 27.78353,-14.9581 8.06009,-1.66664 9.12753,-1.66667 17.1853,-5.1e-4 11.67998,2.41516 19.09195,6.37009 27.36835,14.60338 20.68763,20.57989 20.67048,50.84883 -0.0406,71.55986 -12.66336,12.66337 -29.56432,18.08249 -45.93121,14.7274 z m 24.67279,-22.68733 c 10.48281,-3.11306 18.02491,-13.87118 17.99969,-25.67492 -0.021,-9.84516 -8.79212,-21.801 -17.83706,-24.31365 -5.79897,-1.61094 -13.8554,-1.20964 -18.55284,0.92413 -5.36195,2.43562 -12.38004,10.32169 -14.00129,15.73295 -3.11193,10.3867 -0.84682,19.62426 6.66543,27.18296 7.50603,7.55244 14.98196,9.33918 25.72607,6.14853 z"
     id="path64"
     transform="translate(3,186)" />
  <path
     style="fill:#ffffff;stroke-width:0.119545"
     d="m 327.20792,754.0911 c -1.81171,-3.51282 -2.94449,-5.44217 -4.35167,-7.4118 -6.70718,-9.38803 -17.30748,-17.91396 -27.84645,-22.39718 -0.90524,-0.38508 -2.77559,-1.09292 -4.15634,-1.57299 -2.92476,-1.01689 -5.73817,-2.15936 -5.73817,-2.33017 0,-0.20227 1.72364,-0.20055 3.04622,0.003 5.78815,0.89099 13.60632,3.29633 19.12942,5.88534 10.45657,4.90164 18.0847,12.51158 20.60599,20.55685 0.69554,2.21944 0.8163,3.10397 0.87789,6.43009 0.0317,1.7095 0.0389,3.26956 0.016,3.46681 -0.0348,0.3003 -0.29227,-0.12751 -1.58291,-2.62999 z"
     id="path65"
     transform="translate(3,186)" />
</svg>
