<?xml version="1.0" encoding="UTF-8" standalone="no"?>
<svg
   version="1.0"
   width="916"
   height="919"
   viewBox="211 150 916 919"
   preserveAspectRatio="xMidYMid meet"
   id="svg14"
   sodipodi:docname="frog13.svg"
   inkscape:version="1.4.3 (0d15f75, 2025-12-25)"
   xmlns:inkscape="http://www.inkscape.org/namespaces/inkscape"
   xmlns:sodipodi="http://sodipodi.sourceforge.net/DTD/sodipodi-0.dtd"
   xmlns="http://www.w3.org/2000/svg"
   xmlns:svg="http://www.w3.org/2000/svg"><g transform="scale(-1,1) translate(-1338,0)">
  <defs
     id="defs14" />
  <sodipodi:namedview
     id="namedview14"
     pagecolor="#505050"
     bordercolor="#ffffff"
     borderopacity="1"
     inkscape:showpageshadow="0"
     inkscape:pageopacity="0"
     inkscape:pagecheckerboard="1"
     inkscape:deskcolor="#505050"
     inkscape:zoom="0.49897926"
     inkscape:cx="14.028639"
     inkscape:cy="463.94714"
     inkscape:window-width="1728"
     inkscape:window-height="1056"
     inkscape:window-x="0"
     inkscape:window-y="33"
     inkscape:window-maximized="1"
     inkscape:current-layer="svg14" />
  <metadata
     id="metadata1">
Created by potrace 1.16, written by Peter Selinger 2001-2019
</metadata>
  <g
     transform="translate(0.000000,1254.000000) scale(0.100000,-0.100000)"
     fill="#000000"
     stroke="none"
     id="g14">
    <path
       d="M4105 10725 c-335 -62 -633 -306 -762 -625 -43 -109 -65 -210 -70 -335 -9 -199 34 -378 132 -550 25 -43 45 -79 45 -79 0 -1 -43 -46 -95 -100 -245 -252 -413 -540 -480 -820 -95 -396 -13 -826 227 -1194 l55 -84 -23 -86 c-58 -226 -89 -527 -78 -767 l6 -151 -52 -59 c-139 -158 -254 -395 -306 -636 -29 -129 -27 -487 3 -621 56 -250 172 -492 326 -680 26 -31 43 -59 39 -62 -4 -2 -49 -20 -100 -40 -196 -75 -369 -179 -453 -273 -118 -130 -137 -271 -54 -385 53 -72 116 -101 235 -106 91 -4 162 11 261 52 14 6 17 -3 21 -62 9 -124 83 -219 200 -258 37 -12 73 -15 142 -12 105 5 189 35 293 106 34 23 66 42 70 42 5 0 14 -26 21 -57 23 -111 93 -202 192 -251 49 -24 66 -27 160 -27 96 0 110 3 165 29 80 40 154 115 194 199 18 37 34 67 36 67 1 0 26 -15 54 -34 83 -56 154 -78 251 -78 64 0 100 6 144 22 99 38 186 141 202 239 4 23 10 41 14 41 7 0 116 -31 158 -45 9 -3 1 -21 -23 -58 -70 -105 -77 -242 -19 -344 64 -110 217 -169 374 -143 38 6 73 11 77 11 5 0 9 -29 10 -63 7 -163 136 -290 311 -305 173 -14 316 65 457 253 31 41 60 74 64 74 4 0 20 -14 37 -31 183 -196 444 -211 607 -34 73 78 108 223 83 341 -8 38 -18 78 -21 90 -6 20 -2 21 132 28 76 3 158 10 181 15 l44 9 19 -45 c27 -62 106 -137 176 -164 45 -18 79 -23 154 -23 l97 -1 5 -56 c10 -111 72 -200 179 -256 50 -26 61 -28 174 -28 l121 0 84 42 c46 23 103 58 126 77 41 36 63 45 63 26 0 -6 20 -33 45 -59 172 -184 502 -127 686 119 87 116 127 226 138 373 l6 90 128 78 c332 202 572 409 760 658 307 406 458 864 427 1297 -19 275 -96 502 -241 716 -80 117 -237 275 -354 355 l-90 61 -38 94 c-76 190 -258 464 -451 680 -141 158 -403 379 -568 479 -52 31 -57 37 -63 79 -46 314 -241 794 -447 1104 -144 215 -331 431 -475 547 l-43 34 26 75 c37 106 53 207 54 341 0 140 -19 258 -61 370 -186 505 -689 772 -1209 642 -294 -73 -580 -322 -685 -595 -17 -43 -35 -78 -41 -78 -6 0 -37 9 -69 20 -238 82 -654 97 -941 35 -18 -4 -23 5 -43 68 -95 297 -339 545 -636 647 -139 48 -351 63 -500 35z m389 -204 c131 -34 247 -102 352 -206 131 -129 206 -264 240 -430 11 -54 21 -76 44 -97 17 -16 38 -28 48 -28 9 0 71 12 137 26 151 31 430 43 579 25 108 -14 271 -51 335 -77 38 -15 41 -19 41 -53 0 -87 35 -141 91 -141 43 0 60 31 75 132 18 116 44 199 100 308 223 437 779 587 1187 320 173 -112 285 -271 353 -500 15 -53 19 -94 18 -220 -1 -138 -4 -165 -28 -244 -36 -119 -103 -247 -174 -330 -88 -106 -95 -115 -94 -142 0 -36 29 -64 67 -64 42 0 109 46 185 126 l61 66 47 -39 c25 -21 80 -72 120 -113 349 -356 623 -901 712 -1415 11 -66 25 -130 30 -142 13 -31 54 -55 95 -55 62 0 266 -158 475 -368 181 -182 307 -346 410 -534 35 -64 40 -77 24 -72 -134 41 -386 58 -535 36 -236 -34 -473 -153 -644 -325 -116 -116 -140 -181 -81 -220 36 -24 68 -10 153 67 172 156 323 237 543 290 34 8 113 12 210 12 133 -1 169 -5 251 -26 207 -56 371 -150 519 -298 340 -340 443 -852 274 -1365 -70 -213 -200 -448 -352 -636 -138 -172 -380 -381 -604 -522 -305 -192 -293 -179 -290 -313 2 -65 -2 -114 -13 -153 -59 -203 -249 -350 -404 -311 -86 22 -123 77 -125 188 -1 68 -4 76 -29 98 -16 13 -37 24 -49 24 -30 0 -73 -29 -94 -64 -51 -88 -194 -204 -277 -227 -136 -36 -247 16 -247 117 0 79 31 125 163 242 41 37 48 72 21 111 -15 20 -23 23 -64 19 -37 -4 -67 -18 -132 -61 -123 -82 -242 -113 -336 -88 -101 28 -140 118 -92 215 44 92 187 189 369 251 106 36 277 67 326 59 35 -5 46 -2 70 19 38 32 38 74 -1 123 -151 191 -223 357 -260 599 -24 151 -14 421 20 585 49 240 106 396 232 638 46 89 84 172 84 184 0 32 -29 58 -65 58 -25 0 -41 -9 -70 -41 -85 -94 -208 -325 -274 -513 -131 -374 -157 -777 -71 -1101 33 -125 72 -225 125 -319 l36 -65 -28 -6 c-323 -71 -571 -217 -660 -392 l-29 -58 -65 -12 c-35 -7 -88 -12 -117 -13 l-52 0 53 73 c324 443 509 981 524 1529 6 212 -9 433 -33 479 -7 14 -27 32 -45 39 -27 12 -36 11 -58 -1 -47 -26 -50 -48 -41 -239 22 -416 -44 -802 -199 -1175 -114 -273 -288 -546 -467 -735 -39 -41 -74 -86 -77 -100 -4 -16 6 -61 29 -129 30 -88 35 -114 31 -159 -15 -143 -151 -212 -284 -143 -21 11 -65 47 -98 81 -61 64 -121 99 -165 100 -14 0 -48 -11 -77 -24 -43 -20 -60 -37 -104 -103 -109 -162 -209 -230 -321 -220 -97 9 -148 60 -148 150 0 52 20 100 78 185 43 63 46 106 11 135 -37 30 -94 18 -181 -37 -125 -81 -250 -105 -334 -67 -107 49 -98 150 21 260 59 54 214 136 353 186 109 40 123 56 181 204 131 338 259 852 311 1254 20 156 18 180 -18 207 -28 23 -41 24 -76 9 -33 -15 -42 -41 -66 -189 -68 -402 -189 -873 -305 -1185 -20 -55 -42 -105 -48 -111 -7 -6 -41 -21 -77 -34 -36 -13 -100 -41 -142 -62 -43 -21 -89 -38 -104 -38 -37 0 -243 53 -349 90 -122 42 -331 145 -440 217 -123 81 -262 199 -341 291 -154 178 -298 439 -388 702 -28 81 -55 142 -67 153 -49 40 -119 7 -119 -57 0 -81 97 -360 189 -545 171 -339 465 -629 824 -812 67 -34 125 -67 129 -73 14 -21 8 -81 -12 -114 -31 -51 -75 -72 -150 -72 -79 0 -122 19 -209 88 -35 29 -79 56 -98 61 -74 21 -143 -31 -158 -117 -10 -60 -67 -153 -114 -187 -58 -41 -146 -46 -211 -13 -67 35 -90 86 -90 204 0 89 -2 95 -28 125 -23 25 -38 32 -78 36 -56 5 -117 -22 -218 -97 -94 -69 -171 -100 -246 -100 -133 0 -179 77 -117 197 28 53 161 165 283 238 64 39 123 80 131 91 23 36 18 83 -25 219 -147 473 -209 790 -228 1166 -5 93 -3 138 4 143 6 3 13 2 17 -4 10 -16 51 -12 67 8 27 31 28 52 7 110 -92 251 -156 494 -185 712 -21 154 -24 484 -5 620 16 119 46 279 54 286 3 3 26 -11 52 -30 60 -46 113 -50 145 -9 29 38 20 65 -48 141 -291 325 -433 661 -433 1021 0 213 33 345 137 556 81 166 169 288 314 438 96 100 121 120 150 123 48 6 75 35 75 83 0 32 -9 49 -44 92 -179 212 -245 517 -165 770 97 311 332 526 639 585 93 18 258 11 359 -15z m-1368 -4928 c9 -43 27 -113 41 -155 22 -73 23 -84 13 -179 -43 -422 29 -962 202 -1504 33 -103 47 -160 39 -163 -6 -2 -54 -32 -107 -68 -67 -45 -105 -64 -127 -64 -41 0 -112 -36 -208 -104 -95 -67 -171 -96 -250 -96 -167 0 -173 108 -13 234 72 56 216 131 369 190 66 26 135 55 154 64 46 23 75 64 75 107 0 36 -11 53 -115 181 -170 210 -277 444 -315 689 -13 84 -15 147 -11 265 6 178 33 305 96 450 42 97 118 230 131 230 5 0 16 -35 26 -77z"
       id="path1" />
    <path
       d="M4170 10223 c-169 -30 -299 -134 -362 -291 -19 -49 -23 -75 -23 -182 0 -124 0 -126 37 -203 88 -184 244 -277 444 -264 284 17 490 304 418 580 -47 180 -184 315 -361 352 -67 15 -105 16 -153 8z m-44 -212 c31 -14 47 -30 63 -64 20 -40 21 -51 11 -89 -19 -69 -67 -108 -133 -108 -40 0 -96 35 -114 70 -34 66 -2 158 67 192 44 22 55 22 106 -1z"
       id="path2" />
    <path
       d="M7210 10089 c-242 -25 -420 -230 -420 -484 0 -364 359 -591 687 -434 63 30 173 140 207 207 59 117 71 261 31 389 -23 76 -91 171 -162 225 -103 78 -216 110 -343 97z m-20 -234 c59 -57 63 -138 9 -200 -58 -66 -143 -69 -204 -5 -38 40 -46 119 -16 168 49 77 151 95 211 37z"
       id="path3" />
    <path
       d="M4678 8820 c-58 -45 -77 -149 -35 -188 49 -46 119 -17 153 63 21 52 18 92 -11 120 -30 30 -73 32 -107 5z"
       id="path4" />
    <path
       d="M5189 8797 c-76 -58 -32 -227 59 -227 13 0 37 13 53 29 24 24 29 38 29 76 0 55 -21 110 -48 124 -27 14 -73 13 -93 -2z"
       id="path5" />
    <path
       d="M7905 8505 c-72 -25 -125 -109 -125 -198 0 -57 37 -142 86 -196 121 -135 321 -151 401 -32 72 106 43 244 -72 350 -90 81 -196 109 -290 76z m150 -124 c80 -36 146 -140 129 -206 -25 -101 -210 -52 -265 70 -53 116 20 189 136 136z"
       id="path6" />
    <path
       d="M3333 8435 c-60 -30 -102 -79 -137 -157 -60 -132 -33 -250 64 -279 141 -42 315 209 261 374 -26 77 -106 103 -188 62z m85 -132 c2 -17 -7 -54 -19 -82 -22 -52 -82 -115 -102 -108 -7 2 -13 22 -15 45 -4 48 26 113 71 155 38 35 61 32 65 -10z"
       id="path7" />
    <path
       d="M4500 8174 c-285 -24 -502 -57 -685 -104 -158 -40 -171 -46 -190 -87 -29 -61 5 -123 68 -123 18 0 103 16 188 35 328 73 622 101 989 92 529 -13 1080 -108 1665 -288 94 -29 191 -54 216 -57 41 -3 48 -1 72 28 29 34 33 54 17 94 -14 37 -40 50 -220 106 -430 133 -897 232 -1350 286 -127 15 -659 27 -770 18z"
       id="path8" />
    <path
       d="M8205 7841 c-73 -45 -108 -113 -109 -211 0 -156 118 -291 257 -292 194 -2 270 247 131 429 -14 18 -49 47 -77 63 -64 37 -153 42 -202 11z m176 -142 c71 -71 78 -187 15 -231 -18 -13 -65 -9 -97 7 -92 48 -118 225 -37 259 43 18 75 9 119 -35z"
       id="path9" />
    <path
       d="M8740 7008 c-134 -68 -145 -284 -22 -411 144 -149 333 -132 397 37 37 97 -5 227 -100 314 -89 81 -189 103 -275 60z m176 -133 c57 -44 88 -99 88 -160 1 -68 -21 -95 -76 -95 -67 0 -132 49 -162 122 -40 95 -3 176 75 165 22 -3 56 -17 75 -32z"
       id="path10" />
    <path
       d="M3928 6149 c-12 -7 -18 -22 -18 -47 0 -33 9 -45 88 -123 139 -137 337 -254 551 -326 114 -38 231 -62 269 -55 32 6 49 44 34 76 -8 17 -24 28 -54 36 -299 76 -561 213 -761 397 -59 53 -78 61 -109 42z"
       id="path11" />
    <path
       d="M9900 5674 c-256 -71 -362 -393 -165 -506 61 -35 170 -32 248 6 189 92 275 312 170 437 -55 65 -156 90 -253 63z m156 -135 c45 -42 24 -139 -43 -200 -45 -43 -113 -72 -166 -73 -42 -1 -52 3 -74 28 -21 25 -24 37 -20 73 16 141 216 254 303 172z"
       id="path12" />
    <path
       d="M4205 5546 c-25 -37 -9 -71 59 -129 82 -72 133 -105 244 -161 189 -95 388 -141 432 -101 41 37 17 86 -50 100 -185 37 -415 147 -566 270 -63 51 -96 57 -119 21z"
       id="path13" />
    <path
       d="M10440 5269 c-73 -22 -139 -86 -170 -167 -58 -152 13 -292 148 -292 125 0 229 101 248 242 19 139 -100 253 -226 217z m98 -138 c19 -23 10 -106 -15 -139 -22 -30 -79 -72 -98 -72 -7 0 -23 8 -36 18 -17 15 -22 29 -22 65 0 106 118 195 171 128z"
       id="path14" />
  </g>
  <path
     style="fill:#ffffff;stroke-width:1.57272"
     d="m 388.4619,869.37486 c -1.72999,-0.41851 -4.80571,-2.28266 -6.83493,-4.14254 -5.16703,-4.73586 -4.07715,-15.30823 2.66048,-25.80793 5.2676,-8.20883 6.14545,-12.71889 3.07355,-15.79079 -3.39465,-3.39465 -10.60164,-1.99526 -22.67911,4.40362 -9.52383,5.04591 -13.51702,6.29088 -20.17778,6.29088 -14.4818,0 -20.10766,-7.58319 -13.57451,-18.2973 4.31324,-7.07356 11.53867,-12.07967 29.31582,-20.31136 8.5991,-3.9818 17.29389,-8.04884 19.32178,-9.03785 4.72336,-2.30364 9.55007,-11.91216 16.66209,-33.16914 13.25167,-39.60784 24.87903,-93.54428 25.11491,-116.50194 0.1442,-14.03376 0.12567,-14.10252 -4.21411,-15.64957 -7.52071,-2.68099 -9.7673,1.58163 -14.4337,27.38617 -7.82716,43.28308 -27.03805,111.63157 -33.55045,119.36574 -3.30757,3.92809 -27.34712,14.31697 -33.11634,14.31152 -16.73968,-0.0159 -64.90112,-20.35643 -85.79089,-36.23301 -27.93045,-21.22767 -46.70259,-47.62724 -61.57039,-86.58748 -7.69124,-20.15449 -9.63783,-23.43853 -13.89301,-23.43853 -2.00621,0 -4.95007,1.43914 -6.54191,3.19811 -2.77274,3.06384 -2.7828,3.66248 -0.23955,14.25936 3.99065,16.62768 15.48224,43.91905 24.91997,59.18243 5.34152,8.63868 14.4,19.68583 24.90794,30.37611 16.79606,17.08755 31.03861,27.70534 51.50658,38.39808 10.19342,5.32518 11.40223,6.44379 11.40223,10.5515 0,2.78152 -1.52345,6.11829 -3.86032,8.45515 -3.1397,3.13972 -5.43616,3.86032 -12.30223,3.86032 -7.45254,0 -9.62672,-0.82747 -18.55096,-7.06027 -15.59175,-10.8895 -22.71065,-9.60507 -28.19999,5.08794 -6.51412,17.43603 -15.26794,24.02667 -27.44638,20.66403 -8.19811,-2.26361 -11.23876,-7.29573 -12.4309,-20.57253 -0.80388,-8.95285 -1.76137,-12.09452 -4.33978,-14.23955 -5.21039,-4.33462 -12.34595,-3.38401 -22.71139,3.02566 -17.3953,10.75672 -22.90203,13.09472 -30.84206,13.09472 -5.5001,0 -8.46527,-0.86822 -10.7425,-3.14544 -4.04919,-4.04919 -3.95821,-7.30715 0.40124,-14.3695 4.13575,-6.69996 9.7262,-11.55816 26.89908,-23.37578 6.91337,-4.75748 13.3302,-9.89506 14.25962,-11.41682 1.28203,-2.09909 0.63145,-6.6539 -2.69564,-18.87264 -16.62493,-61.05508 -20.77665,-82.04597 -22.62823,-114.4073 -0.94878,-16.58245 -0.88049,-17.09613 2.16673,-16.29927 3.51682,0.91967 8.33344,-3.01094 8.33344,-6.8005 0,-1.33993 -3.1536,-12.23001 -7.008,-24.20017 -3.85441,-11.97017 -8.41005,-29.0472 -10.12365,-37.94899 -5.86735,-30.47955 -5.88053,-69.85971 -0.0325,-97.12815 l 1.71566,-7.99986 5.15762,3.18757 c 6.18787,3.82432 10.76963,4.05687 14.11033,0.71617 4.07673,-4.07672 2.92654,-7.19222 -7.21635,-19.54666 -19.82304,-24.14524 -31.14314,-45.51074 -36.671919,-69.21438 -3.680579,-15.77983 -3.749902,-42.96711 -0.144328,-56.60324 3.491676,-13.20538 14.361297,-35.87996 23.164917,-48.3232 9.33941,-13.20053 27.45891,-31.58136 34.29164,-34.7862 8.02619,-3.76462 8.39687,-10.38136 1.13945,-20.33938 -20.36728,-27.94626 -23.76661,-59.00275 -9.55223,-87.269977 16.5694,-32.950531 47.15765,-49.660264 82.83157,-45.249194 17.54316,2.169207 31.88869,9.309841 44.99182,22.395143 12.16388,12.147312 16.88111,19.961508 22.97707,38.061988 2.59499,7.70521 5.88233,14.73361 7.30521,15.61869 1.81935,1.13169 7.96023,0.76685 20.69435,-1.2295 31.38423,-4.92017 80.20232,-1.09851 90.01688,7.04684 1.26316,1.04834 2.29666,4.18675 2.29666,6.97426 0,5.67509 4.0171,10.27386 8.97441,10.27386 4.79697,0 6.32946,-2.78112 9.13381,-16.57585 6.40896,-31.52603 26.4942,-56.328914 54.23691,-66.976137 10.79963,-4.144732 33.42405,-5.641169 45.95407,-3.03952 26.2158,5.443278 48.40292,25.450969 58.77188,52.998767 3.41088,9.06187 3.96406,13.08902 3.94911,28.74944 -0.024,25.13559 -4.02109,36.63974 -20.10018,57.85059 -6.52054,8.60162 -8.46746,12.3891 -8.08438,15.72721 0.437,3.80804 1.27038,4.46094 6.22173,4.87435 5.04533,0.42127 6.82569,-0.54897 15.15105,-8.25678 5.18864,-4.80378 9.91247,-8.73414 10.49739,-8.73414 2.01599,0 18.59676,16.53974 27.59088,27.52261 28.29026,34.54571 49.1365,79.05055 58.19677,124.2449 3.61592,18.0369 6.07148,22.80444 11.74568,22.80444 3.58958,0 13.28597,5.74704 23.65496,14.02027 10.80772,8.62329 36.95433,35.00356 46.56457,46.98069 9.13061,11.37939 22.82278,32.91248 21.66447,34.07078 -0.33251,0.33251 -4.14261,-0.0907 -8.46691,-0.94048 -12.52491,-2.46126 -44.25319,-1.93819 -55.04397,0.90746 -5.18998,1.36864 -16.03668,5.7266 -24.10378,9.68435 -11.45184,5.61831 -17.38046,9.84001 -27.04236,19.25656 -12.64624,12.32514 -16.13362,18.75056 -12.53208,23.09015 3.30918,3.9873 8.80456,2.60966 17.33371,-4.34541 21.17984,-17.2711 35.58531,-25.05856 53.30082,-28.81394 48.06421,-10.18879 97.43543,14.99072 120.48519,61.44788 10.50602,21.17508 12.52887,30.50754 12.44261,57.40429 -0.081,25.26259 -2.63352,38.15077 -11.87135,59.94158 -17.98926,42.43425 -46.29635,73.71434 -96.05299,106.14108 -10.96701,7.14726 -20.6108,14.28134 -21.43064,15.85351 -0.81985,1.57215 -1.80619,8.54737 -2.1919,15.50047 -0.56154,10.12302 -1.60874,14.30934 -5.25552,21.00966 -8.41234,15.45625 -22.88759,24.2937 -34.83086,21.26497 -7.27968,-1.84609 -11.22087,-7.26457 -12.48977,-17.17135 -2.11108,-16.48189 -8.40088,-17.34118 -21.65726,-2.95874 -16.00985,17.36979 -30.17068,23.14515 -41.89047,17.08461 -5.01404,-2.59285 -7.14083,-7.94585 -5.59849,-14.091 0.53793,-2.14332 5.29253,-8.50911 10.56575,-14.14621 7.97687,-8.52731 9.42255,-10.9072 8.6048,-14.16539 -1.38768,-5.52894 -7.34462,-6.63777 -14.68805,-2.73406 -23.43524,12.45804 -24.5903,12.92451 -32.00345,12.92451 -13.65663,0 -20.06626,-5.72557 -18.10617,-16.17377 2.90908,-15.50672 35.77154,-32.74648 66.64992,-34.96479 6.88334,-0.4945 9.67358,-1.46367 11.82923,-4.10881 3.42147,-4.19844 3.22628,-4.7505 -7.3597,-20.81569 -15.55681,-23.60892 -20.48956,-41.61572 -20.30747,-74.13173 0.18236,-32.56622 6.75251,-58.96974 22.50263,-90.43141 12.48076,-24.93099 12.83808,-26.05197 9.58511,-30.06922 -6.53262,-8.06744 -17.14606,3.20774 -31.61902,33.59046 -25.61211,53.76687 -27.12632,120.77153 -3.64143,161.13409 l 3.83843,6.59695 -6.78245,1.71266 c -29.71636,7.50375 -53.01005,21.98839 -61.89599,38.48858 -2.4367,4.52466 -4.09754,5.66008 -9.45438,6.4634 -13.86611,2.07935 -14.13962,1.31501 -4.52487,-12.64496 18.76367,-27.24359 34.5121,-64.81111 41.59113,-99.21469 6.05284,-29.41627 7.05549,-84.76444 1.71628,-94.74084 -2.81201,-5.25429 -9.50085,-6.27859 -12.9759,-1.98707 -2.52491,3.11812 -2.84183,6.89853 -2.82159,33.65739 0.0175,23.12032 -0.71302,34.42438 -3.13498,48.51049 -8.07876,46.986 -28.92073,91.34869 -59.6512,126.96906 -6.17423,7.15669 -11.22048,14.18576 -11.21387,15.62013 0.007,1.43438 1.41664,7.20817 3.13342,12.83065 1.71678,5.62247 3.12682,11.53117 3.13343,13.13043 0.0239,5.77593 -4.952,13.36407 -10.48509,15.98971 -7.80867,3.70545 -14.52961,1.97593 -23.59479,-6.07171 -10.90014,-9.67666 -14.78761,-12.03939 -19.80864,-12.03939 -6.95297,0 -13.1339,4.05719 -19.80297,12.99878 -8.15885,10.939 -13.93152,16.20489 -21.00238,19.15855 -5.97223,2.49474 -7.51228,2.65043 -13.02546,1.31671 z M 845.00122,619.10462 c 9.63683,-6.86203 14.10299,-23.37092 8.99486,-33.24896 -3.45843,-6.68785 -8.37873,-9.45368 -16.81776,-9.45368 -6.04843,0 -8.47718,0.89402 -12.84352,4.72773 -7.09991,6.2338 -10.46463,13.68816 -10.39633,23.03255 0.0997,13.6439 6.39632,19.91101 19.00916,18.92007 4.1466,-0.32578 9.32467,-2.03455 12.05359,-3.97771 z M 283.8133,588.27293 c 4.25916,-5.13197 1.2193,-7.75147 -15.68121,-13.51278 -19.4911,-6.64443 -23.39577,-8.56883 -40.39309,-19.90745 -14.68452,-9.79579 -18.56721,-10.2326 -18.56721,-2.08879 0,4.71895 1.21174,6.39644 9.43633,13.06346 20.90691,16.94752 58.91095,30.02964 65.20518,22.44556 z m 507.82837,-3.56034 c 19.62681,-12.13432 23.73343,-38.10237 7.41528,-46.89029 -7.87505,-4.241 -22.61265,-2.65527 -31.16117,3.35285 -11.31448,7.95211 -18.34268,22.03213 -16.09832,32.25066 1.18648,5.40199 7.7223,13.66701 12.41632,15.70134 5.94821,2.5779 19.69718,0.36497 27.42789,-4.41456 z M 274.37704,542.66396 c 4.01952,-4.8432 0.40089,-8.38079 -12.98872,-12.69787 -26.78402,-8.6357 -46.63117,-19.30878 -66.11536,-35.55444 -5.04936,-4.21011 -9.64957,-7.64389 -10.22268,-7.63065 -2.99098,0.0691 -5.36699,3.26416 -5.36699,7.21701 0,8.69234 26.0403,29.43995 49.92602,39.77854 22.67669,9.81527 40.98176,13.44925 44.76773,8.88741 z m 416.83351,-90.11614 c 18.48124,-9.23242 12.3248,-40.61473 -9.77898,-49.848 -15.84105,-6.61719 -29.5199,2.76594 -29.53314,20.25857 -0.0167,22.0203 21.71728,38.37903 39.31212,29.58943 z m -56.40199,-84.64294 c 10.5393,-5.45009 13.4698,-23.35367 5.99848,-36.64709 -6.82611,-12.14543 -22.50379,-17.63095 -32.48112,-11.36496 -7.57986,4.76031 -10.35693,11.40829 -9.61738,23.02277 1.33916,21.03095 19.47616,33.58581 36.10002,24.98928 z M 471.29906,337.8911 c 3.64442,-3.29815 3.70866,-10.31793 0.12384,-13.53096 -5.19397,-4.65532 -53.72059,-18.59045 -91.45274,-26.26202 -57.57952,-11.70685 -115.27277,-15.47854 -159.00296,-10.39479 -26.92756,3.13039 -56.08404,9.03583 -64.20011,13.00328 -5.19018,2.53716 -5.78595,3.45851 -5.78595,8.94787 0,8.55374 2.79419,9.95747 15.25212,7.66226 5.45128,-1.00432 17.34251,-3.21552 26.42497,-4.91377 69.5916,-13.01239 150.01507,-6.29678 241.41256,20.15865 29.70952,8.59957 33.08146,9.08229 37.22827,5.32948 z M 128.1767,301.34994 c 7.60107,-5.47007 13.04804,-15.16199 13.83162,-24.61092 0.86586,-10.44118 -1.38484,-15.64492 -7.7222,-17.85414 -8.80924,-3.0709 -17.54708,1.70883 -24.35235,13.32115 -12.393135,21.14728 0.57243,41.86036 18.24293,29.14391 z m 485.21743,-2.25178 c 10.36598,-10.36597 8.83441,-25.07276 -3.89723,-37.42291 -9.30671,-9.02785 -19.44106,-12.13372 -29.15087,-8.93387 -16.29631,5.37043 -18.07498,27.77078 -3.37253,42.47325 6.5002,6.50019 12.72527,8.9716 22.78337,9.04518 7.47255,0.0547 8.99851,-0.52289 13.63726,-5.16165 z M 320.48551,242.73344 c 2.37691,-3.19583 2.86375,-5.50474 2.06191,-9.77894 -1.40296,-7.47846 -4.88734,-10.69673 -10.94196,-10.10633 -9.01893,0.87945 -11.41424,14.43424 -3.88181,21.96667 3.97861,3.97861 8.84503,3.18492 12.76186,-2.0814 z m -53.74272,-4.46632 c 4.74396,-6.57515 5.26734,-11.86588 1.54231,-15.59091 -4.33843,-4.33843 -8.85123,-4.1461 -13.5759,0.57859 -4.2895,4.28948 -5.36816,14.44811 -1.90216,17.91411 3.09064,3.09064 10.76523,1.49258 13.93575,-2.90179 z m 264.01894,-48.25507 c 10.79567,-3.48662 22.25578,-13.91158 27.86067,-25.34413 3.7257,-7.59945 4.38791,-10.88936 4.33785,-21.55038 -0.0962,-20.49339 -9.38782,-35.65155 -27.19652,-44.367968 -7.45345,-3.648079 -10.82229,-4.334276 -20.69784,-4.215927 -18.95927,0.227208 -32.93113,8.416425 -41.63092,24.400795 -6.11401,11.23344 -7.44088,30.02781 -2.99318,42.39646 4.94321,13.74665 17.45233,25.40248 32.04233,29.85664 6.86969,2.09724 19.80974,1.55932 28.27761,-1.17549 z M 233.09985,171.32534 c 21.23022,-10.37389 31.06005,-35.37267 23.20647,-59.0176 -3.97726,-11.97437 -17.49941,-25.378234 -29.06806,-28.813755 -17.48477,-5.192419 -32.64099,-2.046252 -45.39863,9.423962 -11.33724,10.193153 -14.34492,17.760223 -14.34492,36.090633 0,12.02309 0.6413,16.27769 3.21356,21.31973 6.59818,12.9335 17.29524,21.75386 30.59992,25.23143 7.95047,2.07809 22.96604,0.0781 31.79166,-4.2344 z"
     id="path15"
     transform="translate(211,150)" />
  <path
     style="fill:#ffffff;stroke-width:0.818131"
     d="m 595.18507,290.93984 c -10.72624,-3.47474 -18.11442,-14.81853 -14.63085,-22.46413 2.69938,-5.9245 12.94502,-4.67623 19.93064,2.42824 6.43912,6.54868 8.5296,15.0886 4.57057,18.67147 -1.79789,1.62707 -6.88769,2.33066 -9.87036,1.36442 z"
     id="path16"
     transform="translate(211,150)" />
  <path
     style="fill:#ffffff;stroke-width:0.818131"
     d="m 621.15827,356.78098 c -4.03745,-1.46434 -5.17561,-2.47958 -7.80797,-6.96472 -1.8046,-3.07477 -2.19968,-4.74902 -2.2027,-9.33439 -0.003,-5.27836 0.14418,-5.7198 2.66815,-7.97678 3.41651,-3.0551 6.38502,-3.05875 10.58951,-0.013 7.77314,5.63083 10.39825,16.9007 5.33076,22.88554 -1.91109,2.25706 -4.88326,2.74332 -8.57775,1.40338 z"
     id="path17"
     transform="translate(211,150)" />
  <path
     style="fill:#ffffff;stroke-width:0.818131"
     d="m 675.28567,439.75285 c -6.28082,-3.31966 -10.55417,-10.34502 -10.55417,-17.35099 0,-3.38954 0.39181,-4.44549 2.39146,-6.44514 2.87397,-2.87396 5.55083,-3.04918 10.43815,-0.68327 9.41732,4.55884 14.77494,18.957 9.14786,24.58408 -2.00322,2.00322 -7.53099,1.95257 -11.4233,-0.10468 z"
     id="path18"
     transform="translate(211,150)" />
  <path
     style="fill:#ffffff;stroke-width:0.291116"
     d="m 769.12747,576.72996 c -1.17543,-0.51678 -3.5413,-3.10009 -4.23137,-4.62025 -0.98359,-2.16678 -0.56671,-6.39215 0.97388,-9.87083 4.112,-9.28495 16.06081,-16.4259 24.07226,-14.38628 5.06038,1.28831 7.54853,5.19109 6.69706,10.50465 -0.63402,3.95659 -2.51118,7.51708 -5.67816,10.77003 -3.38411,3.47598 -8.15892,6.24917 -12.78287,7.42425 -2.7187,0.6909 -7.66345,0.78838 -9.0508,0.17843 z"
     id="path19"
     transform="translate(211,150)" />
  <path
     style="fill:#ffffff;stroke-width:0.291116"
     d="m 829.53396,611.02529 c -1.82226,-1.03935 -2.3343,-1.54352 -2.93876,-2.8936 -1.30698,-2.91921 -0.87806,-7.48346 1.07636,-11.45386 1.29367,-2.62809 4.221,-5.71833 6.51458,-6.87711 2.18323,-1.10304 4.71183,-1.30465 6.27995,-0.50072 2.42088,1.24111 3.11332,2.61824 3.1059,6.177 -0.006,2.91353 -0.62792,5.81155 -1.70278,7.9355 -1.22774,2.42607 -5.34575,6.13654 -8.75462,7.88823 -1.27867,0.65706 -2.04967,0.59775 -3.58063,-0.27544 z"
     id="path20"
     transform="translate(211,150)" />
  <path
     style="fill:#ffffff;stroke-width:0.570055"
     d="m 56.55941,777.21747 c -6.960847,-1.63909 -8.781783,-5.20022 -5.759885,-11.26438 4.71411,-9.45999 19.337407,-18.7444 48.340449,-30.69164 15.341916,-6.3198 15.465046,-6.37987 17.802476,-8.68535 4.018,-3.96308 4.70713,-8.71445 1.94896,-13.43759 -0.91546,-1.56765 -4.52024,-6.44162 -8.01062,-10.83104 -13.881361,-17.45687 -22.077301,-31.93675 -27.913574,-49.31528 -4.633842,-13.79809 -6.29485,-24.61443 -6.29485,-40.99151 0,-18.22253 1.490246,-29.09469 5.749528,-41.94591 3.480893,-10.50266 14.554465,-32.2081 16.431761,-32.2081 0.65749,0 0.604384,-0.16668 3.450945,10.83104 1.25785,4.85972 2.95119,11.27283 3.76298,14.25137 l 1.47599,5.41552 -0.9028,10.54601 c -1.02722,11.99945 -1.18957,35.396 -0.32278,46.5192 2.40887,30.91247 8.69803,63.98662 17.98268,94.56936 4.64605,15.30364 6.52697,22.01533 6.52283,23.27532 -0.003,0.96586 -1.78386,2.37945 -8.12328,6.44859 -10.0038,6.42124 -12.24248,7.55691 -16.15022,8.19291 -4.24677,0.69118 -8.940448,3.05196 -18.235902,9.17213 -4.365007,2.87393 -9.81845,6.10652 -12.118763,7.18352 -6.752561,3.16153 -14.09507,4.27055 -19.635925,2.96583 z"
     id="path21"
     transform="translate(211,150)" />
  <path
     style="fill:#ffffff;stroke-width:0.243788"
     d="m 118.06221,291.50926 c -0.70986,-1.60193 -0.86958,-5.18654 -0.33285,-7.47025 0.81317,-3.45988 3.01606,-7.34704 5.86761,-10.35378 2.81422,-2.96738 5.1234,-3.93197 6.18426,-2.58331 1.18927,1.51192 1.15002,4.19445 -0.12033,8.22245 -1.50389,4.76848 -5.19692,10.04299 -8.64297,12.34418 -1.96068,1.30929 -2.31337,1.29028 -2.95572,-0.15929 z"
     id="path22"
     transform="translate(211,150)" />
  <path
     style="fill:#ffffff;stroke-width:0.243788"
     d="m 192.95115,128.38427 c -4.48682,-1.43607 -8.22562,-4.78709 -9.24177,-8.28325 -1.0927,-3.75954 -0.77407,-6.95735 1.06233,-10.66153 1.56346,-3.15365 3.48775,-5.04847 6.79472,-6.69068 3.25008,-1.61395 4.43586,-1.75616 7.12063,-0.85396 4.97941,1.67331 6.9355,3.31921 9.11184,7.66695 1.81185,3.61956 1.98314,4.66636 1.26139,7.7088 -1.43482,6.04823 -4.99229,10.00796 -10.066,11.20421 -2.01953,0.47615 -4.38323,0.44074 -6.04314,-0.0905 z"
     id="path23"
     transform="translate(211,150)" />
  <path
     style="fill:#ffffff;stroke-width:0.243788"
     d="m 495.4987,143.1167 c -3.65051,-1.0276 -7.16112,-3.77044 -8.69162,-6.79076 -0.93519,-1.84549 -1.54747,-4.60895 -1.54747,-6.98429 0,-3.88781 1.08515,-6.65969 3.66998,-9.37451 4.55659,-4.78575 11.07551,-6.09062 16.35903,-3.27454 1.87584,0.99981 4.45841,3.73551 5.62431,5.9578 2.17735,4.15015 2.18522,8.07777 0.0251,12.52993 -1.11308,2.29416 -4.3073,5.58871 -6.56094,6.76704 -2.7749,1.45087 -6.25161,1.90877 -8.8784,1.16933 z"
     id="path24"
     transform="translate(211,150)" />
</g></svg>
