<?xml version="1.0" encoding="UTF-8" standalone="no"?>
<svg
   version="1.0"
   width="600.000000pt"
   height="432.000000pt"
   viewBox="0 0 600.000000 432.000000"
   preserveAspectRatio="xMidYMid meet"
   id="svg47"
   sodipodi:docname="frog11_t1.svg.svg"
   inkscape:version="1.4.3 (0d15f75, 2025-12-25)"
   xmlns:inkscape="http://www.inkscape.org/namespaces/inkscape"
   xmlns:sodipodi="http://sodipodi.sourceforge.net/DTD/sodipodi-0.dtd"
   xmlns="http://www.w3.org/2000/svg"
   xmlns:svg="http://www.w3.org/2000/svg">
  <defs
     id="defs47" />
  <sodipodi:namedview
     id="namedview47"
     pagecolor="#505050"
     bordercolor="#ffffff"
     borderopacity="1"
     inkscape:showpageshadow="0"
     inkscape:pageopacity="0"
     inkscape:pagecheckerboard="1"
     inkscape:deskcolor="#505050"
     inkscape:document-units="pt"
     inkscape:zoom="0.59517467"
     inkscape:cx="399.88261"
     inkscape:cy="343.59661"
     inkscape:window-width="1024"
     inkscape:window-height="1022"
     inkscape:window-x="0"
     inkscape:window-y="30"
     inkscape:window-maximized="0"
     inkscape:current-layer="svg47" />
  <g
     transform="translate(0.000000,432.000000) scale(0.050000,-0.050000)"
     fill="#000000"
     stroke="none"
     id="g47">
    <path
       d="M6074 8501 c-95 -113 -187 -504 -266 -1136 -39 -306 -47 -320 -141 -246 -61 48 -98 36 -125 -41 -27 -79 -27 -79 -142 100 -198 309 -333 259 -381 -141 -26 -215 -18 -195 -78 -202 -39 -4 -69 26 -167 165 -436 619 -723 969 -829 1013 -259 109 -291 -152 -158 -1318 51 -449 52 -447 -108 -283 -272 278 -396 207 -372 -212 l12 -210 -65 -41 -66 -42 -189 159 c-464 389 -878 673 -981 674 -217 1 -185 -220 175 -1227 l127 -357 -44 -35 c-42 -35 -46 -33 -210 101 -796 651 -929 547 -602 -470 118 -366 113 -429 -30 -416 -105 10 -141 -38 -128 -171 9 -88 4 -118 -32 -172 l-44 -66 -260 114 c-796 350 -881 240 -464 -601 90 -181 167 -336 171 -345 3 -8 -30 -13 -74 -12 -134 6 -180 -85 -121 -237 16 -41 15 -83 -3 -159 l-24 -103 -111 -14 c-306 -38 -324 -171 -57 -425 140 -132 147 -144 160 -248 7 -60 30 -159 51 -221 l38 -112 -70 -67 c-308 -296 -119 -517 443 -517 210 0 207 1 432 -209 389 -362 819 -354 819 17 l0 91 149 -92 c277 -171 522 -122 578 116 7 30 41 82 76 117 l63 63 182 -52 c175 -49 526 -111 634 -111 50 0 51 -3 50 -138 -3 -257 167 -351 678 -376 l260 -12 150 -116 c367 -283 782 -251 805 61 5 54 16 53 182 -29 381 -187 694 -98 721 203 7 70 13 78 77 88 155 26 275 153 275 291 l0 62 295 12 c843 33 1541 269 1961 662 95 89 108 96 136 68 47 -47 0 -196 -62 -196 -24 0 -100 -28 -168 -62 -502 -251 -458 -753 62 -710 110 9 156 6 156 -10 0 -308 477 -334 803 -43 209 186 343 213 485 99 562 -452 1222 -149 820 378 l-69 89 60 75 c96 119 180 357 181 508 0 52 24 109 82 197 144 217 118 355 -62 327 -71 -12 -73 -10 -98 75 -14 48 -44 120 -67 160 -36 65 -38 85 -18 164 51 203 -7 287 -157 228 -121 -48 -126 -20 -47 255 181 629 67 713 -464 341 -141 -98 -152 -102 -211 -70 -39 21 -38 24 21 91 123 139 150 219 154 442 3 191 7 209 64 292 335 486 360 799 58 735 -160 -34 -154 -46 -102 204 90 436 24 575 -201 422 l-78 -53 12 78 c64 428 77 546 80 729 8 416 -114 443 -429 96 -309 -341 -305 -338 -334 -320 -22 14 -17 67 25 293 51 272 66 479 37 522 -65 97 -175 69 -348 -89 -62 -57 -117 -103 -123 -103 -5 0 -9 227 -8 505 2 790 -49 979 -255 927 -61 -15 -112 -89 -365 -532 -415 -724 -426 -740 -452 -640 -15 57 -69 71 -114 30 -61 -55 -93 -25 -107 100 -99 837 -336 926 -605 228 -110 -285 -100 -275 -177 -190 -80 87 -97 89 -174 12 -55 -55 -69 -59 -189 -55 l-130 5 -116 291 c-347 866 -570 1167 -728 980z m354 -434 c174 -351 572 -1332 572 -1410 0 -13 -23 -53 -50 -89 -67 -87 -34 -101 66 -29 96 70 123 152 76 235 -48 85 -130 321 -117 334 20 20 162 13 175 -8 25 -41 92 -19 126 40 41 73 51 74 81 9 12 -27 36 -55 53 -62 16 -6 30 -28 30 -48 0 -20 9 -42 20 -49 48 -29 95 40 178 263 113 302 237 552 268 542 53 -17 120 -269 203 -761 15 -85 57 -113 115 -76 35 22 176 12 176 -13 0 -52 -90 -145 -140 -145 -59 0 -106 -41 -64 -55 13 -5 24 -21 24 -35 0 -46 27 -48 113 -9 91 42 180 178 637 979 228 399 280 480 311 480 92 0 121 -1028 46 -1671 -13 -117 27 -185 90 -150 26 14 33 48 33 152 l0 133 176 168 c228 218 244 218 227 3 -13 -168 -77 -506 -101 -529 -7 -8 -53 6 -103 30 -82 40 -91 41 -103 11 -18 -47 76 -122 188 -152 97 -26 125 -59 88 -103 -27 -33 -8 -92 30 -92 14 0 158 148 318 328 275 310 339 370 368 341 69 -70 -86 -1206 -162 -1193 -70 11 -60 -43 22 -119 135 -125 210 -312 152 -378 -38 -41 -18 -104 27 -91 211 63 452 111 469 94 26 -26 -40 -203 -147 -397 -72 -131 -119 -180 -119 -125 0 11 -14 20 -31 20 -18 0 -55 28 -83 61 -88 104 -102 42 -29 -119 177 -382 98 -671 -231 -847 -149 -80 -389 -375 -352 -432 47 -73 -220 -481 -445 -681 -151 -134 -414 -299 -595 -373 -174 -71 -215 -109 -119 -109 109 0 394 119 582 243 l68 44 -15 -48 c-188 -628 -1193 -1099 -2344 -1099 l-190 0 -91 101 c-141 157 -390 265 -655 284 -56 4 -98 17 -96 29 27 136 46 298 46 391 0 89 12 134 50 195 91 145 64 557 -38 577 -33 6 -35 -3 -21 -100 18 -123 17 -328 -2 -359 -7 -11 -38 51 -68 138 -30 88 -74 186 -98 220 -24 33 -43 72 -43 87 -1 50 -121 237 -153 237 -23 0 -28 -12 -19 -48 l12 -48 -74 38 c-176 90 -206 40 -49 -78 273 -205 396 -507 379 -932 -11 -244 -45 -360 -115 -382 -102 -32 -37 -80 99 -74 448 22 860 -199 860 -462 0 -139 -213 -253 -280 -151 -112 174 -328 318 -528 355 -197 36 -209 -32 -17 -94 430 -139 646 -552 345 -659 -175 -62 -638 117 -744 288 -51 81 -213 207 -269 207 -60 0 -38 -45 81 -165 439 -438 -10 -669 -515 -264 l-136 109 -193 0 c-475 1 -692 95 -656 287 l13 70 110 -11 c135 -14 151 28 30 81 -473 209 -799 909 -694 1491 41 226 181 526 221 472 50 -69 72 -14 72 176 1 226 12 250 96 206 93 -48 110 -42 96 36 -12 64 -5 75 120 190 127 116 188 148 188 101 0 -67 91 -4 100 69 11 87 40 110 79 63 30 -37 101 -41 101 -7 0 13 -19 44 -42 68 l-42 45 61 88 c129 188 243 252 243 136 0 -72 68 -160 100 -129 16 16 13 87 -10 270 -40 308 -34 565 12 574 69 13 517 -378 559 -488 16 -43 25 -48 49 -28 54 45 34 117 -59 217 -88 94 -89 96 -49 130 55 47 29 77 -53 61 -60 -11 -82 -1 -193 87 -313 247 -408 190 -403 -244 l2 -261 -92 -60 c-50 -33 -121 -100 -158 -150 -36 -49 -92 -121 -125 -159 -33 -38 -60 -81 -60 -95 0 -14 -45 -48 -100 -76 -55 -28 -162 -109 -237 -180 -78 -74 -156 -130 -179 -130 -50 0 -104 -71 -104 -135 0 -54 -69 -228 -181 -455 -171 -346 -197 -800 -68 -1137 41 -106 -540 74 -658 204 -37 40 -36 43 3 107 172 277 216 872 91 1221 -163 458 -453 735 -837 801 -150 25 -158 43 -78 161 57 85 41 143 -28 101 -27 -17 -125 -170 -149 -233 -3 -8 -57 -28 -121 -45 -63 -16 -152 -48 -196 -71 l-81 -41 22 41 c13 23 37 41 55 41 18 0 74 43 124 95 50 52 98 96 106 98 9 1 30 3 46 5 42 3 38 61 -5 64 -19 2 -48 4 -65 5 -96 9 31 119 140 122 37 1 52 13 57 50 4 27 56 103 116 169 110 122 136 174 124 252 -6 37 -32 15 -167 -135 -223 -250 -219 -248 -270 -110 -141 377 -259 854 -221 892 68 68 761 -460 761 -579 l0 -56 91 89 c99 97 116 93 141 -36 11 -57 2 -77 -67 -151 -43 -48 -95 -128 -114 -179 -25 -64 -52 -99 -91 -115 -90 -37 -155 -115 -111 -132 20 -8 61 1 95 21 70 42 63 48 94 -92 26 -122 87 -200 125 -162 16 16 14 44 -10 104 -70 173 -6 506 80 420 77 -77 484 54 616 200 56 61 18 89 -53 38 -101 -72 -280 -136 -380 -137 -66 0 -100 -10 -112 -33 -13 -23 -23 -25 -33 -9 -23 37 4 82 49 82 73 0 65 49 -81 463 -414 1174 -473 1397 -369 1381 91 -15 485 -305 1015 -748 351 -293 405 -326 428 -264 9 23 29 28 76 19 76 -14 97 1 70 52 -16 29 -43 37 -124 37 -197 0 -300 176 -105 180 111 2 302 115 262 155 -8 7 -59 -2 -115 -22 -125 -45 -117 -58 -131 194 -16 287 2 294 216 81 138 -137 163 -154 193 -133 74 53 125 65 165 40 32 -20 46 -16 84 19 70 64 334 231 504 318 147 75 172 106 135 164 -19 30 -265 -90 -487 -237 -108 -72 -275 -151 -286 -134 -31 47 -139 1364 -122 1480 20 130 58 124 205 -30 218 -228 794 -1028 782 -1086 -9 -48 -10 -48 460 133 108 41 28 118 -87 83 -68 -21 -68 -21 -66 42 4 126 47 283 78 283 44 0 182 -211 173 -265 -14 -83 32 -93 209 -46 89 24 165 40 170 36 8 -8 -19 -282 -44 -446 -22 -145 139 -264 333 -246 102 10 84 36 -57 82 -156 51 -162 63 -141 285 92 930 241 1764 322 1797 44 17 143 -117 263 -360z m4352 -2516 c0 -75 -72 -470 -89 -487 -5 -5 -28 33 -51 85 -22 53 -58 121 -80 151 -69 97 -32 172 139 287 70 47 81 42 81 -36z m-9264 -1358 l45 -25 -51 -59 c-57 -67 -89 -47 -90 56 0 60 25 68 96 28z m-866 -149 c211 -75 697 -301 724 -337 39 -52 92 -17 82 52 -23 159 485 215 754 83 981 -481 709 -2260 -345 -2262 -80 0 -145 -9 -145 -19 0 -43 98 -70 260 -71 94 -1 180 -7 190 -14 11 -6 52 -18 90 -26 203 -44 393 -181 471 -340 139 -284 -78 -407 -376 -213 -69 44 -156 94 -195 110 -38 16 -89 55 -112 87 -53 71 -172 137 -217 119 -29 -11 -18 -32 73 -130 161 -174 194 -308 98 -405 -126 -125 -335 -51 -638 229 -208 192 -192 186 -548 200 -285 12 -344 34 -352 136 -8 90 102 222 170 204 60 -15 72 42 27 130 -32 64 -101 290 -101 333 0 7 31 -6 70 -30 148 -91 219 -18 73 76 -138 90 -407 326 -442 389 -52 93 -17 104 339 112 l317 6 30 -58 c69 -133 131 -125 94 13 -38 138 -108 177 -299 166 -173 -10 -195 4 -121 72 l41 38 -41 104 c-56 142 -55 190 4 169 67 -24 217 -10 269 24 67 43 59 89 -14 89 -94 0 -535 901 -493 1008 14 38 50 32 263 -44z m10645 -469 c-19 -185 -157 -633 -198 -646 -21 -6 -37 -20 -37 -30 0 -27 79 -64 111 -51 15 6 36 -5 47 -23 17 -32 26 -31 120 9 113 47 112 49 79 -115 -22 -105 -21 -118 18 -168 74 -94 115 -244 76 -283 -61 -61 -6 -88 115 -56 170 45 174 30 47 -159 -78 -115 -89 -146 -98 -272 -21 -298 -150 -471 -352 -471 -159 0 -171 -27 -34 -75 424 -149 451 -611 34 -571 -202 20 -484 194 -596 370 -90 139 -167 128 -112 -16 20 -55 19 -57 -52 -70 -105 -19 -167 -55 -303 -176 -163 -146 -242 -182 -395 -182 -391 2 -270 515 166 709 155 68 97 127 -71 71 -183 -61 -419 -304 -420 -433 0 -112 -381 -136 -451 -28 -98 150 112 393 413 479 105 30 113 36 136 117 40 135 112 243 242 360 133 121 141 135 73 135 -60 0 -185 -83 -264 -174 -109 -127 -137 -42 -43 132 40 75 96 197 125 272 34 92 87 177 161 261 148 169 301 428 352 599 52 173 151 301 255 332 105 32 169 -2 138 -71 -43 -95 162 -371 276 -371 37 0 34 59 -4 73 -39 15 -169 183 -169 218 0 42 546 409 607 409 10 0 14 -47 8 -105z m-8559 -1798 c131 -114 425 -216 627 -217 l93 0 81 -146 c44 -81 122 -198 173 -261 l93 -114 -87 13 c-195 29 -394 70 -528 110 l-141 42 -27 102 c-33 132 -182 285 -355 366 l-123 58 53 55 c64 67 55 68 141 -8z m-150 -197 c193 -73 334 -226 334 -364 -1 -75 -36 -143 -53 -101 -61 151 -272 335 -455 397 l-98 33 48 37 c61 47 92 47 224 -2z"
       id="path1" />
    <path
       d="M7826 6955 c-59 -64 -111 -174 -98 -207 19 -50 67 -30 105 43 48 93 65 94 112 4 56 -108 117 -84 87 34 -33 133 -140 198 -206 126z"
       id="path2" />
    <path
       d="M7314 6561 c-69 -82 -127 -236 -98 -265 28 -28 82 -7 96 39 57 184 87 198 159 75 83 -142 162 -114 88 32 -91 178 -165 214 -245 119z"
       id="path3" />
    <path
       d="M5191 6516 c-75 -65 -98 -235 -82 -589 l13 -283 -116 -62 c-359 -192 -659 -597 -769 -1041 -64 -258 -36 -560 47 -508 9 5 16 83 16 174 0 383 224 855 540 1139 57 52 113 94 124 94 11 0 47 23 80 50 80 67 90 64 100 -32 6 -70 -2 -92 -57 -152 -86 -95 -118 -176 -95 -241 27 -78 76 -85 59 -9 -25 113 91 273 128 176 20 -51 68 -69 90 -34 6 10 -3 169 -19 355 -52 587 -40 867 38 867 59 0 339 -295 571 -601 103 -137 209 -273 236 -302 l49 -53 -43 -97 c-24 -53 -76 -131 -116 -172 -122 -125 -30 -130 98 -5 86 83 137 183 137 267 0 64 -37 163 -60 163 -8 0 -100 115 -205 255 -407 545 -645 744 -764 641z"
       id="path4" />
    <path
       d="M8279 6494 c-206 -58 -422 -245 -491 -425 -54 -143 -8 -158 77 -26 315 488 904 489 1153 1 84 -164 134 -108 56 63 -139 303 -489 474 -795 387z"
       id="path5" />
    <path
       d="M6424 6450 c-75 -95 -149 -644 -93 -691 49 -40 89 24 89 141 0 179 68 480 108 480 26 0 150 -149 269 -325 68 -99 110 -119 132 -62 15 41 -132 269 -264 411 -106 113 -178 127 -241 46z"
       id="path6" />
    <path
       d="M8318 6154 c-453 -170 -433 -811 30 -936 342 -92 683 242 594 581 -71 275 -376 448 -624 355z m348 -117 c245 -124 263 -509 32 -676 -288 -209 -693 54 -616 399 63 282 327 407 584 277z"
       id="path7" />
    <path
       d="M8396 5849 c-138 -75 -133 -288 7 -361 228 -117 408 221 189 354 -74 45 -123 47 -196 7z"
       id="path8" />
    <path
       d="M3885 6095 c-30 -37 -47 -161 -27 -193 27 -42 78 -11 86 52 6 56 10 57 101 31 54 -15 43 46 -18 94 -59 47 -113 53 -142 16z"
       id="path9" />
    <path
       d="M4580 6030 c-38 -45 -38 -240 0 -240 19 0 37 31 49 80 24 106 23 105 90 41 103 -98 136 -32 39 78 -66 76 -136 92 -178 41z"
       id="path10" />
    <path
       d="M7235 5968 c-60 -32 -104 -98 -85 -128 21 -34 64 -22 95 25 l31 45 50 -47 c50 -47 94 -44 94 5 0 23 -64 92 -110 117 -11 6 -45 -2 -75 -17z"
       id="path11" />
    <path
       d="M9525 5949 c-25 -17 -54 -49 -66 -70 -29 -55 29 -76 80 -30 36 32 40 32 80 -8 44 -44 81 -39 81 11 0 82 -110 143 -175 97z"
       id="path12" />
    <path
       d="M4184 5885 c-103 -23 -144 -45 -219 -117 -51 -48 -108 -88 -127 -88 -115 0 -149 -223 -88 -590 16 -99 29 -209 30 -244 0 -75 45 -126 110 -126 61 0 85 39 43 70 -53 39 -136 647 -101 738 25 66 108 14 414 -255 136 -121 196 -133 165 -35 -12 38 -213 226 -392 367 l-69 54 57 48 c65 54 275 124 320 107 34 -13 83 34 65 63 -21 34 -81 36 -208 8z"
       id="path13" />
    <path
       d="M7044 5588 c-326 -162 -399 -592 -143 -843 311 -304 849 -108 893 325 41 397 -392 697 -750 518z m408 -76 c122 -57 205 -157 239 -290 103 -397 -367 -700 -691 -445 -394 311 -3 947 452 735z"
       id="path14" />
    <path
       d="M7195 5289 c-30 -17 -68 -56 -85 -89 -113 -219 167 -425 334 -245 170 183 -31 452 -249 334z"
       id="path15" />
    <path
       d="M9382 5587 c-314 -156 -376 -595 -119 -841 316 -302 820 -103 853 337 31 405 -374 683 -734 504z m388 -64 c189 -86 296 -295 252 -492 -105 -468 -744 -443 -830 33 -56 308 295 587 578 459z"
       id="path16" />
    <path
       d="M9491 5255 c-172 -172 -4 -440 217 -347 202 84 155 377 -65 406 -74 10 -89 4 -152 -59z"
       id="path17" />
    <path
       d="M3481 5445 c-205 -245 -317 -793 -234 -1145 36 -157 47 -146 -105 -99 -378 118 -444 -11 -232 -453 93 -193 147 -250 189 -199 18 22 10 51 -37 134 -72 128 -162 361 -162 420 0 52 67 43 314 -42 203 -69 245 -47 177 91 -127 257 -64 824 132 1184 103 190 79 255 -42 109z"
       id="path18" />
    <path
       d="M5180 5103 c0 -123 305 -215 485 -145 97 37 62 62 -90 62 -143 1 -291 46 -324 98 -22 35 -71 25 -71 -15z"
       id="path19" />
    <path
       d="M6000 4940 c-45 -45 -58 -507 -15 -533 57 -36 91 78 80 267 -13 219 -9 221 156 117 162 -104 242 -56 94 56 -165 124 -257 151 -315 93z"
       id="path20" />
    <path
       d="M8160 4670 c-35 -43 32 -137 104 -146 69 -8 89 49 40 115 -46 61 -108 75 -144 31z"
       id="path21" />
    <path
       d="M8742 4647 c-52 -65 -47 -115 12 -123 57 -8 130 65 122 122 -9 67 -83 67 -134 1z"
       id="path22" />
    <path
       d="M5640 4572 c0 -52 69 -153 100 -146 63 12 -4 174 -73 174 -15 0 -27 -13 -27 -28z"
       id="path23" />
    <path
       d="M3706 4330 c-55 -40 -44 -400 14 -458 31 -30 86 44 71 98 -67 242 -35 305 109 210 97 -65 140 -75 140 -34 0 97 -258 239 -334 184z"
       id="path24" />
    <path
       d="M8280 4308 c-847 -61 -2071 -413 -2007 -578 18 -46 58 -38 317 68 1175 477 2620 504 3645 68 177 -74 232 -75 221 -1 -30 217 -1407 497 -2176 443z"
       id="path25" />
    <path
       d="M5699 4185 c-14 -41 -41 -106 -62 -144 -41 -79 -21 -126 35 -79 46 38 107 175 108 243 0 82 -52 69 -81 -20z"
       id="path26" />
    <path
       d="M6246 4201 c-382 -173 -480 -632 -179 -839 121 -83 273 -120 273 -66 0 8 -50 40 -111 72 -363 190 -312 564 109 796 129 71 52 102 -92 37z"
       id="path27" />
    <path
       d="M4753 3907 c-36 -37 61 -155 164 -201 187 -82 581 2 599 130 8 55 4 55 -115 -6 -193 -97 -417 -85 -549 31 -72 63 -78 66 -99 46z"
       id="path28" />
    <path
       d="M4506 3378 c-103 -38 -186 -346 -192 -716 l-4 -210 80 -46 c57 -33 105 -45 168 -41 110 6 129 45 31 64 -157 29 -169 43 -168 189 1 307 73 642 138 642 89 0 454 -502 429 -589 -6 -23 -29 -65 -50 -95 -79 -113 -33 -130 71 -25 119 118 101 208 -95 497 -172 254 -311 366 -408 330z"
       id="path29" />
    <path
       d="M3013 3166 c-61 -61 10 -545 99 -682 52 -79 68 -22 28 97 -46 136 -80 334 -80 473 0 98 -18 141 -47 112z"
       id="path30" />
    <path
       d="M5265 3115 c-65 -69 -89 -147 -54 -176 23 -19 35 -12 64 39 45 79 60 78 97 -9 30 -72 73 -84 84 -23 26 132 -112 253 -191 169z"
       id="path31" />
    <path
       d="M5920 3134 c0 -15 176 -281 227 -344 67 -82 90 -48 39 57 -65 133 -266 350 -266 287z"
       id="path32" />
    <path
       d="M9669 2993 c-44 -37 -100 -78 -126 -92 -33 -17 -41 -31 -26 -46 52 -52 283 94 283 178 0 45 -49 31 -131 -40z"
       id="path33" />
    <path
       d="M6600 2899 c0 -96 361 -291 700 -379 364 -94 940 -87 940 12 0 23 -38 25 -205 15 -432 -26 -956 94 -1292 297 -140 84 -143 85 -143 55z"
       id="path34" />
    <path
       d="M9040 2721 c-38 -20 -109 -48 -156 -62 -104 -31 -99 -71 8 -63 149 11 309 95 277 145 -16 27 -50 22 -129 -20z"
       id="path35" />
    <path
       d="M5252 2475 c-87 -115 -121 -255 -62 -255 16 0 52 45 80 100 63 124 62 124 121 -10 63 -144 132 -140 90 5 -61 216 -143 272 -229 160z"
       id="path36" />
    <path
       d="M4011 2236 c-62 -89 -8 -427 65 -412 36 8 36 10 12 231 -16 150 -11 151 139 33 78 -61 124 -85 137 -72 35 35 -2 92 -117 179 -126 95 -190 106 -236 41z"
       id="path37" />
    <path
       d="M6480 2092 c0 -79 327 -255 620 -335 359 -97 1117 -55 1313 73 97 63 25 77 -156 30 -492 -129 -1252 -41 -1643 191 -133 79 -134 79 -134 41z"
       id="path38" />
    <path
       d="M4742 2025 c-48 -40 -94 -234 -74 -314 19 -75 68 -64 81 19 6 39 16 102 22 140 14 92 34 88 113 -19 117 -158 183 -111 72 51 -88 130 -157 170 -214 123z"
       id="path39" />
    <path
       d="M1381 3411 c-32 -39 -48 -174 -24 -209 27 -40 57 -12 72 70 13 67 16 70 49 40 81 -74 122 -19 50 66 -56 67 -109 79 -147 33z"
       id="path40" />
    <path
       d="M1883 3369 c-50 -63 -127 -263 -119 -307 16 -83 70 -40 124 97 64 163 76 162 154 -10 80 -178 141 -190 110 -23 -38 205 -191 343 -269 243z"
       id="path41" />
    <path
       d="M1178 2825 c-24 -60 -10 -241 20 -271 37 -37 62 11 62 120 l0 111 45 -33 c25 -18 65 -46 89 -64 64 -45 94 -18 54 49 -78 132 -234 183 -270 88z"
       id="path42" />
    <path
       d="M1269 1973 c-22 -87 -2 -202 36 -209 29 -6 35 8 35 75 0 91 9 96 80 41 117 -92 155 -36 47 69 -89 87 -180 98 -198 24z"
       id="path43" />
    <path
       d="M10396 2979 c-70 -70 -51 -137 20 -73 49 45 60 43 68 -11 3 -25 23 -48 44 -52 33 -6 36 2 26 67 -23 140 -67 160 -158 69z"
       id="path44" />
    <path
       d="M10675 2577 c-111 -119 -139 -180 -94 -208 12 -7 70 40 130 104 122 133 148 127 149 -36 0 -112 15 -157 52 -157 64 0 62 310 -3 381 -59 66 -111 47 -234 -84z"
       id="path45" />
    <path
       d="M11158 2262 c-61 -50 -29 -100 40 -63 38 20 42 17 42 -37 0 -70 26 -93 59 -53 89 106 -34 240 -141 153z"
       id="path46" />
    <path
       d="M10842 1902 c-92 -86 -70 -145 27 -71 59 44 71 36 71 -50 0 -89 23 -115 61 -70 28 33 35 187 11 226 -25 41 -106 25 -170 -35z"
       id="path47" />
  </g>
  <path
     style="fill:#ffffff;stroke-width:1.27809"
     d="m 354.59901,559.865 c -7.8738,-2.90077 -14.57795,-6.72873 -21.74611,-12.41666 l -6.94094,-5.50764 -19.81033,-1.43782 c -22.39727,-1.62557 -29.26373,-3.28082 -34.70839,-8.36689 -3.13514,-2.92867 -3.72515,-4.38658 -3.39489,-8.38887 0.39727,-4.81432 0.43515,-4.84472 6.15112,-4.93506 11.6607,-0.18433 12.07724,-2.10424 1.63989,-7.55834 -15.49435,-8.09665 -30.76444,-26.51066 -38.062,-45.89852 -9.72625,-25.84027 -9.3423,-50.2673 1.14695,-72.96993 4.01406,-8.68789 4.83661,-9.69598 7.27901,-8.9208 3.95762,1.25611 4.94591,-1.15701 4.98848,-12.18045 0.047,-12.16872 0.94386,-15.74187 3.68483,-14.68078 1.13777,0.44047 3.65031,1.12003 5.58342,1.51014 3.30146,0.66625 3.51473,0.43705 3.51473,-3.77722 0,-3.87533 1.13809,-5.55115 8.35433,-12.30158 8.08161,-7.55995 10.81697,-9.213 10.81697,-6.53697 0,1.82269 4.55319,1.58365 6.08634,-0.31952 0.70786,-0.87869 1.68668,-3.46681 2.17518,-5.75139 1.03096,-4.82149 0.68523,-4.66519 5.17132,-2.33779 3.38065,1.75391 7.01653,1.49363 7.01653,-0.50228 0,-0.53294 -1.17922,-2.46813 -2.62049,-4.30041 -2.19287,-2.78778 -2.3731,-3.79365 -1.10449,-6.16409 2.27336,-4.24781 12.79049,-15.13285 14.62137,-15.13285 0.88,0 1.96282,1.93403 2.40628,4.29784 0.9972,5.31557 5.24837,9.61451 7.38991,7.47298 1.09578,-1.09578 1.08778,-4.90523 -0.032,-15.24293 -2.21122,-20.41291 -1.99832,-38.5896 0.46305,-39.53412 3.74352,-1.43653 29.53051,20.75163 36.61319,31.50346 1.96921,2.98934 2.24639,3.05807 4.30188,1.06674 2.99861,-2.90501 1.76831,-7.01196 -4.4615,-14.89327 -4.31198,-5.45508 -4.78643,-6.63286 -3.20175,-7.94803 3.61998,-3.00432 2.15569,-5.06525 -3.59885,-5.06525 -4.50677,0 -6.94069,-1.08005 -13.9505,-6.19045 -10.12958,-7.38486 -15.28042,-9.69883 -19.32797,-8.68297 -4.94704,1.24163 -6.4154,6.43512 -7.19274,25.44009 l -0.7197,17.59614 -6.28495,4.77036 c -3.45672,2.62371 -10.35839,10.07939 -15.33703,16.56819 -5.90807,7.70014 -11.71555,13.64409 -16.7206,17.1135 -4.21769,2.92361 -10.25664,7.59476 -13.41991,10.38031 -3.16326,2.78555 -7.86914,6.14768 -10.45749,7.47139 -5.64165,2.88522 -5.81136,3.13301 -8.061,11.76998 -0.97433,3.74066 -4.91689,13.67544 -8.76127,22.07728 -9.17169,20.04459 -11.10616,27.50075 -11.91386,45.92025 -0.63002,14.36761 0.86211,27.36149 4.0728,35.46689 0.69375,1.75133 0.22676,2.23665 -2.15214,2.23665 -8.65066,0 -36.33727,-10.73101 -40.43948,-15.67386 -1.20694,-1.45429 -0.71084,-3.44815 2.41379,-9.7011 9.62632,-19.26395 11.75134,-56.08467 4.47337,-77.51098 -4.86167,-14.31273 -11.1478,-24.98413 -20.6521,-35.05919 -9.48125,-10.05061 -19.41804,-15.84091 -32.09945,-18.70473 -12.64302,-2.85515 -12.72793,-2.95138 -8.9186,-10.10719 2.75593,-5.17699 3.34278,-9.61884 1.27084,-9.61884 -2.42396,0 -6.03052,3.68376 -9.99333,10.20724 -4.3331,7.13305 -5.15966,7.81031 -11.91894,9.76585 -3.99462,1.15569 -8.12565,2.4193 -9.180075,2.808 -1.054421,0.3887 1.246135,-2.25555 5.112345,-5.87611 3.86621,-3.62056 8.00202,-6.60477 9.19069,-6.63157 5.49771,-0.12394 3.2246,-6.43915 -2.31771,-6.43915 -6.3562,0 -1.59007,-4.67066 6.45594,-6.32663 2.46746,-0.50783 4.55212,-2.21826 6.11645,-5.0184 1.30524,-2.3364 5.22837,-7.77669 8.71806,-12.08954 5.09546,-6.29739 6.34489,-8.78899 6.34489,-12.65287 0,-2.64623 -0.40272,-4.81132 -0.89494,-4.81132 -0.49222,0 -6.19409,5.60761 -12.67083,12.46134 -6.47673,6.85374 -12.16418,12.07463 -12.63877,11.60198 -1.57493,-1.5685 -10.88361,-30.38872 -14.090092,-43.62377 -2.966618,-12.245 -4.022941,-21.3383 -2.47876,-21.3383 2.20358,0 14.358292,7.28096 23.663742,14.17514 13.72819,10.17089 25.50009,21.87039 25.50009,25.34328 0,3.73048 1.4014,3.33248 6.39043,-1.81488 5.46551,-5.63898 7.33458,-5.63591 8.39446,0.0137 0.73445,3.91497 0.19009,5.34079 -4.26961,11.18325 -2.81127,3.68291 -6.33291,9.1287 -7.82588,12.10173 -1.49297,2.97304 -4.29183,6.22121 -6.2197,7.21814 -9.24001,4.77821 -10.20819,11.98912 -1.17095,8.7212 5.744,-2.07705 5.57935,-2.15857 6.58199,3.25829 1.35903,7.3422 4.49563,13.10038 7.13606,13.10038 3.5516,0 3.77551,-1.37758 1.61679,-9.94731 -2.1629,-8.58634 -1.5122,-20.00743 1.36399,-23.94086 1.37736,-1.88364 2.07619,-1.98024 4.59072,-0.6345 5.635,3.01576 22.89271,-1.46133 34.60586,-8.97763 5.71679,-3.66846 8.87997,-8.04507 7.10059,-9.82446 -0.40183,-0.40184 -4.93208,1.40195 -10.06721,4.00841 -5.97291,3.03169 -12.65856,5.25321 -18.55739,6.16626 -5.07142,0.78499 -9.22078,1.93418 -9.22078,2.55376 0,0.61959 -0.58452,0.76527 -1.29893,0.32374 -1.80121,-1.11321 -0.31596,-3.11755 3.34021,-4.50762 1.68909,-0.64219 3.06086,-2.18835 3.04838,-3.4359 -0.0125,-1.24756 -4.10067,-14.05863 -9.08488,-28.46905 -23.13686,-66.89369 -29.92505,-90.74412 -25.82716,-90.74412 4.31597,0 29.44546,18.24151 62.36734,45.27248 11.92467,9.79092 23.65148,19.13874 26.0596,20.77293 4.52934,3.07369 9.13401,3.92726 9.13401,1.69316 0,-0.70295 2.30055,-1.27809 5.11234,-1.27809 4.28112,0 5.11235,-0.42076 5.11235,-2.5878 0,-2.92263 -4.40536,-5.08072 -10.37137,-5.08072 -4.47336,0 -10.74943,-2.966 -11.74038,-5.54837 -0.90232,-2.35141 1.47537,-4.67441 4.79368,-4.68345 5.25725,-0.0143 12.43874,-2.79327 16.42674,-6.35656 2.24663,-2.00736 3.64357,-4.09095 3.10432,-4.6302 -0.53925,-0.53925 -3.89515,-0.23344 -7.45757,0.67959 -3.62333,0.92863 -6.93964,1.17329 -7.5269,0.5553 -0.57739,-0.6076 -1.18037,-5.70584 -1.33994,-11.32942 -0.38878,-13.70077 -0.18775,-15.97607 1.41148,-15.97607 0.74747,0 5.88729,4.31354 11.42185,9.58564 5.53456,5.27211 10.70295,9.58565 11.48532,9.58565 0.78236,0 3.16132,-0.89919 5.28656,-1.99819 2.38144,-1.2315 5.25652,-1.69236 7.49315,-1.20112 2.89831,0.63658 4.82904,-0.11887 9.58844,-3.7518 3.27765,-2.5019 11.52374,-7.8025 18.32463,-11.77913 20.23508,-11.83186 21.9509,-13.06973 21.9509,-15.83633 0,-1.41799 -0.77943,-2.87725 -1.73207,-3.24281 -2.50303,-0.9605 -14.80807,4.79049 -28.94761,13.52922 -6.75152,4.17266 -14.38925,8.46984 -16.97273,9.5493 -5.56375,2.32467 -5.21283,3.09443 -7.26821,-15.94321 -4.58424,-42.460926 -6.3875,-83.437652 -3.74375,-85.071582 2.24052,-1.384718 7.42963,3.209961 18.49536,16.376647 13.63264,16.220955 38.57884,51.156875 41.95766,58.759645 1.47655,3.32244 3.42976,6.05434 4.34043,6.07091 2.69086,0.0489 30.13502,-10.40297 32.10371,-12.22648 1.53602,-1.42274 1.54346,-1.99201 0.0496,-3.79205 -1.35994,-1.63863 -3.03557,-1.94285 -7.4036,-1.34415 l -5.64582,0.77385 0.83366,-6.28448 c 1.12115,-8.4516 3.30124,-14.382281 5.07228,-13.798498 2.72752,0.899066 8.85806,10.979338 9.64394,15.857238 0.69573,4.31841 1.23656,4.91272 4.78567,5.25884 2.2007,0.21462 7.57775,-0.53654 11.94898,-1.66924 4.37125,-1.1327 8.22154,-1.78562 8.55622,-1.45095 0.33468,0.33468 -0.12143,8.07212 -1.01358,17.19431 -1.49911,15.32843 -1.4509,16.84704 0.63599,20.03205 3.04541,4.64787 12.22115,8.56561 18.90564,8.07209 6.33235,-0.46752 7.78062,-3.05423 2.73154,-4.87875 -9.66241,-3.49156 -13.04055,-5.55031 -13.7508,-8.3802 -1.58507,-6.3154 8.24581,-81.257044 14.15592,-107.911829 4.01815,-18.121981 6.00896,-23.244219 8.6415,-22.234021 2.39399,0.918657 9.30506,11.24426 14.6732,21.922729 6.04947,12.033825 25.7853,58.802676 32.73897,77.583041 l 6.13254,16.56265 -2.75043,4.77898 c -3.22628,5.60579 -3.44747,7.46777 -0.88712,7.46777 3.19937,0 12.19768,-9.53666 12.17414,-12.90249 -0.0118,-1.69047 -2.01513,-7.96227 -4.45181,-13.93732 -2.43667,-5.97505 -4.43998,-11.93315 -4.4518,-13.24021 -0.0224,-2.47944 0.74974,-2.48663 12.30857,-0.11455 3.46701,0.71149 4.41868,0.28965 6.89121,-3.05462 l 2.86868,-3.880105 2.98134,4.073835 c 1.63974,2.24061 3.55692,5.36789 4.26042,6.94953 0.71182,1.60033 2.41524,2.87569 3.84092,2.87569 3.00388,0 5.33827,-4.17969 12.81291,-22.941435 4.76154,-11.951671 10.85336,-24.787071 13.97185,-29.438543 2.1878,-3.263267 6.03439,7.907045 10.76266,31.254299 4.58108,22.620409 6.29304,26.242399 11.16999,23.632329 3.09093,-1.65422 9.77672,-1.55958 10.83538,0.15338 1.26224,2.04234 -5.45216,8.45054 -9.75628,9.31137 -4.23972,0.84794 -4.64743,2.75308 -1.46273,6.83513 2.1979,2.81721 2.23256,2.81948 7.40963,0.48519 7.50432,-3.38362 11.70406,-9.64376 43.38097,-64.663778 6.88009,-11.950105 14.25952,-24.292859 16.39873,-27.428343 l 3.88947,-5.700879 1.69361,4.150569 c 4.11628,10.087862 5.03995,66.568121 1.64074,100.326971 -1.32967,13.20545 -0.2755,17.47867 4.31187,17.47867 3.8409,0 4.61925,-1.96401 4.72667,-11.92683 l 0.085,-7.88351 11.48851,-10.54421 c 6.31868,-5.79931 12.11794,-10.54421 12.88725,-10.54421 2.69607,0 -2.5245,41.03101 -5.61362,44.12012 -0.35554,0.35555 -2.72927,-0.2238 -5.27493,-1.28745 -6.18556,-2.5845 -8.54485,-2.4383 -8.54485,0.5295 0,3.05559 5.03264,7.13109 11.26311,9.12099 6.34626,2.0269 7.26914,3.10508 7.26914,8.49244 0,2.53412 0.65257,4.83073 1.45018,5.10355 0.7976,0.27283 8.56197,-7.12665 17.25416,-16.44329 29.14629,-31.24019 28.29083,-30.52189 29.69365,-24.93263 1.5435,6.14981 -3.46492,48.77941 -7.7221,65.72732 -1.48723,5.92072 -2.77217,8.50327 -4.44891,8.94175 -3.64378,0.95286 -2.8328,3.86057 2.88579,10.34699 9.2595,10.50272 11.70186,18.00575 8.3846,25.75784 -0.45122,1.05442 -0.35159,2.65147 0.22136,3.549 0.82465,1.2918 3.8182,0.95922 14.36504,-1.59596 16.8251,-4.0762 19.07469,-4.11706 19.07469,-0.34646 0,3.48383 -11.81533,27.95319 -14.62249,30.28291 -1.34317,1.11473 -1.99262,1.18617 -1.99262,0.21915 0,-0.78901 -0.69155,-1.43457 -1.53676,-1.43457 -0.84523,0 -3.43446,-1.83932 -5.75388,-4.08739 -2.93413,-2.84386 -4.6237,-3.68081 -5.55353,-2.75097 -1.34774,1.34774 -1.18182,1.95466 5.36355,19.61922 1.56538,4.22462 2.6419,10.34429 2.69794,15.33703 0.15662,13.95167 -4.31078,20.97395 -20.60806,32.39376 -14.74825,10.33436 -23.42106,21.43588 -23.9279,30.62855 -0.38319,6.95021 -10.57476,23.19823 -22.67795,36.15456 -11.21823,12.009 -24.78416,21.6211 -43.03019,30.48897 -6.67748,3.24536 -12.98346,6.74325 -14.01331,7.7731 -1.64454,1.64454 -1.22041,1.87245 3.4846,1.87245 6.46549,0 19.32572,-4.67887 32.05267,-11.66155 8.85295,-4.85719 9.33291,-4.98009 8.49437,-2.17512 -3.14135,10.50801 -14.07721,24.0449 -27.74489,34.34379 -29.101,21.92827 -76.35382,35.63371 -123.09721,35.70372 l -16.65878,0.0249 -6.82967,-6.91557 c -8.36619,-8.47142 -20.30371,-14.26624 -34.95577,-16.96856 -14.656,-2.70304 -14.12944,-2.44432 -13.1244,-6.44871 0.47888,-1.90806 1.35012,-9.23572 1.93607,-16.28369 0.74487,-8.9596 1.95813,-14.73686 4.03316,-19.20491 5.68551,-12.24227 3.21709,-38.98162 -3.59855,-38.98162 -1.82468,0 -1.9875,1.51079 -1.34296,12.46134 0.94553,16.06435 -0.21327,19.51553 -3.45693,10.29552 -2.12344,-6.03581 -7.37246,-17.40385 -13.16328,-28.50825 -4.10387,-7.86955 -9.29074,-11.1452 -9.29074,-5.86737 0,2.40152 -0.08,2.40152 -5.0506,0 -12.12671,-5.85899 -11.88431,-1.62123 0.54614,9.54812 16.71301,15.01743 23.52286,33.82189 22.05321,60.89684 -0.75218,13.85719 -2.88187,20.16347 -7.92536,23.46809 -5.58378,3.65864 -2.19128,5.15912 13.76457,6.08798 8.79042,0.51174 17.54508,1.85715 22.68315,3.48595 15.5496,4.92928 27.9809,16.51666 28.03686,26.13353 0.0248,4.26579 -5.65587,10.53638 -10.68977,11.79981 -2.94666,0.73956 -4.46241,-0.27314 -12.07069,-8.06472 -10.4008,-10.65136 -22.01652,-16.8344 -33.59893,-17.88465 -6.48907,-0.58841 -7.52389,-0.38426 -7.52389,1.48427 0,1.36878 2.23537,3.12087 6.07091,4.75839 13.50555,5.76598 19.74416,9.44472 24.9201,14.69477 10.70356,10.85676 12.75499,19.53966 6.1718,26.12285 -3.20596,3.20596 -4.71418,3.73595 -10.63176,3.73595 -15.60895,0 -31.09471,-7.37167 -45.3119,-21.56977 -5.64176,-5.63419 -11.81813,-10.63561 -13.72524,-11.11427 -6.89233,-1.72987 -6.16298,1.34596 2.8493,12.01593 12.51332,14.81497 14.19843,22.13967 6.35697,27.63204 -3.41181,2.38972 -12.63964,2.45246 -18.94691,0.12882 z m -38.46482,-96.23926 c 0.64675,-1.23016 1.58367,-5.25613 2.08203,-8.9466 0.49838,-3.69047 1.30552,-6.70995 1.79364,-6.70995 0.48813,0 3.05091,2.58812 5.69506,5.75138 5.32428,6.36955 8.5146,7.39916 8.5146,2.74794 0,-3.41144 -6.02828,-12.31786 -10.41878,-15.39308 -6.47483,-4.53515 -10.28193,-1.2013 -12.76876,11.18152 -2.01072,10.0121 1.59339,18.04283 5.10221,11.36879 z m 226.55898,-3.41757 c 10.35815,-1.85296 21.58185,-6.14727 21.58185,-8.25743 0,-2.7548 -3.09213,-2.75152 -16.30136,0.0172 -34.14156,7.15634 -78.96223,1.63589 -106.01518,-13.05763 -5.06326,-2.75006 -9.52058,-5.0001 -9.90517,-5.0001 -0.38458,0 -0.69924,1.14667 -0.69924,2.54816 0,7.57017 33.8024,23.00202 55.98349,25.55822 12.51378,1.44211 42.69697,0.45603 55.35561,-1.80845 z m -269.18981,-17.44055 -0.91746,-11.592 8.55067,5.85401 c 4.70285,3.21971 9.08063,5.52648 9.72838,5.12614 2.52221,-1.55881 0.95735,-5.59101 -3.85826,-9.94164 -14.67527,-13.25821 -22.81522,-10.7862 -21.47912,6.52297 0.85666,11.09796 2.64353,15.62252 6.16978,15.62252 2.64652,0 2.69755,-0.32764 1.80601,-11.592 z m 92.99993,-14.28925 c 0.95722,-2.52734 -2.29413,-13.61276 -5.09158,-17.35964 -3.75332,-5.02716 -9.0087,-4.63719 -12.7724,0.94775 -4.11495,6.10619 -6.3156,13.84406 -4.46387,15.69579 1.95637,1.95637 4.83044,-0.54296 8.18435,-7.1172 2.45815,-4.81834 2.72311,-4.98271 4.3799,-2.7169 0.9699,1.32642 1.76347,2.93189 1.76347,3.56771 0,1.67974 5.09938,8.5801 6.34072,8.5801 0.57987,0 1.32661,-0.71892 1.65941,-1.59761 z m -55.62714,-12.07029 c 0.29833,-0.90486 -1.74164,-2.08694 -5.01138,-2.90388 -9.6183,-2.40311 -9.35431,-1.87141 -9.29873,-18.72852 0.0614,-18.60986 3.64091,-34.99444 7.64527,-34.99444 3.83977,0 21.93084,22.98643 26.19695,33.28574 1.53303,3.70108 1.42284,4.65976 -1.07843,9.38239 -5.17971,9.77981 -2.14201,11.66527 5.38002,3.33929 7.40546,-8.19696 5.97844,-15.14386 -6.9536,-33.8507 -11.17147,-16.16009 -22.4893,-24.89945 -27.85921,-21.5122 -7.06108,4.454 -11.54445,20.59184 -12.59519,45.33613 l -0.74092,17.44839 4.97753,2.65521 c 5.53285,2.95146 18.4242,3.31317 19.33769,0.54259 z m -99.3529,-5.18793 c 0,-1.2324 -1.10828,-6.11618 -2.46284,-10.85285 -1.35457,-4.73666 -2.77445,-11.6365 -3.15529,-15.33295 -0.38085,-3.69647 -1.03937,-10.0279 -1.46338,-14.06985 -0.83426,-7.95261 -3.67225,-10.13926 -5.2096,-4.01396 -1.97318,7.86176 2.61099,34.8577 7.20078,42.40501 2.7394,4.50459 5.09033,5.36573 5.09033,1.8646 z m 334.76419,-0.74132 c 7.29577,-3.50872 4.24476,-4.33276 -18.7087,-5.05308 -17.92968,-0.56265 -25.60921,-1.38891 -36.33519,-3.90936 -15.59388,-3.66432 -29.93756,-9.11467 -40.90815,-15.54436 -10.27318,-6.02095 -13.74251,-5.94478 -9.43356,0.2071 4.52894,6.46596 27.02837,17.4939 45.29899,22.203 5.33312,1.37457 14.58527,3.03498 20.56032,3.68981 12.87559,1.41108 35.14601,0.51347 39.52629,-1.59311 z M 605.856,399.95872 c 3.44094,-1.6793 5.20714,-3.4494 5.49871,-5.51083 0.38313,-2.70884 0.038,-2.96327 -3.19522,-2.35518 -6.80689,1.28019 -20.87892,7.77067 -20.87892,9.63003 0,2.59529 11.97282,1.4583 18.57543,-1.76402 z m -191.11705,-9.25319 c 0,-4.89551 -14.95334,-24.53386 -18.68097,-24.53386 -2.57708,0 -2.22442,1.33247 2.21707,8.37686 10.34786,16.4121 16.4639,22.41414 16.4639,16.157 z m 230.87827,-7.3198 c 5.64544,-3.30845 8.12383,-6.43535 8.12383,-10.24962 0,-1.43248 -0.75946,-1.95162 -2.27523,-1.55523 -3.57444,0.93473 -18.02864,11.66652 -18.10524,13.44257 -0.11511,2.66887 6.39155,1.79946 12.25664,-1.63772 z m -281.31614,-3.52451 c 1.48238,-5.90628 -3.61803,-13.68955 -8.97081,-13.68955 -3.69236,0 -9.60797,6.70272 -9.60797,10.88637 0,4.62936 2.61641,5.27699 5.89941,1.46025 1.60852,-1.87 3.22497,-3.40001 3.5921,-3.40001 0.36714,0 1.55978,1.72541 2.6503,3.83426 2.35654,4.55702 5.41299,4.98849 6.43697,0.90868 z m 58.72774,-22.60752 c 0.42471,-0.6872 -3.19821,-3.79443 -8.05093,-6.90495 -12.80611,-8.20851 -17.32504,-17.02427 -14.15322,-27.61086 2.011,-6.71213 9.5798,-15.33339 19.19244,-21.86122 8.30178,-5.63762 9.29682,-7.5559 3.91938,-7.5559 -5.31469,0 -16.07823,5.84764 -21.20135,11.51831 -7.40144,8.1925 -10.17982,14.81298 -10.21713,24.34584 -0.0519,13.26169 6.62867,22.37745 20.24399,27.62339 4.88666,1.88282 9.26114,2.07259 10.26682,0.44539 z M 207.689,338.02188 c 0,-1.42344 -2.09306,-6.74348 -4.65123,-11.8223 -5.47563,-10.87093 -9.66101,-22.48838 -8.676,-24.08217 1.08012,-1.74767 3.04496,-1.41942 16.9846,2.83749 7.14218,2.18109 13.84219,3.63699 14.88889,3.23532 2.43924,-0.93602 2.41969,-4.7686 -0.0545,-10.69021 -3.37218,-8.07079 -4.56675,-21.11001 -3.11135,-33.96177 1.80534,-15.9418 4.2673,-24.80254 10.93013,-39.33805 3.1029,-6.7692 5.64163,-13.25344 5.64163,-14.40942 0,-6.64813 -9.78053,2.87724 -15.49612,15.09185 -8.43354,18.02307 -12.18244,46.13568 -8.48728,63.64532 1.00134,4.7449 1.44782,8.62708 0.99217,8.62708 -0.45565,0 -3.95233,-0.92959 -7.77039,-2.06575 -8.76306,-2.60768 -18.20643,-2.80959 -21.04949,-0.45007 -3.3524,2.78225 -1.87083,15.12596 3.13896,26.15225 6.93743,15.26892 10.05457,19.8185 13.57866,19.8185 2.30219,0 3.14134,-0.69135 3.14134,-2.58807 z m 149.9225,-9.08558 c 5.58857,-1.81368 11.11635,-6.46498 11.11635,-9.35374 0,-2.70218 -1.92076,-2.49132 -10.86374,1.19265 -13.09626,5.39485 -26.1023,3.9972 -35.36983,-3.80092 -4.17976,-3.51703 -6.16796,-3.23527 -6.16796,0.87415 0,3.38794 7.86573,10.8439 13.17244,12.48619 5.02746,1.55589 21.54078,0.73451 28.11274,-1.39833 z m 83.92718,-6.20406 c 27.0989,-10.47329 48.68236,-16.08225 81.83759,-21.26736 21.03818,-3.29013 73.87582,-3.29734 94.57837,-0.0129 20.26237,3.2146 39.9416,8.37615 58.56048,15.35947 18.95401,7.10904 20.68086,7.28331 20.68086,2.08706 0,-4.83309 -5.44367,-8.48103 -20.68205,-13.85949 -37.68435,-13.30093 -101.53607,-20.05412 -141.63489,-14.97981 -40.91786,5.17793 -85.91197,16.73136 -107.4357,27.58694 -8.05852,4.06435 -10.76703,6.72685 -9.69228,9.52762 1.23535,3.21924 6.51798,2.23289 23.78762,-4.44154 z M 252.4946,316.19066 c 1.0553,-1.97183 1.06732,-4.17437 0.045,-8.23448 -1.66195,-6.60019 -1.79756,-11.67999 -0.33592,-12.58333 0.58285,-0.36023 4.38413,1.09582 8.44729,3.23565 5.32317,2.80342 7.77614,3.50206 8.77807,2.50013 3.11246,-3.11246 -8.3161,-13.39112 -16.62164,-14.94925 -7.08309,-1.3288 -8.46703,1.06309 -8.35141,14.43395 0.10516,12.16094 1.67807,18.28916 4.69423,18.28916 1.04708,0 2.55207,-1.21132 3.3444,-2.69183 z m 126.85014,-4.70395 c 5.18441,-5.7287 8.07209,-19.44403 4.09383,-19.44403 -2.03311,0 -9.59838,15.24982 -9.59838,19.34808 0,3.01691 2.8167,3.06601 5.50455,0.096 z m -92.17742,-15.84885 c 1.09909,-15.27477 3.7531,-25.6699 9.93024,-38.89442 9.07653,-19.43177 20.73545,-33.65008 35.89226,-43.7714 4.35127,-2.90568 8.13345,-5.28304 8.40481,-5.28304 0.27138,0 0.49341,2.21961 0.49341,4.93247 0,3.71102 -1.10492,6.32216 -4.46188,10.54422 -5.55355,6.98475 -6.84608,12.7147 -3.88686,17.23104 2.66053,4.06046 3.72311,3.18561 3.88325,-3.19716 0.0676,-2.69492 1.18214,-6.51641 2.47672,-8.49219 l 2.35379,-3.59235 2.259,2.78976 c 2.93029,3.61873 7.60067,3.73932 7.60067,0.19624 0,-1.42644 -0.91612,-14.51084 -2.03583,-29.07646 -2.58197,-33.58738 -1.65923,-50.12754 2.79651,-50.12754 2.5184,0 18.83666,16.81868 30.60531,31.54388 5.51666,6.90255 13.42815,16.78276 17.58111,21.95602 l 7.55082,9.40592 -2.36772,5.25854 c -1.30224,2.8922 -4.54941,8.02015 -7.2159,11.39543 -7.82328,9.90277 -2.96821,11.29573 6.76681,1.94144 6.38465,-6.13494 8.94511,-11.64181 8.94511,-19.23857 0,-4.93182 -0.97199,-6.78761 -8.62708,-16.47154 -4.7449,-6.00243 -12.36549,-15.72794 -16.93465,-21.61223 -11.80646,-15.2047 -25.51017,-28.82091 -31.8733,-31.66977 -7.41603,-3.32026 -11.50447,-2.11553 -14.77684,4.35423 -2.31312,4.57325 -2.53783,7.36275 -2.36328,29.33742 l 0.1929,24.28364 -9.00716,5.11234 c -17.92176,10.17217 -36.36795,32.36265 -44.55974,53.60467 -7.15634,18.55701 -9.37965,39.76705 -5.02203,47.90935 2.84881,5.32304 4.49832,2.15514 5.39955,-10.36994 z m 116.02389,-15.01393 c 0.72768,-1.35968 1.32305,-7.87792 1.32305,-14.48498 0,-6.60705 0.34733,-12.36016 0.77186,-12.78468 0.42452,-0.42453 4.49826,1.20503 9.05275,3.62124 4.55448,2.41621 9.09583,4.3931 10.09187,4.3931 3.43604,0 1.7976,-4.93728 -2.93225,-8.83601 -9.12587,-7.52231 -18.65732,-10.00602 -22.16757,-5.77644 -1.84399,2.22187 -3.36317,27.55538 -1.98234,33.05702 0.97393,3.88045 3.97676,4.29713 5.84263,0.81075 z m -18.74915,-3.25447 c -0.42327,-5.70626 -6.43201,-10.69923 -8.61846,-7.1615 -1.75937,2.84674 4.4809,12.25871 7.43106,11.20798 0.79709,-0.28389 1.33142,-2.10481 1.1874,-4.04648 z m 170.76906,-4.27888 c 2.03106,-3.79509 -2.7094,-10.44388 -7.4463,-10.44388 -9.02427,0 -4.55682,12.21982 4.64294,12.69984 0.85396,0.0446 2.11547,-0.97063 2.80336,-2.25596 z m 33.88481,-0.36748 c 4.40589,-3.46568 4.21742,-9.21648 -0.32315,-9.85959 -5.38541,-0.76276 -10.99095,6.90163 -7.83173,10.70826 2.1081,2.5401 4.11185,2.33158 8.15488,-0.84867 z m -90.96966,-5.43016 c 14.01382,-6.01093 22.04167,-18.03772 21.81227,-32.67771 -0.15835,-10.10464 -2.62151,-16.29088 -9.42566,-23.67252 -6.6246,-7.18683 -15.73081,-11.10148 -25.96144,-11.16051 -13.38209,-0.0772 -24.26711,6.39017 -30.8961,18.357 -3.30081,5.95872 -3.76628,8.07415 -3.7469,17.02865 0.0257,11.8546 2.33733,17.37701 10.63457,25.40517 9.40283,9.09787 25.37939,11.95449 37.58326,6.71992 z m 158.17096,-1.50127 c 12.03934,-6.0844 18.42212,-17.18769 18.339,-31.90191 -0.1127,-19.95096 -14.62328,-34.39781 -34.4026,-34.25151 -13.208,0.0977 -23.90115,6.71191 -30.30106,18.74264 -2.25585,4.24061 -2.81402,7.42964 -2.82632,16.14791 -0.0135,9.52846 0.41066,11.58837 3.45055,16.75936 10.0417,17.08137 28.84318,23.04301 45.74043,14.50351 z m -392.37245,-6.14382 c 0,-0.94642 -0.84049,-3.40559 -1.86776,-5.4648 -3.80792,-7.63316 -8.10269,-44.60356 -5.48664,-47.23031 1.59829,-1.60482 6.17079,1.28044 18.85718,11.89888 11.06163,9.25853 16.4923,13.12101 18.44823,13.12101 0.39769,0 0.72306,-1.46523 0.72306,-3.25608 0,-3.59622 -6.49776,-10.6593 -20.44938,-22.22851 -4.56915,-3.78891 -8.30756,-7.51305 -8.30756,-8.27586 0,-2.08186 11.82814,-7.53277 19.81034,-9.12946 5.59301,-1.11877 7.02947,-1.90781 7.02947,-3.86125 0,-6.14305 -19.11371,-2.51655 -28.93822,5.49053 -3.26297,2.65935 -7.67939,5.79144 -9.81427,6.96021 -4.49379,2.46019 -6.63019,8.42796 -6.55995,18.32435 0.0746,10.51963 4.53274,41.28836 6.28884,43.40435 2.05225,2.4728 10.26666,2.67037 10.26666,0.24694 z m 114.36167,-13.8365 c 5.3637,-2.44386 2.97534,-4.1991 -6.93028,-5.09316 -9.57941,-0.86462 -20.52153,-4.22118 -20.52153,-6.2951 0,-2.01642 -5.15207,-1.27793 -5.97087,0.85586 -1.05721,2.75503 4.31078,7.91149 10.55055,10.13481 6.17038,2.19861 18.45082,2.41207 22.87213,0.39759 z m 198.76944,-19.05144 c 24.58314,-11.11494 27.31864,-42.64201 5.00046,-57.63107 -25.49147,-17.12027 -57.32802,8.44195 -48.25018,38.74108 5.01386,16.73481 26.88693,26.28821 43.24972,18.88999 z M 426.2638,191.68632 c 0.88723,-1.06905 2.11497,-7.40267 2.7283,-14.07472 1.15815,-12.59895 4.61884,-25.51935 6.83527,-25.51935 0.70295,0 5.13415,5.13415 9.84712,11.40922 10.36455,13.79986 13.10791,16.64666 14.94664,15.51026 2.86139,-1.76843 1.24058,-7.14382 -4.94062,-16.38548 -11.62468,-17.38035 -21.71237,-23.98267 -27.26632,-17.84561 -4.68356,5.17526 -10.34948,39.43837 -7.54102,45.60226 1.69694,3.72439 3.09987,4.06361 5.39063,1.30342 z m -116.85144,-7.80813 0.82219,-4.38268 4.23869,3.23301 c 2.33128,1.77815 4.85221,3.23301 5.60206,3.23301 2.68497,0 1.29225,-5.10439 -2.60329,-9.54117 -4.31291,-4.91213 -9.79081,-6.04393 -12.6395,-2.61146 -1.76691,2.129 -2.3145,13.29046 -0.7743,15.78255 1.53755,2.48781 4.38578,-0.55147 5.35415,-5.71326 z m 173.64553,2.14817 c 2.23324,-2.46771 2.28857,-2.46629 5.82797,0.15052 6.72558,4.97243 8.79495,-0.54572 2.54751,-6.79316 -2.91093,-2.91093 -4.51444,-3.6159 -6.70995,-2.95 -3.94535,1.19662 -8.63634,5.68292 -8.63634,8.2595 0,4.43687 3.54792,5.11539 6.97081,1.33314 z m 152.49967,0.99231 c 1.14666,-1.14666 2.27242,-1.14666 4.78906,0 4.65469,2.12082 7.004,1.86161 7.004,-0.77275 0,-7.64303 -9.73815,-10.71743 -15.27594,-4.82272 -4.35785,4.63871 -0.98272,10.06107 3.48288,5.59547 z M 263.06223,180.7848 c 1.23986,-3.28477 2.06073,-3.83819 5.21334,-3.51474 4.93911,0.50676 5.57721,-1.9461 1.5531,-5.97021 -4.45944,-4.45945 -10.62156,-4.43601 -12.32595,0.0469 -1.42515,3.74844 -1.66111,11.21792 -0.39439,12.48464 1.94877,1.94879 4.57574,0.60458 5.9539,-3.04658 z m 261.61556,-6.99916 c 6.05563,-8.80155 13.82612,-15.66421 22.68078,-20.03098 19.6271,-9.67931 40.72068,-2.05666 52.87203,19.10649 6.85659,11.94162 10.61088,6.37484 4.21411,-6.24858 -4.26289,-8.4124 -12.83559,-16.65704 -21.99839,-21.15654 -6.36468,-3.12546 -8.79175,-3.58847 -18.81034,-3.58847 -9.82228,0 -12.57692,0.50337 -18.85514,3.44558 -13.10728,6.14251 -27.73215,22.99871 -27.78252,32.02131 -0.0225,4.03181 3.62292,2.34719 7.67947,-3.54881 z m -37.9227,-17.84598 c 1.04718,-1.0472 2.27551,-3.59558 2.72961,-5.66309 1.54105,-7.01631 3.85663,-7.24208 8.28363,-0.80767 3.97283,5.77432 8.99282,7.92926 8.99282,3.86038 0,-6.47943 -8.73084,-18.49119 -13.44047,-18.49119 -5.55296,0 -15.10083,15.44996 -12.97362,20.99339 0.97331,2.53638 3.92991,2.5863 6.40803,0.10818 z m 35.65087,-31.94948 c 1.58808,-2.45162 3.26198,-4.4646 3.71975,-4.47331 0.45779,-0.009 2.04683,2.04262 3.53124,4.55849 3.10843,5.26841 5.66821,5.18729 6.29763,-0.19957 0.55948,-4.78827 -2.95412,-11.32422 -7.10421,-13.21513 -4.37614,-1.9939 -8.54165,0.80346 -12.09869,8.12491 -4.54121,9.34718 0.16481,13.67895 5.65428,5.20461 z"
     id="path48"
     transform="scale(0.75)" />
  <path
     style="fill:#ffffff;stroke-width:0.486587"
     d="m 477.87755,262.71122 c -7.59123,-1.83681 -15.28304,-7.91958 -18.73457,-14.81552 -2.43504,-4.86507 -3.15826,-8.34103 -2.83052,-13.6041 0.96742,-15.5356 13.70155,-28.22205 28.3281,-28.22205 12.08286,0 23.57726,8.4195 27.21485,19.93452 2.4545,7.76986 2.0017,14.27335 -1.4917,21.42537 -2.20079,4.50567 -7.7032,10.16718 -12.18925,12.54167 -6.09161,3.22435 -13.92506,4.28187 -20.29691,2.74011 z m 12.96798,-13.0565 c 3.93565,-1.40449 8.02574,-5.85567 9.18637,-9.99738 1.90254,-6.7892 -0.85601,-13.46298 -6.94478,-16.8015 -2.25277,-1.23522 -3.10401,-1.42583 -6.25692,-1.40105 -2.56696,0.0202 -4.29887,0.32056 -5.83904,1.01273 -2.63089,1.18234 -6.02726,4.46941 -7.41516,7.17653 -1.26874,2.4747 -1.71234,8.12839 -0.8462,10.78493 1.35342,4.15104 4.86262,7.71037 9.08758,9.21738 2.36243,0.84267 6.67908,0.84666 9.02815,0.008 z"
     id="path49"
     transform="scale(0.75)" />
  <path
     style="fill:#ffffff;stroke-width:0.486587"
     d="m 557.92654,222.33102 c -4.13453,-1.11191 -8.29393,-3.58788 -11.78675,-7.01631 -7.26091,-7.12706 -9.46802,-16.76656 -6.09188,-26.60617 3.9519,-11.51768 12.77486,-18.16957 24.07922,-18.15405 14.647,0.0201 25.30245,9.82681 26.22124,24.13261 0.81739,12.72701 -6.96408,24.15467 -18.81872,27.63671 -3.27937,0.96324 -10.0349,0.96682 -13.60311,0.007 z m 14.76751,-12.08877 c 3.76989,-2.2093 7.07425,-8.05265 7.07425,-12.50993 0,-6.7446 -6.96939,-13.55918 -13.86723,-13.55918 -5.02665,0 -9.78683,3.17879 -11.9752,7.99688 -1.3505,2.97337 -1.24204,8.56466 0.22735,11.72009 1.72643,3.70741 4.66607,6.30847 8.58139,7.59298 2.44677,0.80273 7.55925,0.16577 9.95944,-1.24084 z"
     id="path50"
     transform="scale(0.75)" />
  <path
     style="fill:#ffffff;stroke-width:0.527171"
     d="m 634.25724,261.95835 c -14.42231,-3.49089 -24.45942,-20.12696 -20.68826,-34.28991 3.60331,-13.53261 18.80494,-23.73291 31.80077,-21.33833 9.96533,1.83618 18.97197,10.35452 22.07749,20.88054 2.78269,9.43178 -0.54858,21.23293 -8.01269,28.38526 -6.34375,6.07878 -16.13102,8.55207 -25.17731,6.36244 z m 13.67442,-13.33126 c 7.46517,-3.53166 10.0781,-11.60704 6.27249,-19.38542 -2.21809,-4.53362 -6.4344,-7.16886 -12.63619,-7.89776 -3.5055,-0.412 -5.69909,0.5869 -8.97151,4.08537 -3.21362,3.43562 -4.64571,6.72802 -4.67298,10.74327 -0.0284,4.18538 0.93282,6.78887 3.56519,9.65609 2.8724,3.12868 5.51722,4.28795 9.81471,4.30195 2.6949,0.009 4.11029,-0.31228 6.62829,-1.5035 z"
     id="path51"
     transform="scale(0.75)" />
  <path
     style="fill:#ffffff;stroke-width:0.240907"
     d="m 648.02867,536.37576 c -7.95046,-1.00077 -12.6194,-5.98649 -12.62921,-13.48609 -0.0102,-7.79525 4.91713,-17.09635 12.89674,-24.34464 3.97905,-3.61437 7.06001,-5.65443 13.12561,-8.69116 6.03434,-3.02107 7.77412,-4.73465 6.22831,-6.13455 -0.39775,-0.3602 -0.95854,-0.4767 -2.60684,-0.54152 -3.41003,-0.1341 -8.2601,1.20555 -12.46719,3.4436 -7.11111,3.7829 -15.21127,11.10803 -19.80466,17.90974 -2.08214,3.08315 -3.02889,5.5396 -3.7424,9.7101 -0.61877,3.61675 -9.7884,6.36171 -18.45818,5.52553 -8.65087,-0.83435 -12.40189,-3.57651 -12.70965,-9.29132 -0.25548,-4.74415 2.38882,-9.84576 7.80381,-15.05577 5.54375,-5.33389 12.2813,-9.08556 21.2637,-11.84026 6.83548,-2.09629 7.35927,-2.53547 8.94066,-7.49639 1.33022,-4.17296 2.40328,-6.71108 4.16462,-9.8506 2.88962,-5.15061 6.08232,-8.90001 13.22176,-15.52716 4.88914,-4.53833 6.46936,-6.29469 6.46936,-7.19047 0,-0.72451 -0.38718,-0.849 -2.60946,-0.83903 -1.43804,0.006 -2.22094,0.15608 -3.53368,0.67533 -4.16364,1.64692 -8.71871,4.99623 -13.7524,10.11208 -4.03191,4.0977 -4.68704,4.61848 -5.81285,4.62079 -1.06896,0.002 -1.37262,-0.64396 -1.19525,-2.54337 0.22696,-2.43049 1.28434,-5.15418 4.55347,-11.72925 3.29342,-6.62393 5.28693,-10.99762 7.21941,-15.83922 2.89554,-7.25439 5.36982,-11.26174 11.37903,-18.42943 10.46516,-12.48266 18.66626,-26.45215 22.91942,-39.04017 2.39266,-7.08149 4.20215,-10.78428 7.21575,-14.7657 2.58468,-3.41473 4.77022,-5.3617 7.65124,-6.81604 2.86733,-1.44742 7.06597,-2.06122 9.37251,-1.37016 1.34019,0.40153 2.36523,1.64334 2.36523,2.86541 0,0.52964 -0.17388,1.36603 -0.38641,1.85865 -0.51378,1.19087 -0.5078,3.67801 0.0132,5.47291 0.96758,3.33368 3.5984,7.82719 6.91359,11.8086 3.9497,4.74344 8.37696,7.80449 11.30971,7.81964 1.43409,0.007 1.98467,-0.55467 1.98467,-2.02611 0,-1.2399 -0.53862,-2.18281 -1.57038,-2.74916 -1.46766,-0.80561 -3.01473,-2.2188 -4.96178,-4.53239 -3.75646,-4.46361 -6.55715,-8.74789 -6.55715,-10.03061 0,-0.83764 2.46799,-3.08487 7.58859,-6.9098 12.22157,-9.12913 29.99519,-20.24136 32.37535,-20.24136 0.68956,0 0.83482,1.06174 0.68646,5.01738 -0.13852,3.69299 -0.80524,7.59098 -2.46962,14.43864 -2.95326,12.15039 -7.84075,26.68325 -9.8673,29.34018 -0.35083,0.45996 -1.00133,0.98815 -1.44555,1.17376 -1.93028,0.80652 -2.33259,2.10721 -1.0306,3.33198 1.59076,1.49642 4.63651,2.45803 6.51121,2.05574 1.10513,-0.23716 1.99254,0.15842 2.93242,1.30715 0.35623,0.43539 0.80171,0.98132 0.98997,1.21319 0.74251,0.91452 2.37204,0.52203 8.72892,-2.10246 3.32089,-1.37106 4.14596,-1.53628 4.7342,-0.94804 0.56975,0.56975 0.42201,2.02762 -0.86453,8.53115 -1.12539,5.68887 -1.24036,7.84481 -0.49556,9.29229 0.2678,0.52045 1.13891,1.846 1.93579,2.94566 2.71754,3.7501 4.76234,8.45645 5.47938,12.61147 0.47812,2.77058 0.21126,4.42276 -0.94312,5.8389 -1.07218,1.31531 -1.36455,1.90337 -1.36455,2.74464 0,2.1446 3.65551,2.37276 10.59993,0.66161 1.92124,-0.47341 4.25202,-0.9253 5.17951,-1.0042 1.51485,-0.12888 1.73309,-0.0915 2.14588,0.36772 0.4126,0.45899 0.42875,0.61566 0.15812,1.53438 -0.4425,1.50226 -1.83027,3.92024 -5.03664,8.7756 -5.91327,8.95439 -6.39217,10.18882 -7.13588,18.39363 -0.42812,4.72327 -0.88133,7.81611 -1.58746,10.83326 -2.5481,10.88762 -8.1302,18.05137 -15.92617,20.43874 -1.89364,0.57989 -3.03519,0.71199 -8.57191,0.99191 -4.52552,0.2288 -5.96384,0.60889 -5.96384,1.57602 0,0.68867 1.83843,1.83934 4.63563,2.90143 4.11534,1.56258 6.38929,2.5671 8.55337,3.77844 7.49848,4.19728 12.96247,10.62724 14.65532,17.24623 0.58241,2.2772 0.61904,5.92764 0.078,7.76973 -2.87817,9.79879 -15.46053,12.63411 -30.26717,6.82043 -5.03757,-1.97794 -11.24643,-5.43966 -15.84363,-8.83351 -5.47194,-4.03963 -9.37498,-7.96182 -12.69824,-12.76057 -3.187,-4.60198 -5.47265,-6.68362 -7.3387,-6.68362 -0.708,0 -0.99961,0.13539 -1.30915,0.6078 -0.61178,0.93369 -0.33468,3.54517 0.71757,6.76279 0.48076,1.47008 0.8741,2.84979 0.8741,3.06601 0,0.66735 -1.01903,1.11125 -3.94286,1.71756 -7.24058,1.50146 -10.79288,3.44648 -18.55512,10.15961 -9.46434,8.18519 -12.24019,10.14365 -17.05819,12.03516 -3.34111,1.3117 -10.04456,2.04677 -14.05817,1.54156 z m 84.68349,-73.62281 c 0.41347,-0.34791 0.96184,-1.04435 1.2186,-1.54764 1.58022,-3.09749 1.60974,-13.03088 0.0439,-14.76115 -1.65877,-1.83292 -5.60659,-1.40229 -9.13825,0.9968 -2.90698,1.97474 -6.07909,5.98142 -6.08657,7.68793 -10e-4,0.30206 0.24989,0.70176 0.57492,0.91473 0.52865,0.34639 0.68589,0.34117 1.86703,-0.062 0.70937,-0.24211 2.29235,-1.11715 3.51775,-1.94453 1.2254,-0.82738 2.55328,-1.56938 2.95085,-1.6489 0.64927,-0.12985 0.75649,-0.0618 1.05324,0.66844 0.18419,0.45327 0.40173,2.25205 0.49165,4.06526 0.23605,4.76025 0.72963,6.26359 2.05646,6.26359 0.40272,0 1.01714,-0.26796 1.45046,-0.63257 z m 19.60309,-26.32135 c 0.94146,-0.62072 2.22692,-2.49174 2.70893,-3.94293 0.91046,-2.74113 -0.0801,-6.12775 -2.2892,-7.82695 -1.33573,-1.02739 -3.33317,-1.60624 -4.80079,-1.39124 -2.30804,0.33811 -4.47702,1.6826 -5.62062,3.48405 -0.89134,1.40406 -0.89715,2.45626 -0.0174,3.15202 0.87356,0.69087 2.25772,0.5367 4.46202,-0.49699 1.23791,-0.58051 1.70936,-0.70029 1.95477,-0.49662 0.20989,0.17419 0.38275,1.15437 0.49248,2.79239 0.19838,2.96148 0.41735,3.85049 1.13714,4.61668 0.63915,0.68034 1.07065,0.70431 1.97269,0.10959 z m -23.59783,-13.04775 c 2.51129,-2.9845 2.60619,-15.74385 0.16503,-22.1892 -1.27011,-3.35345 -4.17473,-5.54745 -6.7623,-5.10791 -2.6038,0.4423 -6.22664,3.26673 -11.11957,8.66902 -5.61621,6.20085 -7.55008,9.48315 -6.92376,11.75147 0.32913,1.19203 1.24254,1.86565 2.11661,1.56094 1.17378,-0.40918 4.35486,-3.17142 8.51676,-7.39539 4.19847,-4.26109 5.84348,-5.58686 6.93211,-5.58686 1.53912,0 1.91447,1.36515 2.1793,7.92616 0.23881,5.91656 0.48703,7.8086 1.22845,9.36372 0.86154,1.80708 2.59427,2.28335 3.66737,1.00805 z m -25.0439,-36.98547 c 0.4824,-0.4824 0.48459,-1.83805 0.007,-4.58871 -1.5752,-9.08017 -4.56977,-10.46599 -10.34942,-4.78948 -2.11713,2.07936 -3.25206,4.00185 -3.25206,5.50875 0,0.8939 0.50481,1.59803 1.14568,1.59803 0.71326,0 2.3315,-0.94868 3.90092,-2.28689 0.8544,-0.72852 1.76914,-1.39304 2.03276,-1.47671 0.62367,-0.19795 1.28845,0.60725 1.48056,1.7933 0.47074,2.90614 1.87637,4.42438 4.25119,4.59178 0.22241,0.0157 0.57474,-0.14186 0.78295,-0.35007 z"
     id="path52"
     transform="scale(0.75)" />
  <path
     style="fill:#ffffff;stroke-width:0.827845"
     d="m 116.18186,532.45405 c -7.28249,-3.06646 -11.22954,-5.65989 -19.9584,-13.11377 -15.364019,-13.11987 -17.15579,-14.48836 -20.258138,-15.47254 -1.713219,-0.5435 -9.447959,-1.34941 -17.188311,-1.79091 -22.21298,-1.26701 -25.266292,-2.06015 -26.891802,-6.98549 -0.897928,-2.72074 -0.777154,-3.46501 1.227,-7.56135 2.465782,-5.03988 4.852845,-7.0079 9.386117,-7.73843 2.547288,-0.41048 3.075288,-0.85361 3.296148,-2.76631 0.144642,-1.25264 -0.863339,-5.19819 -2.239958,-8.76788 -2.464695,-6.39116 -6.070638,-18.41636 -5.648899,-18.8381 0.118768,-0.11877 2.517159,0.92465 5.329756,2.3187 5.512421,2.73221 9.356208,2.74988 9.30647,0.0428 -0.03958,-2.15401 -1.320849,-3.42568 -9.95806,-9.88334 -9.354368,-6.99385 -23.533084,-20.20007 -25.247929,-23.51622 -1.132304,-2.18963 -1.089901,-2.41534 0.661272,-3.51989 2.412393,-1.52162 9.055816,-2.08456 27.82796,-2.35807 l 15.194813,-0.22138 1.664558,3.30392 c 3.092091,6.13735 6.47294,8.64069 7.622783,5.64424 0.894981,-2.33228 -1.180305,-10.07563 -3.410797,-12.72642 -3.602876,-4.28177 -5.798794,-4.92906 -16.72184,-4.92906 -6.250932,0 -10.13221,-0.33301 -10.482241,-0.89938 -0.305715,-0.49465 0.647673,-2.14108 2.11864,-3.65873 l 2.674484,-2.75938 -2.581419,-6.76005 c -1.419781,-3.71802 -2.581419,-7.58916 -2.581419,-8.60253 0,-1.77989 0.27419,-1.84192 8.071491,-1.82599 6.173986,0.0126 8.80803,-0.34144 11.204535,-1.50607 5.575564,-2.70957 5.885762,-6.33272 0.632139,-7.38344 -1.915331,-0.38307 -3.44098,-2.0509 -7.474678,-8.17126 -10.033478,-15.22389 -24.993191,-48.31759 -25.180933,-55.70498 -0.075,-2.95107 0.143275,-3.33793 2.006004,-3.55534 5.409252,-0.63136 53.285949,19.46847 61.749628,25.92403 4.607519,3.51433 6.940979,2.51181 6.940979,-2.98203 0,-6.26713 9.986427,-10.19027 25.663197,-10.08172 17.77499,0.12307 28.64919,4.79239 41.86357,17.97599 7.5882,7.57053 8.75732,9.17027 13.03521,17.83664 7.33348,14.85652 10.31422,29.469 9.3722,45.94541 -1.92354,33.64358 -19.95386,61.56714 -45.17022,69.95513 -4.84198,1.61064 -13.46745,2.90908 -23.23998,3.49843 -3.09565,0.18669 -3.7253,0.5039 -3.7253,1.87674 0,2.48354 5.06856,3.79792 16.5569,4.29351 18.63513,0.8039 32.77635,6.0916 42.68707,15.96159 6.07909,6.05411 9.13222,11.56859 9.70491,17.52875 1.3082,13.6147 -11.1906,15.2628 -29.24294,3.856 -1.8381,-1.16146 -5.63505,-3.26926 -8.43766,-4.68401 -2.80261,-1.41476 -7.08535,-4.57794 -9.51721,-7.02929 -2.43185,-2.45136 -6.02068,-5.27283 -7.97518,-6.26995 -3.61862,-1.84607 -7.61222,-2.03683 -8.15209,-0.38936 -0.16433,0.50149 2.35458,4.04053 5.59758,7.86453 7.14094,8.42027 10.02665,13.76671 10.02665,18.57669 0,4.38315 -0.99608,6.30994 -4.73715,9.16339 -4.11585,3.1393 -9.3353,3.43967 -15.39951,0.88619 z M 89.318713,457.7307 c 0.276371,-0.72021 0.502493,-2.95539 0.502493,-4.96707 0,-2.01168 0.359593,-3.6576 0.799096,-3.6576 0.439502,0 2.561353,1.11759 4.715224,2.48354 4.4798,2.841 6.903354,3.1881 6.903354,0.98868 0,-3.87895 -8.870614,-11.75067 -13.241788,-11.75067 -3.681255,0 -5.074283,2.38128 -5.074283,8.67411 0,3.65575 0.445175,6.21137 1.312593,7.53521 1.503174,2.29414 3.348864,2.60774 4.083311,0.6938 z m -6.149395,-52.44604 c 0.471334,-0.8807 0.856972,-4.43101 0.856972,-7.88958 v -6.28832 l 5.477246,3.75036 c 6.124762,4.19371 8.596122,4.74922 8.596122,1.9322 0,-4.88889 -8.412056,-12.40583 -14.048511,-12.55363 -5.358831,-0.14051 -6.234105,1.3884 -6.231437,10.88492 0.0023,8.21416 1.001108,11.76532 3.309121,11.76532 0.650933,0 1.569152,-0.72058 2.040487,-1.60127 z m 39.983432,-33.39893 c 0.70405,-1.0745 2.37358,-4.53553 3.71009,-7.69119 1.37073,-3.23646 2.93885,-5.73756 3.59729,-5.73756 0.64199,0 2.85962,3.26232 4.92808,7.24959 4.32173,8.33086 5.86644,10.17498 7.8768,9.40353 1.1969,-0.4593 1.33457,-1.25355 0.88308,-5.09498 -1.79742,-15.29328 -12.74082,-26.05295 -18.96931,-18.65082 -2.32425,2.76221 -6.79441,13.04922 -7.63083,17.56054 -0.73288,3.95286 0.69867,6.85512 2.82105,5.71926 0.82704,-0.44261 2.07972,-1.68388 2.78375,-2.75837 z M 95.237817,359.28482 c 0.728,-2.50423 1.498552,-4.55314 1.712338,-4.55314 0.213786,0 1.464316,0.79523 2.778959,1.76719 4.425976,3.27227 6.464996,0.39556 3.323036,-4.68824 -3.561736,-5.76301 -8.900779,-7.07268 -11.488175,-2.81805 -3.293177,5.4152 -2.850328,14.84539 0.697151,14.84539 1.291365,0 1.942667,-0.99623 2.976691,-4.55315 z"
     id="path53"
     transform="scale(0.75)" />
  <path
     style="fill:#ffffff;stroke-width:0.546527"
     d="m 248.39661,505.74486 c -15.845,-2.55552 -29.90238,-5.64047 -40.44554,-8.87593 l -4.648,-1.42637 -1.21601,-4.70393 c -1.52356,-5.8936 -3.70003,-9.72581 -8.29358,-14.60287 -5.10206,-5.41696 -9.75883,-8.77952 -16.99193,-12.26953 -3.45679,-1.66792 -6.39397,-3.12552 -6.52708,-3.23912 -0.36708,-0.31328 6.13184,-6.73628 6.8159,-6.73628 0.32796,0 1.90494,1.11704 3.50439,2.4823 6.30489,5.38176 12.30103,8.5995 21.89618,11.75027 7.90007,2.59414 13.35921,3.64221 21.50953,4.12949 l 6.37617,0.3812 4.18454,7.41335 c 4.98691,8.83485 8.72354,14.43125 14.19137,21.25462 2.22809,2.78046 3.73582,5.02663 3.35051,4.99149 -0.3853,-0.0351 -2.05321,-0.28205 -3.70645,-0.54869 z"
     id="path54"
     transform="scale(0.75)" />
  <path
     style="fill:#ffffff;stroke-width:0.166445"
     d="m 191.49711,502.1221 c -0.0917,-0.16021 -0.61205,-1.193 -1.15625,-2.2951 -3.11555,-6.30949 -9.88045,-13.38057 -17.98736,-18.80147 -4.72037,-3.1564 -7.77419,-4.6273 -13.98135,-6.73426 -1.96821,-0.66809 -3.62822,-1.26131 -3.6889,-1.31827 -0.13631,-0.12793 3.36322,-2.83725 4.65665,-3.60515 2.26773,-1.34634 4.41268,-1.38945 8.48503,-0.17054 9.73081,2.91256 17.29692,7.76696 22.37014,14.35263 3.85955,5.01018 5.18404,10.42616 3.79181,15.50511 -0.70851,2.58471 -1.91494,4.07086 -2.48977,3.06705 z"
     id="path55"
     transform="scale(0.75)" />
  <path
     style="fill:#ffffff;stroke-width:0.215453"
     d="m 96.040451,304.05824 c -0.709603,-0.76453 -1.175256,-2.76563 -1.209175,-5.19632 -0.03442,-2.46669 0.233254,-3.28715 1.22798,-3.76391 0.536552,-0.25717 0.781555,-0.2364 2.044842,0.17332 0.789388,0.25603 2.416002,1.01682 3.614702,1.69066 l 2.17945,1.22515 -2.19427,2.47771 c -3.355292,3.78871 -4.60283,4.5362 -5.663529,3.39339 z"
     id="path57"
     transform="scale(0.75)" />
  <path
     style="fill:#ffffff;stroke-width:0.117352"
     d="m 90.771941,315.77323 c 0,-0.0442 0.330053,-0.68883 0.733452,-1.43263 1.197309,-2.20763 2.362209,-3.26652 3.960067,-3.59969 0.985431,-0.20546 1.373217,-0.39085 2.603278,-1.24451 1.638022,-1.13678 3.411042,-2.69398 5.787972,-5.08344 2.87718,-2.89233 5.14135,-5.05034 6.18653,-5.89646 l 0.78832,-0.63818 1.8521,-0.21331 c 2.05923,-0.23716 2.29963,-0.30349 2.75588,-0.7604 0.41685,-0.41745 0.60306,-1.01356 0.53567,-1.71483 -0.0698,-0.72665 0.088,-0.63258 0.32888,0.19605 0.24275,0.83503 0.13819,1.46607 -0.33157,2.0011 -0.50351,0.57346 -1.11913,0.85196 -2.1715,0.98235 -1.13999,0.14124 -2.05404,0.59084 -3.93326,1.9347 -2.18506,1.56256 -4.63821,3.67648 -7.2859,6.27838 -3.039613,2.98704 -4.26163,4.4597 -3.700679,4.4597 0.07111,0 1.140479,-0.31454 2.376379,-0.69896 1.2359,-0.38443 3.69933,-1.12731 5.47428,-1.65083 5.59212,-1.64942 6.78499,-2.132 8.3561,-3.38051 1.37931,-1.09609 2.29766,-2.31673 4.95928,-6.59169 1.66812,-2.67926 2.43262,-3.8101 3.57008,-5.28085 0.96514,-1.24794 2.80515,-3.28586 2.96675,-3.28586 0.0667,0 -0.14526,0.29158 -0.47097,0.64795 -2.31459,2.53253 -7.33545,10.51697 -8.83405,14.04837 -0.37694,0.88825 -0.40132,0.91589 -1.15344,1.30755 -1.07679,0.56072 -3.34528,1.35877 -5.88267,2.0695 -4.3565,1.22028 -6.33744,1.84484 -9.20266,2.90144 -2.428625,0.89561 -4.358676,1.76515 -7.46173,3.36171 -1.457659,0.74999 -2.685457,1.36362 -2.728439,1.36362 -0.04298,0 -0.07815,-0.0361 -0.07815,-0.0803 z"
     id="path58"
     transform="scale(0.75)" />
  <path
     style="fill:#ffffff;stroke-width:0.225193"
     d="m 711.70362,237.07193 c -0.37649,-0.58831 -1.10874,-1.9817 -1.62723,-3.0964 -2.33482,-5.01962 -4.11181,-8.44713 -5.65725,-10.91186 -1.93341,-3.08349 -2.40811,-4.30816 -2.40811,-6.21268 0,-2.51538 1.15958,-4.65609 4.06421,-7.50299 3.00388,-2.94418 9.32809,-7.35724 10.91169,-7.61422 0.7763,-0.12597 0.83133,-0.0914 1.18158,0.74169 0.56391,1.34136 0.29505,6.2516 -0.67671,12.35865 -1.90586,11.97747 -4.28269,23.30748 -4.88949,23.30748 -0.11779,0 -0.5222,-0.48135 -0.89869,-1.06967 z"
     id="path59"
     transform="scale(0.75)" />
</svg>
