<?xml version="1.0" encoding="UTF-8" standalone="no"?>
<svg
   version="1.0"
   width="600.000000pt"
   height="447.000000pt"
   viewBox="0 0 600.000000 447.000000"
   preserveAspectRatio="xMidYMid meet"
   id="svg8"
   sodipodi:docname="NgN9BTg01.svg"
   inkscape:version="1.4.3 (0d15f75, 2025-12-25)"
   xmlns:inkscape="http://www.inkscape.org/namespaces/inkscape"
   xmlns:sodipodi="http://sodipodi.sourceforge.net/DTD/sodipodi-0.dtd"
   xmlns="http://www.w3.org/2000/svg"
   xmlns:svg="http://www.w3.org/2000/svg">
  <defs
     id="defs8" />
  <sodipodi:namedview
     id="namedview8"
     pagecolor="#505050"
     bordercolor="#ffffff"
     borderopacity="1"
     inkscape:showpageshadow="0"
     inkscape:pageopacity="0"
     inkscape:pagecheckerboard="1"
     inkscape:deskcolor="#505050"
     inkscape:document-units="pt"
     inkscape:zoom="0.89767795"
     inkscape:cx="382.09694"
     inkscape:cy="323.61272"
     inkscape:window-width="1920"
     inkscape:window-height="1022"
     inkscape:window-x="0"
     inkscape:window-y="30"
     inkscape:window-maximized="1"
     inkscape:current-layer="svg8" />
  <g
     transform="translate(0.000000,447.000000) scale(0.050000,-0.050000)"
     fill="#000000"
     stroke="none"
     id="g8">
    <path
       d="M6244 8830 c-38 -31 -68 -83 -82 -141 -28 -111 -182 -1171 -182 -1253 0 -67 -78 -156 -136 -156 -21 0 -152 76 -291 169 -350 235 -468 258 -545 107 -18 -36 -36 -70 -40 -74 -4 -4 -58 36 -120 90 -802 693 -925 769 -1043 643 -83 -89 -78 -153 76 -953 61 -320 71 -432 42 -450 -10 -6 -255 158 -545 364 -911 647 -1005 697 -1117 585 -95 -95 -76 -198 212 -1094 215 -669 227 -750 126 -825 l-62 -45 -443 165 c-737 275 -888 306 -987 206 -83 -82 -60 -151 239 -700 347 -639 340 -595 146 -843 -99 -127 -94 -127 -364 -13 -490 206 -606 230 -690 146 -65 -65 -43 -151 140 -536 191 -403 184 -342 60 -502 -354 -460 -450 -1085 -255 -1658 51 -151 47 -197 -33 -351 -239 -458 65 -781 839 -892 521 -74 667 -114 921 -250 479 -256 926 -172 907 172 l-7 123 70 -12 c39 -6 111 -20 160 -31 310 -67 556 23 593 216 12 67 13 68 102 55 50 -6 269 -12 488 -12 l396 0 29 -68 c56 -135 168 -231 403 -343 161 -77 259 -140 358 -230 374 -339 887 -268 843 116 -15 130 -19 130 208 -15 485 -311 948 -121 730 300 l-31 60 155 0 c313 1 471 165 378 389 -40 96 -49 88 218 180 493 169 1001 437 1322 696 213 173 211 173 238 -10 14 -90 -4 -127 -148 -306 -9 -12 -94 -42 -188 -67 -411 -108 -639 -372 -520 -602 90 -174 368 -201 712 -69 28 11 31 -5 20 -127 -34 -412 387 -486 764 -134 177 164 196 165 498 19 414 -200 720 -139 747 149 16 167 -44 262 -294 458 l-48 38 103 229 c62 137 125 320 158 457 l54 230 116 107 c177 163 159 275 -49 312 -41 7 -76 19 -76 27 -1 8 -22 109 -46 224 l-44 210 82 150 c203 369 146 484 -191 381 -75 -22 -140 -41 -146 -41 -9 0 -167 201 -200 254 -10 16 23 72 93 157 497 602 446 1372 -132 2008 -105 115 -103 109 -74 265 139 754 -765 1234 -1322 703 l-121 -115 -114 39 c-195 66 -206 84 -355 579 -329 1090 -348 1090 -958 -5 -149 -266 -181 -292 -351 -280 -116 9 -280 63 -280 94 0 20 -649 1021 -759 1170 -159 216 -246 255 -357 161z m262 -266 c208 -291 914 -1392 914 -1426 0 -10 7 -18 16 -18 29 0 64 47 64 87 0 37 11 38 178 27 224 -14 196 -39 442 396 291 514 426 731 449 724 46 -15 438 -1271 408 -1304 -38 -40 -399 -22 -488 24 -164 86 -665 164 -643 99 4 -12 -38 -42 -92 -68 -304 -141 -461 -408 -452 -769 l5 -186 -107 -140 c-207 -272 -313 -574 -280 -794 15 -97 19 -90 81 124 60 208 175 427 317 606 l120 151 -4 217 c-14 761 921 1014 1249 338 61 -125 137 -148 137 -41 0 74 234 102 535 63 l125 -16 0 76 c1 173 158 390 347 477 518 241 1054 -277 864 -835 l-31 -92 137 -137 c230 -230 396 -531 448 -810 28 -148 30 -147 -179 -114 -630 97 -2228 -22 -3404 -255 -357 -70 -402 -87 -402 -148 0 -60 44 -60 379 1 1426 258 2696 353 3421 257 214 -28 211 -25 171 -207 -122 -547 -634 -1000 -1327 -1173 -59 -14 -94 -32 -80 -39 38 -20 351 16 455 51 113 38 108 40 94 -31 -160 -800 -1191 -1704 -2397 -2102 l-256 -84 -85 41 c-141 69 -225 89 -442 104 -173 12 -223 24 -299 69 -101 59 -95 45 -175 393 -24 105 -65 233 -92 286 l-49 96 126 137 c507 550 530 1402 46 1701 -95 59 -98 50 -19 -53 348 -455 310 -1074 -92 -1513 -136 -149 -157 -155 -282 -84 -154 88 -175 63 -52 -61 174 -175 266 -378 322 -704 49 -284 170 -377 527 -406 336 -27 526 -104 597 -241 119 -230 -180 -277 -726 -115 -173 52 -157 -6 48 -168 469 -371 148 -640 -357 -299 -330 222 -610 227 -467 9 222 -341 -200 -451 -538 -142 -94 86 -212 164 -387 256 -288 150 -344 208 -344 355 0 128 28 172 101 156 82 -18 74 9 -36 123 -271 280 -771 945 -858 1143 -204 458 -185 1003 46 1368 53 85 53 85 72 36 42 -110 41 -110 208 -110 344 0 746 349 723 626 l-6 74 -57 -117 c-149 -302 -639 -624 -747 -490 -73 91 -449 1297 -404 1297 28 0 505 -222 708 -330 88 -47 230 -122 316 -168 129 -69 157 -77 167 -52 13 34 -44 110 -83 110 -12 0 -43 21 -68 48 -51 55 -755 412 -929 471 -171 59 -253 25 -253 -104 0 -40 268 -866 337 -1039 18 -45 13 -64 -27 -120 -342 -473 -376 -1046 -95 -1606 93 -185 148 -264 435 -620 350 -435 371 -474 311 -569 -36 -57 -473 -78 -817 -39 l-194 21 -111 106 c-138 132 -267 199 -493 255 -97 23 -180 46 -184 49 -4 3 52 69 124 146 399 422 487 1136 210 1690 -259 516 -818 886 -1243 822 -118 -17 -135 -46 -39 -61 1030 -161 1595 -1188 1151 -2090 -163 -329 -365 -468 -711 -489 -392 -24 -386 -52 22 -101 691 -82 969 -175 1098 -368 202 -300 -214 -356 -899 -121 -213 73 -303 44 -150 -49 587 -355 190 -660 -445 -342 -253 127 -404 176 -681 219 -115 18 -299 47 -409 64 -522 82 -768 350 -590 643 60 97 90 99 187 9 166 -153 213 -156 107 -7 -451 631 -454 1478 -6 2011 l65 77 93 -171 c51 -94 98 -195 105 -223 28 -110 274 -111 491 -1 269 136 490 497 416 679 l-24 60 -17 -89 c-58 -310 -377 -618 -650 -628 l-96 -3 -65 130 c-138 279 -500 1033 -525 1096 -59 145 50 116 799 -211 369 -161 500 -207 500 -176 0 45 -54 93 -169 152 -72 37 -131 79 -131 94 0 35 178 225 210 225 25 0 130 -144 130 -179 0 -78 176 -54 349 47 266 156 531 567 531 823 0 94 -33 103 -50 14 -32 -175 -234 -493 -414 -655 -96 -86 -307 -211 -320 -189 -4 5 -50 99 -103 209 -54 110 -208 403 -343 650 -283 520 -350 651 -350 679 0 65 248 1 810 -210 649 -242 767 -273 712 -186 -21 35 -21 47 5 72 45 46 82 19 122 -88 50 -133 60 -142 168 -157 392 -54 947 349 1012 735 18 106 -11 93 -69 -30 -150 -318 -700 -672 -944 -608 -73 20 -712 2005 -662 2055 45 45 313 -125 1226 -777 l470 -336 64 -289 c36 -160 60 -310 55 -335 -55 -251 544 -259 984 -14 156 87 401 320 462 439 48 95 75 210 50 210 -10 0 -32 -29 -49 -65 -157 -328 -710 -655 -1110 -655 -194 0 -191 -5 -273 410 -39 198 -112 563 -163 810 -219 1070 -222 1149 -40 1027 171 -114 1139 -949 1535 -1324 160 -152 143 -8 -19 159 l-89 92 117 42 c160 58 365 112 377 99 6 -6 1 -108 -11 -227 -22 -213 -22 -217 23 -250 241 -182 1007 -48 1279 224 130 130 96 145 -84 38 -406 -242 -1118 -336 -1118 -149 0 60 121 997 190 1468 86 587 87 588 276 325z m-1076 -1201 c231 -154 232 -158 57 -218 l-132 -44 -118 101 c-112 98 -117 106 -117 197 0 158 23 156 310 -36z m3777 -391 c182 -80 173 -141 -21 -135 -64 3 -183 -5 -266 -17 -149 -21 -150 -21 -195 30 -64 74 -57 90 40 91 47 0 130 17 185 37 134 49 133 49 257 -6z m1732 -3119 c98 -129 99 -138 16 -174 -41 -18 -67 -46 -71 -74 -9 -60 -11 -60 294 55 267 101 322 115 322 82 0 -64 -277 -562 -313 -562 -84 0 -202 102 -266 231 -38 76 -39 77 -40 23 -3 -200 317 -441 397 -299 27 49 63 -47 68 -184 l4 -101 -98 -10 c-213 -22 -143 -65 163 -101 113 -13 205 -31 205 -40 0 -46 -364 -309 -406 -293 -43 16 -94 141 -94 232 0 83 -25 109 -48 50 -60 -157 95 -429 210 -367 67 36 73 20 45 -113 -33 -158 -124 -392 -218 -561 -94 -168 -90 -191 40 -277 501 -332 252 -639 -295 -364 -346 174 -412 170 -630 -34 -141 -133 -225 -187 -305 -194 -240 -22 -311 121 -170 343 39 60 70 130 70 156 1 57 8 58 -389 -44 -315 -81 -349 -85 -429 -44 -220 114 1 355 434 471 135 36 174 56 210 106 25 33 93 108 151 167 l106 106 -40 55 c-45 62 -81 198 -82 310 0 64 19 96 141 230 266 295 455 607 578 955 73 207 77 214 210 304 130 87 135 86 230 -40z"
       id="path1" />
    <path
       d="M10043 6865 c-165 -107 -205 -299 -96 -463 116 -176 369 -190 516 -29 254 278 -103 697 -420 492z"
       id="path2" />
    <path
       d="M7968 6662 c-273 -124 -241 -543 47 -621 106 -28 217 -2 305 72 295 248 0 709 -352 549z"
       id="path3" />
    <path
       d="M5949 6131 c-48 -34 -48 -284 -1 -640 16 -121 25 -227 19 -236 -50 -81 96 -175 271 -175 232 0 482 175 482 338 0 43 -8 38 -83 -46 -143 -163 -475 -272 -535 -175 -37 59 -99 843 -67 843 29 0 262 -161 471 -325 191 -150 268 -170 200 -52 -63 110 -598 497 -687 497 -17 0 -49 -13 -70 -29z"
       id="path4" />
    <path
       d="M9788 5772 c-114 -114 -75 -215 53 -139 119 71 156 207 58 207 -24 0 -74 -31 -111 -68z"
       id="path5" />
    <path
       d="M8979 5769 c-50 -61 145 -229 228 -197 69 26 18 144 -87 198 -74 38 -109 38 -141 -1z"
       id="path6" />
    <path
       d="M5555 3555 c-42 -33 -75 -159 -75 -295 -1 -78 -12 -124 -40 -160 -55 -70 -57 -181 -3 -132 36 32 39 30 60 -55 58 -231 583 -161 583 78 0 63 -1 63 -93 -29 -119 -119 -336 -157 -407 -72 -38 46 6 570 47 570 13 0 114 -83 223 -185 191 -176 200 -182 206 -131 5 37 15 50 35 43 16 -6 29 -2 29 10 0 30 -82 103 -115 103 -15 0 -69 39 -121 88 -183 170 -269 214 -329 167z"
       id="path7" />
    <path
       d="M780 2867 c-127 -54 -32 -256 264 -563 61 -63 117 -134 125 -159 43 -137 356 -11 449 181 41 85 54 199 30 262 -18 48 -48 17 -48 -50 0 -194 -268 -430 -358 -315 -21 26 -116 142 -211 257 -212 256 -224 276 -178 294 39 15 350 -21 556 -64 252 -53 225 44 -31 113 -148 40 -540 69 -598 44z"
       id="path8" />
  </g>
  <path
     style="fill:#ffffff;stroke-width:0.909091"
     d="m 397.75903,569.51155 c -5.42638,-1.95122 -12.72363,-6.49764 -18.0152,-11.22401 -5.06578,-4.5247 -13.09248,-9.72907 -24.74383,-16.04342 -14.07167,-7.62603 -18.9575,-11.30481 -21.00696,-15.81714 -1.88505,-4.15033 -2.20545,-10.03262 -0.75435,-13.8493 1.24316,-3.26975 2.54008,-4.0609 5.60276,-3.4178 3.28005,0.68875 4.59415,-0.16885 3.47189,-2.26582 -0.48037,-0.89757 -4.21365,-5.27047 -8.29618,-9.71755 -15.48557,-16.86838 -40.96206,-50.29436 -50.76613,-66.60681 -8.89047,-14.79235 -13.26842,-33.71862 -12.53875,-54.20606 0.54914,-15.4185 2.69723,-24.65037 8.49822,-36.52283 5.25742,-10.75996 6.12005,-11.49079 8.24667,-6.98673 2.37657,5.03343 4.76155,5.96837 13.90647,5.45153 23.8498,-1.34792 46.91622,-20.91307 48.03685,-40.74529 0.19257,-3.40817 -0.003,-6.19493 -0.43426,-6.19278 -0.43143,0.002 -2.36854,3.08957 -4.3047,6.86095 -8.29271,16.1531 -31.95189,34.95038 -43.99308,34.95261 -3.39972,6.3e-4 -4.0982,-0.36299 -5.67395,-2.95383 -5.3076,-8.72675 -27.22785,-78.2779 -26.17558,-83.05302 0.42903,-1.94698 27.3297,10.6404 64.27532,30.07577 12.56941,6.61218 14.63303,7.12237 14.63303,3.61775 0,-2.47473 -3.63557,-6.77686 -5.72687,-6.77686 -0.69523,0 -2.00595,-0.81979 -2.91272,-1.82175 -2.49973,-2.76217 -14.16387,-9.22229 -36.86519,-20.41758 -29.37586,-14.48688 -36.68564,-16.56199 -41.47393,-11.7737 -2.12575,2.12576 -2.30453,2.84317 -1.869,7.5 0.28445,3.04142 5.01472,18.83796 11.55519,38.58806 l 11.07359,33.43865 -1.78319,2.92498 c -0.98075,1.60874 -3.8391,6.30229 -6.35187,10.43013 -5.16283,8.48117 -9.37557,19.35555 -11.5197,29.73591 -1.73243,8.38724 -1.95103,25.42651 -0.44942,35.03166 2.32155,14.85004 11.48697,37.03193 20.64066,49.95397 2.32016,3.27531 11.02474,14.54603 19.34352,25.04603 23.07743,29.12846 25.07158,32.71364 20.65341,37.13181 -1.60035,1.60035 -3.8008,2.47306 -7.6016,3.01481 -7.92734,1.12996 -40.42319,0.8311 -50.34924,-0.46304 l -8.63636,-1.126 -5,-4.80813 C 239.59195,496.03097 231.19544,491.49055 215,487.30462 c -5.25,-1.35694 -9.89316,-2.79875 -10.31815,-3.20403 -0.42498,-0.40528 1.42905,-3.13182 4.12007,-6.05896 18.58344,-20.21415 27.09672,-42.04786 27.10427,-69.51346 0.008,-29.09308 -9.91336,-53.21459 -30.45164,-74.03618 -12.92012,-13.09834 -26.8409,-21.7829 -41.34537,-25.79355 -10.88673,-3.01031 -29.98313,-2.23076 -28.84766,1.17762 0.18927,0.56817 3.78741,1.74315 7.99585,2.61106 51.03862,10.52582 84.92929,51.73703 82.37548,100.16898 -1.46594,27.80107 -15.592,55.19276 -32.99329,63.9769 -7.58311,3.82795 -14.26461,5.38284 -28.09411,6.53792 -12.61454,1.05362 -15,1.49027 -15,2.74578 0,1.4295 1.37901,1.73712 18.28405,4.0787 48.58431,6.72959 62.52479,10.91173 72.37614,21.71283 5.8648,6.43021 7.59159,11.20761 5.30975,14.69013 -2.44022,3.72424 -7.02718,5.14718 -16.37607,5.08006 -10.47824,-0.0752 -21.12771,-1.95187 -34.73296,-6.12063 -15.66124,-4.79874 -19.53165,-5.78949 -22.66393,-5.80154 -5.7105,-0.022 -4.84359,2.38592 2.68972,7.4709 8.90882,6.01344 12.27175,8.96808 15.14561,13.30682 6.4296,9.70692 0.73277,16.48421 -13.85626,16.48421 -10.69716,0 -16.02304,-1.68344 -41.42727,-13.09471 -12.09434,-5.43262 -21.45348,-7.79369 -47.021503,-11.86228 -25.228759,-4.01461 -32.261165,-5.81721 -41.55231,-10.65099 -11.191798,-5.82262 -17.085442,-13.64684 -17.083336,-22.67931 8.01e-4,-3.43583 4.33077,-13.29426 6.700419,-15.25545 2.036765,-1.68569 3.999535,-0.70849 11.480682,5.7159 5.321424,4.56972 9.090909,6.37465 9.090909,4.35294 0,-0.41064 -2.487122,-4.60383 -5.526936,-9.31818 -13.83358,-21.45407 -19.645432,-39.18093 -20.544249,-62.66246 -0.995253,-26.0009 5.616074,-47.61389 20.309115,-66.39224 l 5.062995,-6.47072 1.857301,3.02238 c 1.021516,1.66232 4.294415,8.04778 7.273109,14.18991 6.23387,12.85438 7.39414,13.83847 16.296247,13.82169 12.709972,-0.0239 24.347777,-5.26731 34.518697,-15.55226 12.24358,-12.38085 17.96225,-27.48614 13.90888,-36.73892 l -1.58016,-3.60712 -1.24039,5.90909 c -2.61308,12.44847 -11.32175,25.79638 -21.9655,33.66688 -7.205829,5.32833 -13.90246,8.05729 -21.516703,8.76832 l -5.540322,0.51736 -12.17269,-24.88536 C 45.745677,308.15074 36.684244,288.47848 37.195919,287.14507 c 0.26086,-0.67979 1.35903,-1.23598 2.440379,-1.23598 3.546158,0 18.124557,5.50776 44.454611,16.79506 25.654381,10.99766 36.008021,15.02312 38.639981,15.02312 2.13669,0 1.59222,-3.09981 -0.97016,-5.52335 -1.28159,-1.21216 -5.47233,-4.06119 -9.31274,-6.3312 -3.8404,-2.27 -7.12011,-4.84157 -7.28824,-5.71457 -0.1916,-0.99489 2.10908,-4.03489 6.16448,-8.14544 l 6.47015,-6.55816 2.95777,3.34018 c 1.62677,1.8371 3.49999,4.49619 4.1627,5.90909 0.66272,1.4129 1.51673,3.18254 1.8978,3.93254 0.51224,1.00819 2.20635,1.34769 6.49933,1.30249 19.31799,-0.20348 46.19821,-28.3229 51.4659,-53.83855 1.48257,-7.18129 1.05979,-12.43489 -0.94777,-11.77734 -0.60656,0.19868 -1.98006,3.06397 -3.05223,6.36732 -4.09988,12.6318 -13.82796,27.92643 -24.49746,38.51528 -5.26178,5.222 -19.43451,14.88535 -21.83157,14.88535 -0.59493,0 -4.74309,-7.26136 -9.2181,-16.13636 -4.47502,-8.875 -15.61992,-30.02171 -24.76643,-46.99269 -17.428801,-32.33841 -20.502026,-38.49991 -19.635253,-39.36669 2.447796,-2.44779 19.717693,2.56037 58.716383,17.02737 24.37189,9.04102 35.89441,12.7411 39.6775,12.7411 h 3.2096 l -0.60279,-3.56781 c -0.50242,-2.97386 -0.30776,-3.7257 1.16931,-4.5162 2.31062,-1.23661 3.71038,0.33309 7.20888,8.08401 3.8105,8.4422 4.17508,8.63795 16.06813,8.62749 8.63663,-0.008 11.04291,-0.35665 16.72961,-2.42669 10.15806,-3.69769 19.73166,-9.59659 27.68078,-17.05588 10.96218,-10.28666 16.88065,-20.03031 18.4259,-30.33478 1.07126,-7.14367 -1.66209,-5.25702 -6.93785,4.78874 -9.14695,17.41703 -39.59015,38.2193 -55.93225,38.2193 -4.01413,0 -5.06382,-0.34787 -6.17209,-2.04546 -6.27779,-9.61599 -35.18548,-98.8227 -42.71606,-131.818178 -1.90428,-8.343674 13.4325,1.278217 97.44812,61.136368 l 14.67377,10.45454 1.47473,6.36364 c 3.73744,16.12749 5.94643,27.84618 6.4756,34.35301 0.51635,6.34934 0.84742,7.30884 3.20697,9.29427 3.95005,3.32374 9.20275,4.44759 20.27578,4.33812 15.83526,-0.15656 34.25279,-5.7467 47.16036,-14.31426 6.6071,-4.38553 19.44873,-16.44973 23.75692,-22.31866 4.879,-6.64653 8.89655,-19.92679 5.70658,-18.86346 -0.60688,0.20229 -2.77139,3.10587 -4.81001,6.4524 -12.838,21.07428 -43.84557,39.2922 -70.17191,41.2282 -11.5909,0.85237 -14.05221,-0.79152 -16.58757,-11.07871 -2.23925,-9.08576 -21.06821,-103.997963 -23.25866,-117.24124 -2.40466,-14.538417 -2.74352,-20.122909 -1.35336,-22.304218 1.89107,-2.967316 9.38745,2.588163 47.28492,35.042289 11.75,10.062309 29.06119,25.214649 38.4693,33.671869 27.12995,24.38785 28.81816,25.8313 30.21149,25.8313 1.71744,0 1.68322,-3.02275 -0.0727,-6.41826 -0.76553,-1.48038 -3.82598,-5.51973 -6.80098,-8.97633 l -5.4091,-6.28473 9.75553,-3.20627 c 12.7411,-4.1875 20.48068,-6.1197 21.27324,-5.3109 0.35088,0.35807 0.26981,4.74194 -0.18017,9.74194 -0.44997,5 -0.83273,11.61436 -0.85057,14.69858 -0.031,5.36428 0.0958,5.68605 2.92212,7.41332 5.55191,3.39302 12.2098,4.70682 23.80136,4.69674 24.779,-0.0216 50.44396,-8.86609 62.39454,-21.50206 7.99031,-8.44858 5.65914,-8.80436 -8.53793,-1.30303 -16.89669,8.92772 -34.79186,14.26387 -51.13097,15.24668 -10.81021,0.65024 -16.80433,-0.0814 -19.6685,-2.40063 l -2.0835,-1.68711 3.51049,-28.03579 c 4.16952,-33.299006 10.84171,-80.927839 12.92503,-92.264101 0.81727,-4.447086 2.17286,-8.93392 3.01242,-9.970742 1.52473,-1.882959 1.52993,-1.881625 4.51026,1.15696 6.54134,6.669235 67.40316,100.123443 67.40316,103.498553 0,0.49895 0.79498,0.90718 1.76664,0.90718 1.98961,0 4.597,-3.2085 4.597,-5.65683 0,-1.46275 1.08271,-1.6159 11.4234,-1.6159 6.28287,0 12.2061,-0.41889 13.16272,-0.93086 2.37821,-1.27278 7.18049,-8.61257 17.23497,-26.341868 10.51437,-18.540233 24.80162,-42.437365 27.13013,-45.37838 l 1.7391,-2.196561 1.89353,4.28063 c 5.75813,13.017205 25.10418,76.706019 24.53,80.754809 -0.2832,1.99697 -0.68393,2.09584 -9.49646,2.34274 -9.81668,0.27503 -17.01417,-0.91133 -26.25376,-4.32739 -8.20835,-3.0348 -19.8765,-5.42119 -29.67057,-6.06828 -8.26731,-0.54621 -8.81896,-0.4715 -9.78032,1.32483 -0.56036,1.04705 -3.979,3.45831 -7.59697,5.35838 -8.92575,4.68758 -17.7863,13.20131 -21.91389,21.05612 -4.61344,8.7794 -6.00893,15.6831 -6.02481,29.80561 l -0.0134,11.95252 -5.07881,6.49093 c -11.51734,14.71967 -19.52102,32.21024 -20.90042,45.67412 -0.72,7.02756 0.17917,14.65116 1.66944,14.15439 0.55936,-0.18644 2.5813,-5.22231 4.49322,-11.19082 4.78255,-14.9299 11.26897,-27.41286 20.82031,-40.06815 l 8.08717,-10.7153 0.0158,-10.48873 c 0.0275,-18.27076 3.46035,-28.63637 12.7848,-38.60424 10.48719,-11.21085 26.05416,-16.36781 39.82508,-13.1931 11.17153,2.57545 23.17497,12.17624 28.92713,23.13697 5.0886,9.69633 9.36431,11.92509 10.96257,5.71438 1.22165,-4.74724 4.18972,-5.69188 17.93919,-5.70946 6.5,-0.008 14.92915,0.32104 18.73146,0.73189 l 6.91328,0.74699 0.50923,-5.61581 c 1.48598,-16.38769 16.50601,-31.5131 34.26874,-34.50917 19.39836,-3.27196 39.21425,9.6433 46.0208,29.99463 2.46884,7.38175 2.3189,19.51605 -0.34594,27.9961 l -2.08424,6.63246 8.10074,8.63128 c 10.15702,10.82223 16.99711,20.30489 22.31429,30.93511 3.94043,7.8778 7.91459,19.7082 9.00022,26.79216 0.87675,5.72102 0.47762,5.84069 -13.10821,3.92968 -9.93212,-1.39707 -17.50906,-1.69916 -41.68401,-1.66188 -29.74374,0.0459 -44.44611,0.80018 -79.54545,4.08119 -45.62005,4.26445 -104.31446,13.38563 -125.72518,19.53784 -4.96533,1.42676 -6.74419,3.54138 -5.85131,6.95578 0.67589,2.58456 6.92389,2.08542 36.05577,-2.88043 51.25581,-8.73711 91.30802,-13.6691 133.24799,-16.40801 33.11693,-2.16272 86.33924,-0.45536 93.58955,3.00232 1.51975,0.72477 2.42094,1.9888 2.6136,3.6659 0.40598,3.53381 -3.83871,17.89979 -7.60622,25.74302 -12.4802,25.98136 -43.21018,49.27267 -77.25288,58.55264 -3.98922,1.08746 -8.03447,2.38852 -8.98942,2.89126 -6.18043,3.25367 14.42477,2.3698 28.47746,-1.22156 3.70765,-0.94754 6.9445,-1.51948 7.19301,-1.27098 1.00869,1.00869 -3.83913,16.04215 -7.94878,24.6498 -23.49625,49.21267 -83.85012,95.20552 -156.15558,118.99878 l -12.18403,4.00936 -7.00472,-3.06321 c -9.58125,-4.18995 -12.41184,-4.83596 -28.00313,-6.39102 -11.38013,-1.13505 -14.33271,-1.75339 -18.45884,-3.86575 -2.70149,-1.38302 -5.6658,-3.5373 -6.58736,-4.7873 -0.92155,-1.25 -3.52371,-9.616 -5.78258,-18.59112 -2.25886,-8.9751 -5.3749,-19.06907 -6.92453,-22.43101 l -2.81749,-6.11265 6.73338,-7.56897 c 8.43739,-9.48444 13.51521,-16.93262 18.04796,-26.47286 13.99861,-29.46338 12.16329,-63.05623 -4.41963,-80.89471 C 456.07547,311.75527 447.07132,305 445.49822,305 c -1.36135,0 -0.0722,2.763 4.11595,8.82131 10.31334,14.91877 13.92913,26.29662 13.95297,43.90596 0.0183,13.49668 -1.50763,20.85892 -6.69379,32.29678 -5.56443,12.27208 -20.76959,30.4305 -25.48132,30.4305 -1.07094,0 -4.64528,-1.43182 -7.94297,-3.18182 -10.13551,-5.37867 -11.24577,-3.65348 -3.34188,5.19291 10.33612,11.56864 15.15832,20.90424 18.91839,36.62527 4.50273,18.82609 5.24608,21.27844 7.50664,24.76474 4.6833,7.22271 12.64245,10.59512 29.65647,12.56588 14.66127,1.69823 22.06303,3.35046 29.04359,6.48315 11.29748,5.07 16.38142,16.8415 8.93638,20.69148 -6.59718,3.41153 -18.6378,2.60132 -39.77599,-2.67653 -6.83933,-1.70767 -12.77331,-2.89585 -13.18663,-2.6404 -2.24527,1.38764 -0.0319,4.47913 8.51312,11.89069 13.3971,11.62 17.57576,18.27568 15.83317,25.21874 -1.42116,5.6623 -12.34677,6.94549 -22.99405,2.7006 -3.40705,-1.35833 -9.77952,-4.68262 -14.16103,-7.38732 -12.00205,-7.40881 -19.23689,-10.42755 -26.22122,-10.94078 -5.43211,-0.39917 -6.1403,-0.24931 -7.41382,1.5689 -1.66491,2.37699 -1.06642,5.19403 2.35525,11.08593 3.2112,5.52946 3.85271,9.85903 1.99353,13.45428 -2.84461,5.50088 -11.89035,7.0435 -21.35195,3.64128 z M 94.778813,454.05793 c 6.337187,-3.16674 11.415687,-8.34543 14.122567,-14.4012 3.22255,-7.20941 2.2788,-21.20055 -1.19569,-17.72606 -0.51187,0.51188 -1.3153,3.29395 -1.78541,6.18239 -0.47011,2.88845 -1.87658,6.99536 -3.12549,9.12647 -4.081705,6.96491 -12.904365,13.11501 -16.96524,11.82613 -0.970344,-0.30797 -7.000173,-6.97373 -13.39962,-14.81281 -15.109695,-18.50878 -16.793063,-20.80419 -16.090575,-21.94083 0.322372,-0.52161 2.505169,-0.94198 4.85066,-0.93417 4.692235,0.0156 26.430675,2.95652 32.900894,4.45099 6.251351,1.44391 10.867061,1.24757 11.534071,-0.49062 2.00719,-5.23067 -21.55828,-11.18776 -44.422635,-11.22957 -9.413123,-0.0172 -9.76374,0.0547 -11.590909,2.37759 -2.501676,3.18036 -2.379056,5.19729 0.711043,11.69558 2.884981,6.06694 7.107411,11.66494 16.658666,22.08567 3.531406,3.85288 7.472755,8.6416 8.758554,10.6416 1.285798,2 2.950836,4.14773 3.700085,4.77273 2.49082,2.07776 9.393811,1.34696 15.339029,-1.62389 z M 394.34378,409.54284 c 7.06877,-2.64477 11.56531,-7.92228 11.56531,-13.57399 0,-3.79699 -1.6266,-3.5434 -5.95186,0.92788 -5.631,5.82109 -11.49336,8.4621 -18.89923,8.51414 -5.55505,0.039 -6.41185,-0.19757 -8.07192,-2.22905 -1.72204,-2.10734 -1.815,-3.06659 -1.27726,-13.18182 0.62094,-11.68035 2.05777,-22.29293 3.17047,-23.41747 0.73298,-0.74079 3.70882,1.63042 17.68611,14.09265 4.91097,4.37865 9.48479,7.96118 10.16405,7.96118 0.67925,0 1.36573,-0.92045 1.5255,-2.04545 0.1867,-1.31451 1.02145,-2.14926 2.33596,-2.33596 1.125,-0.15977 2.04545,-0.79914 2.04545,-1.42082 0,-1.54896 -4.32696,-5.46907 -8.18181,-7.4125 -1.75,-0.88228 -6.5669,-4.56897 -10.70423,-8.19266 -8.53574,-7.47605 -12.61218,-9.73684 -16.82299,-9.33 -4.46818,0.43173 -6.89312,6.0546 -7.86894,18.24623 -0.62288,7.78221 -1.20326,10.29701 -3.13856,13.59935 -3.47707,5.93316 -2.85262,11.9294 0.91655,8.80126 1.13651,-0.94322 1.54522,-0.91577 2.21898,0.14901 0.45424,0.71785 0.83216,2.00685 0.83981,2.86445 0.0215,2.40365 5.31902,7.88526 8.51538,8.81123 5.2245,1.51351 14.73086,1.11879 19.93323,-0.82766 z m 29.64289,-152.7791 c 6.44182,-1.48511 13.78232,-5.54059 18.43058,-10.18254 4.44947,-4.44344 6.98495,-10.09238 5.8534,-13.04115 -0.51432,-1.34031 -1.44571,-0.78123 -5.80527,3.48466 -6.58155,6.44015 -12.73026,10.28774 -20.06114,12.55335 -6.62873,2.04863 -11.83139,2.2891 -14.04565,0.64921 -1.06922,-0.79187 -1.93342,-3.89226 -2.85073,-10.22727 -1.6863,-11.64567 -3.23513,-30.43092 -3.23513,-39.23769 0,-5.7695 0.22064,-6.78126 1.38172,-6.33571 2.19632,0.84281 11.6943,7.45121 25.26344,17.57753 13.70904,10.23071 17.40341,12.47198 19.33581,11.73044 2.02356,-0.77651 -0.0134,-4.91702 -4.89634,-9.95261 -5.26511,-5.42972 -21.86649,-18.01901 -31.28733,-23.72604 -8.49941,-5.14884 -12.11958,-5.95607 -15.27285,-3.40561 -2.15322,1.74159 -2.26419,2.33194 -2.53667,13.49457 -0.18709,7.66473 0.35024,17.14884 1.56477,27.61853 1.01735,8.76987 1.62129,17.36078 1.34211,19.09091 -0.41568,2.57602 -0.0873,3.53948 1.81308,5.32025 4.95234,4.64053 15.99385,6.66688 25.0062,4.58917 z m 191.75502,-35.71118 c 0.25056,-3.04788 -0.16082,-3.91903 -3.22889,-6.83762 -4.57535,-4.35243 -9.80986,-6.06957 -12.70991,-4.16939 -2.85814,1.87273 -2.60045,4.29343 0.8789,8.2562 4.15611,4.73355 7.81926,6.78507 11.59094,6.49142 2.98342,-0.23227 3.19972,-0.46552 3.46896,-3.74061 z m 39.98527,-0.0623 c 3.97005,-2.07405 7.48415,-6.37542 8.04819,-9.85125 0.43889,-2.70447 0.19585,-3.41193 -1.48023,-4.30895 -2.75801,-1.47603 -6.38968,0.12941 -10.44385,4.6169 -5.04475,5.58392 -5.49281,10.82578 -0.92536,10.82578 1.29052,0 3.45108,-0.57712 4.80125,-1.28248 z m -105.16557,-29.4382 c 14.33302,-7.48765 16.75998,-26.01089 4.78556,-36.52458 -4.62966,-4.06488 -8.42359,-5.48363 -14.63593,-5.47313 -9.67339,0.0163 -18.53309,6.10864 -21.03699,14.46591 -1.46655,4.8949 -1.28704,13.16754 0.37204,17.14531 4.82673,11.57247 19.00643,16.39881 30.51532,10.38649 z m 140.90909,-15.45454 c 15.96894,-8.34227 16.17572,-29.04426 0.3876,-38.8053 -10.24114,-6.33161 -25.18663,-1.61722 -31.09516,9.80864 -0.8012,1.54934 -1.64933,5.29002 -1.88473,8.31261 -0.38294,4.9172 -0.10462,6.11758 2.6444,11.40472 2.53236,4.87043 3.93985,6.42843 8.00742,8.86364 4.25254,2.54595 5.77483,2.95454 11.00778,2.95454 4.88117,0 7.02638,-0.49817 10.93269,-2.53885 z"
     id="path9"
     transform="scale(0.75)" />
  <path
     style="fill:#ffffff;stroke-width:0.39153"
     d="m 351.98541,118.00845 c -10.37485,-8.85052 -10.51981,-9.07784 -10.31763,-16.18026 0.11643,-4.090349 0.25375,-4.970897 0.88371,-5.666763 0.41022,-0.453138 1.06737,-0.823888 1.46032,-0.823888 2.12933,0 7.38448,2.974366 18.74067,10.607071 11.54808,7.76167 12.77482,9.28882 8.97868,11.17745 -1.27457,0.63412 -14.15592,5.24391 -14.61372,5.22974 -0.0232,-7.2e-4 -2.33259,-1.95523 -5.13203,-4.34335 z"
     id="path10"
     transform="scale(0.75)" />
  <path
     style="fill:#ffffff;stroke-width:1.05514"
     d="m 650.82815,542.22089 c -6.60045,-3.25496 -6.52114,-9.60479 0.27437,-21.96771 4.43292,-8.06471 4.78125,-12.20199 1.02733,-12.20199 -1.42238,0 -11.23142,2.13666 -21.79786,4.74814 -10.56644,2.61148 -21.08105,4.74814 -23.36582,4.74814 -5.12812,0 -9.81105,-2.64414 -11.37655,-6.42358 -3.27173,-7.89865 9.51391,-17.57303 33.2754,-25.17816 l 10.55143,-3.3771 10.65794,-11.25971 10.65794,-11.25972 -2.54645,-3.84793 c -2.99996,-4.53325 -5.55,-13.41957 -5.56762,-19.40199 -0.0143,-4.86537 0.9954,-6.46161 13.10498,-20.71697 15.28334,-17.99151 26.76826,-37.66256 35.00493,-59.95549 4.50946,-12.20506 8.01761,-16.63069 16.81157,-21.20827 l 4.89612,-2.54861 4.51857,5.09429 c 5.31785,5.99541 7.88583,10.39371 6.36972,10.90969 -0.58033,0.19751 -2.59829,1.29987 -4.48436,2.44969 -2.60403,1.58753 -3.42921,2.82929 -3.42921,5.16041 0,2.92567 0.16102,3.03189 3.42921,2.26195 1.88607,-0.44432 8.88958,-2.84239 15.56336,-5.32904 6.67377,-2.48665 14.1521,-5.13669 16.61849,-5.88898 4.09076,-1.24774 4.48436,-1.20541 4.48436,0.48229 0,3.97683 -17.96595,36.03412 -20.19469,36.03412 -3.80789,0 -12.24683,-7.66918 -16.83521,-15.29957 l -2.53795,-4.22057 -0.3237,3.89333 c -0.77626,9.3366 11.39407,21.95766 21.17349,21.95766 1.9382,0 4.08587,-0.56186 4.77259,-1.24858 0.68672,-0.68673 1.53543,-0.96175 1.88601,-0.61117 1.07539,1.0754 2.51144,8.47681 2.538,13.08096 l 0.0252,4.36278 -5.9687,0.74574 c -14.56465,1.81973 -11.40263,4.38645 9.13413,7.41448 14.35092,2.11596 15.22975,2.39414 13.63483,4.31591 -1.72814,2.08228 -15.39426,12.17591 -20.36266,15.03962 -3.71976,2.144 -4.2541,2.20886 -5.90322,0.71643 -2.08787,-1.8895 -3.88631,-7.33598 -4.7998,-14.53596 -0.67644,-5.33164 -1.85567,-6.29549 -3.63488,-2.97101 -3.17699,5.93628 1.18471,20.08672 7.63518,24.77037 2.47689,1.79846 3.40418,1.94204 6.06251,0.93863 1.72609,-0.65153 3.36023,-0.82558 3.63142,-0.38678 0.81854,1.32442 -3.32271,17.13075 -6.74619,25.74883 -1.76538,4.4441 -5.3519,12.34539 -7.97005,17.55844 -2.61816,5.21305 -4.76028,10.67529 -4.76028,12.13831 0,2.01681 1.57874,3.87173 6.52872,7.67086 11.21462,8.60728 13.35462,10.7954 16.154,16.51712 3.35846,6.86442 2.47928,10.47267 -3.12198,12.81303 -7.63198,3.18884 -16.17906,1.46364 -34.43034,-6.94966 -21.71246,-10.00881 -25.13262,-9.55164 -41.9985,5.61386 -11.46991,10.31355 -20.56184,13.40258 -28.26575,9.60347 z"
     id="path11"
     transform="scale(0.75)" />
  <path
     style="fill:#ffffff;stroke-width:0.265558"
     d="m 585.55604,141.95687 c -1.31193,-0.31172 -1.85866,-0.71402 -3.67517,-2.70432 -2.13383,-2.33798 -3.08896,-4.011 -2.6719,-4.68011 0.43929,-0.70476 1.87895,-1.0976 4.08982,-1.11597 4.31535,-0.0359 8.93938,-1.0168 15.83176,-3.3585 6.29009,-2.13707 7.27768,-2.06096 14.27265,1.09991 7.19897,3.25305 10.14797,5.84305 8.42666,7.40082 -1.17206,1.0607 -2.77433,1.27202 -11.31134,1.49177 -8.16027,0.21006 -9.94697,0.34443 -17.39407,1.30811 -5.22927,0.67669 -6.63401,0.78031 -7.56841,0.55829 z"
     id="path12"
     transform="scale(0.75)" />
</svg>
