<?xml version="1.0" encoding="UTF-8" standalone="no"?>
<svg
   version="1.0"
   width="600.000000pt"
   height="600.000000pt"
   viewBox="0 0 600.000000 600.000000"
   preserveAspectRatio="xMidYMid meet"
   id="svg35"
   sodipodi:docname="frog9_t2.svg"
   inkscape:version="1.4.3 (0d15f75, 2025-12-25)"
   xmlns:inkscape="http://www.inkscape.org/namespaces/inkscape"
   xmlns:sodipodi="http://sodipodi.sourceforge.net/DTD/sodipodi-0.dtd"
   xmlns="http://www.w3.org/2000/svg"
   xmlns:svg="http://www.w3.org/2000/svg">
  <defs
     id="defs35" />
  <sodipodi:namedview
     id="namedview35"
     pagecolor="#505050"
     bordercolor="#ffffff"
     borderopacity="1"
     inkscape:showpageshadow="0"
     inkscape:pageopacity="0"
     inkscape:pagecheckerboard="1"
     inkscape:deskcolor="#505050"
     inkscape:document-units="pt"
     inkscape:zoom="1.2221826"
     inkscape:cx="564.56374"
     inkscape:cy="436.51413"
     inkscape:window-width="1496"
     inkscape:window-height="910"
     inkscape:window-x="1920"
     inkscape:window-y="142"
     inkscape:window-maximized="0"
     inkscape:current-layer="svg35" />
  <g
     transform="translate(0.000000,600.000000) scale(0.066667,-0.066667)"
     fill="#000000"
     stroke="none"
     id="g35">
    <path
       d="M495 8910 c0 -11 4 -16 10 -10 6 6 6 15 0 20 -6 6 -10 1 -10 -10z"
       id="path1" />
    <path
       d="M7455 8910 c0 -11 5 -16 10 -10 6 6 6 15 0 20 -5 6 -10 1 -10 -10z"
       id="path2" />
    <path
       d="M5610 8895 c0 -11 5 -16 10 -10 6 6 6 15 0 20 -5 6 -10 1 -10 -10z"
       id="path3" />
    <path
       d="M4170 8842 c-373 -75 -795 -402 -1074 -832 -77 -119 -170 -330 -171 -386 0 -41 -8 -42 -85 -5 -356 173 -722 -15 -924 -472 -229 -519 -28 -882 399 -721 57 21 108 36 115 31 19 -11 43 -136 59 -309 25 -265 106 -407 269 -472 64 -25 64 -26 52 -79 -25 -110 -13 -348 22 -449 l34 -94 -52 -68 c-29 -37 -55 -76 -58 -86 -3 -10 -41 14 -87 56 -254 229 -532 183 -643 -107 -93 -243 -24 -414 157 -389 69 10 82 -10 82 -130 0 -25 14 -74 31 -109 l30 -64 -66 -97 c-36 -53 -69 -104 -72 -114 -8 -25 -47 -7 -72 32 -18 30 -17 35 16 56 181 117 153 274 -74 411 -358 217 -662 60 -726 -374 -36 -252 86 -378 289 -296 74 29 80 24 105 -100 28 -136 59 -208 107 -245 l45 -36 -80 -26 c-44 -14 -98 -39 -120 -54 -75 -54 -94 -36 -35 34 99 117 11 236 -208 282 -217 44 -357 -73 -380 -321 -17 -182 49 -264 198 -244 101 14 136 -57 93 -191 -112 -355 18 -752 349 -1065 122 -114 123 -103 -13 -195 -54 -36 -97 -54 -132 -54 -202 0 -333 -271 -206 -430 118 -148 321 -149 447 -3 116 136 298 135 221 -2 -104 -184 31 -405 248 -405 172 0 295 143 287 334 -7 157 112 178 206 35 13 -21 53 -51 88 -68 268 -130 495 198 289 418 -36 38 -40 48 -17 40 68 -25 214 -54 271 -54 54 0 64 -6 89 -52 l28 -52 -44 -93 c-31 -64 -62 -104 -102 -130 -132 -88 -172 -270 -86 -389 113 -156 375 -138 464 31 41 78 101 130 148 130 74 0 153 -69 154 -136 0 -65 83 -177 154 -209 289 -132 555 206 339 430 -126 130 35 139 210 12 61 -44 201 -51 271 -15 165 85 196 297 61 419 l-60 54 41 8 c310 63 560 190 753 383 l96 96 -11 -55 c-39 -208 -148 -341 -301 -364 -200 -30 -288 -276 -152 -426 109 -121 272 -112 417 23 140 129 200 95 200 -116 0 -167 34 -234 148 -285 236 -108 482 128 377 361 -66 145 72 144 210 -1 102 -107 233 -135 353 -74 148 76 192 301 80 407 -47 44 -45 67 8 95 53 28 147 30 190 4 191 -111 249 -121 366 -61 276 142 146 522 -168 491 -85 -9 -269 36 -290 70 -4 7 26 55 67 106 524 650 173 1593 -536 1438 -31 -7 -39 5 -87 120 -94 225 -99 188 44 331 353 355 334 751 -54 1164 l-45 48 27 98 c20 77 25 132 18 248 -6 115 -3 154 12 167 25 20 59 114 82 229 14 71 23 86 43 80 13 -5 56 -20 96 -33 248 -88 388 193 264 528 -72 193 -173 287 -327 301 -89 8 -90 9 -80 47 25 87 11 366 -24 490 -163 572 -517 755 -957 496 -91 -53 -110 -55 -110 -11 0 92 -178 361 -354 537 -385 382 -839 558 -1236 477z m465 -124 c561 -167 1127 -773 1035 -1111 -72 -268 -471 -408 -1350 -475 -1301 -99 -1618 191 -1045 953 268 355 586 575 963 666 61 15 303 -5 397 -33z m1766 -896 c225 -94 447 -681 358 -948 -49 -148 -223 -181 -489 -94 -78 25 -229 69 -335 97 -106 29 -202 59 -214 69 -27 22 -27 44 -1 44 30 0 100 59 100 84 0 81 -143 110 -196 38 -29 -40 -34 -41 -90 -27 -112 30 -101 147 21 225 125 80 219 214 220 312 1 135 443 276 626 200z m-3632 -279 c104 -39 149 -83 161 -159 19 -116 150 -247 299 -297 176 -60 35 -225 -250 -292 -184 -42 -295 -83 -489 -180 -469 -233 -651 -129 -540 309 128 500 462 753 819 619z m2601 -387 c0 -56 -3 -59 -69 -82 -116 -39 -221 -125 -370 -301 l-37 -44 -24 134 c-38 203 -36 214 31 225 118 20 314 70 379 96 92 38 90 38 90 -28z m372 -73 c3 -10 -8 -18 -26 -18 -31 0 -40 16 -21 35 14 14 39 5 47 -17z m-994 -89 c9 -70 41 -218 121 -563 79 -343 25 -425 -309 -461 -261 -29 -513 6 -583 80 -80 86 -96 237 -32 318 51 64 60 150 23 222 -18 34 -19 56 -7 105 8 34 20 120 26 190 l11 128 232 10 c128 6 273 17 323 25 181 27 184 27 195 -54z m-1032 16 l169 -10 0 -114 c-1 -157 -12 -170 -88 -102 -123 111 -258 148 -405 111 l-51 -13 25 35 c13 19 24 54 24 78 l0 44 79 -9 c43 -6 154 -14 247 -20z m1844 -34 c162 -99 282 -520 178 -624 -86 -86 -702 44 -781 165 -121 183 402 582 603 459z m-1922 -189 c76 -36 242 -200 255 -252 27 -108 -8 -136 -213 -168 -81 -12 -195 -37 -252 -54 -268 -81 -351 16 -226 262 114 225 258 295 436 212z m2289 -5 c53 -16 144 -43 204 -61 106 -31 108 -32 93 -70 -8 -22 -21 -108 -30 -191 -8 -84 -18 -180 -22 -214 l-8 -62 -106 -9 c-152 -12 -348 -98 -418 -183 -52 -62 -76 -28 -72 102 l5 124 94 9 c202 19 259 175 169 463 -25 82 -28 120 -9 120 3 0 48 -13 100 -28z m-2738 -51 c-13 -18 -39 -62 -57 -97 -40 -77 -45 -78 -79 -14 -36 67 -28 83 60 115 99 36 105 36 76 -4z m3814 -40 c132 -67 230 -319 196 -503 -30 -161 -110 -171 -335 -40 -83 48 -199 106 -256 130 -296 120 -273 238 76 390 138 60 233 67 319 23z m-4050 -83 c17 -37 47 -90 69 -118 28 -38 38 -68 38 -122 0 -79 72 -173 132 -173 27 0 47 -36 48 -85 0 -9 -36 -38 -81 -63 -93 -52 -215 -171 -257 -249 -33 -61 -47 -64 -128 -23 -121 62 -165 162 -194 447 -9 84 -26 181 -38 215 -29 83 -29 84 27 113 57 29 310 123 337 124 9 1 31 -29 47 -66z m3465 29 c4 -4 -15 -30 -42 -58 -93 -96 -75 -245 37 -312 63 -36 63 -40 8 -93 -73 -70 -160 -41 -155 52 6 130 33 383 43 410 10 25 84 26 109 1z m-1392 -278 c27 -14 28 -18 5 -61 -27 -54 -29 -53 -42 21 -11 60 -8 64 37 40z m247 -73 c66 -16 137 -32 159 -37 60 -13 64 -265 4 -304 -76 -50 -384 10 -425 82 -16 29 1 75 57 158 24 34 48 78 53 96 13 41 6 41 152 5z m-1546 -54 c12 -30 36 -73 53 -96 42 -61 40 -62 -52 -30 -53 19 -122 29 -196 29 l-114 0 5 49 c4 47 8 49 110 73 156 38 168 36 194 -25z m-402 -62 c-5 -5 -10 -1 -10 10 0 11 5 16 10 10 6 -5 6 -14 0 -20z m3312 2 c31 -13 82 -40 114 -60 l57 -36 -29 -83 c-16 -45 -29 -101 -29 -125 0 -98 -36 -104 -87 -14 -25 45 -83 115 -129 155 l-82 72 48 56 c55 64 62 66 137 35z m-317 -139 c280 -125 420 -462 316 -757 -34 -96 -26 -116 93 -258 402 -480 285 -892 -350 -1241 -78 -42 -109 -68 -105 -85 7 -36 61 -25 203 43 110 53 125 56 133 33 5 -14 38 -94 74 -177 255 -595 267 -1091 44 -1746 -67 -199 -67 -220 3 -287 116 -110 216 -178 262 -178 206 0 260 -256 68 -329 -69 -26 -129 -3 -214 83 -216 218 -467 140 -367 -113 53 -137 -17 -256 -152 -256 -150 0 -202 87 -170 286 32 206 -258 292 -376 113 -35 -54 -119 -89 -183 -77 -182 34 -157 308 30 308 43 0 145 65 239 152 l70 66 60 247 c35 148 84 303 120 385 133 301 187 697 121 887 -33 94 -85 39 -67 -70 39 -230 -93 -712 -264 -965 -308 -455 -983 -710 -1378 -521 l-112 54 -28 126 c-16 68 -61 225 -101 347 -98 299 -117 469 -82 720 26 184 24 209 -17 183 -123 -77 -128 -534 -10 -891 28 -87 75 -248 103 -358 28 -111 53 -203 55 -205 59 -49 450 -202 517 -202 158 0 242 -115 177 -242 -52 -100 -185 -110 -291 -21 -222 185 -483 6 -295 -202 124 -138 11 -323 -171 -283 -64 14 -135 89 -135 143 0 246 -358 306 -473 79 -46 -91 -105 -125 -199 -115 -176 20 -198 214 -35 317 43 27 72 67 120 161 75 148 77 136 -61 351 -416 645 -509 1185 -287 1660 83 176 34 219 -68 60 -260 -406 -175 -1091 211 -1682 l33 -51 -78 11 c-269 35 -677 249 -992 519 -88 75 -146 116 -155 107 -66 -66 293 -381 636 -557 99 -50 136 -78 157 -118 15 -28 53 -71 83 -96 103 -82 112 -185 24 -260 -78 -65 -157 -47 -256 59 -166 177 -355 104 -355 -138 0 -190 -146 -288 -294 -196 -84 52 -98 214 -23 261 32 19 19 123 -19 168 -72 84 -280 43 -379 -75 -61 -73 -106 -92 -210 -87 -97 5 -161 169 -101 255 30 42 132 91 191 92 27 0 88 32 170 89 l127 89 68 -29 c160 -68 171 0 14 90 -408 235 -655 723 -557 1101 157 599 869 664 1283 116 98 -129 151 -120 84 14 -107 212 -374 407 -621 453 -109 20 -109 21 -43 157 28 56 63 140 78 185 58 180 133 299 303 484 93 100 122 143 144 212 75 238 232 529 302 561 47 21 47 28 0 118 -311 601 396 1204 934 797 95 -72 139 -83 139 -34 0 16 9 21 27 15 147 -46 575 -29 744 30 l107 37 75 -38 c172 -85 387 -111 489 -59 36 19 55 20 95 7 49 -16 113 2 113 32 0 20 167 123 243 151 107 37 290 31 392 -15z m-3830 -1063 c244 -122 253 -235 23 -299 -73 -21 -176 -58 -230 -82 -171 -77 -226 -52 -206 96 36 271 205 388 413 285z m62 -429 c31 -66 10 -129 -73 -222 -95 -105 -120 -100 -132 26 -3 40 -10 97 -15 127 -9 55 -9 55 71 86 108 41 123 40 149 -17z m-597 -143 c271 -127 282 -229 35 -325 -78 -30 -188 -85 -245 -123 -248 -164 -329 -150 -326 53 7 354 247 531 536 395z m97 -475 c26 -38 54 -68 63 -68 37 0 -69 -312 -126 -372 -53 -55 -141 37 -167 175 -11 58 -30 125 -43 149 -28 54 -25 56 114 131 117 63 102 65 159 -15z m-537 -417 c100 -50 94 -91 -25 -169 -50 -33 -120 -86 -154 -117 -138 -125 -189 -108 -187 63 2 240 151 330 366 223z m5702 -120 c470 -231 438 -973 -62 -1407 -119 -103 -118 -157 2 -96 43 23 52 21 204 -31 139 -48 170 -54 246 -45 137 15 223 -46 223 -158 0 -146 -169 -208 -300 -111 -133 98 -317 88 -409 -22 -55 -65 -117 -53 -241 47 -116 93 -112 67 -40 292 175 548 195 1040 58 1451 -43 127 -37 133 111 127 97 -4 141 -14 208 -47z m-5677 -154 c5 -13 -13 -46 -46 -82 -30 -33 -54 -67 -54 -75 0 -32 -27 -13 -46 32 -19 47 -18 49 38 98 63 55 94 62 108 27z"
       id="path4" />
    <path
       d="M4065 8641 c-108 -38 -184 -118 -209 -221 -59 -248 221 -459 464 -349 394 178 155 711 -255 570z m231 -82 c221 -92 156 -406 -88 -426 -177 -14 -314 134 -264 286 43 132 211 199 352 140z"
       id="path5" />
    <path
       d="M4935 8246 c-228 -116 -141 -460 122 -485 243 -24 377 242 211 420 -91 97 -221 122 -333 65z m233 -86 c66 -41 101 -128 81 -200 -48 -174 -325 -144 -354 39 -24 151 136 245 273 161z"
       id="path6" />
    <path
       d="M3420 7975 c-74 -23 -171 -126 -200 -212 -117 -342 303 -584 555 -321 246 257 -12 643 -355 533z m243 -95 c140 -70 156 -291 29 -398 -216 -182 -512 51 -373 294 74 129 212 171 344 104z"
       id="path7" />
    <path
       d="M4501 7654 c-102 -54 -130 -177 -62 -273 85 -120 290 -83 333 60 45 151 -128 288 -271 213z m164 -94 c65 -65 17 -170 -78 -170 -54 0 -102 49 -102 104 0 50 51 96 105 96 25 0 58 -13 75 -30z"
       id="path8" />
    <path
       d="M6019 7666 c-118 -55 -164 -183 -106 -298 106 -211 440 -134 440 102 0 167 -176 270 -334 196z m211 -98 c66 -61 48 -174 -35 -223 -150 -88 -303 94 -181 216 59 59 157 62 216 7z"
       id="path9" />
    <path
       d="M6426 7215 c-89 -36 -125 -169 -66 -244 92 -117 285 -52 285 94 0 106 -122 190 -219 150z m114 -90 c52 -52 17 -135 -58 -135 -79 0 -109 96 -44 142 44 31 66 29 102 -7z"
       id="path10" />
    <path
       d="M2494 7469 c-239 -121 -158 -456 110 -456 320 0 336 440 18 481 -48 6 -81 -1 -128 -25z m225 -103 c41 -37 49 -54 49 -112 0 -182 -240 -228 -321 -61 -74 149 143 288 272 173z"
       id="path11" />
    <path
       d="M2160 6980 c-199 -64 -171 -320 35 -320 109 0 189 124 143 219 -33 66 -124 118 -178 101z m87 -98 c29 -29 22 -114 -11 -131 -91 -49 -179 47 -111 122 28 31 95 36 122 9z"
       id="path12" />
    <path
       d="M5447 6879 c-163 -90 -30 -351 138 -272 98 47 115 161 34 242 -55 55 -109 65 -172 30z m147 -103 c19 -33 19 -42 -4 -77 -44 -68 -145 -32 -145 51 0 90 103 108 149 26z"
       id="path13" />
    <path
       d="M5092 6690 c-38 -43 -35 -118 7 -152 74 -60 181 -14 181 77 0 93 -126 143 -188 75z m119 -54 c11 -29 -15 -66 -46 -66 -25 0 -41 37 -30 68 12 30 64 28 76 -2z"
       id="path14" />
    <path
       d="M3377 6697 c-66 -74 -64 -143 4 -211 108 -108 278 -41 279 111 0 149 -184 214 -283 100z m172 -18 c60 -41 55 -128 -10 -162 -74 -38 -134 3 -134 91 0 58 94 104 144 71z"
       id="path15" />
    <path
       d="M6852 6574 c-134 -83 -67 -319 91 -319 71 0 119 25 153 78 93 150 -93 335 -244 241z m154 -78 c71 -71 43 -166 -49 -166 -110 0 -145 138 -49 192 43 25 50 23 98 -26z"
       id="path16" />
    <path
       d="M6027 5784 c-319 -141 -222 -654 123 -654 345 0 450 519 132 652 -66 27 -197 28 -255 2z m262 -98 c76 -29 88 -144 19 -190 -101 -65 -207 81 -121 167 41 41 50 43 102 23z"
       id="path17" />
    <path
       d="M3443 5777 c-389 -101 -363 -663 34 -729 325 -54 544 379 313 620 -88 92 -235 138 -347 109z m261 -136 c37 -20 66 -97 55 -143 -30 -119 -219 -78 -219 47 0 87 86 137 164 96z"
       id="path18" />
    <path
       d="M5358 4932 c-56 -56 18 -169 87 -132 61 33 32 150 -37 150 -18 0 -40 -8 -50 -18z"
       id="path19" />
    <path
       d="M4946 4904 c-58 -34 -13 -149 58 -149 70 0 92 100 33 142 -39 27 -55 28 -91 7z"
       id="path20" />
    <path
       d="M5610 4489 c-182 -14 -550 -71 -804 -124 -839 -174 -798 -161 -756 -240 31 -58 34 -58 518 50 672 150 1010 193 1513 196 324 1 360 4 375 28 23 36 -5 76 -60 88 -45 10 -668 12 -786 2z"
       id="path21" />
    <path
       d="M2273 4951 c-133 -56 -103 -256 39 -256 61 0 133 72 133 133 0 84 -98 154 -172 123z m89 -75 c32 -36 19 -87 -30 -109 -69 -31 -111 51 -57 111 32 35 54 34 87 -2z"
       id="path22" />
    <path
       d="M1669 4380 c-41 -17 -94 -100 -94 -148 0 -96 149 -168 234 -112 159 104 37 331 -140 260z m113 -68 c64 -45 32 -142 -47 -142 -85 0 -115 75 -55 135 36 36 58 38 102 7z"
       id="path23" />
    <path
       d="M1511 4049 c-32 -19 -34 -79 -3 -104 34 -29 97 4 97 49 0 61 -42 85 -94 55z m44 -54 c-5 -5 -14 -5 -20 0 -5 6 -1 10 10 10 11 0 16 -4 10 -10z"
       id="path24" />
    <path
       d="M1221 3442 c-32 -49 -15 -110 38 -137 46 -23 92 -5 121 45 55 97 -98 185 -159 92z m114 -47 c0 -28 -43 -43 -63 -23 -12 12 -12 23 2 39 21 26 61 16 61 -16z"
       id="path25" />
    <path
       d="M6785 8510 c6 -6 15 -6 20 0 6 6 1 10 -10 10 -11 0 -15 -4 -10 -10z"
       id="path26" />
    <path
       d="M1505 8030 c6 -6 15 -6 20 0 6 6 1 10 -10 10 -11 0 -15 -4 -10 -10z"
       id="path27" />
    <path
       d="M8060 8030 c6 -6 14 -6 20 0 6 6 1 10 -10 10 -11 0 -16 -4 -10 -10z"
       id="path28" />
    <path
       d="M7665 7905 c0 -11 5 -16 10 -10 6 6 6 14 0 20 -5 6 -10 1 -10 -10z"
       id="path29" />
    <path
       d="M8866 6786 c1 -17 4 -21 9 -9 5 11 4 24 -1 29 -5 5 -8 -4 -8 -20z"
       id="path30" />
    <path
       d="M8810 6740 c6 -5 15 -5 20 0 6 6 1 10 -10 10 -11 0 -16 -4 -10 -10z"
       id="path31" />
    <path
       d="M8865 6570 c0 -11 5 -15 10 -10 6 6 6 15 0 20 -5 6 -10 1 -10 -10z"
       id="path32" />
    <path
       d="M8525 2960 c6 -5 15 -5 20 0 6 6 1 10 -10 10 -11 0 -16 -4 -10 -10z"
       id="path33" />
    <path
       d="M8787 2750 c11 -5 24 -4 29 1 5 5 -4 8 -20 8 -17 -1 -21 -4 -9 -9z"
       id="path34" />
    <path
       d="M8975 2660 c6 -5 15 -5 20 0 6 6 1 10 -10 10 -11 0 -16 -4 -10 -10z"
       id="path35" />
  </g>
  <path
     style="fill:#ff0000;stroke-width:0.781638"
     d="m 179.13541,220.71639 c -6.14528,-3.13682 -8.34429,-8.99439 -7.7164,-20.55443 0.76472,-14.07918 6.24736,-31.21963 14.35076,-44.86497 4.58218,-7.71595 15.2581,-18.79694 21.49267,-22.30816 13.10802,-7.38225 26.30383,-8.15916 40.21553,-2.3677 7.62923,3.17606 10.59345,6.31882 12.65643,13.4188 3.18386,10.95759 9.73981,17.93488 23.29655,24.79379 9.26795,4.68904 10.8744,6.40807 9.54693,10.21604 -1.64869,4.72944 -10.95801,11.18462 -20.57718,14.26844 -2.14951,0.68911 -7.97614,2.30501 -12.94808,3.59089 -12.64656,3.27074 -18.5038,5.47551 -35.59232,13.39758 -20.18915,9.35948 -25.43856,11.09118 -34.704,11.44829 -5.85597,0.22571 -7.97415,0.006 -10.02089,-1.03857 z m 23.40786,-14.78482 c 5.70004,-3.6573 8.37542,-11.55073 5.77345,-17.03397 -1.79747,-3.7879 -6.6284,-8.03464 -10.43842,-9.17615 -11.59331,-3.47344 -22.40984,10.77225 -16.32968,21.50667 3.92785,6.93454 14.00047,9.19113 20.99465,4.70345 z m 40.26663,-31.45474 c 7.32208,-3.80128 11.90086,-12.64396 10.91047,-21.07065 -1.33629,-11.36976 -9.6519,-18.89486 -21.64708,-19.58926 -5.61294,-0.32492 -6.30399,-0.1825 -10.83688,2.23351 -6.03184,3.21494 -9.88056,7.62366 -11.49082,13.16276 -3.12956,10.76529 2.50352,22.35583 12.77016,26.2757 4.53749,1.73244 16.12028,1.15481 20.29415,-1.01206 z"
     id="path36"
     transform="scale(0.75)" />
  <path
     style="fill:#ff0000;stroke-width:0.781638"
     d="m 320.86223,166.41174 c -29.56075,-2.72055 -47.0095,-10.75677 -52.00019,-23.94927 -5.40747,-14.29421 3.94287,-37.42582 26.62297,-65.861987 19.80684,-24.833689 43.31249,-41.714176 71.49384,-51.34301 8.3094,-2.839107 8.93909,-2.934487 18.7593,-2.841467 17.45887,0.165376 30.90274,3.373117 46.09427,10.998203 21.14628,10.613963 43.69849,29.119952 56.91511,46.703643 5.91342,7.867346 13.23385,22.051698 14.66209,28.409818 0.51631,2.29847 0.77724,6.87105 0.57984,10.16128 -1.15984,19.33206 -19.88082,31.58048 -60.41013,39.52409 -34.92396,6.84496 -94.31347,10.81277 -122.7171,8.1987 z m 91.4516,-16.40645 c 7.17972,-1.93366 12.89702,-8.91224 12.89702,-15.7422 0,-12.70395 -15.24277,-20.99603 -26.24616,-14.27791 -5.29976,3.23576 -8.43779,9.18397 -7.8833,14.94298 1.09028,11.32373 10.46124,17.97804 21.23244,15.07713 z m -86.01749,-4.27894 c 6.48613,-3.2007 12.41085,-9.21911 15.48343,-15.72826 2.22026,-4.70354 2.51352,-6.10437 2.50612,-11.97081 -0.007,-5.53938 -0.35383,-7.38696 -2.08629,-11.11338 -4.78083,-10.283271 -14.51489,-17.002274 -25.55794,-17.641547 -10.41346,-0.602826 -18.71141,2.955855 -24.92692,10.690238 -13.78343,17.151629 -8.12868,39.680189 11.81768,47.081779 6.26701,2.32552 16.59182,1.72773 22.76392,-1.31802 z m 135.81855,-37.25821 c 8.2407,-3.47107 13.82841,-13.060775 12.89273,-22.126668 -0.88885,-8.612111 -8.01914,-17.40028 -16.81039,-20.718987 -11.8679,-4.480149 -25.91432,1.468763 -30.24537,12.809468 -1.81711,4.758049 -1.31165,12.979728 1.10489,17.971628 5.80277,11.986919 20.50447,17.352299 33.05814,12.064559 z M 385.533,82.231263 c 6.65936,-3.27839 13.17496,-10.149163 15.1266,-15.951146 4.41211,-13.11667 -1.6805,-27.374467 -14.36763,-33.62285 -12.35356,-6.0841 -30.26445,-2.363939 -38.46427,7.989175 -4.205,5.309255 -5.78033,9.855368 -5.82293,16.80392 -0.0316,5.154151 0.31898,7.014897 1.9948,10.587775 2.5537,5.444548 5.90651,9.289392 10.88833,12.486211 5.90772,3.79098 9.5246,4.68389 18.01487,4.447385 6.62975,-0.184679 8.07619,-0.498523 12.63023,-2.74047 z"
     id="path37"
     transform="scale(0.75)" />
  <path
     style="fill:#ff0000;stroke-width:0.781638"
     d="m 485.93121,236.46254 c -15.2034,-2.17295 -31.31516,-7.0287 -40.0905,-12.08245 -9.37763,-5.40061 -8.36331,-14.35565 2.97845,-26.29558 11.71648,-12.33441 28.19793,-20.71271 38.62764,-19.63627 5.51546,0.56925 9.07871,2.85933 13.23613,8.50679 7.0853,9.62469 11.18342,21.21676 11.83146,33.46677 0.48649,9.19634 -0.48224,12.97013 -3.90517,15.21293 -2.71608,1.77964 -13.31217,2.16642 -22.67801,0.82781 z M 466.60747,218.8867 c 4.10476,-3.83442 4.12115,-9.78742 0.0377,-13.69959 -1.81708,-1.74087 -3.24675,-2.2977 -6.61699,-2.57719 -4.08063,-0.3384 -4.439,-0.21662 -7.05203,2.39642 -2.42753,2.42753 -2.75293,3.22267 -2.75293,6.72695 0,3.23601 0.40127,4.42312 2.16075,6.39232 3.70139,4.14258 10.22963,4.4919 14.22347,0.76109 z M 499,211.54362 c 5.74214,-4.37974 6.90499,-11.5074 2.90613,-17.81295 -4.33584,-6.8369 -11.11157,-8.93228 -17.79829,-5.50408 -4.88898,2.50653 -6.77737,6.11515 -6.3893,12.20968 0.35057,5.50563 2.64375,9.42581 7.18271,12.2788 3.60511,2.26602 10.32391,1.70776 14.09875,-1.17145 z"
     id="path38"
     transform="scale(0.75)" />
  <path
     style="fill:#ff0000;stroke-width:0.781638"
     d="m 567.5572,199.67351 c -2.74579,-0.59569 -6.6149,-1.61354 -8.59802,-2.26189 -1.98312,-0.64834 -13.37187,-3.99592 -25.30834,-7.43904 -11.93646,-3.44313 -22.75237,-6.80307 -24.03535,-7.46652 -2.95312,-1.52712 -2.9904,-3.1841 -0.0847,-3.76524 3.40264,-0.68053 7.9133,-5.30015 7.9133,-8.10446 0,-3.81418 -3.03857,-5.97219 -8.93802,-6.34784 -4.91556,-0.31299 -5.02396,-0.27591 -8.46476,2.89571 -3.74653,3.45343 -5.41085,3.82586 -9.48667,2.12287 -8.18386,-3.41943 -6.42972,-11.27759 4.32063,-19.3554 10.83568,-8.14193 17.20153,-16.8816 18.56117,-25.4826 0.83986,-5.31293 2.42712,-7.52284 7.98194,-11.1131 11.58438,-7.48734 31.93656,-11.84919 43.60827,-9.34605 8.82072,1.8917 17.27491,10.94198 25.14164,26.91435 8.37171,16.99762 12.09137,32.1188 11.57788,47.06645 -0.24837,7.22977 -0.59141,9.04632 -2.40971,12.76052 -3.62361,7.40185 -9.13157,10.16806 -20.04587,10.06745 -3.70758,-0.0342 -8.9876,-0.54952 -11.73338,-1.14521 z m 15.24436,-15.13913 c 9.77039,-4.43692 10.86167,-18.06195 1.9288,-24.08181 -10.58806,-7.13529 -21.9513,-0.84959 -21.9513,12.14261 0,5.73965 2.0638,9.1765 7.01126,11.67588 4.22216,2.13297 8.69482,2.22349 13.01124,0.26332 z m -32.0502,-29.36171 c 4.70843,-1.39825 9.90944,-5.67893 12.23195,-10.06747 2.39767,-4.53056 2.42015,-13.63898 0.0446,-18.08909 -5.04787,-9.45632 -17.2166,-13.38379 -27.61202,-8.9118 -7.09626,3.05273 -12.50037,10.87976 -12.50037,18.10489 0,3.86359 2.49834,10.12234 5.26143,13.18076 5.78181,6.39977 13.68193,8.42349 22.57439,5.78271 z"
     id="path39"
     transform="scale(0.75)" />
  <path
     style="fill:#ff0000;stroke-width:0.781638"
     d="m 622.52872,259.16674 c -2.6045,-1.0031 -7.99209,-3.65964 -11.97243,-5.90344 -3.98034,-2.24379 -13.3184,-6.99985 -20.75124,-10.56901 -19.41436,-9.32253 -23.00869,-13.3651 -18.23257,-20.50632 3.43625,-5.13785 18.62447,-13.67231 31.04631,-17.44533 14.53126,-4.41374 24.89908,0.73973 32.11741,15.9644 5.41453,11.42015 6.81857,25.5122 3.3945,34.0698 -2.58366,6.4572 -7.00457,7.7011 -15.60198,4.3899 z m 3.08929,-16.73884 c 4.3177,-2.46746 6.98805,-6.71793 7.32628,-11.6614 0.36503,-5.33525 -0.9983,-9.05999 -4.65433,-12.71602 -3.30277,-3.30277 -6.68262,-4.66342 -11.58394,-4.66342 -4.8457,0 -9.34853,2.1431 -11.83262,5.63168 -2.6838,3.76906 -3.00945,11.80727 -0.67381,16.63206 1.83594,3.79255 5.51245,7.10318 9.13968,8.23012 2.95057,0.9167 9.48521,0.14342 12.27874,-1.45302 z"
     id="path40"
     transform="scale(0.75)" />
  <path
     style="fill:#ff0000;stroke-width:0.781638"
     d="m 187.038,394.36701 c -2.539,-1.83462 -2.97242,-5.87779 -1.45692,-13.59094 1.78419,-9.0806 4.98369,-15.54615 9.86474,-19.93464 4.86396,-4.37312 8.00395,-5.44842 14.79021,-5.06496 4.3267,0.24448 6.56737,0.92562 12.15804,3.69591 8.47625,4.20015 15.22376,10.32782 15.22376,13.82529 0,5.13638 -3.38898,7.4444 -18.08002,12.31317 -5.85996,1.94205 -13.71656,4.79856 -17.45913,6.3478 -8.33354,3.44968 -12.64429,4.13994 -15.04068,2.40837 z m 22.81409,-12.58109 c 7.98452,-3.7889 10.02275,-12.82802 4.23833,-18.79603 -6.39858,-6.60165 -15.62222,-4.79539 -19.03224,3.72708 -3.97651,9.93829 5.42513,19.51473 14.79391,15.06895 z"
     id="path41"
     transform="scale(0.75)" />
  <path
     style="fill:#ff0000;stroke-width:0.781638"
     d="m 131.31511,457.82182 c -3.17774,-1.58782 -4.68723,-5.61757 -4.68861,-12.51676 -0.003,-17.23492 6.91484,-31.25448 18.30035,-37.08479 3.01291,-1.54286 5.50599,-2.12004 10.29962,-2.38449 7.71617,-0.42567 12.77794,0.8886 22.27903,5.78466 15.21928,7.84273 18.34917,14.34455 9.83525,20.43109 -1.7958,1.28381 -7.60159,4.19164 -12.90174,6.46185 -5.30015,2.27021 -14.5166,7.05539 -20.481,10.63373 -5.96439,3.57833 -12.96032,7.21889 -15.54651,8.09011 -5.52113,1.85993 -4.68232,1.79083 -7.09639,0.5846 z m 7.84986,-7.59857 c 1.31327,0 3.87471,-3.43176 3.87471,-5.19125 0,-4.53596 -3.1968,-7.36061 -6.9737,-6.16187 -2.69274,0.85464 -3.96923,2.71608 -3.96923,5.78809 0,4.06615 2.47585,6.79883 5.33998,5.89392 0.57254,-0.18089 1.35025,-0.32889 1.72824,-0.32889 z m 22.36311,-16.4885 c 7.86088,-4.8583 7.93943,-17.22055 0.1422,-22.38051 -8.87931,-5.87605 -20.65878,0.6223 -21.59512,11.91332 -0.35879,4.32652 -0.33116,4.39412 3.16601,7.74499 5.47112,5.24226 12.51319,6.29055 18.28691,2.7222 z"
     id="path42"
     transform="scale(0.75)" />
  <path
     style="fill:#ff0000;stroke-width:0.781638"
     d="m 104.27661,518.61634 c -2.80758,-4.28491 -2.09665,-18.07227 1.27241,-24.67617 3.48796,-6.83696 10.33863,-10.11867 18.13141,-8.68557 5.58954,1.02792 13.20141,4.39162 15.51786,6.85736 2.48414,2.64425 1.23025,4.90942 -5.26657,9.51414 -2.87321,2.03643 -8.91017,6.65225 -13.41548,10.25739 -11.76008,9.4104 -13.90308,10.29888 -16.23963,6.73285 z m 14.69093,-12.16863 c 2.79426,-1.29963 4.88649,-4.68954 4.88649,-7.91728 0,-5.61005 -6.71531,-9.8841 -12.05478,-7.67241 -3.12958,1.29631 -4.71825,4.00006 -4.69752,7.99467 0.0333,6.41789 6.07802,10.28696 11.86581,7.59502 z"
     id="path44"
     transform="scale(0.75)" />
  <path
     style="fill:#ff0000;stroke-width:0.781638"
     d="m 283.91037,239.17782 c -4.55454,-2.7769 -5.05644,-7.55164 -1.77514,-16.88752 4.98576,-14.1854 16.16858,-26.18977 26.07599,-27.99169 3.92648,-0.71414 10.91458,0.76341 15.77756,3.33596 4.99624,2.64305 19.48182,16.82964 21.07313,20.63817 3.83608,9.18104 0.084,12.29995 -18.62143,15.47913 -5.21754,0.88677 -14.30493,2.82286 -20.19419,4.30241 -12.47094,3.13306 -18.53935,3.43831 -22.33592,1.12354 z m 35.96639,-13.46692 c 8.38866,-6.39834 7.2419,-20.67947 -1.99737,-24.87424 -3.64874,-1.65658 -8.68151,-1.94544 -12.0128,-0.6895 -2.99226,1.12813 -7.08473,5.16736 -8.9976,8.88057 -3.02829,5.87839 0.24786,13.73275 7.30404,17.51099 4.73423,2.53494 11.78202,2.16342 15.70373,-0.82782 z"
     id="path45"
     transform="scale(0.75)" />
  <path
     style="fill:#ff6600;stroke-width:0.781638"
     d="m 370.49621,268.39421 c -9.58482,-1.6037 -15.78004,-4.70943 -18.75651,-9.40283 -2.97972,-4.69854 -3.90564,-8.01899 -3.88945,-13.948 0.0128,-4.68123 0.42005,-5.83116 5.11081,-14.4305 2.4229,-4.44178 2.50501,-10.08511 0.23501,-16.15221 -1.62335,-4.3388 -1.63466,-4.64406 -0.42842,-11.55848 0.68142,-3.90608 1.65036,-11.34016 2.15318,-16.52016 l 0.91423,-9.41819 20.03219,-1.02129 c 11.0177,-0.56171 22.31848,-1.31688 25.11283,-1.67815 2.79435,-0.36127 8.11945,-0.90117 11.83355,-1.19977 8.07741,-0.64941 7.79144,-0.93962 9.65433,9.79735 0.69457,4.00321 3.496,17.16954 6.2254,29.25852 2.72941,12.08898 5.38645,24.79385 5.90455,28.23306 2.78725,18.50217 -3.36863,25.09927 -26.26372,28.14616 -10.62796,1.41439 -29.0613,1.36298 -37.83798,-0.10551 z"
     id="path46"
     transform="scale(0.75)" />
  <path
     style="fill:#ff6600;stroke-width:0.781638"
     d="m 496.36737,268.15308 c -0.68096,-1.27237 -1.23713,-20.37397 -0.59323,-20.37397 3.25199,0 14.27942,-2.02426 16.58616,-3.04465 3.79727,-1.67974 7.67174,-5.92703 9.10463,-9.98073 1.84395,-5.2166 1.17385,-16.55467 -1.59524,-26.99153 -2.66948,-10.06139 -2.93085,-12.3528 -1.40902,-12.3528 2.03612,0 33.01046,9.51519 33.89153,10.41134 0.68824,0.70002 0.66251,2.08243 -0.10672,5.73407 -0.55747,2.64643 -1.81139,12.34756 -2.78648,21.55808 l -1.7729,16.74639 -8.47355,0.88598 c -14.60246,1.52682 -28.1419,7.0422 -36.87013,15.01932 -2.34721,2.14521 -4.46976,3.90039 -4.71678,3.90039 -0.24702,0 -0.81325,-0.68035 -1.25827,-1.51189 z"
     id="path47"
     transform="scale(0.75)" />
  <path
     style="fill:#ff6600;stroke-width:0.781638"
     d="m 463.51109,271.61993 c -6.43849,-1.29854 -13.33002,-3.88405 -16.04491,-6.01959 -3.06608,-2.41177 -2.31167,-6.12665 2.95553,-14.5537 2.33244,-3.73169 4.69159,-7.92804 5.24255,-9.32522 0.58199,-1.47587 1.53518,-2.51532 2.27478,-2.48066 0.70017,0.0328 6.72496,1.3557 13.38842,2.93975 l 12.11539,2.8801 1.49813,3.06046 c 1.12497,2.29814 1.49814,4.74402 1.49814,9.81933 0,7.65874 -1.62308,12.20185 -4.95037,13.85638 -2.48669,1.23653 -11.40478,1.14881 -17.97766,-0.17685 z"
     id="path48"
     transform="scale(0.75)" />
  <path
     style="fill:#ff6600;stroke-width:0.781638"
     d="m 595.13157,282.7574 c -0.84172,-0.96728 -2.86547,-3.75947 -4.49722,-6.20487 -1.63175,-2.4454 -5.94901,-7.3092 -9.59391,-10.80845 -7.397,-7.10142 -7.28545,-6.20607 -1.53219,-12.29809 1.72548,-1.82708 3.76036,-3.32196 4.52195,-3.32196 3.52458,0 20.17565,8.65218 20.17565,10.48361 0,0.53193 -0.87288,3.53351 -1.93973,6.67019 -1.06685,3.13667 -2.14332,7.50706 -2.39215,9.71196 -0.92739,8.21776 -1.745,9.21211 -4.7424,5.76761 z"
     id="path49"
     transform="scale(0.75)" />
  <path
     style="fill:#ff6600;stroke-width:0.781638"
     d="m 248.02118,286.9208 c -4.74917,-2.18206 -10.08713,-7.44012 -12.24684,-12.06352 -2.62222,-5.61356 -4.07297,-12.1447 -6.01479,-27.07817 -0.92237,-7.09336 -2.46836,-15.95176 -3.43554,-19.68533 -0.96719,-3.73357 -1.54771,-7.11688 -1.29005,-7.51846 1.35163,-2.10656 31.33531,-13.91157 33.36041,-13.13447 0.57516,0.22071 1.98488,2.26444 3.1327,4.54162 1.14783,2.27718 3.64926,6.56412 5.55874,9.52653 2.87858,4.4659 3.65277,6.50427 4.53104,11.92977 0.59106,3.65121 1.79493,7.73387 2.7236,9.23649 2.08437,3.37258 5.94074,6.66713 7.8041,6.66713 2.49047,0 4.82813,2.5718 4.97264,5.47072 0.12773,2.56198 -0.20572,2.92954 -6.5093,7.17524 -9.20416,6.19936 -17.03185,13.56164 -21.60732,20.32262 -4.383,6.47657 -5.70681,7.03239 -10.97939,4.60983 z"
     id="path50"
     transform="scale(0.75)" />
  <path
     style="fill:#ff6600;stroke-width:0.781638"
     d="m 210.34011,420.32561 c -1.32604,-3.51562 -3.18681,-21.16275 -2.33916,-22.18411 1.05338,-1.26924 10.84108,-5.00565 13.64849,-5.21025 1.68499,-0.12279 2.58117,0.43816 3.99008,2.49755 3.84762,5.62402 1.65059,12.52857 -6.79077,21.34119 -5.35963,5.59535 -7.41528,6.45437 -8.50864,3.55562 z"
     id="path51"
     transform="scale(0.75)" />
  <path
     style="fill:#ff6600;stroke-width:0.781638"
     d="m 170.65406,490.13283 c -3.58801,-2.1878 -6.22967,-7.27753 -8.46397,-16.30769 -1.07944,-4.36268 -2.68265,-9.7589 -3.5627,-11.9916 -1.54089,-3.90928 -1.54797,-4.10974 -0.1913,-5.41879 1.93704,-1.86903 17.02986,-10.09969 18.52013,-10.09969 0.66431,0 2.58274,1.84662 4.26318,4.1036 1.68044,2.25698 3.99556,4.97298 5.14473,6.03557 1.83435,1.69615 2.02488,2.31631 1.56094,5.08064 -0.73592,4.38494 -5.47237,17.77919 -8.19261,23.16797 -1.93758,3.83831 -4.71433,6.95472 -6.18743,6.94428 -0.22677,-0.002 -1.52771,-0.68304 -2.89097,-1.51429 z"
     id="path52"
     transform="scale(0.75)" />
  <path
     style="fill:#ff6600;stroke-width:0.246592"
     d="m 126.32028,527.35407 c -0.83004,-0.69843 -2.2748,-3.31074 -2.90647,-5.25524 -0.62229,-1.91564 -0.37179,-2.76062 1.31262,-4.42777 3.93321,-3.89289 8.06451,-6.73234 9.79529,-6.73234 0.89047,0 2.00709,0.93899 2.24531,1.88812 0.31075,1.23814 -0.99652,3.47747 -4.22408,7.23578 -2.98054,3.47067 -4.09848,5.05739 -4.55941,6.4713 -0.22755,0.69801 -0.52911,1.30757 -0.67014,1.35458 -0.14102,0.047 -0.58793,-0.19349 -0.99312,-0.53443 z"
     id="path53"
     transform="scale(0.75)" />
  <path
     style="fill:#ececec;stroke-width:0.68013"
     d="m 150.53236,428.20312 c -4.15841,-1.87138 -4.77606,-5.84332 -1.49057,-9.58529 3.04949,-3.47318 4.20854,-3.95076 6.86253,-2.82769 3.33425,1.41094 4.91556,3.54218 4.91556,6.62505 0,4.96266 -5.38681,7.99337 -10.28752,5.78793 z"
     id="path54"
     transform="scale(0.75)" />
  <path
     style="fill:#ececec;stroke-width:0.180323"
     d="m 113.8586,500.68064 c -0.61835,-0.26923 -1.29223,-1.03476 -1.44432,-1.64076 -0.25083,-0.99936 1.30665,-2.97548 2.62488,-3.33044 2.66187,-0.71677 4.68,2.35029 2.7579,4.19135 -1.0126,0.9699 -2.72376,1.30873 -3.93846,0.77985 z"
     id="path55"
     transform="scale(0.75)" />
  <path
     style="fill:#ececec;stroke-width:0.295274"
     d="m 202.97554,376.34937 c -1.79122,-0.77989 -2.95996,-3.09469 -2.70493,-5.35733 0.35149,-3.11836 3.35915,-6.62445 5.68271,-6.62445 2.65152,0 5.8551,4.16335 5.33536,6.93381 -0.34746,1.85216 -1.74098,3.55063 -3.7276,4.54336 -1.99795,0.99839 -3.15822,1.12607 -4.58554,0.50461 z"
     id="path56"
     transform="scale(0.75)" />
  <path
     style="fill:#ececec;stroke-width:0.295274"
     d="m 229.23303,169.46883 c -4.98395,-0.86531 -9.01802,-3.97594 -11.40598,-8.79505 -1.21378,-2.4495 -1.24388,-2.58242 -1.24388,-5.49147 0,-2.78907 0.0642,-3.1116 0.99608,-5.00453 1.78498,-3.62581 5.6282,-6.67362 10.05645,-7.97511 2.33356,-0.68584 6.38268,-0.6221 8.6328,0.13591 3.5068,1.18136 7.39503,4.41347 8.69765,7.22996 1.45829,3.15308 1.15346,8.76797 -0.68023,12.52967 -1.50237,3.08202 -5.3435,6.15087 -8.8127,7.04086 -1.84744,0.47394 -4.57849,0.61826 -6.24019,0.32976 z"
     id="path57"
     transform="scale(0.75)" />
  <path
     style="fill:#ececec;stroke-width:0.295274"
     d="m 192.42162,200.65379 c -2.15067,-0.5713 -3.76234,-1.83531 -4.70145,-3.68727 -1.22931,-2.42426 -1.03127,-4.44713 0.68226,-6.96912 2.24707,-3.30724 8.62768,-4.17177 11.13446,-1.50863 1.15971,1.23204 1.54441,2.49496 1.54441,5.07 0,3.65393 -1.21163,5.88688 -3.66732,6.7586 -1.82605,0.64821 -3.41545,0.75531 -4.99236,0.33642 z"
     id="path58"
     transform="scale(0.75)" />
  <path
     style="fill:#ececec;stroke-width:0.295274"
     d="m 307.37979,221.29822 c -2.61566,-1.17984 -4.16832,-3.80833 -4.36601,-7.39119 -0.10983,-1.99065 -0.0318,-2.57596 0.47592,-3.57124 1.85839,-3.64274 7.71541,-5.88505 11.09661,-4.24824 3.41836,1.6548 5.1313,5.71467 4.03447,9.5622 -0.55193,1.93612 -2.76262,4.33313 -4.81285,5.2185 -2.00914,0.86762 -5.01251,1.06851 -6.42814,0.42997 z"
     id="path59"
     transform="scale(0.75)" />
  <path
     style="fill:#ececec;stroke-width:0.295274"
     d="m 309.00379,140.1126 c -8.38928,-1.84994 -14.786,-8.04452 -16.56521,-16.04176 -0.93666,-4.2101 -0.17046,-9.43033 2.02348,-13.78616 6.29271,-12.493526 19.17403,-16.78896 31.29708,-10.436404 2.8591,1.498184 6.05524,4.850514 7.55727,7.926574 1.7876,3.66092 2.2383,5.68114 2.23967,10.03931 9.3e-4,2.94951 -0.13313,4.16206 -0.66738,6.0364 -2.34688,8.23366 -9.12462,14.5096 -17.53098,16.23306 -2.70941,0.55548 -5.91589,0.5666 -8.35393,0.029 z"
     id="path60"
     transform="scale(0.75)" />
  <path
     style="fill:#ececec;stroke-width:0.559497"
     d="m 488.59199,206.74398 c -2.45573,-1.06758 -4.06268,-3.86142 -4.06528,-7.06788 -0.006,-7.4514 8.98819,-8.52018 12.63976,-1.50198 0.43235,0.83095 0.78608,2.06011 0.78608,2.73144 0,1.94607 -2.24549,5.04966 -4.26356,5.89287 -2.26938,0.9482 -2.80372,0.9425 -5.097,-0.0545 z"
     id="path61"
     transform="scale(0.75)" />
  <path
     style="fill:#ececec;stroke-width:0.0541387"
     d="m 506.90741,171.86097 c -0.7286,-0.15809 -1.33357,-0.56243 -1.47282,-0.98437 -0.15216,-0.46102 0.0451,-1.06638 0.54568,-1.67445 0.75929,-0.92238 1.74877,-1.1245 2.85508,-0.58324 0.62314,0.30488 1.37042,1.18894 1.53709,1.81845 0.0799,0.30179 0.0108,0.60084 -0.19539,0.84591 -0.17741,0.21085 -0.69403,0.47825 -1.11622,0.57777 -0.43905,0.10349 -1.67633,0.10345 -2.15342,-7e-5 z"
     id="path62"
     transform="scale(0.75)" />
  <path
     style="fill:#ececec;stroke-width:0.335316"
     d="m 573.22299,177.83103 c -4.52481,-2.38542 -5.17843,-7.76485 -1.3517,-11.12476 1.66316,-1.46027 3.62292,-2.40135 5.00075,-2.40135 2.20249,0 5.96063,3.70869 6.40132,6.31709 0.47228,2.79538 -1.26903,5.89481 -4.01181,7.14083 -1.66404,0.75596 -4.66958,0.7899 -6.03856,0.0682 z"
     id="path63"
     transform="scale(0.75)" />
  <path
     style="fill:#ececec;stroke-width:0.335316"
     d="m 539.26288,148.21934 c -5.25146,-1.88971 -8.83677,-7.24774 -8.36097,-12.49497 0.3762,-4.14879 3.58509,-8.40067 7.84413,-10.39371 1.78878,-0.83708 2.82135,-1.08545 4.98454,-1.19899 10.1189,-0.53111 16.36841,8.42389 12.00638,17.20409 -2.93557,5.90895 -10.45324,9.05016 -16.47408,6.88358 z"
     id="path64"
     transform="scale(0.75)" />
  <path
     style="fill:#ececec;stroke-width:0.335316"
     d="m 614.63453,236.37156 c -1.85214,-0.83742 -3.51411,-2.38792 -4.46455,-4.16512 -1.01395,-1.89595 -1.01137,-5.81572 0.005,-7.73514 1.44656,-2.73156 6.0924,-5.84597 8.00464,-5.36603 1.23558,0.31011 5.58301,4.60285 6.65363,6.56992 1.62732,2.98993 1.53808,6.66982 -0.21581,8.89953 -1.83127,2.32809 -6.8215,3.22628 -9.98301,1.79684 z"
     id="path65"
     transform="scale(0.75)" />
  <path
     style="fill:#ececec;stroke-width:0.335316"
     d="m 457.69089,215.02133 c -0.9314,-0.8322 -1.11659,-1.25642 -1.24982,-2.863 -0.14529,-1.752 -0.0839,-1.95857 0.86407,-2.90652 0.79694,-0.79694 1.31428,-1.02047 2.3618,-1.02047 1.54796,0 3.205,1.17064 3.53862,2.4999 0.28421,1.13239 -0.68422,3.40443 -1.78528,4.18845 -1.63229,1.1623 -2.51538,1.18636 -3.72939,0.10164 z"
     id="path66"
     transform="scale(0.75)" />
  <path
     style="fill:#ececec;stroke-width:0.335316"
     d="m 404.15475,142.00582 c -4.25512,-2.15212 -6.39229,-7.29434 -4.60073,-11.06977 0.84716,-1.78527 2.90268,-3.77127 4.78726,-4.62535 5.63533,-2.55391 12.79203,1.81332 12.79203,7.80607 0,4.67856 -3.82843,8.4082 -8.88588,8.65658 -2.00785,0.0986 -2.59958,-0.0124 -4.09268,-0.76753 z"
     id="path67"
     transform="scale(0.75)" />
  <path
     style="fill:#ececec;stroke-width:0.335316"
     d="m 448.31771,102.10335 c -8.72239,-1.97656 -14.19704,-9.502896 -13.03292,-17.917167 1.56492,-11.311319 15.37944,-15.903084 25.30331,-8.410489 2.09138,1.579006 4.50538,5.091187 5.47036,7.958941 0.84884,2.522605 0.93612,6.56006 0.19571,9.053304 -1.20121,4.044909 -4.92888,7.768071 -9.00053,8.989651 -2.54689,0.76411 -6.3842,0.90401 -8.93593,0.32576 z"
     id="path68"
     transform="scale(0.75)" />
  <path
     style="fill:#ececec;stroke-width:0.375158"
     d="m 365.85461,76.148738 c -3.68925,-0.966523 -6.89708,-2.737557 -9.69717,-5.353773 -2.79896,-2.615162 -4.30063,-4.882718 -5.39305,-8.143598 -0.67658,-2.0196 -0.79323,-3.083028 -0.67899,-6.190105 0.12552,-3.414026 0.26501,-4.019001 1.55027,-6.723724 3.49066,-7.345766 11.76097,-12.23249 20.67476,-12.216204 7.59201,0.01387 14.99414,3.720858 18.53874,9.28421 3.40416,5.342901 3.62812,12.522459 0.58641,18.797955 -1.48237,3.058343 -6.0205,7.483467 -9.24509,9.014863 -4.88344,2.319209 -11.10142,2.90172 -16.33588,1.530376 z"
     id="path69"
     transform="scale(0.75)" />
  <path
     style="fill:#ececec;stroke-width:0.0100523"
     d="m 137.24963,445.21181 c -0.29268,-0.0318 -0.60104,-0.15596 -0.78195,-0.3148 -0.0516,-0.0453 -0.14193,-0.18383 -0.17459,-0.26778 -0.0392,-0.10085 -0.0394,-0.2082 -2.8e-4,-0.28788 0.1117,-0.22785 0.54419,-0.35562 1.13776,-0.33613 0.53353,0.0175 0.88376,0.13874 0.9844,0.3407 0.0331,0.0663 0.0353,0.16239 0.006,0.2465 -0.0407,0.11581 -0.17606,0.28353 -0.31065,0.38491 -0.13445,0.10128 -0.33207,0.18613 -0.50355,0.21622 -0.0892,0.0156 -0.28759,0.0258 -0.35686,0.0183 z"
     id="path70"
     transform="scale(0.75)" />
  <path
     style="fill:#ffffff;stroke-width:1.47902"
     d="m 381.58768,745.94168 c -8.67568,-2.85819 -13.3112,-8.42748 -13.3112,-15.9926 0,-5.75603 -8.36457,-13.98157 -15.94306,-15.67806 -11.28625,-2.52653 -20.25087,1.49129 -27.08299,12.13826 -2.42999,3.78678 -6.36568,7.6813 -8.76824,8.67647 -6.03288,2.4989 -13.97455,0.71594 -17.65566,-3.96382 -5.36023,-6.81443 -3.4343,-13.05929 6.70379,-21.73711 6.64685,-5.68948 15.41745,-20.74375 15.41745,-26.46327 0,-2.01857 -4.39666,-10.91047 -9.77034,-19.75977 -18.99104,-31.27414 -28.31039,-52.74426 -33.30533,-76.72956 -4.84689,-23.27436 -2.43403,-47.20747 6.88333,-68.27568 4.5679,-10.32882 5.20667,-15.75612 1.93371,-16.42943 -3.25293,-0.6692 -10.69305,10.21643 -15.17402,22.20111 -9.28805,24.84151 -8.48045,57.00461 2.2245,88.59175 4.14877,12.24174 13.63205,32.67618 19.16848,41.30396 2.40643,3.75011 4.37532,7.25927 4.37532,7.79815 0,1.8555 -7.10691,0.97257 -17.22271,-2.13964 -21.02415,-6.4683 -49.49297,-22.71592 -72.25812,-41.23889 -5.69423,-4.63316 -11.85066,-9.21696 -13.68095,-10.18625 -3.07583,-1.62891 -3.3278,-1.45088 -3.3278,2.35132 0,8.09537 26.42722,30.40196 55.35624,46.72489 11.89159,6.7097 28.08413,22.95722 29.83602,29.9373 1.77624,7.07711 -7.67797,16.4153 -14.80759,14.62589 -2.13381,-0.53556 -7.10887,-3.87708 -11.05569,-7.42561 -11.71989,-10.53719 -19.42378,-12.0943 -26.79878,-5.41659 -3.82735,3.46549 -4.81091,5.92746 -6.64732,16.63899 -1.8364,10.71154 -2.81996,13.1735 -6.64732,16.639 -5.32146,4.81834 -10.72515,5.18721 -17.29602,1.18067 -7.33712,-4.47374 -9.50889,-17.7532 -3.50979,-21.46084 2.74126,-1.69419 1.79047,-11.94918 -1.49514,-16.12616 -2.6146,-3.32393 -4.1915,-3.89224 -10.72291,-3.86454 -8.86495,0.0376 -17.88575,3.74383 -23.18725,9.52659 -10.82122,11.80348 -24.63298,10.71683 -28.11434,-2.21192 -2.72412,-10.11663 3.36003,-16.28763 19.52735,-19.80606 2.19158,-0.47694 8.474,-3.94068 13.96093,-7.69717 l 9.97624,-6.83001 8.02209,2.52875 c 5.57544,1.75749 8.49319,2.05761 9.56678,0.98403 2.24206,-2.24206 -0.92225,-5.49753 -12.67247,-13.0375 -31.82589,-20.42231 -52.35842,-59.40344 -47.09164,-89.40376 4.7773,-27.21218 24.87378,-46.43394 50.46108,-48.2647 22.52493,-1.61165 44.16486,9.92113 65.26341,34.78145 5.94192,7.00133 8.72295,7.94666 8.70214,2.95804 -0.0237,-5.67654 -8.27703,-18.08156 -17.70883,-26.61683 -10.76836,-9.74482 -22.45552,-16.2403 -35.52732,-19.74535 -5.28462,-1.41702 -10.13838,-3.02701 -10.78613,-3.57776 -0.64775,-0.55076 1.13232,-6.26178 3.9557,-12.69115 2.82339,-6.42937 6.53665,-15.4474 8.2517,-20.04006 4.04466,-10.83105 12.06401,-22.98806 24.13793,-36.59217 8.12333,-9.15282 10.70017,-13.47123 15.88589,-26.62239 8.05574,-20.42964 15.35215,-33.62449 22.30206,-40.33115 l 5.60252,-5.40642 -4.71468,-10.86282 c -4.16989,-9.60762 -4.70849,-12.40094 -4.66118,-24.17402 0.0466,-11.58739 0.60693,-14.45622 4.32704,-22.15308 12.73848,-26.35568 42.9324,-39.0127 69.20352,-29.00947 2.24659,0.85543 8.20258,4.23106 13.23553,7.50141 9.43265,6.12922 14.47874,7.48312 14.47874,3.88476 0,-1.66967 1.19429,-1.78199 6.28584,-0.5912 9.98418,2.33508 45.72664,0.41646 59.53063,-3.19555 l 11.83218,-3.09605 8.22225,3.68888 c 12.67803,5.68794 27.2309,7.72237 37.83098,5.28863 4.76882,-1.09491 11.16672,-1.8322 14.21754,-1.63843 4.46619,0.28366 6.41946,-0.52019 10.02494,-4.12568 2.4629,-2.46289 8.77773,-6.59474 14.03296,-9.18188 8.26785,-4.07025 11.11299,-4.7039 21.12081,-4.7039 14.13291,0 22.24734,3.1967 32.53066,12.81553 14.5019,13.56483 19.93321,34.30734 14.46783,55.25347 -2.83311,10.85791 -2.93508,10.57384 9.95103,27.71713 4.89164,6.5077 10.93593,16.15832 13.43174,21.44582 3.87074,8.2004 4.54312,11.35695 4.57389,21.47251 0.0317,10.43429 -0.54239,13.03438 -4.77914,21.64433 -6.2251,12.65066 -20.23292,25.97316 -40.2302,38.26192 -10.4745,6.43681 -14.85029,9.94165 -14.50493,11.61784 0.69726,3.38397 6.27878,2.49335 18.17321,-2.89983 5.44339,-2.46816 10.09667,-4.282 10.34059,-4.03076 1.28705,1.32554 14.35564,35.27563 16.85606,43.78927 7.29906,24.8524 9.55612,55.00001 5.92524,79.14303 -2.00743,13.34805 -7.50346,35.389 -12.39793,49.71984 -2.06289,6.04009 -3.75071,12.811 -3.75071,15.0465 0,8.02192 16.59784,22.32445 29.967,25.82288 13.60401,3.55989 18.30822,13.53495 10.66613,22.61706 -4.37269,5.19663 -10.9245,7.08573 -15.77277,4.54778 -1.878,-0.98307 -6.28335,-4.40594 -9.7897,-7.60635 -11.23143,-10.2515 -25.11832,-13.29396 -31.50903,-6.90325 -3.25596,3.25596 -3.27735,4.45959 -0.43255,24.33673 0.72738,5.08229 0.24571,6.74969 -3.09753,10.72291 -3.36321,3.99694 -4.9551,4.70483 -10.58022,4.70483 -3.64173,0 -7.81743,-0.64012 -9.27931,-1.4225 -4.38564,-2.34713 -6.52202,-9.61794 -5.46603,-18.60275 1.75495,-14.93193 -4.82206,-22.86639 -18.95433,-22.86639 -5.98127,0 -7.60394,0.80647 -14.87934,7.39511 -6.55844,5.93935 -9.1951,7.39511 -13.39408,7.39511 -7.31539,0 -12.4888,-5.37944 -12.4888,-12.98615 0,-6.95269 4.1697,-11.34878 12.10575,-12.76299 5.3254,-0.94898 19.89409,-10.61531 25.42831,-16.87167 1.5819,-1.78832 5.1903,-12.54729 8.38453,-24.99972 3.08413,-12.02316 8.0525,-28.15119 11.04085,-35.84005 2.98834,-7.68886 6.73435,-19.00337 8.32446,-25.14337 6.93507,-26.77869 4.00191,-66.59705 -4.09053,-55.52999 -1.39947,1.91389 -1.71505,5.65959 -1.1094,13.16741 1.46142,18.11608 -7.13807,51.48854 -19.0048,73.75278 -5.78617,10.85598 -20.86039,27.26636 -33.01045,35.93646 -12.03845,8.59046 -31.6149,17.70999 -44.46387,20.71313 -15.80773,3.6947 -37.1645,2.42079 -48.90736,-2.91725 -8.88969,-4.04106 -9.18033,-4.35432 -10.91549,-11.76432 -0.98043,-4.18699 -4.30207,-15.9322 -7.38141,-26.10048 -11.3113,-37.35091 -12.32468,-44.43544 -9.99303,-69.86007 0.94998,-10.35858 1.21623,-19.34364 0.59167,-19.96679 -1.73756,-1.73361 -7.95116,6.32171 -9.68095,12.5504 -2.23056,8.0318 -1.90315,35.26891 0.57993,48.24688 1.17485,6.14032 4.45338,19.01089 7.28565,28.60128 2.83227,9.59038 6.62676,23.01646 8.4322,29.83574 l 3.28263,12.39867 11.98681,5.56353 c 12.50731,5.80512 28.64579,11.09625 38.40471,12.5913 11.87452,1.81915 16.75271,13.63931 9.23561,22.37845 -5.0863,5.91319 -12.74506,5.63989 -22.80204,-0.81366 -9.27358,-5.95083 -16.44823,-7.77239 -23.23384,-5.8988 -10.68068,2.94909 -12.33618,12.37374 -4.36997,24.87803 5.72193,8.98157 6.27731,12.575 2.72688,17.64395 -1.92559,2.74916 -10.8317,7.97419 -12.70064,7.45119 -0.2295,-0.0642 -1.4156,-0.44566 -2.63579,-0.84766 z m 24.40386,-316.26591 c 59.25159,-12.90016 89.15901,-16.88838 128.67491,-17.15907 32.18836,-0.22049 39.80628,-1.19703 40.37473,-5.17557 0.96903,-6.78228 -1.95644,-7.27006 -43.19178,-7.20164 -42.98197,0.0713 -53.15183,1.16312 -104.41204,11.20932 -44.08422,8.63981 -68.10491,14.54976 -69.03991,16.9863 -0.43965,1.14572 0.3312,3.8086 1.71302,5.91752 3.07149,4.68769 3.54526,4.64042 45.88107,-4.57686 z m 44.85128,-57.62232 c 0.93746,-7.87737 -9.50411,-13.3649 -13.00028,-6.83225 -2.25235,4.20858 -1.92204,5.75679 2.08264,9.76147 4.64376,4.64376 10.1936,3.15473 10.91764,-2.92922 z m 35.99693,-1.49785 c 2.23146,-4.89753 -1.67396,-11.15325 -6.96291,-11.15325 -5.39247,0 -7.85719,5.98004 -4.54698,11.03207 3.27827,5.00327 9.25677,5.06621 11.50989,0.12118 z M 326.76387,349.1002 c 14.93341,-7.61846 22.80777,-26.18981 17.644,-41.61268 -5.75032,-17.17473 -27.03899,-26.7592 -43.84415,-19.73928 -21.32219,8.90679 -26.48595,38.13944 -9.70558,54.94442 9.45802,9.47187 24.60184,12.17436 35.90573,6.40754 z m 230.48499,-6.7772 c 11.693,-4.88565 18.0041,-15.03606 18.05822,-29.04381 0.0387,-10.01395 -1.73225,-15.25771 -7.08697,-20.98475 -5.49447,-5.87649 -12.00292,-8.32645 -22.04373,-8.29789 -15.36852,0.0437 -25.76059,9.45823 -27.93263,25.30505 -3.20084,23.35268 18.39288,41.63374 39.00511,33.0214 z"
     id="path71"
     transform="scale(0.75)" />
  <path
     style="fill:#ffffff;stroke-width:0.172901"
     d="m 323.13755,317.19317 c -2.95058,-0.74733 -5.67295,-2.73986 -7.09552,-5.19328 -0.82659,-1.42556 -1.20919,-2.90891 -1.2264,-4.75478 -0.0274,-2.93856 0.84623,-5.1674 2.78566,-7.10683 3.04791,-3.04791 7.61449,-3.60549 11.62993,-1.42002 2.61701,1.42436 4.98645,6.45872 4.98645,10.59475 0,3.44685 -2.00361,6.41597 -5.14817,7.629 -1.26732,0.48888 -4.45974,0.62405 -5.93195,0.25116 z"
     id="path72"
     transform="scale(0.75)" />
  <path
     style="fill:#ffffff;stroke-width:0.347835"
     d="m 552.88154,311.90806 c -3.35527,-1.60499 -5.37363,-4.83359 -5.37363,-8.59575 0,-2.67341 0.72213,-4.49171 2.61674,-6.58882 1.97402,-2.18499 4.0379,-3.27989 5.63638,-2.99011 1.72744,0.31317 4.92218,1.78124 5.93929,2.72928 2.18444,2.03611 3.29194,6.28281 2.49971,9.58519 -1.23643,5.15402 -6.787,8.02786 -11.31849,5.86021 z"
     id="path73"
     transform="scale(0.75)" />
  <path
     style="fill:#ffffff;stroke-width:0.818208"
     d="m 621.42921,666.94334 c -6.86572,-3.14019 -17.59148,-12.45666 -17.59148,-15.28009 0,-0.96419 1.86781,-7.7931 4.15069,-15.17535 15.72797,-50.86024 17.56134,-89.81902 6.06532,-128.88709 -1.56867,-5.33098 -2.85213,-9.76483 -2.85213,-9.85298 0,-0.0882 0.57859,-0.73888 1.28576,-1.44605 2.92113,-2.92113 20.07011,-1.01278 28.57884,3.18028 40.30384,19.86149 39.20911,81.43943 -2.15342,121.12894 -7.82223,7.50583 -11.34701,11.60742 -11.34701,13.20384 0,1.66565 4.45088,1.38191 8.18208,-0.52161 1.7642,-0.90003 3.79747,-1.63641 4.51838,-1.63641 0.72091,0 6.53463,1.7335 12.91938,3.85223 10.95897,3.63664 12.23496,3.87704 22.80027,4.29559 9.60229,0.3804 11.51233,0.68294 13.44988,2.13034 3.68583,2.75342 5.42824,5.72105 5.83313,9.9349 0.49617,5.16367 -1.20473,9.1828 -5.16423,12.20286 -2.73379,2.08516 -3.76135,2.35793 -8.88256,2.35793 -5.43443,0 -6.18604,-0.2354 -12.2019,-3.82159 -7.64068,-4.55477 -12.74757,-5.93019 -20.06744,-5.40473 -6.40201,0.45958 -10.65705,2.4203 -16.48488,7.59624 -4.56443,4.05386 -6.1762,4.36672 -11.03868,2.14275 z"
     id="path74"
     transform="scale(0.75)" />
</svg>
