<?xml version="1.0" encoding="UTF-8" standalone="no"?>
<svg
   version="1.0"
   width="926"
   height="936"
   viewBox="137 218 926 936"
   preserveAspectRatio="xMidYMid meet"
   id="svg6"
   sodipodi:docname="frog15.svg"
   inkscape:version="1.4.3 (0d15f75, 2025-12-25)"
   xmlns:inkscape="http://www.inkscape.org/namespaces/inkscape"
   xmlns:sodipodi="http://sodipodi.sourceforge.net/DTD/sodipodi-0.dtd"
   xmlns="http://www.w3.org/2000/svg"
   xmlns:svg="http://www.w3.org/2000/svg"><g transform="scale(-1,1) translate(-1200,0)">
  <defs
     id="defs6" />
  <sodipodi:namedview
     id="namedview6"
     pagecolor="#505050"
     bordercolor="#ffffff"
     borderopacity="1"
     inkscape:showpageshadow="0"
     inkscape:pageopacity="0"
     inkscape:pagecheckerboard="1"
     inkscape:deskcolor="#505050"
     inkscape:zoom="0.33696962"
     inkscape:cx="-216.63674"
     inkscape:cy="164.70327"
     inkscape:window-width="1728"
     inkscape:window-height="1056"
     inkscape:window-x="0"
     inkscape:window-y="33"
     inkscape:window-maximized="1"
     inkscape:current-layer="svg6" />
  <metadata
     id="metadata1">
Created by potrace 1.16, written by Peter Selinger 2001-2019
</metadata>
  <g
     transform="translate(0.000000,1254.000000) scale(0.100000,-0.100000)"
     fill="#000000"
     stroke="none"
     id="g6">
    <path
       d="M3592 10040 c-239 -79 -407 -299 -452 -595 -9 -55 -10 -136 -6 -257 5 -117 3 -191 -4 -220 -7 -28 -41 -84 -97 -158 -149 -198 -198 -334 -191 -520 8 -167 55 -277 178 -417 72 -81 155 -150 435 -358 380 -284 466 -360 579 -513 l38 -52 -42 -168 c-77 -305 -247 -789 -426 -1209 -169 -397 -431 -945 -513 -1074 -72 -113 -510 -339 -842 -434 -66 -19 -128 -35 -138 -35 -9 0 -37 10 -62 22 -62 30 -158 30 -221 -1 -89 -43 -158 -150 -158 -246 0 -183 194 -316 357 -245 28 12 61 33 74 46 20 21 31 24 93 24 89 0 152 -26 162 -65 9 -35 -8 -87 -53 -169 -31 -55 -42 -67 -68 -72 -54 -10 -132 -61 -164 -107 -41 -59 -65 -147 -56 -205 21 -151 136 -252 285 -252 78 0 141 24 199 76 64 57 93 120 95 203 l1 63 100 97 c114 109 207 178 315 232 94 47 139 59 216 59 93 0 118 -12 132 -64 28 -105 120 -175 242 -184 64 -4 76 -2 134 27 72 35 117 84 141 151 21 59 19 156 -4 206 -23 50 -81 108 -132 131 -34 14 -39 22 -48 65 -35 159 -21 322 36 433 61 120 216 388 483 840 239 405 405 706 510 927 36 76 69 137 74 138 4 0 34 -22 65 -48 196 -168 514 -374 745 -482 l117 -55 -5 -50 c-8 -73 -96 -423 -156 -615 -165 -536 -422 -1149 -620 -1480 -66 -110 -75 -119 -200 -202 -225 -149 -654 -337 -937 -408 -46 -12 -57 -11 -100 5 -103 40 -219 16 -297 -60 -58 -57 -81 -115 -81 -205 0 -90 21 -135 88 -197 108 -99 258 -95 373 10 l57 52 133 0 c118 0 134 -2 154 -20 37 -34 24 -106 -41 -233 -58 -111 -58 -111 -131 -137 -65 -23 -140 -92 -169 -157 -36 -82 -33 -176 9 -259 114 -226 437 -221 548 10 11 21 20 70 24 118 l5 82 60 72 c105 124 266 251 375 293 53 21 126 25 157 7 13 -6 32 -30 44 -53 l21 -42 -22 -64 c-65 -183 67 -364 265 -365 92 -1 160 28 219 94 53 59 76 121 76 203 -1 80 -27 138 -93 200 l-52 49 1 221 c0 202 2 232 27 348 48 222 12 142 521 1156 364 728 498 1005 597 1242 12 30 24 56 25 58 1 2 45 -10 96 -27 247 -79 513 -133 724 -148 60 -4 117 -7 126 -7 10 1 38 -26 67 -65 60 -81 164 -182 251 -243 72 -51 249 -146 323 -173 l47 -18 -32 -22 c-82 -55 -749 -400 -998 -515 -186 -87 -395 -173 -445 -184 -18 -4 -48 0 -74 9 -219 77 -427 -157 -332 -373 76 -171 317 -205 443 -62 41 46 47 49 115 59 39 6 103 11 141 11 86 0 92 -10 57 -87 -40 -88 -59 -110 -106 -117 -135 -22 -242 -162 -226 -298 13 -103 64 -178 153 -223 111 -56 241 -34 333 57 43 42 69 99 77 172 7 58 7 58 93 133 176 155 353 277 547 380 167 88 227 115 217 100 -21 -35 -294 -377 -378 -475 -187 -218 -445 -409 -760 -565 -136 -68 -198 -88 -237 -77 -18 6 -60 10 -93 10 -147 0 -257 -114 -258 -266 -2 -194 201 -323 378 -240 46 21 115 85 115 106 0 13 102 32 152 28 39 -3 43 -6 46 -31 4 -29 -35 -121 -81 -193 -22 -35 -34 -44 -77 -54 -67 -16 -137 -72 -175 -141 -26 -47 -30 -64 -30 -134 0 -71 4 -86 31 -135 34 -61 105 -121 164 -139 20 -6 65 -11 98 -11 49 0 72 6 123 33 104 53 159 143 159 257 l0 52 93 92 c110 109 198 169 290 197 104 32 153 12 193 -77 l24 -55 -21 -62 c-45 -134 21 -277 156 -339 67 -30 170 -31 236 -1 89 40 159 132 175 229 15 97 -39 219 -121 271 -39 25 -43 33 -49 78 -26 212 12 450 101 630 126 256 639 918 1150 1481 309 342 368 418 405 523 40 113 34 219 -20 326 -33 66 -156 186 -264 259 l-87 59 40 46 c23 25 57 74 78 108 25 45 40 61 51 57 39 -16 139 -15 200 0 175 45 301 193 332 388 42 273 -158 517 -424 518 l-57 0 -11 43 c-103 410 -351 825 -704 1180 -275 278 -569 487 -941 672 -289 143 -471 210 -1085 400 -235 73 -381 132 -443 179 -58 45 -77 88 -88 208 -34 351 -101 528 -261 688 -61 62 -95 86 -170 123 -112 55 -182 71 -308 70 -219 -2 -408 -85 -683 -301 -164 -129 -228 -169 -310 -194 -121 -36 -230 -12 -321 72 -26 24 -87 97 -138 164 -155 204 -283 313 -436 368 -86 31 -275 35 -360 8z m338 -150 c127 -54 221 -140 374 -344 91 -120 162 -189 231 -224 208 -105 405 -54 690 178 363 296 665 362 912 200 125 -82 221 -225 263 -394 11 -43 27 -145 35 -225 16 -158 22 -186 53 -246 57 -113 191 -188 527 -296 739 -237 825 -268 1090 -398 606 -295 1085 -724 1380 -1234 107 -185 205 -434 235 -597 15 -77 43 -114 80 -106 14 2 45 9 70 15 125 27 262 -61 315 -201 23 -63 17 -183 -13 -250 -48 -109 -161 -188 -267 -188 -59 0 -75 8 -75 36 0 28 -32 64 -58 64 -26 0 -56 -37 -78 -95 -21 -58 -119 -207 -161 -248 l-29 -27 -93 40 c-189 82 -365 129 -566 151 -106 11 -261 8 -298 -6 -30 -12 -41 -43 -23 -69 13 -21 26 -24 108 -30 217 -16 472 -70 639 -135 194 -75 417 -209 519 -311 75 -75 100 -128 100 -211 0 -116 -49 -190 -331 -500 -625 -687 -1152 -1374 -1258 -1639 -81 -205 -113 -401 -92 -583 18 -158 28 -186 80 -217 61 -35 84 -69 88 -132 6 -70 -19 -115 -78 -146 -77 -41 -159 -21 -213 52 -27 36 -28 121 -2 161 23 35 18 81 -19 162 -81 182 -254 222 -461 107 -84 -46 -207 -147 -280 -230 -90 -103 -94 -110 -87 -164 7 -60 -10 -113 -48 -144 -92 -78 -226 -40 -260 72 -26 89 35 177 138 197 56 11 59 13 107 81 74 106 108 187 113 269 5 81 -14 122 -68 151 -45 23 -137 29 -211 14 -97 -19 -130 -36 -155 -79 -52 -90 -182 -93 -239 -6 -27 41 -15 128 23 166 42 43 94 52 159 29 l52 -18 83 29 c168 59 413 190 603 324 247 173 377 317 871 965 207 271 359 463 489 615 139 163 126 150 161 159 40 10 65 34 65 62 0 41 -22 51 -137 58 -833 53 -1404 434 -1403 936 1 221 97 429 285 615 281 278 651 393 1052 328 l106 -17 18 22 c42 53 -27 97 -196 127 -376 65 -778 -70 -1071 -360 -291 -290 -393 -636 -288 -979 6 -18 2 -19 -86 -12 -179 13 -441 68 -652 136 -54 17 -98 35 -98 40 0 5 14 46 31 92 81 220 149 554 149 733 0 123 -8 145 -54 145 -41 0 -53 -28 -65 -150 -34 -328 -137 -677 -331 -1115 -104 -235 -238 -511 -575 -1180 -377 -747 -424 -849 -460 -991 -52 -209 -74 -453 -55 -624 16 -153 23 -170 73 -201 101 -60 102 -190 3 -263 -39 -29 -133 -29 -172 0 -74 55 -90 117 -49 199 l27 55 -18 56 c-63 201 -229 255 -449 149 -127 -62 -286 -200 -412 -358 l-63 -78 6 -72 c4 -63 2 -77 -18 -111 -86 -146 -318 -91 -318 76 0 94 58 160 152 176 40 7 46 12 100 92 119 177 157 334 106 430 -50 93 -168 129 -352 109 -133 -15 -163 -25 -181 -60 -23 -44 -71 -69 -132 -69 -44 0 -58 5 -88 31 -140 123 30 328 188 225 32 -22 64 -18 230 30 369 106 900 366 1034 506 103 108 322 542 505 998 241 602 404 1212 449 1675 23 244 -1 655 -46 762 -18 43 -58 54 -88 25 -20 -21 -20 -23 -6 -154 18 -170 18 -558 0 -698 -7 -58 -16 -109 -18 -113 -6 -10 -262 123 -391 204 -464 290 -818 627 -1210 1151 -144 193 -212 254 -642 577 -333 250 -420 332 -478 451 -23 47 -47 111 -53 144 -24 135 32 312 145 461 81 105 126 177 137 219 13 44 14 97 11 332 -3 183 12 266 68 381 65 131 157 219 279 265 70 26 237 20 311 -12z m476 -3345 c56 -60 141 -148 189 -194 l87 -85 -37 -85 c-39 -90 -204 -416 -253 -498 -16 -26 -53 -91 -82 -143 -29 -52 -105 -183 -168 -290 -489 -830 -564 -968 -588 -1085 -25 -123 -16 -304 22 -414 29 -84 29 -84 72 -97 96 -28 137 -113 96 -200 -34 -72 -112 -99 -188 -66 -52 23 -86 70 -86 119 0 95 -227 147 -406 92 -153 -46 -338 -173 -503 -345 l-104 -107 6 -54 c3 -29 1 -67 -4 -85 -11 -41 -64 -95 -106 -109 -64 -21 -145 9 -184 67 -23 35 -25 113 -4 154 21 40 72 77 120 85 51 9 77 34 128 120 158 270 67 437 -241 438 l-92 1 -38 -37 c-68 -66 -153 -69 -206 -7 -37 44 -42 88 -17 144 16 38 29 51 66 67 51 23 100 19 139 -12 31 -24 77 -24 186 0 268 60 679 245 893 402 87 63 114 106 271 422 359 725 612 1368 791 2010 l16 57 62 -77 c34 -42 108 -127 163 -188z m4109 -2060 c39 -9 128 -25 199 -35 71 -11 130 -21 132 -22 1 -2 -25 -34 -58 -73 -55 -64 -328 -403 -389 -483 -20 -26 -54 -46 -150 -86 -380 -162 -678 -346 -919 -571 -111 -103 -129 -129 -123 -174 7 -48 -24 -116 -64 -145 -37 -27 -111 -32 -156 -11 -99 47 -106 197 -12 255 17 10 54 22 83 26 52 7 53 8 106 83 64 90 84 136 92 205 5 43 2 56 -18 85 -43 64 -77 76 -213 76 -81 0 -145 -6 -198 -18 -71 -17 -81 -22 -105 -58 -37 -52 -99 -83 -152 -74 -137 23 -155 195 -28 261 37 19 75 17 125 -5 38 -18 47 -18 100 -6 67 16 240 82 398 150 187 82 893 443 1160 594 50 28 97 49 105 46 8 -2 47 -11 85 -20z"
       id="path1" />
    <path
       d="M3678 9517 c-71 -20 -125 -61 -168 -128 -47 -73 -64 -141 -58 -240 8 -158 99 -268 247 -300 97 -20 225 33 285 119 66 96 86 233 51 347 -49 154 -207 244 -357 202z m56 -148 c36 -43 35 -91 -3 -130 -63 -62 -151 -21 -151 71 0 45 47 90 93 90 27 0 41 -7 61 -31z"
       id="path2" />
    <path
       d="M5605 9330 c-285 -110 -301 -560 -25 -684 132 -59 284 -26 383 84 146 163 121 437 -53 565 -75 55 -211 71 -305 35z m91 -141 c33 -31 41 -84 19 -124 -50 -93 -185 -60 -185 45 0 35 6 48 35 77 31 31 40 35 72 30 20 -4 46 -16 59 -28z"
       id="path3" />
    <path
       d="M4186 8568 c-26 -37 -21 -93 11 -117 64 -51 145 46 93 112 -28 35 -81 38 -104 5z"
       id="path4" />
    <path
       d="M4583 8549 c-66 -24 -52 -159 16 -159 75 0 102 134 33 158 -15 5 -37 6 -49 1z"
       id="path5" />
    <path
       d="M3609 8141 c-82 -6 -109 -20 -109 -57 0 -50 16 -54 229 -54 503 0 1005 -83 1537 -254 78 -26 153 -46 167 -46 32 0 59 26 55 53 -5 34 -61 64 -224 117 -561 184 -1195 276 -1655 241z"
       id="path6" />
  </g>
  <path
     style="fill:#ffffff;stroke-width:2.36137"
     d="m 559.36516,885.4186 c -5.29229,-8.07708 -1.37399,-16.66995 9.71398,-21.3028 15.08366,-6.30234 27.79959,-33.10826 21.72138,-45.79 -5.98627,-12.48997 -30.81567,-12.49013 -43.88507,-3.1e-4 -4.01415,3.83613 -8.90205,6.97479 -10.86202,6.97479 -6.13466,0 -12.78873,-8.54838 -11.35167,-14.58335 2.03929,-8.56392 7.26265,-11.37344 18.32597,-9.85703 12.15017,1.66536 35.26079,-8.32033 66.77156,-28.8508 27.27494,-17.77066 42.18496,-33.39295 86.89203,-91.043 49.36757,-63.65976 68.53265,-86.43153 74.27644,-88.25454 5.83545,-1.8521 6.26297,-9.88445 0.61126,-11.48445 -2.27282,-0.64345 -11.03942,-1.85805 -19.48134,-2.6991 -113.63279,-11.32118 -164.41412,-84.5528 -103.38134,-149.08597 14.78275,-15.63057 29.31106,-24.98509 49.06974,-31.59514 13.02255,-4.35655 19.46483,-5.01072 42.50473,-4.3161 25.7949,0.77768 27.15581,0.58362 27.15581,-3.87225 0,-6.78612 -10.58526,-10.94062 -31.51814,-12.37022 -35.12749,-2.39904 -69.17166,11.09272 -96.18387,38.11777 -25.87074,25.88305 -37.26097,55.78166 -32.08036,84.20876 1.28332,7.04183 1.84289,13.29918 1.24348,13.90523 -1.79332,1.81316 -45.68565,-6.3768 -63.07181,-11.76871 -14.67058,-4.54973 -16.0214,-5.49268 -14.5573,-10.1617 13.35217,-42.58059 19.70708,-89.17083 12.53809,-91.92183 -6.4883,-2.48979 -8.65212,1.79075 -12.26982,24.27275 -8.23321,51.16461 -20.40664,81.43615 -86.19599,214.3427 -32.08113,64.8098 -47.7284,99.02233 -50.0233,109.37524 -1.8712,8.44153 -3.33948,27.71341 -3.33948,43.83244 0,28.16373 0.1362,28.90936 6.49378,35.5498 8.39289,8.76637 8.55462,18.05268 0.40733,23.39097 -4.52975,2.96801 -7.63792,3.4349 -12.1526,1.82549 -9.25282,-3.29851 -11.65769,-8.73626 -8.15166,-18.43202 2.4421,-6.7535 2.38119,-9.60628 -0.34255,-16.04395 -5.28518,-12.49172 -12.29409,-17.2991 -24.95119,-17.1139 -15.52403,0.22717 -32.12404,9.9753 -52.14154,30.61942 -14.87436,15.33999 -16.6041,18.09597 -16.6041,26.45507 0,15.75683 -15.31654,23.08312 -25.97511,12.42453 -8.60395,-8.60395 -4.74084,-18.95279 9.61107,-25.747 5.82045,-2.75542 10.04783,-7.79806 15.70608,-18.73508 12.59177,-24.33901 9.61615,-40.01525 -8.63344,-45.48297 -13.32735,-3.99296 -34.16012,-0.85264 -41.89425,6.3151 -7.51105,6.961 -13.39645,7.26099 -19.65557,1.00186 -5.72034,-5.72034 -5.90746,-9.06463 -0.90667,-16.20425 3.48621,-4.97728 4.98187,-5.31293 17.30248,-3.88297 15.90303,1.84574 30.45426,-1.80896 63.54197,-15.95928 30.8521,-13.19425 54.27511,-26.44552 64.85599,-36.6915 17.0858,-16.54499 55.32794,-101.56471 74.73098,-166.1415 18.70007,-62.2372 25.22349,-106.71973 21.68667,-147.87926 -2.37769,-27.67016 -5.35654,-36.6741 -11.72711,-35.44659 -3.56241,0.68643 -3.97308,5.56151 -3.97308,47.16559 0,25.52001 -0.71585,47.11929 -1.59078,47.99838 -2.50375,2.51569 -36.36512,-16.24038 -60.83925,-33.69931 -28.59452,-20.39829 -59.26579,-50.71835 -88.93876,-87.92041 -23.66135,-29.66507 -32.81028,-38.13752 -83.58794,-77.40736 -48.20953,-37.28373 -53.32019,-56.96377 -25.52306,-98.28369 l 12.28931,-18.26782 0.8716,-28.76374 c 0.90117,-29.739552 3.81771,-42.013455 12.67991,-53.361819 13.92897,-17.836551 39.68463,-22.234939 58.84463,-10.049111 5.77398,3.672274 14.65879,11.907566 19.74402,18.300651 23.67487,29.763749 36.25872,38.817669 53.82682,38.727729 13.15841,-0.0674 26.93296,-6.47576 50.25638,-23.380993 44.31424,-32.119759 69.41104,-35.915216 94.05361,-14.223971 13.2074,11.625626 19.47532,26.213922 23.89043,55.603924 3.90049,25.96439 7.39405,32.40495 22.00699,40.57098 5.30211,2.96294 34.60672,13.7855 65.12134,24.05013 54.03299,18.17583 89.32401,33.64025 116.77826,51.17186 60.69903,38.76091 104.07377,92.37462 121.04995,149.62484 6.76633,22.81869 7.98163,24.25487 18.95548,22.40086 11.13565,-1.88135 21.92222,3.36066 28.24157,13.72474 8.02406,13.15986 4.3271,31.39787 -8.39271,41.40327 -7.45467,5.86383 -22.40075,7.08471 -22.40075,1.8298 0,-3.81749 -6.40454,-6.85481 -9.89954,-4.69479 -1.31406,0.81215 -3.78658,4.80042 -5.49449,8.86283 -1.70791,4.06239 -6.35354,11.85483 -10.32362,17.3165 l -7.21832,9.93034 -10.61336,-4.69479 c -19.24716,-8.51394 -45.84098,-13.98517 -67.97721,-13.98517 -20.42192,0 -21.01675,0.15465 -20.2843,5.27316 0.67674,4.72931 2.90021,5.57884 21.55904,8.23706 29.71359,4.23317 47.66181,9.24457 66.56638,18.58638 33.86409,16.73411 49.7138,32.70612 47.45323,47.81929 -1.4628,9.77961 -6.1195,15.97937 -46.39349,61.76656 -62.31568,70.84619 -103.06678,125.70039 -112.89268,151.96244 -12.28065,32.823 -11.42546,67.511 1.96597,79.74216 8.30023,7.5811 9.0783,14.30858 2.42444,20.96244 -6.00443,6.00443 -14.60163,6.04434 -19.98773,0.0928 -3.31218,-3.65994 -3.8579,-6.8451 -2.60462,-15.20246 2.82822,-18.86006 -10.90379,-36.84055 -28.13577,-36.84055 -8.98418,0 -21.82371,6.00774 -35.67083,16.69071 -15.27785,11.78678 -24.58563,24.92865 -24.58563,34.71303 0,12.94852 -17.79872,17.45816 -25.07496,6.3532 z M 412.0598,258.44998 c 0,-5.29002 -6.86567,-8.8659 -31.70247,-16.51173 -42.97742,-13.2303 -93.22743,-21.14976 -134.19798,-21.14976 -23.71555,0 -30.1093,0.71568 -32.53804,3.64214 -5.99497,7.22349 1.1816,9.18263 39.70276,10.83853 47.34323,2.03512 89.24393,9.36663 131.57993,23.023 19.54932,6.30605 27.1558,6.35025 27.1558,0.15782 z m -81.29009,-67.04446 c 1.87653,-7.4767 -0.30484,-10.76039 -7.14816,-10.76039 -6.09459,0 -9.23733,5.37963 -7.09182,12.13953 2.14907,6.77115 12.44465,5.77402 14.23998,-1.37914 z m -37.95931,-7.21833 c 0,-5.97175 -0.92191,-7.08412 -5.8711,-7.08412 -3.78634,0 -6.16311,1.51634 -6.69348,4.27034 -1.37964,7.16387 1.54232,11.46307 7.24093,10.65386 4.17293,-0.59255 5.32365,-2.28722 5.32365,-7.84008 z m 157.06735,-13.5779 c 13.06938,-6.62447 19.09466,-16.6863 19.21393,-32.08606 0.18112,-23.381 -12.83772,-38.13909 -33.65928,-38.156 -26.62417,-0.0216 -43.53906,30.06909 -31.34628,55.76344 8.58912,18.10027 27.09965,23.95301 45.79163,14.47862 z M 253.10668,147.70342 c 23.68905,-14.44425 20.15716,-55.518431 -5.5021,-63.986751 -12.22595,-4.034928 -24.86512,0.230748 -33.24782,11.221025 -5.52971,7.249836 -6.54622,10.841516 -6.49446,22.947206 0.0681,15.92455 4.58814,25.21052 15.03553,30.88897 8.71951,4.73931 21.41865,4.28932 30.20885,-1.07045 z"
     id="path7"
     transform="translate(137,218)" />
  <path
     style="fill:#ffffff;stroke-width:2.36137"
     d="m 83.014082,740.69522 c -2.149427,-2.37509 -3.908046,-6.62557 -3.908046,-9.44549 0,-5.67044 7.682457,-14.57266 12.575937,-14.57266 3.995467,0 11.756267,-8.46789 16.665027,-18.18338 3.88713,-7.69348 5.00175,-20.85101 2.35143,-27.75763 -2.10359,-5.48188 -12.461055,-10.22418 -26.355877,-12.0674 -10.175468,-1.34981 -13.013821,-0.82346 -18.398031,3.41176 -8.390635,6.60007 -14.20295,6.32513 -18.934183,-0.89564 -3.585758,-5.47256 -3.58306,-6.33843 0.03695,-11.86326 3.704338,-5.65356 4.677024,-5.88075 18.926006,-4.4209 18.647581,1.9105 39.020105,-3.73716 73.347775,-20.33339 38.35634,-18.54397 40.92479,-21.10719 61.05832,-60.93405 30.28474,-59.90734 56.47224,-124.22727 73.73,-181.09056 3.54751,-11.6888 6.90706,-21.78368 7.46569,-22.43305 0.55863,-0.64938 3.13279,1.47586 5.72037,4.72274 2.58759,3.24689 13.27162,14.66002 23.74228,25.3625 l 19.03755,19.45907 -11.01582,22.78547 c -6.05872,12.532 -28.38532,52.65587 -49.61469,89.16414 -54.945,94.48929 -52.09907,88.28995 -52.15305,113.60617 -0.0461,21.62112 3.76868,36.6013 9.32069,36.6013 4.32704,0 10.70569,7.9827 10.70569,13.39785 0,5.38112 -6.89889,12.57727 -12.05773,12.57727 -5.66588,0 -13.91739,-7.04731 -13.91739,-11.88633 0,-7.42544 -10.5813,-12.51453 -26.02031,-12.51453 -18.69334,0 -39.1292,10.218 -61.07795,30.53918 -15.07818,13.96009 -16.80219,16.46518 -16.80219,24.41467 0,14.81892 -15.228709,22.52175 -24.428453,12.35615 z"
     id="path8"
     transform="translate(137,218)" />
  <path
     style="fill:#ffffff;stroke-width:1.02174"
     d="m 561.52656,746.62599 c -6.90028,-3.81492 -9.15537,-13.47516 -4.72431,-20.23781 2.01464,-3.07473 8.94674,-6.51547 13.19237,-6.54801 3.44608,-0.0264 7.59581,-4.15497 12.76889,-12.70373 6.6562,-10.99967 8.01729,-19.50232 4.12903,-25.79367 -3.71091,-6.00437 -6.83932,-6.99838 -21.86883,-6.94855 -18.81741,0.0624 -23.80851,1.36857 -31.20197,8.16559 -8.89934,8.18141 -15.84129,8.54501 -22.05925,1.15538 -2.27755,-2.70671 -2.57584,-3.84673 -2.15433,-8.23348 0.40529,-4.21787 1.11702,-5.66706 4.14697,-8.4438 4.95747,-4.54318 8.03889,-5.14218 14.73828,-2.86499 7.09963,2.41324 10.85677,1.67003 32.00364,-6.33075 16.90238,-6.3949 80.70739,-37.70598 118.45097,-58.12753 12.08211,-6.53714 22.97639,-12.28299 24.20951,-12.76854 1.48328,-0.58407 6.49704,-0.0485 14.81527,1.58261 6.91527,1.35599 16.19794,3.05906 20.62815,3.78461 l 8.05493,1.31918 -12.1419,14.83418 c -6.67804,8.15879 -16.96963,20.9507 -22.87019,28.42645 l -10.7283,13.59229 -10.20753,4.78018 c -47.75626,22.36424 -69.30487,35.64192 -94.39668,58.16473 -10.33758,9.27917 -13.40707,13.71231 -13.40707,19.36322 0,8.47325 -4.97361,14.35472 -12.86893,15.21795 -3.77186,0.4124 -5.87666,0.0697 -8.50872,-1.38551 z"
     id="path9"
     transform="translate(137,218)" />
  <path
     style="fill:#ffffff;stroke-width:0.171009"
     d="m 423.33289,134.56998 c -3.44598,-0.90913 -6.05897,-3.57251 -6.9421,-7.07594 -0.20779,-0.82435 -0.26133,-1.64909 -0.21091,-3.24918 0.062,-1.96926 0.11072,-2.23519 0.59604,-3.25596 0.93671,-1.97018 4.40792,-5.53947 6.21495,-6.39055 1.70685,-0.80389 5.18562,-0.16376 7.92798,1.45884 2.02115,1.19587 3.23482,2.69407 4.13362,5.10272 0.41683,1.11702 0.48047,1.53641 0.49309,3.24917 0.0117,1.58563 -0.059,2.1985 -0.36481,3.16367 -1.07994,3.40842 -3.88417,6.15482 -7.15405,7.00651 -1.24426,0.32409 -3.44672,0.31974 -4.69381,-0.009 z"
     id="path10"
     transform="translate(137,218)" />
  <path
     style="fill:#ffffff;stroke-width:0.171009"
     d="m 227.77696,114.76505 c -1.93138,-0.46922 -3.89363,-1.91183 -5.04853,-3.71159 -1.21794,-1.89798 -1.90362,-5.01557 -1.54763,-7.03657 0.5638,-3.20073 3.29525,-6.290105 6.5858,-7.448788 1.63213,-0.574713 3.82823,-0.589597 5.28744,-0.03583 1.25192,0.475097 2.88255,1.966374 4.03627,3.691328 1.51982,2.27233 2.08605,4.42404 1.72596,6.55886 -0.86123,5.10598 -6.39854,9.11003 -11.03931,7.9826 z"
     id="path11"
     transform="translate(137,218)" />
</g></svg>
