<?xml version="1.0" encoding="UTF-8" standalone="no"?>
<svg
   version="1.0"
   width="600.000000pt"
   height="600.000000pt"
   viewBox="0 0 600.000000 600.000000"
   preserveAspectRatio="xMidYMid meet"
   id="svg8"
   sodipodi:docname="frog10_t2.svg.svg"
   inkscape:version="1.4.3 (0d15f75, 2025-12-25)"
   xmlns:inkscape="http://www.inkscape.org/namespaces/inkscape"
   xmlns:sodipodi="http://sodipodi.sourceforge.net/DTD/sodipodi-0.dtd"
   xmlns="http://www.w3.org/2000/svg"
   xmlns:svg="http://www.w3.org/2000/svg"><g transform="scale(-1,1) translate(-600.0,0)">
  <defs
     id="defs8" />
  <sodipodi:namedview
     id="namedview8"
     pagecolor="#505050"
     bordercolor="#ffffff"
     borderopacity="1"
     inkscape:showpageshadow="0"
     inkscape:pageopacity="0"
     inkscape:pagecheckerboard="1"
     inkscape:deskcolor="#505050"
     inkscape:document-units="pt"
     inkscape:zoom="0.74314137"
     inkscape:cx="386.19839"
     inkscape:cy="295.36776"
     inkscape:window-width="1920"
     inkscape:window-height="1022"
     inkscape:window-x="0"
     inkscape:window-y="30"
     inkscape:window-maximized="1"
     inkscape:current-layer="g8" />
  <g
     transform="translate(0.000000,600.000000) scale(0.066667,-0.066667)"
     fill="#000000"
     stroke="none"
     id="g8">
    <path
       d="M1748 8394 c-87 -39 -124 -106 -174 -315 -160 -676 -44 -1639 261 -2172 l32 -55 -34 -42 c-19 -24 -55 -70 -80 -104 l-46 -62 -177 57 c-543 174 -910 187 -897 31 7 -80 50 -100 342 -159 259 -51 581 -135 604 -157 7 -6 8 -38 2 -72 l-9 -60 -257 7 c-432 13 -815 -46 -863 -132 -69 -123 22 -176 258 -150 250 26 772 38 822 19 30 -12 41 -29 47 -73 4 -32 12 -68 18 -81 7 -18 -11 -29 -78 -50 -454 -138 -790 -323 -790 -436 0 -133 78 -141 310 -31 178 85 543 233 573 233 10 0 34 -18 54 -39 20 -21 69 -55 108 -75 39 -20 71 -39 71 -42 0 -3 -18 -44 -39 -91 -116 -253 12 -385 278 -287 85 31 84 35 21 -109 -29 -69 -67 -184 -85 -256 l-31 -132 -122 -8 c-403 -25 -646 -424 -503 -828 45 -130 132 -260 267 -400 l125 -130 -72 -26 c-39 -15 -94 -36 -122 -47 -28 -11 -84 -20 -124 -20 -283 0 -405 -296 -188 -456 31 -23 64 -31 124 -31 l81 1 0 -53 c0 -237 326 -290 471 -77 52 77 196 152 363 189 138 31 172 21 74 -22 -123 -54 -188 -132 -188 -226 0 -196 228 -308 375 -185 l45 38 0 -48 c0 -171 185 -275 345 -192 91 47 138 129 130 226 -6 74 8 91 35 41 51 -95 237 -132 327 -64 174 129 134 352 -78 439 -45 18 -86 43 -91 56 -9 23 5 199 16 199 3 0 46 -26 96 -59 159 -103 422 -195 559 -196 22 0 41 -6 41 -13 0 -18 -38 -32 -84 -32 -191 0 -287 -274 -144 -407 66 -62 174 -77 260 -37 20 9 26 -2 35 -58 39 -262 398 -271 474 -11 l19 64 29 -49 c44 -77 96 -107 194 -114 237 -17 351 256 176 418 -126 116 -96 177 93 197 77 8 213 33 302 55 88 23 161 36 161 31 0 -16 -34 -39 -75 -51 -90 -27 -165 -134 -165 -236 0 -212 290 -300 441 -134 69 76 291 -17 314 -132 5 -23 26 -63 48 -89 169 -200 526 -49 457 193 -19 66 -14 69 52 24 225 -153 498 62 376 295 -25 48 -29 48 87 16 504 -138 1099 143 1338 633 251 514 170 1011 -244 1490 -134 156 -157 197 -151 269 7 86 54 83 155 -10 319 -292 740 112 544 523 -240 505 -1043 519 -1387 25 l-30 -43 -119 68 c-96 56 -313 149 -491 211 -20 6 -25 17 -17 35 6 15 22 59 35 99 l25 73 183 -10 c184 -9 270 -18 555 -54 180 -23 232 -4 241 90 13 124 -167 179 -696 213 l-272 18 -10 83 c-7 54 -4 86 7 92 16 10 397 87 605 122 120 20 174 60 174 130 0 138 -217 144 -734 18 l-172 -42 -23 32 c-12 18 -54 66 -92 106 l-70 74 87 166 c333 637 439 1915 192 2315 -183 296 -1188 -414 -1723 -1218 -44 -66 -85 -126 -91 -133 -6 -8 -64 4 -129 25 -369 121 -809 122 -1160 2 -61 -20 -116 -32 -122 -26 -6 6 -49 72 -96 147 -422 675 -1316 1384 -1589 1261z m281 -170 c417 -201 876 -630 1214 -1136 122 -183 118 -207 -27 -163 -55 16 -137 26 -217 26 l-129 0 -55 106 c-225 438 -851 1038 -876 840 -3 -21 17 -43 75 -78 201 -123 437 -363 599 -609 88 -134 169 -280 159 -286 -2 -2 -38 -16 -79 -31 -328 -118 -668 -562 -668 -871 0 -18 -16 -47 -37 -66 l-36 -35 -30 49 c-280 461 -394 1482 -234 2110 62 247 97 261 341 144z m4559 11 c208 -433 73 -1666 -245 -2229 -49 -86 -103 -87 -103 -1 0 318 -319 743 -652 867 -50 18 -93 35 -95 37 -8 5 55 123 128 236 179 281 397 509 625 656 162 103 177 196 19 117 -272 -136 -635 -524 -807 -861 l-65 -127 -105 0 c-58 0 -143 -10 -188 -23 -78 -21 -165 -10 -165 21 1 20 269 382 374 505 476 553 1185 998 1279 802z m-2154 -1268 c239 -41 471 -133 471 -187 0 -48 31 -50 154 -8 435 146 913 -155 1045 -659 17 -65 31 -138 31 -161 0 -23 12 -52 26 -64 15 -12 65 -52 112 -90 79 -63 212 -210 225 -249 3 -10 43 -6 117 15 350 95 765 150 765 101 0 -28 -2 -28 -251 -70 -101 -17 -226 -40 -278 -51 -523 -115 -618 -140 -776 -202 -199 -79 -306 -137 -312 -171 -10 -49 42 -45 166 12 148 67 482 182 572 195 l64 10 18 -87 c9 -47 17 -102 17 -121 0 -34 4 -35 118 -35 314 0 835 -71 853 -115 14 -38 -16 -48 -93 -34 -474 91 -1402 102 -1677 20 -28 -9 -36 -58 -11 -73 8 -5 107 1 221 13 569 62 594 57 516 -102 -62 -126 -70 -114 120 -178 142 -48 483 -202 551 -248 15 -11 16 -21 4 -45 l-17 -31 -64 36 c-319 178 -1226 465 -1337 422 -59 -22 -26 -67 62 -86 433 -90 521 -123 574 -216 50 -87 58 -150 21 -164 -56 -22 -210 -7 -294 27 -108 44 -139 25 -89 -55 65 -105 75 -288 19 -357 -30 -37 -159 20 -263 115 -81 74 -104 64 -117 -49 -20 -184 -178 -401 -355 -489 -89 -44 -107 -42 -107 11 0 46 -54 219 -79 253 -23 31 -71 20 -71 -18 0 -87 -140 -288 -274 -394 -92 -73 -110 -73 -121 0 -14 82 -41 85 -118 11 -37 -35 -155 -115 -261 -179 -106 -63 -208 -126 -227 -139 -71 -51 -173 123 -175 300 -2 171 -54 137 -140 -92 -49 -128 -57 -130 -187 -61 -117 62 -288 222 -345 322 -74 132 -110 126 -125 -19 -6 -53 -14 -96 -17 -96 -138 0 -421 296 -491 514 -14 45 -44 29 -134 -72 -87 -97 -89 -98 -119 -72 -85 76 -123 252 -78 360 40 96 9 121 -73 58 -67 -51 -202 -98 -282 -98 l-62 0 9 68 c11 77 51 162 108 230 43 51 41 92 -5 92 -52 0 -164 46 -197 81 l-33 35 110 40 c60 21 170 58 245 81 120 39 135 47 135 79 0 55 -55 44 -449 -89 -407 -139 -526 -185 -763 -298 -167 -79 -234 -92 -200 -36 33 52 423 232 707 325 219 71 213 65 167 206 -32 96 -31 96 264 73 131 -9 244 -14 252 -9 27 17 14 64 -20 72 -199 48 -1214 63 -1480 22 -163 -26 -181 -25 -181 11 0 55 287 89 744 89 l392 0 16 88 c24 128 20 128 341 -15 184 -82 239 -91 229 -39 -6 36 -255 159 -417 208 -70 20 -215 64 -322 97 -236 71 -347 97 -593 140 -148 26 -188 39 -192 59 -13 68 435 -9 868 -149 88 -28 163 -51 167 -51 4 0 29 34 56 75 26 41 108 130 182 198 101 94 134 133 134 162 0 63 58 251 105 342 223 433 667 629 1054 465 77 -33 116 -22 116 34 0 44 257 132 495 169 98 15 413 8 534 -13z m3698 -2189 c338 -71 556 -362 455 -605 -83 -197 -278 -228 -431 -68 -113 118 -249 95 -297 -51 -34 -103 12 -196 211 -426 399 -462 435 -1033 97 -1508 -281 -392 -867 -540 -1326 -333 l-97 44 59 47 c93 73 266 256 328 347 54 78 61 82 136 92 253 31 461 253 483 513 17 196 -35 328 -233 598 -201 273 -261 421 -263 645 -3 470 412 804 878 705z m-1367 -327 c70 -30 185 -81 255 -114 l128 -60 1 -185 c1 -283 66 -448 296 -747 47 -62 111 -163 142 -224 138 -278 22 -584 -257 -675 -70 -23 -79 -16 -50 39 233 452 -1 1026 -447 1093 l-65 10 -41 127 c-44 137 -152 329 -248 443 -68 81 -70 87 -28 87 89 0 137 111 97 225 -13 35 -23 66 -23 69 0 7 95 -28 240 -88z m-431 -285 c137 -155 311 -453 311 -533 0 -25 -15 -30 -116 -38 -270 -21 -551 -181 -720 -410 -138 -188 -225 -406 -179 -452 32 -31 45 -17 91 101 206 524 776 801 1220 591 661 -312 257 -1349 -676 -1736 -41 -17 -56 -31 -52 -50 8 -38 105 -31 213 17 l86 38 70 -37 c44 -23 95 -37 135 -37 154 0 210 -179 78 -247 -62 -33 -108 -29 -173 16 -99 67 -251 105 -319 79 -55 -21 -40 -87 29 -123 95 -50 114 -136 44 -206 -87 -87 -233 -48 -272 72 -66 207 -345 298 -495 162 -71 -64 -151 -72 -214 -22 -84 66 -34 211 80 234 36 7 83 53 216 213 180 218 307 352 420 444 102 83 86 161 -22 105 -59 -31 -286 -248 -375 -359 -63 -79 -73 -85 -225 -136 -153 -51 -427 -112 -502 -112 l-38 0 46 79 c254 434 364 803 337 1132 -20 240 -108 242 -99 2 13 -355 -89 -663 -410 -1235 -88 -157 -82 -291 16 -336 83 -38 97 -170 25 -227 -76 -59 -229 -16 -229 65 0 11 -14 39 -31 60 -63 81 -179 33 -179 -73 0 -70 -33 -132 -82 -154 -140 -64 -266 78 -173 196 96 122 -40 192 -151 77 -111 -114 -287 -30 -237 113 20 57 64 85 151 94 121 14 233 102 300 237 179 359 319 1057 217 1077 -45 9 -53 -12 -71 -177 -22 -200 -98 -499 -183 -720 l-67 -172 -109 3 c-558 21 -962 393 -1072 987 -14 74 -28 150 -32 168 -5 24 -17 34 -43 34 -139 0 41 -611 259 -883 l53 -65 -18 -115 c-33 -217 0 -292 144 -331 133 -36 172 -192 63 -249 -74 -38 -116 -28 -189 46 -119 120 -240 72 -221 -89 9 -78 7 -85 -36 -128 -110 -111 -289 1 -221 137 70 140 -53 200 -163 81 -70 -76 -124 -96 -190 -69 -115 48 -93 205 35 242 81 24 170 94 189 149 17 50 13 66 -71 290 -89 234 -178 531 -215 713 -21 108 -48 189 -87 262 -124 233 -148 466 -78 728 53 196 56 198 117 108 86 -128 139 -137 239 -45 37 34 70 60 73 56 3 -3 19 -33 36 -67 125 -246 544 -494 582 -343 12 47 -1 55 135 -81 90 -89 149 -132 244 -180 173 -86 213 -83 257 19 l26 62 23 -56 c77 -180 187 -226 323 -134 47 31 151 96 231 144 80 47 154 95 163 107 24 29 40 26 51 -8 36 -112 301 42 441 256 64 98 65 97 86 -24 19 -113 74 -126 224 -55 173 82 341 275 391 449 22 73 26 78 49 58 33 -30 213 -115 244 -115 88 0 156 142 144 301 l-7 106 39 -9 c22 -5 65 -38 96 -72z m-4354 -784 c0 -128 45 -295 121 -451 41 -84 74 -164 74 -177 0 -91 148 -592 254 -861 35 -90 43 -83 -115 -107 -201 -30 -399 -127 -461 -225 -74 -117 -183 -143 -264 -62 -79 79 -36 172 100 219 81 28 89 34 89 75 0 77 -183 64 -272 -19 -80 -73 -148 -81 -215 -25 -109 92 -31 231 134 238 72 2 142 20 267 68 l170 64 101 -47 c116 -53 149 -58 163 -22 10 28 8 30 -163 139 -226 144 -424 369 -496 564 -126 342 95 691 442 696 l71 1 0 -68z m4710 -1634 c27 -16 30 -22 12 -22 -35 -1 -72 15 -72 31 0 18 16 16 60 -9z"
       id="path1" />
    <path
       d="M2738 6287 c-183 -47 -315 -227 -315 -429 0 -439 528 -574 706 -181 142 315 -96 685 -391 610z m175 -162 c59 -57 59 -141 -2 -201 -59 -59 -130 -60 -186 -2 -124 130 58 327 188 203z"
       id="path2" />
    <path
       d="M5255 6251 c-380 -147 -378 -719 3 -829 469 -137 737 549 312 798 -79 46 -237 61 -315 31z m221 -145 c94 -93 31 -256 -98 -256 -75 0 -143 67 -142 138 1 141 146 212 240 118z"
       id="path3" />
    <path
       d="M3594 5361 c-28 -27 -30 -56 -8 -97 22 -42 83 -37 113 9 47 71 -45 149 -105 88z"
       id="path4" />
    <path
       d="M4089 5361 c-45 -44 -15 -141 42 -141 11 0 31 12 44 27 67 74 -17 184 -86 114z"
       id="path5" />
    <path
       d="M3250 4985 c-26 -26 -6 -80 50 -130 272 -246 859 -274 1195 -57 128 82 160 130 116 173 -32 32 -38 31 -105 -23 -299 -238 -868 -242 -1127 -7 -56 50 -106 67 -129 44z"
       id="path6" />
    <path
       d="M8760 5670 c0 -11 5 -15 10 -10 6 6 6 15 0 20 -5 6 -10 1 -10 -10z"
       id="path8" />
  </g>
  <path
     style="fill:#ffffff;stroke-width:1.04628"
     d="m 356.21241,523.6144 c -4.18025,-4.47497 -7.37954,-13.70778 -8.05104,-23.23441 -0.31454,-4.46251 -1.21274,-8.93537 -1.99597,-9.9397 -1.32367,-1.69729 -1.60757,-1.60472 -4.02661,1.31281 -1.4314,1.72637 -4.2978,7.37629 -6.36979,12.5554 -2.07198,5.1791 -4.25226,10.00508 -4.84506,10.7244 -1.76312,2.13942 -4.95568,1.51771 -11.70702,-2.27978 -12.25393,-6.8926 -24.10011,-18.24695 -33.33853,-31.95441 -3.12654,-4.63901 -5.53111,-6.14804 -7.17582,-4.50334 -0.57064,0.57065 -1.66746,4.66507 -2.43737,9.09872 -0.76992,4.43365 -1.65929,8.32063 -1.97639,8.63773 -0.98964,0.98963 -9.31065,-3.61351 -15.5793,-8.61838 -8.25421,-6.59011 -18.93732,-20.19801 -23.9774,-30.54182 -2.31325,-4.74751 -4.76517,-8.63184 -5.44869,-8.63184 -0.68353,0 -4.97799,3.75724 -9.54323,8.34943 l -8.30047,8.34944 -2.50122,-2.33331 c -6.51506,-6.07769 -9.57868,-21.31053 -6.29043,-31.27715 2.96567,-8.98891 0.51902,-10.26768 -8.56254,-4.47528 -6.87156,4.38281 -17.25998,7.78519 -23.77038,7.78519 h -4.71687 l 0.72842,-4.96985 c 0.93505,-6.37975 3.74865,-12.75472 8.46492,-19.17957 4.97926,-6.78312 4.62664,-9.54133 -1.34957,-10.55633 -5.83488,-0.991 -12.87084,-4.1976 -15.35969,-7.00009 -1.09942,-1.23799 -1.79655,-2.4533 -1.54916,-2.70068 0.24739,-0.24738 9.15098,-3.34849 19.78577,-6.89136 10.63479,-3.54285 19.92452,-6.92641 20.64384,-7.51902 0.71932,-0.59261 1.30785,-2.19689 1.30785,-3.56506 0,-2.19075 -0.48319,-2.4876 -4.04907,-2.4876 -9.67441,0 -68.88744,20.53892 -99.532962,34.52448 -14.426348,6.58369 -20.744602,8.90296 -21.686874,7.96069 -3.216391,-3.2164 34.629936,-21.29925 66.818256,-31.92555 5.54449,-1.8304 10.91632,-4.25115 11.93742,-5.37944 1.78013,-1.96702 1.7669,-2.37677 -0.32162,-9.95749 -1.9594,-7.11207 -2.01083,-7.97026 -0.51202,-8.5454 0.91636,-0.35165 11.33806,-0.0866 23.15933,0.58908 18.11227,1.03518 21.72118,1.00043 22.94251,-0.22089 1.90683,-1.90682 0.0302,-5.62912 -3.23187,-6.41058 -8.46926,-2.02888 -23.61802,-2.79967 -65.10093,-3.31242 -44.697745,-0.5525 -49.709207,-0.39072 -75.070817,2.42336 -5.181959,0.57498 -6.016128,0.42604 -6.016128,-1.07417 0,-4.78426 17.731977,-6.94116 63.014865,-7.66505 33.14718,-0.52988 37.43252,-0.78822 37.83641,-2.28105 0.25051,-0.92592 0.77379,-3.55814 1.16284,-5.84936 1.0111,-5.95457 2.31118,-7.86639 5.34932,-7.86639 1.46384,0 10.39143,3.32514 19.83911,7.3892 19.08975,8.21174 24.08879,9.56998 25.14001,6.83054 1.11268,-2.89958 -2.57714,-5.75011 -15.8026,-12.20812 -19.4681,-9.50631 -64.76098,-22.75829 -101.698836,-29.75549 -8.171532,-1.54794 -15.698826,-3.42976 -16.727319,-4.18182 -1.691946,-1.23717 -1.507417,-1.43538 1.938128,-2.08177 8.221529,-1.54237 40.123557,4.96432 71.683577,14.62046 8.51896,2.60647 16.05932,4.73904 16.75636,4.73904 0.69703,0 2.78534,-2.23643 4.64069,-4.96985 1.85533,-2.73341 9.10666,-10.85518 16.11404,-18.04838 12.19212,-12.5154 12.77057,-13.30871 13.43392,-18.42396 0.80783,-6.2293 5.57937,-20.83786 9.01899,-27.6125 10.44496,-20.57232 28.22914,-36.31537 48.66373,-43.07847 5.98278,-1.98009 9.52739,-2.41869 19.35623,-2.39513 10.40533,0.0249 13.15296,0.42041 20.32056,2.92474 9.87087,3.44883 14.56914,3.40146 15.07277,-0.15198 0.46134,-3.25519 5.00052,-5.86338 16.92083,-9.72264 21.30572,-6.89784 42.39765,-8.83016 67.50189,-6.18413 22.0326,2.32227 48.63555,12.08515 48.63555,17.84853 0,3.48034 2.86873,3.56604 13.46366,0.40223 13.87858,-4.14436 28.08888,-4.17472 40.55648,-0.0866 8.56642,2.80889 20.45493,9.90157 27.74935,16.55524 13.85362,12.63672 23.84472,33.13519 27.55039,56.52445 0.51178,3.23019 1.9352,4.96848 8.68467,10.60573 8.169,6.82285 17.41436,16.17001 22.19739,22.44177 l 2.61571,3.42985 12.5554,-3.06915 c 15.34985,-3.75225 31.79943,-7.0099 42.71175,-8.45859 14.33684,-1.90329 24.97821,-1.18388 20.7886,1.40544 -0.46533,0.2876 -10.47042,2.21737 -22.23352,4.28839 -21.01726,3.70032 -63.99709,13.21243 -77.3636,17.12178 -13.98595,4.09052 -33.22544,12.31523 -40.02033,17.10834 -3.85694,2.72068 -4.01212,7.11856 -0.25118,7.11856 1.44435,0 10.27236,-3.01435 19.61781,-6.69854 18.17951,-7.16679 37.29736,-13.49652 44.3759,-14.69243 l 4.34722,-0.73446 1.09406,5.56972 c 0.60173,3.06335 1.39545,7.76265 1.76382,10.44288 l 0.66979,4.87315 12.18953,0.59006 c 17.49792,0.84703 46.29113,3.61298 56.65657,5.44259 12.93902,2.28387 16.88963,3.62282 16.48343,5.5866 -0.41058,1.98498 -2.47929,1.95132 -17.52972,-0.28521 -23.6534,-3.51496 -38.32319,-4.32776 -77.42495,-4.28987 -31.8623,0.0309 -41.27877,0.37284 -50.10781,1.81959 -5.97971,0.97985 -11.53573,2.33224 -12.34673,3.00531 -0.81099,0.67306 -1.33302,2.44112 -1.16007,3.92901 0.31196,2.68367 0.38128,2.70312 8.68474,2.43676 4.60365,-0.14767 12.60771,-0.73882 17.78681,-1.31366 32.89526,-3.65108 42.37447,-3.40721 42.37447,1.09014 0,1.12367 -1.4788,5.35032 -3.28623,9.39255 -3.12203,6.98229 -3.1966,7.44856 -1.49242,9.33166 0.98659,1.09018 3.04264,2.29558 4.569,2.67867 7.77716,1.95194 46.32836,18.49611 54.94176,23.57814 3.3084,1.952 3.62383,2.48994 2.67765,4.56657 l -1.07251,2.35393 -8.77351,-4.55466 c -12.11173,-6.28767 -32.97537,-14.51678 -55.934,-22.0617 -40.8807,-13.43465 -62.77699,-17.15812 -62.77699,-10.67524 0,2.75099 4.00609,4.65104 14.15467,6.71341 14.87566,3.02299 32.05248,7.87868 36.42314,10.29639 7.46218,4.12785 13.8147,14.9442 11.82383,20.13231 -1.0256,2.67271 -15.33776,2.08761 -25.84203,-1.05646 -4.83963,-1.44856 -9.39547,-2.40499 -10.12408,-2.12539 -2.01593,0.77359 -1.60581,3.45295 1.50034,9.8017 2.24767,4.59407 2.89915,7.60924 3.18746,14.75225 0.40564,10.04964 -0.8983,13.99394 -4.8115,14.55431 -3.31142,0.4742 -12.07783,-4.0316 -18.98785,-9.75945 -4.01808,-3.33067 -6.54038,-4.68211 -8.35874,-4.4786 -2.37095,0.26536 -2.76389,1.06417 -4.38771,8.91963 -1.04385,5.04971 -3.41758,11.77573 -5.72343,16.21739 -5.09652,9.81722 -16.29384,21.26838 -25.1826,25.75348 -7.5176,3.79325 -8.66168,3.97973 -8.66168,1.4118 0,-6.87597 -6.69449,-24.98981 -9.5734,-25.90354 -2.46463,-0.78224 -5.07456,1.16735 -5.07456,3.79065 0,6.90401 -13.55967,25.94044 -24.47669,34.36286 -6.78742,5.23645 -8.5624,5.38534 -9.42439,0.79052 -0.35909,-1.91411 -1.28844,-4.34938 -2.06522,-5.4117 -1.37071,-1.87454 -1.5049,-1.87219 -4.55216,0.0798 -1.7269,1.1062 -6.25352,4.37061 -10.05914,7.25424 -6.83551,5.17944 -39.51274,25.62239 -40.95637,25.62239 -0.41013,0 -2.08629,-1.43513 -3.72482,-3.18918 z m 22.50315,-140.61384 c 17.20375,-5.13031 32.99687,-15.36781 32.99687,-21.38939 0,-6.34833 -4.57095,-6.95635 -12.0356,-1.60093 -16.52804,11.85782 -38.77593,17.3512 -60.9615,15.05243 -14.1177,-1.46281 -24.97455,-5.39177 -35.17025,-12.72769 -9.70284,-6.9813 -12.65368,-8.11806 -14.99513,-5.77662 -5.02636,5.02637 6.30609,16.6339 22.82888,23.383 12.65536,5.16936 22.66401,6.68697 41.2186,6.24997 14.38337,-0.33876 18.06095,-0.78804 26.11813,-3.19077 z m -7.92724,-48.45151 c 1.21294,-1.00705 2.49478,-3.32998 2.84854,-5.16206 0.51883,-2.68692 0.12397,-3.8503 -2.04185,-6.01613 -3.23029,-3.23028 -5.22622,-3.37788 -8.0116,-0.5925 -4.0425,4.0425 -1.80403,13.60168 3.18509,13.60168 0.99798,0 2.8069,-0.82394 4.01982,-1.83099 z m -43.44278,-1.38379 c 5.11247,-4.02148 2.64696,-12.47946 -3.63778,-12.47946 -5.5543,0 -8.55517,8.17547 -4.60361,12.54189 2.42861,2.68358 4.77298,2.66582 8.24139,-0.0624 z m 165.81503,-16.54301 c 6.74731,-3.50004 13.49743,-10.83797 17.24315,-18.74468 3.07489,-6.49067 3.32132,-7.82595 3.32132,-17.99682 0,-9.98716 -0.26786,-11.50916 -2.94627,-16.74053 -5.70656,-11.14588 -14.48926,-17.77542 -26.48676,-19.99327 -20.6299,-3.81365 -38.85308,10.36302 -42.37154,32.96281 -2.73157,17.54542 6.22527,34.49499 21.6623,40.99286 5.38718,2.26762 7.43076,2.56123 15.61493,2.24352 7.22072,-0.28031 10.47669,-0.91549 13.96287,-2.72389 z m -230.0978,-3.84241 c 6.53019,-3.55417 11.60663,-9.16304 15.53637,-17.16584 2.57127,-5.23634 2.84518,-6.90049 2.84796,-17.30267 0.003,-10.74679 -0.21555,-11.97058 -3.29763,-18.47593 -3.59066,-7.57878 -9.64063,-14.18116 -15.80046,-17.24314 -6.081,-3.02279 -19.09953,-2.71383 -25.86172,0.61376 -22.04608,10.8486 -28.66579,43.67626 -12.44532,61.71731 7.70955,8.57488 14.9606,11.68648 26.08999,11.19585 5.76094,-0.25397 8.61724,-0.9916 12.93081,-3.33934 z"
     id="path9"
     transform="scale(0.75)" />
  <path
     style="fill:#ffffff;stroke-width:1.04628"
     d="m 371.87319,703.70592 c -3.92171,-3.9217 -4.06872,-9.32 -0.41536,-15.25158 3.12125,-5.06767 3.265,-7.95678 0.51951,-10.44142 -2.81949,-2.55161 -8.65567,-1.52258 -13.53425,2.38635 -5.50605,4.4117 -7.85542,5.43936 -12.43503,5.43936 -7.94313,0 -12.06932,-7.93836 -8.10793,-15.59884 1.67736,-3.24365 4.51679,-4.61881 13.10415,-6.3464 15.80217,-3.17905 25.37139,-15.23055 34.99544,-44.07331 5.09436,-15.26755 8.71449,-29.72914 11.1056,-44.36433 3.31952,-20.31773 2.56462,-28.77278 -2.56891,-28.77278 -1.41893,0 -2.82663,0.39927 -3.12823,0.88727 -0.3016,0.48801 -1.53206,7.43272 -2.73436,15.43268 -3.64852,24.27693 -8.2684,41.98736 -16.95392,64.99327 l -5.22052,13.82796 -4.33527,-0.4524 c -2.38439,-0.24882 -7.88056,-0.68901 -12.2137,-0.97818 -23.08065,-1.54033 -48.72365,-15.01196 -63.62756,-33.42693 -11.9007,-14.70426 -18.979,-30.60023 -23.64292,-53.09563 -1.47585,-7.11843 -2.91879,-13.97059 -3.20653,-15.227 -0.79527,-3.47252 -4.6823,-4.24774 -6.99263,-1.3946 -6.9044,8.52657 7.788,54.10851 24.60045,76.32084 l 5.14398,6.79614 -1.28246,10.82128 c -2.20453,18.60161 0.1375,24.43729 11.46494,28.56749 7.30748,2.66444 11.39336,6.59716 12.23362,11.77505 0.77523,4.77724 -1.26242,8.11435 -6.46092,10.5812 -4.98903,2.36746 -7.68095,1.59399 -14.00729,-4.02469 -6.38046,-5.66675 -11.5641,-7.60494 -15.72726,-5.8805 -3.96028,1.64039 -5.30561,5.0506 -5.30561,13.44884 0,7.82062 -1.37842,10.7286 -6.28925,13.26808 -3.85013,1.99099 -7.64659,1.98544 -11.51851,-0.0168 -5.51768,-2.85331 -6.35232,-6.64571 -3.47295,-15.78014 1.62359,-5.15061 1.62201,-5.68835 -0.0241,-8.20065 -1.39888,-2.13496 -2.61129,-2.6886 -5.88773,-2.6886 -3.40453,0 -5.049,0.81968 -9.40361,4.68719 -9.62955,8.5524 -14.54506,9.5651 -20.34359,4.1912 -1.9942,-1.84816 -2.69838,-3.54523 -2.69838,-6.50306 0,-5.59001 2.3687,-8.39501 9.96869,-11.8049 8.02633,-3.60117 14.62475,-9.37393 16.21203,-14.18343 1.07278,-3.25056 0.66687,-5.07623 -4.23008,-19.02566 -11.04561,-31.46443 -17.18319,-51.73462 -21.93781,-72.45249 -1.27857,-5.57124 -4.56457,-14.89891 -7.47676,-21.22356 -7.27774,-15.80571 -9.49428,-24.8279 -9.56608,-38.93773 -0.0471,-9.2538 0.51026,-13.76443 2.84422,-23.01823 1.59653,-6.33001 3.47823,-12.61548 4.18155,-13.96771 1.25653,-2.41582 1.37293,-2.33878 6.69026,4.42739 7.82219,9.95355 11.29169,10.32839 21.05865,2.27514 l 5.71242,-4.71011 3.13472,5.98765 c 4.04637,7.72898 18.91559,22.54153 27.82638,27.72032 13.46095,7.82325 22.11067,8.84941 24.36012,2.88995 l 1.13594,-3.00945 10.13024,9.59594 c 10.59515,10.03631 17.6986,14.90008 27.86928,19.08223 10.4161,4.28307 15.25938,2.78277 18.19416,-5.63597 l 1.17955,-3.38364 2.89947,6.04435 c 4.17535,8.70411 9.07197,13.01729 15.47681,13.63271 3.58021,0.34401 6.15903,-0.047 8.58538,-1.3017 6.25213,-3.23311 37.1061,-22.64588 39.47203,-24.83511 l 2.31165,-2.13901 1.26815,2.78327 c 0.69747,1.53079 2.30125,3.04256 3.56396,3.35948 8.70509,2.18484 28.22299,-12.2899 38.082,-28.24211 1.3345,-2.15928 2.76299,-3.53837 3.17442,-3.06465 0.41142,0.47371 1.31524,3.51537 2.00848,6.75924 1.65636,7.75057 3.85041,9.71415 10.07084,9.01302 7.58743,-0.85521 17.69925,-6.50673 26.44878,-14.78226 10.75998,-10.17707 15.32188,-17.42855 20.58015,-32.71361 0.25722,-0.74771 4.24023,0.72377 10.62027,3.92356 6.21393,3.11648 11.59747,5.11998 13.75777,5.11998 7.89756,0 12.80466,-10.09689 12.80466,-26.34698 0,-5.07466 0.2588,-9.22665 0.5751,-9.22665 1.6447,0 6.61418,3.37448 9.49871,6.45 11.97802,12.77114 30.59241,45.29576 27.64541,48.30438 -0.46912,0.47893 -4.55729,1.32571 -9.08482,1.88173 -21.44055,2.63309 -38.85753,10.71437 -54.37433,25.22909 -10.93009,10.22423 -22.38282,28.77057 -26.13715,42.32606 -1.68479,6.0831 -1.68693,6.65077 -0.0345,9.17267 2.6265,4.00855 4.82515,2.12156 8.77005,-7.52687 9.58833,-23.45114 25.48872,-40.82337 46.64299,-50.96055 12.1949,-5.84383 20.83733,-7.91439 33.03427,-7.91439 20.96876,0 39.3331,8.8835 49.21951,23.80925 11.33656,17.11507 9.39566,45.0378 -4.85406,69.8331 -14.73854,25.64586 -37.78629,46.61638 -67.80402,61.69301 -9.77136,4.90775 -12.57402,6.78181 -12.57402,8.40796 0,3.39086 10.62902,2.92442 19.52605,-0.85688 l 6.93931,-2.94925 5.33063,2.70125 c 2.93185,1.48568 8.11344,3.0818 11.51464,3.54695 7.49385,1.02484 11.30339,3.34729 13.2901,8.10214 1.29836,3.10741 1.29727,4.05643 -0.008,7.18097 -1.46852,3.51466 -7.85644,7.90876 -11.49737,7.90876 -0.85132,0 -5.69606,-2.10912 -10.76609,-4.68693 -11.71373,-5.95575 -22.69866,-8.17062 -26.89298,-5.42239 -3.6019,2.36004 -3.57629,6.27015 0.0611,9.33152 9.57307,8.05706 9.76654,8.29066 9.76654,11.79189 0,6.76118 -7.98041,12.89902 -15.04753,11.57322 -5.32354,-0.99871 -8.777,-4.28699 -12.27273,-11.68571 -5.9318,-12.55466 -16.43731,-18.82698 -30.2282,-18.04771 -6.1693,0.34859 -7.91835,0.93032 -12.72953,4.2338 -3.06765,2.10633 -6.94014,4.34365 -8.60553,4.97182 -6.23573,2.35209 -14.23569,-3.05667 -14.23569,-9.62473 0,-4.8717 3.1309,-9.0175 8.88262,-11.76202 5.92764,-2.82846 10.85103,-7.72291 27.56052,-27.39855 6.43079,-7.57234 16.79765,-18.63679 23.03747,-24.58766 6.23982,-5.95088 11.92456,-11.91593 12.63274,-13.25567 3.18295,-6.02151 -3.15927,-7.33152 -10.48723,-2.16619 -2.53202,1.78478 -12.37234,11.12202 -21.86736,20.74944 l -17.26367,17.50438 -11.52318,3.73021 c -12.1169,3.92242 -31.67482,8.57705 -41.20014,9.80534 l -5.64056,0.72734 3.85415,-6.69365 c 12.34233,-21.43532 21.07484,-41.72125 26.01994,-60.44526 2.97451,-11.26261 3.21879,-13.52133 3.2958,-30.47417 0.0687,-15.11732 -0.22676,-18.99409 -1.69441,-22.23352 -1.90175,-4.19756 -4.35968,-5.07061 -5.8913,-2.09257 -0.51792,1.00705 -1.24018,9.36424 -1.60501,18.57153 -1.32724,33.49569 -5.9851,46.75349 -38.2229,108.79482 -1.9975,3.84417 -2.80977,7.21527 -3.0938,12.83987 l -0.38515,7.62709 6.39321,6.12129 c 5.79774,5.55114 6.39322,6.522 6.39322,10.42342 0,8.91387 -9.48769,14.20886 -17.70846,9.88292 -1.971,-1.03718 -3.90308,-2.59202 -4.29349,-3.45521 -3.6051,-7.9706 -4.96033,-9.85976 -7.97749,-11.12041 -6.33858,-2.64842 -12.91817,2.17892 -12.91817,9.47785 0,4.63097 -3.21845,11.04654 -6.35543,12.66874 -5.06725,2.62037 -11.13445,1.98713 -14.65072,-1.52915 z"
     id="path10"
     transform="scale(0.75)" />
  <path
     style="fill:#ffffff;stroke-width:1.04628"
     d="m 144.19228,668.10389 c -3.96541,-2.41789 -5.55976,-5.08234 -5.55976,-9.29146 0,-3.9214 4.86057,-8.38396 12.07174,-11.08321 6.64981,-2.48913 7.80764,-3.44735 7.80764,-6.46162 0,-3.76598 -4.24903,-6.01645 -10.21828,-5.41203 -5.88774,0.59617 -10.47615,2.60171 -17.3609,7.58824 -2.79624,2.02529 -6.32745,3.68058 -7.84712,3.67843 -6.30359,-0.009 -13.64357,-7.8029 -12.11595,-12.86535 1.03712,-3.43694 5.61005,-7.87762 9.26392,-8.99604 1.77532,-0.54341 6.03446,-1.30682 9.46477,-1.69648 5.76114,-0.65443 13.14824,-2.88961 29.38796,-8.89216 l 6.32895,-2.33931 8.63126,3.79495 c 11.39651,5.01075 15.85389,4.89557 15.85389,-0.40971 0,-0.49205 -4.11974,-3.59559 -9.15498,-6.89676 -13.34589,-8.74973 -17.63272,-12.12958 -26.78266,-21.11605 -9.99874,-9.82013 -16.11088,-18.16326 -21.27931,-29.04649 -3.43981,-7.24328 -3.96423,-9.39867 -4.33186,-17.80436 -0.67514,-15.43643 3.59894,-26.37638 14.07892,-36.03649 6.66962,-6.14785 14.53466,-9.47734 24.38792,-10.32411 l 8.16142,-0.70137 0.6555,8.52779 c 0.84839,11.03733 4.56651,23.69489 11.6867,39.78491 3.14446,7.10577 5.7172,13.84738 5.7172,14.98135 0,5.9051 16.08855,59.5499 23.14778,77.18269 0.73994,1.84827 1.10502,3.60082 0.81128,3.89456 -0.29374,0.29375 -5.68699,1.52491 -11.985,2.73593 -19.72948,3.7937 -31.76781,9.78708 -40.73053,20.27807 -7.80578,9.13676 -13.33738,11.04375 -20.0905,6.92608 z"
     id="path11"
     transform="scale(0.75)" />
  <path
     style="fill:#ffffff;stroke-width:1.04628"
     d="m 634.77254,648.1652 c -8.33072,-1.16814 -16.42171,-3.49655 -26.12357,-7.51779 l -7.61183,-3.15496 11.27382,-10.75804 c 6.2006,-5.91693 13.62796,-13.70288 16.50524,-17.30212 10.81836,-13.53288 10.89241,-13.59273 18.84336,-15.23279 22.29805,-4.59944 38.59263,-21.87929 41.33169,-43.83087 2.26099,-18.12009 -1.90433,-29.52284 -20.17517,-55.23041 -18.58232,-26.14584 -22.94325,-36.87869 -23.0566,-56.74556 -0.0632,-11.08216 0.26603,-13.53757 2.80607,-20.92567 10.47861,-30.47863 40.62914,-48.08466 71.85734,-41.9602 36.41,7.14071 56.3168,40.5839 36.70945,61.67142 -8.4143,9.0495 -19.61916,8.27552 -31.53495,-2.17829 -6.22311,-5.45959 -8.69166,-6.66811 -13.76331,-6.73811 -7.54195,-0.10408 -13.51108,6.23185 -14.24849,15.12405 -0.59405,7.16345 2.89677,14.34594 13.02663,26.80278 19.0596,23.43786 25.91635,35.01254 31.3689,52.95295 2.63687,8.67606 2.86193,10.81525 2.86193,27.20337 0,16.36264 -0.22637,18.5225 -2.82706,26.9751 -8.93335,29.03449 -26.98807,50.7478 -51.6851,62.15854 -15.93997,7.36472 -39.12901,10.99034 -55.55835,8.6866 z"
     id="path12"
     transform="scale(0.75)" />
  <path
     style="fill:#ffffff;stroke-width:0.780541"
     d="m 474.64207,279.01119 c -3.16951,-0.94809 -7.37108,-5.24953 -8.36365,-8.56242 -1.55833,-5.20126 1.74494,-12.79426 6.5601,-15.0792 6.35402,-3.01518 12.9613,-0.51748 16.17108,6.11305 2.3049,4.76128 1.67516,9.46192 -1.79746,13.41701 -3.8151,4.34517 -7.6241,5.59106 -12.57007,4.11156 z"
     id="path13"
     transform="scale(0.75)" />
  <path
     style="fill:#ffffff;stroke-width:0.637819"
     d="m 245.86332,275.69712 c -3.60303,-1.82237 -6.39584,-5.76299 -6.83298,-9.64127 -0.26241,-2.32806 0.0148,-3.61826 1.35172,-6.29074 3.88532,-7.76681 12.16539,-9.64838 18.16939,-4.12883 2.05397,1.88823 3.88292,6.00478 3.88292,8.73956 0,4.66369 -3.65601,9.78305 -8.4026,11.76581 -3.2017,1.33743 -4.81936,1.2494 -8.16845,-0.44453 z"
     id="path14"
     transform="scale(0.75)" />
  <path
     style="fill:#ffffff;stroke-width:0.637819"
     d="m 170.5495,268.08804 c -12.38695,-21.20938 -21.0781,-53.69869 -25.22131,-94.28245 -1.3653,-13.37342 -1.55987,-48.26797 -0.33431,-59.95496 1.75386,-16.724845 5.81326,-36.368921 9.0892,-43.984058 1.50352,-3.495026 4.15725,-6.154572 6.80393,-6.818846 4.20591,-1.055616 21.12659,6.279382 36.04389,15.624777 27.29432,17.099349 55.8836,44.137257 79.06062,74.770467 10.8109,14.28882 19.63744,28.17106 19.63744,30.88544 0,1.76369 -1.72307,1.75356 -9.06869,-0.0533 -6.21452,-1.52862 -8.82362,-1.8071 -19.13449,-2.04232 l -11.93879,-0.27236 -3.88859,-7.34023 C 240.64606,153.94626 225.01655,133.60489 205.80179,115.01725 186.63155,96.472672 174.00816,89.812866 172.2099,97.294953 c -0.57379,2.387395 1.38659,4.478197 8.9684,9.565027 21.42185,14.3725 42.30163,37.43894 58.00117,64.07542 3.46581,5.88024 6.69963,12.14185 6.69963,12.97243 0,0.31423 -2.4401,1.49229 -5.42244,2.6179 -6.50119,2.45371 -11.22722,4.91975 -17.22012,8.98546 -21.49747,14.58432 -40.45955,42.69569 -43.08952,63.88038 -0.3621,2.91675 -0.79626,5.95621 -0.96481,6.75435 -0.31876,1.50949 -4.48632,6.52156 -5.42271,6.52156 -0.2945,0 -1.739,-2.06074 -3.21,-4.57944 z"
     id="path15"
     transform="scale(0.75)" />
  <path
     style="fill:#ffffff;stroke-width:0.637819"
     d="m 555.95944,270.27566 c -0.32024,-0.6139 -0.78189,-3.41233 -1.02588,-6.21873 -0.87116,-10.01963 -3.4395,-18.32666 -8.89746,-28.77778 -11.02019,-21.10194 -29.62423,-38.59057 -49.41687,-46.45407 -4.25217,-1.68937 -7.73122,-3.36808 -7.73122,-3.73047 0,-1.07171 5.93327,-11.85745 10.27349,-18.67554 16.23796,-25.50841 33.33565,-43.76373 54.78402,-58.49326 8.75265,-6.01082 12.75637,-9.947121 12.75637,-12.541546 0,-1.798614 -0.16781,-1.943828 -2.24637,-1.943828 -4.10323,0 -15.44965,6.175749 -24.70526,13.446844 -22.74302,17.86665 -43.75028,43.57564 -57.07749,69.85231 l -3.60955,7.1168 -10.87362,0.35376 c -6.60764,0.21497 -12.375,0.74179 -14.70052,1.34282 -6.36518,1.64508 -14.35092,0.98485 -14.35092,-1.18647 0,-1.60699 21.22109,-30.51953 32.09489,-43.72748 6.69874,-8.13667 30.21867,-31.28077 39.87199,-39.23485 27.69878,-22.823062 52.43231,-36.746274 65.591,-36.923053 3.70627,-0.04979 4.9148,0.191919 6.37819,1.275656 3.42936,2.539666 7.49009,15.635702 9.57282,30.872756 1.37755,10.077961 1.56374,42.517441 0.32034,55.809131 -4.06507,43.45463 -13.95406,83.35024 -26.96348,108.77989 -4.45532,8.70889 -8.38008,12.24784 -10.04447,9.05711 z"
     id="path16"
     transform="scale(0.75)" />
</g></svg>
