<?xml version="1.0" encoding="UTF-8" standalone="no"?>
<svg
   version="1.0"
   width="600.000000pt"
   height="472.000000pt"
   viewBox="0 0 600.000000 472.000000"
   preserveAspectRatio="xMidYMid meet"
   id="svg10"
   sodipodi:docname="frog16_t2.svg"
   inkscape:version="1.4.3 (0d15f75, 2025-12-25)"
   xmlns:inkscape="http://www.inkscape.org/namespaces/inkscape"
   xmlns:sodipodi="http://sodipodi.sourceforge.net/DTD/sodipodi-0.dtd"
   xmlns="http://www.w3.org/2000/svg"
   xmlns:svg="http://www.w3.org/2000/svg">
  <defs
     id="defs10" />
  <sodipodi:namedview
     id="namedview10"
     pagecolor="#505050"
     bordercolor="#ffffff"
     borderopacity="1"
     inkscape:showpageshadow="0"
     inkscape:pageopacity="0"
     inkscape:pagecheckerboard="1"
     inkscape:deskcolor="#505050"
     inkscape:document-units="pt"
     inkscape:zoom="1.1"
     inkscape:cx="400"
     inkscape:cy="315"
     inkscape:window-width="1920"
     inkscape:window-height="1022"
     inkscape:window-x="0"
     inkscape:window-y="30"
     inkscape:window-maximized="1"
     inkscape:current-layer="svg10" />
  <g
     transform="translate(0.000000,472.000000) scale(0.050000,-0.050000)"
     fill="#000000"
     stroke="none"
     id="g10">
    <path
       d="M5780 9191 c-229 -58 -411 -161 -590 -332 -94 -90 -111 -98 -276 -128 -324 -60 -690 -220 -985 -430 -157 -112 -162 -114 -230 -89 -495 179 -1539 -508 -1539 -1012 0 -18 -24 -45 -54 -58 -446 -203 -874 -723 -954 -1159 -23 -126 -29 -136 -115 -193 -554 -367 -826 -1032 -661 -1616 l44 -156 -61 -90 c-183 -265 -222 -489 -148 -840 8 -38 -2 -114 -27 -200 -155 -538 97 -1211 539 -1440 41 -21 56 -41 48 -62 -162 -422 248 -780 705 -615 l99 35 96 -92 c317 -303 834 -306 977 -5 l33 69 103 -48 c317 -147 604 -46 664 232 9 43 33 59 129 91 l117 38 142 -133 c250 -234 615 -384 1000 -411 162 -11 209 -23 284 -69 335 -204 780 -122 832 154 l12 68 153 0 c312 1 451 161 353 405 -13 31 -1 35 103 35 298 1 781 105 1087 233 197 83 182 82 470 40 121 -18 274 -32 340 -33 l120 0 0 -98 c0 -163 108 -242 329 -242 119 0 121 -1 121 -55 0 -230 344 -331 645 -190 l132 61 24 -58 c113 -274 567 -262 868 23 l103 97 99 -30 c579 -180 921 331 559 835 -85 118 -86 98 9 223 257 341 355 900 225 1284 -37 111 -38 130 -12 250 79 372 -4 763 -220 1041 l-70 89 41 150 c166 599 -23 1220 -470 1547 -73 54 -133 112 -134 130 -2 143 -223 491 -457 723 l-172 170 26 100 c14 55 22 155 18 223 l-9 123 86 71 c231 194 157 503 -158 661 -123 61 -192 115 -339 266 -439 451 -778 445 -1525 -27 l-205 -129 -148 30 c-198 41 -475 72 -649 72 -136 0 -148 4 -260 86 -453 331 -922 474 -1267 385z m499 -162 c292 -69 687 -316 1051 -658 211 -198 228 -110 23 124 -32 36 -53 71 -47 77 16 17 442 -29 633 -68 l169 -35 74 -144 c83 -165 187 -473 172 -512 -6 -15 -52 -38 -102 -52 -127 -36 -115 -61 29 -61 129 0 184 -58 184 -195 0 -25 7 -45 15 -45 9 0 70 -75 136 -166 124 -171 184 -235 184 -198 0 21 -134 307 -171 364 -32 51 -86 240 -70 249 8 5 53 16 99 23 102 16 87 36 -54 71 l-107 27 -49 146 c-26 80 -80 209 -120 287 -39 78 -67 144 -63 149 11 11 202 -65 356 -142 76 -39 154 -70 174 -69 64 1 -143 169 -328 264 l-174 91 118 76 c663 425 933 430 1331 26 156 -159 219 -208 343 -266 171 -81 235 -158 235 -279 0 -136 -63 -177 -500 -326 -436 -148 -535 -162 -633 -92 -71 51 -107 57 -107 19 0 -34 118 -146 172 -162 24 -7 59 -52 85 -109 160 -354 516 -517 723 -331 l79 72 94 -77 c277 -227 471 -572 484 -861 10 -234 14 -232 -301 -129 -1154 377 -2050 340 -3421 -144 -154 -54 -259 -82 -267 -70 -20 33 12 195 82 406 36 111 62 205 58 209 -37 41 -222 -333 -263 -534 l-32 -155 -132 -64 c-255 -124 -304 -93 -189 122 64 122 41 158 -52 80 -132 -111 -176 -293 -91 -378 63 -63 126 -61 301 10 165 67 170 65 170 -50 0 -48 15 -162 33 -252 29 -143 29 -166 4 -185 -166 -124 -173 -147 -31 -104 l92 27 85 -180 c103 -216 156 -289 285 -395 125 -104 135 -91 33 43 -126 167 -293 542 -269 605 5 14 37 46 69 70 78 57 76 84 -6 61 -127 -37 -126 -38 -158 245 -30 258 -67 227 501 419 1190 402 2102 431 3112 100 99 -32 230 -73 290 -90 388 -112 286 -578 -224 -1014 -152 -131 -195 -194 -118 -174 139 37 -205 -442 -403 -561 -30 -18 -55 -41 -55 -51 0 -37 134 10 248 88 141 97 139 98 100 -62 -209 -859 -1074 -1392 -1968 -1213 -161 32 -193 28 -130 -19 109 -79 310 -117 625 -117 168 0 305 -4 305 -8 0 -87 -274 -461 -508 -693 -496 -491 -1135 -761 -1896 -801 l-246 -13 -110 90 c-139 115 -332 220 -505 275 -126 41 -137 49 -174 131 -21 49 -60 118 -87 154 -35 47 -55 112 -72 239 -35 263 -116 449 -252 576 -77 72 -78 38 -1 -112 99 -197 167 -508 110 -508 -12 0 -45 12 -75 28 -87 44 -265 74 -358 60 -117 -17 -108 -35 33 -61 322 -62 769 -466 516 -467 -168 -1 -148 -49 38 -89 583 -122 1109 -540 894 -710 -100 -79 -386 -39 -469 66 -74 95 -358 241 -358 184 0 -7 67 -78 148 -157 225 -219 244 -356 59 -438 -172 -76 -480 9 -623 172 -124 141 -233 162 -163 30 l24 -44 -164 12 c-446 35 -992 371 -967 597 11 96 -26 198 -119 331 -25 35 -69 105 -99 155 -30 50 -96 120 -148 156 -185 129 -176 94 -95 355 60 195 72 269 82 484 l11 254 134 41 c143 43 392 195 489 298 75 81 163 85 233 11 595 -641 1983 -664 2551 -44 192 209 186 294 -7 117 -613 -562 -1661 -598 -2327 -80 -251 195 -265 231 -181 466 22 64 47 163 54 220 7 57 34 137 60 178 73 114 128 266 141 394 17 159 -21 174 -63 26 -34 -117 -107 -265 -130 -265 -8 0 -29 55 -47 122 -138 496 -632 885 -1186 931 -153 13 -211 -17 -82 -43 432 -86 858 -364 1043 -678 300 -513 90 -1200 -448 -1458 -261 -125 -262 -125 -356 70 -213 441 -756 722 -1251 647 -130 -19 -101 -43 71 -58 939 -81 1379 -808 1037 -1716 l-42 -112 -175 -9 c-253 -12 -330 -60 -124 -78 344 -30 587 -163 699 -384 23 -46 65 -115 92 -152 107 -148 31 -302 -148 -302 -47 0 -73 18 -122 85 -80 108 -228 212 -238 166 -3 -17 18 -60 47 -94 155 -185 195 -377 97 -468 -108 -100 -461 -41 -555 94 -18 26 -63 92 -99 147 -109 164 -173 142 -93 -33 258 -569 -518 -616 -892 -54 -117 176 -172 163 -119 -28 19 -67 -71 -115 -213 -115 -336 1 -511 274 -335 521 55 77 50 119 -13 119 -213 0 -562 446 -640 820 -44 212 -1 555 75 602 21 13 19 42 -9 145 -72 273 -35 523 111 743 324 487 362 580 169 410 -112 -99 -105 -101 -135 24 -155 648 284 1346 1000 1587 237 80 137 116 -155 57 l-67 -14 15 78 c61 329 333 688 704 931 196 127 206 130 283 58 483 -451 1907 467 1611 1038 -28 56 -27 59 40 119 204 178 625 385 903 443 131 27 140 22 98 -58 -78 -152 -72 -483 10 -483 10 0 25 -2 32 -5 8 -3 15 67 16 155 8 546 690 1001 1290 859z m-2660 -942 c251 -50 241 -359 -20 -653 -485 -544 -1423 -654 -1272 -149 126 416 880 885 1292 802z m6492 -415 c35 -186 -127 -532 -249 -532 -35 0 -154 58 -209 101 l-57 45 101 48 c117 56 173 134 193 268 21 143 197 199 221 70z m890 -1575 c320 -320 447 -848 310 -1292 -37 -121 -29 -117 -126 -65 -172 92 -162 54 40 -158 319 -335 420 -679 323 -1103 -30 -134 -30 -143 13 -264 167 -472 -105 -1381 -386 -1292 -119 38 -109 10 49 -147 239 -235 328 -488 224 -631 -136 -186 -568 -197 -568 -15 0 103 -33 102 -104 -4 -206 -304 -488 -448 -702 -359 -138 58 -155 183 -56 401 88 195 -5 189 -122 -8 -108 -179 -283 -280 -490 -280 -276 0 -306 194 -78 499 118 156 16 136 -142 -29 -269 -282 -616 -202 -402 92 35 48 85 130 111 181 86 172 350 368 429 319 49 -30 41 -37 149 111 108 148 263 283 416 363 96 51 98 54 45 60 -67 8 -272 -85 -382 -173 -114 -93 -119 -87 -107 122 44 714 629 1238 1383 1238 239 0 252 17 52 69 -167 43 -404 28 -598 -37 -173 -58 -171 -61 -102 91 83 185 139 382 152 541 8 93 29 171 58 223 24 44 56 116 70 160 17 53 72 127 163 218 358 357 469 763 274 1002 -42 51 -48 76 -41 165 10 130 17 130 145 2z m-1581 -3164 c0 -4 -17 -57 -38 -118 -57 -165 -88 -401 -72 -555 l14 -135 -155 -75 c-188 -90 -327 -222 -404 -384 l-56 -116 -109 -14 c-93 -13 -496 14 -516 33 -3 4 78 70 180 147 382 288 716 689 853 1027 43 104 303 268 303 190z"
       id="path1" />
    <path
       d="M5313 8107 c-25 -26 -13 -58 31 -77 41 -18 45 -36 50 -202 29 -1024 1418 -1354 1894 -449 70 133 77 139 159 152 183 27 311 141 327 292 9 90 -40 205 -60 137 -78 -277 -98 -290 -431 -289 -298 1 -430 31 -1085 250 -551 184 -828 243 -885 186z m533 -205 c288 -97 286 -96 240 -146 -30 -34 -52 -38 -133 -29 l-97 12 14 -74 c87 -466 726 -547 891 -113 15 41 29 50 64 41 25 -7 113 -22 195 -35 218 -33 208 -24 150 -139 -370 -729 -1535 -503 -1653 321 -38 269 -18 279 329 162z"
       id="path2" />
    <path
       d="M4170 7535 c-297 -106 -505 -463 -364 -626 190 -221 734 117 734 455 0 162 -172 242 -370 171z m233 -88 c113 -102 -55 -376 -292 -475 -221 -93 -326 48 -189 255 128 193 383 309 481 220z"
       id="path3" />
    <path
       d="M8305 7007 c-37 -16 -30 -116 11 -154 101 -91 224 -82 224 16 0 84 -153 174 -235 138z"
       id="path4" />
    <path
       d="M9069 6971 c-38 -58 -32 -129 14 -158 44 -27 132 30 149 98 26 104 -103 152 -163 60z"
       id="path5" />
    <path
       d="M2670 6697 c-746 -249 -1006 -979 -360 -1013 716 -38 1328 745 780 998 -89 41 -317 49 -420 15z m380 -106 c202 -84 189 -319 -30 -529 -355 -340 -975 -385 -966 -70 10 355 654 742 996 599z"
       id="path6" />
    <path
       d="M4844 6238 c-352 -259 -429 -825 -168 -1229 222 -343 724 -601 1249 -641 231 -18 227 13 -10 71 -556 136 -938 350 -1124 631 -230 347 -195 796 86 1113 122 137 108 159 -33 55z"
       id="path7" />
    <path
       d="M10163 5154 c-289 -571 -859 -944 -1582 -1036 -311 -39 -308 -39 -283 -64 38 -38 464 -30 640 12 677 163 1268 678 1335 1163 18 135 -15 112 -110 -75z"
       id="path8" />
    <path
       d="M1610 5032 c-311 -99 -534 -351 -564 -639 -15 -145 18 -149 63 -8 83 253 366 554 590 625 45 14 56 51 16 49 -14 -1 -61 -13 -105 -27z"
       id="path9" />
    <path
       d="M960 3260 c-61 -103 -41 -467 35 -627 110 -232 273 -395 462 -462 107 -38 122 -9 28 54 -293 194 -460 497 -482 875 -13 198 -15 207 -43 160z"
       id="path10" />
  </g>
  <path
     style="fill:#ffffff;stroke-width:0.909091"
     d="m 358.82346,593.6388 c -8.17741,-2.29266 -14.42551,-5.93172 -22.10683,-12.87561 -5.0222,-4.54004 -8.10664,-6.67228 -9.65194,-6.67228 -1.97549,0 -2.2152,0.32536 -1.8419,2.5 0.23604,1.375 0.73533,3.21591 1.10954,4.09091 0.57453,1.34342 0.1805,1.59091 -2.53292,1.59091 -20.57894,0 -50.70971,-12.46374 -63.69756,-26.3488 -5.33898,-5.7078 -6.91983,-9.39042 -6.92075,-16.122 -8.8e-4,-6.49397 -2.56424,-12.09523 -11.96188,-26.13831 -5.47647,-8.1836 -7.95417,-10.95618 -13.81086,-15.45455 -3.92541,-3.01499 -7.49726,-6.14763 -7.93745,-6.96144 -0.53873,-0.99597 0.55017,-6.19648 3.33111,-15.90909 3.84936,-13.44419 4.20222,-15.58879 5.16771,-31.4085 l 1.03625,-16.97905 4.13337,-1.1082 c 10.2906,-2.75901 24.73904,-10.71378 34.86701,-19.19649 9.60026,-8.04072 11.33433,-8.03586 20.08294,0.0561 15.22185,14.0794 31.83314,22.09647 57.02015,27.51951 8.0757,1.7388 12.18816,2.03169 28.52691,2.03169 16.19609,0 20.48375,-0.30033 28.27642,-1.98063 23.69753,-5.1098 39.62727,-13.16728 52.77664,-26.69516 C 461.04176,401.04264 465,395.49997 465,393.14006 c 0,-2.71753 -2.8863,-1.15981 -11.88668,6.41521 -23.73229,19.97387 -51.83333,29.26823 -84.34177,27.89588 -27.27209,-1.1513 -50.46086,-9.64274 -71.1163,-26.0419 -13.18337,-10.4668 -14.3008,-13.67312 -9.6791,-27.77289 1.31114,-4 2.85774,-9.93181 3.43689,-13.18181 0.61565,-3.45489 3.23575,-10.62873 6.30851,-17.27273 2.89053,-6.25 5.69195,-13.40909 6.22536,-15.90909 2.47664,-11.60758 1.99818,-18.25503 -1.07966,-15 -0.70916,0.75 -2.0095,3.61363 -2.88965,6.36363 C 297.85685,325.2627 293.25576,335 292.24544,335 c -0.44265,0 -1.68199,-2.96591 -2.75409,-6.59091 -5.84272,-19.75535 -18.82936,-36.8088 -36.95585,-48.52869 -7.25157,-4.68858 -19.94767,-10.07006 -28.6755,-12.15465 -13.07276,-3.12234 -27.20804,-3.21848 -23.8524,-0.16221 0.49582,0.45158 4.58331,1.72473 9.08331,2.82922 28.54786,7.00683 56.17123,26.87114 66.4112,47.75711 8.3281,16.98645 9.06021,38.24493 1.92539,55.90894 -7.69521,19.05144 -23.43425,33.80522 -43.72505,40.98787 -6.3934,2.26317 -7.73444,1.34577 -13.20287,-9.03211 -8.90354,-16.89698 -22.76715,-29.6029 -40.52445,-37.14044 -11.29679,-4.79521 -17.84626,-6.07243 -31.33877,-6.1114 -12.30992,-0.0356 -17.27272,0.60725 -17.27272,2.23727 0,1.12406 1.92281,1.55164 14.09091,3.1334 37.11862,4.82516 62.00415,24.20073 70.1191,54.59387 1.3198,4.9431 1.69361,9.50912 1.67461,20.45455 -0.0268,15.42179 -1.23656,22.10945 -6.75594,37.34631 l -2.82577,7.80085 -12.15182,0.98234 c -18.88689,1.5268 -20.99162,4.00285 -5.27038,6.20019 21.83573,3.05196 37.09416,11.70724 43.7954,24.84275 1.0429,2.04426 3.5265,6.23926 5.51912,9.32223 4.51071,6.97894 4.90047,11.84758 1.29178,16.13626 -2.18668,2.59872 -6.87376,4.62519 -10.72447,4.63672 -0.94478,0.003 -4.74212,-3.23969 -8.59866,-7.34233 -6.73246,-7.1621 -10.43535,-9.92532 -13.30056,-9.92532 -2.56058,0 -1.47261,3.13841 3.62853,10.46713 10.14239,14.57135 10.01662,26.21478 -0.32003,29.62618 -5.08706,1.67888 -16.40092,0.51776 -22.59753,-2.31914 -6.6755,-3.05614 -7.73165,-4.03674 -13.26866,-12.31963 -5.76777,-8.62808 -7.84169,-10.90909 -9.91864,-10.90909 -2.36028,0 -2.11446,2.72136 1.06755,11.81818 3.26419,9.33176 3.44444,14.59628 0.66687,19.47726 -3.05932,5.37608 -8.34199,7.8002 -16.94621,7.7763 -15.58061,-0.0433 -30.68582,-9.12316 -42.73947,-25.69108 -8.023001,-11.02774 -10.656009,-11.46775 -9.685496,-1.61858 0.712777,7.23358 -0.177299,8.47513 -7.219467,10.07036 -11.815392,2.67648 -25.302937,-2.7778 -29.955217,-12.11371 -3.360162,-6.74296 -3.066125,-10.91031 1.363209,-19.32052 4.098224,-7.78152 4.120258,-10.39821 0.08756,-10.39821 -9.64541,0 -25.894956,-16.06627 -35.399254,-35 -6.753589,-13.45397 -7.900685,-18.27631 -7.893012,-33.18182 0.0073,-14.16351 1.354223,-21.07638 5.012876,-25.7276 l 1.870345,-2.37776 -2.037154,-8.44732 c -1.462637,-6.06501 -2.014423,-11.01112 -1.956556,-17.53822 0.122506,-13.8181 2.557139,-20.30808 14.70397,-39.1963 9.800776,-15.2401 13.763369,-22.13532 13.763369,-23.9493 0,-2.0148 -2.788739,-0.7611 -8.00816,3.60014 -2.991933,2.5 -5.826589,4.54546 -6.299234,4.54546 -1.26976,0 -2.89754,-6.1796 -3.998359,-15.1791 -2.911632,-23.8034 7.220563,-50.12709 26.902008,-69.89204 11.369763,-11.41801 23.641608,-19.18846 40.040109,-25.35309 7.444343,-2.79853 10.725603,-4.76537 9.975323,-5.97935 -0.7628,-1.23424 -8.86836,-1.01779 -16.338959,0.43632 -3.5,0.68126 -6.532307,1.07709 -6.738458,0.87964 -0.85306,-0.81705 3.796506,-15.53765 6.794384,-21.51112 9.048213,-18.02916 25.942413,-35.61329 45.398623,-47.25263 8.10018,-4.84579 8.70394,-4.89283 13.29362,-1.03549 5.24573,4.4087 10.09757,6.4846 17.65861,7.55537 29.091,4.11979 75.06933,-21.9331 89.21318,-50.55121 4.3964,-8.89552 5.07306,-16.91087 2.11298,-25.029175 l -2.05671,-5.640715 3.52553,-3.023705 c 9.34982,-8.018995 27.82789,-18.494387 42.87133,-24.30417 8.30431,-3.207126 23.65131,-7.334531 24.4187,-6.567139 0.21611,0.216109 -0.64477,3.484175 -1.91306,7.262369 C 325.50916,70.621995 325,73.966527 325,80.41676 325,90.411955 326.52271,95 329.83997,95 c 2.58085,0 3.34185,-2.499391 3.34185,-10.975798 0,-18.330057 14.92226,-38.636379 36.36363,-49.483897 35.17158,-17.793834 67.94697,-7.906701 116.68165,35.198568 8.33181,7.369395 12.55147,9.967405 13.9376,8.581273 1.02322,-1.023221 -1.6733,-5.824924 -7.02289,-12.505686 -2.96112,-3.697953 -5.39076,-7.050683 -5.39919,-7.450511 -0.0306,-1.451776 32.60095,2.495301 48.27023,5.838706 l 4.19469,0.895032 5.07528,10.632975 c 5.50044,11.523729 10.42098,25.254898 10.8265,30.212308 0.25143,3.07372 0.1848,3.13355 -5.88205,5.28142 -3.375,1.19487 -6.13636,2.70517 -6.13636,3.35623 0,0.79823 1.99849,1.37215 6.13636,1.76223 3.375,0.31815 7.03518,0.94572 8.13374,1.3946 2.86432,1.17035 4.71826,4.44245 5.42068,9.56714 0.33647,2.45487 1.40186,5.28867 2.37026,6.30458 0.96748,1.01496 5.40638,6.61106 9.86422,12.43577 12.89035,16.84281 14.2766,14.93592 4.07701,-5.60821 -5.30977,-10.69502 -7.74128,-16.75886 -9.01051,-22.47086 -0.46805,-2.10645 -0.14032,-2.26696 8.69006,-4.25566 4.88989,-1.10126 2.24141,-3.075 -6.85905,-5.1116 -2.86434,-0.64101 -5.54599,-1.61066 -5.95923,-2.15477 -0.41323,-0.54411 -2.07783,-4.87566 -3.69912,-9.625658 -1.62128,-4.75 -4.75563,-12.475229 -6.9652,-17.167175 -2.20957,-4.691946 -4.0174,-8.929477 -4.0174,-9.416734 0,-1.442322 4.15232,-0.0049 17.70312,6.128216 14.23816,6.44424 17.75142,7.609732 17.75142,5.888861 0,-2.863627 -11.56543,-11.475543 -25.31507,-18.85024 l -8.42869,-4.520778 7.09915,-4.508047 c 27.89514,-17.713742 42.9109,-23.267427 56.95169,-21.063976 10.09772,1.584657 17.79423,6.513151 33.59583,21.51323 8.26777,7.84839 13.11246,11.675501 18.02061,14.235554 10.52299,5.48871 14.0753,8.251604 16.1684,12.575389 3.52619,7.284127 1.83073,13.556101 -4.69896,17.382753 -9.42429,5.523005 -47.40561,18.229285 -57.52133,19.243205 -4.87748,0.48887 -5.93606,0.26307 -10.62717,-2.26683 C 607.14976,112.85184 605,112.4853 605,114.63239 c 0,2.5038 3.44188,6.42536 8.70635,9.91972 2.79067,1.85234 5.75747,4.55004 6.59289,5.99489 0.83541,1.44485 2.95076,5.14855 4.70076,8.23045 7.06397,12.44024 18.89055,20.89495 30.11538,21.52921 7.63656,0.4315 11.34969,-0.78459 16.65536,-5.45482 l 4.19671,-3.6941 6.56173,5.43031 c 18.52679,15.33227 31.56173,40.25406 31.56173,60.34357 0,10.63083 0.80272,10.52544 -23.18182,3.0434 -55.61434,-17.34907 -100.34676,-20.10517 -153.63636,-9.46602 -18.1849,3.63058 -36.45361,8.67096 -62.27273,17.1812 -11.75,3.87292 -22.54932,7.32956 -23.99849,7.68145 l -2.63486,0.63978 0.55363,-5.27845 c 0.30449,-2.90313 2.61518,-12.18216 5.13486,-20.62005 2.51967,-8.4379 4.58122,-15.49472 4.58122,-15.68182 0,-0.18711 -0.55927,-0.3402 -1.24282,-0.3402 -3.77359,0 -15.29627,24.62049 -17.90112,38.24929 -0.61408,3.21289 -1.45466,6.50757 -1.86795,7.32152 -0.96042,1.89145 -17.43168,9.14952 -21.12482,9.30865 -4.0109,0.17283 -4.05555,-1.93292 -0.21256,-10.02516 1.7921,-3.77366 3.25836,-7.63692 3.25836,-8.58502 0,-5.07152 -9.19561,1.52767 -13.1298,9.42255 -4.28893,8.60677 -2.34523,17.50575 4.3028,19.6998 3.58194,1.18214 8.49758,0.34861 16.27164,-2.75913 9.10897,-3.6414 9.80665,-3.71636 10.77923,-1.15828 0.47687,1.25428 0.87163,4.19705 0.87723,6.53951 0.006,2.34244 0.81035,8.759 1.78835,14.259 l 1.77818,10 -4.99539,4.54545 c -2.74746,2.5 -4.98404,4.85227 -4.97018,5.22727 0.0391,1.05732 3.6946,0.79009 8.29569,-0.60645 l 4.17957,-1.2686 6.45124,12.94155 c 6.71849,13.47769 11.28932,19.57659 19.58766,26.13606 7.75491,6.1299 7.99778,4.5701 0.90369,-5.8038 -5.65686,-8.27219 -13.85296,-24.76798 -16.10083,-32.40517 -1.68188,-5.71418 -1.25957,-6.8885 3.96548,-11.02681 5.15912,-4.08609 4.74137,-4.88618 -2.16502,-4.14657 -4.01741,0.43023 -6.01709,0.2989 -6.4642,-0.42454 -0.96306,-1.55827 -3.13554,-17.86758 -3.15584,-23.69175 -0.0285,-8.17914 0.60977,-8.55055 33.16414,-19.29728 69.52963,-22.95287 119.81537,-27.5796 173.92886,-16.00298 19.82103,4.24035 55.59312,15.3323 60.6166,18.79553 9.5064,6.55382 10.1204,19.32271 1.66309,34.58584 -3.46776,6.25835 -14.90841,20.49175 -19.06276,23.71613 -4.94123,3.83511 -15.78215,14.92196 -15.78215,16.14017 0,0.69774 0.97537,1.22231 2.27272,1.22231 3.04773,0 2.87451,1.37951 -0.97697,7.78075 -6.18892,10.28608 -17.00023,22.26833 -26.7503,29.64755 -2.35514,1.78246 -2.92,2.67938 -2.17408,3.45219 1.486,1.53958 9.70047,-1.5985 17.65607,-6.74495 l 6.55872,-4.24282 -0.63665,4.24554 c -1.53929,10.26465 -8.48359,26.94409 -16.06612,38.58901 -5.08297,7.80621 -21.4404,24.05784 -29.44569,29.25525 -12.36439,8.02753 -23.11787,12.66112 -37.71043,16.24913 -11.63212,2.86009 -35.80387,3.11373 -49.35561,0.5179 -4.89558,-0.93775 -9.13931,-1.46676 -9.43049,-1.17557 -1.95008,1.95008 5.71931,6.55341 14.44733,8.67159 6.08971,1.47788 23.69172,2.81407 37.29332,2.83095 6.375,0.008 11.5909,0.3277 11.5909,0.71063 0,1.5443 -7.5814,13.52128 -13.82024,21.833 -7.69261,10.2485 -23.82435,27.22811 -32.99794,34.73227 -31.066,25.41253 -67.71791,38.69039 -115.35115,41.78815 l -13.53297,0.8801 -7.11404,-5.69192 c -8.81068,-7.04942 -18.73447,-12.78577 -28.92806,-16.72159 -13.47777,-5.20385 -13.69854,-5.36978 -18.46763,-13.87989 -6.48795,-11.57728 -6.99187,-12.92512 -8.94807,-23.93273 -2.20875,-12.42874 -3.7679,-17.45155 -7.87624,-25.3733 -3.50099,-6.75068 -9.99719,-14.33033 -12.28191,-14.33033 -1.85109,0 -1.21025,2.31281 3.32338,11.99416 3.87709,8.27935 7.80754,22.30671 7.81077,27.87583 0.002,3.42069 -0.21469,3.86995 -1.58862,3.29404 -11.2693,-4.72377 -24.57222,-6.98783 -30.62258,-5.21174 -4.74832,1.39387 -3.51652,2.66446 4.54271,4.68578 14.94063,3.74722 31.72807,14.56461 37.76728,24.33626 2.38178,3.85381 1.19392,5.74725 -3.6169,5.76535 -7.06069,0.0266 -9.69903,2.27946 -5.11529,4.36794 1.25037,0.56971 5.6481,1.89205 9.77272,2.93854 18.21316,4.62101 33.83022,11.70041 45.9392,20.8248 12.71067,9.57778 17.68754,18.99337 12.68415,23.99675 -6.23208,6.23209 -22.96864,4.84408 -30.66947,-2.54349 -4.99722,-4.79395 -13.41721,-10.29341 -18.90132,-12.34528 -8.12689,-3.04066 -7.90083,-1.1779 0.99102,8.1659 13.13702,13.80478 16.5266,20.55448 13.01412,25.91519 -3.73064,5.69368 -16.58757,8.33281 -26.73491,5.48786 z M 103.18182,484.58913 c 0,-0.72598 -1.94318,-2.64971 -4.318184,-4.27496 -6.383483,-4.36831 -13.561012,-11.40156 -18.06188,-17.69882 -8.867011,-12.40602 -12.491519,-24.78472 -14.208053,-48.52444 -0.319772,-4.42245 -2.603586,-4.16258 -3.994711,0.45454 -1.538391,5.1059 -1.485457,19.89653 0.100879,28.18757 3.412295,17.83445 17.205943,35.58494 32.216117,41.45761 5.152152,2.01575 8.265832,2.16587 8.265832,0.3985 z M 591.36364,359.47456 c 3.25,-0.50955 10.65663,-2.5091 16.4592,-4.44342 39.30621,-13.10302 71.24129,-42.84916 76.89979,-71.62882 2.40032,-12.20824 -0.1394,-11.52206 -7.63843,2.06374 -7.31005,13.24343 -13.98509,22.09379 -23.97331,31.78593 -16.23709,15.75577 -37.12888,27.13668 -61.06723,33.26667 -6.20764,1.58962 -34.67631,6.21818 -38.63457,6.28138 -0.625,0.01 -1.13636,0.62399 -1.13636,1.36446 0,1.27015 0.88927,1.64149 6.36363,2.65731 3.42827,0.63614 26.00469,-0.29324 32.72728,-1.34725 z M 72.868426,340.68182 c 7.304228,-16.87759 13.989962,-26.45396 24.617213,-35.26063 3.382901,-2.80336 8.912091,-6.39124 12.287091,-7.97307 4.17094,-1.95487 6.13636,-3.38986 6.13636,-4.48027 0,-2.0614 -0.35911,-2.03549 -8.81671,0.63629 -23.070903,7.28815 -39.250345,28.28971 -37.669013,48.89586 0.204807,2.66881 1.887539,1.78072 3.445059,-1.81818 z M 406.59468,337.5 c -0.20626,-0.625 -4.43353,-2.27355 -9.39394,-3.66343 -48.24679,-13.51852 -71.01098,-27.74699 -81.77004,-51.1093 -4.09725,-8.89678 -5.3997,-15.00429 -5.33137,-25 0.10178,-14.88983 5.03306,-27.61107 15.80143,-40.76296 3.00459,-3.66963 5.46288,-7.04463 5.46288,-7.5 0,-1.75463 -2.73454,-0.67508 -7.85454,3.10084 -9.3216,6.87454 -14.39215,13.7926 -18.75243,25.58502 -2.23643,6.04848 -2.78158,9.13628 -3.17058,17.95882 -0.93727,21.25704 4.87887,36.48392 19.53294,51.13798 18.31274,18.31275 49.42339,30.73444 78.27491,31.25318 5.7011,0.1025 7.48296,-0.14499 7.20074,-1.00015 z M 173.12374,248.99663 c 13.52872,-3.30538 29.38034,-12.94552 37.68808,-22.91996 4.83883,-5.80959 8.97985,-14.91375 9.46957,-20.81912 0.74051,-8.92959 -4.22818,-16.87318 -13.37243,-21.3789 -3.72,-1.83298 -5.53668,-2.06047 -16.45441,-2.06047 -11.83851,0 -12.51397,0.10446 -19.09091,2.95229 -17.83035,7.7206 -32.33225,19.98436 -38.64256,32.67868 -3.01357,6.06234 -4.0469,15.33812 -2.29875,20.63503 1.35862,4.11669 6.9809,8.96655 12.54643,10.82274 5.87771,1.96031 22.29878,2.00916 30.15498,0.0897 z m 394.99314,-73.60702 c 1.8286,-1.82859 1.83088,-5.77431 0.005,-8.38132 -3.4987,-4.99509 -13.90066,-7.46702 -15.87756,-3.77315 -1.08816,2.03326 -0.40143,6.8775 1.26987,8.95764 3.40364,4.23625 11.7387,6.06095 14.60282,3.19683 z m 43.11491,-0.77597 c 4.29295,-2.21998 6.13766,-8.9325 3.24873,-11.82143 -0.78571,-0.78572 -2.75986,-1.42857 -4.38698,-1.42857 -5.62779,0 -9.64851,7.52971 -6.54773,12.26211 1.69112,2.58097 4.02516,2.88097 7.68598,0.98789 z M 276.1233,171.37548 c 18.67835,-6.98846 32.24845,-29.20451 24.79097,-40.58606 -0.83719,-1.27772 -3.38492,-3.14711 -5.66162,-4.1542 -16.37415,-7.24307 -43.17382,11.97904 -44.6224,32.00549 -0.55831,7.7186 1.85189,11.66265 8.67931,14.20282 4.24481,1.5793 10.0157,1.07542 16.81374,-1.46805 z m 163.77778,0.46447 c 20.28159,-3.61434 35.88763,-15.12806 46.36902,-34.20982 4.28743,-7.80543 5.57999,-8.86995 12.75816,-10.50729 8.24439,-1.88056 13.94802,-5.91475 17.1081,-12.10059 2.73583,-5.35536 3.2844,-11.61415 1.35024,-15.405005 -1.86646,-3.65815 -2.97217,-3.090756 -4.69597,2.409735 -4.48797,14.32069 -6.16053,15.26597 -26.88154,15.1927 -20.7613,-0.0734 -25.74897,-1.19981 -73.18182,-16.52704 -35.81946,-11.574531 -51.52842,-15.170495 -57.04545,-13.05837 -3.30173,1.264023 -3.41106,4.752732 -0.20275,6.469767 2.71998,1.455689 2.83095,1.889428 3.9963,15.621463 1.79794,21.1861 9.24149,35.73454 24.58248,48.04649 15.4691,12.41476 36.04022,17.59702 55.84323,14.06796 z"
     id="path11"
     transform="scale(0.75)" />
  <path
     style="fill:#ffffff;stroke-width:0.909091"
     d="m 145.38309,241.45788 c -5.46279,-2.48108 -7.65766,-5.73974 -7.64694,-11.35321 0.0287,-15.03722 18.52622,-32.64048 41.69264,-39.67707 9.18064,-2.78853 19.81407,-2.29777 25.76392,1.18908 15.72792,9.21717 4.03948,32.76596 -22.46544,45.26129 -4,1.88574 -9.78632,4.07555 -12.85849,4.86623 -7.79043,2.00503 -19.7485,1.8652 -24.48569,-0.28632 z"
     id="path12"
     transform="scale(0.75)" />
  <path
     style="fill:#ffffff;stroke-width:0.909091"
     d="m 166.68057,163.79809 c -12.29578,-3.48579 -15.14274,-12.29316 -8.41331,-26.02748 2.70971,-5.53034 5.23216,-8.72434 13.00189,-16.46334 13.82452,-13.76986 30.16773,-23.696714 47.11573,-28.618068 9.21874,-2.676932 20.85965,-3.144475 25.89616,-1.040088 18.20966,7.608482 5.65082,38.601466 -23.28474,57.462616 -18.36834,11.97309 -41.66596,18.27251 -54.31573,14.68636 z"
     id="path13"
     transform="scale(0.75)" />
  <path
     style="fill:#ffffff;stroke-width:0.909091"
     d="m 259.95868,163.67769 c -2.97957,-2.97957 -2.84179,-6.2567 0.54826,-13.04081 3.36018,-6.7243 10.08776,-13.07289 17.67488,-16.67917 6.5765,-3.12592 11.10153,-3.32247 14.5234,-0.63082 2.28325,1.796 2.46158,2.37663 2.09344,6.81591 -1.22912,14.82167 -26.48949,31.88538 -34.83998,23.53489 z"
     id="path14"
     transform="scale(0.75)" />
  <path
     style="fill:#ffffff;stroke-width:0.909091"
     d="m 413.83616,161.75728 c -7.42008,-1.79766 -17.4103,-6.65535 -24.07805,-11.70782 -13.65568,-10.34756 -22.61459,-28.8312 -21.85195,-45.08402 l 0.27566,-5.874531 3.77364,-0.275146 c 3.68229,-0.268486 26.21708,6.360647 32.45461,9.547277 l 2.5919,1.32415 -2.13735,2.28991 c -2.0156,2.15948 -2.49446,2.25513 -8.40662,1.67918 l -6.26927,-0.61075 0.5892,4.38633 c 0.82608,6.14988 5.37501,14.93738 9.80359,18.93834 5.95495,5.37994 12.7386,8.08305 21.23666,8.46225 12.84676,0.57326 21.93693,-4.49537 27.69964,-15.44517 1.66464,-3.163 3.0845,-5.83584 3.15524,-5.93964 0.0707,-0.10379 4.81642,0.61862 10.54596,1.60537 5.72954,0.98674 11.74689,2.01066 13.37189,2.27536 1.86944,0.30453 2.95454,1.00371 2.95454,1.90375 0,3.10808 -6.22485,12.8236 -11.90919,18.58744 -6.62585,6.71852 -17.19829,12.54215 -26.0901,14.37127 -6.55736,1.3489 -21.30511,1.11815 -27.71,-0.43355 z"
     id="path15"
     transform="scale(0.75)" />
  <path
     style="fill:#ffffff;stroke-width:0.909091"
     d="m 653.18182,151.28923 c -2.25,-1.01896 -6.02534,-3.09246 -8.38963,-4.60777 l -4.29873,-2.75511 5.41743,-2.70713 c 6.5863,-3.29121 11.22803,-8.48349 12.70489,-14.21182 2.27157,-8.81074 4.36679,-11.95814 8.86908,-13.32301 3.11023,-0.94286 6.60605,2.99793 6.60605,7.44693 0,9.03411 -5.91981,23.4317 -11.82961,28.77085 -1.99659,1.80381 -3.93581,3.27066 -4.30937,3.25968 -0.37356,-0.011 -2.52011,-0.85366 -4.77011,-1.87262 z"
     id="path16"
     transform="scale(0.75)" />
  <path
     style="fill:#ffffff;stroke-width:0.909091"
     d="m 674.12413,578.53207 c -10.55477,-3.20926 -12.41089,-10.49093 -6.46187,-25.35025 2.79768,-6.98797 3.54293,-11.81818 1.82343,-11.81818 -2.24771,0 -4.4573,2.10561 -8.79662,8.38265 -8.6839,12.56171 -15.91235,17.71354 -27.97109,19.93546 -11.66283,2.14895 -20.47422,-2.15619 -20.42368,-9.97878 0.0295,-4.5625 3.22641,-11.9463 8.88042,-20.51075 5.01285,-7.59324 5.29525,-8.28373 3.77281,-9.22465 -1.22856,-0.75929 -5.83022,2.49438 -14.77709,10.44838 -10.81919,9.61854 -21.59762,12.78498 -26.5754,7.80719 -1.22727,-1.22728 -2.2314,-2.80259 -2.2314,-3.5007 0,-2.55259 2.19277,-7.56943 5.44155,-12.44971 1.83066,-2.75 4.69948,-7.45455 6.37515,-10.45455 3.87979,-6.94613 14.01614,-16.88908 20.4033,-20.01403 4.55469,-2.2284 5.19954,-2.3233 8.2621,-1.21586 3.03632,1.09796 3.43413,1.04616 4.62859,-0.60264 11.6235,-16.04474 22.13243,-25.7928 34.66203,-32.15245 9.71601,-4.93155 -0.90958,-4.96603 -11.60184,-0.0376 -3.69329,1.70235 -9.38081,5.0386 -12.63894,7.41391 -7.56436,5.51471 -7.95917,4.98848 -6.56595,-8.75168 1.30609,-12.88078 3.71786,-21.64813 8.77862,-31.91233 11.54411,-23.41365 33.85339,-40.43213 61.3463,-46.7976 2.25,-0.52094 10.78774,-1.33325 18.97276,-1.80512 8.18503,-0.47188 15.1123,-1.08839 15.39394,-1.37004 1.10168,-1.10167 -1.5881,-2.37453 -8.95466,-4.2375 -11.01125,-2.78472 -25.58084,-2.06695 -39.35744,1.9389 -5.41998,1.57597 -9.99381,2.7261 -10.16409,2.55582 -0.17028,-0.17027 1.31673,-4.1903 3.30447,-8.93339 4.90201,-11.69706 7.68595,-21.66741 9.4528,-33.85397 1.12728,-7.77531 2.34912,-12.18417 5.10093,-18.40619 5.79391,-13.10036 6.02757,-13.46214 15.06241,-23.32154 13.28006,-14.49206 19.64934,-25.06294 22.5742,-37.46563 2.6409,-11.19856 1.55585,-18.29367 -4.29487,-28.0838 -3.41631,-5.71659 -3.64426,-6.52106 -3.27893,-11.57178 0.21595,-2.98544 0.71387,-5.7435 1.10648,-6.12902 1.03856,-1.01979 15.01324,14.03449 18.56429,19.99844 12.11962,20.35482 16.12415,45.82939 10.61698,67.53931 -1.2454,4.90951 -2.60684,9.26886 -3.02543,9.68745 -0.41858,0.41858 -3.47724,-0.51001 -6.79704,-2.06353 -6.17638,-2.89027 -8.59818,-2.93213 -7.09458,-0.12262 0.45294,0.84631 4.67452,5.8547 9.3813,11.12976 9.98292,11.18823 13.30009,15.81535 17.6547,24.62655 6.88008,13.9213 8.41411,29.25291 4.85829,48.5556 -1.82513,9.90773 -1.82533,9.97205 -0.0489,15.85718 3.23373,10.71322 3.83082,14.87568 3.78272,26.37015 -0.0968,23.14307 -6.847,46.29197 -16.57654,56.84727 -4.28752,4.6514 -8.44462,6.37046 -12.07109,4.99168 -7.16415,-2.7238 -6.65453,0.23162 1.53363,8.89392 11.9609,12.65349 16.92898,20.46571 18.82599,29.60357 1.92535,9.2744 -1.03235,15.04392 -10.01266,19.53143 -12.72666,6.35959 -29.05509,3.8721 -29.05509,-4.4263 0,-7.79622 -2.22513,-7.11948 -10.41465,3.16748 -7.81641,9.81827 -13.91809,15.03431 -22.08672,18.8809 -6.31923,2.9757 -14.17371,3.95295 -19.28359,2.39924 z"
     id="path17"
     transform="scale(0.75)" />
  <path
     style="fill:#ffffff;stroke-width:0.909091"
     d="m 549.61578,525.80752 c -4.71133,-0.41836 -8.9125,-0.87612 -9.33594,-1.01727 -0.42343,-0.14114 4.22302,-4.14033 10.32546,-8.88708 25.05997,-19.49274 46.80012,-44.9659 56.19125,-65.83986 2.72741,-6.06231 8.37047,-11.90203 14.54527,-15.05218 6.07071,-3.09705 6.57054,-2.42396 4.04224,5.44342 -1.20513,3.75 -2.85052,10.29187 -3.65644,14.5375 -1.4896,7.84738 -2.00836,24.59068 -0.91599,29.56423 0.59268,2.69845 0.47875,2.79705 -8.23278,7.12449 -15.29052,7.59555 -23.08838,15.00437 -29.45135,27.98202 l -2.95477,6.02642 -4.63182,0.55658 c -5.80334,0.69736 -14.86016,0.54426 -25.92513,-0.43827 z"
     id="path18"
     transform="scale(0.75)" />
</svg>
