<?xml version="1.0" encoding="UTF-8" standalone="no"?>
<svg
   version="1.0"
   width="600.000000pt"
   height="554.000000pt"
   viewBox="0 0 600.000000 554.000000"
   preserveAspectRatio="xMidYMid meet"
   id="svg7"
   sodipodi:docname="frog4_t1.svg.svg"
   inkscape:version="1.4.3 (0d15f75, 2025-12-25)"
   xmlns:inkscape="http://www.inkscape.org/namespaces/inkscape"
   xmlns:sodipodi="http://sodipodi.sourceforge.net/DTD/sodipodi-0.dtd"
   xmlns="http://www.w3.org/2000/svg"
   xmlns:svg="http://www.w3.org/2000/svg">
  <defs
     id="defs7" />
  <sodipodi:namedview
     id="namedview7"
     pagecolor="#505050"
     bordercolor="#ffffff"
     borderopacity="1"
     inkscape:showpageshadow="0"
     inkscape:pageopacity="0"
     inkscape:pagecheckerboard="1"
     inkscape:deskcolor="#505050"
     inkscape:document-units="pt"
     inkscape:zoom="0.29027234"
     inkscape:cx="258.37805"
     inkscape:cy="108.51878"
     inkscape:window-width="1024"
     inkscape:window-height="1022"
     inkscape:window-x="0"
     inkscape:window-y="30"
     inkscape:window-maximized="0"
     inkscape:current-layer="svg7" />
  <g
     transform="translate(0.000000,554.000000) scale(0.050000,-0.050000)"
     fill="#000000"
     stroke="none"
     id="g7">
    <path
       d="M8987 10899 c-336 -66 -608 -367 -698 -769 l-33 -150 -95 0 c-52 0 -149 -6 -215 -12 l-119 -13 -57 98 c-488 833 -1750 510 -1750 -448 0 -52 -10 -89 -25 -93 -1428 -396 -2544 -971 -3388 -1748 l-183 -169 -137 -5 c-459 -17 -947 -571 -947 -1075 0 -48 -6 -57 -35 -45 -100 39 -420 35 -561 -7 -489 -149 -647 -780 -338 -1346 661 -1207 817 -1970 633 -3097 -55 -334 -67 -366 -180 -479 -272 -272 -60 -722 340 -721 284 2 465 205 435 489 -22 221 290 391 717 391 423 0 949 -240 949 -432 0 -361 522 -509 794 -225 215 225 92 629 -209 689 -97 19 -225 223 -225 357 0 85 102 177 231 209 134 34 168 27 250 -47 325 -293 829 64 634 449 -73 146 -174 201 -398 219 -610 50 -1577 557 -1877 986 -85 121 -75 128 82 57 1067 -483 1930 -270 2130 526 l33 132 162 0 c90 0 182 6 205 12 39 10 43 1 53 -106 7 -79 34 -165 80 -257 38 -76 117 -249 174 -384 137 -323 281 -583 545 -991 361 -557 415 -687 416 -1001 0 -328 -82 -555 -222 -616 -241 -103 -328 -370 -190 -578 214 -323 741 -215 786 161 14 118 71 160 221 160 175 0 351 -226 305 -391 -113 -403 420 -680 731 -380 181 174 164 413 -41 584 -137 114 -121 172 46 170 200 -2 450 -138 484 -262 63 -236 371 -366 616 -261 432 186 297 800 -176 800 -113 0 -200 37 -390 168 l-120 82 82 6 c64 5 104 -8 182 -56 219 -136 506 -56 608 169 152 335 -244 676 -581 501 -168 -86 -779 54 -1088 250 -181 115 -243 258 -423 972 -195 771 -290 1017 -513 1323 -66 92 -118 170 -114 173 4 3 106 39 227 81 520 180 1128 477 1479 723 58 41 59 40 141 -100 41 -71 118 -181 172 -245 62 -74 97 -136 97 -170 3 -262 124 -564 384 -959 298 -454 386 -648 340 -749 -50 -111 -420 -234 -578 -192 -395 105 -683 -279 -433 -576 106 -126 383 -161 504 -64 124 99 296 96 477 -8 132 -77 213 -286 136 -350 -187 -155 -87 -519 164 -594 342 -103 658 230 485 513 -27 45 -37 85 -28 117 44 179 662 -152 700 -375 46 -270 352 -409 614 -277 322 161 212 717 -142 717 -60 0 -216 115 -351 258 l-58 62 90 0 c71 0 100 -11 139 -52 266 -285 726 -80 670 298 -31 204 -180 296 -470 290 -224 -4 -442 64 -663 206 -163 106 -187 164 -228 564 -72 706 -214 1128 -509 1522 -116 154 -120 163 -131 310 -38 496 -85 753 -193 1046 l-56 153 194 155 c858 685 998 1366 420 2046 -70 81 -134 158 -144 172 -12 17 -4 59 23 123 308 719 -320 1534 -1068 1386z m374 -211 c484 -141 715 -690 490 -1164 l-78 -166 140 -144 c296 -305 408 -543 407 -863 -2 -363 -171 -605 -750 -1077 -292 -238 -305 -251 -477 -510 -453 -683 -1195 -1214 -2208 -1581 -180 -66 -189 -61 -116 56 95 150 227 432 282 601 69 212 87 664 26 676 -25 5 -35 -18 -46 -110 -50 -413 -195 -765 -544 -1322 -147 -234 -147 -236 57 -511 213 -288 297 -498 456 -1146 173 -707 243 -898 397 -1070 173 -194 643 -375 1082 -416 167 -16 190 -13 358 49 158 57 312 -37 312 -191 0 -192 -244 -265 -411 -124 -148 124 -558 48 -558 -103 0 -139 495 -472 700 -472 248 0 388 -175 280 -351 -115 -184 -424 -149 -482 55 -98 343 -825 533 -969 254 -51 -98 18 -338 97 -338 35 0 126 -98 143 -154 53 -176 -222 -317 -404 -206 -106 64 -124 145 -64 292 54 132 -151 444 -345 528 -229 98 -604 -59 -569 -239 45 -237 -345 -338 -458 -118 -64 122 2 247 155 296 253 81 390 707 253 1157 -52 171 -125 305 -406 741 -267 416 -415 690 -537 993 -49 121 -118 279 -155 350 -94 184 -92 295 9 517 67 147 79 196 94 390 42 546 157 893 429 1303 144 217 -25 159 -200 -69 -222 -289 -340 -639 -373 -1110 -35 -503 -85 -562 -478 -576 l-150 -5 -13 270 c-41 886 -552 1579 -1337 1811 -331 98 -792 58 -1035 -91 -138 -84 -91 -95 175 -40 809 168 1562 -238 1891 -1019 212 -504 195 -1168 -40 -1515 -467 -689 -2046 -236 -3197 919 -236 237 -307 279 -236 138 157 -307 703 -824 1055 -998 92 -46 108 -64 168 -193 227 -491 608 -812 1309 -1102 414 -172 762 -275 869 -258 231 37 383 -258 185 -360 -118 -61 -213 -47 -301 43 l-73 75 -170 0 c-418 0 -642 -293 -475 -621 88 -172 208 -309 270 -309 199 0 310 -254 169 -385 -198 -185 -484 -98 -484 147 0 244 -552 541 -1063 572 -523 32 -1059 -272 -975 -552 72 -242 -142 -413 -376 -300 -186 90 -195 307 -17 417 78 49 85 66 151 411 214 1119 85 1951 -475 3050 -292 575 -342 786 -245 1044 126 338 429 420 1000 269 936 -246 1443 -552 1910 -1151 221 -285 266 -240 79 79 -335 573 -900 940 -1819 1184 l-100 27 1 159 c4 391 348 822 688 863 117 13 117 14 51 -109 -97 -183 -23 -150 201 89 578 616 1434 1183 2299 1521 263 103 1218 422 1234 412 7 -4 45 -74 84 -155 96 -199 250 -332 284 -244 6 16 -25 96 -69 178 -311 587 15 1243 617 1244 356 0 535 -122 715 -487 109 -220 158 -253 214 -145 39 75 63 81 341 87 l220 5 24 156 c89 586 445 878 907 742z m105 -3963 c70 -214 130 -547 153 -849 20 -279 22 -285 172 -486 276 -372 388 -707 470 -1410 28 -248 56 -402 84 -466 108 -253 568 -479 982 -482 211 -2 217 -3 265 -58 171 -199 -126 -404 -313 -216 -171 174 -599 160 -599 -19 0 -149 449 -559 613 -559 193 0 259 -281 87 -370 -160 -83 -333 0 -354 170 -28 232 -557 589 -819 553 -210 -29 -326 -257 -207 -408 112 -142 -61 -349 -237 -283 -156 60 -190 197 -78 313 243 251 -104 694 -563 720 l-172 10 -87 -73 c-134 -111 -321 -78 -352 63 -36 165 132 272 312 197 150 -62 578 70 724 225 156 164 82 431 -261 945 -296 441 -498 948 -356 890 17 -7 44 -17 60 -24 56 -23 30 41 -53 131 -232 250 -363 428 -414 563 -18 48 -10 60 128 175 196 163 410 411 589 682 174 263 162 260 226 66z"
       id="path1" />
    <path
       d="M9124 10289 c-136 -69 -208 -172 -220 -318 -32 -385 385 -615 666 -367 357 315 -23 899 -446 685z m379 -122 c74 -66 26 -187 -73 -187 -97 0 -143 110 -77 183 41 46 102 47 150 4z"
       id="path2" />
    <path
       d="M6857 9941 c-335 -102 -421 -538 -152 -774 259 -228 677 -57 710 290 31 317 -264 572 -558 484z m334 -170 c78 -78 39 -191 -66 -191 -112 0 -164 121 -85 200 53 53 91 50 151 -9z"
       id="path3" />
    <path
       d="M9153 8883 c-85 -94 53 -249 143 -159 38 38 28 105 -22 153 -57 53 -78 54 -121 6z"
       id="path4" />
    <path
       d="M8644 8796 c-37 -37 -29 -126 15 -165 50 -45 102 -33 139 32 55 98 -76 211 -154 133z"
       id="path5" />
    <path
       d="M9320 8327 c-819 -80 -1881 -407 -1831 -564 22 -68 63 -64 352 38 725 255 1325 368 1895 356 314 -7 343 -1 344 76 1 80 -396 129 -760 94z"
       id="path6" />
    <path
       d="M2060 3512 c0 -206 630 -1065 1021 -1393 188 -157 139 -67 -153 281 -348 414 -538 662 -718 937 -136 207 -150 224 -150 175z"
       id="path7" />
  </g>
  <path
     style="fill:#ffffff;stroke-width:0.909091"
     d="m 505.90909,715.36882 c -7.92104,-3.43099 -10.32768,-8.79298 -7.69843,-17.15207 2.0395,-6.48408 1.34871,-11.67755 -2.52389,-18.9751 -3.53872,-6.6684 -12.28942,-15.86989 -17.9595,-18.88469 -3.5396,-1.88201 -5.31604,-2.17241 -13.18182,-2.1549 -8.05617,0.018 -9.73883,0.31719 -14.78345,2.62897 -5.79573,2.656 -11.93412,8.31987 -12.15682,11.21704 -0.0671,0.87357 -0.039,3.22466 0.0626,5.22466 0.52935,10.422 -13.93985,17.66551 -24.03144,12.0305 -2.49631,-1.39391 -4.30894,-3.38652 -5.78166,-6.35574 -3.91003,-7.88316 -0.83238,-13.53064 10.25809,-18.82364 3.25737,-1.5546 6.72896,-4.0286 8.0079,-5.7068 9.70002,-12.72804 14.53618,-38.18015 11.28624,-59.39794 -2.59901,-16.96806 -6.71558,-25.69666 -27.82255,-58.99382 C 390.27157,509.55851 380.79845,492.12254 371.53902,470 c -2.51131,-6 -6.59701,-15.40909 -9.07932,-20.90909 -7.05705,-15.6361 -7.03373,-17.8546 0.38483,-36.61149 3.89955,-9.85955 4.26472,-11.53486 5.87461,-26.95078 3.7461,-35.87209 10.22584,-55.79648 26.61707,-81.84411 5.38226,-8.55307 6.41644,-12.32089 3.38179,-12.32089 -5.16549,0 -18.18881,14.98937 -25.76032,29.64922 -8.19405,15.86519 -12.40109,32.28243 -14.78697,57.70363 -3.21558,34.26157 -5.38236,36.88351 -31.89457,38.59455 l -9.17841,0.59235 -0.63189,-12.76611 c -1.12984,-22.82646 -4.65577,-40.01926 -11.42936,-55.73073 -12.48793,-28.96604 -31.71071,-49.50177 -58.6361,-62.64106 -19.51803,-9.5246 -37.43046,-12.9706 -56.85137,-10.93712 -9.95716,1.04258 -23.04047,4.26863 -28.49783,7.02693 -3.96734,2.0052 -8.77845,5.69716 -8.77845,6.73642 0,1.40807 6.18977,0.98704 16.36363,-1.11305 12.90466,-2.66379 35.07729,-2.85725 46.36364,-0.40454 38.32455,8.32853 68.73704,36.05593 82.58067,75.2897 5.82345,16.50402 8.42304,38.40309 6.58325,55.45762 -3.60092,33.38003 -16.70132,51.02147 -42.46007,57.17814 -7.07437,1.69086 -9.85805,1.86876 -22.61294,1.44511 -19.74606,-0.65586 -34.94577,-4.1058 -56.78729,-12.88923 C 147.85613,450.70262 115.24636,428.88423 83.181818,398.23552 66.38347,382.17891 63.464528,379.8082 62.132803,381.13993 c -0.680802,0.6808 -0.128918,2.52986 1.873248,6.27624 10.531193,19.70558 43.612159,51.4766 67.069039,64.41321 3.4087,1.87992 7.15319,4.28282 8.32108,5.33978 1.1679,1.05697 4.58905,6.75538 7.60255,12.66315 6.94564,13.61646 13.58762,22.52981 24.63264,33.05634 11.34711,10.81444 25.61243,20.23743 44.27773,29.24777 29.00222,14.00028 57.2172,23.52065 72.87997,24.59134 8.10583,0.5541 10.23504,1.02642 12.96804,2.87669 3.55059,2.40378 6.87926,8.19883 6.87926,11.97646 0,5.31973 -7.52398,10.69182 -14.97462,10.69182 -4.0223,0 -8.55899,-2.62569 -13.13839,-7.60407 -2.0741,-2.25481 -2.69599,-2.39593 -10.55773,-2.39593 -10.06493,0 -16.45098,1.11632 -22.66787,3.96251 -10.32678,4.72776 -16.04775,12.84882 -16.04775,22.7802 0,6.91399 0.6233,9.65294 3.53414,15.53001 C 240.2491,625.57942 248.73438,635 253.20788,635 c 4.09139,0 9.89238,3.62797 12.25951,7.66719 4.75326,8.11082 2.28897,15.74248 -6.71663,20.80077 -11.62215,6.52797 -24.19055,1.43472 -25.99582,-10.53459 -1.17831,-7.81252 -1.61432,-8.96133 -5.0512,-13.30932 -7.16469,-9.064 -26.02561,-19.19808 -45.04686,-24.2039 -11.00437,-2.89602 -31.7613,-4.03796 -41.82863,-2.3012 -21.74017,3.75051 -41.626034,16.02825 -44.900007,27.72174 -0.939128,3.35423 -0.950201,5.22655 -0.05584,9.44097 3.234798,15.24307 -10.050292,25.50554 -24.054222,18.58141 -6.215368,-3.07313 -9.545455,-7.90949 -9.545455,-13.86307 0,-5.07692 1.713748,-8.00416 7.660194,-13.08437 5.902002,-5.04224 6.270404,-6.03728 10.470034,-28.27927 8.998981,-47.66019 8.456503,-87.70835 -1.721206,-127.06703 C 72.824617,463.91895 65.468165,445.09174 49.939905,413.01097 L 38.636364,389.6583 v -29.99024 -29.99023 l 3.381179,-2.78706 c 11.579794,-9.54504 27.938697,-10.49421 56.192462,-3.26036 24.149765,6.1831 46.492585,14.25751 63.466635,22.93602 24.42315,12.48711 40.89398,26.08802 61.59794,50.86499 12.56346,15.035 16.27087,18.24629 16.27087,14.09351 0,-0.91129 -1.8002,-5.30902 -4.00047,-9.77273 -19.805,-40.17881 -59.10486,-68.10083 -119.29288,-84.75596 l -12.14185,-3.35988 -0.01,-8.21809 c -0.0123,-10.41432 1.61827,-16.85538 7.00986,-27.691 8.19213,-16.46395 24.94854,-30.11766 38.70398,-31.53735 3.20463,-0.33075 5.18558,-0.18827 5.18558,0.37297 0,0.49949 -1.22209,3.31808 -2.71575,6.26355 -2.65836,5.24218 -3.44262,8.5372 -2.03199,8.5372 1.69764,0 6.27385,-4.07483 22.92956,-20.41729 29.69233,-29.13392 58.34555,-50.39038 95.81861,-71.08325 27.46954,-15.16886 50.71844,-24.63525 102.31465,-41.66005 33.70657,-11.12188 29.62625,-11.11942 35.22647,-0.0212 5.78098,11.45636 12.4585,18.63636 17.33213,18.63636 3.80921,0 3.15907,-4.22409 -2.32102,-15.08007 -5.27351,-10.44678 -7.00754,-17.85419 -7.00407,-29.91993 0.002,-8.308658 0.41178,-12.100954 1.71744,-15.909089 6.28861,-18.341653 18.49087,-30.11903 35.31554,-34.085846 11.27175,-2.657581 25.82074,-1.140082 35.34588,3.68667 6.05263,3.0671 13.9234,11.044167 17.93081,18.172978 1.67205,2.974409 4.93769,8.835956 7.25699,13.025662 5.88319,10.6277 9.36327,12.404063 12.48275,6.37166 2.68306,-5.188478 4.68542,-5.74882 21.8834,-6.12388 l 15.69168,-0.342209 0.47454,-2.397971 c 0.26099,-1.318886 0.91728,-5.057064 1.45842,-8.307064 2.90847,-17.468017 8.83286,-30.699328 17.70669,-39.545455 11.27502,-11.239809 24.80155,-14.466444 41.33026,-9.858965 28.08715,7.829464 44.60894,37.418769 36.97673,66.222602 -0.66243,2.5 -2.9588,8.526887 -5.10305,13.393087 l -3.89862,8.84763 8.28333,8.66451 c 18.92816,19.7992 26.38277,33.95562 27.97203,53.11924 2.12344,25.60494 -9.03171,42.74914 -50.05366,76.92674 -17.70444,14.75053 -21.5805,18.93261 -33.09891,35.71212 -23.54696,34.30213 -57.18593,62.28161 -101.68066,84.57369 -18.52187,9.27955 -52.39732,22.73781 -53.35054,21.19546 -0.23379,-0.37828 0.84376,-2.7167 2.39454,-5.19649 4.66017,-7.45188 15.82231,-31.27884 18.29557,-39.05417 3.02759,-9.51798 4.45438,-19.49844 4.54866,-31.81818 0.0906,-11.83753 -0.55921,-15 -3.08209,-15 -0.99047,0 -1.80305,0.10227 -1.80571,0.22727 -0.003,0.125 -0.82889,5.13637 -1.83607,11.13637 -4.41829,26.32078 -11.34095,43.16683 -32.0947,78.10128 -5.32038,8.9557 -9.93452,17.67488 -10.25364,19.37595 -0.79955,4.26195 1.2098,8.33783 10.37196,21.03915 8.45762,11.72462 15.8548,26.0869 20.19529,39.21089 1.57095,4.75 6.31411,22.0813 10.54035,38.51399 11.47995,44.63703 15.67758,56.51118 23.70156,67.04656 11.30876,14.84823 42.49784,27.60756 75.49064,30.88289 10.17502,1.01012 10.22594,1.00532 19.64516,-1.85147 8.58979,-2.60523 9.82522,-2.76814 13.66293,-1.8018 10.43997,2.62882 13.88771,15.46346 5.94846,22.1439 -5.36838,4.5172 -12.71049,4.23684 -20.86555,-0.79675 -9.04506,-5.58294 -19.46801,-6.33522 -30.51401,-2.20239 -5.49382,2.0555 -8.53299,5.28362 -8.53299,9.0635 0,3.71153 9.3569,13.35204 19.34711,19.9335 10.65325,7.01829 19.81399,10.7665 28.82552,11.7943 12.32185,1.40533 19.1001,6.48335 19.1001,14.3091 0,8.96837 -7.26553,15.71476 -16.87793,15.67198 -8.27807,-0.0369 -14.03823,-4.09707 -16.62312,-11.71729 -3.1744,-9.35812 -13.2048,-17.43103 -27.86259,-22.42504 -5.8832,-2.00445 -9.00964,-2.49487 -16.36364,-2.56688 -7.99508,-0.0783 -9.63312,0.18494 -13.58911,2.18372 -6.55289,3.31085 -8.23763,6.08361 -8.18995,13.47898 0.0517,8.02654 2.75953,14.25229 6.9688,16.02272 5.65224,2.37733 9.81026,8.20991 9.81026,13.76111 0,2.73669 -0.66265,4.01271 -3.47142,6.68463 -5.5122,5.24363 -13.64763,6.8807 -20.16494,4.05774 z M 211.04275,597.76619 c -1.27642,-1.9288 -8.34157,-10.7959 -15.70033,-19.70465 -25.76332,-31.18992 -34.06422,-42.06819 -49.33453,-64.65245 -4.1414,-6.125 -7.95716,-11.13636 -8.47946,-11.13636 -1.82365,0 -0.005,7.09016 3.73433,14.56193 10.26181,20.50249 36.14674,54.38824 56.73463,74.27087 12.56851,12.13796 18.76313,15.30079 13.04536,6.66066 z M 528.43948,217.19963 c 32.03021,-10.68832 60.08336,-17.33966 86.10597,-20.41551 4.5,-0.5319 18.61364,-1.20393 31.36364,-1.49339 12.75,-0.28948 23.89773,-0.89679 24.77273,-1.34959 0.875,-0.45281 1.59091,-1.83764 1.59091,-3.07739 0,-5.56356 -11.13074,-8.12877 -35,-8.06617 -18.35103,0.0481 -30.50367,1.4506 -55,6.34725 -52.44958,10.4843 -90.3655,26.03512 -82.54546,33.85517 2.21068,2.21067 8.5321,0.93364 28.71221,-5.80037 z m 57.49154,-54.70672 c 3.96525,-5.04099 0.57179,-12.03836 -5.83815,-12.03836 -5.38343,0 -7.57001,5.23985 -4.59072,11.00113 2.46002,4.75717 7.13688,5.22232 10.42887,1.03723 z m 34.29117,-4.95004 c 0.62779,-0.52102 1.14145,-2.56505 1.14145,-4.5423 0,-6.50162 -7.52128,-11.46765 -11.08456,-7.31875 -2.2172,2.58159 -2.66484,4.85746 -1.59377,8.10285 1.64363,4.98023 7.69083,6.95014 11.53688,3.7582 z M 478.01695,131.85679 c 5.82004,-2.75332 11.80608,-8.88242 14.5316,-14.87891 1.47228,-3.23917 1.93972,-6.08931 1.96445,-11.97788 0.0278,-6.625402 -0.32336,-8.451793 -2.46283,-12.808233 -3.14594,-6.405874 -8.7832,-12.025862 -15.22588,-15.179251 -6.47134,-3.16742 -16.32259,-3.352071 -22.89308,-0.429107 -13.38748,5.955586 -20.84289,21.884553 -16.78158,35.854961 5.38221,18.51416 24.03944,27.37928 40.86732,19.41842 z m 153.24138,-28.71635 c 6.13332,-2.63849 13.05552,-10.15092 15.14222,-16.433372 3.23581,-9.742134 0.17034,-21.893749 -7.44395,-29.50804 -12.35677,-12.356777 -34.11491,-9.263653 -42.59296,6.054994 -2.49389,4.506092 -2.72706,5.666867 -2.72477,13.56416 0.002,7.300465 0.33344,9.269157 2.14185,12.727273 7.32088,13.999295 21.71549,19.515295 35.47761,13.594985 z"
     id="path8"
     transform="scale(0.75)" />
  <path
     style="fill:#ffffff;stroke-width:1.37265"
     d="m 743.97895,617.85095 c -4.28934,-1.86998 -6.28973,-4.89659 -8.9174,-13.49214 -4.46379,-14.60178 -34.94943,-35.39336 -51.89549,-35.39336 -14.99865,0 -25.22036,16.64908 -17.25305,28.10169 3.33329,4.79144 2.3559,11.06383 -2.33969,15.01492 -2.32281,1.95451 -5.7508,3.55366 -7.61777,3.55366 -6.84787,0 -14.23939,-5.85557 -14.23939,-11.28046 0,-1.01879 2.16193,-5.208 4.80429,-9.30937 5.6846,-8.8234 6.22407,-15.41752 1.97878,-24.18714 -6.19632,-12.79988 -21.05013,-21.86643 -39.67561,-24.21739 l -11.94758,-1.50807 -5.3762,4.2802 c -2.95691,2.3541 -7.08686,4.69783 -9.17765,5.20829 -8.9395,2.18254 -16.7956,-6.17994 -13.43275,-14.29857 2.37161,-5.72559 6.81981,-7.63903 14.74958,-6.34473 11.54316,1.88408 21.26104,1.01814 31.98476,-2.85013 20.93708,-7.55242 26.51214,-13.61474 25.79577,-28.05034 -0.53789,-10.83919 -5.79013,-22.63425 -20.02715,-44.97542 -5.31114,-8.33439 -12.27335,-19.92125 -15.47159,-25.74861 -6.23123,-11.35363 -13.95731,-31.94183 -12.73121,-33.9257 0.40975,-0.66298 2.53927,-0.81133 4.73228,-0.32966 2.19301,0.48166 3.98729,0.34642 3.98729,-0.30054 0,-1.85937 -4.0411,-7.29367 -12.04678,-16.20002 -9.2086,-10.24462 -20.89694,-27.5257 -20.89694,-30.89591 0,-1.40545 4.34265,-6.37921 9.78707,-11.2094 12.64395,-11.2175 25.06492,-25.74907 37.04731,-43.34246 5.27038,-7.73834 10.08313,-14.06971 10.69501,-14.06971 1.38825,0 6.26218,15.37821 8.92311,28.15416 1.10237,5.29282 2.97768,18.57325 4.16736,29.51208 2.77046,25.47385 3.40502,27.58044 11.77979,39.10593 19.2605,26.50659 24.89877,43.28399 32.21279,95.85327 1.91287,13.7487 4.52198,26.98347 5.95333,30.19841 7.45255,16.73907 34.95062,30.38769 64.68485,32.10624 12.51017,0.72305 14.75944,1.23404 17.50135,3.97594 5.50922,5.50922 3.70492,13.92333 -3.63791,16.96483 -5.27172,2.18362 -9.27124,1.15459 -15.85839,-4.08024 -12.73328,-10.11913 -37.49879,-10.40147 -39.99495,-0.45595 -1.41438,5.63529 0.7189,9.85002 9.92508,19.60906 10.62915,11.26745 21.24557,18.66902 29.40862,20.50314 7.93765,1.78347 12.5971,6.60987 12.5971,13.04843 0,5.63981 -1.76025,8.33797 -7.31283,11.20933 -4.63438,2.39653 -7.48544,2.41111 -12.86519,0.0657 z"
     id="path9"
     transform="scale(0.75)" />
  <path
     style="fill:#ffffff;stroke-width:0.253527"
     d="m 625.70561,72.546141 c -1.42006,-0.662687 -3.01627,-2.286315 -3.61596,-3.67807 -0.58408,-1.355531 -0.52433,-3.956493 0.12415,-5.403996 0.75276,-1.680273 2.38468,-3.34786 3.92453,-4.010284 2.41987,-1.041001 5.38703,-0.33363 7.51138,1.790713 1.36036,1.360368 1.89995,2.585086 2.02213,4.589746 0.0852,1.397955 -0.004,1.926667 -0.51587,3.043872 -1.68024,3.670122 -5.91975,5.315625 -9.45036,3.668019 z"
     id="path10"
     transform="scale(0.75)" />
  <path
     style="fill:#ffffff;stroke-width:0.041152"
     d="m 473.98874,99.930409 c -1.31631,-0.13253 -2.79946,-0.651867 -3.80656,-1.332902 -2.57128,-1.738785 -3.8054,-4.680595 -3.20768,-7.646265 0.34015,-1.687703 1.3257,-3.32957 2.81193,-4.684472 1.19382,-1.08834 2.16814,-1.69523 3.13696,-1.953975 0.55154,-0.1473 1.41394,-0.157677 1.95291,-0.0235 0.94401,0.235014 1.9117,0.765471 3.0013,1.645222 2.54065,2.051331 3.83865,4.069187 4.17941,6.49724 0.09,0.641245 0.0607,1.663063 -0.0646,2.258995 -0.68545,3.257534 -3.43414,5.314888 -7.05712,5.282151 -0.31688,-0.0029 -0.7428,-0.02199 -0.9465,-0.0425 z"
     id="path11"
     transform="scale(0.75)" />
</svg>
