<?xml version="1.0" encoding="UTF-8" standalone="no"?>
<svg
   version="1.0"
   width="600.000000pt"
   height="452.000000pt"
   viewBox="0 0 600.000000 452.000000"
   preserveAspectRatio="xMidYMid meet"
   id="svg7"
   sodipodi:docname="frog2_t1.svg.svg"
   inkscape:version="1.4.3 (0d15f75, 2025-12-25)"
   xmlns:inkscape="http://www.inkscape.org/namespaces/inkscape"
   xmlns:sodipodi="http://sodipodi.sourceforge.net/DTD/sodipodi-0.dtd"
   xmlns="http://www.w3.org/2000/svg"
   xmlns:svg="http://www.w3.org/2000/svg">
  <defs
     id="defs7" />
  <sodipodi:namedview
     id="namedview7"
     pagecolor="#505050"
     bordercolor="#ffffff"
     borderopacity="1"
     inkscape:showpageshadow="0"
     inkscape:pageopacity="0"
     inkscape:pagecheckerboard="1"
     inkscape:deskcolor="#505050"
     inkscape:document-units="pt"
     inkscape:zoom="0.090841155"
     inkscape:cx="-242.18098"
     inkscape:cy="-577.93188"
     inkscape:window-width="1024"
     inkscape:window-height="1022"
     inkscape:window-x="0"
     inkscape:window-y="30"
     inkscape:window-maximized="0"
     inkscape:current-layer="svg7" />
  <g
     transform="translate(0.000000,452.000000) scale(0.050000,-0.050000)"
     fill="#000000"
     stroke="none"
     id="g7">
    <path
       d="M6153 8817 c-397 -51 -781 -339 -977 -733 l-86 -175 -218 -72 c-199 -66 -224 -70 -282 -46 -303 127 -741 -33 -975 -357 -59 -81 -135 -150 -249 -226 -90 -60 -212 -153 -270 -206 l-106 -97 -180 -9 c-359 -18 -704 -305 -778 -648 -8 -34 -41 -88 -75 -120 -99 -94 -236 -281 -310 -422 -52 -99 -91 -146 -160 -190 -246 -156 -380 -431 -401 -829 l-11 -202 -127 -83 c-400 -263 -618 -730 -618 -1322 0 -479 86 -713 408 -1115 99 -124 222 -306 272 -404 296 -571 1343 -1126 1798 -953 86 33 232 168 232 215 0 16 38 19 125 11 239 -22 428 65 495 226 29 69 54 73 230 31 129 -30 476 -81 694 -101 132 -13 135 -14 184 -98 250 -427 1031 -581 1339 -265 l97 100 88 -23 c255 -68 485 17 588 217 l37 71 243 24 c391 39 712 117 1083 262 l192 76 12 -99 c25 -216 175 -330 406 -308 110 10 131 7 141 -23 101 -279 515 -310 829 -62 l79 63 101 -54 c424 -231 866 140 704 591 l-33 93 103 207 c295 593 323 1365 71 1917 l-75 163 79 62 c962 766 965 2067 7 3065 l-157 163 22 89 c197 808 -409 1602 -1170 1531 -409 -38 -704 -270 -977 -768 l-33 -61 -91 27 c-178 54 -588 111 -827 115 l-244 5 -74 149 c-211 420 -673 660 -1155 598z m331 -259 c174 -36 346 -132 462 -257 147 -160 212 -299 264 -565 19 -100 179 -101 201 -1 7 30 16 66 20 80 18 57 551 5 901 -87 378 -100 382 -99 456 91 150 382 422 619 757 660 653 81 1091 -520 915 -1256 -47 -195 -55 -175 156 -373 485 -455 758 -1049 716 -1559 -21 -247 123 -223 -1522 -252 -1113 -19 -2635 -66 -2900 -89 -618 -54 -872 -79 -1325 -132 -584 -69 -571 -70 -616 36 -233 548 -108 1298 312 1876 114 157 115 166 42 420 -220 763 436 1559 1161 1408z m-1438 -1143 c7 -160 24 -288 50 -368 l39 -122 -98 -152 c-834 -1293 -444 -2593 993 -3309 458 -228 650 -258 650 -102 0 68 -19 83 -211 159 -476 191 -806 394 -1069 659 -181 183 -263 305 -229 339 39 39 942 142 1659 190 1114 75 4327 147 4376 99 7 -7 -11 -59 -40 -115 -317 -628 -994 -1083 -1954 -1313 -240 -58 -276 -78 -267 -149 16 -121 287 -98 789 66 261 86 255 91 149 -151 -480 -1102 -1567 -1859 -2755 -1919 l-241 -13 -44 71 c-106 171 -331 318 -604 394 -80 22 -148 43 -151 46 -4 4 -16 155 -27 336 -38 636 -177 1041 -340 989 -62 -19 -62 -62 2 -204 89 -196 135 -446 150 -820 l13 -325 -53 -20 c-38 -14 -53 -34 -53 -70 0 -58 17 -63 232 -78 473 -33 872 -431 609 -608 -128 -86 -250 -56 -421 102 -248 229 -492 241 -291 14 238 -268 -43 -463 -489 -340 -257 71 -415 190 -512 385 -29 57 -104 167 -167 244 -637 775 -696 1670 -146 2220 229 229 90 299 -155 78 -534 -483 -530 -1485 8 -2234 62 -86 112 -162 112 -168 0 -19 -311 13 -519 53 -346 67 -350 69 -417 186 -67 119 -215 266 -340 337 -98 56 -103 85 -32 179 667 891 140 2258 -998 2589 -136 39 -135 33 -33 144 318 345 166 883 -251 886 -114 1 -123 26 -52 137 103 160 110 162 207 57 137 -146 325 -155 587 -25 426 210 671 667 490 912 -59 81 -50 97 116 224 149 114 154 114 168 25 94 -576 1342 -101 1311 498 -7 145 0 159 113 200 128 47 124 53 136 -213z m-510 187 c291 -148 46 -590 -410 -741 -209 -69 -437 -45 -474 50 -134 349 533 870 884 691z m-1562 -921 c259 -117 159 -472 -204 -721 -318 -219 -570 -177 -570 93 1 397 460 770 774 628z m-904 -1259 c189 -87 243 -264 142 -470 -104 -213 -264 -308 -560 -334 -111 -9 -226 -22 -255 -29 -107 -23 -139 67 -95 275 90 427 464 699 768 558z m-8 -1011 c537 -113 1030 -539 1230 -1061 152 -396 37 -1007 -247 -1308 l-95 -101 -90 19 c-252 52 -529 6 -516 -85 6 -43 17 -46 226 -58 413 -24 772 -203 888 -443 148 -306 -153 -463 -422 -221 -128 115 -310 215 -369 203 -66 -12 -82 -76 -29 -113 400 -277 226 -564 -259 -426 -580 166 -999 481 -1218 914 -61 120 -164 278 -262 399 -861 1066 -104 2550 1163 2281z m8612 -852 c257 -519 153 -1499 -202 -1912 -87 -101 -87 -86 -4 -184 272 -326 -130 -617 -465 -336 -96 81 -113 79 -213 -26 -246 -260 -610 -277 -610 -30 0 73 86 202 178 268 70 49 81 112 23 131 -63 20 -176 -42 -308 -168 -174 -168 -278 -201 -380 -121 -143 113 13 324 428 579 239 147 399 291 399 360 0 25 48 110 106 188 247 331 455 714 561 1029 57 173 50 165 237 276 177 105 171 106 250 -54z"
       id="path1" />
    <path
       d="M6163 7874 c-375 -143 -415 -661 -64 -839 446 -226 864 376 508 732 -114 114 -304 160 -444 107z"
       id="path2" />
    <path
       d="M9490 7863 c-447 -214 -312 -863 180 -863 561 0 594 869 34 895 -100 5 -154 -3 -214 -32z"
       id="path3" />
    <path
       d="M7300 5941 c-79 -20 -114 -100 -79 -183 90 -219 430 -369 471 -208 48 193 -199 439 -392 391z"
       id="path4" />
    <path
       d="M8884 5937 c-142 -41 -282 -248 -251 -372 42 -167 374 -34 457 183 64 166 -20 243 -206 189z"
       id="path5" />
    <path
       d="M3810 6473 c-494 -183 -885 -780 -739 -1128 195 -468 1048 -188 1362 447 247 499 -98 876 -623 681z m450 -126 c450 -266 -434 -1289 -926 -1071 -153 68 -185 180 -114 408 143 465 736 842 1040 663z"
       id="path6" />
    <path
       d="M2764 4820 c-149 -35 -244 -83 -244 -122 0 -57 41 -64 163 -31 496 137 954 -102 1130 -589 40 -111 70 -137 117 -98 45 37 38 71 -52 257 -215 445 -677 687 -1114 583z"
       id="path7" />
  </g>
  <path
     style="fill:#ffffff;stroke-width:2.57861"
     d="m 331.33887,275.87742 c -8.09785,-21.29897 -7.69838,-55.68129 0.93111,-80.13988 3.8544,-10.92454 13.57426,-29.9291 22.67059,-44.32622 4.71711,-7.46597 5.00956,-9.80246 2.48288,-19.83682 -1.57521,-6.25573 -2.85268,-18.69276 -2.83883,-27.63784 0.055,-35.494678 26.12494,-66.552153 59.63772,-71.04716 26.06645,-3.496244 54.95676,16.55228 61.68563,42.806935 1.90176,7.42029 4.95115,14.730849 6.77642,16.245689 4.54936,3.775632 11.30962,0.72063 13.03896,-5.892383 1.34218,-5.132484 2.54333,-5.361486 19.73945,-3.763377 10.07067,0.935911 28.03063,3.888308 39.91103,6.560882 11.88039,2.672576 23.08782,4.288573 24.90538,3.591104 1.81759,-0.697469 4.78039,-4.955967 6.584,-9.463333 20.9221,-52.285748 80.03701,-60.623144 103.79579,-14.639063 7.02281,13.592298 7.26891,15.278508 5.94111,40.704806 l -1.38518,26.52511 15.43571,16.02202 c 28.81926,29.91389 44.47929,63.67545 43.06551,92.84526 -0.73088,15.08024 -1.06556,15.77079 -8.49669,17.53145 -4.25471,1.00807 -65.17447,3.17218 -135.37724,4.80913 -116.96463,2.72733 -178.54248,6.16183 -233.29692,13.01211 -34.50739,4.31719 -42.33641,3.64031 -45.20643,-3.90842 z m 182.65628,-43.36147 c 3.35382,-17.67307 -25.2694,-36.95993 -33.1098,-22.31 -5.49433,10.26624 12.00268,29.03513 25.79026,27.66498 3.8576,-0.38335 6.78211,-2.52292 7.31954,-5.35498 z m 78.96775,2.02126 c 16.28085,-7.72578 19.80012,-27.58389 5.14255,-29.01796 -14.11241,-1.38072 -29.73214,19.55916 -21.75741,29.16811 3.9985,4.8179 6.18712,4.79812 16.61486,-0.15015 z M 434.00716,134.46735 c 9.49038,-5.26636 15.9252,-17.23142 15.944,-29.64669 0.0374,-24.664355 -29.65941,-38.163719 -48.70339,-22.139267 -13.64277,11.479633 -15.29627,32.581557 -3.57465,45.619667 8.65809,9.63051 25.0715,12.41604 36.33404,6.16629 z m 223.45098,-0.17628 c 10.27598,-4.29358 16.84943,-15.45491 16.84943,-28.60936 0,-19.253421 -10.40561,-29.470602 -30.10036,-29.555257 -11.38141,-0.04892 -14.45881,1.062113 -20.96612,7.569418 -15.35622,15.356222 -11.7352,40.269199 7.23005,49.743399 10.94657,5.46843 15.58728,5.61491 26.987,0.8518 z"
     id="path8"
     transform="scale(0.75)" />
  <path
     style="fill:#ffffff;stroke-width:2.57861"
     d="m 367.4525,555.86729 c -18.76178,-3.76181 -28.30327,-10.65256 -42.07853,-30.38863 -31.43551,-45.03818 -39.65827,-62.51344 -42.19446,-89.67293 -2.41115,-25.82038 4.83922,-45.04581 27.86861,-73.89769 3.00006,-3.75856 4.73324,-8.00105 3.85151,-9.42772 -4.83345,-7.82067 -27.69127,11.43922 -37.81862,31.86579 -5.72495,11.54709 -6.31518,15.82542 -6.20713,44.99313 0.13304,35.91274 3.4595,48.14809 20.35126,74.85554 8.82813,13.95809 8.8603,14.11479 3.05498,14.87927 -3.2269,0.42493 -14.1847,-0.96164 -24.35065,-3.08131 -17.70345,-3.69126 -19.24482,-4.62585 -36.52128,-22.14393 l -18.03773,-18.28998 6.31815,-9.57207 c 10.84385,-16.42853 14.81708,-31.11152 14.8013,-54.69782 -0.0341,-50.98131 -29.90705,-93.67519 -78.39394,-112.03926 l -12.09256,-4.57998 6.17777,-9.379 c 8.74966,-13.28359 10.63977,-28.31405 5.04356,-40.10718 -4.62057,-9.73713 -14.98184,-16.97618 -24.29806,-16.97618 -6.36683,0 -6.80433,-4.36193 -1.07272,-10.69529 4.03973,-4.46384 4.53751,-4.38142 12.13209,2.00901 6.7393,5.67074 9.57667,6.43669 19.0394,5.13968 28.50937,-3.90764 54.86744,-30.39812 54.86744,-55.14307 0,-5.4458 -1.45047,-11.3715 -3.22327,-13.16822 -2.58628,-2.62117 -1.4944,-4.81922 5.52508,-11.1225 l 8.74835,-7.85575 3.29022,7.82514 c 4.25974,10.13095 10.71284,13.38842 26.52262,13.38842 9.46321,0 17.06667,-2.20268 28.92874,-8.38049 19.82856,-10.32681 30.69274,-23.1272 32.57013,-38.37479 1.22934,-9.98439 6.14636,-17.710067 11.2716,-17.710067 0.97206,0 3.12673,10.799587 4.78816,23.999077 l 3.02078,23.99908 -10.15089,17.37076 c -16.51671,28.2643 -22.36524,49.84025 -22.12236,81.61208 0.16583,21.69266 1.37341,30.06939 6.07415,42.135 14.44474,37.07601 45.26379,68.06749 89.10949,89.60805 26.65433,13.09477 40.78186,15.86884 43.58704,8.55873 0.86543,-2.25536 0.91561,-5.1652 0.11147,-6.46632 -0.80414,-1.30111 -13.28195,-7.98442 -27.72846,-14.85178 -14.44653,-6.86737 -33.37992,-17.77743 -42.0742,-24.2446 -18.07222,-13.44286 -31.36631,-29.25681 -27.68751,-32.93561 8.52894,-8.52894 215.03611,-20.51945 353.73862,-20.53926 l 44.6461,-0.006 -5.96688,10.77921 c -18.13127,32.7543 -56.30466,60.32347 -104.76878,75.66498 -41.41469,13.10999 -42.23229,13.47989 -41.24927,18.6627 1.32892,7.00653 18.42928,6.86455 43.34179,-0.3598 12.04875,-3.49399 22.39786,-5.86173 22.99798,-5.26161 2.40356,2.40355 -19.01637,40.09647 -32.15616,56.5856 -32.37187,40.62348 -77.09389,67.97732 -126.63711,77.45648 -33.21917,6.3559 -39.69317,5.43575 -52.73753,-7.49549 -9.61397,-9.53063 -22.36628,-16.26491 -39.95838,-21.10144 -1.65967,-0.45628 -3.63964,-10.57902 -4.68637,-23.95971 -3.24225,-41.4456 -11.25553,-64.93329 -22.15329,-64.93329 -6.41434,0 -6.40798,4.00931 0.0367,23.14017 2.8551,8.47519 5.87151,26.48696 6.79455,40.57194 1.42239,21.70482 1.05202,25.83485 -2.58774,28.85557 -5.97911,4.96223 -0.74785,10.57688 9.85466,10.57688 28.79768,0 60.92169,28.92231 42.86025,38.5885 -8.06912,4.31845 -11.79159,3.23523 -26.272,-7.64513 -19.90463,-14.95606 -32.7526,-13.32506 -20.31257,2.57862 7.54423,9.64473 6.4667,15.1877 -3.78509,19.47119 -4.9183,2.05497 -9.84989,3.60289 -10.95912,3.43979 -1.10923,-0.1631 -6.0781,-1.11084 -11.04193,-2.10611 z M 264.28374,333.28587 c -0.0133,-3.19104 -3.47627,-11.82095 -7.69546,-19.17758 -13.16317,-22.95143 -33.07617,-34.35356 -59.88614,-34.29065 -16.12296,0.0378 -27.80131,3.72696 -29.66076,9.36968 -0.69352,2.10453 5.96117,2.85049 23.00389,2.57861 18.36775,-0.29302 25.87694,0.65591 32.08655,4.05475 11.98072,6.55764 22.69304,18.21968 28.93634,31.50174 5.87285,12.49395 13.25672,15.82587 13.21558,5.96345 z m -8.64767,-76.51388 c 13.81318,-6.27237 30.55476,-21.4914 38.27655,-34.7955 18.01111,-31.0319 4.27789,-58.55474 -27.34838,-54.80907 -15.37331,1.82074 -25.45406,6.97555 -40.17186,20.54194 -14.86898,13.70575 -23.97118,31.57402 -23.97118,47.05715 0,9.70104 1.38654,13.27438 7.53749,19.42533 6.46613,6.46613 9.48989,7.52944 21.27357,7.48085 7.81982,-0.0322 18.33077,-2.14301 24.40381,-4.9007 z"
     id="path9"
     transform="scale(0.75)" />
  <path
     style="fill:#ffffff;stroke-width:0.763674"
     d="M 163.65864,549.05314 C 148.09062,545.56148 124.80868,535.17283 111.93109,525.97174 103.26513,519.77988 93.081826,509.92467 87.280948,502.1158 84.940831,498.96565 80.70208,492.26441 77.861503,487.22416 71.760715,476.39907 67.12544,469.37983 59.173659,458.92499 35.445482,427.72767 29.464923,391.67984 42.592874,358.98427 53.234064,332.48206 74.193223,314.4898 101.54243,308.3794 c 12.69909,-2.83725 33.4676,-1.08432 47.93433,4.04581 33.12081,11.74516 61.94603,41.0895 71.27589,72.55951 4.20113,14.17055 3.2459,35.59536 -2.34846,52.67399 -4.1889,12.78797 -8.38814,20.19118 -16.90892,29.81019 l -4.82422,5.44601 -5.16727,-1.15787 c -6.6497,-1.49005 -22.21577,-1.66276 -27.49588,-0.30508 -5.24766,1.34934 -7.83652,3.41483 -7.83652,6.25226 0,1.91139 0.38264,2.30299 2.86378,2.93086 1.57508,0.3986 6.47214,0.95596 10.88236,1.23861 19.59517,1.2558 36.33772,6.73711 48.49331,15.87612 17.04109,12.81211 19.13473,32.87314 3.68853,35.34308 -6.19519,0.99065 -12.1928,-1.74949 -23.54406,-10.75662 -6.26987,-4.97509 -16.40236,-10.2927 -19.61233,-10.2927 -3.61915,0 -5.20708,1.2517 -5.20708,4.10453 0,2.1768 0.62291,3.00719 4.53443,6.04475 17.17804,13.33996 15.54018,26.89065 -3.35207,27.73306 -3.70231,0.16509 -8.17948,-0.18195 -11.25961,-0.87277 z"
     id="path10"
     transform="scale(0.75)" />
  <path
     style="fill:#ffffff;stroke-width:0.763674"
     d="m 225.66573,251.6802 c -11.34725,-3.46419 -14.92114,-10.65347 -11.769,-23.67465 5.37426,-22.20054 26.95038,-44.09758 49.01067,-49.73966 6.86988,-1.75701 10.8914,-1.85542 15.774,-0.38597 10.51719,3.16521 15.11311,11.62668 12.33275,22.70562 -5.27118,21.0041 -29.18326,45.10984 -50.33357,50.7412 -4.22526,1.125 -11.89612,1.30558 -15.01485,0.35346 z"
     id="path11"
     transform="scale(0.75)" />
  <path
     style="fill:#ffffff;stroke-width:0.763674"
     d="m 153.8955,212.49235 c -4.82179,-2.46347 -6.50944,-6.08453 -6.49561,-13.93705 0.0458,-26.01625 30.78736,-50.47334 51.00784,-40.58038 6.47087,3.1659 8.54799,6.61104 8.54799,14.17785 0,4.6468 -0.39092,6.60874 -1.98921,9.98353 -4.52835,9.56163 -13.61132,18.8408 -25.12123,25.66388 -10.60852,6.28873 -19.63146,7.92024 -25.94978,4.69217 z"
     id="path12"
     transform="scale(0.75)" />
  <path
     style="fill:#ffffff;stroke-width:0.763674"
     d="m 252.57727,147.0062 c -4.22015,-0.88936 -7.48086,-2.84805 -8.51323,-5.11385 -4.52189,-9.92447 2.88028,-25.01593 17.77668,-36.24294 15.60042,-11.757593 31.13775,-14.904593 41.71979,-8.450106 3.99527,2.436906 6.87306,7.359816 6.87306,11.757436 0,7.17159 -6.23217,17.40415 -15.00961,24.64419 -5.86876,4.84083 -16.79682,10.4925 -23.55594,12.18244 -5.99972,1.50008 -15.20598,2.08366 -19.29075,1.22283 z"
     id="path13"
     transform="scale(0.75)" />
  <path
     style="fill:#ffffff;stroke-width:0.6896"
     d="m 88.177758,295.24075 c -1.929496,-1.6642 -1.975514,-1.8629 -1.885128,-8.13972 0.188731,-13.10652 5.73135,-25.98164 15.42335,-35.82738 6.38857,-6.48992 11.31549,-9.47592 18.79847,-11.39297 10.85193,-2.78013 23.65517,2.67478 28.19075,12.01089 5.3946,11.10432 -3.25638,29.61609 -17.27442,36.96462 -6.15241,3.22521 -10.97976,4.35942 -25.39347,5.96629 -6.73845,0.75121 -13.068489,1.53645 -14.066753,1.74497 -1.309293,0.27349 -2.366102,-0.0962 -3.792799,-1.3267 z"
     id="path14"
     transform="scale(0.75)" />
  <path
     style="fill:#ffffff;stroke-width:2.11928"
     d="m 616.07486,538.93305 c -4.51812,-4.51812 -2.7177,-12.08639 4.87435,-20.48988 8.05425,-8.9151 9.5773,-15.11865 3.70874,-15.10611 -3.84606,0.008 -9.17781,3.17372 -26.7999,15.91134 -9.3932,6.7896 -10.79767,7.22077 -14.83496,4.55425 -11.06693,-7.30938 -3.01474,-18.24337 30.28737,-41.12693 9.78594,-6.72441 18.82695,-14.12663 20.09115,-16.44938 1.26419,-2.32275 8.63775,-14.23678 16.38568,-26.47562 16.28467,-25.72371 22.756,-38.18551 29.49001,-56.78878 4.08111,-11.2744 6.20606,-14.1499 13.70353,-18.54371 4.88038,-2.86009 9.96235,-5.20017 11.29326,-5.20017 1.33091,0 4.22907,3.57628 6.44036,7.9473 12.0838,23.88585 11.63196,71.13938 -0.98789,103.31493 -1.82869,4.66241 -6.56207,12.98764 -10.51862,18.50051 l -7.19372,10.02339 5.26364,7.75641 c 6.36717,9.38255 6.69107,16.33392 1.02509,21.9999 -5.92599,5.92599 -18.04918,5.50041 -28.61029,-1.00435 -4.66242,-2.87167 -9.18963,-5.25097 -10.06048,-5.28735 -0.87084,-0.0364 -5.23383,3.23185 -9.69553,7.26272 -12.28223,11.09627 -27.76091,15.30241 -33.86179,9.20153 z"
     id="path15"
     transform="scale(0.75)" />
  <path
     style="fill:#ffffff;stroke-width:1.10927"
     d="m 221.04312,249.03634 c -7.67813,-4.18262 -9.29982,-11.71673 -5.30555,-24.64868 7.34733,-23.78788 35.09585,-46.60504 56.67755,-46.60504 6.91288,0 14.20445,3.94267 16.89633,9.13613 7.56531,14.59579 -12.71774,45.87172 -38.61535,59.54386 -6.74089,3.55872 -8.93525,4.14744 -16.63912,4.46407 -7.28752,0.29951 -9.61436,-0.0385 -13.01386,-1.89034 z"
     id="path16"
     transform="scale(0.75)" />
</svg>
