<?xml version="1.0" encoding="UTF-8" standalone="no"?>
<svg
   version="1.0"
   width="1800.000000pt"
   height="1800.000000pt"
   viewBox="0 0 1800.000000 1800.000000"
   preserveAspectRatio="xMidYMid meet"
   id="svg15"
   sodipodi:docname="frog18_t1.svg"
   inkscape:version="1.4.3 (0d15f75, 2025-12-25)"
   xmlns:inkscape="http://www.inkscape.org/namespaces/inkscape"
   xmlns:sodipodi="http://sodipodi.sourceforge.net/DTD/sodipodi-0.dtd"
   xmlns="http://www.w3.org/2000/svg"
   xmlns:svg="http://www.w3.org/2000/svg">
  <defs
     id="defs15" />
  <sodipodi:namedview
     id="namedview15"
     pagecolor="#505050"
     bordercolor="#ffffff"
     borderopacity="1"
     inkscape:showpageshadow="0"
     inkscape:pageopacity="0"
     inkscape:pagecheckerboard="1"
     inkscape:deskcolor="#505050"
     inkscape:document-units="pt"
     inkscape:zoom="0.19682434"
     inkscape:cx="1333.6765"
     inkscape:cy="495.36557"
     inkscape:window-width="1019"
     inkscape:window-height="910"
     inkscape:window-x="2587"
     inkscape:window-y="142"
     inkscape:window-maximized="0"
     inkscape:current-layer="svg15" />
  <g
     transform="translate(0.000000,1800.000000) scale(0.100000,-0.100000)"
     fill="#000000"
     stroke="none"
     id="g15">
    <path
       d="M11305 17671 c-42 -25 -59 -48 -80 -106 -9 -27 -23 -63 -30 -80 -8 -16 -30 -73 -50 -125 -19 -52 -40 -104 -44 -115 -5 -11 -19 -45 -31 -75 -11 -30 -25 -64 -30 -75 -5 -11 -23 -58 -40 -105 -18 -47 -47 -121 -65 -165 -17 -44 -38 -96 -45 -115 -6 -19 -24 -66 -40 -105 -15 -38 -42 -108 -59 -155 -18 -47 -39 -100 -47 -118 -8 -18 -14 -40 -14 -48 0 -9 -6 -28 -14 -42 -8 -15 -19 -40 -25 -55 -6 -15 -18 -30 -26 -33 -9 -4 -172 99 -427 268 -227 152 -423 280 -435 287 -12 6 -37 11 -56 11 -44 0 -97 -50 -97 -92 0 -15 -4 -28 -10 -28 -5 0 -34 31 -64 68 -104 132 -215 213 -340 252 -61 19 -191 9 -251 -20 -75 -36 -185 -129 -205 -174 -3 -6 -17 -29 -31 -51 -14 -22 -34 -58 -43 -80 -10 -22 -24 -53 -32 -70 -7 -16 -27 -75 -44 -130 -17 -55 -37 -121 -45 -146 -8 -26 -15 -55 -15 -64 0 -10 -7 -43 -16 -74 -84 -301 -91 -316 -161 -387 l-46 -48 -61 70 c-170 193 -322 322 -453 384 -63 30 -76 33 -175 33 -100 1 -110 -1 -171 -31 -117 -58 -211 -174 -244 -300 -26 -102 -32 -154 -43 -372 -17 -337 -58 -446 -200 -545 -45 -31 -43 -31 -160 15 -109 43 -210 62 -290 56 -145 -10 -254 -63 -328 -158 -62 -80 -73 -101 -122 -238 -18 -53 -49 -201 -50 -240 -1 -102 -55 -340 -78 -340 -4 0 -36 30 -72 66 -136 139 -317 201 -510 176 -81 -11 -107 -19 -190 -56 -53 -24 -164 -116 -206 -172 -79 -105 -125 -223 -164 -426 -9 -44 -21 -75 -35 -88 -21 -20 -24 -20 -86 -5 -85 20 -167 19 -264 -4 -95 -22 -136 -39 -212 -88 -191 -122 -313 -337 -313 -551 0 -70 -3 -84 -17 -88 -113 -37 -234 -111 -306 -189 -32 -34 -85 -122 -105 -175 -8 -19 -19 -80 -26 -135 l-11 -99 -90 -76 c-124 -104 -417 -396 -507 -505 -164 -199 -314 -414 -402 -578 -85 -157 -186 -370 -186 -390 0 -7 -6 -21 -14 -32 -7 -11 -16 -31 -19 -45 -10 -42 -44 -131 -53 -139 -5 -4 -36 -15 -69 -25 -162 -45 -187 -56 -305 -125 -212 -125 -362 -312 -447 -558 -24 -72 -27 -91 -27 -240 l-1 -161 -35 -19 c-46 -24 -158 -110 -193 -148 -101 -108 -179 -245 -198 -348 -14 -80 -28 -109 -62 -125 -38 -18 -140 -114 -181 -170 -45 -63 -91 -154 -116 -233 -22 -73 -27 -213 -9 -264 11 -31 10 -34 -45 -91 -57 -58 -130 -150 -152 -189 -35 -62 -84 -166 -97 -205 -23 -66 -47 -204 -47 -269 0 -59 47 -222 77 -268 17 -25 15 -38 -16 -153 -27 -97 -61 -331 -61 -418 0 -69 22 -260 42 -367 25 -137 25 -138 78 -323 19 -69 74 -220 104 -287 144 -321 255 -509 448 -755 43 -55 78 -103 78 -108 0 -5 -13 -28 -30 -50 -44 -61 -86 -157 -104 -239 -36 -162 -9 -318 87 -511 14 -29 18 -47 12 -56 -121 -166 -243 -377 -278 -481 -51 -155 -52 -157 -52 -310 0 -120 4 -161 19 -205 68 -200 181 -304 396 -366 83 -24 263 -24 329 0 24 9 52 16 63 16 31 0 186 80 252 129 34 26 89 75 123 111 67 68 69 68 99 10 121 -229 320 -400 564 -487 103 -37 108 -37 255 -38 163 0 168 1 303 68 143 71 254 234 274 400 11 86 27 118 50 100 56 -45 256 -131 413 -179 66 -19 269 -44 370 -44 89 0 241 22 295 42 114 43 230 123 287 198 19 25 53 83 76 130 l41 85 0 150 c0 146 -1 152 -33 230 -34 85 -60 140 -91 193 -12 20 -15 32 -8 32 13 0 125 -37 238 -79 41 -16 100 -35 130 -44 30 -9 78 -22 105 -30 142 -41 469 -103 595 -112 131 -10 134 -11 244 -98 57 -45 115 -90 129 -101 19 -13 28 -31 33 -65 8 -61 86 -247 143 -341 25 -41 48 -77 51 -80 4 -3 21 -27 39 -53 84 -123 298 -296 456 -368 149 -67 230 -94 390 -128 106 -23 165 -29 381 -40 152 -8 164 -11 218 -39 31 -17 73 -44 94 -60 46 -37 265 -168 352 -212 94 -48 252 -105 361 -131 124 -31 375 -33 466 -5 129 40 195 78 273 156 80 80 115 140 151 258 12 37 23 71 26 75 2 4 20 -2 39 -13 71 -45 237 -121 309 -143 28 -8 106 -23 175 -32 120 -15 129 -15 232 4 232 43 384 165 449 358 19 58 22 87 21 201 l-1 132 82 -6 c99 -8 241 10 306 39 215 93 332 309 277 514 -42 156 -139 284 -318 417 -47 35 -48 52 -5 61 137 27 287 66 439 113 42 13 55 12 115 -2 64 -14 135 -27 348 -61 480 -77 1055 -66 1246 23 116 55 198 139 221 229 7 26 16 53 20 59 4 6 47 16 95 23 108 15 211 40 238 58 11 7 25 13 32 13 22 0 127 67 168 107 22 22 53 64 70 94 27 50 30 61 30 159 0 94 -3 110 -27 156 -14 27 -44 73 -66 100 -56 71 -197 172 -284 204 -16 5 -28 16 -28 23 0 8 41 52 92 98 100 92 304 297 365 369 21 24 56 65 79 90 22 25 82 98 133 163 52 64 99 117 105 117 16 0 129 -98 140 -121 7 -14 4 -25 -11 -42 -54 -61 -178 -309 -224 -450 -64 -197 -73 -267 -72 -542 1 -213 4 -265 22 -353 12 -57 19 -108 16 -112 -3 -5 -47 -22 -98 -38 -289 -94 -542 -252 -672 -422 -25 -32 -45 -61 -45 -64 0 -4 -11 -25 -26 -47 -42 -67 -67 -164 -67 -259 0 -215 112 -360 338 -436 73 -25 84 -25 238 -20 89 2 176 6 192 8 20 2 29 -1 27 -10 -7 -36 -2 -167 8 -218 36 -174 159 -301 348 -360 130 -40 313 -30 469 27 48 17 67 26 113 50 8 5 34 18 57 30 22 12 83 55 134 95 51 41 98 73 103 71 6 -2 14 -17 17 -33 35 -146 165 -307 304 -376 132 -66 164 -73 335 -73 153 0 156 0 240 34 113 45 176 88 256 174 100 108 157 215 194 362 7 28 16 54 21 59 4 4 22 -3 41 -16 56 -42 136 -81 238 -115 86 -28 312 -25 400 6 36 12 79 31 95 42 17 10 37 22 45 26 8 4 29 20 45 35 17 15 33 28 36 28 11 0 89 109 115 159 51 102 66 173 61 294 -2 62 -11 137 -20 167 -9 30 -22 75 -29 100 -29 101 -171 323 -287 449 -23 25 -41 49 -41 54 0 5 25 62 56 126 82 171 108 226 148 326 20 50 41 98 46 107 6 10 10 23 10 30 0 7 6 25 14 40 8 15 29 71 46 125 18 54 38 112 44 128 16 37 43 129 51 173 4 18 13 32 21 32 12 0 14 153 14 1075 0 943 -2 1075 -15 1075 -8 0 -17 12 -21 28 -5 27 -28 88 -46 129 -8 16 -4 37 15 90 15 37 29 92 33 121 4 31 13 56 20 59 19 7 20 234 2 231 -13 -3 -25 38 -27 97 -2 36 -19 96 -48 165 -6 14 -19 45 -29 70 -32 77 -115 211 -186 300 -37 46 -68 90 -68 96 0 6 12 33 27 60 108 191 107 405 -2 629 -47 96 -178 254 -251 301 -23 16 -24 18 -18 114 15 224 -83 433 -275 589 -62 50 -88 68 -111 77 -8 3 -22 9 -30 14 -8 5 -34 19 -57 30 l-43 22 0 63 c0 195 -85 368 -229 468 -56 39 -175 97 -199 97 -9 0 -48 8 -87 18 -62 16 -72 22 -87 53 -23 45 -22 53 6 86 45 54 95 158 128 268 31 106 32 117 33 285 0 178 -4 204 -52 380 -54 196 -232 443 -424 590 -65 50 -111 80 -278 181 -33 20 -37 48 -13 96 26 50 57 142 83 239 17 64 21 108 21 239 0 211 -26 319 -122 500 -72 134 -243 309 -376 385 l-41 24 -6 115 c-7 137 -23 199 -71 283 -79 139 -208 234 -399 293 -80 25 -309 26 -384 1 -74 -25 -97 -20 -101 24 -1 19 -9 73 -18 120 -47 262 -109 461 -192 615 -29 55 -102 122 -168 154 -63 31 -73 33 -153 29 -71 -3 -97 -9 -145 -33 -79 -40 -199 -154 -303 -290 -47 -60 -90 -112 -95 -114 -15 -5 -5 206 26 544 14 154 32 366 40 470 9 105 21 251 27 325 7 74 15 173 19 220 4 47 3 101 -1 120 -10 44 -51 80 -90 80 -34 0 -85 -48 -259 -239 -52 -57 -100 -109 -106 -115 -5 -6 -50 -56 -99 -111 -49 -55 -93 -105 -99 -111 -6 -6 -38 -41 -71 -78 -33 -37 -76 -85 -97 -108 l-36 -40 -29 28 c-26 26 -61 68 -178 214 -16 21 -102 126 -190 234 -88 109 -176 217 -195 240 -130 161 -212 260 -264 322 -34 40 -86 102 -116 139 -54 65 -104 105 -131 105 -8 0 -27 -8 -44 -19z m134 -337 c19 -25 84 -105 145 -178 61 -73 156 -188 211 -256 133 -163 262 -320 283 -345 10 -11 40 -49 67 -85 27 -36 63 -81 80 -100 16 -20 48 -58 70 -85 97 -119 104 -125 149 -125 47 1 59 9 136 100 30 36 59 70 65 76 5 6 44 49 85 94 41 46 104 116 140 155 36 40 99 111 140 158 41 47 78 82 82 79 11 -11 -3 -212 -72 -1017 -6 -66 -15 -190 -21 -275 -15 -238 -26 -370 -31 -375 -2 -3 -40 2 -84 9 -227 40 -237 41 -619 40 -338 0 -397 -2 -530 -22 -214 -32 -377 -65 -520 -106 -109 -31 -114 -31 -175 -5 -45 19 -54 30 -110 123 -68 114 -98 158 -187 274 -201 260 -404 375 -599 341 -37 -6 -69 -8 -74 -3 -4 5 -15 41 -24 79 -39 162 -99 386 -115 428 -14 36 -14 77 -1 77 6 0 76 -44 156 -97 80 -54 176 -118 214 -143 38 -25 133 -89 212 -142 164 -111 187 -123 221 -114 34 8 85 63 93 100 4 16 10 37 14 46 7 14 82 211 109 290 26 71 62 166 75 195 7 17 26 64 40 105 30 83 50 134 78 197 10 23 18 47 18 53 0 10 4 19 33 78 9 19 17 38 17 43 0 11 96 264 111 291 5 10 9 23 9 29 0 6 9 27 21 45 24 40 36 35 88 -32z m-2195 -614 c96 -46 201 -159 293 -315 36 -61 161 -324 186 -390 8 -22 25 -63 36 -92 33 -81 101 -292 101 -313 0 -10 -11 -40 -24 -67 -26 -53 -84 -244 -110 -363 -29 -129 -49 -193 -83 -265 -61 -129 -76 -138 -164 -87 -190 110 -375 171 -614 202 -140 19 -134 15 -188 121 -27 52 -62 113 -78 137 -16 24 -29 45 -29 48 0 3 -22 39 -50 81 -27 42 -50 84 -50 95 0 10 20 40 44 66 93 100 133 184 189 397 9 33 30 108 47 167 16 60 30 114 30 121 0 7 13 53 29 103 106 326 250 443 435 354z m-1461 -771 c144 -71 274 -202 515 -519 49 -63 99 -133 112 -155 13 -22 27 -42 32 -45 4 -3 18 -24 30 -47 13 -23 39 -68 59 -100 19 -32 46 -84 59 -117 38 -90 50 -96 193 -96 72 0 143 -6 176 -14 31 -8 88 -22 126 -31 39 -9 124 -37 191 -61 67 -24 125 -44 130 -44 5 0 22 -10 38 -23 l29 -23 -27 -43 c-50 -78 5 -94 122 -36 171 86 269 245 336 545 50 226 98 342 168 407 148 135 336 50 569 -258 49 -65 89 -120 89 -122 0 -3 17 -31 39 -63 57 -87 184 -326 220 -415 33 -80 53 -103 81 -94 22 7 23 9 18 121 -6 135 -7 134 94 75 264 -154 612 -533 762 -830 25 -48 47 -63 60 -42 7 11 -18 123 -39 177 -70 174 -152 319 -258 458 -20 27 -37 55 -37 62 0 22 36 34 137 45 368 39 690 14 1078 -81 51 -13 104 -31 163 -56 18 -8 39 -14 47 -14 24 0 364 -163 405 -194 8 -6 30 -20 49 -30 18 -10 88 -56 154 -102 66 -46 126 -84 133 -84 98 0 -198 307 -437 453 -42 26 -81 47 -85 47 -5 1 -20 10 -33 20 -23 20 -23 20 -6 62 9 24 22 49 28 57 7 8 12 49 11 100 0 102 -18 143 -95 220 -57 58 -57 64 10 136 61 65 133 152 157 190 31 50 148 187 201 237 116 107 195 114 284 24 37 -37 97 -163 129 -271 47 -157 87 -346 95 -448 7 -90 14 -79 -128 -190 -128 -101 -226 -222 -199 -249 14 -14 39 -3 102 43 64 49 124 84 210 124 41 19 83 40 94 46 10 6 39 17 65 25 297 94 484 81 652 -44 166 -124 199 -303 108 -577 -73 -216 -300 -510 -452 -585 -66 -32 -69 -33 -121 -20 -83 20 -106 0 -69 -56 31 -49 96 -77 223 -99 19 -3 53 -21 75 -39 159 -134 467 -384 530 -431 22 -16 42 -32 45 -35 16 -21 166 -124 225 -155 68 -37 120 -65 235 -128 125 -68 308 -233 397 -357 40 -56 133 -238 133 -262 0 -7 6 -31 14 -53 7 -22 19 -86 26 -143 12 -89 11 -121 -2 -232 -14 -108 -22 -141 -51 -202 -39 -81 -77 -128 -103 -128 -9 0 -42 12 -73 27 -31 14 -69 30 -86 34 -16 4 -49 15 -72 23 -93 34 -254 74 -433 107 -63 11 -146 27 -185 34 -237 46 -508 67 -940 72 -466 6 -768 -13 -1145 -72 -255 -40 -356 -57 -362 -61 -3 -2 -32 -8 -65 -13 -71 -11 -341 -68 -352 -75 -4 -3 -41 -12 -82 -21 -119 -27 -138 -31 -259 -63 -158 -42 -220 -59 -255 -70 -16 -6 -57 -18 -90 -27 -53 -15 -252 -76 -400 -123 -27 -8 -64 -21 -82 -29 -17 -7 -38 -13 -46 -13 -8 0 -48 -13 -88 -28 -41 -16 -99 -37 -129 -47 -54 -17 -191 -67 -327 -119 -21 -8 -83 -31 -138 -51 -55 -20 -104 -41 -109 -46 -6 -5 -16 -9 -24 -9 -8 0 -64 -21 -126 -46 -139 -57 -249 -102 -301 -121 -22 -8 -51 -20 -65 -25 -85 -34 -217 -71 -290 -80 -102 -13 -165 -5 -204 25 -26 21 -29 30 -29 78 0 46 6 65 35 110 40 61 109 133 186 191 41 32 52 46 52 69 0 23 -6 30 -27 35 -53 14 -195 -53 -273 -127 -91 -87 -129 -147 -156 -244 -39 -141 15 -255 151 -320 54 -25 67 -27 184 -26 135 1 178 9 366 74 113 39 306 112 333 126 9 5 35 16 57 24 22 8 76 29 120 47 44 18 98 39 120 47 22 8 51 20 65 25 14 6 57 21 95 34 39 12 95 33 125 44 89 35 466 164 540 185 25 7 119 35 210 64 286 89 566 168 735 208 33 7 76 18 95 22 60 15 223 52 270 61 25 5 63 13 85 18 45 12 168 35 265 52 266 44 311 51 703 95 339 39 956 38 1269 -1 64 -7 131 -14 150 -14 37 0 150 -19 343 -57 72 -14 148 -29 170 -33 84 -16 297 -85 364 -119 42 -22 97 -80 112 -117 30 -80 27 -265 -7 -389 -108 -398 -461 -861 -929 -1216 -125 -95 -380 -254 -517 -323 -56 -28 -78 -44 -78 -57 0 -11 7 -19 15 -19 57 0 369 106 438 149 19 12 44 21 57 21 12 0 39 13 59 28 97 75 165 110 176 91 4 -5 8 -48 11 -96 5 -80 18 -139 47 -217 19 -52 105 -173 153 -215 65 -57 162 -101 240 -108 73 -7 92 -22 101 -79 6 -43 51 -141 82 -180 42 -53 151 -124 191 -124 28 0 60 -35 60 -66 0 -14 10 -54 23 -90 22 -64 22 -65 3 -97 -60 -104 -76 -282 -36 -407 45 -141 140 -258 253 -311 36 -16 68 -37 71 -46 4 -9 2 -42 -4 -74 -20 -107 35 -275 116 -356 68 -68 116 -88 209 -88 63 0 89 5 120 22 98 52 159 142 180 266 6 39 29 61 78 72 45 12 120 87 154 156 33 66 63 198 63 276 0 53 -25 173 -47 228 -9 22 -32 65 -50 96 -32 53 -34 60 -27 117 6 58 8 61 45 77 75 34 143 124 178 237 20 60 33 63 72 15 93 -113 166 -273 199 -440 23 -116 25 -183 5 -292 -12 -65 -19 -84 -45 -108 -26 -24 -30 -35 -30 -80 0 -35 9 -70 26 -107 82 -175 164 -519 196 -820 16 -160 17 -499 0 -660 -24 -240 -70 -496 -117 -660 -7 -25 -20 -74 -30 -110 -29 -108 -100 -329 -135 -420 -12 -30 -25 -67 -30 -81 -7 -25 -11 -32 -43 -97 -9 -19 -17 -37 -17 -42 0 -5 -20 -52 -45 -104 -25 -53 -45 -98 -45 -99 0 -2 -27 -53 -61 -113 -90 -160 -89 -189 8 -289 213 -220 322 -436 323 -641 0 -133 -38 -231 -123 -314 -153 -150 -405 -156 -618 -14 -88 58 -167 144 -207 226 -54 110 -118 146 -151 86 -14 -23 -13 -34 2 -101 23 -97 24 -284 3 -346 -9 -24 -16 -51 -16 -60 0 -10 -16 -50 -36 -89 -46 -96 -132 -186 -225 -239 -65 -36 -86 -43 -168 -52 -175 -19 -294 14 -407 113 -135 118 -181 276 -154 526 14 125 9 150 -28 150 -25 0 -81 -69 -122 -149 -61 -123 -194 -256 -345 -347 -198 -120 -441 -139 -596 -48 -48 29 -103 99 -123 158 -22 66 -21 170 3 237 50 146 121 253 258 385 88 86 106 124 58 124 -64 0 -279 -136 -338 -213 -60 -79 -87 -96 -212 -133 -90 -27 -300 -24 -373 5 -111 44 -173 109 -193 200 -40 187 102 388 396 559 95 55 272 128 420 171 86 26 133 53 145 86 11 30 5 52 -27 86 -15 16 -32 57 -45 110 -19 74 -21 114 -22 334 -1 274 4 314 67 500 50 148 161 356 255 480 115 149 336 345 497 440 95 56 276 148 335 170 65 25 326 111 385 128 69 20 66 41 -5 45 -86 5 -364 -40 -452 -74 -21 -8 -56 -21 -78 -29 -90 -34 -128 -50 -195 -82 -38 -19 -77 -39 -85 -43 -201 -118 -246 -150 -373 -263 -75 -68 -79 -69 -104 -56 -42 22 -123 106 -123 127 0 10 13 37 28 58 42 57 147 232 209 349 83 154 213 427 213 446 0 6 6 23 14 37 26 51 95 246 121 342 9 36 23 88 31 115 82 296 113 674 80 985 -25 228 -57 330 -105 330 -39 0 -45 -39 -34 -213 10 -151 6 -338 -12 -474 -35 -274 -80 -476 -152 -688 -14 -38 -28 -83 -32 -100 -21 -79 -135 -346 -213 -500 -79 -155 -166 -310 -227 -405 -20 -31 -40 -63 -46 -72 -121 -199 -431 -588 -627 -788 -143 -145 -332 -314 -474 -423 -27 -20 -74 -56 -104 -80 -30 -23 -71 -53 -90 -66 -355 -246 -679 -433 -1045 -601 -96 -45 -225 -100 -255 -110 -14 -5 -68 -25 -120 -45 -142 -53 -375 -129 -460 -150 -41 -10 -95 -23 -120 -30 -50 -15 -138 -34 -275 -61 -129 -26 -178 -23 -250 13 -92 47 -384 183 -391 183 -6 0 -164 61 -264 102 -14 5 -59 21 -100 34 -128 42 -119 26 -113 224 10 276 -19 512 -93 775 -73 261 -172 489 -308 713 -31 51 -56 101 -56 110 0 10 14 31 31 48 53 50 259 336 259 359 0 2 13 26 28 52 15 26 43 84 62 128 18 44 37 85 42 91 21 29 97 301 124 449 26 140 26 571 0 611 -23 34 -40 26 -44 -22 -8 -124 -54 -436 -78 -524 -85 -311 -183 -537 -330 -756 -74 -111 -188 -245 -225 -265 -16 -8 -33 4 -112 78 -103 98 -240 197 -371 268 -27 15 -57 31 -65 36 -34 20 -154 69 -167 69 -28 0 -35 37 -17 82 13 32 18 71 18 149 0 117 -11 151 -72 222 -18 20 -33 41 -33 46 0 4 15 28 33 52 19 24 47 71 63 104 25 52 29 74 32 163 4 94 2 107 -22 156 -14 29 -46 72 -71 97 -25 24 -45 50 -45 57 0 7 9 32 21 55 47 95 59 147 59 254 0 112 -8 142 -62 226 -31 49 -115 118 -178 149 -105 50 -243 67 -390 48 -156 -21 -143 -25 -157 54 -21 115 -86 201 -192 253 -52 25 -66 27 -191 28 -154 1 -147 -4 -149 106 -2 127 -90 235 -234 289 -50 19 -72 21 -165 17 -59 -3 -132 -12 -162 -21 -79 -23 -228 -99 -280 -143 -78 -65 -173 -172 -215 -240 -35 -57 -47 -68 -90 -84 -27 -10 -56 -19 -63 -19 -28 0 -188 -85 -251 -133 -81 -62 -168 -152 -227 -233 -49 -69 -108 -183 -118 -229 -15 -66 -26 -80 -92 -115 -79 -41 -214 -165 -294 -270 -56 -73 -133 -207 -150 -260 -5 -14 -18 -50 -30 -80 -31 -81 -51 -181 -59 -284 -5 -76 -9 -91 -24 -94 -23 -5 -96 56 -227 187 -265 266 -476 635 -573 1006 -8 33 -20 78 -26 100 -17 64 -40 259 -47 390 -5 85 -2 161 10 260 29 249 44 315 116 535 50 151 58 190 38 190 -19 0 -36 -20 -84 -100 -54 -91 -107 -205 -129 -275 -10 -33 -23 -76 -31 -95 -42 -114 -74 -343 -74 -530 0 -195 39 -479 79 -583 5 -12 19 -57 31 -99 12 -42 32 -100 46 -127 13 -28 24 -54 24 -58 0 -16 83 -181 138 -273 137 -235 313 -450 492 -605 64 -55 90 -84 90 -100 0 -12 -12 -49 -26 -81 -30 -66 -54 -176 -54 -244 0 -78 32 -174 82 -244 32 -44 34 -68 13 -140 -66 -231 -58 -545 19 -751 36 -94 53 -127 109 -212 58 -87 108 -141 164 -176 51 -32 57 -43 73 -132 16 -84 73 -261 130 -405 68 -171 224 -461 302 -561 15 -20 28 -41 28 -45 0 -5 36 -52 81 -104 44 -52 89 -105 100 -118 10 -12 19 -27 19 -32 0 -14 -53 -12 -145 6 -44 8 -116 22 -160 31 -44 8 -98 21 -120 28 -22 7 -69 21 -105 30 -110 30 -136 39 -377 136 -184 74 -351 165 -546 296 -115 79 -119 90 -54 167 24 28 60 76 79 106 41 63 137 243 149 280 4 14 17 50 28 80 19 50 39 124 76 285 8 33 22 118 31 190 25 190 16 364 -33 634 -17 94 -42 146 -61 126 -6 -6 -12 -128 -15 -285 -3 -151 -10 -304 -16 -340 -6 -36 -18 -108 -27 -160 -16 -96 -23 -124 -64 -260 -32 -105 -137 -318 -212 -429 -173 -260 -476 -486 -813 -609 -157 -57 -354 -105 -487 -118 -77 -7 -111 -25 -90 -46 21 -21 363 -16 472 6 158 33 266 62 345 95 54 22 228 110 291 148 39 24 77 43 83 43 7 0 42 -16 79 -37 37 -20 81 -43 97 -51 17 -9 68 -42 115 -73 281 -191 448 -411 479 -632 34 -238 -123 -432 -384 -478 -276 -48 -589 32 -879 226 -97 65 -167 130 -236 219 -44 58 -126 127 -166 140 -11 3 -28 0 -39 -8 -18 -13 -15 -18 41 -112 89 -146 115 -209 139 -328 15 -73 15 -86 -1 -165 -9 -47 -27 -106 -40 -131 -31 -62 -96 -122 -174 -162 -63 -31 -69 -32 -190 -33 -130 0 -175 9 -280 58 -124 57 -308 222 -371 332 -51 89 -95 196 -103 246 -4 25 -15 59 -26 77 -35 57 -77 37 -126 -60 -87 -173 -247 -315 -430 -385 -61 -23 -84 -26 -194 -26 -120 -1 -127 0 -190 31 -77 37 -156 112 -177 167 -25 68 -42 148 -43 195 -1 145 82 366 212 562 70 107 104 147 135 159 12 4 30 20 39 34 15 23 16 31 5 63 -8 21 -26 51 -41 67 -36 38 -74 114 -101 201 -17 56 -20 87 -17 169 3 90 7 107 38 170 47 94 71 103 135 51 55 -46 129 -86 156 -86 36 0 59 19 59 49 0 33 -19 57 -189 242 -280 305 -467 601 -624 989 -45 112 -44 109 -101 305 -76 263 -96 577 -52 810 23 120 32 128 97 92 68 -39 101 -48 194 -56 l80 -6 -4 -91 c-3 -93 11 -167 47 -244 36 -76 158 -180 211 -180 23 0 44 -25 60 -70 21 -57 52 -113 80 -143 75 -81 209 -128 307 -108 140 28 230 97 294 227 35 69 44 99 48 157 6 90 13 105 60 113 97 18 225 122 273 222 36 77 59 173 59 244 0 38 3 68 8 69 4 1 45 2 92 4 137 5 282 75 394 189 60 60 131 190 140 256 16 105 48 123 226 125 133 1 185 13 285 63 58 29 192 161 216 212 50 107 54 124 54 220 0 87 -3 101 -34 165 -41 84 -115 160 -193 200 -32 16 -60 35 -62 42 -3 7 4 51 16 99 19 79 20 93 8 153 -38 194 -164 328 -370 394 -52 16 -93 21 -200 21 -74 1 -141 5 -147 9 -7 5 -13 18 -13 30 -1 58 -70 151 -150 202 -82 51 -216 68 -323 40 -81 -21 -106 -19 -168 14 -109 59 -170 61 -277 9 -37 -17 -54 -20 -110 -14 -37 4 -73 13 -80 20 -22 21 -25 123 -8 219 30 173 137 340 298 466 130 101 326 186 349 151 5 -8 6 -27 3 -42 -3 -15 0 -52 6 -82 8 -41 16 -57 32 -62 28 -9 52 23 77 101 83 263 111 341 169 476 27 63 69 153 92 200 39 76 51 99 86 159 76 134 242 367 378 530 177 213 441 459 727 674 26 20 39 38 39 53 0 22 -4 23 -64 23 -36 0 -67 4 -70 9 -10 15 15 112 40 161 30 59 92 123 152 159 44 26 71 34 186 58 69 14 79 40 81 200 2 125 4 144 29 204 62 152 173 253 334 304 64 21 218 16 302 -9 30 -9 64 -14 75 -12 11 3 52 37 91 75 l71 70 7 78 c14 173 73 329 156 417 73 77 203 136 302 136 150 0 318 -96 375 -215 l18 -37 -30 -25 c-17 -13 -54 -44 -82 -69 -83 -71 -181 -219 -210 -317 -13 -46 -18 -50 -78 -77 -80 -36 -137 -78 -194 -144 -46 -54 -104 -168 -115 -227 -6 -32 -12 -39 -52 -54 -69 -26 -97 -85 -40 -85 12 0 55 -11 95 -25 67 -23 75 -23 102 -9 27 14 29 18 29 77 0 59 16 122 42 170 52 92 157 175 250 195 70 16 87 35 98 108 10 74 15 85 63 161 46 75 146 169 214 202 26 12 55 26 63 30 8 5 49 18 90 30 41 12 86 25 100 29 20 6 26 15 28 44 3 34 1 37 -40 50 -38 13 -43 18 -42 44 1 16 11 54 23 84 23 56 60 257 61 321 0 78 64 274 110 342 45 65 163 127 243 127 54 0 206 -48 297 -94 95 -48 228 -126 310 -180 46 -31 91 -55 100 -54 8 2 16 16 18 32 4 35 -44 108 -123 186 -30 30 -55 58 -55 63 0 5 27 38 59 73 70 77 131 189 159 294 16 59 21 118 25 275 6 222 22 331 62 420 29 68 44 86 99 126 35 26 47 29 113 29 63 0 84 -5 136 -31z m4667 -879 c387 -28 577 -73 649 -155 44 -51 38 -119 -13 -158 -16 -11 -80 0 -163 28 -75 26 -142 39 -278 55 -44 5 -102 15 -130 22 -35 9 -142 13 -360 12 -279 0 -322 -2 -430 -22 -262 -50 -241 -48 -283 -17 -20 15 -65 45 -100 68 -35 22 -59 43 -55 47 22 20 286 76 473 101 205 27 473 35 690 19z m2809 -1040 c247 -195 377 -489 342 -773 -7 -56 -21 -129 -32 -162 -30 -91 -82 -190 -101 -193 -25 -5 -157 86 -164 112 -3 12 5 44 17 71 120 274 52 555 -176 723 -33 24 -62 46 -64 48 -2 2 10 32 27 66 17 35 38 82 48 106 22 53 38 53 103 2z m-318 -413 c28 -22 49 -75 49 -127 0 -43 -5 -56 -33 -86 -48 -53 -99 -57 -157 -12 -25 19 -46 42 -48 51 -4 18 143 187 162 187 6 0 18 -6 27 -13z m1474 -2875 c102 -35 212 -128 255 -217 35 -74 41 -203 10 -257 -28 -49 -20 -92 20 -113 16 -8 35 -15 43 -15 70 0 233 -93 319 -183 108 -112 153 -215 153 -347 0 -70 -4 -94 -24 -134 -22 -44 -23 -52 -10 -74 8 -14 43 -45 79 -70 115 -78 178 -149 244 -277 65 -127 83 -258 49 -366 -18 -59 -57 -119 -77 -119 -7 0 -32 18 -55 40 -45 43 -62 48 -81 25 -11 -13 -10 -22 3 -48 47 -97 52 -120 51 -231 0 -102 -2 -116 -28 -169 -36 -73 -87 -117 -137 -117 -50 0 -70 -25 -68 -86 1 -27 -2 -77 -6 -111 -7 -59 -6 -66 21 -105 106 -157 132 -392 59 -541 -33 -68 -69 -96 -130 -101 -68 -5 -85 -27 -96 -121 -13 -104 -46 -167 -106 -205 -55 -35 -89 -37 -142 -11 -63 33 -111 108 -132 206 -10 51 -9 72 5 139 9 43 16 89 16 102 0 35 -31 60 -84 67 -101 14 -180 83 -238 210 -50 109 -45 256 12 371 37 74 37 99 0 174 -25 50 -30 73 -30 130 0 81 -12 94 -93 105 -63 9 -116 37 -159 85 -51 56 -74 114 -82 207 -10 108 -20 118 -107 109 -194 -19 -368 140 -410 374 -10 60 -10 92 0 165 7 51 17 104 22 118 5 14 52 62 104 106 125 109 276 287 392 462 91 135 192 320 213 386 5 17 18 57 30 90 28 82 51 186 60 273 9 98 30 109 135 74z m-14513 -1518 c14 -9 9 -43 -12 -84 -43 -85 -14 -126 48 -68 96 90 149 120 247 138 127 23 232 -13 286 -99 39 -61 37 -87 -16 -181 -36 -63 -2 -82 91 -52 115 37 212 55 266 48 136 -18 223 -56 297 -128 60 -59 80 -92 97 -166 17 -74 3 -156 -43 -243 -47 -89 -39 -103 67 -130 92 -24 160 -68 204 -134 49 -73 62 -130 46 -208 -18 -87 -40 -126 -104 -184 -110 -101 -227 -132 -378 -101 -57 12 -58 12 -103 -20 -25 -18 -65 -36 -88 -41 -60 -14 -87 -49 -87 -112 0 -82 -51 -190 -124 -263 -127 -126 -281 -172 -441 -129 -33 8 -73 16 -90 17 -27 1 -30 -2 -33 -33 -2 -19 5 -55 15 -80 26 -66 25 -211 -2 -271 -22 -52 -73 -123 -107 -149 -56 -44 -89 -54 -159 -48 -58 5 -69 3 -85 -14 -16 -18 -17 -26 -5 -94 14 -88 9 -129 -30 -210 -33 -69 -69 -111 -125 -145 -53 -34 -162 -35 -214 -3 -74 46 -106 100 -125 208 -9 55 -30 75 -77 75 -48 0 -110 31 -136 67 -58 82 -66 113 -66 228 1 96 4 117 26 165 25 54 93 152 110 158 33 14 66 200 38 217 -18 11 -67 -48 -81 -95 -15 -51 -25 -61 -116 -123 -92 -63 -147 -82 -210 -73 -89 12 -153 63 -173 137 -9 31 -18 42 -53 57 -37 17 -44 25 -61 75 -25 73 -25 220 -1 297 53 171 154 324 268 404 119 85 128 103 78 154 -31 30 -51 85 -51 139 0 78 50 202 118 291 34 45 130 117 186 141 24 11 49 28 54 38 5 10 12 52 14 93 5 71 12 95 62 199 33 69 179 210 256 248 115 56 143 63 255 63 57 0 107 4 110 10 15 24 124 34 157 14z m4969 -289 c64 -23 108 -62 135 -119 35 -74 33 -98 -18 -274 -12 -40 -11 -45 7 -58 23 -17 44 -14 135 24 82 33 216 42 273 18 133 -55 178 -165 126 -311 -35 -100 -3 -138 81 -95 98 50 157 62 310 64 169 1 209 -9 304 -82 97 -75 127 -176 90 -303 -23 -76 -47 -121 -99 -179 -67 -75 -60 -110 23 -128 52 -12 103 -49 133 -98 18 -29 23 -52 22 -101 -1 -105 -66 -209 -170 -270 -78 -45 -79 -89 -3 -112 23 -7 61 -30 85 -52 97 -89 98 -230 4 -344 -21 -26 -39 -55 -39 -65 0 -21 54 -70 78 -70 81 -1 322 -122 487 -246 171 -127 372 -364 485 -569 58 -106 110 -215 110 -231 0 -4 9 -26 19 -48 17 -36 44 -115 95 -276 51 -161 96 -496 96 -707 -1 -135 -14 -211 -44 -242 -68 -71 -8 -115 269 -201 107 -33 144 -47 390 -151 213 -90 415 -191 590 -297 70 -42 280 -200 311 -234 63 -69 107 -172 106 -250 -1 -78 -75 -184 -157 -225 -45 -23 -171 -44 -225 -38 -136 15 -249 48 -267 79 -59 100 -306 291 -453 350 -25 10 -57 24 -71 32 -14 7 -56 16 -92 20 -57 6 -67 4 -67 -9 0 -14 34 -44 70 -61 54 -25 190 -121 260 -183 134 -119 226 -233 279 -346 42 -90 55 -156 48 -244 -9 -118 -80 -227 -182 -279 -50 -26 -176 -54 -245 -54 -68 0 -204 27 -279 55 -63 23 -153 66 -171 80 -8 7 -31 21 -50 32 -49 25 -159 106 -160 116 0 20 -75 156 -112 205 -94 126 -217 232 -268 232 -16 0 -31 -4 -34 -9 -6 -9 43 -79 85 -125 26 -27 79 -118 116 -196 57 -121 67 -166 67 -286 0 -105 -2 -116 -32 -177 -50 -102 -133 -171 -254 -213 -80 -28 -333 -26 -438 4 -117 33 -156 49 -285 113 -132 66 -166 86 -335 199 -190 127 -232 143 -357 133 -145 -11 -379 19 -538 68 -112 34 -245 94 -340 152 -128 78 -273 229 -343 358 -16 30 -39 71 -51 93 -31 55 -52 113 -61 175 -13 83 -57 160 -111 196 -147 96 -391 323 -523 485 -278 341 -445 656 -537 1014 -17 65 -8 75 69 76 37 0 82 2 101 3 29 2 35 -2 41 -23 16 -58 67 -144 111 -189 56 -56 145 -102 209 -109 52 -5 70 -23 70 -67 0 -34 27 -118 56 -175 10 -19 47 -65 84 -102 65 -65 75 -70 170 -92 14 -3 52 -32 86 -64 101 -98 214 -125 339 -82 136 47 232 165 271 333 16 69 16 88 5 165 l-12 87 51 45 52 45 82 0 c127 1 224 41 309 129 65 67 127 184 127 238 0 55 10 74 46 92 19 9 39 16 45 16 24 0 98 42 143 81 107 94 173 215 187 344 11 91 18 100 87 110 96 14 240 106 310 198 75 98 99 170 67 197 -25 20 -48 7 -86 -51 -49 -74 -121 -136 -205 -179 -65 -33 -76 -35 -180 -38 -106 -3 -112 -5 -122 -27 -7 -16 -8 -35 -1 -57 31 -108 -18 -266 -116 -370 -61 -66 -129 -100 -223 -111 -64 -8 -72 -19 -72 -98 0 -200 -184 -378 -350 -340 -82 19 -116 14 -139 -18 -12 -16 -21 -34 -21 -39 0 -15 -52 -56 -89 -72 -42 -17 -48 -48 -28 -146 21 -101 21 -132 1 -200 -31 -107 -111 -191 -206 -216 -37 -9 -57 -9 -102 2 -56 13 -80 31 -152 112 -25 28 -41 36 -78 40 -34 4 -58 16 -92 43 -80 65 -118 149 -130 285 -7 83 -25 137 -49 146 -8 3 -33 -1 -56 -10 -51 -21 -100 -13 -155 25 -98 67 -128 147 -129 339 0 135 0 135 -23 135 -19 0 -31 -15 -65 -80 -48 -91 -79 -114 -161 -115 -75 0 -129 30 -168 96 -31 50 -35 54 -71 54 -50 0 -83 21 -127 78 -89 117 -159 351 -160 533 0 82 31 263 60 344 53 154 54 154 42 180 -7 14 -20 25 -31 25 -36 0 -52 13 -77 62 -21 42 -25 63 -25 137 0 72 5 99 29 157 33 82 80 153 122 186 17 12 43 33 58 45 l27 21 0 164 c1 132 4 170 18 202 9 21 17 45 17 53 0 25 87 197 136 269 25 38 65 88 88 112 64 68 176 147 232 166 68 22 98 66 108 157 17 155 207 384 400 481 75 38 104 47 184 58 76 10 95 27 123 108 47 139 258 316 424 357 71 18 185 18 236 0z m6772 -4284 c211 -73 351 -227 318 -349 -38 -140 -246 -232 -525 -232 -113 0 -128 -2 -146 -20 -25 -25 -25 -57 0 -95 36 -54 20 -116 -40 -163 -31 -24 -124 -56 -210 -73 -101 -20 -649 -17 -815 4 -71 9 -152 20 -180 23 -70 8 -100 36 -52 49 22 6 146 55 202 80 160 70 621 310 686 356 15 10 30 19 34 19 7 0 105 63 285 183 138 92 178 120 278 194 65 48 86 51 165 24z"
       id="path1" />
    <path
       d="M11701 16233 c-86 -30 -166 -135 -202 -263 -40 -145 -7 -371 73 -502 36 -58 122 -136 184 -167 62 -32 160 -26 220 12 135 85 204 276 175 484 -22 160 -72 265 -171 363 -86 84 -178 108 -279 73z"
       id="path2" />
    <path
       d="M9230 14406 c-19 -7 -53 -19 -75 -26 -101 -32 -222 -100 -322 -182 -168 -137 -303 -341 -377 -571 -59 -184 -68 -317 -22 -317 14 0 40 54 51 105 6 27 30 83 73 175 85 177 247 383 418 532 60 52 201 143 299 192 99 50 125 77 93 97 -19 13 -98 10 -138 -5z"
       id="path3" />
    <path
       d="M7430 14254 c-134 -29 -239 -91 -341 -203 l-64 -70 -77 11 c-67 10 -84 9 -140 -7 -81 -24 -166 -65 -223 -108 -43 -33 -47 -34 -112 -30 -64 5 -70 3 -93 -22 l-25 -27 24 -19 c13 -10 30 -19 38 -19 7 0 37 -16 66 -35 70 -47 99 -46 145 7 24 26 64 53 112 76 142 66 270 53 412 -42 35 -23 68 -14 68 20 0 14 -11 45 -26 69 l-25 44 24 38 c41 63 86 102 166 141 70 34 84 37 178 40 124 5 180 -11 270 -75 75 -53 94 -51 126 14 30 64 123 111 244 126 64 8 86 15 94 29 8 15 4 22 -23 38 -29 19 -45 21 -143 17 -99 -3 -116 -6 -176 -35 -77 -37 -96 -39 -149 -12 -93 48 -228 61 -350 34z"
       id="path4" />
    <path
       d="M9440 14098 c-65 -12 -92 -32 -88 -66 2 -19 14 -29 53 -44 27 -11 52 -21 54 -23 2 -3 -29 -48 -69 -101 -154 -204 -220 -397 -220 -640 0 -223 63 -421 194 -614 49 -73 182 -205 275 -274 85 -63 234 -149 301 -174 148 -55 216 -71 375 -87 212 -23 422 -1 595 60 210 75 429 237 570 420 56 74 128 201 155 277 35 97 55 164 55 188 0 51 22 66 107 73 89 7 150 30 208 80 72 61 93 173 44 226 -26 27 -44 18 -76 -38 -51 -86 -89 -111 -170 -111 -86 1 -267 55 -424 128 -35 16 -95 44 -134 62 -98 46 -342 168 -455 229 -100 53 -264 135 -340 169 -25 11 -79 36 -120 55 -75 34 -152 66 -222 93 -21 8 -55 21 -75 29 -21 7 -63 21 -93 29 -241 65 -364 78 -500 54z m386 -184 c55 -15 110 -29 124 -31 26 -6 214 -80 288 -114 56 -27 56 -30 -10 -80 -42 -31 -35 -45 21 -52 77 -9 157 -52 189 -100 22 -33 27 -52 27 -102 0 -52 -5 -68 -28 -99 -61 -79 -159 -113 -255 -86 -58 15 -127 84 -142 140 -9 34 -15 41 -33 38 -39 -5 -60 -84 -60 -223 -1 -161 31 -257 123 -373 176 -223 507 -297 773 -173 110 51 234 166 288 266 31 56 60 159 71 245 6 47 14 89 18 93 6 7 49 -8 145 -53 22 -10 70 -30 107 -45 37 -15 69 -33 72 -40 7 -20 -10 -135 -28 -190 -73 -215 -216 -401 -406 -531 -73 -49 -199 -114 -221 -114 -6 0 -23 -6 -37 -14 -52 -27 -138 -45 -270 -57 -315 -30 -598 48 -848 232 -183 134 -337 345 -390 533 -63 224 -27 505 89 691 41 67 126 171 173 214 66 61 79 62 220 25z"
       id="path5" />
    <path
       d="M7858 13626 c-101 -53 -180 -111 -246 -179 -40 -43 -45 -45 -75 -35 -18 5 -59 13 -91 16 -56 7 -60 9 -82 47 -12 22 -30 42 -40 44 -23 4 -44 -25 -44 -60 0 -16 -11 -45 -25 -65 -29 -43 -30 -48 -9 -68 11 -12 36 -16 95 -16 109 0 170 -32 219 -114 67 -111 -4 -252 -135 -270 -113 -15 -247 -87 -218 -116 9 -10 27 -10 87 -1 90 15 181 1 238 -35 37 -23 78 -87 78 -120 0 -35 -33 -85 -67 -101 -48 -23 -69 -57 -55 -89 14 -29 37 -39 112 -48 236 -30 449 -242 450 -446 0 -69 -32 -172 -74 -234 -35 -53 -99 -106 -128 -106 -18 -1 -54 -31 -61 -52 -4 -10 -2 -42 4 -71 26 -129 -63 -246 -212 -277 -66 -14 -151 -2 -198 27 -52 33 -131 8 -131 -42 0 -12 -13 -40 -28 -61 -129 -178 -379 -218 -551 -90 -50 37 -83 34 -116 -11 -79 -107 -140 -143 -240 -144 -33 0 -77 2 -96 6 -54 10 -78 -15 -89 -95 -12 -91 -24 -124 -64 -178 -69 -94 -154 -157 -266 -197 -45 -17 -80 -20 -195 -19 -130 0 -144 2 -197 27 -70 32 -126 82 -169 148 -32 50 -32 53 -31 160 0 107 0 110 -23 121 -19 8 -34 7 -68 -6 -56 -21 -95 -20 -149 3 -51 22 -91 65 -108 117 -12 35 -9 134 6 211 5 25 2 34 -10 39 -23 9 -66 -34 -102 -99 -31 -58 -42 -69 -99 -95 -97 -46 -172 -54 -250 -27 -88 29 -125 80 -125 170 0 38 7 71 23 103 38 77 24 93 -86 96 -45 1 -61 -5 -117 -40 -113 -72 -164 -89 -260 -89 -70 0 -91 4 -120 22 -55 34 -74 76 -74 158 1 93 35 164 123 254 88 90 165 135 266 156 121 25 147 61 109 151 -36 86 20 260 126 387 44 53 219 167 258 167 10 0 42 7 70 15 48 15 54 20 79 71 30 61 80 108 154 143 108 51 104 94 -10 99 -46 2 -72 7 -73 15 -1 7 -2 26 -2 42 -1 21 -6 30 -17 30 -25 0 -116 -113 -153 -190 -31 -65 -37 -71 -82 -88 -136 -50 -267 -135 -335 -218 -115 -141 -175 -271 -185 -403 l-7 -86 -63 -30 c-35 -16 -67 -30 -72 -30 -4 0 -38 -24 -77 -53 -159 -119 -255 -288 -255 -447 0 -135 52 -224 162 -279 57 -29 69 -31 167 -31 113 0 169 13 245 58 59 35 69 28 81 -58 13 -94 50 -151 128 -198 68 -41 110 -52 202 -51 75 0 126 9 190 32 43 16 71 9 82 -21 13 -37 73 -98 122 -124 36 -20 65 -28 102 -28 72 0 86 -10 99 -77 29 -140 96 -234 220 -307 96 -56 166 -71 325 -70 113 0 153 4 205 21 131 42 225 103 317 204 46 51 113 171 113 202 0 33 29 51 99 63 84 14 181 58 236 108 22 19 45 36 51 36 6 0 35 -13 65 -30 66 -35 185 -48 286 -32 115 20 251 100 321 192 43 56 56 62 114 48 24 -5 81 -8 128 -5 209 11 362 157 379 361 4 48 12 81 19 84 24 8 107 79 135 115 65 86 107 213 107 329 0 53 -23 171 -42 214 -16 37 -93 141 -131 177 -56 53 -132 103 -200 132 -80 33 -91 44 -78 77 10 26 15 81 12 144 -1 33 -11 56 -47 105 l-47 63 31 55 c44 82 59 159 42 224 -7 29 -19 64 -26 79 -25 48 -17 66 64 146 73 74 135 113 207 133 17 5 51 14 76 21 82 23 101 56 49 83 -39 20 -214 21 -252 1z"
       id="path6" />
    <path
       d="M14641 12622 c-56 -28 -76 -64 -75 -135 1 -80 24 -130 71 -152 33 -16 38 -16 70 -1 51 24 73 69 73 150 0 81 -23 128 -72 145 -17 6 -31 11 -32 11 -1 0 -16 -8 -35 -18z"
       id="path7" />
    <path
       d="M13467 12580 c-33 -29 -37 -37 -37 -80 0 -39 6 -57 33 -92 50 -66 107 -93 194 -93 66 0 75 3 100 27 82 83 -49 251 -207 266 -42 4 -51 1 -83 -28z"
       id="path8" />
    <path
       d="M6040 12441 c-100 -20 -269 -145 -312 -231 -7 -14 -17 -31 -22 -38 -41 -56 -59 -198 -31 -252 30 -58 107 -89 135 -55 10 12 9 26 -9 71 -31 83 -26 146 20 224 5 8 13 24 18 35 14 33 99 122 147 155 25 16 47 30 49 30 2 0 20 10 40 21 28 17 33 24 24 35 -6 8 -14 13 -18 13 -3 -1 -22 -4 -41 -8z"
       id="path9" />
    <path
       d="M3228 11390 c-36 -11 -118 -71 -158 -116 -74 -85 -110 -173 -110 -272 0 -57 3 -67 29 -93 33 -32 80 -39 101 -14 10 12 9 26 -4 69 -19 60 -15 121 12 191 23 60 95 149 147 181 69 44 59 77 -17 54z"
       id="path10" />
    <path
       d="M3380 10431 c-62 -10 -224 -90 -292 -145 -113 -91 -194 -214 -229 -351 -24 -92 -24 -152 3 -238 18 -61 30 -81 77 -128 80 -79 151 -104 291 -102 118 2 181 18 271 71 70 40 119 89 119 118 0 40 -33 39 -135 -6 -242 -106 -441 -67 -500 99 -53 151 52 372 230 487 92 58 166 79 285 79 99 0 108 -2 159 -31 30 -17 68 -49 85 -73 30 -41 31 -47 30 -134 -1 -81 -5 -100 -32 -160 -31 -66 -41 -130 -24 -141 15 -9 63 31 98 80 64 90 77 128 77 239 1 88 -2 106 -25 150 -32 62 -98 125 -169 160 -45 23 -67 27 -163 30 -61 2 -131 0 -156 -4z"
       id="path11" />
    <path
       d="M6955 10291 c-27 -10 -65 -26 -84 -37 -18 -10 -44 -25 -56 -32 -37 -20 -123 -120 -143 -165 -38 -86 -46 -134 -33 -192 29 -129 141 -205 299 -205 48 0 158 23 189 39 10 5 35 17 56 27 59 29 171 141 197 199 30 66 33 182 7 241 -22 49 -92 105 -160 128 -66 22 -207 21 -272 -3z m237 -87 c84 -32 131 -116 108 -192 -34 -108 -123 -187 -250 -223 -114 -33 -200 -20 -263 39 -54 51 -56 123 -6 217 69 130 276 210 411 159z"
       id="path12" />
    <path
       d="M5162 9809 c-154 -56 -266 -176 -295 -318 -14 -65 -14 -78 0 -124 39 -132 168 -200 333 -175 101 15 187 58 271 136 185 171 172 408 -28 484 -66 25 -208 23 -281 -3z m241 -90 c114 -59 130 -160 44 -274 -58 -76 -109 -108 -223 -139 -81 -22 -110 -20 -171 8 -67 31 -86 62 -86 134 0 112 87 221 218 275 60 24 166 22 218 -4z"
       id="path13" />
    <path
       d="M8867 9553 c-15 -14 -3 -25 111 -111 270 -206 467 -422 629 -692 54 -90 118 -221 148 -305 24 -64 33 -75 49 -53 10 14 10 36 0 115 -7 54 -19 119 -27 144 -20 62 -81 191 -125 264 -137 230 -383 452 -651 589 -111 57 -123 61 -134 49z"
       id="path14" />
    <path
       d="M5987 7250 c-76 -32 -163 -95 -207 -150 -67 -85 -116 -218 -108 -298 6 -63 26 -102 67 -129 71 -48 132 -15 93 50 -34 59 -44 119 -28 184 26 113 89 204 201 287 69 53 86 75 59 82 -5 1 -39 -10 -77 -26z"
       id="path15" />
  </g>
  <path
     style="fill:#ffffff;stroke-width:3.22961"
     d="m 2123.4656,2108.4019 c -10.4817,-5.7829 -24.4107,-19.7489 -30.071,-30.1508 -3.9189,-7.2018 -5.1548,-17.3572 -4.8147,-39.5627 0.4085,-26.6657 -0.1599,-29.8738 -5.2933,-29.8738 -3.5256,0 -10.9427,8.0279 -19.1679,20.7465 -23.2568,35.9615 -49.9579,53.5522 -85.1047,56.0669 -26.2553,1.8786 -39.6892,-3.2386 -48.7441,-18.5673 -12.3878,-20.9707 -4.4269,-47.0864 24.7576,-81.2178 10.0438,-11.7462 18.2614,-22.2828 18.2614,-23.4146 0,-8.8581 -31.2897,6.6396 -51.4178,25.4671 -41.8093,39.1077 -114.7383,19.1465 -100.7406,-27.5735 4.8217,-16.0936 28.8803,-40.6465 52.0407,-53.1099 9.7695,-5.2573 30.1006,-14.0002 45.18,-19.4287 30.6468,-11.0325 33.0891,-14.4572 23.8033,-33.379 -4.7898,-9.7603 -5.824,-19.7971 -5.7201,-55.5141 0.1154,-39.6577 0.9242,-45.64 8.9462,-66.1673 28.0803,-71.8547 81.5692,-120.5084 164.6086,-149.7288 18.4295,-6.4851 33.361,-13.2444 33.1811,-15.0207 -0.4524,-4.4672 -31.6803,-2.5448 -55.2304,3.4 -27.8312,7.0255 -74.2379,30.6074 -97.7238,49.659 -17.8983,14.519 -20.954,15.9344 -26.6804,12.3583 -10.8565,-6.7801 -10.3006,-13.5852 2.8823,-35.2847 21.8915,-36.0341 45.642,-86.1529 56.9202,-120.1141 17.6247,-53.072 21.9281,-78.8923 21.8749,-131.2464 -0.055,-54.1449 -4.919,-79.1254 -15.4061,-79.1254 -6.1484,0 -6.4736,2.2529 -6.7587,46.8293 -0.3315,51.8259 -6.4412,87.9099 -24.059,142.0927 -29.3151,90.1578 -103.0086,200.3147 -179.9715,269.0213 -93.2601,83.2555 -227.9398,151.9473 -346.8208,176.8918 l -34.006,7.1354 -33.6117,-15.4876 c -18.4865,-8.5182 -46.6917,-20.1872 -62.6782,-25.9312 l -29.0665,-10.4435 -2.0917,-41.5301 c -3.1912,-63.3623 -16.8531,-112.8929 -46.5224,-168.6654 l -14.4147,-27.0968 17.4634,-23.0017 c 38.4845,-50.6893 56.869,-105.6826 56.869,-170.1117 0,-23.5794 -1.3189,-39.0262 -3.4444,-40.3399 -5.4708,-3.381 -6.6163,-0.3153 -9.9094,26.5198 -8.4047,68.4907 -35.7227,134.7405 -70.7241,171.5157 -9.8658,10.3657 -10.2265,10.4663 -17.3721,4.8444 -31.694,-24.9356 -50.7055,-37.8076 -68.1063,-46.1122 l -20.2485,-9.6637 1.6655,-20.7485 c 1.4104,-17.5714 0.5746,-22.5136 -5.4586,-32.2754 l -7.124,-11.5269 7.2865,-10.233 c 13.8009,-19.3816 11.2954,-53.6652 -4.9045,-67.1099 -3.6415,-3.0222 -4.1405,-5.7273 -1.8468,-10.013 6.8744,-12.8449 10.1166,-37.8187 6.6036,-50.865 -8.1846,-30.3953 -31.196,-43.7216 -74.787,-43.3103 -23.9089,0.2256 -28.7536,-0.5704 -28.7536,-4.7241 0,-9.1074 -10.118,-26.4999 -18.8484,-32.3996 -5.1115,-3.4542 -17.1234,-6.4802 -29.59565,-7.4557 l -20.99243,-1.642 -1.82744,-13.6919 c -3.54424,-26.5554 -25.28019,-41.1883 -57.70915,-38.8507 -29.64099,2.1365 -49.73657,13.154 -74.99366,41.1155 -13.10416,14.5073 -24.56561,24.0196 -31.79443,26.3875 -30.04883,9.8429 -68.031,46.7453 -77.43212,75.2309 -2.40531,7.2882 -9.64864,15.5524 -21.4223,24.4416 -32.97039,24.8929 -57.71737,67.3187 -61.76116,105.8824 -0.98335,9.3775 -2.8781,17.7238 -4.21057,18.5474 -1.33247,0.8235 -14.56797,-11.3323 -29.41224,-27.0128 -28.31324,-29.9084 -47.42582,-59.0322 -61.79882,-94.1693 -17.43099,-42.6128 -20.00993,-56.5385 -20.03638,-108.1918 -0.0232,-45.3741 0.65393,-50.7661 10.68592,-85.0844 5.8909,-20.1522 9.75506,-37.5921 8.58698,-38.7553 -6.45133,-6.4244 -30.9362,41.3788 -38.99691,76.136 -5.90246,25.4509 -6.67201,81.2035 -1.51349,109.6491 11.32364,62.4416 51.75007,135.6806 97.69379,176.9879 l 16.67155,14.9892 -5.67839,21.8932 c -6.06226,23.3734 -4.04108,40.8247 6.6111,57.082 3.68821,5.6289 4.06791,10.1139 1.66525,19.6696 -9.42916,37.5012 -6.37137,79.5138 7.99802,109.8882 4.65325,9.8361 14.98885,24.62 22.96801,32.853 11.37442,11.7363 15.89499,19.801 20.93156,37.3417 13.73435,47.8323 41.10487,101.8244 68.94656,136.0065 7.85905,9.6488 14.28916,18.1158 14.28916,18.8156 0,3.097 -53.00871,-9.0325 -82.8721,-18.9628 -47.1254,-15.6704 -111.7425,-49.7393 -116.15679,-61.2427 -0.90936,-2.3698 3.35982,-11.3552 9.48706,-19.9676 16.92885,-23.7953 24.72147,-41.2019 32.88394,-73.4539 10.60741,-41.9126 12.6077,-67.3575 8.05121,-102.4155 -4.28527,-32.9711 -7.67787,-44.8696 -12.79366,-44.8696 -2.03207,0 -3.3169,12.1547 -3.32859,31.4887 -0.0467,77.3344 -19.59925,141.187 -56.29729,183.8503 -16.40349,19.0699 -48.00631,42.2027 -74.57918,54.5909 -23.6316,11.0171 -67.75131,23.9282 -82.0593,24.0137 -10.0083,0.06 -18.77519,5.0721 -15.14055,8.6563 1.44889,1.4288 16.42102,2.2904 33.27136,1.9146 37.94024,-0.8461 71.96888,-9.7275 103.58714,-27.0359 23.23046,-12.7168 23.49645,-12.775 33.91086,-7.4229 35.57669,18.2832 72.04071,51.9366 83.56843,77.1269 7.07161,15.4529 7.79507,40.5735 1.51607,52.6415 -16.38285,31.4873 -59.5391,41.206 -110.75412,24.9414 -30.14781,-9.5742 -61.34232,-29.2691 -77.78882,-49.1128 -13.71116,-16.5433 -28.12576,-25.6568 -31.62511,-19.9948 -1.22615,1.984 3.25131,14.2611 9.94993,27.2825 19.97443,38.828 16.08618,69.4014 -11.16151,87.7636 -14.55603,9.8094 -42.8863,9.9961 -63.2647,0.4171 -22.24932,-10.4584 -45.04602,-32.8291 -56.19974,-55.1497 -5.43123,-10.8689 -9.87496,-22.1454 -9.87496,-25.059 0,-5.5054 -5.91695,-13.0485 -10.2355,-13.0485 -1.36644,0 -7.36835,7.6299 -13.33757,16.9554 -20.85399,32.5794 -49.03594,50.6707 -79.12729,50.7954 -39.98293,0.1656 -61.030015,-29.2077 -50.339,-70.2533 6.09237,-23.3902 22.16346,-53.2747 37.48694,-69.7076 14.06964,-15.0883 14.55868,-17.5852 5.6599,-28.8982 -15.88678,-20.1968 -20.84232,-51.4488 -11.13475,-70.2212 5.75028,-11.1198 9.84837,-11.7214 20.9095,-3.0692 10.45779,8.1802 25.83684,8.6355 25.83684,0.7649 0,-3.1318 -10.28129,-17.3017 -22.84732,-31.4886 -29.34031,-33.1249 -47.60189,-58.519 -63.838206,-88.7717 -34.827218,-64.8927 -51.71458,-137.9552 -42.857361,-185.4208 1.959861,-10.5028 4.160587,-19.6932 4.890503,-20.4231 0.729917,-0.73 5.749974,0.96 11.155684,3.7554 5.405709,2.7954 14.07298,5.0825 19.260605,5.0825 9.115578,0 9.504506,0.6405 11.591795,19.0897 2.55282,22.564 11.85902,38.0773 28.10583,46.8521 6.96881,3.7638 13.89882,11.2314 17.66284,19.033 9.31233,19.3015 20.86599,26.4466 42.76427,26.4466 28.88682,0 47.7266,-17.849 53.9706,-51.1324 1.85808,-9.9044 4.35428,-12.9494 13.87726,-16.9284 21.63992,-9.0417 33.56814,-26.086 37.74399,-53.9326 2.25369,-15.0287 2.47346,-15.2648 14.20671,-15.2648 26.42721,0 57.32522,-23.8184 67.90956,-52.3496 7.1405,-19.248 8.3288,-20.2501 26.35678,-22.2276 34.98063,-3.8369 41.9206,-6.2853 56.9444,-20.0895 17.45405,-16.0371 23.45537,-28.7821 23.45537,-49.8121 0,-17.9784 -10.57247,-36.313 -26.53845,-46.0225 -9.52762,-5.794 -9.89657,-6.8715 -10.24282,-29.9121 -0.3031,-20.169 -1.7123,-25.9457 -9.02374,-36.9906 -12.2694,-18.5346 -36.33678,-30.0309 -62.86937,-30.0309 -19.94024,0 -20.27795,-0.1499 -25.60089,-11.3672 -9.28177,-19.5599 -21.63357,-25.7642 -51.42705,-25.832 -14.21026,-0.032 -30.52752,-2.0118 -36.26059,-4.3988 -6.50474,-2.7083 -15.00436,-3.5322 -22.60724,-2.1913 -6.70091,1.1819 -17.27011,2.4347 -23.4871,2.784 l -11.30362,0.6352 -0.9901,-17.3566 c -2.1015,-36.84 32.47866,-78.7722 76.07842,-92.2532 6.60584,-2.0425 7.26662,-1.1899 7.26662,9.3758 0,7.6776 1.75496,12.2961 5.17035,13.6067 6.75594,2.5925 8.56141,-0.7 22.45141,-40.9421 30.55307,-88.51835 93.73592,-174.4808 171.27145,-233.02069 18.977,-14.32776 22.29358,-22.11811 9.41634,-22.11811 -10.20478,0 -10.8041,-9.35346 -1.55793,-24.31409 7.85666,-12.71231 17.24047,-19.24147 32.28656,-22.46458 16.65181,-3.5671 18.65594,-6.44626 20.96902,-30.12434 2.80494,-28.71287 3.74469,-31.45361 15.29586,-44.60967 16.94532,-19.29964 32.11714,-24.98901 60.28792,-22.60769 23.9701,2.02622 24.26658,1.95565 34.83914,-8.29169 6.72627,-6.51938 10.66332,-13.46219 10.66332,-18.80441 0,-17.76246 10.27938,-43.28798 22.25537,-55.26397 20.95862,-20.95861 47.22139,-22.91449 72.21714,-5.37827 16.68721,11.70719 16.63971,16.11823 -0.36365,33.7589 -8.48094,8.79884 -18.74489,22.86636 -22.80873,31.26113 -5.27737,10.90164 -10.99545,17.10322 -20.01012,21.70218 -13.95461,7.11911 -30.39198,27.51465 -33.47028,41.53004 -1.1538,5.25328 -5.31254,10.56999 -9.90436,12.66212 -4.35344,1.9836 -7.91537,5.51624 -7.91537,7.85034 0,4.49467 27.55548,13.35771 32.33872,10.40152 1.54756,-0.95645 3.80483,-8.34804 5.01615,-16.42574 2.72179,-18.15025 13.83773,-31.90117 33.26681,-41.15263 12.53904,-5.97064 15.50757,-9.32006 20.40078,-23.01831 7.94521,-22.24216 25.9522,-39.22008 51.3337,-48.40007 21.80126,-7.8851 28.87965,-16.82209 15.99275,-20.19209 -4.40618,-1.15223 -6.26398,-3.52715 -5.1105,-6.53303 0.99673,-2.59748 4.11614,-17.30303 6.932,-32.67901 10.30011,-56.24397 17.73967,-71.18008 38.93896,-78.17648 14.6306,-4.82853 35.72797,2.20261 74.42019,24.80214 16.33186,9.5392 30.50175,17.344 31.48865,17.344 5.22757,0 0.48234,-14.13639 -8.85425,-26.37749 l -10.64856,-13.9612 12.04313,-17.19217 c 13.48929,-19.25657 18.9428,-39.42027 18.9428,-70.03856 0,-65.49171 25.45124,-89.68942 63.69204,-60.5551 26.116,19.89682 66.605,69.67438 87.0701,107.04469 6.4251,11.73267 13.9229,23.14878 16.6618,25.36913 2.7388,2.22036 13.7852,4.074 24.5475,4.11922 13.374,0.0562 29.2792,3.37855 50.249,10.49622 29.4261,9.98797 30.6432,10.77734 29.7516,19.29542 -0.7484,7.14934 0.3851,8.88141 5.8122,8.88141 16.5105,0 37.6695,-18.51117 47.9903,-41.98487 3.5145,-7.99327 9.5217,-26.88646 13.3494,-41.98487 3.8277,-15.0984 9.7629,-32.00395 13.1894,-37.56788 7.3093,-11.8688 21.2296,-18.54295 32.6807,-15.6689 21.3738,5.36447 58.2098,50.06262 84.5135,102.55178 8.6614,17.28383 17.6687,31.42514 20.0163,31.42514 2.8537,0 4.5917,-5.46909 5.2444,-16.50243 l 0.9762,-16.50243 19.3776,14.30949 c 27.9785,20.66077 57.5252,51.89807 78.0163,82.48008 9.819,14.65433 19.3338,26.64424 21.1439,26.64424 8.9229,0 -7.7661,-44.51275 -27.6688,-73.79806 -6.459,-9.50399 -11.7437,-18.41775 -11.7437,-19.80836 0,-4.72362 14.4505,-6.42308 54.9033,-6.45693 79.8058,-0.0668 144.7469,19.27337 207.325,61.7436 10.1161,6.8656 19.9261,12.48291 21.7998,12.48291 14.7579,0 -20.8403,-39.09334 -54.5381,-59.89284 -14.9454,-9.22484 -19.2718,-13.50574 -17.5384,-17.35386 1.2656,-2.80953 2.9319,-11.34797 3.7029,-18.97432 1.1286,-11.16383 -0.3205,-16.46864 -7.4358,-27.22067 -5.681,-8.5845 -7.8199,-14.74458 -5.9882,-17.24607 19.5459,-26.69338 52.2827,-63.16259 60.8306,-67.76589 10.2194,-5.50353 11.3283,-5.52646 19.1581,-0.39616 4.571,2.99502 10.3697,9.42844 12.886,14.2965 6.6854,12.93357 17.6188,51.16005 20.9461,73.23361 l 2.8894,19.16814 -22.2121,20.83799 c -12.2167,11.46089 -22.2121,23.54508 -22.2121,26.85374 0,3.30866 0.8063,6.01575 1.7917,6.01575 0.9854,0 11.418,-5.80589 23.1834,-12.90197 27.9957,-16.88493 52.3924,-25.79812 76.5443,-27.96489 17.217,-1.54462 21.7431,-0.63669 37.3536,7.49319 14.3121,7.45362 19.273,12.28747 25.5362,24.88228 7.2215,14.52171 7.514,17.02596 4.1208,35.27207 -4.6069,24.77235 -15.7841,47.71877 -33.5445,68.8657 -18.8854,22.48641 -32.8686,31.76304 -46.4953,30.84534 -9.0827,-0.61168 -10.9797,0.37968 -10.9797,5.73798 0,6.72475 10.6134,13.711 26.685,17.56547 4.9072,1.17687 31.067,19.97081 58.1329,41.76425 27.0659,21.79348 61.9258,46.54295 77.4664,54.99883 39.1754,21.31594 63.9204,45.01233 79.1205,75.76761 11.4815,23.23123 12.1147,26.14521 12.032,55.37049 -0.072,25.62298 -1.3145,33.17389 -7.3322,44.57456 -3.9848,7.5492 -7.8595,13.72582 -8.6105,13.72582 -0.7509,0 -14.1646,-4.28633 -29.8082,-9.52517 -55.2723,-18.5101 -110.1009,-26.42476 -196.3823,-28.34841 -82.1274,-1.83099 -125.618,0.93662 -191.3774,12.17874 -110.7907,18.94064 -216.175,49.72275 -359.2703,104.9407 -92.181,35.57101 -107.4661,39.32211 -120.7253,29.62671 -8.9186,-6.5214 -3.6924,-18.87606 16.4288,-38.8377 9.9183,-9.83964 16.8945,-19.30591 15.678,-21.27419 -5.9047,-9.55411 -34.4005,2.46325 -49.6185,20.92536 -14.0148,17.00232 -18.6522,35.85693 -12.4628,50.67023 6.6155,15.833 19.2943,21.7464 46.6264,21.7464 24.3464,0 37.26,-3.8285 112.1474,-33.2479 132.3582,-51.99672 275.357,-91.82528 392.3971,-109.2919 55.3649,-8.26242 164.888,-11.48073 217.1242,-6.38011 70.8846,6.92149 134.3392,23.14215 148.1695,37.876 6.8081,7.25295 7.6675,11.02077 7.2355,31.72393 -1.4983,71.81428 -82.8947,169.06218 -190.8639,228.03358 -7.5492,4.1233 -13.7258,9.4092 -13.7258,11.7465 0,5.2185 -1.4587,5.2875 19.5988,-0.9278 23.4955,-6.935 54.3294,-20.0006 64.8695,-27.488 12.419,-8.8221 15.6318,-7.5971 15.7912,6.0213 0.4164,35.5705 25.6674,65.5084 61.7709,73.2363 6.1193,1.3098 9.1992,4.4642 10.6041,10.8608 3.5012,15.941 13.6811,28.6855 28.7334,35.9722 13.2817,6.4295 14.8817,8.4386 16.775,21.0639 1.2221,8.1495 0.6196,16.7094 -1.4481,20.5728 -1.9474,3.6389 -3.4999,15.7951 -3.4499,27.0136 0.1216,27.2689 9.6137,46.125 29.777,59.1526 14.3341,9.2613 15.0035,10.3703 15.1711,25.1332 0.37,32.5785 18.3716,53.9922 45.3892,53.9922 13.1446,0 17.2311,-1.5792 25.5103,-9.8585 5.4221,-5.4221 11.4032,-15.5954 13.2913,-22.6072 1.8881,-7.0118 4.7797,-12.7488 6.4257,-12.7488 6.6787,0 25.6856,-20.4718 29.3853,-31.6501 6.7181,-20.2984 4.9703,-45.5992 -4.5932,-66.4887 -9.3304,-20.3802 -8.4876,-26.1808 5.0973,-35.082 4.1562,-2.7232 10.2492,-10.9223 13.5401,-18.2202 3.2909,-7.2979 6.8913,-13.2689 8.0009,-13.2689 1.1096,0 6.0328,6.1766 10.9403,13.7258 19.1165,29.4069 25.5116,74.996 13.618,97.081 l -6.2464,11.5988 10.1194,30.0336 c 16.4693,48.8796 21.4998,81.6326 21.4776,139.8401 -0.015,39.1861 -1.7017,60.6649 -6.9801,88.8794 -9.5368,50.9764 -29.906,113.2387 -52.6946,161.0711 -10.4882,22.0143 -19.0695,42.6396 -19.0695,45.8339 0,3.1943 7.2656,14.1106 16.1458,24.2585 32.9698,37.6765 44.137,77.2465 29.5479,104.7006 -18.8049,35.3874 -68.6884,37.017 -100.5672,3.2853 -8.0097,-8.4752 -17.8882,-19.8926 -21.9523,-25.3721 -12.8034,-17.2624 -16.5766,-10.9903 -15.8535,26.353 0.5969,30.8251 0.062,33.8597 -8.7895,49.835 -6.0084,10.8446 -14.697,20.5032 -23.9683,26.6443 -12.5048,8.2828 -17.5214,9.6193 -35.7895,9.5349 -11.6853,-0.054 -24.1527,-1.7019 -27.7053,-3.6619 z M 1308.605,1265.7631 c -1.133,-19.3132 -22.5676,-62.5609 -41.3734,-83.4775 -24.2434,-26.9645 -78.9442,-62.6969 -85.6752,-55.966 -1.7673,1.7673 4.9522,9.141 16.8435,18.4833 41.55,32.6436 79.5315,79.943 96.773,120.5145 8.6217,20.2878 14.6078,20.4864 13.4321,0.4457 z m -595.54093,-96.3502 c 35.22069,-18.1166 46.06412,-53.2997 22.53012,-73.1023 -9.16323,-7.7103 -12.29876,-8.4717 -30.19494,-7.3322 -25.45065,1.6206 -44.36451,13.2514 -53.20155,32.7157 -9.16746,20.192 -8.07905,30.1185 4.70405,42.9016 9.63931,9.6393 13.00843,10.9807 27.58031,10.9807 9.99524,0 21.36698,-2.4522 28.58201,-6.1635 z M 450.52996,1136.486 c 15.2357,-4.1618 33.91086,-17.4071 33.91086,-24.0513 0,-6.3016 -6.27432,-5.8989 -29.38192,1.8855 -24.24894,8.1688 -38.58988,6.1007 -49.76163,-7.1762 -12.58364,-14.9548 -9.28747,-34.428 9.62387,-56.8564 19.16041,-22.7239 56.32593,-30.808 76.28774,-16.594 10.70594,7.6234 12.29979,21.0666 5.50828,46.4593 -4.55297,17.023 -2.04647,21.3472 7.41214,12.7872 15.75676,-14.2597 20.92926,-43.4809 11.07106,-62.5446 -16.89178,-32.66506 -78.60831,-30.1813 -112.30963,4.5198 -50.97087,52.483 -19.36333,119.8728 47.63923,101.5707 z m 505.1309,-30.2488 c 4.607,-2.4149 13.3051,-9.5191 19.32912,-15.7872 13.92529,-14.4895 17.95251,-39.9891 8.04459,-50.9372 -14.90027,-16.4646 -40.93518,-20.3667 -64.21182,-9.6238 -31.14954,14.3765 -45.11923,49.2315 -27.82528,69.4255 12.71564,14.8479 43.29761,18.1219 64.66339,6.9227 z m -165.50084,-82.2373 c 17.31191,-7.8604 38.0296,-28.63692 43.41965,-43.54284 3.5019,-9.68436 6.46306,-12.27176 17.28288,-15.10141 7.18129,-1.87811 18.14354,-6.70001 24.36053,-10.71538 10.08799,-6.5155 12.34558,-6.85261 20.99243,-3.13453 22.53548,9.69011 56.62658,1.77332 77.51053,-17.99988 8.24612,-7.80754 12.9297,-9.36569 31.45386,-10.46434 15.3511,-0.91046 24.3926,-3.23739 30.6813,-7.89616 12.4284,-9.20728 23.4494,-26.35339 23.4494,-36.48191 0,-5.60712 4.7403,-13.54103 13.8563,-23.19132 35.9412,-38.04791 26.2755,-91.91589 -21.3759,-119.13074 -16.1139,-9.20305 -16.3909,-9.62087 -15.5407,-23.44581 0.6184,-10.05702 -0.9152,-16.27492 -5.3715,-21.77829 -5.7492,-7.09994 -5.8653,-8.59256 -1.4836,-19.07938 3.3339,-7.97923 4.1386,-16.81255 2.6943,-29.57805 -2.0365,-18.00011 -1.9226,-18.32462 10.3064,-29.37278 6.8011,-6.14439 19.2024,-13.08578 27.5586,-15.42537 11.1715,-3.12781 15.1929,-5.85237 15.1929,-10.29324 0,-5.23905 -2.6091,-6.03949 -19.6864,-6.03949 -20.4107,0 -29.0608,3.87278 -48.543,21.73334 -7.0753,6.48634 -10.4652,7.40364 -20.44291,5.53183 -6.57861,-1.23416 -12.72723,-4.24041 -13.66362,-6.68054 -3.09887,-8.07556 -10.54153,-4.60897 -15.47985,7.2101 -2.67647,6.40569 -4.18266,12.75287 -3.3471,14.10485 0.83556,1.35198 8.25532,3.2174 16.48833,4.14539 17.95919,2.02425 28.24055,11.0002 28.24055,24.65484 0,12.96173 -5.6113,18.97784 -21.63775,23.19845 -15.12511,3.98327 -27.88283,11.29613 -27.88283,15.98277 0,1.73533 8.78598,3.15516 19.52442,3.15516 16.50596,0 20.76936,1.24492 27.57686,8.05241 8.4998,8.49984 7.5985,15.03136 -3.3253,24.09731 -8.13913,6.75492 -6.1805,15.92315 3.8607,18.07162 33.0045,7.06185 59.7479,28.85713 64.1408,52.27358 3.1204,16.63347 -7.1209,39.20321 -22.2481,49.03022 -10.7814,7.00386 -12.0189,9.22977 -12.0189,21.61976 0,19.35519 -10.0109,30.42195 -29.5075,32.6195 -8.40973,0.94789 -17.79635,0.0394 -21.81524,-2.11145 -9.82517,-5.25829 -17.28168,-1.8961 -22.95814,10.35192 -5.57662,12.0326 -28.14078,24.98594 -43.52442,24.98594 -5.42283,0 -15.28288,-2.90665 -21.91119,-6.45922 -16.151,-8.6564 -18.6243,-8.28074 -30.85546,4.68665 -9.2316,9.78725 -12.7386,11.26347 -28.77201,12.11102 l -18.25896,0.96516 -3.99793,15.72418 c -7.69505,30.26528 -32.52261,47.25313 -69.05997,47.25313 -22.0501,0 -23.33242,-0.4398 -36.15292,-12.39858 -11.89557,-11.09609 -13.45024,-14.30719 -14.79853,-30.56599 l -1.50658,-18.16737 -14.25803,1.9543 c -12.03984,1.65023 -15.49623,0.79106 -22.21688,-5.52266 -6.71722,-6.31052 -7.95884,-10.4541 -7.95884,-26.56076 0,-21.83145 -3.6129,-23.08616 -15.48619,-5.37813 -13.5293,20.1778 -39.8761,25.42248 -54.45803,10.84056 -8.35159,-8.3516 -8.57411,-11.31208 -2.46128,-32.74291 3.37546,-11.83395 -11.68145,-13.24335 -33.69841,-3.15438 -25.01384,11.46228 -30.4857,12.59762 -41.15825,8.53994 -11.44589,-4.35173 -14.10566,-8.3744 -14.16867,-21.42898 -0.0953,-19.7417 21.96945,-41.13903 56.02958,-54.33475 l 12.47936,-4.83482 -2.19061,-14.60808 c -4.40657,-29.38502 20.66218,-63.82247 52.81797,-72.55713 6.99155,-1.89917 15.19626,-7.67121 20.61641,-14.5037 4.95176,-6.24202 13.30837,-13.57542 18.57023,-16.29643 10.75149,-5.5598 12.8279,-14.47028 3.37204,-14.47028 -9.78542,0 -16.41218,-3.50822 -16.41218,-8.68867 0,-8.33587 -7.73119,-2.7254 -18.81329,13.65267 -7.82799,11.56887 -16.14532,18.72758 -30.68125,26.40726 -10.9681,5.79472 -24.0948,15.27664 -29.17048,21.07094 -11.02041,12.58067 -24.60672,40.04653 -24.6508,49.83362 -0.0551,12.21912 -3.4757,16.74722 -17.94104,23.74978 -44.8869,21.72937 -61.7664,83.0723 -28.80201,104.67138 9.71778,6.36733 39.92948,7.48287 54.33411,2.00623 13.06378,-4.96684 14.06018,-4.49712 16.34981,7.70772 4.19048,22.33714 30.83521,34.98476 59.6334,28.30662 14.49215,-3.36067 15.20444,-3.15972 26.20076,7.39066 6.59305,6.3257 16.22454,11.74462 23.11199,13.00342 10.28384,1.87954 12.0765,3.58735 13.88511,13.22818 2.51321,13.39646 17.90719,31.66334 33.73232,40.02754 16.33089,8.6316 61.1385,8.7357 79.96872,0.1858 z M 412.34927,937.88585 c -2.41199,-14.86332 5.23361,-34.34517 17.54374,-44.70345 17.22694,-14.49554 8.98227,-20.37872 -10.32492,-7.36761 -14.44015,9.73123 -25.43644,29.64956 -25.5031,46.19551 -0.0618,15.34663 1.43692,17.4937 12.21133,17.4937 7.3326,0 7.81006,-0.91349 6.07295,-11.61815 z M 775.799,818.54957 c 0.97362,-0.97363 0.32409,-7.46752 -1.44341,-14.43088 -2.83482,-11.16829 -2.19762,-14.39431 5.40578,-27.36854 4.74067,-8.08936 14.35236,-18.5018 21.35931,-23.13877 20.18436,-13.35739 14.06632,-19.56185 -8.65676,-8.77904 -27.67145,13.13097 -46.90902,49.87658 -35.34881,67.51968 4.79015,7.3107 14.38728,10.49412 18.68389,6.19755 z m 680.7531,-35.40752 c 22.5777,-9.2015 47.7111,-26.27013 64.5624,-43.84564 16.0216,-16.7102 34.0208,-49.16312 37.6755,-67.92974 2.4325,-12.49053 5.8821,-15.63268 17.2575,-15.7194 10.9145,-0.0832 28.3894,-11.16594 32.7718,-20.78422 4.2734,-9.3791 1.1837,-24.46762 -5.0103,-24.46762 -2.4263,0 -6.8346,3.69819 -9.7962,8.21815 -14.3243,21.86168 -32.7979,16.99037 -147.1496,-38.80197 -93.3283,-45.53503 -115.0051,-54.20718 -150.8386,-60.34541 -35.1771,-6.02578 -61.3273,3.16687 -44.3411,15.5874 5.0182,3.6694 5.4082,5.4551 2.1908,10.0292 -10.8594,15.43852 -21.5863,34.94905 -25.5663,46.50099 -11.3835,33.04086 -8.264,75.17517 8.0879,109.24059 17.0005,35.41679 64.9817,73.64954 107.2292,85.44335 24.9397,6.96216 92.782,5.08437 112.927,-3.12568 z m 380.5207,-34.88975 c 1.4699,-12.82215 -6.9859,-23.92317 -21.5452,-28.28524 -16.4813,-4.9379 -26.3262,-0.0839 -26.3262,12.97992 0,14.21417 16.4066,26.62047 33.5463,25.36696 11.8857,-0.86928 13.3926,-1.92772 14.3251,-10.06164 z m 126.4771,7.50225 c 13.1366,-7.0305 9.8854,-38.7254 -4.2517,-41.44792 -15.178,-2.92305 -24.0448,22.10084 -13.2778,37.47282 5.5852,7.97399 8.7265,8.68632 17.5295,3.9751 z M 1136.5168,603.5871 c 18.8898,-44.77402 50.4679,-80.70833 93.1555,-106.00622 12.878,-7.63191 23.4146,-15.0084 23.4146,-16.3922 0,-5.62822 -11.631,-6.33039 -27.6623,-1.66998 -52.8857,15.3743 -99.4315,73.03359 -104.0253,128.86291 -2.0547,24.97102 3.2724,23.28151 15.1175,-4.79451 z M 883.32561,571.59401 c 3.82947,-6.19618 27.18049,-16.10178 37.79068,-16.03094 5.84368,0.039 16.96021,2.94565 24.70338,6.45921 7.7432,3.51355 14.83222,6.38828 15.7534,6.38828 0.92118,0 0.78531,-5.56324 -0.302,-12.36276 -1.70446,-10.65908 -0.75996,-13.49759 6.85387,-20.59782 13.31963,-12.42119 21.26824,-15.48557 40.10706,-15.46222 11.6976,0.0145 20.2549,2.06581 26.8565,6.43793 12.8234,8.49257 17.809,8.12219 25.8146,-1.91772 4.5584,-5.71683 12.2887,-9.64021 24.3433,-12.35516 11.2696,-2.53812 17.6639,-5.64354 17.6639,-8.5785 0,-3.63669 -5.0736,-4.44714 -24.2221,-3.86923 -37.4948,1.13162 -42.0739,1.06195 -65.7824,-1.00084 -27.35456,-2.38003 -43.77704,3.14475 -63.51613,21.36779 -12.04035,11.11558 -15.87422,12.81287 -28.94214,12.81287 -10.04094,0 -20.36062,2.81595 -30.95128,8.44575 -8.73837,4.64516 -21.70127,9.36846 -28.8064,10.49621 -15.40134,2.44457 -16.48248,7.93055 -3.2296,16.38784 10.73372,6.84972 22.75024,8.41968 25.86536,3.37931 z"
     id="path16"
     transform="scale(0.75)" />
  <path
     style="fill:#ffffff;stroke-width:3.22961"
     d="m 1138.9775,2168.831 c -12.1361,-4.2827 -30.3027,-12.7761 -40.3701,-18.8742 -10.0674,-6.0981 -26.5656,-16.1453 -36.6627,-22.327 -16.5661,-10.1422 -21.4533,-11.4488 -50.0589,-13.3827 -94.50417,-6.3892 -143.48893,-40.6017 -170.66424,-119.1972 -3.91869,-11.3334 -8.85441,-17.8402 -18.76151,-24.7334 -21.76082,-15.1407 -64.31972,-59.2967 -82.50143,-85.5974 -9.27813,-13.4213 -22.48472,-35.68 -29.348,-49.4638 -12.00786,-24.1159 -24.74221,-61.2409 -21.96055,-64.0226 0.73792,-0.7379 5.8481,-2.2429 11.35596,-3.3445 9.14604,-1.8292 10.56587,-0.9221 16.37627,10.4626 8.08067,15.8329 14.70062,21.7419 33.27929,29.7051 12.88609,5.5232 15.22866,8.0091 17.13793,18.1863 2.68707,14.3233 21.34372,35.854 36.58691,42.223 6.07834,2.5397 15.57542,8.4242 21.10463,13.0767 8.94406,7.526 12.16891,8.3061 29.23243,7.0718 17.49155,-1.2652 20.25657,-2.5421 31.42073,-14.5107 13.70761,-14.6953 20.72372,-35.1684 17.93705,-52.3407 -2.3648,-14.5726 4.73846,-22.8721 19.57536,-22.8721 28.26391,0 54.20811,-21.4423 62.22809,-51.4301 1.35311,-5.0594 7.81358,-10.941 18.08058,-16.4605 17.9001,-9.6229 33.5293,-31.156 36.6842,-50.5415 1.044,-6.4152 4.0782,-12.65 6.7427,-13.8551 34.5414,-15.6234 58.1329,-36.7468 58.1329,-52.0513 0,-9.6389 -11.5023,-7.5793 -19.3688,3.4682 -10.4896,14.7312 -31.799,25.8493 -49.5441,25.8493 h -15.0569 v 15.9378 c 0,19.7743 -3.2916,28.6738 -15.929,43.067 -6.62874,7.5498 -14.70805,12.4884 -24.4384,14.9385 -13.21851,3.3285 -14.53587,4.5457 -14.53587,13.4312 0,12.88 -10.49803,33.0217 -20.69276,39.7016 -4.88701,3.2021 -14.73955,5.3377 -24.62496,5.3377 -14.83656,0 -17.60834,1.1979 -27.81701,12.0223 -10.16472,10.7777 -11.27093,13.7031 -10.68602,28.259 1.07895,26.8502 0.28981,29.8448 -11.02655,41.8437 -14.45423,15.3259 -25.88554,15.3856 -44.02573,0.2299 -7.44126,-6.217 -15.30013,-11.3036 -17.46417,-11.3036 -9.30042,0 -21.26473,-18.2867 -25.44541,-38.8916 l -4.23162,-20.8561 h -13.83123 c -11.5406,0 -15.39253,-1.7467 -23.25868,-10.5472 -7.58176,-8.4822 -9.43609,-13.5405 -9.47155,-25.8368 -0.0521,-18.0517 -2.77581,-29.8229 -6.90071,-29.8229 -1.62901,0 -5.96881,5.0964 -9.64398,11.3254 -3.67518,6.2289 -10.03075,12.1658 -14.1235,13.193 -7.79927,1.9575 -20.31315,-3.1528 -25.80581,-10.5385 -1.77628,-2.3884 -8.31623,-6.8743 -14.53322,-9.9686 -27.92887,-13.9008 -40.06491,-70.7802 -26.02282,-121.9641 l 7.01607,-25.5738 -8.0244,-5.8454 c -17.15539,-12.4968 -13.21272,-46.1453 7.87821,-67.2363 11.45694,-11.4569 12.03155,-13.0801 13.22701,-37.3649 2.06754,-42.0004 22.48519,-76.2136 59.74862,-100.1191 12.73062,-8.167 17.22282,-13.2063 18.96437,-21.2738 7.2305,-33.4946 49.38824,-73.5491 77.41114,-73.5491 6.07919,0 9.85045,-2.7951 13.85448,-10.2686 14.81145,-27.6454 50.05626,-54.2094 72.03399,-54.2919 14.27689,-0.054 27.20978,6.1931 32.95391,15.9172 4.7505,8.0419 4.97924,11.5469 1.68489,25.8188 -4.91556,21.2953 -2.18741,23.9916 18.09805,17.8866 22.58534,-6.7972 32.22093,-5.9461 43.89498,3.8769 10.08318,8.4845 10.21718,8.9673 8.06478,29.0665 -2.4672,23.0377 -1.3033,24.0021 18.8196,15.5942 17.8592,-7.462 55.31,-6.4257 68.7869,1.9035 13.5528,8.3761 17.2958,15.1517 17.2958,31.3091 0,8.702 -3.0027,17.076 -9.6301,26.8565 -5.2965,7.8165 -9.6565,15.999 -9.6888,18.1832 -0.032,2.1843 5.7313,6.9252 12.808,10.5355 21.6396,11.0397 21.5633,31.8406 -0.1905,51.9236 -12.6518,11.6801 -16.6075,22.3837 -8.2722,22.3837 2.4222,0 8.2355,3.8315 12.9184,8.5144 10.5934,10.5934 11.3038,26.9412 1.7536,40.3531 -7.7324,10.8593 -6.1429,18.7182 4.3403,21.4596 3.9797,1.0408 18.6513,7.6059 32.6036,14.5892 59.8565,29.9592 107.1321,94.7485 128.508,176.1152 8.3228,31.6802 12.1191,103.8189 6.0595,115.1415 -8.0968,15.1288 -6.1825,16.5924 46.7885,35.7733 74.9524,27.1404 151.3229,71.2487 166.5226,96.1764 19.4725,31.9351 -9.8876,61.7907 -52.7681,53.6586 -12.7642,-2.4206 -19.8796,-6.7281 -36.9449,-22.3654 -22.965,-21.0432 -54.684,-38.8271 -69.2514,-38.8271 -12.9233,0 -11.4081,4.9801 4.5529,14.964 36.9477,23.1116 67.4708,59.1822 71.8091,84.8602 3.3802,20.0075 -7.1864,40.7499 -24.8405,48.7623 -26.7983,12.1625 -59.8732,6.6379 -97.3987,-16.2688 -12.2753,-7.4932 -19.4908,-15.1537 -27.7707,-29.4835 -12.6722,-21.9312 -32.514,-41.4717 -42.1113,-41.4717 -8.8808,0 -8.092,4.7864 3.0916,18.7597 12.7833,15.972 22.6463,39.1201 24.9477,58.5511 1.5907,13.431 0.5565,18.214 -6.5662,30.3679 -16.5578,28.2539 -54.971,35.9489 -100.0476,20.0417 z M 779.65722,1511.9286 c 0.93693,-1.516 0.0822,-7.0516 -1.89937,-12.3014 -6.19328,-16.4079 -0.81403,-32.3028 16.94074,-50.0576 24.16235,-24.1623 21.62616,-28.6091 -6.60907,-11.5878 -12.23292,7.3745 -19.63457,14.7296 -24.88658,24.73 -8.82686,16.8074 -9.7886,37.6047 -2.13031,46.067 5.58605,6.1726 15.66111,7.8801 18.58459,3.1498 z"
     id="path17"
     transform="scale(0.75)" />
  <path
     style="fill:#ffffff;stroke-width:3.22961"
     d="m 171.89902,1588.9527 c -3.82099,-3.5597 -8.51101,-12.2797 -10.42228,-19.3776 -1.97465,-7.3332 -5.44732,-12.9053 -8.043,-12.9053 -9.92773,0 -20.9698,-7.9045 -26.07717,-18.6675 -7.7034,-16.2337 -4.633,-36.4909 8.25002,-54.4302 10.59779,-14.7572 17.02349,-39.9385 10.19141,-39.9385 -1.98788,0 -7.17307,5.6374 -11.52264,12.5276 -16.17514,25.6231 -43.805931,33.8079 -58.558633,17.3463 -4.377679,-4.8848 -11.063282,-12.1345 -14.856896,-16.1105 -10.413399,-10.9139 -11.409111,-33.6443 -2.512804,-57.363 5.41413,-14.4348 12.080464,-24.0242 26.134213,-37.5936 19.90382,-19.2178 21.55708,-23.1692 13.919015,-33.2676 -6.627367,-8.7622 -5.90275,-16.9384 3.241995,-36.5809 6.11147,-13.1271 11.63675,-19.3231 24.19049,-27.1269 11.14327,-6.9271 16.27557,-12.2516 16.28791,-16.8978 0.0402,-15.1256 7.6482,-32.4597 20.24467,-46.1253 17.01242,-18.4563 27.82449,-23.9091 53.92533,-27.1961 11.59694,-1.4605 23.992,-3.0735 27.54456,-3.5846 5.61072,-0.8072 6.33479,0.6617 5.51203,11.1818 -1.08351,13.854 4.3729,16.1411 13.76056,5.7679 3.15726,-3.4888 12.03975,-8.7489 19.73887,-11.6892 17.77156,-6.787 34.29653,-4.0391 43.11299,7.1692 6.06056,7.7048 6.17625,9.0698 1.68063,19.8294 -2.65539,6.3552 -3.67539,12.7076 -2.26666,14.1163 1.40873,1.4087 10.52535,0.442 20.25916,-2.1483 9.7338,-2.5903 20.60447,-4.7187 24.15703,-4.7299 13.18228,-0.042 31.18359,7.0412 41.97309,16.5146 14.46624,12.7015 17.51415,27.782 9.93052,49.1342 -6.21709,17.5047 -5.48265,19.0358 11.7754,24.5492 17.74309,5.6684 28.36475,19.9217 28.36475,38.0629 0,13.0443 -1.51875,16.2302 -12.8962,27.0534 -13.71246,13.0443 -28.9382,17.9278 -45.54215,14.607 -6.89696,-1.3794 -14.32421,0.3567 -25.28291,5.9099 -13.60187,6.8926 -15.76451,9.4103 -17.52152,20.398 -5.58983,34.9569 -40.53662,56.1327 -78.77601,47.734 -12.51797,-2.7495 -14.21951,0.1342 -9.96637,16.8903 4.62184,18.2086 1.06414,34.1375 -10.58888,47.4096 -7.68359,8.7511 -12.53442,11.2629 -23.25535,12.0419 -13.49243,0.9804 -13.54802,1.0376 -13.89919,14.293 -0.51515,19.4448 -3.47085,28.5821 -12.85199,39.731 -10.2516,12.1833 -28.29131,13.7718 -39.35399,3.4653 z"
     id="path18"
     transform="scale(0.75)" />
  <path
     style="fill:#ffffff;stroke-width:3.22961"
     d="m 2234.0795,1491.819 c -10.8968,-6.3468 -16.2804,-22.1601 -14.2284,-41.7929 2.0435,-19.5504 -0.84,-25.7701 -11.947,-25.7701 -3.4723,0 -11.7588,-5.7244 -18.4144,-12.7209 -15.5983,-16.3972 -18.6568,-32.307 -10.9319,-56.8663 4.5849,-14.5767 4.9433,-20.0408 1.957,-29.8393 -2.0106,-6.5972 -4.0427,-15.5875 -4.5156,-19.9786 -0.6717,-6.2364 -3.9659,-9.0637 -15.0519,-12.9184 -17.1279,-5.9556 -25.4114,-16.2297 -28.7192,-35.6208 l -2.4783,-14.5284 -16.3462,-2.0059 c -35.1565,-4.3142 -52.6184,-29.7876 -50.2661,-73.3278 0.4664,-8.6315 5.0998,-15.2932 23.5859,-33.9109 42.5702,-42.8731 72.4499,-92.6231 82.0241,-136.57092 3.0519,-14.00924 6.4669,-26.49035 7.5889,-27.7358 3.3921,-3.76538 27.2268,8.83846 37.5581,19.86079 9.1024,9.71113 9.6546,11.77809 9.1234,34.14753 l -0.5654,23.8107 11.8691,3.8899 c 23.4795,7.695 42.8203,23.455 52.9398,43.1382 5.4036,10.5106 6.2254,16.4478 4.6346,33.4833 l -1.9336,20.7072 20.3878,19.8052 c 28.4268,27.6145 36.9044,52.983 26.2372,78.5133 -4.6011,11.012 -5.2084,11.371 -10.7506,6.3554 -5.9854,-5.4167 -16.7084,-7.2836 -16.6203,-2.8936 0.027,1.3322 2.143,8.2355 4.7027,15.3406 9.4504,26.2321 2.6783,50.0975 -16.4883,58.1059 -10.378,4.3362 -10.8702,5.3075 -10.8702,21.4498 0,10.283 2.52,22.1137 6.4316,30.1939 10.1884,21.0465 11.5536,40.1866 4.0727,57.0984 -4.9654,11.2251 -8.7401,15.1106 -16.9739,17.472 -9.228,2.6466 -11.1104,5.0919 -14.6496,19.0309 -3.8424,15.1328 -13.9097,27.6845 -22.0309,27.4677 -2.0236,-0.054 -6.2226,-1.5796 -9.3311,-3.3901 z"
     id="path19"
     transform="scale(0.75)" />
  <path
     style="fill:#ffffff;stroke-width:3.22961"
     d="m 1633.0824,1902.2608 c -15.7023,-1.5166 -29.1519,-3.3596 -29.8879,-4.0957 -0.7361,-0.736 24.1029,-13.9356 55.1978,-29.3322 32.6495,-16.1665 75.7886,-40.9492 102.1041,-58.6571 25.0624,-16.8648 47.9505,-30.6496 50.8624,-30.6329 2.9118,0.017 12.9758,4.4355 22.3643,9.8196 28.9154,16.5824 33.8544,39.1025 11.7519,53.5846 -10.0408,6.579 -42.3153,13.912 -61.6563,14.0087 -15.0172,0.075 -17.7768,3.6585 -13.1614,17.0902 3.7472,10.9053 -0.7909,17.4606 -16.688,24.1055 -13.6028,5.686 -80.8828,7.973 -120.8869,4.1093 z"
     id="path20"
     transform="scale(0.75)" />
  <path
     style="fill:#ffffff;stroke-width:1.16307"
     d="m 916.19034,1095.3742 c -2.41007,-0.6398 -6.80702,-3.3588 -9.77099,-6.0422 -4.98477,-4.513 -5.43045,-5.3785 -5.94121,-11.5376 -1.07693,-12.9863 9.16186,-27.314 24.74645,-34.629 15.98394,-7.5025 33.83133,-6.3909 42.02535,2.6175 3.77073,4.1455 6.24218,9.7339 6.24218,14.1146 0,5.8627 -6.32338,17.4969 -12.43271,22.8745 -11.96857,10.5352 -31.73845,16.0879 -44.86907,12.6022 z"
     id="path21"
     transform="scale(0.75)" />
  <path
     style="fill:#ffffff;stroke-width:1.16307"
     d="m 679.22712,1159.6602 c -4.94301,-1.5036 -9.74607,-4.3658 -12.78628,-7.6196 -2.54178,-2.7203 -2.90768,-4.1612 -2.90768,-11.4504 0,-6.4215 0.63351,-9.6253 2.75556,-13.9353 3.76076,-7.6383 12.94494,-16.3644 21.82398,-20.7355 6.31502,-3.1089 8.70122,-3.6415 16.54168,-3.692 21.85883,-0.1407 33.58362,14.1295 25.36916,30.8769 -3.72247,7.5892 -12.39993,16.5326 -19.5736,20.1734 -6.32606,3.2107 -21.14355,7.5136 -25.37655,7.3692 -1.61209,-0.055 -4.24291,-0.499 -5.84627,-0.9867 z"
     id="path22"
     transform="scale(0.75)" />
  <path
     style="fill:#ffffff;stroke-width:0.40622"
     d="m 2058.7796,678.38284 c -4.8232,-2.28173 -12.5052,-7.6347 -16.0645,-11.19394 -2.8517,-2.85171 -2.699,-4.02091 2.1707,-16.62702 3.8177,-9.88256 5.7191,-20.139 5.707,-30.78516 -0.014,-12.6261 -2.3913,-22.99198 -7.7064,-33.60617 -5.4981,-10.97952 -13.1297,-19.67472 -25.1435,-28.64739 -4.1659,-3.11131 -6.5146,-5.12757 -6.5269,-5.60284 -0.01,-0.40835 1.6916,-4.42993 3.7824,-8.93685 2.0907,-4.50691 4.5801,-9.9804 5.5318,-12.16331 1.9205,-4.40506 3.4695,-6.3897 4.9869,-6.3897 3.9854,0 18.9294,12.73974 28.4103,24.21971 17.9474,21.73179 27.5086,48.57858 26.6016,74.69494 -0.3535,10.17917 -2.5492,23.42791 -5.213,31.45526 -3.805,11.46627 -10.9426,24.80704 -13.2716,24.80594 -0.3736,-1.7e-4 -1.8428,-0.55074 -3.2648,-1.22347 z"
     id="path23"
     transform="scale(0.75)" />
  <path
     style="fill:#ffffff;stroke-width:0.40622"
     d="m 1979.2534,617.51178 c -2.7511,-1.02343 -6.3003,-3.48235 -9.1936,-6.36937 -3.0615,-3.05487 -3.2038,-3.71591 -1.3886,-6.44984 4.1925,-6.31434 17.6252,-21.11039 19.6197,-21.61098 1.9455,-0.48829 5.467,2.6271 7.4086,6.55418 1.8824,3.80742 2.6244,7.166 2.646,11.97656 0.017,3.74646 -0.1072,4.53709 -1.0201,6.49952 -1.2959,2.78598 -5.4929,7.10996 -8.4355,8.69079 -2.8865,1.55074 -6.6331,1.82645 -9.6365,0.70914 z"
     id="path24"
     transform="scale(0.75)" />
  <path
     style="fill:#ffffff;stroke-width:0.398171"
     d="m 1377.4541,770.67203 c -28.6923,-2.9731 -54.8837,-13.1004 -78.5422,-30.36955 -6.704,-4.89345 -11.0683,-8.66164 -17.6198,-15.21316 -19.1946,-19.19459 -32.3015,-41.5803 -36.7688,-62.79887 -1.8122,-8.60719 -2.3596,-14.28 -2.376,-24.62031 -0.031,-19.75404 3.6916,-36.91307 11.4899,-52.95668 5.0937,-10.47933 15.0316,-23.85062 25.4596,-34.25541 6.359,-6.34482 8.509,-7.85357 12.185,-8.55071 2.3732,-0.45008 7.5351,0.18769 12.9258,1.59702 1.752,0.45802 8.1111,2.08781 14.1314,3.62177 11.4395,2.91477 17.449,5.02303 35.5731,12.47984 9.4247,3.8776 14.6702,6.36643 15.6125,7.40767 1.2103,1.33736 0.4386,2.52396 -3.9025,6.00038 -4.8059,3.84865 -5.4509,4.56249 -5.4626,6.04582 -0.012,1.45028 1.1455,1.93779 7.1582,3.01597 15.2462,2.73395 25.8147,10.80868 27.4834,20.99846 0.5013,3.06078 0.4938,8.64421 -0.015,11.34809 -0.6294,3.34358 -2.1768,6.03918 -5.4966,9.57546 -6.4258,6.84473 -14.2573,10.30019 -23.3007,10.28096 -8.6145,-0.0183 -15.8497,-3.59891 -22.1119,-10.94278 -1.8996,-2.2277 -4.8291,-7.14525 -4.8291,-8.10624 0,-0.23351 -0.3734,-1.42245 -0.8297,-2.6421 -0.9773,-2.61194 -2.1713,-3.57795 -3.9417,-3.18909 -5.4861,1.20496 -8.0856,10.87718 -8.0796,30.06334 0,12.14694 0.816,18.56893 3.374,26.67742 2.9738,9.42674 10.0041,20.61135 18.3015,29.11617 22.0287,22.5794 57.6793,30.86547 88.8146,20.64269 16.6222,-5.45766 32.8204,-17.73939 43.9727,-33.3409 3.3455,-4.6802 5.7973,-9.74816 8.0881,-16.71862 2.339,-7.11674 3.594,-12.62276 5.1502,-22.59414 1.3599,-8.71384 1.8093,-10.8892 2.3644,-11.44428 0.6492,-0.64919 5.4836,1.03893 14.7951,5.16625 4.7084,2.08698 11.338,4.95224 14.7324,6.36724 7.8411,3.26866 12.2348,5.54682 13.0257,6.75378 0.5462,0.83369 0.5642,1.54205 0.1475,5.81295 -0.582,5.96537 -2.4913,15.7069 -3.8741,19.76537 -9.4467,27.72728 -28.8158,53.09072 -53.297,69.7913 -9.8013,6.68624 -25.4341,14.86806 -29.9501,15.67515 -0.8279,0.14797 -2.8492,0.89165 -4.4916,1.65263 -7.8604,3.64186 -15.5602,5.44313 -31.2564,7.31202 -9.1819,1.09326 -30.5672,1.41154 -38.6395,0.57509 z"
     id="path25"
     transform="scale(0.75)" />
  <path
     style="fill:#ffffff;stroke-width:1.03279"
     d="m 1260.5141,420.35496 c -24.325,-13.17117 -44.8491,-19.70048 -77.7265,-24.72699 -7.5316,-1.15148 -14.9775,-2.75739 -16.5463,-3.56868 -1.9154,-0.99048 -4.6704,-4.81455 -8.3862,-11.64046 -3.0436,-5.59097 -10.6282,-18.61303 -16.8547,-28.93791 -8.0463,-13.34249 -11.136,-19.35506 -10.6817,-20.78654 0.3516,-1.10773 3.0319,-4.74369 5.9562,-8.07992 7.5631,-8.62828 12.6558,-16.88268 16.3896,-26.56471 3.4332,-8.90268 13.1835,-42.44135 18.3607,-63.15673 8.0278,-32.12113 19.9071,-53.92766 33.8187,-62.08043 18.5951,-10.89743 44.7621,5.71839 65.9672,41.88849 15.3137,26.12107 42.8914,94.266 42.8914,105.9854 0,1.26136 -1.3619,5.49381 -3.0264,9.40545 -4.0548,9.52865 -9.6742,28.23672 -14.5255,48.3582 -4.4265,18.3598 -7.8627,28.63349 -13.004,38.88042 -3.2498,6.47707 -7.5477,11.23052 -10.1202,11.19274 -0.6334,-0.009 -6.264,-2.78505 -12.5123,-6.16833 z"
     id="path26"
     transform="scale(0.75)" />
  <path
     style="fill:#ffd42a;stroke-width:0.634524"
     d="m 1475.3718,391.54498 c -5.0112,-1.86012 -8.632,-4.17048 -10.7452,-6.85628 -1.0334,-1.31332 -4.6632,-6.95643 -8.0663,-12.54025 -13.878,-22.77098 -25.9015,-38.61741 -39.9683,-52.67674 -14.6626,-14.6548 -25.653,-21.93174 -39.3572,-26.05909 -4.9608,-1.49408 -6.8772,-1.72839 -14.594,-1.78434 -4.8859,-0.0354 -11.35,0.18943 -14.3648,0.49967 l -5.4814,0.56407 -0.9847,-3.41943 c -0.5415,-1.88068 -2.1605,-8.13077 -3.5978,-13.88908 -4.0819,-16.35426 -10.6744,-40.77992 -13.0604,-48.39005 -2.1899,-6.98476 -2.701,-10.85134 -1.53,-11.57509 1.0097,-0.624 8.777,4.34351 53.5235,34.23021 23.0825,15.41708 43.5233,28.79933 45.4241,29.73835 4.6964,2.32019 8.385,2.28976 12.1536,-0.10026 4.3304,-2.74625 7.6676,-7.38203 9.4332,-13.10376 0.4307,-1.39595 2.5892,-7.24944 4.7965,-13.00775 2.2073,-5.7583 6.3485,-16.8942 9.2027,-24.74644 2.8542,-7.85224 7.3262,-19.70198 9.9379,-26.33276 2.6117,-6.63077 6.5459,-16.91007 8.7427,-22.84287 2.1969,-5.9328 5.5609,-14.50309 7.4756,-19.0451 1.9148,-4.542 3.6913,-9.25334 3.948,-10.46965 0.2566,-1.2163 1.607,-4.63851 3.001,-7.60491 1.394,-2.96641 3.3979,-7.96328 4.4532,-11.10418 1.7928,-5.33605 8.7736,-23.77239 13.094,-34.581569 1.0462,-2.617412 2.361,-6.078943 2.9218,-7.692292 0.5608,-1.613349 1.9526,-4.012693 3.093,-5.331876 2.067,-2.391251 2.0784,-2.395157 3.7655,-1.289744 0.9307,0.609825 4.4722,4.579617 7.8699,8.82176 3.3978,4.242143 13.4873,16.564601 22.4212,27.383241 27.1086,32.82756 64.7271,78.87567 70.7571,86.61255 7.8383,10.05687 23.0177,28.50005 28.2903,34.37299 4.9713,5.53735 7.0027,6.52027 12.6332,6.113 5.1849,-0.37505 7.4874,-2.12701 16.2827,-12.38931 4.1215,-4.80903 15.2109,-17.30977 24.6431,-27.77941 9.4322,-10.46965 21.6104,-24.03261 27.0626,-30.13991 5.4523,-6.10729 11.5491,-12.67462 13.5484,-14.59405 l 3.6351,-3.48989 -0.3841,11.42144 c -0.4214,12.52932 -1.6907,29.2659 -7.3868,97.39947 -2.0861,24.95266 -4.6621,57.93206 -5.7244,73.28755 -1.8668,26.98321 -2.8917,38.71379 -3.4631,39.63843 -0.34,0.55017 -1.2925,0.43199 -18.0959,-2.24546 -22.4018,-3.56949 -22.2194,-3.55866 -65.4992,-3.88935 -44.0009,-0.33619 -62.5793,0.22049 -77.2688,2.31528 -25.2343,3.59856 -49.7831,8.45112 -69.2133,13.68142 -15.7127,4.22963 -18.7161,4.60195 -23.3242,2.89146 z m 112.7833,-29.57415 c 12.4121,-2.92576 23.5587,-14.68477 28.9898,-30.58264 3.1848,-9.32226 4.2528,-17.09411 3.8596,-28.08561 -0.8734,-24.41381 -7.8835,-42.25796 -22.3207,-56.81688 -9.3526,-9.43143 -16.7026,-12.98079 -26.8805,-12.98079 -10.2807,0 -17.3095,3.16123 -24.8333,11.16877 -8.9018,9.47432 -14.3076,22.03071 -15.9192,36.97708 -1.9669,18.24128 3.3886,43.39511 12.0475,56.58483 4.9375,7.52104 16.2681,17.79887 24.0053,21.77497 5.5912,2.87329 13.897,3.6467 21.0515,1.96027 z"
     id="path27"
     transform="scale(0.75)" />
  <path
     style="fill:#ffd42a;stroke-width:0.634524"
     d="m 1735.1815,431.70569 c -2.4017,-0.515 -7.8269,-2.03308 -12.056,-3.37351 -10.2975,-3.26385 -17.3179,-4.71451 -32.4326,-6.70177 -6.978,-0.91746 -15.4014,-2.23753 -18.7185,-2.93348 -8.7449,-1.83474 -32.9414,-2.64862 -64.09,-2.15575 -30.1526,0.47711 -33.1253,0.73034 -53.0661,4.52059 -8.3299,1.5833 -17.2868,3.03549 -19.9042,3.22709 l -4.7589,0.34837 -10.4697,-7.06768 c -5.7583,-3.88722 -11.469,-7.88816 -12.6905,-8.89098 l -2.2208,-1.8233 1.9036,-0.75275 c 6.7755,-2.67932 36.8967,-9.0224 55.5208,-11.69192 32.8928,-4.71472 72.8669,-5.68075 108.1864,-2.61448 48.8575,4.24159 72.4748,11.32653 78.1118,23.43272 2.6723,5.73918 1.5127,12.10259 -2.8791,15.79799 -2.3394,1.96847 -3.9374,2.07242 -10.4362,0.67886 z"
     id="path28"
     transform="scale(0.75)" />
  <path
     style="fill:#ffd42a;stroke-width:0.450677"
     d="m 1475.1806,391.23469 c -3.5855,-1.33432 -7.3424,-3.63288 -9.3515,-5.72132 -0.9928,-1.03204 -4.63,-6.41379 -8.0826,-11.95944 -10.7742,-17.3054 -19.3338,-29.61292 -27.0724,-38.92631 -8.36,-10.06129 -20.2369,-21.95661 -27.9421,-27.98544 -9.0156,-7.05406 -19.527,-12.22579 -29.2245,-14.37884 -3.0798,-0.68378 -5.1146,-0.74949 -15.7737,-0.5094 -6.7308,0.1516 -12.837,0.32839 -13.5694,0.39285 l -1.3316,0.1172 -3.0835,-11.94294 c -5.6231,-21.77938 -9.8205,-37.50425 -12.932,-48.44777 -3.327,-11.7017 -3.8583,-14.11838 -3.4126,-15.52263 0.2859,-0.90079 0.3212,-0.89779 2.5138,0.21327 3.4492,1.74787 10.004,6.00333 43.238,28.07082 38.6483,25.66259 51.0077,33.73429 53.81,35.14233 3.3704,1.69345 7.1887,1.85206 10.2996,0.42783 5.5134,-2.52409 8.4218,-6.61954 12.3997,-17.46025 6.4457,-17.56613 18.8364,-50.66656 22.8595,-61.06672 2.3971,-6.19681 6.0834,-15.83003 8.1918,-21.40716 2.1084,-5.57712 5.3185,-13.79071 7.1336,-18.25241 1.8151,-4.4617 3.7541,-9.53182 4.309,-11.26692 0.5548,-1.73511 2.0928,-5.65093 3.4178,-8.70181 1.3249,-3.05089 3.4253,-8.37937 4.6675,-11.84107 4.5385,-12.64756 15.3451,-40.658915 16.7602,-43.443101 0.9904,-1.948629 2.8272,-4.309353 3.7879,-4.868306 1.0076,-0.586221 3.85,2.398958 13.4228,14.097034 4.9695,6.072873 16.96,20.674803 26.6456,32.448743 27.4446,33.3623 50.7612,61.94863 63.7781,78.19245 6.5548,8.17978 14.9644,18.52121 18.6879,22.98095 12.919,15.47343 13.9051,16.24149 20.431,15.91322 6.4598,-0.32494 7.1076,-0.82057 19.6169,-15.00766 22.7679,-25.82186 59.7607,-66.82151 63.8418,-70.75692 l 2.3368,-2.25338 -0.2933,7.66151 c -0.5447,14.22486 -2.1087,35.66501 -6.0983,83.60057 -2.7139,32.60775 -5.714,70.53747 -6.9867,88.33268 -2.1962,30.70618 -3.1182,40.93112 -3.7475,41.56044 -0.1846,0.1846 -7.5289,-0.76892 -16.3206,-2.11892 -8.7917,-1.35 -17.9116,-2.66422 -20.2664,-2.92049 -12.0604,-1.31253 -89.0202,-1.64092 -107.2611,-0.45769 -22.277,1.44503 -57.3634,7.80085 -89.6847,16.24615 -10.6258,2.77643 -15.8472,3.25815 -19.7148,1.81885 z m 113.2303,-29.17097 c 12.5304,-3.01775 23.8313,-15.1964 29.2223,-31.49219 2.5152,-7.60304 3.0635,-11.10711 3.3144,-21.18181 0.6751,-27.11685 -6.2732,-46.96346 -22.0377,-62.94699 -10.0068,-10.14581 -17.1216,-13.31796 -28.917,-12.89268 -9.4585,0.34103 -14.5208,2.54848 -21.4761,9.36482 -9.6805,9.48708 -15.3639,21.41911 -17.3451,36.41524 -2.6527,20.07913 3.2103,47.50782 12.991,60.77535 6.4782,8.78779 18.5057,18.72408 25.691,21.22419 5.4551,1.89807 12.5574,2.17902 18.5572,0.73407 z"
     id="path29"
     transform="scale(0.75)" />
  <path
     style="fill:#ffff00;fill-opacity:1;stroke-width:0.325989"
     d="m 1478.3174,392.15912 c -2.163,-0.36521 -6.8606,-2.35156 -9.2632,-3.91695 -3.6455,-2.37514 -4.5008,-3.5315 -14.3378,-19.3851 -13.2497,-21.3537 -24.3742,-35.7956 -38.2934,-49.713 -15.1831,-15.18108 -27.739,-23.15144 -41.8885,-26.59037 -1.7929,-0.43576 -3.6633,-0.79248 -4.1563,-0.79272 l -0.8965,-4.2e-4 V 268.28523 244.8099 l 1.292,0.8156 c 0.7106,0.44857 8.3021,5.47819 16.8699,11.17693 19.7088,13.10882 31.6461,20.88296 34.3397,22.36352 6.1849,3.39967 11.06,2.58964 16.2822,-2.70542 2.7125,-2.75034 4.4916,-5.78576 6.1269,-10.45314 0.534,-1.524 2.7334,-7.46515 4.8877,-13.20257 2.1542,-5.73741 6.0021,-16.07943 8.5507,-22.98226 2.5487,-6.90282 7.198,-19.22522 10.3317,-27.38311 3.1338,-8.15789 6.944,-18.13316 8.4671,-22.16728 1.5231,-4.03412 4.6506,-12.03661 6.9499,-17.7833 2.2993,-5.7467 4.4312,-11.32112 4.7375,-12.3876 0.3063,-1.06649 1.7223,-4.65293 3.1466,-7.96987 1.4243,-3.31694 3.5439,-8.67132 4.7101,-11.89861 3.0507,-8.44207 4.8632,-13.27626 8.4333,-22.49328 1.7362,-4.48235 3.2332,-8.406449 3.3265,-8.720213 0.1577,-0.530071 1.0272,-0.570349 12.2748,-0.568604 l 12.1051,0.0019 17.6035,21.405577 c 37.6847,45.82429 59.1847,72.17639 72.5623,88.9381 10.3499,12.96818 23.901,29.23529 26.9076,32.30077 3.9068,3.98319 6.4677,4.95035 11.5676,4.36869 5.1399,-0.58622 6.9609,-1.99474 16.2203,-12.54625 8.0828,-9.21064 16.2655,-18.39316 35.8764,-40.25969 19.2309,-21.44294 25.7691,-28.5886 29.7952,-32.56368 l 2.7708,-2.73564 -0.1367,3.22463 c -1.0527,24.84155 -1.1671,26.43174 -6.9632,96.78359 -3.3719,40.92845 -4.606,56.59874 -6.1996,78.72646 -2.1002,29.1607 -2.8483,38.11575 -3.4788,41.64515 -0.1728,0.96707 -0.2927,1.05927 -1.3755,1.0572 -0.6524,-0.001 -5.0002,-0.59296 -9.6619,-1.31492 -4.6616,-0.72195 -11.2629,-1.74171 -14.6695,-2.26612 -14.8067,-2.27934 -23.927,-2.62441 -70.5767,-2.67032 -48.2043,-0.0474 -54.4765,0.34174 -82.9446,5.14658 -18.0483,3.04618 -32.0502,6.00639 -49.8961,10.54874 -15.1699,3.86122 -18.3178,4.43759 -21.3971,3.91768 z m 108.7571,-29.86743 c 12.0121,-2.28072 23.0563,-12.87168 29.0884,-27.89469 1.734,-4.31831 3.4259,-10.38866 4.2172,-15.13022 0.8111,-4.86033 0.8149,-19.77062 0.01,-26.18191 -2.5531,-20.25218 -9.6635,-35.12858 -22.9292,-47.97257 -8.2901,-8.02656 -14.8388,-11.2064 -23.9065,-11.60827 -6.5842,-0.2918 -11.594,0.64011 -16.4625,3.0623 -2.9265,1.45602 -5.196,3.15554 -8.5936,6.4354 -9.3208,8.99772 -15.0952,21.13828 -17.3767,36.53423 -0.6395,4.31488 -0.5376,17.47579 0.1752,22.65626 2.2505,16.35361 7.0176,30.00534 13.4888,38.62769 5.1764,6.89708 16.3969,16.54751 22.7152,19.53651 5.3479,2.52996 12.6454,3.25136 19.577,1.93527 z"
     id="path30"
     transform="scale(0.75)" />
  <path
     style="fill:#ffff00;fill-opacity:1;stroke-width:0.325989"
     d="m 1738.1758,432.10129 c -3.377,-0.57995 -6.9184,-1.50669 -14.3436,-3.7536 -11.396,-3.44851 -17.5361,-4.71631 -33.9029,-7.00025 -4.572,-0.63801 -11.2466,-1.66265 -14.8325,-2.27698 -11.9293,-2.04371 -18.1253,-2.42707 -43.1936,-2.67246 -18.9301,-0.1853 -44.1674,0.23504 -52.6473,0.87687 -6.0754,0.45984 -10.4453,1.08819 -21.5153,3.09372 -14.5671,2.63909 -18.9597,3.34498 -23.431,3.76538 l -4.0505,0.38083 -9.2415,-6.28905 c -8.9606,-6.09787 -13.1736,-9.07134 -15.0259,-10.60492 l -0.8945,-0.74061 1.8697,-0.69953 c 6.2205,-2.32741 30.573,-7.60811 48.6548,-10.5505 24.3021,-3.95463 50.4605,-5.70754 79.2154,-5.30834 17.7649,0.24663 26.0989,0.70546 43.0306,2.36903 37.6269,3.69691 58.668,9.35718 67.2011,18.07772 3.3718,3.44588 5.0747,8.22087 4.4841,12.57311 -0.5511,4.06107 -3.5772,8.11248 -6.6344,8.88229 -1.6753,0.42186 -1.5533,0.42501 -4.7427,-0.12271 z"
     id="path31"
     transform="scale(0.75)" />
  <path
     style="fill:#aa0000;fill-opacity:1;stroke-width:0.920236"
     id="path32"
     sodipodi:type="arc"
     sodipodi:cx="1153.5377"
     sodipodi:cy="266.39023"
     sodipodi:rx="23.896936"
     sodipodi:ry="34.026245"
     sodipodi:start="0"
     sodipodi:end="6.2831282"
     sodipodi:arc-type="slice"
     d="m 1177.4347,266.39023 a 23.896936,34.026245 0 0 1 -23.8966,34.02624 23.896936,34.026245 0 0 1 -23.8973,-34.02527 23.896936,34.026245 0 0 1 23.8959,-34.02722 23.896936,34.026245 0 0 1 23.898,34.02431 l -23.897,0.002 z"
     transform="matrix(0.99940092,-0.03460933,0.11011498,0.99391886,0,0)" />
</svg>
