<?xml version="1.0" encoding="UTF-8" standalone="no"?>
<svg
   version="1.0"
   width="600.000000pt"
   height="600.000000pt"
   viewBox="0 0 600.000000 600.000000"
   preserveAspectRatio="xMidYMid meet"
   id="svg12"
   sodipodi:docname="frog7_t1.svg.svg"
   inkscape:version="1.4.3 (0d15f75, 2025-12-25)"
   xmlns:inkscape="http://www.inkscape.org/namespaces/inkscape"
   xmlns:sodipodi="http://sodipodi.sourceforge.net/DTD/sodipodi-0.dtd"
   xmlns="http://www.w3.org/2000/svg"
   xmlns:svg="http://www.w3.org/2000/svg">
  <defs
     id="defs12" />
  <sodipodi:namedview
     id="namedview12"
     pagecolor="#505050"
     bordercolor="#ffffff"
     borderopacity="1"
     inkscape:showpageshadow="0"
     inkscape:pageopacity="0"
     inkscape:pagecheckerboard="1"
     inkscape:deskcolor="#505050"
     inkscape:document-units="pt"
     inkscape:zoom="0.52798741"
     inkscape:cx="424.25254"
     inkscape:cy="57.766529"
     inkscape:window-width="1024"
     inkscape:window-height="1022"
     inkscape:window-x="0"
     inkscape:window-y="30"
     inkscape:window-maximized="0"
     inkscape:current-layer="svg12" />
  <g
     transform="translate(0.000000,600.000000) scale(0.066667,-0.066667)"
     fill="#000000"
     stroke="none"
     id="g12">
    <path
       d="M7258 8765 c-118 -73 -123 -208 -19 -455 71 -167 73 -177 73 -322 1 -346 -128 -351 -239 -10 -60 183 -196 249 -330 161 -153 -100 -92 -469 119 -721 134 -162 138 -183 62 -335 -27 -55 -55 -117 -61 -138 -7 -21 -33 -75 -60 -120 -52 -90 -98 -212 -98 -261 0 -31 -7 -32 -278 -33 -254 -1 -277 1 -277 26 0 40 -95 212 -160 290 -184 222 -506 306 -801 208 l-121 -40 -68 66 c-132 129 -139 178 -57 414 129 371 73 654 -130 654 -118 0 -191 -90 -230 -284 -46 -234 -87 -281 -169 -196 -117 120 -121 222 -19 523 111 328 114 445 12 530 -163 138 -377 -32 -505 -398 -20 -58 -27 -55 -109 46 -119 146 -202 179 -313 124 -191 -96 -127 -411 156 -775 190 -243 199 -286 55 -276 -154 11 -250 64 -418 230 -200 198 -294 228 -407 133 -123 -104 -85 -315 91 -508 84 -92 84 -100 -2 -128 -217 -71 -224 -342 -11 -428 164 -66 364 -41 727 89 330 119 562 75 788 -150 142 -140 224 -275 218 -359 l-4 -70 -263 -124 c-144 -68 -343 -162 -442 -210 -159 -75 -494 -216 -743 -310 -996 -378 -1856 -1194 -2176 -2067 -37 -101 -45 -113 -76 -109 -391 49 -622 -63 -734 -356 -115 -303 80 -741 407 -915 l86 -46 -30 -94 c-106 -336 56 -683 403 -862 238 -123 453 -171 931 -206 454 -34 527 -57 677 -210 109 -111 164 -135 302 -135 251 0 420 194 339 389 -31 73 -26 77 37 31 164 -120 357 -111 469 22 131 155 69 369 -131 458 l-74 32 141 11 c78 6 212 25 298 42 156 31 156 31 180 1 13 -16 65 -83 117 -149 93 -119 232 -260 370 -374 l74 -61 -20 -89 c-61 -269 -22 -398 142 -473 212 -96 420 32 451 277 l10 85 45 -26 c24 -15 74 -72 110 -127 113 -170 229 -229 384 -192 200 49 288 262 183 446 l-36 64 39 -15 c189 -72 382 60 382 261 0 181 -94 265 -337 302 -137 20 -402 82 -480 112 -28 11 -55 48 -98 138 -73 151 -74 155 -4 178 190 61 534 254 762 428 156 119 144 121 216 -32 72 -155 146 -281 243 -414 99 -135 96 -161 -33 -283 -203 -193 -89 -480 190 -480 134 0 276 110 276 213 0 45 59 87 122 87 107 0 179 -67 237 -218 55 -145 164 -231 294 -232 247 -1 385 233 252 429 -48 71 -37 78 41 26 95 -63 238 -68 323 -12 240 158 110 516 -187 517 -98 1 -263 44 -372 97 l-107 53 -30 116 c-17 64 -52 225 -77 357 -80 416 -159 665 -288 901 l-58 106 77 209 c170 462 151 428 306 538 557 399 668 1087 253 1576 l-81 96 45 111 c124 310 64 632 -154 829 l-61 56 42 33 c85 68 158 67 370 -2 316 -104 527 -45 549 153 12 106 -62 215 -148 216 -61 1 -63 26 -8 115 163 264 125 500 -80 500 -86 0 -148 -45 -228 -164 -102 -152 -217 -239 -346 -262 -99 -18 -55 109 103 291 277 320 331 673 115 749 -95 33 -183 -18 -283 -163 -98 -142 -93 -142 -161 -8 -131 255 -320 370 -462 282z m225 -147 c44 -41 103 -124 152 -212 119 -215 171 -221 296 -34 115 172 189 215 238 140 61 -93 -14 -288 -208 -542 -244 -319 -259 -482 -44 -467 188 14 321 100 460 296 85 121 119 146 173 129 84 -27 39 -225 -96 -423 -65 -95 -49 -145 52 -165 163 -30 201 -152 66 -209 -78 -32 -147 -26 -324 32 -238 76 -365 70 -483 -25 -57 -46 -62 -47 -121 -29 -195 59 -370 52 -528 -20 -44 -21 -81 -35 -81 -33 0 3 11 31 24 63 50 119 28 196 -98 352 -171 212 -237 433 -166 550 59 97 124 48 202 -152 121 -309 275 -362 384 -132 82 174 70 358 -39 608 -125 285 -43 445 141 273z m-3141 4 c39 -57 28 -162 -37 -343 -119 -334 -124 -483 -21 -631 162 -234 335 -161 404 171 28 137 49 188 83 207 140 75 176 -181 68 -490 -96 -274 -86 -364 59 -508 l79 -79 -79 -79 c-54 -53 -96 -115 -130 -189 -61 -132 -54 -131 -132 -29 -268 347 -617 438 -1049 274 -355 -134 -601 -137 -683 -7 -41 65 9 112 218 206 82 37 75 76 -35 192 -207 221 -245 421 -81 423 36 0 69 -26 180 -140 198 -202 344 -273 557 -272 240 2 233 125 -28 471 -206 274 -283 494 -201 577 57 56 108 32 221 -105 128 -156 181 -167 237 -47 167 360 216 431 300 431 31 0 54 -11 70 -33z m3290 -1639 c299 -135 421 -521 262 -835 -79 -155 -81 -135 23 -244 335 -350 364 -837 71 -1202 -125 -155 -248 -254 -565 -453 -270 -171 -291 -231 -43 -130 112 45 112 44 43 -156 -257 -745 -880 -1431 -1648 -1814 -255 -127 -273 -130 -307 -47 -197 477 -200 504 -91 866 71 236 39 267 -59 58 -172 -365 -169 -437 47 -970 97 -239 210 -472 243 -502 30 -27 426 -125 557 -139 177 -18 255 -80 255 -205 0 -144 -154 -202 -306 -116 -85 48 -217 91 -282 91 -77 0 -52 -52 98 -202 157 -157 175 -196 136 -293 -71 -177 -278 -162 -401 28 -133 206 -325 288 -346 148 -38 -248 -37 -242 -87 -285 -187 -159 -396 14 -319 265 12 41 22 109 22 152 l0 79 -104 85 c-347 284 -645 712 -715 1028 -13 62 -44 158 -68 214 -169 396 -155 753 46 1170 56 115 62 146 31 146 -40 0 -168 -188 -218 -322 -127 -339 -119 -639 30 -1013 27 -70 61 -174 74 -232 14 -57 56 -174 94 -260 81 -182 89 -169 -120 -206 -304 -55 -784 -23 -921 61 -3 1 46 53 107 115 381 388 367 1020 -35 1554 -360 477 -1007 687 -1375 446 -40 -26 -51 -77 -13 -63 657 253 1483 -339 1583 -1135 74 -584 -341 -987 -1098 -1067 -228 -25 -173 -76 82 -75 198 2 318 24 488 92 55 22 116 39 137 38 87 -6 317 -72 443 -127 74 -32 174 -72 222 -87 130 -43 172 -73 198 -141 67 -176 -130 -315 -300 -211 -137 83 -207 114 -330 145 -191 47 -199 27 -44 -119 130 -123 149 -157 134 -236 -10 -57 -92 -137 -155 -151 -22 -4 -49 -11 -60 -14 -67 -21 -170 28 -288 136 -175 160 -264 188 -690 217 -582 40 -877 126 -1087 317 -595 544 216 1460 1135 1282 173 -33 171 9 -4 63 -445 137 -1067 -79 -1283 -446 -48 -81 -108 -65 -256 66 -431 381 -295 990 223 990 112 0 136 -4 176 -34 76 -56 91 -42 159 140 171 457 385 776 794 1185 447 447 753 642 1411 899 396 155 585 238 980 430 423 205 392 197 427 111 39 -96 136 -201 162 -177 21 21 24 11 -56 199 -162 384 74 814 488 887 332 59 667 -196 721 -549 22 -143 79 -180 110 -73 17 58 48 65 317 65 189 0 195 -1 235 -39 65 -62 83 -42 91 102 23 412 443 669 819 500z m-210 -3636 c94 -200 148 -383 215 -722 108 -548 114 -562 266 -642 108 -57 215 -87 383 -108 159 -20 207 -42 239 -110 84 -177 -100 -302 -277 -189 -71 46 -198 88 -264 89 -64 0 -30 -126 64 -237 55 -67 71 -130 45 -191 -63 -151 -279 -141 -351 15 -18 37 -46 98 -63 135 -117 252 -434 273 -519 35 -37 -103 -92 -147 -185 -147 -190 0 -240 193 -83 321 60 50 115 139 136 222 6 27 -3 49 -37 88 -113 127 -339 515 -369 632 -8 34 9 58 148 197 171 173 394 458 494 633 80 140 84 140 158 -21z"
       id="path1" />
    <path
       d="M7298 6771 c-323 -167 -216 -655 143 -653 352 2 449 485 131 648 -69 36 -211 39 -274 5z m290 -122 c51 -44 56 -101 12 -146 -48 -48 -76 -48 -123 -1 -84 84 21 223 111 147z"
       id="path2" />
    <path
       d="M5333 6684 c-354 -154 -249 -699 135 -699 388 0 491 549 131 700 -61 25 -207 25 -266 -1z m310 -139 c42 -38 37 -133 -9 -163 -38 -25 -101 -18 -127 13 -79 95 45 232 136 150z"
       id="path3" />
    <path
       d="M7205 5676 c-14 -36 14 -128 44 -147 63 -39 111 62 64 134 -27 43 -94 50 -108 13z"
       id="path4" />
    <path
       d="M6833 5652 c-45 -65 -12 -162 55 -162 28 0 72 62 72 101 0 41 -43 94 -75 94 -16 0 -39 -15 -52 -33z"
       id="path5" />
    <path
       d="M6960 5182 c-12 -2 -73 -12 -135 -22 -301 -47 -920 -232 -952 -285 -43 -69 43 -93 168 -45 576 219 1316 309 1722 210 186 -45 273 46 92 97 -156 44 -749 74 -895 45z"
       id="path6" />
    <path
       d="M1710 8700 c0 -8 7 -15 16 -15 9 0 12 7 7 15 -6 8 -13 15 -16 15 -4 0 -7 -7 -7 -15z"
       id="path7" />
    <path
       d="M1741 8631 c1 -17 4 -21 9 -9 5 11 4 24 -1 29 -5 5 -8 -4 -8 -20z"
       id="path8" />
    <path
       d="M2160 8610 c0 -11 5 -16 10 -10 6 6 6 15 0 20 -5 6 -10 1 -10 -10z"
       id="path9" />
    <path
       d="M840 8460 c0 -11 5 -16 10 -10 6 6 6 15 0 20 -5 6 -10 1 -10 -10z"
       id="path10" />
    <path
       d="M950 8330 c6 -6 15 -6 20 0 6 6 1 10 -10 10 -11 0 -16 -4 -10 -10z"
       id="path11" />
    <path
       d="M1950 8145 c0 -11 5 -16 10 -10 6 6 6 14 0 20 -5 6 -10 1 -10 -10z"
       id="path12" />
  </g>
  <path
     style="fill:#d45500;stroke-width:0.91638"
     d="M 412.48168,208.53446 C 402.08741,195.66969 392.749,187.9814 381.10396,182.70129 c -8.52557,-3.86568 -16.02529,-5.35285 -27.07146,-5.36816 -12.58393,-0.0175 -19.89253,1.43355 -38.38503,7.62068 -23.12291,7.73636 -36.90996,9.66123 -47.23581,6.59478 -4.4993,-1.33615 -10.03331,-5.91358 -10.55525,-8.73072 -0.79115,-4.2702 1.50965,-6.30159 15.56876,-13.74571 4.28347,-2.26804 8.1841,-4.78153 8.66808,-5.58553 1.57583,-2.61786 -0.10357,-5.74378 -8.08317,-15.04542 -12.0299,-14.02299 -17.47676,-26.42681 -14.25129,-32.45366 1.21785,-2.27558 5.92685,-4.06087 8.80551,-3.33838 1.31526,0.33011 7.19956,5.23277 13.0762,10.89479 12.17305,11.72848 15.93179,14.78883 23.12307,18.82674 9.81957,5.5137 27.41603,8.18749 36.7755,5.58804 3.85495,-1.07065 7.14363,-4.68181 7.14363,-7.84411 0,-6.11298 -5.16735,-15.78647 -17.81817,-33.35633 -18.52607,-25.729571 -24.70237,-42.718716 -18.29739,-50.330602 1.69438,-2.013658 3.17131,-2.819451 5.16773,-2.819451 2.3745,0 4.46801,1.724444 13.9063,11.454754 9.48562,9.779092 11.52399,11.454754 13.93424,11.454754 1.55278,0 3.48499,-0.731222 4.29379,-1.624938 0.80879,-0.893715 5.17601,-9.071868 9.70492,-18.173672 9.86693,-19.829722 14.13545,-25.287301 19.77786,-25.287301 2.84292,0 4.11225,0.558383 5.84279,2.570248 3.43794,3.996841 2.46923,13.641946 -3.01673,30.036685 -5.98753,17.89372 -7.82275,26.233503 -7.83026,35.583204 -0.008,9.440119 1.89212,15.382439 7.08899,22.174409 5.33319,6.97013 9.49348,9.8942 14.80303,10.40438 10.16239,0.97649 15.77544,-6.54582 21.18043,-28.38486 3.18412,-12.865526 4.52415,-15.679475 8.1898,-17.197832 2.34926,-0.973095 3.13474,-0.926505 5.00153,0.296656 3.5177,2.304894 4.51595,6.941567 3.95956,18.391586 -0.49287,10.14269 -0.69544,11.02822 -7.77374,33.98349 -1.48516,4.81644 -2.28822,9.68847 -2.34124,14.20389 -0.10326,8.79483 1.85172,12.79775 10.59604,21.69594 l 6.46196,6.57565 -5.2709,5.79548 c -6.85254,7.53452 -9.79409,11.84533 -13.89136,20.35761 -1.84595,3.83504 -3.6663,6.9728 -4.04524,6.9728 -0.37893,0 -3.00017,-2.86053 -5.82496,-6.35672 z"
     id="path13"
     transform="scale(0.75)" />
  <path
     style="fill:#d45500;stroke-width:1.20653"
     d="m 627.39102,169.71479 c 0.42735,-1.10394 1.36775,-4.55431 2.08978,-7.66751 1.65915,-7.15377 -0.52657,-13.45806 -8.35094,-24.08672 -13.6152,-18.49493 -18.46827,-29.19463 -18.46827,-40.717468 0,-5.286361 0.62055,-7.820109 2.50062,-10.210242 5.0988,-6.482063 8.92508,-3.285752 16.08125,13.43357 7.71044,18.0143 13.26998,24.4094 21.22014,24.4094 5.71736,0 9.99802,-3.83152 13.96749,-12.50198 7.11931,-15.550621 6.46093,-28.586675 -2.67759,-53.016412 -4.54844,-12.159228 -5.30011,-15.41247 -4.99714,-21.627669 0.39988,-8.203183 2.12262,-10.254537 7.48213,-8.909385 5.04136,1.2653 12.82488,9.893472 21.15843,23.454512 7.80304,12.69773 10.8547,15.894042 15.17473,15.894042 2.80305,0 8.79096,-5.913821 15.52091,-15.328883 4.53116,-6.339008 10.8486,-12.4213 12.90151,-12.4213 0.61268,0 2.26069,1.146732 3.66224,2.548292 2.14271,2.142703 2.46839,3.630953 2.04626,9.350605 -0.65891,8.927795 -6.13394,19.952507 -18.34703,36.944185 -17.39637,24.203003 -21.47855,34.326693 -16.42972,40.745243 2.34661,2.98322 3.3607,3.31446 10.14711,3.31446 11.7041,0 22.57033,-4.4323 31.52219,-12.8578 2.00455,-1.88669 6.86869,-7.50239 10.80919,-12.47932 8.27154,-10.447145 9.96761,-11.974349 13.35667,-12.026928 8.66234,-0.134385 6.56084,13.670688 -5.16584,33.935258 -7.65601,13.23012 -7.21806,14.3942 7.49907,19.93205 9.95574,3.74622 11.0365,9.81733 2.65719,14.92656 -5.49576,3.35101 -11.51967,2.94127 -29.17264,-1.98432 -13.28792,-3.70764 -16.97952,-4.27693 -25.42756,-3.92122 -9.19791,0.38727 -10.35531,0.74158 -16.70023,5.11233 l -6.8174,4.69622 -8.71132,-1.91333 c -18.25158,-4.00873 -28.31222,-3.49975 -42.27121,2.13854 -6.01232,2.42848 -6.92387,2.55011 -6.26002,0.83522 z"
     id="path14"
     transform="scale(0.75)" />
  <path
     style="fill:#ffffff;stroke-width:1.91533"
     d="m 445.86738,750.7709 c -7.98784,-3.35863 -11.33362,-13.26255 -8.40694,-24.8855 1.15972,-4.60569 2.03167,-11.65538 1.93765,-15.66599 -0.15476,-6.60153 -1.46142,-8.3865 -13.79908,-18.85051 -16.86957,-14.30765 -37.0694,-39.00289 -46.3516,-56.66696 -3.85812,-7.34199 -11.77733,-27.74701 -17.59824,-45.34448 -9.80333,-29.63693 -10.58752,-33.33669 -10.6383,-50.19109 -0.0557,-18.47136 2.28495,-27.86392 14.89848,-59.78566 6.30972,-15.96836 -0.56495,-13.99666 -11.68595,3.35163 -12.18489,19.00788 -18.08858,47.86629 -14.51026,70.92907 2.03907,13.14213 17.37233,62.15098 25.04573,80.05232 2.16856,5.05903 3.94282,9.92757 3.94282,10.81899 0,1.98827 -15.52192,5.09831 -33.57625,6.72749 -14.20396,1.28174 -46.89436,-1.56833 -55.49487,-4.83824 l -5.08667,-1.93396 8.02764,-9.08699 c 24.54063,-27.77902 30.74664,-61.63074 18.1864,-99.20069 -16.13632,-48.26673 -60.01648,-85.4225 -104.48132,-88.47019 -17.36728,-1.19038 -31.32891,1.66712 -39.31092,8.0457 -7.31771,5.8477 -5.13037,7.82345 5.65476,5.10771 4.72057,-1.18865 15.31186,-2.14301 23.5362,-2.12079 66.44436,0.17951 126.11305,80.67188 105.03745,141.69429 -9.75627,28.24841 -42.28643,49.16266 -86.42397,55.56365 -28.98489,4.20348 -27.03458,8.66489 3.69471,8.45179 18.26156,-0.12664 23.58583,-0.92744 36.55158,-5.49752 14.2176,-5.01136 15.85119,-5.2004 25.857,-2.99235 16.89748,3.72889 60.14103,20.78945 63.8311,25.1828 7.12176,8.47913 2.22479,21.00665 -9.34672,23.91091 -3.7593,0.94353 -8.28659,-0.31241 -16.90184,-4.68877 -6.47195,-3.28763 -15.49633,-7.29323 -20.05421,-8.90134 -8.81446,-3.10993 -21.21274,-3.93245 -21.21274,-1.40729 0,0.83411 3.94767,5.35908 8.77263,10.0555 11.87838,11.562 14.86224,17.46455 12.00205,23.74199 -4.4704,9.81147 -18.63364,14.76531 -28.14801,9.84524 -3.15566,-1.63187 -9.88241,-6.55435 -14.94831,-10.93887 -15.00334,-12.98529 -24.0332,-15.584 -65.7837,-18.93189 -59.17224,-4.74491 -89.803561,-17.85818 -103.75675,-44.41832 -14.264701,-27.15309 5.061288,-65.99579 42.12173,-84.65912 23.73522,-11.95287 43.30771,-14.52319 77.70921,-10.20503 1.99349,0.25022 3.99093,-0.58144 4.43875,-1.84815 1.38958,-3.93047 -19.86866,-9.01584 -37.75094,-9.03072 -20.32107,-0.0169 -33.0457,2.97457 -52.96207,12.45101 -12.686091,6.03617 -17.945938,9.98492 -28.057016,21.06336 -14.621313,16.02018 -15.518413,16.05322 -30.725117,1.13131 C 37.025501,575.50418 30.95159,562.91643 30.07301,546.82771 c -0.843935,-15.45429 4.507371,-26.85593 16.603416,-35.37573 6.650157,-4.68401 10.428772,-5.82101 21.406278,-6.44129 10.303338,-0.5822 14.469019,-0.007 18.343591,2.53138 4.766009,3.1228 5.176408,3.10987 8.330198,-0.26238 1.82447,-1.95084 5.312627,-8.71839 7.751467,-15.03899 15.86512,-41.1168 36.03686,-69.71928 77.29412,-109.59906 37.30445,-36.05893 60.75291,-50.23914 127.60894,-77.17013 16.32822,-6.57734 45.20187,-19.26489 64.16367,-28.19457 51.79118,-24.38999 46.26534,-22.69156 49.97134,-15.35932 4.12538,8.16196 10.33585,14.84807 13.79182,14.84807 3.23981,0 2.65163,-3.56275 -3.2332,-19.58432 -6.15165,-16.74805 -5.46195,-30.93956 2.22531,-45.78939 16.76339,-32.38247 56.31165,-40.87626 83.46692,-17.92619 8.95599,7.56909 15.01658,17.8888 18.77778,31.97395 4.44993,16.66445 6.70664,18.77426 12.05193,11.26749 l 4.20797,-5.90955 h 20.30859 c 16.03946,0 21.02992,0.65278 23.7399,3.1053 5.71503,5.17202 8.63488,2.0591 9.95997,-10.6185 2.00951,-19.226 11.8434,-33.83888 28.79018,-42.78139 11.00177,-5.80544 31.5796,-5.84402 42.49619,-0.0797 25.55572,13.49431 35.51593,43.56924 23.26136,70.2379 -2.84185,6.18454 -5.16703,12.70031 -5.16703,14.47948 0,1.77917 4.01546,7.92379 8.92325,13.65471 4.90777,5.73092 11.5875,16.02221 14.84384,22.86952 5.32807,11.20378 5.92058,14.27059 5.92058,30.64534 0,16.51523 -0.5687,19.39631 -6.15791,31.19619 -8.55882,18.06933 -23.54639,32.96099 -53.63175,53.28865 -30.29732,20.47087 -34.10192,28.20239 -8.68351,17.64624 3.42365,-1.42183 6.22483,-2.194 6.22483,-1.71593 0,3.14854 -11.35029,31.44949 -17.72371,44.19253 -22.62898,45.24442 -64.86652,90.5637 -109.86033,117.87596 -21.43285,13.01023 -44.65395,23.81129 -46.72161,21.73206 -3.03059,-3.04754 -14.93066,-35.94627 -16.2046,-44.79902 -0.90368,-6.27959 0.0888,-13.69421 3.65662,-27.31744 2.69332,-10.28415 4.89695,-20.41148 4.89695,-22.50517 0,-7.66957 -4.24382,-3.45199 -10.79595,10.72922 -9.18008,19.8691 -11.61606,32.29325 -8.75874,44.67188 3.22676,13.97904 14.72883,44.03329 25.44733,66.49233 l 9.25816,19.39917 15.36071,4.14476 c 8.44838,2.27961 22.40019,5.38243 31.00404,6.89513 8.60385,1.51271 17.66167,4.07282 20.12851,5.68915 8.90122,5.83231 7.69939,19.81629 -2.08628,24.27494 -4.01513,1.82941 -7.19865,1.21646 -20.0423,-3.85888 -16.74407,-6.61666 -26.95481,-7.81698 -26.95481,-3.16869 0,1.57578 5.60235,8.96983 12.44967,16.43122 13.76602,15.00059 15.36727,20.53065 8.47998,29.28643 -3.08955,3.92773 -5.64433,5.04663 -11.52289,5.04663 -6.4347,0 -8.61228,-1.1785 -14.70482,-7.95821 -19.8107,-22.04506 -28.08063,-27.57178 -33.95818,-22.69385 -1.37417,1.14045 -3.42528,7.33506 -4.55803,13.76579 -1.13275,6.43072 -3.45725,13.2367 -5.1656,15.12438 -5.06623,5.59813 -12.72453,7.41021 -19.41979,4.59507 z M 548.49696,367.73911 c 41.63042,-13.45823 80.42458,-19.33033 114.2063,-17.28691 40.08783,2.42486 43.91063,2.32938 44.58547,-1.1136 0.37179,-1.89685 -1.45609,-3.92758 -4.75155,-5.27889 -15.13053,-6.20426 -70.97713,-7.91382 -98.91012,-3.02781 -17.37964,3.04003 -54.27596,13.10933 -70.96246,19.36623 -10.70589,4.01436 -15.31843,9.23836 -10.73623,12.15942 4.00087,2.55048 3.48455,2.64412 26.56859,-4.81844 z m 68.2929,-58.47075 c 2.78375,-3.076 3.13772,-4.97342 1.69379,-9.07923 -2.20409,-6.26728 -8.21211,-7.89065 -11.67517,-3.15464 -3.36277,4.59885 -3.18215,9.44153 0.48904,13.11272 3.92312,3.92313 5.2585,3.7995 9.49234,-0.87885 z m 35.01421,-6.99725 c 0.4488,-4.63285 -0.3923,-6.62367 -3.5015,-8.28765 -8.11293,-4.34191 -11.50142,0.3549 -7.62044,10.56268 2.85653,7.51324 10.32166,5.98622 11.12194,-2.27503 z M 500.9327,264.79485 c 15.55448,-7.84367 21.43283,-27.80224 13.19845,-44.81222 -5.45273,-11.26384 -13.70674,-16.00145 -27.86251,-15.99246 -20.24636,0.0129 -31.35679,11.06748 -31.36978,31.21213 -0.008,11.90979 2.70449,18.95914 9.86734,25.64684 9.77772,9.1291 23.0221,10.57405 36.1665,3.94571 z M 678.21453,251.7511 c 7.73852,-4.78266 12.26319,-14.24567 12.26319,-25.64749 0,-11.06016 -3.70822,-18.45602 -12.68771,-25.30501 -8.95366,-6.8293 -24.49851,-7.47449 -32.75262,-1.3594 -8.8402,6.54927 -13.93501,15.68944 -13.93501,24.99958 0,26.52308 24.96833,40.99796 47.11215,27.31232 z"
     id="path15"
     transform="scale(0.75)" />
  <path
     style="fill:#ffffff;stroke-width:1.91533"
     d="m 695.43149,695.62388 c -1.89185,-1.38335 -6.58156,-8.43632 -10.42158,-15.67327 -8.90843,-16.78891 -14.60177,-21.07589 -27.98989,-21.07589 -11.92235,0 -16.62637,3.30499 -22.5169,15.82015 -3.89838,8.28258 -9.43994,11.479 -17.76574,10.24744 -10.36805,-1.53367 -14.33615,-15.40372 -6.41384,-22.41891 5.71466,-5.06032 15.03284,-19.97444 15.03284,-24.06067 0,-1.85993 -4.76768,-10.38347 -10.59484,-18.94121 -5.82717,-8.55774 -14.06102,-22.45341 -18.29746,-30.87927 -8.80949,-17.5212 -9.7421,-14.27044 10.22888,-35.6542 13.71714,-14.68751 33.40362,-40.28592 40.38191,-52.50877 2.27618,-3.98686 4.98421,-6.97416 6.01783,-6.63843 3.27037,1.06221 14.11109,28.69502 18.98339,48.38835 2.58046,10.42993 6.99373,29.71767 9.80727,42.86165 2.81354,13.14398 6.38931,26.36136 7.94615,29.37196 3.89342,7.52904 22.27866,15.71321 43.47574,19.35317 9.33378,1.6028 18.25805,3.98273 19.83169,5.28874 8.0565,6.6863 6.45,19.60989 -2.7373,22.02045 -7.09991,1.86287 -10.60364,1.18034 -21.26066,-4.14163 -4.93547,-2.46471 -11.99024,-4.77128 -15.67726,-5.12572 -6.42637,-0.61778 -6.6928,-0.3944 -6.44086,5.40015 0.14455,3.32453 2.94572,9.94407 6.22484,14.7101 3.27911,4.76603 5.96202,10.7302 5.96202,13.25371 0,9.99461 -15.22445,16.6553 -23.77623,10.4021 z"
     id="path16"
     transform="scale(0.75)" />
  <path
     style="fill:#ffffff;stroke-width:0.59334"
     d="m 666.16036,223.03693 c -2.54343,-2.00444 -3.69712,-4.33932 -3.6944,-7.47683 0.006,-6.93937 7.22214,-10.53543 12.01017,-5.98513 4.64349,4.41293 4.49882,8.80616 -0.4326,13.136 -2.67496,2.34865 -5.18489,2.45244 -7.88317,0.32596 z"
     id="path17"
     transform="scale(0.75)" />
  <path
     style="fill:#ffffff;stroke-width:0.59334"
     d="m 491.20517,232.3405 c -1.20402,-0.73418 -2.22915,-2.10058 -2.90643,-3.87402 -0.90044,-2.35776 -0.94304,-3.08455 -0.30554,-5.21234 1.49942,-5.00461 6.65303,-8.06844 10.7307,-6.37942 5.66309,2.34573 6.94419,11.16551 2.20148,15.15624 -2.20814,1.85802 -6.93394,2.00852 -9.72021,0.30954 z"
     id="path18"
     transform="scale(0.75)" />
</svg>
