<?xml version="1.0" encoding="UTF-8" standalone="no"?>
<svg
   version="1.0"
   width="1103"
   height="948"
   viewBox="72 139 1103 948"
   preserveAspectRatio="xMidYMid meet"
   id="svg38"
   sodipodi:docname="frog5.svg"
   inkscape:version="1.4.3 (0d15f75, 2025-12-25)"
   xmlns:inkscape="http://www.inkscape.org/namespaces/inkscape"
   xmlns:sodipodi="http://sodipodi.sourceforge.net/DTD/sodipodi-0.dtd"
   xmlns="http://www.w3.org/2000/svg"
   xmlns:svg="http://www.w3.org/2000/svg">
  <defs
     id="defs38" />
  <sodipodi:namedview
     id="namedview38"
     pagecolor="#505050"
     bordercolor="#ffffff"
     borderopacity="1"
     inkscape:showpageshadow="0"
     inkscape:pageopacity="0"
     inkscape:pagecheckerboard="1"
     inkscape:deskcolor="#505050"
     inkscape:zoom="0.66857225"
     inkscape:cx="436.7516"
     inkscape:cy="587.07193"
     inkscape:window-width="1920"
     inkscape:window-height="1022"
     inkscape:window-x="0"
     inkscape:window-y="30"
     inkscape:window-maximized="1"
     inkscape:current-layer="svg38" />
  <metadata
     id="metadata1">
Created by potrace 1.16, written by Peter Selinger 2001-2019
</metadata>
  <g
     transform="translate(0.000000,1254.000000) scale(0.100000,-0.100000)"
     fill="#000000"
     stroke="none"
     id="g38">
    <path
       id="path1"
       d="m 5059.668,10848.32 c 0.6408,-2.208 1.3291,-4.395 2.1679,-6.484 -0.02,-0.07 -0.039,-0.13 -0.059,-0.195 2.6639,2.917 4.5245,4.952 5.8008,6.347 -2.6242,0.211 -5.2676,0.32 -7.9101,0.332 z m 70.332,-34.882 c -0.015,-0.148 -0.028,-0.282 -0.039,-0.43 0.7977,-1.08 1.2919,-2.488 2.4024,-3.242 0.7437,-0.506 1.9208,-0.703 2.6758,-0.215 0.641,0.414 1.1547,1.912 0.4687,2.246 -1.7078,0.831 -3.5639,1.35 -5.5078,1.641 z m 19.3164,-23.731 c -0.5321,-0.282 -1.0851,-0.546 -1.6406,-0.801 2.907,-6.038 5.6607,-11.641 8.2617,-16.855 -2.1556,5.973 -4.3588,11.872 -6.6211,17.656 z" />
    <path
       id="path3"
       d="m 4554.4336,10360.566 c -0.089,2.321 0.042,-4.655 0.1953,-6.972 0.029,-0.433 0.054,-0.861 0.098,-1.289 -0.053,1.618 -0.1371,4.216 -0.293,8.261 z" />
    <path
       d="M5191 10439 c-179 -30 -347 -197 -381 -378 -33 -176 20 -343 144 -458 174 -161 421 -173 608 -30 l46 36 72 -35 c182 -87 309 -243 364 -449 24 -86 31 -253 17 -356 l-13 -86 -86 -12 c-130 -18 -312 -57 -450 -96 l-122 -35 -67 55 c-120 99 -198 124 -281 90 -86 -37 -130 -117 -176 -327 -6 -26 -6 -26 -118 58 -222 167 -331 191 -428 94 -49 -49 -67 -107 -82 -267 l-11 -122 -61 31 c-92 46 -194 78 -250 78 -93 -1 -166 -52 -195 -139 -21 -63 -10 -290 24 -491 6 -34 2 -39 -87 -127 l-93 -91 -150 74 c-164 81 -233 101 -310 90 -40 -6 -58 -16 -91 -49 -25 -25 -46 -59 -53 -82 -15 -55 -13 -241 3 -350 8 -49 12 -93 10 -96 -2 -3 -29 -2 -60 3 -42 6 -69 5 -108 -6 -58 -17 -88 -43 -111 -98 -19 -46 -19 -78 -1 -146 l14 -52 -36 -16 c-51 -21 -79 -50 -98 -101 -19 -50 -16 -95 18 -209 19 -68 20 -76 6 -91 -14 -13 -25 -14 -80 -4 -174 30 -277 6 -324 -75 -23 -39 -26 -53 -22 -107 3 -37 17 -92 35 -137 17 -41 30 -76 29 -77 -1 -2 -45 -14 -97 -27 -256 -67 -473 -198 -671 -404 -398 -415 -544 -1015 -376 -1542 63 -196 172 -380 314 -530 48 -50 85 -92 83 -94 -2 -2 -41 -19 -87 -39 -223 -95 -335 -208 -349 -349 -7 -78 7 -126 50 -175 66 -75 154 -110 304 -120 l91 -6 7 -36 c10 -53 51 -118 96 -151 132 -95 338 -83 585 34 l111 53 37 -46 c50 -61 125 -116 187 -136 79 -26 211 -18 271 18 64 37 125 109 144 171 l16 51 117 0 c101 0 123 3 169 24 57 26 138 106 148 148 5 18 11 22 23 17 133 -59 408 -124 522 -124 47 0 49 -1 49 -29 0 -90 76 -232 160 -300 103 -83 206 -120 537 -195 309 -70 424 -61 532 39 l46 43 50 -25 c117 -60 267 -79 373 -48 72 22 132 70 166 135 l29 55 96 0 c82 1 104 5 153 27 31 14 77 45 101 68 l45 41 209 -11 c276 -15 628 3 889 45 l41 7 32 -56 c51 -91 158 -146 282 -146 56 0 58 -1 69 -34 17 -52 75 -112 138 -143 52 -26 66 -28 167 -28 94 1 121 5 187 28 l77 28 44 -44 c74 -75 195 -106 337 -88 111 15 484 108 567 143 151 62 268 163 328 281 18 37 37 87 40 112 l7 44 49 -39 c105 -83 224 -119 323 -99 63 14 103 37 149 88 l35 39 48 -29 c68 -40 195 -84 282 -99 167 -28 318 36 370 158 l21 49 84 0 c283 2 437 197 327 413 -43 84 -171 180 -321 242 l-77 31 67 66 c164 161 301 393 366 619 74 260 73 531 -1 796 -34 119 -136 328 -215 441 -94 132 -246 279 -378 366 -106 69 -110 73 -94 91 30 34 104 77 168 98 124 41 154 117 93 240 -24 48 -33 83 -36 133 -5 87 10 144 60 229 36 60 40 74 35 114 -6 57 -43 98 -107 119 -116 39 -183 132 -199 280 -9 73 -12 82 -45 112 -52 48 -91 47 -219 -3 -123 -49 -215 -67 -308 -60 -132 9 -224 56 -300 151 l-42 53 2 138 c5 309 -85 542 -283 739 -153 152 -305 215 -521 215 -135 0 -235 -22 -349 -79 l-78 -38 -124 84 c-156 104 -350 200 -520 255 l-130 43 -73 107 c-148 217 -240 291 -365 292 -46 0 -75 -6 -116 -26 -55 -26 -139 -98 -177 -152 l-20 -29 -115 13 -116 12 -22 122 c-80 429 -215 726 -437 956 -171 178 -368 286 -582 319 -35 6 -64 12 -66 13 -1 2 -14 30 -30 63 -59 124 -199 229 -339 254 -67 12 -89 12 -165 0z m213 -210 c57 -28 111 -85 139 -148 33 -71 30 -179 -6 -253 -140 -287 -558 -179 -551 142 3 121 83 232 201 276 55 21 159 13 217 -17z m416 -315 c83 -19 229 -90 308 -149 169 -127 317 -347 407 -605 45 -129 75 -251 114 -454 17 -88 38 -170 46 -183 20 -31 61 -40 84 -19 21 19 62 20 185 5 53 -7 96 -17 102 -25 20 -25 107 -56 158 -58 46 -1 51 1 54 22 3 18 -5 26 -45 43 -26 11 -49 22 -52 24 -7 8 57 99 96 137 51 50 85 62 126 44 42 -17 124 -107 195 -215 39 -60 100 -128 193 -219 75 -73 143 -132 151 -132 17 0 38 20 38 36 0 6 -11 28 -25 49 -15 20 -25 39 -23 41 2 1 49 -16 105 -40 108 -46 262 -134 385 -221 l77 -55 -35 -57 c-39 -65 -39 -66 -18 -87 23 -24 30 -21 92 37 80 75 128 110 198 145 174 88 361 90 531 7 178 -88 312 -284 357 -524 18 -95 21 -266 6 -360 -9 -54 -8 -67 5 -88 12 -18 23 -24 41 -20 18 3 29 -4 50 -35 75 -108 228 -190 387 -208 128 -15 225 3 412 75 14 5 10 -3 -13 -25 -35 -34 -37 -47 -9 -64 12 -8 21 -5 36 9 12 10 23 16 25 14 2 -2 11 -28 20 -56 26 -77 96 -167 167 -213 33 -21 65 -40 72 -43 8 -2 3 -23 -15 -63 -63 -140 -65 -291 -4 -434 5 -12 -4 -19 -31 -29 -108 -39 -219 -146 -280 -269 -20 -40 -40 -75 -45 -78 -4 -3 -8 -17 -8 -30 l0 -26 -31 27 c-44 37 -96 61 -176 84 -170 47 -235 117 -312 335 -41 115 -85 197 -136 254 -37 40 -43 44 -63 33 -12 -6 -22 -17 -22 -23 0 -6 16 -45 35 -87 48 -107 65 -181 65 -281 0 -150 -46 -257 -161 -372 -63 -63 -139 -108 -281 -166 -34 -14 -37 -45 -6 -66 l21 -15 -28 -43 c-51 -77 -143 -185 -216 -251 -48 -44 -70 -71 -67 -83 18 -98 324 151 421 343 24 47 35 56 109 95 115 59 208 153 269 274 l46 90 49 -49 c56 -56 108 -89 181 -112 l52 -17 52 -107 c97 -201 165 -399 203 -586 20 -100 46 -319 47 -405 2 -95 10 -124 36 -128 56 -8 88 146 80 388 -7 197 -26 293 -97 497 -28 82 -53 155 -56 164 -4 12 1 17 20 17 65 0 107 40 121 115 4 20 11 37 15 37 5 0 49 -27 98 -60 463 -310 674 -893 510 -1410 -40 -124 -84 -216 -158 -329 -100 -153 -279 -323 -415 -396 -63 -33 -75 -44 -75 -66 0 -31 42 -44 98 -31 26 6 49 7 52 2 3 -5 59 -28 124 -50 270 -93 402 -193 367 -278 -18 -43 -62 -63 -150 -69 -110 -8 -173 8 -230 59 -93 82 -265 137 -300 94 -18 -21 -5 -36 66 -76 75 -43 142 -107 165 -157 17 -38 17 -46 5 -76 -20 -46 -59 -61 -150 -55 -86 6 -173 39 -302 115 -68 39 -93 60 -102 82 -7 20 -20 32 -39 37 -46 12 -58 -5 -64 -88 -7 -86 -26 -123 -74 -143 -66 -28 -184 27 -259 119 l-35 41 45 55 c66 81 136 187 172 258 25 49 63 94 160 190 139 137 212 237 282 387 52 111 85 236 69 265 -15 28 -40 22 -63 -15 -10 -17 -55 -92 -100 -168 -70 -118 -195 -293 -202 -285 -2 2 3 32 11 68 39 182 38 459 -2 695 -31 185 -180 700 -215 742 -17 20 -47 16 -60 -8 -17 -33 -3 -169 42 -389 90 -442 105 -563 95 -775 -16 -347 -123 -626 -338 -882 -38 -46 -87 -97 -110 -115 -51 -41 -59 -63 -42 -112 45 -127 -36 -276 -196 -361 -66 -34 -346 -113 -554 -155 -126 -26 -226 13 -226 88 0 60 21 86 155 196 25 21 28 28 19 43 -6 10 -22 19 -36 21 -63 8 -214 -80 -254 -147 -12 -21 -46 -44 -111 -77 -77 -38 -106 -48 -163 -52 -79 -5 -120 7 -150 46 -65 82 32 231 206 317 93 46 106 61 76 85 -34 28 -117 13 -226 -42 -81 -40 -120 -72 -163 -132 -21 -28 -42 -54 -48 -58 -19 -14 -136 -8 -171 8 -59 28 -80 97 -50 168 59 142 347 289 671 342 55 9 110 22 122 30 14 9 37 11 72 7 61 -7 101 13 101 52 0 19 -9 29 -34 41 l-33 17 -2 146 c-4 392 116 694 426 1066 84 101 95 123 68 145 -23 19 -57 5 -144 -60 -193 -146 -358 -387 -445 -650 -53 -158 -69 -261 -71 -455 l-2 -169 -89 -13 c-373 -54 -677 -213 -781 -409 l-33 -62 -107 -16 c-236 -35 -314 -40 -628 -41 -176 0 -336 4 -356 8 -34 7 -37 10 -42 52 -19 138 -157 285 -357 379 -91 42 -280 96 -393 111 -47 6 -48 8 -42 33 14 56 25 262 20 357 -6 103 -36 285 -59 365 -96 325 -345 677 -424 598 -20 -20 -15 -35 60 -166 120 -210 189 -388 230 -594 26 -135 31 -405 9 -526 -11 -65 -16 -74 -40 -83 -39 -14 -53 -23 -68 -46 -13 -19 -12 -24 7 -43 20 -20 29 -22 82 -16 48 6 65 4 91 -12 18 -11 72 -25 122 -32 113 -15 290 -71 375 -118 36 -20 95 -66 132 -102 55 -54 69 -75 83 -122 20 -69 13 -99 -31 -137 -41 -37 -106 -48 -188 -33 -45 9 -65 17 -75 34 -33 52 -130 136 -191 166 -74 36 -166 58 -205 48 -21 -5 -26 -12 -23 -34 2 -22 14 -33 65 -58 141 -70 233 -168 233 -248 0 -103 -96 -141 -239 -97 -90 28 -201 95 -233 141 -56 80 -200 156 -247 130 -34 -18 -25 -45 30 -86 57 -43 99 -107 99 -148 0 -102 -109 -121 -342 -62 -73 18 -181 45 -241 59 -178 43 -299 115 -338 201 -23 51 -25 152 -4 180 29 39 18 60 -92 172 -120 122 -193 221 -257 351 -209 423 -156 895 154 1383 119 187 114 178 102 206 -17 35 -46 30 -99 -19 -183 -166 -324 -399 -397 -652 -124 -433 -38 -885 234 -1234 45 -57 80 -105 78 -106 -10 -10 -200 32 -302 67 -253 84 -464 218 -667 420 -163 162 -273 318 -379 533 -81 165 -137 322 -185 523 -50 210 -53 219 -73 227 -11 4 -23 -2 -36 -17 -17 -21 -18 -36 -13 -173 12 -300 113 -600 296 -878 70 -106 170 -234 215 -276 14 -14 26 -28 26 -31 0 -10 -124 -28 -243 -36 -78 -5 -100 -10 -107 -24 -15 -28 17 -47 97 -59 92 -14 192 -14 287 0 l75 11 89 -70 c50 -39 122 -91 161 -116 60 -39 71 -50 71 -74 0 -65 -78 -110 -172 -98 -78 10 -202 43 -206 56 -2 6 -17 17 -34 26 -27 14 -32 14 -54 -1 -28 -18 -31 -52 -9 -95 40 -78 25 -178 -34 -217 -94 -63 -218 7 -318 179 -25 43 -54 80 -64 83 -28 9 -58 -12 -67 -48 -7 -28 -21 -39 -108 -84 -131 -69 -241 -105 -324 -106 -227 -3 -187 192 68 333 57 31 71 52 52 75 -33 40 -206 -15 -302 -95 -41 -35 -56 -41 -122 -51 -90 -12 -201 0 -249 28 -25 15 -33 26 -35 56 -3 31 3 43 40 83 52 56 207 134 373 187 100 32 115 34 158 24 34 -7 53 -7 72 1 35 16 34 56 -2 79 -236 145 -354 253 -467 423 -162 245 -234 552 -197 847 15 124 71 315 125 427 131 270 370 522 613 645 124 62 320 124 310 98 -3 -7 -21 -52 -42 -102 -71 -170 -105 -356 -70 -385 31 -26 48 -6 104 125 60 138 191 386 222 421 27 29 24 53 -12 110 -41 63 -119 223 -119 242 0 13 14 14 83 9 45 -4 114 -15 154 -25 46 -12 76 -16 87 -10 9 5 27 32 41 61 34 67 44 80 79 95 35 16 33 34 -19 180 -20 56 -33 107 -29 113 7 13 50 6 148 -22 82 -25 110 -19 132 24 35 68 117 168 149 181 19 8 71 58 126 121 107 121 111 127 103 149 -12 31 -47 15 -120 -56 -41 -39 -77 -69 -80 -65 -24 23 -66 288 -68 422 l-1 120 28 -2 c29 -2 211 -86 325 -149 l62 -35 -45 -56 c-49 -60 -56 -96 -19 -101 27 -4 151 118 175 173 20 44 178 204 245 248 21 14 92 77 158 140 109 104 118 115 107 135 -22 42 -54 28 -179 -77 -29 -24 -54 -42 -56 -40 -9 9 -38 223 -43 319 -7 136 -1 143 90 110 49 -17 268 -129 286 -146 2 -1 -11 -20 -28 -41 -18 -22 -31 -49 -31 -65 0 -42 41 -37 106 12 29 22 58 40 64 40 6 0 57 31 113 68 296 198 702 386 1063 492 219 64 516 118 541 98 20 -16 65 -4 85 23 26 35 55 154 68 282 42 413 -155 798 -484 947 -64 30 -75 38 -71 55 3 11 11 46 17 78 13 65 11 64 108 41z m-642 -1436 c23 -18 42 -35 42 -38 0 -4 -74 -37 -153 -69 -13 -5 -3 55 17 102 19 46 39 47 94 5z m-675 -119 c23 -12 75 -47 116 -78 104 -80 105 -80 100 -84 -2 -2 -49 -30 -104 -62 -55 -32 -120 -71 -144 -88 -53 -36 -61 -29 -61 58 0 137 24 275 47 275 2 0 23 -10 46 -21z m-1520 -1574 c42 -9 77 -19 77 -22 0 -7 -109 -141 -121 -148 -14 -9 -85 168 -74 185 3 4 13 7 23 5 9 -2 52 -11 95 -20z"
       id="path4" />
    <path
       d="M6794 8262 c-102 -66 -225 -223 -208 -266 13 -35 51 -18 102 47 54 67 130 142 175 171 29 19 36 53 15 74 -17 17 -18 16 -84 -26z"
       id="path5" />
    <path
       d="M6008 8230 c-67 -36 -91 -124 -43 -156 42 -28 89 8 54 43 -14 14 22 53 49 53 28 0 57 -38 57 -74 0 -26 4 -31 26 -34 56 -7 76 51 37 108 -50 73 -116 95 -180 60z"
       id="path6" />
    <path
       d="M7260 8144 c-189 -36 -368 -162 -469 -329 -82 -135 -112 -329 -76 -489 39 -179 174 -357 332 -439 140 -73 336 -98 478 -62 227 59 398 224 481 465 29 85 27 291 -4 385 -37 108 -80 181 -158 264 -130 138 -269 201 -454 206 -58 2 -116 1 -130 -1z m284 -128 c179 -65 309 -201 362 -381 21 -72 24 -208 5 -285 -61 -253 -291 -440 -543 -440 -157 0 -283 53 -397 169 -202 203 -227 478 -67 719 137 206 414 301 640 218z"
       id="path7" />
    <path
       d="M7337 7739 c-118 -29 -199 -119 -213 -241 -22 -189 165 -343 344 -284 198 66 250 333 91 469 -57 49 -152 73 -222 56z"
       id="path8" />
    <path
       d="M4694 8001 c-36 -22 -74 -93 -74 -140 0 -87 67 -129 126 -78 35 30 27 60 -13 55 -24 -3 -28 1 -31 24 -2 19 5 36 22 53 29 28 53 32 82 10 10 -8 29 -15 42 -15 52 0 34 72 -23 96 -47 19 -94 18 -131 -5z"
       id="path9" />
    <path
       d="M5420 8005 c-284 -61 -527 -277 -620 -554 -16 -48 -18 -66 -10 -82 20 -36 44 -16 95 80 95 174 229 313 374 385 280 140 550 95 813 -136 36 -32 71 -58 76 -58 19 0 34 29 26 52 -10 33 -129 154 -198 200 -164 113 -365 153 -556 113z"
       id="path10" />
    <path
       d="M8995 7874 c-11 -2 -45 -9 -75 -15 -165 -33 -325 -168 -405 -341 -86 -188 -84 -388 7 -577 51 -107 160 -221 258 -269 328 -161 672 -3 792 363 20 60 23 91 23 215 0 126 -3 154 -24 219 -45 137 -168 289 -280 346 -85 42 -235 73 -296 59z m228 -142 c252 -118 352 -460 218 -748 -32 -69 -132 -181 -194 -217 -205 -120 -478 -38 -610 184 -131 222 -102 491 73 670 109 111 204 151 350 146 82 -2 104 -7 163 -35z"
       id="path11" />
    <path
       d="M9028 7486 c-85 -23 -143 -81 -173 -174 -34 -103 -4 -206 79 -279 61 -54 121 -70 194 -55 121 25 202 128 202 256 0 70 -15 118 -53 168 -57 74 -159 109 -249 84z"
       id="path12" />
    <path
       d="M5455 7771 c-248 -67 -439 -263 -485 -498 -18 -92 -9 -263 19 -343 66 -190 233 -351 425 -409 342 -104 692 85 812 439 15 43 19 82 18 185 -1 114 -4 139 -27 203 -72 201 -214 342 -417 414 -83 30 -254 34 -345 9z m251 -92 c192 -35 363 -194 417 -390 25 -90 28 -140 13 -229 -39 -220 -207 -404 -411 -450 -72 -16 -201 -13 -265 6 -237 70 -400 285 -400 524 0 197 119 389 298 483 114 60 226 78 348 56z"
       id="path13" />
    <path
       d="M5527 7386 c-86 -31 -148 -107 -169 -207 -22 -108 42 -228 150 -280 60 -29 149 -30 213 -2 96 43 169 169 155 269 -7 55 -45 130 -83 166 -65 62 -178 85 -266 54z"
       id="path14" />
    <path
       d="M4160 7239 c-102 -42 -130 -189 -47 -239 44 -27 71 -25 109 9 27 24 31 32 20 43 -7 7 -30 13 -50 13 -35 0 -37 2 -40 37 -3 30 1 40 23 54 24 16 28 16 66 -1 36 -17 41 -17 55 -3 47 47 -63 117 -136 87z"
       id="path15" />
    <path
       d="M3634 6886 l-34 -34 1 -94 c2 -103 -12 -146 -70 -226 -38 -51 -114 -102 -153 -102 -52 0 -97 -26 -114 -65 -18 -43 -12 -67 28 -118 57 -73 73 -123 73 -227 0 -79 -4 -102 -22 -135 -56 -103 -65 -125 -56 -152 14 -40 53 -64 120 -72 35 -4 77 -17 104 -33 102 -60 189 -191 209 -314 12 -73 50 -114 106 -114 30 0 46 10 107 69 86 80 93 85 210 122 114 37 161 65 229 137 73 76 102 129 149 269 24 71 62 155 95 211 78 131 65 179 -29 107 -79 -60 -141 -156 -202 -310 -67 -168 -147 -243 -310 -290 -78 -22 -127 -48 -175 -92 -43 -38 -49 -33 -23 22 13 28 14 38 5 47 -10 10 -17 10 -33 0 -12 -8 -22 -12 -22 -10 -69 144 -204 275 -318 310 -31 9 -38 15 -33 27 32 73 43 124 44 197 0 88 -23 183 -60 242 -11 18 -20 34 -20 37 0 2 25 15 55 29 108 49 220 189 241 301 5 30 8 33 25 22 15 -9 22 -8 36 5 16 16 15 20 -17 60 -25 31 -29 40 -14 34 262 -108 442 -111 627 -13 74 39 149 120 145 156 -5 42 -45 39 -116 -7 -90 -58 -165 -77 -302 -76 -98 0 -127 4 -193 27 -42 15 -101 40 -130 57 -74 42 -119 40 -163 -4z"
       id="path16" />
    <path
       d="M10355 6699 c-88 -43 -190 -69 -276 -69 -67 0 -196 31 -248 61 -21 11 -47 19 -57 17 -27 -5 -23 -60 9 -127 15 -29 24 -57 22 -61 -3 -5 16 -47 41 -94 25 -47 76 -163 114 -256 93 -231 153 -312 311 -423 36 -25 85 -71 108 -102 44 -58 73 -69 79 -30 5 42 -55 122 -153 200 -153 123 -190 177 -279 408 -24 62 -71 167 -105 234 -33 68 -61 127 -61 132 0 4 30 -1 68 -12 136 -40 302 -23 437 45 81 40 117 75 104 99 -13 25 -21 24 -114 -22z"
       id="path17" />
    <path
       d="M3840 6625 c-19 -23 12 -52 95 -90 100 -46 165 -60 285 -60 81 1 122 6 179 24 102 31 171 76 171 112 0 30 -29 30 -88 0 -130 -65 -299 -78 -448 -35 -49 14 -103 34 -120 45 -38 23 -57 24 -74 4z"
       id="path18" />
    <path
       d="M7775 6604 c-44 -23 -72 -52 -96 -100 -18 -38 -19 -47 -7 -71 19 -40 55 -55 101 -42 66 18 137 98 137 154 0 25 -55 75 -82 75 -13 0 -36 -7 -53 -16z"
       id="path19" />
    <path
       d="M6880 6582 c-46 -47 -37 -104 27 -163 40 -38 66 -49 113 -49 58 0 95 37 86 88 -10 67 -86 140 -154 149 -36 5 -45 2 -72 -25z"
       id="path20" />
    <path
       d="M10017 6463 c-49 -49 149 -139 328 -150 114 -7 160 4 160 38 0 24 -2 24 -110 30 -119 7 -205 26 -292 64 -58 26 -75 30 -86 18z"
       id="path21" />
    <path
       d="M4487 6418 c-45 -62 -98 -157 -167 -303 -86 -181 -133 -251 -229 -340 -229 -214 -243 -231 -198 -259 15 -9 23 -5 47 25 17 20 74 70 128 112 86 67 156 137 202 201 8 11 76 144 152 295 104 209 135 278 126 288 -17 21 -35 15 -61 -19z"
       id="path22" />
    <path
       d="M4245 6368 c-94 -50 -288 -98 -394 -98 -43 0 -71 -12 -71 -31 0 -75 319 -33 481 64 42 25 54 38 54 57 0 32 -20 35 -70 8z"
       id="path23" />
    <path
       d="M10081 6236 c-19 -22 1 -50 71 -102 76 -56 168 -100 244 -117 73 -16 94 -13 94 17 0 19 -11 27 -62 46 -105 38 -185 76 -256 124 -37 25 -71 46 -74 46 -3 0 -11 -6 -17 -14z"
       id="path24" />
    <path
       d="M7085 6159 c-688 -51 -1327 -191 -1951 -425 -80 -30 -158 -61 -174 -69 -84 -44 -62 -165 30 -165 21 0 62 11 92 24 92 41 492 174 661 220 439 119 783 183 1212 223 232 21 782 24 980 5 575 -56 1044 -166 1452 -341 40 -17 81 -31 93 -31 33 0 80 53 80 89 0 46 -36 78 -135 120 -387 166 -839 276 -1385 336 -171 20 -771 28 -955 14z"
       id="path25" />
    <path
       d="M4150 6109 c-63 -48 -210 -127 -297 -161 -32 -12 -43 -22 -43 -38 0 -32 23 -34 102 -10 90 27 183 77 266 142 66 53 87 81 78 104 -9 24 -39 14 -106 -37z"
       id="path26" />
    <path
       d="M2850 5545 c-63 -20 -124 -75 -157 -143 -24 -49 -28 -69 -28 -142 0 -68 5 -93 22 -125 125 -234 433 -144 451 131 12 191 -130 329 -288 279z m130 -103 c14 -10 35 -38 48 -62 53 -105 2 -251 -98 -281 -47 -14 -79 -7 -121 28 -76 65 -80 189 -7 277 54 66 119 80 178 38z"
       id="path27" />
    <path
       d="M5343 5125 c-43 -30 -56 -141 -24 -210 34 -75 103 -123 182 -124 113 -3 240 104 187 157 -18 18 -34 15 -78 -14 -25 -17 -60 -29 -91 -32 -42 -4 -54 -1 -74 18 -34 32 -48 81 -40 139 5 38 3 52 -10 65 -20 20 -25 20 -52 1z"
       id="path28" />
    <path
       d="M10140 5073 c-69 -26 -112 -98 -113 -188 -1 -119 68 -205 165 -205 42 0 53 5 86 38 37 37 62 95 62 144 0 39 -28 123 -52 153 -34 44 -108 73 -148 58z m75 -109 c45 -49 44 -147 -2 -184 -23 -18 -29 -19 -47 -7 -54 35 -70 134 -32 192 21 32 51 32 81 -1z"
       id="path29" />
    <path
       d="M3140 5038 c-67 -35 -101 -90 -107 -175 -5 -57 -2 -76 15 -110 73 -143 246 -147 328 -7 100 171 -68 379 -236 292z m142 -98 c28 -29 30 -35 26 -91 -5 -68 -31 -104 -84 -115 -26 -5 -38 -1 -65 24 -32 28 -34 35 -34 92 0 57 2 64 33 91 44 39 84 39 124 -1z"
       id="path30" />
    <path
       d="M4837 5043 c-17 -16 -3 -47 54 -117 147 -183 405 -355 654 -436 67 -22 121 -33 165 -34 63 -1 65 0 68 25 3 28 4 28 -158 89 -128 49 -287 132 -397 206 -101 68 -144 102 -271 211 -67 58 -98 73 -115 56z"
       id="path31" />
    <path
       d="M8720 4965 c-8 -10 -10 -32 -6 -68 5 -40 3 -65 -10 -96 -28 -70 -78 -80 -155 -30 -54 34 -85 33 -95 -6 -12 -50 70 -119 158 -131 86 -12 168 46 198 140 16 48 8 148 -14 181 -19 28 -57 33 -76 10z"
       id="path32" />
    <path
       d="M2800 4731 c-76 -40 -107 -169 -57 -241 51 -76 122 -97 197 -58 150 77 101 318 -65 318 -22 0 -56 -8 -75 -19z m117 -83 c28 -32 34 -66 18 -104 -24 -57 -92 -58 -121 -3 -41 80 46 170 103 107z"
       id="path33" />
    <path
       d="M6267 4678 c-24 -19 -37 -62 -37 -127 0 -121 84 -216 190 -214 60 1 108 24 159 75 54 55 77 103 62 134 -17 38 -46 29 -109 -35 -62 -62 -105 -81 -141 -61 -39 21 -55 59 -57 137 -3 94 -24 123 -67 91z"
       id="path34" />
    <path
       d="M8001 4606 c-7 -8 -9 -38 -5 -88 5 -58 3 -81 -10 -106 -36 -70 -85 -65 -159 19 -56 64 -88 75 -108 38 -26 -49 49 -162 127 -195 43 -18 118 -18 153 1 75 39 122 150 103 244 -6 30 -18 64 -27 77 -17 27 -56 32 -74 10z"
       id="path35" />
    <path
       d="M6792 4494 c-44 -30 -23 -155 36 -217 39 -42 75 -57 130 -57 71 0 137 46 176 123 25 48 27 61 18 82 -20 43 -56 33 -98 -25 -80 -112 -154 -98 -188 34 -20 76 -35 88 -74 60z"
       id="path36" />
    <path
       id="path37"
       d="m 4682.2461,9905.8398 c 6.755,-3.1088 12.5335,-5.9417 17.6562,-8.75 -5.5923,3.3983 -11.5129,6.3064 -17.6562,8.75 z m 37.4609,-20.9179 v -0.02 -0.02 c -0,-0.2178 0.2311,-0.9165 0.5078,-1.7383 0.6406,-0.5636 1.2799,-1.1316 1.9141,-1.7187 -1.4201,2.3177 -2.092,3.2995 -2.3242,3.4765 l -0.019,0.02 h -0.02 -0.019 -0.02 z m -217.1093,-26.9141 c -0.039,-0.1533 -0.073,-0.3122 -0.1172,-0.4883 0.03,0.089 0.05,0.1661 0.078,0.2539 0.013,0.077 0.026,0.1586 0.039,0.2344 z m 158.4375,-10.7812 c 0.5583,-0.7606 1.2807,-1.5428 1.8554,-2.3047 -0.4773,0.6435 -0.9246,1.2324 -1.2304,1.6211 -0.1963,0.2434 -0.4265,0.4434 -0.625,0.6836 z m -165.0782,-16.4258 c -0.2079,-0.8918 -0.3952,-1.7815 -0.5859,-2.6758 0.063,0.6381 0.085,0.9644 0.078,1.0352 h -0.02 c -0.1462,-0.3211 -1.5569,-10.9913 -1.2109,-8.8086 0.6245,3.9409 1.183,7.3332 1.7382,10.4492 z m 96.9336,-16.4844 -0.019,-0.02 v -0.02 c -0.1376,-0.9513 -0.2692,-1.8969 -0.3906,-2.8515 0.087,0.3127 0.1807,0.6308 0.2734,0.957 7e-4,0.012 -8e-4,0.027 0,0.039 0.032,0.4891 0.1257,1.5849 0.1367,1.8945 z m -122.6562,-111.0742 c 0.4575,-0.5932 1.2376,-1.6001 0.9765,-1.25 -0.1788,0.24 -0.2825,0.3821 -0.4492,0.6055 -0.3299,0.4338 -0.3044,0.3652 -0.5273,0.6445 z" />
    <path
       id="path38"
       d="m 4925.4688,9561.8945 c 5.5991,-3.6406 10.8729,-7.7491 15.625,-12.4609 3.8108,-3.7787 7.4707,-7.7151 11.1523,-11.6211 -7.2936,9.5408 -16.4638,17.7328 -26.7773,24.082 z m -50.8399,-147.2461 c -0.8942,-1.7597 -1.6814,-3.2932 -2.3633,-4.6289 -0.2011,-0.4253 -0.4252,-0.8842 -0.664,-1.3867 1.0564,1.9551 2.0719,3.9548 3.0273,6.0156 z m -119.6875,-4.4922 c 0.061,-0.173 0.138,-0.3439 0.1953,-0.5078 1.1762,-1.3355 2.412,-2.6039 3.6914,-3.8476 -0.3085,0.4097 -0.6212,0.8083 -0.9375,1.2109 -0.9097,0.9878 -1.7853,2.0188 -2.7344,2.9688 -0.047,0.047 -0.131,0.1099 -0.2148,0.1757 z m 109.5313,-15.1757 c -1.3819,-2.2327 -2.6612,-4.4459 -3.418,-6.7188 v -0.019 l -0.019,-0.02 v -0.02 -0.02 l -0.02,-0.02 c -0.022,-0.069 -0.037,-0.1459 -0.059,-0.2149 0.3177,0.6342 0.6198,1.2801 0.9375,1.9141 l -0.6054,-1.1328 c 1.159,2.2485 2.3765,4.5998 3.1836,6.25 z" />
  </g>
  <path
     style="fill:#ffffff;stroke-width:1.26057"
     d="m 785.96629,899.78399 c -3.89138,-1.43083 -6.30286,-4.65988 -6.30286,-8.43972 0,-3.20309 1.62346,-5.43982 9.07455,-12.50252 7.49398,-7.10339 8.8438,-8.96972 7.74983,-10.71536 -0.7286,-1.1626 -2.54673,-2.29556 -4.04031,-2.51769 -4.59714,-0.6837 -16.27556,5.6211 -23.92232,12.91487 -17.73174,16.91321 -44.32689,19.90284 -44.32689,4.98291 0,-2.41071 0.80733,-5.94431 1.79407,-7.85247 2.69017,-5.2022 11.85277,-13.11676 20.55447,-17.75472 8.42581,-4.49091 10.06203,-6.5913 7.06945,-9.07493 -6.15985,-5.11222 -27.1116,3.37309 -38.48685,15.58689 -7.06369,7.58442 -7.28131,7.70479 -13.66738,7.55932 -11.29525,-0.25728 -16.73076,-6.19528 -14.00348,-15.29806 1.8279,-6.10101 11.81579,-15.54857 22.40408,-21.19208 14.14824,-7.54092 44.00412,-15.82314 64.51051,-17.89563 8.02991,-0.81156 10.27462,-2.28055 10.31325,-6.74926 0.0106,-1.22816 -1.33149,-2.84848 -2.98247,-3.60072 -2.58088,-1.17592 -3.11432,-2.54194 -3.80448,-9.7424 -1.02956,-10.74129 0.96705,-31.27805 4.33586,-44.59798 4.94548,-19.55389 17.03262,-41.5637 35.7623,-65.12061 10.88848,-13.69477 11.59219,-15.03512 9.16699,-17.46033 -2.75731,-2.7573 -6.71067,-1.33179 -16.1738,5.83199 -18.84096,14.26298 -35.36624,38.85918 -44.40048,66.08562 -4.38706,13.22125 -5.81287,22.177 -6.85124,43.03387 l -0.87509,17.57698 -12.38019,2.18146 c -24.22564,4.26869 -46.91514,13.37378 -59.47238,23.86571 -6.52156,5.44895 -15.04159,15.86538 -16.35072,19.99008 -0.79119,2.49277 -8.08471,3.96993 -32.0653,6.4942 -12.94695,1.36283 -77.03658,1.54129 -79.05847,0.22015 -0.77954,-0.50937 -1.83306,-2.91153 -2.34116,-5.33813 -3.41207,-16.29555 -21.79287,-32.75111 -45.56651,-40.79378 -7.35696,-2.48889 -20.14036,-5.78573 -30.17306,-7.78166 -2.53337,-0.50399 -2.58843,-1.08577 -2.0525,-21.68503 0.90319,-34.71475 -3.31809,-54.85528 -17.03623,-81.28313 -7.66361,-14.76385 -16.3326,-26.42817 -22.96174,-30.89556 -5.01445,-3.37923 -5.19587,-3.40188 -8.36452,-1.04403 -2.36105,1.75689 -2.08583,2.52007 7.84195,21.74485 17.57397,34.03133 22.20057,51.05267 22.37621,82.32234 0.0604,10.74637 -0.35154,22.2407 -0.91536,25.54296 -0.89811,5.26012 -1.56414,6.2293 -5.37515,7.82164 -9.21959,3.85219 -7.04062,9.76183 4.0087,10.87206 4.08862,0.41084 11.40466,1.76579 16.25786,3.01102 35.40395,9.08392 42.32773,11.88081 53.29233,21.52773 7.21092,6.34435 9.69639,10.19856 10.97626,17.02088 1.64588,8.77328 -7.93759,15.05561 -20.16881,13.22142 -4.95725,-0.74337 -6.87472,-1.90199 -11.55313,-6.98083 -9.8378,-10.67983 -22.44655,-17.45844 -33.26239,-17.88224 -10.26541,-0.40224 -9.32278,5.07784 1.96969,11.45093 3.84119,2.16783 9.27979,6.01563 12.08577,8.55067 9.12575,8.24458 10.98443,15.26617 5.67292,21.4309 -2.74003,3.18015 -3.8075,3.52321 -10.58456,3.4015 -10.41699,-0.18707 -22.00446,-5.76217 -32.14209,-15.46458 -11.38564,-10.89684 -22.66117,-16.00023 -26.61518,-12.04622 -2.45679,2.45679 -1.05513,5.54164 4.22689,9.30276 4.68485,3.33592 8.91544,10.12343 8.91544,14.30383 0,2.01186 -1.30488,4.26253 -3.46657,5.97915 -3.03675,2.41152 -4.51641,2.66684 -11.93392,2.05917 -11.95962,-0.97977 -49.32647,-10.42946 -58.34294,-14.75431 -16.54514,-7.93608 -20.9406,-17.06441 -16.41193,-34.08371 0.75211,-2.82653 -0.61142,-4.83912 -10.67542,-15.75714 -18.93716,-20.54415 -28.34524,-37.02107 -34.28321,-60.04214 -3.42784,-13.28941 -3.69945,-38.48908 -0.56574,-52.48534 4.44314,-19.8446 13.48178,-41.08969 25.29339,-59.45154 9.71449,-15.10171 11.47078,-18.82549 9.98886,-21.17877 -2.82952,-4.49327 -5.65257,-3.17779 -16.10491,7.50456 -27.42527,28.02875 -41.00479,63.99127 -39.43502,104.43535 1.25512,32.33728 9.96308,55.11429 32.24051,84.3301 l 3.26646,4.2838 -6.22491,-0.93348 c -20.39431,-3.05832 -50.39554,-16.19813 -68.76408,-30.11702 -13.30087,-10.07882 -33.76096,-31.20692 -42.35263,-43.73541 -15.37985,-22.42713 -25.39462,-45.60789 -33.89869,-78.46382 -3.06009,-11.82285 -6.11344,-22.04574 -6.78522,-22.71751 -1.84121,-1.84121 -5.05864,-0.09 -6.42179,3.4954 -1.88456,4.95676 0.78198,33.88201 4.41114,47.84988 7.26148,27.94796 21.92323,55.24465 42.53102,79.18263 3.43195,3.98656 5.75834,7.26035 5.16975,7.27511 -7.73495,0.19384 -32.565,3.86802 -33.65741,4.98038 -2.40273,2.44661 3.4523,6.06006 11.43559,7.05751 3.93021,0.49105 13.37059,0.56443 20.97862,0.16307 l 13.83279,-0.72974 12.54837,9.0627 c 18.9891,13.7143 19.05547,13.77908 18.0845,17.64772 -1.02203,4.07213 -6.57569,7.17211 -12.84891,7.17211 -6.37417,0 -18.96713,-3.42037 -24.71041,-6.7116 -3.77701,-2.16443 -5.25711,-2.44462 -7.02025,-1.32893 -2.36652,1.49751 -2.4573,3.30081 -0.89402,17.7591 0.81511,7.53872 0.70486,7.9692 -2.98622,11.66028 -8.76648,8.76647 -20.7238,2.36647 -33.55412,-17.95937 -5.47756,-8.67757 -8.73304,-9.03989 -13.19994,-1.46906 -4.56433,7.73596 -29.31093,18.21872 -43.00884,18.21872 -6.4526,0 -8.14837,-0.48787 -10.754626,-3.09413 -1.701772,-1.70177 -3.09413,-3.65024 -3.09413,-4.32994 0,-5.96101 8.413486,-15.70984 19.721316,-22.85138 6.51616,-4.11533 8.08883,-5.7186 7.77472,-7.92599 -0.87051,-6.11757 -15.43617,-3.1514 -29.327151,5.97223 -9.611359,6.31276 -15.731339,7.78115 -27.363353,6.56537 -8.477853,-0.88612 -11.762478,-2.29562 -13.674329,-5.86795 -1.696287,-3.16954 1.061169,-8.85719 5.978063,-12.33062 12.381389,-8.74654 41.67433,-19.8019 48.88435,-18.4493 2.40748,0.45165 5.83488,0.45534 7.61644,0.008 2.62938,-0.65994 3.16491,-1.45735 2.84457,-4.2356 -0.31242,-2.70961 -2.62673,-4.93467 -11.10948,-10.68105 C 86.722363,772.63748 73.890221,758.7591 63.789062,739.32514 46.655607,706.36153 45.41961,666.68846 60.387266,630.13416 c 10.858807,-26.51959 35.462408,-54.49704 60.150584,-68.39891 6.69384,-3.76929 23.02966,-10.21585 30.23396,-11.93113 l 3.28495,-0.78213 -4.20028,10.37815 c -8.16004,20.162 -10.40158,38.94461 -4.74407,39.75203 2.30559,0.32905 4.12899,-2.60578 13.42852,-21.61371 5.91837,-12.09694 12.80125,-25.1844 15.2953,-29.08322 2.49404,-3.89882 4.53463,-7.89288 4.53463,-8.87568 0,-0.98281 -3.48618,-8.48795 -7.74705,-16.67809 -9.04961,-17.39496 -9.39016,-16.87274 8.94038,-13.7094 16.72336,2.88598 16.54804,2.92304 20.64079,-4.36392 1.9557,-3.48205 4.9338,-7.23388 6.618,-8.33741 3.96704,-2.59931 3.90831,-5.90126 -0.33688,-18.93673 -1.86947,-5.7405 -3.02443,-10.81187 -2.56657,-11.26974 0.45786,-0.45785 4.51485,0.0925 9.01554,1.22306 13.80085,3.46667 15.02251,3.14847 20.84825,-5.43033 2.79595,-4.11721 8.2681,-10.21523 12.16034,-13.55114 9.33349,-7.99941 23.18834,-24.18236 23.18834,-27.08476 0,-4.4444 -5.74164,-2.62834 -13.1781,4.16817 -3.89313,3.5581 -7.29184,6.25257 -7.5527,5.98771 -2.73135,-2.77316 -7.76984,-52.79527 -5.31782,-52.79527 1.57492,0 25.5981,11.03031 32.02742,14.70547 l 6.60908,3.77791 -3.73772,4.93974 c -2.05576,2.71686 -3.75352,6.21607 -3.77281,7.77603 -0.089,7.20244 11.13568,-0.33006 20.12591,-13.50574 4.98859,-7.31104 13.66355,-15.83966 35.23668,-34.64227 13.8844,-12.10128 17.15163,-15.97386 16.0028,-18.96769 -1.35688,-3.53595 -6.71675,-1.9766 -14.80196,4.30634 -4.39308,3.4138 -8.36183,5.97551 -8.81948,5.69266 -1.27623,-0.78875 -3.96681,-28.10321 -3.46931,-35.22016 0.41076,-5.87619 0.65391,-6.27957 3.59201,-5.95887 2.74467,0.2996 25.412,10.80743 30.03151,13.92163 1.34184,0.90459 1.1576,1.96322 -0.94071,5.40508 -3.09967,5.08439 -3.3446,8.49276 -0.68368,9.51386 1.95093,0.74864 6.69379,-1.8743 30.30999,-16.76233 13.15469,-8.29291 16.32061,-9.70509 12.64011,-5.63818 -8.69715,9.61024 -1.33335,26.37081 8.69826,19.79785 4.22858,-2.77067 4.22301,-7.04304 -0.009,-7.04304 -3.93362,0 -4.26216,-3.64634 -0.62511,-6.93783 2.24459,-2.03132 3.07306,-2.10584 7.42908,-0.66823 5.39494,1.78049 7.6926,1.07634 7.6926,-2.35753 0,-3.2547 -4.48345,-6.85779 -10.38276,-8.34402 l -5.11998,-1.28989 16.89051,-8.33978 c 33.1181,-16.35223 67.01939,-28.07311 98.09432,-33.91466 9.57472,-1.79988 16.43673,-2.43469 20.49654,-1.89614 5.34958,0.70965 6.47488,0.43773 9.11521,-2.2026 4.91151,-4.91151 7.68975,-19.71342 7.61433,-40.56761 -0.0752,-20.79814 -1.75844,-28.35526 -10.22331,-45.89921 -7.22611,-14.97655 -20.09228,-28.48099 -34.10075,-35.79241 -5.00052,-2.60993 -9.44311,-5.31364 -9.8724,-6.00825 -0.93576,-1.51409 0.36002,-9.94845 1.91489,-12.4643 2.70051,-4.36951 28.72207,6.42951 42.65189,17.70064 14.98341,12.12364 30.39431,36.8609 38.58956,61.94317 2.32841,7.12631 6.01975,21.46579 8.20294,31.86551 2.18321,10.39971 4.53351,21.02614 5.2229,23.61427 1.59937,6.00435 5.08545,8.04144 10.16252,5.93845 6.18227,-2.56077 22.58099,-0.82056 30.29956,3.21538 3.55439,1.85855 9.54835,3.69766 13.31988,4.08691 6.65925,0.6873 6.84497,0.6213 6.42988,-2.28494 -0.36573,-2.5606 -3.23422,-4.9448 -7.92248,-6.58493 -3.56015,-1.24547 12.25,-18.53086 16.94932,-18.53086 3.67158,0 11.71116,7.79789 21.40255,20.75912 11.76471,15.73409 32.94617,36.29853 36.82182,35.74922 3.00874,-0.42643 3.60639,-3.13844 1.68831,-7.66119 -0.59411,-1.4009 -0.37896,-2.206 0.58954,-2.206 2.95516,0 26.64875,12.60072 38.97047,20.72528 l 12.46906,8.22171 -3.2981,6.18509 c -2.80716,5.26438 -3.04712,6.48753 -1.61196,8.21679 0.92738,1.11743 2.32577,2.02974 3.10751,2.02735 0.78176,-0.002 5.38227,-3.43269 10.22339,-7.62289 38.31788,-33.16589 84.76479,-20.04174 101.60554,28.70992 3.40517,9.85749 5.08078,28.78019 3.71705,41.97694 -1.19387,11.55313 0.2044,16.35638 4.76151,16.35638 1.22382,0 4.36634,2.56155 6.98335,5.69235 15.21861,18.20633 44.6554,23.13444 74.56139,12.48257 2.07124,-0.73774 2.23996,-0.59493 0.94543,0.80023 -0.86665,0.93402 -1.57572,2.78366 -1.57572,4.11032 0,1.97764 0.70019,2.30934 3.88731,1.84157 3.64669,-0.53523 4.06724,-0.1637 6.79411,6.00226 3.53333,7.98947 10.59473,16.0374 17.75162,20.23161 l 5.3233,3.11967 -3.1114,8.94686 c -3.6835,10.59191 -4.1336,24.65109 -1.1036,34.46684 1.0701,3.46657 1.9518,6.3781 1.9593,6.47007 0.01,0.092 -2.9644,1.62731 -6.6043,3.41189 -8.12017,3.98113 -18.51234,14.32491 -23.40712,23.29811 l -3.65919,6.70807 -0.81443,-4.07218 c -0.79967,-3.9983 -3.2267,-6.69056 -21.49196,-23.84053 -8.96956,-8.42186 -11.96775,-13.01569 -17.86502,-27.37278 -2.50195,-6.09105 -7.67726,-17.77003 -11.50069,-25.95329 -3.82344,-8.18325 -6.65684,-15.17349 -6.29645,-15.53388 0.36038,-0.3604 2.83565,-0.0498 5.5006,0.69018 7.22068,2.005 24.21287,1.64856 32.03398,-0.67195 13.96455,-4.14328 23.43196,-10.73145 21.74369,-15.13099 -0.95993,-2.50156 -2.26898,-2.25131 -13.58446,2.59684 -18.24609,7.8176 -30.04606,8.11562 -48.36219,1.22144 -4.42658,-1.66616 -8.55637,-2.71541 -9.17729,-2.33165 -3.03415,1.87521 1.08891,14.72256 13.93092,43.40837 16.05374,35.86003 18.5101,39.64953 33.2958,51.3664 11.59461,9.18813 20.45553,18.5345 19.93896,21.03135 -0.3375,1.63138 -1.08638,1.45697 -4.412,-1.02754 -2.20302,-1.64583 -9.1108,-4.83231 -15.35063,-7.08107 -18.45188,-6.64983 -21.96758,-10.39421 -30.96561,-32.97969 -5.99846,-15.05644 -9.78018,-21.85319 -14.87498,-26.73432 -3.11798,-2.98722 -4.10669,-3.32046 -6.32661,-2.1324 l -2.63111,1.40812 2.61978,6.58344 c 6.69777,16.83131 7.64504,21.28591 7.16323,33.68571 -0.41514,10.68425 -0.91773,12.81954 -4.66136,19.80444 -5.99805,11.19118 -16.65079,20.84561 -29.80052,27.00777 -5.94379,2.78536 -11.12484,5.89286 -11.51345,6.90556 -0.38861,1.0127 0.2387,2.88578 1.39404,4.16241 1.98666,2.19524 1.69258,2.85939 -5.42147,12.24363 -4.13713,5.45735 -10.9698,13.30825 -15.18372,17.44645 -8.50858,8.35567 -9.76541,12.01488 -4.12673,12.01488 7.98621,0 27.17367,-16.76825 37.34482,-32.63627 4.71198,-7.35116 7.03323,-9.59417 14.35293,-13.8691 10.38118,-6.06294 20.37556,-16.56745 25.58888,-26.89498 l 3.77866,-7.48549 5.28647,4.57847 c 2.90755,2.51816 9.28157,6.46817 14.16448,8.7778 l 8.878,4.19934 5.83856,12.4414 c 12.98316,27.66583 19.00226,48.95731 21.8699,77.36083 3.01173,29.83059 3.21831,30.81595 6.56035,31.29026 2.26722,0.32177 3.31585,-0.59579 5.04229,-4.412 1.83709,-4.06083 2.17428,-8.78145 2.14501,-30.02969 -0.038,-27.58033 -0.53616,-30.51499 -9.86508,-58.11484 l -4.30426,-12.73425 4.58089,-1.13203 c 3.86088,-0.95409 5.08793,-2.1716 7.80684,-7.7461 l 3.22595,-6.61408 10.3134,7.0559 c 45.4042,31.06315 65.5717,90.4544 48.1116,141.68369 -8.805,25.83456 -29.6234,52.59218 -51.55136,66.25846 -11.49394,7.16342 -13.06982,8.84168 -11.33899,12.07575 1.2202,2.27997 2.21776,2.54667 7.27717,1.94562 4.63396,-0.55051 7.97738,0.10895 15.94768,3.14558 15.5724,5.93292 29.8259,12.87982 34.4591,16.79477 11.4166,9.6467 5.3997,18.30903 -12.6737,18.24585 -8.531,-0.0298 -14.1464,-2.16358 -23.0459,-8.75711 -6.4409,-4.77196 -15.5601,-7.87231 -21.67006,-7.36743 -7.06405,0.58374 -6.88959,3.70433 0.48413,8.6596 7.92177,5.32357 15.26313,12.29239 17.55933,16.66831 2.5458,4.85143 0.1139,9.83481 -5.59749,11.4701 -10.11427,2.89596 -35.87434,-6.97502 -46.44379,-17.79675 -5.211,-5.33538 -9.49063,-6.78231 -11.31747,-3.82641 -0.52476,0.84907 -1.36446,4.56764 -1.86599,8.26349 -0.50153,3.69583 -1.81462,8.09744 -2.91795,9.78135 -4.59818,7.0177 -14.80383,5.07427 -25.34065,-4.82556 l -6.99205,-6.56934 6.954,-9.18032 c 3.82468,-5.04917 9.33762,-13.26166 12.25094,-18.24995 2.9715,-5.08792 10.71011,-14.76151 17.62718,-22.03469 14.82063,-15.58366 22.36029,-25.89267 28.23259,-38.6025 5.17106,-11.19207 8.63492,-23.77132 7.51629,-27.29585 -1.69008,-5.32496 -5.35095,-2.74365 -12.09729,8.52988 -8.08444,13.50956 -21.13289,32.8372 -22.91085,33.93604 -0.84294,0.52097 -1.015,-0.27069 -0.48352,-2.22463 2.32333,-8.54146 3.37078,-33.23339 2.08873,-49.23828 -1.88211,-23.49613 -12.03264,-66.37324 -21.06742,-88.99141 -2.62396,-6.56895 -3.64466,-7.87857 -6.14045,-7.87857 -6.08735,0 -5.72103,9.54254 1.88727,49.16228 7.48006,38.95196 8.06942,44.39303 7.34923,67.84983 -0.80698,26.284 -3.98613,39.84504 -14.08898,60.09817 -7.71308,15.46241 -15.98388,27.05184 -27.322,38.28494 l -7.59589,7.52553 0.8644,8.77225 c 1.08618,11.02313 -0.61394,16.50423 -7.40425,23.87085 -7.24676,7.86181 -13.17427,10.92793 -31.11566,16.0952 -28.99129,8.34974 -45.01443,11.00227 -51.67265,8.55408 z M 633.81444,690.31922 c 2.32784,-1.43869 5.79368,-5.48746 7.7076,-9.00399 3.29026,-6.04528 3.36839,-6.55671 1.44909,-9.48593 -1.11578,-1.70289 -2.65384,-3.09616 -3.41793,-3.09616 -0.7641,0 -3.96222,2.83629 -7.10695,6.30286 -8.53252,9.40574 -12.45401,8.6629 -17.0614,-3.23194 -3.04909,-7.87183 -5.50813,-9.58413 -8.89698,-6.19527 -3.81854,3.81854 -1.62594,16.16266 3.99192,22.47416 5.5113,6.19178 15.40096,7.13955 23.33465,2.23627 z m 98.5466,-5.70955 c 2.22665,-2.36092 4.77741,-6.8962 5.66837,-10.07839 2.7015,-9.64878 -0.71426,-22.18557 -6.04464,-22.18557 -4.03935,0 -5.26534,2.75061 -5.26534,11.81315 0,9.36405 -1.9526,13.39828 -6.48489,13.39828 -1.27182,0 -5.44434,-2.83628 -9.27225,-6.30285 -7.49314,-6.78582 -8.16122,-7.0917 -10.46275,-4.79018 -2.45138,2.45139 -1.74463,7.64532 1.73765,12.76995 4.7752,7.02733 9.85502,9.65791 18.66082,9.66351 6.80434,0.004 7.74779,-0.34858 11.46303,-4.2879 z m -151.1748,-6.53107 c 10.11279,-6.62121 14.66612,-16.42775 9.21245,-19.84086 -1.64728,-1.03093 -3.66441,0.0369 -9.87967,5.23029 -8.10503,6.7724 -10.62958,7.63724 -14.35081,4.91621 -2.35699,-1.72346 -4.5045,-9.09633 -4.55356,-15.63334 -0.0647,-8.61869 -7.13075,-9.68352 -9.98206,-1.50427 -3.18157,9.12669 -0.63551,19.38166 6.38722,25.72628 4.23181,3.82317 5.66271,4.36595 11.50978,4.36595 5.05784,0 7.8848,-0.79067 11.65665,-3.26026 z m -358.73323,-5.91583 c 1.71249,-0.86653 4.45749,-3.55263 6.10001,-5.96914 2.47811,-3.64582 2.89308,-5.55539 2.43805,-11.21932 -0.47434,-5.90424 -1.16768,-7.39325 -5.13606,-11.03 -5.18865,-4.75504 -12.05775,-5.64023 -18.38362,-2.36898 -10.16569,5.25687 -10.08109,24.82742 0.13182,30.49472 3.72983,2.06975 10.85478,2.11423 14.8498,0.0927 z m 283.66642,-5.38606 c 0,-2.37499 -0.90734,-3.53453 -3.46657,-4.43013 -11.38541,-3.98428 -33.86193,-14.64813 -44.87338,-21.28988 -7.03877,-4.24555 -18.94228,-12.77862 -26.45225,-18.96237 -14.3028,-11.777 -17.8244,-13.77796 -20.15211,-11.45025 -2.28136,2.28136 2.48858,9.68878 13.08312,20.3173 20.83773,20.90457 54.92457,38.37451 75.87347,38.88611 5.61726,0.13717 5.98772,-0.0528 5.98772,-3.07078 z m 295.96374,-18.02006 c 2.05778,-1.46529 4.66226,-4.60462 5.7877,-6.97634 2.28687,-4.81919 2.713,-16.50998 0.78651,-21.57704 -1.05719,-2.78064 -1.91863,-3.24989 -5.35743,-2.91835 l -4.09766,0.39508 -0.63029,8.95117 c -0.34666,4.92313 -1.40881,9.88663 -2.36034,11.03 -2.33893,2.81043 -8.03729,2.61938 -13.05119,-0.4376 -5.08998,-3.10336 -8.10191,-3.20387 -9.58521,-0.31986 -2.19547,4.26873 1.45315,9.45786 9.2396,13.14068 6.2318,2.94751 14.05469,2.42468 19.26831,-1.28774 z m -541.99641,-1.03586 c 4.53966,-3.30556 9.04524,-12.46229 9.04524,-18.38269 0,-10.03977 -7.50982,-19.02812 -17.15041,-20.52699 -6.76442,-1.05169 -15.16659,3.46667 -18.54217,9.97125 -3.54318,6.82754 -3.60204,18.35113 -0.1178,23.06359 4.91433,6.64665 10.52354,9.52962 17.31085,8.89726 3.34489,-0.31162 7.59932,-1.67172 9.45429,-3.02242 z m 694.65203,-2.47524 c 3.6941,-2.58747 7.64347,-11.1328 7.67981,-16.61701 0.0433,-6.53877 -4.72785,-16.23826 -9.41145,-19.13289 -5.90843,-3.65161 -11.08031,-3.25271 -16.2088,1.25017 -9.93121,8.71972 -8.16736,29.29648 2.99549,34.94495 4.35808,2.20522 11.46311,1.99355 14.94495,-0.44522 z M 489.69892,633.45402 c 7.89845,-4.02949 11.10862,-10.44527 6.95231,-13.89471 -1.5597,-1.29443 -3.28959,-0.95936 -9.54857,1.8495 -12.29551,5.5179 -18.14747,1.80744 -17.80293,-11.28798 0.21015,-7.98721 -1.84379,-10.62631 -6.58789,-8.46476 -6.06076,2.76147 -6.47847,18.6411 -0.70368,26.75107 5.31301,7.46142 18.3134,9.83085 27.69076,5.04688 z M 228.13128,612.56847 c 14.25794,-6.76583 18.94775,-31.49051 8.4641,-44.62254 -16.21298,-20.30869 -45.85692,-2.934 -42.57898,24.95609 2.13107,18.1321 18.03168,27.29844 34.11488,19.66645 z M 315.8078,593.5122 c 1.71422,-1.1593 5.69812,-4.47976 8.8531,-7.37881 3.35883,-3.08635 8.84468,-6.40274 13.236,-8.00161 4.12482,-1.50185 9.89458,-3.61116 12.82168,-4.68736 6.6126,-2.43125 16.4993,-11.18921 21.56728,-19.10498 2.10956,-3.29499 5.35061,-10.2453 7.20231,-15.44515 1.8517,-5.19986 6.14193,-14.98241 9.53385,-21.73901 3.39192,-6.75659 6.16712,-13.42186 6.16712,-14.81172 0,-4.47576 -4.85194,-2.84917 -12.20307,4.09101 -5.79548,5.47151 -8.40074,9.50139 -15.03849,23.26202 -4.41575,9.15421 -9.82696,18.69219 -12.02492,21.19552 -4.29104,4.88724 -11.69498,9.07637 -22.00359,12.44961 -3.53938,1.15817 -9.00619,3.73622 -12.14848,5.72901 l -5.71326,3.62323 0.17305,-3.97898 c 0.14475,-3.32831 -0.28711,-3.97898 -2.64095,-3.97898 -1.88553,0 -3.91684,-1.66368 -6.15649,-5.04229 -7.17651,-10.82601 -20.20036,-22.20979 -27.50786,-24.04386 -3.69693,-0.92787 -3.6593,-0.41548 -0.82628,-11.25214 2.69051,-10.29152 0.55464,-27.71878 -4.30646,-35.13773 -1.86969,-2.85352 -1.73178,-3.04199 5.48597,-7.49704 10.7364,-6.62688 21.50529,-21.07835 21.60086,-28.9876 0.02,-1.65473 0.67841,-2.08442 2.37086,-1.54725 1.35087,0.42874 3.01553,-0.0665 3.93083,-1.16932 1.29117,-1.55575 1.20126,-2.5027 -0.48137,-5.07074 -2.40118,-3.66466 -2.13081,-3.76838 3.59125,-1.37754 8.85892,3.70149 23.52757,6.13705 32.71599,5.43212 15.6448,-1.20028 30.94625,-8.87667 36.43823,-18.28025 5.10701,-8.74441 0.0185,-10.06766 -12.8308,-3.33656 -16.54362,8.66636 -36.26354,8.68139 -54.96267,0.0419 -11.45867,-5.29422 -16.81754,-5.72188 -21.42345,-1.70966 -2.91961,2.54328 -3.29657,3.89132 -3.64891,13.04875 -0.63461,16.49367 -8.69662,28.69081 -21.20505,32.0814 -8.1393,2.20627 -10.68572,3.67757 -12.22969,7.06623 -2.1728,4.76877 -1.73771,6.69051 3.10754,13.72561 8.33813,12.10657 9.05154,23.71572 2.36717,38.52012 -3.6128,8.00154 -4.20899,10.3903 -3.10708,12.44923 1.94622,3.63655 5.91416,5.74654 14.03148,7.4614 13.67354,2.88865 25.42532,17.20029 29.43633,35.84839 1.0011,4.65432 6.07092,9.66087 9.78296,9.66087 1.61053,0 4.33079,-0.94852 6.04501,-2.1078 z m 131.55373,-34.35246 c 61.70114,-22.32574 122.394,-35.89539 181.25434,-40.52465 28.02193,-2.20388 93.92674,-0.84945 116.45119,2.39322 46.79015,6.736 83.23416,15.91852 115.85231,29.19041 6.84381,2.78464 13.58924,5.06299 14.98986,5.06299 3.55868,0 8.38163,-4.88893 8.38163,-8.49632 0,-7.19726 -3.62916,-9.66061 -27.73257,-18.82391 -71.85634,-27.31734 -169.06953,-36.94187 -258.32495,-25.57528 -57.27507,7.29393 -120.56561,23.39686 -167.0286,42.4969 -12.79712,5.26064 -16.51033,12.0758 -10.08195,18.50418 3.15744,3.15744 7.97359,2.38147 26.23874,-4.22754 z m -118.60027,-2.9326 c 24.15167,-21.09182 25.6856,-23.09587 40.2824,-52.62885 15.31856,-30.99331 15.86963,-32.44366 12.77778,-33.63012 -3.41982,-1.31231 -8.31818,5.56279 -19.02104,26.69697 -13.32983,26.32148 -15.77153,29.79309 -32.35326,46.00001 -14.20103,13.88004 -16.95547,17.50831 -15.31125,20.16871 1.61978,2.62085 4.85592,1.05171 13.62537,-6.60672 z m -2.27502,-33.35146 c 17.80402,-7.48639 33.8327,-22.46472 25.72473,-24.03903 -0.99038,-0.1923 -6.88488,2.876 -13.09888,6.81845 -6.21398,3.94243 -15.36656,9.0221 -20.33904,11.28812 -9.64622,4.39593 -11.22618,5.79977 -10.03144,8.91323 0.966,2.51736 7.13249,1.4815 17.74463,-2.98077 z m 650.45662,-11.03535 c 0,-2.62211 -0.49268,-2.92674 -16.38743,-10.1326 -5.54652,-2.51451 -12.78056,-6.29781 -16.07567,-8.40735 -9.77976,-6.26106 -13.65241,-1.79561 -5.17608,5.96841 12.2606,11.23027 37.63918,19.70675 37.63918,12.57154 z M 334.70918,492.73787 c 4.52165,-0.99908 11.89599,-3.64506 16.38743,-5.87994 6.74734,-3.35738 8.23555,-4.66536 8.56512,-7.52781 0.23533,-2.04402 -0.20998,-3.46441 -1.08615,-3.46441 -0.81676,0 -6.66883,1.93264 -13.00458,4.29473 -10.05498,3.7487 -15.87531,5.02462 -35.86384,7.86195 -3.43593,0.48771 -4.10547,1.08065 -3.78171,3.34902 0.69811,4.89128 10.68534,5.36541 28.78373,1.36646 z m 640.89104,-9.27753 c 1.94138,-0.73811 3.23349,-2.2092 3.23349,-3.68138 0,-2.11057 -1.18486,-2.55948 -8.50885,-3.2238 -13.57247,-1.23109 -22.98836,-3.21437 -31.56896,-6.64943 -8.5112,-3.40726 -11.3068,-2.83782 -9.77421,1.99095 2.30367,7.25824 35.97492,15.61036 46.61853,11.56366 z m -339.70407,-6.3008 c 8.53442,-4.56748 -0.34847,-21.06883 -12.55987,-23.33189 -3.71559,-0.68859 -4.91593,-0.30158 -7.45837,2.40473 -5.46923,5.82172 -3.10568,14.54088 5.33715,19.6888 4.34603,2.64995 10.99551,3.21083 14.68109,1.23836 z m 76.25917,-4.30828 c 7.85312,-5.98986 8.98662,-15.45952 2.25527,-18.84117 -6.03451,-3.03156 -14.38076,1.21075 -18.69493,9.50245 -2.47744,4.76155 -2.20978,8.13277 0.89196,11.23451 3.37224,3.37224 9.64351,2.60756 15.5477,-1.89579 z m -340.70651,-8.27147 c 8.62654,-3.24019 13.65576,-6.98231 13.65576,-10.16088 0,-3.88246 -1.99958,-3.9976 -10.33702,-0.59527 -17.11791,6.98546 -35.87159,6.95753 -51.26816,-0.0763 -3.72369,-1.70116 -7.85411,-3.093 -9.17872,-3.093 -3.1442,0 -4.33247,3.25376 -2.15513,5.90127 2.33688,2.84152 15.80981,8.83699 23.31546,10.37541 9.53208,1.95379 27.66168,0.76867 35.96781,-2.35118 z m 136.11354,-1.29039 c 16.81648,-5.23038 31.16712,-17.94567 39.82889,-35.29014 l 4.73905,-9.48955 v -17.648 -17.648 l -4.70673,-9.85727 c -6.62023,-13.8647 -17.17966,-24.61159 -30.82673,-31.37398 -9.57338,-4.74379 -11.42134,-5.20868 -22.90264,-5.76155 -14.65274,-0.70558 -22.49868,0.83082 -34.26118,6.70904 -14.30465,7.14864 -27.30576,21.21741 -32.24174,34.88946 -5.44496,15.08183 -4.65342,36.88111 1.84326,50.76419 4.56,9.7445 17.83247,24.07651 26.83328,28.97536 15.68248,8.53547 35.58318,10.74151 51.69454,5.73044 z m 340.61871,-11.40952 c 16.92282,-5.22693 31.23503,-20.5913 37.37344,-40.12095 3.213,-10.22232 3.47981,-31.72602 0.51949,-41.86756 -5.60466,-19.2005 -20.17401,-34.77418 -37.52706,-40.11393 -24.86097,-7.65006 -50.16074,2.2693 -65.32653,25.61278 -13.27429,20.43201 -13.8158,48.46452 -1.35327,70.05264 7.23161,12.52686 22.95967,24.42709 36.49393,27.61215 8.56835,2.01642 21.08373,1.52322 29.82,-1.17513 z m -155.03602,-23.687 c 27.02815,-13.39298 40.90767,-39.55212 37.39374,-70.47708 -2.43914,-21.46609 -16.70112,-41.37658 -36.72811,-51.27445 -11.87715,-5.87002 -30.54957,-8.48907 -42.09755,-5.90473 -11.99054,2.68336 -24.30655,9.72993 -34.17046,19.55053 -13.9981,13.93663 -19.82656,28.33202 -19.68949,48.62999 0.20348,30.13389 20.73045,56.44054 49.79332,63.81341 4.09445,1.03871 11.93736,1.53486 20.71038,1.31013 13.72468,-0.35153 14.41923,-0.50978 24.78817,-5.6478 z M 348.45784,416.0352 c 3.38279,-1.74931 5.8861,-5.38573 4.5958,-6.67604 -0.32779,-0.32778 -2.46835,-0.97667 -4.75681,-1.44196 -4.74285,-0.96432 -6.22349,-4.92773 -2.8781,-7.70416 1.62267,-1.3467 2.86557,-1.38818 6.13804,-0.20483 5.35753,1.93731 5.49465,1.91705 7.08031,-1.04579 2.10278,-3.92906 -3.40428,-8.81556 -9.93506,-8.81556 -13.38052,0 -20.40283,19.71567 -9.19103,25.8045 4.25533,2.31094 4.63324,2.31448 8.94685,0.0838 z m 70.60561,-48.5544 c 16.66702,-27.12193 37.58866,-41.21498 63.22901,-42.59176 17.4448,-0.93672 31.67408,4.39782 49.4858,18.55213 10.2784,8.16788 12.78814,9.07999 14.04945,5.10596 1.03796,-3.27034 -2.38572,-8.03825 -12.05577,-16.78913 -14.463,-13.08827 -29.62101,-18.93636 -49.08223,-18.93636 -31.35466,0 -60.01131,18.98085 -73.83799,48.90688 -4.94738,10.70798 -5.74543,18.33377 -1.91866,18.33377 1.68133,0 4.71121,-3.763 10.13039,-12.58149 z m 185.72379,-63.75159 c 11.86905,-11.86906 14.62088,-16.60342 10.96421,-18.86336 -3.6818,-2.27549 -22.55857,14.03235 -27.902,24.10482 -2.35519,4.43957 -2.5471,5.63302 -1.17221,7.28967 2.30526,2.77766 3.91525,1.66363 18.11,-12.53113 z m -74.02655,1.76552 c 0.14684,-8.17108 7.05843,-8.71948 9.13015,-0.72442 1.13675,4.38685 4.28445,5.85674 7.25772,3.38915 4.86897,-4.04089 -0.55299,-14.84809 -8.81771,-17.57569 -7.72122,-2.54823 -17.08456,4.08693 -17.08456,12.10666 0,6.37862 9.40037,9.14931 9.5144,2.8043 z"
     id="path39"
     transform="translate(72,139)" />
  <path
     style="fill:#ffffff;stroke-width:0.214711"
     d="m 246.68538,641.13235 c -1.64645,-0.82046 -4.85764,-3.93059 -5.47957,-5.30712 -0.49266,-1.09041 -0.51442,-1.33837 -0.51442,-5.86222 v -4.72365 l 0.60632,-1.23474 c 1.01598,-2.06898 4.35082,-4.76553 6.86382,-5.55008 1.82902,-0.57102 3.25212,-0.4339 5.10467,0.49183 1.51066,0.75488 3.9477,3.07452 4.8591,4.625 0.58942,1.00272 0.60153,1.09034 0.58682,4.24453 -0.0373,7.99638 -2.40823,12.12398 -7.76091,13.51099 -1.86168,0.48242 -3.0127,0.42992 -4.26583,-0.19454 z"
     id="path40"
     transform="translate(72,139)" />
  <path
     style="fill:#ffffff;stroke-width:0.214711"
     d="m 214.2819,605.30541 c -4.26861,-1.41909 -8.25398,-5.33149 -9.95482,-9.77255 -0.96498,-2.51968 -1.20146,-3.93174 -1.17382,-7.00913 0.0201,-2.24056 0.13259,-3.2024 0.57004,-4.8752 2.36006,-9.02479 10.05792,-15.97116 16.62586,-15.00277 3.95211,0.58271 6.52535,2.44179 9.28379,6.70725 3.04212,4.70411 3.94099,10.61373 2.48651,16.34747 -1.66895,6.57918 -5.58342,11.3182 -10.89496,13.18985 -1.90365,0.6708 -5.52256,0.88717 -6.9426,0.41508 z"
     id="path41"
     transform="translate(72,139)" />
  <path
     style="fill:#ffffff;stroke-width:0.214711"
     d="m 213.32311,664.39401 c -1.50526,-0.5949 -3.28392,-2.3484 -3.98105,-3.92473 -1.57848,-3.56922 -0.97414,-7.35436 1.61054,-10.08727 1.94245,-2.05386 4.56804,-2.70481 6.63553,-1.64513 2.06331,1.05754 4.07632,3.94965 4.54682,6.53248 0.45407,2.4926 -0.76684,6.32895 -2.49788,7.84882 -1.87674,1.6478 -4.19002,2.11523 -6.31396,1.27583 z"
     id="path42"
     transform="translate(72,139)" />
  <path
     style="fill:#ffffff;stroke-width:0.151777"
     d="m 221.06448,452.78908 c -0.64018,-0.85946 -2.64356,-4.90259 -3.55348,-7.17147 -1.78819,-4.45886 -2.97405,-8.341 -2.97405,-9.73611 0,-0.70389 0.0507,-0.83864 0.40244,-1.06909 0.64694,-0.42389 1.61978,-0.3119 6.73109,0.77484 8.4137,1.7889 12.14216,2.77142 12.14216,3.19971 0,0.81942 -11.40977,14.64717 -12.08591,14.64717 -0.1,0 -0.39799,-0.29028 -0.66225,-0.64505 z"
     id="path43"
     transform="translate(72,139)" />
  <path
     style="fill:#ffffff;stroke-width:0.151777"
     d="m 370.21921,311.97814 c -0.92927,-0.73097 -1.25909,-3.59276 -1.11249,-9.65297 0.22206,-9.17932 1.23715,-17.46677 2.7031,-22.06873 0.54733,-1.71821 0.86821,-2.38028 1.38939,-2.86669 0.46687,-0.43573 0.31399,-0.48429 3.82326,1.21421 3.93679,1.90542 9.49984,5.73381 18.50124,12.73221 1.66422,1.2939 3.3695,2.66799 3.78951,3.05353 l 0.76365,0.70098 -0.83097,0.52999 c -0.45704,0.29149 -4.07552,2.44218 -8.04108,4.77931 -9.27853,5.46837 -12.57773,7.46917 -15.4963,9.39772 -2.5335,1.67411 -4.06725,2.4834 -4.70684,2.48359 -0.21831,7e-5 -0.57042,-0.13635 -0.78247,-0.30315 z"
     id="path44"
     transform="translate(72,139)" />
  <path
     style="fill:#ffffff;stroke-width:0.151777"
     d="m 434.27763,277.43766 c -0.36454,-0.80008 0.34618,-4.541 1.48521,-7.81748 2.05592,-5.91399 3.71575,-6.64454 8.21012,-3.61355 2.33759,1.57646 6.05004,4.73958 5.88193,5.01159 -0.12765,0.20654 -2.65653,1.44956 -5.62147,2.76312 -3.05837,1.35495 -9.48148,4.04667 -9.65635,4.04667 -0.0669,0 -0.20162,-0.17566 -0.29944,-0.39035 z"
     id="path45"
     transform="translate(72,139)" />
  <path
     style="fill:#ffffff;stroke-width:1.15469"
     d="m 651.53843,421.94212 c -14.49361,-3.41677 -29.8213,-16.41147 -37.36724,-31.67965 -3.94141,-7.9749 -4.44897,-10.02432 -4.8707,-19.66692 -0.57252,-13.09016 2.03911,-23.03818 8.79039,-33.48373 19.68506,-30.45661 61.32082,-34.66047 86.09025,-8.69231 24.32333,25.50046 19.72104,65.74991 -9.7699,85.44321 -12.30012,8.21371 -28.9741,11.35593 -42.8728,8.0794 z m 25.68705,-28.86732 c 6.98327,-3.16591 10.17602,-6.30191 13.42047,-13.1819 5.26352,-11.16152 3.01741,-24.48814 -5.48961,-32.57087 -13.34347,-12.67797 -36.10587,-7.4974 -43.38461,9.87404 -2.10681,5.0281 -2.12345,16.07687 -0.0317,21.06921 5.91065,14.10711 22.11648,20.87046 35.48549,14.80952 z"
     id="path46"
     transform="translate(72,139)" />
  <path
     style="fill:#ffffff;stroke-width:1.15469"
     d="m 816.74753,440.07616 c -19.99548,-8.22431 -32.13591,-26.82354 -32.13591,-49.23246 0,-20.73313 11.78409,-39.84025 29.77014,-48.27031 5.78174,-2.7099 8.03812,-3.09463 18.14948,-3.09463 13.20325,0 18.40784,1.86576 27.47944,9.8509 11.2516,9.90405 16.97612,23.51363 16.97612,40.35935 0,17.7113 -6.17484,32.04139 -18.6332,43.24253 -11.0566,9.94083 -27.81228,12.81813 -41.60607,7.14462 z m 31.55502,-25.05858 c 14.62971,-7.46352 17.67729,-31.98751 5.39839,-43.44107 -5.94983,-5.54992 -18.16222,-7.84742 -26.00196,-4.89172 -3.92227,1.47875 -10.35298,7.44418 -12.55529,11.64686 -5.56005,10.61029 -4.34347,21.86415 3.30262,30.55056 8.6161,9.78841 18.65282,11.85092 29.85624,6.13537 z"
     id="path47"
     transform="translate(72,139)" />
  <path
     style="fill:#ffffff;stroke-width:1.15469"
     d="m 472.57054,452.12813 c -17.50546,-5.59605 -32.53375,-21.79456 -36.60529,-39.45565 -8.97914,-38.94876 30.90302,-75.89506 68.31957,-63.29033 18.55608,6.25109 31.33772,20.59436 36.28344,40.71647 6.05772,24.64635 -11.52189,54.2332 -36.93777,62.16706 -8.74705,2.73049 -22.27561,2.67058 -31.05995,-0.13755 z m 27.41008,-26.46987 c 9.92443,-4.51993 18.12463,-18.86085 16.11091,-28.17557 -3.27841,-15.16469 -14.38156,-23.64793 -29.51819,-22.55304 -8.69759,0.62912 -15.35545,5.04534 -19.73329,13.08927 -3.96835,7.29151 -4.89615,12.82956 -3.20288,19.1179 4.36933,16.22646 21.83679,25.12827 36.34345,18.52144 z"
     id="path48"
     transform="translate(72,139)" />
  <path
     style="fill:#ffffff;stroke-width:0.114118"
     d="m 945.54825,638.14886 c -5.06731,-2.35915 -7.65766,-10.85576 -5.25654,-17.24196 0.57617,-1.53243 1.17661,-2.52123 2.08149,-3.4278 0.6233,-0.62445 0.96477,-0.86849 1.49286,-1.0669 1.54807,-0.58163 3.19855,-0.0352 4.94001,1.63536 1.85317,1.77777 2.91694,3.73087 3.58097,6.57472 0.33547,1.43674 0.41364,4.40224 0.15657,5.93968 -0.4976,2.97585 -1.71947,5.20883 -3.64196,6.65574 -1.06288,0.79995 -1.8712,1.21314 -2.37041,1.21168 -0.21056,-6.1e-4 -0.6529,-0.12685 -0.98299,-0.28052 z"
     id="path49"
     transform="translate(72,139)" />
  <path
     style="fill:#ffffff;stroke-width:0.303624"
     d="m 450.12315,148.05141 c -10.02558,-2.20331 -18.42069,-9.44547 -21.57309,-18.61035 -3.90737,-11.35975 -1.30828,-23.05389 6.99912,-31.491298 4.10997,-4.17429 9.07267,-7.066709 13.86814,-8.082787 3.92649,-0.831956 10.74321,-0.411596 15.27929,0.942214 8.37111,2.498385 16.40023,11.138631 18.88029,20.317331 0.95911,3.54967 0.96509,11.29935 0.0116,15.1127 -2.26253,9.04925 -8.76026,16.96645 -16.56561,20.18451 -3.61442,1.49018 -5.90087,1.9551 -10.22006,2.07812 -3.21256,0.0915 -4.65701,-0.006 -6.67973,-0.45044 z"
     id="path63"
     transform="translate(72,139)" />
</svg>
