<?xml version="1.0" encoding="UTF-8" standalone="no"?>
<svg
   version="1.0"
   width="1081"
   height="791"
   viewBox="98 234 1081 791"
   preserveAspectRatio="xMidYMid meet"
   id="svg9"
   sodipodi:docname="frog3.svg"
   inkscape:version="1.4.3 (0d15f75, 2025-12-25)"
   xmlns:inkscape="http://www.inkscape.org/namespaces/inkscape"
   xmlns:sodipodi="http://sodipodi.sourceforge.net/DTD/sodipodi-0.dtd"
   xmlns="http://www.w3.org/2000/svg"
   xmlns:svg="http://www.w3.org/2000/svg">
  <defs
     id="defs9" />
  <sodipodi:namedview
     id="namedview9"
     pagecolor="#505050"
     bordercolor="#ffffff"
     borderopacity="1"
     inkscape:showpageshadow="0"
     inkscape:pageopacity="0"
     inkscape:pagecheckerboard="1"
     inkscape:deskcolor="#505050"
     inkscape:zoom="0.80943571"
     inkscape:cx="541.11771"
     inkscape:cy="395.95486"
     inkscape:window-width="1920"
     inkscape:window-height="1022"
     inkscape:window-x="0"
     inkscape:window-y="30"
     inkscape:window-maximized="1"
     inkscape:current-layer="svg9" />
  <metadata
     id="metadata1">
Created by potrace 1.16, written by Peter Selinger 2001-2019
</metadata>
  <g
     transform="translate(0.000000,1254.000000) scale(0.100000,-0.100000)"
     fill="#000000"
     stroke="none"
     id="g9">
    <path
       d="M7193 9900 c-18 -4 -40 -13 -49 -20 -53 -45 -125 -248 -239 -675 -15 -55 -28 -102 -30 -103 -2 -2 -34 8 -71 23 -220 88 -401 27 -550 -185 l-53 -76 -97 -13 -98 -13 -145 149 c-319 325 -461 420 -552 367 -78 -46 -87 -88 -96 -440 l-6 -263 -135 -45 -134 -45 -101 78 c-147 113 -261 189 -352 233 -67 33 -87 38 -122 34 -57 -7 -80 -23 -106 -71 -21 -38 -22 -52 -22 -328 l0 -288 -115 -81 c-124 -87 -216 -160 -318 -251 l-64 -59 -47 8 c-106 19 -158 1 -194 -67 -15 -27 -17 -49 -14 -110 l5 -77 -53 -52 -53 -53 -149 46 c-169 53 -323 87 -394 87 -101 0 -153 -45 -152 -129 1 -48 64 -225 164 -459 27 -63 49 -120 49 -128 0 -8 -33 -69 -74 -137 -78 -130 -143 -254 -196 -377 -18 -41 -36 -79 -40 -83 -4 -5 -34 14 -67 42 -200 165 -323 206 -394 130 -42 -46 -52 -114 -47 -332 l4 -188 -57 -34 -57 -35 -68 26 c-158 59 -366 95 -440 75 -122 -33 -125 -150 -12 -463 l49 -137 -39 -65 c-180 -299 -228 -684 -127 -1031 49 -168 96 -269 194 -419 l45 -69 -30 -21 c-136 -98 -186 -216 -150 -354 63 -246 359 -407 806 -436 318 -22 490 -62 775 -183 275 -117 398 -148 562 -141 91 4 118 9 170 33 115 51 184 162 169 272 -3 23 -4 43 -2 43 3 0 25 -9 50 -20 60 -25 182 -50 248 -50 64 0 146 21 190 48 70 44 128 126 128 182 0 24 10 25 133 5 183 -29 426 -54 647 -65 l225 -11 30 -37 c113 -140 260 -250 443 -332 226 -101 437 -152 632 -153 108 -1 133 3 184 22 68 27 129 83 146 136 9 28 16 35 29 29 117 -50 190 -68 281 -68 79 0 104 4 148 23 89 40 142 119 142 214 0 36 1 37 39 37 93 0 181 55 218 136 13 30 28 54 31 54 4 0 81 5 172 10 418 26 854 121 1172 255 45 19 83 34 84 32 1 -1 -7 -29 -18 -62 -34 -100 -11 -200 61 -273 101 -101 286 -109 479 -21 36 16 68 29 71 29 3 0 5 -30 3 -68 -3 -60 0 -74 30 -131 24 -47 46 -73 81 -97 62 -43 103 -54 199 -54 169 0 274 77 404 296 10 17 16 15 85 -24 223 -127 312 -156 458 -150 79 3 105 9 147 30 96 50 144 128 144 234 0 99 -29 162 -115 251 l-73 76 64 94 c103 154 168 309 210 503 27 126 25 388 -5 529 -24 113 -69 263 -107 354 l-25 58 31 97 c34 107 60 242 60 306 0 54 -31 103 -76 122 -49 21 -112 6 -232 -53 l-93 -46 -49 48 c-28 27 -50 53 -50 57 0 4 24 45 54 90 130 200 214 423 247 656 18 126 7 430 -21 566 -70 353 -244 689 -501 971 l-37 40 14 70 c18 93 17 255 -1 350 -71 375 -363 650 -711 671 -245 15 -464 -85 -626 -285 l-36 -45 -109 51 c-59 27 -132 58 -161 69 -60 21 -58 16 -66 160 -12 205 -59 503 -91 563 -40 78 -125 94 -210 40 -90 -57 -295 -273 -440 -463 l-59 -78 -91 7 c-49 4 -131 11 -182 14 l-92 6 -104 206 c-160 319 -336 604 -402 652 -34 25 -74 35 -112 27z m68 -243 c25 -35 97 -153 160 -264 66 -115 282 -543 277 -548 -2 -2 -28 4 -58 12 -72 21 -323 21 -395 1 l-50 -14 -80 70 c-44 38 -81 73 -83 78 -7 16 116 467 161 593 39 107 41 109 68 72z m1492 -329 c11 -46 36 -238 51 -393 24 -248 26 -263 39 -273 7 -6 50 -25 97 -43 47 -17 132 -54 189 -80 100 -47 103 -49 96 -76 -4 -16 -8 -30 -10 -32 -2 -2 -46 4 -97 12 -182 31 -310 40 -488 34 -151 -6 -233 -14 -410 -42 -34 -6 -36 -4 -69 51 -42 71 -145 181 -211 225 -47 32 -49 37 -50 78 l0 44 98 -7 c53 -4 169 -18 257 -31 143 -22 162 -23 182 -9 13 8 23 19 23 24 0 16 -36 48 -80 70 -22 11 -40 23 -40 26 0 19 311 377 365 420 38 30 51 30 58 2z m-3281 -210 c68 -56 328 -308 328 -317 0 -4 -39 -14 -87 -24 -49 -10 -143 -32 -211 -49 -68 -17 -125 -28 -128 -25 -8 7 11 441 20 455 4 7 9 12 11 12 2 0 32 -23 67 -52z m1303 -168 c71 -36 236 -156 242 -177 1 -4 -20 -21 -48 -38 -141 -83 -268 -257 -330 -450 -42 -132 -45 -243 -13 -460 5 -39 3 -43 -71 -125 -228 -253 -389 -603 -411 -891 -10 -130 19 -191 82 -175 32 9 47 44 79 195 65 307 191 552 406 791 54 61 99 115 99 121 0 6 -9 57 -21 112 -92 444 176 820 605 853 145 11 285 -26 416 -111 104 -67 171 -142 274 -308 27 -44 54 -49 153 -27 146 31 279 44 463 44 182 0 292 -11 472 -46 135 -26 151 -22 173 39 79 222 138 313 264 406 108 80 261 118 391 98 175 -27 311 -117 411 -269 111 -169 145 -371 99 -592 -11 -52 -20 -98 -20 -103 0 -4 35 -47 78 -95 164 -184 232 -281 320 -453 107 -209 168 -438 179 -668 6 -129 5 -134 -13 -127 -25 10 -198 32 -374 48 -190 17 -1481 17 -1835 0 -1082 -53 -2046 -147 -2428 -238 -104 -25 -139 -90 -74 -137 32 -24 32 -24 532 37 1066 131 2323 196 3365 175 316 -6 806 -33 819 -44 6 -7 -30 -171 -56 -250 -166 -506 -570 -852 -1180 -1010 -106 -28 -131 -41 -139 -72 -19 -73 36 -110 139 -93 150 24 339 86 495 162 56 28 104 49 106 47 6 -6 -40 -160 -80 -268 -192 -512 -575 -931 -1093 -1190 -368 -185 -826 -295 -1322 -317 l-144 -7 -39 58 c-101 147 -323 256 -550 272 -84 5 -98 9 -186 56 -52 28 -97 52 -99 54 -3 2 4 29 14 61 22 71 49 183 66 282 21 112 18 459 -4 577 -18 94 -72 295 -88 326 -6 9 -8 17 -7 17 2 0 60 -28 128 -63 186 -94 420 -167 533 -167 50 0 87 30 87 72 0 63 -13 71 -180 114 -136 35 -255 81 -391 150 -141 72 -243 145 -397 286 -68 62 -135 119 -148 126 -48 25 -92 -15 -73 -66 5 -12 47 -80 93 -150 137 -206 219 -396 267 -622 20 -90 23 -136 23 -315 1 -224 -13 -330 -67 -503 l-23 -74 -159 -2 c-175 -2 -211 -11 -222 -54 -13 -53 8 -62 182 -81 136 -14 259 -51 390 -118 103 -53 116 -57 207 -64 127 -10 205 -30 304 -79 131 -64 220 -176 194 -245 -13 -34 -40 -45 -115 -45 -64 0 -67 1 -114 45 -90 84 -224 138 -259 103 -27 -27 -12 -56 55 -115 83 -72 112 -103 141 -155 43 -80 17 -144 -65 -155 -110 -15 -315 72 -424 180 -69 68 -111 87 -148 67 -30 -15 -26 -54 10 -106 82 -119 89 -197 21 -236 -46 -27 -104 -30 -228 -14 -374 49 -718 220 -864 428 -33 48 -75 91 -123 126 -432 325 -669 813 -628 1294 7 80 25 179 51 283 22 87 40 170 40 182 0 34 -41 51 -73 30 -62 -40 -141 -223 -172 -400 -23 -129 -16 -399 13 -527 69 -297 220 -570 440 -794 l87 -89 -135 7 c-158 9 -314 27 -535 62 l-159 26 -64 69 c-75 81 -178 148 -293 190 -46 17 -86 32 -88 34 -2 2 27 37 64 77 344 375 386 1000 105 1563 -129 257 -342 497 -576 647 -68 43 -235 124 -304 146 -149 49 -232 63 -397 69 -90 3 -163 8 -163 10 0 2 16 42 35 89 125 303 327 618 588 919 123 143 165 183 171 164 2 -8 25 -115 51 -238 44 -212 45 -225 31 -256 -21 -43 -20 -57 4 -88 26 -33 66 -41 137 -27 120 25 313 153 313 208 0 44 -29 43 -135 -9 -126 -61 -136 -62 -146 -24 -19 66 -139 677 -139 705 0 16 4 31 9 34 21 13 197 -65 452 -201 172 -91 213 -105 237 -81 15 15 16 62 2 88 -18 33 -183 142 -354 233 -37 21 -72 40 -77 43 -10 6 97 100 213 187 424 318 1005 554 1713 696 83 16 174 33 203 37 l54 7 -21 -41 c-12 -23 -29 -63 -40 -89 -10 -26 -31 -74 -45 -105 -32 -69 -34 -120 -6 -148 23 -23 68 -26 92 -7 9 6 64 107 122 222 166 331 252 447 356 480 65 21 123 11 215 -35z m-2236 -304 c127 -85 210 -148 211 -159 0 -4 -28 -20 -62 -34 -35 -15 -113 -52 -174 -83 l-111 -57 -7 166 c-8 178 -2 241 23 241 5 0 59 -33 120 -74z m-1444 -1258 c82 -22 153 -42 157 -44 5 -3 -20 -38 -54 -77 -35 -40 -88 -105 -118 -144 -30 -40 -58 -69 -61 -65 -10 9 -106 240 -130 309 -10 31 -16 59 -13 64 7 11 43 4 219 -43z m-774 -1105 c65 -44 171 -130 294 -237 91 -80 141 -116 161 -116 21 0 47 27 49 51 1 21 7 24 45 27 24 2 82 -2 130 -8 546 -71 1003 -502 1150 -1085 68 -266 60 -533 -21 -753 -56 -154 -171 -310 -294 -402 l-51 -37 -149 -5 c-260 -9 -373 -52 -321 -123 12 -17 33 -20 187 -26 353 -15 543 -62 706 -176 157 -110 156 -251 -3 -277 -64 -11 -155 10 -319 74 -258 100 -441 142 -480 110 -25 -21 -18 -58 15 -78 16 -9 58 -33 92 -52 278 -158 256 -358 -37 -337 -108 8 -195 34 -415 124 -339 139 -468 171 -780 198 -291 25 -388 45 -520 108 -83 40 -181 136 -198 193 -21 73 16 147 93 184 l45 22 62 -57 c118 -107 262 -195 401 -244 97 -34 148 -39 167 -16 26 32 2 58 -112 125 -329 192 -552 434 -673 733 -76 186 -107 392 -86 573 20 171 99 389 190 524 17 25 31 52 31 61 0 8 -17 60 -39 115 -52 133 -101 289 -101 319 0 14 6 28 13 31 20 7 157 -23 272 -60 98 -31 100 -32 105 -66 7 -46 27 -48 81 -7 51 40 89 61 95 54 3 -3 5 -42 6 -88 0 -46 5 -92 9 -101 5 -9 25 -22 45 -28 93 -31 302 54 267 108 -11 17 -30 19 -113 11 l-45 -4 -7 80 c-3 44 -12 179 -19 301 -11 210 -8 294 10 294 5 0 33 -16 62 -37z m8528 -898 c35 -32 38 -39 31 -64 -9 -32 4 -67 31 -84 13 -8 37 1 105 37 165 88 235 119 244 110 13 -13 -15 -139 -62 -281 -23 -67 -45 -127 -49 -135 -7 -10 -18 -8 -54 12 -41 22 -46 23 -61 8 -22 -22 -11 -51 39 -105 53 -57 90 -77 132 -69 l33 7 22 -73 c24 -79 51 -200 46 -205 -2 -2 -31 12 -64 32 -33 20 -108 56 -167 80 -58 24 -115 51 -126 61 -45 41 -118 7 -140 -66 -24 -78 9 -134 53 -93 l23 21 106 -47 c128 -57 198 -97 206 -117 3 -9 0 -25 -6 -38 -12 -21 -121 -118 -205 -181 l-38 -29 -39 44 c-32 38 -41 43 -56 34 -47 -30 13 -188 84 -222 30 -14 37 -15 58 -2 57 36 196 148 263 214 l72 71 -5 -50 c-29 -250 -102 -443 -237 -622 -60 -82 -62 -83 -104 -83 -35 0 -47 -5 -60 -25 -25 -38 -9 -60 79 -112 261 -152 301 -343 72 -343 -91 0 -175 30 -308 109 -115 68 -173 91 -227 91 -48 0 -72 -23 -138 -131 -82 -136 -152 -189 -252 -189 -167 0 -193 123 -64 301 19 26 34 55 34 65 0 26 -29 54 -56 54 -46 0 -211 -49 -315 -94 -135 -57 -185 -70 -256 -64 -48 4 -61 10 -85 37 -33 37 -35 68 -8 120 53 105 250 202 459 226 67 8 101 29 101 65 0 28 -38 59 -79 65 -50 8 -63 17 -74 50 -9 27 -5 33 93 124 265 245 456 525 590 864 59 149 85 240 114 389 l21 108 90 79 c50 44 91 80 92 80 2 1 21 -15 42 -34z"
       id="path1" />
    <path
       d="M9993 8402 c-113 -40 -189 -124 -219 -241 -20 -82 -12 -151 27 -230 56 -112 162 -176 289 -175 92 0 149 23 218 88 109 102 137 254 74 387 -55 115 -149 179 -272 186 -46 2 -80 -2 -117 -15z"
       id="path2" />
    <path
       d="M5124 8311 c-58 -35 -69 -77 -67 -246 1 -82 9 -246 17 -363 12 -183 12 -218 0 -240 -30 -58 -7 -113 52 -128 41 -10 153 3 220 26 78 27 161 77 188 113 19 25 19 28 4 44 -15 15 -24 14 -110 -14 -102 -33 -165 -46 -172 -34 -16 25 -46 664 -32 678 16 16 173 -67 426 -226 85 -54 165 -101 177 -105 34 -11 77 35 69 72 -18 78 -428 357 -620 422 -74 25 -112 25 -152 1z"
       id="path3" />
    <path
       d="M7365 8277 c-160 -53 -259 -202 -242 -365 7 -71 56 -171 104 -213 68 -59 137 -84 233 -84 73 0 93 4 141 28 99 48 167 139 189 253 28 142 -61 306 -199 367 -57 25 -170 32 -226 14z"
       id="path4" />
    <path
       d="M9584 7201 c-60 -27 -114 -80 -140 -136 -29 -62 -30 -75 -3 -109 25 -31 57 -33 116 -6 53 24 136 100 157 145 48 100 -20 156 -130 106z"
       id="path5" />
    <path
       d="M8491 7174 c-38 -48 -22 -95 59 -167 63 -57 124 -87 176 -87 48 0 60 7 74 44 9 25 7 37 -15 82 -43 88 -141 154 -227 154 -38 0 -50 -5 -67 -26z"
       id="path6" />
    <path
       d="M4970 6699 c-14 -5 -35 -20 -47 -31 -44 -41 -46 -69 -33 -386 11 -259 11 -303 -2 -341 -18 -53 -14 -75 20 -101 35 -28 160 -28 241 0 111 37 158 77 127 108 -13 13 -26 13 -85 4 -38 -7 -83 -12 -99 -12 l-30 0 -8 178 c-5 97 -9 229 -9 292 0 103 2 115 18 118 23 5 158 -72 365 -209 170 -112 204 -125 236 -93 27 27 19 61 -26 110 -88 96 -369 286 -505 343 -64 26 -129 34 -163 20z"
       id="path7" />
    <path
       d="M5688 5170 c-84 -15 -107 -69 -108 -242 0 -137 26 -421 41 -450 15 -27 81 -41 143 -29 111 20 165 61 130 96 -11 11 -25 14 -45 10 -16 -4 -42 -4 -59 0 -23 5 -30 13 -35 38 -11 73 -25 338 -19 376 6 35 10 41 30 41 55 0 228 -74 377 -162 73 -44 113 -51 134 -22 23 31 16 70 -19 105 -94 94 -366 227 -493 241 -22 2 -57 1 -77 -2z"
       id="path8" />
    <path
       d="M3344 5106 c-102 -32 -286 -147 -306 -192 -14 -30 1 -69 29 -76 11 -3 66 18 127 47 128 62 179 80 201 71 14 -5 16 -16 10 -73 -11 -109 -43 -334 -48 -339 -2 -3 -25 1 -50 8 -48 12 -77 2 -77 -27 0 -37 134 -115 195 -115 39 0 72 36 78 82 2 24 14 102 25 173 28 176 36 330 20 375 -26 70 -107 96 -204 66z"
       id="path9" />
  </g>
  <path
     style="fill:#ffffff;stroke-width:1.23543"
     d="m 559.64914,744.65096 c -2.71794,-0.21067 -9.59718,-1.2303 -15.28719,-2.26583 -31.80873,-5.78889 -60.83011,-20.96924 -75.61859,-39.55419 -3.52986,-4.43602 -10.92737,-11.85092 -16.43893,-16.47755 -25.69854,-21.57245 -42.14251,-43.66829 -51.42291,-69.09716 -6.68492,-18.31712 -8.02046,-26.22303 -7.95755,-47.10594 0.0501,-16.62562 0.52115,-21.10284 3.57461,-33.97429 5.41154,-22.81166 5.57015,-23.97764 3.53815,-26.00964 -2.58918,-2.58918 -5.0082,-2.20892 -8.56323,1.34611 -3.75256,3.75258 -10.54757,18.09426 -13.44144,28.36982 -2.7927,9.91631 -3.89124,42.72094 -1.88915,56.41335 4.07675,27.88102 20.49099,60.19066 42.26433,83.19269 l 9.93774,10.49853 h -7.41617 c -10.42142,0 -29.68726,-2.04685 -52.61281,-5.58969 l -19.60858,-3.03026 -9.06334,-8.60928 c -6.72015,-6.38348 -12.04591,-10.06022 -20.59982,-14.22145 -6.34507,-3.0867 -12.20578,-5.61218 -13.02381,-5.61218 -2.35167,0 -1.88477,-0.83929 5.0035,-8.99406 13.01745,-15.41089 21.02979,-31.78093 25.22728,-51.54194 3.03603,-14.29306 3.02213,-43.4697 -0.0276,-58.06514 -7.45575,-35.68119 -23.75,-66.06193 -48.53718,-90.49789 -13.39582,-13.20601 -22.26583,-19.59576 -38.12983,-27.46779 -18.73594,-9.29715 -31.4533,-12.70006 -53.59145,-14.33998 -9.93487,-0.73593 -18.23915,-1.51121 -18.45394,-1.72284 -0.71566,-0.70509 7.2323,-18.38276 14.15216,-31.47689 3.7582,-7.11148 11.02477,-19.27778 16.14792,-27.03621 13.35173,-20.21965 44.84586,-58.63976 46.62028,-56.87267 0.41974,0.41801 2.78666,10.54455 5.25981,22.5034 4.09365,19.79476 4.35086,22.18506 2.87011,26.67178 -1.41215,4.27888 -1.3642,5.32875 0.36386,7.9661 2.52771,3.85776 7.48253,4.94745 14.91869,3.28097 13.27162,-2.97424 32.18234,-15.95378 31.38025,-21.53813 -0.56891,-3.96096 -3.71356,-3.7244 -14.69935,1.10577 -5.57897,2.45293 -10.80978,4.20422 -11.62402,3.89177 -2.08236,-0.79907 -16.12291,-72.24068 -14.51383,-73.84977 1.6071,-1.6071 11.13398,2.41974 38.68919,16.35323 24.96911,12.62583 29.03579,13.91821 30.58846,9.72096 2.79849,-7.56505 -2.54085,-12.82082 -27.79428,-27.35932 l -15.52433,-8.93742 4.78466,-4.16623 c 45.09657,-39.26773 110.76267,-67.90113 191.65132,-83.56865 9.00762,-1.7447 17.13762,-3.17219 18.06666,-3.17219 1.17251,0 -0.14939,4.25115 -4.32174,13.89857 -6.47143,14.96344 -7.33534,20.366 -3.77229,23.59052 2.94678,2.6668 7.98599,2.60967 10.35386,-0.11738 1.03249,-1.1891 7.37257,-12.61366 14.08908,-25.38792 6.71649,-12.77426 14.79706,-26.67801 17.95679,-30.89723 10.41342,-13.90508 20.63267,-16.72712 34.85265,-9.62453 8.14186,4.0667 24.26434,15.50021 24.26434,17.20745 0,0.57001 -3.09377,3.16715 -6.87504,5.77141 -16.08667,11.07931 -29.39827,33.42133 -32.73813,54.94728 -1.05679,6.81121 -1.0411,12.52416 0.0638,23.24126 1.36175,13.20797 1.30505,14.40942 -0.80395,17.03656 -1.24794,1.55456 -5.88263,7.25538 -10.29928,12.66851 -19.49612,23.89473 -33.65037,56.34947 -35.44865,81.28134 -1.02066,14.15082 1.11094,20.22987 7.09356,20.22987 3.7632,0 6.10251,-5.0394 10.48422,-22.58539 8.0914,-32.40094 16.69723,-49.02728 39.33151,-75.98784 5.86327,-6.98397 10.6604,-12.81849 10.66029,-12.9656 -1.2e-4,-0.1471 -0.83404,-4.62492 -1.85314,-9.9507 -6.76149,-35.33494 6.43762,-65.88326 34.14981,-79.03715 32.67624,-15.51011 65.88194,-5.5659 88.31454,26.44781 9.59271,13.68982 8.31935,13.12686 23.74601,10.49835 27.36581,-4.66279 61.36313,-4.69771 86.4423,-0.0888 5.99656,1.10201 13.07391,1.82519 15.72742,1.60706 l 4.8246,-0.39661 4.77556,-11.73657 c 6.18719,-15.20582 12.06879,-23.86416 21.1745,-31.17105 28.2707,-22.68587 68.27893,-12.04573 86.10693,22.90003 3.76303,7.37615 7.22025,22.61856 7.22025,31.83311 0,4.58793 -0.83381,12.69916 -1.85293,18.02495 -1.01911,5.32579 -1.85302,10.27298 -1.85314,10.99377 -1.2e-4,0.72078 4.73369,6.83615 10.51958,13.58971 30.25291,35.31261 43.7392,66.62555 47.0011,109.12889 l 0.8907,11.60512 -2.953,-0.71309 c -1.6241,-0.39221 -10.73608,-1.72222 -20.24888,-2.9556 -15.32344,-1.98675 -27.37015,-2.23952 -105.62914,-2.21627 -86.80995,0.0258 -96.48618,0.31795 -164.312,4.96128 -76.78337,5.25656 -151.70946,13.84115 -172.57009,19.77206 -10.82726,3.07831 -14.21104,11.00899 -6.43815,15.08933 3.32614,1.74603 0.73328,1.94669 51.75909,-4.00553 101.68807,-11.86203 201.92699,-17.90106 297.12058,-17.9004 48.95809,3.2e-4 116.91889,2.72444 120.31379,4.82261 1.9994,1.23568 -3.7455,23.54214 -9.50178,36.89407 -11.81156,27.39715 -33.13815,50.82668 -61.16301,67.19408 -11.37429,6.64294 -27.81801,13.41735 -45.72743,18.83857 -8.03543,2.43235 -15.67308,4.99147 -16.97257,5.68692 -3.47233,1.85834 -4.29416,6.78624 -1.77336,10.63346 2.07433,3.16581 2.37224,3.22926 12.18163,2.59464 11.47476,-0.74238 31.55022,-6.77936 48.57232,-14.60638 5.8531,-2.69134 10.93459,-4.60076 11.29222,-4.24314 0.35762,0.35763 -1.40746,6.90171 -3.9224,14.54241 -24.45631,74.30114 -85.31215,128.18063 -168.32622,149.02971 -27.00854,6.78323 -58.70906,11.21911 -80.379,11.24751 l -10.09153,0.0132 -2.65029,-4.28824 c -5.82413,-9.42366 -22.34088,-20.37419 -37.20381,-24.66595 -3.80253,-1.09801 -11.58415,-2.52906 -17.29249,-3.18011 -7.21385,-0.82276 -12.64024,-2.29996 -17.79485,-4.84425 -12.56433,-6.20165 -12.03651,-4.78271 -7.84392,-21.08659 7.54796,-29.35205 7.5022,-63.82798 -0.12363,-93.14682 -2.10249,-8.08339 -3.59043,-14.92937 -3.30653,-15.21329 0.28392,-0.2839 4.45312,1.46641 9.2649,3.88959 12.86682,6.47961 26.4157,11.63072 37.7229,14.34172 17.92552,4.29781 25.43648,2.62695 25.43648,-5.65849 0,-5.49916 -2.10993,-6.79558 -19.01763,-11.68515 -16.38766,-4.73917 -22.65016,-7.16844 -36.90557,-14.31595 -15.01398,-7.52785 -22.46984,-12.7969 -39.82251,-28.14259 -15.27413,-13.50755 -19.08903,-15.75877 -22.25376,-13.13227 -3.47321,2.88251 -1.87549,7.87127 6.91982,21.60668 20.84416,32.5518 29.54137,59.79703 29.54137,92.54252 0,18.90766 -1.69306,32.84085 -5.742,47.25436 l -3.17777,11.31233 -16.97247,0.42424 c -12.04611,0.30112 -17.56481,0.91641 -19.01326,2.11981 -2.18411,1.81464 -2.7935,8.19457 -0.8948,9.36802 0.63029,0.38955 7.16262,1.53811 14.51628,2.55236 15.93441,2.19774 27.66217,5.54678 38.64338,11.03521 10.71427,5.35501 14.69983,6.52363 27.57619,8.08568 18.9162,2.29475 35.50813,10.44598 42.55848,20.90801 3.07154,4.55784 3.64995,9.87987 1.32631,12.20352 -0.81966,0.81965 -4.75744,1.48251 -8.80712,1.48251 -6.68004,0 -7.75962,-0.393 -12.2678,-4.46586 -10.43299,-9.42561 -25.72725,-13.37404 -26.64757,-6.87948 -0.30977,2.18601 2.08691,5.44765 10.14592,13.8076 5.80331,6.02002 10.91059,12.37629 11.3495,14.12505 1.79003,7.13208 -2.38503,11.82755 -10.5167,11.82755 -9.9519,0 -28.65227,-8.87239 -39.20778,-18.60212 -5.97408,-5.50672 -10.71998,-7.76129 -14.08763,-6.69243 -4.26069,1.35229 -3.91731,5.0774 1.35322,14.6806 3.61767,6.59156 4.9754,10.41212 4.69731,13.21795 -0.66626,6.7228 -7.6716,9.78798 -20.15798,8.8201 z M 483.24343,574.48659 c 11.9308,-3.54306 13.37095,-10.51345 2.1722,-10.51345 -4.06673,0 -5.67874,-0.5868 -6.6627,-2.42533 -0.7139,-1.33394 -1.65377,-11.04724 -2.08859,-21.58511 -0.67421,-16.33944 -0.51942,-19.26382 1.05151,-19.86664 2.85258,-1.09464 12.5178,2.5542 29.74838,11.2307 16.91591,8.51803 21.01384,9.4628 23.21393,5.35189 3.40255,-6.35774 -3.77857,-13.71729 -23.08943,-23.66311 -26.18857,-13.48811 -42.20567,-14.35094 -46.33691,-2.49617 -2.61148,7.49374 -1.07493,50.51772 2.18767,61.25521 1.38894,4.57116 9.70751,5.71033 19.80394,2.71201 z M 416.95714,436.47344 c 7.88886,-2.34615 13.58972,-6.16797 13.58972,-9.11047 0,-3.78494 -2.12513,-4.2611 -12.28645,-2.75295 -4.84798,0.71955 -9.04155,1.08122 -9.31905,0.80373 -0.27749,-0.2775 -0.67225,-13.27363 -0.87723,-28.88029 -0.36507,-27.79458 -0.3221,-28.3671 2.09816,-27.9535 2.81536,0.48111 10.45238,4.94254 33.35657,19.48638 17.13002,10.87733 21.75336,12.81197 24.72462,10.34606 3.36701,-2.79438 2.17706,-7.98643 -3.0694,-13.39254 -9.84787,-10.14757 -35.72778,-27.51097 -49.36969,-33.12324 -9.79566,-4.02992 -16.30791,-3.81065 -21.37432,0.71965 l -4.03464,3.6077 v 39.10051 c 0,42.83816 -0.16964,41.85463 7.41257,42.97673 4.67053,0.69119 13.51911,-0.1534 19.14914,-1.82777 z M 781.16149,326.52377 c 3.91747,-3.91747 0.77514,-12.81663 -7.0087,-19.84886 -8.56084,-7.73422 -19.46666,-9.2458 -23.87774,-3.30954 -1.962,2.64038 -2.12056,3.75089 -0.97015,6.79485 3.30545,8.74618 15.89303,17.84607 24.68589,17.84607 3.1285,0 6.35531,-0.66714 7.1707,-1.48252 z m 73.64431,0.24709 c 2.94656,0 13.39984,-7.87167 16.93628,-12.75359 9.81802,-13.55337 -1.94451,-22.14523 -16.18997,-11.82587 -5.37667,3.89484 -10.52807,10.95905 -11.79752,16.17815 -0.63469,2.60941 -0.10138,4.04511 2.45059,6.59709 1.93782,1.93782 4.03276,2.966 5.16109,2.53302 1.04458,-0.40083 2.59237,-0.7288 3.43953,-0.7288 z M 439.02663,283.61551 c 7.99036,-3.17162 16.86422,-9.09337 17.97868,-11.99764 0.44648,-1.16348 0.0746,-2.85258 -0.82639,-3.75357 -1.36059,-1.36059 -3.40925,-1.11848 -12.09083,1.42885 -13.16955,3.8642 -15.55108,3.91338 -16.42,0.33914 -1.09284,-4.49527 -3.69188,-62.7163 -2.83785,-63.57034 1.17766,-1.17766 17.28495,7.35805 38.24087,20.26492 10.31032,6.35019 20.0193,11.87781 21.57552,12.2836 3.43367,0.89535 7.67166,-2.51416 7.67166,-6.1719 0,-7.10562 -37.83239,-34.33831 -59.65136,-42.93855 -9.71666,-3.82995 -16.42784,-3.41969 -21.14251,1.29247 l -3.83299,3.83096 v 18.20085 c 0,10.01046 0.27797,27.92984 0.61771,39.82084 0.33975,11.891 0.14751,23.12086 -0.42718,24.95526 -0.86468,2.76003 -0.47237,3.90779 2.27466,6.65481 3.17055,3.17056 3.74425,3.28973 12.78147,2.65508 5.24178,-0.36811 12.41746,-1.83763 16.08854,-3.29478 z m 221.86016,-26.69779 c 6.87649,-2.87317 14.88672,-10.9527 18.04343,-18.1995 7.0932,-16.28375 0.0992,-36.46659 -15.38811,-44.40631 -7.85165,-4.02521 -20.78492,-4.44791 -28.92673,-0.9454 -8.76491,3.77056 -16.90066,12.91428 -19.526,21.94513 -4.89947,16.8536 4.36648,36.09618 20.07842,41.69683 6.48789,2.31266 20.08162,2.2647 25.71899,-0.0908 z m 263.61449,-14.6615 c 11.91445,-6.1612 19.14943,-17.5961 19.2219,-30.38022 0.17349,-30.60484 -34.12656,-45.52645 -55.5061,-24.14692 -14.38159,14.38159 -13.30941,37.91218 2.30326,50.54856 8.3518,6.75968 24.86425,8.69301 33.98094,3.97858 z"
     id="path10"
     transform="translate(98,234)" />
  <path
     style="fill:#ffffff;stroke-width:1.23543"
     d="m 232.87829,732.73065 c -5.09615,-1.55909 -17.82962,-6.25681 -28.29661,-10.4394 -31.36529,-12.53353 -40.84523,-14.8325 -76.83253,-18.63256 C 102.12842,700.95329 88.246854,698.05817 79.476263,693.591 57.428108,682.36109 52.238049,665.98939 67.737973,656.56331 l 3.714846,-2.25913 6.278161,5.64801 c 13.450094,12.10009 34.50131,23.7651 47.9819,26.58801 6.3252,1.32454 7.34763,1.25333 9.24477,-0.64381 3.27003,-3.27003 1.33746,-5.23853 -17.04616,-17.36296 C 89.227248,649.61547 68.795554,626.65231 58.115395,601.32869 50.978171,584.40567 48.353163,571.6107 48.423878,554.08971 48.5115,532.37927 53.612811,514.44363 65.695396,493.36498 l 5.419427,-9.45445 -5.048132,-13.40098 c -7.017379,-18.62862 -10.151209,-30.27692 -8.570816,-31.85731 0.866841,-0.86684 5.651011,-0.15739 15.125985,2.24305 18.3036,4.63713 21.593804,6.068 22.097641,9.60999 0.610018,4.28845 4.037801,4.16714 10.350519,-0.36631 6.88631,-4.94537 7.92509,-4.00035 7.95278,7.23499 0.0236,9.59923 1.67369,10.80294 13.63544,9.94708 12.21744,-0.87416 22.12081,-7.21397 19.04444,-12.19164 -0.5368,-0.86856 -3.53817,-1.18949 -8.06313,-0.86219 -6.92566,0.50096 -7.23185,0.39743 -7.81557,-2.64263 -1.2288,-6.39967 -3.50846,-56.71373 -2.71318,-59.88236 l 0.82161,-3.27354 5.83551,3.94551 c 3.20953,2.17002 13.61871,10.44042 23.13151,18.37866 20.94733,17.48013 22.21566,18.24509 25.42906,15.337 1.30244,-1.1787 2.36808,-2.85337 2.36808,-3.7215 0,-2.69875 4.5569,-3.20961 16.10506,-1.8055 55.31115,6.72519 101.87054,51.21073 116.27124,111.0923 3.28278,13.65057 4.40673,38.75642 2.3174,51.76396 -3.94212,24.54238 -19.0026,49.90525 -36.56818,61.58328 -1.615,1.07369 -9.16054,2.14794 -20.41491,2.90644 -18.12215,1.22137 -24.71106,2.59418 -28.60232,5.9593 -2.52878,2.18686 -2.81217,5.5863 -0.61756,7.40767 0.84945,0.70498 10.9954,1.89892 22.54657,2.65322 33.02473,2.1565 50.65097,6.65018 65.23656,16.63158 9.18319,6.28437 14.47904,14.89064 12.21738,19.85444 -3.97687,8.72826 -15.11947,9.52509 -34.90938,2.49643 -27.58088,-9.79575 -39.02853,-13.17609 -46.8385,-13.83086 -6.47648,-0.54296 -8.44434,-0.28646 -9.73525,1.26901 -2.83879,3.42053 -0.30772,6.71896 9.49431,12.37277 20.44959,11.79531 26.95437,25.92383 14.3584,31.18677 -6.44005,2.69082 -21.76896,2.11924 -32.6791,-1.21851 z m 16.1407,-154.98426 c 3.73789,-3.02675 7.04495,-21.52657 8.13012,-45.48001 l 0.79276,-17.49934 -3.28363,-3.04317 c -3.77446,-3.49805 -8.91342,-4.82991 -14.67624,-3.80363 -6.69101,1.19158 -23.43575,9.97783 -29.96464,15.72295 -5.74044,5.05133 -6.06416,5.64341 -4.8982,8.9588 0.68666,1.9525 2.18546,3.73045 3.33066,3.951 1.14521,0.22055 8.44293,-2.41478 16.21717,-5.85629 7.77421,-3.44149 14.74792,-6.25727 15.49712,-6.25727 2.24506,0 2.12633,4.36206 -0.6956,25.55585 l -2.00452,15.05471 -5.97307,-0.70742 c -4.88432,-0.57847 -6.11889,-0.32739 -6.77315,1.37758 -1.3931,3.63039 6.68158,10.45701 15.56509,13.15925 4.76408,1.44917 5.69664,1.32823 8.73613,-1.13301 z"
     id="path11"
     transform="translate(98,234)" />
  <path
     style="fill:#ffffff;stroke-width:1.23543"
     d="m 716.0053,168.74562 c -2.72764,-4.01663 -9.41967,-11.35002 -14.87118,-16.29644 -6.9339,-6.29147 -9.91183,-9.85056 -9.91183,-11.84619 0,-2.49125 0.60912,-2.8527 4.80736,-2.8527 2.64405,0 13.06798,1.1079 23.16429,2.462 21.8779,2.93422 23.97719,2.99327 27.03101,0.76026 2.07982,-1.5208 2.14488,-1.96842 0.56312,-3.87432 -0.9836,-1.18517 -3.91136,-3.49504 -6.50614,-5.13305 l -4.71776,-2.97819 5.31734,-6.40474 c 10.77361,-12.9768 28.39813,-32.462958 31.38884,-34.704358 1.69406,-1.269616 3.38292,-2.005573 3.75304,-1.635459 1.03406,1.034059 3.69992,20.226077 6.03924,43.477567 1.16216,11.55126 2.58853,21.91289 3.16972,23.02585 0.58118,1.11296 7.32483,4.65025 14.98588,7.86066 20.07726,8.41347 23.19491,10.16032 23.19491,12.99631 0,2.95714 -0.41893,2.96848 -16.37756,0.44337 -16.8044,-2.65893 -52.4519,-2.64863 -70.62634,0.0204 -7.42275,1.09009 -13.93437,1.98197 -14.47026,1.98197 -0.53589,0 -3.20604,-3.28633 -5.93368,-7.30295 z"
     id="path12"
     transform="translate(98,234)" />
  <path
     style="fill:#ffffff;stroke-width:1.23543"
     d="m 612.96632,127.2706 c -8.32035,-7.67858 -8.20605,-4.71606 -1.19254,-30.907171 6.78606,-25.341745 12.72677,-42.830385 14.36555,-42.290219 0.80211,0.264387 5.2102,6.664105 9.79576,14.221596 8.91495,14.692815 34.885,64.325494 34.07947,65.131014 -0.26586,0.26586 -5.74884,-0.0134 -12.1844,-0.62052 -6.99076,-0.65953 -16.42559,-0.64587 -23.43759,0.0339 -6.45511,0.62581 -12.29251,1.12783 -12.972,1.11561 -0.67948,-0.0122 -4.4839,-3.02013 -8.45425,-6.68423 z"
     id="path13"
     transform="translate(98,234)" />
  <path
     style="fill:#ffffff;stroke-width:1.23543"
     d="m 440.68574,127.32252 c 0.32865,-11.94752 0.94745,-22.07266 1.3751,-22.50032 1.04643,-1.04642 8.5297,5.23176 25.43599,21.33984 l 14.09454,13.42909 -16.5654,3.93351 c -9.11097,2.16343 -18.44918,4.29062 -20.75159,4.72708 l -4.18619,0.79356 z"
     id="path14"
     transform="translate(98,234)" />
  <path
     style="fill:#ffffff;stroke-width:1.23543"
     d="m 342.20001,171.90644 c -0.97874,-16.96903 -0.18743,-23.61587 2.68048,-22.51535 2.86131,1.09799 27.19334,17.88256 28.89353,19.93115 0.84186,1.01438 1.31244,2.04554 1.04574,2.29147 -0.70979,0.65451 -30.62295,15.55372 -31.22722,15.55372 -0.28177,0 -0.90841,-6.86744 -1.39253,-15.26099 z"
     id="path15"
     transform="translate(98,234)" />
  <path
     style="fill:#ffffff;stroke-width:1.23543"
     d="m 197.35974,297.41698 c -8.93939,-22.46591 -8.67865,-20.53212 -2.63819,-19.56621 7.12743,1.13972 28.65383,7.07036 29.99436,8.26361 0.95773,0.85252 -15.19474,22.14644 -19.52561,25.74074 -1.21435,1.00782 -2.97957,-2.24692 -7.83056,-14.43814 z"
     id="path17"
     transform="translate(98,234)" />
  <path
     style="fill:#ffffff;stroke-width:1.23543"
     d="m 909.13255,722.80678 c -7.79455,-3.39259 -7.60027,-11.56965 0.59725,-25.137 5.80763,-9.61197 5.94576,-10.24544 2.84578,-13.05087 -3.45523,-3.12695 -8.07527,-2.46513 -25.53787,3.65827 -28.63374,10.04068 -32.12568,10.94779 -37.19674,9.66281 -5.79681,-1.46887 -9.76399,-6.50162 -8.64368,-10.96531 2.67562,-10.66052 21.53494,-21.56491 43.98728,-25.43327 4.41666,-0.76096 9.28116,-2.19008 10.81,-3.17582 5.43612,-3.50502 2.28185,-9.35546 -6.32534,-11.73203 -2.45057,-0.67664 -5.05907,-2.35786 -5.79666,-3.73606 -1.19089,-2.2252 0.33165,-4.1907 13.5954,-17.5508 24.39519,-24.57242 38.53504,-45.35939 51.67243,-75.96355 6.18657,-14.4119 15.1116,-44.79799 15.1116,-51.44883 0,-2.09026 2.48949,-5.07364 8.71837,-10.448 4.79511,-4.13727 9.43446,-7.52232 10.30968,-7.52232 2.67674,0 5.68052,4.31571 5.68052,8.16153 0,3.98055 2.9912,9.13447 5.3014,9.13447 0.80025,0 8.26253,-3.43977 16.58273,-7.64393 8.3203,-4.20417 15.5253,-7.24646 16.0111,-6.76065 1.7307,1.73071 -7.5966,36.11683 -10.7219,39.52714 -0.52,0.56744 -2.7273,0.11026 -4.9052,-1.01596 -7.9622,-4.11744 -10.0344,1.2985 -3.6034,9.41823 4.4464,5.6141 9.3449,8.47974 14.4952,8.47974 3.4929,0 3.7277,0.36743 6.1209,9.57457 1.3688,5.26602 2.802,10.99133 3.185,12.72291 l 0.6962,3.14834 -10.1533,-5.0016 c -29.35904,-14.46248 -31.83959,-15.13272 -36.73201,-9.92498 -6.02738,6.41585 -2.78468,20.69668 3.42373,15.07814 2.19975,-1.99075 3.07495,-1.72165 17.44618,5.36423 13.0456,6.43228 15.0769,7.83009 14.7435,10.14528 -0.2315,1.60734 -5.0293,6.58494 -11.9529,12.40072 l -11.56613,9.71556 -4.10411,-3.97786 c -5.00303,-4.84913 -7.98512,-4.26339 -7.94614,1.56077 0.0554,8.27295 7.8007,19.51835 13.42033,19.48491 2.54245,-0.0151 16.88605,-10.76397 27.18605,-20.3727 l 7.9458,-7.41257 -0.7661,7.41257 c -1.0979,10.6215 -6.3995,28.15368 -11.7681,38.916 -6.5708,13.17237 -14.9926,24.57498 -18.7491,25.38499 -6.0781,1.31063 -9.26573,3.63861 -9.26573,6.76692 0,2.33568 1.84712,4.29469 8.10943,8.60064 15.3967,10.58686 22.1586,18.12605 22.1586,24.70609 0,5.91796 -3.934,8.04936 -14.8568,8.04936 -9.59088,0 -9.76223,-0.0576 -28.59055,-9.6096 -26.09949,-13.24085 -27.67284,-13.08292 -38.64965,3.87952 -6.32215,9.76958 -10.80369,14.19234 -17.00649,16.78339 -5.57445,2.32859 -10.20169,2.37288 -15.31656,0.14661 z"
     id="path18"
     transform="translate(98,234)" />
</svg>
