<?xml version="1.0" encoding="UTF-8" standalone="no"?>
<svg
   version="1.0"
   width="977"
   height="760"
   viewBox="119 269 977 760"
   preserveAspectRatio="xMidYMid meet"
   id="svg8"
   sodipodi:docname="frog18.svg"
   inkscape:version="1.4.3 (0d15f75, 2025-12-25)"
   xmlns:inkscape="http://www.inkscape.org/namespaces/inkscape"
   xmlns:sodipodi="http://sodipodi.sourceforge.net/DTD/sodipodi-0.dtd"
   xmlns="http://www.w3.org/2000/svg"
   xmlns:svg="http://www.w3.org/2000/svg">
  <defs
     id="defs8" />
  <sodipodi:namedview
     id="namedview8"
     pagecolor="#505050"
     bordercolor="#ffffff"
     borderopacity="1"
     inkscape:showpageshadow="0"
     inkscape:pageopacity="0"
     inkscape:pagecheckerboard="1"
     inkscape:deskcolor="#505050"
     inkscape:zoom="0.82320485"
     inkscape:cx="636.53658"
     inkscape:cy="390.54678"
     inkscape:window-width="1728"
     inkscape:window-height="1056"
     inkscape:window-x="0"
     inkscape:window-y="33"
     inkscape:window-maximized="1"
     inkscape:current-layer="svg8" />
  <metadata
     id="metadata1">
Created by potrace 1.16, written by Peter Selinger 2001-2019
</metadata>
  <g
     transform="translate(0.000000,1254.000000) scale(0.100000,-0.100000)"
     fill="#000000"
     stroke="none"
     id="g8">
    <path
       d="M6062 9535 c-341 -62 -610 -271 -757 -589 -23 -50 -46 -102 -52 -116 -8 -19 -29 -33 -81 -54 -39 -15 -97 -44 -129 -65 -49 -31 -71 -39 -128 -44 -332 -30 -657 -262 -820 -587 -21 -41 -48 -104 -60 -140 -21 -63 -23 -65 -95 -108 -316 -187 -541 -496 -614 -845 -14 -65 -18 -72 -98 -155 -46 -48 -107 -118 -136 -157 -64 -86 -183 -318 -213 -415 -22 -72 -22 -72 -53 -66 -17 3 -76 9 -131 12 -337 21 -655 -176 -827 -512 -85 -166 -129 -325 -149 -542 -18 -205 17 -477 92 -714 l31 -97 -56 -62 c-116 -129 -217 -299 -263 -448 -38 -118 -39 -276 -3 -366 32 -82 114 -164 195 -194 153 -58 322 -31 458 73 l46 35 88 -88 c99 -99 184 -147 308 -177 218 -51 419 57 450 243 l6 41 56 -24 c115 -51 218 -74 332 -74 191 0 311 54 379 169 24 41 27 56 27 134 0 54 4 86 10 83 153 -64 377 -135 495 -157 l65 -12 65 -99 c115 -175 291 -344 453 -437 42 -24 65 -47 98 -99 24 -37 78 -101 119 -143 165 -168 332 -230 489 -183 67 20 144 92 162 153 7 22 14 41 16 41 2 0 25 -11 51 -24 103 -52 188 -70 327 -71 115 0 136 3 180 23 61 28 100 64 127 116 16 31 19 54 16 113 l-3 73 65 0 c122 0 228 38 287 101 60 65 70 172 25 263 -16 30 -27 58 -24 61 3 3 22 5 43 5 64 0 385 58 549 100 158 40 310 87 444 139 l75 29 75 -24 c80 -25 207 -44 297 -44 l56 0 13 -62 c10 -54 19 -70 58 -109 59 -59 123 -80 242 -80 88 1 172 18 247 51 l44 19 10 -27 c40 -112 115 -192 215 -231 173 -67 393 -17 523 118 32 33 66 78 76 100 10 23 21 40 24 39 3 -2 49 -24 101 -50 117 -59 190 -78 295 -78 135 0 234 37 311 116 59 61 84 132 84 238 0 207 -118 398 -384 618 l-29 24 16 90 c54 299 38 585 -45 824 -39 111 -107 246 -172 339 -60 89 -194 231 -271 291 -30 23 -55 46 -55 50 0 4 10 11 23 17 46 21 225 163 299 238 43 42 98 104 124 138 67 90 133 231 151 329 10 47 23 87 31 92 135 81 187 280 128 485 -48 168 -145 327 -295 483 l-94 98 31 68 c50 108 66 183 66 312 0 124 -18 214 -60 307 -14 29 -24 71 -24 95 0 267 -124 544 -308 692 -87 69 -141 99 -232 130 -281 93 -644 23 -935 -182 -27 -19 -91 -75 -140 -124 l-90 -88 -70 20 c-39 11 -127 31 -196 45 -231 45 -361 57 -633 60 l-259 3 -36 34 c-220 207 -496 350 -761 393 -114 18 -288 18 -388 0z m423 -154 c163 -35 324 -108 479 -219 98 -70 277 -246 370 -364 68 -86 90 -100 114 -76 22 22 12 66 -33 155 -25 48 -45 89 -45 92 0 9 392 -9 510 -24 276 -36 591 -120 789 -211 90 -41 115 -41 119 -2 3 24 -7 35 -75 85 -43 32 -95 67 -116 78 -20 11 -37 25 -37 31 0 18 118 123 193 172 454 293 936 211 1132 -192 53 -108 85 -241 85 -353 0 -67 -2 -73 -27 -91 -75 -52 -312 -158 -488 -218 l-130 -44 -30 35 c-32 38 -71 46 -82 18 -10 -25 23 -108 74 -192 97 -155 211 -264 365 -345 108 -57 201 -85 310 -93 l89 -6 61 -66 c107 -116 207 -282 242 -400 23 -80 21 -204 -5 -257 -21 -45 -71 -84 -108 -84 -12 0 -99 16 -194 35 -168 35 -436 80 -627 107 -58 8 -194 13 -350 13 -213 0 -280 -4 -410 -23 -417 -62 -964 -197 -1487 -367 -265 -86 -426 -148 -603 -230 -144 -68 -209 -85 -264 -71 -51 13 -44 71 18 145 29 35 34 46 26 62 -28 52 -135 -7 -182 -100 -33 -64 -35 -100 -9 -157 25 -55 75 -85 155 -91 78 -7 142 11 296 82 540 248 1627 547 2199 605 149 15 400 12 564 -5 152 -17 466 -69 687 -113 l135 -28 -3 -34 c-5 -45 -41 -135 -83 -208 -19 -32 -89 -112 -159 -182 -97 -98 -155 -145 -259 -215 -142 -94 -400 -229 -541 -284 -91 -35 -117 -55 -99 -78 16 -19 50 -16 164 11 113 28 212 61 299 100 l58 26 67 -44 c237 -159 424 -433 491 -721 55 -237 48 -453 -27 -782 -6 -24 -2 -27 107 -112 178 -138 303 -315 325 -463 10 -67 -16 -148 -59 -186 -53 -47 -123 -65 -225 -60 -106 6 -176 30 -272 94 -135 91 -128 88 -155 75 -13 -6 -27 -19 -30 -28 -42 -124 -122 -226 -212 -270 -119 -58 -291 -37 -363 44 -48 55 -59 92 -59 192 0 82 -2 91 -21 102 -29 15 -63 -1 -83 -39 -11 -21 -35 -38 -86 -61 -216 -96 -400 -75 -400 46 0 64 46 128 162 224 175 146 279 275 323 399 21 60 29 176 16 247 l-12 63 71 119 c91 153 161 301 200 420 31 96 60 238 60 296 0 35 -21 60 -43 52 -8 -3 -33 -65 -57 -137 -84 -259 -278 -603 -468 -830 -105 -126 -253 -266 -379 -359 -365 -271 -914 -468 -1493 -536 -189 -23 -209 -21 -282 22 -84 49 -274 134 -378 168 -47 15 -86 29 -88 30 -1 1 -10 47 -18 101 -20 121 -61 252 -115 360 l-40 82 46 65 c107 153 165 326 168 497 2 123 -5 160 -33 160 -26 0 -29 -7 -46 -106 -28 -158 -113 -358 -197 -459 l-30 -37 -51 50 c-121 117 -283 188 -294 130 -2 -9 7 -25 19 -35 91 -75 146 -127 192 -184 115 -143 199 -322 237 -508 19 -96 20 -105 5 -121 -19 -21 -16 -60 5 -70 8 -4 44 -19 80 -33 181 -72 365 -153 449 -200 112 -62 204 -147 222 -205 31 -106 -75 -157 -285 -137 -74 7 -79 8 -137 59 -68 59 -195 131 -251 141 -30 6 -38 4 -47 -13 -13 -25 0 -41 84 -105 86 -65 189 -174 219 -231 64 -122 5 -190 -164 -189 -104 1 -199 26 -308 79 -77 39 -95 52 -107 80 -17 40 -61 84 -85 84 -38 0 -45 -27 -27 -95 45 -167 -3 -255 -139 -255 -125 0 -258 96 -403 293 -40 53 -76 97 -80 97 -4 0 -46 25 -92 56 -204 136 -381 352 -510 619 -321 670 -222 1322 274 1791 83 79 224 182 305 223 79 40 42 80 -52 56 -356 -93 -704 -506 -813 -965 -34 -145 -43 -423 -19 -588 24 -164 76 -336 161 -536 l16 -39 -43 7 c-74 12 -303 93 -424 150 -102 49 -229 126 -303 185 l-25 19 43 48 c61 69 92 126 118 217 27 92 30 159 8 177 -21 17 -38 1 -59 -54 -35 -91 -82 -163 -150 -231 -79 -78 -147 -116 -253 -141 -85 -20 -353 -14 -453 11 -117 28 -139 30 -146 10 -24 -62 282 -165 489 -165 70 0 121 8 242 37 28 6 163 -84 241 -162 135 -135 139 -260 9 -325 -68 -33 -212 -40 -317 -15 -87 21 -288 117 -288 138 0 4 -19 28 -42 53 -43 47 -72 54 -92 22 -8 -13 -4 -37 17 -97 34 -103 35 -161 1 -229 -21 -43 -34 -56 -80 -78 -48 -24 -63 -26 -127 -22 -184 13 -330 127 -442 345 -45 88 -71 103 -100 59 -12 -18 -15 -36 -10 -69 7 -43 5 -48 -35 -91 -23 -25 -68 -58 -99 -73 -48 -24 -68 -28 -141 -28 -68 0 -93 5 -127 22 -209 112 -149 443 142 783 38 44 72 80 77 80 5 0 13 11 18 25 7 18 1 47 -26 126 -77 222 -122 506 -109 689 33 465 258 813 600 927 111 37 283 39 395 5 143 -45 261 -123 387 -255 184 -195 320 -465 405 -806 14 -59 42 -87 58 -61 29 46 0 264 -61 445 -108 325 -324 599 -585 746 l-62 34 28 80 c69 205 227 444 375 570 48 42 54 51 60 98 12 85 53 216 99 312 107 223 311 434 514 530 67 32 68 33 106 155 104 336 441 614 774 637 81 6 90 9 161 54 41 27 77 47 79 44 2 -2 -1 -27 -7 -55 -22 -100 -10 -170 28 -170 25 0 33 13 60 90 13 36 39 94 58 130 19 36 43 96 54 133 41 143 140 307 246 409 221 210 530 289 858 219z m3545 -1048 c49 -176 27 -359 -60 -496 -30 -47 -81 -87 -111 -87 -26 0 -156 55 -202 86 -41 27 -41 27 -17 36 169 63 236 160 229 335 l-4 84 70 39 c39 22 73 39 77 40 4 0 12 -17 18 -37z m-1242 -4203 c17 -11 32 -23 32 -28 0 -11 -152 -160 -226 -221 -33 -27 -71 -65 -84 -84 -19 -28 -32 -36 -68 -41 -80 -11 -242 -2 -242 13 0 3 28 21 63 38 132 69 386 250 451 322 24 26 33 26 74 1z"
       id="path1" />
    <path
       d="M5510 8491 c-14 -27 -3 -49 32 -67 24 -12 29 -20 23 -37 -4 -12 -9 -76 -12 -143 -11 -252 71 -452 256 -626 129 -121 275 -193 453 -224 422 -74 859 181 975 569 25 81 28 87 53 87 42 0 132 51 157 89 26 38 30 93 9 110 -18 15 -38 6 -65 -29 -37 -51 -75 -64 -181 -63 -289 3 -837 117 -1468 307 -171 51 -216 56 -232 27z m316 -165 c76 -24 183 -56 236 -71 96 -27 96 -28 85 -52 -23 -51 -117 -71 -152 -33 -28 31 -35 24 -35 -37 0 -122 43 -217 135 -301 222 -203 579 -84 655 217 l11 44 47 -7 c162 -24 262 -36 295 -36 47 0 48 -14 7 -113 -78 -185 -244 -332 -455 -403 -116 -38 -303 -45 -429 -15 -274 66 -478 266 -546 535 -26 102 -26 316 -1 316 4 0 70 -20 147 -44z"
       id="path2" />
    <path
       d="M4579 8070 c-118 -62 -181 -227 -122 -317 58 -88 216 -64 299 45 44 57 57 102 52 170 -4 48 -10 60 -41 89 -33 30 -43 33 -94 33 -37 -1 -71 -8 -94 -20z m141 -70 c63 -63 -44 -230 -149 -230 -97 0 -78 156 28 227 42 29 94 30 121 3z"
       id="path3" />
    <path
       d="M9179 7657 c-44 -29 -77 -105 -63 -144 5 -15 22 -34 37 -43 25 -14 30 -13 65 5 52 28 89 102 73 146 -21 60 -58 72 -112 36z"
       id="path4" />
    <path
       d="M8410 7610 c-47 -47 -13 -121 75 -161 77 -36 135 -15 135 47 0 45 -23 79 -75 109 -52 31 -107 33 -135 5z"
       id="path5" />
    <path
       d="M4035 7391 c-95 -25 -196 -114 -248 -220 -42 -86 -50 -197 -18 -249 67 -106 212 -93 335 31 78 77 118 162 123 257 5 84 -11 128 -58 163 -29 21 -90 30 -134 18z m95 -98 c19 -24 21 -37 17 -84 -6 -69 -35 -127 -95 -191 -96 -103 -197 -118 -221 -33 -26 95 68 258 182 314 58 29 91 27 117 -6z"
       id="path6" />
    <path
       d="M4529 7110 c-73 -38 -129 -128 -129 -206 0 -67 67 -134 133 -134 126 0 237 158 193 275 -31 79 -117 107 -197 65z m109 -66 c47 -33 16 -146 -48 -179 -38 -20 -84 -19 -101 1 -33 39 -1 130 61 171 39 27 58 29 88 7z"
       id="path7" />
    <path
       d="M3672 6510 c-135 -31 -211 -216 -124 -302 66 -67 182 -41 248 55 91 132 17 279 -124 247z m85 -101 c25 -53 -33 -148 -101 -165 -86 -21 -99 96 -19 166 45 40 101 40 120 -1z"
       id="path8" />
  </g>
  <path
     style="fill:#ffffff;stroke-width:1.42782"
     d="m 424.06135,712.62612 c -7.07197,-3.36379 -19.87905,-15.51168 -29.2156,-27.71184 -2.588,-3.38175 -9.28104,-9.25209 -14.87343,-13.04517 -11.87396,-8.05359 -29.32491,-25.67777 -37.62783,-38.00132 -13.86968,-20.58599 -25.14017,-48.16646 -29.72289,-72.7361 -3.53045,-18.92793 -2.29239,-47.00382 2.82942,-64.16371 10.18878,-34.1362 36.67948,-67.53817 67.63675,-85.28285 9.63872,-5.52491 9.73435,-9.19022 0.22797,-8.73765 -10.17443,0.48437 -27.71415,10.03268 -40.69054,22.15119 -27.9317,26.08513 -43.28435,57.41813 -46.48494,94.87044 -2.69028,31.48077 1.56897,55.1982 16.55883,92.207 0.76915,1.89898 0.30553,2.49868 -1.93168,2.49868 -4.43984,0 -33.25152,-10.60185 -44.91215,-16.52636 -12.58155,-6.3924 -28.1239,-16.45733 -28.1239,-18.21252 0,-0.71139 2.02029,-3.59443 4.48954,-6.40675 10.31612,-11.7494 16.63723,-38.81207 9.06546,-38.81207 -1.16888,0 -4.37345,4.5213 -7.24234,10.21812 -6.54382,12.99432 -17.22104,24.33821 -27.57028,29.29176 -6.88703,3.29639 -10.31921,3.92181 -24.43249,4.45213 -11.42689,0.42938 -20.14419,-0.0824 -28.66759,-1.68308 -16.25113,-3.05191 -17.32351,-2.99961 -16.76487,0.81754 0.30171,2.06158 2.68416,4.22607 7.03342,6.38994 15.37187,7.64789 39.08868,10.80545 57.50262,7.65565 l 10.53056,-1.80132 8.38683,5.6954 c 9.96634,6.768 19.148,16.39898 21.82745,22.89558 5.98728,14.51675 -11.20995,24.73138 -34.86164,20.70675 -12.59813,-2.14374 -29.50305,-10.62459 -34.99178,-17.55468 -3.06051,-3.86422 -5.63783,-5.69828 -8.00749,-5.69828 -4.76273,0 -5.53928,2.99718 -2.83378,10.93737 6.89592,20.23841 -2.50647,35.01539 -20.89412,32.83765 -15.78796,-1.86984 -28.34423,-11.44865 -39.99102,-30.50794 -4.90957,-8.0342 -8.09295,-11.83926 -9.90495,-11.83926 -3.15284,0 -5.61687,5.49825 -4.455056,9.94103 0.60399,2.30966 -0.592247,4.54739 -4.655256,8.70829 -13.13414,13.45058 -32.356771,13.16328 -42.660611,-0.63759 -4.301555,-5.76147 -4.06932,-22.81793 0.465796,-34.21037 4.122025,-10.35474 17.968665,-31.17133 25.745591,-38.7051 3.410922,-3.30426 5.82625,-6.97318 5.82625,-8.85014 0,-1.76333 -1.652741,-8.43791 -3.672758,-14.8324 C 62.454769,492.904 64.834138,450.00063 83.702598,418.06605 90.80814,406.04003 105.36167,392.04639 116.367,386.65831 c 28.74292,-14.07222 56.56375,-8.88695 81.92202,15.2687 6.1848,5.89149 13.99244,14.56692 17.35029,19.27871 8.69077,12.19505 18.66678,32.79603 23.70324,48.94855 6.75983,21.67945 7.65625,23.87007 9.76797,23.87007 6.74159,0 2.70534,-30.89923 -7.25378,-55.53084 -10.05897,-24.87852 -31.57615,-51.27076 -51.45165,-63.10884 l -9.48915,-5.65185 4.63569,-11.38676 c 7.90614,-19.42007 16.67605,-32.81678 31.28874,-47.79607 8.39161,-8.60213 9.23573,-10.06389 11.54338,-19.98942 5.54067,-23.83125 16.75791,-43.21611 34.86323,-60.2483 6.14817,-5.78377 15.00366,-12.55471 19.67883,-15.04657 10.95492,-5.83891 12.36267,-7.53548 16.78079,-20.22354 8.15123,-23.40884 25.63958,-42.77404 49.05886,-54.32385 7.62107,-3.75852 11.0916,-4.70893 31.55565,-8.64155 4.21363,-0.80974 9.35376,-2.64279 11.42253,-4.07344 2.06876,-1.43065 4.44322,-2.99073 5.27655,-3.46684 1.01132,-0.5778 1.48611,2.5492 1.42781,9.40365 -0.0843,9.9078 0.0331,10.2693 3.3341,10.2693 3.03038,0 4.33596,-2.14391 11.42252,-18.757 4.40061,-10.31634 9.23395,-21.82932 10.74075,-25.5844 4.44545,-11.07836 16.15951,-27.29746 24.85746,-34.417237 27.82247,-22.774295 67.4545,-26.443576 104.2015,-9.647362 18.00455,8.229469 29.06354,16.759854 50.15472,38.687015 17.01263,17.686924 20.3665,20.562824 22.20291,19.038734 3.00784,-2.49628 2.71973,-5.54305 -1.40637,-14.872914 -1.96324,-4.43925 -3.56954,-8.47289 -3.56954,-8.963646 0,-0.490755 10.44091,-0.501929 23.20201,-0.02483 33.52562,1.25342 65.35388,7.658018 94.24007,18.96334 7.2617,2.84204 15.29127,5.49431 17.84349,5.89392 4.2147,0.65992 4.6404,0.3917 4.6404,-2.9236 0,-2.92596 -2.12465,-5.1336 -10.70862,-11.12693 -5.88974,-4.112216 -10.70862,-7.949939 -10.70862,-8.52827 0,-2.582421 17.21408,-16.021789 27.02739,-21.100813 16.95358,-8.774575 28.55993,-11.880388 44.36341,-11.871473 32.76826,0.01848 55.65567,18.785432 64.34516,52.760996 1.51921,5.94006 2.76219,13.90186 2.76219,17.69288 0,6.42194 -0.36575,7.11992 -5.35431,10.21808 -6.92566,4.30121 -32.23733,15.39602 -46.45326,20.36177 l -11.11482,3.88251 -3.25537,-3.05826 c -1.79045,-1.68205 -4.65962,-3.05826 -6.37592,-3.05826 -4.63385,0 -4.01913,4.95635 2.14552,17.29891 7.7703,15.55728 24.48218,31.85908 40.50424,39.51033 12.47147,5.95569 23.2017,8.87029 32.65639,8.87029 4.83887,0 6.19647,0.86191 11.807,7.49604 8.99424,10.63516 14.93606,19.69552 19.96738,30.44723 7.77667,16.61835 6.81859,33.9631 -2.20252,39.87396 -3.41909,2.24027 -5.02654,2.09946 -30.46034,-2.66841 -52.4229,-9.82733 -55.68567,-10.1873 -91.8164,-10.12972 -36.82808,0.0587 -45.85214,1.19274 -92.09413,11.57341 -55.98101,12.56695 -113.85786,30.66362 -153.54617,48.01014 -19.51428,8.52907 -25.48525,10.30829 -29.8961,8.90833 -3.99152,-1.26686 -3.614,-4.92422 1.25689,-12.1768 4.74655,-7.06743 4.38335,-9.96453 -1.24918,-9.96453 -5.183,0 -10.83658,4.59847 -14.51269,11.80424 -3.82577,7.49912 -2.93838,15.69578 2.26227,20.89643 3.39195,3.39195 4.71174,3.70864 15.45567,3.7086 11.26374,-5e-5 12.57175,-0.36124 31.79305,-8.77947 46.68051,-20.44437 116.93957,-41.15698 184.13166,-54.28264 18.53922,-3.62154 22.63089,-3.90726 56.39873,-3.93833 38.8067,-0.0357 39.99233,0.093 93.14769,10.11412 l 19.61517,3.69794 -0.84227,3.74916 c -0.46324,2.06203 -2.72873,7.88929 -5.03439,12.94945 -3.31696,7.27956 -7.38523,12.37131 -19.48682,24.38921 -20.96837,20.82336 -31.41397,27.30433 -85.97156,53.34107 -5.12437,2.44553 -4.55161,5.78284 1.08571,6.32598 5.7201,0.55112 24.74845,-4.266 38.17923,-9.66529 9.55803,-3.84241 10.17492,-3.91598 14.119,-1.68404 7.59113,4.29579 26.44491,23.1733 33.01588,33.05744 20.99407,31.57962 26.17152,65.15333 16.93891,109.8422 l -2.2277,10.78277 6.20017,4.90736 c 35.10184,27.7827 47.56764,58.55233 28.52028,70.39731 -4.3056,2.67751 -7.12603,3.20883 -16.60884,3.12875 -12.82196,-0.10829 -17.94381,-1.85332 -31.6815,-10.79404 -11.81413,-7.68883 -14.00807,-7.19658 -19.90155,4.46533 -2.5796,5.10444 -7.2402,11.57407 -10.35693,14.37698 -9.87955,8.88475 -24.52909,11.03316 -35.83625,5.25549 -9.24694,-4.72496 -11.61491,-8.82742 -12.68205,-21.97136 -0.83974,-10.34302 -1.17201,-11.26229 -4.2271,-11.69515 -2.28044,-0.32308 -4.78596,1.04408 -8.02444,4.37863 -10.57329,10.88697 -39.62187,14.87312 -45.39366,6.22908 -3.95837,-5.92824 0.77626,-14.14336 15.60375,-27.07421 13.40365,-11.68913 23.56072,-23.37399 28.71769,-33.03728 3.41038,-6.39046 3.83827,-8.82331 4.08038,-23.20055 0.26231,-15.57606 0.41994,-16.30961 5.21586,-24.27287 12.63504,-20.97949 20.86798,-40.36059 24.60454,-57.92136 2.59241,-12.18358 2.62959,-18.7255 0.11829,-20.80971 -2.79318,-2.31812 -4.03372,-0.34434 -10.22131,16.26266 -22.01498,59.08664 -61.04877,105.85188 -110.61858,132.52894 -33.22483,17.88064 -80.97445,31.98028 -124.6164,36.79706 l -15.38846,1.69843 -18.16522,-8.55313 c -9.99085,-4.70423 -22.34156,-10.04206 -27.446,-11.86185 -5.10445,-1.8198 -9.40446,-3.3783 -9.55558,-3.46336 -0.15112,-0.0851 -1.59303,-6.19472 -3.20424,-13.57704 -3.07491,-14.08872 -6.71758,-24.93594 -11.56423,-34.43614 l -2.89748,-5.67954 3.52295,-4.61881 c 9.76254,-12.79936 17.93187,-37.31827 17.94302,-53.85307 0.007,-10.4419 -1.15082,-14.27816 -4.30946,-14.27816 -2.66276,0 -3.32874,1.35282 -4.92031,9.99472 -2.53052,13.74023 -12.2554,37.00018 -19.0479,45.55875 l -2.7287,3.43818 -7.97085,-6.49299 c -13.06854,-10.64557 -25.96055,-15.41855 -27.66259,-10.24146 -0.28288,0.86045 4.69607,6.6431 11.06434,12.85035 17.52859,17.08536 27.94806,35.71814 33.59878,60.08361 1.55779,6.71707 1.70387,9.82886 0.56159,11.96324 -2.86247,5.34857 -0.4026,7.59345 15.39003,14.04496 28.55672,11.66578 44.11371,19.91042 52.45731,27.80046 6.20237,5.86522 7.86906,8.36607 7.86906,11.80749 0,7.52377 -4.10681,9.7376 -19.06563,10.27757 -12.09784,0.43671 -13.42848,0.20497 -18.05759,-3.14478 -13.05242,-9.44508 -24.61243,-15.58002 -29.64161,-15.73091 -8.68032,-0.26045 -7.56846,3.49313 3.74159,12.63122 11.18051,9.03343 19.30947,18.31192 22.28739,25.43908 6.09148,14.57897 -14.93875,19.5196 -40.49584,9.5137 -12.32695,-4.82613 -13.6085,-5.70417 -19.14505,-13.11682 -2.80591,-3.75673 -5.09216,-5.35431 -7.66237,-5.35431 h -3.6632 l 1.01643,9.63776 c 1.63154,15.46987 1.44165,16.92294 -2.7606,21.12518 -4.63003,4.63005 -13.28186,4.66065 -22.90995,0.081 z M 254.86516,364.96822 c 10.07802,-7.24336 13.31515,-21.24346 6.49006,-28.06854 -2.67528,-2.6753 -5.01453,-3.50464 -9.88515,-3.50464 -10.62318,0 -19.44997,9.6 -19.44997,21.15378 0,12.56105 12.15314,18.10397 22.84506,10.4194 z m 89.9524,-59.92031 c 10.37122,-7.5934 13.45013,-22.06506 6.23048,-29.28472 -5.63955,-5.63954 -14.3878,-5.29025 -21.38554,0.85386 -9.13012,8.01633 -11.66522,18.88679 -6.06497,26.00635 5.49223,6.98224 13.71223,7.92141 21.22003,2.42451 z m -63.53781,-7.1641 c 6.58226,-3.00659 17.19092,-13.963 19.96243,-20.61678 5.39321,-12.9479 3.79063,-26.46273 -3.59056,-30.27969 -17.05249,-8.81819 -41.83391,12.98413 -41.97556,36.92947 -0.0452,7.64435 0.3418,8.69787 4.58972,12.49339 5.53365,4.94432 12.36662,5.42348 21.01397,1.47361 z m 268.42941,-55.00187 c 25.85713,-8.201 44.5164,-25.57394 54.51047,-50.75263 3.91676,-9.86774 4.6232,-10.75645 9.96602,-12.53739 7.69604,-2.56534 13.54063,-8.8389 13.82741,-14.84228 0.31994,-6.69782 -3.71274,-7.13441 -9.96096,-1.0784 -4.8626,4.71302 -4.95509,4.73614 -18.05368,4.51314 -28.21383,-0.48035 -73.31876,-9.75986 -137.88543,-28.36741 -25.21981,-7.26812 -29.56214,-7.71531 -30.99773,-3.19222 -0.71827,2.26311 -0.15462,3.80162 2.04552,5.58318 2.78391,2.25427 3.03992,3.86806 3.07192,19.36415 0.0192,9.2977 0.7008,19.79625 1.51468,23.33009 5.39803,23.43806 27.23841,47.13265 52.05386,56.47317 19.44229,7.31805 39.95812,7.83401 59.90792,1.5066 z m 193.23045,-4.93885 c 1.27604,-9.01491 -5.58637,-15.90218 -15.85492,-15.91236 -4.36103,-0.004 -5.69416,0.67337 -7.01131,3.5642 -3.5086,7.70051 5.94818,16.82575 16.67968,16.09491 4.7717,-0.32496 5.78945,-0.94133 6.18655,-3.74675 z m 63.34889,-2.7104 c 4.78404,-5.10966 5.91014,-9.1523 3.82454,-13.7297 -3.10588,-6.81668 -9.39964,-6.23727 -15.42271,1.41984 -8.36694,10.63686 2.4327,22.09919 11.59817,12.30986 z M 349.48612,212.5214 c 2.17505,-1.11154 5.86953,-4.6644 8.20994,-7.89525 3.54967,-4.90018 4.2553,-7.2383 4.2553,-14.10001 0,-7.43248 -0.42365,-8.58223 -4.39301,-11.92222 -7.22359,-6.07826 -18.05003,-4.07885 -26.08764,4.81781 -10.30549,11.40695 -10.0495,27.41292 0.49651,31.04302 5.4367,1.87139 11.33442,1.21717 17.5189,-1.94335 z"
     id="path9"
     transform="translate(119,269)" />
  <path
     style="fill:#ffffff;stroke-width:0.559885"
     d="m 269.86473,291.55963 c -2.26776,-0.39904 -3.65534,-1.49867 -4.75343,-3.76701 -5.12909,-10.59529 9.91081,-32.80492 23.23157,-34.30637 2.33721,-0.26343 2.65557,-0.13186 4.75086,1.96343 2.22253,2.22252 2.24579,2.28934 2.24579,6.45181 0,8.04551 -3.33245,14.99865 -10.65918,22.24032 -5.12676,5.06725 -11.12028,8.06806 -14.81561,7.41782 z"
     id="path10"
     transform="translate(119,269)" />
  <path
     style="fill:#ffffff;stroke-width:0.559885"
     d="m 336.38634,207.33302 c -0.98142,-0.25803 -2.32824,-1.15891 -2.99292,-2.00195 -1.64636,-2.08813 -1.37547,-7.60642 0.56996,-11.61074 1.69321,-3.48517 5.96813,-7.82867 9.10765,-9.25377 4.88946,-2.21942 9.7574,-0.84112 11.06936,3.13417 2.71697,8.23248 -9.56671,21.88486 -17.75405,19.73229 z"
     id="path11"
     transform="translate(119,269)" />
  <path
     style="fill:#ffffff;stroke-width:0.239915"
     d="m 331.83928,299.42348 c -2.0524,-0.73178 -3.02431,-2.39057 -3.02805,-5.16808 -0.003,-2.27884 0.43054,-3.91931 1.70096,-6.43535 2.35566,-4.66533 8.28069,-9.12235 11.35921,-8.54482 0.4721,0.0886 1.49023,0.56942 2.26251,1.06857 1.13554,0.73394 1.53447,1.17393 2.08546,2.30011 0.59593,1.21805 0.67836,1.64956 0.65767,3.44312 -0.0567,4.91961 -3.24106,10.4611 -7.0947,12.34651 -2.66317,1.30296 -5.92499,1.70948 -7.94306,0.98994 z"
     id="path12"
     transform="translate(119,269)" />
  <path
     style="fill:#ffffff;stroke-width:0.239915"
     d="m 242.67545,360.34464 c -1.9054,-0.8605 -2.9006,-2.49524 -3.0667,-5.03742 -0.24075,-3.6849 1.24886,-7.2058 4.36865,-10.32594 4.18822,-4.18868 8.91435,-5.03911 11.69898,-2.10515 0.99496,1.04832 1.39297,2.25806 1.38604,4.21278 -0.0118,3.34407 -1.54577,6.51873 -4.6959,9.71887 -1.52836,1.55262 -2.3377,2.16133 -3.79203,2.85199 -2.20709,1.04814 -4.50414,1.31482 -5.89904,0.68487 z"
     id="path13"
     transform="translate(119,269)" />
  <path
     style="fill:#ffffff;stroke-width:0.390133"
     d="m 512.83026,234.40216 c -3.59271,-0.36353 -9.15345,-1.44866 -12.70253,-2.47879 -23.64433,-6.86283 -41.60355,-23.99572 -49.3081,-47.03937 -2.62883,-7.86261 -3.25047,-12.37929 -3.29684,-23.954 -0.0343,-8.55551 0.0523,-10.15161 0.6181,-11.39974 0.60994,-1.34543 0.73806,-1.4255 1.7556,-1.09714 3.01775,0.9738 29.04154,8.83957 36.20964,10.94447 9.16473,2.6912 10.11607,3.12177 9.72745,4.40258 -0.78649,2.59216 -3.36972,4.58921 -7.2083,5.57261 -3.39206,0.86901 -5.87188,0.32792 -8.30245,-1.81155 -0.96193,-0.84672 -1.9353,-1.5395 -2.16304,-1.5395 -0.87931,0 -1.22179,1.67579 -1.22179,5.97832 0,11.91698 3.73359,20.48663 12.64706,29.02859 5.52474,5.29448 10.98027,8.35953 18.03559,10.13283 1.98082,0.49787 4.24091,0.66709 8.72081,0.65295 5.22533,-0.0165 6.55703,-0.15551 9.79972,-1.02297 7.0369,-1.88247 12.98579,-5.22309 18.2395,-10.24246 5.35205,-5.11332 9.53018,-12.22131 11.58109,-19.70219 0.55884,-2.03845 1.08428,-3.92572 1.16764,-4.19393 0.20474,-0.65876 0.66881,-0.6324 8.2351,0.46781 10.63795,1.54685 18.7421,2.54359 23.64459,2.90806 5.41523,0.40258 5.92798,0.67736 5.60885,3.00569 -0.25656,1.87182 -2.73152,8.26624 -4.75348,12.28131 -8.15806,16.19974 -24.26024,29.62543 -43.1344,35.96462 -3.59528,1.20753 -9.80267,2.46053 -14.86543,3.00066 -3.49004,0.37234 -15.84408,0.46395 -19.03438,0.14114 z"
     id="path14"
     transform="translate(119,269)" />
  <path
     style="fill:#ffffff;stroke-width:0.390133"
     d="m 862.5848,208.57795 c -3.4703,-1.22677 -7.76704,-3.06185 -11.31387,-4.832 -2.63644,-1.31579 -7.6076,-4.54917 -7.6076,-4.94818 0,-0.14382 1.44837,-0.8449 3.2186,-1.55796 8.65514,-3.48637 14.82868,-8.47604 17.81553,-14.39914 2.7397,-5.43299 3.72018,-11.65077 3.30494,-20.95859 l -0.26279,-5.89065 2.68939,-1.48577 c 8.66374,-4.78633 11.1001,-6.05993 11.59247,-6.05993 0.98342,0 2.58878,5.36462 3.58686,11.98612 0.73693,4.88901 0.73776,14.43804 0.002,19.32133 -1.0295,6.82994 -3.56889,14.19518 -6.82704,19.80116 -3.06358,5.27118 -8.8144,10.15559 -11.93235,10.13463 -0.62961,-0.004 -2.54924,-0.50419 -4.26582,-1.11102 z"
     id="path15"
     transform="translate(119,269)" />
</svg>
