<?xml version="1.0" encoding="UTF-8" standalone="no"?>
<svg
   version="1.0"
   width="830"
   height="753"
   viewBox="208 301 830 753"
   preserveAspectRatio="xMidYMid meet"
   id="svg6"
   sodipodi:docname="frog14.svg"
   inkscape:version="1.4.3 (0d15f75, 2025-12-25)"
   xmlns:inkscape="http://www.inkscape.org/namespaces/inkscape"
   xmlns:sodipodi="http://sodipodi.sourceforge.net/DTD/sodipodi-0.dtd"
   xmlns="http://www.w3.org/2000/svg"
   xmlns:svg="http://www.w3.org/2000/svg">
  <defs
     id="defs6" />
  <sodipodi:namedview
     id="namedview6"
     pagecolor="#505050"
     bordercolor="#ffffff"
     borderopacity="1"
     inkscape:showpageshadow="0"
     inkscape:pageopacity="0"
     inkscape:pagecheckerboard="1"
     inkscape:deskcolor="#505050"
     inkscape:zoom="0.64410992"
     inkscape:cx="546.49058"
     inkscape:cy="461.87769"
     inkscape:window-width="1728"
     inkscape:window-height="1056"
     inkscape:window-x="0"
     inkscape:window-y="33"
     inkscape:window-maximized="1"
     inkscape:current-layer="svg6" />
  <metadata
     id="metadata1">
Created by potrace 1.16, written by Peter Selinger 2001-2019
</metadata>
  <g
     transform="translate(0.000000,1254.000000) scale(0.100000,-0.100000)"
     fill="#000000"
     stroke="none"
     id="g6">
    <path
       d="M3564 9210 c-238 -62 -441 -253 -527 -495 -72 -204 -58 -439 38 -631 l44 -88 -54 -56 c-129 -130 -232 -312 -281 -495 -51 -191 -32 -407 50 -582 105 -221 267 -377 666 -643 102 -68 190 -131 197 -139 7 -9 29 -40 49 -69 l37 -53 -32 -122 c-117 -443 -396 -1239 -459 -1310 -44 -49 -245 -140 -400 -181 -85 -22 -109 -25 -134 -17 -17 6 -55 11 -83 11 -163 0 -287 -115 -289 -269 -1 -83 16 -132 63 -184 92 -102 263 -117 375 -32 26 20 44 25 90 25 l57 0 -30 -44 c-26 -37 -40 -47 -88 -62 -83 -26 -165 -108 -188 -189 -82 -280 249 -483 489 -300 49 37 95 113 102 169 8 56 39 86 156 146 100 53 209 80 314 80 73 0 83 -2 89 -20 11 -35 104 -109 158 -125 28 -8 60 -15 71 -15 16 -1 13 -5 -15 -20 -20 -11 -57 -42 -83 -71 -130 -144 -86 -364 88 -445 102 -47 206 -40 297 22 47 31 57 34 125 34 41 0 74 -3 74 -8 0 -4 -18 -30 -41 -57 -33 -40 -50 -52 -92 -63 -101 -25 -162 -76 -208 -169 -19 -38 -24 -64 -24 -128 0 -70 4 -87 30 -133 56 -102 153 -157 275 -156 91 0 155 26 218 87 50 48 70 83 87 147 10 41 16 47 80 81 109 59 241 74 298 34 18 -13 22 -26 23 -92 1 -101 22 -150 90 -212 64 -58 123 -81 215 -81 77 0 131 17 194 60 84 58 129 149 127 257 -1 76 -24 133 -75 187 -36 38 -37 40 -37 120 0 45 7 121 15 169 29 165 56 219 249 512 217 327 296 453 411 655 49 85 90 157 92 159 2 3 54 -5 116 -17 212 -42 479 -72 633 -72 59 0 68 -3 112 -37 27 -21 81 -53 120 -72 40 -19 72 -38 72 -41 0 -9 -182 -88 -305 -132 -60 -22 -168 -55 -240 -73 -127 -33 -131 -33 -185 -19 -185 50 -365 -66 -386 -249 -10 -86 16 -158 79 -222 104 -103 267 -115 383 -28 26 19 43 23 102 23 47 0 72 -4 72 -11 0 -7 -21 -36 -46 -65 -31 -37 -53 -54 -69 -54 -51 0 -136 -42 -185 -90 -95 -96 -116 -236 -53 -352 31 -57 103 -119 160 -139 54 -19 159 -16 220 5 91 30 193 144 193 213 0 39 169 112 296 128 46 6 134 -8 134 -21 0 -3 -12 -17 -26 -32 -47 -48 -74 -122 -75 -199 -2 -147 93 -258 244 -289 116 -24 223 11 306 101 76 84 100 187 66 285 -14 41 -14 44 11 90 80 147 287 373 469 511 55 42 177 127 270 189 237 156 252 167 327 227 70 56 160 167 197 240 87 173 60 389 -68 551 l-42 52 39 53 c22 28 52 73 67 100 l27 47 77 0 c148 0 254 44 361 150 134 133 190 322 145 493 -58 221 -228 357 -449 357 l-82 0 -24 83 c-142 495 -531 963 -1077 1294 -132 80 -407 214 -568 278 -66 27 -307 110 -535 186 -228 75 -539 180 -690 232 -151 51 -296 99 -322 106 l-48 11 0 68 c0 98 -33 222 -88 326 -60 116 -191 253 -297 312 -272 150 -576 129 -830 -58 -76 -56 -169 -170 -220 -271 l-40 -76 -45 7 c-25 4 -100 7 -168 7 l-122 0 -5 35 c-25 168 -84 317 -161 410 -105 125 -254 222 -394 254 -91 22 -257 20 -346 -4z m294 -126 c133 -27 263 -106 338 -205 96 -125 132 -227 141 -392 7 -127 13 -137 76 -116 46 15 266 20 330 6 32 -7 37 -12 37 -36 0 -32 17 -57 46 -65 33 -10 53 15 75 94 48 176 174 342 319 423 315 174 721 39 872 -291 45 -98 59 -166 59 -282 0 -160 -36 -278 -129 -418 -41 -62 -37 -85 18 -90 28 -3 39 3 80 47 53 57 113 170 131 249 10 42 16 52 33 52 12 0 127 -37 256 -82 129 -44 440 -149 690 -233 511 -171 562 -190 745 -270 608 -265 1072 -670 1309 -1142 61 -120 117 -277 141 -393 22 -107 58 -134 111 -85 23 21 37 25 90 25 129 0 246 -75 300 -192 26 -56 29 -74 29 -158 0 -85 -3 -102 -31 -160 -62 -131 -186 -218 -325 -228 l-69 -5 0 36 c0 52 -9 67 -39 67 -40 0 -46 -8 -89 -107 -38 -87 -138 -247 -151 -241 -3 2 -40 21 -81 42 -166 86 -335 126 -529 126 -180 0 -330 -31 -352 -72 -8 -15 -7 -25 6 -44 16 -25 18 -25 93 -17 132 14 348 9 442 -11 401 -84 622 -322 544 -587 -44 -149 -132 -237 -444 -444 -310 -204 -394 -269 -551 -425 -136 -136 -185 -197 -276 -345 -62 -102 -66 -116 -42 -168 59 -131 -27 -257 -176 -257 -62 0 -97 14 -137 57 -65 69 -55 167 24 243 34 33 48 53 48 73 0 77 -68 149 -159 168 -133 27 -339 -28 -477 -129 -32 -23 -43 -39 -48 -69 -27 -148 -224 -210 -322 -101 -33 36 -44 63 -44 110 0 88 78 167 164 168 34 0 47 8 117 77 91 88 124 146 116 200 -13 79 -79 112 -223 113 -91 0 -103 -2 -120 -21 -28 -32 -93 -59 -142 -59 -134 0 -208 134 -131 239 49 68 128 88 217 57 38 -14 51 -13 163 10 211 43 448 128 682 245 l99 50 72 -13 c94 -17 525 -18 621 0 110 19 265 63 281 79 18 18 18 37 0 52 -10 9 -48 8 -157 -4 -812 -87 -1237 66 -1346 485 -60 233 34 525 241 748 228 244 572 394 906 394 132 0 202 -9 341 -44 88 -22 115 -20 125 7 14 35 -5 62 -64 88 -227 102 -578 101 -860 -2 -196 -71 -379 -189 -520 -335 -104 -107 -157 -183 -218 -309 -67 -141 -87 -226 -88 -387 -1 -156 13 -221 72 -343 21 -42 37 -78 36 -80 -6 -6 -236 13 -338 28 -139 20 -270 45 -286 55 -9 6 -3 30 24 98 68 170 79 228 80 417 1 171 -4 207 -46 368 -22 83 -40 104 -84 93 -36 -9 -39 -43 -16 -184 55 -343 34 -487 -118 -797 -116 -235 -259 -474 -543 -899 -166 -250 -181 -275 -208 -365 -44 -146 -62 -276 -57 -397 l5 -104 41 -35 c75 -65 90 -157 37 -235 -81 -118 -278 -107 -331 17 -17 39 -18 89 -3 131 19 56 -37 124 -130 157 -57 20 -192 19 -262 -1 -67 -20 -173 -74 -221 -114 -29 -24 -36 -38 -42 -82 -6 -43 -14 -59 -49 -94 -151 -151 -398 11 -292 192 26 45 79 77 147 89 40 8 120 82 173 163 41 62 40 125 -3 163 -42 37 -89 49 -203 49 -95 0 -96 0 -143 -37 -42 -32 -56 -38 -112 -41 -57 -4 -69 -1 -105 22 -130 87 -62 286 98 286 29 0 70 -7 91 -15 31 -13 51 -14 127 -5 321 38 663 180 742 307 122 195 452 914 543 1183 37 107 40 125 40 222 0 138 -45 385 -91 499 -22 54 -91 58 -105 5 -3 -12 11 -101 30 -197 59 -289 58 -366 -4 -531 l-21 -57 -97 34 c-481 168 -928 476 -1291 890 -109 125 -307 384 -322 422 -4 12 -101 84 -232 171 -371 249 -505 371 -604 552 -63 114 -78 179 -78 345 0 129 3 160 23 225 50 159 152 320 277 438 47 44 85 87 85 94 0 7 -15 34 -33 60 -75 105 -127 269 -127 397 1 250 140 483 352 590 135 68 246 84 386 55z m86 -3327 c97 -127 360 -396 470 -483 l39 -30 -101 -205 c-55 -112 -142 -280 -192 -374 -227 -420 -214 -384 -185 -496 32 -124 85 -209 129 -209 29 0 95 -40 118 -70 30 -42 34 -92 8 -144 -25 -53 -69 -84 -134 -92 -83 -12 -144 24 -192 111 -19 35 -78 47 -209 42 -100 -3 -134 -9 -207 -34 -108 -37 -221 -101 -292 -164 -48 -43 -54 -53 -59 -99 -12 -100 -68 -152 -173 -158 -54 -4 -70 -1 -107 21 -130 76 -83 266 73 292 31 5 48 17 74 48 67 83 96 138 96 184 0 82 -69 118 -216 111 -73 -3 -86 -6 -111 -29 -40 -38 -66 -49 -115 -49 -80 0 -148 61 -148 133 0 47 36 105 80 127 43 22 113 26 157 9 37 -14 123 2 273 51 199 65 364 160 400 230 93 182 330 858 430 1228 19 67 37 119 41 115 4 -5 28 -34 53 -66z m720 -675 c118 -80 258 -163 372 -220 81 -41 317 -140 386 -161 l37 -12 -14 -37 c-29 -81 -223 -499 -323 -696 -118 -232 -119 -233 -266 -308 -137 -69 -378 -135 -506 -138 -52 -2 -150 18 -150 30 0 3 16 14 36 25 46 24 92 77 117 134 25 56 27 160 4 213 -26 63 -93 125 -157 149 -54 19 -60 25 -79 70 -12 27 -24 68 -27 92 -6 41 0 54 112 258 66 118 171 317 234 442 63 125 117 227 119 227 2 0 49 -31 105 -68z"
       id="path1" />
    <path
       d="M3559 8787 c-103 -29 -181 -96 -228 -197 -21 -46 -26 -70 -26 -145 0 -78 4 -98 29 -152 37 -80 103 -143 182 -173 48 -18 73 -21 139 -18 128 7 225 68 286 180 32 60 34 68 34 163 0 91 -3 105 -29 158 -72 142 -245 224 -387 184z m36 -127 c24 -20 38 -81 26 -112 -15 -38 -68 -70 -106 -63 -37 7 -72 40 -80 76 -8 35 18 92 48 108 26 13 92 8 112 -9z"
       id="path2" />
    <path
       d="M5393 8546 c-92 -30 -176 -107 -221 -204 -23 -49 -27 -71 -27 -152 0 -83 3 -102 28 -155 104 -222 382 -280 561 -115 151 139 160 375 21 529 -19 21 -63 53 -97 71 -54 29 -75 34 -143 37 -49 2 -96 -3 -122 -11z m58 -135 c73 -73 5 -198 -93 -171 -51 15 -73 44 -73 97 0 38 5 49 33 74 44 40 93 40 133 0z"
       id="path3" />
    <path
       d="M3775 7596 c-47 -47 -44 -119 7 -144 52 -25 112 26 112 94 0 69 -71 98 -119 50z"
       id="path4" />
    <path
       d="M4212 7563 c-50 -10 -76 -110 -38 -152 23 -25 72 -28 103 -6 46 33 38 130 -13 154 -14 6 -26 10 -27 10 -1 -1 -12 -4 -25 -6z"
       id="path5" />
    <path
       d="M3480 7143 c-104 -9 -245 -34 -267 -48 -28 -19 -31 -66 -6 -90 13 -14 28 -16 67 -12 28 3 98 11 156 18 144 16 457 6 632 -21 281 -42 596 -117 879 -209 86 -28 168 -51 181 -51 27 0 58 28 58 52 0 53 -28 68 -261 142 -533 167 -1069 249 -1439 219z"
       id="path6" />
  </g>
  <path
     style="fill:#ffffff;stroke-width:1.17836"
     d="m 334.43613,709.87763 c -4.87355,-1.4577 -10.47066,-7.10786 -11.33823,-11.44571 -0.37645,-1.88224 -0.37492,-6.42132 0.003,-10.08684 0.67012,-6.49282 0.57782,-6.76835 -3.58128,-10.69088 -6.03967,-5.69614 -10.76536,-6.91473 -24.75093,-6.38241 -11.0637,0.42111 -12.65365,0.79775 -21.14983,5.01016 -11.66846,5.78524 -15.62525,9.45522 -16.66383,15.45602 -2.57643,14.88626 -23.00692,19.98008 -32.37407,8.07167 -1.74766,-2.22179 -2.46076,-4.82987 -2.46076,-8.99987 0,-5.2237 0.49224,-6.36375 4.46156,-10.33307 2.69292,-2.69292 6.47224,-5.00298 9.53367,-5.82734 9.82116,-2.64457 22.53388,-17.48766 22.53388,-26.31006 0,-3.57845 -0.7752,-5.32331 -3.49301,-7.8621 -4.18487,-3.90927 -7.87219,-4.75961 -20.51604,-4.73129 -8.66172,0.0194 -10.06835,0.3563 -14.75951,3.53507 -4.26441,2.8896 -6.3874,3.51363 -11.95357,3.51363 -5.81326,0 -7.27504,-0.47345 -10.36041,-3.35562 -6.61585,-6.18012 -6.44192,-15.22713 0.40839,-21.24177 4.85228,-4.26036 10.38156,-5.52157 16.61694,-3.79028 18.61831,5.16951 68.27102,-8.96276 85.30813,-24.2806 4.88545,-4.39242 7.61732,-8.91965 18.54984,-30.74046 14.31264,-28.56742 29.35945,-62.20784 38.25733,-85.53257 6.88275,-18.04228 7.98141,-26.76731 5.68001,-45.10766 -1.72117,-13.71639 -6.31423,-32.60139 -8.88226,-36.52071 -1.22908,-1.87583 -2.9451,-2.77742 -5.28629,-2.77742 -5.51448,0 -6.03182,2.56037 -3.4641,17.14439 6.59084,37.43456 6.7161,43.46158 1.1988,57.68138 -2.79362,7.20002 -2.74541,7.20035 -21.28234,-0.14542 -56.11967,-22.23895 -107.37447,-64.12079 -145.47111,-118.8688 -7.09641,-10.19813 -8.0312,-11.02196 -28.37061,-25.00314 -36.64446,-25.18918 -50.951323,-38.15575 -60.414387,-54.75466 -6.804991,-11.93647 -8.913816,-22.18271 -8.200806,-39.8456 0.467146,-11.57229 1.083614,-14.93194 4.221609,-23.007 4.835991,-12.44457 13.408923,-25.3055 25.104054,-37.6606 l 9.50638,-10.04284 -4.77682,-7.94946 c -14.58146,-24.26609 -15.1889,-50.342204 -1.69147,-72.611512 20.95705,-34.576882 66.61038,-40.45593 93.14408,-11.994714 11.45531,12.287457 15.86607,23.030708 17.44504,42.490676 0.45915,5.65872 1.45496,10.5236 2.29719,11.2226 1.0312,0.85582 3.77984,0.86176 8.97109,0.0194 8.20443,-1.33129 24.71653,-1.45203 29.13518,-0.21304 1.79554,0.50348 3.27229,2.21109 4.12425,4.76904 1.67397,5.0259 5.79337,6.83176 8.77734,3.84779 1.15065,-1.15065 3.58386,-6.29415 5.40712,-11.42999 7.56043,-21.296541 21.98185,-36.7079 40.26399,-43.027844 32.85652,-11.358156 69.9066,8.290573 79.92087,42.384354 2.45566,8.36035 2.48333,27.90361 0.0527,37.24603 -1.00496,3.86272 -4.49252,11.96941 -7.75014,18.01487 -3.25761,6.04546 -5.63359,11.74576 -5.27994,12.66736 0.38163,0.99449 2.2735,1.67561 4.65417,1.67561 3.23212,0 4.94141,-1.00921 8.80094,-5.19631 5.33053,-5.78294 10.21293,-14.69013 12.76754,-23.29244 0.96207,-3.23965 2.38871,-5.68365 3.31772,-5.68365 2.8586,0 139.82626,46.58474 156.27634,53.15191 83.35627,33.27733 138.11195,87.4989 156.05009,154.52793 1.65352,6.17866 3.92306,11.83058 5.30422,13.2093 l 2.41408,2.40982 4.6153,-2.65131 c 12.08462,-6.94212 30.8929,0.56109 38.2091,15.2428 2.56232,5.14191 3.05759,7.74074 3.05759,16.04394 0,8.27578 -0.49814,10.90701 -3.02359,15.97106 -6.16189,12.35586 -18.13208,20.75145 -32.03258,22.46686 l -6.18638,0.76344 v -4.791 c 0,-5.20346 -1.63446,-6.64548 -6.18902,-5.46036 -1.93503,0.5035 -4.47708,4.2682 -9.43487,13.97279 -3.73242,7.30597 -8.04481,14.85933 -9.58311,16.78524 l -2.79689,3.50165 -10.449,-4.89731 c -14.28466,-6.69503 -24.09086,-9.45462 -38.97821,-10.96896 -16.67436,-1.69612 -36.24322,0.21248 -44.23442,4.31429 -3.43905,1.76524 -4.49932,6.5775 -1.81473,8.23665 0.78416,0.48465 12.58247,0.94573 26.21847,1.02462 23.47491,0.13583 25.3541,0.3155 35.35409,3.38014 36.74116,11.25986 54.06453,34.87474 43.83112,59.74979 -5.33258,12.9623 -13.68486,20.5446 -48.12358,43.68718 -27.20481,18.28145 -36.36015,25.59392 -52.06423,41.58424 -12.22797,12.45087 -25.76417,30.72773 -29.65599,40.04216 -1.45965,3.49344 -1.43342,4.67299 0.21128,9.49992 4.6905,13.76586 -2.95379,24.17802 -17.75077,24.17802 -5.56392,0 -7.08716,-0.51687 -10.5918,-3.59397 -8.12585,-7.1346 -7.94461,-14.83559 0.58727,-24.95389 4.22394,-5.00935 4.79481,-6.33903 4.2261,-9.84357 -2.70722,-16.68266 -27.18382,-20.69053 -52.70083,-8.62939 -11.16647,5.27805 -14.97777,8.5741 -16.51478,14.28206 -1.71688,6.376 -7.55808,12.13113 -14.10067,13.89286 -4.47449,1.20485 -5.92178,1.09382 -10.50586,-0.806 -16.4116,-6.80163 -12.83289,-27.74328 5.23236,-30.61831 3.83511,-0.61034 6.29083,-2.3451 13.17839,-9.30938 10.23148,-10.3455 12.5351,-15.84207 9.39718,-22.42234 -2.56664,-5.3823 -7.74019,-7.51852 -20.0439,-8.27634 -9.80882,-0.60416 -10.47121,-0.42841 -17.71147,4.69934 -9.87301,6.99233 -25.47357,0.4549 -25.47357,-10.67473 0,-11.74624 11.91873,-18.80692 24.4014,-14.45544 9.36112,3.2633 55.08619,-10.81828 86.50351,-26.63978 7.49761,-3.77573 8.21332,-3.91333 14.76993,-2.83955 3.78978,0.62065 17.83485,1.13153 31.21127,1.13529 25.27308,0.007 35.65978,-1.20346 51.01227,-5.94536 8.17323,-2.52445 10.55269,-4.45364 9.35207,-7.5824 -0.69919,-1.82208 -2.04275,-1.97037 -12.0985,-1.33536 -33.04974,2.08707 -60.85796,2.18531 -73.93182,0.26121 -36.46211,-5.36621 -56.9211,-20.2846 -64.6813,-47.16462 -2.70416,-9.36677 -1.87849,-28.94144 1.63476,-38.7558 5.74715,-16.05484 12.18756,-26.22807 24.65163,-38.93959 9.64156,-9.83296 19.00578,-16.65047 31.50681,-22.93815 27.35455,-13.7586 54.94553,-17.26728 84.70628,-10.77191 16.63243,3.63007 19.6865,2.94978 17.94301,-3.9968 -0.89291,-3.55768 -10.91018,-8.13711 -23.37019,-10.68377 -11.71873,-2.39515 -36.51919,-2.43299 -48.95114,-0.0747 -26.08151,4.94758 -49.58868,17.21305 -69.38317,36.20246 -12.08715,11.59554 -18.70969,20.55781 -25.10918,33.98015 -6.70992,14.07348 -8.57486,22.56713 -8.63944,39.34726 -0.0563,14.61979 1.60882,23.36927 6.16842,32.41275 1.15351,2.28785 2.45934,5.33125 2.90185,6.76312 0.90653,2.93331 2.66663,2.91238 -22.89099,0.27212 -10.72472,-1.10793 -36.56567,-5.46819 -37.41248,-6.31277 -0.1618,-0.16137 1.92676,-6.3474 4.64124,-13.74674 l 4.93541,-13.45333 0.43888,-21.79964 c 0.40885,-20.30792 0.23323,-22.60596 -2.56633,-33.58322 -3.28878,-12.89548 -5.84744,-16.52746 -10.45293,-14.83772 -3.54174,1.29946 -3.80673,5.73 -1.36621,22.84282 2.97158,20.83665 2.04007,38.20565 -2.81509,52.49015 -7.65748,22.5293 -23.62959,51.05569 -58.60565,104.67044 -12.17501,18.66305 -23.1498,36.59406 -24.38839,39.84667 -4.38252,11.50866 -6.931,26.49483 -6.98339,41.0653 l -0.0501,13.941 4.13103,4.32355 c 5.27665,5.52257 6.76639,8.49453 6.76639,13.4987 0,10.57858 -13.33935,19.37665 -24.37406,16.07614 z M 307.94586,279.15705 c 3.87321,-2.7129 2.99211,-7.36685 -2.03382,-10.74266 -11.01255,-7.39691 -71.66251,-22.96709 -109.71533,-28.16636 -26.91755,-3.67782 -66.04176,-2.68609 -81.01269,2.05354 -4.39357,1.39095 -5.9779,5.26298 -3.81052,9.31276 1.32049,2.46737 1.92561,2.57142 11.00001,1.89148 45.16692,-3.38429 71.15843,-1.41406 115.65493,8.767 11.65362,2.66641 56.10126,15.1264 64.80972,18.16809 2.05131,0.71647 2.36408,0.63785 5.1077,-1.28385 z m -86.70903,-67.87462 c 3.67434,-4.2494 1.95435,-12.98958 -2.8784,-14.62673 -5.4528,-1.84719 -9.89329,1.06089 -11.05214,7.23803 -1.72507,9.19543 7.93706,14.32019 13.93054,7.3887 z m -42.62486,-5.56822 c 4.12958,-4.12957 4.58197,-9.55832 1.08772,-13.05258 -3.28547,-3.28546 -6.66653,-2.94163 -10.69587,1.08772 -4.12958,4.12957 -4.58198,9.55833 -1.08772,13.05258 3.28547,3.28547 6.66652,2.94163 10.69587,-1.08772 z m 178.68337,-38.52292 c 22.77446,-10.90671 27.40592,-43.99526 8.5434,-61.03642 -7.55497,-6.825456 -13.13904,-8.884304 -24.17798,-8.914407 -11.27401,-0.03074 -19.01327,3.155277 -25.73342,10.593687 -7.75942,8.58874 -9.5222,13.37672 -9.53905,25.90955 -0.0127,9.44961 0.41388,12.02089 2.73693,16.49702 9.63465,18.56436 29.90556,25.69748 48.17012,16.95057 z M 167.84698,141.3144 c 4.46568,-1.32617 7.81702,-3.42909 11.73691,-7.36475 8.4071,-8.4409 10.1326,-12.89275 10.1277,-26.12984 -0.004,-10.042564 -0.3325,-11.753697 -3.19544,-16.629994 -12.36546,-21.06146 -39.80755,-24.384916 -55.66997,-6.74208 -6.93953,7.718423 -9.3293,15.120491 -8.63884,26.757934 0.59344,10.00215 2.38678,14.33237 8.95171,21.61497 8.67821,9.62688 22.2735,12.77438 36.68793,8.49376 z"
     id="path7"
     transform="translate(208,301)" />
  <path
     style="fill:#ffffff;stroke-width:1.17836"
     d="m 77.552283,614.57265 c -4.839353,-2.95076 -6.261588,-5.73773 -6.261588,-12.27004 0,-4.36476 0.678571,-6.01568 3.858469,-9.38735 2.273074,-2.41016 5.871966,-4.63334 8.758833,-5.41069 3.391275,-0.91318 6.339064,-2.95398 9.572156,-6.62697 9.164547,-10.41147 11.194897,-19.5335 5.59491,-25.1369 -2.82327,-2.825 -4.049411,-3.12565 -14.271594,-3.49931 -10.81483,-0.39534 -11.370174,-0.28867 -16.869876,3.24048 -7.783144,4.99443 -13.885382,4.99198 -19.579888,-0.008 -3.441686,-3.02184 -4.165258,-4.46194 -4.165258,-8.28997 0,-10.58982 8.57401,-15.86354 21.948106,-13.49989 8.48984,1.50042 33.687083,-5.68803 50.338887,-14.36107 14.83108,-7.72471 17.37079,-11.00337 26.66896,-34.42852 7.59354,-19.13059 25.80577,-72.94551 34.19661,-101.04681 l 3.60723,-12.08074 8.67219,10.3132 c 10.27992,12.22514 27.57176,30.11244 38.74463,40.0788 l 8.01201,7.14683 -9.96105,19.89608 c -5.47859,10.94284 -15.72015,30.7414 -22.75904,43.99679 -7.03888,13.2554 -13.45291,25.58388 -14.25338,27.39664 -2.08611,4.72424 -1.79986,11.25449 0.87024,19.85253 3.15593,10.1625 7.27712,15.93898 12.37598,17.34685 13.61602,3.75957 17.6085,16.96372 7.6603,25.33457 -7.9175,6.66214 -19.22823,4.80679 -25.4527,-4.17511 -1.81009,-2.61197 -4.54098,-5.22425 -6.06865,-5.80506 -1.52767,-0.58081 -8.61501,-1.05603 -15.74964,-1.05603 -15.2469,0 -25.78686,2.91124 -39.17708,10.82109 -11.64262,6.87751 -16.96173,12.04486 -18.40622,17.88107 -1.92765,7.7884 -4.72293,12.27981 -8.866047,14.24585 -5.39819,2.56161 -14.43269,2.3393 -19.0375,-0.46846 z"
     id="path8"
     transform="translate(208,301)" />
  <path
     style="fill:#ffffff;stroke-width:0.310784"
     d="m 327.39409,128.69867 c -3.36645,-1.29706 -4.81194,-2.51698 -5.93231,-5.00659 -1.00417,-2.23137 -1.02404,-6.88305 -0.0374,-8.7461 0.85625,-1.6168 3.45672,-3.92232 5.62952,-4.99103 6.28053,-3.08911 13.96957,3.3726 12.77163,10.73303 -0.52713,3.23879 -2.56716,6.12747 -5.33132,7.5491 -1.65994,0.85373 -5.44389,1.09973 -7.10015,0.46159 z"
     id="path9"
     transform="translate(208,301)" />
  <path
     style="fill:#ffffff;stroke-width:0.310784"
     d="m 143.25223,104.28265 c -2.79935,-0.65585 -5.82149,-3.17923 -7.04365,-5.881193 -1.35,-2.984614 -0.22091,-7.71117 2.56372,-10.732134 1.55006,-1.681618 2.62618,-2.044179 6.07439,-2.046563 6.27049,-0.0043 8.91302,2.514064 9.37682,8.936342 0.21747,3.01136 -0.36185,4.493916 -2.57332,6.585438 -2.57857,2.4387 -5.97156,3.70658 -8.39796,3.13811 z"
     id="path10"
     transform="translate(208,301)" />
</svg>
