<?xml version="1.0" encoding="UTF-8" standalone="no"?>
<svg
   version="1.0"
   width="706"
   height="675"
   viewBox="356 353 706 675"
   preserveAspectRatio="xMidYMid meet"
   id="svg4"
   sodipodi:docname="frog1.svg"
   inkscape:version="1.4.3 (0d15f75, 2025-12-25)"
   xmlns:inkscape="http://www.inkscape.org/namespaces/inkscape"
   xmlns:sodipodi="http://sodipodi.sourceforge.net/DTD/sodipodi-0.dtd"
   xmlns="http://www.w3.org/2000/svg"
   xmlns:svg="http://www.w3.org/2000/svg">
  <defs
     id="defs4" />
  <sodipodi:namedview
     id="namedview4"
     pagecolor="#505050"
     bordercolor="#ffffff"
     borderopacity="1"
     inkscape:showpageshadow="0"
     inkscape:pageopacity="0"
     inkscape:pagecheckerboard="1"
     inkscape:deskcolor="#505050"
     inkscape:zoom="1.1274074"
     inkscape:cx="353.02234"
     inkscape:cy="337.5"
     inkscape:window-width="1920"
     inkscape:window-height="1022"
     inkscape:window-x="0"
     inkscape:window-y="30"
     inkscape:window-maximized="1"
     inkscape:current-layer="svg4" />
  <metadata
     id="metadata1">
Created by potrace 1.16, written by Peter Selinger 2001-2019
</metadata>
  <g
     transform="translate(0.000000,1254.000000) scale(0.100000,-0.100000)"
     fill="#000000"
     stroke="none"
     id="g4">
    <path
       d="M8615 8695 c-27 -8 -62 -14 -77 -15 -38 0 -146 -54 -250 -123 -62 -42 -176 -159 -216 -222 -43 -68 -90 -163 -97 -197 -12 -56 -30 -68 -102 -68 -35 0 -109 -7 -164 -15 -118 -18 -118 -18 -156 64 -15 31 -41 74 -60 97 -18 23 -33 45 -33 50 0 15 -91 106 -166 166 -112 89 -236 149 -369 178 -95 21 -305 24 -384 6 -36 -8 -77 -17 -91 -20 -149 -28 -359 -162 -488 -311 -58 -68 -164 -240 -175 -285 -3 -14 -12 -45 -20 -70 -32 -100 -40 -140 -44 -240 -5 -114 -12 -129 -68 -157 -93 -48 -331 -262 -429 -385 -20 -26 -42 -53 -49 -61 -17 -18 -57 -75 -57 -81 0 -3 -13 -25 -30 -49 -36 -54 -130 -234 -130 -251 0 -6 -7 -23 -14 -39 -18 -34 -41 -119 -72 -267 -20 -97 -24 -144 -24 -298 0 -186 12 -279 55 -413 8 -26 15 -52 15 -59 0 -13 9 -34 80 -185 l42 -89 -33 -29 c-35 -32 -30 -32 -179 -7 -89 14 -187 11 -310 -9 -114 -19 -152 -31 -240 -75 -87 -43 -136 -79 -220 -165 -90 -91 -138 -171 -176 -296 -27 -85 -28 -369 -1 -433 9 -23 17 -53 17 -66 0 -29 91 -235 132 -301 48 -74 104 -154 132 -189 19 -23 51 -61 71 -86 20 -25 59 -66 86 -93 28 -26 47 -52 43 -58 -3 -6 -25 -20 -48 -31 -102 -49 -125 -65 -192 -132 -41 -41 -81 -92 -94 -121 -31 -67 -31 -153 0 -213 23 -43 105 -132 123 -132 6 0 18 -6 26 -14 20 -17 128 -48 242 -70 146 -27 402 -17 599 24 25 5 70 14 100 20 30 7 93 21 140 32 47 11 95 22 108 25 21 5 22 3 22 -58 1 -110 65 -184 198 -230 30 -10 74 -19 96 -19 59 0 171 32 246 69 74 37 96 35 125 -11 26 -42 104 -95 173 -119 69 -24 176 -25 244 -2 60 19 155 108 164 153 8 38 23 42 81 25 66 -20 203 -19 270 2 103 32 174 120 183 227 l5 58 208 2 207 1 0 -63 c0 -159 138 -282 318 -282 48 0 83 8 151 35 48 19 93 35 100 35 6 0 37 -26 69 -58 78 -80 158 -112 277 -112 96 0 134 13 206 72 41 34 83 99 103 162 5 14 12 17 34 12 15 -4 66 -9 113 -13 73 -5 95 -2 143 16 70 26 108 53 142 102 24 35 29 38 87 41 91 7 193 50 240 103 31 35 67 122 67 163 0 91 -76 194 -203 275 -55 35 -69 60 -48 82 9 10 76 143 103 205 8 19 19 51 23 70 4 19 12 40 17 47 16 20 38 111 74 310 30 164 0 355 -82 528 -35 74 -32 89 24 122 26 15 52 31 57 35 197 153 311 259 399 373 91 118 174 248 212 335 8 19 19 44 24 55 17 37 41 109 50 150 5 22 16 67 24 100 22 81 23 415 2 477 -8 24 -19 66 -25 93 -15 73 -38 151 -54 183 -8 15 -24 50 -37 77 -39 84 -62 129 -75 145 -7 8 -14 22 -17 30 -3 9 -34 54 -69 100 -88 117 -265 292 -381 379 -108 80 -109 82 -84 174 8 29 20 98 26 153 11 89 11 115 -4 205 -10 56 -24 115 -32 130 -8 16 -14 34 -14 42 0 35 -86 196 -137 257 -78 93 -133 144 -214 199 -50 34 -95 61 -101 61 -5 0 -22 7 -36 15 -91 49 -335 71 -447 40z m273 -235 c156 -34 280 -120 374 -260 32 -47 38 -64 28 -81 -7 -11 -15 -11 -43 -1 -112 40 -273 -14 -361 -121 -40 -48 -51 -73 -77 -172 -23 -88 -23 -132 0 -221 26 -95 50 -140 103 -190 57 -54 91 -74 152 -90 86 -23 183 -13 255 26 25 13 30 10 186 -106 173 -129 277 -236 380 -389 96 -143 153 -270 196 -430 30 -114 33 -362 5 -394 -11 -12 -24 -21 -29 -21 -6 0 -33 -11 -61 -24 -88 -41 -284 -107 -376 -125 -25 -5 -99 -23 -165 -39 -66 -16 -165 -37 -220 -47 -55 -9 -136 -23 -180 -30 -156 -28 -288 -45 -413 -55 -70 -6 -134 -13 -143 -16 -9 -2 -133 -14 -275 -25 -322 -25 -958 -36 -1189 -20 -482 33 -587 42 -655 51 -123 16 -157 13 -195 -15 -18 -14 -35 -37 -38 -52 -7 -38 10 -89 36 -106 35 -23 174 -45 352 -57 88 -6 192 -16 230 -23 50 -8 260 -12 735 -12 554 0 691 3 820 17 85 9 196 20 245 23 50 3 162 15 250 25 144 18 217 29 395 59 50 8 209 43 350 75 107 25 293 77 312 87 10 6 39 16 64 24 66 20 66 2 4 -108 -166 -291 -467 -550 -865 -742 -103 -51 -157 -93 -180 -145 -16 -36 -17 -49 -7 -103 6 -34 19 -115 28 -179 l18 -118 -32 -182 c-35 -207 -68 -333 -116 -443 -7 -16 -23 -59 -36 -95 -13 -36 -27 -69 -31 -75 -4 -5 -19 -41 -34 -80 -32 -85 -25 -128 29 -169 19 -14 37 -26 39 -26 20 0 240 -115 265 -138 36 -34 39 -44 17 -62 -21 -18 -177 -4 -230 20 -143 65 -220 18 -208 -127 5 -64 4 -71 -22 -101 -24 -28 -32 -32 -78 -32 -33 0 -62 7 -79 18 -28 19 -68 65 -68 79 0 14 -41 87 -63 110 -16 18 -32 23 -68 23 -40 0 -59 -8 -122 -50 -116 -77 -196 -98 -245 -64 -32 22 -28 62 10 112 29 37 74 71 272 201 47 31 169 167 218 242 77 119 148 235 148 243 0 4 19 45 41 89 93 184 149 332 149 395 0 75 -58 130 -125 118 -47 -9 -69 -39 -115 -156 -66 -169 -111 -271 -142 -323 -15 -26 -28 -51 -28 -54 0 -6 -52 -96 -80 -138 -98 -148 -147 -201 -237 -260 -32 -20 -69 -45 -83 -54 -41 -28 -111 -50 -190 -61 -228 -30 -274 -32 -454 -27 -202 5 -253 15 -337 61 -24 13 -75 36 -113 51 -161 64 -233 123 -317 260 -53 88 -189 355 -189 372 0 6 -7 24 -15 40 -8 15 -24 55 -36 88 -13 35 -37 74 -57 94 -30 30 -39 33 -75 28 -100 -14 -117 -96 -53 -257 66 -166 151 -340 239 -490 54 -92 208 -250 243 -250 4 0 15 -6 23 -13 9 -7 75 -39 146 -70 196 -87 272 -151 231 -196 -10 -10 -32 -22 -51 -25 -47 -9 -166 24 -254 70 -63 33 -76 36 -108 28 -60 -15 -79 -51 -75 -146 2 -72 0 -84 -19 -105 -18 -19 -33 -23 -78 -23 -53 0 -57 2 -103 50 -26 27 -54 64 -61 82 -8 18 -28 48 -45 66 -25 27 -37 32 -74 32 -35 0 -58 -10 -120 -50 -106 -69 -168 -92 -236 -88 -61 3 -79 19 -69 60 9 33 84 107 169 164 101 69 138 114 138 168 0 36 -7 53 -38 93 -21 26 -46 54 -56 62 -36 30 -192 228 -262 333 -101 151 -250 456 -273 558 -5 19 -16 49 -25 65 -9 17 -16 35 -16 41 0 18 -45 53 -75 59 -17 4 -45 0 -66 -9 -42 -18 -65 -72 -56 -133 18 -111 173 -466 276 -631 59 -94 190 -271 252 -341 27 -30 49 -63 49 -73 0 -19 -40 -40 -125 -64 -27 -8 -70 -21 -95 -28 -267 -81 -477 -122 -690 -135 -393 -25 -594 64 -426 189 66 48 172 101 261 130 96 31 125 59 125 123 l0 49 -127 127 c-71 69 -153 155 -182 189 -51 58 -131 166 -131 177 0 2 -12 21 -26 42 -42 62 -97 188 -128 294 -64 219 1 442 167 576 81 66 118 84 232 114 94 25 298 29 413 9 86 -16 121 -9 195 35 32 19 64 35 71 35 8 0 38 -26 67 -58 82 -89 237 -213 359 -287 52 -32 74 -39 117 -40 71 0 98 25 98 95 0 42 -5 54 -34 84 -19 20 -38 36 -42 36 -17 0 -193 126 -255 183 -141 129 -236 264 -323 457 -53 118 -90 290 -98 460 -5 88 -1 125 26 280 16 96 73 265 111 330 5 8 21 40 37 70 124 242 332 459 581 605 97 57 112 85 112 211 0 272 129 532 340 685 116 84 296 139 453 139 111 0 271 -45 362 -102 97 -61 214 -196 265 -306 18 -37 39 -82 48 -101 10 -18 34 -45 54 -58 41 -28 35 -27 253 -4 50 5 151 10 226 10 l136 1 37 33 c36 31 48 61 85 204 10 39 106 184 153 232 70 72 174 128 288 154 89 21 145 20 248 -3z m419 -3773 c27 -40 58 -146 74 -254 11 -73 10 -93 -9 -200 -40 -217 -56 -265 -155 -473 -101 -211 -107 -231 -87 -282 16 -41 41 -62 107 -94 111 -52 172 -106 159 -140 -8 -20 -67 -44 -108 -44 -25 0 -44 11 -79 43 -25 23 -56 50 -69 60 -26 22 -174 97 -189 97 -6 0 -15 9 -21 21 -11 19 2 60 42 134 6 11 15 33 19 50 4 16 19 62 34 100 15 39 31 88 37 110 5 22 18 72 28 110 41 152 54 257 54 415 -1 101 -6 178 -16 220 -8 36 -13 70 -11 75 4 13 132 82 153 84 8 0 25 -14 37 -32z"
       id="path1" />
    <path
       d="M6970 7991 c-96 -32 -189 -103 -224 -172 -37 -70 -66 -183 -66 -254 0 -79 38 -197 86 -266 61 -88 182 -149 297 -149 163 0 280 87 339 251 19 55 23 82 22 189 -1 122 -2 127 -37 200 -39 83 -90 137 -165 178 -38 20 -64 25 -137 28 -49 2 -101 0 -115 -5z"
       id="path2" />
    <path
       d="M9223 6624 c-33 -8 -102 -79 -122 -128 -43 -98 -35 -184 21 -231 66 -56 169 -13 250 103 29 42 33 54 33 114 0 64 -2 70 -35 103 -27 27 -45 36 -80 39 -25 2 -55 2 -67 0z"
       id="path3" />
    <path
       d="M8390 6548 c-75 -21 -110 -86 -90 -166 34 -136 275 -247 367 -168 24 21 27 30 26 78 -2 80 -27 131 -95 193 -46 41 -72 56 -110 64 -56 12 -51 12 -98 -1z"
       id="path4" />
  </g>
  <path
     style="fill:#ffffff;stroke-width:0.886991"
     d="m 268.64901,618.01084 c -2.23896,-2.31726 -5.21703,-6.22561 -6.61796,-8.68522 -3.8243,-6.71439 -6.98419,-9.37478 -11.20404,-9.43302 -4.774,-0.0659 -6.53049,0.58552 -14.30323,5.30447 -9.29874,5.6454 -15.69567,8.11102 -21.1085,8.13601 -6.05386,0.028 -8.83079,-2.02302 -7.49523,-5.53581 1.30164,-3.42359 7.3141,-9.1869 17.20435,-16.49142 10.18436,-7.52173 13.03263,-11.26269 13.03263,-17.11727 0,-4.64532 -2.20429,-8.12085 -11.47617,-18.0946 -6.00848,-6.4633 -17.5668,-21.35093 -23.83128,-30.69573 -8.28657,-12.36116 -21.48272,-38.50767 -25.89198,-51.30167 -3.84052,-11.14374 -5.69633,-15.54034 -7.36433,-17.44674 -5.74435,-6.56543 -16.11055,-3.98587 -18.25824,4.54343 -1.45398,5.77425 0.75601,14.07284 8.7511,32.86061 11.70874,27.51455 22.18292,44.65377 43.2596,70.78707 3.07122,3.80805 5.34939,7.30342 5.06258,7.76748 -2.12271,3.43462 -39.28425,14.28481 -63.38531,18.50685 -35.81583,6.27422 -69.718883,4.13275 -74.447332,-4.70244 -0.92762,-1.73327 -0.875466,-2.55562 0.307122,-4.84248 2.431333,-4.70168 15.469705,-12.5699 28.705646,-17.32291 12.232124,-4.39252 13.852994,-5.86853 14.743804,-13.42616 l 0.52275,-4.43496 -14.7053,-15.07884 C 83.328149,514.05865 75.767537,505.03583 69.676526,494.94087 c -6.406328,-10.61756 -9.558971,-17.30948 -13.091311,-27.7881 -7.451584,-22.105 -3.613774,-42.70477 10.642614,-57.12514 9.485383,-9.59448 16.706863,-13.40452 30.831097,-16.26646 5.978924,-1.21149 10.158474,-1.37693 22.924834,-0.90748 8.58705,0.31577 17.80813,0.78655 20.49127,1.04618 4.46114,0.43168 5.58186,0.12791 13.10144,-3.55108 l 8.223,-4.02314 9.79622,9.34472 c 10.56733,10.0803 25.78777,21.8501 33.62967,26.00547 7.21023,3.82065 14.73874,4.05698 18.22363,0.5721 1.78477,-1.78478 2.17716,-3.05809 2.17716,-7.06506 0,-6.3764 -2.10937,-8.80847 -15.31319,-17.6558 -21.73054,-14.56072 -35.40345,-29.95474 -46.61932,-52.48766 -7.24974,-14.56487 -10.92389,-28.4883 -12.56926,-47.63203 -1.9129,-22.25645 4.14619,-48.28241 16.57606,-71.20007 14.85158,-27.38269 31.41338,-44.56704 60.62268,-62.90147 7.27336,-4.56543 8.45041,-7.3207 9.15371,-21.42728 1.20641,-24.19759 10.35812,-45.123038 26.31985,-60.180522 21.91717,-20.675548 56.68074,-25.841258 83.79071,-12.450924 12.11224,5.982558 23.81831,18.79674 31.90948,34.930066 3.24499,6.47031 5.92649,10.52151 8.50792,12.85367 l 3.76949,3.4055 8.06423,-0.58056 c 4.43534,-0.31932 12.05571,-0.95985 16.93416,-1.4234 4.87845,-0.46356 14.72339,-0.85707 21.87763,-0.87448 l 13.00774,-0.0316 3.47205,-3.94446 c 2.6595,-3.02135 4.05023,-5.87556 5.94265,-12.19612 2.93062,-9.788131 4.57981,-13.214725 10.49104,-21.79779 8.89825,-12.92016 19.67425,-20.320965 35.36648,-24.289197 16.80481,-4.24958 37.36966,1.264976 50.87838,13.643262 6.73882,6.174909 13.74392,15.550844 13.74392,18.395475 0,1.832377 -0.24735,1.912288 -3.76971,1.217847 -14.15229,-2.790159 -28.4996,2.31677 -37.10954,13.209153 -6.91476,8.74784 -10.22905,25.18285 -7.52731,37.32667 3.00685,13.51522 10.0554,22.9465 20.90985,27.97834 7.20988,3.34232 19.07143,3.76643 27.00516,0.96559 7.06215,-2.49315 6.53265,-2.69888 20.9782,8.15084 31.18229,23.42031 50.75478,51.14555 58.63732,83.06218 1.53938,6.233 1.92277,10.53176 1.97316,22.12402 0.0576,13.2613 -0.0764,14.52442 -1.71145,16.13201 -2.00137,1.96771 -17.05295,8.23605 -29.71419,12.37469 -23.87836,7.80522 -73.86624,17.46405 -110.87385,21.42341 -82.56674,8.83366 -154.30091,9.23369 -228.64699,1.27508 -14.22512,-1.52278 -17.52312,-1.08992 -21.62292,2.83794 -2.01719,1.93259 -2.52247,3.1918 -2.52247,6.28623 0,2.12826 0.604,5.03756 1.34221,6.46512 2.18771,4.23056 10.27667,5.9737 39.01587,8.40776 8.78121,0.74372 19.35857,1.74255 23.50526,2.2196 9.64605,1.10974 130.68177,1.10677 145.46649,-0.004 35.4623,-2.66322 66.41457,-6.16497 90.91655,-10.28573 24.99753,-4.2041 60.70465,-12.77596 73.94759,-17.75187 10.4979,-3.94449 11.24476,-2.61598 4.67479,8.31541 -7.2026,11.98402 -12.47355,18.83046 -22.25899,28.91219 -16.33753,16.83222 -32.37934,28.45405 -57.71519,41.81297 -16.26792,8.57766 -21.36257,12.26518 -23.94852,17.33407 -2.24725,4.40498 -2.24041,4.59382 0.88072,24.32557 l 2.63361,16.64967 -3.08425,16.96708 c -1.69634,9.33189 -4.07719,20.86809 -5.29078,25.63598 -2.10091,8.25402 -9.95823,29.58378 -15.10424,41.00258 -1.41074,3.13036 -2.58917,7.62109 -2.86167,10.90505 l -0.46327,5.58312 3.45082,3.0317 c 1.89794,1.66743 9.45896,6.03597 16.80226,9.70784 13.93107,6.96599 19.40876,11.1077 17.36789,13.13194 -1.94501,1.92917 -14.98243,1.08542 -22.43513,-1.45196 -9.45581,-3.21936 -12.34849,-3.57457 -16.15565,-1.98383 -4.43877,1.85464 -5.87691,5.5405 -5.87691,15.0622 0,7.44753 -0.012,7.48653 -3.13534,10.22889 -2.22859,1.95673 -4.03245,2.75285 -6.23741,2.75285 -6.83095,0 -11.73442,-3.9096 -16.01162,-12.76628 -3.911,-8.09838 -6.38288,-10.29763 -11.55987,-10.2849 -3.28274,0.008 -5.56065,0.7395 -9.62278,3.0898 -15.9598,9.2342 -20.86469,10.96098 -25.56087,8.99879 -3.82281,-1.59727 -4.433,-3.9881 -2.18005,-8.54173 2.10993,-4.26455 5.32445,-6.98556 20.2765,-17.16356 22.2038,-15.11431 36.84807,-35.12504 54.75944,-74.82624 10.18792,-22.58192 11.43083,-31.50104 5.18712,-37.22298 -5.12253,-4.69445 -12.13382,-3.8048 -15.71794,1.99442 -0.97697,1.58079 -4.57416,9.76451 -7.99373,18.18604 -10.69592,26.34135 -23.1805,48.29844 -34.27668,60.28363 -6.30293,6.80791 -20.71404,16.45826 -27.93252,18.7049 -3.01944,0.93976 -11.89848,2.537 -19.73122,3.54944 -12.12845,1.56767 -17.20229,1.76881 -34.19864,1.35565 -10.97651,-0.26683 -21.75345,-0.92725 -23.94875,-1.46763 -3.85233,-0.94823 -12.82569,-4.84187 -29.82938,-12.94324 -9.55795,-4.55387 -16.32256,-10.37159 -22.01368,-18.93225 -5.69409,-8.56514 -18.46809,-33.61469 -23.12214,-45.34204 -4.54335,-11.44845 -7.60148,-17.03509 -10.3967,-18.99295 -4.09306,-2.86688 -12.76491,-0.75463 -14.74516,3.59155 -3.05294,6.70048 0.54298,18.96653 13.23679,45.15205 7.9366,16.37208 14.33031,27.33833 19.9293,34.18195 9.04875,11.06028 12.75379,13.77436 30.57434,22.39683 23.77441,11.50324 29.78146,15.87685 27.54528,20.05518 -2.72647,5.09448 -13.03521,4.00091 -28.31673,-3.00388 -9.57253,-4.38788 -11.29045,-4.67435 -15.64374,-2.60858 -3.75562,1.78216 -5.14814,5.19086 -5.37203,13.15 -0.26294,9.34755 -0.24709,9.26558 -2.16153,11.18002 -1.38086,1.38086 -2.95663,1.77398 -7.11084,1.77398 -5.20413,0 -5.43813,-0.1048 -9.40769,-4.21321 z M 510.86446,279.88527 c 2.86312,-2.68975 3.56816,-6.59828 2.29581,-12.72717 -2.82315,-13.59905 -17.76975,-24.46085 -29.54545,-21.47088 -14.70862,3.73466 -13.83478,21.43736 1.54436,31.28609 9.18937,5.88483 21.1041,7.23456 25.70528,2.91196 z m 58.84072,-4.38191 c 4.43814,-2.26738 11.35699,-9.43224 13.61737,-14.10155 2.64395,-5.46168 2.10274,-15.04412 -1.03965,-18.40742 -3.26163,-3.49093 -6.46375,-4.83736 -11.50432,-4.83736 -5.67719,0 -8.74678,1.57319 -12.85721,6.58945 -8.48028,10.34905 -8.96612,25.88474 -0.96214,30.76556 3.49733,2.13268 8.56125,2.12923 12.74595,-0.009 z M 357.04959,185.81779 c 11.605,-2.20085 20.12911,-8.86437 25.28708,-19.76757 3.83562,-8.10795 5.14398,-16.76961 4.36039,-28.86691 -0.53651,-8.283 -0.93033,-9.84218 -4.07062,-16.1163 -3.71954,-7.43139 -10.2655,-14.36644 -16.23358,-17.19848 -7.20106,-3.41713 -20.12813,-4.108939 -27.61415,-1.47782 -6.70583,2.35691 -15.58756,8.90353 -18.93438,13.9563 -3.82039,5.76775 -7.25728,17.0272 -7.80556,25.57152 -1.35652,21.13973 11.55998,39.45322 30.74,43.58431 6.31314,1.35976 8.50631,1.40816 14.27082,0.31495 z"
     id="path5"
     transform="translate(356,353)" />
  <path
     style="fill:#ffffff;stroke-width:0.886991"
     d="m 568.87738,578.97858 c -1.28958,-0.85117 -4.68318,-3.5433 -7.54134,-5.98252 -2.85815,-2.43923 -9.29066,-6.43069 -14.29446,-8.86991 -10.74073,-5.23583 -11.2036,-6.04051 -7.75565,-13.48269 6.97849,-15.06258 16.02231,-45.65224 18.20055,-61.56126 1.36765,-9.98872 1.1786,-36.07234 -0.32282,-44.54081 l -1.22988,-6.93692 3.20919,-2.02467 c 6.22174,-3.92526 10.85695,-5.91792 12.53044,-5.38677 4.4934,1.42614 10.09467,20.59982 10.10494,34.59015 0.0125,17.00955 -4.75348,34.404 -16.28302,59.42838 -9.13422,19.82546 -10.15801,22.70227 -9.50697,26.71417 0.80029,4.93161 3.55186,7.71554 12.21111,12.35473 8.74002,4.68245 14.99698,9.80693 14.99698,12.2826 0,1.72748 -6.30523,4.92521 -9.7569,4.94827 -1.21961,0.008 -3.27259,-0.68159 -4.56217,-1.53275 z"
     id="path6"
     transform="translate(356,353)" />
</svg>
