<?xml version="1.0" encoding="UTF-8" standalone="no"?>
<svg
   version="1.0"
   width="910"
   height="931"
   viewBox="169 129 910 931"
   preserveAspectRatio="xMidYMid meet"
   id="svg17"
   sodipodi:docname="frog17.svg"
   inkscape:version="1.4.3 (0d15f75, 2025-12-25)"
   xmlns:inkscape="http://www.inkscape.org/namespaces/inkscape"
   xmlns:sodipodi="http://sodipodi.sourceforge.net/DTD/sodipodi-0.dtd"
   xmlns="http://www.w3.org/2000/svg"
   xmlns:svg="http://www.w3.org/2000/svg">
  <defs
     id="defs17" />
  <sodipodi:namedview
     id="namedview17"
     pagecolor="#505050"
     bordercolor="#ffffff"
     borderopacity="1"
     inkscape:showpageshadow="0"
     inkscape:pageopacity="0"
     inkscape:pagecheckerboard="1"
     inkscape:deskcolor="#505050"
     inkscape:zoom="0.40620024"
     inkscape:cx="204.33272"
     inkscape:cy="508.36996"
     inkscape:window-width="1728"
     inkscape:window-height="1056"
     inkscape:window-x="0"
     inkscape:window-y="33"
     inkscape:window-maximized="1"
     inkscape:current-layer="g17" />
  <metadata
     id="metadata1">
Created by potrace 1.16, written by Peter Selinger 2001-2019
</metadata>
  <g
     transform="translate(0.000000,1254.000000) scale(0.100000,-0.100000)"
     fill="#000000"
     stroke="none"
     id="g17">
    <path
       id="path2"
       d="m 6012.2461,10761.25 c -0.3726,-1.104 -0.8826,-2.607 -1.5625,-4.668 -0.3997,-1.212 0.89,2.409 1.25,3.633 0.1038,0.353 0.2136,0.695 0.3125,1.035 z" />
    <path
       d="M5647 10579 c-62 -15 -137 -58 -185 -107 -181 -186 -126 -502 106 -614 129 -61 276 -47 394 38 l50 35 36 -24 c21 -13 67 -53 103 -88 263 -256 364 -697 258 -1129 -23 -93 -70 -215 -105 -271 -21 -34 -26 -36 -130 -57 -60 -11 -149 -33 -199 -47 -49 -15 -91 -22 -92 -18 -2 5 -31 52 -64 104 -148 228 -389 400 -644 457 -86 19 -296 21 -380 3 -383 -81 -681 -351 -809 -732 -66 -197 -72 -387 -21 -624 6 -29 2 -34 -81 -100 -48 -39 -100 -80 -115 -92 l-27 -23 -64 30 c-169 79 -302 51 -365 -77 -39 -80 -39 -192 1 -306 14 -43 23 -84 19 -90 -5 -7 -35 -50 -67 -96 -53 -75 -61 -82 -85 -77 -221 50 -374 -37 -389 -220 -6 -81 11 -151 63 -252 l43 -84 -43 -18 c-146 -63 -212 -240 -150 -402 5 -12 -13 -21 -77 -41 -369 -116 -613 -497 -635 -993 -19 -436 135 -876 417 -1186 33 -36 60 -68 60 -71 0 -2 -21 -12 -47 -22 -100 -37 -227 -110 -284 -162 -139 -129 -155 -298 -39 -413 60 -61 126 -84 237 -82 l83 1 0 -27 c1 -73 68 -154 163 -198 53 -24 67 -26 150 -22 104 5 165 29 232 93 21 19 40 35 42 35 2 0 14 -10 26 -21 12 -12 47 -33 77 -48 75 -35 189 -36 268 -2 95 42 172 155 172 252 l0 28 68 -6 c37 -3 70 -8 73 -12 4 -3 12 -28 18 -56 93 -383 681 -666 890 -428 l40 45 70 -35 c211 -105 417 -55 488 120 l18 43 60 -6 c101 -10 211 22 275 81 l25 23 125 -24 c240 -44 414 -59 720 -58 306 0 408 8 688 54 l173 29 51 -38 c66 -51 122 -66 234 -65 l92 1 12 -39 c6 -22 29 -59 51 -83 103 -111 279 -125 448 -35 l53 29 47 -48 c103 -105 272 -109 476 -11 127 61 202 123 316 263 3 5 24 -1 44 -12 113 -60 260 -48 357 29 l36 29 37 -33 c20 -18 59 -46 88 -62 48 -27 60 -29 157 -29 114 0 161 15 223 74 35 32 77 111 77 145 0 23 2 24 103 28 79 3 111 9 143 26 133 69 185 218 123 352 -47 100 -169 196 -334 261 -44 18 -81 33 -83 35 -2 1 27 39 64 83 271 325 405 692 405 1106 0 308 -77 562 -233 769 -99 132 -285 255 -440 293 -38 9 -68 21 -68 27 0 6 8 47 17 91 12 60 17 134 17 295 1 186 -2 230 -22 329 -60 299 -192 579 -379 811 -61 75 -244 259 -295 296 l-27 19 15 80 c21 111 21 309 1 416 -45 229 -151 433 -303 584 -382 378 -968 361 -1351 -38 -67 -70 -173 -211 -184 -246 -3 -7 -29 -4 -79 10 -41 12 -113 29 -160 39 -99 20 -95 10 -67 165 51 278 48 544 -8 781 -34 143 -60 214 -123 337 -130 254 -337 434 -593 518 -95 31 -99 33 -99 61 0 43 -38 146 -71 195 -84 122 -255 187 -402 152z m223 -135 c89 -48 140 -136 141 -240 1 -146 -103 -260 -246 -272 -123 -9 -221 43 -270 143 -58 117 -40 231 48 320 66 65 119 86 208 81 49 -2 79 -10 119 -32z m341 -384 c211 -77 407 -257 517 -475 88 -175 131 -363 139 -601 6 -195 -6 -342 -43 -513 -22 -104 -23 -116 -9 -137 25 -38 54 -51 155 -68 52 -8 133 -28 180 -42 47 -15 100 -28 119 -28 33 -1 37 3 85 85 73 122 118 180 197 252 223 204 506 278 785 207 374 -96 641 -451 661 -880 4 -84 0 -143 -13 -220 -9 -58 -18 -123 -18 -145 -1 -36 2 -41 36 -57 45 -22 219 -187 298 -283 221 -270 361 -612 388 -950 14 -164 -13 -467 -49 -563 -13 -35 5 -60 49 -67 145 -22 264 -69 356 -139 216 -167 338 -438 353 -786 18 -434 -146 -854 -460 -1177 -98 -101 -98 -110 11 -149 210 -74 366 -173 406 -258 56 -118 -28 -230 -174 -231 -88 0 -110 9 -145 58 -31 43 -120 110 -138 104 -6 -2 -15 -11 -21 -19 -8 -13 -1 -27 32 -67 52 -61 72 -107 72 -162 0 -94 -67 -156 -180 -166 -53 -5 -67 -2 -124 26 -94 46 -121 85 -130 186 -4 44 -12 85 -18 92 -31 37 -68 -9 -68 -85 0 -58 -15 -95 -52 -129 -54 -51 -159 -68 -230 -39 -54 23 -58 33 -42 96 8 30 14 81 14 113 0 55 4 64 61 150 210 317 319 707 306 1092 -9 264 -54 462 -149 655 -71 142 -215 316 -256 308 -27 -5 -25 -42 2 -75 51 -60 154 -243 194 -344 79 -198 107 -353 107 -599 0 -199 -9 -266 -56 -448 -54 -207 -141 -399 -260 -572 l-58 -86 0 -74 c2 -162 -97 -309 -283 -422 -206 -126 -401 -124 -439 2 -10 33 -9 47 5 85 10 25 29 59 43 75 13 16 23 38 21 47 -10 55 -110 -11 -152 -101 -59 -125 -275 -197 -396 -133 -75 39 -98 112 -61 194 28 60 89 116 204 187 20 12 27 24 25 39 -5 35 -40 32 -125 -9 -85 -40 -187 -132 -198 -177 -9 -34 -48 -47 -138 -47 -87 0 -148 26 -182 79 -34 52 -39 83 -21 144 20 70 69 133 152 195 131 98 279 158 536 216 41 9 52 38 27 71 -20 25 -21 34 -16 208 7 234 42 388 143 623 34 78 36 87 21 101 -15 15 -18 14 -44 -14 -48 -51 -115 -181 -155 -297 -53 -158 -71 -272 -72 -454 l0 -152 -41 -11 c-178 -44 -366 -132 -483 -224 -128 -101 -190 -218 -181 -338 4 -47 4 -47 -31 -53 -19 -3 -64 -12 -101 -20 -163 -33 -373 -48 -674 -48 -308 0 -411 7 -657 46 l-138 22 0 76 c0 63 -5 85 -30 138 -78 165 -322 320 -620 395 l-93 23 2 170 c4 298 -47 507 -168 697 -31 48 -66 63 -77 32 -3 -8 10 -52 30 -97 44 -104 90 -282 106 -412 17 -136 8 -385 -14 -398 -9 -5 -20 -18 -26 -28 -15 -28 19 -60 66 -60 44 0 208 -41 297 -75 148 -55 280 -136 351 -215 143 -159 73 -340 -132 -340 -83 0 -119 15 -141 59 -44 85 -227 207 -298 199 -47 -5 -36 -37 26 -74 187 -112 250 -247 160 -340 -38 -40 -81 -54 -161 -54 -104 0 -237 72 -268 145 -36 83 -125 160 -156 134 -19 -16 -18 -27 10 -63 39 -52 56 -93 56 -137 0 -33 -6 -47 -33 -74 -47 -47 -104 -61 -189 -46 -271 45 -506 268 -527 499 -7 74 -10 81 -72 172 -225 329 -341 747 -309 1111 25 290 105 531 251 760 27 42 58 84 69 94 24 21 26 63 5 71 -43 17 -189 -157 -270 -321 -91 -184 -135 -351 -157 -592 -19 -221 12 -473 88 -702 44 -132 146 -344 208 -435 26 -37 45 -71 42 -74 -4 -3 -49 2 -102 11 -112 20 -140 13 -129 -31 16 -65 17 -149 2 -178 -50 -95 -180 -133 -284 -83 -63 30 -89 71 -97 149 -16 145 -78 148 -91 5 -9 -90 -29 -126 -98 -172 -136 -91 -337 -20 -337 119 0 49 30 125 67 168 55 64 34 111 -32 70 -33 -21 -94 -83 -112 -114 -5 -10 -27 -21 -49 -26 -143 -34 -264 33 -264 147 0 119 118 217 385 320 49 19 96 40 103 45 23 19 12 47 -35 96 -220 222 -369 476 -437 749 -63 252 -68 484 -16 709 76 324 267 559 530 650 39 14 94 28 123 31 71 8 87 18 87 53 0 21 -8 35 -25 46 -57 37 -76 156 -37 231 26 51 68 82 122 91 41 7 42 9 71 82 27 70 30 108 8 111 -5 1 -14 2 -21 3 -20 2 -66 87 -83 152 -17 67 -11 124 18 168 38 57 159 74 262 35 65 -24 70 -22 111 49 23 40 95 136 168 227 15 18 16 27 7 44 -7 11 -18 21 -25 21 -19 0 -48 95 -53 180 -7 96 10 139 62 164 52 25 109 14 212 -40 47 -24 89 -44 94 -44 5 0 31 22 59 50 59 59 190 165 230 185 39 20 42 37 20 116 -49 179 -47 382 7 554 107 345 362 593 699 681 109 28 312 23 427 -10 251 -74 458 -249 593 -503 21 -40 45 -75 52 -78 8 -3 28 2 46 11 68 35 238 83 389 109 97 16 189 189 249 469 29 137 32 420 5 544 -64 295 -206 541 -391 678 -69 50 -73 57 -54 99 14 32 20 31 119 -5z"
       id="path4" />
    <path
       d="M8013 8410 c-335 -60 -574 -393 -534 -744 20 -170 81 -296 206 -422 92 -93 201 -154 320 -179 393 -82 756 233 756 655 -1 142 -17 213 -78 337 -73 150 -240 289 -403 337 -68 20 -199 28 -267 16z m274 -95 c97 -33 164 -77 235 -153 124 -134 174 -276 166 -471 -4 -93 -10 -129 -31 -183 -83 -215 -247 -349 -467 -380 -222 -32 -473 113 -578 333 -52 109 -67 173 -66 284 2 174 56 306 174 426 117 120 229 168 393 168 80 1 113 -4 174 -24z"
       id="path5" />
    <path
       d="M8043 8006 c-130 -41 -203 -144 -203 -285 1 -152 109 -268 261 -279 196 -14 341 177 284 374 -14 48 -27 69 -75 116 -82 81 -168 104 -267 74z"
       id="path6" />
    <path
       d="M4810 8394 c-383 -102 -591 -513 -459 -909 44 -132 162 -277 284 -350 131 -78 325 -110 465 -76 215 52 399 223 477 446 26 74 28 91 28 225 -1 131 -3 152 -27 218 -77 214 -265 395 -465 447 -72 19 -230 18 -303 -1z m291 -70 c192 -56 350 -213 412 -409 32 -102 31 -292 -2 -385 -37 -102 -79 -169 -155 -245 -115 -114 -236 -165 -391 -165 -164 0 -285 50 -401 165 -190 189 -236 471 -115 720 65 135 160 230 288 287 108 49 262 62 364 32z"
       id="path7" />
    <path
       d="M4907 8006 c-186 -51 -271 -271 -169 -436 98 -158 321 -177 448 -38 131 142 81 379 -96 457 -62 27 -126 33 -183 17z"
       id="path8" />
    <path
       d="M6160 7067 c-33 -17 -51 -55 -44 -92 21 -106 147 -182 204 -125 74 74 -65 264 -160 217z"
       id="path9" />
    <path
       d="M6919 7057 c-95 -64 -118 -196 -38 -218 58 -15 161 64 174 133 17 89 -60 137 -136 85z"
       id="path10" />
    <path
       d="M6320 6374 c-25 -2 -103 -9 -175 -15 -375 -31 -804 -115 -1146 -224 -156 -50 -397 -147 -494 -198 -68 -36 -80 -46 -83 -70 -4 -32 12 -57 37 -57 8 0 74 27 146 59 745 337 1721 474 2637 371 488 -56 954 -185 1334 -371 67 -32 128 -59 136 -59 38 0 52 64 21 92 -24 21 -200 109 -305 152 -265 109 -591 201 -914 255 -282 48 -466 63 -814 66 -184 1 -355 1 -380 -1z"
       id="path11" />
    <path
       d="M4793 4972 c-20 -13 -33 -61 -33 -126 0 -123 76 -207 193 -214 78 -4 137 23 184 86 38 50 42 77 14 92 -17 9 -24 4 -48 -32 -31 -46 -93 -88 -132 -88 -14 0 -44 9 -68 21 -65 31 -86 79 -81 182 3 78 -3 95 -29 79z"
       id="path12" />
    <path
       d="M7947 4827 c-3 -8 -1 -33 4 -56 29 -129 -93 -242 -201 -186 -29 15 -72 65 -83 98 -8 21 -45 23 -53 2 -11 -27 6 -65 47 -110 138 -149 360 -47 359 165 0 25 -6 56 -13 70 -14 28 -52 39 -60 17z"
       id="path13" />
    <path
       d="M5849 4643 c-6 -15 -9 -54 -6 -85 10 -111 81 -188 181 -196 72 -6 115 10 165 61 52 52 84 139 60 163 -23 22 -48 7 -55 -33 -9 -49 -67 -110 -116 -123 -98 -27 -170 45 -172 170 -1 59 -3 65 -23 68 -17 3 -26 -4 -34 -25z"
       id="path14" />
    <path
       d="M6677 3963 c-4 -3 -7 -22 -7 -41 0 -139 126 -245 251 -212 57 16 132 90 148 145 20 74 10 120 -25 113 -14 -2 -21 -16 -26 -52 -8 -56 -30 -91 -78 -123 -82 -57 -194 3 -207 110 -8 57 -33 84 -56 60z"
       id="path15" />
  </g>
  <path
     style="fill:#ffffff;stroke-width:2.14007"
     d="m 259.41376,889.00248 c -16.52996,-3.89233 -30.68457,-14.26122 -40.41649,-29.60686 -3.33325,-5.25599 -6.06045,-12.10543 -6.06045,-15.22098 0,-3.11554 -2.38262,-9.90897 -5.29472,-15.09652 -25.71658,-45.81094 -31.14174,-61.9709 -32.62312,-97.17469 -0.89519,-21.27343 -0.31405,-28.886 3.38618,-44.3567 4.5259,-18.9229 15.80909,-44.11574 25.37564,-56.65813 5.2781,-6.91993 5.06343,-11.33876 -0.55083,-11.33876 -4.38794,0 -19.90713,20.35241 -26.92557,35.31113 -10.58467,22.55959 -13.49672,37.7094 -13.57479,70.62226 -0.0847,35.68977 3.79001,52.01147 19.70204,82.99316 5.57331,10.85156 10.46385,20.45323 10.86787,21.33702 0.40402,0.88378 -3.92034,1.3653 -9.60969,1.07003 l -10.34428,-0.53685 0.64125,10.15635 c 0.83578,13.23733 -5.84433,20.87464 -18.25838,20.87464 -11.02593,0 -17.0177,-4.64399 -18.67905,-14.47744 -0.75088,-4.44445 -2.29928,-9.50569 -3.44087,-11.24717 -1.77824,-2.71266 -2.52972,-2.57112 -5.24506,0.98783 -1.74319,2.28478 -3.16943,6.44097 -3.16943,9.23598 0,16.17154 -21.81869,25.73161 -35.022525,15.34547 -6.854913,-5.39207 -7.31103,-13.12619 -1.350642,-22.90213 8.843897,-14.50532 2.587354,-18.12872 -10.072671,-5.83347 -5.934667,5.76368 -9.500233,7.49024 -15.468261,7.49024 -10.992442,0 -17.268438,-5.00739 -17.268438,-13.77786 0,-9.95128 9.307848,-18.35606 31.294813,-28.25852 9.859719,-4.44062 17.926763,-9.08476 17.926763,-10.32035 0,-1.23559 -5.065827,-8.05509 -11.257394,-15.15445 C 77.784088,765.36636 69.587703,754.67924 65.761468,748.71658 31.830594,695.8399 34.675025,620.07625 71.852056,586.48903 c 9.850923,-8.89971 26.450371,-17.20536 38.896494,-19.4621 8.59255,-1.55802 10.79987,-6.71229 4.95271,-11.56498 -9.03957,-7.50218 -4.84099,-24.0362 7.59122,-29.89425 9.87751,-4.65426 13.27411,-16.62919 6.60765,-23.29565 -2.45345,-2.45344 -5.6184,-8.32448 -7.03322,-13.04674 -4.74021,-15.8214 6.5893,-24.86791 24.44415,-19.51849 8.60291,2.5775 9.027,2.47201 13.18156,-3.27908 2.36096,-3.26825 7.42251,-10.12689 11.24788,-15.24144 7.75361,-10.36664 8.22206,-12.75744 3.67706,-18.76647 -3.8063,-5.03237 -4.2063,-24.95656 -0.57396,-28.5889 3.72933,-3.72933 10.66754,-3.16392 22.28553,1.81615 9.87441,4.23267 10.38974,4.25116 14.90722,0.53501 2.57358,-2.11706 10.13267,-8.18285 16.79798,-13.47952 10.39737,-8.26242 11.93326,-10.39024 10.81296,-14.98048 -0.71818,-2.94259 -1.83395,-14.11906 -2.47949,-24.8366 -1.31014,-21.75138 1.90414,-36.94755 11.60778,-54.87815 7.89467,-14.58796 27.78361,-32.64642 44.86836,-40.73888 13.27658,-6.28867 16.27453,-6.87029 34.85658,-6.76238 18.25594,0.10601 21.75018,0.80163 34.24109,6.81658 18.62149,8.9671 29.82291,18.98077 41.9841,37.53231 5.57223,8.50023 10.31802,15.73102 10.54622,16.06842 0.22822,0.33741 5.181,-1.26514 11.00618,-3.56122 5.8252,-2.29608 16.58332,-5.35355 23.90696,-6.79439 10.97966,-2.16012 14.38548,-3.91753 19.41359,-10.01748 10.46314,-12.69361 15.64366,-32.24863 16.78011,-63.34014 0.93698,-25.63444 0.6118,-28.66255 -4.89648,-45.59575 -7.05202,-21.67877 -18.39828,-39.99052 -31.63411,-51.0543 -12.89113,-10.77566 -11.4918,-15.26458 3.03749,-9.74389 19.92973,7.57271 39.59858,26.32428 50.60943,48.24919 12.48133,24.85298 16.381,62.7002 10.24281,99.40921 -3.22846,19.30757 -3.30043,22.45298 -0.57608,25.17733 2.25225,2.25224 41.72248,13.44788 47.4105,13.44788 0.31224,0 4.96528,-6.61337 10.34013,-14.69637 11.40639,-17.15365 23.60793,-27.8016 41.29666,-36.03851 10.87739,-5.06516 15.44959,-5.91443 31.99651,-5.94328 17.47208,-0.0305 20.64064,0.62358 33.36251,6.88653 17.78209,8.75409 34.09566,25.73012 43.20383,44.95823 6.711,14.16748 6.85302,15.09926 6.93374,45.4947 l 0.0824,31.031 19.36554,19.26061 c 41.0557,40.83324 58.2431,91.12474 49.73389,145.52466 -3.80631,24.33387 -4.46451,22.60384 10.13594,26.64135 18.62296,5.14986 31.63657,13.52954 41.68948,26.84453 18.07097,23.93483 25.23834,62.37422 18.15154,97.34891 -6.14818,30.34254 -17.25854,52.39902 -39.36722,78.15255 -6.06273,7.06222 -11.03171,13.91055 -11.04215,15.21849 -0.0105,1.30795 5.5184,4.49479 12.28636,7.08188 26.98785,10.31622 41.30313,23.94291 37.01138,35.23109 -4.66187,12.26163 -20.27946,13.41112 -32.47803,2.39045 -12.9194,-11.67191 -20.78717,-9.39342 -11.41748,3.30647 7.14317,9.68202 7.00233,19.63815 -0.3597,25.42913 -13.61927,10.71293 -34.93287,0.0116 -35.05528,-17.60093 -0.018,-2.59295 -0.90767,-6.09707 -1.97698,-7.78696 -2.97683,-4.7044 -8.6906,1.06944 -8.6906,8.78199 0,3.82668 -2.08683,8.34226 -5.37474,11.63018 -4.3557,4.3557 -7.09454,5.25021 -14.44546,4.71789 l -9.07073,-0.65688 0.2432,-12.2288 c 0.20658,-10.38658 1.62806,-14.52077 9.43588,-27.44319 36.72807,-60.78702 35.74749,-147.95154 -2.14781,-190.92039 -12.69718,-14.39712 -20.70341,-13.18642 -10.61404,1.60505 7.52975,11.03893 18.49936,33.74666 22.22885,46.01503 1.96737,6.47176 4.13393,22.37902 4.8146,35.3495 1.96426,37.42954 -6.52169,70.06764 -27.08013,104.15401 -5.02753,8.33574 -8.84122,17.8357 -9.75419,24.29783 -2.71701,19.23095 -13.46501,32.79297 -34.20786,43.16404 -24.21154,12.10536 -43.31414,4.02183 -32.96611,-13.95008 9.11752,-15.83481 0.21381,-15.23893 -14.23077,0.9524 -10.36022,11.61304 -11.33194,12.16644 -23.07324,13.1401 -9.73861,0.8076 -13.1232,0.23306 -16.47016,-2.79589 -8.40642,-7.60771 -4.04449,-19.63493 10.86937,-29.97025 17.034,-11.80455 5.81247,-16.54874 -11.70232,-4.94743 -5.60698,3.71392 -11.21606,8.99458 -12.46458,11.73481 -3.01323,6.61331 -13.54443,8.52586 -23.66404,4.29762 -13.28492,-5.55078 -13.42681,-19.26795 -0.33475,-32.36002 9.52003,-9.52003 20.85187,-15.36299 43.78403,-22.57607 l 18.19058,-5.72169 -0.6552,-20.11985 c -0.78494,-24.10381 1.57626,-37.79246 10.58291,-61.3526 3.71985,-9.73059 6.09151,-18.3638 5.27039,-19.18492 -5.37288,-5.37288 -20.89511,22.00093 -25.9173,45.70572 -1.71432,8.09156 -3.13366,21.61649 -3.1541,30.05542 l -0.0371,15.34352 -11.23536,3.67994 c -36.39623,11.92097 -59.3869,32.0726 -59.3869,52.05346 0,7.31212 0.0734,7.27807 -23.54075,10.9169 -18.8885,2.91064 -95.50895,2.49116 -116.61657,-0.63841 l -17.10341,-2.53589 -1.40754,-9.90492 c -1.79974,-12.66467 -3.95108,-16.53118 -14.50173,-26.06304 -10.56862,-9.54813 -29.75801,-19.43067 -47.08159,-24.24706 l -13.01588,-3.61873 v -21.67023 c 0,-12.30441 -1.3797,-26.96724 -3.19227,-33.92618 -5.62034,-21.57795 -16.94355,-39.84309 -21.73176,-35.05488 -0.65929,0.65927 1.25946,8.72324 4.26388,17.91995 10.06977,30.82426 12.70888,58.43084 6.9121,72.3045 -3.80624,9.10959 -2.77387,10.00754 16.95142,14.74435 20.78177,4.99049 39.72078,14.32788 50.08701,24.69412 7.32794,7.32793 8.77161,10.17236 8.77161,17.28255 0,6.86236 -1.10736,9.23649 -5.71683,12.25675 -3.14427,2.0602 -9.40442,3.74583 -13.91147,3.74583 -6.8278,0 -9.26934,-1.30384 -14.63813,-7.81712 -3.54394,-4.29942 -9.67609,-9.81495 -13.62702,-12.25677 -7.10518,-4.39123 -18.44867,-6.05614 -18.44867,-2.70774 0,0.95256 5.18117,6.20502 11.51371,11.67212 13.83377,11.94321 16.46674,19.18341 9.62475,26.46636 -3.60385,3.83614 -7.04425,5.07106 -14.12753,5.07106 -12.45818,0 -20.44108,-4.46574 -28.23637,-15.7958 -10.88494,-15.82074 -21.27876,-15.51826 -12.99312,0.37813 5.25765,10.087 3.47788,16.33281 -5.64215,19.80025 -6.01278,2.28605 -5.35943,2.29795 -16.38564,-0.29843 z M 526.50308,753.13876 c 7.4291,-3.52536 14.69512,-15.34034 13.44051,-21.85505 -1.19474,-6.20367 -6.69403,-4.04792 -8.6184,3.37844 -3.75871,14.50532 -20.12773,14.82092 -25.7545,0.49654 -4.13744,-10.5329 -8.00476,-11.15102 -8.00476,-1.2794 0,8.50224 8.27288,19.71819 15.58854,21.13419 2.60816,0.50482 5.07808,1.04902 5.48872,1.20931 0.41063,0.16029 3.94759,-1.22753 7.85989,-3.08403 z m -76.87468,-70.2429 c 4.54353,-4.54353 7.27623,-9.36594 7.27623,-12.84041 0,-7.51536 -5.23925,-7.16165 -8.44178,0.56992 -3.09218,7.46525 -10.80869,11.95734 -17.10662,9.95845 -5.04658,-1.60173 -8.6927,-8.92475 -8.6927,-17.45881 0,-7.81566 -7.26525,-5.90866 -8.18961,2.14962 -1.54318,13.45334 8.26021,24.62187 21.77905,24.81178 4.15558,0.0584 8.41789,-2.23301 13.37543,-7.19055 z m 174.82808,-12.01785 c 10.58827,-8.32872 13.12568,-29.92749 3.51587,-29.92749 -3.74049,0 -4.15556,0.96357 -3.02072,7.01273 0.99468,5.30217 0.19742,8.43424 -3.26847,12.84041 -6.06431,7.70953 -13.1874,7.49846 -19.99551,-0.59252 -6.52929,-7.75961 -9.9587,-8.19362 -9.9587,-1.26027 0,7.19759 11.25121,16.24075 20.20624,16.24075 3.8706,0 9.50516,-1.94113 12.52129,-4.31361 z M 339.3194,660.14771 c 2.26451,-1.21195 5.60548,-5.08136 7.42439,-8.59873 2.82998,-5.47257 2.86718,-6.56402 0.25792,-7.5653 -1.67704,-0.64354 -5.51909,1.29982 -8.53785,4.3186 -11.09531,11.09531 -22.79526,5.69573 -24.42569,-11.27264 -1.5859,-16.50472 -7.29502,-14.40851 -7.29502,2.67853 0,10.31887 3.27013,17.01076 9.88249,20.2232 5.84143,2.8379 17.58612,2.94985 22.69376,0.21634 z M 298.73698,536.24624 c 60.03971,-25.0534 121.53468,-36.54024 195.61885,-36.54024 76.87761,0 129.32549,10.85051 197.42363,40.84338 8.87501,3.9089 11.78947,4.39767 13.86234,2.3248 4.40045,-4.40045 -0.56333,-9.41881 -17.69657,-17.89106 -32.09579,-15.87111 -86.78415,-30.5553 -133.66748,-35.89058 -28.87432,-3.28586 -96.71471,-2.72171 -127.24636,1.05818 -50.27027,6.22358 -104.78946,20.76949 -139.72719,37.27974 -11.99232,5.66709 -14.44546,7.70863 -14.44546,12.02166 0,2.91998 1.25804,5.19532 2.8725,5.19532 1.57989,0 11.93247,-3.78054 23.00574,-8.4012 z M 465.03582,434.29665 c 0.70817,-7.24529 -7.92183,-18.05332 -14.4152,-18.05332 -9.14899,0 -11.41329,10.9494 -4.16888,20.15919 3.49737,4.44616 6.05394,5.60751 11.23536,5.10374 5.74583,-0.55862 6.79968,-1.59253 7.34872,-7.20961 z m 66.93582,1.37191 c 9.26697,-9.26697 7.47344,-19.42523 -3.42969,-19.42523 -8.91168,0 -18.90657,16.38451 -13.77023,22.57342 4.02131,4.84539 10.36801,3.68372 17.19992,-3.14819 z M 353.32996,415.39742 c 14.65356,-6.82318 25.74778,-18.39795 33.48813,-34.93871 5.87248,-12.54922 6.32739,-15.15732 5.4456,-31.22059 -1.10396,-20.11003 -5.58038,-30.73535 -19.15154,-45.4583 -19.55937,-21.21942 -48.38442,-26.54908 -74.09707,-13.70031 -24.42999,12.2078 -35.03958,29.4896 -36.44121,59.35854 -0.88651,18.89154 -0.60036,20.54173 5.82496,33.59343 7.74448,15.73127 21.69242,29.23147 35.11474,33.98754 14.43453,5.11474 36.92132,4.38275 49.81639,-1.6216 z m 318.8442,-1.89259 c 12.0432,-6.1326 21.87645,-16.21382 29.22016,-29.95704 4.13076,-7.7304 4.82829,-12.28213 4.82829,-31.50652 0,-20.91131 -0.44081,-23.26657 -6.35204,-33.93892 -12.181,-21.99202 -32.17741,-34.46372 -55.93345,-34.88548 -34.04528,-0.60445 -59.56029,22.74081 -66.21088,60.58041 -1.82284,10.37137 2.47022,30.73042 8.79365,41.70231 6.78847,11.77879 24.55515,27.48636 35.75763,31.61344 13.56284,4.99665 36.21534,3.35856 49.89664,-3.6082 z"
     id="path18"
     transform="translate(169,129)" />
  <path
     style="fill:#ffffff;stroke-width:2.14007"
     d="m 627.91563,408.75882 c -13.01369,-4.16813 -28.10132,-17.76313 -34.9371,-31.48075 -6.96368,-13.97429 -7.63109,-36.45381 -1.48411,-49.9875 20.50504,-45.14557 78.56745,-46.653 101.04986,-2.62348 6.4608,12.65283 7.94202,35.00454 3.15104,47.54953 -11.28847,29.55844 -40.46769,45.28989 -67.77969,36.5422 z m 26.96721,-29.83791 c 14.69088,-6.13824 20.90811,-28.48194 11.99316,-43.10143 -5.28419,-8.66547 -17.79085,-14.5774 -27.50391,-13.00119 -15.68599,2.54548 -24.51182,12.87855 -24.75476,28.98224 -0.1827,12.11113 4.02112,19.84338 14.14408,26.01573 8.13874,4.96251 16.0841,5.29851 26.12143,1.10465 z"
     id="path19"
     transform="translate(169,129)" />
  <path
     style="fill:#ffffff;stroke-width:2.14007"
     d="m 308.5528,408.66167 c -13.636,-5.0025 -24.30072,-15.09621 -31.58611,-29.89494 -5.99226,-12.172 -6.64818,-15.3111 -5.89981,-28.23524 1.86614,-32.22797 22.88576,-55.09769 53.16384,-57.84321 28.35575,-2.57121 55.34213,21.88035 59.05986,53.51238 4.89617,41.65879 -36.69447,76.41755 -74.73778,62.46101 z m 39.35615,-34.2913 c 23.26206,-22.28647 1.4561,-60.21419 -28.86579,-50.20707 -17.76952,5.86447 -25.49184,32.26338 -13.63828,46.62278 10.64387,12.894 30.99549,14.61021 42.50407,3.58429 z"
     id="path20"
     transform="translate(169,129)" />
  <path
     style="fill:#ffffff;stroke-width:0.878268"
     d="m 394.30141,129.55641 c -8.14684,-3.23114 -14.36065,-11.3544 -16.23148,-21.21927 -1.98092,-10.445342 4.58292,-22.522904 15.35908,-28.26092 5.30524,-2.824901 16.84426,-2.714786 22.80233,0.217599 5.52456,2.719024 10.71005,7.909717 13.09758,13.110718 2.60789,5.681024 2.62657,16.498293 0.0382,22.132333 -2.58933,5.63617 -6.90313,10.22988 -12.11076,12.89659 -6.15452,3.15159 -16.55696,3.66047 -22.95496,1.12295 z"
     id="path21"
     transform="translate(169,129)" />
</svg>
