<?xml version="1.0" encoding="UTF-8" standalone="no"?>
<svg
   version="1.0"
   width="1142"
   height="980"
   viewBox="79 141 1142 980"
   preserveAspectRatio="xMidYMid meet"
   id="svg26"
   sodipodi:docname="frog6.svg"
   inkscape:version="1.4.3 (0d15f75, 2025-12-25)"
   xmlns:inkscape="http://www.inkscape.org/namespaces/inkscape"
   xmlns:sodipodi="http://sodipodi.sourceforge.net/DTD/sodipodi-0.dtd"
   xmlns="http://www.w3.org/2000/svg"
   xmlns:svg="http://www.w3.org/2000/svg">
  <defs
     id="defs26" />
  <sodipodi:namedview
     id="namedview26"
     pagecolor="#505050"
     bordercolor="#ffffff"
     borderopacity="1"
     inkscape:showpageshadow="0"
     inkscape:pageopacity="0"
     inkscape:pagecheckerboard="1"
     inkscape:deskcolor="#505050"
     inkscape:zoom="0.53060209"
     inkscape:cx="535.24101"
     inkscape:cy="347.71819"
     inkscape:window-width="1920"
     inkscape:window-height="1022"
     inkscape:window-x="0"
     inkscape:window-y="30"
     inkscape:window-maximized="1"
     inkscape:current-layer="svg26" />
  <metadata
     id="metadata1">
Created by potrace 1.16, written by Peter Selinger 2001-2019
</metadata>
  <g
     transform="translate(0.000000,1254.000000) scale(0.100000,-0.100000)"
     fill="#000000"
     stroke="none"
     id="g26">
    <path
       d="M5440 10830 c-416 -24 -821 -153 -1169 -372 -523 -330 -975 -916 -1193 -1548 -40 -117 -92 -333 -113 -468 l-18 -114 -91 -123 c-50 -68 -126 -169 -170 -225 -248 -323 -347 -573 -441 -1120 -57 -326 -96 -430 -322 -850 -61 -112 -144 -317 -170 -417 -18 -68 -21 -73 -78 -116 -33 -24 -105 -91 -161 -149 -201 -210 -339 -467 -400 -748 -27 -122 -27 -468 0 -590 64 -297 204 -569 394 -770 45 -46 80 -85 79 -86 -1 0 -40 -19 -87 -42 -110 -52 -180 -100 -256 -174 -161 -157 -166 -341 -11 -420 67 -34 256 -35 342 -2 10 4 15 0 15 -12 0 -36 48 -121 82 -147 81 -62 195 -74 325 -32 71 22 195 91 266 147 l27 22 17 -24 c62 -93 205 -190 314 -211 158 -31 308 76 328 234 l6 52 62 -3 c116 -7 216 48 257 139 l21 47 117 -63 c310 -166 680 -293 964 -328 l99 -13 7 -64 c23 -206 215 -378 582 -521 303 -118 490 -125 599 -21 16 15 35 39 43 54 l14 27 73 -34 c39 -19 107 -43 150 -52 67 -14 87 -15 140 -4 112 23 181 78 214 172 l18 49 61 -6 c71 -7 155 13 214 52 122 81 145 260 53 414 -2 3 117 6 265 6 756 4 1479 167 2096 475 98 49 180 88 181 87 1 -2 7 -30 14 -63 9 -39 10 -60 3 -63 -47 -15 -201 -122 -268 -185 -129 -121 -181 -244 -155 -361 14 -65 53 -113 122 -151 48 -26 64 -30 139 -30 47 0 99 3 116 7 31 7 31 6 43 -46 33 -149 186 -226 361 -182 116 30 275 117 369 202 l41 37 90 -42 c131 -61 223 -83 370 -88 181 -7 283 22 362 104 51 52 68 99 68 182 0 104 -47 215 -128 303 l-24 27 35 83 c43 103 62 162 82 256 100 481 -52 990 -409 1369 l-74 79 42 85 c24 46 45 91 48 99 4 12 9 13 26 3 241 -142 454 -234 692 -298 155 -41 231 -28 272 46 17 29 18 47 13 130 -12 165 36 272 164 370 41 32 80 68 87 81 19 34 17 87 -7 154 -16 47 -20 76 -17 144 5 101 32 166 103 249 86 101 90 122 44 238 -56 138 -40 263 50 405 77 123 80 142 31 237 -63 124 -67 220 -20 420 26 113 29 137 20 172 -14 52 -46 84 -100 100 -47 14 -95 2 -247 -66 -120 -53 -248 -82 -442 -99 -232 -21 -347 -47 -493 -110 l-37 -16 -30 39 c-49 62 -61 101 -61 200 0 84 2 93 36 153 47 84 104 159 181 238 64 68 93 119 93 166 0 15 -19 65 -42 112 -42 84 -42 85 -38 176 2 50 4 145 4 211 0 103 -3 127 -23 170 -27 61 -56 93 -98 111 -93 40 -182 -8 -320 -172 -83 -99 -267 -302 -271 -299 -1 1 18 50 43 109 61 147 112 309 137 446 29 149 30 405 4 555 -75 418 -307 849 -628 1161 -170 165 -246 209 -347 202 -68 -5 -103 -28 -127 -85 -32 -75 -18 -145 91 -438 122 -333 160 -527 152 -785 -6 -180 -22 -272 -68 -390 -57 -147 -90 -191 -311 -410 -209 -207 -273 -279 -344 -389 -21 -34 -41 -61 -44 -61 -3 0 -38 114 -79 253 -169 575 -294 907 -454 1207 -204 384 -386 627 -647 866 -78 71 -244 208 -297 244 -17 12 -25 31 -33 85 -13 90 -68 203 -115 239 -89 68 -172 72 -287 12 l-67 -35 -48 23 c-207 100 -524 179 -767 191 -55 3 -123 7 -151 9 -27 1 -106 0 -175 -4z m555 -194 c161 -31 380 -101 492 -157 43 -21 89 -39 103 -39 14 0 47 16 75 35 57 41 113 60 148 51 42 -10 76 -94 84 -202 6 -79 9 -92 34 -116 15 -16 35 -28 44 -28 39 0 262 -187 423 -354 202 -211 371 -461 533 -790 142 -287 246 -571 389 -1061 34 -115 78 -259 97 -319 35 -108 35 -108 18 -153 -16 -42 -19 -45 -49 -40 -17 3 -70 11 -118 18 l-87 12 -38 74 c-96 186 -197 263 -329 250 -28 -3 -71 -15 -95 -28 -59 -29 -156 -131 -199 -207 -39 -69 -37 -68 -157 -76 -65 -4 -83 -2 -83 8 0 27 -131 273 -182 341 -78 105 -238 260 -373 360 -172 127 -262 222 -323 343 -59 114 -78 173 -97 302 -38 247 -2 480 140 907 38 113 69 224 72 259 14 147 -94 233 -225 178 -163 -68 -421 -376 -592 -707 -254 -492 -308 -969 -164 -1445 15 -48 62 -175 105 -282 70 -174 80 -207 94 -310 8 -63 24 -150 35 -194 12 -43 20 -80 18 -81 -2 -2 -45 -17 -96 -33 l-92 -30 -64 64 c-221 221 -439 116 -500 -241 -8 -43 -19 -81 -24 -83 -25 -8 -182 -107 -258 -162 -45 -33 -88 -60 -94 -60 -21 0 -228 109 -318 167 -48 30 -147 101 -222 158 -182 138 -251 184 -318 211 -112 46 -216 22 -253 -59 -24 -54 -24 -82 2 -203 15 -72 20 -123 17 -189 -5 -112 -27 -164 -101 -243 -30 -31 -59 -67 -66 -79 -22 -43 -13 -93 29 -163 100 -166 105 -316 14 -453 -62 -94 -53 -137 50 -230 56 -50 83 -84 108 -134 31 -64 33 -73 33 -178 -1 -99 -4 -119 -33 -194 -18 -47 -32 -99 -32 -115 0 -47 31 -89 81 -110 179 -75 257 -134 312 -234 55 -101 72 -254 45 -413 -14 -85 -1 -136 42 -173 66 -55 125 -46 335 49 187 84 400 169 630 251 261 92 406 152 511 210 49 27 93 49 98 49 5 0 17 -33 28 -74 25 -96 76 -206 132 -284 121 -171 348 -326 538 -367 50 -11 60 -11 82 4 31 20 35 65 9 89 -10 8 -57 33 -105 55 -391 180 -585 501 -513 847 19 91 80 212 149 299 57 70 64 92 46 127 -27 49 -115 6 -203 -101 -72 -87 -157 -287 -157 -372 0 -22 -11 -35 -57 -66 -155 -104 -267 -152 -767 -328 -123 -44 -260 -99 -396 -159 -205 -91 -242 -106 -246 -102 -3 3 0 33 6 68 25 157 5 309 -58 439 -52 106 -159 213 -268 267 -45 22 -87 42 -95 45 -12 4 -10 17 8 74 80 253 36 459 -136 628 l-49 49 24 37 c47 71 67 147 68 255 1 112 -14 168 -70 273 -19 34 -34 67 -34 73 0 5 15 26 33 45 52 58 84 111 109 182 19 56 23 86 22 187 0 79 -6 141 -17 181 -9 34 -17 72 -17 84 0 52 102 -1 325 -170 77 -59 182 -135 234 -169 202 -136 504 -259 821 -335 354 -85 538 -169 752 -342 94 -76 118 -86 150 -57 22 19 23 54 4 92 -21 39 -140 149 -221 203 -170 112 -320 170 -675 263 -118 31 -219 60 -223 65 -11 10 74 68 197 136 49 27 95 58 102 69 7 11 20 64 28 117 17 102 46 190 74 222 49 54 100 34 208 -80 80 -84 83 -86 120 -81 22 2 88 22 148 43 93 33 110 37 117 24 5 -8 26 -43 47 -77 82 -138 199 -251 298 -289 42 -16 49 -16 73 -3 34 19 41 69 13 97 -19 19 -19 20 60 24 90 5 131 27 136 72 6 50 -17 63 -131 68 -173 10 -300 76 -351 184 -52 108 -106 323 -106 418 0 49 40 119 89 157 56 41 81 68 81 82 0 23 -40 67 -61 67 -30 0 -87 -26 -130 -61 -22 -17 -41 -30 -42 -28 -8 12 -77 192 -77 199 0 6 23 35 50 65 54 60 61 84 30 115 -25 25 -56 25 -98 0 -18 -11 -34 -20 -37 -20 -8 0 -44 136 -61 230 -22 126 -22 372 0 500 68 389 276 808 541 1089 71 75 159 151 176 151 20 0 6 -60 -56 -248 -127 -383 -157 -532 -157 -784 l0 -166 -36 -7 c-83 -15 -130 -62 -112 -109 13 -34 49 -48 92 -35 18 5 45 9 60 9 25 0 29 -6 44 -57 9 -32 30 -88 47 -126 16 -37 28 -69 26 -70 -2 -1 -22 -12 -44 -24 -22 -11 -49 -37 -59 -56 -19 -33 -19 -36 -3 -61 22 -32 48 -33 131 -4 l63 22 64 -66 64 -66 -48 -31 c-26 -18 -53 -42 -59 -56 -15 -33 -2 -74 28 -87 21 -10 34 -7 97 25 40 21 85 37 101 37 52 0 262 -185 363 -320 50 -67 113 -170 113 -185 0 -6 -25 -40 -55 -75 -61 -70 -74 -102 -54 -126 33 -40 86 -34 134 16 16 17 32 30 37 30 11 0 37 -95 47 -179 12 -96 -1 -175 -44 -270 -37 -83 -35 -110 9 -126 37 -13 70 7 118 70 67 88 91 211 75 385 -2 22 3 25 43 32 25 3 73 7 106 7 77 1 99 17 152 114 80 145 166 212 235 184 49 -21 92 -77 147 -192 27 -57 58 -108 67 -114 10 -5 61 -14 113 -21 52 -6 124 -18 160 -26 94 -22 117 -21 148 8 15 14 42 30 61 37 47 15 150 14 199 -3 38 -14 59 -26 150 -90 48 -33 86 -30 104 9 15 33 3 69 -36 113 -68 75 -214 140 -318 141 -21 1 -38 3 -38 6 0 10 42 89 62 118 17 23 26 27 67 27 27 0 68 -7 91 -15 59 -21 97 -19 110 4 28 52 -6 101 -90 132 -55 20 -59 23 -48 43 6 11 117 126 245 254 256 253 241 244 341 221 64 -15 100 -6 108 26 14 58 -23 98 -109 119 -22 5 -27 11 -22 24 24 57 75 210 75 224 0 35 72 50 157 34 38 -7 45 -5 68 18 30 30 31 45 4 80 -25 32 -116 61 -165 51 l-35 -6 3 58 3 58 54 10 c84 16 110 65 63 118 -11 12 -30 17 -68 17 l-52 0 -7 63 c-20 186 -98 469 -201 735 -50 127 -66 202 -42 202 45 0 199 -134 326 -285 225 -267 386 -590 453 -905 51 -245 27 -563 -60 -792 l-10 -27 -46 20 c-57 25 -92 22 -117 -12 -27 -36 -11 -71 49 -109 26 -16 52 -31 56 -32 4 -2 -6 -33 -22 -69 -38 -85 -77 -223 -91 -322 -5 -43 -10 -81 -10 -83 0 -3 -28 -18 -62 -34 -70 -33 -157 -40 -229 -18 -49 14 -86 0 -95 -38 -13 -50 29 -86 130 -111 63 -15 76 -15 143 -2 41 9 76 13 78 9 10 -16 -66 -174 -108 -226 -49 -59 -54 -73 -36 -105 20 -39 56 -42 113 -10 77 44 122 55 155 41 57 -23 64 -83 26 -209 -13 -45 -21 -89 -18 -99 4 -9 30 -40 59 -69 28 -28 65 -71 82 -95 41 -61 108 -196 116 -237 8 -45 32 -71 65 -71 19 0 45 20 101 78 103 107 196 174 325 238 127 62 255 99 396 114 54 5 145 15 201 21 139 15 269 49 406 108 64 28 117 49 119 47 1 -1 -9 -47 -23 -102 -31 -117 -41 -267 -25 -345 7 -30 26 -84 42 -121 l31 -66 -42 -71 c-104 -175 -125 -365 -58 -523 l20 -48 -28 -36 c-92 -113 -129 -192 -146 -313 -10 -76 -7 -109 29 -256 3 -14 -4 -25 -24 -37 -50 -29 -140 -127 -171 -186 -47 -88 -64 -161 -63 -268 0 -52 -1 -94 -3 -94 -1 0 -51 14 -110 30 -207 58 -470 175 -616 273 l-64 43 -2 140 c-1 107 -6 158 -22 219 -42 154 -168 366 -227 381 -33 8 -75 -19 -75 -49 0 -12 29 -80 65 -152 80 -159 105 -251 105 -387 0 -170 -44 -312 -143 -461 -62 -93 -162 -193 -259 -258 -35 -23 -78 -59 -96 -80 -85 -99 -316 -259 -517 -361 -77 -38 -143 -75 -147 -81 -24 -37 8 -87 54 -87 100 0 409 159 571 293 26 22 50 38 52 36 8 -8 -63 -156 -107 -225 -356 -553 -1223 -973 -2268 -1098 -250 -30 -432 -39 -708 -33 l-274 5 -26 25 c-35 33 -134 95 -217 138 -66 34 -66 34 -61 69 34 201 33 433 -4 602 -48 226 -161 448 -229 448 -11 0 -30 -9 -42 -21 -27 -27 -23 -43 35 -184 86 -209 124 -449 105 -667 -13 -148 -16 -161 -43 -154 -62 15 -163 26 -190 20 -41 -8 -66 -32 -66 -61 0 -28 33 -63 59 -63 42 0 233 -65 339 -116 191 -90 317 -195 373 -310 26 -52 31 -72 26 -106 -7 -51 -48 -94 -101 -103 -57 -11 -147 13 -176 47 -76 90 -117 130 -164 163 -59 40 -172 85 -215 85 -36 0 -63 -30 -59 -66 3 -24 16 -36 87 -75 201 -110 291 -259 207 -339 -57 -52 -157 -42 -303 31 -94 46 -107 57 -147 113 -73 102 -193 170 -237 134 -10 -7 -20 -24 -24 -37 -6 -20 2 -32 51 -77 106 -99 137 -173 95 -225 -18 -22 -26 -24 -118 -23 -89 0 -110 4 -235 46 -292 99 -481 219 -550 351 -32 60 -32 176 0 230 34 59 29 81 -36 155 -114 130 -186 265 -224 418 -31 129 -31 316 1 439 53 202 147 363 312 530 60 60 109 117 109 125 0 9 -7 26 -16 38 -34 49 -120 15 -237 -96 -157 -150 -269 -355 -329 -602 -8 -35 -13 -117 -13 -225 0 -155 3 -179 28 -269 45 -162 132 -328 225 -428 14 -15 23 -30 20 -33 -10 -10 -180 15 -303 45 -303 73 -622 206 -869 365 -253 161 -319 238 -390 450 -49 144 -72 266 -126 660 -37 274 -60 350 -107 361 -59 15 -84 -32 -72 -131 5 -38 20 -176 34 -305 62 -570 162 -848 363 -1015 37 -31 77 -64 90 -75 48 -40 15 -133 -52 -145 -52 -10 -147 19 -171 52 -87 121 -182 166 -216 102 -14 -28 -5 -62 30 -101 104 -121 121 -268 36 -324 -13 -9 -45 -16 -70 -16 -100 0 -210 87 -294 229 -44 77 -71 95 -111 73 -12 -6 -28 -26 -36 -45 -8 -21 -41 -53 -89 -89 -179 -136 -351 -166 -391 -69 -31 73 23 166 151 258 48 35 55 43 55 72 0 30 -26 53 -62 53 -63 0 -212 -107 -254 -182 -10 -19 -121 -51 -217 -63 -76 -10 -123 0 -143 30 -52 80 122 241 370 342 72 30 88 33 142 27 54 -5 64 -4 83 15 42 42 23 81 -67 133 -188 110 -382 366 -481 636 -163 443 -95 909 187 1292 114 153 290 299 448 371 209 95 456 104 631 24 64 -29 99 -32 125 -8 62 56 -41 152 -213 197 -161 41 -374 22 -564 -50 -35 -14 40 156 236 536 132 254 172 379 224 690 67 405 142 622 300 874 57 91 221 306 234 306 4 0 8 -19 10 -42 3 -63 30 -102 70 -106 62 -6 67 7 74 206 7 208 24 334 73 530 125 507 368 940 748 1331 381 391 828 620 1361 697 60 8 172 12 335 10 216 -3 262 -7 385 -30z m4550 -2503 c19 -48 23 -127 13 -240 -13 -149 -3 -229 42 -320 36 -73 40 -59 -53 -163 -32 -35 -79 -94 -104 -130 -26 -36 -48 -67 -49 -69 -2 -2 -15 6 -30 18 -48 38 -70 28 -215 -102 l-96 -86 -32 49 c-22 35 -46 56 -83 74 -29 14 -58 26 -65 26 -17 0 -17 2 11 90 13 41 32 120 41 175 l17 100 133 132 c74 73 165 170 203 215 112 135 223 248 242 248 10 0 21 -8 25 -17z m-228 -1075 c4 -7 8 -60 8 -118 1 -113 11 -148 75 -251 29 -48 29 -49 9 -59 -11 -6 -56 -41 -101 -76 -44 -36 -81 -64 -83 -62 -1 2 -13 23 -25 48 -29 57 -72 121 -125 185 -40 47 -41 52 -31 86 8 24 33 54 81 96 39 34 92 84 120 112 53 54 59 58 72 39z m97 -2998 c253 -334 347 -794 240 -1169 -27 -92 -89 -234 -111 -252 -7 -6 -13 -27 -13 -45 0 -27 12 -47 62 -101 114 -126 150 -252 90 -313 -55 -54 -199 -73 -345 -46 -110 21 -176 45 -277 102 -43 24 -87 44 -98 44 -12 0 -57 -31 -102 -70 -142 -123 -246 -181 -357 -202 -50 -9 -64 -8 -95 6 -64 31 -80 104 -40 182 21 42 120 140 171 170 91 54 44 145 -57 110 -63 -23 -154 -89 -207 -151 -42 -49 -56 -58 -117 -76 -120 -37 -212 -13 -231 60 -7 27 -3 44 19 90 69 140 282 283 549 366 154 48 183 78 130 130 -30 31 -70 32 -180 6 -90 -22 -89 -23 -105 52 -18 84 -16 87 72 152 117 86 307 273 392 384 119 159 200 337 227 499 l12 72 73 61 c40 34 85 77 100 96 l26 35 50 -49 c27 -26 82 -91 122 -143z"
       id="path1" />
    <path
       d="M5062 10415 c-83 -26 -172 -126 -172 -193 0 -28 34 -62 61 -62 13 0 43 21 72 51 55 56 80 69 137 69 33 0 47 -7 86 -46 55 -53 94 -57 127 -12 l20 26 -22 46 c-53 108 -185 160 -309 121z"
       id="path2" />
    <path
       d="M4234 9431 c-106 -48 -174 -154 -182 -281 -4 -66 -1 -78 18 -102 16 -21 30 -28 55 -28 44 0 61 26 68 103 11 114 75 182 171 180 60 -1 84 9 96 43 31 80 -116 135 -226 85z"
       id="path3" />
    <path
       d="M7260 9321 c-128 -39 -212 -151 -148 -195 32 -22 51 -20 111 13 75 42 107 46 160 23 55 -25 95 -87 104 -163 4 -30 14 -60 25 -71 27 -27 72 -23 98 10 47 59 4 218 -83 305 -69 70 -184 103 -267 78z"
       id="path4" />
    <path
       d="M4895 8161 c-94 -42 -154 -175 -109 -239 12 -18 24 -22 52 -20 34 3 39 7 64 60 35 72 61 82 125 47 40 -22 45 -23 71 -9 32 19 41 69 18 105 -19 29 -111 75 -150 75 -17 0 -49 -9 -71 -19z"
       id="path5" />
    <path
       d="M3028 7583 c-39 -42 -67 -105 -84 -191 -36 -173 23 -377 104 -357 45 10 55 32 46 100 -5 33 -8 103 -8 155 0 94 3 108 55 237 12 30 11 34 -11 58 -31 33 -69 32 -102 -2z"
       id="path6" />
    <path
       d="M3815 6800 c-9 -10 -17 -31 -17 -45 0 -56 147 -224 285 -324 90 -66 258 -151 386 -195 57 -20 186 -56 287 -81 371 -91 463 -139 704 -369 169 -161 254 -221 327 -232 52 -8 83 13 83 56 0 30 -18 48 -102 104 -31 21 -116 97 -190 170 -146 145 -239 216 -368 280 -119 59 -175 78 -420 140 -417 104 -575 184 -802 403 -67 65 -124 113 -136 113 -10 0 -27 -9 -37 -20z"
       id="path7" />
    <path
       d="M11475 6699 c-86 -48 -188 -81 -320 -104 -380 -66 -603 -175 -786 -386 -95 -108 -199 -280 -199 -327 0 -42 66 -68 102 -39 8 6 30 35 48 62 58 87 169 222 223 271 151 135 309 207 570 259 243 49 371 97 460 175 52 46 62 84 29 113 -27 24 -49 20 -127 -24z"
       id="path8" />
    <path
       d="M11155 6215 c-238 -44 -594 -178 -625 -234 -24 -46 0 -91 49 -91 14 0 63 15 107 34 120 50 239 90 429 141 94 25 180 53 193 61 26 17 30 65 6 88 -18 19 -61 19 -159 1z"
       id="path9" />
    <path
       d="M9458 6109 c-52 -15 -127 -84 -154 -144 -88 -189 74 -400 273 -356 192 44 262 286 124 434 -56 61 -160 89 -243 66z"
       id="path10" />
    <path
       d="M7222 6063 c-63 -22 -135 -97 -157 -162 -22 -66 -16 -150 14 -208 26 -53 91 -108 149 -127 169 -58 342 71 342 255 0 183 -174 304 -348 242z"
       id="path11" />
    <path
       d="M4003 6045 c-23 -16 -30 -58 -15 -82 14 -22 65 -34 292 -68 288 -45 360 -57 612 -107 193 -38 209 -40 231 -25 61 40 30 93 -73 126 -177 55 -385 97 -685 135 -294 38 -336 40 -362 21z"
       id="path12" />
    <path
       d="M11029 5839 c-186 -12 -532 -64 -600 -90 -55 -21 -56 -102 -2 -115 13 -4 101 3 196 15 225 27 445 49 582 56 164 10 206 30 190 92 -13 52 -81 60 -366 42z"
       id="path13" />
    <path
       d="M4035 5670 c-22 -24 -23 -67 -2 -87 27 -28 396 -50 957 -60 l375 -6 28 22 c32 26 35 61 7 86 -15 14 -46 20 -128 26 -141 11 -932 39 -1093 39 -112 0 -128 -2 -144 -20z"
       id="path14" />
    <path
       d="M10450 5540 c-11 -11 -20 -31 -20 -43 0 -46 28 -56 241 -92 112 -19 288 -50 392 -69 103 -20 200 -36 216 -36 67 0 87 97 25 121 -94 35 -403 97 -619 124 -165 21 -210 20 -235 -5z"
       id="path15" />
    <path
       d="M4825 5379 c-671 -85 -665 -84 -665 -139 0 -46 27 -60 117 -60 214 0 1041 108 1225 160 86 24 72 122 -17 119 -16 0 -313 -37 -660 -80z"
       id="path16" />
    <path
       d="M10526 5306 c-45 -44 -33 -77 43 -115 118 -60 558 -244 594 -249 27 -3 43 0 57 13 25 23 26 67 2 88 -27 24 -255 130 -447 207 -220 89 -218 88 -249 56z"
       id="path17" />
    <path
       d="M8832 5257 c-40 -30 -91 -93 -98 -124 -15 -58 26 -103 81 -89 43 11 132 107 140 150 15 78 -54 113 -123 63z"
       id="path18" />
    <path
       d="M8090 5250 c-27 -27 -25 -58 9 -111 56 -90 170 -137 205 -87 24 34 19 70 -14 116 -65 90 -155 127 -200 82z"
       id="path19" />
    <path
       d="M5199 5175 c-177 -58 -375 -116 -644 -190 -93 -26 -175 -51 -182 -57 -7 -6 -13 -26 -13 -44 0 -45 35 -69 87 -60 92 17 457 110 589 151 286 89 394 142 394 194 0 19 -24 44 -51 53 -8 4 -89 -18 -180 -47z"
       id="path20" />
    <path
       d="M5420 5023 c-239 -140 -447 -241 -747 -363 -81 -33 -151 -66 -155 -73 -13 -21 -9 -64 8 -78 25 -20 70 -14 189 26 244 83 511 209 696 330 168 110 206 157 161 198 -29 26 -50 20 -152 -40z"
       id="path21" />
    <path
       d="M10560 5063 c-24 -8 -40 -34 -40 -64 0 -20 14 -40 55 -78 80 -72 205 -160 320 -225 122 -68 155 -76 184 -47 48 48 25 77 -154 192 -71 46 -161 106 -200 133 -109 77 -137 96 -144 95 -3 0 -13 -3 -21 -6z"
       id="path22" />
    <path
       d="M3280 4870 c-15 -16 -44 -69 -65 -117 -154 -368 -133 -868 53 -1238 105 -210 266 -391 434 -484 70 -40 126 -40 144 -2 18 36 4 61 -72 119 -253 194 -408 444 -480 772 -15 68 -19 128 -19 295 0 236 8 287 75 498 22 69 40 130 40 136 0 19 -39 51 -61 51 -12 0 -34 -13 -49 -30z"
       id="path23" />
    <path
       d="M2487 4832 c-24 -26 -21 -54 9 -115 15 -28 35 -76 45 -106 11 -30 27 -63 36 -73 16 -18 58 -24 80 -10 40 25 29 115 -27 220 -51 96 -104 127 -143 84z"
       id="path24" />
    <path
       d="M8260 4813 c-278 -9 -597 -36 -895 -74 -401 -51 -909 -165 -978 -220 -51 -39 -25 -119 37 -119 19 0 114 20 212 44 559 139 1085 202 1774 213 561 9 929 -18 1370 -98 144 -27 170 -26 193 2 27 34 19 79 -20 105 -50 34 -352 87 -674 119 -281 28 -702 40 -1019 28z"
       id="path25" />
    <path
       d="M8750 3535 c-36 -7 -88 -13 -116 -14 -100 -2 -144 -12 -161 -37 -23 -35 -9 -72 32 -90 69 -28 285 -9 367 32 15 8 35 25 44 39 13 21 14 28 2 52 -11 24 -19 28 -58 29 -25 1 -74 -4 -110 -11z"
       id="path26" />
  </g>
  <path
     style="fill:#ffffff;stroke-width:1.30514"
     d="m 448.96914,931.27394 c -28.66242,-8.62435 -51.2516,-21.49529 -59.47126,-33.88569 -3.14223,-4.73665 -3.82817,-7.14117 -3.82817,-13.41964 0,-4.20696 0.88098,-9.75748 1.95772,-12.33449 1.07674,-2.57701 1.95771,-5.41946 1.95771,-6.31655 0,-0.89709 -3.87063,-6.8228 -8.6014,-13.16824 -15.86367,-21.27811 -20.11631,-32.45525 -21.06308,-55.35962 -0.7277,-17.60409 0.57093,-25.48123 6.70407,-40.66536 4.93775,-12.22461 10.94776,-21.14537 24.59184,-36.50203 6.99883,-7.87731 12.72514,-14.62544 12.72514,-14.99586 0,-3.08637 -3.21016,-5.72246 -6.96868,-5.72246 -5.9432,0 -14.32361,5.69623 -24.35474,16.55411 -10.53262,11.40069 -18.61676,25.38305 -24.64359,42.6237 -4.55212,13.022 -4.63527,13.62875 -4.6783,34.1399 -0.0385,18.32824 0.32966,22.07163 3.00987,30.60648 3.99155,12.71077 11.65137,27.81245 18.50421,36.48194 l 5.48741,6.94209 -8.3021,-0.93041 c -12.65357,-1.41807 -40.49289,-8.90016 -57.24493,-15.38511 -29.79247,-11.53309 -61.76368,-30.17117 -74.66186,-43.5252 -12.28646,-12.72069 -18.96304,-33.60401 -25.81716,-80.75207 -6.21749,-42.76891 -7.69283,-47.63772 -14.43505,-47.63772 -7.03946,0 -7.42342,3.21017 -4.03801,33.75996 5.2604,47.46953 10.14233,69.80113 19.43959,88.92347 3.78179,7.77826 7.25196,12.22785 16.89698,21.6659 7.20842,7.05373 12.13779,12.9243 12.13779,14.45535 0,3.62838 -5.37319,8.25361 -9.58832,8.25361 -5.45419,0 -11.5871,-3.07229 -15.89519,-7.96273 -9.00728,-10.22484 -17.18846,-13.31953 -20.22288,-7.64969 -1.8403,3.43866 -0.70297,6.80346 4.68594,13.86331 7.92563,10.38315 9.19524,20.72369 3.2717,26.64722 -8.91754,8.91755 -21.58833,1.98816 -38.35708,-20.97672 -2.35629,-3.22695 -5.36583,-6.07549 -6.68787,-6.3301 -1.59243,-0.30667 -4.65502,2.00162 -9.07414,6.83923 -7.53955,8.25354 -19.0926,15.61342 -29.07817,18.52428 -5.9042,1.72112 -7.30721,1.73203 -11.24326,0.0874 -9.233213,-3.85788 -6.484141,-15.67557 6.01355,-25.85101 7.80285,-6.35297 10.01801,-8.79664 10.01801,-11.05146 0,-2.78945 -3.95407,-5.71691 -7.72174,-5.71691 -4.69733,0 -18.3311,8.83859 -22.925708,14.86244 -4.029916,5.28349 -11.244183,8.03558 -24.669987,9.4111 -6.666407,0.68299 -8.483332,0.41248 -11.018753,-1.64059 -4.475367,-3.62393 -2.695242,-8.2227 6.466085,-16.70447 11.280177,-10.44345 29.918305,-19.4259 42.090443,-20.28505 8.74983,-0.6176 9.31531,-0.85207 10.54808,-4.37372 1.48363,-4.23828 0.29874,-5.54114 -15.312925,-16.83751 -21.132922,-15.29145 -40.155247,-47.78639 -46.794813,-79.93735 -3.485139,-16.87618 -2.867585,-41.31355 1.467704,-58.07885 11.142132,-43.08852 44.558971,-80.03614 81.521434,-90.13489 14.42673,-3.94162 35.11719,-3.14391 47.9903,1.85025 10.70746,4.15398 15.36331,3.27276 15.36331,-2.90786 0,-4.96843 -6.36517,-10.62377 -16.5336,-14.68981 -6.78114,-2.71157 -9.67619,-3.0371 -26.53612,-2.9838 -15.7458,0.0498 -20.34013,0.52968 -27.35198,2.85708 -4.63507,1.53849 -8.62097,2.60369 -8.85755,2.36711 -0.88673,-0.88673 5.06095,-14.06156 19.49627,-43.18665 17.48955,-35.28739 20.4849,-43.9571 26.60439,-77.00343 7.23209,-39.0546 11.28716,-52.48087 22.29696,-73.82485 6.34165,-12.29414 25.34331,-39.97797 28.98494,-42.22861 0.81399,-0.50307 1.75052,0.65703 2.24341,2.77893 1.50455,6.47718 4.19599,9.51567 8.42881,9.51567 5.32832,0 5.80685,-1.76053 7.54578,-27.76087 4.20464,-62.86728 28.21356,-118.9562 72.31189,-168.93283 36.24088,-41.0718 81.24108,-67.392906 132.32414,-77.397833 19.88267,-3.894142 64.00099,-3.932102 83.9128,-0.0722 13.10762,2.54091 39.64489,11.074259 53.31122,17.142805 l 6.86823,3.04984 9.18245,-4.959645 c 6.21622,-3.357527 10.14807,-4.717284 12.17175,-4.209373 3.88128,0.974139 6.98281,8.065771 8.55741,19.566456 1.20663,8.813087 4.79042,15.17365 8.54944,15.17365 4.48646,0 34.35873,26.50235 49.9271,44.29477 19.00293,21.71763 40.14798,56.93503 54.90199,91.44009 8.85264,20.70358 15.369,39.71222 29.63617,86.45062 10.65204,34.8955 12.06788,40.62974 10.87607,44.04858 -1.57014,4.5041 -1.17098,4.43578 -14.27024,2.4422 l -9.89255,-1.50554 -3.15888,-5.97084 c -10.3663,-19.59413 -20.04352,-27.01867 -33.90918,-26.01572 -9.30931,0.67337 -15.99836,4.83251 -24.00012,14.92285 -12.72637,16.04814 -11.04066,14.75273 -20.29529,15.59619 l -8.48343,0.77317 -2.3243,-5.6555 c -1.27836,-3.11053 -5.38956,-11.22705 -9.136,-18.03669 -8.13836,-14.7926 -24.41961,-32.00798 -47.9237,-50.6733 -17.53498,-13.92506 -23.29655,-20.57269 -30.1972,-34.84117 -6.58163,-13.60879 -9.1134,-26.17933 -9.05626,-44.96538 0.0563,-18.51333 3.47467,-35.60053 13.60758,-68.01978 3.94188,-12.61167 7.57262,-25.0921 8.0683,-27.73429 1.34299,-7.15874 -0.3147,-13.35947 -4.75986,-17.804621 -3.23324,-3.233246 -5.04263,-3.96621 -9.79095,-3.96621 -8.08085,0 -15.11247,3.956239 -26.43149,14.871321 -17.12827,16.51701 -32.90305,39.29812 -45.28275,65.39496 -13.50973,28.47899 -18.68405,48.66132 -19.74384,77.01061 -1.18787,31.77562 1.76927,47.29328 16.14251,84.70796 6.12142,15.93456 9.24035,26.25852 10.91848,36.14117 1.29207,7.60902 3.02146,16.3312 3.84313,19.3826 0.82165,3.05141 1.30848,5.6984 1.08184,5.88221 -0.22662,0.1838 -4.15792,1.57967 -8.73619,3.10192 l -8.32413,2.76773 -6.61684,-5.94911 c -10.96077,-9.85467 -19.74467,-13.25987 -28.2776,-10.96218 -10.67405,2.87421 -17.73495,12.90823 -22.13159,31.45047 -1.54789,6.528 -3.46648,11.49792 -4.73848,12.27462 -1.17561,0.71783 -9.12752,5.83994 -17.67092,11.38248 -13.95773,9.0551 -15.88611,9.94327 -19.00999,8.75557 -8.78915,-3.34163 -30.50586,-16.79996 -49.46356,-30.65367 -25.53675,-18.66148 -29.70783,-21.14535 -38.66304,-23.02373 -6.23534,-1.30787 -7.70707,-1.18538 -12.21904,1.01705 -3.14505,1.53518 -6.11758,4.34879 -7.68276,7.27198 -2.51554,4.69812 -2.51758,4.97994 -0.13906,19.23843 3.81155,22.8491 1.99698,32.36826 -8.32715,43.68401 -5.64566,6.1879 -7.90542,10.05773 -7.90542,13.53798 0,1.34136 2.46318,7.39994 5.47374,13.46352 5.03942,10.14987 5.47955,11.86748 5.54686,21.64622 0.0675,9.8093 -0.30665,11.36034 -4.89283,20.28259 -6.06279,11.79495 -5.66293,13.57103 5.72543,25.43082 4.27544,4.45243 8.92411,10.63063 10.33036,13.72932 3.72793,8.21456 3.48094,21.74503 -0.63204,34.62371 -1.78541,5.59053 -3.25369,11.40683 -3.26286,12.92514 -0.0285,4.72092 4.54655,8.88584 15.98936,14.55597 6.06377,3.00473 13.33962,7.70935 16.16854,10.45472 10.22586,9.92386 14.3214,25.6451 12.02589,46.16286 -1.50103,13.41647 -0.73818,17.07854 4.47065,21.46147 6.34672,5.34042 14.09076,4.00967 38.77347,-6.66291 21.53158,-9.31007 32.49982,-13.62337 69.77662,-27.4399 12.89422,-4.7792 29.17032,-11.56304 36.16912,-15.07521 l 12.72509,-6.38573 2.65734,8.60345 c 7.8934,25.55587 24.51828,44.60548 50.41064,57.76303 15.57195,7.9131 27.97699,8.43619 27.92806,1.17767 -0.0304,-4.50528 -1.0016,-5.34075 -13.94705,-11.99737 -29.05503,-14.94024 -44.53157,-32.974 -49.59133,-57.78539 -3.62981,-17.7994 1.69056,-37.12145 15.178,-55.12208 5.58883,-7.45899 6.59268,-11.75839 3.36989,-14.43307 -8.3805,-6.9552 -30.81877,20.80244 -35.0611,43.37293 -1.49632,7.96088 -1.52104,7.99343 -10.47086,13.78737 -11.3351,7.3381 -24.32644,12.95421 -59.54899,25.74282 -15.43332,5.60354 -38.83052,14.78769 -51.9938,20.40924 -13.16328,5.62155 -24.07822,10.221 -24.25542,10.221 -0.17721,0 0.20469,-3.67071 0.84865,-8.15714 2.2568,-15.7231 -1.44421,-35.03639 -9.01104,-47.02302 -5.34074,-8.4603 -14.91761,-16.97139 -25.14236,-22.34433 -7.29661,-3.83427 -9.21394,-5.42443 -8.56538,-7.10379 2.98995,-7.74208 4.76888,-20.24427 4.30058,-30.22429 -0.63256,-13.48099 -4.05225,-21.764 -13.83664,-33.51457 l -6.71492,-8.06429 3.55945,-7.59742 c 3.19966,-6.82949 3.55945,-9.04858 3.55945,-21.95401 0,-13.78804 -0.18583,-14.74566 -4.69237,-24.1817 l -4.69237,-9.82514 4.54141,-5.83657 c 7.38979,-9.49733 10.88799,-18.44193 11.669,-29.83659 0.60207,-8.78384 -0.82735,-23.05066 -3.05483,-30.48971 -1.93691,-6.46871 9.1592,-0.53024 35.38344,18.93668 34.73591,25.78534 56.82936,35.8491 107.67429,49.04659 30.2136,7.84236 46.9341,15.69566 68.36283,32.10875 9.4998,7.27625 13.29269,8.60755 16.21043,5.68981 7.7962,-7.79621 -14.6667,-29.50144 -43.33691,-41.87513 -9.95303,-4.29561 -37.77394,-12.92106 -62.09745,-19.25239 l -5.85198,-1.52324 3.24169,-2.62827 c 1.78292,-1.44555 7.70025,-5.20118 13.14962,-8.34584 5.44936,-3.14467 10.84642,-6.75459 11.99345,-8.02204 1.14704,-1.26746 3.25915,-7.68189 4.69361,-14.2543 1.43444,-6.5724 3.83123,-14.34741 5.32621,-17.27779 2.29359,-4.49582 3.34724,-5.32797 6.74612,-5.32797 3.21963,0 5.91892,1.8335 13.45001,9.136 6.53431,6.33597 10.41668,9.136 12.66749,9.136 1.78503,0 8.44885,-1.75884 14.80847,-3.90853 6.35963,-2.1497 11.66971,-3.76481 11.80019,-3.58914 0.13047,0.17566 2.46279,3.84327 5.18293,8.15024 10.08366,15.96608 20.25561,25.64042 30.95399,29.43973 4.33518,1.53953 5.12762,1.46733 7.50457,-0.68378 2.96397,-2.68236 3.47739,-7.18438 1.09142,-9.57035 -1.21813,-1.21813 -0.33873,-1.56617 3.95735,-1.56617 7.91477,0 14.29453,-2.9934 15.35101,-7.20275 1.31592,-5.24307 -1.43484,-6.85979 -14.39163,-8.45839 -25.66381,-3.16639 -33.60849,-11.07286 -41.19315,-40.99506 -4.75554,-18.761 -3.1553,-26.03729 7.63293,-34.70695 6.45179,-5.1848 7.35184,-7.31714 4.75889,-11.27446 -3.13172,-4.77962 -11.83136,-3.35165 -19.25838,3.16108 -2.78052,2.43824 -2.3814,2.91643 -6.68148,-8.00487 l -3.52118,-8.94313 4.38559,-5.41344 c 5.69743,-7.03274 6.36442,-9.09647 4.02118,-12.44192 -2.27339,-3.24572 -5.69604,-3.50446 -10.88208,-0.82266 l -3.74662,1.93746 -2.94149,-12.05231 c -4.37841,-17.9399 -4.95553,-46.63225 -1.29638,-64.45088 7.09425,-34.54615 24.35153,-70.42454 46.67576,-97.0403 7.10414,-8.4698 22.47223,-22.76152 23.43765,-21.7961 0.52609,0.5261 -2.09997,9.71334 -10.52032,36.80525 -8.40729,27.04982 -10.02071,35.95322 -10.79973,59.59663 l -0.71655,21.74749 -5.6353,1.41899 c -8.36485,2.10629 -12.42211,9.27987 -7.54002,13.33137 1.24305,1.03156 5.15336,1.79123 9.22009,1.79123 h 7.06164 l 4.28295,11.36306 4.28296,11.36305 -4.92776,3.96006 c -6.35915,5.11035 -7.52955,8.6724 -4.00699,12.19496 2.66052,2.66052 2.74923,2.66283 10.62849,0.27719 l 7.94555,-2.40572 5.85999,5.75113 5.85997,5.75114 -5.25811,4.36766 c -5.47527,4.54807 -6.95369,9.76438 -3.69192,13.02616 2.32257,2.32256 5.46916,1.9341 14.24159,-1.75816 l 7.89825,-3.32433 5.73364,3.36013 c 8.52913,4.99841 27.11975,24.06729 34.52934,35.41766 3.5798,5.48369 6.50872,10.37966 6.50872,10.87991 0,0.50026 -2.64291,4.31312 -5.87314,8.47301 -6.40317,8.24602 -7.23345,11.6501 -3.34866,13.72918 3.96937,2.12434 7.0557,1.61274 11.90481,-1.97339 l 4.49528,-3.32445 1.62056,5.53078 c 0.89129,3.04193 2.00459,9.2793 2.47398,13.86082 0.74709,7.29207 0.31646,9.93783 -3.45599,21.23298 -3.5664,10.67825 -4.02166,13.24967 -2.64047,14.91391 2.95137,3.55617 7.9235,2.38494 13.13574,-3.09427 6.40956,-6.73784 9.18152,-15.05088 10.04803,-30.13361 0.39424,-6.86218 1.3606,-12.82704 2.16409,-13.35773 0.79847,-0.52739 5.04328,-0.96787 9.4329,-0.97886 9.70989,-0.0243 12.9093,-2.1679 18.92255,-12.67795 6.1762,-10.79486 13.18482,-17.36032 18.53214,-17.36032 5.75404,0 10.04868,4.6145 17.85672,19.18667 l 6.15342,11.48419 16.1776,2.82695 c 21.29666,3.7215 23.83303,3.70293 29.60123,-0.21667 3.75769,-2.55342 6.44763,-3.26285 12.37153,-3.26285 8.44223,0 13.82361,1.86471 22.38955,7.75824 9.36644,6.44427 15.1147,5.19039 15.1147,-3.29699 0,-7.56884 -18.42966,-19.65433 -32.12758,-21.06807 -3.86468,-0.39888 -7.0267,-0.96012 -7.0267,-1.2472 0,-0.28709 1.1317,-2.74029 2.51489,-5.45158 3.70585,-7.26405 5.72682,-8.50458 12.18046,-7.47673 16.51828,2.6308 16.42613,2.63522 18.02055,-0.86414 2.1426,-4.70248 -0.1592,-8.14405 -8.15782,-12.19725 l -6.67163,-3.38078 22.70649,-22.80855 c 12.48856,-12.54471 24.30461,-23.65612 26.25787,-24.69203 2.80658,-1.48846 4.82295,-1.59851 9.61449,-0.52471 7.49163,1.67891 10.73585,0.7461 11.77268,-3.385 1.10388,-4.39816 -2.31008,-9.12871 -7.92547,-10.98196 -2.53782,-0.83756 -4.61423,-2.03633 -4.61423,-2.66395 0,-3.6905 8.01743,-24.10738 9.87482,-25.14683 1.22471,-0.68537 5.31594,-0.9273 9.09162,-0.53761 8.40771,0.86775 12.71862,-1.47429 12.10522,-6.57656 -0.56581,-4.70645 -6.23493,-8.41404 -14.00758,-9.16088 l -6.62293,-0.63639 v -4.8877 c 0,-4.6896 0.21069,-4.92141 5.19825,-5.71894 3.51964,-0.56282 5.8861,-1.88104 7.32839,-4.08224 1.97064,-3.00757 1.97005,-3.49533 -0.008,-6.51387 -1.67084,-2.55 -3.24139,-3.26285 -7.18876,-3.26285 -5.35872,0 -6.63527,-1.41605 -6.63527,-7.36034 0,-8.07 -6.20823,-32.23429 -15.10127,-58.77861 -9.67755,-28.88599 -10.74998,-33.051911 -8.5085,-33.051911 2.08843,0 13.53059,9.787411 23.06352,19.728081 26.48222,27.61492 46.91434,66.30335 53.51732,101.33564 3.16637,16.79924 1.98577,46.04905 -2.56214,63.47844 -1.8536,7.10372 -3.61873,13.1644 -3.92249,13.46817 -0.30377,0.30376 -2.96047,-0.16921 -5.90379,-1.05104 -4.04958,-1.21329 -6.14434,-1.2421 -8.6105,-0.11844 -4.80368,2.1887 -4.44385,8.14271 0.75657,12.51856 2.20855,1.85838 4.62627,3.37887 5.37271,3.37887 1.65257,0 0.99235,3.00536 -3.39267,15.44373 -1.85571,5.26383 -4.32417,14.76403 -5.48546,21.11155 l -2.11145,11.54097 -6.68581,2.87616 c -5.75192,2.47441 -8.14681,2.76564 -17.14508,2.0849 -10.97014,-0.82991 -12.70223,-0.40303 -14.13891,3.48467 -3.05906,8.27794 14.91585,15.38663 30.34019,11.99887 2.59398,-0.56974 4.01034,-0.3701 4.01034,0.56524 0,2.16606 -7.7557,17.10733 -11.27675,21.72454 -4.80096,6.29557 -3.58208,13.5808 2.27217,13.5808 1.22082,0 5.36139,-1.46254 9.20126,-3.2501 9.03892,-4.20785 13.48123,-4.21954 16.21798,-0.0427 1.96835,3.0041 1.93386,4.07211 -0.48754,15.09121 l -2.60579,11.85832 7.46394,8.72764 c 8.17513,9.55925 14.15217,19.52519 17.75847,29.60995 2.37093,6.63015 4.96215,9.78857 8.03072,9.78857 0.93539,0 7.00006,-4.90415 13.47704,-10.89811 21.49393,-19.89103 43.20575,-29.34705 75.44685,-32.85894 27.161,-2.95853 39.3547,-5.82577 56.232,-13.22243 3.879,-1.7 7.3349,-2.80866 7.6799,-2.4637 0.3449,0.34497 -0.3943,5.49453 -1.6427,11.44345 -3.2691,15.57793 -2.4318,33.20484 2.0322,42.77916 l 3.3468,7.17828 -3.4962,5.93867 c -7.0273,11.93656 -9.5494,20.61393 -9.6543,33.21562 -0.071,8.51869 0.5833,13.5806 2.3807,18.42196 l 2.4784,6.67568 -4.6926,6.14564 c -10.7714,14.10695 -14.2542,27.76489 -11.4629,44.95275 l 1.6996,10.46573 -7.9525,7.3626 c -11.6421,10.77847 -16.2137,20.71138 -16.9153,36.75227 l -0.5368,12.27421 -4.083,-0.87681 c -16.1774,-3.47402 -49.85726,-17.58346 -64.34694,-26.95679 l -9.14665,-5.91693 -0.80512,-15.49587 c -1.11557,-21.47094 -6.00939,-35.95594 -17.44843,-51.64492 -4.70069,-6.44714 -7.89797,-8.27953 -12.11261,-6.94186 -4.97933,1.58039 -4.45602,5.50426 2.9291,21.96254 7.79261,17.3664 10.06757,25.79713 10.03291,37.18061 -0.0771,25.3101 -12.85175,49.65002 -35.54482,67.72452 -5.20298,4.14405 -13.55656,11.27251 -18.56353,15.84105 -11.09479,10.12328 -29.27609,22.32902 -47.87562,32.14059 -7.65022,4.03562 -14.27083,8.27912 -14.71247,9.43002 -1.18559,3.0896 2.73036,8.25044 6.26029,8.25044 8.258,0 29.71434,-10.0942 48.43296,-22.78542 6.83673,-4.63531 12.43042,-8.10181 12.43042,-7.70335 0,0.39847 -2.35118,5.24374 -5.22485,10.76729 -11.24515,21.6146 -30.97889,41.74402 -59.01665,60.19996 -30.2417,19.90671 -61.20267,32.96911 -109.3425,46.13146 -28.13856,7.69363 -73.5216,13.7855 -110.28457,14.80377 -35.97731,0.9965 -49.03247,-0.0634 -54.18529,-4.39925 -2.11778,-1.78199 -8.70554,-6.04285 -14.63946,-9.46857 -9.15858,-5.28734 -10.74444,-6.70246 -10.49432,-9.36438 1.80479,-19.2077 1.76334,-43.48956 -0.0923,-54.03637 -4.57203,-25.98661 -16.66739,-51.55314 -24.38944,-51.55314 -3.3675,0 -6.90612,4.69979 -6.10733,8.11141 0.38405,1.64026 3.1102,9.65212 6.05812,17.80411 7.45534,20.61659 9.64173,34.45483 8.95203,56.65986 -0.30701,9.88394 -1.10485,18.46589 -1.77299,19.071 -0.66813,0.6051 -5.53207,0.47718 -10.80875,-0.28425 -10.66773,-1.53938 -16.16243,0.10734 -16.88444,5.06009 -0.64474,4.42279 2.66058,7.01846 12.12183,9.5193 29.17011,7.71038 54.50944,23.13434 63.36149,38.56795 6.22222,10.84849 4.47665,19.00378 -4.60427,21.51114 -7.9878,2.20555 -13.08868,-0.0561 -23.96353,-10.6248 -5.49779,-5.34302 -12.34523,-10.90686 -15.21655,-12.36408 -12.16572,-6.1742 -21.81462,-6.9219 -23.43517,-1.81599 -1.3296,4.18918 0.63707,6.61588 9.60772,11.85501 9.7964,5.72142 20.44689,16.31563 21.79264,21.67749 0.49127,1.95739 0.35861,5.07906 -0.2948,6.93702 -2.80535,7.97698 -13.76753,8.38193 -29.54677,1.09146 -7.4176,-3.42714 -11.07375,-6.14547 -16.05195,-11.93456 -10.47799,-12.18474 -22.11651,-17.39023 -26.24816,-11.73985 -0.95328,1.30367 -1.73322,2.83366 -1.73322,3.39999 0,0.56632 3.47946,4.86912 7.73214,9.56179 8.68671,9.58543 10.76437,15.07441 7.19768,19.01556 -2.99225,3.3064 -16.28355,3.29028 -27.32868,-0.0331 z M 305.40295,810.67761 c 1.10958,-1.69342 1.648,-4.04162 1.19649,-5.21822 -0.45151,-1.17662 -5.46029,-5.97754 -11.13064,-10.66874 -19.02893,-15.74301 -32.0618,-34.79367 -39.98471,-58.44723 -8.87681,-26.50138 -8.78832,-61.62502 0.22994,-91.26187 2.56408,-8.4264 4.66197,-16.19478 4.66197,-17.26306 0,-1.06827 -1.46829,-2.90437 -3.26286,-4.08023 -2.99629,-1.96324 -3.5232,-1.96732 -6.4496,-0.0499 -1.75271,1.14842 -4.94144,5.76766 -7.08607,10.26496 -14.42171,30.24252 -15.59119,76.08835 -2.86862,112.45609 3.75806,10.7425 13.16009,28.02434 20.28105,37.27859 11.44747,14.87685 31.32519,30.06853 39.34347,30.06853 1.76683,0 3.90175,-1.29662 5.06958,-3.07896 z m 489.43017,-36.24207 c 11.0076,-1.63718 18.02844,-5.4165 18.69735,-10.06479 0.76988,-5.34985 -2.12289,-7.13459 -10.1773,-6.27904 -3.96881,0.42156 -12.59187,1.32126 -19.16235,1.99933 -13.64454,1.40809 -17.42782,2.9416 -17.39941,7.05259 0.0549,7.94008 8.65226,10.17573 28.04171,7.29191 z M 587.31429,668.61984 c 72.5275,-16.47857 125.52195,-21.64926 206.86514,-20.18391 44.50742,0.80177 62.33105,2.29108 97.9871,8.18761 11.89992,1.96794 22.62349,3.19921 23.83014,2.73617 1.20665,-0.46304 2.85945,-2.3026 3.6729,-4.0879 2.28644,-5.0182 -1.27964,-9.36545 -9.66637,-11.78381 -9.95659,-2.87105 -33.74616,-6.70388 -58.39749,-9.40867 -17.21277,-1.88861 -32.27459,-2.36557 -75.04571,-2.37651 -54.24239,-0.0139 -67.98706,0.71898 -111.58971,5.94978 -40.00689,4.79944 -93.83771,16.13369 -103.60367,21.81408 -8.43983,4.90906 -4.63973,15.51297 4.92876,13.7533 2.22862,-0.40986 11.68713,-2.47992 21.01891,-4.60014 z M 399.54325,657.7721 c 33.34122,-12.28894 75.18812,-35.83568 80.14418,-45.09613 1.92571,-3.59826 -0.59288,-7.74226 -4.7055,-7.74226 -1.79359,0 -10.58524,4.14693 -19.53701,9.21538 -18.13536,10.26818 -37.905,19.79196 -62.10358,29.91766 -19.62857,8.21342 -22.0282,9.68341 -22.0282,13.4943 0,7.68172 7.80309,7.74005 28.23011,0.21105 z m -210.8626,1.21961 c 3.83732,-4.6237 -3.90727,-25.26679 -11.29537,-30.10766 -4.47311,-2.93091 -9.67442,-0.67438 -9.67442,4.19711 0,3.33602 8.04832,23.12298 10.71467,26.34227 1.90171,2.29607 8.21171,2.03042 10.25512,-0.43172 z m 840.64805,-10.53799 c 5.7626,-5.21515 3.297,-7.75253 -27.5388,-28.34067 -20.90836,-13.95989 -22.96571,-15.04344 -25.45026,-13.40402 -4.72842,3.12005 -4.19727,8.3451 1.43593,14.12581 9.07497,9.31262 41.44113,29.77887 47.09353,29.77887 1.14,0 3.1468,-0.97199 4.4596,-2.15999 z M 393.80597,624.40119 c 30.06779,-7.63812 52.51038,-14.92045 62.5318,-20.29076 5.97222,-3.20041 6.98794,-4.29316 6.98794,-7.5179 0,-2.1719 -0.9675,-4.38346 -2.27975,-5.21122 -2.58205,-1.62872 -7.24835,-0.49251 -46.6631,11.36204 -13.27983,3.9941 -31.6334,9.43132 -40.78572,12.08272 l -16.64057,4.82073 v 4.12871 c 0,5.13655 2.02784,7.26106 6.93062,7.26106 2.08905,0 15.5525,-2.98592 29.91878,-6.63538 z m 649.09833,-6.10974 c 2.4026,-1.64516 3.2198,-5.60118 1.7314,-8.38215 -1.5927,-2.97603 -18.7732,-11.40233 -45.79665,-22.46135 -19.21301,-7.86268 -22.38977,-8.49027 -26.07857,-5.15195 -3.02319,2.73594 -3.04319,5.97738 -0.0536,8.68296 5.32368,4.81787 59.57142,28.19911 65.53422,28.24581 1.7946,0.014 3.893,-0.40594 4.6632,-0.93332 z m -290.44847,-10.824 c 2.20498,-4.12007 0.29786,-9.70071 -5.27897,-15.44722 -6.1488,-6.33594 -13.05671,-8.22881 -17.00162,-4.65871 -3.45362,3.12548 -3.21785,6.85935 0.80716,12.78269 6.28212,9.24496 18.25896,13.32952 21.47343,7.32324 z m 56.754,-2.72747 c 8.59503,-7.54655 10.61542,-16.13555 4.55811,-19.37733 -4.01707,-2.14987 -8.59862,-0.24074 -14.32136,5.9677 -4.97105,5.39296 -5.95539,7.67802 -5.29777,12.29822 0.92036,6.46608 8.33888,7.01351 15.06102,1.11141 z M 373.85026,593.8051 c 44.83437,-4.49618 95.13963,-12.37681 100.20898,-15.69838 3.2155,-2.10687 3.93159,-6.92869 1.4043,-9.45598 -2.4587,-2.4587 -9.34459,-1.96031 -59.96223,4.33998 -74.8723,9.31923 -79.42702,10.25036 -79.42702,16.23736 0,3.77049 5.05059,6.56963 11.85384,6.56963 3.32884,0 14.99381,-0.89667 25.92213,-1.99261 z m 679.30684,-11.80461 c 1.128,-1.12801 2.0509,-3.8009 2.0509,-5.93975 0,-5.10891 -4.0851,-6.80937 -28.0327,-11.66881 -34.79022,-7.05963 -55.49497,-9.23811 -60.80281,-6.39744 -3.39549,1.81721 -3.40649,8.52621 -0.017,10.34023 1.96857,1.05355 35.19651,7.32397 78.41141,14.797 5.8382,1.00959 6.3134,0.94551 8.3902,-1.13123 z M 461.68841,557.78527 c 3.32102,-4.45133 1.45237,-8.35526 -4.52675,-9.45714 -6.48281,-1.1947 -52.78631,-3.2948 -94.22141,-4.27342 l -36.97787,-0.87335 -2.23057,3.40427 c -2.48485,3.79237 -1.78801,8.05931 1.52373,9.33014 6.97175,2.67531 69.67696,5.70323 112.48086,5.43148 l 21.39584,-0.13582 z m 45.09856,-1.40287 c 3.57001,-3.57001 1.67998,-7.36702 -7.24354,-14.55203 -4.84534,-3.90136 -15.27017,-13.09572 -23.16629,-20.43192 -16.29839,-15.14267 -21.01549,-18.63098 -34.06146,-25.18857 -10.38422,-5.21967 -23.47857,-9.6319 -43.2422,-14.57078 -38.58253,-9.64168 -53.08866,-16.90893 -78.00834,-39.08048 -14.8856,-13.24401 -14.39957,-12.93212 -17.536,-11.25355 -3.99478,2.13794 -3.53887,8.93526 1.01845,15.18425 6.47212,8.87454 23.17937,23.64857 33.72204,29.82001 14.07669,8.24017 26.2639,13.09074 46.4519,18.48808 51.49847,13.7683 55.35284,15.72851 85.52427,43.49485 15.08795,13.88523 23.97852,19.65631 30.28126,19.65631 2.58156,0 5.39852,-0.70478 6.25991,-1.56617 z m 160.39374,-3.16441 c 7.38841,-5.95043 10.7939,-12.75341 10.81953,-21.6136 0.0256,-8.8397 -1.53792,-13.46492 -6.26099,-18.52154 -6.96929,-7.46148 -17.36036,-10.22048 -27.68738,-7.35149 -5.22255,1.45091 -14.78434,10.57561 -16.85491,16.08446 -3.5257,9.38031 -0.49789,22.64154 6.64917,29.12205 6.19373,5.6161 10.47197,7.06879 19.63058,6.66566 7.48684,-0.32955 9.44658,-0.95671 13.704,-4.38554 z m 219.87283,-4.25739 c 18.36453,-11.64644 13.90978,-41.57419 -7.02752,-47.21203 -16.06231,-4.32512 -31.21704,8.06833 -31.21704,25.52914 0,15.19871 10.07124,25.42564 25.05493,25.44225 5.75781,0.006 8.47112,-0.76698 13.18963,-3.75936 z m 107.14297,-1.3748 c 12.38039,-1.39256 30.43849,-3.17259 40.12919,-3.95562 19.9006,-1.60803 25.6306,-3.01996 26.7654,-6.59523 1.1234,-3.53959 -1.4685,-7.62451 -5.4761,-8.63035 -9.2968,-2.33336 -63.01765,2.38174 -86.34435,7.57848 -8.44757,1.88197 -11.88176,5.8102 -9.5512,10.92524 1.83725,4.03233 4.23265,4.07939 34.47706,0.67748 z M 434.0458,537.02037 c 3.24397,-1.73613 3.24197,-6.73106 -0.004,-9.6685 -8.53745,-7.72629 -101.64049,-23.82085 -112.87006,-19.51166 -3.07335,1.17935 -2.74213,9.19442 0.45056,10.9031 1.38326,0.74029 16.80026,3.6948 34.26,6.56557 17.45973,2.87078 40.55469,6.93476 51.32212,9.03107 22.59893,4.39978 23.46667,4.48643 26.84123,2.68042 z m 523.37468,-19.20494 c 22.94315,-30.56397 35.09061,-38.03806 79.01022,-48.61347 12.0612,-2.90423 25.0882,-6.72653 28.9489,-8.49402 13.8407,-6.33645 21.2374,-14.74869 17.2223,-19.58661 -2.4773,-2.98499 -6.7564,-2.34697 -16.917,2.52236 -5.1221,2.45471 -15.0075,5.75552 -21.9675,7.33512 -30.1117,6.83399 -38.1146,9.01258 -47.57581,12.95129 -20.70867,8.62103 -35.85065,21.54927 -49.44118,42.21291 -8.59919,13.07457 -10.68898,19.902 -6.93254,22.64877 5.21126,3.81058 7.72682,2.24642 17.65261,-10.97635 z m 38.89495,1.03425 c 7.62587,-2.84086 21.20657,-7.27075 30.17947,-9.8442 28.3727,-8.13741 29.851,-9.01945 27.1869,-16.22114 -1.0945,-2.95867 -1.5107,-3.04507 -11.2252,-2.33021 -15.6739,1.15336 -52.46719,12.83743 -65.23089,20.71466 -3.37921,2.08552 -4.24171,3.48079 -4.24171,6.86184 0,2.33423 0.39154,4.63558 0.8701,5.11413 1.98829,1.98829 9.39799,0.5714 22.46133,-4.29508 z M 229.14905,408.42241 c 1.97608,-1.78833 2.17626,-3.95893 1.5948,-17.29314 -0.61276,-14.05269 -0.40214,-15.96282 2.68661,-24.36435 3.04198,-8.2743 3.17261,-9.38927 1.41444,-12.07258 -1.29311,-1.97353 -3.226,-2.95634 -5.81423,-2.95634 -5.63221,0 -10.99459,7.96114 -13.7724,20.4469 -4.93815,22.19601 3.90777,45.27401 13.89078,36.23951 z m 183.01198,-91.4131 c 3.87715,-6.41888 3.57509,-6.34073 14.3019,-3.70053 4.78646,1.17809 7.49707,-1.25933 7.49707,-6.7415 0,-3.63001 -0.85069,-4.95263 -4.91564,-7.64268 -7.39998,-4.89708 -12.18767,-5.41349 -19.112,-2.06148 -13.04391,6.31445 -17.29896,26.15974 -5.60893,26.15974 3.60295,0 4.72557,-0.86136 7.8376,-6.01355 z m 269.94162,-97.25824 c 2.35605,-2.35606 2.66865,-3.81405 2.06717,-9.64173 -2.29273,-22.2144 -22.56274,-36.01543 -41.15185,-28.01861 -11.94564,5.13888 -16.91446,14.50628 -10.07259,18.98925 3.02836,1.98426 3.64041,1.91062 10.59887,-1.27506 10.01534,-4.58518 14.14487,-4.3974 19.42553,0.88326 3.00365,3.00365 4.71219,6.35317 5.77973,11.33099 0.83357,3.88674 2.15809,7.84099 2.94341,8.78725 2.14954,2.59004 7.28497,2.06941 10.40973,-1.05535 z m -344.20144,-9.67872 c 1.10735,-1.10736 2.40379,-4.95656 2.88097,-8.55378 1.49139,-11.24262 7.99934,-18.08567 17.23905,-18.12676 6.33127,-0.0281 9.37648,-2.10298 9.37648,-6.3886 0,-5.31548 -4.08774,-8.33108 -12.2056,-9.00428 -15.50725,-1.28598 -27.93893,11.41214 -29.26561,29.89283 -0.5424,7.55575 -0.27087,8.99587 2.15326,11.42 3.27241,3.27241 7.01945,3.56259 9.82145,0.76059 z m 85.2876,-117.218853 c 9.87263,-8.82772 13.45652,-9.284594 21.95358,-2.79864 7.06131,5.390022 9.53046,5.653283 13.4902,1.438325 2.74076,-2.917407 2.80868,-3.383982 1.00127,-6.879127 -1.06641,-2.062199 -3.60857,-5.434583 -5.64925,-7.494188 -10.62874,-10.727319 -29.36913,-9.507446 -39.31546,2.559171 -5.29607,6.425051 -6.50784,11.674504 -3.46982,15.031475 3.27453,3.618322 6.409,3.132832 11.98948,-1.857016 z"
     id="path27"
     transform="translate(79,141)" />
  <path
     style="fill:#ffffff;stroke-width:0.757495"
     d="m 861.47517,910.89221 c -1.55478,-0.84772 -3.34436,-2.54202 -3.97685,-3.76512 -1.47254,-2.84758 -1.47315,-8.39172 -0.001,-11.91433 1.59293,-3.81242 7.13564,-10.10692 13.05191,-14.82222 8.30695,-6.62068 9.28177,-7.73503 9.28177,-10.61036 0,-4.64242 -4.18925,-6.56219 -10.31471,-4.72681 -5.45252,1.63374 -12.66529,6.66257 -20.36385,14.1979 -5.87184,5.74736 -7.44786,6.86696 -11.36242,8.07184 -10.70403,3.29461 -17.53487,2.69003 -21.57325,-1.90943 -2.98559,-3.4004 -2.95783,-6.27275 0.12014,-12.43231 6.6488,-13.30545 26.86375,-26.83752 53.70705,-35.95202 14.991,-5.09011 17.54447,-6.98709 15.3908,-11.43392 -2.43147,-5.02045 -7.26541,-5.87261 -18.82155,-3.31798 -3.7285,0.82423 -7.37968,1.49859 -8.11373,1.49859 -2.66738,0 -4.89312,-12.53487 -2.71895,-15.31255 0.52077,-0.66534 4.52603,-4.03239 8.90057,-7.48235 9.03793,-7.12772 23.27368,-20.73207 31.59358,-30.19231 14.32235,-16.28538 25.34317,-38.61524 28.28924,-57.31829 0.85281,-5.41404 1.19356,-6.18164 3.65902,-8.2425 5.88468,-4.91897 12.34806,-11.00837 14.80204,-13.94559 l 2.5775,-3.08506 5.58992,6.24284 c 7.3418,8.19933 11.00837,12.77005 14.97323,18.6655 21.10257,31.37799 29.28795,73.30655 20.8256,106.67665 -2.20257,8.68555 -7.13911,21.17278 -10.60766,26.8327 -2.73347,4.46039 -3.28754,7.83396 -1.7565,10.69474 0.47666,0.89065 3.04762,4.17543 5.71322,7.2995 5.78129,6.77564 8.75712,11.80451 10.44003,17.64261 2.27954,7.90782 -0.1307,12.83395 -7.77203,15.88475 -3.79226,1.51405 -5.67524,1.72895 -15.30785,1.74702 -15.36232,0.0288 -20.94165,-1.4046 -38.74286,-9.95375 -10.35094,-4.97111 -12.06343,-5.57863 -13.52311,-4.79743 -0.91923,0.49196 -5.13037,3.68313 -9.35808,7.0915 -13.80057,11.12596 -18.77698,14.26471 -27.6799,17.45837 -7.79439,2.796 -13.29104,3.189 -16.92101,1.20982 z"
     id="path28"
     transform="translate(79,141)" />
  <path
     style="fill:#ffffff;stroke-width:0.757495"
     d="m 923.1367,403.37437 c -2.79131,-3.95807 -3.96726,-4.9002 -9.2185,-7.38558 -3.55403,-1.6821 -6.02352,-3.31411 -6.02996,-3.98502 -0.006,-0.62493 0.82483,-3.75285 1.84626,-6.95092 1.02144,-3.19807 2.76627,-10.62106 3.87742,-16.49553 l 2.02026,-10.68086 12.96719,-13.0757 c 7.13195,-7.19163 16.17503,-16.81228 20.09573,-21.37922 9.90822,-11.54136 22.8863,-24.58968 24.4573,-24.58968 2.91785,0 3.26746,2.54263 3.07251,22.34611 -0.21039,21.37127 0.28479,25.4926 4.04014,33.62584 1.42174,3.07919 2.58499,6.21582 2.58499,6.97029 0,0.75447 -2.75926,4.54128 -6.1317,8.41514 -5.6413,6.48007 -14.31769,17.59485 -15.84201,20.29422 -0.5434,0.9623 -0.99171,0.86987 -3.00674,-0.61991 -5.28913,-3.91042 -8.44535,-2.36368 -23.98713,11.75519 -3.80963,3.46084 -7.06604,6.29243 -7.23646,6.29243 -0.17043,0 -1.74961,-2.04156 -3.5093,-4.5368 z"
     id="path29"
     transform="translate(79,141)" />
  <path
     style="fill:#ffffff;stroke-width:0.197914"
     d="m 943.40154,463.36514 c -0.10992,-0.13606 -0.74045,-1.32943 -1.40117,-2.65192 -3.34526,-6.69583 -7.72024,-13.34029 -13.06376,-19.8405 -3.91796,-4.76606 -4.22674,-5.36612 -3.81243,-7.40887 0.67233,-3.31498 2.55757,-5.73892 8.9289,-11.48027 4.27454,-3.85188 7.75259,-7.11709 12.07644,-11.33745 4.09505,-3.99703 4.89618,-4.60409 5.63292,-4.26841 1.09925,0.50085 1.43439,2.80793 1.59938,11.00999 0.26299,13.07445 1.03321,15.95528 6.85566,25.64181 3.53344,5.87842 3.50305,5.75789 1.7244,6.83836 -1.23764,0.75182 -8.57069,6.28678 -11.32484,8.54794 -2.00983,1.65007 -6.70523,5.19671 -6.87994,5.19671 -0.0746,0 -0.22564,-0.11132 -0.33556,-0.24739 z"
     id="path30"
     transform="translate(79,141)" />
</svg>
