<?xml version="1.0" encoding="UTF-8" standalone="no"?>
<svg
   version="1.0"
   width="600.000000pt"
   height="600.000000pt"
   viewBox="0 0 600.000000 600.000000"
   preserveAspectRatio="xMidYMid meet"
   id="svg20"
   sodipodi:docname="frog14_t2.svg"
   inkscape:version="1.4.3 (0d15f75, 2025-12-25)"
   xmlns:inkscape="http://www.inkscape.org/namespaces/inkscape"
   xmlns:sodipodi="http://sodipodi.sourceforge.net/DTD/sodipodi-0.dtd"
   xmlns="http://www.w3.org/2000/svg"
   xmlns:svg="http://www.w3.org/2000/svg">
  <defs
     id="defs20" />
  <sodipodi:namedview
     id="namedview20"
     pagecolor="#505050"
     bordercolor="#ffffff"
     borderopacity="1"
     inkscape:showpageshadow="0"
     inkscape:pageopacity="0"
     inkscape:pagecheckerboard="1"
     inkscape:deskcolor="#505050"
     inkscape:document-units="pt"
     inkscape:zoom="0.44561602"
     inkscape:cx="152.59775"
     inkscape:cy="409.54542"
     inkscape:window-width="1920"
     inkscape:window-height="1022"
     inkscape:window-x="0"
     inkscape:window-y="30"
     inkscape:window-maximized="1"
     inkscape:current-layer="svg20" />
  <g
     transform="translate(0.000000,600.000000) scale(0.050000,-0.050000)"
     fill="#000000"
     stroke="none"
     id="g20">
    <path
       d="M5850 11432 c-170 -78 -442 -509 -680 -1081 l-83 -199 -138 -35 c-77 -19 -145 -35 -152 -36 -6 -1 -64 68 -127 152 -486 645 -722 578 -764 -216 l-12 -212 -71 -34 c-113 -54 -219 -147 -274 -241 -80 -136 -126 -135 -285 6 -408 359 -721 530 -847 462 -103 -55 -131 -460 -64 -916 l34 -227 -58 -42 c-33 -24 -96 -76 -141 -118 -45 -41 -94 -75 -109 -75 -36 0 -321 156 -507 277 -228 149 -341 153 -412 13 -69 -138 -31 -728 72 -1112 94 -348 106 -329 -143 -218 -436 194 -544 -30 -302 -632 l70 -175 -56 -81 c-84 -123 -247 -458 -327 -672 -140 -377 -144 -615 -12 -752 l59 -61 -37 -89 c-21 -48 -44 -112 -51 -141 -8 -35 -44 -71 -103 -106 -157 -92 -182 -186 -92 -357 57 -109 57 -110 36 -297 -25 -222 4 -569 64 -787 l39 -140 -89 -139 c-210 -329 -124 -484 247 -442 l115 13 81 -96 c45 -53 114 -155 154 -227 l73 -132 -56 -33 c-365 -215 -327 -605 60 -603 130 1 158 -5 158 -30 1 -185 283 -281 538 -184 l108 41 102 -86 c422 -354 966 -529 1473 -472 442 49 539 207 263 427 -168 134 -250 226 -315 356 -61 120 -63 118 51 96 50 -9 141 -18 204 -18 146 -1 163 -20 206 -235 71 -357 86 -386 195 -386 48 0 81 21 146 90 l84 90 131 -88 c320 -214 699 -240 822 -55 l39 58 97 -51 c215 -111 442 -66 517 104 39 87 41 89 100 69 247 -87 486 176 368 404 l-30 59 285 -12 c493 -22 1005 60 1413 226 15 6 -12 -26 -61 -70 -293 -270 -188 -643 167 -596 85 12 97 9 97 -22 1 -250 385 -291 676 -72 37 28 69 47 71 43 142 -222 253 -230 346 -25 28 59 61 108 75 108 114 0 264 185 289 354 11 79 176 202 215 161 43 -47 -171 -360 -336 -494 -231 -187 -236 -192 -236 -260 0 -156 107 -206 440 -204 661 3 1108 308 1601 1091 174 277 292 711 317 1162 l15 280 86 88 c212 219 219 355 22 440 -101 43 -101 43 -101 138 0 52 -6 126 -12 164 -10 67 -7 72 81 118 122 64 211 166 211 243 0 154 -263 515 -502 690 -149 110 -151 267 -8 455 83 109 86 155 20 297 -60 130 -62 185 -10 419 66 294 -3 365 -265 277 -80 -27 -156 -51 -169 -55 -14 -4 19 86 73 200 143 306 204 512 216 738 15 294 -9 302 -575 188 -438 -88 -404 -92 -459 41 -53 128 -123 218 -209 271 -55 33 -59 45 -55 133 18 332 -155 766 -421 1054 -122 132 -136 156 -136 230 0 295 -139 329 -459 111 -261 -178 -574 -370 -603 -370 -12 0 -87 58 -169 129 -81 70 -192 149 -248 174 l-101 47 -1 100 c-1 239 -109 647 -185 700 -132 92 -234 24 -533 -357 -88 -112 -114 -134 -149 -123 -23 7 -93 23 -155 35 l-113 23 -65 161 c-131 323 -501 1102 -545 1145 -59 58 -131 71 -204 38z m254 -447 c362 -759 524 -1177 477 -1233 -32 -40 -310 -151 -409 -165 l-86 -12 30 141 c85 395 -189 367 -499 -51 -98 -131 -218 -117 -436 53 l-48 38 45 166 c110 399 437 1059 633 1277 119 131 133 121 293 -214z m-1763 -600 c155 -159 324 -381 308 -407 -32 -51 -427 -198 -532 -198 l-83 0 14 195 c21 313 80 545 137 545 13 0 83 -61 156 -135z m3226 -101 c48 -162 73 -308 78 -451 l5 -137 -93 -30 -92 -30 -108 87 c-59 48 -141 108 -182 134 -96 59 -104 38 106 298 209 261 242 276 286 129z m-2507 -312 c0 -16 -11 -75 -23 -130 -21 -91 -20 -106 15 -145 57 -64 264 -194 351 -220 43 -13 77 -25 77 -27 0 -3 -31 -72 -70 -155 -131 -285 -175 -512 -167 -866 7 -303 6 -309 -35 -309 -23 0 -57 -17 -76 -38 -40 -44 -14 -62 90 -62 33 0 62 -11 66 -25 4 -14 35 -110 71 -215 72 -216 126 -436 111 -460 -44 -71 -149 -40 -265 79 -201 207 -389 102 -457 -255 -11 -56 -31 -75 -135 -128 -68 -34 -144 -78 -170 -98 -60 -47 -185 14 -533 258 l-220 154 107 18 c68 12 183 11 310 -2 237 -24 265 -16 331 100 27 46 87 135 135 198 81 106 139 157 367 322 132 96 131 146 -12 389 -360 614 -888 1082 -1171 1037 -55 -9 -76 -4 -85 20 -28 73 216 278 308 258 144 -32 405 51 890 281 114 54 190 62 190 21z m1760 -64 c62 -18 123 -52 145 -80 21 -26 54 -48 73 -48 58 0 265 -145 360 -251 310 -348 467 -755 460 -1188 -3 -239 4 -253 212 -390 367 -242 388 -279 266 -470 -113 -178 -124 -185 -256 -170 -166 19 -174 23 -239 138 -186 324 -406 313 -581 -30 -31 -60 -52 -76 -114 -86 -121 -20 -207 -15 -214 12 -3 14 -22 93 -41 175 -63 266 -236 519 -521 759 -283 238 -366 450 -343 870 16 296 19 305 119 322 188 32 499 167 545 237 20 31 22 62 8 122 -30 130 -37 125 121 78z m-4149 -119 c285 -171 768 -591 937 -814 l56 -74 -51 -88 c-143 -243 -479 -453 -753 -469 l-154 -9 -52 148 c-118 336 -172 620 -187 997 -17 400 3 430 204 309z m3329 46 c0 -3 -27 -135 -60 -295 -41 -199 -60 -348 -60 -475 l0 -184 -70 -30 c-104 -43 -97 -107 12 -115 79 -6 82 -9 120 -115 47 -136 48 -129 -11 -160 -114 -62 -75 -155 47 -112 75 27 76 26 132 -44 l57 -71 -54 -43 c-108 -87 -43 -165 76 -92 42 26 86 39 109 32 70 -23 295 -283 363 -419 l65 -133 -65 -80 c-90 -112 -54 -184 53 -109 52 37 60 27 77 -106 11 -81 4 -135 -31 -245 -52 -161 -38 -208 45 -154 41 27 75 88 136 248 14 37 38 44 188 56 l171 15 72 123 c151 260 209 275 328 88 44 -69 80 -136 80 -150 0 -44 87 -80 230 -95 152 -17 183 -16 354 2 97 10 132 4 227 -40 120 -55 149 -53 149 8 0 63 -184 180 -282 180 -49 0 -48 20 8 102 43 63 54 68 155 68 132 0 160 48 61 105 -83 47 -88 38 143 243 l205 182 105 -12 c123 -15 149 37 53 106 l-51 38 43 84 c53 101 65 109 158 112 119 3 90 90 -46 138 -38 13 11 94 57 94 68 0 101 47 60 88 -17 18 -45 32 -60 32 -22 0 -29 29 -29 115 -1 63 -10 174 -21 245 -61 392 -58 398 114 213 255 -275 355 -526 356 -893 1 -297 -65 -595 -127 -569 -128 55 -184 5 -96 -87 l51 -54 -60 -184 c-66 -203 -102 -233 -272 -226 -112 6 -125 3 -125 -29 0 -46 82 -91 164 -91 104 0 99 -38 -24 -168 -143 -151 -124 -247 30 -152 117 73 161 16 108 -137 -18 -52 -16 -72 10 -108 100 -137 169 -255 196 -335 38 -115 77 -122 179 -30 193 174 372 249 718 300 218 31 380 73 593 153 153 57 157 53 118 -121 -46 -203 -41 -351 16 -474 l47 -101 -58 -78 c-106 -142 -144 -347 -88 -480 29 -69 28 -73 -38 -158 -103 -136 -138 -248 -126 -400 9 -116 6 -132 -32 -158 -138 -91 -221 -229 -244 -408 -8 -58 -22 -111 -31 -117 -21 -12 -470 200 -636 301 l-117 71 0 175 c-1 288 -158 611 -265 545 -22 -14 -15 -43 36 -155 218 -473 47 -870 -556 -1290 -281 -196 -294 -208 -266 -237 36 -36 150 3 317 110 76 49 142 86 146 82 22 -22 -90 -251 -156 -320 -102 -106 -261 -356 -311 -488 -78 -206 -462 -521 -882 -724 -446 -215 -844 -289 -1474 -272 l-395 10 -79 72 c-69 62 -231 174 -403 278 l-52 32 41 136 c99 332 51 858 -102 1120 -102 173 -171 128 -92 -60 160 -379 140 -1135 -30 -1179 -95 -25 -45 -83 154 -179 415 -202 670 -506 548 -656 -68 -84 -307 -36 -366 73 -37 69 -205 188 -272 193 -88 6 -84 -64 7 -126 270 -183 230 -476 -54 -400 -111 30 -282 145 -326 220 -41 69 -136 125 -182 108 -46 -18 -38 -49 39 -146 231 -290 -182 -359 -574 -96 -140 94 -139 90 -69 276 225 596 127 1466 -225 1990 l-42 62 58 80 c32 44 109 124 170 177 124 107 140 149 57 149 -70 0 -215 -95 -306 -202 l-71 -82 -112 109 c-62 61 -159 140 -216 177 -87 56 -113 89 -169 211 -352 762 -1611 860 -2139 167 -43 -56 -107 -114 -143 -129 -87 -37 -128 -103 -142 -233 -6 -60 -36 -184 -67 -278 -30 -93 -62 -210 -70 -260 -20 -122 -25 -127 -84 -80 -80 62 -160 52 -239 -31 -45 -48 -70 -63 -76 -45 -55 163 -99 561 -81 733 l14 128 94 -93 c134 -132 176 -127 342 43 181 187 344 527 312 653 -46 185 -220 250 -436 162 -158 -64 -158 -65 -43 152 210 397 608 429 1208 97 336 -186 377 -184 661 26 191 141 456 295 507 295 150 0 238 -208 176 -413 -47 -154 -38 -196 51 -249 240 -143 310 -271 320 -583 12 -361 15 -361 625 -137 560 206 630 234 751 304 127 72 120 73 135 -17 49 -304 444 -725 680 -725 116 0 88 72 -60 149 -490 256 -641 785 -345 1209 115 164 64 221 -81 90 -91 -81 -170 -231 -201 -379 -34 -161 -126 -206 -1268 -622 -101 -37 -101 -37 -102 190 -2 281 -96 449 -350 623 -44 30 -44 31 -9 136 70 214 23 442 -124 605 l-71 78 54 110 c68 139 66 330 -5 467 -59 112 -58 115 34 215 109 119 146 251 129 464 -17 213 -6 214 283 12 435 -305 677 -438 952 -524 291 -90 475 -199 689 -406 202 -196 295 -151 127 61 -156 199 -411 362 -734 473 -188 64 -189 73 -5 161 111 52 122 64 152 157 108 332 134 347 292 169 l107 -121 127 32 c69 18 129 30 132 27 3 -3 28 -52 56 -107 135 -270 437 -503 386 -299 -12 47 -8 50 65 50 173 0 156 83 -27 131 -190 49 -246 95 -324 263 -109 237 -110 321 -6 422 117 112 56 211 -71 115 -61 -47 -78 -37 -115 63 l-35 93 63 65 c39 41 59 77 51 97 -14 36 -94 42 -127 9 -30 -30 -41 11 -65 238 -52 505 150 1094 490 1429 81 80 129 114 129 90z m3231 -184 c14 -76 1 -111 -41 -111 -75 0 -88 -147 -38 -430 50 -282 1 -629 -88 -630 -141 -1 -484 292 -598 510 -95 183 -94 209 20 280 144 90 492 318 592 388 112 79 137 78 153 -7z m-1416 -102 c111 -46 278 -183 306 -251 17 -41 43 -64 81 -71 69 -14 81 -29 127 -157 116 -322 497 -689 716 -690 88 0 -36 -194 -232 -362 -79 -68 -180 -164 -225 -214 l-82 -90 -88 96 c-48 53 -164 146 -258 208 l-170 112 -5 100 c-25 523 -133 871 -367 1184 -91 122 -91 122 -33 145 68 28 148 24 230 -10z m-3885 -329 c309 -148 651 -498 907 -931 109 -185 108 -188 -72 -314 -160 -112 -238 -196 -380 -407 l-83 -122 -286 8 c-157 5 -326 1 -376 -8 -53 -10 -120 -10 -161 1 -103 28 -177 3 -207 -68 l-25 -60 -62 46 c-35 25 -124 95 -199 156 -392 320 -730 454 -1013 401 -184 -35 -201 -35 -208 0 -19 92 574 778 673 778 8 0 38 -74 68 -165 83 -254 109 -287 239 -304 242 -30 529 89 771 318 283 268 301 348 127 560 -68 81 -123 159 -123 172 0 48 266 8 410 -61z m-2376 -489 c110 -71 251 -153 313 -184 138 -68 138 -56 -4 -235 -128 -161 -232 -332 -253 -414 -15 -60 -180 -231 -196 -204 -86 138 -177 990 -122 1134 19 51 49 40 262 -97z m8490 -803 c42 -75 52 -115 43 -170 -10 -62 -5 -74 33 -84 33 -8 40 -21 31 -51 -54 -171 119 -575 343 -799 82 -82 146 -150 142 -153 -3 -3 -86 -16 -184 -29 -98 -13 -215 -37 -259 -52 -128 -44 -172 14 -194 256 -20 235 -108 284 -280 158 -113 -83 -126 -70 -114 124 11 180 57 337 160 544 37 76 80 192 95 258 15 66 30 127 35 136 17 32 96 -41 149 -138z m1042 -251 c-8 -237 -259 -875 -351 -893 -89 -17 -362 314 -435 527 -117 340 -122 334 380 435 440 88 411 93 406 -69z m-8775 92 c231 -60 607 -297 914 -577 92 -84 43 -324 -98 -476 -103 -112 -106 -141 -27 -289 94 -176 85 -219 -55 -259 -208 -59 -504 -223 -733 -406 -98 -79 -107 -78 -267 18 -304 183 -648 268 -906 224 -210 -36 -499 -191 -499 -268 0 -51 16 -47 205 52 357 187 650 164 1133 -90 217 -113 267 -119 362 -41 196 159 429 298 658 391 156 63 160 60 90 -59 -48 -83 -52 -101 -32 -155 13 -34 21 -63 19 -64 -3 -2 -55 -27 -115 -56 -101 -48 -242 -138 -528 -340 -188 -132 -209 -129 -562 75 -444 257 -869 251 -1165 -17 -100 -90 -137 -91 -179 -2 -33 69 -33 71 20 126 61 64 68 94 24 111 -79 31 172 706 345 928 l36 46 105 -146 c184 -253 215 -283 293 -281 278 8 699 482 726 817 13 155 14 153 -353 277 -324 109 -324 109 -256 207 180 259 479 349 845 254z m-1171 -375 c138 -60 384 -152 547 -205 l297 -95 -10 -79 c-36 -270 -468 -748 -622 -689 -93 36 -376 512 -471 794 -72 211 -80 421 -16 394 14 -6 138 -60 275 -120z m8728 -506 c7 -17 12 -76 12 -131 0 -65 15 -127 45 -180 30 -55 37 -85 22 -90 -12 -5 -66 -40 -119 -78 l-97 -68 -35 72 c-19 39 -58 101 -85 138 -80 105 -68 147 74 264 135 111 164 122 183 73z m1534 -1722 c107 -96 244 -275 300 -392 51 -104 34 -144 -86 -206 -79 -41 -84 -38 -134 82 -44 105 -170 256 -288 345 -62 47 -58 71 34 189 56 72 77 69 174 -18z m-10380 -231 c97 -104 3 -377 -207 -607 -123 -134 -148 -134 -266 -3 -291 323 -282 366 117 566 254 127 277 130 356 44z m10214 -146 c162 -183 311 -737 189 -701 -19 5 -59 16 -88 23 -35 8 -62 34 -79 76 -37 94 -180 293 -210 293 -53 0 -50 -44 9 -136 106 -165 123 -220 89 -300 -38 -91 -20 -187 66 -358 116 -227 129 -248 180 -270 111 -51 14 -728 -157 -1101 l-65 -140 0 168 c0 244 -79 418 -199 440 -29 5 -45 36 -65 129 -31 137 -124 266 -223 307 -50 21 -60 38 -72 127 -62 468 -524 661 -1017 425 -56 -27 -106 -46 -110 -42 -28 28 67 227 154 323 54 59 128 160 164 223 35 63 67 118 69 122 3 3 76 -34 162 -84 576 -332 807 -361 807 -103 0 171 70 291 237 409 66 46 68 50 57 154 -14 130 0 133 102 16z m-8535 -7 c239 -75 462 -237 582 -421 81 -127 77 -141 -42 -127 -313 37 -662 -249 -712 -583 -12 -84 -16 -87 -96 -100 -281 -42 -532 -268 -583 -527 -22 -107 -24 -110 -124 -147 -299 -112 -397 -449 -255 -872 63 -187 60 -190 -80 -62 -197 179 -475 645 -476 796 -4 371 88 978 162 1081 24 33 41 102 48 200 15 195 22 209 121 250 229 95 248 94 266 -2 29 -157 -73 -307 -265 -389 -95 -41 -118 -99 -39 -99 116 0 303 127 366 248 80 152 26 412 -84 412 -71 0 -62 26 39 115 294 258 773 351 1172 227z m728 -731 c670 -330 1033 -1388 779 -2267 -105 -362 -286 -603 -288 -382 -2 461 -419 1137 -894 1451 -281 186 -373 343 -375 647 -3 471 384 745 778 551z m8050 -103 c262 -79 268 -131 38 -338 -96 -87 -96 -88 -160 15 -212 343 -184 416 122 323z m-1224 -246 c433 -221 292 -949 -243 -1258 -384 -221 -641 -496 -827 -884 -131 -272 -119 -255 -153 -219 -100 105 -203 619 -186 927 51 911 848 1722 1409 1434z m-9491 -316 c82 -79 81 -463 -1 -497 -95 -40 -443 -35 -443 6 0 67 330 545 376 545 6 0 37 -24 68 -54z m1763 -49 c27 -233 179 -445 441 -616 129 -83 151 -120 113 -179 -20 -32 -121 -40 -206 -16 -42 11 -59 7 -68 -16 -16 -41 39 -81 148 -109 159 -41 116 -294 -46 -270 -156 24 -102 -77 60 -110 51 -10 62 -26 84 -112 34 -130 35 -127 -25 -150 -66 -25 -53 -63 30 -91 45 -14 85 -51 123 -114 64 -102 176 -220 329 -347 l100 -83 -80 -37 c-307 -139 -1037 14 -1439 302 -636 453 -783 1407 -218 1411 65 0 95 36 74 90 -58 151 155 439 387 521 150 54 179 43 193 -74z m8201 -278 c69 -82 102 -209 76 -293 -24 -77 -15 -86 86 -82 248 9 241 -543 -11 -921 -278 -415 -718 -653 -1213 -653 -300 0 -338 21 -216 117 159 126 321 292 379 389 46 75 79 105 140 126 104 36 123 98 30 98 -62 0 -63 1 -50 75 23 129 30 138 116 164 177 53 195 131 25 110 -178 -22 -159 51 49 188 231 152 379 349 440 583 40 152 43 160 71 160 14 0 50 -27 78 -61z m-2010 -624 c-35 -248 -10 -588 61 -830 l37 -125 -84 -70 c-328 -269 -638 -105 -349 185 104 105 119 165 41 165 -45 0 -187 -99 -230 -160 -35 -50 -203 -106 -263 -88 -233 71 -87 324 299 518 99 49 196 90 214 90 140 0 186 125 50 136 -107 9 -92 43 76 173 172 133 166 133 148 6z m-5382 -33 c175 -207 327 -503 259 -502 -34 1 -293 38 -358 51 -64 14 -80 114 -54 338 30 248 36 252 153 113z m-2276 -277 c0 -9 41 -62 90 -119 l91 -103 -46 -52 c-157 -181 -486 -69 -361 123 55 83 226 198 226 151z m8775 -9 c-4 -13 -39 -37 -76 -52 l-69 -28 48 52 c50 53 112 71 97 28z m-8398 -382 c53 -37 125 -78 161 -93 77 -32 72 -60 -19 -93 -225 -81 -364 6 -290 183 35 84 30 84 148 3z"
       id="path1" />
    <path
       d="M7550 8121 c-316 -112 -752 -487 -603 -517 25 -5 74 27 140 91 213 204 351 286 580 344 116 29 144 44 149 79 9 55 -117 56 -266 3z"
       id="path2" />
    <path
       d="M3553 6992 c-16 -44 125 -230 254 -334 145 -117 298 -192 598 -294 294 -100 397 -166 588 -375 216 -238 348 -321 380 -238 12 30 -31 80 -376 441 -138 145 -301 236 -587 327 -286 92 -455 187 -632 356 -151 144 -204 171 -225 117z"
       id="path3" />
    <path
       d="M10910 6487 c-83 -40 -238 -87 -380 -117 -389 -82 -572 -200 -772 -498 -119 -177 -69 -267 64 -119 333 368 379 398 736 477 329 72 542 179 542 271 0 59 -45 55 -190 -14z"
       id="path4" />
    <path
       d="M3620 6185 c0 -64 29 -75 450 -166 654 -141 699 -144 664 -51 -42 107 -1114 317 -1114 217z"
       id="path5" />
    <path
       d="M6684 6013 c-161 -89 -164 -361 -5 -443 173 -89 361 26 361 221 0 182 -202 308 -356 222z"
       id="path6" />
    <path
       d="M8812 5979 c-172 -151 -64 -439 165 -439 52 0 86 18 148 80 217 217 -82 562 -313 359z"
       id="path7" />
    <path
       d="M10653 5999 c-281 -47 -618 -184 -609 -247 9 -66 44 -59 706 135 83 24 118 83 67 115 -30 19 -30 19 -164 -3z"
       id="path8" />
    <path
       d="M3633 5807 c-89 -89 10 -120 457 -145 783 -42 876 -37 844 45 -23 59 -1248 153 -1301 100z"
       id="path9" />
    <path
       d="M10400 5608 c-406 -43 -500 -65 -500 -117 0 -73 957 -39 986 36 29 76 -189 112 -486 81z"
       id="path10" />
    <path
       d="M4704 5519 c-326 -31 -853 -113 -909 -142 -45 -24 -45 -70 1 -95 42 -22 284 4 1089 120 371 54 216 154 -181 117z"
       id="path11" />
    <path
       d="M9920 5281 c0 -45 -5 -44 484 -149 340 -73 396 -75 396 -12 0 53 -35 72 -220 117 -386 93 -660 112 -660 44z"
       id="path12" />
    <path
       d="M4580 5210 c-561 -166 -637 -198 -612 -261 36 -95 952 185 952 291 0 57 -65 51 -340 -30z"
       id="path13" />
    <path
       d="M7553 5247 c-56 -56 44 -207 136 -207 42 0 51 9 51 54 0 91 -136 203 -187 153z"
       id="path14" />
    <path
       d="M8247 5231 c-58 -41 -100 -146 -70 -176 62 -62 239 107 183 175 -31 38 -60 38 -113 1z"
       id="path15" />
    <path
       d="M4930 5067 c-33 -19 -231 -121 -440 -228 -383 -196 -458 -258 -335 -275 123 -18 722 289 862 442 78 84 24 122 -87 61z"
       id="path16" />
    <path
       d="M10023 5038 c10 -72 572 -354 647 -325 105 40 26 107 -291 249 -283 127 -365 145 -356 76z"
       id="path17" />
    <path
       d="M10013 4810 c-36 -93 472 -473 540 -405 46 46 18 76 -243 260 -263 185 -279 193 -297 145z"
       id="path18" />
    <path
       d="M7397 4739 c-765 -40 -1408 -162 -1393 -265 8 -57 98 -57 426 1 946 167 1879 168 2728 2 220 -43 286 -30 255 52 -52 136 -1178 254 -2016 210z"
       id="path19" />
    <path
       d="M8282 3422 c-151 -33 -198 -68 -122 -92 91 -29 340 43 340 99 0 37 -23 36 -218 -7z"
       id="path20" />
  </g>
  <path
     style="fill:#782121;stroke-width:0.91638"
     d="m 206.09074,303.34403 c -35.81478,-28.23091 -54.27882,-35.62633 -78.25569,-31.34381 -10.54862,1.88409 -11.30997,1.14075 -6.65516,-6.49772 7.18428,-11.78926 31.83012,-39.60334 38.56231,-43.51952 l 2.77426,-1.61382 2.69357,7.1121 c 1.48146,3.91165 3.46605,9.32076 4.41019,12.02024 0.94415,2.69949 3.01496,6.41083 4.60182,8.24743 l 2.88519,3.33927 9.28009,0.31528 c 7.52525,0.25567 10.53449,-0.0612 15.91374,-1.6758 7.96479,-2.39062 18.15689,-7.71068 25.25818,-13.18424 7.12486,-5.49174 19.56257,-18.63483 21.48846,-22.70713 3.31226,-7.00383 1.99521,-11.15827 -7.50493,-23.67317 -6.18781,-8.15143 -6.48021,-8.7438 -4.70677,-9.53513 2.42156,-1.08053 15.69749,1.45908 22.87634,4.37611 19.75802,8.0284 44.69453,33.16499 62.37628,62.87675 6.50814,10.93604 6.35746,11.592 -4.56285,19.865 -10.5867,8.02027 -17.0138,14.82116 -24.79157,26.23343 l -5.90717,8.66756 -26.57503,0.37342 c -14.61626,0.20539 -28.20903,0.0873 -30.20615,-0.26233 -5.43361,-0.95134 -9.68196,0.80553 -12.01492,4.96867 l -1.95482,3.48834 z"
     id="path21"
     transform="scale(0.75)" />
  <path
     style="fill:#782121;stroke-width:0.91638"
     d="m 144.5754,446.33663 c -2.133,-0.67702 -9.26161,-4.21325 -15.84134,-7.85828 -6.57973,-3.64504 -14.93763,-7.77925 -18.57312,-9.18714 -22.860969,-8.85324 -45.087831,-6.66804 -60.587419,5.95654 -9.543754,7.7735 -10.827777,8.08375 -13.654087,3.29919 -2.177301,-3.68588 -1.959064,-5.31348 1.193968,-8.90458 2.571666,-2.92897 3.763145,-7.64923 1.930803,-7.64923 -4.625828,0 3.665801,-27.3417 14.786394,-48.75823 4.41527,-8.50312 9.244398,-15.44723 10.064247,-14.47201 0.211857,0.252 2.931941,4.02675 6.044629,8.38834 13.767595,19.29152 16.373473,21.02648 26.477527,17.62842 16.208238,-5.45095 36.218308,-28.27125 41.047678,-46.81245 2.12119,-8.1438 1.82688,-14.19158 -0.81125,-16.66996 -1.2253,-1.15111 -9.45482,-4.62411 -18.81188,-7.93893 -17.38963,-6.16043 -22.079809,-8.17878 -22.079809,-9.50171 0,-2.01153 6.629939,-10.1215 11.491409,-14.05668 14.76483,-11.95161 36.55687,-12.90839 58.6772,-2.57623 14.15483,6.61157 37.89526,23.09844 47.58626,33.04694 3.54581,3.64003 3.66465,3.9634 3.63894,9.90193 -0.0327,7.5504 -2.62755,13.61885 -9.44849,22.09675 -6.00424,7.46281 -6.13022,9.874 -1.0633,20.35173 5.68568,11.75728 5.4363,12.2863 -8.11171,17.20781 -13.42921,4.87834 -29.70537,14.13865 -43.94765,25.00397 -3.18018,2.42615 -6.27297,4.41947 -6.87285,4.42961 -0.59989,0.0102 -7.68864,-3.28817 -15.75279,-7.32961 -32.158925,-16.1168 -53.645449,-17.45424 -77.719463,-4.83768 -7.886746,4.13324 -11.627613,7.57044 -11.627613,10.68375 0,3.32613 1.378791,3.08216 11.700498,-2.07032 15.064178,-7.51987 20.021007,-8.84678 32.743946,-8.76528 13.574322,0.0869 20.003132,1.96727 40.840412,11.9452 19.49319,9.33432 21.86282,9.59189 29.88756,3.2487 7.89692,-6.24215 19.57694,-13.74141 28.60819,-18.36814 8.58899,-4.40014 19.7962,-9.26733 21.33903,-9.26733 0.42437,0 -0.51865,2.55592 -2.09558,5.67981 -2.47032,4.89369 -2.79195,6.32059 -2.32373,10.30928 l 0.54344,4.62946 -7.08236,3.64046 c -3.89531,2.00226 -13.78787,8.18782 -21.9835,13.74571 -22.97977,15.5838 -23.67978,15.90423 -30.21419,13.83019 z"
     id="path22"
     transform="scale(0.75)" />
  <path
     style="fill:#782121;stroke-width:0.91638"
     d="m 32.994791,570.45499 c -0.30869,-0.49947 -1.380738,-4.93246 -2.38233,-9.85109 -1.856511,-9.11697 -3.522568,-39.7451 -2.33091,-42.85051 0.490588,-1.27845 1.391383,-0.81741 5.340854,2.7335 8.960701,8.05644 11.305831,8.35852 18.814286,2.42342 12.079103,-9.54798 25.901578,-33.62188 26.041732,-45.35556 0.06495,-5.43777 -1.421164,-8.97812 -5.315283,-12.66255 -5.412943,-5.12145 -13.012878,-5.77211 -23.826208,-2.03985 -3.778565,1.30418 -7.138835,2.10252 -7.467267,1.77409 -1.118308,-1.11831 7.339568,-16.11069 11.909809,-21.11127 2.969061,-3.24862 6.67545,-6.0273 10.648729,-7.98334 5.805801,-2.85818 6.573022,-2.99726 16.193994,-2.9355 13.687305,0.0879 21.855323,2.6463 44.240443,13.85727 25.27496,12.65827 26.75441,12.64831 45.20196,-0.30407 20.5681,-14.44126 32.44352,-20.94103 36.59463,-20.02929 3.25883,0.71576 7.15719,4.51469 8.92998,8.70221 1.79287,4.23495 1.70365,12.79445 -0.20954,20.1034 -2.2996,8.78515 -1.50567,11.34199 4.76795,15.35518 15.34285,9.8147 18.93779,16.5816 20.40945,38.41745 0.5751,8.53309 1.39215,14.20515 2.29878,15.95839 1.83536,3.54918 1.04104,3.43072 -3.84563,-0.57353 -2.46031,-2.01605 -5.11539,-5.48162 -6.84514,-8.93471 -12.67443,-25.30184 -33.00798,-39.73694 -62.29942,-44.2273 -31.78065,-4.87196 -63.79828,6.53891 -82.19523,29.29383 -2.959603,3.66069 -6.981274,7.31496 -10.206812,9.27438 -6.318934,3.83855 -7.824996,6.52455 -9.708346,17.31448 -0.734884,4.21025 -2.951897,13.04299 -4.926693,19.62832 -1.974796,6.58533 -3.873896,13.8629 -4.220223,16.17237 -0.346327,2.30947 -0.969683,4.40917 -1.385235,4.666 -0.415553,0.25682 -2.120547,-0.36526 -3.788878,-1.38242 -1.763688,-1.07529 -4.64014,-1.8508 -6.872209,-1.85279 -3.164498,-0.003 -4.582884,0.6405 -8.074061,3.66209 -4.669385,4.04132 -4.692499,4.05293 -5.493182,2.7574 z"
     id="path23"
     transform="scale(0.75)" />
  <path
     style="fill:#782121;stroke-width:0.91638"
     d="M 91.780922,668.40561 C 83.071512,659.68014 72.922511,644.97776 66.542724,631.84422 L 62.31386,623.1386 62.409,607.10195 c 0.133799,-22.55341 4.647946,-51.32644 9.51854,-60.67088 1.738638,-3.33565 3.012349,-9.53921 4.172631,-20.32264 0.409919,-3.8097 1.176942,-5.98889 2.613619,-7.42557 1.994368,-1.99437 15.660974,-7.80084 18.360719,-7.80084 3.478951,0 4.424461,9.75368 1.554575,16.03665 -2.173531,4.75846 -8.639177,10.64129 -15.504449,14.10686 -5.841592,2.94883 -7.297813,4.79748 -5.170082,6.56334 5.296732,4.3959 25.740517,-9.13854 28.614557,-18.94376 3.35594,-11.44929 -0.7539,-25.09414 -7.558383,-25.09414 -1.282932,0 -2.332605,-0.37938 -2.332605,-0.84308 0,-1.35448 9.495618,-9.42423 15.025658,-12.76939 6.34424,-3.83768 14.0628,-6.97984 23.24041,-9.46098 9.40493,-2.5426 29.66215,-2.77712 39.05473,-0.45214 18.3812,4.54996 35.57345,16.1509 44.57519,30.07835 2.00646,3.10438 3.64811,5.99277 3.64811,6.41864 0,0.42587 -3.46172,0.77431 -7.6927,0.77431 -9.6278,0 -17.61958,2.34982 -25.1939,7.40776 -10.45322,6.98039 -18.29682,18.27199 -20.71246,29.81752 -0.70249,3.35756 -1.6105,6.39602 -2.01779,6.75214 -0.40729,0.35612 -3.58979,1.32841 -7.07222,2.16064 -17.57352,4.19972 -31.06727,16.07259 -35.43396,31.1776 -2.95975,10.23817 -3.11694,10.46908 -8.84636,12.99479 -7.40363,3.26375 -11.43038,6.24245 -14.82049,10.9631 -8.231824,11.4626 -9.139897,27.165 -2.768046,47.86498 1.484006,4.82102 2.495616,8.96807 2.248035,9.21566 -0.247586,0.24758 -3.906719,-3.01279 -8.131406,-7.24526 z"
     id="path24"
     transform="scale(0.75)" />
  <path
     style="fill:#782121;stroke-width:0.91638"
     d="m 283.62089,335.62428 c -4.06224,-2.14203 -13.95012,-8.43069 -21.97305,-13.9748 l -14.58714,-10.08018 3.84651,-0.74249 c 2.11558,-0.40837 11.54214,-0.47751 20.9479,-0.15364 11.92833,0.41072 17.68198,0.27812 19.02074,-0.43836 1.05564,-0.56495 4.6685,-5.16977 8.02857,-10.23291 8.29266,-12.49586 12.26087,-16.68826 24.94885,-26.35839 5.97227,-4.55176 11.1155,-8.9452 11.4294,-9.7632 2.14136,-5.58029 -1.81341,-14.94967 -13.96165,-33.07708 -13.84305,-20.65638 -30.72832,-38.64471 -45.49055,-48.46229 -9.98538,-6.64075 -15.50421,-8.68687 -23.43038,-8.68687 -9.04064,0 -9.43591,-2.54128 -1.565,-10.0619 6.2207,-5.94385 9.87379,-7.41451 19.19733,-7.72848 10.62728,-0.35787 20.67399,-3.55109 44.65193,-14.19205 9.19835,-4.08206 17.93053,-7.42193 19.40484,-7.42193 3.02063,0 3.20018,0.75912 1.70921,7.22643 -1.60884,6.97854 -1.3569,9.99491 1.05154,12.58935 3.36143,3.62104 12.05296,9.27393 19.90507,12.94609 3.87639,1.81285 7.17893,3.38961 7.33899,3.50391 0.16007,0.11431 -1.5577,4.4755 -3.81725,9.69153 -9.12273,21.05929 -10.80367,29.74733 -10.99534,56.83015 -0.0773,10.92027 -0.3467,19.99244 -0.59871,20.16036 -0.252,0.16793 -2.10767,1.13087 -4.12371,2.13987 -2.42856,1.21547 -3.66552,2.44816 -3.66552,3.6529 0,1.50419 0.8667,1.9431 5.01628,2.54028 2.75895,0.39704 5.32624,1.03187 5.70508,1.41071 0.99255,0.99255 9.37524,27.75404 11.34454,36.21711 1.86348,8.00834 1.35449,10.05015 -2.6244,10.52776 -3.21547,0.38596 -6.52715,-1.47899 -13.20135,-7.43427 -8.72907,-7.78881 -15.20901,-8.88185 -21.46207,-3.62024 -2.61396,2.19951 -8.14324,12.04196 -8.14505,14.49871 -4e-4,0.53852 -0.63237,3.10614 -1.40439,5.70579 -1.22166,4.11376 -1.9643,5.04295 -5.72738,7.16601 -2.37804,1.34166 -7.07622,4.03177 -10.44039,5.97806 -3.36418,1.94627 -6.75363,3.53868 -7.53212,3.53868 -0.77849,0 -4.73909,-1.75258 -8.80133,-3.89462 z"
     id="path25"
     transform="scale(0.75)" />
  <path
     style="fill:#782121;stroke-width:0.91638"
     d="m 531.67108,311.09593 c -3.62435,-1.08793 -4.80441,-2.24705 -9.24633,-9.08225 -2.1527,-3.31257 -5.32119,-7.41221 -7.04108,-9.11032 -10.0459,-9.91869 -21.2565,-6.41564 -30.20371,9.43794 -4.36357,7.73181 -5.29571,8.26757 -14.42523,8.29118 l -7.90674,0.0204 -2.4485,-9.62967 c -5.57401,-21.922 -12.35316,-31.81299 -39.21049,-57.20931 -11.87945,-11.23321 -16.41069,-19.70275 -18.46849,-34.52019 -1.60166,-11.533 -0.0138,-35.96382 2.5009,-38.47851 0.4301,-0.43009 4.68896,-1.78321 9.46414,-3.00693 16.05933,-4.11548 31.43111,-11.98849 32.61472,-16.70438 0.31921,-1.27181 0.11651,-4.6221 -0.45042,-7.4451 -0.56694,-2.82299 -0.81521,-5.3483 -0.55172,-5.61179 1.02507,-1.02507 13.5189,3.81124 16.41526,6.35428 1.68261,1.47735 4.77415,3.29113 6.87009,4.03062 2.09595,0.73949 6.88727,3.47128 10.64738,6.07065 19.50184,13.48161 36.11089,40.49354 41.18083,66.97394 0.80226,4.1902 1.66949,13.18555 1.9272,19.98968 0.2577,6.80412 0.66879,13.69529 0.91353,15.31371 0.59677,3.94641 4.02366,7.17379 16.84265,15.86208 12.93814,8.76905 18.3551,14.21764 18.3551,18.46227 0,3.17929 -5.7631,13.55263 -10.12154,18.21836 -2.34178,2.50688 -2.98611,2.6991 -8.80282,2.6261 -3.45185,-0.0433 -7.43648,-0.42708 -8.85473,-0.8528 z m -63.61025,-19.91609 c 1.79868,-1.38603 6.60542,-5.42453 10.68166,-8.97445 10.31558,-8.98366 16.02682,-12.21267 29.26602,-16.54636 11.63714,-3.80927 14.67827,-5.82393 12.96813,-8.59099 -1.14543,-1.85334 -9.3356,-1.63385 -15.65488,0.41953 -12.87798,4.18456 -34.0914,18.19615 -41.23912,27.2387 -3.84042,4.8585 -4.24477,6.13107 -2.50188,7.87396 1.63487,1.63488 2.86514,1.36521 6.48007,-1.42039 z"
     id="path26"
     transform="scale(0.75)" />
  <path
     style="fill:#782121;stroke-width:0.91638"
     d="m 563.11569,280.64993 c -3.67809,-4.27863 -16.86622,-14.69427 -24.82835,-19.60878 -5.37737,-3.31911 -5.4122,-3.36862 -5.4122,-7.69515 0,-2.39501 -0.42267,-8.62506 -0.93927,-13.84455 -2.7334,-27.61687 -9.10134,-46.14595 -22.56532,-65.65933 -3.23235,-4.68466 -5.65216,-8.88138 -5.37734,-9.32604 1.00266,-1.62233 7.13127,-2.97043 10.82139,-2.38035 8.00685,1.28034 21.74201,11.28619 27.52417,20.05092 0.93218,1.41301 2.84092,2.77139 4.30597,3.06441 3.59041,0.71808 4.83889,2.32807 8.45525,10.90359 4.12301,9.77691 10.10158,18.86043 17.74949,26.96762 9.72465,10.30863 21.93968,18.2752 28.09566,18.32381 7.30707,0.0577 2.35465,7.73416 -17.58574,27.25867 -8.866,8.68109 -16.32618,15.75959 -16.57819,15.73 -0.252,-0.0296 -1.90148,-1.73276 -3.66552,-3.78482 z"
     id="path27"
     transform="scale(0.75)" />
  <path
     style="fill:#782121;stroke-width:0.91638"
     d="m 672.85221,360.51475 c -2.75593,-1.59232 -4.2917,-5.87739 -5.69866,-15.90028 -1.40971,-10.04239 -3.0256,-14.54727 -5.56803,-15.5229 -3.64954,-1.40045 -7.6295,-0.46229 -13.13531,3.09629 -3.1192,2.01603 -6.12633,3.66552 -6.68252,3.66552 -0.7079,0 -0.86396,-3.23001 -0.52023,-10.76747 0.5703,-12.50602 2.09787,-18.11427 9.53242,-34.99705 2.76115,-6.27015 5.88417,-14.72375 6.94006,-18.7858 1.05589,-4.06204 2.26102,-7.77457 2.67808,-8.25005 1.19628,-1.36388 6.14812,3.95167 9.10438,9.77309 1.95733,3.85434 2.66255,6.54597 2.66255,10.16219 0,4.25678 0.28641,5.04963 2.12715,5.88832 1.94959,0.8883 2.09443,1.4215 1.7352,6.38778 -0.52644,7.27804 1.57979,15.17724 7.03529,26.38509 5.03232,10.33848 8.61357,15.44206 18.24846,26.00563 l 6.69478,7.34006 -3.02926,0.51143 c -1.66609,0.28129 -5.91586,0.94255 -9.44392,1.46946 -5.66027,0.84536 -15.77667,2.93424 -19.70218,4.06819 -0.75601,0.21838 -2.09623,-0.0199 -2.97826,-0.5295 z"
     id="path28"
     transform="scale(0.75)" />
  <path
     style="fill:#ffffff;stroke-width:0.91638"
     d="m 317.4805,718.80835 c -6.71117,-0.94035 -14.58572,-3.91339 -22.1181,-8.35068 -7.3628,-4.33739 -10.82632,-7.40231 -10.82632,-9.58037 0,-0.88864 1.46818,-5.86771 3.26261,-11.06459 8.53275,-24.71177 9.96728,-54.34466 4.04838,-83.62714 -3.28342,-16.24404 -10.85892,-35.65347 -18.58553,-47.61864 l -3.23328,-5.00695 1.91604,-2.78228 c 1.05382,-1.53026 5.96757,-6.79139 10.91943,-11.6914 10.09355,-9.98787 11.25996,-12.63146 5.56697,-12.61722 -4.86946,0.0122 -12.17553,4.49494 -19.42369,11.91772 l -6.08347,6.23002 -5.91767,-5.66587 c -3.25472,-3.11624 -7.48299,-6.89214 -9.39615,-8.3909 l -3.47849,-2.725 5.31125,-0.0575 c 3.8052,-0.0412 8.81917,-1.25701 17.68238,-4.28782 24.16189,-8.26225 54.3149,-19.98594 63.38171,-24.64325 9.41456,-4.83593 10.78984,-4.93022 10.83106,-0.74267 0.0373,3.7929 4.47786,13.85154 9.29282,21.04998 10.40577,15.55679 26.16748,27.61975 36.08853,27.61975 2.38207,0 4.77665,-0.44562 5.32129,-0.99026 1.71755,-1.71754 -2.2257,-5.67983 -10.44499,-10.49545 -10.17821,-5.96333 -21.2609,-17.09457 -25.33802,-25.449 -8.47796,-17.37214 -7.33841,-35.34472 3.28326,-51.78235 8.42885,-13.0441 5.50322,-17.70632 -5.11841,-8.15656 -5.30711,4.77155 -10.12941,13.3959 -13.0843,23.40037 -1.5178,5.13887 -2.82617,7.61651 -5.2086,9.86343 -4.31605,4.07056 -16.04145,9.50087 -40.59656,18.80125 -32.7567,12.40677 -41.98499,15.59241 -43.49268,15.01386 -1.1098,-0.42587 -1.41382,-2.15664 -1.42811,-8.12995 -0.0516,-21.59355 -5.70564,-33.77824 -20.53032,-44.24411 -5.78112,-4.08134 -5.7149,-3.74974 -2.83087,-14.17451 3.56911,-12.90113 0.0295,-27.19524 -9.30541,-37.57786 l -4.19396,-4.6647 2.32231,-5.23935 c 5.72721,-12.92107 5.78007,-22.26119 0.19506,-34.47125 -1.26163,-2.7582 -2.29387,-5.38613 -2.29387,-5.83983 0,-0.4537 2.11844,-3.46454 4.70764,-6.69075 7.50738,-9.35438 8.35956,-12.00479 8.81763,-27.42422 0.2171,-7.30814 0.7205,-13.63188 1.11867,-14.05279 1.0555,-1.11575 4.47968,0.8786 23.1234,13.46783 28.16195,19.01645 37.24297,23.86557 58.83756,31.41834 19.23618,6.72791 29.30925,12.63644 43.51167,25.52252 3.73078,3.385 8.06068,6.93351 9.622,7.88558 10.90163,6.64771 6.00715,-7.90846 -6.50405,-19.34299 -10.14137,-9.26865 -20.26639,-15.243 -37.38618,-22.06004 -7.80069,-3.1062 -12.83574,-5.60534 -12.83574,-6.37099 0,-0.69292 3.45072,-3.08967 7.66828,-5.32611 8.43864,-4.47477 8.21122,-4.15759 13.32332,-18.58153 2.45084,-6.91513 5.07943,-10.88022 7.2228,-10.89518 0.61037,-0.004 4.50213,3.54944 8.64834,7.89712 l 7.53857,7.90486 8.30922,-2.05313 c 4.57008,-1.12923 8.42651,-1.89943 8.56987,-1.71156 0.14335,0.18788 1.80768,3.19925 3.69852,6.69195 8.01268,14.80076 20.55204,26.92523 25.77412,24.92133 1.27004,-0.48736 1.46027,-1.30562 0.98884,-4.25371 l -0.5837,-3.65028 h 3.53961 c 4.5278,0 9.31137,-1.6596 9.31137,-3.23046 0,-2.18076 -4.37954,-4.73787 -12.39441,-7.23677 -9.47032,-2.9527 -13.9827,-6.62163 -18.0476,-14.67415 -7.62132,-15.09772 -8.08992,-23.53828 -1.6313,-29.38325 2.31676,-2.09664 4.5819,-6.13545 4.5819,-8.16967 0,-0.76331 -0.86652,-1.85159 -1.9256,-2.41838 -1.57551,-0.84319 -2.77054,-0.5922 -6.57284,1.38051 -5.44841,2.82673 -5.98134,2.54479 -8.79328,-4.6521 l -1.83475,-4.69585 2.7722,-2.63519 c 3.83967,-3.64993 5.41608,-6.88242 4.31549,-8.84908 -0.97955,-1.75037 -5.39172,-2.11995 -8.08712,-0.67742 -2.00568,1.07341 -2.1873,0.52245 -3.76978,-11.43631 -1.28383,-9.70177 -0.5993,-27.89996 1.4305,-38.02978 3.20157,-15.97752 10.88687,-34.29954 19.79569,-47.19359 4.96971,-7.19283 18.2498,-20.85018 18.24458,-18.76286 -0.002,0.7434 -1.46713,8.56813 -3.25614,17.38829 -2.55663,12.60466 -3.36794,19.11794 -3.791,30.43453 l -0.53825,14.39787 -4.17139,2.09698 c -7.755,3.89847 -7.46123,6.58413 0.9255,8.46082 4.76031,1.06521 4.92629,1.21187 6.86887,6.06948 3.52357,8.81104 3.49933,9.24325 -0.67942,12.11224 -3.02922,2.07977 -3.66458,3.01314 -3.43086,5.0401 0.23965,2.07846 0.789,2.53579 3.33971,2.78036 1.67908,0.161 4.24298,-0.12215 5.69756,-0.62922 2.84456,-0.99162 3.62376,-0.54382 8.17619,4.69883 l 2.19654,2.52956 -3.37602,3.09231 c -2.22938,2.04204 -3.37601,3.90031 -3.37601,5.4713 0,3.62121 3.39779,4.02356 9.51996,1.12732 2.76574,-1.30841 5.43331,-2.37893 5.92791,-2.37893 1.76769,0 11.23015,9.48183 16.67944,16.71358 3.05034,4.04811 6.98311,10.21376 8.73949,13.70146 l 3.1934,6.34126 -2.65352,3.38588 c -7.0533,9.00001 -6.19734,14.26888 1.66634,10.25714 4.44263,-2.26646 4.77721,-1.80599 5.30436,7.30025 0.30366,5.24555 -0.0732,8.64545 -1.53619,13.85926 -2.08585,7.43354 -2.47367,12.30928 -1.04909,13.18972 0.48921,0.30235 2.1672,-0.11102 3.72888,-0.9186 2.18291,-1.12882 3.83118,-3.52109 7.12886,-10.34672 l 4.28945,-8.87842 4.12371,-0.61359 c 2.26804,-0.33749 7.31604,-0.8878 11.21778,-1.22293 l 7.09408,-0.60932 4.99439,-8.4862 c 5.63144,-9.56864 10.35703,-14.39996 13.3255,-13.62368 2.72252,0.71195 6.86686,6.05205 10.87859,14.01735 3.32757,6.60692 3.65435,6.94183 8.44524,8.65549 4.27743,1.53001 7.646,1.79683 23.76951,1.88278 18.27258,0.0974 18.94151,0.16763 24.48556,2.57018 3.13486,1.3585 6.50914,2.47002 7.49838,2.47002 2.69247,0 3.37853,-3.41286 1.2656,-6.29569 -2.59103,-3.53512 -10.0583,-8.29969 -13.99404,-8.92904 -5.34975,-0.85546 -5.91746,-1.48919 -4.23995,-4.73312 2.34324,-4.53134 5.71828,-6.61718 10.70702,-6.61718 5.36897,0 9.09988,-1.30926 9.09988,-3.19336 0,-0.77328 -1.63383,-2.53606 -3.63074,-3.9173 -1.99692,-1.38124 -3.6464,-2.9978 -3.66553,-3.59238 -0.0191,-0.59457 5.824,-6.29769 12.98473,-12.67359 l 13.01949,-11.59255 5.07902,0.18279 c 7.74199,0.27861 8.95956,0.0866 9.57198,-1.50933 0.37285,-0.97164 -0.67859,-2.71721 -3.08805,-5.12667 -3.64507,-3.64506 -3.65006,-3.65999 -2.19188,-6.54505 3.14095,-6.21449 5.77137,-8.84751 8.85192,-8.86065 9.10726,-0.0389 10.55207,-5.13227 2.50801,-8.84149 -2.00907,-0.92641 -3.66347,-2.13593 -3.67648,-2.68782 -0.0334,-1.4181 3.05306,-4.03665 4.758,-4.03665 0.78649,0 2.36918,-0.76051 3.51707,-1.69002 2.6213,-2.1226 1.95122,-4.14562 -2.18064,-6.58347 l -3.08943,-1.82281 -0.59076,-10.30122 c -0.32491,-5.66567 -1.21097,-14.01256 -1.96902,-18.54864 -1.5595,-9.33192 -1.77543,-15.12027 -0.56405,-15.12027 1.49271,0 14.54611,14.55615 18.82419,20.99131 7.86905,11.83674 11.75813,23.87009 12.91085,39.94798 0.98396,13.72401 -2.3442,37.53133 -5.82214,41.64756 -1.38196,1.63558 -1.91934,1.70883 -5.43381,0.74062 -3.31434,-0.91309 -4.11926,-0.85541 -5.35864,0.38398 -1.68698,1.68697 -0.80871,4.09267 2.9796,8.16158 l 2.20244,2.36559 -2.73066,8.35618 c -5.50012,16.83098 -7.3497,18.52776 -20.19635,18.52776 -5.74307,0 -7.36047,0.28558 -7.36047,1.29962 0,4.15817 3.2123,6.36123 10.76747,7.38454 3.03541,0.41114 4.81099,1.09654 4.81099,1.85713 0,0.66302 -2.51903,4.2205 -5.59786,7.90551 -10.04821,12.02657 -9.72599,17.07788 0.78251,12.26693 2.77026,-1.26827 5.78395,-2.30594 6.6971,-2.30594 2.54467,0 2.96439,3.06176 1.2549,9.1543 l -1.55353,5.53674 4.47763,6.62928 c 2.4627,3.64611 6.53948,10.75299 9.05953,15.79308 3.37051,6.74103 5.08788,9.2361 6.4957,9.43724 1.24701,0.17816 4.7133,-1.94279 9.949,-6.0876 12.11044,-9.58713 20.71962,-13.3916 37.63121,-16.62949 5.28688,-1.01223 14.04551,-2.68339 19.46361,-3.71369 5.4181,-1.0303 15.53248,-3.7819 22.47641,-6.11465 8.06006,-2.70772 12.94321,-3.9235 13.50443,-3.36228 0.56123,0.56123 0.22081,4.27513 -0.94147,10.27087 -2.47827,12.78448 -2.34053,20.11674 0.5281,28.11255 1.26575,3.52806 2.51906,7.055 2.78511,7.83763 0.26606,0.78264 -0.95458,3.56032 -2.71253,6.17261 -6.17304,9.1731 -9.00679,20.75985 -6.99501,28.60144 2.23069,8.69486 2.21675,8.84225 -1.28842,13.61723 -6.45296,8.7907 -8.25092,14.08392 -8.64049,25.43787 l -0.34961,10.18913 -5.21692,4.59212 c -6.62988,5.83585 -10.43145,12.92925 -12.64678,23.59779 -1.50421,7.24393 -1.93167,8.20999 -3.5132,7.93973 -3.02752,-0.51736 -29.67518,-13.29574 -38.91402,-18.66048 l -8.70561,-5.05512 -0.61493,-11.35606 c -0.33821,-6.24582 -1.27496,-13.83027 -2.08167,-16.85433 -1.99603,-7.48243 -6.49965,-16.48512 -9.38021,-18.75096 -2.82878,-2.22513 -6.54715,-2.43924 -7.32139,-0.42159 -0.30519,0.7953 1.12122,5.64066 3.1698,10.76747 8.02109,20.07379 7.38325,33.66421 -2.37036,50.50437 -5.12664,8.85146 -21.29639,24.22332 -38.20541,36.32021 -8.05787,5.76469 -14.78378,11.17241 -14.94647,12.01716 -0.16268,0.84474 0.50968,1.96698 1.49416,2.49385 2.75003,1.47177 9.37094,-0.90363 19.85556,-7.12363 6.36802,-3.77784 9.25248,-5.05453 9.45447,-4.18464 0.47514,2.04628 -6.89366,15.30937 -11.46911,20.6432 -6.09491,7.10517 -13.14605,18.20639 -18.27819,28.77695 -3.79729,7.82119 -5.6575,10.3863 -12.69672,17.50784 -21.97922,22.23632 -57.36997,40.80777 -89.60052,47.01825 -15.92917,3.06938 -30.40671,3.98519 -56.5972,3.58019 l -24.319,-0.37607 -5.97887,-5.07203 c -5.35496,-4.54276 -19.45964,-14.26795 -27.03696,-18.64202 l -2.84512,-1.64237 1.78877,-5.60843 c 6.03712,-18.92846 5.56111,-46.55143 -1.14916,-66.68427 -3.99173,-11.97644 -9.85131,-20.48325 -12.83772,-18.63755 -1.57058,0.97068 -0.9768,5.36621 1.85767,13.75169 4.71572,13.95094 5.8821,21.98451 5.91805,40.76124 0.0339,17.69387 -0.79978,23.63702 -4.28903,30.57693 -1.09891,2.18567 -2.80715,3.93078 -4.45749,4.55372 -5.6938,2.14916 -2.77966,5.59936 10.94198,12.95472 13.80481,7.39994 19.02175,11.05835 26.92315,18.88 9.10397,9.01209 12.48342,16.40878 10.20715,22.34065 -0.79916,2.08256 -5.19526,4.16571 -8.77816,4.15965 -6.65066,-0.0112 -10.08921,-1.81261 -17.23372,-9.02829 -7.63952,-7.71563 -13.88288,-11.40537 -18.53977,-10.95673 -5.21424,0.50233 -4.45299,3.37372 2.51667,9.49274 10.32148,9.06176 13.28572,17.27504 8.31769,23.04653 -1.94158,2.25558 -2.83506,2.56531 -7.27982,2.52364 -3.9734,-0.0373 -6.51627,-0.78332 -11.78532,-3.45774 -6.46528,-3.28162 -9.96582,-6.12429 -17.50294,-14.21362 -4.07823,-4.37701 -9.01324,-5.89882 -11.39743,-3.51462 -1.32457,1.32456 -1.19946,1.83607 1.42944,5.84427 5.2269,7.96924 6.89264,11.79074 6.25203,14.34316 -1.06802,4.25532 -7.55392,6.28874 -16.19636,5.07777 z M 561.56215,575.68663 c 3.87996,-1.7763 5.21906,-2.87262 5.21906,-4.27282 0,-1.53369 -0.58276,-1.88345 -3.13811,-1.88345 -4.29837,0 -19.20799,3.50969 -21.2487,5.00189 -1.45849,1.06648 -1.50095,1.4071 -0.34847,2.79575 1.97711,2.38228 12.69667,1.48073 19.51622,-1.64137 z m 143.14854,-70.34776 c 0.33989,-1.07091 0.0191,-2.75797 -0.74658,-3.92658 -1.41756,-2.16347 -26.4137,-20.32421 -31.68399,-23.01973 -2.79551,-1.42978 -3.22869,-1.44497 -4.51532,-0.15834 -1.12903,1.12903 -1.21487,1.88033 -0.41531,3.63517 2.56318,5.62556 15.01322,16.23337 26.00321,22.15554 6.80112,3.66491 10.47686,4.09014 11.35799,1.31394 z M 431.15693,501.6518 c 64.76085,-10.25728 116.209,-10.49295 172.87997,-0.79193 21.66765,3.7091 24.14179,3.59782 24.14179,-1.08593 0,-1.99852 -0.71162,-3.09733 -2.84686,-4.39585 -5.84763,-3.55616 -27.70458,-7.6018 -55.80147,-10.32865 -19.61962,-1.90412 -83.50057,-1.60441 -103.03861,0.48342 -43.89463,4.69057 -66.03356,10.12376 -66.03356,16.2055 0,4.19458 3.73568,4.18405 30.69874,-0.0866 z M 286.1205,494.20279 c 14.2847,-4.64383 42.57499,-20.79653 48.7587,-27.8394 3.07623,-3.50362 3.2027,-4.69151 0.66807,-6.27501 -1.2684,-0.79243 -5.85448,1.20658 -23.77134,10.36157 -34.39697,17.57585 -40.60239,21.54458 -38.20441,24.43396 1.55297,1.87122 5.32816,1.66632 12.54898,-0.68112 z m 426.74842,-8.61928 c 2.32278,-0.89132 1.70253,-4.41032 -1.14893,-6.5185 -7.91896,-5.85474 -36.06365,-17.94498 -40.7255,-17.49464 -6.90863,0.6674 -1.46865,6.62316 13.17758,14.427 14.71395,7.83993 24.62217,11.14975 28.69685,9.58614 z M 286.82703,468.75797 c 16.7781,-4.43304 33.32209,-10.68684 39.03757,-14.75661 5.28101,-3.76043 2.48373,-7.08168 -4.94104,-5.86656 -4.51297,0.73857 -39.91156,11.27191 -47.65817,14.18132 -6.78127,2.54686 -10.15748,5.34672 -9.26183,7.68074 0.59465,1.54962 1.39955,1.67017 8.07645,1.20962 4.07879,-0.28135 10.71495,-1.38319 14.74702,-2.44851 z m 229.36734,-7.84819 c 0.52459,-5.35356 -7.76245,-13.4538 -12.07212,-11.80003 -3.73774,1.4343 -2.09209,8.70007 2.94355,12.99628 1.72517,1.47184 3.3828,2.00964 5.64898,1.83276 2.83442,-0.22126 3.23899,-0.57343 3.47959,-3.02901 z m 38.33629,-0.76629 c 4.50698,-4.50698 5.20386,-7.88124 2.07967,-10.06951 -2.60904,-1.82745 -6.61787,-0.38362 -9.45455,3.40514 -7.13091,9.52432 -1.0133,15.05255 7.37488,6.66437 z m 164.80819,0.68457 c 3.82581,-3.82581 -0.77557,-7.1205 -14.68224,-10.51285 -20.12988,-4.91043 -38.55421,-6.75405 -42.03815,-4.20653 -0.90716,0.66332 -1.49916,1.98606 -1.31556,2.9394 0.41541,2.15704 3.04439,2.94187 27.35689,8.16677 26.15825,5.62158 28.40598,5.8863 30.67906,3.61321 z M 285.01929,445.85032 c 43.42576,-5.60639 52.50466,-7.24953 54.705,-9.90078 2.89159,-3.48416 -6.76064,-5.38654 -22.61476,-4.45722 -17.12298,1.0037 -60.6258,7.62653 -64.87585,9.87663 -1.83908,0.97367 -2.12841,4.47515 -0.50401,6.09955 1.74067,1.74066 10.61354,1.30937 33.28962,-1.61818 z M 709.9297,435.63456 c 5.18586,-0.56137 10.87213,-1.491 12.63616,-2.06585 4.50521,-1.46815 4.31715,-4.14898 -0.45819,-6.53166 -3.15312,-1.57327 -5.39485,-1.81644 -16.03665,-1.73954 -13.30776,0.0962 -33.2137,2.29552 -41.00802,4.53086 -2.64605,0.75886 -4.811,1.54069 -4.811,1.7374 0,0.1967 -0.24219,0.98881 -0.53821,1.76022 -0.38607,1.00608 0.32634,1.65155 2.52004,2.28326 4.28864,1.23497 36.36373,1.25199 47.69587,0.0253 z m -250.59818,-5.88715 c 4.5442,-1.89869 6.58781,-3.8525 8.58992,-8.21247 4.90425,-10.67995 -1.70997,-22.99807 -12.92756,-24.07593 -5.93978,-0.57074 -8.49085,0.16365 -12.3555,3.55686 -6.00381,5.27142 -7.38496,16.29413 -2.88984,23.0634 2.34499,3.53136 8.94235,7.07766 13.16693,7.07766 1.67342,0 4.56064,-0.63428 6.41605,-1.40952 z m 143.92132,0.11314 c 3.37744,-1.76941 8.11091,-6.85836 9.29119,-9.98893 2.21718,-5.8809 0.82801,-12.92402 -3.43853,-17.43339 -3.55541,-3.75776 -6.81315,-5.18784 -11.80913,-5.18394 -11.79576,0.009 -19.41356,13.13969 -14.0505,24.2183 3.79681,7.84314 13.37877,11.8604 20.00697,8.38796 z m -276.56326,-5.93447 c 2.82291,-0.78061 3.5756,-4.18274 1.20108,-5.42883 -5.6483,-2.96411 -67.90388,-8.2758 -80.46798,-6.86559 -7.0978,0.79667 -9.97688,4.34187 -5.72738,7.05252 3.5428,2.25986 17.73446,3.70714 53.37916,5.44367 10.96897,0.53439 29.3778,0.4169 31.61512,-0.20177 z m 334.937,-14.12416 c 11.75477,-12.03644 17.72706,-16.93472 23.68107,-19.42247 1.67324,-0.69912 10.33307,-3.14004 19.24406,-5.42424 23.89525,-6.12524 35.42538,-12.03104 35.42538,-18.14511 0,-4.55816 -2.11052,-4.35116 -16.41475,1.61001 -3.23201,1.34692 -13.04075,4.25555 -21.7972,6.46362 -17.58758,4.43497 -26.36653,8.0713 -34.64028,14.34834 -11.37963,8.63339 -23.83419,27.38304 -21.1135,31.78521 1.46295,2.3671 4.43593,0.23181 15.61522,-11.21536 z m -303.72175,7.99721 c 1.9656,-2.36839 -0.84541,-6.24718 -15.8577,-21.88135 -18.7234,-19.499 -23.28243,-22.44188 -48.32506,-31.19395 -20.15583,-7.0442 -29.45904,-12.4201 -43.30321,-25.02297 -3.3922,-3.08804 -7.38642,-6.24488 -8.87605,-7.01521 -2.42831,-1.25572 -2.8531,-1.2559 -4.10719,-0.002 -1.05907,1.05906 -1.18369,1.96444 -0.51317,3.72805 1.55685,4.09483 6.0007,9.81119 12.46179,16.03026 10.55685,10.16141 18.27716,14.3878 41.88271,22.92813 22.07372,7.98613 25.7133,10.24889 40.55873,25.21585 12.44815,12.55005 20.08833,18.65786 23.33889,18.65786 0.84763,0 2.08075,-0.65018 2.74026,-1.44486 z m 325.56219,-0.44286 c 4.11605,-1.03824 13.87548,-3.7392 21.68762,-6.00213 15.50702,-4.49188 19.38421,-6.7512 17.53029,-10.21529 -1.51006,-2.82155 -3.16187,-3.03721 -11.81693,-1.54282 -10.05137,1.73549 -19.63644,4.38949 -27.69108,7.66735 -11.04602,4.49521 -14.68784,7.32745 -13.47752,10.48148 0.77829,2.02819 4.61587,1.91987 13.76762,-0.38859 z M 316.42064,404.07315 c 0.14818,-1.03583 -0.48148,-2.56288 -1.39925,-3.39346 -5.50688,-4.98365 -51.16687,-15.34177 -67.62862,-15.34177 -4.96722,0 -7.43842,1.75696 -6.06932,4.31515 1.45293,2.71482 5.88006,4.20518 24.89986,8.38235 32.13559,7.05768 38.93003,8.29782 44.42961,8.10941 4.77554,-0.1636 5.5337,-0.43592 5.76772,-2.07168 z"
     id="path33"
     transform="scale(0.75)" />
  <path
     style="fill:#ffffff;stroke-width:0.91638"
     d="m 554.53366,712.41917 c -1.84922,-1.4546 -2.41453,-2.71196 -2.41453,-5.3704 0,-3.84596 2.33775,-7.82348 8.87676,-15.10319 2.96399,-3.29973 3.97161,-5.13676 3.7698,-6.87285 -0.59254,-5.09741 -8.3842,-2.29762 -17.68665,6.35537 -7.99084,7.43294 -17.04334,9.43082 -22.38101,4.93947 -6.60063,-5.55407 -0.80507,-15.67991 14.72422,-25.72575 7.48013,-4.83887 21.0595,-11.3062 23.7395,-11.3062 3.23588,0 8.00332,-2.51427 8.65385,-4.56391 0.823,-2.59307 -1.78792,-5.51166 -4.94732,-5.5303 -1.30791,-0.008 -2.98577,-0.39837 -3.72857,-0.86812 -1.13679,-0.71889 -0.99175,-1.24141 0.91638,-3.30124 2.67456,-2.8872 16.45475,-13.55004 16.91453,-13.08813 0.17436,0.17516 -0.14259,4.96714 -0.70435,10.64884 -1.38696,14.02797 0.15905,32.67751 3.93572,47.47663 l 2.78713,10.92154 -3.91838,3.4634 c -2.15512,1.90488 -6.7573,4.89457 -10.22708,6.64376 -7.68949,3.87644 -14.41253,4.34683 -18.31,1.28108 z"
     id="path34"
     transform="scale(0.75)" />
  <path
     style="fill:#ffffff;stroke-width:0.91638"
     d="m 647.94073,374.52995 c -0.28701,-0.90428 -2.58284,-4.90803 -5.10184,-8.89721 -2.57653,-4.08027 -4.58001,-8.33631 -4.58001,-9.72941 0,-4.24457 16.19501,-17.96719 18.49268,-15.66952 0.47898,0.47897 1.21888,4.58077 1.64422,9.1151 0.49279,5.25342 1.46843,9.60672 2.68935,11.99993 1.05381,2.06563 1.91602,4.14826 1.91602,4.62807 0,0.77462 -13.03903,10.1972 -14.11096,10.1972 -0.23519,0 -0.66245,-0.73987 -0.94946,-1.64416 z"
     id="path35"
     transform="scale(0.75)" />
  <path
     style="fill:#782121;stroke-width:0.91638"
     d="m 745.08489,642.32393 c -1.11841,-16.06228 -4.62572,-24.49998 -11.43221,-27.50299 -3.80714,-1.6797 -4.22052,-2.3584 -6.93403,-11.38451 -2.06876,-6.88147 -7.27083,-14.26399 -12.00677,-17.03944 -5.28716,-3.09848 -5.5767,-3.55645 -7.20554,-11.39721 -2.06036,-9.91796 -5.96278,-17.20253 -12.41642,-23.17746 -12.7934,-11.84443 -31.39631,-13.50746 -53.04607,-4.74213 -4.65038,1.8828 -8.72064,3.15788 -9.04501,2.8335 -1.70565,-1.70565 4.16258,-12.46255 12.57116,-23.04387 3.01277,-3.79125 7.16953,-9.78989 9.23725,-13.33032 3.59125,-6.14906 3.84847,-6.37977 5.7476,-5.15524 1.09346,0.70505 7.7613,4.43341 14.81743,8.28524 17.04897,9.30677 27.71116,13.57544 35.3304,14.14472 5.35585,0.40017 6.27893,0.21355 8.5245,-1.72339 2.60886,-2.25031 4.19797,-7.02683 4.22867,-12.71053 0.043,-7.9687 5.47767,-16.60634 14.71442,-23.38674 l 4.55596,-3.34438 v -6.79481 c 0,-3.73714 0.38024,-6.79481 0.84498,-6.79481 1.81761,0 7.73001,8.1883 11.57935,16.03666 2.22479,4.53608 5.08172,11.9018 6.34874,16.36826 2.25901,7.96339 3.05187,17.42543 1.5385,18.36074 -1.11426,0.68866 -7.6603,-1.37301 -9.61826,-3.02926 -0.92281,-0.78061 -2.70194,-3.51079 -3.95362,-6.06707 -2.62479,-5.36051 -9.67641,-15.07177 -11.81177,-16.26678 -1.9635,-1.09883 -4.09172,-0.16298 -4.09172,1.79927 0,0.88038 2.16315,5.32631 4.807,9.87985 4.32197,7.44378 4.7775,8.74148 4.51464,12.86106 -1.11996,17.5522 -1.11732,17.56754 5.23815,30.36523 4.06779,8.19111 7.00392,12.86037 9.62199,15.30168 l 3.76782,3.51342 -0.0912,12.52323 c -0.0718,9.86195 -0.61916,15.01878 -2.57563,24.26646 -2.46124,11.63349 -8.2787,30.00778 -11.47052,36.22928 l -1.6558,3.22749 z"
     id="path36"
     transform="scale(0.75)" />
  <path
     style="fill:#782121;stroke-width:0.91638"
     d="m 767.97865,494.18327 c -0.78459,-1.12016 -1.42653,-2.49953 -1.42653,-3.06526 0,-2.54677 -8.22695,-13.43476 -15.33139,-20.29039 l -7.79592,-7.5229 2.31265,-3.93186 c 1.27195,-2.16252 3.34073,-4.89204 4.59729,-6.0656 2.13129,-1.99052 2.46007,-2.043 4.8982,-0.78184 5.4687,2.82876 19.10414,19.08282 23.84177,28.42045 3.04827,6.008 2.57227,8.56178 -2.28456,12.25685 -4.6489,3.53687 -6.84947,3.78175 -8.81151,0.98055 z"
     id="path37"
     transform="scale(0.75)" />
  <path
     style="fill:#ffffff;stroke-width:0.512427"
     d="m 60.299818,681.43162 c -1.218935,-0.43104 -2.994936,-1.56239 -3.94667,-2.51413 -3.079973,-3.07997 -2.91181,-7.13077 0.480458,-11.57349 2.006594,-2.62795 8.373681,-7.67825 11.134136,-8.83146 l 1.864691,-0.779 1.376714,2.08036 c 0.757193,1.1442 3.556266,4.60159 6.220161,7.68311 l 4.843448,5.60275 -1.927083,2.3054 c -4.999895,5.98148 -13.200839,8.44696 -20.045855,6.02646 z"
     id="path38"
     transform="scale(0.75)" />
  <path
     style="fill:#ffffff;stroke-width:0.512427"
     d="m 91.642526,698.20318 c -4.639021,-1.10535 -7.063777,-4.23236 -6.653827,-8.58089 0.328927,-3.48908 2.716981,-8.86334 3.938428,-8.86334 0.498289,0 3.357522,1.61575 6.35385,3.59056 2.996328,1.97481 7.239493,4.49138 9.429263,5.59237 6.16979,3.10211 6.44301,3.9377 1.93703,5.92397 -5.14704,2.26887 -11.281569,3.22446 -15.004744,2.33733 z"
     id="path39"
     transform="scale(0.75)" />
  <path
     style="fill:#ffffff;stroke-width:0.561641"
     d="m 234.48491,672.49852 c -10.23238,-1.4251 -18.926,-2.9177 -19.84537,-3.40724 -2.04243,-1.08753 -2.83237,-4.2462 -2.78329,-11.12942 0.0513,-7.19046 1.5571,-19.49954 2.73466,-22.35389 0.9519,-2.30736 1.75556,-1.98283 5.59585,2.25964 8.77207,9.69074 19.59553,27.54779 20.04096,33.0645 0.18153,2.2483 -0.16605,2.34311 -5.74281,1.56641 z"
     id="path40"
     transform="scale(0.75)" />
  <path
     style="fill:#501616;stroke-width:0.379028"
     d="m 262.3014,710.89409 c -0.37292,-0.72113 -0.69863,-3.07992 -0.92992,-6.73436 -0.44619,-7.05 -1.80233,-13.81624 -4.22034,-21.05664 -6.98636,-20.91971 -21.64174,-43.63868 -38.69221,-59.98117 -5.40896,-5.18437 -9.98467,-8.89644 -16.81607,-13.64213 -6.56842,-4.56301 -7.91032,-5.63201 -11.87634,-9.46113 -6.98043,-6.7395 -10.53396,-13.44418 -11.97063,-22.58584 -2.66196,-16.93834 0.92467,-31.48936 10.15751,-41.20914 10.44773,-10.99874 25.7979,-13.26648 40.60044,-5.99805 24.4103,11.9861 44.19238,39.95805 52.65702,74.45728 4.89806,19.96299 5.77637,42.01141 2.45577,61.64819 -3.08472,18.24189 -10.95996,38.00583 -17.57284,44.10138 -2.0286,1.8699 -3.00282,1.98848 -3.79239,0.46161 z"
     id="path41"
     transform="scale(0.75)" />
  <path
     style="fill:#501616;stroke-width:0.379028"
     d="m 210.3605,730.7269 c -13.71871,-1.01263 -25.48639,-3.36999 -38.39178,-7.69083 -25.9615,-8.69214 -43.05372,-21.03024 -56.00959,-40.43082 -5.69078,-8.52158 -10.04129,-18.16612 -12.29928,-27.26596 -1.50566,-6.06791 -1.8744,-8.93698 -1.88334,-14.65398 -0.015,-9.60894 2.22673,-16.16025 7.23816,-21.15277 3.62603,-3.61234 8.2429,-5.49659 14.54844,-5.93753 4.38833,-0.30687 5.73685,-0.85234 6.47506,-2.61912 0.51252,-1.22662 0.51108,-1.5835 -0.0136,-3.38847 -2.13312,-7.33767 2.23534,-16.97334 11.72131,-25.85412 5.73399,-5.36816 11.99047,-8.79377 19.40063,-10.62241 4.37287,-1.07911 6.16246,0.29156 6.92354,5.30282 1.19444,7.86465 3.18615,13.76063 6.52583,19.31808 5.28821,8.79997 11.85956,15.30321 23.63577,23.3908 7.29359,5.00905 8.66116,6.67051 7.81506,9.49453 -0.24324,0.81188 -0.87493,1.81648 -1.40374,2.23245 -2.15439,1.69464 -7.06024,1.91072 -12.98801,0.57205 -2.50324,-0.5653 -2.78835,-0.56515 -3.65385,0.002 -2.17524,1.42527 -1.36157,4.0878 1.80535,5.90755 1.08994,0.62629 3.60206,1.6661 5.58248,2.31068 4.3597,1.41899 5.86361,2.49434 7.0491,5.04035 1.94286,4.17257 0.70876,9.30014 -2.83705,11.78775 -1.57584,1.10555 -1.77055,1.14369 -5.8585,1.14737 -4.52149,0.004 -5.72877,0.24098 -6.09526,1.19605 -0.73456,1.91421 3.38932,4.81914 8.8782,6.25396 4.57146,1.195 5.21439,1.92135 6.80644,7.68953 0.68775,2.49182 1.27133,5.39138 1.29685,6.44348 l 0.0464,1.9129 -2.54076,1.22374 c -4.59485,2.21306 -4.40053,3.85729 0.73635,6.23054 4.47429,2.06713 5.59946,3.04848 8.7864,7.66336 5.75135,8.32828 11.50777,14.38168 22.57035,23.73478 l 6.01145,5.0825 -3.11795,1.42951 c -4.04357,1.85389 -7.34314,2.85786 -11.58345,3.52454 -3.59247,0.56482 -11.94193,0.96353 -15.17697,0.72474 z"
     id="path42"
     transform="scale(0.75)" />
  <path
     style="fill:#501616;stroke-width:0.620781"
     d="m 635.6793,725.33632 c -11.42643,-0.58351 -11.79754,-1.08291 -5.12631,-6.89863 9.73239,-8.48434 19.97453,-19.01174 24.04567,-24.71541 5.05734,-7.08533 5.51338,-7.51272 10.23623,-9.59301 4.30874,-1.89788 5.91851,-3.19236 5.91851,-4.75931 0,-1.51608 -1.8581,-2.40875 -5.01387,-2.40875 h -2.61236 l 0.38903,-3.56949 c 0.52835,-4.84775 1.50823,-8.0834 2.85619,-9.43136 0.61897,-0.61897 2.90548,-1.72285 5.08113,-2.45307 5.59847,-1.87905 8.88323,-3.8647 9.12022,-5.51321 0.29269,-2.03595 -2.29228,-2.79401 -7.77544,-2.2802 -11.19748,1.0493 -10.29623,-2.37903 3.07639,-11.7025 16.36398,-11.40907 25.36928,-23.49189 29.93463,-40.16462 2.92132,-10.66876 3.62891,-11.26503 7.96233,-6.70966 5.21781,5.48506 7.57015,13.69909 6.01789,21.01364 -0.47133,2.22103 -0.57027,3.98859 -0.24138,4.31262 0.30651,0.302 2.56531,0.67296 5.01955,0.82437 5.77357,0.35618 8.27548,1.84717 10.40099,6.19835 2.27672,4.66074 3.03327,9.64167 2.61167,17.19454 -1.57308,28.18185 -20.99899,55.88045 -49.36773,70.39141 -15.95471,8.16104 -32.06811,11.30937 -52.53334,10.26429 z"
     id="path43"
     transform="scale(0.75)" />
  <path
     style="fill:#501616;stroke-width:0.620781"
     d="m 601.66285,709.2789 c -5.56651,-6.61541 -11.59247,-35.22961 -11.60583,-55.11004 -0.0342,-50.97449 39.49511,-104.5346 77.09425,-104.45849 21.66258,0.0438 35.87032,17.23581 32.78761,39.67438 -2.68005,19.50761 -14.36926,36.09847 -33.90272,48.11915 -14.92713,9.18601 -25.31982,17.61587 -33.68004,27.31901 -9.30456,10.79917 -12.80374,16.25664 -21.48845,33.51423 -3.42507,6.80603 -6.5419,12.47462 -6.92628,12.59684 -0.38439,0.12223 -1.40973,-0.62256 -2.27854,-1.65508 z"
     id="path44"
     transform="scale(0.75)" />
  <path
     style="fill:#501616;stroke-width:0.151807"
     d="m 761.44266,563.47405 c -0.93399,-0.17185 -2.29239,-1.95927 -5.39987,-7.10532 -7.3955,-12.24709 -9.46218,-18.46017 -6.92707,-20.82488 0.19703,-0.18378 0.69895,-0.49119 1.11538,-0.68313 0.68627,-0.31631 0.97028,-0.34829 3.03424,-0.34161 3.3448,0.0108 6.45394,0.65578 13.09298,2.71603 11.03871,3.42556 13.96609,6.11797 11.6463,10.7115 -1.41767,2.8072 -4.08263,5.71336 -10.92334,11.91202 -3.39471,3.07609 -4.5486,3.81594 -5.63862,3.61539 z"
     id="path45"
     transform="scale(0.75)" />
  <path
     style="fill:#501616;stroke-width:0.700889"
     d="m 25.932896,608.42003 c -0.385489,-0.15188 -1.569798,-0.46783 -2.631798,-0.70212 -1.887046,-0.4163 -1.90908,-0.47822 -0.969961,-2.72584 2.372407,-5.67797 15.21207,-24.65499 20.869974,-30.84581 l 3.057568,-3.34556 2.572173,2.14413 c 4.166493,3.47313 5.137607,7.0562 5.137607,18.95599 0,11.28589 -0.791114,14.07315 -4.414127,15.55188 -1.785112,0.72859 -22.114364,1.5611 -23.621436,0.96733 z"
     id="path46"
     transform="scale(0.75)" />
  <path
     style="fill:#501616;stroke-width:0.700889"
     d="m 38.795767,513.35208 c -5.309685,-5.42635 -12.164442,-14.04324 -13.939847,-17.52332 -3.793819,-7.4365 -0.104834,-11.47775 19.399712,-21.2522 5.727543,-2.87028 12.036157,-5.74251 14.01914,-6.38274 3.299228,-1.06518 3.787225,-1.07002 5.746103,-0.0571 1.177374,0.60885 3.024334,2.26588 4.104356,3.6823 1.742258,2.28493 1.957142,3.13459 1.905728,7.5353 -0.107814,9.22795 -7.187312,22.72221 -17.365366,33.10017 -6.686619,6.81795 -7.993926,6.90255 -13.869826,0.89754 z"
     id="path47"
     transform="scale(0.75)" />
  <path
     style="fill:#501616;stroke-width:0.700889"
     d="m 87.013013,375.15088 c -6.638205,-6.97687 -21.698808,-33.235 -26.632608,-46.4339 -5.037277,-13.47573 -6.927879,-29.0869 -3.522588,-29.0869 0.564166,0 6.526189,2.36453 13.248941,5.25452 6.722751,2.88998 15.619253,6.55884 19.770004,8.15301 8.950886,3.43776 40.047308,13.92714 41.287858,13.92714 1.01312,0 0.68498,3.22735 -0.92338,9.08162 -4.50734,16.40633 -27.79024,42.08329 -38.159549,42.08329 -1.716975,0 -2.890899,-0.6899 -5.068678,-2.97878 z"
     id="path48"
     transform="scale(0.75)" />
  <path
     style="fill:#501616;stroke-width:0.77188"
     d="m 709.23443,344.0046 c -4.74274,-3.75236 -12.69666,-13.75511 -17.45781,-21.95472 -3.77506,-6.50138 -9.0484,-21.15482 -9.0484,-25.1435 0,-3.23345 2.55521,-5.98358 7.15746,-7.70345 3.90239,-1.45834 34.72143,-7.98548 42.68532,-9.0403 5.8617,-0.77638 6.8218,0.49073 6.11856,8.07506 -1.04517,11.27186 -7.88585,32.82857 -14.83803,46.75841 -6.50877,13.04137 -8.20135,14.0845 -14.6171,9.0085 z"
     id="path49"
     transform="scale(0.75)" />
  <path
     style="fill:#501616;stroke-width:0.77188"
     d="m 598.82503,232.7601 c -8.15207,-3.70096 -21.42527,-14.91027 -28.44339,-24.02062 -3.7995,-4.93221 -8.24761,-12.88072 -9.59714,-17.14951 -1.3067,-4.13332 0.0224,-5.79908 9.49915,-11.90574 4.32012,-2.78381 14.8017,-9.65247 23.29238,-15.2637 21.14546,-13.97437 19.78621,-13.46435 21.2634,-7.9785 1.1976,4.44756 0.48321,6.57383 -2.42318,7.21218 -4.91367,1.07922 -5.66325,8.03249 -2.92811,27.16201 3.16209,22.1156 0.35543,43.49228 -5.70249,43.43253 -0.94541,-0.009 -3.1777,-0.67921 -4.96062,-1.48865 z"
     id="path50"
     transform="scale(0.75)" />
  <path
     style="fill:#501616;stroke-width:0.77188"
     d="m 491.26394,151.97228 c -3.58767,-2.83336 -8.86763,-6.71551 -11.73324,-8.62702 -2.8656,-1.9115 -5.21019,-3.86823 -5.21019,-4.34829 0,-1.21669 1.50583,-3.29918 10.36787,-14.33828 8.97296,-11.17727 13.78903,-16.20949 15.51321,-16.20949 0.70657,0 1.87299,1.47271 2.76681,3.49334 2.02605,4.58022 5.12247,18.39388 5.68173,25.34715 0.24366,3.0295 0.62581,7.81857 0.8492,10.64238 l 0.40618,5.1342 -5.24944,1.7327 c -2.8872,0.95299 -5.61386,1.86594 -6.05926,2.02879 -0.4454,0.16284 -3.74519,-2.02212 -7.33287,-4.85548 z"
     id="path51"
     transform="scale(0.75)" />
  <path
     style="fill:#501616;stroke-width:0.77188"
     d="m 357.09148,158.99078 c -2.2817,-1.06217 -6.39261,-3.57704 -9.13535,-5.5886 -4.8412,-3.55061 -4.97376,-3.73925 -4.54042,-6.46162 0.2455,-1.54234 2.05217,-7.79457 4.01481,-13.89385 10.45881,-32.50279 35.3519,-78.620595 45.18065,-83.70324 2.12843,-1.100654 2.32406,-1.055039 4.26907,0.995442 5.19369,5.475344 33.99004,69.080028 39.98111,88.309348 2.94519,9.45306 2.68307,10.5063 -3.41752,13.73179 -6.46406,3.41766 -18.13068,7.57287 -23.12118,8.23488 -2.16019,0.28656 -3.92762,0.32531 -3.92762,0.0861 0,-0.2392 0.49072,-2.80222 1.09049,-5.69557 1.13117,-5.4569 1.58131,-10.36129 1.35614,-14.77557 -0.17024,-3.33751 -3.78519,-7.08348 -6.82556,-7.07298 -6.01258,0.0208 -15.68573,7.17789 -24.70847,18.28166 -3.25512,4.00589 -6.88217,7.78183 -8.06012,8.39097 -3.16452,1.63644 -7.4783,1.33879 -12.15603,-0.83876 z"
     id="path52"
     transform="scale(0.75)" />
  <path
     style="fill:#501616;stroke-width:0.77188"
     d="m 269.52013,145.30649 c 0.1154,-1.37974 0.58658,-7.19779 1.04708,-12.929 1.41238,-17.57795 5.01622,-32.04562 8.22274,-33.010271 3.09722,-0.93177 32.29927,32.793401 30.67329,35.424291 -1.99381,3.22605 -29.83757,13.02359 -37.01192,13.02359 -3.07216,0 -3.13641,-0.055 -2.93119,-2.50861 z"
     id="path53"
     transform="scale(0.75)" />
  <path
     style="fill:#501616;stroke-width:0.77188"
     d="m 176.12464,230.54977 c -7.68507,-23.52685 -10.31868,-38.89285 -11.07647,-64.62661 -0.56433,-19.16381 -0.0773,-21.96746 3.81563,-21.96746 6.88129,0 37.52604,23.15823 59.24185,44.76906 7.4277,7.39179 15.42262,16.82001 15.42262,18.18753 0,0.30334 -1.9171,3.43276 -4.26022,6.95425 -11.54255,17.34738 -33.7674,29.66173 -53.53327,29.66173 h -5.3707 z"
     id="path54"
     transform="scale(0.75)" />
  <path
     style="fill:#501616;stroke-width:0.77188"
     d="M 93.413007,284.20809 C 88.370136,272.1388 83.355834,219.71492 86.476538,211.6882 c 0.886005,-2.27888 3.669441,-1.53285 10.845517,2.90687 10.739025,6.64406 24.217865,14.60591 28.872955,17.05505 2.33085,1.2263 4.34399,2.78783 4.47365,3.47006 0.12966,0.68223 -1.87126,3.98202 -4.44649,7.33286 -10.37809,13.5038 -16.46858,23.08743 -18.93862,29.80068 -1.32347,3.59705 -8.398051,12.23674 -11.285284,13.78194 -1.277841,0.68388 -1.644085,0.42497 -2.585259,-1.82757 z"
     id="path55"
     transform="scale(0.75)" />
  <path
     style="fill:#501616;stroke-width:0.77188"
     d="M 93.413007,284.20809 C 88.370136,272.1388 83.355834,219.71492 86.476538,211.6882 c 0.886005,-2.27888 3.669441,-1.53285 10.845517,2.90687 10.739025,6.64406 24.217865,14.60591 28.872955,17.05505 2.33085,1.2263 4.34399,2.78783 4.47365,3.47006 0.12966,0.68223 -1.87126,3.98202 -4.44649,7.33286 -10.37809,13.5038 -16.46858,23.08743 -18.93862,29.80068 -1.32347,3.59705 -8.398051,12.23674 -11.285284,13.78194 -1.277841,0.68388 -1.644085,0.42497 -2.585259,-1.82757 z"
     id="path56"
     transform="scale(0.75)" />
  <path
     style="fill:#501616;stroke-width:0.77188"
     d="M 93.413007,284.20809 C 88.370136,272.1388 83.355834,219.71492 86.476538,211.6882 c 0.886005,-2.27888 3.669441,-1.53285 10.845517,2.90687 10.739025,6.64406 24.217865,14.60591 28.872955,17.05505 2.33085,1.2263 4.34399,2.78783 4.47365,3.47006 0.12966,0.68223 -1.87126,3.98202 -4.44649,7.33286 -10.37809,13.5038 -16.46858,23.08743 -18.93862,29.80068 -1.32347,3.59705 -8.398051,12.23674 -11.285284,13.78194 -1.277841,0.68388 -1.644085,0.42497 -2.585259,-1.82757 z"
     id="path57"
     transform="scale(0.75)" />
  <path
     style="fill:#501616;stroke-width:0.77188"
     d="M 93.413007,284.20809 C 88.370136,272.1388 83.355834,219.71492 86.476538,211.6882 c 0.886005,-2.27888 3.669441,-1.53285 10.845517,2.90687 10.739025,6.64406 24.217865,14.60591 28.872955,17.05505 2.33085,1.2263 4.34399,2.78783 4.47365,3.47006 0.12966,0.68223 -1.87126,3.98202 -4.44649,7.33286 -10.37809,13.5038 -16.46858,23.08743 -18.93862,29.80068 -1.32347,3.59705 -8.398051,12.23674 -11.285284,13.78194 -1.277841,0.68388 -1.644085,0.42497 -2.585259,-1.82757 z"
     id="path58"
     transform="scale(0.75)" />
  <path
     style="fill:#501616;stroke-width:0.77188"
     d="M 93.413007,284.20809 C 88.370136,272.1388 83.355834,219.71492 86.476538,211.6882 c 0.886005,-2.27888 3.669441,-1.53285 10.845517,2.90687 10.739025,6.64406 24.217865,14.60591 28.872955,17.05505 2.33085,1.2263 4.34399,2.78783 4.47365,3.47006 0.12966,0.68223 -1.87126,3.98202 -4.44649,7.33286 -10.37809,13.5038 -16.46858,23.08743 -18.93862,29.80068 -1.32347,3.59705 -8.398051,12.23674 -11.285284,13.78194 -1.277841,0.68388 -1.644085,0.42497 -2.585259,-1.82757 z"
     id="path59"
     transform="scale(0.75)" />
  <path
     style="fill:#501616;stroke-width:0.77188"
     d="M 93.413007,284.20809 C 88.370136,272.1388 83.355834,219.71492 86.476538,211.6882 c 0.886005,-2.27888 3.669441,-1.53285 10.845517,2.90687 10.739025,6.64406 24.217865,14.60591 28.872955,17.05505 2.33085,1.2263 4.34399,2.78783 4.47365,3.47006 0.12966,0.68223 -1.87126,3.98202 -4.44649,7.33286 -10.37809,13.5038 -16.46858,23.08743 -18.93862,29.80068 -1.32347,3.59705 -8.398051,12.23674 -11.285284,13.78194 -1.277841,0.68388 -1.644085,0.42497 -2.585259,-1.82757 z"
     id="path60"
     transform="scale(0.75)" />
</svg>
