<?xml version="1.0" encoding="UTF-8" standalone="no"?>
<svg
   version="1.0"
   width="1018"
   height="722"
   viewBox="120 291 1018 722"
   preserveAspectRatio="xMidYMid meet"
   id="svg12"
   sodipodi:docname="frog9.svg"
   inkscape:version="1.4.3 (0d15f75, 2025-12-25)"
   xmlns:inkscape="http://www.inkscape.org/namespaces/inkscape"
   xmlns:sodipodi="http://sodipodi.sourceforge.net/DTD/sodipodi-0.dtd"
   xmlns="http://www.w3.org/2000/svg"
   xmlns:svg="http://www.w3.org/2000/svg">
  <defs
     id="defs12" />
  <sodipodi:namedview
     id="namedview12"
     pagecolor="#505050"
     bordercolor="#ffffff"
     borderopacity="1"
     inkscape:showpageshadow="0"
     inkscape:pageopacity="0"
     inkscape:pagecheckerboard="1"
     inkscape:deskcolor="#505050"
     inkscape:zoom="0.25287994"
     inkscape:cx="933.24919"
     inkscape:cy="278.78842"
     inkscape:window-width="1728"
     inkscape:window-height="1056"
     inkscape:window-x="0"
     inkscape:window-y="33"
     inkscape:window-maximized="1"
     inkscape:current-layer="svg12" />
  <metadata
     id="metadata1">
Created by potrace 1.16, written by Peter Selinger 2001-2019
</metadata>
  <g
     transform="translate(0.000000,1254.000000) scale(0.100000,-0.100000)"
     fill="#000000"
     stroke="none"
     id="g12">
    <path
       d="M6409 9307 c-61 -32 -135 -133 -214 -292 l-64 -131 -142 -22 -142 -22 -113 114 c-119 118 -234 206 -305 231 -88 31 -184 9 -228 -54 -61 -85 -117 -240 -155 -429 -13 -62 -25 -114 -27 -116 -12 -9 -243 -116 -252 -116 -5 0 -58 31 -117 69 -363 235 -522 228 -585 -24 -23 -94 -36 -238 -34 -387 l1 -138 -33 -27 c-19 -15 -63 -53 -99 -84 l-65 -57 -85 24 c-117 34 -278 58 -333 50 -60 -9 -107 -42 -132 -91 -29 -58 -28 -267 3 -422 l22 -112 -72 -92 c-117 -149 -106 -140 -158 -129 -88 18 -252 23 -315 10 -109 -23 -153 -97 -141 -240 7 -80 42 -239 75 -333 l20 -58 -59 -120 -60 -119 -93 6 c-381 27 -724 -268 -897 -771 -151 -442 -139 -932 35 -1365 l46 -114 -16 -97 c-37 -238 -1 -442 109 -607 82 -123 188 -198 301 -209 43 -5 63 -1 108 20 64 29 99 74 120 155 l13 52 48 -65 c162 -220 410 -308 543 -192 46 40 72 99 73 159 l0 47 64 -30 c160 -75 296 -60 363 40 27 39 31 126 9 176 -12 27 -11 33 11 58 12 16 23 42 23 58 0 16 4 29 9 29 4 0 69 -29 144 -65 154 -75 379 -152 547 -189 120 -26 309 -56 354 -56 14 0 26 -4 26 -9 0 -5 21 -37 46 -70 85 -114 217 -188 420 -237 89 -21 120 -34 178 -74 195 -132 366 -171 485 -111 44 23 88 71 97 107 3 13 10 24 14 24 4 0 39 -12 76 -26 83 -31 192 -41 262 -25 103 25 171 120 158 220 l-6 49 78 3 c65 3 85 9 120 31 23 16 50 44 60 65 l19 36 144 -2 c79 -1 146 -4 150 -6 14 -9 465 16 615 35 266 33 573 100 749 164 l70 25 60 -24 c101 -40 208 -57 356 -58 l136 -1 -5 -42 c-14 -128 103 -217 262 -200 33 3 72 9 86 12 24 5 25 4 22 -43 -4 -69 29 -129 92 -168 42 -26 61 -30 132 -34 104 -4 166 14 277 81 44 26 81 48 82 48 1 0 5 -18 9 -40 21 -129 195 -179 359 -102 35 16 98 59 138 94 41 35 94 72 119 82 71 28 135 73 192 134 59 65 90 127 116 232 13 52 34 98 69 152 366 560 412 1272 121 1863 -100 202 -224 368 -401 536 l-102 97 28 48 c178 310 229 654 141 962 -35 126 -121 292 -201 391 -37 46 -74 91 -80 100 -7 9 -27 63 -44 120 l-31 103 17 125 c21 151 16 258 -20 401 -110 435 -479 673 -894 576 -89 -20 -232 -90 -313 -152 -37 -29 -70 -52 -72 -52 -3 0 -67 30 -143 66 -380 183 -700 266 -1138 295 -168 11 -458 1 -629 -21 -118 -16 -115 -17 -176 61 -118 151 -264 259 -350 259 -20 0 -57 -10 -81 -23z m165 -97 c67 -43 138 -111 218 -212 49 -62 77 -88 92 -88 11 0 80 7 151 15 478 56 937 15 1360 -122 110 -36 408 -159 450 -187 l24 -15 -30 -53 c-57 -104 -29 -118 57 -27 137 143 279 231 436 271 68 17 101 20 188 15 144 -7 258 -49 367 -136 109 -86 205 -250 244 -417 19 -81 21 -114 16 -242 -3 -90 -10 -165 -20 -194 -14 -44 -14 -50 4 -85 10 -20 19 -43 19 -50 0 -8 12 -51 27 -96 21 -65 37 -93 77 -137 72 -79 162 -222 197 -315 55 -140 72 -248 66 -420 -4 -118 -10 -171 -30 -248 -61 -229 -180 -435 -373 -643 -89 -96 -94 -104 -66 -104 30 0 128 77 218 173 l81 86 73 -67 c528 -482 716 -1210 489 -1897 -38 -114 -141 -325 -212 -435 -41 -63 -58 -101 -66 -145 -27 -148 -108 -250 -251 -318 -52 -24 -107 -60 -141 -92 -72 -66 -136 -103 -202 -117 -184 -39 -241 108 -113 292 25 35 43 68 40 72 -3 4 -16 8 -28 8 -28 0 -105 -79 -125 -128 -8 -18 -32 -45 -55 -60 -22 -16 -62 -43 -88 -60 -25 -18 -77 -44 -115 -58 -56 -22 -80 -25 -135 -21 -79 5 -114 24 -135 74 -26 64 1 141 81 230 25 28 68 65 96 83 87 56 58 88 -40 44 -45 -20 -78 -46 -125 -96 -52 -56 -73 -71 -117 -85 -76 -23 -185 -22 -225 1 -151 90 37 317 317 382 43 10 102 33 140 55 36 21 72 42 80 47 8 5 14 21 12 37 -3 44 42 230 83 340 103 276 242 470 438 609 37 26 67 52 67 57 0 32 -142 -31 -240 -106 -32 -24 -79 -71 -106 -105 -27 -33 -52 -60 -55 -60 -4 0 -10 12 -13 26 -6 21 4 44 44 109 147 240 280 592 280 741 0 62 -25 39 -55 -48 -200 -597 -532 -1059 -1015 -1415 -490 -361 -1112 -550 -1912 -579 -95 -4 -240 -3 -321 1 -125 6 -149 10 -153 24 -47 161 -220 277 -464 311 -41 6 -102 22 -136 37 l-61 26 -12 66 c-36 201 -144 449 -264 609 l-40 52 51 103 c102 206 137 361 129 567 -7 192 -52 344 -145 490 -78 124 -257 272 -390 323 -75 29 -112 16 -54 -20 215 -134 330 -251 419 -428 127 -252 119 -575 -23 -874 l-44 -95 -33 31 c-109 103 -287 196 -287 150 0 -7 39 -41 86 -77 156 -118 288 -279 383 -468 66 -130 124 -311 139 -430 4 -33 13 -58 22 -62 73 -36 179 -71 245 -80 226 -33 405 -157 405 -281 0 -78 -66 -116 -182 -106 -67 6 -71 8 -128 61 -92 85 -248 152 -270 115 -12 -19 -7 -24 70 -64 129 -68 240 -194 240 -273 0 -95 -118 -144 -259 -107 -93 24 -177 69 -185 98 -15 63 -156 177 -219 177 -41 0 -32 -19 33 -71 164 -132 167 -288 7 -312 -89 -14 -197 24 -343 121 -81 53 -104 63 -215 91 -225 56 -349 141 -419 286 -23 47 -60 98 -114 155 -356 379 -552 899 -506 1345 25 247 115 480 259 674 38 50 44 71 20 71 -22 0 -123 -108 -175 -187 -97 -145 -160 -322 -185 -519 -16 -128 -6 -349 21 -479 48 -227 162 -500 292 -695 60 -91 238 -305 260 -313 7 -2 10 -7 7 -11 -10 -11 -205 22 -377 65 -191 47 -346 104 -531 197 -108 53 -150 81 -213 139 -94 86 -205 162 -310 211 -43 21 -78 40 -78 44 0 4 8 9 18 13 11 3 43 23 73 46 166 123 289 354 334 628 25 145 16 390 -19 546 -64 289 -181 523 -354 706 -91 97 -175 161 -269 207 -40 19 -73 37 -73 41 0 4 45 94 101 200 56 107 99 198 95 206 -10 26 -35 16 -64 -25 -15 -21 -30 -39 -33 -40 -9 0 -57 200 -69 286 -11 85 -4 137 22 161 18 16 40 18 178 18 87 0 162 -3 165 -7 4 -4 -2 -19 -12 -35 -70 -102 -97 -180 -66 -190 6 -2 70 74 140 169 71 95 175 231 231 302 57 71 101 134 99 140 -6 17 -43 18 -57 1 -21 -25 -28 -18 -39 38 -39 203 -37 352 6 395 24 24 28 24 121 19 75 -4 254 -38 269 -51 2 -1 -20 -27 -48 -57 -94 -99 -137 -179 -98 -179 6 0 74 59 152 132 78 72 192 173 252 223 148 124 175 150 175 170 0 13 -6 16 -27 13 -16 -3 -37 -9 -47 -13 -19 -8 -19 -3 -13 151 8 177 26 302 55 367 37 84 98 84 268 2 76 -37 205 -116 237 -144 4 -4 -30 -30 -75 -58 -85 -52 -178 -127 -178 -144 0 -28 44 -13 182 63 171 94 310 164 472 235 111 49 144 75 117 92 -8 5 -29 7 -48 4 -18 -3 -33 -2 -33 3 0 5 16 71 35 146 60 241 123 358 194 358 73 0 191 -78 324 -213 l88 -90 -109 -36 c-118 -40 -162 -63 -162 -86 0 -21 10 -20 183 19 148 33 340 68 462 83 68 9 51 -12 150 191 53 109 113 201 151 231 39 30 90 27 148 -9z m-3965 -3117 c266 -74 516 -359 640 -730 54 -163 75 -298 75 -478 1 -237 -43 -415 -141 -577 -106 -176 -245 -277 -396 -286 -55 -3 -80 -9 -84 -19 -9 -22 27 -53 62 -53 49 0 131 -28 237 -81 117 -58 186 -104 291 -194 85 -73 115 -121 97 -155 -15 -27 -21 -26 -61 16 -63 65 -196 127 -218 100 -14 -16 -4 -28 59 -68 146 -93 227 -240 175 -315 -23 -33 -85 -47 -152 -33 -123 26 -221 86 -269 166 -41 68 -85 116 -132 146 -30 18 -35 19 -48 6 -13 -13 -8 -23 39 -84 163 -209 170 -390 15 -419 -48 -9 -137 17 -202 59 -65 42 -148 130 -213 226 -53 77 -145 180 -162 180 -26 0 -28 -35 -6 -89 31 -77 39 -131 25 -182 -40 -151 -211 -149 -344 3 -130 149 -173 342 -137 623 l14 110 -46 115 c-94 238 -127 397 -134 650 -6 205 11 362 57 538 160 600 553 939 959 825z m7019 -1688 c10 -21 4 -37 -43 -130 -29 -57 -69 -153 -89 -212 -26 -76 -48 -123 -76 -158 -61 -78 -73 -95 -67 -101 3 -3 24 13 48 37 l42 42 -7 -34 c-4 -19 -9 -52 -13 -75 -5 -36 -11 -44 -58 -72 -29 -18 -61 -32 -70 -32 -39 0 -145 -34 -220 -70 -50 -24 -105 -61 -147 -99 l-66 -61 -109 -7 c-108 -6 -255 7 -321 28 -34 11 -34 11 140 98 373 184 722 467 962 778 39 51 74 93 77 93 3 0 11 -11 17 -25z"
       id="path1" />
    <path
       d="M6281 8629 c-194 -50 -368 -185 -453 -352 -42 -82 -11 -69 99 42 121 121 205 177 330 219 67 22 96 26 203 26 111 0 134 -3 205 -28 44 -15 100 -39 125 -53 78 -45 179 -132 242 -209 56 -68 88 -91 88 -63 0 6 -17 43 -37 83 -53 100 -172 217 -279 273 -154 81 -359 105 -523 62z"
       id="path2" />
    <path
       d="M9455 8450 c-308 -125 -417 -598 -214 -935 45 -75 129 -151 209 -189 58 -28 75 -31 160 -31 124 0 183 26 279 122 121 122 178 282 168 478 -11 242 -130 451 -306 538 -55 27 -76 32 -155 34 -73 3 -101 -1 -141 -17z m271 -88 c112 -57 210 -190 248 -338 20 -78 20 -229 1 -312 -33 -141 -130 -271 -240 -323 -252 -120 -527 141 -529 501 0 52 5 120 13 150 28 118 107 247 182 300 94 67 219 76 325 22z"
       id="path3" />
    <path
       d="M9510 8205 c-65 -21 -115 -67 -150 -138 -55 -113 -61 -219 -18 -334 44 -120 139 -193 247 -193 103 1 185 61 237 174 115 253 -86 565 -316 491z m170 -90 c54 -28 75 -98 45 -155 -41 -80 -149 -61 -176 30 -10 32 -9 44 7 76 18 37 53 64 82 64 7 0 26 -7 42 -15z"
       id="path4" />
    <path
       d="M6311 8274 c-446 -120 -591 -714 -256 -1049 261 -261 678 -202 868 123 60 103 79 172 85 302 5 134 -9 202 -65 320 -48 100 -162 217 -254 260 -129 59 -263 75 -378 44z m284 -84 c115 -40 222 -133 283 -247 120 -225 69 -518 -120 -688 -240 -216 -617 -132 -763 170 -44 92 -59 173 -53 288 20 348 343 584 653 477z"
       id="path5" />
    <path
       d="M6391 8029 c-70 -13 -127 -47 -180 -105 -159 -174 -114 -456 91 -569 48 -27 61 -30 148 -30 83 0 101 3 145 27 65 33 129 104 163 176 23 49 27 70 27 147 0 77 -4 99 -28 150 -69 149 -219 232 -366 204z m229 -114 c74 -38 79 -154 9 -191 -94 -48 -195 43 -155 139 26 63 85 84 146 52z"
       id="path6" />
    <path
       d="M4499 7947 c-118 -63 -144 -219 -47 -290 33 -25 114 -33 163 -17 113 37 171 183 108 269 -46 62 -146 79 -224 38z m174 -67 c33 -37 35 -76 5 -120 -50 -73 -126 -98 -186 -61 -42 27 -55 62 -42 110 27 102 158 144 223 71z"
       id="path7" />
    <path
       d="M3906 7400 c-70 -21 -135 -125 -122 -194 8 -43 45 -89 86 -106 74 -31 182 16 220 94 63 131 -42 248 -184 206z m132 -75 c71 -83 -57 -222 -157 -171 -35 19 -52 65 -40 110 25 87 142 123 197 61z"
       id="path8" />
    <path
       d="M8754 7275 c-51 -55 -69 -138 -36 -168 27 -24 47 -21 87 14 45 39 65 78 65 122 0 71 -63 88 -116 32z"
       id="path9" />
    <path
       d="M7801 7251 c-44 -44 -14 -120 66 -171 56 -36 86 -38 107 -8 22 31 20 54 -9 104 -46 78 -125 114 -164 75z"
       id="path10" />
    <path
       d="M5590 6945 c-38 -45 102 -216 271 -332 187 -128 442 -225 721 -275 104 -19 160 -22 363 -23 274 0 348 8 760 85 369 69 448 80 645 87 184 6 321 -3 560 -38 74 -11 190 -24 257 -30 238 -19 469 23 661 120 154 78 291 228 252 276 -21 25 -38 17 -80 -39 -92 -125 -286 -222 -520 -261 -133 -23 -331 -16 -570 19 -451 66 -656 58 -1205 -48 -601 -116 -944 -120 -1325 -16 -179 49 -378 143 -510 240 -92 68 -140 116 -202 198 -40 54 -57 62 -78 37z"
       id="path11" />
    <path
       d="M3538 6710 c-44 -24 -72 -61 -87 -118 -40 -145 123 -239 243 -140 88 72 89 206 3 258 -41 25 -111 25 -159 0z m143 -59 c34 -35 37 -71 11 -120 -20 -37 -73 -71 -110 -71 -13 0 -37 14 -54 30 -28 28 -30 36 -25 78 4 37 12 53 41 79 48 44 95 45 137 4z"
       id="path12" />
  </g>
  <path
     style="fill:#ffffff;stroke-width:2.11302"
     d="m 422.54703,680.76054 c -3.51803,-1.36429 -11.60034,-5.46588 -17.96069,-9.11462 -6.36034,-3.64877 -17.26943,-8.24018 -24.2424,-10.20309 -19.50038,-5.48948 -29.8826,-12.52808 -38.52594,-26.1186 -4.19146,-6.59053 -11.98249,-16.90502 -17.31339,-22.92107 -29.64821,-33.45877 -49.67615,-87.89222 -45.6892,-124.17756 2.85772,-26.0083 8.66659,-41.95813 25.58083,-70.23911 5.46329,-9.13476 2.33699,-11.25019 -5.51241,-3.72999 -10.08706,9.66401 -18.91421,24.94211 -24.669,42.69729 -7.01052,21.62946 -7.35942,56.52035 -0.81407,81.40991 7.85665,29.87598 25.43935,62.22594 45.32539,83.39299 l 6.45172,6.86732 -5.16881,-0.0148 c -7.72825,-0.0221 -36.85589,-7.37084 -54.82481,-13.83193 -22.12401,-7.95512 -38.87763,-16.71242 -48.35757,-25.27696 -7.32981,-6.62204 -28.90638,-20.74501 -34.82836,-22.79693 -1.3153,-0.45576 2.43636,-5.19231 8.33702,-10.52568 12.18478,-11.01332 22.49642,-28.81538 27.24,-47.02722 4.31252,-16.5569 4.24858,-54.62168 -0.12209,-72.67646 -8.22977,-33.99641 -31.97147,-69.75003 -55.51299,-83.59937 -5.92643,-3.48648 -10.7942,-7.30159 -10.81726,-8.47801 -0.0231,-1.1764 3.73649,-9.25871 8.35456,-17.96069 10.57817,-19.93272 11.42713,-28.42663 1.98736,-19.88374 -3.45235,3.12433 -3.90762,2.32635 -7.25378,-12.71397 -1.96363,-8.82614 -2.97765,-18.40854 -2.25338,-21.29423 1.25543,-5.00205 2.05403,-5.24674 17.12425,-5.24674 8.69407,0 15.8074,0.52265 15.8074,1.16144 0,0.63879 -1.48399,4.03116 -3.29775,7.53859 -1.81376,3.50744 -3.00234,8.45223 -2.64128,10.98843 0.51555,3.62132 5.75621,-1.96638 24.411,-26.02753 23.8361,-30.74402 27.52845,-37.39228 19.61832,-35.32374 -4.34897,1.13728 -4.13758,1.71042 -7.42939,-20.14308 -1.29071,-8.56869 1.29938,-18.58557 5.48908,-21.22836 2.04495,-1.28993 8.59198,-1.09349 18.33676,0.55018 l 15.1562,2.55643 -7.35219,9.62886 c -6.95175,9.10444 -9.64942,16.5557 -5.43353,15.00804 1.05526,-0.38739 14.86253,-12.05525 30.68283,-25.92859 26.8565,-23.55134 32.62455,-30.7091 23.38628,-29.02079 -3.50614,0.64076 -3.70648,-0.91203 -2.63243,-20.40362 1.92995,-35.02443 7.57851,-39.986694 31.61386,-27.77281 22.61502,11.49212 22.43272,11.20794 11.86563,18.49676 -5.02942,3.46913 -10.95578,8.31991 -13.16969,10.77951 -7.56263,8.40189 1.87363,5.12018 40.04861,-13.92802 33.77133,-16.85091 43.42486,-23.86043 32.86059,-23.86043 -3.92071,0 -3.92667,-0.34474 -0.2535,-14.62484 4.34216,-16.880773 10.22046,-29.639935 14.98374,-32.523019 4.78644,-2.897089 15.42354,2.746713 30.327,16.090811 l 12.5161,11.206536 -13.04436,4.756211 c -8.35072,3.044827 -13.04436,5.938253 -13.04436,8.041302 0,2.349057 1.35466,2.947574 4.7543,2.10055 6.21607,-1.548741 62.6422,-11.951727 64.82658,-11.951727 0.92555,0 5.37885,-7.28425 9.89617,-16.18722 10.55461,-20.80146 17.45622,-28.391077 24.273,-26.692692 2.78881,0.694828 11.90234,8.311395 20.25226,16.925704 l 15.18168,15.66238 25.97857,-2.505564 c 54.36955,-5.2438 108.40688,3.533841 157.84643,25.640043 l 14.92502,6.673515 -3.0948,5.98465 c -6.23599,12.05909 -1.70728,11.32586 12.98539,-2.10242 6.26458,-5.72547 16.85737,-13.094633 23.5395,-16.375915 10.47455,-5.143542 14.62531,-5.959582 30.11006,-5.919625 20.55359,0.05303 30.36799,3.953597 43.20441,17.17083 16.31141,16.79532 23.04774,39.56869 20.11438,68.00019 -1.62899,15.78894 -1.31747,19.05779 2.92332,30.67458 2.61062,7.15131 8.32053,17.66224 12.68868,23.35762 34.11943,44.48646 29.52978,99.82071 -12.4072,149.58495 -7.53394,8.94007 -13.69805,16.78467 -13.69805,17.43243 0,4.12543 8.05436,-0.57146 19.76424,-11.5255 l 13.5798,-12.70321 15.11347,16.18336 c 40.61934,43.4948 56.40623,99.11246 44.60218,157.13462 -3.18471,15.65426 -7.31905,26.58659 -18.77862,49.65601 -8.08214,16.27027 -15.27884,32.17974 -15.99266,35.35437 -1.6464,7.32202 -12.57035,19.85161 -21.09592,24.19666 -3.60452,1.83701 -12.11533,7.4936 -18.9129,12.57017 -12.87661,9.61651 -24.96324,12.26639 -30.53511,6.69452 -4.12819,-4.12819 -2.91388,-14.02708 2.94771,-24.02914 5.24048,-8.94222 5.29599,-9.35661 1.25327,-9.35661 -2.47952,0 -7.83658,4.30761 -12.945,10.40905 -14.5897,17.42579 -37.09391,25.81798 -48.26001,17.99694 -8.74692,-6.12658 -4.23327,-18.51233 11.60478,-31.84427 4.39931,-3.70318 7.3299,-7.4113 6.5124,-8.24022 -2.75657,-2.79512 -12.30269,1.17355 -20.38369,8.47423 -9.06516,8.18984 -16.74101,11.65636 -25.8105,11.65636 -7.78822,0 -14.74657,-6.58367 -13.20178,-12.49089 1.75151,-6.6978 15.76445,-18.18885 27.2777,-22.36858 25.1453,-9.12864 32.54812,-13.3181 32.54812,-18.41991 0,-9.51904 8.82216,-36.58904 17.04917,-52.31388 8.65346,-16.53995 17.55915,-27.29893 33.6826,-40.69215 8.31563,-6.90751 8.88833,-7.88759 4.63012,-7.92383 -7.07771,-0.0602 -16.59531,5.44348 -28.22477,16.32151 -5.62812,5.26442 -10.23295,9.10287 -10.23295,8.52984 0,-0.57301 4.69106,-9.97401 10.42456,-20.89111 5.73349,-10.91709 12.86494,-27.14835 15.84766,-36.06949 5.32725,-15.93347 7.12811,-31.32276 3.66542,-31.32276 -0.96673,0 -5.3062,9.37 -9.64324,20.82224 -25.17271,66.46986 -74.25766,121.38804 -136.14824,152.32796 -41.9057,20.94922 -106.43927,33.92594 -168.71459,33.92594 -25.97056,0 -23.98987,0.79209 -35.89734,-14.35555 -6.81059,-8.66386 -17.71788,-14.33071 -35.53717,-18.46329 -21.10813,-4.8953 -23.67615,-6.54861 -25.22599,-16.24083 -2.05069,-12.82425 -12.95361,-39.44049 -21.09882,-51.50648 l -7.26541,-10.76272 7.61205,-18.81958 c 15.70075,-38.81757 10.72202,-81.11741 -12.6955,-107.86259 -8.6849,-9.91903 -30.26697,-24.00367 -36.78116,-24.00367 -7.25552,0 -6.09977,2.44153 4.25119,8.98062 13.56767,8.57122 30.38196,27.3611 36.86642,41.19807 5.17502,11.04278 5.68859,14.37981 5.61031,36.45521 -0.0772,21.75821 -0.72211,25.87494 -6.16625,39.36029 l -6.08007,15.06054 -9.77828,-7.02499 c -10.41274,-7.48082 -21.05411,-12.33088 -22.9328,-10.45221 -0.62727,0.62727 6.03705,8.02306 14.80962,16.43504 8.77255,8.412 19.51752,20.89738 23.8777,27.74533 8.55343,13.43368 18.70048,39.1851 21.06691,53.4641 1.4372,8.67199 1.75037,8.95383 14.50934,13.0586 7.17223,2.30742 16.36844,4.85178 20.43601,5.65409 22.25445,4.38968 38.75683,22.62539 29.1597,32.22253 -4.67362,4.67362 -18.46318,3.02348 -25.68513,-3.07365 -6.95928,-5.87536 -21.56305,-13.28216 -26.34448,-13.36152 -5.54715,-0.0921 -1.21835,6.10372 9.07902,12.99475 9.50858,6.36315 20.12995,18.60057 20.12995,23.19269 0,4.80303 -8.91202,10.25264 -16.76661,10.25264 -12.35461,0 -19.16249,-3.38441 -29.71987,-14.77467 -8.78985,-9.48329 -19.46425,-15.06492 -22.67331,-11.85585 -0.74047,0.74044 2.63183,5.16881 7.49398,9.84081 4.86214,4.67197 8.84027,9.33231 8.84027,10.35628 0,1.02397 0.54894,3.29229 1.21989,5.04071 1.77259,4.6193 -6.57511,11.98504 -13.36977,11.79707 -3.19594,-0.0884 -8.68919,-1.27698 -12.20722,-2.64128 z M 655.03235,323.42019 c 47.96699,-8.54023 79.13617,-9.70093 116.22064,-4.32796 39.36595,5.70351 67.17611,3.04343 90.6539,-8.67119 18.49149,-9.22663 33.30012,-26.71223 25.24161,-29.80457 -1.93342,-0.74193 -6.5909,2.0962 -11.98585,7.30385 -22.46385,21.68387 -53.70862,27.88016 -103.90966,20.6068 -33.05901,-4.78975 -70.90746,-4.00293 -105.6511,2.19634 -73.11692,13.0462 -108.66999,14.37723 -142.62897,5.33977 -26.28919,-6.99632 -53.4359,-21.76511 -68.62895,-37.33669 -7.2296,-7.40969 -13.76283,-12.85404 -14.51832,-12.09855 -6.73299,6.73302 11.67844,28.57156 35.15762,41.70188 46.61278,26.06734 95.41995,30.15798 180.04908,15.09032 z m -403.36092,-6.49664 c 7.22029,-7.2203 6.42338,-18.88219 -1.70315,-24.9237 -15.55969,-11.56757 -35.38989,13.13661 -21.60781,26.91869 5.21529,5.2153 17.11945,4.19653 23.31096,-1.99499 z m 427.27331,-64.90529 c 1.28567,-11.16114 -15.68885,-21.73658 -20.41439,-12.71853 -2.5317,4.8314 0.24777,11.88169 6.39155,16.21254 7.12344,5.02143 13.2168,3.50316 14.02284,-3.49401 z m -133.84483,1.7055 c 3.96006,-1.65462 11.33615,-6.82087 16.3913,-11.48055 25.99106,-23.95771 27.48256,-63.72756 3.37908,-90.1006 -12.1395,-13.28256 -23.19633,-18.25936 -40.79182,-18.36087 -15.73527,-0.0908 -25.49784,3.8109 -37.71649,15.07366 -13.28222,12.24312 -19.25286,26.69432 -19.25286,46.59912 0,12.03425 1.18583,18.50539 4.92799,26.89254 5.31158,11.90456 19.56816,26.55134 30.4505,31.28392 8.8502,3.84883 33.4944,3.90248 42.6123,0.0928 z m -262.89445,-1.28028 c 5.96686,-3.19336 10.77738,-13.73723 9.17687,-20.11417 -3.38848,-13.50078 -22.82177,-15.04408 -30.51701,-2.42353 -5.2366,8.58828 -5.1897,12.23516 0.24625,19.14584 4.69342,5.96673 13.60515,7.39972 21.09389,3.39186 z m 481.5991,-3.51966 c 5.68105,-7.22227 5.00334,-16.23742 -1.2881,-17.13468 -7.85968,-1.12092 -17.47627,15.98656 -12.04152,21.42131 3.06008,3.0601 9.07129,1.12698 13.32962,-4.28663 z m 95.03168,-18.54903 c 8.76663,-4.5334 20.51098,-19.16317 24.29221,-30.26048 7.02819,-20.62658 2.6641,-49.57268 -10.0067,-66.37243 -16.5296,-21.91596 -46.84939,-24.55503 -64.12417,-5.58144 -11.14355,12.23942 -14.50135,22.71868 -14.50135,45.25676 0,19.50708 0.53197,22.32322 6.38658,33.80835 8.97314,17.60278 21.96138,26.26337 39.38711,26.26337 6.9185,0 15.24501,-1.39661 18.56632,-3.11413 z M 350.5738,193.17938 c 10.67939,-12.69173 4.71227,-27.30716 -11.14883,-27.30716 -15.86782,0 -26.42397,16.34064 -18.43384,28.53512 2.90386,4.43185 5.10314,5.27323 13.78371,5.27323 8.93942,0 11.06432,-0.87439 15.79896,-6.50119 z m 238.17928,-60.57355 c -2.30807,-4.5242 -8.02595,-11.68549 -12.70638,-15.91399 -31.00266,-28.00903 -76.98544,-25.730865 -104.78738,5.19157 -8.99587,10.00558 -13.22506,18.63255 -9.13423,18.63255 1.18095,0 7.51025,-4.91009 14.06508,-10.91131 16.77133,-15.35484 31.30778,-21.65723 49.95228,-21.65723 20.00753,0 34.75705,6.88226 52.15815,24.33747 13.82962,13.87262 17.42231,13.98293 10.45248,0.32094 z"
     id="path13"
     transform="translate(120,291)" />
  <path
     style="fill:#ffffff;stroke-width:0.3222"
     d="m 333.29344,194.43567 c -3.0947,-0.50514 -6.59788,-2.9875 -7.80452,-5.53032 -1.88578,-3.97398 -0.1525,-9.85091 4.03653,-13.68644 5.04881,-4.62274 12.83479,-4.87317 17.11166,-0.55039 2.2145,2.23828 2.95067,3.84248 2.94047,6.40765 -0.0113,2.84255 -1.07308,5.11442 -3.76144,8.0483 -3.78259,4.12803 -8.22589,6.01255 -12.5227,5.3112 z"
     id="path14"
     transform="translate(120,291)" />
  <path
     style="fill:#ffffff;stroke-width:0.3222"
     d="m 269.57561,247.96315 c -4.70387,-1.62455 -6.8534,-7.12068 -4.86341,-12.43525 0.92948,-2.48232 3.82223,-5.45517 6.57985,-6.76205 2.50306,-1.18623 6.06996,-1.46839 8.47293,-0.67025 2.20039,0.73085 4.31303,2.65542 5.21405,4.7499 2.40286,5.5856 -2.4918,13.40966 -9.53694,15.24469 -2.41966,0.63024 -3.75767,0.60126 -5.86648,-0.12704 z"
     id="path15"
     transform="translate(120,291)" />
  <path
     style="fill:#ffffff;stroke-width:0.3222"
     d="m 236.03097,316.0273 c -2.29486,-1.14357 -5.0327,-3.91068 -5.53798,-5.59718 -0.49134,-1.63995 0.0276,-6.07899 0.95024,-8.12851 0.82179,-1.82547 3.89512,-4.79308 6.31381,-6.09664 3.7118,-2.00047 7.48718,-1.14665 10.6922,2.4181 1.65586,1.84172 2.5665,4.41839 2.25344,6.37615 -0.34293,2.14457 -1.47811,4.73378 -2.81935,6.43057 -2.00806,2.54039 -7.05587,5.4535 -9.44977,5.4535 -0.37666,0 -1.45783,-0.38519 -2.40259,-0.85599 z"
     id="path16"
     transform="translate(120,291)" />
  <path
     style="fill:#ffffff;stroke-width:0.3222"
     d="m 55.145816,603.23817 c -0.315788,-4.05661 -0.244208,-13.79803 0.133173,-18.12372 0.185521,-2.12652 0.749854,-7.1989 1.254075,-11.27197 l 0.916763,-7.40557 -2.834061,-7.09341 c -9.403168,-23.53532 -12.790044,-36.75442 -14.571529,-56.87325 -0.563731,-6.36637 -0.560537,-32.25608 0.0046,-37.69735 1.448262,-13.94297 4.070799,-26.26746 8.330168,-39.14725 14.693291,-44.43063 43.004744,-72.47372 74.540085,-73.83353 14.51926,-0.62607 28.40078,4.25602 41.88595,14.73118 5.73053,4.45143 13.439,12.40412 18.5615,19.1496 12.35009,16.26301 22.11834,38.34878 26.20153,59.24103 2.09718,10.73049 2.75346,19.35059 2.5044,32.89452 -0.0979,5.32374 -0.33742,11.12942 -0.53225,12.90152 -2.20537,20.05856 -8.75566,36.74936 -19.8522,50.58533 -2.55829,3.18987 -7.98681,8.5731 -10.80502,10.71488 -6.3237,4.80587 -13.65561,7.76047 -20.99577,8.46083 -7.76677,0.74106 -9.45783,1.16363 -9.77909,2.44365 -0.26135,1.04131 0.093,1.90782 1.25561,3.07044 1.41201,1.41201 2.84037,1.9395 6.08135,2.24581 5.64712,0.53374 12.59052,3.05828 23.46992,8.53342 7.03053,3.53817 11.92851,6.37308 16.21034,9.38243 4.08793,2.87307 11.65206,9.03705 15.11104,12.31391 2.9031,2.75026 6.05377,6.46905 6.05377,7.14537 0,0.15966 -2.04254,0.29028 -4.53897,0.29028 h -4.53897 l -2.46887,-1.63336 c -3.38394,-2.23876 -7.92908,-4.38545 -10.92428,-5.15959 -3.61788,-0.93509 -5.31863,-0.45916 -5.31863,1.48832 0,1.0491 0.69598,1.80636 3.43363,3.73604 l 2.22538,1.56859 H 125.75613 55.35274 Z"
     id="path17"
     transform="translate(120,291)" />
  <path
     style="fill:#ffffff;stroke-width:0.560198"
     d="m 154.55976,659.07275 c -4.00574,-0.58503 -6.57882,-1.48391 -11.50581,-4.01944 -8.02523,-4.12994 -14.36281,-10.51811 -26.20317,-26.4123 -5.89788,-7.91717 -13.37695,-16.0647 -14.74667,-16.0647 -2.694583,0 -2.746021,3.99784 -0.14824,11.52131 2.65774,7.6971 2.99487,11.37228 1.494,16.2867 -3.13546,10.26674 -11.951692,13.37719 -22.640525,7.98779 -11.624728,-5.86128 -22.635391,-23.20028 -24.776642,-39.01694 l -0.398156,-2.94104 h 70.575863 70.57587 l 3.28276,2.43827 c 4.10041,3.04557 9.62494,8.80641 11.9317,12.44207 2.51326,3.96111 4.11282,9.44072 3.65927,12.53559 -1.21251,8.27384 -13.31801,9.69005 -27.36247,3.20111 -7.78261,-3.59579 -12.02505,-7.33704 -17.2494,-15.2116 -5.37875,-8.10728 -13.54254,-14.93251 -16.01175,-13.38641 -2.10438,1.31765 -1.47915,3.09514 3.53068,10.0373 13.9951,19.3932 15.93904,34.32974 5.12612,39.38749 -2.99731,1.40199 -5.53794,1.73991 -9.13343,1.2148 z"
     id="path18"
     transform="translate(120,291)" />
  <path
     style="fill:#ffffff;stroke-width:0.356699"
     d="m 740.87931,619.36639 c -7.92943,-0.50495 -18.37491,-2.28574 -18.95997,-3.23239 -0.12303,-0.19907 -0.004,-0.58147 0.26438,-0.84978 0.26845,-0.2683 6.34686,-3.51269 13.50759,-7.20975 16.91799,-8.7347 24.11089,-12.92839 35.49153,-20.69268 14.90747,-10.17042 26.76605,-19.94437 39.89327,-32.8804 8.86266,-8.73357 13.98737,-14.46648 22.96941,-25.69539 3.68782,-4.61033 6.86305,-8.38242 7.05606,-8.38242 0.19301,0 0.74815,0.75206 1.23365,1.67125 0.82452,1.56107 0.85282,1.7845 0.42923,3.38864 -0.24942,0.94456 -2.03797,5.00793 -3.97457,9.02971 -4.12815,8.57306 -6.43442,14.02653 -9.35256,22.11533 -2.96906,8.22992 -5.0502,12.35136 -8.56219,16.95631 -6.03149,7.90856 -6.7147,9.0827 -5.28501,9.0827 0.48092,0 2.12616,-1.32941 4.48277,-3.62222 2.04766,-1.99222 3.72286,-3.47698 3.72267,-3.29946 -0.002,1.4029 -2.29121,12.62377 -2.70534,13.25785 -1.27544,1.95282 -9.93374,6.86514 -12.09731,6.86345 -1.76965,-10e-4 -8.03432,1.65208 -12.90183,3.40524 -9.0579,3.26244 -16.65013,7.58 -22.66707,12.89033 -1.51394,1.33614 -3.85197,3.40359 -5.19564,4.59432 l -2.44304,2.16497 -7.82386,0.42503 c -8.4911,0.46128 -10.11352,0.46312 -17.08217,0.0194 z"
     id="path19"
     transform="translate(120,291)" />
  <path
     style="fill:#ffffff;stroke-width:0.267963"
     d="m 836.15693,226.57675 c -4.87679,-0.89233 -10.43052,-3.37561 -14.62843,-6.54092 -12.98974,-9.79453 -20.72182,-27.2067 -20.72086,-46.66213 3.7e-4,-7.51408 0.56876,-12.33268 2.02478,-17.16529 2.37461,-7.88147 6.58797,-15.63325 11.95998,-22.00405 9.69079,-11.49257 26.41235,-14.09973 39.63501,-6.17973 10.39136,6.22412 19.26172,18.878 22.72689,32.42067 1.16781,4.56406 1.49478,8.04561 1.49086,15.87435 -0.005,9.48948 -0.59393,13.9306 -2.67414,20.15715 -2.68299,8.0308 -8.33185,16.7051 -14.20202,21.80838 -4.67455,4.06386 -8.77876,6.33066 -14.06806,7.76995 -2.23897,0.60925 -9.31714,0.92908 -11.54401,0.52162 z m 6.08178,-17.72087 c 1.14374,-0.15907 3.08617,-0.6275 4.31653,-1.04095 9.29833,-3.12459 16.86406,-13.31516 19.00614,-25.60009 0.58145,-3.33466 0.35997,-11.34079 -0.40497,-14.63871 -1.72276,-7.42743 -5.05425,-13.63225 -9.91987,-18.47553 -5.65416,-5.6282 -11.18636,-7.95142 -18.25412,-7.66574 -5.20394,0.21034 -9.44697,1.77777 -13.47294,4.97705 -5.34558,4.24795 -9.51575,11.86405 -11.4975,20.99823 -0.85544,3.94283 -0.84777,11.1551 0.0162,15.20664 1.18202,5.54325 3.33801,10.90546 5.93483,14.7606 2.7175,4.03431 7.63979,8.18442 11.67986,9.84758 4.16442,1.71436 8.22027,2.23951 12.59587,1.63092 z"
     id="path20"
     transform="translate(120,291)" />
  <path
     style="fill:#ffffff;stroke-width:0.302373"
     d="m 517.90568,248.96283 c -1.03045,-0.148 -3.4301,-0.6622 -5.33255,-1.14267 -19.78017,-4.99554 -35.08514,-22.69434 -37.84755,-43.76724 -0.5299,-4.04232 -0.58982,-10.98019 -0.1309,-15.15729 2.61233,-23.77743 19.81031,-42.86321 42.04855,-46.66415 4.81994,-0.82382 12.71961,-0.67565 17.04516,0.31971 13.28859,3.05786 24.84713,11.42693 32.2586,23.35712 12.29582,19.79253 10.45518,46.71198 -4.4649,65.29929 -7.75443,9.6604 -18.30188,15.85508 -30.0615,17.65558 -3.13754,0.48039 -10.48669,0.53458 -13.51491,0.0996 z m 16.05861,-18.85669 c 5.94961,-1.26042 13.2822,-6.70051 18.17092,-13.48111 2.42517,-3.36368 5.11882,-8.79793 5.80013,-11.70132 0.79267,-3.37799 0.79561,-15.48907 0.005,-18.85852 -0.67431,-2.87224 -3.82585,-9.32519 -5.95868,-12.2007 -5.67048,-7.64501 -13.68412,-12.66573 -22.46021,-14.07182 -3.21061,-0.51439 -9.32823,-0.22267 -12.43547,0.593 -12.52291,3.28734 -22.73345,14.93381 -25.12727,28.66098 -0.58256,3.34069 -0.57525,9.49544 0.0153,12.87149 1.31019,7.49014 4.82804,14.30915 10.10301,19.58372 4.12352,4.12319 9.97035,7.72792 13.92298,8.58387 2.80707,0.60789 15.12558,0.62188 17.96472,0.0204 z"
     id="path21"
     transform="translate(120,291)" />
  <path
     style="fill:#ffffff;stroke-width:0.302373"
     d="m 535.45538,191.55595 c -4.09203,-0.85894 -7.29896,-3.93745 -8.4561,-8.11747 -1.55605,-5.62099 2.59221,-12.24272 8.26292,-13.18984 4.32584,-0.7225 9.91252,2.66058 11.61264,7.03217 0.87467,2.24909 0.9506,5.89094 0.16972,8.14045 -1.49743,4.31368 -6.82623,7.13446 -11.58918,6.13469 z"
     id="path22"
     transform="translate(120,291)" />
  <path
     style="fill:#ffffff;stroke-width:0.302373"
     d="m 841.77734,171.36516 c -4.05231,-1.4495 -7.14259,-5.95515 -7.20349,-10.50271 -0.0647,-4.83132 5.67124,-11.23044 9.51554,-10.61572 3.48334,0.55701 7.1184,3.3875 8.69453,6.77012 0.68483,1.46975 0.80562,2.13701 0.80562,4.45035 0,2.32669 -0.1192,2.97727 -0.82193,4.48597 -0.45206,0.97054 -1.22231,2.27013 -1.71165,2.88798 -2.03655,2.57135 -6.07506,3.66992 -9.27862,2.52401 z"
     id="path23"
     transform="translate(120,291)" />
</svg>
