<?xml version="1.0" encoding="UTF-8" standalone="no"?>
<svg
   version="1.0"
   width="600.000000pt"
   height="528.000000pt"
   viewBox="0 0 600.000000 528.000000"
   preserveAspectRatio="xMidYMid meet"
   id="svg36"
   sodipodi:docname="frog12_t1.svg"
   inkscape:version="1.4.3 (0d15f75, 2025-12-25)"
   xmlns:inkscape="http://www.inkscape.org/namespaces/inkscape"
   xmlns:sodipodi="http://sodipodi.sourceforge.net/DTD/sodipodi-0.dtd"
   xmlns="http://www.w3.org/2000/svg"
   xmlns:svg="http://www.w3.org/2000/svg">
  <defs
     id="defs36" />
  <sodipodi:namedview
     id="namedview36"
     pagecolor="#505050"
     bordercolor="#ffffff"
     borderopacity="1"
     inkscape:showpageshadow="0"
     inkscape:pageopacity="0"
     inkscape:pagecheckerboard="1"
     inkscape:deskcolor="#505050"
     inkscape:document-units="pt"
     inkscape:zoom="0.69838558"
     inkscape:cx="658.66194"
     inkscape:cy="357.25251"
     inkscape:window-width="1920"
     inkscape:window-height="1022"
     inkscape:window-x="0"
     inkscape:window-y="30"
     inkscape:window-maximized="1"
     inkscape:current-layer="svg36" />
  <g
     transform="translate(0.000000,528.000000) scale(0.050000,-0.050000)"
     fill="#000000"
     stroke="none"
     id="g36">
    <path
       d="M4380 10406 c-509 -107 -793 -701 -561 -1176 284 -581 1131 -601 1414 -34 31 63 59 117 61 121 19 35 296 -89 390 -175 219 -200 286 -414 269 -862 -13 -379 -15 -385 -121 -369 -51 7 -114 1 -165 -16 l-82 -29 -97 149 c-377 575 -618 483 -820 -310 -47 -187 -53 -185 -239 68 -768 1046 -1267 1336 -1370 793 -24 -130 -15 -923 13 -1077 11 -59 9 -60 -69 -64 -138 -5 -303 -133 -336 -260 -16 -64 -23 -61 -209 96 -1006 842 -1301 636 -928 -649 28 -97 48 -180 45 -184 -4 -3 -114 40 -246 97 -309 133 -421 146 -508 59 -87 -87 -82 -167 24 -370 151 -292 125 -558 -77 -794 -181 -212 -173 -349 30 -479 212 -136 340 -344 357 -580 l10 -133 -137 -79 c-856 -495 -1073 -1660 -433 -2332 l146 -152 -148 -70 c-501 -239 -530 -730 -43 -735 97 -1 101 -4 140 -85 107 -221 423 -237 693 -35 l103 78 42 -64 c195 -288 672 -206 672 116 0 31 14 56 35 63 95 30 155 57 214 98 62 41 72 43 173 18 60 -14 142 -31 183 -38 65 -11 75 -20 75 -67 2 -459 1182 -943 1455 -596 37 47 40 48 146 20 290 -75 576 -1 641 167 14 36 33 45 95 45 103 0 198 33 283 99 68 53 75 54 210 36 253 -33 953 -26 1245 14 l264 36 79 -71 c81 -73 185 -114 292 -114 49 0 68 -14 100 -73 80 -149 344 -208 611 -138 109 29 109 29 147 -23 158 -210 771 -98 1083 197 137 129 197 262 198 442 1 105 7 133 28 125 15 -6 48 -16 75 -22 40 -10 48 -25 48 -85 2 -333 467 -455 652 -172 l32 49 90 -79 c275 -243 726 -225 726 28 0 24 25 31 105 33 517 7 486 505 -48 766 l-175 86 90 88 c608 593 556 1595 -115 2228 l-147 139 0 210 c0 269 38 354 243 549 209 198 217 286 45 482 -250 286 -285 489 -145 843 188 475 -213 507 -892 69 -46 -30 -47 -29 -36 8 300 945 330 1249 133 1331 -124 51 -378 -69 -736 -349 -198 -155 -169 -148 -251 -62 -36 39 -94 76 -130 83 -63 12 -64 14 -52 105 212 1632 -164 1687 -1361 197 -61 -76 -103 -44 -118 89 -95 818 -365 972 -743 423 -42 -61 -78 -103 -80 -94 -2 10 -14 122 -26 250 -94 1017 -734 1715 -1575 1717 -143 0 -144 0 -198 75 -165 229 -518 369 -788 311z m410 -204 c108 -48 277 -202 310 -283 14 -32 35 -60 47 -60 13 -1 86 -1 163 0 596 10 1131 -376 1349 -973 158 -434 177 -848 68 -1513 -48 -291 13 -433 186 -433 85 0 85 26 -3 109 -81 76 -86 118 -42 348 36 186 36 187 192 161 177 -28 281 -78 405 -194 168 -157 246 -182 201 -65 -21 57 -20 58 101 113 354 159 412 131 525 -252 47 -159 48 -160 170 -129 48 11 59 2 115 -95 140 -245 249 -246 119 -2 -107 203 -129 226 -208 226 -61 0 -68 7 -89 83 -52 195 -131 317 -250 388 -84 50 780 929 913 929 111 0 130 -472 49 -1207 -17 -152 -26 -285 -20 -295 26 -42 74 -13 104 62 38 98 82 103 153 18 73 -85 47 -145 -68 -161 -90 -13 -70 -67 46 -124 163 -80 277 -191 350 -341 57 -117 124 -176 124 -109 0 37 94 -60 162 -166 73 -115 72 -124 -36 -188 l-84 -50 -29 55 c-53 101 -210 222 -253 196 -33 -20 -23 -44 48 -119 104 -111 137 -190 101 -245 -105 -161 46 -104 531 200 390 245 749 407 875 396 41 -3 29 -70 -40 -215 -140 -295 -71 -671 172 -940 127 -140 123 -170 -43 -319 -262 -237 -328 -498 -233 -918 58 -255 -22 -280 -239 -75 -260 247 -481 394 -699 465 -85 27 -139 117 -165 275 l-13 84 162 -87 c199 -108 376 -233 619 -438 284 -240 261 -129 -31 148 -222 212 -378 305 -736 438 -58 22 -144 295 -111 355 31 59 28 79 -15 90 -39 10 -62 99 -63 239 0 88 -29 114 -61 53 -75 -139 16 -617 209 -1100 78 -196 75 -202 -53 -117 -51 34 -82 73 -95 120 -27 101 -124 245 -186 278 -71 38 -91 14 -47 -54 94 -144 117 -225 110 -383 -11 -244 -66 -316 -409 -535 -37 -24 -37 -25 -1 -54 36 -29 34 -35 -55 -136 -97 -111 -109 -136 -66 -136 127 0 654 594 654 736 0 62 21 64 100 11 98 -64 180 -58 216 18 44 92 265 -28 595 -321 312 -277 431 -299 509 -93 24 62 56 45 169 -91 537 -649 444 -1555 -205 -2010 -173 -121 -177 -154 -21 -174 411 -51 789 -389 602 -537 -60 -47 -285 -50 -300 -3 -30 88 -233 244 -319 244 -70 0 -56 -35 55 -135 222 -200 215 -385 -16 -385 -144 0 -465 220 -465 319 0 63 -81 12 -137 -87 -103 -181 -271 -246 -374 -143 -82 82 -49 300 60 390 114 95 4 124 -118 31 -93 -71 -139 -86 -161 -51 -21 35 199 278 325 359 274 178 510 510 539 760 18 160 -22 127 -147 -121 -97 -192 -316 -477 -367 -477 -9 0 6 69 33 154 106 334 104 623 -6 973 -112 355 -363 751 -432 682 -6 -7 46 -130 116 -275 394 -821 327 -1405 -224 -1945 l-164 -161 21 -98 c69 -325 -226 -611 -715 -690 -287 -47 -391 100 -198 281 65 61 63 99 -5 99 -40 0 -81 -29 -155 -108 -289 -309 -866 -200 -634 120 51 71 111 119 269 216 64 39 55 72 -22 72 -132 -1 -375 -176 -413 -298 -27 -84 -259 -39 -312 60 -122 227 368 551 899 594 179 15 225 45 134 87 -176 80 79 731 446 1140 149 165 123 217 -47 95 -288 -206 -611 -799 -611 -1119 0 -57 -30 -79 -107 -79 -315 0 -873 -372 -873 -582 0 -79 -447 -126 -1080 -113 -488 10 -540 17 -540 72 -2 249 -411 547 -822 597 l-128 16 -22 192 c-53 455 -405 1078 -610 1078 -57 0 -50 -16 93 -209 305 -413 469 -999 316 -1122 -83 -66 -46 -89 139 -89 476 -1 976 -317 870 -550 -50 -111 -299 -157 -335 -62 -46 121 -258 270 -396 278 -109 6 -94 -31 47 -123 285 -183 317 -389 71 -445 -188 -42 -398 30 -544 185 -65 70 -106 97 -145 97 -71 0 -69 -38 5 -109 263 -252 -26 -363 -516 -199 -392 130 -583 313 -583 555 l0 110 -156 109 c-783 549 -817 1527 -77 2253 89 87 145 157 135 167 -59 59 -406 -241 -554 -478 -396 -636 -348 -1316 131 -1833 l129 -140 -69 14 c-38 8 -204 72 -369 141 -277 117 -499 190 -578 190 -74 0 -23 -53 89 -94 169 -61 622 -305 609 -327 -27 -43 -173 -68 -193 -33 -49 87 -102 40 -88 -76 48 -384 -347 -422 -468 -45 -31 96 -44 95 -173 -24 -194 -177 -419 -251 -535 -175 -110 72 -75 194 97 348 144 128 153 146 79 146 -79 0 -197 -70 -284 -169 -140 -159 -454 -111 -413 64 39 166 529 438 706 391 88 -23 87 50 -2 106 -229 144 -306 203 -387 296 -500 571 -333 1518 350 1997 122 85 136 77 102 -59 -40 -158 18 -289 141 -316 81 -18 190 37 468 236 553 397 917 549 1047 436 l66 -58 -41 -81 c-121 -235 4 -319 268 -180 87 45 230 109 319 141 171 62 279 145 301 231 22 90 -23 99 -99 20 -48 -49 -111 -85 -205 -115 -75 -25 -210 -84 -301 -132 -236 -126 -236 -126 -46 190 199 330 264 506 277 739 l10 186 -140 144 c-161 164 -228 258 -344 483 -132 258 -107 304 78 143 241 -210 497 -325 748 -337 228 -11 179 38 -136 137 -98 31 -218 81 -266 111 l-87 56 63 124 c77 153 272 352 415 424 114 58 126 104 27 99 -166 -8 -438 -230 -556 -453 l-62 -117 -108 92 c-159 136 -270 148 -317 33 -15 -36 -45 -64 -78 -72 -29 -7 -82 -35 -117 -62 l-65 -49 -125 63 c-220 111 -222 112 -181 182 61 105 203 223 235 196 39 -32 57 -17 127 108 74 130 164 207 369 314 165 86 187 128 68 128 -108 0 -128 32 -84 130 87 192 302 273 332 125 7 -36 25 -79 40 -97 15 -18 27 -52 27 -75 2 -102 315 -45 456 82 108 97 37 122 -132 45 -124 -56 -253 -79 -253 -45 -1 8 -10 101 -21 205 -70 664 -61 1277 21 1344 103 84 565 -338 997 -913 l105 -140 -66 -20 c-152 -48 -203 -122 -276 -406 -19 -75 -28 -85 -78 -85 -68 0 -97 -31 -190 -209 -113 -214 -31 -238 98 -28 l75 120 115 -13 c131 -15 166 8 108 72 -42 47 15 265 96 368 85 108 376 30 376 -101 0 -38 -9 -69 -20 -69 -37 0 -88 -100 -63 -125 50 -50 167 84 196 224 38 187 165 638 206 731 104 239 209 189 475 -225 133 -207 172 -239 197 -163 25 79 238 124 279 59 36 -60 -171 -527 -312 -703 -109 -136 -146 -208 -129 -251 15 -42 67 -32 93 17 13 24 66 85 117 135 326 317 544 1219 429 1777 -89 437 -395 731 -763 733 l-149 1 -39 -103 c-195 -520 -939 -546 -1186 -41 -262 537 298 1135 839 896z m2698 -1913 c68 -68 200 -720 159 -786 -35 -55 -83 -50 -169 18 -104 83 -286 158 -388 160 -166 4 -167 11 -27 220 211 317 360 453 425 388z m-5670 -763 c145 -81 534 -372 711 -532 l119 -108 -81 -52 c-96 -60 -199 -179 -230 -266 -18 -49 -40 -66 -110 -84 -63 -18 -118 -56 -204 -144 l-118 -121 -63 35 c-51 29 -70 61 -102 166 -78 261 -139 515 -179 738 -85 475 -43 535 257 368z m8583 -48 c31 -57 8 -234 -65 -518 -54 -211 -188 -649 -210 -685 -4 -8 -60 39 -123 105 -66 69 -131 120 -155 120 -27 0 -48 21 -64 68 -37 101 -134 225 -224 284 -104 69 -109 60 105 233 453 368 684 491 736 393z m-9136 -1090 c164 -70 393 -189 635 -329 207 -119 639 -331 776 -380 106 -38 136 -60 188 -137 34 -51 124 -156 201 -235 l140 -143 -9 -147 c-10 -135 -112 -460 -153 -485 -8 -5 -90 -19 -184 -32 -349 -46 -737 -220 -1119 -501 -104 -77 -236 -172 -293 -211 -184 -127 -243 -66 -179 185 117 460 2 811 -349 1066 -166 121 -166 121 -38 280 255 318 285 585 105 938 -138 272 -97 292 279 131z m1402 -472 c40 -101 35 -106 -57 -76 -92 30 -111 75 -51 123 63 51 71 48 108 -47z m273 -1576 c-25 -47 -46 -50 -77 -13 -28 34 -10 53 51 53 41 0 45 -5 26 -40z"
       id="path1" />
    <path
       d="M5589 7579 c-15 -24 42 -119 72 -119 33 0 44 54 20 98 -24 45 -70 55 -92 21z"
       id="path2" />
    <path
       d="M8846 7086 c-18 -47 108 -149 174 -142 54 6 88 96 36 96 -14 0 -48 12 -76 26 -98 51 -121 55 -134 20z"
       id="path3" />
    <path
       d="M6986 6832 c-782 -256 -627 -1384 188 -1379 728 5 953 1005 299 1327 -150 74 -354 96 -487 52z m446 -158 c520 -264 368 -1056 -212 -1109 -458 -41 -782 437 -574 847 147 290 500 407 786 262z"
       id="path4" />
    <path
       d="M7060 6396 c-253 -129 -180 -509 102 -530 129 -10 217 35 270 138 131 253 -122 519 -372 392z"
       id="path5" />
    <path
       d="M4792 6678 c-222 -76 -388 -227 -494 -448 -113 -235 -62 -296 63 -75 270 478 779 579 1162 228 200 -183 222 -95 29 114 -187 203 -488 275 -760 181z"
       id="path6" />
    <path
       d="M8623 6538 c-666 -203 -543 -1279 146 -1278 753 1 796 1250 44 1292 -68 4 -153 -2 -190 -14z m359 -145 c371 -196 354 -806 -29 -992 -308 -149 -660 117 -660 499 -1 393 372 661 689 493z"
       id="path7" />
    <path
       d="M8702 6136 c-191 -103 -177 -383 24 -483 249 -123 472 252 265 446 -60 56 -216 76 -289 37z"
       id="path8" />
    <path
       d="M4910 6422 c-553 -145 -686 -897 -213 -1200 565 -362 1237 235 947 841 -134 279 -450 434 -734 359z m384 -155 c366 -173 410 -693 79 -939 -427 -319 -1004 123 -822 629 115 319 439 454 743 310z"
       id="path9" />
    <path
       d="M4968 6022 c-114 -49 -188 -212 -149 -329 104 -316 574 -194 513 133 -27 145 -229 253 -364 196z"
       id="path10" />
    <path
       d="M10676 6153 c-391 -223 -932 -725 -860 -797 17 -17 69 22 198 147 244 235 427 390 626 533 323 230 341 291 36 117z"
       id="path11" />
    <path
       d="M10310 5270 c-99 -14 -225 -36 -280 -50 -193 -50 -193 -105 0 -78 66 10 347 23 625 31 618 16 669 56 135 106 -255 24 -245 24 -480 -9z"
       id="path12" />
    <path
       d="M6564 5196 c-73 -73 27 -223 141 -212 56 5 66 14 71 68 10 105 -146 210 -212 144z"
       id="path13" />
    <path
       d="M7389 5171 c-55 -55 -64 -134 -20 -170 40 -33 158 24 188 91 53 115 -73 174 -168 79z"
       id="path14" />
    <path
       d="M3810 4936 c-97 -85 -169 -209 -170 -291 0 -72 55 -53 99 34 22 43 86 132 141 199 144 173 101 209 -70 58z"
       id="path15" />
    <path
       d="M6740 4768 c-597 -36 -1347 -183 -1910 -375 -402 -137 -426 -151 -400 -232 18 -56 101 -53 275 9 1443 521 3153 569 4262 121 252 -102 283 -107 312 -52 34 63 1 103 -137 166 -588 268 -1550 413 -2402 363z"
       id="path16" />
    <path
       d="M3923 4719 c-99 -60 -204 -299 -131 -299 16 0 87 86 87 108 1 9 32 61 70 114 78 108 69 135 -26 77z"
       id="path17" />
    <path
       d="M3878 4377 c-63 -118 13 -311 154 -392 129 -74 148 -45 45 71 -79 91 -117 182 -117 283 0 91 -42 111 -82 38z"
       id="path18" />
    <path
       d="M3404 3955 c7 -51 160 -140 224 -131 75 11 53 53 -61 114 -137 75 -172 78 -163 17z"
       id="path19" />
    <path
       d="M10290 3821 c-183 -76 -179 -365 6 -452 180 -86 338 160 223 347 -31 52 -149 130 -183 123 -3 -1 -24 -9 -46 -18z m108 -116 c108 -88 50 -295 -67 -242 -114 52 -105 261 12 275 7 1 32 -14 55 -33z"
       id="path20" />
    <path
       d="M2035 3749 c-79 -44 -142 -177 -129 -275 40 -297 434 -231 434 73 0 185 -152 285 -305 202z m168 -102 c89 -80 8 -275 -109 -263 -104 10 -124 166 -33 257 48 48 94 50 142 6z"
       id="path21" />
    <path
       d="M5059 3618 c-101 -189 146 -392 320 -262 112 84 48 140 -94 82 -83 -34 -127 4 -144 125 -13 96 -48 120 -82 55z"
       id="path22" />
    <path
       d="M1631 3553 c-59 -59 -64 -97 -20 -142 67 -66 177 -11 165 84 -11 89 -84 118 -145 58z m80 -55 c21 -33 -26 -71 -53 -44 -23 23 -9 66 22 66 10 0 24 -10 31 -22z"
       id="path23" />
    <path
       d="M4472 3542 c-54 -87 381 -454 657 -554 314 -114 466 -68 164 50 -198 77 -403 205 -623 388 -163 137 -180 147 -198 116z"
       id="path24" />
    <path
       d="M3860 3487 c0 -149 481 -492 823 -586 249 -70 358 -42 147 37 -231 87 -416 189 -612 338 -362 274 -358 271 -358 211z"
       id="path25" />
    <path
       d="M8420 3441 c0 -123 -118 -205 -171 -119 -22 35 -89 19 -89 -21 0 -112 195 -157 299 -68 82 69 87 272 6 283 -40 6 -45 -2 -45 -75z"
       id="path26" />
    <path
       d="M10618 3302 c-48 -49 -58 -75 -58 -158 0 -185 159 -268 282 -146 118 119 44 362 -112 362 -32 0 -76 -23 -112 -58z m178 -102 c39 -71 3 -160 -65 -160 -85 0 -120 115 -57 184 43 48 87 39 122 -24z"
       id="path27" />
    <path
       d="M5901 3093 c-26 -78 10 -196 74 -245 99 -75 325 25 325 144 0 55 -42 64 -81 17 -101 -121 -212 -92 -223 58 -8 110 -62 125 -95 26z"
       id="path28" />
    <path
       d="M8729 3027 c-198 -125 -493 -282 -624 -331 -176 -67 -64 -103 136 -44 240 70 676 355 695 454 10 52 -14 43 -207 -79z"
       id="path29" />
    <path
       d="M7731 3075 c-4 -14 -12 -65 -18 -113 -9 -79 -36 -121 -77 -122 -8 0 -45 27 -83 60 -121 106 -170 14 -55 -102 128 -127 322 -40 322 145 0 116 -64 212 -89 132z"
       id="path30" />
    <path
       d="M838 3004 c-74 -66 -101 -219 -58 -324 88 -213 389 -178 431 49 46 246 -201 429 -373 275z m229 -80 c94 -105 43 -283 -82 -284 -108 0 -167 172 -94 276 38 54 130 59 176 8z"
       id="path31" />
    <path
       d="M6493 2947 c-25 -25 -13 -131 21 -188 71 -121 220 -120 307 2 75 106 31 190 -53 97 -91 -100 -145 -91 -198 35 -27 65 -50 81 -77 54z"
       id="path32" />
    <path
       d="M1258 2462 c-147 -148 23 -398 205 -300 69 37 103 145 69 225 -57 138 -178 171 -274 75z m183 -84 c30 -56 9 -131 -40 -143 -73 -20 -129 60 -99 140 22 59 108 61 139 3z"
       id="path33" />
    <path
       d="M1203 6201 c33 -93 1642 -963 1691 -914 22 23 -25 56 -259 185 -135 73 -371 206 -525 294 -563 323 -929 498 -907 435z"
       id="path34" />
    <path
       d="M1151 5238 c-121 -18 -182 -49 -129 -66 15 -5 208 -13 428 -19 220 -5 622 -30 893 -54 883 -80 666 28 -263 131 -291 32 -737 36 -929 8z"
       id="path35" />
    <path
       d="M2750 4848 c-425 -101 -852 -328 -1166 -619 -121 -112 -176 -189 -134 -189 5 0 89 59 185 132 306 231 572 374 1033 557 331 130 370 188 82 119z"
       id="path36" />
  </g>
  <path
     style="fill:#ffffff;stroke-width:0.909091"
     d="m 577.74165,676.8423 c -3.31305,-0.827 -7.2871,-4.61075 -7.2871,-6.93814 0,-2.15291 2.3998,-6.2334 6.3506,-10.79819 4.16102,-4.80769 4.5397,-6.57515 1.56846,-7.32089 -3.28011,-0.82325 -6.19026,0.77595 -13.32196,7.3207 -3.67372,3.37137 -8.81047,7.05354 -11.49795,8.24207 -13.10282,5.79469 -28.22136,4.0417 -31.91327,-3.70032 -1.36021,-2.85239 -1.35815,-3.38871 0.027,-7.01567 2.24177,-5.86999 6.19322,-10.09118 14.81892,-15.83052 4.27217,-2.8426 7.99506,-5.76117 8.27309,-6.48569 1.39166,-3.62663 -6.85479,-3.54545 -14.12581,0.13906 -6.84824,3.47026 -13.6249,9.30303 -17.07539,14.69702 -2.89828,4.53072 -3.43918,4.93876 -6.54072,4.93411 -5.38864,-0.008 -9.90243,-1.65606 -12.98843,-4.74207 -2.5886,-2.5886 -2.82415,-3.28146 -2.44765,-7.19976 1.38439,-14.40763 27.21071,-29.08889 58.28223,-33.13119 10.30241,-1.34031 14.22724,-2.37564 14.22724,-3.75298 0,-0.32191 -1.48986,-1.94994 -3.3108,-3.61786 l -3.31079,-3.03257 0.50411,-7.03197 c 1.16697,-16.27859 14.03272,-42.15933 31.06307,-62.48653 7.15265,-8.5373 9.24789,-12.07925 7.92691,-13.40023 -1.73802,-1.73802 -9.49573,3.11074 -17.00066,10.62582 -16.34025,16.36234 -31.67477,46.16855 -33.58568,65.28155 -0.71662,7.16758 -1.06849,7.46837 -9.62503,8.22772 -11.43327,1.01465 -26.28804,7.729 -40.06214,18.1081 -7.7896,5.86965 -15.32626,14.91234 -15.32626,18.38888 0,4.88469 -7.29014,7.04904 -29.54546,8.7717 -14.91553,1.15452 -69.88943,0.59169 -74.46454,-0.76239 -2.27219,-0.67249 -2.85666,-1.55146 -4.13367,-6.21657 -3.10071,-11.32742 -12.31491,-20.58186 -28.67452,-28.79976 -8.17743,-4.10777 -16.62385,-6.69319 -26.27864,-8.04383 l -7.69626,-1.07665 -0.47465,-3.27944 c -0.26105,-1.8037 -0.72807,-5.52945 -1.03782,-8.27945 -1.32794,-11.78999 -7.06289,-29.77603 -13.68018,-42.90402 C 289.28536,533.6454 278.68932,520.12076 273.01208,517.18495 270.22184,515.74206 265,515.46747 265,516.76365 c 0,0.47 2.55682,4.56648 5.68182,9.10329 16.97779,24.64798 25.95508,45.20985 27.58328,63.17761 0.69999,7.72469 -1.06535,14.29165 -4.30851,16.02733 -1.12363,0.60135 -1.68864,1.69715 -1.51175,2.93194 0.33203,2.31798 4.06415,3.22483 13.61155,3.30743 31.53636,0.2728 66.15119,24.1973 54.5179,37.68078 -3.32728,3.85645 -13.09524,6.34197 -17.81139,4.53222 -0.81219,-0.31168 -2.26036,-2.10276 -3.21816,-3.9802 -3.93668,-7.71652 -17.55804,-16.50717 -25.88826,-16.70716 -6.92077,-0.16616 -6.26344,2.2308 2.25261,8.21423 19.95665,14.02164 21.41818,25.80168 3.65937,29.49483 -10.68581,2.22224 -22.20897,-1.92202 -33.26391,-11.96326 -7.1607,-6.50407 -10.5051,-8.1846 -13.03617,-6.55052 -2.19706,1.41846 -1.27125,3.77498 3.55974,9.06087 5.648,6.17981 6.51412,9.61395 3.24863,12.88078 -2.16135,2.16223 -3.16646,2.42009 -10.55407,2.70765 -17.84298,0.69457 -45.33646,-9.15815 -56.66443,-20.30657 -6.70615,-6.59986 -9.01624,-11.72529 -9.50806,-21.0957 l -0.39487,-7.52325 -8.69107,-6.1507 c -28.10486,-19.8899 -41.99152,-44.668 -41.99152,-74.92582 0,-25.60653 10.97297,-49.92323 33.04177,-73.22234 10.68622,-11.28196 12.34498,-13.64586 10.16292,-14.4832 -4.79757,-1.841 -22.49717,12.77484 -33.3857,27.56899 -9.09274,12.35421 -17.3857,32.30207 -19.84867,47.74387 -1.76794,11.08435 -0.72711,29.30883 2.24733,39.34961 4.63139,15.63415 11.65247,27.71767 24.03421,41.36375 8.14159,8.97294 8.87211,9.04478 -18.52459,-1.82165 -11,-4.36296 -23.38488,-9.04758 -27.52195,-10.41025 -8.463,-2.78756 -16.11441,-3.51775 -16.11441,-1.53783 0,1.42102 0.95525,1.94766 22.27272,12.27917 8.75,4.24068 18.31297,9.2383 21.25103,11.10581 l 5.34194,3.39549 -2.38462,1.24943 c -3.78378,1.98253 -8.47066,1.77719 -10.86927,-0.47619 -4.3491,-4.08576 -6.05427,-1.57948 -5.84186,8.58647 0.23816,11.3978 -3.9452,17.68183 -11.84356,17.79084 -7.42506,0.10247 -15.25836,-7.02807 -18.32347,-16.67959 -0.58275,-1.835 -1.64347,-3.82097 -2.35715,-4.41327 -1.59243,-1.3216 -4.053091,0.113 -12.382855,7.21935 -14.406292,12.29043 -31.180597,15.31817 -35.76375,6.45534 -2.36962,-4.58234 -0.556364,-8.172 9.21411,-18.24095 4.677702,-4.82059 8.504913,-9.23749 8.504913,-9.81532 0,-1.7316 -7.035192,-1.20873 -11.008208,0.81815 -2.014676,1.02781 -6.12477,4.13188 -9.133542,6.89794 -8.737615,8.03273 -16.411745,10.35032 -23.905184,7.21937 -3.597637,-1.50319 -5.043975,-3.78579 -5.043975,-7.96037 0,-2.52396 0.996199,-3.96041 6.245549,-9.00571 10.734727,-10.31745 30.46175,-19.08375 39.795037,-17.68414 3.198053,0.47958 4.083845,0.30679 4.541523,-0.8859 0.949972,-2.47559 -1.274867,-5.27023 -7.205797,-9.05126 -11.415757,-7.27769 -18.876136,-13.32023 -23.768206,-19.25111 -20.751171,-25.15762 -23.592924,-61.71507 -7.304324,-93.96575 6.754622,-13.37383 18.542308,-27.15604 30.538937,-35.70622 7.867414,-5.60722 8.508324,-5.56641 7.521625,0.47895 -1.867023,11.43898 -0.178634,18.24963 5.36161,21.62771 7.040571,4.29289 13.290624,1.84502 36.560837,-14.31928 25.87988,-17.97708 42.22865,-26.9965 54.23631,-29.92156 7.26753,-1.77037 11.13663,-1.2182 15.17048,2.16503 l 2.97308,2.49355 -2.54457,5.45455 c -3.17572,6.8075 -3.50321,13.54315 -0.75845,15.59993 3.31906,2.48712 9.87164,1.09904 23.18181,-4.91079 6.75,-3.04778 15.48337,-6.85682 19.40747,-8.46455 11.46443,-4.69705 18.77435,-11.4559 18.77435,-17.35903 0,-3.84916 -2.54032,-3.34955 -9.41109,1.85092 -3.22906,2.44407 -8.05754,5.1497 -10.72996,6.01251 -2.67242,0.86282 -10.89476,4.45232 -18.27186,7.97667 -7.3771,3.52436 -13.64427,6.17655 -13.92705,5.89377 -0.65651,-0.65651 1.96342,-5.77894 8.30307,-16.23398 12.30936,-20.29997 17.14532,-33.12917 18.57474,-49.27653 0.49562,-5.59891 0.90464,-10.81598 0.90892,-11.59348 0.004,-0.7775 -4.44015,-6.16689 -9.87651,-11.97641 -5.43636,-5.80952 -11.75321,-13.37402 -14.03745,-16.81 -3.98677,-5.99699 -12.60719,-23.0424 -13.80644,-27.29994 -1.02132,-3.62585 2.3124,-2.38458 9.54636,3.55444 13.94534,11.449 25.43557,17.66079 38.43101,20.77636 9.2051,2.20686 21.56899,2.47357 21.56899,0.46527 0,-1.7991 -3.57315,-3.53699 -16.2031,-7.88081 -10.78892,-3.71063 -20.05926,-7.825 -23.33614,-10.35705 -1.78606,-1.3801 -1.76335,-1.49384 1.58867,-7.95644 5.63625,-10.86651 16.15833,-22.00292 27.04129,-28.62009 6.66833,-4.05455 8.43613,-6.14887 6.36382,-7.53927 -0.75,-0.5032 -3,-0.68861 -5,-0.41201 -10.80356,1.49415 -27.39777,15.05657 -35.48007,28.99784 -2.48595,4.28806 -4.72737,7.80523 -4.98092,7.81594 -0.25354,0.0107 -2.70809,-1.86276 -5.45454,-4.16324 -2.74646,-2.30049 -7.14499,-5.19582 -9.77454,-6.43407 -6.339,-2.98502 -9.344,-2.33933 -12.71226,2.73147 -1.64754,2.48031 -4.1175,4.58148 -7.13198,6.06711 -2.53636,1.25 -5.89671,3.2128 -7.46744,4.36177 l -2.85588,2.08903 -10.253,-5.27085 c -6.38989,-3.28491 -10.36459,-5.87465 -10.54917,-6.87338 -0.40457,-2.18907 5.45769,-9.96314 10.07174,-13.35636 3.04331,-2.23807 4.35481,-2.67282 6.72282,-2.22858 2.8436,0.53346 3.08364,0.32857 7.18223,-6.13032 6.96707,-10.9793 10.31351,-13.84542 28.41763,-24.33895 8.15598,-4.72737 8.45675,-6.59539 1.20476,-7.48268 -6.28498,-0.76898 -7.07261,-1.5866 -5.75735,-5.97656 1.69553,-5.65914 6.12804,-10.81891 11.58943,-13.49092 4.73935,-2.31874 5.05192,-2.35743 7.27554,-0.90045 1.2779,0.83731 2.53621,2.21445 2.79626,3.06032 0.50975,1.65808 4.66543,11.57423 5.78779,13.81066 1.10508,2.20198 13.72553,1.68807 20.20565,-0.82277 6.54034,-2.53419 14.03116,-9.04236 13.12515,-11.4034 -0.79438,-2.07011 -4.58175,-1.57622 -12.66567,1.65169 -8.06822,3.22163 -14.2195,4.65115 -15.31218,3.55847 -1.37513,-1.37512 -4.32007,-35.59021 -4.99078,-57.98399 -0.82502,-27.54617 1.0228,-44.16123 5.0536,-45.44055 7.84773,-2.49078 37.98789,25.91418 64.14056,60.44789 3.83956,5.07001 6.84086,9.31987 6.66955,9.44413 -0.17131,0.12427 -2.27081,0.95217 -4.66555,1.83977 -8.47149,3.13994 -12.0696,8.23486 -16.10147,22.79967 -2.36501,8.54344 -3.03173,9.54546 -6.35135,9.54546 -4.04418,0 -6.95912,3.1744 -11.80673,12.85767 -4.59291,9.17448 -5.3728,11.99229 -3.61912,13.07613 1.77934,1.09969 5.25491,-2.22933 10.25625,-9.82378 l 4.99506,-7.58492 5.96128,0.617 c 10.15106,1.05068 12.31801,-0.16793 9.0817,-5.10718 -2.765,-4.21992 0.94943,-17.85806 6.519,-23.93551 2.77608,-3.02922 3.34145,-3.24859 8.29027,-3.21655 8.38769,0.0543 15.76555,4.77685 15.76555,10.09152 0,1.1134 -1.24037,3.1836 -2.75638,4.60043 -1.68963,1.5791 -2.83308,3.61959 -2.95454,5.27243 -0.4474,6.08762 7.22415,2.6252 11.14272,-5.02906 0.8959,-1.75 3.28808,-9.72728 5.31594,-17.72728 10.06768,-39.71748 14.79147,-49.79557 21.95023,-46.83031 3.88119,1.60763 9.65967,8.15733 17.26587,19.57022 C 365.96895,189.70603 370.202,195 371.8557,195 c 0.70368,0 1.9078,-1.21515 2.67582,-2.70033 1.63916,-3.1698 3.2994,-4.18046 8.94604,-5.4459 2.82813,-0.6338 4.94248,-0.63629 6.59559,-0.008 2.18764,0.83174 2.38608,1.27568 1.96694,4.40055 -1.23537,9.2104 -12.73746,32.7236 -22.21752,45.4183 -7.4582,9.98722 -9.11003,15.3749 -5.17665,16.88427 1.5313,0.58762 4.89953,-0.87543 4.89953,-2.12818 0,-0.4333 3.19842,-4.2893 7.1076,-8.5689 3.90919,-4.27959 9.02758,-11.17205 11.37421,-15.31656 8.34329,-14.7355 15.1249,-35.63305 18.38627,-56.65739 2.12803,-13.7183 2.13052,-37.45102 0.005,-47.24173 -4.42104,-20.36408 -14.61988,-35.812956 -29.06761,-44.030699 -6.29389,-3.579906 -12.96883,-5.292484 -23.47465,-6.022847 -8.13198,-0.565336 -8.89976,-0.477373 -9.45066,1.082749 -4.90315,13.885444 -12.27172,23.064851 -22.53953,28.078677 -28.8147,14.07036 -62.24096,-6.422216 -62.30758,-38.198785 -0.0429,-20.490224 16.43273,-39.701732 37.149,-43.317706 6.94966,-1.213045 15.52023,0.01975 22.4464,3.228686 6.35289,2.943337 15.73283,11.248911 19.4625,17.23329 l 3.18182,5.105331 7.27273,0.01902 c 28.6558,0.07495 50.58251,8.428591 68.94139,26.265313 12.65657,12.2966 20.55222,24.736909 26.35322,41.521931 5.37408,15.54975 7.17593,26.05147 7.66976,44.70185 0.45662,17.24522 -0.2861,27.66847 -3.54768,49.78774 -3.42287,23.21312 -0.20485,32.27273 11.46348,32.27273 2.59924,0 4.98422,-0.25834 5.29997,-0.57408 0.81218,-0.81218 -0.62982,-3.22495 -4.82278,-8.06953 -3.22788,-3.72953 -3.6303,-4.71693 -3.63193,-8.91168 -0.003,-6.84725 2.67268,-20.3554 4.47146,-22.5768 1.48045,-1.8283 1.83059,-1.86107 8.27274,-0.77446 13.12225,2.21336 18.27978,4.90707 33.12163,17.29909 5.16296,4.31073 9.59056,5.86847 9.59056,3.37418 0,-0.6283 -0.39063,-2.5044 -0.86806,-4.16911 l -0.86806,-3.02674 7.59561,-3.55942 c 4.17758,-1.95768 10.22833,-4.24994 13.44613,-5.0939 10.48981,-2.75126 13.58982,0.124 19.69312,18.26543 2.00198,5.95063 4.09587,11.26882 4.65309,11.81818 0.55724,0.54936 3.50353,0.99884 6.54732,0.99884 h 5.53417 l 3.72425,6.08081 c 4.46906,7.29694 8.46979,11.64646 10.71251,11.64646 2.4424,0 2.08068,-3.17347 -1.13696,-9.97504 -6.9012,-14.58796 -9.54277,-17.42166 -17.13696,-18.38339 -1.87504,-0.23744 -2.56584,-1.38435 -4.7422,-7.87325 -3.31193,-9.87459 -6.05371,-14.42879 -11.79341,-19.58928 l -4.68616,-4.21326 3.16483,-4.75562 c 10.1849,-15.30427 49.24823,-52.98782 56.92536,-54.91466 2.89433,-0.72643 4.25121,1.09982 5.77944,7.7786 1.63478,7.14447 1.32124,39.66692 -0.55757,57.83499 -0.8273,8 -1.75531,19.14773 -2.06223,24.77273 -0.5259,9.63822 -0.45864,10.22647 1.16796,10.21335 2.61023,-0.021 3.74815,-1.04438 6.09304,-5.47941 1.17833,-2.22867 2.86202,-4.19142 3.74152,-4.36167 1.8609,-0.36024 5.58983,2.85939 7.44775,6.43052 1.17005,2.24898 1.12356,2.6537 -0.49022,4.26748 -0.98057,0.98057 -3.22292,2.05302 -4.98299,2.38321 -7.24866,1.35985 -5.82249,4.61254 4.68261,10.67966 8.36371,4.83038 15.88852,12.4166 20.48097,20.64812 4.77239,8.55403 8.0574,11.74945 9.10337,8.8551 0.98901,-2.7367 13.37722,12.76859 13.37722,16.74315 0,2.07886 -10.16083,8.9107 -10.72692,7.21245 -1.7565,-5.2695 -13.67563,-15.7478 -17.44712,-15.33804 -3.76261,0.4088 -3.18267,3.03449 2.02645,9.1747 6.36858,7.50692 7.76402,10.78483 6.21234,14.5929 -2.30801,5.66423 -2.29766,6.93309 0.0565,6.9323 3.40183,-10e-4 11.65338,-4.30024 33.57158,-17.491 23.66766,-14.24361 37.73141,-21.49725 48.9997,-25.27247 8.93872,-2.99474 11.67431,-3.3044 12.40357,-1.40402 0.27148,0.70749 -1.13621,5.32878 -3.12821,10.26952 -4.64505,11.5211 -5.97912,18.41935 -5.37643,27.8004 0.88328,13.7486 6.2034,25.88525 17.07135,38.9444 6.55524,7.87694 6.34641,9.11683 -3.10642,18.44282 -8.46156,8.34801 -13.28567,15.03334 -16.18476,22.42904 -2.96732,7.56977 -3.33674,23.80348 -0.8388,36.85983 2.29572,11.99934 2.36858,14.28323 0.50496,15.82989 -2.19798,1.82417 -7.6647,-1.42837 -17.67419,-10.51561 -15.44749,-14.02421 -27.41984,-22.08614 -41.19605,-27.74059 -5.56885,-2.28573 -7.576,-3.62971 -9.2828,-6.21571 -1.99401,-3.02117 -5.42788,-14.82329 -4.79122,-16.46731 0.32614,-0.84218 13.86372,6.58399 23.90643,13.11407 4,2.60093 13.59217,9.77733 21.31595,15.94756 14.29852,11.42256 17.97358,13.91719 19.29735,13.09906 1.67383,-1.03448 -2.79955,-6.84912 -13.01238,-16.91392 -12.35685,-12.17776 -22.95077,-19.6089 -36.03818,-25.2791 -4.8595,-2.10542 -10.58437,-4.58048 -12.72192,-5.50015 -3.19914,-1.37641 -4.28136,-2.52341 -6.11955,-6.48587 -3.56013,-7.67434 -4.60621,-13.66142 -3.15517,-18.05814 1.18132,-3.57942 1.14249,-3.75839 -1.23232,-5.68029 -2.96743,-2.4015 -4.23824,-6.52027 -4.25679,-13.7966 -0.0156,-6.11389 -0.91179,-8.27027 -3.08979,-7.43449 -2.35013,0.90183 -3.35975,4.96231 -3.34624,13.45785 0.0222,13.9543 5.86397,37.23156 16.33961,65.10701 1.55018,4.125 2.48385,7.5 2.07483,7.5 -0.40903,0 -2.69991,-1.29576 -5.09085,-2.87945 -3.75732,-2.48874 -4.87281,-4.01196 -8.22106,-11.22595 -4.5245,-9.74832 -10.57309,-16.80369 -14.40583,-16.80369 -1.33571,0 -2.42857,0.40115 -2.42857,0.89145 0,0.4903 1.94318,4.61434 4.31818,9.16453 l 4.31819,8.27306 v 9.24457 c 0,5.27167 -0.55221,11.14702 -1.28493,13.6714 -1.74189,6.00115 -8.78552,13.44342 -19.12879,20.21143 -4.50677,2.94896 -8.20054,5.82301 -8.20838,6.38679 -0.008,0.56378 0.59937,1.53432 1.34937,2.15677 2.02689,1.68217 1.73902,2.54117 -2.55675,7.62926 -4.51367,5.34619 -6.98871,8.83304 -6.98871,9.84575 0,1.60786 4.50448,0.52748 8.30987,-1.9931 5.36115,-3.5511 21.81233,-20.50748 28.25071,-29.11828 6.06749,-8.11478 9.80306,-14.92156 9.80306,-17.86267 0,-2.73103 1.0082,-2.68865 6.02834,0.25335 2.43126,1.42481 5.57121,2.42978 7.77196,2.48749 3.11039,0.0815 4.07984,-0.36704 6.14872,-2.84522 1.35086,-1.61812 3.29682,-2.94204 4.32434,-2.94204 5.37256,0 16.01734,6.91827 34.6334,22.50897 14.68904,12.30188 20.30077,15.76333 25.67587,15.83751 4.37605,0.0604 6.39207,-1.52349 8.99942,-7.07037 1.035,-2.20186 2.27455,-4.00338 2.75456,-4.00338 1.46215,0 8.9136,8.25146 13.7428,15.21826 19.75878,28.5048 23.48446,62.7927 9.96487,91.70795 -6.70833,14.34755 -14.65474,23.88206 -29.13519,34.95788 -11.32562,8.66276 -11.04553,10.31079 2.1384,12.58263 16.91159,2.91416 34.21469,13.65832 38.84161,24.11823 1.97664,4.46852 1.50271,7.003 -1.87956,10.05141 -2.90338,2.61678 -16.43325,3.23599 -18.30018,0.83752 -3.95606,-5.08234 -12.1225,-12.37988 -16.1219,-14.40654 -10.51536,-5.32852 -12.50641,-1.3939 -3.66058,7.23384 7.38018,7.19824 10.80039,12.57148 10.80039,16.96771 0,8.50102 -9.91001,10.53067 -22.08003,4.52217 -8.07862,-3.98851 -16.20337,-10.77567 -18.37451,-15.34947 -1,-2.10664 -2.45384,-3.84507 -3.23076,-3.86319 -1.58123,-0.0369 -6.03667,4.45092 -8.54139,8.60342 -4.17699,6.92492 -10.60809,11.36363 -16.46436,11.36363 -4.19066,0 -9.4419,-4.8073 -9.58287,-8.77272 -0.32053,-9.01647 1.13697,-13.28966 6.5275,-19.13769 4.06997,-4.4154 4.20251,-6.03469 0.52954,-6.46916 -2.64158,-0.31246 -4.81884,0.63122 -12.22053,5.29669 -3.56505,2.24715 -5.06516,2.76213 -5.82692,2.00037 -2.34566,-2.34566 9.31911,-15.18773 23.29579,-25.64701 18.86695,-14.11887 31.99049,-33.88569 33.04347,-49.77048 0.68495,-10.33274 -0.78437,-9.11691 -10.71161,8.86364 -5.29447,9.58952 -11.00919,18.02173 -17.09715,25.22727 -6.56524,7.77043 -6.86741,6.73217 -2.57958,-8.86363 7.22042,-26.26239 3.67937,-52.96951 -10.8808,-82.06453 C 667.79445,476.01531 659.12112,465 655.30927,465 c -2.2338,0 -1.12765,3.6407 5.41808,17.83269 10.8517,23.5279 15.15043,37.17764 16.99895,53.97665 2.27652,20.68855 -2.97666,40.47694 -15.61227,58.81049 -2.66272,3.86344 -9.67353,12.02999 -15.57958,18.14787 l -10.73828,11.12342 1.08208,5.50005 c 3.17878,16.15747 -4.96102,29.78369 -23.13533,38.7291 -12.54835,6.1763 -28.49284,9.59629 -36.00127,7.72203 z M 97.213128,560.47721 c 5.150852,-1.95836 7.678802,-11.35142 4.637702,-17.23225 -0.73204,-1.41561 -2.656386,-3.6891 -4.276325,-5.05219 -2.494051,-2.0986 -3.552429,-2.40992 -6.907439,-2.03175 -5.956281,0.67135 -11.121611,6.52966 -11.121611,12.61367 0,3.23084 3.363023,9.27318 6.107783,10.97385 2.820973,1.74789 8.017584,2.07545 11.55989,0.72867 z M 74.938114,532.31679 c 10.346506,-7.36735 7.369332,-27.21784 -4.770023,-31.80441 -6.121585,-2.3129 -13.522119,0.24614 -17.003905,5.87978 -4.060971,6.57079 -3.15438,20.00087 1.643239,24.34265 5.396797,4.88404 14.489845,5.59862 20.130689,1.58198 z M 547.309,528.16265 c 17.01055,-4.34132 48.60009,-24.91698 48.60009,-31.65538 0,-2.407 -0.0409,-2.42327 -2.95454,-1.17629 -1.625,0.69547 -8.47728,4.63391 -15.22728,8.75212 -6.75,4.1182 -19.32954,10.95093 -27.95454,15.18385 -8.625,4.23291 -15.68182,8.0045 -15.68182,8.3813 0,2.32754 5.30475,2.53398 13.21809,0.5144 z m -97.73265,-3.38992 c 4.51873,-2.28077 8.3181,-7.83013 7.93037,-11.58314 -0.36545,-3.53737 -3.00675,-3.24964 -7.64459,0.83276 -2.31497,2.0377 -4.74912,3.70492 -5.40925,3.70492 -1.70227,0 -4.40323,-3.13062 -6.26721,-7.26418 -1.85408,-4.11162 -3.48212,-5.03676 -5.43209,-3.0868 -1.69459,1.69459 -1.72016,5.1104 -0.0728,9.72935 1.52987,4.28961 3.76838,6.87013 7.31926,8.43753 3.77419,1.66597 4.93416,1.57264 9.57635,-0.77044 z m 66.14887,-4.91137 c 5.31201,-3.36643 7.51949,-14.04132 4.2222,-20.41759 -2.41707,-4.67408 -4.27751,-3.12604 -5.93207,4.93594 -0.79971,3.89672 -2.11368,7.74459 -2.91992,8.55084 -1.34848,1.34847 -1.76227,1.2534 -5.1655,-1.18687 -5.42096,-3.88705 -7.84285,-5.00651 -9.47576,-4.3799 -1.97885,0.75936 -1.82717,3.63627 0.38002,7.20758 4.23175,6.8471 12.69461,9.21693 18.89103,5.29 z m -102.74159,-5.89455 c 4.49121,-2.17416 7.63348,-6.44725 7.26237,-9.8759 -0.32764,-3.02693 -3.67505,-3.53605 -5.88715,-0.89539 -2.00836,2.39745 -5.93557,4.53175 -8.33863,4.53175 -2.22181,0 -5.56567,-4.08852 -5.56567,-6.80512 0,-3.82778 -1.9065,-7.74033 -3.77169,-7.74033 -1.90262,0 -4.41013,4.70466 -4.41013,8.27442 0,3.67458 2.14752,9.15858 4.62508,11.81082 2.12219,2.27181 3.14103,2.64203 7.27082,2.64203 3.04705,0 6.26951,-0.71003 8.815,-1.94228 z m -84.34727,-0.76604 c 2.11521,-1.33754 -0.19491,-3.06772 -8.44336,-6.32367 -15.24897,-6.01931 -24.48392,-11.38462 -42.46573,-24.6717 -7.25,-5.35715 -14.71373,-10.64087 -16.58607,-11.7416 -3.00357,-1.76576 -3.46987,-1.83035 -3.96168,-0.54871 -1.05235,2.74236 0.58048,5.96246 5.91513,11.66523 6.60827,7.06425 17.1815,14.75489 28.4179,20.67027 13.00672,6.84737 21.59311,9.70374 35.30563,11.74482 0.25,0.0372 1.06818,-0.32037 1.81818,-0.79464 z m 35,-5.4735 c 0,-0.85711 -5.7648,-4.23396 -15.51954,-9.09091 -16.1575,-8.04491 -21.34346,-11.40234 -37.33143,-24.16871 -10.30316,-8.22707 -13.05812,-9.30997 -13.05812,-5.1328 0,6.8058 22.72516,26.28634 39.57943,33.92844 12.05166,5.46448 26.32966,7.8852 26.32966,4.46398 z m 357.74963,-1.8341 c 3.76305,-2.67952 5.43219,-6.32392 5.43219,-11.86062 0,-10.28176 -7.85009,-17.07167 -15.27242,-13.20983 -8.01329,4.16931 -10.49579,14.85051 -5.25796,22.62292 3.72686,5.53029 9.46298,6.46015 15.09819,2.44753 z M 561.16706,490.46528 c 2.97299,-1.34934 4.31251,-2.68886 5.66186,-5.66185 3.29913,-7.26892 1.84315,-15.25798 -2.78071,-15.25798 -2.25846,0 -2.53537,0.38173 -3.12388,4.30621 -0.35518,2.36841 -1.20468,5.38702 -1.88778,6.70801 -2.03636,3.93788 -6.29835,4.73873 -9.04818,1.7002 -2.73884,-3.02639 -7.36839,-0.65002 -6.22372,3.19468 1.8144,6.09421 9.89125,8.4198 17.40241,5.01073 z m -413.29092,-6.9059 c 6.10921,-3.15919 9.74668,-12.27601 8.00275,-20.05777 -1.30699,-5.83205 -3.82387,-8.99628 -8.60955,-10.82395 -3.51621,-1.34285 -4.63194,-1.39789 -8.183,-0.40365 -9.88319,2.76712 -15.39286,16.6735 -10.447,26.36817 3.41067,6.68547 11.71331,8.80775 19.2368,4.9172 z m 209.57447,-2.15574 c 3.35361,-2.04483 6.15621,-5.8896 5.30137,-7.27275 -0.79002,-1.27828 -5.88543,-1.19817 -11.01254,0.17312 -3.94939,1.0563 -4.29369,1.00125 -5.86359,-0.93749 -0.9173,-1.13282 -2.12575,-4.26547 -2.68542,-6.96142 -1.61504,-7.77957 -4.11282,-8.49532 -6.84308,-1.96088 -4.8202,11.53636 10.20025,23.60741 21.10326,16.95942 z m 340.22049,-2.68548 c 5.22359,-3.67109 7.44808,-10.2247 6.03225,-17.77171 -1.22932,-6.55288 -10.56268,-13.95361 -16.07151,-12.74367 -3.58073,0.78646 -8.0493,4.66825 -9.57363,8.31648 -1.78238,4.26583 -1.55644,11.56958 0.48142,15.56241 2.20257,4.31557 4.56532,6.42426 8.90019,7.94321 3.91054,1.37027 6.98002,0.97824 10.23128,-1.30672 z M 116.81818,476.81818 C 120.7228,472.91356 118.19321,465 113.04046,465 109.81592,465 105,469.5147 105,472.53755 c 0,5.1927 8.00621,8.0926 11.81818,4.28063 z m 127.86607,-28.67023 c 0.29494,-0.76861 -0.22926,-2.25757 -1.1649,-3.30878 -1.75419,-1.97084 -13.47519,-8.02099 -15.53916,-8.02099 -1.95825,0 -1.33556,4.97468 0.88345,7.05784 4.8147,4.51993 14.70104,7.18947 15.82061,4.27193 z m 32.13393,-7.29862 c 0,-1.08186 -2.21916,-4.63085 -5.12395,-8.19448 -4.01412,-4.92457 -6.51035,-10.77092 -7.23636,-16.94808 -0.75564,-6.42937 -1.58111,-7.86597 -3.75017,-6.52662 -6.34445,3.91751 -4.54545,18.7723 3.14935,26.00492 4.27652,4.01966 12.96113,7.81499 12.96113,5.66426 z m 45.33048,-17.17454 c 39.17826,-12.88433 73.50803,-20.12145 111.94225,-23.59877 62.87613,-5.68869 117.71847,0.50981 164.09091,18.5462 14.43628,5.61493 18.41973,6.41993 20.13833,4.06961 1.72078,-2.3533 1.52384,-6.23078 -0.40513,-7.97647 -2.73293,-2.47327 -16.87917,-8.70631 -28.15397,-12.40506 -40.70555,-13.35364 -95.83156,-19.66668 -142.94287,-16.36986 -41.78353,2.92398 -89.12848,12.52044 -128.53903,26.05388 -21.3099,7.31774 -25.05854,9.49519 -23.56404,13.6875 1.93248,5.42093 5.68064,5.14673 27.43355,-2.00703 z M 255.64803,407.5 c 1.03073,-1.125 2.71702,-3.68182 3.74732,-5.68182 1.03029,-2 3.12016,-5.47727 4.64415,-7.72727 4.91897,-7.26229 2.82416,-9.25025 -4.20251,-3.98815 -2.89084,2.16489 -9.38244,13.70977 -9.38244,16.68605 0,3.32684 2.4852,3.66716 5.19348,0.71119 z m -7.2303,-13.46196 c 1.37025,-2.02909 5.66182,-7.99359 9.53682,-13.25445 3.875,-5.26087 7.04545,-10.14616 7.04545,-10.85622 0,-4.23182 -10.25085,2.23998 -16.7322,10.56376 -4.52716,5.81407 -7.38523,14.63386 -5.38901,16.63008 1.39212,1.39213 3.19412,0.38906 5.53894,-3.08317 z m 202.42642,-23.19389 c 4.45754,-4.45753 -2.30002,-14.92141 -9.64285,-14.93166 -7.14415,-0.01 -7.09575,11.10717 0.0653,14.99941 3.17221,1.72419 7.81848,1.69133 9.57754,-0.0677 z m 47.75709,-0.82599 c 8.17992,-4.23 8.56316,-14.10907 0.54733,-14.10907 -6.09468,0 -11.7343,7.58214 -9.55428,12.84516 1.25421,3.02795 4.66903,3.50714 9.00695,1.26391 z M 350.7105,361.29291 c 21.98367,-7.34549 34.87844,-30.36525 29.26182,-52.23827 -2.27824,-8.87224 -5.76384,-14.97689 -12.30077,-21.54349 -17.55775,-17.63746 -44.26271,-17.5764 -61.16114,0.13984 -19.41694,20.35663 -16.75806,53.05289 5.52387,67.92698 11.34321,7.57207 26.44137,9.80302 38.67622,5.71494 z m 322.31487,0.0859 c 5.83605,-0.49165 22.27008,-1.3456 36.52008,-1.89767 28.01011,-1.08515 33.75193,-1.6326 34.29495,-3.2698 0.46704,-1.4081 -6.08813,-2.67428 -22.67818,-4.38044 -17.65957,-1.81616 -19.41424,-1.77078 -36.90158,0.95422 -18.59659,2.89784 -26.92604,5.73674 -25.16973,8.57851 0.69048,1.11722 0.85075,1.1174 13.93446,0.0152 z m -77.11628,-9.30077 c 8.75146,-2.64171 17.17698,-9.42062 21.84109,-17.57264 1.50206,-2.62532 3.5432,-7.94893 4.53587,-11.83024 5.67529,-22.19014 -2.95064,-44.09064 -20.67218,-52.48492 -5.82377,-2.75858 -6.72974,-2.91752 -16.62984,-2.91752 -9.96507,0 -10.75903,0.14196 -16.44731,2.94082 -25.43158,12.51333 -31.46844,49.82202 -11.58234,71.58059 9.42836,10.31611 25.12248,14.45931 38.95471,10.28391 z m 71.3811,-14.1235 c 17.23662,-15.92608 28.43488,-25.47259 39.52799,-33.6976 5.75,-4.26334 12.60227,-9.5537 15.22727,-11.75635 12.257,-10.28491 -1.59545,-5.4757 -20.43864,7.09576 -23.20307,15.48021 -50.79529,42.65113 -47.96423,47.23189 1.22383,1.98019 3.5078,0.49515 13.64761,-8.8737 z m -174.74964,0.67339 c 19.08,-5.89322 31.50954,-23.82778 31.53957,-45.50839 0.0184,-13.25709 -4.02515,-23.23293 -13.09215,-32.29992 -9.78412,-9.78412 -22.34885,-14.48921 -36.90266,-13.81887 -6.83247,0.31471 -8.64789,0.79908 -15.59122,4.15984 -17.28091,8.36444 -27.07634,24.04938 -27.11702,43.42113 -0.0436,20.7661 12.30167,37.93373 31.75478,44.15898 7.30187,2.3367 21.65645,2.28164 29.4087,-0.11277 z m -205.27174,-38.8552 c 1.3127,-1.875 4.0791,-6.06818 6.14754,-9.31818 10.82952,-17.01561 27.6836,-26.50075 44.76547,-25.19311 10.61213,0.81237 19.26749,4.97932 32.27273,15.53708 2.75,2.23247 5.80335,4.19336 6.78522,4.35753 7.56531,1.26493 -7.13831,-17.60823 -18.39056,-23.60561 -25.56931,-13.6283 -58.31869,-2.0039 -71.9441,25.53656 -4.33133,8.75475 -5.90286,16.09482 -3.44594,16.09482 0.7826,0 2.49694,-1.53409 3.80964,-3.40909 z M 604.2466,239.8591 c 2.10712,-1.90691 2.14478,-4.76169 0.0716,-5.42572 -0.875,-0.28025 -3.9682,-1.52885 -6.87378,-2.77467 -2.90557,-1.24581 -5.87148,-2.03924 -6.59091,-1.76317 -2.13002,0.81737 -1.49528,4.59044 1.19196,7.08542 4.97233,4.61658 9.18273,5.60977 12.20115,2.87814 z M 379.65014,205.22727 c 0.33447,-5.08292 -1.87489,-8.67672 -5.05453,-8.22183 -2.63431,0.37687 -2.89111,4.29971 -0.48196,7.36243 2.1899,2.78402 5.37729,3.27878 5.53649,0.8594 z"
     id="path37"
     transform="scale(0.75)" />
  <path
     style="fill:#ffffff;stroke-width:0.909091"
     d="m 83.930177,452.73755 c -0.955076,-2.09617 -0.798357,-4.09065 0.991134,-12.6137 2.819943,-13.43094 3.407852,-27.14419 1.544791,-36.03294 -2.900732,-13.83954 -12.018603,-26.89932 -26.03419,-37.28951 -3.697768,-2.74126 -6.576443,-5.60476 -6.889861,-6.85352 -0.422229,-1.68229 0.765565,-3.86885 5.506855,-10.13732 17.728949,-23.43949 19.021934,-38.8247 5.59738,-66.60309 -3.577481,-7.40261 -4.070799,-10.43778 -1.835886,-11.29539 4.123957,-1.58251 29.85856,9.81426 60.37142,26.73597 18.064,10.01786 39.69869,20.82233 51.81818,25.87825 10.79994,4.50543 11.67285,5.11892 16.63301,11.68989 2.70323,3.5811 8.70923,10.512 13.34666,15.40202 l 8.43169,8.89093 -0.62789,6.56361 c -1.15064,12.02812 -7.42606,32.66732 -10.40007,34.2048 -0.81087,0.4192 -4.95158,1.25026 -9.20158,1.8468 -26.82832,3.76566 -49.03305,13.61137 -79.01727,35.03674 -20.996295,15.00301 -22.57091,16.0068 -25.976058,16.55938 -2.750547,0.44636 -3.259429,0.20939 -4.258315,-1.98292 z m 24.764733,-26.00198 c 21.19128,-15.49159 37.16457,-24.25084 66.27874,-36.34521 16.4568,-6.83633 21.84453,-9.53327 21.84453,-10.93471 0,-2.50597 -18.21436,1.33605 -33.63636,7.09505 -25.43118,9.4967 -54.98161,29.03942 -65.562033,43.35843 -5.70964,7.72713 -2.628409,6.84422 11.075123,-3.17356 z m 85.396,-61.71018 c 0,-2.05749 -18.47779,-5.66365 -46.81818,-9.13712 -35.257,-4.32119 -80.454548,-3.02342 -80.454548,2.31012 0,1.52644 4.187348,1.8879 37.272728,3.21749 14.25,0.57267 34.5,1.75822 45,2.63457 21.75256,1.81552 45,2.31919 45,0.97494 z m -0.90909,-14.39314 c 0,-2.0976 -2.29897,-3.5079 -42.72727,-26.21111 -49.00675,-27.52057 -72.282424,-38.667 -70.743298,-33.87807 0.225396,0.70131 3.246208,3.24191 6.712915,5.64577 20.325933,14.09428 98.961213,55.82025 105.621283,56.04546 0.625,0.0211 1.13637,-0.69979 1.13637,-1.60205 z"
     id="path38"
     transform="scale(0.75)" />
  <path
     style="fill:#ffffff;stroke-width:0.13483"
     d="m 138.33362,478.06619 c -2.63998,-0.91288 -4.23996,-3.13284 -4.65289,-6.45583 -0.34098,-2.74395 0.57815,-6.09283 2.36167,-8.60482 0.96154,-1.35429 2.70736,-2.92393 3.91608,-3.52088 1.01972,-0.50362 1.11375,-0.52401 2.41556,-0.52401 1.25019,0 1.42241,0.0332 2.2357,0.43127 1.17473,0.57496 2.6095,1.80253 3.31757,2.83848 1.11265,1.62787 1.60293,4.09368 1.26858,6.38026 -0.67825,4.63861 -3.51567,8.40442 -7.14346,9.48078 -0.98292,0.29163 -2.83886,0.27904 -3.71881,-0.0252 z"
     id="path39"
     transform="scale(0.75)" />
  <path
     style="fill:#ffffff;stroke-width:0.0392561"
     d="m 111.49222,474.26776 c -0.27643,-0.0649 -0.70264,-0.31997 -0.94715,-0.5668 -1.33494,-1.34762 -0.80228,-3.77554 0.93855,-4.27811 0.16627,-0.048 0.32429,-0.0621 0.558,-0.0498 0.2845,0.0149 0.36751,0.0377 0.65132,0.17878 0.96543,0.47986 1.68824,1.4978 1.69322,2.38457 0.002,0.36658 -0.0689,0.64241 -0.26269,1.02065 -0.30692,0.59917 -0.96264,1.12373 -1.61812,1.29446 -0.24953,0.065 -0.77009,0.0734 -1.01313,0.0163 z"
     id="path40"
     transform="scale(0.75)" />
  <path
     style="fill:#ffffff;stroke-width:0.171003"
     d="m 64.391128,527.78481 c -2.202181,-0.43174 -4.292711,-2.23818 -5.548046,-4.7941 -1.170404,-2.383 -1.386222,-3.37268 -1.375009,-6.30542 0.0085,-2.21071 0.05869,-2.62787 0.463389,-3.84757 0.836943,-2.52245 2.192888,-4.31542 3.907913,-5.16747 3.373903,-1.67619 7.364669,-0.85869 9.645137,1.97579 0.932186,1.15864 1.996083,3.28447 2.410336,4.81621 0.467335,1.72802 0.42714,4.85332 -0.0835,6.49208 -0.589163,1.89077 -1.267744,3.11015 -2.410778,4.33206 -1.202586,1.28556 -2.596423,2.08645 -4.235794,2.43384 -1.287615,0.27285 -1.666373,0.28167 -2.773651,0.0646 z"
     id="path41"
     transform="scale(0.75)" />
  <path
     style="fill:#ffffff;stroke-width:0.171003"
     d="m 90.802544,555.01049 c -3.051258,-0.8056 -5.003846,-4.36036 -4.29754,-7.82385 0.501246,-2.45794 1.781095,-3.922 3.793796,-4.33983 1.121624,-0.23285 2.066659,-0.11019 3.254579,0.42243 2.215083,0.99315 3.450685,3.41649 3.278826,6.43063 -0.13316,2.33543 -1.151139,4.15925 -2.754839,4.93559 -0.809223,0.39174 -2.484764,0.58362 -3.274822,0.37503 z"
     id="path42"
     transform="scale(0.75)" />
  <path
     style="fill:#ffffff;stroke-width:0.333757"
     d="m 580.79007,346.27965 c -13.65511,-2.48556 -24.25729,-13.61711 -27.08101,-28.43319 -0.61995,-3.25283 -0.71176,-10.07947 -0.18103,-13.4603 0.85306,-5.43415 3.51837,-11.98428 6.51883,-16.02032 8.95478,-12.04545 22.9109,-16.69936 35.50888,-11.84106 5.28301,2.03734 11.28746,6.90266 14.61345,11.84106 7.25658,10.77448 8.3494,25.69759 2.8027,38.27245 -4.09696,9.28817 -12.38829,16.68831 -21.27573,18.9889 -2.95028,0.7637 -8.47811,1.09441 -10.90609,0.65246 z m 12.53758,-18.35222 c 8.10115,-3.05525 13.41303,-13.72018 11.1216,-22.32941 -2.19868,-8.26076 -8.39141,-12.30511 -18.37941,-12.00325 -3.36634,0.10174 -3.86722,0.20415 -5.90492,1.20731 -4.34069,2.13693 -7.72322,6.6053 -8.77098,11.58662 -0.6194,2.94476 -0.61961,4.72953 -9.1e-4,7.67641 1.42117,6.76898 6.72115,12.52072 13.21942,14.3462 2.37989,0.66856 6.22561,0.45503 8.7152,-0.48388 z"
     id="path43"
     transform="scale(0.75)" />
  <path
     style="fill:#ffffff;stroke-width:0.333757"
     d="m 470.93078,332.39206 c -11.84706,-2.0872 -22.32894,-10.02205 -27.84702,-21.08036 -6.73853,-13.50412 -4.96776,-29.50739 4.59644,-41.54021 5.17995,-6.51694 12.66448,-11.31523 21.08116,-13.51501 4.25486,-1.11205 11.20743,-1.40318 15.52488,-0.65009 14.43882,2.51856 26.61661,13.07575 30.47338,26.41807 1.31748,4.55774 1.55103,6.30242 1.54142,11.51461 -0.007,3.71229 -0.18121,5.97439 -0.61744,8.01016 -3.52558,16.45334 -15.40846,28.14871 -31.36283,30.86794 -3.62904,0.61852 -9.80238,0.60695 -13.38999,-0.0251 z m 12.51588,-19.51007 c 8.39731,-1.33034 14.39361,-9.02703 14.41954,-18.50853 0.0119,-4.3581 -1.0172,-7.71523 -3.4092,-11.1213 -3.61511,-5.14774 -8.76629,-7.84587 -15.01542,-7.86492 -15.56026,-0.0474 -24.59479,17.04097 -15.81665,29.91648 4.13972,6.07201 11.51964,8.89351 19.82173,7.57827 z"
     id="path44"
     transform="scale(0.75)" />
  <path
     style="fill:#ffffff;stroke-width:0.333757"
     d="m 333.5389,355.62284 c -13.44037,-1.67871 -25.42762,-11.15412 -30.01589,-23.72627 -1.9965,-5.47054 -2.6576,-10.86566 -1.98563,-16.20428 2.31678,-18.40602 15.98662,-32.06871 33.07528,-33.05798 11.81979,-0.68425 23.97605,4.883 31.09854,14.24232 2.12786,2.79611 5.0439,8.78702 5.90421,12.13 2.79829,10.8735 0.9997,21.76825 -5.07772,30.75775 -4.18451,6.18955 -10.43529,11.15088 -17.33281,13.7573 -5.06417,1.91364 -10.9003,2.69639 -15.66598,2.10116 z m 10.40529,-19.82129 c 8.68658,-3.0209 13.50389,-11.42651 11.63494,-20.30155 -1.48758,-7.06404 -8.89391,-13.07501 -17.36964,-14.09718 -3.72803,-0.4496 -8.11308,0.97275 -11.19195,3.63025 -1.80962,1.56196 -4.20317,5.17764 -5.34703,8.07719 -0.81443,2.06451 -0.90466,2.71689 -0.9168,6.62871 l -0.0135,4.33884 1.43695,2.93886 c 2.40651,4.92179 6.5172,8.29166 11.50035,9.42777 2.96753,0.67657 7.24224,0.40889 10.26665,-0.64289 z"
     id="path45"
     transform="scale(0.75)" />
  <path
     style="fill:#ffffff;stroke-width:0.030584"
     d="m 193.04593,417.16572 c -0.49823,-0.10987 -0.90798,-0.36528 -1.48885,-0.92806 -0.84242,-0.81619 -1.35554,-1.56553 -1.49319,-2.18058 -0.0907,-0.40545 0.0129,-0.82421 0.27409,-1.10757 0.60032,-0.65128 2.1481,-0.98145 4.3442,-0.92671 1.09724,0.0273 1.57576,0.11528 1.8268,0.3357 0.13927,0.12227 0.19174,0.2498 0.19174,0.466 0,0.31969 -0.10792,0.62893 -0.47656,1.36555 -0.92923,1.85681 -1.74546,2.80057 -2.57397,2.97614 -0.24906,0.0528 -0.36318,0.0527 -0.60426,-4.7e-4 z"
     id="path46"
     transform="scale(0.75)" />
  <path
     style="fill:#ffffff;stroke-width:0.113141"
     d="m 177.68717,315.64564 c -1.51176,-0.28304 -4.56143,-1.30128 -6.07361,-2.02788 -1.4257,-0.68505 -2.56677,-1.63264 -2.97066,-2.46696 -0.28258,-0.58373 -0.31001,-1.59164 -0.0596,-2.19089 0.42377,-1.01423 1.82833,-2.40942 3.77142,-3.74624 2.50451,-1.72309 3.17308,-1.17465 5.38038,4.4136 1.52114,3.85109 1.85036,5.26161 1.34581,5.76616 -0.23353,0.23353 -0.87424,0.34948 -1.39372,0.25221 z"
     id="path47"
     transform="scale(0.75)" />
  <path
     style="fill:#ffffff;stroke-width:0.14664"
     d="m 124.57099,287.95672 c -2.82185,-1.59122 -3.40226,-1.9905 -4.33239,-2.98043 -2.04664,-2.1782 -3.1899,-5.22453 -6.7893,-18.09082 -5.52322,-19.74315 -10.02901,-41.2166 -11.55401,-55.06346 -0.33763,-3.06569 -0.34871,-8.57632 -0.0204,-10.11818 0.40756,-1.91373 0.80914,-2.77213 1.72556,-3.68856 0.94913,-0.94913 1.82385,-1.29722 3.25981,-1.29722 3.07447,0 9.1156,2.50817 16.11467,6.69052 7.57145,4.52439 25.26298,17.50343 37.4469,27.4722 3.87259,3.16851 6.60134,5.53731 11.60738,10.07624 3.42102,3.10182 4.27622,3.94855 4.12718,4.08633 -0.1034,0.0956 -1.60674,1.0813 -3.34077,2.1905 -4.07086,2.60398 -5.71177,3.89092 -8.50964,6.67396 -3.98579,3.96466 -6.9511,8.09633 -8.34454,11.62678 -1.48583,3.7645 -2.5206,4.65025 -6.97488,5.97035 -5.38376,1.59558 -7.61406,3.23016 -16.13285,11.82368 -3.22742,3.25574 -5.89994,5.91733 -5.93894,5.91465 -0.039,-0.003 -1.09372,-0.58162 -2.34383,-1.28654 z"
     id="path48"
     transform="scale(0.75)" />
  <path
     style="fill:#ffffff;stroke-width:0.531967"
     d="m 667.14693,278.56113 c -3.96424,-3.76681 -7.99334,-7.14217 -8.95357,-7.5008 -0.96022,-0.35862 -2.28402,-0.86425 -2.94176,-1.12362 -0.80274,-0.31655 -1.89192,-1.97812 -3.31306,-5.05417 -3.5642,-7.71471 -8.48272,-13.65593 -15.53411,-18.76414 -1.66107,-1.20332 -3.17786,-2.44307 -3.37065,-2.75501 -0.6633,-1.07323 1.34378,-3.13797 9.70829,-9.98724 22.55727,-18.47099 38.01769,-28.56281 45.40541,-29.63847 2.12657,-0.30963 2.64162,-0.18312 3.98975,0.97999 l 1.54797,1.33552 -0.0626,6.29266 c -0.0693,6.96611 -1.35686,14.21265 -5.00936,28.19373 -4.02931,15.4234 -12.87552,44.01553 -13.79369,44.58298 -0.25569,0.15803 -3.70836,-2.79462 -7.6726,-6.56143 z"
     id="path49"
     transform="scale(0.75)" />
  <path
     style="fill:#ffffff;stroke-width:0.531967"
     d="m 502.70898,204.8984 c -1.17032,-0.67434 -3.78431,-2.36459 -5.80886,-3.75611 -8.11064,-5.57464 -16.19106,-8.62784 -24.86374,-9.39482 -6.17884,-0.54642 -7.1495,-0.77737 -7.53957,-1.79387 -0.43809,-1.14164 1.55501,-4.88195 6.63947,-12.45981 14.50229,-21.61417 24.12879,-30.29788 28.0546,-25.30703 4.96164,6.3077 13.00877,47.9731 10.01778,51.86875 -0.76762,0.9998 -2.68654,2.08438 -3.67188,2.07536 -0.38496,-0.004 -1.65747,-0.55813 -2.8278,-1.23247 z"
     id="path50"
     transform="scale(0.75)" />
  <path
     style="fill:#ffffff;stroke-width:0.0976668"
     d="m 689.8693,473.48773 c -0.29545,-0.0807 -0.89732,-0.32319 -1.33751,-0.53891 -4.19142,-2.05403 -6.22918,-7.98401 -4.51303,-13.13319 0.6601,-1.98059 1.94652,-3.57074 3.50653,-4.33443 0.93835,-0.45937 1.74127,-0.6597 2.25657,-0.56303 0.50704,0.0951 1.9086,0.96149 3.10316,1.91819 2.69142,2.15553 4.04594,5.07162 4.03759,8.69234 -0.009,3.71492 -1.66254,6.85457 -4.11898,7.81884 -0.71129,0.27922 -2.17002,0.34891 -2.93433,0.14019 z"
     id="path51"
     transform="scale(0.75)" />
  <path
     style="fill:#ffffff;stroke-width:0.0976668"
     d="m 714.05598,501.12004 c -1.483,-0.359 -2.90833,-1.50523 -3.65401,-2.9385 -0.6647,-1.27765 -0.85438,-2.09799 -0.84298,-3.6458 0.008,-1.12956 0.047,-1.44177 0.26972,-2.1787 0.30768,-1.01791 0.61734,-1.66012 1.1901,-2.46815 0.62611,-0.88329 1.88994,-2.02694 2.65784,-2.40511 0.59317,-0.29212 0.73526,-0.32188 1.53636,-0.32188 0.79937,0 0.94402,0.0301 1.53147,0.31907 1.16089,0.57098 2.68368,2.43075 3.3587,4.10194 0.47664,1.18004 0.57773,1.74685 0.57889,3.24583 0.001,1.60304 -0.15786,2.30356 -0.80964,3.56484 -0.43183,0.83562 -1.5172,1.96526 -2.23971,2.33104 -1.07135,0.54238 -2.37451,0.68645 -3.57674,0.39542 z"
     id="path52"
     transform="scale(0.75)" />
</svg>
