<?xml version="1.0" encoding="UTF-8" standalone="no"?>
<svg
   version="1.0"
   width="1088"
   height="1196"
   viewBox="74 11 1088 1196"
   preserveAspectRatio="xMidYMid meet"
   id="svg25"
   sodipodi:docname="frog7.svg"
   inkscape:version="1.4.3 (0d15f75, 2025-12-25)"
   xmlns:inkscape="http://www.inkscape.org/namespaces/inkscape"
   xmlns:sodipodi="http://sodipodi.sourceforge.net/DTD/sodipodi-0.dtd"
   xmlns="http://www.w3.org/2000/svg"
   xmlns:svg="http://www.w3.org/2000/svg">
  <defs
     id="defs25" />
  <sodipodi:namedview
     id="namedview25"
     pagecolor="#505050"
     bordercolor="#ffffff"
     borderopacity="1"
     inkscape:showpageshadow="0"
     inkscape:pageopacity="0"
     inkscape:pagecheckerboard="1"
     inkscape:deskcolor="#505050"
     inkscape:zoom="0.33310628"
     inkscape:cx="-180.12269"
     inkscape:cy="43.52965"
     inkscape:window-width="1920"
     inkscape:window-height="1022"
     inkscape:window-x="0"
     inkscape:window-y="30"
     inkscape:window-maximized="1"
     inkscape:current-layer="svg25" />
  <metadata
     id="metadata1">
Created by potrace 1.16, written by Peter Selinger 2001-2019
</metadata>
  <g
     transform="translate(0.000000,1254.000000) scale(0.100000,-0.100000)"
     fill="#000000"
     stroke="none"
     id="g25">
    <path
       d="M7230 12117 c-21 -6 -63 -39 -106 -81 -253 -252 -357 -745 -250 -1181 14 -55 21 -104 17 -108 -4 -4 -75 -32 -157 -61 -182 -64 -272 -107 -390 -184 -71 -46 -101 -60 -144 -66 -106 -14 -205 -75 -275 -168 -39 -53 -55 -64 -172 -122 -417 -210 -799 -568 -1118 -1046 -199 -298 -338 -570 -560 -1089 -164 -385 -171 -398 -277 -505 -102 -103 -192 -233 -238 -343 -35 -82 -70 -211 -70 -254 0 -22 -19 -43 -103 -115 -127 -110 -409 -391 -503 -504 -449 -538 -804 -1240 -908 -1800 -12 -64 -12 -65 -52 -73 -177 -39 -273 -77 -395 -159 -164 -109 -327 -316 -404 -512 -129 -329 -107 -680 65 -1032 83 -168 150 -263 291 -409 61 -64 67 -75 73 -124 13 -99 77 -233 165 -340 34 -42 35 -47 32 -110 -6 -141 52 -277 168 -391 168 -166 394 -207 514 -92 25 24 30 25 50 12 158 -101 215 -122 327 -124 70 -1 92 3 126 21 55 30 111 94 120 138 6 32 9 36 33 31 118 -22 222 -13 300 27 29 15 58 41 79 72 28 42 32 55 32 114 0 70 -21 129 -65 187 l-25 32 88 -35 c306 -124 663 -222 982 -268 172 -24 160 -19 160 -66 0 -43 33 -150 56 -183 45 -64 114 -122 189 -157 102 -47 224 -74 455 -99 l185 -20 140 -70 c77 -39 165 -77 195 -85 157 -41 326 6 390 110 l20 32 57 -19 c79 -26 219 -22 279 10 55 28 102 84 116 137 10 37 16 44 43 49 120 23 205 166 172 289 -7 26 -6 27 35 27 186 0 688 90 1007 181 457 129 779 275 1126 509 l74 50 -5 -33 c-2 -17 -6 -45 -7 -62 -3 -23 -14 -35 -51 -58 -27 -15 -71 -32 -100 -38 -106 -22 -194 -53 -303 -105 -285 -139 -407 -372 -282 -543 47 -65 120 -95 232 -95 l88 1 11 -46 c15 -58 86 -131 144 -149 92 -27 229 -13 353 37 29 12 54 20 55 19 54 -130 147 -188 299 -188 148 1 331 77 448 187 38 36 77 78 86 93 l15 27 87 -18 c126 -27 217 -33 290 -19 151 27 242 113 257 243 15 131 -65 266 -229 382 -17 12 -16 17 24 81 67 110 144 271 177 374 64 199 77 263 97 500 8 96 20 193 26 215 6 22 30 105 54 185 196 652 217 1204 64 1680 -39 121 -117 283 -162 335 l-34 40 -6 195 c-10 306 -52 589 -137 915 -66 254 -152 484 -225 604 -35 58 -35 60 -35 171 l0 112 28 -6 c15 -4 68 -27 119 -51 103 -50 149 -56 200 -25 43 26 58 59 77 168 20 117 65 232 114 297 29 36 61 62 122 95 46 25 93 58 104 73 30 40 27 115 -8 191 -40 89 -56 164 -56 263 0 141 44 256 141 373 65 78 79 106 79 155 0 55 -28 96 -98 144 -71 48 -104 85 -142 161 -55 110 -65 160 -63 334 2 180 -6 213 -59 246 -51 31 -90 25 -208 -29 -133 -62 -224 -88 -345 -97 l-95 -7 0 41 c0 22 -7 74 -15 114 -10 45 -14 91 -10 120 8 60 -8 110 -45 141 -16 14 -40 54 -56 93 -28 70 -103 204 -131 236 -15 16 -13 24 19 95 165 361 189 773 67 1137 -86 258 -216 412 -321 381 -86 -26 -100 -60 -109 -275 -9 -212 -34 -324 -108 -475 -65 -132 -209 -305 -255 -305 -6 0 -36 20 -66 45 -30 25 -88 62 -128 82 -66 33 -82 37 -176 41 -89 4 -117 1 -210 -23 -135 -34 -200 -30 -314 19 -126 56 -186 70 -297 69 -86 0 -114 -5 -193 -32 -68 -24 -97 -29 -110 -22 -35 19 -207 207 -255 278 -66 100 -125 223 -155 323 -23 76 -25 105 -27 275 -2 217 -9 241 -75 275 -43 22 -67 23 -120 7z m24 -545 c33 -153 109 -317 219 -472 69 -97 258 -289 365 -370 76 -58 82 -71 61 -127 -5 -15 -21 -45 -35 -65 -31 -44 -28 -77 8 -97 24 -14 29 -13 74 14 116 73 162 225 95 316 -12 16 -21 30 -21 33 0 13 84 30 150 30 67 -1 89 -6 204 -53 165 -67 251 -80 357 -57 41 8 99 22 129 31 118 33 222 10 304 -66 83 -78 296 -229 322 -229 12 0 30 10 38 21 17 25 9 53 -29 104 l-26 33 52 43 c71 61 161 169 219 264 89 146 141 309 163 508 l13 112 31 -80 c127 -331 122 -674 -14 -1021 -47 -118 -54 -127 -86 -115 -18 7 -30 6 -46 -5 -37 -26 -26 -58 48 -140 179 -199 274 -448 290 -764 l9 -165 55 -145 c61 -163 90 -268 112 -415 28 -184 18 -290 -55 -583 -22 -90 -60 -263 -85 -385 -52 -260 -89 -383 -156 -526 -52 -111 -58 -140 -33 -165 25 -25 48 -19 93 27 40 40 130 200 132 236 1 9 5 3 9 -14 23 -92 6 -416 -37 -692 -25 -163 -26 -172 -10 -197 21 -31 59 -34 86 -7 25 25 55 107 77 209 11 53 20 78 26 69 31 -56 122 -355 162 -532 121 -540 131 -945 35 -1377 -23 -107 -24 -136 -2 -160 65 -72 141 51 198 317 l7 30 13 -26 c26 -49 66 -164 90 -260 46 -181 59 -298 59 -529 0 -320 -37 -541 -167 -980 -53 -179 -63 -234 -77 -423 -13 -170 -30 -263 -76 -403 -62 -193 -221 -475 -271 -482 -47 -7 -71 -83 -35 -115 9 -8 43 -27 74 -40 173 -76 283 -214 238 -298 -38 -70 -211 -71 -436 -2 -46 14 -54 14 -85 -1 -21 -10 -48 -38 -73 -76 -73 -115 -179 -191 -311 -225 -131 -34 -215 -8 -215 67 1 41 40 111 95 169 30 32 55 65 55 74 0 18 -43 65 -60 65 -44 0 -135 -62 -175 -120 -20 -30 -40 -44 -83 -59 -32 -11 -95 -36 -142 -55 -97 -41 -205 -50 -234 -20 -53 53 25 196 155 285 49 33 59 45 59 69 0 104 -157 66 -283 -70 -70 -75 -105 -91 -208 -93 -137 -3 -147 91 -21 203 94 84 257 155 432 190 63 12 215 95 243 132 13 18 21 54 28 129 5 57 19 145 31 195 l23 91 111 105 c264 251 441 460 619 728 283 426 465 874 465 1143 0 92 -15 127 -55 127 -35 0 -52 -23 -75 -103 -77 -271 -121 -388 -226 -605 -172 -359 -385 -669 -666 -970 -531 -567 -1093 -878 -1924 -1061 -278 -61 -629 -111 -787 -111 -63 0 -78 4 -108 26 -81 61 -238 120 -391 149 -53 10 -121 32 -173 56 -46 22 -115 48 -152 57 -38 9 -69 22 -71 27 -2 6 0 51 3 101 14 177 -27 455 -103 709 l-39 129 38 81 c44 93 85 228 100 329 8 49 18 79 34 96 81 90 164 276 191 431 19 112 14 249 -13 354 l-18 70 32 -3 c31 -4 35 -1 55 44 19 42 22 65 21 164 -2 222 -76 409 -221 563 -60 62 -91 72 -116 36 -18 -26 -14 -37 53 -154 104 -181 147 -328 153 -521 l3 -100 -29 15 c-26 12 -33 12 -55 0 -33 -19 -36 -44 -21 -189 17 -170 -5 -313 -71 -459 -23 -50 -32 -62 -41 -53 -18 18 -66 14 -86 -6 -15 -15 -20 -41 -26 -121 -7 -111 -26 -217 -57 -314 -26 -86 -31 -92 -57 -76 -34 21 -75 1 -86 -42 -7 -28 -3 -51 24 -124 135 -379 182 -674 150 -952 l-14 -116 31 -27 c23 -21 45 -29 93 -34 81 -9 199 -47 270 -87 36 -20 90 -37 158 -50 57 -11 136 -32 175 -46 185 -66 301 -184 253 -258 -26 -39 -75 -34 -105 10 -91 134 -348 235 -392 154 -22 -42 -4 -65 84 -107 98 -48 168 -106 196 -165 28 -57 26 -82 -5 -114 -22 -22 -32 -25 -77 -21 -30 2 -83 19 -125 38 -62 29 -79 41 -109 87 -85 128 -268 225 -338 179 -21 -14 -26 -24 -23 -49 3 -27 12 -36 68 -68 222 -124 241 -312 30 -295 -55 4 -87 16 -215 80 -160 80 -187 88 -380 106 -211 20 -321 43 -406 86 -91 45 -157 152 -131 210 29 61 19 81 -92 188 -372 361 -596 788 -683 1302 -14 84 -18 162 -18 344 0 267 11 353 76 609 21 85 39 165 39 178 0 58 -44 92 -92 72 -23 -9 -38 -28 -59 -73 -16 -34 -29 -68 -29 -75 0 -34 -20 9 -45 94 -31 108 -52 236 -60 365 -8 126 -11 137 -40 156 -23 15 -27 15 -50 0 -35 -23 -45 -73 -45 -222 0 -204 40 -380 123 -539 l42 -80 -18 -100 c-27 -151 -34 -513 -13 -675 61 -460 236 -878 517 -1230 37 -47 63 -86 58 -88 -15 -6 -226 37 -369 74 -267 70 -507 156 -686 248 -127 64 -120 57 -90 103 120 182 105 458 -40 704 -58 100 -159 210 -229 250 -57 33 -77 36 -99 13 -27 -27 -18 -52 42 -117 73 -79 114 -138 157 -230 101 -211 99 -452 -3 -560 -59 -62 -157 -92 -379 -117 -125 -13 -251 -2 -411 37 -116 28 -133 27 -156 -9 -26 -42 79 -112 221 -149 113 -28 257 -39 373 -28 l99 10 28 -29 c19 -20 48 -35 93 -46 149 -39 302 -146 330 -231 11 -33 10 -39 -7 -56 -31 -31 -105 -34 -210 -9 -90 21 -94 23 -150 82 -58 60 -100 87 -177 114 -109 39 -160 -53 -58 -105 84 -43 172 -159 172 -226 0 -100 -136 -83 -301 36 -141 102 -189 119 -229 79 -11 -11 -20 -33 -20 -50 0 -20 -9 -40 -26 -57 -23 -23 -31 -25 -74 -20 -144 17 -292 170 -307 318 -3 30 -1 77 4 105 12 63 4 87 -47 139 -39 40 -133 176 -126 182 2 2 25 -8 51 -22 79 -41 135 -31 135 25 0 30 -18 48 -140 142 -324 249 -543 617 -579 972 -28 278 82 581 283 781 348 346 886 308 1281 -89 200 -202 329 -437 431 -789 40 -141 62 -187 89 -187 6 0 24 -33 40 -73 71 -187 182 -364 310 -495 76 -77 95 -92 121 -92 38 0 58 21 50 53 -3 13 -32 55 -63 93 -84 101 -165 225 -227 350 -71 142 -107 236 -157 414 -133 469 -358 811 -671 1020 -160 108 -298 164 -472 195 -49 8 -91 17 -93 18 -6 6 66 283 102 392 125 377 359 815 621 1162 167 221 453 521 663 696 110 91 119 103 126 157 13 92 45 211 74 274 45 99 97 171 206 286 120 126 135 153 305 550 67 157 162 366 210 465 384 782 826 1280 1400 1580 126 65 138 75 192 142 73 90 109 112 201 124 65 9 82 17 168 75 109 72 244 138 369 179 47 15 107 39 133 52 27 13 50 23 51 21 1 -2 24 -41 50 -87 l48 -84 -21 -37 c-12 -21 -24 -58 -27 -82 -13 -95 59 -181 116 -141 20 14 22 22 16 74 -3 36 -2 59 4 59 6 0 10 -5 10 -10 0 -21 92 -68 154 -80 140 -26 341 59 320 136 -9 34 -41 43 -99 28 -80 -20 -215 -23 -215 -4 0 6 -29 53 -65 106 -164 239 -237 467 -239 744 -2 248 51 442 173 638 l26 42 7 -117 c3 -65 13 -151 22 -191z m3592 -2280 c2 -224 55 -363 191 -500 l82 -84 -39 -53 c-101 -137 -161 -312 -160 -469 1 -86 23 -200 54 -276 15 -36 22 -66 17 -68 -30 -10 -108 -71 -158 -126 -72 -77 -125 -181 -158 -312 -14 -53 -27 -99 -29 -101 -2 -2 -19 5 -37 17 -43 26 -152 60 -193 60 l-31 0 -24 136 c-24 135 -24 137 -7 234 9 54 21 111 25 126 7 26 9 22 16 -31 12 -94 52 -221 101 -322 45 -94 69 -119 104 -108 42 13 42 37 -1 157 -59 165 -90 305 -98 438 -6 107 -8 116 -29 125 -19 8 -21 15 -16 40 8 39 13 44 25 23 20 -35 111 -137 161 -180 122 -104 227 -151 257 -115 24 30 8 60 -69 121 -41 33 -102 87 -135 121 -60 60 -199 234 -193 240 2 2 23 -10 48 -26 24 -16 54 -32 67 -35 31 -8 63 21 63 57 0 23 -16 41 -89 100 l-88 72 -6 76 c-3 42 -5 76 -4 78 1 1 29 -5 62 -13 118 -29 330 -17 407 22 37 19 47 60 21 86 -19 19 -25 19 -119 8 -54 -7 -128 -9 -164 -5 -86 9 -231 45 -235 59 -5 15 -52 188 -57 204 -2 8 20 22 54 37 76 31 193 108 214 140 13 21 15 31 6 50 -14 31 -39 32 -95 4 -65 -32 -137 -60 -190 -74 -53 -15 -50 -17 -71 53 -7 22 -6 22 76 22 123 0 284 41 393 98 22 12 42 21 45 22 3 0 6 -57 6 -128z"
       id="path1" />
    <path
       d="M9392 10325 c-16 -12 -22 -25 -20 -42 3 -28 5 -30 90 -68 84 -38 170 -107 236 -188 43 -53 65 -73 86 -75 87 -10 69 96 -37 218 -105 120 -291 201 -355 155z"
       id="path2" />
    <path
       d="M8020 10276 c-105 -37 -214 -142 -274 -262 -33 -66 -33 -99 -1 -120 36 -23 59 -10 111 64 62 89 126 155 196 203 66 45 83 70 69 98 -18 33 -46 38 -101 17z"
       id="path3" />
    <path
       d="M7965 9701 c-92 -41 -147 -131 -149 -241 -1 -55 4 -76 29 -125 93 -180 329 -174 420 10 31 63 27 175 -8 242 -58 112 -187 162 -292 114z"
       id="path4" />
    <path
       d="M9702 9689 c-73 -36 -114 -114 -114 -219 0 -111 49 -195 136 -236 61 -29 97 -30 152 -5 135 61 165 282 56 403 -68 76 -151 96 -230 57z"
       id="path5" />
    <path
       d="M5578 9570 c-35 -10 -66 -33 -86 -62 -13 -18 -18 -57 -23 -168 -5 -120 -11 -157 -31 -212 -69 -185 -198 -317 -412 -419 -95 -45 -128 -83 -128 -145 0 -61 20 -90 109 -156 104 -77 179 -165 239 -281 58 -113 91 -209 109 -322 18 -109 19 -179 4 -310 -14 -117 -6 -144 51 -183 32 -22 40 -23 105 -15 155 18 259 1 389 -64 98 -49 224 -177 288 -293 82 -149 89 -159 134 -176 51 -20 97 -8 136 34 23 25 122 160 251 345 68 97 147 255 177 352 35 115 60 287 60 413 1 183 17 430 34 510 9 40 28 113 42 162 26 91 25 117 -2 145 -65 64 -159 -63 -210 -282 -21 -93 -26 -147 -34 -383 -10 -297 -24 -403 -69 -535 -46 -133 -83 -196 -240 -412 l-95 -132 -33 57 c-121 214 -327 376 -543 428 -42 10 -114 18 -164 18 l-89 0 7 88 c12 172 -35 402 -120 587 -52 114 -135 229 -225 316 -46 43 -78 80 -72 82 6 2 51 27 99 56 110 65 233 184 298 290 81 130 135 323 123 440 -3 33 -1 47 7 44 69 -27 231 -72 334 -94 112 -23 150 -27 327 -27 202 -1 240 4 361 51 14 5 14 3 3 -16 -12 -18 -12 -25 1 -48 38 -68 182 -101 190 -43 5 33 -3 41 -76 83 l-76 45 30 17 c54 32 78 99 48 137 -27 36 -58 38 -134 7 -123 -49 -216 -63 -387 -56 -168 7 -295 30 -521 96 -149 44 -146 43 -186 31z"
       id="path6" />
    <path
       d="M6023 9269 c-25 -9 -30 -36 -10 -61 27 -36 232 -125 372 -163 143 -38 232 -48 372 -42 157 6 250 32 301 83 28 28 33 39 27 62 -15 61 -46 67 -170 33 -119 -34 -313 -32 -495 4 -120 23 -353 80 -369 89 -3 2 -16 0 -28 -5z"
       id="path7" />
    <path
       d="M8965 9048 c-29 -26 -36 -73 -16 -112 16 -28 61 -56 93 -56 25 0 60 31 71 63 16 43 -49 127 -99 127 -12 0 -35 -10 -49 -22z"
       id="path8" />
    <path
       d="M9387 9039 c-22 -13 -47 -61 -47 -92 0 -13 9 -36 21 -51 56 -71 168 10 138 101 -16 49 -67 68 -112 42z"
       id="path9" />
    <path
       d="M6750 8939 c-30 -4 -111 -13 -180 -19 -184 -16 -312 -38 -332 -57 -10 -9 -18 -28 -18 -43 0 -44 34 -52 175 -41 66 5 122 8 123 6 7 -7 -136 -46 -253 -70 -181 -37 -291 -46 -631 -53 -331 -7 -344 -10 -344 -57 0 -40 29 -54 140 -64 492 -46 867 -4 1147 129 116 55 289 164 303 191 16 29 11 57 -12 73 -24 17 -35 18 -118 5z"
       id="path10" />
    <path
       d="M8530 8733 c-103 -6 -384 -44 -511 -69 -269 -52 -574 -153 -605 -199 -24 -36 -21 -85 6 -107 33 -27 73 -22 205 23 306 103 651 160 1080 178 545 23 1009 -35 1363 -170 111 -43 137 -44 172 -9 26 26 25 71 -2 105 -71 91 -521 210 -923 244 -109 10 -650 12 -785 4z"
       id="path11" />
    <path
       d="M6690 8673 c-73 -55 -218 -205 -384 -398 -197 -228 -378 -407 -552 -547 -67 -53 -124 -106 -127 -117 -6 -26 19 -61 44 -61 41 0 168 78 299 184 119 97 304 287 465 476 82 96 196 225 253 285 117 123 130 146 107 181 -21 32 -61 31 -105 -3z"
       id="path12" />
    <path
       d="M6638 8310 c-24 -15 -35 -59 -53 -220 -25 -226 -59 -375 -145 -633 -44 -130 -80 -251 -80 -267 0 -40 32 -58 66 -35 46 30 148 257 208 463 62 209 106 514 90 621 -10 65 -45 94 -86 71z"
       id="path13" />
    <path
       d="M7234 7435 c-15 -24 -15 -28 1 -70 36 -95 163 -235 269 -296 28 -16 79 -38 114 -49 71 -22 105 -16 123 24 17 37 -3 62 -84 102 -117 59 -179 107 -278 214 -51 55 -101 100 -111 100 -9 0 -25 -11 -34 -25z"
       id="path14" />
    <path
       d="M3991 7174 c-35 -43 -82 -165 -107 -280 -26 -118 -23 -343 5 -448 42 -159 125 -286 184 -286 53 0 61 52 22 130 -98 194 -111 482 -35 766 22 83 25 107 16 126 -19 37 -49 34 -85 -8z"
       id="path15" />
    <path
       d="M7160 7045 c-23 -27 -6 -108 42 -207 93 -192 254 -357 424 -435 85 -39 154 -30 154 19 0 35 -18 54 -97 100 -165 97 -324 271 -421 464 -37 73 -73 94 -102 59z"
       id="path16" />
    <path
       d="M6913 6712 c-53 -34 15 -242 130 -399 107 -144 281 -246 323 -188 24 33 16 57 -33 99 -77 66 -169 162 -205 214 -18 26 -60 99 -93 162 -50 96 -64 115 -85 118 -14 1 -30 -1 -37 -6z"
       id="path17" />
    <path
       d="M6679 6543 c-37 -44 7 -293 81 -465 73 -170 192 -318 256 -318 24 0 54 33 54 61 0 8 -17 40 -39 70 -90 127 -186 340 -236 525 -15 54 -33 109 -41 122 -17 26 -56 29 -75 5z"
       id="path18" />
    <path
       d="M3356 6260 c-53 -64 -101 -208 -115 -345 -22 -218 50 -461 169 -569 49 -44 91 -48 115 -12 18 28 13 44 -39 130 -105 174 -131 411 -70 643 37 140 38 147 19 166 -25 25 -50 21 -79 -13z"
       id="path19" />
    <path
       d="M3656 6228 c-21 -30 -21 -154 -1 -233 35 -133 122 -265 196 -295 36 -15 78 -1 80 27 2 33 -2 44 -47 110 -52 78 -99 197 -122 303 -8 41 -22 83 -30 93 -21 24 -58 21 -76 -5z"
       id="path20" />
    <path
       d="M10165 5859 c-4 -5 -20 -59 -36 -119 -35 -137 -69 -221 -131 -331 -63 -113 -63 -169 0 -169 62 0 190 200 232 365 24 92 29 210 12 243 -13 23 -65 31 -77 11z"
       id="path21" />
    <path
       d="M10284 5316 c-12 -8 -29 -37 -39 -63 -59 -156 -144 -285 -255 -383 -57 -50 -70 -68 -70 -91 0 -99 169 -28 286 119 116 146 185 384 122 423 -18 12 -20 11 -44 -5z"
       id="path22" />
    <path
       d="M9669 5223 c-14 -16 -42 -54 -63 -86 -57 -86 -172 -187 -265 -236 -93 -48 -110 -70 -87 -107 24 -35 57 -39 135 -15 85 26 208 114 269 194 91 118 130 242 83 267 -30 16 -45 12 -72 -17z"
       id="path23" />
    <path
       d="M5333 5080 c-46 -10 -65 -29 -61 -59 4 -31 31 -45 118 -61 165 -29 298 -130 465 -354 54 -72 64 -81 96 -84 32 -3 38 1 48 25 9 22 9 36 -1 63 -60 163 -224 347 -380 426 -89 45 -206 63 -285 44z"
       id="path24" />
    <path
       d="M10475 3168 c-11 -6 -42 -29 -69 -51 -54 -42 -138 -87 -201 -107 -51 -16 -75 -37 -75 -65 0 -106 239 -43 364 96 34 38 46 59 46 83 0 50 -25 67 -65 44z"
       id="path25" />
  </g>
  <path
     style="fill:#ffffff;stroke-width:1.57162"
     d="m 501.71207,1140.1147 c -15.66336,-7.3231 -18.63313,-8.1369 -39.94747,-10.9467 -31.15744,-4.1074 -39.08608,-6.5741 -46.63498,-14.5089 -5.76816,-6.0631 -6.01491,-6.7403 -5.06483,-13.9023 l 0.99871,-7.5286 -14.58037,-15.927 c -28.49758,-31.1296 -44.81685,-57.6434 -55.24676,-89.75907 -9.15921,-28.2029 -10.71889,-39.76448 -10.09022,-74.79603 0.5154,-28.71858 0.96345,-32.81326 5.92163,-54.1179 5.98668,-25.72384 5.60393,-28.63978 -3.63805,-27.71635 -3.81185,0.38088 -5.40061,1.7985 -8.14537,7.26794 l -3.40986,6.79478 -2.56221,-9.1522 c -2.50709,-8.95535 -4.85739,-23.67618 -6.66874,-41.76883 -1.09369,-10.92426 -4.47369,-13.90983 -10.35438,-9.14609 -3.51647,2.84859 -3.6761,3.85483 -3.54918,22.37273 0.14755,21.52806 3.42471,36.72569 11.39948,52.86413 3.94824,7.99 4.26273,9.72478 2.90632,16.03177 -0.83656,3.88975 -1.5781,21.92405 -1.64784,40.07622 -0.10977,28.56083 0.34267,35.15097 3.36077,48.95233 7.69723,35.19837 22.78926,69.16237 42.82592,96.37777 6.02765,8.1873 10.95938,15.0651 10.95938,15.284 0,0.698 -9.67356,-1.2802 -29.45471,-6.0231 -24.2918,-5.8246 -52.05813,-15.3543 -70.53094,-24.2072 l -14.33256,-6.8687 3.74881,-7.575 c 9.07728,-18.3419 7.63353,-41.74809 -3.97914,-64.51083 -8.86813,-17.38297 -29.59596,-35.14626 -35.39544,-30.3331 -3.86165,3.20488 -3.13545,5.23557 5.74819,16.074 4.53804,5.5366 10.72628,15.3509 13.75164,21.80956 5.20945,11.12132 5.50066,12.63109 5.50066,28.51797 0,14.5465 -0.43605,17.365 -3.28245,21.2168 -5.6361,7.6269 -14.62636,11.4021 -33.71403,14.1574 -16.52453,2.3853 -18.5531,2.3689 -33.51577,-0.2721 -25.14515,-4.4383 -28.68558,-4.6295 -29.84347,-1.6121 -3.97528,10.3595 24.10651,20.411 54.23378,19.4123 12.23531,-0.4056 15.73275,-0.011 18.07358,2.0371 1.59637,1.397 5.7314,3.4332 9.18896,4.5249 16.91325,5.3401 32.21813,16.9152 32.21813,24.3666 0,5.1871 -5.19229,6.3371 -17.83787,3.9511 -7.9615,-1.5022 -11.32813,-3.1238 -16.87764,-8.1291 -12.324,-11.1155 -25.1239,-15.5278 -29.55543,-10.1882 -2.67793,3.2267 -0.56527,6.8453 7.05918,12.0911 7.92982,5.4558 15.50006,17.1474 14.05366,21.7046 -2.21968,6.9936 -10.44767,5.2185 -28.3673,-6.1198 -18.77236,-11.8778 -23.07632,-12.1202 -26.51107,-1.4933 -1.45981,4.5166 -2.61534,5.5317 -6.75325,5.9328 -9.79788,0.9497 -24.6145,-10.3516 -29.78007,-22.7146 -1.18845,-2.8444 -2.16082,-10.1413 -2.16082,-16.2155 0,-10.9002 -0.10187,-11.1702 -7.83477,-20.7667 -4.30913,-5.3476 -7.63249,-9.9251 -7.38526,-10.1724 0.24723,-0.2472 3.03745,0.3448 6.20048,1.3155 4.46349,1.3699 6.29275,1.3154 8.17106,-0.2434 4.1688,-3.4598 2.68041,-7.5442 -5.00165,-13.7255 -24.285128,-19.5406 -40.807991,-38.73881 -51.186343,-59.4744 -9.917138,-19.81411 -12.915044,-32.13985 -12.789023,-52.58146 0.09998,-16.21762 0.609986,-19.39618 4.966491,-30.95317 6.11709,-16.22749 13.782607,-27.81978 25.679475,-38.83418 45.66845,-42.28093 116.33213,-18.79113 151.64198,50.40833 3.6853,7.2224 9.68947,22.41383 13.3426,33.75875 3.65311,11.34493 8.01151,21.99662 9.68532,23.67042 1.67382,1.67382 4.9361,7.45844 7.24953,12.85472 6.67095,15.56064 15.98322,30.35353 25.96592,41.24789 10.42953,11.382 13.94933,13.7458 18.37589,12.3409 5.09276,-1.6164 3.59527,-5.9163 -7.12758,-20.46642 -14.59945,-19.8104 -24.35617,-39.93916 -35.03087,-72.27109 -13.61488,-41.2372 -23.96824,-60.30811 -44.23198,-81.4754 -19.02364,-19.8719 -41.9608,-33.28577 -65.34063,-38.21184 -6.90921,-1.45576 -12.77269,-2.78917 -13.02994,-2.96314 -0.25726,-0.17397 1.38995,-7.64959 3.66046,-16.61249 7.98168,-31.50795 22.56944,-65.39565 42.61054,-98.9852 21.86915,-36.65343 45.75188,-65.27594 84.64728,-101.44637 l 18.86579,-17.54408 2.70881,-13.10244 c 3.62787,-17.5479 9.94338,-29.37359 24.22019,-45.35187 12.88984,-14.42602 17.76042,-23.09427 33.5391,-59.69012 31.95044,-74.10338 57.75421,-115.68718 95.10912,-153.2722 20.64012,-20.76724 40.87537,-35.88721 66.91982,-50.00312 5.6879,-3.08281 13.28941,-8.80308 16.89228,-12.71172 8.29832,-9.00261 12.02382,-11.33731 20.18498,-12.64955 3.60629,-0.57986 9.92306,-3.18906 14.0373,-5.79822 9.57175,-6.07024 26.68222,-14.7942 34.56831,-17.62505 3.37181,-1.21037 9.8008,-3.66477 14.28665,-5.45423 l 8.15609,-3.25355 4.68563,8.1158 c 4.34233,7.52119 4.522,8.43222 2.45232,12.43455 -4.9652,9.60166 -0.058,24.14337 7.77064,23.02688 2.61959,-0.37359 3.46002,-1.74222 3.835,-6.24509 l 0.4802,-5.76665 8.73655,3.99973 c 10.37992,4.75208 20.21121,4.30107 31.81294,-1.45939 6.16803,-3.06253 7.2102,-4.26147 7.2102,-8.29483 v -4.71485 l -14.93035,0.4845 c -14.92231,0.48423 -14.93172,0.48211 -17.45967,-3.92904 -1.39113,-2.42745 -5.52835,-9.29086 -9.19383,-15.25203 -22.14684,-36.01741 -25.12632,-81.70328 -7.64652,-117.248239 l 6.56937,-13.358738 1.29672,12.57293 c 1.76141,17.078715 7.6111,35.153077 16.36853,50.575447 7.86094,13.84362 27.37477,35.94149 42.06368,47.6338 4.91539,3.91264 8.86374,8.32443 8.86374,9.90414 0,1.56675 -1.59126,5.62504 -3.53613,9.01843 -3.92351,6.84567 -2.78939,11.33312 3.087,12.21453 3.79656,0.56945 12.24631,-6.20203 15.43594,-12.37009 2.70877,-5.23821 3.06132,-18.93287 0.55197,-21.44221 -6.93218,-6.93218 14.86519,-7.12397 32.43137,-0.28535 15.64591,6.09106 27.96124,7.2372 42.1024,3.91834 21.09571,-4.95106 23.86404,-4.11724 48.42329,14.58519 14.91984,11.36179 18.99283,13.57677 22.49461,12.23301 3.10432,-1.19124 3.17202,-7.18051 0.13027,-11.52322 -2.19344,-3.1316 -1.7639,-3.91278 7.46518,-13.57653 10.9315,-11.44633 18.43525,-23.00686 24.20467,-37.29052 4.34718,-10.76251 8.30794,-27.84703 8.34903,-36.013101 0.0686,-13.638648 8.4911,11.365431 11.12488,33.026841 2.68594,22.09041 -1.41776,47.47715 -11.49851,71.13343 -2.38843,5.60485 -3.93024,7.40185 -5.90717,6.88488 -3.43189,-0.89746 -7.83646,1.55472 -7.83646,4.36285 0,1.19571 3.91692,6.9952 8.70429,12.88774 10.28131,12.65481 19.82433,31.6107 23.4823,46.64434 1.44327,5.93161 3.25273,18.6617 4.02101,28.2891 1.12874,14.1441 2.6004,20.87427 7.66627,35.05925 8.4186,23.57297 11.72006,41.73257 10.66609,58.66847 -0.47331,7.60527 -4.63996,30.28067 -9.67442,52.64914 -11.53813,51.26492 -12.831,56.111 -18.44863,69.15112 -6.4617,14.99949 -7.43255,18.6876 -5.72331,21.74187 3.56831,6.3762 12.2179,-0.0674 19.09693,-14.22656 1.79819,-3.70122 3.94468,-6.7295 4.76995,-6.7295 1.99185,0 0.15515,35.66084 -3.00289,58.30294 -1.34026,9.60932 -2.22186,20.04779 -1.95911,23.19662 0.40367,4.83753 1.10775,5.79838 4.54131,6.19751 5.49398,0.63864 7.62198,-2.38135 11.74106,-16.6624 l 3.48518,-12.08334 5.60759,17.70889 c 6.13688,19.3804 12.01131,44.31325 16.1898,68.71429 3.6941,21.57235 3.67799,70.11035 -0.0295,88.79632 -4.64821,23.42744 -5.01442,30.03814 -1.79438,32.39267 5.93534,4.34004 11.25144,-2.46446 17.32614,-22.17717 l 3.39016,-11.00131 3.5479,9.4297 c 8.1453,21.64922 10.1974,35.55508 10.2045,69.15111 0.01,34.94192 -1.4883,45.89375 -10.966,80.29602 -3.074,11.15808 -6.57143,24.00892 -7.77197,28.55743 -1.20056,4.54849 -3.29051,18.37791 -4.64433,30.73204 -2.47017,22.54116 -5.39298,35.29041 -11.77574,51.36591 -5.67374,14.2897 -14.33658,28.6654 -21.64218,35.9145 -9.31701,9.2449 -8.69555,12.1293 4.06733,18.8779 11.30566,5.9781 21.38025,15.5126 22.93445,21.705 2.44317,9.7344 -10.35747,13.5986 -30.57486,9.2299 -6.48292,-1.4009 -13.71728,-2.9602 -16.07634,-3.4651 -4.5053,-0.9642 -4.79971,-0.7255 -20.54284,16.6587 -10.50759,11.6029 -31.59735,18.8405 -39.60708,13.5923 -5.45922,-3.577 -4.9766,-8.8114 1.55961,-16.9153 8.99561,-11.1532 9.77978,-13.4513 5.91029,-17.3208 -3.00253,-3.0026 -3.7834,-3.1192 -8.31484,-1.2422 -2.75061,1.1393 -8.00949,5.0373 -11.68639,8.6621 -4.73399,4.667 -10.45629,8.0306 -19.60533,11.5243 -30.16483,11.5189 -37.84893,2.2972 -15.70902,-18.8523 10.98738,-10.4958 12.49565,-13.2956 9.02962,-16.7617 -4.77117,-4.7711 -14.38818,-0.9881 -28.36123,11.1566 -7.64308,6.6429 -10.23726,7.9647 -16.88675,8.6036 -14.6658,1.4092 -16.91642,-6.1655 -5.11251,-17.2066 8.85665,-8.2844 20.52927,-14.0989 37.50151,-18.6807 11.76111,-3.1751 23.35501,-8.5926 29.18918,-13.6394 1.58711,-1.373 3.07881,-5.8736 3.70423,-11.1761 0.57591,-4.8827 2.05436,-13.8025 3.28545,-19.8218 l 2.23836,-10.9442 22.42942,-22.84556 c 25.30476,-25.77424 38.09918,-41.62157 55.2091,-68.38268 24.85824,-38.88002 40.02563,-76.73658 41.3515,-103.20997 0.72581,-14.492 0.60347,-15.24309 -2.7777,-17.05264 -5.54671,-2.96851 -8.09997,1.25183 -16.43138,27.15975 -12.96258,40.30933 -36.34321,82.93694 -64.83593,118.20899 -15.40503,19.07037 -46.9871,50.14717 -64.11797,63.09211 -49.92261,37.7241 -110.96321,60.9945 -188.59395,71.8972 -32.07205,4.5043 -39.20527,4.7776 -45.03672,1.7255 -16.04011,-8.3949 -22.23614,-10.8672 -37.34147,-14.8996 -9.1485,-2.4423 -22.29146,-6.541 -29.20657,-9.1083 l -12.57293,-4.668 -0.97599,-21.8013 c -0.94542,-21.1185 -5.90219,-48.88015 -11.62188,-65.09148 -2.07541,-5.88237 -1.93873,-6.81196 2.55425,-17.37032 2.61088,-6.13545 6.03195,-17.0352 7.6024,-24.22167 1.79846,-8.2299 4.34792,-15.02318 6.88776,-18.35308 6.34525,-8.31906 13.46803,-24.8705 16.1689,-37.57227 2.37956,-11.19062 2.26455,-25.84585 -0.30285,-38.59147 -0.8212,-4.07674 -0.43683,-5.12733 2.17968,-5.95777 10.05496,-3.19133 8.25062,-39.54192 -3.01157,-60.67195 -6.25539,-11.73633 -16.99405,-23.50352 -21.44915,-23.50352 -6.14132,0 -5.78123,5.53678 1.20207,18.48338 8.80317,16.32052 13.66468,31.55807 14.97911,46.94942 l 1.09172,12.78365 -3.81876,-0.73 c -6.63163,-1.26772 -8.08848,2.55739 -7.16173,18.80385 1.02328,17.93896 -0.90978,32.34888 -5.76103,42.94542 -3.12519,6.82633 -4.37542,8.1033 -7.93361,8.1033 -2.32309,0 -4.94857,0.72477 -5.83438,1.61058 -0.88582,0.88583 -2.26949,7.51608 -3.07482,14.7339 -1.41707,12.70069 -2.93053,20.11201 -6.29045,30.80401 -1.30862,4.1643 -2.41792,5.10776 -6.00564,5.10776 -6.54653,0 -8.8859,3.66397 -6.85025,10.72898 0.91487,3.17514 4.24689,14.55515 7.40448,25.28888 8.57397,29.1459 10.89102,45.7763 9.69732,69.6017 -1.16294,23.2116 -1.27084,23.0287 15.60707,26.4448 5.18496,1.0494 13.31807,3.6726 18.07359,5.8294 4.75551,2.1568 15.24444,5.5948 23.30874,7.64 24.53956,6.2236 40.3077,16.5399 39.24027,25.6731 -0.70372,6.0212 -5.06813,5.7204 -10.95442,-0.755 -13.74702,-15.1229 -39.01916,-21.3409 -39.01916,-9.6005 0,2.7445 2.23853,4.8383 9.59893,8.9784 15.94897,8.9709 24.07672,20.6071 18.37584,26.3079 -2.54713,2.5472 -7.1283,2.3723 -15.86864,-0.6059 -5.38953,-1.8364 -9.40606,-4.9077 -15.26965,-11.6761 -11.55974,-13.3436 -28.6156,-21.0037 -34.24095,-15.3784 -3.77038,3.7704 -1.74207,7.3705 8.11578,14.4049 14.66994,10.4683 18.69688,21.1291 9.32684,24.6916 -6.93987,2.6385 -12.08128,1.4932 -29.17759,-6.4998 z M 961.63,949.9732 c 7.63256,-3.81188 17.82507,-13.38507 18.33291,-17.21893 1.20473,-9.09493 -3.247,-10.38304 -12.22089,-3.53614 -3.11551,2.37707 -10.67101,6.80325 -16.79002,9.83596 -8.53017,4.22773 -11.24919,6.38598 -11.65586,9.25197 -0.29172,2.05586 0.4155,4.37737 1.57162,5.15889 3.14041,2.12288 12.75904,0.50524 20.76224,-3.49175 z M 527.00973,786.8643 c 1.56946,-11.07951 -22.75267,-40.59165 -39.95592,-48.482 -11.60501,-5.32267 -28.64755,-6.17449 -33.16589,-1.65768 -4.22183,4.2204 -0.92096,7.79751 9.91645,10.74635 18.59992,5.061 26.5129,10.68962 43.32438,30.81732 9.35742,11.20325 11.65553,13.12677 15.19384,12.71722 2.98816,-0.34585 4.31566,-1.51873 4.68714,-4.14121 z m 403.64203,-19.25314 c 13.00302,-6.29466 27.1449,-26.54925 30.28961,-43.38207 1.51173,-8.09198 -0.0971,-14.64433 -3.5957,-14.64433 -3.12647,0 -5.10865,2.80631 -11.89623,16.84213 -4.0435,8.36145 -9.61969,16.29492 -17.1975,24.46761 -11.41388,12.30989 -12.67283,14.75242 -9.32789,18.09735 2.56315,2.56315 3.90782,2.40484 11.72771,-1.38069 z m -57.23847,-5.75221 c 4.09898,-2.22203 10.58498,-7.1281 14.41331,-10.90235 11.87166,-11.70397 18.92882,-30.12393 12.48813,-32.59545 -4.42377,-1.69755 -7.40701,0.40785 -14.56928,10.28222 -7.14708,9.85341 -16.30398,17.84316 -28.99682,25.30085 -7.7619,4.56052 -8.87163,7.26936 -4.69079,11.4502 3.32658,3.32658 11.05821,2.04658 21.35545,-3.53547 z m 60.75272,-48.40318 c 10.04644,-11.44226 17.44766,-31.18203 17.44766,-46.53461 0,-7.5745 -0.54055,-9.37843 -3.24369,-10.82512 -4.76324,-2.54921 -6.85995,-0.008 -10.09138,12.2323 -1.5406,5.83544 -6.24273,18.09383 -10.44918,27.24084 -4.20644,9.14702 -7.64808,17.69269 -7.64808,18.99036 0,6.5699 7.7867,5.95532 13.98467,-1.10377 z m -655.16076,-3.13745 c 1.66324,-2.00409 0.91347,-4.71541 -4.45477,-16.10906 -10.43664,-22.15088 -11.75247,-37.36487 -5.55183,-64.19159 2.94156,-12.72647 2.20081,-16.76036 -2.94157,-16.01884 -11.94529,1.72251 -20.63405,39.67791 -14.77921,64.56054 5.60244,23.80997 20.32716,40.67568 27.72738,31.75895 z M 316.784,673.38229 c 4.28327,-2.29234 3.83704,-5.08084 -2.67701,-16.72908 -3.14432,-5.62255 -7.58266,-16.28027 -9.86301,-23.6838 -4.4032,-14.2958 -7.53222,-18.18271 -11.79162,-14.64774 -1.82717,1.51644 -2.48915,4.9247 -2.48915,12.81575 0,16.79611 7.69265,33.89703 18.43443,40.98007 5.14185,3.39051 4.57436,3.30492 8.38636,1.2648 z m 315.79693,-9.38443 c 1.39747,-2.6112 0.50344,-5.11029 -5.20063,-14.53745 -8.8201,-14.57706 -14.04544,-26.36385 -20.37492,-45.95975 -4.39814,-13.61649 -5.57751,-15.78703 -8.82765,-16.24657 -7.33005,-1.03642 -8.26649,7.01954 -3.25871,28.03369 7.69663,32.29728 30.59557,61.91365 37.66191,48.71008 z m 31.17232,-35.96533 c 0.41414,-2.92922 -2.23985,-6.56582 -12.04306,-16.50197 -8.63847,-8.7556 -14.85941,-16.91475 -19.875,-26.0673 -7.99123,-14.58255 -9.10501,-15.76037 -13.75375,-14.54469 -7.78986,2.0371 1.50931,30.03049 15.1078,45.47919 12.9268,14.68563 29.25401,20.90088 30.56401,11.63477 z m -325.57391,-2.69698 c 0.53295,-1.38884 -1.24582,-9.07239 -3.9528,-17.07456 -8.13159,-24.03787 -8.20433,-36.71167 -0.43539,-75.86654 2.68016,-13.50781 -5.88374,-14.7383 -12.48731,-1.79422 -11.38364,22.31378 -12.44838,58.95826 -2.35376,81.00781 6.23916,13.62813 16.46586,20.92883 19.22926,13.72751 z m 365.05635,-21.75947 c 3.12494,-3.76533 0.56873,-7.60711 -9.2756,-13.94044 -12.30591,-7.91699 -29.17547,-25.86021 -38.0085,-40.42757 -5.70171,-9.40321 -7.85643,-11.7153 -10.91791,-11.7153 -3.53926,0 -3.79581,0.53907 -3.55872,7.47763 0.45596,13.34322 16.11477,37.50279 31.65866,48.84527 15.64919,11.41931 25.95266,14.76014 30.10207,9.76041 z M 572.7376,563.5492 c 7.28012,-7.7934 29.99097,-41.1909 35.74214,-52.56071 8.86811,-17.53186 11.50012,-30.79573 13.29639,-67.00689 0.87902,-17.71997 2.5703,-36.81511 3.75843,-42.43364 1.18811,-5.61853 3.03878,-14.22493 4.11259,-19.12534 1.58982,-7.25516 1.56949,-9.3712 -0.10945,-11.39422 -3.63555,-4.38055 -9.06686,-3.00377 -13.4489,3.40918 -7.01243,10.26241 -10.29129,24.20479 -11.91958,50.68463 -3.91664,63.69339 -6.0417,70.69773 -32.53733,107.24453 l -7.67761,10.59013 -7.60205,-11.12599 c -15.93746,-23.32527 -40.57409,-37.41267 -65.61504,-37.51913 l -9.0368,-0.0384 v -14.72884 c 0,-29.6188 -11.36874,-59.54709 -30.64137,-80.6636 l -10.19681,-11.17237 6.66744,-3.9561 c 6.33168,-3.75685 6.69278,-3.80394 7.17012,-0.93491 0.82748,4.97343 5.58487,6.24531 28.21456,7.5431 37.33314,2.14105 69.29918,-1.26947 91.69284,-9.78287 10.88006,-4.13627 27.42711,-13.11943 35.57286,-19.31197 5.65348,-4.29789 6.95302,-10.97169 2.4713,-12.69148 -2.84909,-1.0933 -38.28289,1.98066 -52.37012,4.54323 -9.79367,1.78153 -12.57293,3.50568 -12.57293,7.79977 0,4.04536 5.3239,5.78341 15.71616,5.13072 l 8.64389,-0.54289 -11.78712,3.05221 c -17.81405,4.61285 -31.65322,6.15099 -64.02776,7.11628 -16.21587,0.48349 -31.60049,1.21558 -34.18803,1.62684 -4.5811,0.72813 -4.4911,0.54411 3.42844,-7.00952 15.61537,-14.89393 24.76521,-33.58643 26.72777,-54.60311 0.87452,-9.36502 1.1734,-9.99717 4.24654,-8.98166 1.8182,0.60082 9.28836,2.65993 16.60035,4.57583 12.67449,3.32098 13.29754,3.68999 13.35874,7.91203 0.0546,3.76495 1.35951,5.08599 8.70809,8.81561 4.75414,2.41285 15.36255,6.58336 23.57424,9.26777 25.59703,8.36771 58.00203,8.04653 71.0187,-0.70391 10.46789,-7.03701 5.32355,-16.5092 -7.36824,-13.56703 -8.46741,1.96291 -8.46249,1.96393 -7.54391,-1.54871 0.61912,-2.3675 -0.843,-4.0769 -6.31342,-7.38115 l -7.11911,-4.3001 3.80884,-4.52656 c 4.63995,-5.51426 4.8201,-9.16955 0.63846,-12.9539 -3.07642,-2.78411 -3.5307,-2.75639 -15.32326,0.93513 -10.59328,3.31611 -14.97647,3.78257 -34.15548,3.63481 -19.96791,-0.15383 -24.01744,-0.69886 -43.79003,-5.89357 -25.57569,-6.71932 -29.274,-6.939 -34.92906,-2.07472 -3.92253,3.37401 -4.34229,4.92678 -5.56412,20.58194 -1.11141,14.24052 -2.11365,18.54166 -6.30384,27.05315 -6.04365,12.2764 -18.54341,24.37599 -33.80061,32.71853 -14.80205,8.09366 -16.272,9.63856 -16.272,17.10157 0,5.91509 0.94424,7.23478 14.72543,20.58033 11.88944,11.5136 15.81975,16.53007 20.40739,26.04709 8.87732,18.41587 10.70395,27.53043 10.58451,52.81464 -0.13472,28.51375 -0.5084,28.06061 23.17852,28.10662 15.55814,0.0302 17.51902,0.39283 27.4031,5.06748 13.15793,6.22298 24.96396,17.72011 33.87902,32.99256 3.63612,6.22907 8.16978,12.41731 10.07481,13.75164 5.51484,3.86274 11.93539,3.03531 16.79231,-2.16403 z m 127.48318,-23.82181 c 2.62786,-4.91018 1.27966,-6.58135 -11.30702,-14.01567 -6.35093,-3.75117 -17.00816,-12.10895 -23.68273,-18.57285 -10.28724,-9.96252 -12.50143,-11.44894 -14.53745,-9.75918 -4.25261,3.52934 -2.7705,10.19165 4.44896,19.99856 13.85219,18.81689 40.02426,31.79261 45.07824,22.34914 z m -126.5817,-17.80753 c 11.28404,-19.25475 21.32511,-52.98855 24.65354,-82.82564 2.27425,-20.38704 0.96327,-27.08143 -5.44963,-27.82798 -5.34722,-0.62248 -6.39743,1.8645 -8.83764,20.92824 -2.93637,22.93993 -6.3173,37.82057 -14.46158,63.65046 -8.94041,28.35482 -9.47966,33.00394 -3.82815,33.00394 2.90452,0 4.87014,-1.71892 7.92346,-6.92902 z m -62.36473,-42.7892 c 16.25656,-11.03044 34.94031,-29.33614 67.19338,-65.83383 31.08448,-35.1753 29.41136,-33.00297 28.24618,-36.67412 -1.36778,-4.30947 -5.04637,-5.29591 -9.99218,-2.67948 -4.69747,2.48506 -23.79061,21.77976 -45.17464,45.65152 -17.71367,19.77444 -32.29596,34.1662 -49.80859,49.1578 -12.49672,10.69775 -15.66174,15.22872 -12.70389,18.18656 2.90441,2.90441 10.25459,0.32374 22.23974,-7.80845 z m 185.73748,-75.87345 c 40.96738,-11.8039 86.97021,-16.98639 135.94481,-15.31501 39.95028,1.36341 67.4334,5.88525 96.53676,15.88332 14.50685,4.98366 18.2325,5.03462 21.33999,0.292 7.53928,-11.5064 -14.36946,-22.0658 -64.53519,-31.10415 -18.47159,-3.32803 -24.87991,-3.66512 -69.84354,-3.67389 -40.02466,-0.008 -52.96731,0.53339 -67.5795,2.82584 -33.51078,5.25737 -73.7581,16.52358 -80.35443,22.49318 -3.32085,3.00534 -3.89644,10.02045 -1.05529,12.86161 2.8842,2.88419 6.6037,2.34755 29.54639,-4.2629 z M 875.86894,350.7071 c 1.68864,-3.43095 1.6849,-4.92802 -0.0212,-8.48765 -4.4773,-9.34158 -18.65548,-2.19693 -16.07143,8.09871 2.02839,8.08177 12.18553,8.32726 16.09261,0.38894 z m -40.55488,2.12076 c 4.1761,-4.1761 3.96451,-8.08454 -0.71076,-13.12925 -6.42045,-6.92777 -15.02275,-4.54612 -14.98134,4.14774 0.0276,5.79638 1.07095,7.74847 5.47659,10.24674 4.51189,2.55854 6.65748,2.2928 10.21551,-1.26523 z m -93.32484,-32.4119 c 11.48243,-5.44876 16.21738,-20.45454 10.87134,-34.45293 -3.75882,-9.84235 -11.39212,-14.85922 -22.6087,-14.85922 -7.69949,0 -9.00142,0.53745 -14.41451,5.95053 -9.88028,9.8803 -11.67388,23.08452 -4.69077,34.53295 6.40751,10.5048 19.44561,14.23693 30.84264,8.82867 z m 173.63776,-1.01627 c 13.80823,-9.22449 14.63458,-31.42725 1.57857,-42.41316 -10.71143,-9.01306 -24.04823,-6.44847 -29.95869,5.7609 -7.18158,14.83516 -1.90533,31.94637 11.71766,38.00116 6.76958,3.00875 10.60412,2.69833 16.66246,-1.3489 z M 714.16234,245.198 c 4.40427,-5.60433 11.54143,-12.8278 15.86038,-16.0522 8.85165,-6.60837 10.91872,-10.65452 7.29457,-14.27866 -2.07313,-2.07315 -3.41814,-2.16156 -8.71968,-0.57317 -8.21425,2.46104 -22.90152,15.99354 -27.75627,25.57394 -4.31195,8.50921 -4.65584,10.92153 -1.94357,13.6338 3.71965,3.71965 7.38103,1.7279 15.26457,-8.30371 z m 195.00074,1.56617 c 2.72457,-3.28291 0.80321,-9.52949 -5.62443,-18.2857 -9.38529,-12.78531 -29.19358,-22.77389 -37.58271,-18.95154 -7.38329,3.36405 -5.13249,7.30385 8.20209,14.35693 5.82226,3.07958 13.59977,9.21742 19.25072,15.19225 9.81175,10.37413 12.45471,11.66388 15.75433,7.68806 z"
     id="path26"
     transform="translate(74,11)" />
  <path
     style="fill:#ffffff;stroke-width:0.353986"
     d="m 589.74114,327.04368 c -5.01716,-0.31918 -13.26794,-1.2677 -17.9994,-2.06923 -9.05446,-1.53387 -34.84631,-7.54101 -39.46927,-9.19273 -1.23908,-0.44271 -1.84036,-0.47389 -3.08668,-0.16006 -0.85131,0.21436 -1.73145,0.61099 -1.95587,0.8814 -0.55895,0.6735 -0.91411,0.61646 -1.12246,-0.18027 -0.26228,-1.00295 -1.78108,-1.85597 -5.54717,-3.1155 -4.28377,-1.43266 -3.77135,-1.45369 1.97268,-0.081 11.34404,2.71104 19.66177,3.49961 36.94234,3.50235 16.65861,0.003 22.22871,-0.62406 30.26583,-3.40527 2.531,-0.87584 4.872,-1.67628 5.20222,-1.77876 0.4936,-0.15317 0.43377,0.12618 -0.33635,1.57042 -0.86175,1.61608 -0.90206,1.87251 -0.50348,3.20286 2.03737,6.80014 17.02409,11.99025 19.61963,6.79455 l 0.61893,-1.23895 5.5e-4,1.37828 5.5e-4,1.37828 2.5664,-0.19486 2.5664,-0.19485 -3.36287,0.85255 c -1.84958,0.46891 -5.14759,1.08922 -7.32892,1.37847 -3.99823,0.53017 -15.11044,0.92247 -19.04306,0.67228 z"
     id="path27"
     transform="translate(74,11)" />
  <path
     style="fill:#ffffff;stroke-width:0.321492"
     d="m 986.56232,510.66626 c -6.04476,-3.12821 -15.02174,-5.76286 -19.63562,-5.76286 -2.18272,0 -2.24306,-0.022 -2.42366,-0.8841 -0.10187,-0.48626 -1.00315,-5.44125 -2.00285,-11.01111 -1.69694,-9.45455 -1.8188,-10.46856 -1.83519,-15.27087 -0.0157,-4.60757 0.105,-5.7975 1.15802,-11.41297 1.34789,-7.18804 2.494,-12.32252 2.70377,-12.11274 0.0793,0.0793 0.49505,2.29464 0.9238,4.92289 1.73572,10.63998 5.02268,21.07721 9.86033,31.30994 4.45554,9.42446 7.03684,12.18862 10.50918,11.25361 1.86633,-0.50255 3.15452,-1.70516 3.40321,-3.17711 0.29843,-1.76641 -0.37409,-4.32524 -4.15274,-15.80049 -5.96766,-18.123 -7.83536,-27.1258 -9.01084,-43.43448 -0.57581,-7.98869 -0.80782,-8.84841 -2.66415,-9.87212 -1.93916,-1.06939 -2.09742,-1.51858 -1.51333,-4.29522 0.57432,-2.73026 0.96124,-3.28927 1.63103,-2.35647 10.90549,15.18794 26.48406,28.28384 36.73952,30.88453 3.7066,0.93997 6.2377,-0.13298 6.6753,-2.82973 0.4463,-2.75002 -1.2118,-4.84155 -9.0487,-11.41454 -9.53851,-8.00008 -14.63857,-13.17983 -23.03174,-23.39159 -3.27171,-3.98062 -8.37733,-10.81512 -8.20672,-10.98572 0.20223,-0.20223 1.74511,0.60861 4.41732,2.32145 4.71832,3.02437 6.88374,3.81763 8.9734,3.28721 2.44647,-0.62097 4.52042,-3.97457 4.04039,-6.53335 -0.40089,-2.13696 -2.96352,-4.63061 -13.52103,-13.15705 -1.94502,-1.57084 -3.65955,-2.96069 -3.81005,-3.08855 -0.30718,-0.26098 -1.15467,-9.88726 -1.16583,-13.24223 -0.007,-2.09434 0.02,-2.16981 0.71611,-2.00625 9.73122,2.28632 12.20998,2.57759 21.78109,2.55943 11.14476,-0.0212 18.95016,-1.16893 23.91196,-3.51624 3.8552,-1.82381 5.057,-5.88029 2.6053,-8.79397 -1.6176,-1.92235 -3.3743,-2.02725 -14.1398,-0.8443 -6.345,0.69722 -14.54902,0.5103 -19.93252,-0.45415 -7.206,-1.29094 -15.95201,-3.63111 -17.32626,-4.63599 -0.35201,-0.25739 -1.54402,-3.98279 -3.41228,-10.66436 -2.73616,-9.78551 -2.84528,-10.29766 -2.3186,-10.88265 0.30398,-0.33763 2.89296,-1.74528 5.75329,-3.1281 5.74904,-2.77937 10.42279,-5.4932 14.57117,-8.46081 6.5334,-4.67379 8.09549,-7.22616 6.4257,-10.49922 -1.53458,-3.00802 -3.79986,-3.00608 -10.30541,0.009 -10.6005,4.91269 -21.06082,8.47601 -22.54698,7.68064 -1.16492,-0.62344 -3.32167,-6.85677 -2.53968,-7.34007 0.21504,-0.1329 3.22094,-0.33964 6.67978,-0.45941 3.45884,-0.11978 7.96566,-0.4376 10.01517,-0.70626 10.18404,-1.33502 20.5341,-4.45136 29.55952,-8.90021 2.524,-1.24415 4.6861,-2.16504 4.8048,-2.04641 0.1186,0.11862 0.3311,4.37084 0.4722,9.44937 0.4875,17.5479 1.9904,25.81697 6.3603,34.99491 3.4424,7.22985 6.5158,11.35101 15.0211,20.14214 3.2359,3.34465 5.7895,6.23312 5.6748,6.41882 -0.1148,0.18571 -1.4101,1.98353 -2.8784,3.99516 -8.2583,11.31374 -13.2992,22.93579 -15.7326,36.2724 -0.7074,3.87731 -0.9811,14.18509 -0.4915,18.51112 0.8325,7.35567 2.3103,13.28699 5.7847,23.21795 0.5443,1.55569 0.9896,3.10847 0.9896,3.45062 0,0.41909 -0.4984,0.87496 -1.5271,1.39692 -5.7298,2.90719 -15.3192,12.02713 -19.8171,18.84704 -5.08748,7.71384 -7.3666,13.22856 -11.07533,26.79868 -1.05626,3.8648 -2.0424,7.13974 -2.19143,7.27763 -0.14902,0.1379 -1.90601,-0.59542 -3.90442,-1.62961 z"
     id="path28"
     transform="translate(74,11)" />
</svg>
