<?xml version="1.0" encoding="UTF-8" standalone="no"?>
<svg
   version="1.0"
   width="817"
   height="764"
   viewBox="217 242 817 764"
   preserveAspectRatio="xMidYMid meet"
   id="svg6"
   sodipodi:docname="frog12.svg"
   inkscape:version="1.4.3 (0d15f75, 2025-12-25)"
   xmlns:inkscape="http://www.inkscape.org/namespaces/inkscape"
   xmlns:sodipodi="http://sodipodi.sourceforge.net/DTD/sodipodi-0.dtd"
   xmlns="http://www.w3.org/2000/svg"
   xmlns:svg="http://www.w3.org/2000/svg"><g transform="scale(-1,1) translate(-1251,0)">
  <defs
     id="defs6" />
  <sodipodi:namedview
     id="namedview6"
     pagecolor="#505050"
     bordercolor="#ffffff"
     borderopacity="1"
     inkscape:showpageshadow="0"
     inkscape:pageopacity="0"
     inkscape:pagecheckerboard="1"
     inkscape:deskcolor="#505050"
     inkscape:zoom="0.44064502"
     inkscape:cx="-99.85362"
     inkscape:cy="155.45393"
     inkscape:window-width="1728"
     inkscape:window-height="1056"
     inkscape:window-x="0"
     inkscape:window-y="33"
     inkscape:window-maximized="1"
     inkscape:current-layer="svg6" />
  <metadata
     id="metadata1">
Created by potrace 1.16, written by Peter Selinger 2001-2019
</metadata>
  <g
     transform="translate(0.000000,1254.000000) scale(0.100000,-0.100000)"
     fill="#000000"
     stroke="none"
     id="g6">
    <path
       d="M3190 9793 c-120 -63 -174 -220 -146 -426 8 -58 8 -59 -15 -47 -67 37 -133 31 -189 -16 -45 -38 -63 -88 -57 -156 9 -107 78 -203 201 -282 l58 -37 -63 -37 c-85 -50 -196 -161 -248 -249 -147 -247 -136 -569 28 -806 l30 -44 -57 -72 c-260 -329 -325 -713 -177 -1053 102 -234 309 -456 592 -635 57 -37 73 -52 79 -77 12 -56 124 -309 189 -429 l65 -117 -26 -108 c-58 -249 -160 -568 -261 -822 -94 -234 -172 -398 -193 -405 -9 -3 -64 -14 -121 -25 -194 -37 -319 -124 -355 -248 -43 -146 48 -281 190 -285 l54 -2 7 -45 c9 -58 26 -90 68 -127 103 -91 268 -81 381 23 21 19 39 34 40 32 2 -2 13 -18 25 -35 12 -18 43 -45 69 -60 41 -25 57 -28 132 -28 96 0 151 20 209 77 60 58 76 102 76 204 l0 90 49 55 c164 181 371 526 440 734 28 84 21 85 157 -8 68 -47 182 -117 253 -157 124 -69 308 -160 324 -160 5 0 16 -6 26 -13 16 -12 13 -22 -42 -142 -32 -72 -72 -152 -89 -180 -28 -48 -32 -50 -84 -58 -196 -30 -306 -74 -377 -151 -64 -69 -85 -124 -80 -206 7 -122 82 -199 206 -209 58 -5 67 -8 64 -25 -8 -44 20 -117 64 -165 58 -64 113 -86 216 -85 90 1 164 32 236 98 41 38 44 39 54 21 22 -40 87 -93 134 -109 98 -33 228 -13 308 48 83 63 128 182 107 285 l-11 55 109 111 c138 139 260 289 325 401 l18 31 57 -14 c161 -38 498 -80 698 -85 l102 -3 -43 -45 c-183 -188 -87 -440 167 -440 46 0 49 -2 44 -22 -12 -44 14 -119 55 -164 60 -65 116 -88 213 -88 100 1 154 21 287 111 130 87 176 99 452 118 338 24 470 45 666 110 270 90 448 261 506 485 12 48 15 92 11 179 -2 64 -8 125 -12 137 -5 18 0 22 37 33 110 33 259 124 361 221 273 256 347 642 157 814 -72 65 -120 81 -240 80 -89 -1 -115 -5 -174 -28 -38 -14 -75 -31 -83 -37 -15 -13 -16 -10 -33 81 -22 120 -110 367 -185 518 -293 587 -813 1047 -1578 1394 -72 33 -274 118 -448 188 -237 96 -409 174 -685 313 -203 102 -425 209 -494 237 -69 29 -127 53 -128 55 -2 2 2 44 9 94 12 86 5 207 -17 287 -4 17 10 35 75 90 l80 70 73 -7 c269 -26 510 96 542 273 21 115 -85 228 -203 216 -23 -2 -41 -2 -41 0 0 2 14 23 31 48 73 106 116 259 100 350 -26 138 -107 214 -228 214 -139 -1 -234 -93 -323 -315 l-43 -108 -16 52 c-21 67 -59 113 -116 141 -101 49 -213 -16 -261 -152 -20 -58 -18 -188 6 -278 24 -92 24 -99 2 -128 l-18 -23 -58 26 c-160 71 -356 74 -517 9 -153 -62 -286 -183 -361 -329 -25 -49 -51 -108 -58 -130 l-12 -41 -76 14 c-88 16 -299 21 -417 9 l-81 -7 -17 92 c-30 162 -115 308 -231 400 l-55 43 0 66 -1 67 60 71 c69 83 94 128 115 208 21 76 12 141 -26 192 -65 90 -173 96 -260 14 l-27 -25 -4 129 c-3 124 -4 130 -37 191 -67 124 -179 164 -291 105z m159 -79 c74 -44 96 -129 87 -334 -8 -153 -3 -195 20 -204 24 -9 38 2 64 52 46 86 109 142 160 142 12 0 35 -13 51 -29 25 -25 29 -37 29 -84 0 -69 -48 -168 -121 -252 -60 -68 -71 -93 -63 -142 6 -41 17 -40 -120 -4 -86 23 -178 27 -253 11 -47 -10 -52 -9 -118 27 -141 77 -237 202 -221 288 19 101 121 99 221 -4 43 -45 56 -49 75 -25 11 13 9 31 -11 107 -18 71 -24 118 -24 202 0 98 3 116 27 167 41 89 126 124 197 82z m3038 -322 c27 -15 49 -50 62 -100 27 -100 -35 -263 -158 -415 -100 -124 -87 -139 78 -91 78 22 95 24 126 14 96 -32 100 -138 8 -221 -77 -70 -216 -105 -375 -95 -114 8 -122 5 -217 -78 l-65 -56 -16 27 c-9 16 -29 49 -44 76 -15 26 -59 79 -97 117 l-70 69 26 46 27 45 -23 93 c-32 125 -33 245 -1 304 38 73 107 93 161 48 36 -31 48 -64 60 -179 6 -48 15 -94 22 -102 29 -35 83 42 173 249 67 155 99 205 153 238 61 38 113 41 170 11z m-2952 -617 c212 -54 377 -230 420 -447 18 -91 19 -139 4 -191 -19 -69 37 -96 67 -33 15 31 22 34 85 45 100 16 329 14 432 -5 l87 -16 0 -38 c0 -44 23 -70 48 -53 11 6 23 39 33 89 34 170 83 269 189 375 144 145 334 205 531 169 78 -14 209 -82 275 -143 113 -103 192 -261 208 -417 13 -126 -30 -310 -99 -420 -51 -81 -58 -97 -52 -114 18 -47 103 27 161 141 l31 62 125 -53 c134 -56 218 -97 625 -303 175 -88 360 -171 565 -253 801 -322 1197 -564 1585 -971 284 -298 512 -738 575 -1109 26 -154 27 -157 47 -164 12 -5 28 5 52 32 57 62 208 110 308 98 353 -41 263 -572 -141 -840 -64 -42 -208 -106 -238 -106 -7 0 -32 35 -56 78 -72 130 -201 265 -304 318 -99 50 -92 22 23 -91 140 -138 237 -296 275 -444 23 -90 15 -245 -15 -323 -52 -134 -144 -231 -291 -307 -179 -92 -392 -136 -782 -161 -286 -18 -333 -31 -484 -132 -122 -81 -165 -98 -247 -98 -87 0 -143 29 -169 87 -24 55 -18 103 22 166 25 40 93 102 145 133 30 17 12 46 -22 38 -58 -14 -132 -56 -167 -95 -65 -71 -185 -76 -259 -9 -30 26 -32 33 -32 92 0 55 5 69 34 111 75 109 240 187 507 240 l121 24 89 -30 c76 -26 105 -30 199 -31 93 -1 110 1 113 15 2 13 -17 21 -95 39 -336 77 -550 264 -617 541 -56 231 26 511 206 704 91 97 161 148 281 205 189 90 409 109 648 54 76 -17 102 -14 93 11 -10 24 -88 60 -183 84 -157 39 -353 26 -528 -37 -298 -106 -544 -387 -607 -694 -20 -99 -20 -249 0 -341 33 -149 133 -315 238 -398 30 -24 55 -46 55 -49 1 -3 -29 -11 -66 -18 -38 -7 -114 -28 -171 -47 -101 -34 -107 -35 -265 -35 -223 0 -440 21 -718 70 -97 17 -97 15 -50 107 89 179 159 377 192 553 7 36 13 137 13 225 1 136 -3 175 -23 256 -26 109 -78 224 -101 224 -21 0 -18 -38 10 -165 32 -140 35 -427 7 -560 -63 -296 -235 -644 -450 -909 -78 -97 -255 -274 -266 -267 -5 3 -15 -1 -22 -10 -10 -12 -9 -28 4 -87 20 -84 20 -90 6 -140 -14 -52 -71 -112 -125 -133 -64 -24 -162 -15 -208 20 -54 41 -78 89 -84 167 -2 38 -9 72 -15 76 -15 9 -45 -32 -57 -78 -15 -55 -108 -153 -168 -176 -64 -24 -147 -23 -196 3 -61 31 -81 65 -80 132 0 67 15 97 83 173 40 45 48 59 37 68 -19 16 -109 -32 -146 -79 -35 -45 -77 -56 -144 -39 -65 16 -106 64 -106 125 0 125 108 213 305 250 50 9 113 21 140 28 l50 11 78 155 c120 241 216 503 253 697 17 92 18 246 0 335 -13 69 -42 126 -56 112 -4 -5 -10 -94 -13 -199 -4 -178 -6 -199 -39 -325 -20 -74 -46 -161 -58 -193 -26 -69 -13 -70 -189 14 -430 204 -796 487 -1101 849 -80 95 -221 301 -294 428 -76 134 -194 397 -182 409 2 2 25 -1 50 -8 37 -9 50 -9 59 0 16 17 -6 34 -157 124 -315 187 -509 377 -626 612 -68 137 -92 232 -92 370 0 164 41 316 130 474 42 76 138 206 176 238 14 13 26 29 26 36 0 7 -18 38 -41 68 -54 73 -105 179 -125 264 -24 102 -16 266 18 362 103 292 407 468 683 398z m209 -3700 c133 -180 363 -425 512 -546 l63 -51 -30 -87 c-48 -136 -160 -355 -258 -502 -103 -154 -208 -279 -234 -279 -26 0 -31 -24 -17 -76 25 -89 6 -178 -47 -226 -56 -51 -152 -62 -223 -25 -56 28 -85 81 -86 157 -2 81 -2 82 -26 78 -18 -2 -28 -16 -43 -58 -26 -71 -112 -161 -171 -178 -145 -43 -249 37 -215 166 7 25 31 62 61 95 28 30 50 62 50 71 0 41 -106 -6 -153 -68 -32 -42 -83 -54 -142 -33 -55 19 -80 56 -80 120 0 119 106 197 325 238 63 12 122 25 131 30 38 19 244 481 316 709 55 174 123 400 138 460 9 36 21 81 27 100 l11 34 16 -24 c9 -13 43 -61 75 -105z"
       id="path1" />
    <path
       d="M3158 8517 c-133 -38 -227 -164 -236 -317 -10 -183 110 -327 282 -338 132 -8 253 64 313 187 24 49 28 68 28 146 0 76 -4 99 -26 145 -14 31 -41 72 -58 93 -67 76 -200 113 -303 84z m35 -134 c42 -39 37 -116 -10 -153 -48 -38 -105 -21 -129 37 -39 92 67 180 139 116z"
       id="path2" />
    <path
       d="M5047 8385 c-87 -32 -152 -98 -199 -200 -32 -72 -33 -211 0 -277 35 -70 96 -134 160 -165 79 -39 191 -40 272 -1 69 32 132 95 168 167 24 50 27 67 27 156 0 86 -4 106 -24 145 -41 78 -88 127 -153 159 -53 27 -72 31 -137 30 -42 0 -93 -7 -114 -14z m58 -129 c43 -43 45 -106 5 -146 -64 -64 -173 -5 -156 85 15 77 101 111 151 61z"
       id="path3" />
    <path
       d="M3377 7398 c-18 -14 -47 -78 -47 -103 0 -17 35 -55 51 -55 6 0 24 13 40 29 49 49 37 141 -18 141 -5 0 -17 -6 -26 -12z"
       id="path4" />
    <path
       d="M3751 7354 c-12 -15 -21 -41 -21 -59 0 -38 33 -85 60 -85 30 0 60 39 60 78 0 82 -57 119 -99 66z"
       id="path5" />
    <path
       d="M3150 6869 c-100 -11 -279 -47 -309 -62 -41 -20 -49 -43 -24 -69 22 -21 23 -21 90 -5 348 84 798 72 1268 -34 158 -35 365 -92 457 -126 87 -31 112 -28 116 13 2 17 -3 36 -10 42 -24 19 -255 91 -438 137 -184 45 -424 87 -599 105 -120 12 -442 11 -551 -1z"
       id="path6" />
  </g>
  <path
     style="fill:#ffffff;stroke-width:1.35569"
     d="m 263.00323,722.51413 c -5.6785,-2.90933 -7.45628,-5.72389 -7.45628,-11.80467 0,-6.08214 1.33908,-9.03301 7.63548,-16.82601 2.51114,-3.108 4.5657,-6.31081 4.5657,-7.11736 0,-3.91444 -11.08743,0.93031 -17.22027,7.52455 -5.67164,6.09835 -19.08526,3.12604 -21.86392,-4.84479 -1.52683,-4.37989 -0.37359,-10.46917 2.94071,-15.52744 3.13786,-4.78898 14.85199,-10.22346 28.27315,-13.11665 6.93838,-1.49569 13.75462,-3.06506 15.1472,-3.48748 2.95189,-0.8954 16.88422,-29.19028 24.60346,-49.96662 8.45142,-22.74706 11.50975,-37.01585 11.44231,-53.38453 -0.0597,-14.47685 -2.83908,-27.19126 -6.17578,-28.25094 -1.55671,-0.49438 -3.21349,14.78194 -3.26661,30.11937 -0.0454,13.10511 -9.18871,46.77119 -12.70254,46.77119 -3.17452,0 -38.25863,-18.41742 -51.67685,-27.1278 -48.55482,-31.5191 -87.20567,-74.80243 -110.41229,-123.64572 -4.35194,-9.15958 -8.3312,-18.04094 -8.84281,-19.73635 -0.88787,-2.94234 -0.67888,-3.04238 4.59416,-2.19918 9.10977,1.45671 7.11917,-2.62316 -4.98223,-10.2114 -38.291418,-24.01084 -55.701756,-40.49474 -67.485857,-63.89484 -7.041669,-13.98289 -9.312318,-23.30057 -9.23082,-37.87892 0.140764,-25.17979 7.573933,-42.44726 30.459883,-70.7592 l 2.952665,-3.65271 -5.550149,-8.54847 c -9.492764,-14.62099 -11.497133,-20.5183 -12.176305,-35.82549 -0.459925,-10.36578 -0.04346,-15.66468 1.703435,-21.6738 4.90934,-16.88753 16.008678,-29.76893 32.802171,-38.06872 9.788967,-4.83797 11.236847,-5.16673 22.726537,-5.16041 10.94663,0.006 13.22285,0.46351 21.08345,4.23752 21.86755,10.49898 34.48763,30.6817 33.79716,54.05026 -0.15422,5.21939 -0.19593,10.25238 -0.0927,11.18441 0.3363,3.03609 5.31818,1.78538 8.10007,-2.03353 l 2.71576,-3.72814 h 24.17213 c 28.05816,0 31.27302,0.56761 31.87759,5.62824 0.23576,1.97345 1.51362,4.25969 2.8397,5.08052 3.17622,1.96607 4.26857,0.13757 7.18564,-12.02817 3.57157,-14.89536 8.22406,-23.4818 18.09194,-33.38975 9.947,-9.9874 16.43944,-13.80506 28.9109,-17.0001 23.66091,-6.06164 50.54666,6.82589 63.00569,30.20141 5.00103,9.38289 8.51777,21.648 8.48364,29.58788 -0.0431,10.03693 -3.93695,24.33704 -9.65659,35.464 -5.26643,10.24528 -6.14284,15.42835 -2.60879,15.42835 2.3662,0 10.80851,-9.3509 13.80207,-15.28749 1.58795,-3.14911 3.04929,-5.91191 3.24741,-6.13955 0.72524,-0.83328 35.25698,15.07596 69.36371,31.95682 19.25468,9.52995 49.64993,23.3845 67.54499,30.78787 40.51587,16.76184 75.07414,33.93151 96.25376,47.82198 43.6594,28.63363 76.24502,64.60172 96.10348,106.07926 8.98572,18.7681 13.53217,32.37512 17.36639,51.97582 1.8222,9.31514 3.58092,14.97521 4.79833,15.44238 1.05699,0.40561 3.55182,-0.58662 5.54407,-2.20493 7.48032,-6.07627 17.75913,-9.97002 26.48747,-10.0338 9.47696,-0.0692 15.02914,2.26335 20.30136,8.52902 13.1889,15.67411 -0.59787,52.47681 -26.60401,71.01728 -8.13857,5.80222 -22.58909,13.04408 -26.02833,13.04408 -0.91969,0 -4.01064,-3.81287 -6.86878,-8.47304 -8.81107,-14.36634 -23.22682,-28.16782 -33.50202,-32.07445 -6.53504,-2.48462 -4.41752,1.89583 6.62378,13.7023 21.69171,23.195 29.61917,42.43547 26.29956,63.83079 -2.85599,18.40738 -14.32134,32.29315 -34.45414,41.7277 -17.79276,8.33796 -35.79284,11.88913 -75.38932,14.87325 -29.17829,2.19898 -30.22503,2.51221 -51.35048,15.36685 -10.4538,6.36103 -12.03698,6.91293 -19.89233,6.93444 -10.31146,0.0282 -15.55796,-3.13276 -17.42715,-10.49978 -1.73841,-6.85153 0.71992,-11.8112 10.20881,-20.59623 4.38099,-4.05603 7.96544,-8.01685 7.96544,-8.80183 0,-2.16375 -6.36778,-1.70786 -11.25174,0.80556 -2.38626,1.22803 -6.72565,4.2693 -9.64308,6.75838 -6.72256,5.73552 -12.12183,6.79218 -19.53994,3.82404 -6.71491,-2.68678 -8.36996,-5.2024 -8.36996,-12.72218 0,-4.45913 0.96663,-6.57792 5.07627,-11.1268 9.45038,-10.46043 22.06215,-16.34916 45.98371,-21.47089 l 13.72977,-2.93962 9.09637,2.80959 c 11.07466,3.42062 31.85745,4.02378 31.85745,0.92457 0,-1.21265 -3.97074,-2.95643 -11.13227,-4.88883 -29.33151,-7.91449 -48.42793,-22.85587 -56.76355,-44.41279 -3.69422,-9.55372 -4.96877,-28.91145 -2.64164,-40.12115 2.60981,-12.57135 11.39909,-28.45474 21.77803,-39.35572 10.85216,-11.39802 20.23602,-17.37165 35.52628,-22.61555 15.74799,-5.40089 28.61976,-6.28114 47.82378,-3.27049 8.5692,1.34341 16.01395,2.00898 16.54389,1.47904 2.0817,-2.08169 -2.32018,-5.72754 -10.59555,-8.77575 -5.7863,-2.13137 -12.90798,-3.43837 -21.36066,-3.9202 -29.75435,-1.6961 -55.44299,8.47239 -75.63598,29.93945 -16.84349,17.90619 -24.67555,35.41317 -25.8488,57.77964 -1.21085,23.08303 6.35432,43.51764 21.71284,58.64956 l 7.86856,7.75245 -3.8015,0.81332 c -2.09082,0.44732 -8.987,2.39798 -15.32483,4.33479 -14.25427,4.35604 -29.72689,5.26934 -54.42419,3.21248 -19.8387,-1.65223 -51.36382,-6.41858 -52.95101,-8.00578 -0.54291,-0.54291 2.37349,-8.81584 6.48093,-18.38429 4.10743,-9.56844 9.27208,-24.39393 11.47702,-32.94555 3.46167,-13.42565 4.00625,-17.98823 3.98895,-33.4196 -0.0121,-10.78469 -0.79769,-21.16878 -1.98115,-26.18717 -2.7241,-11.55137 -8.22666,-23.5427 -10.80324,-23.5427 -2.60895,0 -2.62612,2.03549 -0.12734,15.09386 2.93218,15.32323 3.9064,36.90104 2.24509,49.72582 -4.68189,36.14272 -29.02452,82.15047 -59.8195,113.0593 l -15.81594,15.8744 1.32419,7.30567 c 1.93298,10.66431 0.4714,16.0944 -5.87533,21.82829 -4.89012,4.41794 -6.12148,4.86803 -13.31805,4.86803 -13.47326,0 -18.75414,-5.49304 -21.26278,-22.11696 -0.99147,-6.57014 -3.01098,-5.96777 -7.49951,2.23694 -9.23567,16.88212 -23.63481,24.0274 -35.8294,17.77959 z m -5.42275,-370.03558 c 0,-3.93812 -0.42026,-4.20821 -13.25601,-8.51918 -18.64552,-6.26222 -41.551,-11.86998 -66.05166,-16.17086 -18.64012,-3.27211 -24.45787,-3.69217 -51.5161,-3.71962 -24.14712,-0.0245 -33.030639,0.48001 -42.633844,2.42116 -15.603024,3.15392 -21.083433,5.44327 -21.083433,8.80725 0,5.23335 2.803838,5.71291 16.344502,2.79554 16.665757,-3.59068 54.814065,-4.91862 76.130245,-2.65007 20.7385,2.20708 51.99145,8.53051 74.95164,15.16506 10.43829,3.01622 19.2613,5.76665 19.60673,6.11207 0.34542,0.34541 2.176,0.44751 4.06798,0.22687 2.82923,-0.32993 3.43995,-1.12321 3.43995,-4.46822 z m -91.50886,-63.03943 c 5.49514,-5.49514 1.38612,-17.75145 -5.24563,-15.64661 -2.86627,0.90971 -5.59986,5.52346 -5.59986,9.45144 0,2.20012 5.17809,8.90654 6.87683,8.90654 0.69151,0 2.47741,-1.22012 3.96866,-2.71137 z m -40.06963,-4.36872 c 1.16072,-1.65715 2.11041,-5.2764 2.11041,-8.04276 0,-3.98553 -0.61677,-5.22549 -2.97086,-5.97265 -5.98999,-1.90115 -12.24207,10.76304 -7.6035,15.40162 2.52172,2.52171 6.14205,1.92879 8.46395,-1.38621 z m 184.25349,-46.29994 c 6.37452,-2.66345 14.10992,-9.85396 17.5454,-16.30948 2.36936,-4.45222 2.95737,-7.85551 2.97041,-17.19199 0.0156,-11.16673 -0.18764,-11.948 -4.99001,-19.18088 -3.87925,-5.84258 -6.71157,-8.37433 -12.58123,-11.24609 -6.67923,-3.26784 -8.69209,-3.62615 -17.02218,-3.03014 -7.13484,0.5105 -10.74803,1.53679 -14.76173,4.19293 -6.38122,4.22289 -11.97232,11.26522 -14.44516,18.19456 -2.38194,6.67463 -2.41971,20.95783 -0.0703,26.58078 2.73435,6.54421 9.59247,13.77948 16.12729,17.01417 6.78825,3.36013 20.35749,3.84661 27.2275,0.97614 z m -193.1503,-14.68208 c 5.89312,-1.80676 14.54263,-9.63362 17.88382,-16.1829 3.96036,-7.76295 3.64254,-23.63363 -0.64182,-32.05019 -5.96861,-11.72524 -14.12721,-16.5621 -27.93624,-16.5621 -18.272483,0 -31.538776,14.52274 -31.488495,34.47077 0.02744,10.88759 3.32956,18.59703 10.77116,25.14739 8.786091,7.73383 18.077315,9.26514 31.411575,5.17703 z"
     id="path7"
     transform="translate(217,242)" />
  <path
     style="fill:#ffffff;stroke-width:1.35569"
     d="m 123.92665,682.20865 c -5.88157,-3.96358 -7.97055,-8.20337 -7.99545,-16.22754 -0.0173,-5.56665 -0.39404,-6.43951 -2.77953,-6.43951 -1.96813,0 -3.48944,1.70275 -5.30453,5.93717 -2.85389,6.65786 -10.798727,15.26108 -15.875744,17.19136 -6.845181,2.60254 -13.949416,1.55238 -18.190752,-2.68895 -6.192361,-6.19236 -5.415782,-11.01071 3.708059,-23.00698 5.272988,-6.93308 5.554053,-8.2781 1.729847,-8.2781 -3.753966,0 -7.694898,2.18353 -13.810571,7.65193 -6.639885,5.93714 -11.909627,6.06223 -17.555108,0.41675 -3.662915,-3.66291 -4.045743,-4.77933 -3.369001,-9.82482 1.494917,-11.14544 11.057424,-16.87094 38.213021,-22.87985 l 8.13412,-1.7999 7.064827,-14.23471 c 10.797842,-21.75626 22.323492,-52.11741 30.878612,-81.3412 4.25644,-14.53974 8.1779,-27.93284 8.71437,-29.76244 0.9281,-3.16525 1.26179,-2.9352 6.88238,4.74491 13.23404,18.08329 43.24208,50.19771 55.91298,59.83772 l 3.70962,2.82227 -2.65958,7.73019 c -7.54995,21.9443 -29.74118,59.13347 -43.4894,72.88169 l -7.99264,7.99264 0.74649,9.74466 c 0.63976,8.35151 0.3413,10.38626 -2.08762,14.23225 -5.19914,8.23241 -16.58953,10.6882 -24.5844,5.30046 z"
     id="path8"
     transform="translate(217,242)" />
  <path
     style="fill:#ffffff;stroke-width:0.31069"
     d="m 285.45263,203.19041 c -6.12176,-1.69332 -8.73239,-7.7908 -5.80717,-13.56344 2.20404,-4.34947 7.33555,-6.48541 11.31533,-4.7099 2.35426,1.05031 4.85832,4.23777 5.43848,6.92274 1.48731,6.88319 -4.53223,13.12487 -10.94664,11.3506 z"
     id="path9"
     transform="translate(217,242)" />
  <path
     style="fill:#ffffff;stroke-width:0.31069"
     d="m 93.726518,190.54265 c -1.59276,-0.53766 -3.957772,-2.86016 -4.931323,-4.84268 -0.747462,-1.52212 -0.86943,-2.14381 -0.865685,-4.4126 0.0037,-2.25755 0.125245,-2.87119 0.83721,-4.22774 1.762514,-3.35821 5.465693,-5.63791 8.65977,-5.331 3.18836,0.30636 6.25681,2.90082 7.13333,6.03143 0.5939,2.12121 0.24957,5.85659 -0.71179,7.72162 -2.01067,3.90069 -6.66477,6.22784 -10.121512,5.06097 z"
     id="path10"
     transform="translate(217,242)" />
  <path
     style="fill:#d45500;stroke-width:0.31069"
     d="m 139.03359,128.54411 c -0.4272,-0.0629 -3.43312,-0.80034 -6.67983,-1.63877 -7.57365,-1.95583 -9.92279,-2.39557 -15.13513,-2.83317 -4.57479,-0.38407 -10.17778,-0.0582 -14.22503,0.82737 -4.113093,0.89997 -5.417542,0.57601 -11.552205,-2.86896 -9.295772,-5.22011 -16.599843,-12.24092 -19.966667,-19.19233 -1.662125,-3.431752 -2.159384,-5.505086 -1.964288,-8.190143 0.287001,-3.949921 2.603669,-7.333489 5.570606,-8.13605 4.391518,-1.187915 9.684236,1.266765 16.369536,7.591933 4.610462,4.362097 5.445096,4.664451 7.357314,2.665241 0.833334,-0.871245 0.919558,-1.152832 0.883486,-2.885293 -0.02199,-1.0559 -0.536843,-3.877167 -1.144129,-6.269477 -2.436399,-9.597816 -3.248357,-17.127487 -2.84776,-26.408614 0.256631,-5.945688 0.830782,-8.505878 2.808467,-12.523218 3.58099,-7.274181 10.08665,-10.993745 16.15272,-9.235198 3.95399,1.14626 7.53667,4.371662 9.31008,8.381669 2.21569,5.010057 2.80164,10.756617 2.4411,23.940193 -0.51528,18.841909 -0.26749,21.453988 2.14706,22.633562 2.25339,1.100838 3.74142,-0.01591 6.46165,-4.849411 2.59016,-4.602388 3.92996,-6.420708 6.94457,-9.424837 4.58267,-4.566745 8.31055,-5.904317 11.40364,-4.091648 1.86035,1.090241 4.43077,3.876129 4.95806,5.373684 0.74818,2.124902 0.5146,7.547184 -0.46799,10.864162 -1.70341,5.750221 -5.53846,12.412805 -10.66964,18.536185 -6.18233,7.37779 -7.1099,9.2261 -6.82288,13.59547 0.0963,1.46607 0.26611,2.89952 0.37735,3.18546 0.24835,0.63842 -0.60684,1.1146 -1.71009,0.95219 z"
     id="path11"
     transform="translate(217,242)" />
  <path
     style="fill:#d45500;stroke-width:0.442214"
     d="m 364.17827,170.69048 c -3.86069,-6.69783 -7.28388,-11.01275 -13.96043,-17.59708 l -5.05734,-4.98749 2.63926,-4.56821 2.63925,-4.56821 -1.5124,-6.02704 c -2.43118,-9.68845 -3.03572,-13.7994 -3.06484,-20.84121 -0.0353,-8.54534 1.05989,-12.283468 4.77281,-16.29011 5.04426,-5.443291 12.63874,-4.076767 16.13745,2.903713 1.18343,2.361137 2.05689,6.192187 2.69916,11.838657 0.66785,5.87131 1.68487,10.82575 2.47362,12.05033 0.80586,1.25115 2.35149,1.27877 3.88886,0.0695 2.76058,-2.17147 7.35412,-10.37496 13.22455,-23.617368 8.32124,-18.770929 11.11422,-22.78659 18.18358,-26.143816 4.32281,-2.052889 7.17783,-2.338931 11.18791,-1.120904 3.55259,1.079063 5.72903,2.917935 7.43261,6.279796 3.99769,7.88905 2.93816,17.155245 -3.40905,29.814302 -2.82528,5.63479 -4.9909,8.96369 -10.88427,16.73074 -4.96813,6.54765 -6.00887,8.37269 -5.76337,10.10668 0.13974,0.98703 0.30651,1.03494 3.46341,0.99494 2.46631,-0.0312 5.07389,-0.53297 10.17092,-1.95694 7.92726,-2.21467 11.06362,-2.44425 14.15085,-1.0358 4.13072,1.88451 6.53597,5.80543 6.05459,9.86989 -0.8982,7.58391 -8.72144,14.89213 -19.58735,18.29789 -6.36728,1.99573 -12.03686,2.57399 -23.83432,2.43093 -13.53317,-0.16411 -12.57519,-0.52545 -23.30493,8.79028 -2.60257,2.2596 -4.91644,4.10835 -5.14195,4.10835 -0.2255,0 -1.84486,-2.4893 -3.59858,-5.53179 z"
     id="path12"
     transform="translate(217,242)" />
</g></svg>
