<?xml version="1.0" encoding="UTF-8" standalone="no"?>
<svg
   version="1.0"
   width="1013"
   height="811"
   viewBox="110 272 1013 811"
   preserveAspectRatio="xMidYMid meet"
   id="svg13"
   sodipodi:docname="frog16.svg"
   inkscape:version="1.4.3 (0d15f75, 2025-12-25)"
   xmlns:inkscape="http://www.inkscape.org/namespaces/inkscape"
   xmlns:sodipodi="http://sodipodi.sourceforge.net/DTD/sodipodi-0.dtd"
   xmlns="http://www.w3.org/2000/svg"
   xmlns:svg="http://www.w3.org/2000/svg">
  <defs
     id="defs13" />
  <sodipodi:namedview
     id="namedview13"
     pagecolor="#505050"
     bordercolor="#ffffff"
     borderopacity="1"
     inkscape:showpageshadow="0"
     inkscape:pageopacity="0"
     inkscape:pagecheckerboard="1"
     inkscape:deskcolor="#505050"
     inkscape:zoom="0.43599414"
     inkscape:cx="-82.569916"
     inkscape:cy="262.61821"
     inkscape:window-width="1728"
     inkscape:window-height="1056"
     inkscape:window-x="0"
     inkscape:window-y="33"
     inkscape:window-maximized="1"
     inkscape:current-layer="svg13" />
  <metadata
     id="metadata1">
Created by potrace 1.16, written by Peter Selinger 2001-2019
</metadata>
  <g
     transform="translate(0.000000,1254.000000) scale(0.100000,-0.100000)"
     fill="#000000"
     stroke="none"
     id="g13">
    <path
       d="M3774 9511 c-28 -5 -69 -14 -90 -21 -200 -65 -367 -263 -390 -465 -6 -52 -9 -56 -53 -81 -75 -44 -181 -160 -224 -246 -102 -205 -103 -446 -3 -634 l34 -65 -55 -107 c-36 -70 -76 -128 -113 -169 -72 -77 -151 -203 -192 -308 -27 -70 -31 -92 -32 -180 0 -87 3 -110 28 -174 39 -100 112 -206 221 -320 l91 -96 -34 -80 c-33 -78 -73 -220 -107 -377 -14 -66 -24 -88 -70 -146 -123 -158 -227 -337 -292 -507 -88 -226 -133 -433 -168 -768 l-16 -152 -40 -51 c-88 -114 -215 -211 -377 -287 -90 -42 -94 -43 -188 -32 -108 13 -217 -40 -271 -132 -24 -42 -28 -58 -28 -128 0 -120 44 -188 150 -237 124 -56 295 -6 364 106 17 27 33 37 93 55 141 41 298 65 298 45 0 -3 -17 -37 -37 -74 -35 -63 -41 -69 -88 -84 -111 -35 -188 -141 -187 -260 1 -104 53 -185 150 -233 49 -24 69 -28 137 -27 66 0 89 5 131 27 114 58 158 126 161 246 1 67 4 77 33 110 88 102 227 189 346 217 86 20 167 13 276 -23 75 -25 80 -29 100 -69 44 -94 132 -143 254 -144 121 0 200 45 253 145 29 54 29 169 1 224 -42 83 -155 151 -250 151 -33 0 -45 7 -102 68 -47 50 -68 81 -78 116 -16 58 -16 58 95 231 111 174 204 364 259 527 26 74 46 142 46 151 0 29 16 19 58 -36 63 -84 116 -143 234 -265 61 -62 109 -114 107 -116 -2 -2 -35 -9 -73 -14 -56 -9 -74 -8 -97 4 -99 51 -240 10 -288 -84 -48 -94 -29 -202 47 -259 77 -59 167 -67 253 -23 29 15 62 22 115 23 41 1 74 -1 74 -5 0 -5 -3 -8 -7 -9 -126 -9 -201 -61 -229 -157 -38 -131 43 -248 187 -268 88 -12 191 41 226 116 16 34 30 44 113 84 103 48 187 76 291 95 l66 13 83 -42 c253 -127 507 -214 838 -286 14 -3 22 -10 18 -17 -3 -7 -35 -84 -71 -172 -36 -88 -69 -166 -73 -174 -4 -7 -68 -51 -142 -97 -113 -69 -154 -89 -252 -118 -65 -20 -166 -44 -226 -54 -106 -18 -110 -18 -163 1 -66 23 -186 20 -236 -6 -134 -70 -190 -222 -129 -352 75 -162 311 -201 443 -73 l32 31 151 5 c82 3 150 2 150 -1 0 -8 -62 -65 -181 -166 -95 -80 -97 -81 -151 -81 -112 0 -213 -63 -265 -164 -56 -107 -26 -263 63 -333 76 -60 101 -68 204 -68 86 0 100 3 148 29 76 43 127 102 147 172 24 84 22 81 125 155 174 125 372 209 489 209 53 0 125 -30 139 -57 6 -11 6 -45 1 -87 -8 -67 -11 -71 -63 -120 -78 -74 -91 -103 -91 -211 0 -85 2 -94 32 -140 75 -117 231 -166 365 -115 143 53 219 195 182 337 -8 32 -19 62 -24 67 -18 18 71 225 146 337 26 39 94 122 153 184 110 118 157 185 196 280 18 47 42 75 131 158 120 114 288 301 379 425 l60 81 55 1 c80 0 308 27 431 50 151 29 334 81 472 134 66 25 124 46 130 46 7 0 25 -8 40 -18 l28 -19 -58 -35 c-162 -98 -293 -157 -461 -209 -81 -25 -101 -28 -129 -18 -55 18 -149 13 -198 -11 -157 -76 -195 -271 -75 -391 48 -48 119 -79 180 -79 57 0 132 31 179 75 35 33 61 47 106 58 87 22 169 32 161 19 -3 -6 -66 -57 -139 -113 l-132 -103 -78 -7 c-95 -9 -172 -44 -217 -100 -96 -119 -93 -272 6 -374 63 -65 120 -88 219 -89 70 0 87 3 140 30 72 37 128 104 152 184 9 30 23 62 30 71 24 29 205 137 326 194 148 71 256 99 349 93 67 -5 114 -25 125 -54 3 -8 -3 -44 -13 -80 -17 -57 -24 -68 -54 -84 -125 -65 -179 -235 -115 -366 44 -90 131 -145 240 -152 99 -6 172 23 242 94 77 78 98 170 68 295 -6 21 8 47 73 145 121 180 240 323 412 494 130 130 505 471 572 519 41 30 190 207 235 278 194 311 187 684 -15 881 -50 49 -157 112 -189 112 -10 0 -13 28 -13 109 0 234 -90 450 -264 629 -154 159 -346 251 -578 277 -58 6 -58 6 -69 48 -90 344 -321 719 -549 893 -28 21 -76 72 -109 114 -284 362 -678 603 -1181 723 -58 14 -121 28 -140 31 -23 4 -64 30 -120 77 -296 248 -639 397 -1044 454 -76 11 -102 18 -110 32 -12 22 -95 111 -154 167 -132 122 -323 185 -525 173 -120 -7 -222 -41 -354 -118 l-103 -59 -57 21 c-186 68 -232 79 -326 79 -50 0 -120 -5 -155 -10 l-62 -10 -112 57 -112 58 -55 90 c-90 147 -200 239 -348 290 -77 27 -200 38 -279 26z m189 -126 c151 -32 257 -115 360 -283 l53 -87 144 -73 c116 -59 151 -72 174 -68 165 33 276 26 420 -26 102 -37 100 -35 81 -65 -30 -45 -3 -49 62 -10 144 87 310 165 387 182 155 34 338 5 473 -77 53 -32 152 -128 223 -216 l35 -44 125 -18 c421 -63 736 -205 1049 -472 46 -39 65 -48 118 -58 103 -18 291 -69 393 -107 359 -134 629 -323 857 -600 47 -57 88 -103 92 -103 4 0 44 -34 89 -76 136 -125 278 -333 366 -531 44 -99 96 -245 96 -268 0 -8 -33 -19 -87 -29 -49 -10 -121 -29 -161 -42 -489 -162 -925 -721 -1033 -1324 -27 -150 -23 -355 11 -470 28 -97 82 -199 138 -262 36 -40 43 -52 31 -59 -8 -5 -75 -29 -149 -53 -207 -68 -434 -114 -650 -132 l-84 -7 15 24 c93 141 239 432 258 511 21 90 24 189 7 293 -51 311 -185 648 -332 835 -62 78 -88 100 -101 86 -3 -3 30 -77 74 -163 119 -234 173 -386 228 -645 36 -166 42 -284 21 -368 -32 -129 -194 -425 -343 -627 -113 -155 -231 -291 -400 -464 -95 -97 -173 -182 -173 -190 0 -8 -15 -46 -33 -84 -24 -50 -63 -102 -133 -178 -54 -59 -121 -136 -147 -170 -53 -69 -153 -266 -186 -368 l-21 -66 26 -57 c44 -97 24 -168 -65 -231 -36 -26 -52 -30 -104 -30 -115 1 -187 64 -187 165 0 67 32 125 89 160 45 27 45 28 61 161 11 90 11 98 -9 136 -25 51 -57 76 -127 103 -104 38 -238 17 -413 -65 -100 -48 -285 -166 -358 -230 -38 -32 -43 -42 -43 -77 0 -90 -79 -164 -183 -175 -44 -4 -61 0 -107 24 -68 35 -94 77 -94 148 0 63 25 109 82 150 36 24 55 30 115 33 l72 4 94 77 c52 42 144 123 204 181 101 97 109 107 98 128 -34 63 -211 89 -431 61 -76 -9 -87 -13 -108 -40 -34 -42 -73 -59 -139 -59 -104 0 -167 62 -160 156 4 60 32 105 81 128 45 21 136 21 181 -1 34 -16 43 -16 153 0 239 34 384 82 535 176 200 124 196 120 259 278 134 332 270 604 512 1018 25 44 46 86 46 94 0 7 -13 37 -29 65 -71 127 -91 168 -134 276 -41 103 -63 187 -82 303 -4 22 -11 37 -18 34 -19 -6 -28 -60 -22 -138 10 -140 65 -313 148 -471 l41 -76 -34 -54 c-149 -236 -279 -462 -339 -591 -24 -52 -36 -67 -49 -63 -9 2 -44 10 -77 16 -146 28 -363 92 -514 151 -413 165 -756 391 -1077 713 -280 280 -471 549 -698 979 -43 80 -62 107 -77 107 -14 0 -19 -7 -19 -26 0 -59 142 -366 259 -562 34 -56 61 -110 61 -120 0 -37 -49 -207 -90 -312 -52 -132 -146 -311 -255 -486 -101 -162 -109 -186 -88 -257 26 -90 63 -146 142 -213 62 -53 81 -64 111 -64 57 0 133 -27 162 -57 94 -102 23 -253 -119 -253 -87 0 -166 53 -180 121 -7 36 -40 55 -163 94 -264 83 -495 9 -720 -232 l-71 -76 7 -67 c8 -83 -11 -130 -69 -168 -52 -34 -147 -42 -201 -17 -112 53 -120 202 -16 273 19 12 45 25 59 28 56 12 69 25 124 121 81 142 83 148 66 179 -43 81 -215 81 -468 -1 -95 -31 -110 -39 -121 -64 -26 -64 -88 -101 -168 -101 -98 0 -167 66 -159 153 10 110 110 169 232 138 43 -11 51 -9 141 28 203 85 377 215 489 363 47 62 45 56 65 253 54 530 186 886 453 1218 53 65 55 70 77 185 23 120 91 346 114 377 12 16 21 12 104 -44 64 -42 92 -68 92 -81 0 -28 69 -211 88 -232 15 -18 42 -24 42 -10 0 4 -11 51 -25 103 -13 51 -25 99 -25 104 0 6 42 -9 93 -33 83 -40 218 -92 239 -92 4 0 8 6 8 14 0 8 -39 38 -87 67 -441 265 -745 541 -825 752 -27 69 -27 173 -1 253 28 86 107 215 181 296 46 50 75 95 109 169 40 86 52 103 82 117 46 22 49 40 11 87 -69 87 -120 235 -120 350 0 203 118 404 285 486 64 31 77 34 160 34 82 0 97 -3 157 -33 163 -80 278 -282 278 -491 0 -69 1 -72 22 -69 18 2 24 12 31 48 18 105 -21 280 -88 390 -94 154 -284 261 -441 248 l-46 -3 5 54 c16 151 166 304 340 347 70 17 129 16 210 -1z m5855 -3141 c157 -32 298 -110 419 -231 228 -230 290 -561 166 -893 -33 -89 -116 -243 -169 -313 -24 -33 -44 -63 -44 -68 0 -41 122 70 204 184 52 73 129 224 146 285 10 38 14 42 33 36 86 -26 161 -98 209 -199 32 -69 33 -72 33 -210 0 -121 -3 -149 -24 -210 -72 -213 -164 -326 -530 -648 -339 -300 -506 -470 -663 -677 -72 -95 -207 -306 -214 -336 -3 -12 1 -36 10 -52 20 -39 21 -114 2 -151 -37 -71 -131 -119 -210 -107 -174 28 -205 244 -47 329 48 27 51 31 72 100 34 111 36 165 7 207 -29 43 -78 76 -132 91 -58 16 -208 5 -291 -21 -108 -33 -298 -130 -425 -215 -153 -103 -157 -106 -162 -166 -6 -58 -28 -92 -85 -133 -78 -55 -208 -33 -260 43 -87 127 33 302 189 277 35 -6 44 -1 145 75 111 84 346 279 443 367 44 40 53 53 43 63 -10 10 -27 3 -89 -39 -67 -46 -78 -50 -97 -40 -35 20 -189 14 -310 -12 -99 -21 -110 -26 -134 -57 -48 -63 -126 -86 -198 -59 -107 41 -114 183 -13 247 33 20 74 21 178 3 27 -4 73 7 189 45 173 57 354 142 484 227 l89 57 66 -12 c172 -33 392 -23 580 25 244 63 493 197 632 338 66 68 41 74 -55 14 -396 -247 -887 -347 -1215 -246 -143 44 -260 129 -331 239 -75 118 -110 304 -89 481 51 438 312 907 645 1156 100 74 291 167 405 197 116 29 280 33 398 9z m-5430 -1547 c89 -73 187 -144 290 -213 l73 -48 -76 -22 c-43 -12 -131 -48 -197 -80 -109 -53 -121 -62 -135 -96 -23 -57 -65 -88 -119 -88 -60 0 -102 23 -120 67 -30 70 19 141 103 151 42 4 57 13 112 65 94 88 114 113 103 133 -9 15 -30 17 -192 16 -163 -2 -186 -4 -215 -22 -20 -13 -50 -20 -79 -20 -64 0 -106 39 -106 98 0 85 78 131 166 97 36 -14 61 -16 117 -10 55 5 171 25 195 34 1 1 37 -27 80 -62z"
       id="path1" />
    <path
       d="M3394 8684 c-64 -23 -119 -77 -156 -152 -30 -60 -33 -75 -33 -157 0 -78 4 -98 29 -153 88 -190 312 -228 446 -75 109 123 114 314 12 447 -68 90 -195 128 -298 90z m73 -99 c51 -36 46 -131 -8 -169 -60 -41 -139 6 -139 84 0 78 86 128 147 85z"
       id="path2" />
    <path
       d="M5686 8530 c-83 -15 -159 -49 -231 -103 -139 -105 -215 -248 -231 -437 -5 -63 -4 -78 10 -89 26 -22 46 -6 46 36 0 69 28 172 67 246 51 98 128 174 228 223 79 39 79 39 200 39 121 0 121 0 201 -39 146 -72 247 -205 281 -373 15 -70 16 -93 5 -160 -16 -109 -26 -140 -72 -215 -43 -72 -48 -88 -26 -88 23 0 86 80 122 155 104 215 50 481 -131 653 -79 76 -137 111 -225 136 -71 20 -182 27 -244 16z"
       id="path3" />
    <path
       d="M5667 8246 c-223 -83 -290 -374 -124 -544 92 -95 223 -126 342 -81 68 25 149 99 179 163 74 157 19 345 -127 434 -53 33 -66 36 -145 39 -58 2 -100 -1 -125 -11z m63 -91 c98 -51 70 -195 -39 -195 -103 0 -138 135 -49 190 40 24 50 25 88 5z"
       id="path4" />
    <path
       d="M7241 7832 c-41 -22 -71 -74 -71 -122 1 -121 165 -274 321 -299 97 -16 166 12 202 80 47 90 -52 247 -203 322 -83 41 -194 50 -249 19z m221 -61 c63 -30 144 -104 170 -154 49 -98 14 -157 -95 -157 -186 0 -388 219 -291 317 23 23 31 25 97 21 49 -2 87 -11 119 -27z"
       id="path5" />
    <path
       d="M3845 7595 c-46 -45 -26 -125 31 -125 34 0 74 42 74 77 0 68 -59 95 -105 48z"
       id="path6" />
    <path
       d="M4203 7534 c-21 -21 -24 -32 -20 -61 7 -44 33 -73 63 -73 38 0 53 10 64 46 15 44 0 86 -36 103 -35 16 -42 14 -71 -15z"
       id="path7" />
    <path
       d="M8195 7480 c-47 -10 -73 -31 -90 -74 -22 -54 -12 -104 36 -176 70 -104 179 -169 298 -177 57 -4 71 -2 101 19 48 33 62 63 56 122 -6 56 -42 122 -96 176 -73 73 -223 127 -305 110z m174 -79 c94 -48 181 -157 181 -225 0 -43 -40 -76 -94 -76 -80 0 -153 36 -226 109 -90 91 -111 159 -62 207 23 24 142 15 201 -15z"
       id="path8" />
    <path
       d="M3241 7099 c-89 -8 -121 -25 -121 -64 0 -12 8 -29 19 -39 16 -15 31 -15 162 -5 164 13 414 6 585 -16 289 -38 717 -164 1069 -315 128 -55 160 -58 171 -16 14 59 7 64 -231 163 -354 147 -786 263 -1090 293 -117 11 -443 11 -564 -1z"
       id="path9" />
    <path
       d="M7613 6909 c-46 -14 -73 -53 -73 -106 0 -74 45 -134 130 -172 79 -36 170 -21 205 33 27 40 16 117 -22 164 -55 67 -164 105 -240 81z m157 -73 c45 -30 67 -59 75 -102 9 -41 -12 -64 -63 -71 -105 -14 -231 95 -192 167 25 47 113 50 180 6z"
       id="path10" />
    <path
       d="M8674 6691 c-69 -43 -66 -130 7 -196 50 -45 76 -55 145 -55 45 0 59 4 79 24 28 28 40 66 31 99 -27 104 -181 180 -262 128z m129 -45 c39 -16 87 -70 87 -97 0 -61 -59 -84 -132 -51 -104 46 -120 162 -22 162 19 0 49 -6 67 -14z"
       id="path11" />
    <path
       d="M6604 6090 c-39 -10 -98 -32 -131 -48 -73 -37 -163 -107 -163 -127 0 -21 2 -20 83 24 135 74 316 121 468 121 44 0 59 4 59 14 0 37 -200 47 -316 16z"
       id="path12" />
    <path
       d="M9797 5811 c-51 -11 -88 -39 -111 -85 -72 -146 201 -258 314 -129 93 105 -41 246 -203 214z m123 -63 c81 -41 89 -107 17 -141 -110 -52 -257 26 -203 108 36 55 114 69 186 33z"
       id="path13" />
  </g>
  <path
     style="fill:#ffffff;stroke-width:2.01679"
     d="m 494.02174,764.45485 c -7.22003,-7.22001 -6.5778,-15.74133 1.81916,-24.13831 5.22835,-5.22835 7.07992,-9.10956 8.13303,-17.04829 1.87465,-14.13188 -1.88981,-20.98183 -14.09173,-25.64178 -8.06145,-3.07871 -10.93358,-3.24941 -20.71505,-1.23125 -21.87071,4.51249 -62.78409,29.65913 -62.78409,38.58907 0,6.54857 -2.28462,10.2543 -8.21139,13.31918 -10.24467,5.2977 -21.81644,2.41401 -25.85163,-6.44225 -3.25845,-7.15152 -2.81657,-9.77941 2.7585,-16.40499 3.8002,-4.51628 7.34634,-6.25098 14.79983,-7.23971 8.85792,-1.17504 11.61789,-3.00715 28.65105,-19.01889 20.16243,-18.95334 21.58541,-22.5543 10.59421,-26.8091 -3.1723,-1.22802 -14.07896,-1.84101 -25.17108,-1.41468 -16.8292,0.64685 -20.2403,1.379 -24.33145,5.22244 -9.6812,9.09501 -25.67456,3.7335 -25.67456,-8.60697 0,-9.67363 8.33815,-16.11094 18.15048,-14.01274 10.94923,2.3413 26.26592,1.21034 43.58018,-3.2179 15.95651,-4.081 41.76579,-17.2373 49.02891,-24.99254 2.16085,-2.30725 9.96613,-17.80833 17.34508,-34.44685 7.37895,-16.63851 21.05272,-43.97629 30.38616,-60.75059 9.33342,-16.77433 16.96987,-31.44121 16.96987,-32.5931 0,-1.15186 -4.09378,-10.57007 -9.09732,-20.92935 -5.00351,-10.35928 -10.64088,-25.42645 -12.52747,-33.48259 -3.47755,-14.84987 -7.05971,-18.06459 -8.29908,-7.44783 -1.10565,9.47113 3.51193,29.00135 11.02784,46.64284 l 7.02123,16.48031 -9.85421,15.78832 c -5.41982,8.68357 -14.24178,23.95631 -19.60439,33.93942 -5.36258,9.9831 -9.9614,18.43607 -10.21959,18.78439 -0.25819,0.3483 -9.50071,-1.64975 -20.53892,-4.44014 -89.95153,-22.73908 -159.56566,-79.35193 -210.45178,-171.14739 -5.99454,-10.81378 -12.03361,-19.66245 -13.42016,-19.6637 -5.36103,-0.005 -1.95151,10.70125 12.80452,40.20658 13.57033,27.1345 15.16742,31.49498 13.94527,38.07438 -2.52651,13.60139 -12.80409,37.06014 -27.16597,62.00677 -15.21452,26.42771 -16.68014,32.37149 -10.95639,44.43338 4.05369,8.54254 15.22423,18.52843 22.5019,20.11556 17.21223,3.75373 22.97206,10.67226 17.57451,21.10998 -5.71687,11.05521 -20.76001,10.24111 -28.18683,-1.52544 -5.35286,-8.48068 -16.7136,-13.00243 -35.67954,-14.20096 -14.11304,-0.89187 -16.65753,-0.43722 -28.45769,5.08473 -7.85664,3.67656 -17.29244,10.39778 -23.96553,17.07087 -9.85668,9.85667 -10.9206,11.74405 -10.18279,18.06394 1.08778,9.31758 -5.75363,17.47138 -16.03189,19.10728 -6.17322,0.98254 -8.28386,0.31109 -12.60494,-4.00998 -8.942031,-8.94204 -5.35423,-21.16082 7.45474,-25.38817 4.78098,-1.57786 8.40332,-5.21732 13.23825,-13.30079 7.54548,-12.61518 7.63734,-18.83514 0.33514,-22.69053 -10.78132,-5.69231 -47.000673,2.96072 -56.660112,13.53647 -4.411243,4.82968 -7.297982,6.16062 -13.309634,6.13644 -8.811877,-0.0354 -11.202484,-1.2611 -14.433778,-7.40004 -2.872912,-5.45806 -0.173021,-13.60133 5.519609,-16.64793 2.198642,-1.17668 8.620851,-2.13941 14.271576,-2.13941 16.857804,0 46.783479,-17.09619 61.620879,-35.20327 6.5769,-8.02623 7.27561,-10.27241 10.13788,-32.59051 6.72812,-52.46147 17.81618,-82.06441 44.15743,-117.89164 3.28322,-4.46558 7.58466,-15.93308 11.32725,-30.1981 3.31865,-12.64918 6.88362,-23.84823 7.92216,-24.88677 1.17314,-1.17315 4.90019,0.10495 9.8413,3.37483 6.22435,4.11907 8.70476,7.58644 11.41141,15.95202 5.88533,18.19009 13.60216,21.89612 9.65239,4.63561 -1.14185,-4.98992 -1.94894,-9.07259 -1.79352,-9.07259 0.15542,0 6.60929,2.69812 14.34194,5.99582 7.73263,3.29769 15.19379,6.02035 16.58033,6.05036 6.19681,0.13412 1.11018,-4.82087 -17.14271,-16.69905 -36.89266,-24.00815 -60.06413,-45.2352 -69.42811,-63.60212 -7.96512,-15.6231 -3.33869,-34.01508 14.10862,-56.08758 4.41498,-5.58537 10.03497,-14.0907 12.48887,-18.90074 2.4539,-4.81004 6.40144,-10.33962 8.77231,-12.28794 3.66444,-3.01136 3.92521,-4.09045 1.73946,-7.19814 -25.71645,-36.5635 -7.44124,-87.352493 31.43171,-87.352493 21.09648,0 40.71873,24.004663 40.71873,49.812783 0,7.45324 0.59675,8.85667 3.52938,8.30039 7.93149,-1.50449 4.06418,-31.09022 -6.01999,-46.0541 -7.47116,-11.086458 -20.4712,-19.712051 -33.88444,-22.482514 -9.46186,-1.954313 -12.02789,-3.280125 -12.02789,-6.214539 0,-10.091675 15.91261,-27.36539 29.27008,-31.773758 11.20637,-3.698434 27.94335,-1.359046 38.94653,5.443698 5.65231,3.494565 12.31231,10.384022 17.36627,17.964575 7.00298,10.503977 10.31424,13.359499 22.71861,19.59175 13.59422,6.830065 15.36505,7.216752 27.75199,6.060042 17.23828,-1.609734 39.40719,3.824359 39.40719,9.659576 0,2.09529 0.64757,3.80962 1.43906,3.80962 0.79149,0 10.86289,-4.76466 22.38092,-10.588142 20.05705,-10.140792 21.59393,-10.580034 36.37574,-10.39621 20.43681,0.254152 30.83284,5.028677 47.09046,21.627012 11.33131,11.56878 13.80859,13.13133 22.79674,14.37908 33.86621,4.70138 68.21066,18.77924 94.7891,38.85424 14.06624,10.62439 18.4609,12.76389 34.28542,16.69149 24.15055,5.9941 48.47944,15.94305 67.28873,27.51677 21.13436,13.00438 75.38601,67.92865 89.09139,90.19594 9.33342,15.16412 21.7518,44.67681 19.67362,46.75499 -0.545,0.54499 -6.34672,2.34619 -12.89271,4.00266 -19.60699,4.96158 -40.1376,16.53499 -56.59251,31.90204 -18.66425,17.43038 -30.41715,33.72187 -41.9114,58.09626 -12.75466,27.04722 -16.06512,40.90113 -16.07272,67.26299 -0.007,24.33744 3.26958,36.25598 13.742,49.98602 l 5.41633,7.10118 -15.72025,5.1407 c -16.69876,5.46067 -38.5587,10.20094 -57.50312,12.46936 l -11.53104,1.38073 13.28455,-25.87405 13.28453,-25.87404 -0.99324,-21.2405 c -1.17101,-25.04185 -7.27115,-46.31019 -20.87369,-72.7769 -8.77832,-17.08012 -22.98428,-34.24601 -22.98428,-27.77322 0,1.73887 4.49913,12.58067 9.99809,24.09289 13.3718,27.99424 20.92205,56.13513 21.11393,78.69447 0.14438,16.97681 -0.10219,17.91539 -9.53712,36.30221 -13.36054,26.03712 -31.77784,51.2368 -58.14827,79.56202 -12.29822,13.20989 -23.9669,27.64819 -25.93043,32.08512 -1.9635,4.43694 -9.57192,14.85085 -16.90757,23.14204 -12.94006,14.62559 -24.68423,33.97677 -30.32743,49.97132 -2.33532,6.61898 -2.3281,8.81787 0.0476,14.46786 3.96436,9.42845 3.56786,11.79368 -3.09384,18.45536 -7.7047,7.70472 -18.30347,8.09813 -25.45666,0.94493 z m 44.69909,-379.06834 c 6.78636,-2.84188 19.26524,-6.19723 27.73086,-7.45633 20.68681,-3.07677 20.35366,-7.84933 -0.54795,-7.84933 -16.08817,0 -42.26625,11.2719 -45.45068,19.57038 -1.40107,3.65114 0.32984,3.24704 18.26777,-4.26472 z m 238.40201,-46.86912 c 6.78358,-1.81648 9.15822,-9.55534 5.25067,-17.11171 -2.98991,-5.78185 -13.19454,-11.82851 -19.96234,-11.82851 -4.33406,0 -11.15712,7.3055 -11.15712,11.94599 0,5.26378 9.18605,15.82613 14.69056,16.89156 2.45792,0.47574 4.92272,0.97619 5.47734,1.1121 0.55461,0.13591 3.12001,-0.31833 5.70089,-1.00943 z M 403.1421,318.48777 c 2.14421,-5.58769 1.40308,-6.72057 -7.30186,-11.1615 -22.429,-11.44241 -70.42996,-26.79681 -103.6314,-33.14932 -18.71899,-3.58151 -81.30866,-4.21801 -87.52697,-0.89009 -4.48976,2.40287 -5.34856,7.67175 -1.49034,9.14352 1.38654,0.52892 19.31076,1.31265 39.83159,1.7416 27.93736,0.58398 41.91899,1.814 55.65442,4.89612 21.88886,4.91169 64.53726,18.57703 83.21131,26.66248 15.42181,6.67731 19.54376,7.21206 21.25325,2.75719 z m 273.66552,-1.01821 c 7.58474,-7.58475 0.76999,-22.37324 -12.08464,-26.22458 -10.41124,-3.11929 -17.9701,-1.05962 -20.49633,5.58489 -6.20476,16.31972 20.18397,33.03669 32.58097,20.63969 z m 70.41285,-44.1946 c 5.18138,-5.18137 5.08213,-9.16673 -0.5042,-20.24475 -7.99949,-15.86349 -34.39624,-25.52638 -43.86516,-16.05746 -13.04248,13.04248 8.25564,40.03358 31.76443,40.25504 5.96072,0.0562 9.79988,-1.14777 12.60493,-3.95283 z M 320.66951,235.17577 c 0,-8.24841 -5.00478,-12.50229 -9.9149,-8.42726 -6.60871,5.48474 -2.34377,17.02316 5.85777,15.8477 3.15305,-0.45191 4.05713,-2.10548 4.05713,-7.42044 z m 336.16729,2.46885 c 6.35402,-5.7503 4.83536,-17.51228 -3.44443,-26.67701 -8.95356,-9.91052 -18.18404,-14.33064 -29.92647,-14.33064 -16.17366,0 -22.27851,12.43378 -12.88291,26.23877 11.62836,17.08562 35.331,24.65388 46.25381,14.76888 z m -372.68527,-5.87879 c 3.64795,-9.50642 -0.85887,-15.20935 -8.70219,-11.01173 -4.0108,2.14652 -5.74133,9.96266 -2.84663,12.85734 2.56745,2.56746 10.33151,1.32669 11.54882,-1.84561 z M 513.9287,218.87288 c 11.29053,-13.41804 13.67672,-37.61923 5.52713,-56.0577 -5.7136,-12.92706 -22.45896,-28.91098 -33.86992,-32.32979 -18.25975,-5.47075 -38.57251,-1.7331 -53.09635,9.77 -14.00616,11.09307 -26.7723,45.93717 -19.14855,52.26432 3.53503,2.93382 3.49487,3.00905 7.188,-13.46368 3.34232,-14.90803 12.58577,-27.86011 24.93949,-34.94564 39.91549,-22.8937 84.8645,23.15241 64.75951,66.34017 -2.76225,5.93362 -5.02227,11.60584 -5.02227,12.60493 0,3.53386 3.73824,1.7414 8.72296,-4.18261 z m -34.34074,1.25758 c 8.88291,-3.71152 18.74019,-15.42652 20.39289,-24.23616 2.04678,-10.91022 -2.14385,-23.23492 -10.86596,-31.95705 -7.26322,-7.26321 -8.27321,-7.63607 -20.68423,-7.63607 -15.24094,0 -24.01827,4.69907 -30.07824,16.10285 -6.57368,12.37049 -3.83877,32.36434 5.57159,40.7318 10.72923,9.54017 23.55247,12.05513 35.66395,6.99463 z M 252.98245,172.66008 c 9.10413,-6.47815 12.93456,-13.70683 13.73034,-25.91155 0.56826,-8.71519 -0.20728,-13.38987 -3.09946,-18.6824 -10.84389,-19.84377 -37.2642,-21.79459 -48.46122,-3.57828 -14.94933,24.3209 1.64031,56.85052 26.86262,52.67328 3.3277,-0.55112 8.26319,-2.57659 10.96772,-4.50105 z"
     id="path14"
     transform="translate(110,272)" />
  <path
     style="fill:#ffffff;stroke-width:0.349769"
     d="m 456.92518,185.67553 c -2.9297,-0.51436 -6.45336,-3.99333 -7.33131,-7.23833 -0.898,-3.31908 0.46236,-7.74214 3.09101,-10.05013 1.56706,-1.3759 5.08446,-3.1213 6.28947,-3.12096 1.46783,4.2e-4 5.11362,1.86801 6.65437,3.40876 4.94005,4.94004 3.84762,13.25777 -2.1207,16.14698 -1.50047,0.72637 -4.84073,1.15954 -6.58284,0.85368 z"
     id="path15"
     transform="translate(110,272)" />
  <path
     style="fill:#ffffff;stroke-width:0.349769"
     d="m 229.05135,141.4504 c -3.904,-1.13147 -6.77599,-5.10053 -6.76975,-9.35573 0.008,-5.528 4.19322,-9.85512 9.52397,-9.84713 6.8161,0.0102 10.35736,7.53796 6.84989,14.56098 -1.07499,2.15245 -3.02732,3.82507 -5.22732,4.4784 -2.03332,0.60384 -2.76331,0.6311 -4.37679,0.16348 z"
     id="path16"
     transform="translate(110,272)" />
  <path
     style="fill:#ffffff;stroke-width:0.349769"
     d="m 639.14489,235.39452 c -7.22446,-1.36996 -14.49006,-5.52541 -20.11868,-11.50657 -5.40004,-5.73828 -7.68948,-11.52804 -6.33983,-16.03278 0.5004,-1.67017 3.00099,-4.55103 4.48323,-5.16499 1.65399,-0.6851 10.62438,-0.26166 14.13098,0.66705 5.72226,1.51552 11.29154,5.15395 17.0124,11.11427 5.88741,6.13385 8.24435,12.70759 6.07595,16.94645 -1.77319,3.4663 -8.57629,5.24095 -15.24405,3.97657 z"
     id="path17"
     transform="translate(110,272)" />
  <path
     style="fill:#ffffff;stroke-width:0.349769"
     d="m 662.28754,315.11523 c -8.08161,-2.12247 -15.00617,-9.55775 -13.61009,-14.61392 1.95879,-7.09416 14.54142,-6.46845 21.90199,1.08915 3.06074,3.14267 4.65835,8.1055 3.43749,10.67826 -0.73955,1.5585 -1.7004,2.20492 -4.27368,2.87518 -2.47135,0.6437 -4.93156,0.63424 -7.45571,-0.0287 z"
     id="path18"
     transform="translate(110,272)" />
  <path
     style="fill:#ffffff;stroke-width:0.349769"
     d="m 731.89396,271.53495 c -7.17585,-1.02399 -15.31975,-6.21103 -21.63994,-13.78299 -4.55775,-5.46044 -6.47215,-9.96725 -5.61775,-13.22511 0.51437,-1.9613 1.905,-3.90393 3.23841,-4.52389 3.79886,-1.76623 13.91724,-0.51382 19.45413,2.40796 6.72701,3.54979 14.08332,11.38561 16.49465,17.56981 1.13281,2.90526 1.11632,6.17557 -0.0397,7.88381 -1.14984,1.69904 -3.03275,2.91931 -5.49361,3.56029 -2.2035,0.57393 -3.04436,0.58841 -6.39614,0.11012 z"
     id="path19"
     transform="translate(110,272)" />
  <path
     style="fill:#ffffff;stroke-width:0.349769"
     d="m 768.61731,333.00303 c -6.13918,-1.71283 -11.23145,-6.85799 -11.30023,-11.4176 -0.0522,-3.46086 2.27048,-5.34481 6.52483,-5.29234 4.56821,0.0564 8.11594,1.62114 11.48458,5.06548 4.00067,4.09058 4.49638,7.30212 1.59189,10.31327 -1.73977,1.80366 -4.8309,2.29936 -8.30107,1.33119 z"
     id="path20"
     transform="translate(110,272)" />
  <path
     style="fill:#ffffff;stroke-width:0.830511"
     d="m 805.59552,715.43447 c -3.47357,-1.0196 -8.24681,-5.16385 -9.85783,-8.55883 -1.97575,-4.16356 -1.73239,-11.02188 0.533,-15.02148 1.66144,-2.93331 3.75732,-4.82027 10.89862,-9.81225 2.99694,-2.09495 6.52142,-13.28578 6.64054,-21.08492 0.0836,-5.47034 -0.11389,-6.19721 -2.48161,-9.13562 -3.60773,-4.47727 -9.10696,-7.65155 -14.90914,-8.60588 -6.26862,-1.03103 -19.88882,0.26264 -27.57968,2.61958 -11.9794,3.67119 -33.1732,14.91817 -48.45819,25.71547 -8.23846,5.81963 -9.31562,7.24952 -10.19214,13.52969 -0.59503,4.2633 -3.60911,8.68091 -7.99811,11.72249 -2.97927,2.06463 -4.52366,2.5114 -9.45955,2.73648 -4.8854,0.22278 -6.53283,-0.0609 -9.58812,-1.65105 -10.26319,-5.34158 -12.21706,-17.05544 -4.30809,-25.82799 4.11166,-4.5606 8.39748,-6.36506 15.17103,-6.38748 6.5433,-0.0217 7.62128,-0.66227 26.45781,-15.72336 24.7194,-19.76485 38.2076,-31.87425 38.2076,-34.30194 0,-2.37835 -2.32942,-1.75758 -8.99553,2.39723 l -6.22816,3.88183 -14.60432,0.086 c -12.33642,0.0727 -15.8145,0.38741 -22.39732,2.02694 -7.09189,1.76632 -8.21521,2.32909 -12.4861,6.25544 -5.79912,5.3313 -10.43674,6.91835 -15.90991,5.44459 -5.22404,-1.40669 -7.90844,-3.61878 -9.52356,-7.84789 -2.29283,-6.0037 0.0425,-12.75442 5.63283,-16.28287 2.48136,-1.56615 3.53661,-1.66536 12.67288,-1.19134 l 9.96613,0.51708 12.04241,-3.8831 c 20.00877,-6.45187 34.90961,-13.35263 51.86163,-24.01777 l 7.42929,-4.67404 9.9002,1.40775 c 13.10026,1.86278 35.34626,1.24603 47.49565,-1.31677 18.49112,-3.90053 39.07746,-12.37408 54.13055,-22.28068 8.06157,-5.3054 20.20017,-16.18459 20.20017,-18.10435 0,-2.16172 -2.8753,-1.12205 -12.938,4.67818 -24.9235,14.36614 -50.01002,22.92812 -75.27105,25.68986 -21.34967,2.33412 -37.38389,0.033 -52.88463,-7.58953 -11.70253,-5.75477 -19.92835,-13.69328 -24.82394,-23.95688 -5.45932,-11.44549 -6.41815,-16.43064 -6.38214,-33.18224 0.0278,-12.95131 0.2856,-15.61918 2.36713,-24.50007 3.56184,-15.19675 7.48301,-26.10827 14.62421,-40.69503 10.19966,-20.83406 20.06361,-34.61399 35.40506,-49.46085 9.556,-9.24793 17.16753,-14.59244 29.81746,-20.93662 11.70627,-5.87091 21.671,-9.36731 30.28758,-10.62722 9.90585,-1.44842 28.58482,-0.58466 36.48815,1.68732 14.14573,4.06647 26.62486,11.6945 37.18231,22.72816 7.66105,8.0066 12.07146,14.43776 15.75212,22.96937 12.46944,28.90359 7.24779,60.84328 -15.47064,94.63043 -4.43636,6.59782 -5.9937,10.01808 -4.5615,10.01808 3.12942,0 15.206,-12.02731 21.31337,-21.22643 4.60206,-6.93176 11.68126,-20.88228 13.1894,-25.9915 0.58708,-1.98887 1.52997,-3.79363 2.09531,-4.01057 2.11132,-0.81018 8.92407,3.18937 13.63704,8.0059 3.15992,3.22935 5.97796,7.24432 8.02565,11.43445 l 3.15579,6.45757 -0.0351,14.53394 c -0.0331,13.70096 -0.16744,14.91407 -2.34383,21.16639 -7.19331,20.66492 -15.83366,31.05151 -54.9263,66.02704 -25.98643,23.24962 -46.47785,43.75751 -57.68438,57.73072 -8.6933,10.83951 -21.95297,30.29247 -26.16589,38.38739 l -2.25686,4.33644 1.47197,4.38392 c 3.1248,9.3065 1.15467,16.59097 -5.75784,21.28933 -6.02171,4.0929 -11.54942,5.15968 -17.57341,3.39148 z m 78.89853,-288.88066 c 10.47018,-4.84754 11.67093,-16.18538 2.40561,-22.71442 -7.50575,-5.28911 -19.13417,-4.87618 -25.19451,0.89467 -8.02898,7.64543 -5.07735,17.92691 6.35057,22.1211 4.58917,1.68428 12.46127,1.53996 16.43833,-0.30135 z"
     id="path21"
     transform="translate(110,272)" />
  <path
     style="fill:#ffffff;stroke-width:0.368327"
     d="m 870.99314,422.10354 c -5.04001,-1.4082 -8.55628,-4.73877 -8.55628,-8.10438 0,-2.67144 2.5783,-5.81198 6.09222,-7.4207 5.2594,-2.40784 12.68212,-0.82627 17.31721,3.6898 3.29516,3.21054 3.42926,6.19177 0.40396,8.98039 -2.35616,2.17184 -5.17804,3.13185 -9.63282,3.27712 -2.45947,0.0802 -4.32818,-0.0601 -5.62429,-0.42223 z"
     id="path22"
     transform="translate(110,272)" />
  <path
     style="fill:#ffffff;stroke-width:0.420369"
     d="m 307.92047,566.22371 c -3.2089,-0.8872 -5.44764,-2.61472 -6.86687,-5.29882 -1.04862,-1.98319 -1.17437,-2.61244 -1.04615,-5.23466 0.29375,-6.00729 3.75746,-8.94209 12.60207,-10.67775 1.30736,-0.25655 3.26223,-1.0528 4.34414,-1.76943 2.69231,-1.78331 14.26595,-13.24624 15.13405,-14.98927 0.89505,-1.79716 0.53011,-3.30666 -0.95358,-3.94424 -1.57978,-0.67887 -23.13125,-0.93131 -30.80866,-0.36087 -5.26974,0.39155 -6.32244,0.59867 -8.58236,1.68862 -3.56074,1.71731 -6.11742,2.28393 -9.19191,2.03714 -7.11478,-0.57111 -10.68797,-5.97298 -8.68442,-13.12895 1.12526,-4.01904 5.40364,-6.94961 10.14583,-6.94961 1.10289,0 3.48107,0.46594 5.28482,1.03543 4.66826,1.47388 7.16599,1.64319 13.36843,0.90619 5.27209,-0.62644 16.24343,-2.50885 17.5543,-3.01187 0.41161,-0.15796 3.22788,1.82349 7.93626,5.58372 6.45985,5.15899 12.31939,9.60972 19.07187,14.48642 1.15784,0.8362 5.47125,3.79059 9.58537,6.56533 4.11412,2.77473 7.32846,5.13212 7.14298,5.23864 -0.18548,0.10652 -2.41807,0.80653 -4.9613,1.55557 -6.28876,1.85218 -13.72277,4.85771 -22.37128,9.04459 -9.56678,4.63143 -10.58985,5.39701 -12.74312,9.53587 -2.01204,3.8674 -3.99002,6.00314 -6.64903,7.17934 -2.49301,1.10278 -6.39208,1.31575 -9.31144,0.50861 z"
     id="path23"
     transform="translate(110,272)" />
</svg>
