<?xml version="1.0" encoding="UTF-8" standalone="no"?>
<svg
   version="1.0"
   width="600.000000pt"
   height="600.000000pt"
   viewBox="0 0 600.000000 600.000000"
   preserveAspectRatio="xMidYMid meet"
   id="svg5"
   sodipodi:docname="G95kI01.svg"
   inkscape:version="1.4.3 (0d15f75, 2025-12-25)"
   xmlns:inkscape="http://www.inkscape.org/namespaces/inkscape"
   xmlns:sodipodi="http://sodipodi.sourceforge.net/DTD/sodipodi-0.dtd"
   xmlns="http://www.w3.org/2000/svg"
   xmlns:svg="http://www.w3.org/2000/svg">
  <defs
     id="defs5" />
  <sodipodi:namedview
     id="namedview5"
     pagecolor="#505050"
     bordercolor="#ffffff"
     borderopacity="1"
     inkscape:showpageshadow="0"
     inkscape:pageopacity="0"
     inkscape:pagecheckerboard="1"
     inkscape:deskcolor="#505050"
     inkscape:document-units="pt"
     inkscape:zoom="0.44763654"
     inkscape:cx="336.21026"
     inkscape:cy="358.54982"
     inkscape:window-width="1531"
     inkscape:window-height="1022"
     inkscape:window-x="0"
     inkscape:window-y="30"
     inkscape:window-maximized="0"
     inkscape:current-layer="svg5" />
  <g
     transform="translate(0.000000,600.000000) scale(0.066667,-0.066667)"
     fill="#000000"
     stroke="none"
     id="g5">
    <path
       d="M6380 8459 c-305 -54 -584 -271 -705 -547 l-40 -93 -112 -10 c-230 -19 -215 -24 -292 107 -499 860 -1806 510 -1944 -521 -13 -100 -20 -117 -63 -150 -141 -110 -254 -214 -314 -289 l-67 -84 -138 0 c-400 -1 -710 -292 -710 -667 0 -45 -6 -51 -101 -92 -231 -100 -424 -395 -424 -648 0 -63 -2 -66 -78 -104 -216 -109 -400 -422 -402 -680 0 -45 -16 -66 -132 -175 -605 -565 -684 -1609 -173 -2303 78 -106 80 -120 14 -152 -186 -89 -344 -325 -345 -518 -3 -301 246 -460 601 -385 44 9 49 6 74 -48 167 -354 715 -362 960 -13 l31 44 111 -36 c387 -123 726 8 787 305 21 105 44 28 39 -128 -14 -397 330 -612 686 -430 l107 55 78 -66 c253 -215 660 -179 789 71 l36 70 138 -8 c309 -18 498 195 400 452 -21 54 -13 62 89 83 45 9 96 21 112 25 29 7 31 0 31 -118 0 -274 181 -371 563 -303 50 9 56 6 74 -37 120 -292 631 -309 814 -28 41 64 53 73 86 66 217 -49 317 -48 428 6 56 28 75 30 114 16 188 -65 426 19 508 180 l29 56 112 5 c202 11 316 133 305 328 -8 152 -96 285 -281 423 -40 30 -49 45 -37 61 8 12 47 65 87 118 286 379 375 934 225 1413 -102 330 -383 738 -619 902 -77 53 -76 62 8 144 370 361 567 1022 443 1492 -93 350 -351 681 -724 926 l-159 104 8 178 c26 635 -456 1106 -1027 1003z m324 -252 c206 -65 451 -309 451 -450 l0 -38 -49 46 c-307 292 -750 -109 -568 -514 106 -237 404 -315 575 -150 41 40 79 50 94 25 4 -7 47 -35 94 -62 490 -275 796 -714 798 -1149 1 -114 -5 -121 -139 -163 -783 -248 -2724 -398 -3677 -286 -338 40 -414 23 -413 -92 2 -114 111 -143 713 -183 1046 -71 2762 96 3373 328 90 35 89 -7 -6 -203 -117 -242 -365 -518 -598 -666 -190 -120 -156 -205 54 -134 108 36 132 28 300 -98 743 -558 795 -1751 98 -2231 -92 -63 -87 -115 13 -140 269 -69 528 -364 395 -451 -69 -46 -176 -22 -348 78 -85 50 -110 4 -57 -104 68 -139 15 -234 -135 -247 -101 -8 -157 22 -157 84 -1 97 -173 385 -248 413 -35 14 -27 58 37 202 290 659 344 1379 141 1882 -112 277 -248 340 -153 70 211 -594 151 -1315 -166 -2002 -79 -169 -79 -166 44 -286 163 -157 213 -281 146 -359 -71 -83 -254 -55 -406 61 -107 82 -160 65 -160 -49 0 -169 -113 -289 -272 -289 -159 0 -268 115 -268 283 0 102 -43 130 -123 79 -273 -175 -492 -166 -463 20 20 134 248 343 487 449 90 40 86 32 115 219 13 80 43 166 105 300 167 359 238 632 249 953 7 187 4 229 -15 255 -40 52 -76 12 -89 -100 -140 -1121 -628 -1739 -1438 -1820 -95 -10 -103 -8 -180 41 -105 68 -247 139 -354 178 -112 41 -106 33 -139 187 -55 258 -156 493 -278 644 -34 41 -66 83 -72 93 -7 11 15 50 55 100 178 218 263 585 183 784 -58 143 -99 99 -105 -110 -6 -235 -89 -454 -226 -594 -63 -64 -61 -63 -132 -34 -139 58 -154 2 -27 -99 226 -181 414 -558 446 -898 10 -98 37 -165 68 -165 82 0 473 -200 588 -301 325 -286 35 -476 -342 -224 -150 100 -192 71 -115 -78 117 -226 -58 -379 -321 -281 -81 31 -232 159 -232 197 0 92 -92 87 -197 -10 -270 -250 -591 -87 -479 243 45 134 43 139 -83 261 -601 584 -769 1547 -383 2200 98 165 18 186 -98 26 -31 -42 -34 -43 -43 -15 -210 626 -787 1009 -1266 840 -97 -34 -112 -24 -102 71 25 242 266 496 448 472 83 -11 99 16 60 98 -65 133 -28 327 88 474 108 137 342 215 411 138 46 -50 112 -70 141 -41 23 23 19 30 -45 96 -239 248 -8 678 366 679 128 0 130 -5 59 -153 -277 -579 -148 -1241 297 -1526 162 -104 167 -45 9 121 -530 557 -386 1427 325 1952 123 91 124 93 140 249 87 894 1170 1191 1568 431 27 -51 65 -110 87 -133 l38 -42 278 10 c297 10 361 30 361 112 0 56 125 273 201 349 179 179 439 248 668 177z m241 -775 c0 -12 -10 -22 -22 -22 -23 0 -31 32 -13 50 14 14 35 -3 35 -28z m-5188 -2901 c320 -99 563 -380 689 -794 33 -110 33 -112 6 -195 -106 -334 -108 -715 -4 -1112 75 -286 75 -290 -14 -381 -76 -79 -186 -127 -361 -158 -137 -24 -145 -27 -145 -61 0 -67 205 -77 417 -20 117 31 137 24 247 -88 357 -363 -108 -631 -565 -326 -127 85 -182 71 -182 -48 0 -193 -209 -343 -414 -298 -166 37 -236 127 -237 306 -2 141 -22 153 -139 82 -326 -199 -613 -47 -447 236 66 114 309 276 412 276 130 0 129 73 -2 202 -589 584 -602 1641 -27 2174 226 208 509 284 766 205z"
       id="path1" />
    <path
       d="M4658 7739 c-253 -60 -399 -422 -273 -677 161 -330 608 -305 725 39 122 356 -132 713 -452 638z m97 -449 c0 -16 -7 -30 -15 -30 -8 0 -15 14 -15 30 0 17 7 30 15 30 8 0 15 -13 15 -30z"
       id="path2" />
    <path
       d="M7020 6366 c-66 -60 -114 -183 -97 -251 54 -216 398 -44 362 181 -22 134 -156 169 -265 70z"
       id="path3" />
    <path
       d="M6135 6334 c-188 -94 -26 -367 220 -370 224 -4 157 314 -80 380 -75 21 -78 20 -140 -10z"
       id="path4" />
    <path
       d="M2141 5573 c-360 -128 -449 -698 -110 -704 85 -2 86 44 2 87 -219 113 -78 477 208 537 94 20 121 49 76 82 -35 25 -103 25 -176 -2z"
       id="path5" />
  </g>
  <path
     style="fill:#000000;fill-opacity:1;stroke-width:0.75"
     id="path7"
     d="m 314.084,111.2288 c 2.43223,-0.43969 4.90691,-0.27685 7.36171,-0.21012 1.80928,0.17373 3.69686,0.30021 5.43194,0.89764 0.29367,0.10112 0.56949,0.24806 0.85423,0.37209 -2.92375,-1.64051 -5.84751,-3.28102 -8.77126,-4.92152 0.21789,0.17247 0.48505,0.29653 0.65367,0.51741 1.53288,2.00794 1.84947,6.91746 1.97966,9.42148 -0.0886,1.03311 0.32571,2.74998 -0.55741,3.61633 -0.88836,0.87149 -3.0899,1.10492 -4.2254,1.31928 -1.34443,0.0824 -2.80389,0.61567 -4.10849,0.002 -0.31917,-0.15002 -1.15714,-0.8019 -0.84706,-0.63392 8.58046,4.64807 10.93997,7.32012 8.03809,4.2001 -0.8587,-1.17438 -1.17701,-2.60915 -1.50594,-4.00054 -0.11293,-0.65119 -0.25841,-1.26671 -0.59142,-1.83594 -0.41689,-0.96126 0.12094,-1.61696 0.65995,-2.40954 2.14746,-2.33182 5.10415,-3.68423 8.05169,-4.71353 0.0491,-0.0144 1.41635,-0.42975 1.60144,-0.43375 0.14573,-0.003 0.27556,0.0952 0.41335,0.14278 -3.13566,-1.71522 -6.23113,-3.50601 -9.40696,-5.14564 -0.13122,-0.0677 0.1906,0.24663 0.20299,0.39378 0.022,0.2605 -0.0695,0.51819 -0.10428,0.77728 -0.37352,1.58587 -1.10646,3.00964 -2.05687,4.31793 0,0 9.5301,5.58444 9.5301,5.58444 v 0 c 0.91035,-1.48218 1.70089,-3.02902 2.23744,-4.6901 0.0187,-0.0658 0.57056,-1.90638 0.47319,-1.97473 -8.08944,-5.6794 -6.98075,-7.1634 -11.95125,-5.04309 -2.99273,1.35048 -5.94984,2.9451 -8.38683,5.16837 -0.87235,0.95709 -1.61731,1.84645 -1.4262,3.20691 0.0886,0.73212 0.64367,1.0976 0.70035,1.84616 0.41415,1.50607 0.76668,3.05597 1.4587,4.46062 2.58644,4.16596 0.52639,1.13713 10.61847,7.00057 0.62327,0.36212 1.57595,0.39775 2.25505,0.35668 0.49666,-0.03 2.54424,-0.40555 2.92161,-0.47171 1.67269,-0.37938 3.74687,-0.63908 4.95847,-2.02764 0.99996,-1.146 0.5867,-2.90886 0.56451,-4.24473 -0.1764,-2.14734 -0.39861,-4.28678 -0.70982,-6.41958 -7.5e-4,-0.007 -0.53745,-3.35417 -0.60461,-3.53769 -0.10542,-0.28806 -0.37421,-0.48615 -0.56132,-0.72922 -3.3964,-1.95617 -6.75716,-3.97556 -10.18919,-5.86852 -0.26337,-0.14526 -0.5783,-0.16698 -0.87189,-0.23229 -1.77351,-0.39454 -3.59993,-0.52179 -5.40899,-0.61603 -2.5984,-0.0886 -5.20394,-0.1785 -7.79452,0.10804 z" />
  <path
     style="fill:#000000;fill-opacity:1;stroke-width:0.75"
     id="path8"
     d="m 464.54635,109.99322 c 0.23576,-0.84826 0.61449,-1.75128 1.34174,-2.28792 0.57945,-0.30467 1.21974,-0.40548 1.86632,-0.42761 0.23797,0.46445 0.90257,0.50795 1.3753,0.53693 0.16864,0.0918 0.37406,-0.0395 0.5434,0.0254 0.1471,0.0563 0.22727,0.21816 0.34125,0.32688 0.046,0.0439 0.19027,0.16651 0.13543,0.13432 -3.1589,-1.85465 -6.30179,-3.73644 -9.45269,-5.60466 0.38595,0.12615 0.36628,0.47979 0.36938,0.83075 -0.0172,0.23857 0.16764,0.38562 0.22802,0.59742 1.16449,4.08493 0.0648,0.45356 9.92526,6.29029 4.23538,0.35083 -12.87688,-7.25176 -9.02221,-5.30296 0,0 10.42476,4.32595 10.42476,4.32595 v 0 c -2.0632,-3.43897 -7.31785,-3.32198 -10.17758,-6.08845 3.13898,1.86417 6.28473,3.71699 9.41696,5.59249 0.0496,0.0297 -0.10872,-0.0401 -0.1651,-0.0526 -0.0599,-0.0134 -0.13702,0.0165 -0.18243,-0.0247 -0.14444,-0.13133 -0.0171,-0.4695 -0.25807,-0.54048 -0.31596,-0.17799 0.004,-0.89556 -0.17921,-1.2298 -11.72932,-7.122025 -5.99848,-5.19791 -10.91761,-6.05396 -0.52647,-0.17568 -1.06753,-0.47969 -1.61467,-0.24111 -0.77786,0.21031 -1.53097,0.48978 -2.15612,1.01835 -0.75475,0.76605 -1.25592,1.70175 -1.64016,2.70413 z" />
  <path
     style="fill:#ffffff;fill-opacity:1;stroke-width:2.23396"
     d="m 361.90075,714.71064 c -8.63625,-4.48245 -18.98862,-14.36918 -18.98862,-18.13456 0,-5.34321 -9.91009,-3.04459 -21.06446,4.88587 -13.91299,9.89177 -26.76921,10.76576 -34.66899,2.35682 -4.76688,-5.07412 -5.01865,-6.66411 -3.54514,-22.38861 l 1.58615,-16.92661 -12.8353,-13.86366 c -7.05941,-7.62501 -16.30481,-19.28737 -20.54532,-25.91636 -30.29301,-47.35559 -36.1435,-111.07132 -14.17221,-154.34471 9.59903,-18.90571 10.3795,-22.47079 4.91932,-22.47079 -2.51182,0 -6.22967,2.53763 -8.26189,5.63919 l -3.69494,5.63917 -8.65664,-17.78976 c -10.74204,-22.07535 -30.68938,-43.08297 -49.96042,-52.61604 -11.62253,-5.74948 -15.92206,-6.63909 -32.39009,-6.70186 -10.44374,-0.0398 -21.75314,0.70072 -25.13199,1.64564 -5.61054,1.56902 -6.14338,1.19423 -6.14338,-4.32107 0,-9.15024 8.15819,-24.09895 18.00861,-32.99823 6.95764,-6.28581 10.66282,-7.96085 17.60927,-7.96085 4.83865,0 9.37474,-0.93393 10.0802,-2.07539 0.70546,-1.14146 0.11044,-6.45816 -1.32228,-11.81492 -4.68613,-17.52091 2.30056,-35.23499 18.0954,-45.87914 10.93415,-7.36852 17.48947,-8.48526 24.72376,-4.21186 11.5509,6.82328 21.45561,2.39685 12.06875,-5.39355 -5.40339,-4.48442 -9.9055,-14.57234 -9.9055,-22.19536 0,-7.84194 6.40228,-21.61731 12.68929,-27.3027 6.08434,-5.50212 19.54099,-10.69649 27.71058,-10.69649 8.26048,0 8.20418,0.97107 -1.48948,25.69049 -5.29839,13.5112 -6.15851,18.9793 -6.32516,40.21119 -0.22617,28.81427 3.77456,43.96563 16.39609,62.09444 7.18596,10.3215 26.36842,26.1468 31.69354,26.1468 4.55007,0 1.3471,-7.07472 -8.26137,-18.24773 -26.60357,-30.93537 -33.61612,-65.68911 -20.94046,-103.77949 8.04213,-24.16659 22.18826,-42.62293 53.13226,-69.32125 6.41235,-5.53254 7.88785,-8.84958 10.78894,-24.25445 6.01744,-31.95276 21.58431,-53.608123 46.85128,-65.175726 35.06284,-16.052301 67.43826,-4.596783 90.58382,32.051616 l 8.94394,14.16173 21.58081,-0.26431 c 33.12643,-0.40572 33.27215,-0.47156 42.85711,-19.36532 10.18447,-20.075506 15.4367,-25.789808 30.46043,-33.140232 24.18258,-11.831439 50.67443,-5.530913 70.24931,16.707315 11.65209,13.237477 11.52922,17.359727 -0.33313,11.176727 -15.19726,-7.92126 -30.48212,-2.85276 -41.98227,13.92145 -4.47629,6.52913 -5.10278,9.75083 -4.39893,22.62122 1.21936,22.29676 12.37545,35.01837 32.35022,36.88989 8.96017,0.83952 12.22472,0.0215 19.35839,-4.85053 l 8.58068,-5.86033 18.50062,12.30987 c 23.71202,15.77745 41.1776,34.71705 51.75924,56.12753 7.2392,14.64751 8.38757,19.09838 8.50411,32.96043 l 0.13473,16.02618 -15.10169,5.04686 c -8.30596,2.77578 -29.41684,7.51484 -46.91306,10.53126 -86.88055,14.97852 -192.59431,20.50595 -270.42951,14.13987 -36.07675,-2.95068 -40.12271,-2.18825 -41.31964,7.7862 -1.56372,13.03118 17.35328,16.87001 92.512,18.7734 91.49883,2.31722 206.03532,-9.14208 260.35524,-26.04834 7.70167,-2.39701 14.52879,-3.83244 15.17141,-3.18982 2.42838,2.42838 -15.91588,33.97205 -26.96745,46.37166 -6.33568,7.10847 -18.41014,18.42249 -26.83211,25.14225 -19.95239,15.91968 -20.21694,19.775 -1.21739,17.74033 l 14.0953,-1.50948 13.65838,10.05472 c 31.32139,23.0575 51.91111,64.80657 51.91111,105.25848 0,34.1336 -11.83965,62.46004 -34.96245,83.64788 -7.76521,7.11539 -14.11853,14.02421 -14.11853,15.35297 0,1.32873 6.41022,5.4752 14.24497,9.21437 16.38257,7.81869 31.07007,22.44585 30.0106,29.88733 -0.96735,6.79435 -12.28053,7.57498 -23.89658,1.64893 -13.34205,-6.80662 -16.7684,-6.20443 -15.15334,2.66316 0.72726,3.9932 1.94213,9.37238 2.69971,11.95372 2.14411,7.30595 -4.5125,12.42063 -15.12026,11.61784 -8.34874,-0.63183 -9.10645,-1.28768 -12.24042,-10.59478 -3.92003,-11.64163 -8.13106,-18.83962 -16.41349,-28.05598 l -6.02277,-6.70186 8.55386,-22.33955 c 15.03932,-39.27732 18.58327,-57.83494 18.5578,-97.17706 -0.0203,-31.45293 -0.56557,-36.26417 -5.94918,-52.49795 -5.87854,-17.72612 -17.35995,-35.16638 -20.87627,-31.71108 -1.0065,0.98904 1.01292,12.54976 4.48764,25.69049 13.84512,52.35989 9.33608,103.1886 -14.16265,159.65034 -4.97004,11.94175 -9.03642,22.20956 -9.03642,22.81733 0,0.60779 5.0036,6.6302 11.11911,13.38318 18.11492,20.00313 17.89761,31.43691 -0.59309,31.2036 -7.15227,-0.0902 -12.84727,-1.93168 -19.4141,-6.27739 -12.49118,-8.26629 -15.90893,-7.1343 -19.3465,6.40772 -3.48881,13.74394 -11.34563,21.21996 -22.30086,21.21996 -4.3126,0 -9.77518,-1.03508 -12.13904,-2.30017 -5.7427,-3.07341 -11.04604,-13.74752 -11.04604,-22.2325 0,-9.73268 -4.93838,-10.5995 -19.22003,-3.37363 -30.18617,15.27279 -43.34935,0.99989 -20.31825,-22.0312 5.20062,-5.20063 15.4703,-12.86428 22.82151,-17.03034 15.55268,-8.81396 16.02673,-9.37396 17.9689,-21.22769 0.80937,-4.93985 5.86081,-19.68836 11.22543,-32.77449 14.77888,-36.05081 19.223,-54.67952 19.59473,-82.13664 0.30096,-22.22859 0.0543,-23.6398 -4.13147,-23.6398 -3.87875,0 -4.91897,2.73072 -8.08433,21.22258 -9.47436,55.34874 -24.53826,89.47093 -50.70462,114.85429 -19.38342,18.80338 -38.24918,28.42498 -64.59236,32.94233 l -15.44319,2.64822 -24.94428,-12.11318 c -20.08531,-9.75362 -25.1929,-13.20108 -26.22065,-17.69808 -4.84009,-21.17794 -14.26325,-45.1725 -22.65463,-57.68624 -5.30799,-7.91558 -9.65086,-14.84846 -9.65086,-15.40641 0,-0.55795 2.99296,-5.19991 6.65104,-10.31547 3.65806,-5.11557 8.68446,-15.23876 11.16978,-22.49599 7.30527,-21.33186 5.18762,-52.70671 -3.55747,-52.70671 -2.94685,0 -4.19494,5.28444 -6.24026,26.42139 -1.26989,13.12355 -10.08492,34.39721 -17.54204,42.33495 -4.08388,4.34707 -6.21277,4.88883 -14.39161,3.66234 -5.27933,-0.79169 -9.59877,-0.69943 -9.59877,0.20501 0,0.90446 5.9538,8.00907 13.23064,15.78806 16.83661,17.99837 28.17351,40.71157 33.2864,66.68852 2.38015,12.09265 5.19388,20.49973 7.18119,21.45645 37.53625,18.07048 48.08852,24.24822 55.90703,32.7303 13.27416,14.40077 11.15606,23.07886 -5.61465,23.00384 -5.7894,-0.0259 -13.39953,-2.4393 -21.1327,-6.70186 -18.69883,-10.30687 -25.2201,-7.71381 -16.95623,6.74234 10.33302,18.07574 -8.49299,31.73271 -29.04142,21.06754 z M 186.53526,364.55482 c 0,-1.61195 -3.01584,-5.16052 -6.70186,-7.88573 -5.28908,-3.91038 -6.70187,-6.6512 -6.70187,-13.00166 0,-14.83704 10.45688,-25.57477 32.01963,-32.87964 10.65293,-3.60891 -3.40376,-10.14647 -15.36272,-7.14495 -21.69112,5.44412 -37.05562,43.67829 -23.39542,58.2189 5.80085,6.17472 20.14224,8.09222 20.14224,2.69308 z m 386.62112,-95.44181 c 9.72526,-5.2048 3.13292,-25.8373 -10.29058,-32.20717 -13.06641,-6.20042 -25.59956,-0.3653 -25.59956,11.9185 0,13.89729 23.26179,27.04716 35.89014,20.28867 z m 62.477,-5.54411 c 6.83325,-3.53361 13.33062,-13.56275 13.33062,-20.57675 0,-13.11409 -16.96558,-18.91713 -26.26924,-8.98534 -9.78973,10.45067 -11.3371,25.85611 -3.08134,30.67749 5.14777,3.00629 8.50098,2.77282 16.01996,-1.1154 z M 439.9106,188.87959 c 10.34936,-6.39626 17.07012,-19.79759 17.24437,-34.38561 0.17693,-14.81157 -1.4478,-20.53381 -8.50474,-29.95332 -7.80914,-10.4236 -17.22332,-14.66194 -29.86816,-13.44693 -21.70334,2.08542 -34.63935,19.86247 -33.01513,45.37037 1.01422,15.92797 5.08495,23.33835 17.43926,31.74663 9.59252,6.52861 26.71815,6.84069 36.7044,0.66886 z"
     id="path9"
     transform="scale(0.75)" />
  <path
     style="fill:#ffffff;fill-opacity:1;stroke-width:2.23396"
     d="m 124.68355,704.58394 c -9.69656,-2.80544 -15.6313,-11.09415 -17.45915,-24.3842 -0.84155,-6.11885 -2.40351,-11.66495 -3.47101,-12.32471 -1.0675,-0.65975 -6.971582,1.34969 -13.12018,4.46541 -19.244907,9.75215 -40.389,5.99057 -40.360866,-7.18027 0.01057,-4.94973 7.785438,-17.80697 14.129289,-23.36549 6.256667,-5.48215 26.043715,-15.12019 31.099953,-15.14841 7.290114,-0.0407 4.087754,-8.88196 -8.659927,-23.90883 -13.774414,-16.23715 -25.609849,-39.12446 -30.922205,-59.79718 -4.440996,-17.28188 -4.39671,-51.52966 0.08902,-68.84066 8.248747,-31.83295 28.600455,-58.80135 53.698826,-71.15724 12.63895,-6.22213 15.68187,-6.82791 30.35825,-6.04367 20.93158,1.11848 34.12191,7.63261 49.84641,24.61694 11.87976,12.83156 20.54194,28.25632 25.7776,45.90226 2.40228,8.0965 2.21059,11.95325 -1.33245,26.80747 -5.99509,25.13449 -5.27251,57.65426 1.97004,88.66132 3.90659,16.725 5.0404,25.6281 3.60526,28.30969 -4.88148,9.12113 -19.44441,16.24282 -42.89146,20.97514 -6.29957,1.27146 -8.21328,6.31372 -3.50149,9.22577 3.51353,2.17147 23.4502,1.55003 35.2374,-1.09837 8.9384,-2.00833 9.89827,-1.71204 17.9139,5.5296 22.03749,19.90954 15.46035,40.14545 -12.96038,39.87525 -10.09707,-0.096 -15.79774,-1.7634 -28.0338,-8.19969 -8.44766,-4.44358 -16.74688,-7.54677 -18.44272,-6.89602 -1.69583,0.65075 -3.72371,5.18787 -4.50639,10.08247 -1.83552,11.47871 -10.07687,21.15616 -20.47641,24.04455 -4.52856,1.25776 -8.73639,2.20179 -9.35072,2.09782 -0.61434,-0.10395 -4.32089,-1.11598 -8.23679,-2.24895 z"
     id="path10"
     transform="scale(0.75)" />
</svg>
