<?xml version="1.0" encoding="UTF-8" standalone="no"?>
<svg
   version="1.0"
   width="600.000000pt"
   height="600.000000pt"
   viewBox="0 0 600.000000 600.000000"
   preserveAspectRatio="xMidYMid meet"
   id="svg16"
   sodipodi:docname="TPUOPwt01.svg"
   inkscape:version="1.4.3 (0d15f75, 2025-12-25)"
   xmlns:inkscape="http://www.inkscape.org/namespaces/inkscape"
   xmlns:sodipodi="http://sodipodi.sourceforge.net/DTD/sodipodi-0.dtd"
   xmlns="http://www.w3.org/2000/svg"
   xmlns:svg="http://www.w3.org/2000/svg">
  <defs
     id="defs16" />
  <sodipodi:namedview
     id="namedview16"
     pagecolor="#505050"
     bordercolor="#ffffff"
     borderopacity="1"
     inkscape:showpageshadow="0"
     inkscape:pageopacity="0"
     inkscape:pagecheckerboard="1"
     inkscape:deskcolor="#505050"
     inkscape:document-units="pt"
     inkscape:zoom="0.41941381"
     inkscape:cx="240.81229"
     inkscape:cy="556.7294"
     inkscape:window-width="1024"
     inkscape:window-height="1022"
     inkscape:window-x="0"
     inkscape:window-y="30"
     inkscape:window-maximized="0"
     inkscape:current-layer="svg16" />
  <g
     transform="translate(0.000000,600.000000) scale(0.100000,-0.100000)"
     fill="#000000"
     stroke="none"
     id="g16">
    <path
       d="M4171 5590 c-164 -44 -296 -155 -385 -327 l-41 -78 -122 -9 c-67 -5 -128 -6 -136 -3 -8 3 -39 43 -69 89 -114 173 -238 262 -424 304 -88 19 -227 15 -305 -10 -219 -68 -378 -225 -463 -455 l-31 -84 -60 -13 c-87 -17 -149 -50 -217 -112 -47 -44 -69 -75 -104 -149 l-45 -94 -32 8 c-18 4 -70 8 -117 8 -78 0 -91 -3 -148 -34 -113 -61 -193 -180 -209 -310 l-8 -64 -52 -13 c-135 -35 -235 -121 -293 -252 -23 -52 -42 -149 -38 -198 3 -35 0 -38 -62 -76 -116 -70 -190 -162 -232 -286 -16 -47 -19 -76 -15 -168 l4 -112 -55 -68 c-89 -112 -131 -224 -147 -393 -4 -45 -18 -102 -37 -149 -107 -268 -110 -534 -8 -789 40 -98 78 -165 146 -255 30 -39 54 -75 54 -79 0 -4 -35 -32 -78 -62 -163 -114 -232 -266 -187 -411 20 -63 79 -126 143 -153 42 -18 141 -22 218 -10 l51 8 27 -55 c52 -106 151 -167 282 -174 133 -7 238 41 316 144 23 31 48 54 59 54 10 0 42 -10 71 -21 38 -16 83 -23 159 -27 127 -5 193 10 261 62 48 37 98 120 98 163 0 25 17 31 26 10 3 -8 6 -54 7 -103 2 -75 6 -98 30 -146 78 -159 255 -211 435 -128 l72 33 41 -38 c90 -81 242 -124 345 -96 67 18 131 67 168 130 25 42 38 55 52 52 10 -2 57 -4 104 -4 92 -1 129 11 183 62 68 62 80 142 42 267 -6 18 1 22 67 37 109 26 103 30 103 -72 0 -85 2 -91 31 -128 67 -83 171 -110 299 -78 l69 18 21 -29 c98 -140 239 -194 386 -147 54 18 127 79 175 147 l20 30 60 -17 c86 -24 154 -22 230 9 53 21 70 24 97 16 131 -41 266 -2 315 90 32 58 47 68 110 68 136 1 220 92 210 229 -8 101 -60 176 -177 255 -39 26 -71 51 -71 56 0 5 29 47 65 95 100 132 165 281 207 470 8 37 12 122 12 220 -1 142 -4 171 -28 260 -31 113 -103 272 -166 365 -53 78 -167 199 -242 257 -32 24 -58 48 -58 53 0 5 29 45 64 89 115 142 183 276 227 447 18 71 23 117 23 224 0 164 -20 245 -96 392 -89 171 -205 297 -400 438 l-90 65 -2 145 c-2 155 -9 185 -72 316 -41 83 -169 210 -254 252 -132 64 -269 78 -409 42z m224 -130 c92 -15 174 -60 243 -134 83 -89 152 -235 79 -169 -62 57 -161 72 -245 38 -91 -37 -162 -153 -162 -266 0 -220 246 -352 415 -223 45 34 46 34 78 18 79 -41 204 -132 281 -204 179 -170 276 -366 276 -559 0 -78 -1 -81 -28 -95 -68 -35 -396 -108 -657 -145 -430 -63 -762 -86 -1230 -86 -323 0 -438 4 -595 19 -217 22 -249 23 -280 6 -51 -27 -45 -105 10 -132 69 -32 518 -68 871 -68 615 0 1290 79 1758 206 51 14 96 23 99 20 8 -8 -16 -83 -46 -141 -89 -177 -242 -332 -464 -469 -80 -49 -90 -62 -62 -73 19 -7 139 29 206 63 67 34 95 31 164 -17 208 -146 344 -339 410 -584 36 -133 38 -336 5 -459 -56 -210 -180 -412 -318 -520 -82 -65 -81 -95 5 -116 67 -16 185 -83 242 -138 61 -59 75 -110 39 -148 -35 -38 -103 -34 -196 12 -106 53 -119 42 -77 -66 15 -40 16 -49 3 -74 -22 -45 -64 -71 -114 -71 -59 0 -92 27 -118 95 -26 70 -51 110 -122 193 l-56 67 54 133 c137 330 183 544 175 805 -6 171 -30 290 -87 423 -53 121 -109 189 -123 148 -2 -7 15 -69 39 -138 68 -201 78 -260 78 -466 0 -195 -9 -257 -67 -455 -33 -112 -96 -280 -148 -395 -36 -81 -34 -102 16 -140 45 -34 119 -134 134 -181 43 -130 -133 -153 -288 -37 -20 15 -42 23 -60 21 -25 -3 -27 -8 -37 -68 -6 -36 -18 -78 -27 -95 -81 -153 -291 -114 -329 62 -22 104 -38 113 -111 67 -55 -35 -142 -64 -190 -64 -30 0 -46 7 -69 29 -16 16 -29 39 -29 51 0 88 126 212 307 303 39 20 74 44 77 54 3 10 12 56 22 103 9 47 41 145 71 219 99 240 158 536 137 687 -8 60 -12 69 -31 72 -26 4 -28 0 -43 -148 -34 -319 -141 -598 -302 -790 -140 -167 -360 -278 -596 -301 l-107 -11 -86 49 c-48 27 -126 66 -173 87 l-86 39 0 77 c0 177 -69 382 -171 511 -16 20 -29 42 -29 48 0 6 21 37 47 69 52 64 124 209 144 292 26 104 12 325 -22 345 -27 17 -37 -17 -41 -143 -4 -105 -9 -141 -32 -207 -44 -127 -144 -275 -186 -275 -10 0 -45 16 -78 35 -33 20 -76 38 -96 42 -58 9 -45 -19 37 -80 116 -86 200 -183 251 -289 61 -126 77 -201 75 -355 -1 -94 2 -128 12 -137 8 -7 50 -27 94 -46 207 -86 375 -213 390 -293 16 -82 -37 -126 -133 -112 -64 9 -103 27 -188 85 -112 77 -147 64 -88 -31 42 -68 51 -113 31 -161 -54 -129 -273 -87 -369 71 -40 66 -50 66 -123 2 -89 -78 -187 -101 -264 -62 -72 37 -98 110 -80 220 l12 70 -76 90 c-299 357 -433 754 -372 1102 18 108 51 203 116 340 35 73 49 113 42 120 -16 16 -38 1 -74 -48 l-33 -46 -12 36 c-20 58 -84 179 -120 229 -144 195 -384 309 -588 278 -102 -15 -175 -42 -256 -95 -67 -44 -170 -142 -217 -208 -14 -20 -28 -35 -31 -33 -11 12 12 100 43 165 41 84 115 164 197 210 86 49 86 75 -2 69 -43 -3 -44 -3 -53 37 -14 65 -1 157 32 223 54 108 180 197 267 190 58 -4 67 18 34 82 -14 28 -20 59 -20 108 0 116 63 216 173 274 34 19 58 23 132 23 l90 0 -3 30 c-2 17 -4 66 -5 110 -2 67 2 88 23 129 29 57 97 120 147 137 49 16 145 6 186 -20 l33 -20 55 40 c47 36 56 48 70 98 8 31 23 70 31 86 43 81 162 165 235 165 26 0 34 -5 39 -25 11 -44 -6 -78 -71 -145 -76 -77 -117 -131 -173 -224 -141 -235 -191 -523 -127 -739 14 -49 35 -107 47 -130 61 -121 157 -231 260 -300 50 -33 98 -48 98 -31 0 3 -40 45 -89 92 -213 208 -294 442 -246 712 19 109 38 165 92 275 59 120 120 203 222 303 l84 83 8 98 c25 291 183 503 420 566 72 20 202 19 270 -1 137 -40 260 -144 331 -279 62 -119 50 -115 281 -108 231 7 231 7 267 105 73 202 234 328 430 337 14 0 52 -4 85 -9z m-3210 -2475 c125 -32 244 -113 322 -218 56 -76 118 -203 136 -283 13 -56 13 -64 -10 -134 -45 -138 -56 -208 -56 -360 0 -157 12 -236 64 -412 40 -134 39 -149 -17 -208 -54 -57 -134 -95 -243 -113 -76 -12 -88 -20 -71 -47 14 -23 145 -26 234 -5 42 10 86 15 101 11 15 -4 49 -29 76 -56 114 -114 117 -235 8 -291 -37 -18 -55 -21 -133 -17 -77 3 -102 9 -161 36 -38 18 -84 44 -102 58 -36 27 -71 29 -83 4 -4 -8 -15 -40 -24 -71 -31 -109 -120 -179 -226 -179 -147 0 -231 113 -185 250 15 47 16 54 2 67 -17 17 -29 13 -122 -45 -106 -66 -228 -76 -285 -22 -26 24 -30 35 -30 79 0 67 25 115 93 177 75 69 177 119 241 119 78 0 73 19 -34 132 -207 219 -300 427 -301 673 -1 163 35 299 118 450 169 309 440 469 688 405z"
       id="path1" />
    <path
       d="M3050 5141 c-78 -25 -146 -88 -184 -170 -16 -36 -21 -65 -21 -136 0 -106 20 -160 82 -222 59 -59 106 -78 188 -78 82 1 134 23 185 81 58 67 75 117 75 224 0 87 -3 100 -32 156 -32 62 -71 102 -126 130 -35 19 -131 27 -167 15z"
       id="path2" />
    <path
       d="M1649 4306 c-68 -47 -140 -183 -122 -232 14 -40 56 -45 97 -13 30 24 25 43 -10 35 -20 -5 -24 -3 -24 17 0 48 106 177 145 177 8 0 15 9 15 20 0 29 -56 27 -101 -4z"
       id="path3" />
    <path
       d="M4675 4271 c-40 -24 -61 -49 -80 -94 -41 -99 16 -182 108 -156 122 33 172 205 76 255 -38 19 -68 18 -104 -5z"
       id="path4" />
    <path
       d="M4030 4212 c-56 -56 -28 -143 64 -197 99 -58 196 -37 196 43 -1 84 -87 171 -179 180 -46 4 -53 2 -81 -26z"
       id="path5" />
    <path
       d="M1319 3918 c-87 -66 -149 -181 -149 -273 0 -68 41 -101 91 -75 25 14 25 40 -1 40 -17 0 -20 7 -20 40 0 86 93 226 166 250 47 16 43 44 -7 48 -28 2 -46 -4 -80 -30z"
       id="path6" />
    <path
       d="M1502 3775 c-74 -53 -66 -185 12 -185 60 0 123 100 95 151 l-13 24 -6 -35 c-9 -51 -27 -79 -56 -86 -39 -10 -50 8 -33 53 10 26 25 43 46 53 18 8 31 20 29 25 -5 17 -50 17 -74 0z"
       id="path7" />
    <path
       d="M1055 3456 c-39 -17 -70 -52 -90 -100 -20 -47 -13 -80 19 -101 21 -14 28 -14 58 -2 45 19 75 54 60 69 -9 9 -16 7 -30 -5 -24 -22 -62 -22 -62 -2 0 46 55 105 97 105 16 0 23 6 23 20 0 11 -4 20 -9 20 -5 0 -15 2 -23 5 -7 2 -26 -2 -43 -9z"
       id="path8" />
    <path
       d="M1415 3341 c-49 -21 -83 -89 -65 -132 36 -86 190 -44 190 52 0 20 -7 42 -15 49 -16 13 -18 9 -15 -31 3 -58 -110 -97 -118 -41 -4 28 31 70 62 74 11 2 21 10 21 18 0 17 -31 23 -60 11z"
       id="path9" />
    <path
       d="M1832 3170 c-80 -49 -55 -148 43 -170 56 -13 103 5 123 46 15 31 15 38 2 61 -23 41 -40 41 -33 0 4 -28 1 -37 -18 -51 -29 -20 -52 -20 -89 -1 -58 30 -30 95 41 95 42 0 51 13 20 30 -29 15 -52 12 -89 -10z"
       id="path10" />
    <path
       d="M5047 2934 c-3 -3 10 -21 29 -40 52 -53 45 -108 -11 -82 -31 14 -55 55 -55 93 0 31 -17 25 -31 -11 -12 -34 10 -85 49 -113 39 -27 97 -28 112 -2 25 47 0 120 -50 146 -33 17 -34 17 -43 9z"
       id="path11" />
    <path
       d="M5290 2562 c0 -5 11 -14 24 -21 39 -21 62 -94 34 -104 -39 -14 -97 58 -83 102 8 25 2 27 -19 5 -9 -8 -16 -31 -16 -51 0 -78 114 -138 154 -81 42 59 -5 158 -73 158 -12 0 -21 -4 -21 -8z"
       id="path12" />
    <path
       d="M5335 2151 c-3 -6 3 -15 14 -21 43 -22 50 -80 10 -80 -24 0 -53 44 -46 70 6 24 -18 28 -27 4 -20 -53 18 -114 73 -114 61 0 80 72 32 121 -31 30 -46 36 -56 20z"
       id="path13" />
    <path
       d="M743 2550 c-64 -29 -108 -114 -83 -160 11 -21 12 -21 25 -3 8 10 15 29 15 42 0 31 61 91 92 91 52 0 64 -50 23 -98 -14 -16 -36 -33 -50 -36 -14 -4 -25 -13 -25 -20 0 -8 -6 -17 -12 -19 -7 -3 3 -6 22 -6 71 -2 133 59 132 130 -1 45 -12 63 -53 85 -35 18 -35 18 -86 -6z"
       id="path14" />
    <path
       d="M533 2220 c-38 -23 -63 -67 -63 -111 0 -22 10 -41 35 -66 33 -33 39 -35 81 -30 32 3 54 13 75 33 46 44 51 122 8 144 -17 10 -18 8 -13 -33 6 -40 4 -46 -26 -70 -53 -45 -110 -31 -110 27 0 37 40 86 71 86 24 0 35 20 18 31 -21 13 -41 11 -76 -11z"
       id="path15" />
    <path
       d="M765 1915 c-51 -50 -20 -125 50 -125 59 0 99 53 79 104 -10 26 -24 18 -24 -14 0 -33 -27 -53 -63 -48 -17 2 -22 10 -22 32 0 28 10 38 48 50 10 3 15 10 12 16 -11 18 -56 10 -80 -15z"
       id="path16" />
  </g>
  <path
     style="fill:#ffffff;stroke-width:1.92251"
     d="m 359.87711,714.02349 c -4.0272,-2.12511 -10.03337,-7.71021 -13.34702,-12.41134 -3.31366,-4.70113 -7.46682,-8.54751 -9.22922,-8.54751 -1.7624,0 -6.9446,2.95974 -11.51598,6.57721 -11.55111,9.14072 -22.17948,11.91877 -31.19218,8.15301 -10.08322,-4.21304 -13.71711,-12.37757 -12.18123,-27.36851 l 1.22335,-11.94067 -9.32217,-11.26127 C 252.77828,631.2107 237.0531,602.78825 228.5707,574.54812 c -4.16564,-13.8685 -5.14726,-21.11459 -5.30076,-39.12925 -0.2158,-25.3261 2.33973,-36.96736 14.21871,-64.77092 4.19722,-9.82387 7.6313,-19.16723 7.6313,-20.76305 0,-4.51441 -3.56969,-3.44023 -9.25579,2.78526 l -5.19402,5.68672 -8.52256,-16.74115 c -14.64027,-28.75836 -38.24835,-47.34497 -66.90495,-52.6742 -24.92784,-4.63582 -50.7799,5.01412 -73.379566,27.39074 -7.487689,7.41381 -13.605529,12.36873 -13.5952,11.01096 0.03572,-4.69494 9.111112,-21.97149 15.161543,-28.86255 3.340438,-3.80455 10.409889,-9.70001 15.709894,-13.101 5.300009,-3.40102 9.318589,-7.15266 8.930189,-8.337 -0.3884,-1.18435 -3.85381,-2.42008 -7.7009,-2.7461 -6.169925,-0.52284 -7.130099,-1.31628 -8.142813,-6.72878 -4.071425,-21.75996 17.776523,-51.315 37.933543,-51.315 9.30575,0 10.35691,-2.53839 6.25032,-15.09355 -4.2548,-13.00831 -1.29551,-26.51713 8.08301,-36.89803 8.79752,-9.73781 17.20077,-13.37374 30.90895,-13.37374 h 11.40721 l -0.84479,-14.89945 c -0.81475,-14.36986 -0.61554,-15.23537 5.60483,-24.35022 8.45822,-12.39403 17.087,-17.07142 28.55848,-15.48066 4.75821,0.65983 10.58359,2.44058 12.94529,3.95722 3.97963,2.55566 4.85147,2.2539 11.90844,-4.12165 4.18795,-3.78355 8.63276,-10.06636 9.87736,-13.96178 1.2446,-3.89542 3.9224,-9.83535 5.95067,-13.19984 4.71628,-7.82337 19.88872,-17.91411 26.93566,-17.91411 8.96239,0 7.17742,7.51773 -5.03457,21.20395 -28.71577,32.18236 -42.00002,64.43608 -41.94317,101.83665 0.0413,27.19386 7.7343,47.64197 25.51488,67.81931 12.25094,13.90231 32.66832,26.70131 32.66832,20.47868 0,-1.27549 -6.27219,-8.90366 -13.93819,-16.95151 -15.81662,-16.60443 -25.0171,-32.45504 -29.24179,-50.37781 -5.69436,-24.15763 -1.94404,-48.37748 11.83523,-76.43284 6.93282,-14.11561 12.2778,-21.5999 24.89289,-34.8562 14.59044,-15.33206 16.06441,-17.57939 16.06441,-24.49306 0,-11.14625 6.93443,-36.39891 12.69398,-46.22684 7.44436,-12.70285 18.85126,-23.145763 32.15924,-29.441529 10.2239,-4.836743 14.11604,-5.608745 28.20213,-5.593863 13.17736,0.01392 18.25444,0.908039 26.22219,4.617944 13.32393,6.203829 24.6061,16.756843 34.66711,32.426648 5.05866,7.87873 10.37315,13.79573 13.4373,14.96072 5.46977,2.0796 46.73328,0.42292 53.71286,-2.1565 2.49945,-0.92372 6.66774,-7.03052 10.94169,-16.03025 12.79465,-26.94189 33.6983,-40.982119 58.19372,-39.086621 20.42955,1.580873 36.10202,11.47976 47.9894,30.310571 6.14897,9.74062 6.01557,10.25018 -1.4862,5.67627 -4.25986,-2.59729 -9.67543,-3.81186 -17.01828,-3.81676 -14.13091,-0.009 -22.05793,5.19482 -29.27544,19.21991 -4.66916,9.07317 -5.30655,12.157 -4.49632,21.75435 1.22392,14.49788 7.62995,24.38136 19.5398,30.14682 11.42694,5.53168 26.22432,4.74097 35.55022,-1.89965 l 6.35078,-4.52215 8.15394,4.32565 c 12.96127,6.87594 37.64696,27.72026 46.64384,39.38554 14.3853,18.65184 23.46752,42.6795 23.46752,62.08493 0,5.71576 -0.89185,6.93711 -6.8981,9.44668 -15.11775,6.31659 -72.06217,17.18577 -119.02627,22.7189 -59.51789,7.01222 -146.82096,8.47279 -225.42778,3.77143 -21.87052,-1.30806 -25.45969,-0.0648 -25.45969,8.8189 0,7.77276 5.11205,11.00025 21.1476,13.3515 86.17854,12.63617 232.21011,4.3848 324.48715,-18.33482 11.81552,-2.90912 22.06945,-4.70259 22.78655,-3.9855 0.71709,0.71708 -1.80676,7.58442 -5.60852,15.26075 -10.98522,22.18074 -28.475,40.6758 -55.69191,58.89296 -23.4252,15.67927 -17.56746,20.53647 10.51317,8.7175 6.04956,-2.54623 12.53924,-4.62117 14.42153,-4.61102 5.48059,0.0296 28.74675,18.64442 38.74058,30.99566 11.11693,13.73923 21.8712,34.94051 26.20294,51.65728 4.27397,16.49373 4.26509,48.06939 -0.0177,62.87683 -6.1125,21.13376 -19.8333,44.55942 -35.00985,59.77266 -7.69858,7.71716 -13.99739,15.20124 -13.99739,16.63126 0,1.43004 8.09184,6.53652 17.98188,11.34775 27.2245,13.24394 36.75804,26.64348 24.02458,33.76692 -4.70649,2.63293 -6.14015,2.42955 -18.80068,-2.66718 -16.87013,-6.79138 -19.33314,-5.51629 -14.83644,7.68077 l 3.0668,9.00062 -5.57018,5.5702 c -9.79747,9.79747 -19.26433,6.68456 -26.00175,-8.5499 -2.42007,-5.47223 -7.79425,-14.26656 -11.94263,-19.54294 -4.14837,-5.27639 -8.20569,-10.69173 -9.01628,-12.03409 -0.85278,-1.41223 2.57603,-12.75342 8.13735,-26.91513 16.53602,-42.10847 18.43965,-51.69076 18.4207,-92.72357 -0.0155,-33.44399 -0.32393,-36.48423 -5.16894,-50.9465 -5.84372,-17.44339 -15.31227,-33.64391 -19.66352,-33.64391 -4.11705,0 -3.80026,2.04288 4.17359,26.91513 6.99231,21.8105 7.08953,22.5499 7.20355,54.79152 0.10616,30.0185 -0.31721,34.23147 -5.19375,51.6828 -2.92016,10.45009 -10.05748,31.06064 -15.86071,45.80123 -5.80324,14.74059 -10.55136,27.18924 -10.55136,27.66366 0,0.47442 3.32163,4.52005 7.38141,8.99029 9.75247,10.73848 17.61121,22.65319 17.61121,26.70052 0,10.57244 -15.21578,12.21851 -31.88597,3.44948 -15.24589,-8.01981 -18.2242,-7.23069 -21.10083,5.59077 -6.41732,28.60264 -38.09158,29.69981 -45.17605,1.56487 -3.32075,-13.1879 -5.10357,-13.84251 -19.34752,-7.10404 -15.69158,7.42333 -27.17494,7.84267 -31.55855,1.15243 -2.82117,-4.30563 -2.76162,-5.20914 0.80367,-12.19771 4.88927,-9.58376 13.26039,-16.90758 32.51275,-28.44508 15.2325,-9.1285 15.3259,-9.23353 17.70892,-19.91158 1.31763,-5.90407 6.61342,-22.70836 11.76843,-37.34285 15.3077,-43.45676 21.69396,-86.54176 14.31047,-96.54561 -4.47552,-6.06388 -6.51836,-1.49427 -9.77719,21.8705 -11.64093,83.4619 -48.07627,128.73002 -112.57019,139.85985 l -17.57272,3.03257 -23.80416,-12.15328 -23.80415,-12.15328 -0.0228,-9.83077 c -0.0467,-20.11191 -6.43891,-41.49231 -18.28831,-61.17019 -3.69993,-6.14434 -6.72715,-11.80357 -6.72715,-12.57606 0,-0.7725 3.80072,-7.19126 8.44606,-14.26392 14.03202,-21.36412 17.00783,-31.77816 16.24029,-56.83384 -0.50109,-16.35779 -1.32877,-21.79714 -3.52268,-23.15061 -4.74123,-2.92494 -5.88028,0.37139 -7.61421,22.03498 -1.43998,17.99086 -2.55313,22.51856 -8.46292,34.42276 -3.74265,7.53893 -9.35663,16.73508 -12.47547,20.43591 l -5.67064,6.72878 -10.81538,-5.2869 c -11.73548,-5.73665 -18.42026,-6.73997 -18.42026,-2.76468 0,1.38722 2.81167,4.59904 6.24816,7.13737 30.54944,22.56511 45.63012,50.06336 45.68584,83.30401 0.0144,8.61199 0.50258,17.38844 1.08476,19.5032 0.71548,2.59898 7.91402,7.13478 22.2133,13.99654 15.93197,7.64526 23.97039,12.8896 32.55916,21.24194 12.43546,12.09311 13.95755,16.99985 7.32953,23.62787 -5.86606,5.86606 -18.26857,3.72646 -34.28817,-5.91517 -21.38222,-12.86924 -24.50836,-12.18198 -16.49743,3.62685 6.11754,12.0724 6.15737,18.25369 0.1563,24.25474 -5.95136,5.95138 -18.02828,6.2411 -28.55717,0.68513 z M 720.30902,530.31462 c 4.87523,-4.41202 4.3931,-9.57327 -1.43906,-15.40543 -3.81979,-3.8198 -5.47131,-4.43073 -7.20941,-2.66696 -1.72799,1.75352 -1.4688,2.86844 1.10981,4.77353 3.63406,2.6849 4.60693,8.79056 1.40066,8.79056 -1.08005,0 -2.98548,-2.37911 -4.23429,-5.2869 -3.12542,-7.27741 -3.3821,-7.47991 -5.41213,-4.26997 -2.85385,4.51259 -2.17286,7.48369 2.87148,12.52801 5.5484,5.54842 8.13971,5.85689 12.91294,1.53716 z m -1.4962,-51.76702 c 3.78994,-9.87643 -1.91335,-21.95162 -10.36811,-21.95162 -4.3986,0 -5.09598,2.91514 -1.2419,5.19137 3.40549,2.01131 7.66141,10.17757 6.11173,11.72725 -2.27594,2.27593 -7.7523,-2.8218 -9.60016,-8.93638 -2.30411,-7.62434 -5.64339,-6.84498 -6.4616,1.50809 -0.82496,8.42211 5.66279,15.50229 14.20514,15.50229 3.86913,0 6.62525,-1.13956 7.3549,-3.041 z m -35.23434,-47.01188 c 5.7721,-3.08914 4.83897,-12.56536 -1.90102,-19.30533 -8.89043,-8.89044 -13.39533,-6.91421 -5.91541,2.59498 2.11476,2.68847 3.84502,6.3712 3.84502,8.1838 0,5.65156 -8.23799,-1.32786 -10.1144,-8.56917 -1.3346,-5.15042 -2.09069,-5.82147 -4.39985,-3.90504 -5.80687,4.81927 -1.27605,17.53875 7.51055,21.08459 5.55015,2.23976 6.64913,2.23136 10.97511,-0.0838 z M 264.67429,397.66147 c 1.93368,-1.74994 3.51577,-4.70714 3.51577,-6.57154 0,-9.68719 -6.9913,-13.32491 -8.04297,-4.18491 -0.46698,4.05853 -1.76327,5.42115 -5.57915,5.86473 -5.55491,0.64571 -10.44721,-3.85221 -8.81536,-8.10473 0.58453,-1.52328 3.49299,-3.04827 6.46323,-3.38888 6.88388,-0.78938 7.26203,-6.16997 0.48909,-6.95889 -7.03907,-0.81993 -15.27499,6.22624 -15.27499,13.06839 0,11.01954 18.64988,18.05375 27.24438,10.27583 z M 197.71601,377.5611 c 7.84529,-3.57456 11.36986,-14.61459 6.06999,-19.0131 -2.40393,-1.99508 -2.88377,-1.73722 -2.88377,1.54979 0,4.96754 -4.89944,9.98527 -9.74987,9.98527 -5.18571,0 -4.6203,-4.77061 1.09858,-9.26907 6.02052,-4.73574 6.15809,-8.03352 0.33512,-8.03352 -5.35163,0 -12.05855,6.68499 -13.81677,13.77159 -0.93977,3.78777 -0.22637,6.1643 2.74125,9.13192 4.48893,4.48895 9.26018,5.04161 16.20547,1.87712 z m -53.15438,-14.07309 c 4.03307,-3.49357 4.84494,-5.23119 3.21763,-6.88663 -1.64116,-1.6695 -3.15644,-1.6021 -6.16073,0.27412 -2.19133,1.36851 -4.6145,1.85795 -5.38481,1.08764 -2.18763,-2.18763 5.94338,-11.84093 10.5505,-12.52579 6.52215,-0.96952 5.50023,-8.04801 -1.15413,-7.99419 -6.50097,0.0526 -12.53163,4.71272 -16.6144,12.83871 -3.87772,7.71785 -3.8934,11.03443 -0.0702,14.85759 4.28782,4.28783 9.38158,3.74914 15.61618,-1.65145 z m 25.19595,-39.92968 c 3.21176,-3.21176 2.87766,-5.38303 -0.8283,-5.38303 -2.5222,0 -2.91715,-1.34435 -2.01971,-6.87464 1.67125,-10.29869 10.17704,-23.36666 18.71878,-28.75882 8.80608,-5.55903 9.49847,-8.03045 2.72601,-9.73024 -15.14479,-3.80109 -38.24855,30.94415 -31.81978,47.8531 2.13705,5.62086 8.99501,7.12161 13.223,2.89363 z m 41.54755,-7.45305 c 5.0678,-6.02272 6.24967,-12.16964 3.25024,-16.90445 -1.21994,-1.92576 -2.28637,-0.7597 -3.96955,4.34039 -2.76122,8.36657 -9.68359,13.3133 -9.68359,6.91988 0,-2.20244 2.34557,-6.17825 5.21237,-8.8351 3.98811,-3.69607 4.61545,-5.19958 2.67095,-6.40136 -6.9394,-4.28878 -15.57336,4.1958 -15.57336,15.3039 0,12.64975 9.64096,15.62135 18.09294,5.57674 z m 356.92278,-47.98285 c 5.80481,-3.10664 5.01887,-15.3947 -1.4785,-23.11639 -5.39318,-6.40943 -14.89616,-11.42115 -21.65625,-11.42115 -5.9518,0 -11.5968,6.81047 -11.5968,13.99105 0,8.40075 4.58695,14.4952 14.19292,18.85743 8.97512,4.07576 15.13284,4.58214 20.53863,1.68906 z m 68.60683,-8.02227 c 3.80405,-3.15463 8.16716,-13.49845 8.16716,-19.36223 0,-6.49804 -6.76031,-12.92057 -13.6001,-12.92057 -19.96557,0 -29.57646,31.16491 -11.39252,36.94216 3.64496,1.15804 12.90154,-1.40532 16.82546,-4.65936 z M 216.61155,259.2408 c 4.57567,-4.14092 4.45843,-6.43081 -0.32924,-6.43081 -2.11476,0 -3.84502,-0.73533 -3.84502,-1.63406 0,-2.99582 11.39169,-17.40847 16.30317,-20.62659 2.66444,-1.7458 4.84443,-4.37239 4.84443,-5.83685 0,-3.69525 -8.65383,-3.37947 -14.62611,0.53372 -6.11138,4.00433 -16.09198,21.13405 -16.116,27.6599 -0.0331,8.98873 7.17278,12.30398 13.76877,6.33469 z m 214.99181,-67.03453 c 12.38173,-6.37282 19.22509,-19.91403 19.22509,-38.04139 0,-14.6841 -5.17562,-25.96475 -15.89233,-34.6385 -6.12128,-4.95437 -8.75879,-5.76375 -19.28738,-5.91876 -10.57697,-0.15572 -13.1455,0.54309 -19.34415,5.26288 -3.93127,2.99335 -9.48144,8.96887 -12.33371,13.27894 -4.51288,6.81945 -5.17693,9.73101 -5.11651,22.43394 0.046,9.66191 1.11948,16.5475 3.17507,20.36497 4.70663,8.74075 15.76969,18.49054 22.96377,20.2378 7.61701,1.84997 19.89828,0.47468 26.61015,-2.97988 z"
     id="path17"
     transform="scale(0.75)" />
  <path
     style="fill:#ffffff;stroke-width:1.92251"
     d="m 124.64189,704.43222 c -3.34882,-0.9803 -8.42963,-4.56434 -11.2907,-7.96451 -4.88466,-5.8051 -5.12778,-6.98011 -3.98605,-19.26472 1.53903,-16.55928 -0.23901,-17.48093 -16.485716,-8.54559 -19.827962,10.90497 -32.249305,11.02357 -39.226818,0.37454 -2.758991,-4.21075 -2.918746,-6.12661 -1.035119,-12.4136 4.293724,-14.33118 30.045345,-32.76404 45.772966,-32.76404 2.529467,0 4.463797,-1.15818 4.463797,-2.67269 0,-1.46997 -6.427679,-10.28743 -14.283737,-19.59433 -27.651457,-32.7581 -36.541056,-53.79319 -36.494217,-86.35476 0.03258,-22.64801 3.30693,-35.34137 14.877797,-57.67528 10.819588,-20.88381 30.458045,-40.88484 48.561267,-49.45783 24.08002,-11.40337 48.75535,-7.95217 70.91957,9.91912 9.41169,7.58876 19.19867,20.881 25.26865,34.31872 7.56849,16.75514 8.34972,23.30688 4.31166,36.15927 -8.90114,28.33067 -8.48087,63.97258 1.17215,99.40559 5.64705,20.72843 5.40701,22.08722 -5.6108,31.76098 -6.05032,5.31226 -22.31269,11.88125 -29.41352,11.88125 -5.22337,0 -9.98405,3.82875 -8.75219,7.0389 1.05664,2.75357 4.04974,2.99096 24.58645,1.95012 l 23.38335,-1.18514 6.83606,7.15249 c 13.44044,14.06256 15.12504,25.5627 4.99341,34.08792 -5.64438,4.74944 -7.25787,5.11205 -19.90496,4.47339 -11.42997,-0.57718 -16.2366,-1.96763 -28.3583,-8.20345 -16.48329,-8.47955 -18.4439,-8.09172 -22.18288,4.38788 -5.2951,17.67348 -22.07978,27.88189 -38.12212,23.18577 z m -8.00082,-145.27995 c 3.71612,-3.36304 4.89367,-14.12086 1.54567,-14.12086 -1.08355,0 -2.79239,2.16283 -3.79743,4.80628 -1.81486,4.77343 -6.46307,6.42438 -8.5555,3.03875 -1.19542,-1.93422 3.90565,-7.84503 6.77031,-7.84503 0.98185,0 1.78519,-0.86513 1.78519,-1.92251 0,-3.86106 -11.25385,-2.0127 -14.30981,2.35028 -3.955316,5.64701 -3.775091,8.40246 0.85224,13.0298 4.67516,4.67516 10.98201,4.94145 15.70933,0.66329 z m -27.634978,-32.0507 c 5.663679,-5.20384 5.469659,-19.10916 -0.281861,-20.20104 -3.035771,-0.57632 -3.36917,0.17651 -2.278112,5.14407 1.065774,4.85243 0.474558,6.34571 -3.558661,8.98838 -6.595645,4.32163 -11.75461,3.04741 -11.75461,-2.90329 0,-3.24637 1.943774,-5.96446 6.167931,-8.62496 7.07763,-4.45772 7.182147,-7.47637 0.287511,-8.30379 -6.990807,-0.83897 -15.106735,7.91998 -15.106735,16.30363 0,9.57594 7.599878,16.72198 15.914298,14.96395 3.407008,-0.72039 8.181616,-3.13552 10.610239,-5.36695 z m 19.654168,-40.72659 c 3.08829,-1.59702 6.50584,-4.5681 7.59457,-6.6024 2.2869,-4.27312 2.57028,-13.55236 0.50818,-16.64064 -2.60738,-3.90491 -10.1708,-6.76054 -14.462,-5.46025 -9.560903,2.89708 -18.038302,14.9046 -15.707494,22.24833 1.709346,5.38567 4.356879,4.35026 7.380564,-2.88643 3.059104,-7.32147 9.92212,-12.9648 13.90715,-11.4356 4.70979,1.80732 2.84911,7.98821 -4.06567,13.50552 -10.883773,8.68418 -7.553404,13.68278 4.8447,7.27147 z"
     id="path18"
     transform="scale(0.75)" />
</svg>
