<?xml version="1.0" standalone="no"?>
<!DOCTYPE svg PUBLIC "-//W3C//DTD SVG 20010904//EN"
 "http://www.w3.org/TR/2001/REC-SVG-20010904/DTD/svg10.dtd">
<svg version="1.0" xmlns="http://www.w3.org/2000/svg"
 width="600.000000pt" height="452.000000pt" viewBox="0 0 600.000000 452.000000"
 preserveAspectRatio="xMidYMid meet">
<g transform="translate(0.000000,452.000000) scale(0.050000,-0.050000)"
fill="#000000" stroke="none">
<path d="M6764 8921 c-206 -56 -330 -129 -509 -299 l-155 -147 -185 -17 c-102
-9 -228 -27 -280 -39 -92 -22 -100 -20 -280 68 -759 370 -1649 -47 -1914 -897
-65 -210 -78 -227 -246 -335 l-155 -99 -127 22 c-816 142 -1694 -638 -1747
-1552 l-12 -203 -108 -75 c-320 -220 -505 -586 -535 -1053 -12 -192 -14 -200
-140 -440 -385 -738 -334 -1420 150 -1992 114 -135 126 -159 161 -316 95 -434
328 -660 1079 -1042 652 -332 1077 -330 1255 5 19 36 42 40 238 40 289 1 425
72 530 277 44 87 19 84 336 35 72 -11 229 -26 350 -32 297 -17 299 -17 357
-117 136 -232 439 -392 936 -494 496 -101 912 17 1001 284 5 14 80 21 211 19
309 -6 521 115 586 335 24 80 26 81 137 93 403 45 742 139 1040 289 160 80
161 80 141 30 -107 -284 84 -528 415 -529 130 0 147 -5 168 -45 141 -275 565
-314 900 -84 l71 50 127 -66 c168 -86 450 -94 600 -17 269 139 370 380 292
700 l-34 139 91 157 c229 395 282 830 151 1250 l-39 126 57 110 c250 485 221
993 -81 1434 -74 108 -73 121 32 335 408 835 263 1697 -398 2358 l-127 127 28
118 c299 1271 -1364 1973 -1969 831 -68 -127 -68 -127 -140 -115 -234 41 -501
73 -698 85 l-224 13 -79 132 c-266 446 -787 670 -1258 543z m460 -224 c334
-70 604 -331 705 -680 50 -171 191 -219 191 -64 l0 53 265 -12 c278 -13 538
-52 699 -105 132 -44 164 -28 213 108 224 615 958 800 1384 350 245 -259 303
-594 178 -1032 l-27 -95 184 -172 c283 -263 454 -533 548 -862 47 -162 68
-720 29 -759 -29 -30 -386 -43 -1253 -45 -1731 -5 -2725 -60 -3830 -211 -839
-115 -756 -125 -848 98 -257 618 -83 1369 432 1862 141 135 142 139 84 332
-213 700 363 1380 1046 1234z m-2103 -355 c407 -153 553 -465 334 -714 -560
-635 -1855 -878 -1855 -347 0 686 880 1301 1521 1061z m861 -143 c-4 -16 -21
-74 -36 -129 -37 -130 -40 -402 -7 -584 l27 -143 -115 -127 c-564 -622 -689
-1451 -330 -2186 280 -573 874 -974 1795 -1212 373 -96 415 -69 99 63 -744
310 -932 406 -1193 612 -143 112 -342 336 -342 384 0 60 1521 212 2620 263
521 24 2626 66 2850 56 193 -7 192 0 50 -286 -345 -694 -1065 -1173 -1920
-1274 -84 -10 -60 -63 40 -89 241 -63 526 -7 955 186 113 51 -89 -577 -280
-869 -620 -949 -1615 -1629 -2457 -1678 l-192 -11 -128 127 c-138 138 -301
235 -483 288 -63 18 -115 43 -115 56 0 13 10 93 23 177 20 132 18 181 -12 336
-34 180 -34 185 6 278 256 596 -194 1454 -874 1664 -175 54 -466 52 -432 -3 6
-10 41 -18 78 -18 567 0 1207 -758 1140 -1350 -23 -202 -35 -208 -148 -73 -93
111 -231 219 -253 198 -5 -6 31 -68 80 -140 322 -459 352 -1055 57 -1116 -140
-29 -365 -116 -365 -142 0 -12 49 -13 125 -3 535 68 940 -49 1074 -313 171
-335 -294 -557 -589 -281 -127 119 -249 198 -354 229 -189 57 -209 -7 -36
-119 443 -287 203 -630 -385 -552 -595 79 -938 281 -1018 598 -18 71 -46 106
-165 202 -519 424 -717 829 -654 1337 57 467 366 977 791 1304 146 113 127
125 -54 35 -738 -367 -1143 -1441 -801 -2123 82 -164 211 -329 404 -521 100
-99 182 -188 182 -198 0 -34 -532 26 -757 87 -68 19 -92 40 -152 139 -88 145
-283 329 -446 422 -147 83 -146 78 -47 185 1078 1177 -509 3476 -1936 2804
-168 -79 -359 -211 -461 -317 -85 -89 -101 -90 -101 -7 2 284 218 670 453 808
l90 53 74 -42 c397 -223 1174 14 1635 499 477 500 571 883 290 1183 l-91 98
49 40 c134 109 224 146 253 104 273 -386 960 -342 1667 107 451 287 601 554
472 841 -49 108 -37 120 150 154 171 31 211 29 200 -11z m-2952 -1309 c653
-326 -158 -1493 -1120 -1613 -467 -59 -606 95 -493 542 202 797 1043 1356
1613 1071z m-899 -2310 c1166 -298 1711 -1797 936 -2575 l-164 -165 -197 -2
c-369 -2 -474 -80 -137 -101 448 -29 837 -236 980 -522 196 -393 -248 -622
-575 -295 -104 105 -308 220 -388 220 -58 0 -85 -58 -40 -83 426 -239 374
-607 -81 -572 -184 14 -317 65 -693 267 -710 381 -872 568 -891 1033 -1 8 -56
75 -123 149 -437 482 -539 1041 -295 1608 344 797 1004 1208 1668 1038z m9356
-360 c161 -294 173 -668 32 -968 -61 -130 -72 -130 -214 8 -184 179 -220 158
-86 -49 373 -573 373 -1209 1 -1659 -92 -110 -95 -127 -40 -216 62 -102 88
-251 62 -349 -75 -280 -532 -329 -697 -76 -60 92 -92 87 -218 -32 -190 -180
-414 -245 -578 -167 -162 77 -102 310 122 471 101 72 119 137 38 137 -84 0
-251 -98 -385 -228 -127 -121 -129 -122 -244 -122 -458 0 -109 534 551 842
170 79 233 129 164 128 -30 -1 -285 -54 -338 -71 -104 -33 -34 58 401 521 412
438 587 806 671 1413 11 83 25 102 128 183 64 50 199 169 301 265 215 201 203
202 329 -31z"/>
<path d="M6890 8052 c-420 -185 -264 -821 193 -788 416 30 525 587 153 778
-87 45 -256 49 -346 10z"/>
<path d="M9989 8012 c-218 -95 -302 -425 -155 -608 259 -321 760 -127 721 279
-25 259 -325 434 -566 329z"/>
<path d="M7940 6240 c-47 -47 -49 -61 -12 -146 78 -183 369 -312 433 -192 98
183 -276 483 -421 338z"/>
<path d="M9507 6260 c-157 -35 -302 -235 -245 -338 51 -91 172 -82 289 21 191
168 164 362 -44 317z"/>
<path d="M4146 6502 c-232 -59 -515 -296 -655 -548 -98 -177 -83 -187 37 -24
540 735 1404 566 1447 -283 17 -333 -145 -583 -485 -749 -451 -220 -1103 38
-1216 481 -27 105 -29 107 -53 62 -61 -113 23 -330 188 -490 863 -834 2073 34
1560 1119 -163 345 -491 517 -823 432z"/>
</g>
</svg>
