<?xml version="1.0" encoding="UTF-8" standalone="no"?>
<svg
   version="1.0"
   width="600.000000pt"
   height="600.000000pt"
   viewBox="0 0 600.000000 600.000000"
   preserveAspectRatio="xMidYMid meet"
   id="svg6"
   sodipodi:docname="frog10_t1.svg.svg"
   inkscape:version="1.4.3 (0d15f75, 2025-12-25)"
   xmlns:inkscape="http://www.inkscape.org/namespaces/inkscape"
   xmlns:sodipodi="http://sodipodi.sourceforge.net/DTD/sodipodi-0.dtd"
   xmlns="http://www.w3.org/2000/svg"
   xmlns:svg="http://www.w3.org/2000/svg"><g transform="scale(-1,1) translate(-600.0,0)">
  <defs
     id="defs6" />
  <sodipodi:namedview
     id="namedview6"
     pagecolor="#505050"
     bordercolor="#ffffff"
     borderopacity="1"
     inkscape:showpageshadow="0"
     inkscape:pageopacity="0"
     inkscape:pagecheckerboard="1"
     inkscape:deskcolor="#505050"
     inkscape:document-units="pt"
     inkscape:zoom="1.5103248"
     inkscape:cx="487.9745"
     inkscape:cy="385.01651"
     inkscape:window-width="1920"
     inkscape:window-height="1022"
     inkscape:window-x="0"
     inkscape:window-y="30"
     inkscape:window-maximized="1"
     inkscape:current-layer="svg6" />
  <g
     transform="translate(0.000000,600.000000) scale(0.050000,-0.050000)"
     fill="#000000"
     stroke="none"
     id="g6">
    <path
       d="M8510 11039 c-444 -89 -1291 -830 -1767 -1545 -63 -95 -100 -134 -122 -126 -544 181 -1130 201 -1600 54 -71 -22 -130 -38 -132 -36 -1 2 -50 84 -108 181 -581 971 -1528 1657 -1879 1361 -354 -297 -435 -1847 -141 -2701 22 -63 37 -116 34 -118 -3 -2 -74 -59 -158 -125 -151 -120 -326 -318 -417 -474 -26 -44 -49 -83 -51 -86 -2 -3 -138 9 -302 27 -348 37 -444 34 -475 -17 -32 -52 33 -94 147 -95 111 -1 538 -50 552 -63 5 -6 -4 -68 -20 -138 -17 -70 -31 -156 -31 -190 l0 -62 -175 -24 c-426 -59 -593 -122 -518 -197 24 -25 69 -22 326 23 379 66 355 68 395 -36 19 -49 46 -99 61 -111 19 -16 23 -40 13 -77 -9 -30 -8 -81 1 -113 8 -32 14 -60 11 -62 -2 -1 -125 -63 -274 -138 -307 -153 -320 -162 -320 -214 0 -77 65 -62 364 83 l300 146 80 -93 c82 -96 224 -193 283 -193 22 0 33 -17 33 -49 0 -69 152 -210 341 -315 l154 -86 -55 -110 c-31 -61 -80 -189 -110 -286 l-55 -175 -94 13 c-290 38 -606 -143 -733 -421 -177 -386 -63 -835 314 -1239 79 -84 139 -157 135 -162 -43 -43 -311 -130 -401 -130 -188 -1 -324 -92 -377 -253 -67 -202 118 -426 332 -402 l84 10 10 -101 c19 -192 216 -306 424 -245 105 30 156 74 257 220 59 84 403 231 540 231 59 0 18 -37 -66 -60 -108 -29 -191 -105 -231 -210 -108 -283 193 -524 473 -379 56 29 57 28 70 -26 86 -361 666 -298 669 73 0 92 1 92 37 49 106 -127 254 -157 403 -82 262 132 238 485 -41 602 -111 47 -164 117 -175 232 -11 113 5 125 92 64 191 -136 582 -263 806 -263 121 0 158 -30 62 -52 -170 -38 -212 -56 -274 -119 -228 -227 5 -626 306 -522 l79 27 12 -76 c52 -326 561 -342 662 -20 l15 48 51 -66 c121 -155 347 -162 499 -14 133 127 127 300 -16 465 -163 189 -93 292 221 325 116 12 293 43 395 69 102 26 185 44 185 40 0 -32 -80 -115 -142 -146 -307 -156 -231 -586 108 -614 118 -10 203 21 299 111 92 86 306 -20 352 -174 113 -376 741 -277 698 111 l-10 87 62 -38 c140 -86 317 -70 442 40 223 196 78 558 -225 558 -42 0 -93 12 -113 27 -66 48 88 136 186 107 122 -38 631 -28 783 14 1123 311 1444 1451 646 2293 -251 266 -308 374 -235 448 47 46 82 38 144 -31 241 -272 646 -59 622 327 -47 728 -1143 883 -1545 217 -249 -411 -165 -862 248 -1341 289 -335 342 -529 214 -776 -68 -131 -290 -304 -244 -190 225 559 -98 1144 -692 1253 l-120 22 -51 150 c-61 183 -161 367 -279 511 -111 136 -110 157 6 209 136 60 215 127 259 219 l37 80 177 -101 c185 -106 239 -115 249 -45 6 44 -81 118 -231 195 l-66 33 50 66 c71 93 114 205 99 262 -8 35 3 68 40 117 60 78 77 78 396 -8 166 -45 216 -41 216 17 0 63 -40 83 -282 139 l-236 54 -6 216 c-3 119 -6 217 -6 219 0 2 130 8 288 15 309 13 367 34 302 112 -24 29 -67 33 -332 27 l-304 -7 -64 129 c-111 225 -313 443 -575 621 l-44 30 68 170 c213 525 313 1324 250 1986 -62 662 -219 900 -549 833z m203 -168 c285 -200 269 -1755 -26 -2550 -64 -175 -69 -174 -112 4 -121 510 -535 916 -1000 984 -117 17 -117 13 2 193 200 307 466 589 728 773 150 105 186 155 127 177 -141 54 -683 -461 -1029 -977 -94 -139 -111 -155 -169 -155 -35 0 -113 -15 -174 -32 -178 -51 -188 -52 -228 -22 -36 27 -34 33 48 156 558 831 1571 1632 1833 1449z m-5348 -92 c422 -208 938 -724 1281 -1282 135 -219 109 -256 -126 -178 -70 22 -156 41 -193 41 -75 0 -84 8 -179 170 -288 489 -887 1038 -924 846 -4 -22 24 -53 80 -88 196 -123 539 -501 705 -777 83 -139 85 -151 26 -151 -409 0 -956 -466 -1096 -935 -35 -119 -48 -108 -95 80 -135 542 -153 1262 -43 1798 109 538 230 640 564 476z m2767 -1450 c299 -52 589 -152 682 -235 l45 -40 125 56 c663 298 1464 -285 1516 -1104 0 -2 43 -29 95 -59 291 -169 492 -359 606 -572 75 -141 90 -124 -141 -153 -367 -46 -929 -190 -981 -253 -72 -87 19 -94 286 -21 254 70 661 145 844 156 115 7 126 -10 129 -214 2 -180 17 -174 -342 -147 -367 28 -842 0 -894 -53 -67 -66 -1 -75 552 -79 619 -4 693 -18 536 -102 -99 -54 -110 -149 -18 -149 41 0 34 -59 -16 -131 -68 -101 -104 -115 -191 -77 -370 158 -853 289 -898 243 -52 -52 -10 -90 139 -125 319 -76 623 -197 631 -250 4 -28 20 -58 37 -67 72 -41 -110 -164 -278 -188 -106 -16 -155 -69 -96 -105 35 -22 -75 -94 -225 -147 -83 -30 -127 -57 -132 -82 -16 -82 82 -81 285 3 l118 49 48 -56 c98 -115 245 -352 284 -457 79 -211 84 -198 -84 -237 -434 -102 -814 -411 -1026 -834 -78 -157 -82 -226 -13 -235 33 -5 51 8 69 50 389 911 1568 1227 1918 514 298 -604 -307 -1531 -1172 -1798 -123 -38 -140 -49 -140 -92 0 -64 108 -61 306 8 l141 49 86 -52 c52 -30 135 -57 204 -65 177 -21 255 -125 201 -267 -34 -88 -227 -119 -314 -50 -127 99 -357 145 -431 85 -58 -46 -41 -96 48 -138 196 -93 129 -333 -93 -333 -105 0 -182 57 -209 156 -39 138 -284 309 -441 309 -25 0 -87 -36 -138 -80 -114 -99 -166 -113 -257 -70 -161 76 -131 240 61 337 41 21 104 95 177 208 132 202 322 397 532 544 169 119 190 146 146 189 -53 53 -412 -179 -577 -371 -98 -115 -625 -277 -900 -277 l-67 0 81 155 c200 380 309 758 328 1137 22 445 -46 744 -147 643 -24 -24 -25 -58 -5 -217 71 -577 -71 -1129 -451 -1757 -152 -251 -152 -394 0 -535 136 -126 67 -306 -118 -306 -92 0 -193 79 -193 150 0 36 -78 90 -128 90 -60 0 -132 -79 -132 -145 0 -150 -135 -243 -280 -192 -116 40 -140 163 -55 280 100 136 -63 184 -219 65 -82 -63 -105 -71 -174 -61 -226 30 -187 304 49 343 171 29 378 198 458 375 187 413 359 1325 261 1385 -63 39 -95 -11 -109 -166 -36 -390 -132 -804 -255 -1101 l-62 -149 -232 12 c-792 42 -1229 426 -1379 1215 -39 204 -80 263 -133 191 -78 -104 94 -689 282 -963 84 -124 84 -124 91 -333 l7 -210 78 -95 c42 -52 92 -99 110 -104 190 -57 253 -183 150 -305 -81 -97 -197 -89 -293 18 -137 152 -283 103 -284 -96 -1 -99 -10 -130 -49 -171 -132 -141 -359 -42 -314 137 6 28 18 73 24 100 34 137 -114 149 -245 20 -76 -74 -104 -90 -167 -90 -234 0 -247 277 -15 341 81 22 227 170 247 249 9 37 -24 155 -119 419 -139 389 -197 593 -233 821 -15 91 -42 171 -80 230 -230 362 -237 854 -18 1314 72 151 83 164 143 170 90 8 104 85 21 118 -372 149 -622 325 -558 395 47 53 15 103 -65 103 -79 1 -204 66 -279 145 l-67 70 77 30 c42 17 195 61 341 98 267 67 315 96 258 153 -33 32 -278 -13 -582 -106 -122 -38 -163 -44 -175 -25 -24 39 -19 75 13 75 96 0 102 102 9 141 -67 28 -118 90 -118 145 0 35 23 37 395 34 217 -2 406 -2 420 -1 41 2 28 78 -17 102 -25 13 -203 27 -430 34 -262 7 -388 18 -388 33 1 40 41 201 63 257 32 80 123 67 615 -86 141 -44 195 -53 215 -36 81 67 -1 111 -413 225 -148 41 -286 81 -306 89 -83 31 238 398 524 598 106 75 107 76 152 256 185 738 912 1186 1507 928 95 -40 115 -43 170 -21 528 214 960 272 1425 191z m4614 -3294 c218 -100 334 -260 334 -460 0 -262 -185 -348 -373 -174 -178 164 -380 94 -402 -139 -14 -144 42 -242 283 -500 709 -757 473 -1713 -498 -2022 -148 -47 -572 -79 -681 -51 l-55 13 70 58 c80 66 264 303 345 445 31 53 70 95 88 95 76 1 239 100 334 204 235 257 231 637 -11 926 -271 323 -320 389 -375 500 -337 673 286 1404 941 1105z m-7863 -1545 c15 -254 64 -432 176 -640 51 -93 81 -180 90 -260 19 -154 87 -390 212 -733 54 -150 99 -282 99 -292 0 -10 -70 -33 -155 -50 -308 -61 -537 -182 -615 -322 -70 -126 -188 -166 -309 -104 -144 75 -97 260 83 327 113 42 150 79 130 131 -26 68 -231 28 -382 -74 -155 -106 -333 -49 -331 105 1 127 107 203 272 197 74 -3 148 16 315 84 237 96 207 96 425 0 112 -49 167 -43 167 19 0 28 -27 52 -92 81 -348 154 -732 592 -807 921 -105 464 166 848 589 834 l120 -4 13 -220z"
       id="path1" />
    <path
       d="M3736 8433 c-185 -51 -328 -207 -387 -422 -144 -534 393 -949 783 -605 434 382 130 1171 -396 1027z m242 -205 c108 -90 81 -265 -48 -319 -197 -83 -334 180 -167 320 76 65 138 64 215 -1z"
       id="path2" />
    <path
       d="M7277 8390 c-289 -93 -478 -469 -390 -773 122 -418 634 -548 925 -234 409 444 17 1183 -535 1007z m250 -203 c124 -123 40 -347 -129 -347 -59 0 -85 13 -126 62 -159 188 83 458 255 285z"
       id="path3" />
    <path
       d="M4919 7099 c-34 -64 5 -139 71 -139 101 0 105 164 4 176 -36 5 -58 -6 -75 -37z"
       id="path4" />
    <path
       d="M5604 7091 c-45 -99 38 -178 119 -113 40 32 43 46 26 95 -27 79 -112 90 -145 18z"
       id="path5" />
    <path
       d="M4393 6607 c-36 -37 -7 -109 72 -178 373 -326 1164 -386 1676 -128 127 63 246 167 235 202 -17 51 -74 68 -125 37 -293 -181 -451 -235 -751 -253 -353 -22 -732 83 -951 263 -83 68 -128 84 -156 57z"
       id="path6" />
  </g>
  <path
     style="fill:#ffffff;stroke-width:1.00586"
     d="m 388.99028,695.54618 c -5.88236,-3.58647 -6.30767,-8.51142 -1.46005,-16.90712 2.08946,-3.61879 2.3196,-4.74463 1.38787,-6.78954 -2.05844,-4.51779 -10.58498,-3.05736 -18.85751,3.22989 -7.39169,5.6178 -18.51342,1.2845 -18.51342,-7.2133 0,-4.89124 4.8904,-9.92495 11.12519,-11.4512 12.2211,-2.99169 25.61532,-13.16339 31.28304,-23.75667 8.76252,-16.37763 19.95493,-63.74024 19.95493,-84.44274 0,-9.81867 -0.95843,-12.13462 -4.72185,-11.40986 -2.84905,0.54867 -4.03574,4.40325 -5.75662,18.69842 -2.86326,23.78479 -8.12711,45.49679 -15.92135,65.67144 l -4.22735,10.94207 -7.56967,-0.51736 c -25.47638,-1.74125 -38.68987,-4.54295 -52.00129,-11.02602 -24.16864,-11.77087 -37.72462,-31.28809 -46.12829,-66.41319 -3.91691,-16.37165 -4.77667,-18.54192 -7.34541,-18.54192 -3.20297,0 -4.18921,2.20362 -4.18921,9.36017 0,14.61212 9.58199,42.0465 20.70756,59.2882 3.21004,4.97473 3.84195,6.9414 4.52464,14.082 0.43644,4.56485 0.82199,11.0669 0.8568,14.44899 0.0625,6.06673 0.14092,6.23239 5.84697,12.34145 3.4156,3.65686 8.0421,7.31668 11.29954,8.9386 7.125,3.54762 9.7504,7.69275 8.07935,12.75611 -1.64608,4.98768 -6.29754,8.59866 -11.0763,8.59866 -3.18309,0 -4.89938,-0.8857 -9.72993,-5.02115 -8.11533,-6.94756 -14.52872,-7.86323 -17.99725,-2.56956 -0.83437,1.2734 -1.90788,5.80043 -2.38558,10.06005 -0.97352,8.68094 -2.94255,11.75163 -8.76841,13.67434 -4.38882,1.44845 -8.61918,0.46078 -11.84554,-2.76557 -2.93199,-2.932 -3.20347,-5.75081 -1.39645,-14.49954 1.43797,-6.96199 0.35476,-8.93714 -4.90134,-8.93714 -4.20444,0 -6.27599,1.0489 -13.23052,6.69915 -4.31968,3.50953 -6.15341,4.36528 -9.35414,4.36528 -8.3532,0 -13.24865,-5.52421 -10.98194,-12.39244 1.41699,-4.29351 3.28641,-6.01801 9.33337,-8.60985 5.38474,-2.30802 12.81945,-8.75948 15.97106,-13.85889 2.78612,-4.50803 2.7475,-4.68146 -8.66221,-38.8983 -5.93758,-17.80631 -10.40213,-33.19388 -12.01504,-41.4112 -2.14832,-10.94499 -3.46578,-14.88791 -8.08359,-24.19267 -7.77462,-15.66565 -9.78912,-23.93075 -9.79383,-40.1822 -0.004,-15.36794 2.46926,-26.58383 9.29662,-42.1513 4.57521,-10.43222 5.7476,-11.83988 11.36321,-13.64359 3.30866,-1.06272 3.78741,-1.59297 3.5205,-3.89913 -0.27117,-2.34298 -2.03651,-3.52953 -14.44658,-9.71014 -15.20393,-7.57204 -22.73912,-12.36348 -25.09306,-15.95603 -1.20101,-1.83299 -1.25711,-2.85011 -0.29741,-5.39264 1.54049,-4.08124 0.1208,-5.86915 -5.23033,-6.58689 -5.49406,-0.73691 -12.01372,-4.06701 -17.61472,-8.99721 l -4.71271,-4.14828 2.54767,-1.33487 c 1.40122,-0.73416 10.8376,-3.62215 20.96973,-6.41772 17.27599,-4.76666 22.94841,-6.95028 22.94841,-8.8341 0,-0.43473 -0.63108,-1.65349 -1.40241,-2.70834 -1.31782,-1.80223 -1.91661,-1.84358 -9.92655,-0.68547 -4.68828,0.67786 -15.11143,3.03864 -23.16256,5.24619 -16.59295,4.54961 -17.35478,4.64708 -18.24244,2.33387 -0.6378,-1.66208 0.87543,-3.30423 3.07232,-3.33406 2.06052,-0.028 3.634,-2.93848 2.9855,-5.52232 -0.39269,-1.56461 -2.08806,-3.25863 -4.48503,-4.48147 -3.90056,-1.98992 -7.17856,-5.8564 -7.17856,-8.46727 0,-2.34206 3.35119,-2.63924 29.92426,-2.65361 l 25.3979,-0.0137 v -2.4428 c 0,-5.3691 -2.9198,-6.06989 -29.67279,-7.12188 -7.74511,-0.30456 -16.96675,-0.80859 -20.49254,-1.12008 l -6.41054,-0.56634 0.58922,-4.18156 c 0.32408,-2.29986 1.3013,-6.55334 2.1716,-9.45218 2.4818,-8.26643 5.16439,-8.23867 33.95715,0.35132 17.28538,5.1569 21.55845,5.73794 23.23181,3.15904 2.82459,-4.35313 -2.57007,-7.02324 -30.25747,-14.97605 -9.8324,-2.82421 -18.27714,-5.50242 -18.76608,-5.95156 -2.82906,-2.59878 17.2369,-24.93224 33.17701,-36.92609 4.87953,-3.67152 8.57331,-7.26781 9.20922,-8.96616 0.58398,-1.55967 2.73755,-8.16801 4.78571,-14.68521 7.77042,-24.72527 24.12988,-44.4449 45.25007,-54.54428 10.28926,-4.92017 18.59777,-6.82647 29.6728,-6.80809 8.23519,0.0137 11.03243,0.50823 20.24267,3.57893 l 10.68703,3.56307 15.9682,-5.43326 c 25.30389,-8.60978 32.47635,-9.87726 56.20248,-9.93181 15.71979,-0.0361 21.98602,0.3513 28.66694,1.77248 20.17888,4.2925 35.72103,9.84889 42.93055,15.34786 l 3.33807,2.54607 8.80166,-3.5164 c 22.8702,-9.13699 43.70015,-6.25197 65.27273,9.04051 17.42421,12.35175 32.10099,37.20091 34.12918,57.78388 l 0.66198,6.71808 6.61715,3.87087 c 17.0072,9.94879 31.89759,23.7652 39.33259,36.49567 2.26105,3.87146 4.111,7.50533 4.111,8.07526 0,0.56994 -1.47106,1.26035 -3.26903,1.53426 -30.35095,4.62363 -45.31563,7.72039 -61.32279,12.68998 -10.46787,3.24986 -15.64124,6.57961 -14.56799,9.37646 0.98186,2.55867 5.7404,2.09756 23.97472,-2.3232 30.69615,-7.44202 56.60587,-11.08276 59.35034,-8.33969 1.78269,1.78178 2.49615,18.91338 0.86931,20.87362 -1.07479,1.29504 -5.14831,1.41568 -29.54438,0.87505 -36.53791,-0.80973 -51.77645,0.86708 -52.72681,5.80193 -0.17223,0.89431 0.50119,1.97281 1.49648,2.39666 0.9953,0.42385 17.65189,1.12052 37.01464,1.54815 19.36276,0.42764 36.32082,1.20225 37.68458,1.72136 2.47931,0.94374 2.47915,0.9441 -1.52355,3.4709 -2.20172,1.38987 -4.59702,3.24265 -5.32289,4.11728 -2.00839,2.41996 -1.01294,6.04099 2.06499,7.51154 2.44554,1.16841 2.62032,1.58472 1.69123,4.0284 -1.61358,4.24403 -5.78712,9.19876 -8.27426,9.82299 -1.26787,0.31822 -4.44283,-0.37521 -7.24723,-1.58282 -8.90044,-3.83265 -30.88942,-11.09723 -41.20173,-13.61198 -12.84986,-3.13353 -17.13699,-3.19305 -18.70688,-0.25968 -1.69123,3.1601 1.17471,5.12244 11.37745,7.79025 22.08986,5.77605 38.45911,12.62677 40.6329,17.00533 0.64109,1.29132 1.67068,2.85292 2.28797,3.4702 1.59006,1.59006 1.41494,2.38078 -1.03219,4.66063 -2.93212,2.73168 -9.84055,5.87617 -15.66115,7.12844 -8.47353,1.82304 -11.40978,4.56671 -8.25911,7.71739 1.53229,1.53228 -2.80255,4.39883 -13.72184,9.07401 -8.44897,3.61749 -8.98744,4.02811 -8.98744,6.85362 0,2.80441 0.27898,3.02593 4.16815,3.30966 2.92544,0.21342 6.82403,-0.73771 13.07615,-3.19016 l 8.90799,-3.49424 3.70029,4.19602 c 8.96907,10.17065 23.20187,37.20012 21.67858,41.16973 -0.29424,0.76679 -4.54063,2.43309 -9.43643,3.70291 -17.80867,4.61898 -31.81172,12.59611 -45.95468,26.17899 -13.47505,12.94141 -26.36597,33.79887 -25.62939,41.46824 0.2812,2.92782 0.70594,3.3637 3.54539,3.6383 3.08726,0.29856 3.38457,-0.004 6.91666,-7.04101 5.37295,-10.7044 10.08737,-17.47251 17.93393,-25.74627 8.87774,-9.36106 16.95612,-15.41276 27.93953,-20.93012 32.87399,-16.51379 65.28545,-10.02842 78.25183,15.65782 8.57648,16.98992 7.6203,35.01754 -3.02335,57.00174 -13.88621,28.68164 -39.21788,50.45121 -72.90479,62.65306 -9.66918,3.50231 -10.05857,3.75914 -10.05857,6.63459 0,2.86735 0.20371,3.00417 4.91857,3.30356 3.43905,0.21837 7.88079,-0.63881 14.76623,-2.84963 l 9.84766,-3.16195 4.35141,2.55009 c 2.39326,1.40255 8.32415,3.47641 13.17973,4.60859 10.19113,2.37626 13.09348,3.98445 14.85177,8.22933 2.80561,6.77334 -1.77008,13.56086 -9.87465,14.64791 -3.48636,0.46762 -5.54229,-0.15603 -13.49199,-4.09272 -13.50083,-6.68559 -24.02931,-7.55265 -27.4944,-2.26427 -2.09459,3.19676 -1.07231,5.23357 4.16819,8.30471 5.56867,3.26346 7.40927,5.87622 7.40927,10.51757 0,7.02223 -6.8587,11.80526 -15.304,10.6725 -4.99443,-0.66989 -8.40377,-3.76918 -11.2994,-10.27184 -3.94789,-8.86569 -17.1233,-18.62126 -27.20997,-20.14728 -3.59157,-0.54337 -4.61723,-0.16906 -9.55565,3.48738 -3.04271,2.25284 -7.45591,5.02359 -9.80711,6.15722 l -4.27489,2.06114 -4.5128,-1.99623 c -3.15247,-1.39449 -5.00683,-3.03222 -6.15172,-5.43307 -1.52517,-3.19832 -1.51789,-3.69188 0.10484,-7.11154 1.08895,-2.29479 4.02859,-5.27698 7.82831,-7.9416 4.46534,-3.13142 7.98054,-6.94368 13.20921,-14.3255 9.44062,-13.32823 22.74382,-26.99844 35.52529,-36.50538 9.82898,-7.31085 12.50555,-10.56994 10.86315,-13.22738 -2.72087,-4.40246 -20.08946,5.43188 -37.06598,20.98728 -4.60738,4.2217 -10.16133,8.22016 -13.41934,9.66101 -13.36495,5.91062 -35.7302,11.49771 -46.1339,11.52478 l -6.05671,0.0158 6.17894,-12.50397 c 7.38139,-14.9373 13.51971,-31.80276 16.32427,-44.85209 6.79582,-31.62029 4.92111,-71.00247 -3.4368,-72.19662 -4.46026,-0.63727 -4.82889,1.50982 -3.40815,19.85018 1.0627,13.71843 1.075,19.24345 0.0639,28.70698 -2.81369,26.33453 -11.37681,51.01303 -27.28051,78.62113 -13.3274,23.13574 -13.95816,29.60993 -3.99414,40.99637 4.74808,5.4259 5.55235,7.3609 5.06003,12.17382 -0.29492,2.8831 -3.78851,6.296 -7.8001,7.61994 -6.19455,2.04438 -16.36635,-3.67091 -16.36635,-9.19587 0,-2.4638 -5.17843,-5.968 -8.81937,-5.968 -3.53102,0 -8.07941,4.09819 -8.82659,7.95294 -0.2781,1.43471 -1.06104,4.40435 -1.73987,6.59921 -2.36172,7.63603 -11.54297,10.87563 -18.61037,6.56663 z m 1.27384,-308.17666 c 15.48704,-4.0627 30.11711,-11.83564 34.30401,-18.22566 1.5752,-2.40404 1.56789,-2.68163 -0.11962,-4.54631 -2.73516,-3.02233 -5.22931,-2.4705 -16.11611,3.56566 -12.35943,6.85267 -22.08825,10.01872 -35.62005,11.59188 -25.3394,2.94587 -51.25412,-3.42593 -69.37654,-17.05798 -6.49629,-4.88665 -10.75255,-5.47695 -11.71923,-1.62538 -1.77578,7.07524 12.80099,18.32478 31.76658,24.51571 12.46801,4.06992 21.48617,5.15354 39.73137,4.77411 14.47283,-0.30098 18.64341,-0.7606 27.14959,-2.99203 z m -52.92748,-53.99748 c 1.90918,-3.41757 0.83916,-7.33047 -2.40933,-8.81058 -3.49339,-1.59169 -4.17724,-1.50421 -6.51486,0.83342 -2.59266,2.59265 -2.56663,6.48609 0.0609,9.11365 2.77331,2.77331 6.98045,2.23386 8.86326,-1.13649 z m 45.20245,1.03637 c 2.60621,-2.42806 2.57281,-2.15404 0.78441,-6.43427 -2.82944,-6.77182 -10.65332,-5.10322 -10.65332,2.27204 0,2.08949 0.54316,4.34223 1.20702,5.0061 1.85794,1.85794 6.21774,1.4332 8.66189,-0.84387 z m 128.47728,-18.54508 c 10.33874,-5.05827 18.62339,-17.06191 20.8839,-30.25868 2.93533,-17.13633 -6.25057,-36.14357 -21.14551,-43.7538 -4.15086,-2.12079 -6.18411,-2.45678 -14.86705,-2.45678 -12.09874,0 -17.21797,2.03316 -25.20077,10.0088 -15.98984,15.97548 -17.80483,42.28543 -3.97799,57.66423 11.09592,12.34132 29.56658,16.00825 44.30742,8.79623 z m -243.50912,-3.89488 c 23.36466,-10.69669 29.55037,-45.96275 11.49722,-65.54811 -8.73043,-9.4714 -20.51357,-12.39613 -32.86762,-8.15817 -15.88844,5.4504 -27.28723,26.97381 -24.27415,45.83492 3.7866,23.70321 25.62359,37.03726 45.64455,27.87136 z"
     id="path7"
     transform="scale(0.75)" />
  <path
     style="fill:#ffffff;stroke-width:0.662109"
     d="m 632.64536,620.96143 c -1.27456,-0.13136 -3.58133,-0.40464 -5.12615,-0.60728 l -2.80877,-0.36844 5.46223,-5.42261 c 5.8381,-5.79575 13.35402,-15.39044 18.71182,-23.8872 4.58614,-7.27298 7.20193,-10.11432 9.76127,-10.60292 6.22023,-1.18749 16.69995,-8.25761 22.41442,-15.12182 3.84665,-4.62058 7.29364,-11.3859 8.85874,-17.38683 1.50748,-5.77994 1.37083,-15.99386 -0.30035,-22.45038 -2.60318,-10.05723 -4.8932,-13.65586 -21.52733,-33.82891 -15.78151,-19.13904 -20.80087,-31.30468 -20.06245,-48.62632 0.26771,-6.27981 0.70496,-8.78156 2.43688,-13.943 5.17749,-15.42979 16.27614,-27.22113 30.66387,-32.5777 7.59089,-2.8261 17.53366,-3.31916 25.71329,-1.27512 17.27396,4.31665 28.9533,15.2347 31.10041,29.0732 2.05997,13.2768 -4.56623,23.36182 -13.96238,21.25064 -3.57797,-0.80391 -5.53164,-1.87522 -9.55098,-5.23734 -7.62815,-6.38084 -14.99102,-7.85996 -20.69975,-4.15835 -6.62367,4.29487 -9.00635,15.87733 -5.15994,25.08307 1.54083,3.68773 6.06174,9.66253 14.24345,18.82401 13.45356,15.06466 19.92311,24.84428 24.77651,37.45313 6.22556,16.17364 6.76908,34.69161 1.46373,49.87021 -6.44025,18.42561 -20.84972,33.69993 -41.28691,43.76497 -14.55254,7.16692 -22.69602,8.87861 -48.50051,10.1944 -2.36704,0.1207 -5.34654,0.11196 -6.6211,-0.0194 z"
     id="path8"
     transform="scale(0.75)" />
  <path
     style="fill:#ffffff;stroke-width:0.662109"
     d="m 162.54353,661.85595 c -7.1303,-2.31633 -10.19206,-6.75704 -8.63801,-12.52835 0.74428,-2.76404 4.55854,-7.19369 7.34068,-8.52505 0.89797,-0.4297 3.65946,-1.71867 6.13666,-2.86437 3.49311,-1.61555 4.74222,-2.58266 5.56545,-4.309 0.97989,-2.05486 0.97605,-2.35628 -0.05,-3.92225 -2.51122,-3.8326 -13.95716,-1.79805 -24.37335,4.33244 -6.65503,3.91685 -10.92767,5.02904 -15.05264,3.9183 -7.59679,-2.0456 -10.15733,-11.00787 -4.92242,-17.2292 2.94719,-3.50254 6.34823,-4.76384 14.45853,-5.3621 8.12411,-0.59927 11.36096,-1.49275 23.8431,-6.58146 11.15584,-4.548 13.37723,-4.62002 22.18066,-0.71907 8.33575,3.69371 11.58629,4.42376 13.65666,3.06721 1.66368,-1.09009 2.00214,-2.93089 0.91305,-4.96588 -0.36234,-0.67704 -3.80431,-2.87368 -7.64882,-4.88142 -9.75127,-5.09247 -16.59032,-10.15796 -25.15238,-18.62963 -10.44472,-10.33447 -18.97943,-22.20899 -23.25335,-32.35285 -2.57474,-6.11096 -3.42248,-9.35856 -4.27147,-16.36353 -2.66448,-21.9845 9.29874,-41.51476 28.5715,-46.64368 4.02497,-1.07113 19.17114,-1.3614 19.17114,-0.3674 0,0.33519 0.30897,5.17687 0.6866,10.75928 1.29485,19.14166 3.83189,29.45119 10.5631,42.92424 4.93141,9.87062 6.29829,13.8874 7.93234,23.31029 1.77858,10.25637 5.91297,24.30397 13.19375,44.82894 3.2827,9.25416 6.14774,17.64158 6.36674,18.6387 0.37077,1.68808 0.17895,1.88435 -2.78497,2.84961 -1.75073,0.57016 -5.91365,1.62385 -9.25093,2.34152 -18.90363,4.06517 -32.04532,11.1705 -38.58489,20.86172 -2.3314,3.455 -4.27473,5.51063 -6.37087,6.73904 -3.19058,1.86981 -7.46769,2.56996 -10.22585,1.67395 z"
     id="path9"
     transform="scale(0.75)" />
  <path
     style="fill:#ffffff;stroke-width:0.662109"
     d="m 254.5934,273.04957 c -2.95512,-0.62438 -6.97129,-4.87362 -7.91351,-8.37277 -1.29759,-4.81887 0.29674,-9.24633 4.68094,-12.99905 4.44102,-3.80135 8.19614,-3.97725 12.67374,-0.59369 4.51617,3.41271 6.33924,9.87379 4.21829,14.94993 -0.81949,1.96132 -5.1271,6.40242 -6.24617,6.43975 -0.26045,0.009 -1.51637,0.25138 -2.79093,0.53932 -1.27456,0.28794 -3.35462,0.30437 -4.62236,0.0365 z"
     id="path10"
     transform="scale(0.75)" />
  <path
     style="fill:#ffffff;stroke-width:0.662109"
     d="m 489.29872,276.45494 c -2.03119,-0.84951 -5.444,-4.71008 -6.58754,-7.4518 -2.08159,-4.99079 -0.85325,-10.17801 3.45782,-14.60214 5.77507,-5.92653 13.81048,-4.17964 17.74254,3.85721 1.44844,2.96049 1.7072,4.20167 1.37748,6.60723 -0.45791,3.34084 -2.32012,7.36457 -4.19164,9.057 -2.94707,2.66505 -8.58716,3.87566 -11.79866,2.5325 z"
     id="path11"
     transform="scale(0.75)" />
  <path
     style="fill:#ffffff;stroke-width:0.662109"
     d="m 574.04608,252.42914 c -0.16067,-0.4552 -1.20357,-4.2192 -2.31756,-8.36444 -1.11398,-4.14525 -3.02953,-9.95526 -4.25677,-12.91113 -11.75209,-28.30554 -36.64718,-48.63351 -64.14178,-52.37466 -1.77647,-0.24171 -3.34022,-0.84137 -3.53798,-1.35672 -0.45419,-1.18361 2.46333,-6.26388 8.7741,-15.27827 13.31425,-19.01828 26.62292,-32.76163 45.51001,-46.99644 8.63136,-6.50527 11.16157,-9.44718 9.67043,-11.24389 -1.25607,-1.51348 -5.84741,-1.13997 -9.65255,0.78526 -6.10632,3.08952 -14.92093,10.28697 -25.44033,20.77298 -12.26591,12.22697 -21.80266,23.53607 -32.4752,38.51051 -4.32178,6.06381 -8.72315,11.75328 -9.78082,12.64324 -1.41477,1.19046 -3.03549,1.72603 -6.13207,2.02637 -2.31496,0.22453 -7.03954,1.1819 -10.49906,2.12751 -8.9119,2.43593 -11.54042,2.70342 -13.56027,1.37996 -0.91754,-0.60119 -1.66825,-1.63168 -1.66825,-2.28998 0,-1.36413 8.61565,-14.22598 15.14454,-22.6085 26.48649,-34.00629 61.85283,-65.613424 87.15134,-77.887743 15.16804,-7.359224 22.53403,-7.299124 27.3429,0.223093 14.70299,22.99898 12.74403,110.73224 -3.57695,160.19584 -3.93062,11.91243 -5.64519,15.22112 -6.55373,12.64701 z"
     id="path12"
     transform="scale(0.75)" />
  <path
     style="fill:#ffffff;stroke-width:0.662109"
     d="m 192.47686,241.69985 c -2.45168,-5.38086 -7.18004,-30.2524 -8.87983,-46.70868 -1.13371,-10.97577 -1.12803,-49.52128 0.009,-59.25878 1.78351,-15.27761 5.10155,-31.92614 8.12157,-40.750586 3.15844,-9.228906 7.52883,-15.431637 12.07989,-17.14455 2.91983,-1.098958 8.06781,-0.8271 12.47928,0.659016 27.47281,9.254923 68.7492,48.52214 92.9404,88.41642 5.00103,8.24731 6.24886,11.60867 4.90886,13.22328 -1.11406,1.34236 -3.5559,1.00808 -12.81298,-1.75404 -3.6763,-1.09693 -8.62084,-2.17041 -10.98788,-2.3855 -5.73399,-0.52104 -7.19045,-1.37447 -9.93164,-5.81959 -10.42281,-16.90161 -17.45116,-26.45106 -28.3267,-38.48758 -10.47596,-11.59428 -23.29424,-22.49435 -29.50432,-25.08908 -4.47027,-1.8678 -7.7178,-1.02508 -7.7178,2.00274 0,1.65148 1.36808,3.01482 7.50104,7.47506 14.16086,10.29859 34.05721,32.74573 44.64007,50.3631 5.2164,8.6838 5.26338,9.34742 0.6621,9.35356 -9.04241,0.0121 -23.86044,5.88509 -35.25731,13.97399 -7.66638,5.44119 -19.36276,17.1486 -24.73143,24.75476 -5.08216,7.20022 -9.34432,15.49042 -11.69121,22.74018 -0.95761,2.95815 -1.97468,5.52281 -2.26016,5.69925 -0.28549,0.17644 -0.84379,-0.3919 -1.24068,-1.26297 z"
     id="path13"
     transform="scale(0.75)" />
</g></svg>
