<?xml version="1.0" encoding="UTF-8" standalone="no"?>
<svg
   version="1.0"
   width="1250"
   height="897"
   viewBox="3 186 1250 897"
   preserveAspectRatio="xMidYMid meet"
   id="svg51"
   sodipodi:docname="frog4.svg"
   inkscape:version="1.4.3 (0d15f75, 2025-12-25)"
   xmlns:inkscape="http://www.inkscape.org/namespaces/inkscape"
   xmlns:sodipodi="http://sodipodi.sourceforge.net/DTD/sodipodi-0.dtd"
   xmlns="http://www.w3.org/2000/svg"
   xmlns:svg="http://www.w3.org/2000/svg">
  <defs
     id="defs51" />
  <sodipodi:namedview
     id="namedview51"
     pagecolor="#505050"
     bordercolor="#ffffff"
     borderopacity="1"
     inkscape:showpageshadow="0"
     inkscape:pageopacity="0"
     inkscape:pagecheckerboard="1"
     inkscape:deskcolor="#505050"
     inkscape:zoom="0.41386733"
     inkscape:cx="601.64208"
     inkscape:cy="457.8762"
     inkscape:window-width="1920"
     inkscape:window-height="1022"
     inkscape:window-x="0"
     inkscape:window-y="30"
     inkscape:window-maximized="1"
     inkscape:current-layer="svg51" />
  <metadata
     id="metadata1">
Created by potrace 1.16, written by Peter Selinger 2001-2019
</metadata>
  <g
     transform="translate(0.000000,1254.000000) scale(0.100000,-0.100000)"
     fill="#000000"
     stroke="none"
     id="g51">
    <path
       d="M9188 10366 c-55 -20 -110 -68 -157 -138 -42 -62 -73 -123 -261 -513 -122 -254 -158 -309 -228 -344 l-55 -28 -65 18 c-58 17 -185 39 -312 54 l-45 6 -100 191 c-167 320 -234 393 -360 393 -141 -1 -216 -99 -330 -429 l-53 -151 -43 -7 c-24 -4 -96 -14 -159 -23 -63 -9 -166 -28 -229 -42 -135 -30 -109 -46 -213 137 -240 421 -370 619 -443 674 -98 75 -205 73 -290 -5 -91 -84 -123 -232 -155 -714 -6 -88 -13 -197 -16 -242 l-6 -83 -41 -10 c-23 -6 -97 -28 -165 -49 l-123 -39 -29 24 c-123 104 -289 52 -349 -111 -24 -65 -54 -82 -102 -57 -21 11 -57 17 -96 17 l-63 1 -145 181 c-259 325 -313 369 -439 361 -140 -9 -206 -109 -206 -313 0 -89 18 -314 45 -575 7 -74 12 -136 11 -138 -2 -1 -25 2 -52 8 -136 31 -252 -74 -255 -229 0 -34 -5 -39 -72 -82 -54 -34 -78 -44 -92 -38 -40 15 -129 10 -162 -11 l-32 -19 -103 83 c-227 182 -306 226 -406 226 -183 0 -253 -144 -208 -425 8 -55 38 -201 66 -325 l50 -225 -36 -30 -37 -31 -55 19 c-97 32 -182 0 -228 -88 l-27 -51 -116 70 c-296 177 -395 207 -509 150 -62 -31 -89 -71 -103 -153 -17 -105 37 -309 173 -654 27 -70 48 -131 46 -135 -2 -4 -21 -33 -43 -64 -37 -52 -42 -55 -73 -51 -45 8 -115 -21 -151 -63 -42 -47 -55 -102 -47 -200 l6 -82 -45 -74 c-25 -42 -45 -80 -45 -87 0 -13 -16 -15 -24 -2 -9 15 -290 198 -358 234 -55 28 -71 32 -143 32 -70 0 -86 -3 -118 -25 -85 -58 -104 -161 -67 -351 20 -104 123 -484 149 -553 11 -27 10 -28 -11 -22 -137 38 -232 -10 -258 -130 -12 -57 2 -144 44 -260 25 -69 25 -72 11 -140 -8 -38 -15 -82 -15 -99 -1 -60 -9 -73 -53 -80 -160 -27 -240 -102 -239 -223 1 -88 38 -148 182 -297 l126 -130 13 -80 c7 -43 24 -109 38 -146 l25 -67 -48 -58 c-74 -92 -89 -132 -89 -245 0 -89 2 -99 30 -144 39 -64 97 -107 182 -137 66 -22 78 -23 398 -23 351 0 377 -3 440 -50 17 -12 89 -81 160 -152 173 -171 274 -231 428 -252 213 -29 391 95 414 288 6 56 11 60 38 31 31 -34 139 -99 200 -121 86 -30 210 -30 289 1 98 38 185 134 201 223 5 26 16 42 36 54 16 10 41 35 56 56 18 25 32 37 42 33 194 -65 460 -124 662 -147 l106 -11 -1 -87 c0 -68 4 -96 22 -137 82 -184 358 -289 817 -310 l150 -7 64 -64 c164 -163 345 -248 526 -246 184 1 312 90 355 244 l15 57 75 -44 c272 -160 532 -176 699 -44 69 54 113 145 116 237 l2 68 43 7 c95 16 187 83 235 169 27 48 30 65 32 149 l2 95 33 2 c300 22 495 48 716 94 79 16 203 37 275 45 462 53 960 213 1291 414 l68 42 36 -35 35 -35 -39 -7 c-209 -32 -362 -108 -481 -239 -218 -238 -145 -552 139 -606 73 -14 173 -12 243 5 76 18 75 18 75 -2 0 -37 49 -120 94 -161 112 -103 279 -125 452 -61 78 29 183 103 298 208 117 107 167 131 279 131 71 0 72 0 117 -44 199 -194 512 -315 715 -277 316 59 417 400 190 645 -25 27 -45 51 -45 53 0 2 25 34 55 70 62 75 145 229 169 313 9 30 20 87 26 127 8 62 17 82 65 154 83 124 102 206 66 285 -23 51 -63 82 -113 90 -31 5 -39 12 -44 33 -14 67 -59 201 -84 252 l-28 56 46 134 c42 121 47 143 47 226 0 77 -3 96 -21 120 -72 97 -178 98 -346 3 -36 -21 -68 -36 -70 -34 -2 2 -1 36 4 76 13 118 12 329 -1 376 -25 88 -101 140 -187 128 -74 -10 -124 -43 -237 -158 -60 -60 -110 -108 -110 -106 -1 2 -21 31 -45 65 -59 87 -58 119 7 167 116 85 228 232 286 373 80 197 70 472 -24 689 l-22 52 76 127 c99 165 172 316 186 385 28 141 -62 240 -216 240 -41 0 -167 -12 -233 -23 -9 -1 -25 37 -49 113 -19 63 -46 144 -60 179 l-25 63 21 72 c44 153 37 232 -28 297 -49 49 -104 64 -179 48 -55 -11 -56 -11 -80 17 -28 32 -29 -1 9 379 25 259 22 343 -12 405 -34 62 -68 83 -138 88 -75 5 -124 -16 -209 -94 -37 -33 -66 -52 -73 -48 -7 4 -26 10 -42 13 l-30 6 -1 95 c-1 118 -25 170 -96 208 -89 47 -187 15 -320 -107 l-75 -68 -52 29 c-60 34 -55 14 -73 268 -28 397 -91 771 -153 911 -61 139 -176 199 -299 155z m126 -224 c51 -101 108 -448 141 -863 31 -391 30 -380 59 -406 32 -27 41 -28 78 -9 26 14 29 13 53 -16 27 -32 30 -52 15 -93 -22 -57 35 -88 78 -42 12 13 25 37 28 55 4 18 12 32 18 31 28 -3 42 6 120 79 117 110 154 138 168 124 18 -18 -25 -248 -52 -277 -24 -26 -25 -43 -3 -67 23 -25 53 -23 135 12 38 17 72 30 74 30 29 0 -95 -143 -145 -168 -45 -22 -68 -64 -52 -98 14 -32 39 -41 58 -21 13 12 19 13 40 2 13 -7 33 -10 44 -8 11 3 91 83 178 177 177 192 227 239 243 230 7 -5 9 -37 4 -98 -8 -118 -57 -580 -62 -585 -2 -2 -17 2 -34 9 -37 15 -80 1 -80 -28 0 -40 96 -102 159 -102 25 0 34 -7 57 -47 54 -94 67 -99 160 -58 61 27 80 30 88 16 3 -5 -8 -64 -25 -130 -31 -119 -31 -122 -14 -164 37 -90 79 -216 100 -297 20 -73 21 -87 9 -101 -20 -23 -17 -63 6 -84 23 -21 2 -22 279 20 133 20 175 18 179 -12 4 -25 -66 -167 -155 -315 -35 -60 -65 -108 -67 -108 -1 0 -26 23 -54 50 -55 53 -89 63 -113 34 -15 -19 -10 -29 84 -177 163 -257 191 -521 78 -752 -70 -144 -169 -245 -315 -321 -44 -24 -74 -47 -85 -66 -104 -192 -335 -421 -536 -533 -65 -37 -80 -55 -70 -86 16 -48 103 -27 250 59 140 82 288 215 375 336 18 25 35 44 37 42 6 -6 -67 -205 -107 -293 -22 -47 -40 -95 -40 -106 0 -26 28 -57 51 -57 45 0 140 129 192 263 12 31 25 57 29 57 4 0 20 -41 35 -91 30 -102 54 -130 93 -109 12 6 26 25 32 40 8 25 14 28 37 24 25 -5 35 2 93 73 88 104 225 236 238 228 5 -3 10 -32 10 -63 0 -58 -18 -274 -24 -279 -1 -2 -22 7 -47 19 -58 28 -140 36 -158 15 -23 -29 -7 -51 70 -97 115 -69 224 -150 242 -182 25 -43 57 -36 182 38 107 63 150 82 161 71 6 -6 -35 -146 -68 -235 -19 -51 -21 -53 -49 -47 -31 7 -59 -7 -59 -29 0 -7 28 -55 63 -107 67 -100 111 -214 123 -311 6 -52 5 -55 -30 -90 -39 -39 -48 -85 -21 -108 16 -13 23 -12 138 21 42 12 80 20 83 17 8 -8 -21 -61 -70 -131 -38 -54 -42 -57 -72 -51 -26 5 -34 2 -43 -14 -12 -22 -1 -70 24 -108 11 -18 13 -33 5 -71 -26 -136 -104 -273 -211 -371 -43 -39 -48 -41 -80 -32 -47 14 -143 12 -157 -2 -7 -7 -12 -22 -12 -34 0 -19 17 -31 93 -67 240 -115 344 -269 275 -407 -31 -62 -105 -100 -193 -100 -234 0 -569 222 -671 444 -28 63 -55 78 -86 49 -18 -16 -20 -26 -15 -90 l5 -73 -31 0 c-45 0 -131 -25 -191 -54 -28 -14 -96 -67 -151 -117 -168 -153 -261 -203 -380 -202 -183 0 -239 155 -123 335 71 109 169 192 326 274 78 41 94 64 66 95 -21 23 -47 24 -128 3 -181 -47 -350 -182 -440 -354 -34 -64 -37 -67 -93 -85 -34 -11 -98 -20 -153 -22 -84 -4 -100 -2 -140 19 -152 78 -66 297 161 411 93 46 166 65 299 76 58 5 123 15 145 23 34 11 40 18 43 44 2 25 -3 37 -25 54 l-27 21 33 65 c48 92 146 193 262 270 100 66 116 87 84 114 -22 18 -87 7 -156 -28 -33 -16 -59 -26 -59 -22 0 4 44 96 98 206 54 109 109 228 123 263 22 59 35 74 169 199 155 144 179 174 159 198 -16 20 -59 17 -89 -6 -34 -27 -41 -25 -29 7 14 37 -6 83 -35 83 -29 0 -47 -15 -86 -75 -87 -130 -253 -308 -385 -411 -231 -181 -526 -329 -765 -384 -61 -14 -90 -34 -90 -62 0 -26 45 -40 105 -33 208 27 487 133 680 261 50 32 97 63 105 68 8 6 -4 -14 -28 -42 -254 -303 -562 -514 -967 -663 -104 -39 -338 -110 -343 -104 -2 2 11 11 30 21 60 31 138 96 144 120 7 26 -10 54 -32 54 -7 0 -82 -35 -166 -78 -182 -93 -357 -159 -550 -208 -263 -66 -680 -124 -894 -124 l-92 0 -26 35 c-35 45 -138 118 -218 154 -112 50 -197 66 -355 66 -122 0 -142 2 -138 15 34 113 38 153 40 385 2 224 4 243 24 288 30 64 38 139 18 156 -27 22 -60 9 -79 -29 -11 -23 -18 -30 -21 -20 -53 166 -120 296 -200 385 -60 68 -90 82 -123 60 -14 -9 -24 -25 -24 -39 0 -13 31 -84 69 -157 122 -234 171 -423 171 -652 0 -143 -10 -220 -42 -338 -20 -73 -22 -77 -57 -88 -60 -18 -101 -48 -101 -73 0 -46 12 -51 97 -43 69 6 83 4 113 -13 29 -17 43 -19 85 -12 28 5 100 9 160 9 189 1 333 -50 438 -154 96 -95 132 -215 85 -285 -29 -44 -99 -80 -154 -80 -39 0 -47 5 -110 71 -111 113 -234 182 -387 213 -136 28 -207 15 -207 -38 0 -32 15 -42 111 -75 196 -66 338 -161 411 -274 43 -67 50 -157 16 -207 -63 -93 -235 -104 -413 -25 -31 13 -112 58 -179 99 -66 41 -133 78 -148 81 -15 4 -38 24 -53 46 -55 79 -220 189 -283 189 -27 0 -62 -33 -62 -60 0 -12 26 -40 69 -74 86 -69 133 -124 171 -200 86 -170 -26 -294 -227 -252 -143 30 -270 115 -403 271 -69 80 -86 95 -111 95 -23 0 -34 -7 -47 -31 l-17 -31 -110 6 c-290 17 -514 76 -595 157 -43 43 -54 93 -35 157 9 29 17 52 18 52 1 0 20 -7 42 -15 87 -31 165 -12 165 40 0 27 -17 42 -100 88 -332 182 -585 544 -683 977 -18 80 -21 126 -21 285 0 163 4 204 23 285 13 52 34 111 47 131 l24 36 -16 96 c-16 97 -14 147 8 147 7 0 42 -18 79 -40 37 -22 73 -40 80 -40 21 0 49 32 49 57 0 27 -60 89 -114 118 -20 11 -36 27 -36 36 0 27 93 173 165 260 38 44 105 110 149 145 159 127 156 123 156 154 0 20 -8 35 -25 46 -23 15 -28 15 -71 0 -128 -43 -327 -213 -427 -363 -110 -166 -167 -321 -167 -455 0 -65 -5 -101 -21 -140 -11 -29 -32 -100 -46 -158 -24 -95 -26 -124 -27 -305 0 -209 10 -298 54 -450 11 -38 20 -74 20 -79 0 -11 -116 1 -200 21 -36 8 -97 31 -136 49 -65 30 -86 48 -146 123 -10 11 -27 21 -38 21 -20 0 -20 1 -4 38 41 94 94 277 109 375 16 112 21 349 10 454 -5 43 -2 82 11 139 46 197 7 494 -65 494 -39 0 -44 -23 -31 -123 7 -50 11 -112 9 -137 l-4 -45 -18 55 c-81 242 -281 519 -482 668 -91 68 -230 136 -330 163 -120 33 -347 33 -465 1 -97 -26 -246 -90 -315 -133 -25 -16 -48 -29 -51 -29 -2 0 14 26 36 58 l40 57 -15 70 c-8 39 -15 85 -15 103 0 37 14 40 80 17 23 -8 52 -15 63 -15 31 0 67 39 67 72 0 46 54 115 98 127 62 17 132 68 235 171 79 80 97 104 97 128 0 23 5 31 25 36 45 11 159 174 186 264 7 24 22 48 33 54 12 6 65 52 119 101 53 50 99 88 100 86 2 -2 8 -20 13 -39 9 -30 7 -39 -13 -66 -53 -70 -68 -175 -33 -231 54 -89 136 -75 95 17 -12 27 -15 50 -11 74 8 41 17 45 31 14 30 -66 148 -87 274 -49 114 35 189 106 147 140 -12 10 -28 8 -83 -15 -40 -15 -96 -29 -134 -32 l-66 -4 -41 148 c-103 373 -188 758 -199 900 -9 125 17 150 104 100 66 -38 260 -190 456 -356 283 -239 283 -240 322 -240 36 0 55 20 55 59 0 16 6 21 24 21 30 0 40 14 32 44 -7 27 -60 56 -103 56 -20 0 -42 14 -77 47 l-49 47 42 37 c23 21 94 72 157 115 124 83 121 79 127 186 1 38 8 73 14 79 7 7 28 2 71 -20 75 -38 89 -38 138 -4 102 70 316 193 479 275 99 50 188 97 197 105 10 9 20 38 24 69 3 30 9 54 11 54 3 0 29 -13 58 -30 52 -30 52 -30 98 -14 42 14 48 14 69 0 57 -40 154 14 108 60 -14 14 30 164 52 177 13 9 28 1 75 -38 32 -27 60 -50 62 -52 3 -2 -1 -9 -7 -15 -17 -17 -15 -58 3 -64 40 -16 135 50 135 93 0 16 19 26 108 53 59 18 113 35 120 38 9 3 12 -18 12 -86 l0 -90 -50 -32 c-99 -64 -151 -149 -151 -249 -1 -67 24 -127 67 -160 41 -33 64 -36 87 -12 l21 21 -27 55 c-15 31 -27 69 -27 86 0 44 47 129 72 129 4 0 8 -19 8 -42 0 -56 28 -100 82 -132 129 -76 388 -73 388 4 0 32 -38 50 -105 50 -66 0 -173 24 -192 43 -28 28 41 1202 82 1401 22 104 47 132 95 106 39 -21 153 -201 430 -680 197 -341 271 -460 290 -470 45 -24 100 6 100 55 0 32 20 32 49 1 36 -38 32 -102 -12 -186 -36 -68 -36 -69 -17 -92 l18 -23 36 19 c63 34 114 117 123 200 6 57 -19 130 -58 172 -24 26 -101 61 -151 69 -29 4 -42 13 -53 36 -17 32 -19 31 50 48 55 14 335 58 420 67 74 7 102 17 122 43 7 9 31 72 54 141 57 172 137 365 159 385 41 38 68 5 198 -241 117 -219 115 -210 54 -217 -77 -9 -132 -35 -132 -62 0 -12 6 -27 13 -33 6 -5 91 -12 187 -15 156 -5 375 -29 388 -42 3 -3 -7 -14 -22 -26 -37 -29 -56 -69 -45 -97 14 -38 37 -37 109 1 37 20 111 53 164 72 114 41 125 47 189 94 83 61 131 141 317 517 98 198 192 377 210 397 46 53 73 50 104 -11z m-5160 -888 c22 -8 156 -165 324 -379 l142 -179 -162 -81 c-90 -45 -194 -100 -231 -123 -45 -27 -69 -37 -72 -29 -13 36 -57 512 -58 628 -2 156 7 182 57 163z m-2241 -2038 c101 -53 455 -264 462 -276 3 -5 -22 -50 -55 -101 -39 -59 -59 -100 -56 -112 3 -11 -2 -21 -12 -24 -9 -4 -44 -32 -77 -62 -34 -31 -84 -76 -113 -100 l-52 -43 -25 54 c-83 182 -212 564 -216 643 -5 80 24 84 144 21z m620 -53 c3 -5 -6 -16 -19 -26 -24 -18 -24 -18 -24 8 0 18 5 25 19 25 11 0 22 -3 24 -7z m-1558 -1256 c79 -49 329 -217 449 -301 83 -58 117 -76 142 -76 54 0 76 49 50 111 -9 21 57 70 176 134 378 201 734 139 1038 -181 262 -275 405 -703 369 -1101 -39 -441 -236 -764 -553 -908 -115 -52 -193 -67 -379 -74 -173 -6 -191 -11 -184 -50 12 -72 296 -111 489 -67 l77 17 106 -35 c133 -44 232 -101 311 -181 144 -146 159 -308 34 -373 -95 -49 -200 -16 -355 113 -96 79 -154 113 -211 122 -24 4 -51 20 -79 47 -86 83 -209 118 -242 68 -15 -22 -13 -25 65 -101 129 -126 185 -234 168 -324 -26 -141 -222 -159 -401 -37 -28 18 -102 86 -165 150 -128 129 -183 171 -268 203 -54 20 -73 21 -397 22 -327 0 -342 1 -387 22 -50 23 -78 62 -78 109 0 39 34 104 75 144 31 30 37 32 60 22 38 -18 73 -15 85 7 16 31 13 43 -36 116 -45 68 -64 105 -79 153 l-7 23 34 -21 c52 -32 106 -23 120 20 11 31 -14 61 -149 177 -155 135 -313 294 -337 341 -9 17 -13 38 -10 46 12 30 141 50 427 65 110 6 174 14 184 22 13 11 18 9 35 -11 11 -14 33 -50 48 -81 36 -71 52 -84 81 -69 19 11 21 18 17 64 -12 142 -146 278 -244 247 -16 -5 -80 -12 -143 -15 l-114 -5 7 64 c3 35 13 83 21 106 21 58 20 62 -26 185 -47 124 -59 184 -38 184 8 0 47 -16 88 -35 87 -42 124 -45 146 -11 9 13 14 30 13 37 -2 9 14 15 51 20 123 16 166 109 50 109 l-48 0 -50 158 c-93 295 -151 527 -151 606 0 74 24 79 115 23z m2282 -2169 c87 -83 263 -150 437 -168 59 -6 110 -9 114 -6 14 8 29 -8 57 -64 68 -135 178 -294 271 -392 26 -27 44 -51 41 -54 -18 -18 -382 58 -570 118 -126 41 -127 41 -137 77 -42 153 -233 317 -410 352 l-59 11 56 66 c30 36 72 90 91 120 l36 54 22 -44 c12 -24 35 -55 51 -70z m6832 28 c-6 -20 -31 -64 -57 -96 l-47 -59 -27 26 -26 25 66 57 c37 32 73 65 81 75 19 23 22 16 10 -28z m-7044 -324 c168 -60 275 -174 274 -292 l0 -45 -29 56 c-62 120 -210 244 -345 289 -36 12 -65 24 -65 26 0 11 98 -10 165 -34z"
       id="path1" />
    <path
       d="M8815 9093 c-190 -12 -376 -77 -550 -191 -133 -88 -309 -277 -350 -377 -26 -60 10 -106 69 -91 12 3 53 41 89 85 216 256 475 399 752 418 294 19 535 -135 694 -444 34 -64 49 -84 72 -92 27 -9 34 -7 56 15 22 22 25 31 20 69 -21 149 -203 392 -371 494 -137 82 -314 124 -481 114z"
       id="path2" />
    <path
       d="M7465 9036 c-16 -8 -42 -27 -57 -43 -32 -33 -88 -138 -88 -164 0 -29 48 -59 94 -59 63 0 85 31 47 67 -18 18 -18 19 6 56 34 54 49 56 91 14 35 -35 35 -37 18 -56 -23 -26 -17 -53 15 -65 32 -11 74 8 102 46 20 27 20 29 4 64 -28 58 -77 112 -122 134 -48 23 -69 24 -110 6z"
       id="path3" />
    <path
       d="M6465 8656 c-44 -19 -83 -69 -99 -129 -16 -55 -36 -244 -36 -338 0 -39 -4 -59 -14 -62 -18 -7 -56 -87 -56 -119 0 -30 33 -63 55 -54 9 3 22 21 30 41 14 31 18 34 45 28 24 -4 36 0 54 16 22 20 24 33 30 174 9 198 21 286 40 305 14 14 19 13 53 -11 21 -15 91 -74 156 -132 66 -57 128 -107 138 -110 26 -8 69 20 69 45 0 11 8 20 21 22 12 2 28 13 36 25 14 20 13 24 -11 48 -19 18 -36 25 -66 25 -35 0 -48 7 -112 67 -170 156 -251 195 -333 159z"
       id="path4" />
    <path
       d="M8720 8614 c-213 -56 -390 -234 -445 -449 -19 -76 -19 -204 0 -280 57 -226 243 -402 476 -451 248 -53 515 68 647 292 59 101 77 168 77 299 0 178 -52 303 -179 431 -78 78 -170 131 -273 158 -76 20 -228 20 -303 0z m303 -104 c167 -52 295 -190 341 -367 53 -202 -34 -416 -220 -544 -97 -66 -253 -95 -373 -69 -182 39 -339 179 -391 349 -65 208 20 443 204 565 125 83 300 109 439 66z"
       id="path5" />
    <path
       d="M8832 8237 c-49 -15 -127 -90 -147 -139 -25 -62 -23 -156 5 -212 27 -56 96 -119 148 -134 128 -39 249 13 309 132 64 127 8 287 -122 347 -45 21 -139 24 -193 6z"
       id="path6" />
    <path
       d="M4710 8448 c-54 -28 -87 -86 -97 -168 -3 -30 -12 -67 -20 -83 -26 -52 25 -95 97 -82 76 14 106 63 54 87 -24 11 -25 15 -19 57 17 111 37 116 144 34 24 -18 52 -33 62 -33 24 0 52 44 44 69 -9 29 -64 80 -115 106 -72 36 -99 38 -150 13z"
       id="path7" />
    <path
       d="M7428 8342 c-39 -26 -86 -91 -94 -130 -8 -40 8 -62 45 -62 21 0 34 11 61 52 19 29 40 54 47 56 7 2 29 -20 49 -48 30 -42 41 -51 63 -48 43 5 51 50 20 107 -47 83 -128 114 -191 73z"
       id="path8" />
    <path
       d="M10035 8331 c-39 -23 -83 -75 -91 -107 -7 -26 18 -64 41 -64 7 0 30 20 53 45 22 25 46 45 52 45 5 0 20 -20 32 -45 12 -25 29 -47 39 -50 74 -24 77 100 4 164 -42 36 -85 40 -130 12z"
       id="path9" />
    <path
       d="M5115 8116 c-36 -16 -82 -67 -102 -114 -25 -60 -43 -224 -50 -442 l-6 -215 -29 -37 c-32 -41 -58 -107 -58 -147 0 -56 65 -99 77 -51 7 26 11 25 34 -4 11 -14 45 -37 76 -53 48 -23 70 -27 138 -28 98 0 171 19 192 52 14 21 14 25 -1 42 -15 17 -28 18 -119 14 -120 -6 -174 6 -220 48 l-32 29 28 -6 c21 -5 34 -1 53 17 l24 22 0 250 c0 353 20 497 69 497 10 0 38 -14 62 -32 53 -38 253 -207 369 -312 80 -72 88 -77 125 -74 40 3 40 3 43 -36 7 -86 -92 -215 -240 -313 -57 -37 -73 -53 -73 -72 0 -63 75 -45 201 50 79 59 147 137 186 213 28 54 35 153 15 191 -14 28 -14 30 7 40 33 17 27 55 -13 82 -25 17 -48 23 -88 23 l-53 0 -152 131 c-84 72 -180 151 -214 175 -99 71 -180 90 -249 60z"
       id="path10" />
    <path
       d="M4030 8043 c-28 -10 -69 -56 -80 -87 -5 -18 -14 -67 -19 -111 -5 -44 -13 -93 -17 -108 -10 -42 18 -67 75 -67 88 0 147 67 84 95 -19 8 -23 18 -23 56 0 64 10 110 26 116 8 3 47 -16 88 -41 40 -25 78 -46 83 -46 18 0 43 36 43 63 0 17 -12 35 -37 57 -78 63 -168 93 -223 73z"
       id="path11" />
    <path
       d="M10010 7970 c-125 -34 -196 -74 -286 -164 -126 -126 -184 -264 -184 -436 0 -170 59 -309 181 -432 60 -59 95 -85 162 -117 185 -90 359 -92 533 -6 179 88 295 242 330 437 38 210 -23 405 -176 559 -114 115 -227 165 -395 174 -70 4 -106 1 -165 -15z m271 -96 c91 -27 165 -73 233 -144 70 -74 108 -145 131 -242 76 -322 -166 -639 -488 -638 -123 0 -263 57 -353 142 -109 103 -165 228 -166 372 0 107 12 158 59 248 68 131 201 232 352 267 60 15 174 12 232 -5z"
       id="path12" />
    <path
       d="M10106 7585 c-125 -44 -199 -190 -162 -318 46 -158 231 -235 370 -153 82 48 129 132 129 231 1 172 -175 298 -337 240z"
       id="path13" />
    <path
       d="M7330 7964 c-30 -8 -92 -33 -138 -55 -192 -96 -324 -297 -339 -512 -16 -244 120 -476 341 -581 115 -55 161 -66 281 -66 179 0 327 61 450 185 120 121 178 261 178 430 1 175 -53 304 -178 431 -65 66 -96 89 -165 122 -47 22 -109 45 -138 51 -73 15 -226 13 -292 -5z m247 -89 c111 -21 195 -65 274 -144 172 -171 205 -419 84 -627 -42 -72 -143 -167 -217 -203 -35 -18 -101 -39 -147 -48 -75 -15 -90 -15 -171 -1 -122 22 -208 66 -291 148 -79 78 -131 176 -150 280 -41 232 114 487 351 574 37 13 109 28 177 35 6 0 47 -6 90 -14z"
       id="path14" />
    <path
       d="M7472 7581 c-183 -64 -233 -308 -90 -437 53 -48 101 -67 168 -66 136 0 243 99 257 236 19 183 -163 329 -335 267z"
       id="path15" />
    <path
       d="M6321 7723 c-44 -22 -74 -88 -75 -164 -1 -65 14 -89 55 -89 33 0 49 23 49 74 0 44 16 86 32 86 7 0 31 -14 52 -30 43 -32 65 -37 84 -18 35 35 -12 110 -90 142 -47 20 -65 20 -107 -1z"
       id="path16" />
    <path
       d="M4281 7613 c-19 -10 -43 -29 -53 -43 -24 -34 -46 -142 -54 -275 -5 -78 -13 -121 -26 -147 -19 -37 -18 -68 4 -95 14 -18 55 -16 61 2 5 11 12 12 37 4 22 -8 38 -8 60 1 46 19 50 62 8 76 -20 6 -21 11 -15 153 8 160 16 205 38 209 8 1 68 -42 133 -98 122 -103 149 -116 179 -82 42 46 12 88 -148 217 -114 92 -164 109 -224 78z"
       id="path17" />
    <path
       d="M6176 7200 c-41 -13 -73 -46 -92 -97 -14 -36 -16 -63 -10 -151 3 -59 12 -141 20 -182 11 -62 11 -80 0 -107 -19 -43 -18 -103 2 -131 28 -40 74 -22 74 30 0 23 4 28 24 28 60 0 67 39 36 225 -11 66 -20 150 -20 188 0 57 3 67 18 67 9 0 79 -30 155 -67 133 -65 139 -67 165 -52 35 19 41 62 13 100 -24 32 -26 40 -10 37 16 -4 33 27 26 46 -12 30 -52 37 -107 19 -50 -16 -50 -16 -117 15 -76 35 -134 45 -177 32z"
       id="path18" />
    <path
       d="M5412 7031 c-7 -4 -44 -66 -83 -137 -39 -71 -76 -135 -83 -142 -10 -10 -30 -6 -108 22 -187 68 -260 69 -333 5 -71 -63 -82 -213 -37 -517 l19 -123 -82 -82 c-132 -132 -194 -287 -140 -347 25 -28 66 -23 81 10 7 14 27 56 45 95 29 62 110 165 129 165 4 0 11 -15 14 -34 15 -77 88 -114 131 -66 21 24 19 63 -19 277 -50 278 -67 465 -46 504 21 39 71 25 409 -116 196 -82 217 -85 247 -40 34 53 -5 99 -129 150 -37 16 -66 31 -65 34 2 3 19 38 39 76 66 126 86 227 51 258 -21 19 -22 20 -40 8z"
       id="path19" />
    <path
       d="M3655 6946 c-31 -31 -48 -96 -37 -138 6 -26 14 -34 35 -36 30 -4 41 14 52 81 l6 38 33 -21 c36 -21 60 -19 70 7 10 26 -3 51 -38 73 -45 27 -91 26 -121 -4z"
       id="path20" />
    <path
       d="M8573 6910 c-12 -5 -29 -20 -39 -34 -26 -40 -12 -86 41 -135 38 -35 51 -41 88 -41 72 0 102 52 68 119 -35 68 -109 111 -158 91z"
       id="path21" />
    <path
       d="M9263 6900 c-43 -26 -93 -96 -93 -130 0 -65 82 -92 145 -48 74 50 96 128 50 173 -29 30 -59 32 -102 5z"
       id="path22" />
    <path
       d="M2623 6535 c-61 -26 -95 -123 -73 -205 12 -44 41 -80 64 -80 33 0 49 32 42 84 -7 61 1 96 21 96 8 0 34 -12 58 -26 54 -31 85 -21 85 27 0 36 -34 73 -93 99 -50 23 -62 24 -104 5z"
       id="path23" />
    <path
       d="M3415 6503 c-36 -10 -66 -36 -88 -77 -18 -35 -21 -56 -20 -146 1 -58 8 -152 17 -210 15 -96 15 -107 -1 -148 -19 -50 -10 -108 20 -126 24 -15 51 3 57 40 4 22 10 28 26 26 11 -1 29 6 39 18 20 22 19 47 -10 240 -18 120 -24 245 -12 256 13 14 61 -11 225 -115 87 -56 168 -101 180 -101 35 0 55 29 49 71 -3 27 -1 39 9 43 20 8 17 40 -6 61 -15 14 -30 16 -66 12 -43 -4 -53 -1 -122 44 -139 91 -238 128 -297 112z"
       id="path24" />
    <path
       d="M5685 6486 c-19 -14 -19 -15 -1 -72 39 -125 30 -226 -35 -361 -32 -68 -34 -99 -7 -117 43 -26 127 96 154 225 27 126 4 259 -55 318 -25 25 -31 26 -56 7z"
       id="path25" />
    <path
       d="M8805 6473 c-828 -33 -1675 -204 -2235 -450 -195 -86 -230 -117 -208 -184 8 -24 44 -49 69 -49 6 0 45 16 86 36 225 107 537 208 897 293 580 136 1184 201 1751 188 223 -6 524 -25 645 -41 454 -62 782 -145 1063 -270 132 -59 152 -62 190 -28 21 19 23 79 2 108 -27 40 -278 148 -483 209 -485 143 -1152 213 -1777 188z"
       id="path26" />
    <path
       d="M6419 6392 c-184 -76 -336 -208 -408 -353 -23 -46 -48 -118 -57 -159 -51 -244 116 -501 377 -581 37 -11 86 -19 110 -17 43 3 44 4 44 38 0 34 -1 35 -81 66 -250 97 -377 285 -329 489 41 176 169 317 402 440 74 39 94 64 73 90 -18 22 -57 18 -131 -13z"
       id="path27" />
    <path
       d="M4291 6365 c-28 -24 -51 -77 -66 -151 -6 -33 9 -84 28 -96 36 -23 77 6 77 55 0 47 19 107 33 107 7 0 31 -18 52 -40 39 -40 71 -50 93 -28 20 20 14 53 -17 95 -59 82 -142 106 -200 58z"
       id="path28" />
    <path
       d="M5455 5836 c-126 -84 -179 -101 -310 -101 -101 0 -114 2 -162 28 -29 15 -60 38 -68 51 -33 51 -85 39 -85 -19 0 -121 249 -210 445 -160 117 31 273 126 306 187 12 22 -11 68 -34 68 -6 -1 -48 -25 -92 -54z"
       id="path29" />
    <path
       d="M10301 5426 c-8 -10 -10 -33 -5 -75 7 -69 1 -74 -47 -40 -40 28 -73 22 -77 -15 -4 -33 27 -72 75 -92 49 -21 79 -17 115 15 31 28 33 33 33 95 0 50 -5 71 -21 93 -24 32 -55 41 -73 19z"
       id="path30" />
    <path
       d="M4528 5330 c-42 -23 -70 -58 -88 -115 -26 -78 -7 -405 35 -604 14 -68 14 -78 -1 -117 -29 -76 15 -151 73 -125 19 9 31 7 56 -6 22 -12 55 -18 104 -18 62 0 76 3 95 22 18 18 20 26 11 45 -9 19 -23 26 -78 35 -37 6 -68 13 -70 15 -6 6 -46 242 -65 387 -23 164 -26 321 -8 339 7 7 20 12 29 12 20 0 275 -168 422 -278 54 -40 110 -79 125 -85 25 -11 27 -17 27 -67 0 -54 0 -55 29 -55 95 0 96 237 1 268 -17 5 -82 49 -145 97 -321 244 -452 303 -552 250z"
       id="path31" />
    <path
       d="M9281 5236 c-6 -7 -20 -46 -31 -87 -11 -41 -25 -93 -32 -117 -15 -51 -4 -75 34 -80 19 -2 31 5 46 25 44 63 75 209 53 251 -13 25 -52 29 -70 8z"
       id="path32" />
    <path
       d="M6058 5129 c-11 -6 -18 -22 -18 -39 0 -24 11 -36 72 -79 214 -151 373 -355 434 -556 22 -76 43 -100 78 -91 44 11 53 46 34 137 -48 233 -271 505 -503 615 -55 26 -71 28 -97 13z"
       id="path33" />
    <path
       d="M7780 5102 c-94 -45 -205 -271 -186 -376 9 -47 57 -102 103 -117 98 -32 264 46 363 172 43 54 50 88 24 113 -25 26 -41 19 -107 -42 -156 -144 -282 -175 -264 -66 9 51 57 150 106 214 27 36 41 63 39 79 -4 33 -37 43 -78 23z"
       id="path34" />
    <path
       d="M6687 5082 c-27 -29 -20 -50 32 -102 102 -102 273 -192 419 -221 60 -11 65 -11 85 9 35 35 12 65 -70 92 -97 32 -225 99 -316 164 -118 85 -124 87 -150 58z"
       id="path35" />
    <path
       d="M9540 4890 c-34 -34 -22 -73 25 -81 41 -8 68 -210 32 -246 -34 -34 -99 12 -177 127 -43 63 -65 73 -95 43 -48 -48 45 -208 159 -273 37 -22 64 -30 100 -30 45 0 53 4 91 44 35 36 44 54 53 102 20 119 -26 287 -89 319 -39 21 -75 19 -99 -5z"
       id="path36" />
    <path
       d="M10043 4864 c-3 -9 -1 -31 5 -48 7 -18 12 -49 12 -69 0 -43 -21 -49 -61 -19 -35 27 -60 34 -75 21 -23 -19 -16 -53 19 -86 43 -41 69 -53 112 -53 47 0 91 42 101 95 8 45 -10 132 -33 157 -20 23 -71 24 -80 2z"
       id="path37" />
    <path
       d="M5605 4812 c-39 -24 -48 -36 -84 -108 -30 -61 -71 -203 -71 -247 0 -45 62 -76 88 -44 6 7 31 71 56 141 24 71 51 135 59 144 13 12 18 9 42 -32 15 -26 47 -90 71 -144 30 -67 51 -102 69 -112 25 -14 27 -14 52 14 29 34 28 51 -13 154 -38 95 -106 203 -144 230 -40 27 -85 28 -125 4z"
       id="path38" />
    <path
       d="M8719 4781 c-23 -18 -24 -26 -24 -128 0 -101 2 -111 28 -156 49 -83 123 -113 205 -81 67 25 159 121 205 213 52 103 48 161 -10 161 -18 0 -36 -21 -86 -97 -89 -137 -153 -191 -194 -165 -24 15 -44 84 -45 159 -1 59 -6 81 -20 95 -23 23 -30 23 -59 -1z"
       id="path39" />
    <path
       d="M11027 4603 c-68 -51 -177 -218 -177 -270 0 -30 43 -58 66 -45 10 6 50 57 89 113 39 57 78 105 87 107 17 3 32 -59 44 -181 6 -56 11 -71 30 -83 32 -22 61 -4 74 47 13 46 0 163 -26 241 -31 95 -113 126 -187 71z"
       id="path40" />
    <path
       d="M11586 4217 c-53 -30 -84 -72 -70 -95 17 -26 43 -26 85 -3 l38 22 3 -63 c3 -59 5 -63 29 -66 44 -5 64 29 64 110 0 64 -2 72 -28 94 -35 30 -70 30 -121 1z"
       id="path41" />
    <path
       d="M6888 4195 c-10 -21 -8 -30 8 -52 51 -68 309 -178 477 -203 68 -10 81 -9 103 4 28 19 32 61 7 75 -10 5 -58 19 -108 31 -111 28 -239 76 -343 130 -93 47 -127 51 -144 15z"
       id="path42" />
    <path
       d="M6100 4086 c-44 -25 -130 -149 -130 -189 0 -18 32 -47 53 -47 9 0 40 32 69 70 28 39 57 69 62 67 10 -3 23 -42 42 -132 8 -34 13 -40 39 -43 39 -5 55 19 55 80 0 75 -19 136 -55 174 -26 28 -40 34 -71 34 -22 -1 -50 -7 -64 -14z"
       id="path43" />
    <path
       d="M4548 4064 c-15 -8 -36 -29 -45 -47 -37 -67 -11 -261 46 -354 27 -42 66 -53 94 -25 l20 21 -26 88 c-29 97 -43 184 -34 208 8 19 33 9 146 -62 47 -29 90 -53 97 -53 19 0 44 29 44 51 0 34 -18 57 -84 103 -115 83 -195 105 -258 70z"
       id="path44" />
    <path
       d="M8515 3938 c-87 -21 -105 -31 -105 -59 0 -37 29 -52 92 -46 110 10 185 67 148 113 -16 18 -35 17 -135 -8z"
       id="path45" />
    <path
       d="M11492 3770 c-41 -25 -60 -63 -42 -85 16 -19 41 -19 66 0 31 23 37 18 30 -26 -8 -48 5 -69 40 -69 31 0 57 50 57 108 0 82 -75 118 -151 72z"
       id="path46" />
    <path
       d="M5200 3697 c-38 -19 -67 -71 -79 -143 -18 -98 -2 -154 44 -154 31 0 42 17 50 75 10 76 25 125 36 125 6 0 36 -25 68 -55 59 -56 89 -67 111 -40 20 24 3 63 -53 122 -76 81 -121 99 -177 70z"
       id="path47" />
    <path
       d="M2254 5436 c-41 -18 -75 -64 -124 -168 -68 -147 -77 -231 -24 -244 35 -9 45 4 89 110 46 113 83 186 94 186 10 0 53 -93 93 -204 34 -93 43 -106 72 -106 63 1 67 68 12 210 -47 122 -97 197 -141 216 -40 16 -32 16 -71 0z"
       id="path48" />
    <path
       d="M1589 5245 c-34 -19 -54 -67 -54 -133 0 -42 4 -57 19 -68 37 -26 56 -10 67 56 4 29 10 55 13 57 3 3 24 -8 47 -25 33 -25 46 -29 61 -21 28 15 32 33 14 67 -32 63 -116 96 -167 67z"
       id="path49" />
    <path
       d="M1634 4728 c-12 -5 -32 -29 -45 -51 -21 -36 -24 -55 -24 -137 0 -56 5 -104 13 -117 15 -27 45 -37 70 -24 17 9 20 24 24 111 2 55 8 104 14 110 7 7 37 -13 93 -60 45 -39 87 -70 92 -70 12 0 49 37 49 50 0 40 -114 160 -177 187 -38 15 -79 16 -109 1z"
       id="path50" />
    <path
       d="M1553 3938 c-32 -15 -53 -68 -53 -130 0 -63 20 -98 55 -98 32 0 45 27 45 89 0 28 3 51 8 51 4 -1 23 -14 42 -30 51 -44 100 -36 100 15 0 22 -58 84 -97 104 -27 14 -71 13 -100 -1z"
       id="path51" />
  </g>
  <path
     style="fill:#ffffff;stroke-width:1.42857"
     d="m 570.74891,846.99559 c -11.85937,-3.1869 -19.55908,-8.31812 -32.89177,-21.91962 -6.67857,-6.81323 -13.3043,-12.82564 -14.72383,-13.36091 -1.75307,-0.66106 -3.60805,0.13501 -5.78292,2.48173 -3.1642,3.41422 -3.38056,3.43947 -18.34473,2.1401 -41.63617,-3.61533 -61.00266,-13.54046 -56.71579,-29.06623 0.98902,-3.58193 2.12312,-5.11055 3.42184,-4.61219 6.26662,2.40474 12.35779,2.53099 15.72316,0.32592 6.63799,-4.34938 5.19477,-6.20035 -15.1346,-19.4107 C 421.6941,747.58421 401.20971,719.07813 389.83746,685 c -3.90399,-11.69864 -4.05352,-13.18807 -4.0877,-40.71429 -0.0346,-27.90575 0.0551,-28.78801 3.85243,-37.86757 3.66258,-8.7574 3.79964,-9.86311 2.36484,-19.07913 -0.89419,-5.7435 -0.9961,-10.30994 -0.24684,-11.0592 0.74927,-0.74927 4.32962,0.34516 8.67108,2.65055 5.85489,3.10904 7.92284,3.59891 9.93036,2.35231 4.92673,-3.05933 3.8037,-7.07568 -3.81242,-13.63454 -3.97215,-3.42076 -7.22241,-6.77833 -7.2228,-7.46126 -3.8e-4,-0.68293 2.3413,-5.09706 5.20376,-9.80914 6.34073,-10.43797 19.17783,-24.36364 31.49152,-34.16193 8.16612,-6.49799 9.1243,-7.78721 8.73795,-11.75704 -1.08765,-11.17603 -18.08137,-3.96456 -38.29448,16.25068 -20.14906,20.1512 -28.53947,36.4908 -31.32519,61.00312 -0.78588,6.91524 -3.05627,18.35887 -5.0453,25.4303 -3.20331,11.38848 -3.61664,15.54968 -3.61848,36.42857 -0.002,19.96251 0.52007,25.72947 3.4084,37.66663 l 3.41048,14.0952 -8.63608,-0.97706 c -13.40898,-1.51706 -26.47005,-7.06346 -33.95378,-14.41851 -3.5627,-3.50145 -7.11758,-6.36626 -7.89972,-6.36626 -0.78215,0 1.02171,-7.46039 4.00857,-16.57864 6.30078,-19.23493 8.63921,-37.2535 8.04537,-61.99279 -0.2169,-9.03571 0.35517,-22.10806 1.27126,-29.04964 2.87238,-21.76525 -1.5274,-43.12726 -8.67316,-42.11035 -2.97829,0.42386 -3.11299,1.04099 -2.74787,12.58856 l 0.38394,12.14286 -6.27383,-12.85714 C 298.48035,494.11414 266.25035,467.597 231.1551,463.62136 c -21.23202,-2.40519 -40.44983,1.18 -60.12235,11.21617 -7.5292,3.84111 -8.29604,3.79204 -5.57754,-0.35692 1.877,-2.86464 1.96735,-4.80702 0.59604,-12.81268 -0.88899,-5.1899 -1.23036,-9.82216 -0.75859,-10.29392 0.47176,-0.47177 3.49366,-0.068 6.71533,0.89722 7.80959,2.33981 12.36808,0.31134 13.72692,-6.1083 1.29047,-6.09657 5.5335,-10.64242 13.02773,-13.95747 6.15995,-2.72485 29.0945,-23.47656 29.0945,-26.32539 0,-0.87888 3.375,-5.20206 7.5,-9.60706 4.125,-4.40498 9.68494,-12.43988 12.35543,-17.85532 3.83211,-7.77109 7.07261,-11.74253 15.37556,-18.84368 8.45029,-7.22717 10.6957,-8.5399 11.41246,-6.67205 0.49078,1.27895 -0.41878,5.00635 -2.02125,8.28313 -4.38957,8.97595 -5.07981,14.24002 -2.63457,20.0923 2.45574,5.87741 8.47738,9.54332 11.20141,6.81928 1.24288,-1.24287 1.29051,-3.15333 0.18215,-7.30578 -0.82545,-3.09256 -0.96721,-6.46422 -0.31502,-7.49258 0.87172,-1.37451 1.19159,-1.40648 1.20767,-0.12071 0.0631,5.04349 16.10251,7.7761 27.33278,4.65664 10.28485,-2.85685 19.3014,-11.07908 15.89015,-14.49033 -1.3606,-1.3606 -3.35637,-1.23987 -9.25361,0.55979 -4.13537,1.26199 -10.16229,2.70929 -13.39311,3.21623 l -5.87425,0.92173 -1.64038,-6.16369 C 277.9764,297.2262 270.07948,256.58719 273.96716,252.69951 c 3.23272,-3.23272 15.99791,5.63016 56.5577,39.2681 28.46361,23.60608 31.70687,25.15066 35.61397,16.96096 1.03081,-2.16071 2.80343,-3.92857 3.93913,-3.92857 2.91305,0 2.56765,-4.81647 -0.54759,-7.63573 C 368.0935,296.06391 365.51263,295 363.7951,295 c -1.71753,0 -5.43583,-2.11976 -8.26289,-4.71057 l -5.14012,-4.71056 4.90108,-4.21801 c 2.6956,-2.3199 9.21673,-7.2825 14.49142,-11.02802 10.18361,-7.2313 12.35827,-10.6999 12.35827,-19.71155 0,-6.28302 2.14358,-7.15292 8.57143,-3.47843 1.96428,1.12288 4.79014,2.0644 6.2797,2.09223 1.48954,0.0278 10.53015,-4.64209 20.09022,-10.37762 9.56009,-5.73553 25.85236,-14.79873 36.20505,-20.14044 17.8661,-9.21844 18.90797,-9.99559 20.49303,-15.28604 1.88304,-6.28505 1.71927,-6.17826 5.95448,-3.88215 3.15612,1.71109 22.48747,2.91213 26.99522,1.67719 1.85097,-0.50709 2.41638,-2.15873 2.32348,-6.78712 -0.14443,-7.19572 2.91653,-16.58177 5.40762,-16.58177 3.78074,0 10.53691,7.35527 10.53691,11.47126 0,2.24093 0.61456,4.45423 1.36569,4.91846 2.57258,1.58993 11.29281,-3.29032 13.49758,-7.5539 1.78619,-3.45408 4.0443,-4.80783 12.10237,-7.25539 5.44856,-1.65495 10.28882,-3.009 10.75613,-3.009 0.46732,0 0.84966,3.47541 0.84966,7.72314 0,7.60193 -0.109,7.80145 -6.9457,12.71312 -15.65167,11.2446 -17.86199,34.91976 -3.9521,42.33166 3.50348,1.86684 4.11318,1.79447 6.7033,-0.79563 2.84664,-2.84665 2.84643,-2.85567 -0.2202,-9.7883 l -3.06947,-6.93905 3.29564,-6.55104 3.29563,-6.55104 0.8928,6.02003 c 1.15087,7.76008 4.3013,11.10313 13.81943,14.66431 9.67238,3.6189 26.8424,3.97953 31.57708,0.66323 6.30462,-4.41593 2.31423,-8.43971 -9.6051,-9.68554 -12.7403,-1.33162 -15.86544,-2.3853 -17.15801,-5.78503 -2.15529,-5.66882 3.39208,-107.89223 7.1585,-131.912394 2.05733,-13.12047 3.5908,-16.393922 7.42478,-15.849379 4.18052,0.59376 12.7073,13.508826 43.21556,65.456203 27.7834,47.30769 29.62779,50 34.2528,50 3.93022,0 7.8652,-3.41608 7.93402,-6.88776 0.0382,-1.92861 0.59744,-1.73786 2.85714,0.97459 3.5864,4.30497 3.50266,6.2053 -0.72677,16.49305 -2.56257,6.23323 -3.1003,9.12516 -2.05869,11.07143 1.97696,3.69399 3.37357,3.34333 9.79699,-2.45984 8.71703,-7.87532 11.52841,-20.92009 6.57363,-30.50157 -2.67433,-5.17161 -6.70028,-8.02306 -16.05112,-11.36854 -14.02618,-5.01819 -8.58966,-7.46815 28.64637,-12.90946 10.88966,-1.59131 20.62387,-3.57755 21.63157,-4.41387 1.00772,-0.83633 4.8797,-10.0173 8.60443,-20.40217 6.96333,-19.41435 13.03295,-33.402017 15.02946,-34.635926 1.75919,-1.08724 5.13487,2.942029 11.18296,13.348166 5.73714,9.87115 15.89507,29.63417 15.89507,30.92507 0,0.40318 -2.60912,1.15028 -5.79804,1.66021 -6.89828,1.10307 -12.16149,4.91787 -10.99155,7.96669 1.00892,2.62918 7.2529,3.99707 18.24537,3.99707 8.66416,0 37.3957,2.66101 38.28006,3.54536 0.28366,0.28367 -0.88896,2.41571 -2.60581,4.73789 -6.74795,9.12708 0.23251,13.07716 12.39543,7.01428 3.79671,-1.89256 11.72454,-5.28882 17.6174,-7.54724 18.25271,-6.99532 22.95744,-12.92656 45.75294,-57.680556 18.28844,-35.905387 24.18134,-45.78402 27.31151,-45.78402 0.76006,0 2.62106,2.801296 4.13557,6.225103 5.41673,12.245402 9.81715,39.75539 14.18646,88.689063 3.35023,37.52056 4.22587,40.24465 12.44099,38.70348 6.47784,-1.21525 9.23523,1.99402 8.09125,9.41723 -0.4943,3.20741 -0.16487,5.56897 0.86572,6.20591 3.06364,1.89343 8.25984,-0.57846 9.98841,-4.75159 0.93829,-2.26521 3.10895,-4.78875 4.8237,-5.60787 1.71475,-0.81911 7.93916,-5.78489 13.83202,-11.03506 10.37104,-9.23993 10.72884,-9.42632 11.16834,-5.81785 0.5929,4.86785 -2.0858,17.62368 -4.79927,22.85391 -4.56107,8.79149 0.8169,12.43237 12.05597,8.16187 4.0091,-1.52334 7.2892,-2.24555 7.2892,-1.60494 0,0.64063 -4.2253,5.03654 -9.3896,9.7687 -7.9014,7.24014 -9.31663,9.24156 -8.92861,12.62656 0.43857,3.82601 0.84281,4.03556 8.26961,4.28718 l 7.8086,0.26456 19.5462,-20.26456 c 10.7504,-11.1455 19.9931,-19.82944 20.5393,-19.29764 1.0148,0.988 -4.7005,62.35203 -6.008,64.50599 -0.3963,0.65294 -2.1537,0.8275 -3.9052,0.3879 -1.7515,-0.43962 -4.3342,0.0413 -5.7393,1.06875 -2.1104,1.54319 -2.2665,2.40656 -0.8975,4.96459 1.8683,3.49101 11.3868,8.82014 15.7538,8.82014 1.6947,0 3.7131,1.61617 4.9107,3.93195 1.1183,2.16257 3.4117,5.17941 5.0964,6.70408 3.0071,2.72136 3.2061,2.72356 10.8651,0.1202 4.291,-1.45857 8.1035,-2.35036 8.4721,-1.98174 0.3686,0.3686 -0.5954,5.96886 -2.1422,12.44503 l -2.8123,11.77483 6.5597,19.33742 c 5.0347,14.84176 6.3442,20.4864 5.6326,24.27956 -0.5099,2.71817 -0.528,6.19976 -0.04,7.73683 1.1255,3.5461 5.8897,3.61301 27.4776,0.38597 21.4576,-3.20756 21.691,-2.94968 12.9064,14.25464 -3.6941,7.23475 -8.7119,16.29426 -11.1508,20.13225 l -4.4342,6.97815 -4.6203,-4.47815 c -5.6862,-5.51133 -12.3414,-6.21575 -12.3414,-1.30629 0,1.74454 3.2097,8.40584 7.1327,14.80292 9.6276,15.69932 14.4065,28.83845 15.3427,42.18248 1.8199,25.94324 -10.4169,48.33499 -35.2714,64.54193 -6.4469,4.20383 -10.9603,8.5961 -14.9888,14.58651 -8.5731,12.7484 -31.2317,34.76576 -44.7877,43.52029 -10.3508,6.68466 -11.8036,8.12799 -11.4286,11.35463 0.6229,5.35846 5.2805,5.41844 16.4078,0.21131 12.6281,-5.90935 25.2882,-15.12487 36.7284,-26.73505 5.19,-5.26712 9.4363,-8.77355 9.4363,-7.79205 0,0.98149 -2.6986,8.53729 -5.9969,16.79066 -6.3646,15.92631 -6.3543,19.2934 0.062,20.24837 4.2402,0.63107 10.6294,-6.68014 16.9392,-19.38387 2.8293,-5.69643 5.3162,-10.35714 5.5265,-10.35714 0.2102,0 1.4832,3.375 2.8289,7.5 1.3457,4.125 3.0832,8.30357 3.8611,9.28571 2.2881,2.88856 6.5362,2.05563 9.0451,-1.77344 1.2827,-1.95754 2.9751,-3.16173 3.7611,-2.67599 0.786,0.48576 8.1663,-6.08657 16.4008,-14.60515 11.5366,-11.93476 15.2431,-15.00335 16.1547,-13.37442 1.1154,1.99316 -0.3136,27.85033 -1.6109,29.1476 -0.3326,0.33259 -3.6332,-0.39234 -7.3347,-1.61094 -8.0445,-2.64836 -13.9229,-1.63049 -13.9229,2.41084 0,1.96296 3.7318,5.2789 12.2671,10.90016 6.7469,4.44343 14.5511,10.23307 17.3427,12.86587 2.7916,2.6328 6.3669,4.7869 7.9451,4.7869 1.5783,0 8.2859,-2.95244 14.9059,-6.56099 6.62,-3.60854 12.4519,-6.14541 12.9598,-5.63748 0.5079,0.50793 -0.9861,6.51394 -3.32,13.3467 -3.6805,10.77523 -4.7172,12.48663 -7.8149,12.90131 -6.2951,0.84273 -6.3336,2.61006 -0.2754,12.66025 8.2605,13.70361 11.8147,22.35625 12.6915,30.89745 0.6449,6.28172 0.3057,7.80176 -2.2571,10.11417 -1.9256,1.73743 -3.0161,4.44919 -3.0161,7.5 0,4.26438 0.4227,4.77693 3.9286,4.76313 2.1607,-0.009 7.0881,-0.97394 10.9498,-2.14541 3.8617,-1.17147 7.2238,-1.9274 7.4714,-1.67982 0.2476,0.24758 -1.8366,4.10586 -4.6314,8.57399 -4.361,6.97199 -5.6948,8.12384 -9.4071,8.12384 -4.2933,0 -4.3182,0.0454 -3.3268,6.07143 2.2932,13.93813 1.4991,19.90399 -4.0572,30.47747 -2.9141,5.54555 -8.1997,12.92995 -11.7459,16.4098 -6.422,6.30193 -6.4884,6.32702 -16.7431,6.32702 -9.9933,0 -10.2954,0.10344 -10.2954,3.52504 0,2.90151 1.8486,4.54401 10.4513,9.28571 13.4073,7.3899 21.0122,13.82869 24.5699,20.80222 4.3525,8.5317 3.7476,14.72058 -2.0577,21.05087 l -4.8936,5.33616 h -12.0287 c -11.517,0 -12.6233,-0.29523 -26.0058,-6.9398 -16.3593,-8.12253 -32.2119,-22.4917 -38.4434,-34.84592 -5.657,-11.21523 -12.3063,-9.88103 -12.3063,2.4693 v 6.54073 l -10.0211,2.58149 c -10.2105,2.6303 -14.318,5.26527 -34.8402,22.35028 -11.0374,9.18873 -19.0204,12.84392 -28.0512,12.84392 -9.0083,0 -14.71884,-2.85292 -17.0694,-8.52766 -5.17899,-12.50317 6.1971,-31.19187 27.1127,-44.54069 16.8327,-10.74308 17.3594,-11.19738 16.8802,-14.56055 -0.6297,-4.41986 -8.1215,-4.76247 -18.8836,-0.86359 -16.6337,6.026 -30.53169,17.75292 -39.09617,32.98876 -4.74387,8.43913 -7.97686,9.9503 -23.17412,10.83203 -11.01668,0.63918 -12.5171,0.40737 -16.17811,-2.4995 -8.39186,-6.66317 -7.59994,-15.93679 2.27581,-26.65073 10.41313,-11.2969 21.98873,-16.53696 42.16285,-19.08629 18.55754,-2.34504 21.73944,-3.59797 21.73944,-8.56015 0,-2.27579 -1.0177,-4.67349 -2.2846,-5.38249 -2.0516,-1.14814 -1.9725,-1.89054 0.7761,-7.27821 4.264,-8.35802 11.7489,-16.26665 24.7928,-26.1961 12.1171,-9.22392 13.6752,-12.91408 5.7775,-13.6831 -2.4675,-0.24028 -6.9002,0.57174 -9.8505,1.80445 -2.9504,1.23273 -5.5897,2.01583 -5.8653,1.74023 -0.3937,-0.39367 14.4991,-32.7151 22.5609,-48.96336 0.8182,-1.6491 7.2513,-8.3137 14.2957,-14.81021 15.5254,-14.31791 18.0385,-17.71829 15.4233,-20.86931 -1.7836,-2.14918 -3.4274,-2.13109 -8.8402,0.0972 -2.0541,0.84563 -2.5,0.26481 -2.5,-3.25652 0,-4.43105 -2.6342,-6.56404 -6.3469,-5.13932 -1.1337,0.43502 -5.7303,5.71842 -10.2147,11.74087 -24.2463,32.56213 -60.45417,58.05401 -102.71061,72.31274 -12.94715,4.3688 -17.25419,6.43583 -17.64056,8.46599 -1.16027,6.09657 6.5524,6.61922 25.76358,1.7459 16.26332,-4.12553 30.89589,-10.06995 46.06055,-18.7119 6.20584,-3.53655 11.49884,-6.21456 11.76224,-5.95115 1.2256,1.22555 -25.92104,26.29473 -37.38963,34.52839 -16.07504,11.54074 -41.99373,24.50497 -64.0856,32.05487 -9.31947,3.18493 -17.59858,5.79079 -18.39801,5.79079 -0.79942,0 1.28793,-2.4328 4.63855,-5.40623 4.91609,-4.36265 5.89813,-6.01722 5.08746,-8.57143 -0.55253,-1.74086 -1.83663,-3.1652 -2.85357,-3.1652 -1.01694,0 -10.13433,3.92964 -20.26087,8.73253 -37.60652,17.83628 -77.92034,27.62018 -128.73364,31.24284 l -20.32176,1.4488 -6.10682,-6.06923 c -6.03628,-5.99911 -19.79457,-14.19467 -28.67161,-17.07911 -2.51794,-0.81817 -12.29236,-1.88993 -21.72093,-2.3817 L 654.28571,728.57143 654.69263,725 c 0.2238,-1.96429 1.25074,-16.75 2.28208,-32.85714 1.03135,-16.10715 2.66073,-31.32265 3.62085,-33.81222 2.66161,-6.90153 1.53765,-13.94468 -2.31273,-14.49244 -1.95507,-0.27814 -3.82744,0.64407 -4.94682,2.43646 -1.64518,2.63437 -2.19321,1.91191 -6.3318,-8.34705 -7.14035,-17.6999 -19.54338,-34.35618 -25.58321,-34.35618 -1.94954,0 -6.421,3.7407 -6.421,5.37163 0,0.48501 3.4787,8.3141 7.73046,17.39797 4.25175,9.08386 9.03775,20.53221 10.63555,25.4408 6.57022,20.1842 7.55856,49.09618 2.36602,69.2124 -2.3586,9.13731 -2.76612,9.71303 -9.1006,12.85714 -5.24342,2.60254 -6.63143,4.03902 -6.63143,6.86292 0,3.39624 0.52556,3.6243 10.71429,4.6494 5.89285,0.59287 19.71428,1.28505 30.71428,1.53818 16.49414,0.37954 21.41357,1.01257 28.06403,3.61132 15.64239,6.1124 27.18573,17.56735 29.0958,28.87298 1.43619,8.50072 -3.91063,15.28844 -13.85741,17.59183 -3.24825,0.7522 -5.341,-0.42794 -13.57143,-7.65324 -15.86827,-13.93037 -33.14752,-21.46762 -49.2148,-21.46762 -6.33102,0 -11.23047,2.49295 -11.23047,5.71429 0,2.52546 4.48584,5.55 11.7666,7.93353 26.17397,8.56865 44.3373,24.77994 44.3373,39.57234 0,4.75624 -0.8364,6.62306 -4.38989,9.7981 -8.93509,7.9835 -25.74641,6.36827 -45.2621,-4.34877 -5.51284,-3.02737 -13.73364,-7.558 -18.26846,-10.06804 -4.53481,-2.51005 -11.66,-7.97862 -15.83375,-12.15238 -8.1777,-8.1777 -20.77889,-15.46002 -25.51833,-14.74724 -1.61289,0.24257 -3.89796,1.90219 -5.07793,3.68806 -2.06436,3.12434 -1.78073,3.58317 7.50587,12.14286 20.82477,19.1947 23.76619,37.68332 6.74713,42.41008 -6.44222,1.78922 -6.29214,1.79677 -15.97182,-0.80438 z M 516.0547,728.11844 c 0.97294,-0.61794 2.41217,-4.51497 3.19827,-8.66004 0.7861,-4.14509 1.80074,-8.13759 2.25479,-8.87223 0.45403,-0.73464 3.58101,0.92222 6.94887,3.68192 14.55517,11.92687 18.04256,-0.2196 3.60994,-12.57339 -7.31434,-6.26081 -12.76724,-6.83819 -17.72826,-1.87717 -6.06048,6.06048 -8.66457,22.79498 -4.23627,27.22328 2.52522,2.52522 3.41875,2.68698 5.95266,1.07763 z M 1159.919,706.1107 c 3.2849,-4.68989 2.762,-10.70246 -1.2826,-14.74706 -1.9286,-1.92857 -4.1368,-3.5065 -4.907,-3.5065 -2.6749,0 -8.2993,2.63115 -10.6506,4.9824 -4.9657,4.96567 -1.164,11.05497 4.8818,7.81936 2.4217,-1.29604 2.7537,-0.97969 2.7537,2.62417 0,2.25383 0.4286,4.52646 0.9524,5.05026 1.9609,1.96098 6.1035,0.84527 8.2523,-2.22263 z m -697.83229,-1.75734 c 1.35993,-1.63862 1.09618,-4.55116 -1.25364,-13.84342 -2.9016,-11.47427 -3.73803,-18.36708 -2.22883,-18.36708 0.41092,0 5.8695,2.9763 12.13019,6.61401 9.42701,5.47747 11.75347,6.30662 13.5386,4.82509 5.71,-4.73889 -1.68032,-14.69832 -15.84872,-21.35825 -8.96188,-4.21258 -14.18364,-3.82702 -19.44657,1.43592 -4.29343,4.29343 -4.36003,4.57648 -3.61937,15.38241 1.35692,19.79715 10.20003,33.17746 16.72834,25.31132 z m 162.62758,-18.2105 c 4.18194,-4.18195 0.15144,-23.87082 -5.50645,-26.89882 -1.42528,-0.7628 -4.8171,-1.3869 -7.53737,-1.3869 -3.89424,0 -5.91047,1.09856 -9.4821,5.16642 -8.72754,9.94013 -10.63244,17.88735 -4.82194,20.11705 1.73698,0.66655 4.16503,-0.98208 8.50296,-5.77348 3.33945,-3.68854 6.37341,-6.21223 6.74212,-5.60822 0.36872,0.60403 1.44493,3.99109 2.39158,7.5268 2.20915,8.25118 5.78924,10.7791 9.7112,6.85715 z m 232.5173,-3.42357 c 4.7867,-2.27143 7.32827,-6.3928 5.63345,-9.13508 -1.29808,-2.10034 -9.1163,-1.76425 -17.60575,0.75685 -6.12788,1.81978 -7.40215,2.7625 -7.40215,5.47618 0,1.8029 0.42857,3.70657 0.95239,4.23037 1.8016,1.8016 13.6224,0.94926 18.42206,-1.32832 z m -110.85998,-9.79352 c 3.89666,-4.69517 1.16093,-6.89956 -14.22945,-11.46571 -8.24962,-2.44757 -20.94117,-7.19713 -28.20347,-10.55457 C 689.77944,644.35949 685,644.09243 685,649.84724 c 0,4.19779 4.41289,8.13092 15,13.36925 19.88393,9.83825 42.35909,14.5441 46.37161,9.70928 z m 422.09779,-7.31353 c 3.1083,-3.1083 3.0294,-15.94897 -0.1194,-19.42833 -3.2877,-3.63284 -8.8761,-3.26038 -15.1612,1.01045 -8.6359,5.86823 -6.0116,13.16351 3.4504,9.59198 4.0296,-1.521 4.0751,-1.47845 4.0751,3.81395 0,7.62144 3.1256,9.64145 7.7551,5.01195 z m -47.6194,-23.7229 c 3.7556,-7.01754 -1.4969,-32.36651 -7.3564,-35.50244 -4.6477,-2.48739 -10.9543,-1.53601 -15.5714,2.34897 -5.1991,4.37479 -12.2102,14.21119 -15.1581,21.2664 -1.9293,4.61759 -1.8697,5.17784 0.8393,7.88687 3.7827,3.78263 5.2529,2.85447 14.1946,-8.96057 6.5646,-8.67406 10.0075,-11.59953 10.0874,-8.57143 0.147,5.56323 3.2249,21.25586 4.4614,22.74569 2.3887,2.87827 6.6379,2.27187 8.5032,-1.21349 z M 477.95653,631.30883 c 2.82891,-3.40864 -0.0359,-6.76389 -7.30419,-8.55462 -7.37611,-1.8173 -7.26095,-1.52131 -11.35435,-29.18278 -3.54778,-23.9744 -3.87502,-44.28572 -0.7135,-44.28572 2.51107,0 19.64677,10.8822 39.98694,25.39412 18.4565,13.16798 17.85714,12.57678 17.85714,17.61424 0,3.8746 0.40853,4.27727 3.92857,3.87224 3.12819,-0.35992 4.2902,-1.55971 5.70356,-5.88897 2.15871,-6.61235 0.36491,-16.5327 -3.4785,-19.23725 -1.42021,-0.99938 -10.66386,-7.53775 -20.54144,-14.5297 -20.79619,-14.7208 -34.16243,-22.34066 -41.54473,-23.6839 -8.05083,-1.4649 -15.20156,2.5732 -18.74604,10.58608 -2.56808,5.80557 -2.77913,8.47644 -2.04006,25.81717 0.45338,10.63793 1.8324,24.96656 3.06447,31.8414 1.54947,8.64592 1.8513,14.23022 0.979,18.11257 -1.8408,8.19279 0.55096,12.20358 7.38987,12.3922 2.93804,0.0811 5.75774,0.56319 6.26599,1.07143 0.50824,0.50825 4.91678,0.92409 9.79677,0.92409 6.35276,0 9.40601,-0.6426 10.7505,-2.2626 z m 185.51494,-2.47449 c 3.70552,-9.74624 -7.52761,-35.08798 -22.8043,-51.4461 C 623.0426,558.51601 602.12549,548.2875 600.99819,557.99 c -0.36082,3.10544 1.3713,5.16997 10.71428,12.77054 20.49929,16.67627 28.94374,28.23493 40.93059,56.02517 1.8024,4.17866 3.10924,5.35715 5.94061,5.35715 2.4805,0 4.02822,-1.04765 4.8878,-3.30852 z m -113.36423,-0.64193 c 0.84469,-0.57725 3.94816,-7.31741 6.8966,-14.97812 2.94845,-7.66072 5.84623,-13.92858 6.43953,-13.92858 0.59329,0 4.08134,6.12818 7.75122,13.61818 3.66987,7.49 7.72192,14.02087 9.00455,14.51307 3.57405,1.37148 6.8954,-1.50765 7.3848,-6.40155 0.55812,-5.58095 -7.52737,-23.41098 -13.91583,-30.68704 C 569.75241,585.86864 568.07171,585 563.3585,585 c -10.23294,0 -16.1196,9.34511 -21.80843,34.6211 -0.63846,2.83673 -0.0908,4.69536 1.9996,6.78571 3.11136,3.11136 4.18843,3.40465 6.55757,1.7856 z m 346.70963,-5.18348 c 6.48709,-4.94794 14.60969,-16.92372 16.93442,-24.9677 1.64198,-5.68157 1.55944,-6.42377 -0.91555,-8.23353 -3.68014,-2.69099 -4.93225,-2.04803 -10.3301,5.30446 -8.96575,12.2124 -16.4356,20.0283 -18.72093,19.58818 -3.27642,-0.63098 -5.88208,-6.60235 -5.90651,-13.53591 -0.0281,-7.97774 -2.19651,-13.30729 -5.41427,-13.30729 -4.91454,0 -6.03536,3.00253 -6.03536,16.16807 v 12.73949 l 5.72677,5.72679 c 5.41317,5.41317 6.10599,5.69032 12.65165,5.06137 4.58244,-0.44032 8.64491,-1.97735 12.00988,-4.54393 z m 67.83894,-1.22322 c 6.38928,-6.82062 7.84039,-18.83821 3.88359,-32.16222 -3.62379,-12.20259 -13.67529,-17.24755 -18.79523,-9.43355 -2.41224,3.68155 -2.38227,3.82697 1.41209,6.8525 6.17948,4.92735 9.07257,19.92512 4.56518,23.66592 -3.01208,2.4998 -7.74564,-0.87882 -15.01203,-10.71496 -5.90317,-7.99081 -8.08267,-9.19157 -11.13798,-6.13626 -4.76193,4.76193 2.01721,19.04749 12.71706,26.79842 7.73152,5.60068 17.70737,6.10474 22.36732,1.13015 z M 785.73883,604.49157 c 8.21006,-3.82318 20.27604,-15.203 21.56501,-20.33864 0.92895,-3.70122 -1.41741,-7.72436 -4.50497,-7.72436 -1.01821,0 -5.27878,2.94654 -9.46794,6.54789 C 784.79113,590.31797 776.56253,595 772.19977,595 c -5.88246,0 -2.2994,-13.1461 7.18123,-26.34764 5.0044,-6.9685 5.06367,-11.27932 0.16467,-11.97683 -7.18113,-1.02243 -16.4323,9.86446 -21.71977,25.56007 -2.59207,7.69443 -2.8279,9.9815 -1.48977,14.44776 3.36568,11.23367 15.26237,14.39297 29.4027,7.80821 z m 223.65677,-0.81026 c 4.5299,-4.52984 5.1577,-8.65995 2.6752,-17.59875 -1.0571,-3.80632 -2.4714,-5.59366 -4.9108,-6.20592 -5.6124,-1.40863 -6.7164,0.31637 -5.6525,8.83203 1.0161,8.13267 0.2126,9.14816 -4.44874,5.62247 -4.45257,-3.36775 -9.20162,-2.79483 -9.20162,1.1101 0,3.78396 2.06443,6.70875 7.10359,10.06405 5.19127,3.45658 9.72747,2.8834 14.43487,-1.82398 z M 720.54289,591.03454 c 2.2322,-4.17088 -0.6133,-6.9673 -11.20986,-11.01645 -8.31723,-3.1782 -17.26409,-8.24065 -37.55226,-21.24836 -3.16683,-2.0304 -7.30813,0.27474 -7.92831,4.41308 -0.91217,6.0867 21.90181,22.01755 39.67857,27.70725 10.28654,3.29235 15.30437,3.33497 17.01186,0.14448 z m 207.12764,-21.12177 c 3.20608,-4.07588 6.46703,-16.6312 5.69053,-21.90973 -0.27716,-1.88404 -1.66919,-4.13404 -3.09342,-5 -2.09591,-1.27435 -3.09431,-0.95968 -5.2379,1.65083 -3.10157,3.77716 -8.01747,23.22674 -6.72311,26.59977 1.33416,3.47676 6.11258,2.7925 9.3639,-1.34087 z m 106.01837,-23.29206 c 2.704,-2.18957 3.2712,-3.98482 3.1795,-10.0633 -0.1206,-7.99295 -3.1212,-12.98598 -7.8041,-12.98598 -2.7542,0 -3.2698,1.82003 -2.7317,9.64286 0.3058,4.44517 -1.6162,6.2227 -3.4755,3.21428 -1.17,-1.8932 -7.4378,-1.83417 -8.6216,0.0812 -1.7307,2.8004 0.7737,8.40332 4.7112,10.53977 5.3597,2.90812 10.8173,2.74936 14.7422,-0.42883 z M 646.13456,536.40057 c 0.37523,-3.21364 -0.77316,-4.16143 -10.71429,-8.84278 -13.49207,-6.3535 -20.61941,-12.09402 -25.62891,-20.64208 -5.41207,-9.235 -6.56139,-17.14735 -3.9481,-27.18041 4.20761,-16.15411 14.32007,-27.60477 35.87913,-40.62706 11.83501,-7.14868 13.62187,-9.42994 9.84282,-12.56625 -5.74798,-4.77042 -35.47475,11.59801 -46.62044,25.6706 -2.33787,2.9518 -6.31974,9.76867 -8.84861,15.1486 -3.96519,8.43558 -4.60209,11.3544 -4.62815,21.21024 -0.0254,9.60698 0.62349,12.84538 4.07112,20.31767 8.08507,17.52329 29.3944,32.33769 45.17516,31.40607 4.18491,-0.24706 5.06851,-0.88194 5.42027,-3.8946 z M 535.2411,501.14543 c 9.56454,-4.4758 21.18747,-13.66603 21.18747,-16.7529 0,-0.93697 -0.8706,-2.8942 -1.93466,-4.34939 -1.84444,-2.52241 -2.33431,-2.40304 -10.50404,2.55982 -15.34144,9.31943 -20.07666,10.90285 -32.70718,10.9371 -12.1772,0.033 -11.0875,0.44995 -24.50413,-9.3759 -2.59865,-1.90316 -3.63433,-2.0166 -5.35715,-0.5868 -3.28864,2.72934 -2.54377,8.06371 1.80573,12.93164 9.64513,10.79479 34.1803,12.9818 52.01396,4.63643 z m -70.07737,-10.78829 c 2.46981,-4.91071 6.4445,-11.40781 8.83264,-14.43798 l 4.34206,-5.50943 2.05994,5.16466 c 2.07329,5.19811 5.9007,7.3455 11.27436,6.32551 4.00557,-0.7603 3.9891,-9.68009 -0.065,-35.18937 -6.38954,-40.20446 -6.44502,-46.00216 -0.44003,-45.98986 1.7149,0.004 14.24657,4.50352 27.84816,10 13.60157,5.49649 26.51624,9.99362 28.69925,9.99362 2.87108,0 4.4296,-1.01062 5.63358,-3.65308 2.42882,-5.3307 0.10485,-8.5013 -9.95248,-13.57822 -5.14708,-2.59825 -8.3339,-5.0497 -7.8841,-6.06485 4.39826,-9.92615 8.00222,-19.75671 8.74242,-23.84671 1.03751,-5.73289 -1.82337,-10.96452 -5.27217,-9.64107 -1.17982,0.45273 -5.61206,6.98558 -9.84945,14.51744 -4.40325,7.8267 -8.6225,13.6902 -9.8472,13.68473 -1.17857,-0.005 -6.86515,-1.61226 -12.63684,-3.57106 C 500.87719,386.60266 493.41867,385 490.07441,385 c -7.83031,0 -15.20762,4.8404 -17.49378,11.47804 -2.37709,6.90163 -2.24762,26.59492 0.28534,43.4002 l 2.13484,14.16396 -8.58812,8.94366 c -8.6244,8.9814 -15.65843,21.29878 -15.68445,27.4652 -0.0221,5.23275 2.60529,8.83465 6.44432,8.83465 2.8627,0 4.3189,-1.62702 7.99117,-8.92857 z m -127.91374,-4.5611 c 0.53321,-2.12445 2.08077,-3.66138 3.95578,-3.92857 2.83724,-0.40431 3.06732,-1.22693 2.91973,-10.4389 -0.0881,-5.5 -0.75476,-16.29074 -1.48144,-23.97944 -0.72667,-7.6887 -0.88483,-14.68556 -0.35145,-15.54859 0.61955,-1.00244 7.46633,2.36939 18.95866,9.33659 9.89389,5.99816 19.20613,10.90573 20.69389,10.90573 3.7145,0 5.3561,-2.48573 6.47365,-9.80252 1.18706,-7.77181 -0.62922,-10.19748 -7.63561,-10.19748 -3.65946,0 -8.79137,-1.99586 -16.61079,-6.4601 -17.83205,-10.18067 -25.78907,-11.33775 -32.0146,-4.65543 -4.95774,5.32151 -5.94517,12.25627 -4.26681,29.966 0.84177,8.88224 1.10319,20.17147 0.58093,25.08717 -0.66369,6.24681 -0.41642,9.58004 0.82131,11.07143 2.75973,3.32527 6.96156,2.60924 7.95675,-1.35589 z m 317.38768,-2.14331 c 59.23567,-25.69192 145.41903,-42.91352 226.7909,-45.3185 76.08943,-2.24887 144.55013,7.59868 196.14833,28.21446 23.076,9.2199 27.4231,9.07742 27.4231,-0.8987 0,-5.20909 -2.2672,-7.53438 -12.1429,-12.4539 -47.7209,-23.77203 -138.94727,-37.25642 -221.55993,-32.74932 -61.99928,3.38252 -115.03698,11.80364 -165.58288,26.29066 -30.8337,8.83727 -64.99379,22.74616 -71.26405,29.01641 -2.9686,2.9686 -2.94445,7.60295 0.0569,10.91939 3.32126,3.66994 5.43681,3.35251 20.13054,-3.0205 z m -86.63648,-11.65392 c 5.59748,-5.59748 8.91477,-15.52192 9.50197,-28.42738 0.48031,-10.55643 0.1196,-12.98273 -2.76105,-18.57143 -2.5881,-5.02116 -4.09544,-6.42857 -6.88497,-6.42857 -3.09351,0 -3.52467,0.57348 -3.22201,4.28571 0.19217,2.35715 0.74906,9.13212 1.23751,15.05549 0.78412,9.50864 0.45045,11.86373 -2.84941,20.11208 C 558.40511,469.5682 558.1234,475 562.14286,475 c 1.57143,0 4.20768,-1.35054 5.85833,-3.00119 z m -138.76573,-16.9049 c 0.81335,-1.51977 1.47883,-4.13345 1.47883,-5.8082 0,-1.67474 0.70035,-4.35361 1.55635,-5.95305 1.52915,-2.85725 1.62635,-2.84102 5.5601,0.92777 8.47815,8.12257 15.22615,0.95353 8.00896,-8.50869 -4.47459,-5.86648 -11.65569,-8.59993 -17.1276,-6.51951 -7.00581,2.66361 -12.56409,22.05864 -7.7121,26.91063 2.57409,2.57408 6.56877,2.06528 8.23546,-1.04895 z M 261.85714,441.85714 c 0.94286,-0.94285 1.71429,-4.8 1.71429,-8.57143 0,-7.53158 0.32054,-7.746 7.32554,-4.89985 6.1713,2.50741 8.38874,1.63947 8.38874,-3.2835 0,-4.29933 -2.48765,-7.0567 -9.63053,-10.67469 -5.59663,-2.83478 -10.32184,-1.89744 -14.87685,2.95114 -8.09417,8.61586 -1.13238,32.68952 7.07881,24.47833 z M 613.28571,416.14286 C 614.22857,415.2 615,413.31614 615,411.9565 c 0,-1.47599 1.29514,-2.65601 3.21429,-2.92857 2.93862,-0.41736 3.20582,-1.19157 3.11561,-9.02793 -0.0543,-4.71429 -0.63799,-15.23627 -1.29717,-23.3822 l -1.1985,-14.81077 3.44003,1.06721 c 1.89201,0.58696 6.60851,2.66016 10.4811,4.60709 11.17628,5.61886 17.13403,7.3796 19.84205,5.86411 2.69899,-1.51043 3.15786,-7.12203 0.92376,-11.2965 -1.0194,-1.90475 -1.0194,-2.76323 0,-2.76323 0.81336,0 1.47883,-1.56382 1.47883,-3.47515 0,-4.36437 -3.86127,-5.74222 -10.75659,-3.83833 -4.12248,1.13827 -6.38387,0.88633 -11.4197,-1.27227 -9.94064,-4.26106 -15.44245,-4.83742 -20.61985,-2.16007 -7.39346,3.8233 -9.22035,10.19264 -7.79433,27.1744 0.65978,7.85714 1.03376,19.64942 0.83106,26.20508 -0.36308,11.74147 0.86088,15.93777 4.64861,15.93777 0.92523,0 2.45366,-0.77143 3.39651,-1.71428 z M 870.34916,396.1388 c 2.5871,-2.1471 2.19915,-6.8849 -0.99235,-12.11906 -3.47127,-5.693 -7.47304,-7.88853 -13.34145,-7.31961 -6.46305,0.62654 -9.21329,6.40148 -6.0041,12.60734 4.368,8.44679 14.35101,11.8 20.3379,6.83133 z m 59.86351,-0.72896 c 6.98833,-4.50214 7.82913,-16.22801 1.3745,-19.16894 -4.42487,-2.0161 -11.41166,1.5375 -15.2512,7.75703 -6.84923,11.09481 2.47123,18.75977 13.8767,11.41191 z M 761.172,391.43537 c 12.11264,-3.15494 19.1586,-7.25168 28.44686,-16.53994 18.72678,-18.72679 23.59678,-46.73424 12.30377,-70.75913 C 796.72967,293.0888 784.68839,281.37064 772.3122,275.3205 761.74413,270.15427 760.96983,270 745.60659,270 c -15.74239,0 -15.8837,0.0306 -28.08775,6.07791 -14.41467,7.14276 -22.87111,15.62622 -29.9891,30.0849 -4.45964,9.05882 -4.6726,10.24289 -4.6726,25.98005 0,15.79417 0.2002,16.89531 4.75322,26.1438 7.7984,15.84081 21.8373,27.65887 39.5325,33.2788 7.86711,2.49857 24.17644,2.43623 34.02914,-0.13009 z m 266.0279,-0.0811 c 23.9447,-6.23518 40.9947,-25.1969 45.2116,-50.28105 2.0862,-12.40941 0.4247,-24.7531 -4.8964,-36.37578 -5.1751,-11.30395 -18.0259,-24.42925 -29.4012,-30.02932 -9.0454,-4.45298 -10.241,-4.66814 -25.941,-4.66814 -15.45364,0 -17.0256,0.2703 -25.74433,4.42667 -11.93438,5.68934 -24.32234,18.10956 -30.42348,30.50273 -4.34689,8.8298 -4.57652,10.12204 -4.57652,25.75484 0,15.56216 0.24967,16.98569 4.58373,26.13552 7.98396,16.85524 23.41923,29.48537 42.22277,34.5494 9.94483,2.67825 18.63963,2.6738 28.96483,-0.0149 z m -661.58766,-1.45633 c 1.2347,-1.23469 2.2449,-3.80612 2.2449,-5.71429 0,-3.87257 0.45567,-4.09058 4.27615,-2.04594 3.75977,2.01217 7.15242,0.28647 7.15242,-3.63813 0,-6.9763 -12.73344,-10.5898 -17.7568,-5.03906 -1.36692,1.51046 -2.85004,5.46545 -3.29581,8.78887 -0.6481,4.83193 -0.28291,6.42839 1.82269,7.96803 3.23051,2.36222 2.85305,2.38392 5.55645,-0.31948 z m 166.80917,-26.34199 c 2.11749,-0.99006 4.24176,-2.82108 4.7206,-4.06893 1.57565,-4.10604 -3.43582,-5.91561 -16.3829,-5.91561 -8.9818,0 -13.14864,-0.61806 -15.56168,-2.30822 l -3.29544,-2.30822 3.33471,-1.65912 c 3.28486,-1.63431 3.34814,-2.09748 4.23157,-30.97304 0.90539,-29.59357 1.91197,-39.95349 4.32904,-44.55527 1.09806,-2.09056 1.85829,-2.2384 4.47696,-0.8706 3.50537,1.83093 21.95223,16.95237 37.69867,30.90271 6.38555,5.65719 11.77906,9.26056 14.28572,9.5442 3.598,0.40712 4.01128,0.98882 3.87897,5.45983 -0.20997,7.0947 -7.74077,16.89197 -20.18122,26.25491 -10.55807,7.94623 -12.00082,10.25052 -8.32707,13.29946 4.80809,3.99036 25.03862,-9.85903 34.52792,-23.63708 5.22585,-7.5877 5.55703,-8.69672 5.55703,-18.60906 0,-5.79727 0.48214,-10.5405 1.07142,-10.5405 0.58929,0 1.07143,-1.59063 1.07143,-3.53474 0,-4.18892 -6.04431,-7.89383 -12.87827,-7.89383 -3.5704,0 -8.16767,-3.10775 -23.28523,-15.74077 C 530.43401,258.63643 524.13086,255 514.59659,255 c -5.64596,0 -7.37093,0.72671 -11.48119,4.83697 -3.01101,3.01103 -5.47144,7.3567 -6.5177,11.51176 -1.87674,7.45321 -4.3727,36.3395 -4.42243,51.1819 -0.0267,7.97896 -0.67944,10.65121 -3.72608,15.25498 -4.35398,6.5793 -6.0741,16.19442 -3.46053,19.34358 2.03688,2.4543 7.1542,2.92298 7.1542,0.65525 0,-0.8257 2.08928,0.0566 4.64285,1.96056 2.55358,1.90401 6.57143,4.17516 8.92858,5.04699 5.27952,1.95272 21.49198,1.20241 26.70712,-1.23602 z m -113.84674,0.0102 c 0.48737,-0.7886 2.39402,-1.05538 4.23696,-0.59282 7.00907,1.75916 12.82728,-5.87491 6.974,-9.15057 -2.03822,-1.14064 -2.25322,-3.35694 -1.58872,-16.37684 0.42268,-8.28172 1.22153,-15.79069 1.77522,-16.68659 1.21298,-1.96266 4.96276,0.3048 16.88776,10.21187 8.49692,7.05912 13.57242,8.52545 16.65464,4.8116 2.78028,-3.35003 0.49766,-7.26814 -9.66506,-16.59003 -14.91188,-13.67812 -24.33966,-17.20377 -31.18227,-11.66104 -4.98561,4.03849 -6.3627,8.26946 -8.41781,25.86283 -1.07513,9.20401 -2.61376,18.46779 -3.41916,20.58616 -1.52026,3.99858 -0.72303,8.1143 1.92271,9.92594 2.17507,1.48936 4.78516,1.3367 5.82173,-0.34051 z m 491.42204,-43.3356 c 13.42613,-6.37605 22.95423,-15.71616 29.40386,-28.82376 4.71116,-9.57449 4.8842,-10.51406 4.85859,-26.38173 -0.0244,-15.12041 -0.35355,-17.12436 -4.06195,-24.73059 -5.89531,-12.09178 -17.82097,-24.2973 -29.2262,-29.91208 -9.11728,-4.48842 -10.14468,-4.66814 -26.6853,-4.66814 -16.50502,0 -17.58377,0.18748 -26.5901,4.62128 -12.76932,6.28633 -23.27471,17.03602 -29.68831,30.37872 -4.87026,10.132 -5.1493,11.49642 -5.13437,25.10604 0.0151,13.73488 0.26018,14.88624 5.37026,25.22578 11.5792,23.4289 33.0657,36.05588 59.25807,34.82419 9.86783,-0.46403 13.53053,-1.38229 22.49545,-5.63971 z m -279.61887,0.12655 c 0.79309,-0.98214 1.89259,-4.51785 2.44335,-7.85714 0.55075,-3.33929 1.55098,-6.07143 2.22272,-6.07143 0.67175,0 3.5188,1.35553 6.32682,3.0123 4.12378,2.4331 5.51291,2.67414 7.22451,1.25366 3.33979,-2.77179 2.49522,-7.05396 -2.269,-11.50442 -5.69804,-5.32275 -12.95357,-6.75308 -17.88044,-3.52488 -4.40031,2.8832 -7.73151,10.22677 -7.73151,17.04398 0,7.39432 6.02068,12.1592 9.66355,7.64793 z M 405.2634,298.33306 c 3.36873,-3.04866 3.2733,-4.97337 -0.40264,-8.12082 -2.45773,-2.10437 -2.81963,-3.50775 -2.01317,-7.8066 0.54077,-2.88257 1.29468,-5.74497 1.67535,-6.36091 0.38067,-0.61594 4.45039,0.94621 9.0438,3.47146 7.05623,3.87918 8.70146,4.30105 10.60676,2.7198 5.55329,-4.60882 1.0892,-11.81563 -10.60207,-17.11595 -8.94612,-4.05578 -12.38812,-3.73328 -17.77744,1.66567 -3.96243,3.96949 -4.87406,6.25705 -6.28572,15.77265 -0.90813,6.12137 -1.65113,12.40995 -1.65113,13.9746 0,5.64734 11.80599,6.86827 17.40626,1.8001 z M 631.55994,270 c 1.35479,-2.06767 3.70102,-3.57143 5.5723,-3.57143 5.70855,0 6.90896,-3.47638 8.24242,-23.87006 1.23695,-18.91795 2.62635,-26.12994 5.03395,-26.12994 0.65649,0 7.58312,5.47597 15.3925,12.16883 7.80939,6.69286 15.6926,12.56013 17.51826,13.03839 2.63813,0.6911 4.48234,-0.37762 8.98592,-5.20726 5.26997,-5.65153 5.50602,-6.25419 3.37295,-8.6112 -1.26147,-1.39392 -4.41661,-2.93267 -7.01143,-3.41947 -2.77367,-0.52035 -8.18068,-3.91949 -13.1209,-8.24852 -17.73731,-15.5429 -27.25147,-18.8471 -35.52637,-12.33805 -5.80281,4.5645 -7.69067,10.54622 -9.48883,30.06574 -1.27272,13.81594 -2.39987,19.11784 -5.29581,24.91074 -3.1525,6.30609 -3.43691,7.89043 -1.98756,11.07143 2.13462,4.68497 5.30002,4.73859 8.3126,0.1408 z M 468.958,256.32874 c 5.50907,-1.92045 6.84813,-5.213 3.58607,-8.81754 -2.7483,-3.03683 -2.68031,-9.2452 0.1332,-12.16431 1.38247,-1.43436 3.09494,-0.93099 8.50504,2.5 8.38158,5.31542 12.0294,5.51228 13.23366,0.71412 1.2645,-5.03812 -2.01338,-9.3309 -10.75991,-14.09135 -13.92993,-7.58162 -22.19822,-2.22956 -26.51229,17.16138 l -2.46553,11.0821 3.17629,2.572 c 3.68818,2.98652 5.1389,3.12287 11.10347,1.0436 z m 272.87981,-8.06477 4.25779,-5.30747 3.9276,4.66769 c 7.37933,8.76982 14.11469,2.52658 8.50729,-7.88572 -2.9128,-5.40876 -10.7738,-9.62031 -15.35313,-8.22547 -7.09109,2.1599 -14.73022,12.80851 -13.29393,18.53114 1.3682,5.45137 6.80218,4.64217 11.95438,-1.78017 z m 277.18019,-0.8174 c 0.3798,-4.60147 -0.319,-6.17613 -4.6726,-10.52977 -4.4026,-4.4026 -5.7553,-4.99196 -9.6636,-4.2103 -7.94334,1.58867 -14.87791,9.90029 -13.34749,15.99799 1.17055,4.66381 4.74825,4.33421 10.18839,-0.93862 l 4.5159,-4.37698 3.0618,5.18935 c 2.3027,3.9027 3.8564,5.07649 6.2664,4.73413 2.5778,-0.36617 3.292,-1.51363 3.6512,-5.8658 z m -56.07309,-21.66576 c 2.09272,-3.19388 2.09959,-4.18225 0.0774,-11.13825 -2.98421,-10.26532 -12.21915,-24.20139 -22.85113,-34.48369 -27.48105,-26.57724 -72.61064,-29.12564 -111.59978,-6.30185 -12.3048,7.20308 -34.54936,29.15052 -39.08939,38.56727 C 785.5488,220.58246 786.94146,225 793.44659,225 c 3.25321,0 5.9938,-2.16027 13.7865,-10.86726 24.15574,-26.98978 52.51864,-40.4301 81.69674,-38.7136 23.16894,1.363 42.64414,14.91553 56.86624,39.57245 8.59119,14.89457 12.74612,17.50865 17.14884,10.78922 z m -221.03744,-34.5702 c 2.90167,-0.77693 3.22034,-1.50999 2.44743,-5.62998 -0.53769,-2.86611 -0.16799,-5.89067 0.93616,-7.65868 2.26078,-3.62008 2.70493,-3.6216 6.56811,-0.0225 2.58239,2.40587 2.82527,3.3589 1.42674,5.59829 -2.01022,3.21889 0.51222,7.21655 4.5535,7.21655 3.92275,0 10.01773,-5.58229 10.01773,-9.17506 0,-4.88826 -8.05861,-15.04218 -13.8629,-17.46737 -6.41891,-2.68199 -11.15811,-1.54474 -16.24195,3.89753 -5.14122,5.50369 -10.19605,16.01278 -9.08933,18.89687 0.47768,1.2448 2.58107,2.89052 4.6742,3.65715 4.81755,1.76449 4.60925,1.74779 8.57031,0.6872 z"
     id="path52"
     transform="translate(3,186)" />
  <path
     style="fill:#ffffff;stroke-width:1.42857"
     d="m 736.68042,382.04285 c -17.09389,-3.36394 -31.63525,-14.80569 -39.10594,-30.77018 -3.99262,-8.53202 -4.30158,-10.26789 -3.73795,-21.00102 0.51616,-9.8292 1.37574,-13.12849 5.37529,-20.63179 5.47693,-10.27492 13.92106,-18.63596 23.95758,-23.72185 24.89381,-12.61465 54.90056,-2.28082 68.5278,23.59984 3.62481,6.88417 4.01489,9.01298 4.01489,21.91072 0,12.89774 -0.39008,15.02655 -4.01489,21.91072 -7.641,14.51168 -19.5586,23.75127 -36.23948,28.09609 -9.01134,2.34715 -9.80641,2.37287 -18.7773,0.60747 z m 25.86546,-23.29548 c 5.55927,-2.37865 11.72407,-8.7248 13.79181,-14.19751 2.46434,-6.52243 1.84842,-18.27857 -1.2214,-23.31296 -11.0914,-18.18948 -37.4248,-17.32582 -45.97867,1.50796 -8.31944,18.3176 3.30404,37.73627 22.69398,37.91351 3.36452,0.0308 8.18595,-0.8292 10.71428,-1.911 z"
     id="path53"
     transform="translate(3,186)" />
  <path
     style="fill:#ffffff;stroke-width:1.0913"
     d="m 876.53888,314.64589 c -9.72822,-1.27833 -19.82102,-6.65504 -28.13378,-14.98762 -11.95183,-11.98032 -16.73398,-25.42019 -14.40311,-40.47887 5.43102,-35.08741 43.7816,-54.26176 74.78206,-37.3892 11.80772,6.42657 22.30073,21.87024 24.85914,36.58784 3.84256,22.10476 -11.43179,46.82791 -33.41223,54.08126 -7.87554,2.59886 -15.32357,3.28625 -23.69208,2.18659 z m 23.985,-22.82147 c 12.5274,-6.06441 17.91264,-22.93768 11.37656,-35.64553 -2.69825,-5.2461 -7.23398,-9.52782 -12.36241,-11.67008 -4.54642,-1.89915 -15.6151,-2.25214 -19.87183,-0.63374 -4.11469,1.5644 -12.72993,9.87021 -14.4274,13.9092 -2.00331,4.76671 -1.89027,17.11114 0.19696,21.50965 1.9997,4.21405 8.51478,10.7508 13.05972,13.10315 4.88847,2.53016 16.22778,2.23538 22.0284,-0.57265 z"
     id="path54"
     transform="translate(3,186)" />
  <path
     style="fill:#ffffff;stroke-width:1.0913"
     d="m 1001.2666,380.76213 c -20.66358,-5.48918 -36.46044,-22.46739 -39.18214,-42.11232 -2.83366,-20.45305 5.82912,-39.33259 23.34344,-50.87438 13.67068,-9.00886 32.9526,-10.4494 47.0791,-3.51724 17.8075,8.73846 30.0068,27.93509 29.8094,46.90743 -0.3415,32.82099 -30.8621,57.61573 -61.0498,49.59651 z m 22.4464,-21.68892 c 5.7824,-1.72022 12.5252,-7.40689 15.42,-13.00474 2.3365,-4.51831 3.105,-15.75699 1.4254,-20.84621 -0.7479,-2.26604 -3.1086,-6.05578 -5.246,-8.42165 -10.0605,-11.13573 -24.9427,-12.278 -35.77204,-2.74565 -6.621,5.82804 -9.1321,11.38598 -9.16279,20.28042 -0.0301,8.71217 3.76506,16.35637 10.38003,20.90758 7.7802,5.35289 14.2233,6.42797 22.9554,3.83025 z"
     id="path55"
     transform="translate(3,186)" />
  <path
     style="fill:#ffffff;stroke-width:0.0984719"
     d="m 994.66484,706.01462 c -0.43328,-0.42053 -1.59644,-1.54017 -2.58479,-2.48808 l -1.79702,-1.72349 2.33815,-2.01552 c 7.79122,-6.71615 10.72022,-9.38326 12.79402,-11.64986 0.9274,-1.01371 1.0713,-1.00206 1.0533,0.0853 -0.014,0.82826 -0.4292,2.66782 -0.8625,3.81792 -0.5495,1.45867 -2.0629,4.15099 -3.6223,6.44422 -0.7461,1.09727 -6.36599,8.28634 -6.48185,8.29177 -0.0271,10e-4 -0.40374,-0.34176 -0.83701,-0.76229 z"
     id="path56"
     transform="translate(3,186)" />
  <path
     style="fill:#ffffff;stroke-width:0.772707"
     d="m 219.4488,804.24925 c -5.18234,-1.15987 -11.72886,-3.83232 -15.74264,-6.42655 -2.54675,-1.64604 -10.40601,-8.55214 -17.46505,-15.34689 -13.88294,-13.36317 -20.60336,-18.46422 -27.83616,-21.12867 -4.44829,-1.63869 -6.04587,-1.72637 -39.40806,-2.16288 -31.192327,-0.40811 -35.108872,-0.59883 -38.04599,-1.85264 -4.062134,-1.73407 -7.69463,-5.76492 -8.351742,-9.26763 -0.687793,-3.66625 2.64776,-10.89009 7.001289,-15.16276 l 3.369697,-3.30711 3.493748,0.9782 c 4.471502,1.25194 7.25511,0.55653 8.250338,-2.06111 1.008026,-2.65131 0.257708,-4.70451 -4.335482,-11.86379 -3.866307,-6.02631 -7.292335,-12.80381 -7.305191,-14.45139 -0.0052,-0.67003 0.879621,-0.49189 2.878659,0.57953 3.977175,2.13164 7.543206,2.00565 9.898582,-0.34973 4.181582,-4.18158 2.218518,-6.81687 -19.512681,-26.19455 -13.130415,-11.70838 -25.586903,-24.76575 -27.381902,-28.70277 -1.381206,-3.02944 -1.378578,-3.11645 0.132333,-4.38094 2.865338,-2.39801 12.67477,-3.80369 39.386409,-5.64402 9.137261,-0.62951 17.830213,-1.50582 19.317673,-1.94734 3.21619,-0.95467 3.74203,-0.46865 8.15836,7.54047 3.56681,6.4685 5.53542,8.68172 7.72222,8.68172 2.8712,0 3.68729,-1.83713 3.24787,-7.31135 -0.74933,-9.33516 -6.78286,-18.94005 -14.5548,-23.17007 l -4.09427,-2.22838 -8.932642,0.87665 c -4.912954,0.48217 -11.935611,1.08928 -15.605906,1.34916 l -6.673262,0.47249 0.360249,-3.7324 c 0.198137,-2.05282 1.076944,-6.688 1.952905,-10.3004 2.109131,-8.69793 1.949125,-10.59612 -1.728942,-20.51083 -3.917707,-10.5607 -5.707058,-17.35015 -4.80923,-18.24797 0.397242,-0.39725 3.705286,0.65665 7.886073,2.51238 11.610707,5.15368 14.803183,4.89601 17.436902,-1.40737 0.771369,-1.84614 1.54915,-2.52698 2.886793,-2.52698 3.28385,0 9.55527,-2.26476 11.65177,-4.20774 2.43365,-2.25542 2.70197,-5.4343 0.55566,-6.58298 -0.82204,-0.43994 -3.37094,-0.79989 -5.66423,-0.79989 h -4.16962 l -2.56148,-8.3066 C 86.888904,502.35896 82.137829,482.68416 83.725536,476.71233 c 0.736916,-2.77176 2.863846,-3.25589 6.435712,-1.4649 1.409979,0.70699 12.733642,8.1171 25.163692,16.46691 34.43215,23.1296 34.70498,23.29491 38.4481,23.29491 5.01406,0 7.35854,-3.64892 5.81655,-9.05277 -0.80905,-2.83526 -0.743,-3.00644 2.17154,-5.62866 7.1177,-6.40383 23.896,-14.70809 37.16138,-18.39269 6.61393,-1.83709 8.68904,-2.04971 19.75359,-2.02403 11.25379,0.0261 12.98742,0.21998 19.31767,2.16008 26.64621,8.16655 49.77998,30.02318 64.48194,60.92213 13.86264,29.13493 17.77865,60.1803 11.61458,92.07806 -7.53041,38.96828 -29.54902,66.77978 -61.19658,77.29677 -7.27038,2.41607 -14.07578,3.35662 -30.91709,4.27294 -7.53446,0.40995 -14.4019,1.12152 -15.26096,1.58128 -1.9987,1.06967 -2.07036,4.71815 -0.12723,6.47666 2.12961,1.92727 8.93776,4.09696 16.14785,5.14615 8.36374,1.21706 25.08901,0.62659 33.15568,-1.17054 l 6.30759,-1.40523 8.37385,2.88211 c 18.78436,6.46517 30.23598,14.08867 38.20163,25.43134 9.02814,12.85561 8.04899,24.48764 -2.51895,29.92416 -8.85965,4.55772 -17.84947,1.69259 -33.72339,-10.74793 -10.34428,-8.10688 -14.29923,-10.52295 -20.45759,-12.49743 -3.612,-1.15807 -6.63561,-2.84806 -9.74704,-5.44792 -6.21147,-5.19017 -11.85685,-7.89933 -17.30464,-8.30433 -4.90286,-0.36448 -7.50639,1.00186 -7.50639,3.93938 0,0.87291 3.1146,4.76933 7.28784,9.11726 14.2114,14.80625 19.1752,25.66221 15.62213,34.16593 -1.37991,3.30259 -5.92777,7.21467 -9.55965,8.22325 -2.90852,0.80771 -8.48212,0.95122 -11.41855,0.29403 z M 155.32959,696.29329 c 1.14325,-0.83597 1.53888,-2.29557 1.7803,-6.56801 0.17071,-3.02125 0.62188,-5.49319 1.00259,-5.49319 0.38071,0 2.15504,1.05968 3.94295,2.35484 4.01827,2.91081 8.15418,2.95024 9.57155,0.0912 1.30109,-2.62449 0.59567,-4.24808 -3.72146,-8.56521 -4.47191,-4.47191 -7.83782,-5.83834 -12.61633,-5.12176 -4.37637,0.65628 -6.89906,3.57967 -8.10602,9.39357 -2.09138,10.07411 2.55095,18.00004 8.14642,13.90853 z m 7.6281,-68.5108 c 0.37907,-0.35255 1.13994,-5.26845 1.69083,-10.92422 0.55089,-5.65578 1.02312,-10.3824 1.04938,-10.5036 0.1348,-0.62198 4.26816,2.23875 10.64294,7.3661 7.80879,6.28072 8.95774,6.52341 11.82436,2.4976 l 1.59661,-2.24222 -1.53774,-3.01421 c -1.81274,-3.55327 -9.49844,-11.55896 -13.88169,-14.45966 -3.70496,-2.45183 -10.9551,-3.34677 -14.00567,-1.72884 -1.06247,0.56351 -3.08381,2.92781 -4.49187,5.25402 l -2.5601,4.22945 0.24198,10.50736 c 0.25343,11.00465 0.69555,12.50734 4.07869,13.86318 1.63817,0.6565 4.16716,0.25725 5.35228,-0.84496 z m 83.79674,-62.36451 c 2.38505,-3.09636 -0.16402,-14.46762 -6.01695,-26.84117 -3.87868,-8.19983 -7.05626,-12.35602 -10.97529,-14.35535 -2.90633,-1.48271 -3.53238,-1.54778 -6.2529,-0.64993 -4.27532,1.41099 -8.5833,6.66476 -12.93761,15.77799 -4.77384,9.99127 -6.46235,15.25538 -6.52573,20.34466 -0.0575,4.61757 1.30076,6.31373 5.05597,6.31373 2.57521,0 3.87466,-1.96563 8.42864,-12.74966 1.79469,-4.24989 4.30633,-9.79956 5.58145,-12.33261 2.31038,-4.58967 2.32303,-4.59978 3.67132,-2.93471 0.74412,0.91895 3.56128,7.26842 6.26034,14.10992 2.69907,6.84151 5.57106,13.15147 6.38221,14.02214 1.73736,1.86482 5.6381,1.48957 7.32855,-0.70501 z m -89.14805,-1.96662 c 0.64285,-0.98112 1.52262,-3.64941 1.95503,-5.92955 0.43242,-2.28013 0.9444,-4.30387 1.13773,-4.49721 0.19333,-0.19333 2.04684,0.73637 4.11891,2.06601 4.26067,2.73407 5.98132,2.97854 8.01431,1.1387 1.80133,-1.63018 1.77682,-2.70598 -0.1476,-6.47816 -2.89474,-5.67417 -10.92637,-9.11365 -16.19016,-6.93332 -3.51191,1.45468 -5.58353,5.44721 -6.02453,11.61076 -0.46681,6.52435 0.0607,8.76913 2.31595,9.85604 2.64745,1.2759 3.5394,1.12172 4.82036,-0.83327 z"
     id="path57"
     transform="translate(3,186)" />
  <path
     style="fill:#ffffff;stroke-width:0.772707"
     d="m 396.39872,759.97881 c -14.90653,-3.00821 -31.60233,-7.28561 -41.71744,-10.68783 -9.18789,-3.09035 -8.53804,-2.50734 -12.2268,-10.96939 -5.89671,-13.52714 -22.99428,-27.03466 -38.62042,-30.51115 l -5.88472,-1.30923 4.89672,-5.91878 c 2.6932,-3.25534 6.60684,-8.40121 8.69697,-11.43529 l 3.80025,-5.5165 2.20244,4.2066 c 6.58728,12.58155 27.9961,21.96977 54.76943,24.01756 l 7.59742,0.5811 5.17798,9.27249 c 2.84789,5.09986 7.34012,12.47626 9.98275,16.39199 4.70899,6.97759 14.86313,19.66146 17.41884,21.75844 3.76108,3.08601 -1.21228,3.12309 -16.09342,0.11999 z"
     id="path58"
     transform="translate(3,186)" />
  <path
     style="fill:#ffffff;stroke-width:0.0752358"
     d="m 328.23581,756.13704 c -1.38789,-2.73218 -2.83515,-5.45584 -3.37841,-6.35796 -2.33603,-3.87909 -5.24141,-7.49531 -8.99158,-11.1915 -4.24547,-4.18436 -8.58464,-7.55707 -13.57625,-10.55244 -3.85055,-2.31063 -6.87871,-3.71821 -11.29836,-5.2518 -2.39336,-0.83048 -4.62825,-1.69367 -5.42859,-2.09672 -0.51557,-0.25963 -0.54356,-0.28615 -0.42607,-0.40353 0.10339,-0.10329 0.27581,-0.12448 0.96935,-0.11915 2.37458,0.0182 8.86438,1.49612 13.85939,3.15607 12.63271,4.19814 22.24014,11.43342 26.52065,19.97249 1.1648,2.32364 1.86927,4.56845 2.22224,7.08125 0.0851,0.60583 0.13255,1.71389 0.16231,3.79031 0.0231,1.61381 0.0293,2.99256 0.0137,3.0639 -0.0163,0.0746 -0.29196,-0.38926 -0.64838,-1.09092 z"
     id="path59"
     transform="translate(3,186)" />
  <path
     style="fill:#ffffff;stroke-width:0.967642"
     d="m 194.53044,409.19945 c -5.29646,-12.32895 -13.74187,-35.96911 -17.01783,-47.63583 -3.02781,-10.783 -3.66703,-18.09115 -1.64376,-18.79301 1.75821,-0.60991 7.93752,1.73455 15.19396,5.76467 12.16177,6.75446 41.55145,24.50783 42.13537,25.45263 0.32373,0.52379 -1.82912,5.00381 -4.78411,9.95558 -2.95498,4.95178 -5.3727,9.96401 -5.3727,11.13829 0,1.17429 -0.37228,2.13507 -0.82729,2.13507 -0.68223,0 -13.95857,11.17822 -22.02076,18.54071 l -2.04375,1.86639 z"
     id="path60"
     transform="translate(3,186)" />
  <path
     style="fill:#ffffff;stroke-width:0.967642"
     d="m 412.32671,217.96125 c -0.9315,-4.98377 -4.32478,-42.62678 -4.99374,-55.39747 -0.71357,-13.62249 0.16043,-19.21727 3.06829,-19.64107 2.49099,-0.36304 8.87087,6.69333 31.24332,34.55619 l 16.63788,20.72097 -19.16302,9.77007 c -10.53966,5.37354 -20.23964,10.52744 -21.55552,11.45311 -3.43578,2.41695 -4.57151,2.09995 -5.23721,-1.4618 z"
     id="path61"
     transform="translate(3,186)" />
</svg>
