<?xml version="1.0" encoding="UTF-8" standalone="no"?>
<svg
   version="1.0"
   width="600.000000pt"
   height="600.000000pt"
   viewBox="0 0 600.000000 600.000000"
   preserveAspectRatio="xMidYMid meet"
   id="svg12"
   sodipodi:docname="frog3_t1.svg.svg"
   inkscape:version="1.4.3 (0d15f75, 2025-12-25)"
   xmlns:inkscape="http://www.inkscape.org/namespaces/inkscape"
   xmlns:sodipodi="http://sodipodi.sourceforge.net/DTD/sodipodi-0.dtd"
   xmlns="http://www.w3.org/2000/svg"
   xmlns:svg="http://www.w3.org/2000/svg">
  <defs
     id="defs12" />
  <sodipodi:namedview
     id="namedview12"
     pagecolor="#505050"
     bordercolor="#ffffff"
     borderopacity="1"
     inkscape:showpageshadow="0"
     inkscape:pageopacity="0"
     inkscape:pagecheckerboard="1"
     inkscape:deskcolor="#505050"
     inkscape:document-units="pt"
     inkscape:zoom="0.44068999"
     inkscape:cx="270.03109"
     inkscape:cy="203.09061"
     inkscape:window-width="1024"
     inkscape:window-height="1022"
     inkscape:window-x="0"
     inkscape:window-y="30"
     inkscape:window-maximized="0"
     inkscape:current-layer="svg12" />
  <g
     transform="translate(0.000000,600.000000) scale(0.050000,-0.050000)"
     fill="#000000"
     stroke="none"
     id="g12">
    <path
       d="M8747 11720 c-248 -65 -436 -187 -609 -394 -80 -97 -238 -387 -238 -438 0 -33 -22 -34 -130 -8 -321 78 -783 57 -1070 -48 -22 -8 -48 26 -95 124 -233 484 -758 741 -1256 614 -612 -157 -1049 -863 -879 -1420 23 -77 -136 -133 -271 -97 -512 139 -1263 -343 -1331 -855 l-13 -97 -112 -32 c-483 -138 -883 -659 -917 -1193 l-12 -175 -122 -58 c-597 -286 -962 -1226 -648 -1668 l39 -56 -150 -147 c-663 -648 -871 -1830 -437 -2478 135 -202 143 -218 144 -276 2 -355 391 -899 861 -1204 l171 -112 22 -116 c135 -716 897 -1109 1232 -634 l60 86 100 -87 c372 -326 914 -244 914 138 l0 84 165 -1 c221 -2 435 120 435 248 0 20 36 23 165 13 91 -7 190 -13 221 -13 49 0 53 -5 34 -39 -98 -183 -60 -428 87 -571 201 -196 433 -200 708 -13 l122 82 71 -97 c354 -482 1017 -446 1084 59 l12 94 91 -28 c427 -128 749 261 521 629 -48 78 -57 68 103 121 161 54 155 54 171 -16 57 -261 410 -380 693 -233 55 29 103 52 106 52 3 0 22 -43 42 -95 125 -332 424 -471 703 -328 130 67 264 253 266 368 0 48 11 45 117 -33 358 -262 763 -123 763 262 l0 107 75 -46 c241 -148 471 -144 620 10 245 255 66 644 -405 880 -66 33 -124 63 -128 67 -5 4 42 60 103 125 648 679 754 1787 236 2474 l-76 100 37 94 c195 496 -49 1261 -497 1559 l-46 30 89 168 c394 747 357 1621 -97 2294 -130 193 -350 411 -484 481 l-43 22 49 142 c315 905 -471 1814 -1366 1579z m455 -220 c639 -121 961 -915 599 -1479 -95 -147 -72 -234 55 -209 114 23 361 -183 544 -451 548 -808 407 -1857 -358 -2666 -256 -270 -187 -353 110 -134 61 46 115 79 119 75 30 -30 132 -295 167 -436 129 -508 89 -996 -120 -1472 -61 -140 -79 -202 -69 -243 103 -419 15 -1172 -230 -1957 -98 -313 -100 -305 144 -508 186 -154 297 -293 297 -373 0 -202 -201 -237 -426 -75 -203 147 -240 168 -294 168 -78 0 -119 -57 -142 -200 -69 -431 -451 -448 -576 -26 -72 242 -127 264 -351 145 -233 -123 -405 -106 -459 46 -36 101 14 160 290 345 651 435 1012 965 1052 1545 10 143 7 166 -23 177 -52 20 -69 -11 -122 -224 -182 -738 -972 -1488 -1800 -1709 l-161 -43 -239 103 c-288 124 -287 123 -375 405 -131 415 -208 832 -265 1426 -18 187 -42 351 -53 365 -243 294 -157 -1026 125 -1905 102 -321 113 -336 293 -409 456 -186 626 -323 626 -501 0 -183 -203 -213 -473 -70 -279 147 -340 108 -246 -158 154 -438 -357 -535 -651 -123 -161 226 -233 238 -470 81 -424 -282 -677 -3 -402 443 85 139 82 154 -86 391 -655 924 -842 1743 -600 2622 75 270 78 294 41 294 -118 0 -288 -452 -334 -888 -66 -621 120 -1245 580 -1948 186 -284 188 -276 -86 -258 -170 11 -186 16 -223 66 -182 248 -477 452 -780 539 -66 18 -122 36 -125 39 -3 2 43 82 102 177 464 738 508 1877 96 2493 -148 223 -203 155 -94 -118 360 -903 233 -1734 -394 -2577 -83 -113 -51 -149 162 -183 536 -84 977 -461 768 -655 -91 -85 -247 -62 -476 69 -185 106 -243 122 -285 80 -39 -39 -29 -67 78 -207 161 -210 154 -359 -18 -410 -148 -44 -338 56 -583 309 -154 158 -261 150 -261 -20 0 -109 -75 -223 -170 -259 -297 -114 -639 188 -711 627 -13 74 -26 153 -30 176 -6 28 -62 73 -164 133 -427 248 -720 591 -833 974 -45 154 -44 160 42 155 110 -6 111 48 2 112 -707 414 -521 1980 302 2539 50 34 136 101 189 149 516 458 1186 389 1789 -185 266 -252 350 -246 193 13 -255 420 -774 701 -1245 675 -148 -9 -167 -1 -113 44 287 238 369 944 133 1138 -160 131 -151 112 -138 279 32 400 287 790 623 951 203 98 256 103 336 33 463 -404 1498 101 1502 733 0 89 -11 157 -33 199 -33 62 -33 65 11 95 66 47 87 39 157 -58 106 -149 306 -263 368 -211 50 42 35 80 -83 207 -358 387 -334 968 56 1325 563 516 1407 194 1518 -578 31 -220 164 -245 198 -38 29 180 553 252 1067 145 287 -60 284 -61 355 164 159 511 590 787 1081 695z m-4958 -1710 c361 -266 -228 -950 -818 -950 -578 0 -370 706 281 953 163 62 451 60 537 -3z m-2145 -2369 c244 -261 -45 -917 -538 -1220 -306 -187 -401 -138 -401 208 0 575 671 1298 939 1012z m8453 -642 c245 -151 427 -544 428 -920 0 -161 -45 -370 -77 -355 -203 96 -242 144 -243 293 0 205 -110 606 -231 845 -80 157 -19 225 123 137z m287 -1491 c662 -613 589 -1710 -163 -2452 -238 -234 -235 -246 82 -402 429 -212 597 -421 453 -565 -91 -90 -202 -64 -474 111 -91 59 -144 80 -203 80 -67 0 -101 18 -217 112 -159 130 -154 108 -78 373 179 621 278 1432 224 1836 l-23 171 81 216 c49 130 95 299 114 424 39 245 41 246 204 96z"
       id="path1" />
    <path
       d="M8916 11093 c-621 -172 -508 -1073 134 -1073 579 0 759 777 240 1037 -107 53 -258 68 -374 36z m437 -243 c64 -44 88 -130 56 -205 -47 -112 -168 -139 -262 -58 -156 135 38 381 206 263z"
       id="path2" />
    <path
       d="M5452 10927 c-458 -140 -492 -836 -50 -1026 374 -161 748 93 748 509 0 397 -319 634 -698 517z m490 -245 c106 -107 34 -302 -112 -302 -76 0 -170 100 -170 180 0 80 94 180 170 180 32 0 76 -23 112 -58z"
       id="path3" />
    <path
       d="M8431 9489 c-48 -49 -39 -162 18 -220 115 -115 247 8 168 157 -49 92 -129 119 -186 63z"
       id="path4" />
    <path
       d="M7753 9459 c-73 -58 -71 -144 5 -221 94 -93 192 -45 188 94 -4 132 -104 197 -193 127z"
       id="path5" />
    <path
       d="M10122 9032 c-19 -23 -3 -52 84 -150 60 -67 120 -148 134 -182 24 -58 66 -78 88 -42 69 111 -226 471 -306 374z"
       id="path6" />
    <path
       d="M8090 8667 c-977 -83 -2170 -391 -2170 -560 0 -99 113 -107 351 -26 1164 396 2247 470 3477 237 157 -30 229 11 194 108 -53 147 -1197 296 -1852 241z"
       id="path7" />
    <path
       d="M3390 8528 c-569 -138 -1004 -718 -912 -1216 201 -1089 2022 -650 2022 488 0 562 -483 879 -1110 728z m603 -167 c533 -229 422 -1048 -186 -1366 -692 -362 -1349 26 -1150 680 163 537 856 893 1336 686z"
       id="path8" />
    <path
       d="M5640 5810 c-137 -165 683 -622 1086 -606 222 9 197 38 -116 134 -251 76 -554 224 -752 366 -200 145 -190 140 -218 106z"
       id="path9" />
    <path
       d="M9546 5737 c-288 -254 -632 -414 -1132 -526 -119 -26 -63 -100 80 -107 365 -17 922 247 1147 545 149 197 90 252 -95 88z"
       id="path10" />
    <path
       d="M1450 5080 c-462 -152 -730 -794 -518 -1241 297 -626 1189 -445 1411 286 191 628 -298 1151 -893 955z m433 -131 c238 -81 381 -362 334 -659 -131 -838 -1211 -909 -1205 -80 4 514 442 886 871 739z"
       id="path11" />
    <path
       d="M9239 4922 c-270 -188 -674 -362 -840 -362 -67 0 -110 -62 -66 -96 98 -74 531 22 767 171 188 118 383 332 350 385 -20 32 -32 27 -211 -98z"
       id="path12" />
  </g>
  <path
     style="fill:#ffffff;stroke-width:1.15325"
     d="m 432.6959,753.19723 c -6.85475,-2.54256 -13.27964,-7.528 -18.67404,-14.49027 -8.56156,-11.04995 -11.55879,-13.33002 -17.35792,-13.20466 -3.67097,0.0793 -6.94538,1.24595 -11.74454,4.18432 -16.41727,10.05175 -24.49482,12.09318 -31.18968,7.88255 -7.91292,-4.97673 -8.00709,-15.48099 -0.27544,-30.72937 2.89625,-5.71201 4.93444,-11.29967 4.87567,-13.36662 -0.0711,-2.50123 -3.78907,-9.04702 -12.57129,-22.13286 -15.09118,-22.48642 -27.12211,-45.92857 -33.51783,-65.3091 -7.38899,-22.39046 -8.8951,-31.88072 -8.87654,-55.93247 0.0169,-21.87122 1.13077,-30.09718 6.89897,-50.94792 3.50285,-12.66202 3.65205,-16.51702 0.63928,-16.51702 -5.31482,0 -12.96695,15.28379 -17.94474,35.84149 -12.10454,49.99038 -2.36583,94.85701 32.76424,150.94607 5.74718,9.17601 10.44942,17.05954 10.44942,17.51895 0,1.9463 -3.04418,2.28461 -13.50191,1.50057 l -11.08121,-0.83079 -9.33182,-9.79379 c -14.36053,-15.07142 -30.19883,-25.11302 -47.10066,-29.86215 -3.64714,-1.02478 -6.63116,-2.25729 -6.63116,-2.73892 0,-0.48162 2.82427,-5.65517 6.27617,-11.49676 15.19428,-25.71301 22.93,-52.90943 24.43767,-85.91546 0.81891,-17.92746 -1.51564,-38.29079 -6.04584,-52.73514 -5.75643,-18.35418 -18.31818,-38.57455 -22.39778,-36.05323 -2.00424,1.23871 -0.6761,8.64401 3.51218,19.58279 9.59462,25.05888 13.82647,52.29939 11.62588,74.83606 -2.91771,29.88089 -12.63509,54.99354 -33.09064,85.51626 -4.69471,7.0052 -8.53583,13.61 -8.53583,14.67732 0,3.07466 4.40713,5.11815 15.42482,7.15214 32.75985,6.04785 59.94268,27.69255 50.93281,40.55595 -5.05024,7.21021 -14.15275,6.29136 -33.0183,-3.33304 -11.88509,-6.06326 -14.25192,-6.89444 -16.94579,-5.95098 -4.76869,1.67011 -4.43777,5.02782 1.32512,13.44539 9.92849,14.50205 11.32101,20.55816 5.8854,25.59572 -8.39244,7.77785 -21.40048,3.27258 -39.59832,-13.71468 -9.76097,-9.11164 -12.61294,-11.01389 -16.51268,-11.01389 -3.69441,0 -5.5502,2.74495 -5.5502,8.20943 0,5.39131 -4.18075,13.24907 -8.44287,15.86844 -9.70601,5.96502 -21.0079,3.71577 -31.87272,-6.34313 -8.99391,-8.32677 -14.27796,-18.78255 -17.41395,-34.45772 -2.66304,-13.31116 -2.84778,-13.5409 -19.0103,-23.64066 C 84.216719,650.19489 63.032906,622.57417 58.767991,599.84023 L 57.982274,595.652 h 4.673272 c 8.583374,0 7.748008,-2.84144 -3.263333,-11.09998 -16.716689,-12.53757 -25.231904,-33.46944 -25.331197,-62.26845 -0.12485,-36.21192 15.565375,-74.2284 39.36442,-95.3776 15.734443,-13.98255 32.922264,-26.63837 41.899244,-30.85149 11.82814,-5.55122 20.91814,-7.29287 34.33758,-6.57904 19.41275,1.0326 37.83273,9.37813 57.53334,26.06656 19.48448,16.50535 20.83247,17.50219 23.66756,17.50219 2.39318,0 2.7048,-0.39644 2.03958,-2.5948 -2.05791,-6.80099 -8.73897,-17.0434 -16.4958,-25.28897 -18.81771,-20.00334 -44.02492,-30.93182 -71.34616,-30.93182 h -9.84803 l 4.85844,-5.27079 c 12.48539,-13.54503 18.49769,-41.5342 13.09586,-60.96525 -1.67417,-6.02218 -2.98182,-7.98718 -9.40156,-14.12761 l -7.45692,-7.13247 0.72526,-8.57982 c 0.9218,-10.90482 5.26443,-24.63569 10.82931,-34.24095 6.58419,-11.36465 20.03455,-24.22361 30.70704,-29.35687 13.21216,-6.35479 15.32638,-6.42497 23.40819,-0.77701 12.96483,9.06046 30.53883,10.57334 49.42944,4.25518 22.55392,-7.54338 39.87828,-22.75997 46.87395,-41.17109 2.83355,-7.45729 3.10642,-22.30054 0.50254,-27.33589 -1.58826,-3.07137 -1.56002,-3.52104 0.32854,-5.23016 3.34599,-3.02808 4.98624,-2.26902 11.96809,5.53842 8.10225,9.06034 17.76041,14.43292 22.26009,12.38273 4.31312,-1.96519 3.55557,-5.8199 -2.54309,-12.94048 -13.27405,-15.49828 -18.03281,-26.97041 -18.14978,-43.75445 -0.1266,-18.165879 6.57213,-33.03315 20.78471,-46.129877 23.85764,-21.984517 58.38428,-21.437335 81.10701,1.285391 8.58597,8.585973 14.49775,19.949944 17.45972,33.562101 2.71459,12.475305 4.56196,15.895365 8.58595,15.895365 2.88155,0 3.39287,-0.74681 7.30556,-10.670178 3.22821,-8.187378 18.0533,-11.858786 43.86832,-10.863919 9.88663,0.381013 21.34893,1.471616 25.47179,2.423562 9.76958,2.255744 17.80335,2.295683 19.99961,0.09943 0.94183,-0.941826 2.85952,-5.223254 4.26154,-9.514286 9.99355,-30.586208 32.16962,-48.74214 59.53478,-48.74214 17.00276,0 30.36993,5.615256 42.4846,17.846849 12.68657,12.809002 19.02857,28.263878 19.02857,46.370832 0,11.62501 -2.1298,19.67385 -8.63137,32.61926 -2.86418,5.70291 -5.20759,11.12067 -5.20759,12.03946 0,3.11275 3.29921,5.08905 8.36765,5.01243 14.99764,-0.22672 40.86695,30.38681 51.09893,60.47007 8.64132,25.40654 8.39596,55.99563 -0.66611,83.04408 -7.04764,21.0358 -18.35632,39.88696 -36.19001,60.32745 -11.68054,13.3879 -14.32471,17.9549 -11.67067,20.15756 2.10218,1.74467 8.0464,-0.82605 17.48671,-7.56252 l 7.38146,-5.26729 2.68718,6.13326 c 8.54989,19.51436 12.61538,39.14426 12.61538,60.91248 0,18.84614 -2.1527,31.03285 -8.62318,48.81697 -2.57776,7.08496 -5.67106,15.59986 -6.87403,18.92202 -1.78324,4.92471 -1.97228,6.94812 -1.02361,10.95584 0.63996,2.70356 1.49063,10.62414 1.89038,17.60128 1.54805,27.01951 -4.93828,67.36783 -17.48154,108.74414 -2.20348,7.26861 -4.00633,15.54325 -4.00633,18.38807 0,4.87536 0.41159,5.5458 7.16726,11.67465 23.08333,20.94156 27.49979,26.98041 25.0844,34.29913 -1.24198,3.76323 -5.8708,7.38593 -9.41776,7.37071 -4.50869,-0.0193 -11.34213,-3.2192 -21.09418,-9.87765 -6.01425,-4.10638 -12.49273,-7.77768 -14.39663,-8.15846 -5.13961,-1.02792 -8.63161,1.81926 -10.35209,8.44056 -3.26142,12.55156 -5.15106,17.04849 -8.91424,21.21389 -10.00282,11.07192 -22.90236,4.63965 -29.75977,-14.83951 -5.42026,-15.39675 -8.67756,-16.7964 -23.51211,-10.10297 -14.8457,6.69847 -23.64451,7.24479 -28.09826,1.74464 -6.56754,-8.11057 -3.20405,-12.5978 23.22393,-30.98295 29.55603,-20.56124 52.7591,-50.46551 60.03135,-77.36879 2.49536,-9.23145 4.7648,-27.63018 3.84295,-31.15536 -0.73063,-2.79389 -3.82315,-3.91543 -5.633,-2.04285 -0.78883,0.81616 -3.05664,7.1925 -5.03958,14.16964 -6.96319,24.5006 -20.26654,46.226 -40.95979,66.89052 -23.04401,23.012 -48.84922,38.34006 -79.50021,47.22237 l -9.90614,2.87068 -13.86777,-6.19789 c -17.60626,-7.86873 -19.32266,-9.03484 -21.89483,-14.87514 -7.24584,-16.45229 -15.75369,-53.58606 -19.59639,-85.53132 -5.90123,-49.05829 -5.89165,-49.01299 -10.363,-49.01299 -4.71371,0 -5.19381,2.64838 -5.10281,28.14853 0.0736,20.63206 0.55886,27.23263 3.19672,43.48524 5.10312,31.44187 15.15672,69.02235 20.6568,77.21535 1.46066,2.17584 4.45606,4.84302 6.65642,5.92703 2.20036,1.08403 10.48768,5.04818 18.41625,8.80924 14.71595,6.98077 23.99116,13.76654 27.13997,19.85564 2.41138,4.66309 2.12973,10.55206 -0.64722,13.53276 -5.12376,5.49972 -12.87625,4.75758 -29.04496,-2.78044 -17.29828,-8.06466 -21.53458,-6.31007 -17.60248,7.29057 1.24512,4.30671 2.26734,10.80492 2.27161,14.44046 0.007,5.89584 -0.38868,7.00639 -3.66103,10.27777 -3.03058,3.02968 -4.73576,3.73754 -9.80259,4.06921 -3.45976,0.22649 -8.04534,-0.30749 -10.51848,-1.22482 z M 118.85949,566.69369 c 21.03661,-7.8708 36.51376,-27.91761 39.99522,-51.80392 3.30313,-22.66275 -7.41609,-43.95277 -26.55646,-52.74521 -9.36435,-4.30166 -23.51911,-4.94289 -34.627932,-1.56869 -23.649945,7.18345 -40.584599,32.56638 -40.584599,60.83125 0,24.17391 14.008515,43.28569 34.993829,47.74198 6.940908,1.47393 19.308682,0.33995 26.779942,-2.45541 z m 468.37395,-66.63965 c 13.51162,-4.42624 17.97499,-6.73491 27.02932,-13.98084 8.75589,-7.00709 15.95743,-15.70631 15.97438,-19.29654 0.0197,-4.17196 -3.10802,-3.16071 -15.55657,5.02971 -17.93938,11.80308 -44.35457,23.51315 -53.0402,23.51315 -6.58212,0 -10.10604,5.17999 -5.48708,8.06576 3.50036,2.1869 19.45573,0.47678 31.08015,-3.33124 z m 1.49908,-42.9291 c 9.88951,-2.63965 27.20001,-10.53132 35.37954,-16.12914 8.02875,-5.49462 17.5148,-14.6552 21.30581,-20.5748 7.10774,-11.09859 2.0922,-12.49435 -9.97886,-2.777 -20.92436,16.84438 -38.74651,25.21937 -72.65455,34.14187 -4.45032,1.17105 -5.76623,2.03488 -5.76623,3.78522 0,5.44626 14.47441,6.15543 31.71429,1.55385 z M 458.16667,452.1295 c 1.48857,-1.48855 -3.14904,-3.79941 -17.40196,-8.67117 -19.27885,-6.58965 -33.64626,-13.58102 -48.77571,-23.73489 -7.04036,-4.72501 -13.64723,-8.59094 -14.68193,-8.59094 -3.21898,0 -3.65452,5.36221 -0.77483,9.53953 7.74808,11.23955 35.46636,26.22381 58.24182,31.48505 6.84128,1.58037 21.80231,1.56274 23.39261,-0.0276 z M 235.26236,352.88146 c 38.22247,-8.05807 65.06859,-38.01451 65.1414,-72.68849 0.0523,-24.89647 -13.89294,-43.39783 -37.46348,-49.7035 -7.64387,-2.0449 -27.04111,-1.95795 -36.03031,0.16154 -34.76975,8.19805 -62.5074,40.23887 -62.55686,72.26186 -0.0329,21.29641 9.36483,37.23031 27.36425,46.39618 10.02188,5.10346 28.92615,6.65436 43.545,3.57241 z m 194.32209,-94.70541 c 70.85865,-21.80441 138.28434,-26.42893 207.85074,-14.25584 21.68412,3.7944 26.89717,2.96227 26.05339,-4.15875 -0.26476,-2.23447 -1.54338,-3.74215 -4.44601,-5.24251 -13.13097,-6.78739 -62.60662,-13.67218 -98.2513,-13.67218 -52.06114,0 -152.82834,21.66877 -165.04323,35.49056 -2.58112,2.92067 -1.66701,6.86997 1.93523,8.36095 3.7177,1.53876 9.63968,0.32802 31.90118,-6.52223 z m 266.18464,-38.20189 c 0.77915,-8.05964 -11.29749,-23.34557 -18.44415,-23.34557 -4.89103,0 -4.16746,3.17968 2.65649,11.67378 3.24976,4.04513 7.16918,9.3337 8.70984,11.75237 3.43913,5.39908 6.55153,5.36364 7.07782,-0.0806 z M 528.72311,185.17193 c 0.6566,-1.22687 1.19382,-4.62371 1.19382,-7.54852 0,-4.10845 -0.64377,-5.96161 -2.83071,-8.14854 -3.73208,-3.73209 -6.98284,-3.57381 -11.09696,0.54033 -4.35954,4.35954 -4.29985,8.17657 0.20817,13.31092 4.22074,4.80716 10.44957,5.72505 12.52568,1.84581 z m 46.12987,-2.30649 c 3.79346,-7.08814 -1.33993,-17.37452 -8.67072,-17.37452 -4.66428,0 -6.28092,2.36864 -6.28092,9.20258 0,3.49623 0.74332,5.48454 2.83071,7.57192 3.59587,3.59588 10.33895,3.92967 12.12093,0.60002 z M 391.0545,139.79701 c 6.53894,-3.32974 11.87304,-8.82447 15.67141,-16.14335 3.48881,-6.72241 4.33147,-23.51644 1.59357,-31.759489 -5.24632,-15.795201 -22.17341,-25.350611 -39.21242,-22.13558 -13.4045,2.529247 -21.78702,9.083989 -27.38191,21.411402 -3.58251,7.893449 -3.66333,22.943337 -0.16454,30.638717 2.90199,6.38275 9.80856,14.29596 14.706,16.8494 11.14054,5.80849 24.74321,6.25382 34.78789,1.1389 z m 226.01544,-9.68297 c 8.0412,-2.73454 17.86385,-12.7412 20.75479,-21.1436 5.18103,-15.058427 1.64378,-30.144837 -9.44389,-40.278342 -8.20737,-7.501084 -14.97877,-9.741219 -27.38595,-9.059912 -14.2119,0.780409 -23.59955,6.506618 -30.19951,18.420885 -3.12654,5.644031 -3.39786,7.055046 -3.39704,17.666417 7.9e-4,10.303452 0.33295,12.162142 3.11684,17.440952 3.75345,7.11731 12.00933,14.6656 18.59125,16.99784 6.67416,2.36492 20.94551,2.34235 27.96351,-0.0442 z"
     id="path13"
     transform="scale(0.75)" />
  <path
     style="fill:#ffffff;stroke-width:1.12547"
     d="m 208.98322,341.50696 c -13.12591,-2.31207 -25.68574,-11.78651 -30.9091,-23.31609 -3.38322,-7.46783 -3.32046,-20.63261 0.14705,-30.84662 6.74588,-19.87086 24.35971,-36.54934 46.88442,-44.39472 12.09092,-4.21128 29.16603,-4.47148 38.9836,-0.59404 37.6559,14.87213 29.6821,70.77217 -13.10353,91.86184 -13.56204,6.68492 -29.61692,9.47129 -42.00244,7.28963 z"
     id="path14"
     transform="scale(0.75)" />
  <path
     style="fill:#ffffff;stroke-width:1.12547"
     d="m 218.13399,208.73278 c -1.9714,-0.61003 -5.11754,-2.64233 -6.99142,-4.51621 -12.42807,-12.42807 2.15719,-39.58442 28.32003,-52.72916 10.97235,-5.51273 19.72358,-7.33952 31.13067,-6.49841 8.86734,0.65383 12.0458,2.20087 16.33304,7.94969 3.40664,4.56803 3.07415,14.13807 -0.74907,21.56052 -6.46685,12.5548 -21.35656,25.21985 -36.66982,31.191 -9.472,3.69345 -24.54585,5.1553 -31.37343,3.04257 z"
     id="path15"
     transform="scale(0.75)" />
  <path
     style="fill:#ffffff;stroke-width:1.12547"
     d="m 82.412368,391.3815 c -3.080098,-3.40347 -4.19193,-8.00619 -4.19193,-17.3536 0,-15.40958 4.986475,-29.70402 15.837587,-45.40071 14.135995,-20.44843 33.117965,-31.48995 43.002945,-25.01414 7.46606,4.89114 10.08881,19.55483 5.82545,32.56984 -7.58289,23.14866 -25.48609,43.69145 -46.910583,53.82693 -8.12253,3.8426 -11.058605,4.13952 -13.563469,1.37168 z"
     id="path16"
     transform="scale(0.75)" />
  <path
     style="fill:#ffffff;stroke-width:1.12547"
     d="m 89.505761,555.78515 c -2.949742,-1.08051 -7.452505,-4.26247 -10.875136,-7.6851 -4.699671,-4.69967 -6.300146,-7.32734 -8.19027,-13.44685 -7.310521,-23.66871 4.064603,-51.65067 25.200579,-61.99154 13.617576,-6.66246 29.944226,-4.73786 40.057606,4.72203 21.60302,20.20709 12.37145,62.48897 -16.6039,76.04817 -9.25609,4.33145 -21.524842,5.30722 -29.588879,2.35329 z"
     id="path17"
     transform="scale(0.75)" />
  <path
     style="fill:#ffffff;stroke-width:1.46738"
     d="m 734.01415,676.4839 c -2.97811,-1.02382 -9.99756,-4.58411 -15.59879,-7.91173 -5.60123,-3.32764 -11.51135,-6.05024 -13.13359,-6.05024 -1.62225,0 -4.7421,-0.68153 -6.93301,-1.51451 -5.87469,-2.23356 -18.21828,-13.04059 -18.21828,-15.95044 0,-1.38482 2.28364,-11.39322 5.07475,-22.24089 11.22466,-43.62474 16.41374,-91.83044 12.7061,-118.03748 -0.87331,-6.17288 -0.29225,-9.44291 3.66247,-20.61133 2.58526,-7.30093 5.84654,-19.18671 7.2473,-26.41283 1.40076,-7.22612 3.07655,-14.12889 3.72398,-15.33947 0.91814,-1.71679 3.56076,0.22125 12.01063,8.80832 40.89061,41.55452 34.85232,112.10775 -13.62567,159.20665 -4.15345,4.03529 -8.53841,9.21283 -9.74435,11.50562 -1.99805,3.79878 -1.95528,4.43155 0.48197,7.1305 1.47102,1.62898 6.63651,4.95983 11.47887,7.4019 20.47936,10.32802 32.03151,19.23568 35.51327,27.38362 1.94687,4.55607 1.89443,5.32138 -0.59297,8.653 -3.76998,5.04947 -7.70146,6.16276 -14.05268,3.97931 z"
     id="path18"
     transform="scale(0.75)" />
  <path
     style="fill:#ffffff;stroke-width:0.31564"
     d="m 723.29007,431.13287 c -6.48271,-3.45632 -9.25046,-5.71957 -10.83059,-8.8564 -1.06106,-2.10638 -1.39537,-3.96436 -1.63796,-9.10313 -0.75227,-15.93539 -6.43512,-36.66609 -15.40157,-56.184 -2.06087,-4.48603 -2.7001,-7.16975 -2.14726,-9.01495 0.52246,-1.74385 1.49446,-2.29733 3.74812,-2.13432 3.54198,0.25621 8.14496,3.02112 13.27352,7.97311 10.65803,10.29109 18.33196,27.01674 20.93552,45.6298 0.63674,4.55211 0.54062,15.98775 -0.17377,20.67445 -1.06272,6.97184 -2.79648,12.50829 -3.97833,12.70403 -0.2604,0.0431 -1.96486,-0.71673 -3.78768,-1.68859 z"
     id="path19"
     transform="scale(0.75)" />
  <path
     style="fill:#ffffff;stroke-width:0.190503"
     d="m 615.99025,97.119983 c -3.40149,-0.569398 -7.24814,-3.364313 -8.74424,-6.353439 -0.93504,-1.868162 -1.23993,-3.284519 -1.1055,-5.135613 0.33894,-4.667146 3.63147,-8.891286 8.1242,-10.422917 1.7443,-0.594654 4.37381,-0.594654 6.11811,0 4.61164,1.572169 7.6416,5.684799 7.67903,10.422917 0.0165,2.08642 -0.28231,3.299809 -1.35425,5.499636 -2.09227,4.293712 -6.41518,6.709582 -10.71735,5.989416 z"
     id="path20"
     transform="scale(0.75)" />
  <path
     style="fill:#ffffff;stroke-width:0.650329"
     d="m 383.88328,105.68758 c -2.20086,-1.47146 -3.5537,-3.0513 -4.80772,-5.61441 -1.59555,-3.261186 -1.67752,-3.792177 -0.95677,-6.19782 0.99795,-3.330856 5.32208,-8.065226 8.24847,-9.031023 2.57094,-0.848485 5.09304,-0.211768 7.92541,2.000811 8.04578,6.285163 5.05554,19.553572 -4.64223,20.598642 -2.23418,0.24076 -3.23711,-0.0647 -5.76716,-1.7562 z"
     id="path21"
     transform="scale(0.75)" />
</svg>
