<?xml version="1.0" encoding="UTF-8" standalone="no"?>
<svg
   version="1.0"
   width="600.000000pt"
   height="500.000000pt"
   viewBox="0 0 600.000000 500.000000"
   preserveAspectRatio="xMidYMid meet"
   id="svg14"
   sodipodi:docname="frog17_t1.svg"
   inkscape:version="1.4.3 (0d15f75, 2025-12-25)"
   xmlns:inkscape="http://www.inkscape.org/namespaces/inkscape"
   xmlns:sodipodi="http://sodipodi.sourceforge.net/DTD/sodipodi-0.dtd"
   xmlns="http://www.w3.org/2000/svg"
   xmlns:svg="http://www.w3.org/2000/svg">
  <defs
     id="defs14" />
  <sodipodi:namedview
     id="namedview14"
     pagecolor="#505050"
     bordercolor="#ffffff"
     borderopacity="1"
     inkscape:showpageshadow="0"
     inkscape:pageopacity="0"
     inkscape:pagecheckerboard="1"
     inkscape:deskcolor="#505050"
     inkscape:document-units="pt"
     inkscape:zoom="0.82050814"
     inkscape:cx="539.90933"
     inkscape:cy="558.80006"
     inkscape:window-width="1496"
     inkscape:window-height="910"
     inkscape:window-x="1920"
     inkscape:window-y="142"
     inkscape:window-maximized="0"
     inkscape:current-layer="svg14" />
  <g
     transform="translate(0.000000,500.000000) scale(0.050000,-0.050000)"
     fill="#000000"
     stroke="none"
     id="g14">
    <path
       d="M6580 9568 c-228 -37 -311 -61 -457 -131 -122 -58 -207 -119 -320 -226 -148 -142 -158 -147 -309 -178 -615 -127 -1203 -516 -1548 -1024 -68 -100 -97 -125 -181 -155 -356 -128 -765 -503 -1014 -929 -46 -79 -97 -137 -137 -158 -382 -198 -904 -845 -983 -1220 -11 -53 -25 -65 -87 -77 -726 -134 -1347 -1072 -1244 -1880 11 -88 29 -264 39 -390 34 -404 155 -693 436 -1036 l64 -79 -115 -71 c-353 -218 -512 -546 -365 -752 99 -139 362 -199 586 -134 139 40 135 40 135 -9 0 -388 718 -524 1044 -198 l115 115 117 -48 c394 -159 837 -11 895 298 10 57 22 73 44 65 17 -7 71 -22 120 -34 50 -13 140 -53 201 -90 61 -36 125 -71 143 -77 19 -6 51 -70 79 -161 119 -383 415 -599 822 -599 261 0 372 48 484 208 l32 45 97 -49 c388 -194 967 -64 967 216 0 39 12 41 205 41 305 -1 514 151 466 341 -6 26 -4 48 6 48 399 0 1057 174 1449 383 35 19 35 17 1 -47 -179 -337 161 -615 598 -488 142 41 135 43 135 -30 0 -387 590 -517 954 -210 l63 53 90 -89 c255 -255 710 -149 835 195 24 66 33 75 78 65 650 -144 905 394 420 886 l-117 119 79 183 c365 846 300 1779 -154 2233 -104 104 -128 140 -128 192 -3 411 -300 917 -684 1162 l-112 72 48 151 c64 203 79 387 43 555 l-28 134 52 -13 c28 -7 109 -32 180 -56 l128 -43 26 -113 c70 -307 321 -561 600 -605 211 -34 136 366 -112 598 -55 51 -90 93 -79 93 152 0 478 302 478 444 0 198 -559 72 -776 -175 l-83 -94 -176 48 c-164 46 -175 52 -168 98 63 427 -160 840 -572 1056 l-125 65 0 99 c0 179 -117 380 -292 501 -59 40 -88 75 -88 104 -1 164 -254 462 -489 573 -298 143 -698 91 -940 -121 -68 -60 -73 -61 -172 -40 -55 12 -147 22 -202 22 -90 0 -116 11 -224 93 -250 189 -641 312 -873 275z m437 -230 c236 -80 452 -251 647 -509 110 -146 173 -98 99 77 -23 56 -38 106 -32 112 12 12 346 -56 543 -111 195 -55 200 15 9 119 -126 69 -127 75 -8 139 273 147 601 105 832 -106 113 -103 228 -292 209 -342 -11 -27 -211 -102 -341 -127 -75 -15 -74 -79 2 -106 38 -13 62 -39 72 -76 42 -169 166 -267 504 -395 618 -236 979 -667 838 -1004 -38 -90 -57 -87 -128 17 -328 476 -1731 204 -3053 -592 -493 -297 -557 -318 -513 -168 48 159 49 174 19 174 -119 0 -222 -295 -132 -379 86 -81 222 -38 586 183 907 551 1660 822 2362 850 304 12 441 -7 528 -74 l50 -39 -166 -1 c-240 0 -267 -80 -36 -109 56 -7 165 -29 242 -48 l140 -35 34 -99 c139 -403 -86 -945 -593 -1426 -241 -228 -434 -345 -869 -525 -35 -14 -42 -26 -26 -42 48 -48 481 101 688 237 70 46 69 47 97 -163 132 -990 -501 -1604 -1426 -1385 -266 63 -264 22 4 -89 279 -114 630 -116 878 -4 59 26 111 48 115 48 48 0 -24 -487 -101 -689 -254 -671 -1105 -1174 -2071 -1225 l-210 -11 -86 93 c-196 212 -472 396 -761 504 l-173 65 -15 107 c-59 433 -99 586 -221 832 l-81 165 95 96 94 97 165 -83 c359 -180 798 -181 1151 -2 209 106 177 138 -61 62 -399 -128 -802 -93 -1055 90 -98 71 -97 63 -23 211 121 241 186 719 112 819 -36 50 -44 29 -59 -161 -29 -358 -234 -786 -452 -947 l-64 -47 -73 69 c-260 244 -559 404 -830 444 -141 21 -113 -22 58 -88 630 -244 1007 -734 1090 -1420 24 -200 19 -221 -54 -221 -118 0 -36 -65 165 -130 680 -223 1230 -765 931 -918 -190 -98 -395 -47 -583 144 -232 235 -323 222 -139 -21 177 -234 184 -363 23 -452 -232 -128 -650 -36 -791 174 -97 144 -164 130 -141 -30 50 -348 -479 -435 -841 -139 -91 75 -175 227 -221 403 -16 63 -32 117 -35 119 -3 1 -54 28 -115 59 -716 367 -1106 1294 -872 2076 76 255 37 285 -72 56 -72 -151 -85 -164 -103 -96 -39 146 -7 404 72 572 38 79 39 96 15 221 -57 303 -8 660 131 948 102 212 -35 124 -145 -93 -129 -255 -171 -483 -145 -791 14 -173 12 -196 -36 -319 -76 -196 -76 -491 1 -705 36 -102 54 -191 54 -273 0 -188 38 -417 102 -617 32 -100 58 -196 58 -213 0 -47 -153 -174 -274 -228 -149 -65 -131 -98 50 -93 l142 4 114 -123 c170 -185 212 -321 125 -414 -186 -199 -704 -146 -798 83 -55 132 -139 106 -139 -43 0 -282 -398 -460 -690 -309 -142 74 -176 148 -161 353 14 203 -12 228 -120 112 -172 -183 -584 -198 -650 -23 -66 173 391 616 562 546 161 -67 143 9 -60 250 -407 482 -455 620 -514 1475 -63 899 649 1702 1483 1672 264 -10 208 88 -75 133 -92 14 -93 31 -15 203 150 331 458 692 754 884 200 130 196 126 326 345 197 331 509 611 870 780 152 71 174 90 281 233 256 341 528 574 869 744 221 111 580 232 580 196 0 -5 -18 -61 -40 -125 -22 -64 -51 -195 -63 -291 -50 -369 67 -298 176 108 173 646 800 999 1404 791z m2617 -973 c110 -198 100 -274 -29 -231 -129 42 -134 50 -86 128 22 38 41 93 41 123 0 76 25 69 74 -20z m814 -2666 c336 -213 549 -567 597 -989 l23 -210 75 -50 c489 -323 562 -1425 149 -2246 -92 -183 -96 -165 76 -326 451 -421 225 -862 -300 -588 -156 82 -214 69 -166 -37 33 -71 -3 -190 -86 -284 -223 -254 -561 -129 -594 219 -16 166 -71 173 -123 15 -107 -329 -610 -487 -788 -248 -62 84 -63 232 -3 392 82 217 42 239 -118 65 -161 -173 -484 -246 -640 -144 -195 128 139 602 543 772 143 60 192 120 98 120 -65 0 -68 64 -13 225 88 254 287 473 538 589 151 71 175 117 47 94 -116 -21 -265 -86 -368 -160 -111 -79 -107 -91 -64 212 81 578 373 1000 814 1180 103 42 155 100 90 100 -61 -1 -241 -61 -353 -118 l-123 -62 13 206 c10 153 5 259 -21 415 l-34 210 206 211 c114 116 248 275 297 353 104 165 102 164 228 84z m-7323 -3982 c113 -150 123 -171 77 -154 -28 10 -78 54 -109 98 -31 44 -83 100 -115 124 -63 46 -71 74 -34 111 28 28 18 38 181 -179z"
       id="path1" />
    <path
       d="M6065 8627 c-34 -14 -31 -47 6 -88 23 -26 32 -87 35 -242 16 -818 1154 -1072 1476 -330 44 104 53 112 114 113 138 0 262 91 232 169 -16 40 -23 39 -119 -9 -92 -48 -101 -46 -439 63 -734 238 -1220 358 -1305 324z m330 -168 c60 -21 60 -22 50 -146 -33 -417 466 -540 639 -158 21 47 43 85 49 85 47 0 353 -111 360 -131 28 -72 -169 -314 -322 -396 -122 -65 -441 -62 -577 5 -259 128 -406 398 -365 670 15 101 43 114 166 71z"
       id="path2" />
    <path
       d="M4663 8268 c-308 -154 -474 -485 -326 -651 207 -232 803 103 808 454 3 224 -233 321 -482 197z m296 -87 c98 -53 49 -236 -98 -368 -160 -144 -341 -193 -421 -113 -165 165 301 597 519 481z"
       id="path3" />
    <path
       d="M9380 7880 c-58 -58 -46 -128 24 -136 40 -5 62 7 88 47 63 96 -31 170 -112 89z"
       id="path4" />
    <path
       d="M8744 7816 c-45 -45 -27 -97 43 -126 88 -37 153 -19 153 41 0 83 -138 143 -196 85z"
       id="path5" />
    <path
       d="M5690 7580 c-7 -12 33 -75 89 -142 114 -137 118 -151 60 -225 -53 -67 -65 -67 -161 11 -113 91 -137 52 -47 -77 l70 -100 -71 -119 c-91 -150 -49 -175 80 -48 l84 83 116 -102 c64 -55 123 -101 132 -101 46 0 28 49 -62 163 -115 147 -113 141 -56 218 55 74 59 74 170 -11 165 -126 192 -87 56 80 l-91 111 51 74 c89 131 58 166 -59 64 l-70 -62 -125 102 c-132 107 -146 113 -166 81z"
       id="path6" />
    <path
       d="M3630 7355 c-248 -88 -509 -391 -510 -592 -1 -425 651 -334 879 122 161 322 -46 586 -369 470z m254 -156 c161 -161 -167 -581 -458 -587 -235 -5 -228 249 12 475 189 176 343 215 446 112z"
       id="path7" />
    <path
       d="M4760 7203 c-210 -111 -214 -403 -5 -403 234 0 396 320 211 417 -62 33 -126 28 -206 -14z m176 -135 c11 -109 -193 -231 -229 -138 -18 47 33 149 91 180 82 46 131 30 138 -42z"
       id="path8" />
    <path
       d="M3823 6310 c-277 -78 -626 -332 -732 -534 -63 -119 -23 -109 112 29 340 347 923 527 1335 413 15 -5 31 2 35 15 30 79 -535 137 -750 77z"
       id="path9" />
    <path
       d="M2643 6097 c-259 -129 -295 -497 -48 -497 279 0 485 415 253 512 -88 37 -102 36 -205 -15z m177 -107 c62 -75 -105 -299 -214 -286 -49 5 -57 15 -62 82 -12 140 199 296 276 204z"
       id="path10" />
    <path
       d="M5420 5689 c0 -5 47 -66 106 -135 118 -139 234 -322 284 -449 45 -111 79 -112 62 -1 -24 151 -129 337 -265 471 -108 106 -187 155 -187 114z"
       id="path11" />
    <path
       d="M6976 5595 c-29 -47 -72 -128 -94 -180 -22 -52 -47 -95 -54 -95 -28 0 -258 125 -369 201 -116 79 -159 95 -159 61 0 -27 232 -246 326 -306 181 -117 170 -92 119 -250 -75 -233 -52 -250 75 -56 101 156 70 154 261 15 179 -129 173 -119 119 -225 -79 -155 -45 -183 65 -52 l74 88 218 -97 c195 -87 471 -179 538 -179 56 0 19 37 -70 70 -106 39 -534 256 -593 300 -34 26 -35 37 -12 120 33 117 22 125 -59 41 l-67 -69 -158 122 c-197 153 -186 119 -116 346 81 264 65 317 -44 145z"
       id="path12" />
    <path
       d="M828 3355 c38 -247 274 -560 516 -685 123 -64 184 -53 86 15 -172 118 -368 353 -464 554 -104 215 -161 264 -138 116z"
       id="path13" />
    <path
       d="M1644 2895 c29 -99 441 -208 666 -176 196 27 332 142 148 125 -259 -25 -552 -11 -667 32 -138 51 -157 53 -147 19z"
       id="path14" />
  </g>
  <ellipse
     style="fill:#007105;stroke-width:0.623504;fill-opacity:1"
     id="path24-4"
     ry="5.90415"
     rx="15.157931"
     cy="-275.62573"
     cx="509.26218"
     transform="matrix(0.69635025,0.71770212,-0.75623426,0.65430096,0,0)" />
  <path
     style="fill:#ffffff;stroke-width:0.909091"
     d="m 300.45455,628.10667 c -18.3843,-4.85024 -28.89648,-15.79318 -35.0886,-36.52638 l -2.5146,-8.4197 -8.25902,-4.45232 c -20.72476,-11.17241 -36.57462,-27.44477 -47.55405,-48.82167 -8.35324,-16.26375 -12.09742,-28.80244 -13.97265,-46.79242 -1.36123,-13.05882 -0.22578,-25.63365 3.72548,-41.25902 3.22859,-12.76752 3.42756,-15.27994 1.17575,-14.84629 -0.94602,0.18219 -3.54555,4.08227 -6.48722,9.7328 -4.28458,8.23005 -5.0374,9.21118 -5.92141,7.7172 -1.33608,-2.25798 -1.17022,-20.50209 0.23456,-25.80251 0.59632,-2.25 2.35165,-7.45261 3.90074,-11.56138 l 2.81651,-7.47046 -1.48229,-9.51728 c -3.28495,-21.09149 -0.77064,-39.90293 8.105,-60.63952 3.62029,-8.45828 3.81733,-9.90227 1.35124,-9.90227 -4.00263,0 -13.96445,17.31643 -18.30442,31.81819 -1.82309,6.09178 -2.06585,9.09424 -2.27861,28.18181 -0.22559,20.23934 -0.36074,21.71867 -2.56821,28.10986 -5.02993,14.56299 -5.04189,31.63798 -0.033,47.10505 1.38904,4.28922 2.65137,11.15888 3.21797,17.51237 1.65491,18.55682 3.59982,29.82467 7.32706,42.44924 2.06399,6.99097 3.42577,13.25234 3.13457,14.41257 -0.71418,2.84554 -8.31918,8.98968 -16.67203,13.46947 -8.51911,4.56895 -9.40829,6.54224 -3.35686,7.44972 2.33256,0.34979 6.65497,0.41709 9.60534,0.14955 l 5.36433,-0.48642 6.84939,7.4143 c 8.36301,9.05275 12.72232,17.15151 11.93776,22.17809 -1.51843,9.72841 -19.85869,16.26279 -35.39724,12.61153 -11.25231,-2.64408 -16.66962,-6.44551 -20.70363,-14.52816 -1.32618,-2.65718 -4.10997,-4.29897 -6.0429,-3.56391 -1.47863,0.56228 -3.01808,5.31124 -3.01808,9.31027 0,1.82722 -1.06671,5.46284 -2.37049,8.07917 -7.5662,15.18339 -32.7176,19.87065 -47.229628,8.80179 -5.413111,-4.12879 -6.311721,-6.84642 -6.097924,-18.44178 0.183283,-9.94037 -0.603127,-14.75998 -2.40837,-14.75998 -0.483279,0 -3.178783,2.01277 -5.990008,4.4728 -7.957948,6.96382 -15.763919,10.00487 -25.798103,10.05043 -10.045246,0.0456 -17.3782,-4.24323 -17.3782,-10.16402 0,-7.02476 9.475884,-19.80547 20.325255,-27.41392 8.888754,-6.23351 12.99407,-7.12729 21.254608,-4.62741 2.777547,0.84057 3.628485,-1.64786 1.831207,-5.35505 -0.76578,-1.57956 -5.93687,-8.48637 -11.491312,-15.34849 -15.992404,-19.75747 -21.29842,-28.49807 -25.440255,-41.90777 -4.039592,-13.07869 -8.073745,-52.04946 -7.077651,-68.37163 2.689433,-44.06951 33.571458,-83.03968 74.689061,-94.25047 4.10415,-1.119 10.8826,-1.91873 19.09091,-2.25237 7,-0.28452 13.44318,-0.8889 14.31818,-1.34305 4.33963,-2.25244 -1.29713,-6.16987 -11.76812,-8.17859 -7.26838,-1.39435 -7.93767,-2.16509 -6.18754,-7.12549 2.28136,-6.46606 10.04388,-20.58397 15.67251,-28.50406 7.81085,-10.99068 26.24852,-29.16002 37.05587,-36.51658 12.2943,-8.36872 13.29883,-9.3942 20.52117,-20.94911 15.83403,-25.33262 31.79613,-39.91565 59.29925,-54.17597 10.80074,-5.60016 10.9404,-5.71397 18.15867,-14.79596 11.03844,-13.88851 17.61801,-21.07201 26.11182,-28.50854 15.14364,-13.25863 33.74102,-23.775816 54.87379,-31.032214 11.65256,-4.001164 15.6765,-4.629633 14.78611,-2.309334 -3.45802,9.011491 -6.94132,26.563238 -6.91871,34.862248 0.0385,14.12616 6.35894,7.0954 12.71216,-14.140825 5.44285,-18.193239 11.12342,-27.815789 23.13014,-39.18116 8.42687,-7.976731 19.47342,-14.188983 30.50742,-17.156459 8.52116,-2.291673 25.44242,-2.095706 34.67594,0.401587 16.09151,4.352102 30.27079,14.081991 43.30042,29.712952 8.10277,9.72047 9.86298,11.381184 12.0631,11.381184 2.75416,0 2.89295,-3.159254 0.45751,-10.414312 -1.27333,-3.793182 -2.31515,-7.144912 -2.31515,-7.44829 0,-0.800538 5.82851,0.227449 22.27273,3.928293 20.81464,4.684426 21.16007,4.738145 22.79239,3.544565 1.3015,-0.951678 1.27811,-1.252211 -0.24366,-3.13151 -0.92581,-1.143342 -4.48362,-3.7847 -7.90624,-5.869684 C 549.40169,62.614987 546.54788,60.5 546.4825,60 c -0.0654,-0.5 2.83161,-2.384006 6.43775,-4.186681 19.55173,-9.773746 41.24172,-5.855533 56.5745,10.219969 5.12089,5.368943 10.9598,14.874377 10.9598,17.841971 0,2.467571 -4.13389,4.500076 -16.36364,8.045516 -11.35076,3.290616 -12.55855,5.412849 -5.58563,9.814665 2.76077,1.74279 3.93511,3.30018 5.074,6.72908 3.09524,9.31887 11.27153,15.58797 30.51163,23.39448 20.90726,8.48295 33.14384,15.92547 44.35861,26.97974 10.27338,10.12633 15.64139,20.4453 15.64139,30.06751 0,5.01285 -2.17697,12.91907 -3.84032,13.94708 -0.51857,0.32049 -3.50165,-2.24882 -6.62906,-5.70958 -9.2443,-10.22967 -18.59898,-13.75852 -38.62153,-14.56917 -43.77793,-1.77242 -103.94492,18.66048 -169.10681,57.42922 -17.49731,10.4102 -24.72354,14.08711 -27.68544,14.08711 -2.76205,0 -2.74923,0.20616 -0.48048,-7.72727 1,-3.49682 1.81818,-7.07507 1.81818,-7.95166 0,-2.48301 -3.19669,-1.92429 -6.72753,1.17584 -3.89296,3.41805 -6.38935,9.69493 -6.38935,16.06523 0,4.02042 0.40609,5.2312 2.43503,7.26014 1.99744,1.99744 3.21688,2.42019 6.78572,2.35247 6.50298,-0.12339 12.76436,-2.89072 32.18803,-14.22612 48.1792,-28.11673 77.47365,-41.25611 110.79901,-49.69647 33.55001,-8.49724 70.13651,-9.83033 80.66932,-2.93932 2.43622,1.59387 2.42491,1.5977 -7.58137,2.57407 -10.54202,1.02863 -12.17886,1.51103 -12.17886,3.5893 0,1.88922 2.3835,2.85643 10.9424,4.44043 4.23169,0.78315 11.62691,2.29938 16.43385,3.3694 l 8.73989,1.94547 2.1692,6.9237 c 2.99232,9.55091 3.00729,23.76527 0.036,34.19193 -6.92268,24.29275 -28.05723,52.63997 -53.46755,71.71462 -7.78584,5.84458 -26.15717,15.82339 -38.72033,21.03187 -7.33888,3.04257 -8.8484,4.45339 -6.25185,5.84302 4.02753,2.15547 23.54065,-4.04153 39.9981,-12.70263 4.68386,-2.46498 8.83447,-4.28502 9.22361,-4.04452 1.41665,0.87554 3.12977,16.65604 3.10792,28.62868 -0.035,19.1837 -3.98346,33.99986 -12.57436,47.18422 -10.05119,15.42544 -24.39413,24.95414 -43.3405,28.79316 -9.74056,1.97369 -28.61762,1.32876 -39.93276,-1.3643 -4.25,-1.01152 -8.85227,-1.84963 -10.22727,-1.86247 -4.38093,-0.0409 -2.80011,2.46783 3.42805,5.44026 22.12574,10.55964 44.63573,11.84699 65.43558,3.74225 4,-1.55861 7.57955,-2.83573 7.95455,-2.83803 2.09261,-0.0128 -0.93792,23.8585 -4.84674,38.17764 -9.05913,33.18616 -42.62397,63.09175 -87.65326,78.09728 -17.54406,5.84637 -35.94326,9.00383 -60.30075,10.3481 l -5.7553,0.31763 -3.33561,-4.07378 C 439.47899,554.27883 417.34969,539.6284 394.92531,531.00683 l -8.71106,-3.34918 -1.13036,-8.82882 c -1.61946,-12.64891 -5.034,-29.68274 -7.32791,-36.5561 -1.08464,-3.25 -4.2596,-10.71504 -7.05543,-16.58898 l -5.08336,-10.6799 5.78744,-6.13829 c 3.18309,-3.37605 5.84548,-6.24637 5.91642,-6.37846 0.0709,-0.1321 4.79365,1.99991 10.49489,4.73779 22.13178,10.62827 44.61531,12.29491 66.72951,4.94645 C 462.75369,449.44377 475,442.9488 475,441.32304 c 0,-1.58106 -5.78622,-0.89267 -15.11457,1.7982 -5.06302,1.46048 -12.58146,3.14904 -16.70765,3.75238 -9.11621,1.33296 -25.57844,0.65762 -33.17778,-1.36108 -10.89468,-2.89409 -25.05845,-11.47304 -23.78087,-14.40401 0.26575,-0.60969 1.95809,-4.45768 3.76073,-8.55109 8.35607,-18.97474 11.96738,-47.97214 6.74781,-54.18222 -2.35876,-2.80638 -3.27392,-1.10313 -4.02431,7.4898 -2.28589,26.17703 -14.79793,53.77461 -29.73198,65.57929 l -4.56767,3.61054 -5.11095,-4.83379 c -16.83501,-15.92205 -40.66246,-28.33442 -55.82156,-29.07897 -9.20959,-0.45234 -6.87333,1.47474 12.29231,10.13933 11.42062,5.16314 22.29001,12.57006 31.56045,21.5068 17.07378,16.45916 27.49595,37.10966 31.96139,63.32829 0.99874,5.86407 1.69084,12.60308 1.538,14.97555 -0.27686,4.29756 -0.29247,4.31647 -4.19588,5.0841 -2.35225,0.4626 -3.77719,1.19896 -3.56568,1.84263 0.55302,1.68301 6.7489,4.84031 15.66548,7.98284 30.05389,10.59206 57.32909,29.99097 64.75001,46.05208 3.70329,8.01504 0.80106,13.18054 -9.04903,16.10569 -5.89364,1.75023 -8.25795,1.73967 -14.39961,-0.0643 -6.59981,-1.9385 -9.80072,-4.00129 -19.48319,-12.55573 -10.4866,-9.26489 -10.53258,-9.30053 -12.95454,-10.0386 -3.87463,-1.18076 -2.34115,3.41977 4.66952,14.00887 9.6706,14.60673 10.70415,19.74951 5.09614,25.35752 -8.32983,8.32985 -27.90407,9.16898 -43.17475,1.85088 -5.94661,-2.84977 -9.27584,-5.60053 -13.95226,-11.52803 -6.5112,-8.25312 -9.22956,-7.192 -9.22956,3.60277 0,8.18856 -1.05385,10.91319 -5.84984,15.12412 -6.03332,5.29732 -17.91942,7.03277 -28.69561,4.18973 z M 98.636364,490.98736 c 0,-0.70694 -2.556819,-3.33266 -5.681819,-5.83492 -11.21701,-8.98173 -20.21865,-20.10763 -27.888129,-34.46934 -2.713471,-5.08119 -5.816216,-10.34545 -6.89499,-11.69837 -2.809671,-3.52367 -4.325465,-2.18351 -3.553046,3.14133 2.693083,18.56537 22.146003,42.74109 39.330877,48.87969 4.280298,1.52896 4.687107,1.52737 4.687107,-0.0184 z m 65.263556,-7.7494 c 4.95443,-2.19383 7.41696,-4.87042 5.54521,-6.02724 -0.55788,-0.34479 -6.79763,-0.35493 -13.86609,-0.0225 -15.78935,0.74249 -28.95721,-0.47125 -38.33948,-3.53393 -8.55162,-2.79153 -10.33266,-2.01602 -5.78501,2.51896 5.75824,5.74221 21.73813,9.79851 37.18181,9.43814 8.64051,-0.20161 11.28899,-0.61344 15.26356,-2.37339 z M 541.36364,364.49374 c 0,-0.88337 -2.64821,-2.62123 -7.04546,-4.62353 -13.08497,-5.95828 -34.29803,-16.83489 -37.36329,-19.15735 -2.67111,-2.02381 -2.96952,-2.65591 -2.42964,-5.14639 2.36634,-10.91599 1.49871,-12.0001 -4.55089,-5.68639 l -3.80488,3.97099 -8.90902,-6.92553 c -13.39238,-10.41073 -12.9207,-9.22811 -9.09055,-22.79245 3.1464,-11.14287 3.98958,-17.31491 2.36544,-17.31491 -1.69457,0 -5.8693,6.10417 -10.38618,15.18636 -2.56002,5.14751 -5.03119,9.3591 -5.49149,9.3591 -1.22005,0 -15.0772,-7.66087 -24.06906,-13.30649 -7.79238,-4.89251 -11.04317,-5.9579 -11.04317,-3.61919 0,1.94188 16.50037,17.25818 24.16221,22.42833 3.76892,2.54325 7.06652,5.18159 7.328,5.863 0.26149,0.68142 -0.58048,4.7007 -1.87102,8.93175 -1.29056,4.23104 -2.34646,9.0576 -2.34646,10.72567 v 3.03287 l 2.70875,-2.70979 c 1.48981,-1.49038 4.45572,-5.34785 6.59091,-8.57216 2.13519,-3.2243 4.32628,-5.99734 4.86908,-6.16231 1.01634,-0.30887 13.43321,8.26428 17.87672,12.34288 3.08323,2.83003 3.1191,4.4296 0.22727,10.13635 -2.53053,4.99375 -2.92291,8.18181 -1.00701,8.18181 0.69614,0 3.54273,-2.45944 6.32575,-5.46543 l 5.06003,-5.46545 12.64643,5.40935 c 10.93058,4.67541 27.506,10.71038 33.33844,12.13823 3.80024,0.93036 5.90909,0.65937 5.90909,-0.75932 z M 392.27273,329.71045 c 0,-10.92887 -10.9929,-29.66014 -23.15875,-39.46115 -9.56046,-7.70208 -10.46855,-5.16135 -1.93353,5.40982 8.3858,10.38637 13.75483,18.62469 18.38129,28.20452 4.13502,8.56224 6.71099,10.80651 6.71099,5.84681 z M 183.63636,290.50773 c 7.8912,-4.34974 13.18182,-13.11558 13.18182,-21.84048 0,-3.14236 -0.5508,-4.39987 -2.99992,-6.84899 -1.64995,-1.64995 -4.67223,-3.50095 -6.71618,-4.11333 -3.39625,-1.01755 -4.17517,-0.90387 -9.04553,1.32015 -6.15978,2.81282 -11.47836,7.59736 -14.22108,12.7931 -2.68512,5.08667 -2.74262,13.88115 -0.11396,17.43023 3.93269,5.3097 11.67819,5.79948 19.91485,1.25932 z m 30.44833,-10.50193 c 9.40867,-8.78385 15.68365,-13.26805 25.46076,-18.19466 19.13573,-9.64234 40.14439,-13.35264 58.13633,-10.26737 3.49354,0.59908 6.65711,0.784 7.03017,0.41095 1.55254,-1.55255 -1.63814,-3.88086 -7.52306,-5.48976 -9.2871,-2.53902 -37.73988,-2.66703 -44.91616,-0.20207 -17.04021,5.85309 -36.45263,19.86447 -44.83584,32.36134 -3.17183,4.72825 -4.36582,9.10304 -2.48444,9.10304 0.47384,0 4.58336,-3.47466 9.13224,-7.72147 z m 25.66039,-47.99726 c 16.54864,-6.00684 29.43388,-21.29738 30.50394,-36.1981 1.36553,-19.01546 -13.94545,-27.08296 -33.33253,-17.56323 -8.78552,4.314 -20.93211,16.13974 -25.45407,24.78171 -6.55057,12.51888 -4.13804,24.85219 5.73885,29.33805 5.39898,2.45209 15.23158,2.29576 22.54381,-0.35843 z M 405,214.84297 c 0,-1.4868 -1.90782,-4.59313 -6.95666,-11.32691 -2.67384,-3.56616 -4.86152,-7.20937 -4.86152,-8.09601 0,-2.17244 4.30141,-7.69278 5.99417,-7.69278 0.74591,0 3.48645,1.57018 6.0901,3.48928 8.04359,5.9288 10.643,6.8771 10.643,3.88271 0,-1.65098 -2.98811,-6.28264 -8.50985,-13.19054 l -2.60078,-3.25366 2.76369,-4.32753 c 6.034,-9.44838 4.14446,-12.26779 -3.81416,-5.69117 -2.42028,2 -4.69041,3.63637 -5.04473,3.63637 -0.35431,0 -4.21335,-2.86364 -8.57562,-6.36364 -7.7345,-6.20564 -9.90524,-7.28533 -11.02023,-5.48124 -0.76843,1.24333 1.30802,4.88801 7.18085,12.6042 2.79146,3.66763 5.07538,7.1196 5.07538,7.67102 0,1.51141 -3.90507,6.92383 -5.41782,7.5091 -0.73641,0.28491 -3.64971,-1.12472 -6.54649,-3.16758 -9.03637,-6.37263 -10.52606,-4.2128 -4.04352,5.86248 l 3.99218,6.20472 -2.60809,4.23869 c -8.29499,13.48107 -5.81897,16.58349 5.05426,6.33292 l 4.56948,-4.30779 7.94881,6.69495 c 5.00736,4.21749 8.45556,6.5005 9.31819,6.16948 C 404.38378,215.95103 405,215.32235 405,214.84297 Z m -78.95157,-3.56189 c 6.80184,-3.44655 11.67554,-12.5314 10.39228,-19.3718 -1.79829,-9.58568 -15.68216,-10.60171 -24.49158,-1.7923 -3.73114,3.73114 -5.33722,7.35725 -5.41051,12.21546 -0.15354,10.17743 8.89446,14.32751 19.50981,8.94864 z m 147.40322,-47.6348 c 13.95364,-3.63446 24.53096,-12.45639 31.79269,-26.51643 l 4.25276,-8.23413 4.90817,-0.50657 c 6.24453,-0.64449 11.98482,-3.56069 13.75781,-6.98929 1.68921,-3.26656 1.70451,-3.79363 0.17097,-5.89086 -1.15833,-1.58412 -1.45651,-1.54668 -6.80763,0.85476 -4.25941,1.9115 -6.52171,2.40517 -9.47042,2.06656 -2.1308,-0.24468 -13.69236,-3.55898 -25.69236,-7.36511 -37.4236,-11.869918 -63.06231,-18.678355 -75.90909,-20.157888 -3.69846,-0.425942 -5.46766,-0.228047 -6.79655,0.760228 -1.78364,1.326458 -1.78218,1.364838 0.20164,5.337048 1.53342,3.070392 2.20827,6.761652 2.90144,15.870152 0.99971,13.13663 3.12789,20.52404 8.18124,28.399 6.39439,9.96479 19.29978,18.99061 31.87586,22.29345 6.6013,1.73369 20.1268,1.77385 26.63347,0.0791 z m -154.5122,-3.92119 c 18.01236,-8.92548 28.24238,-26.11921 23.00234,-38.66037 -3.43206,-8.2141 -13.78201,-11.60365 -25.18588,-8.24823 -19.5817,5.76162 -35.74771,27.83247 -30.48316,41.61752 2.86694,7.50696 7.30412,9.88708 17.55849,9.41844 6.5648,-0.30003 8.39133,-0.79901 15.10821,-4.12736 z m 276.10705,-5.68068 c 2.25979,-2.25979 1.72339,-4.94759 -1.58728,-7.95362 -3.24026,-2.9421 -10.1799,-2.57056 -11.76796,0.63002 -1.5231,3.06968 0.0614,6.04643 4.11475,7.7301 4.54304,1.88711 7.0575,1.77649 9.24049,-0.4065 z m 38.44998,-7.4797 c 1.55923,-3.19157 1.57387,-3.59466 0.20631,-5.68182 -3.78248,-5.7728 -13.77178,1.67928 -10.48454,7.82155 0.79698,1.48916 1.72997,1.7951 4.79472,1.57225 3.39158,-0.24662 3.98765,-0.65012 5.48351,-3.71198 z"
     id="path15"
     transform="scale(0.75)" />
  <path
     style="fill:#ffffff;stroke-width:0.909091"
     d="m 221.81818,223.90198 c -4.87184,-2.79399 -5.49905,-9.33275 -1.64339,-17.13258 4.40563,-8.9124 17.7214,-20.52084 26.13895,-22.78745 7.17075,-1.93088 13.85799,2.16508 14.78199,9.05402 1.1558,8.61709 -9.6033,23.12327 -21.59462,29.1154 -6.13007,3.06324 -14.03035,3.84536 -17.68293,1.75061 z"
     id="path16"
     transform="scale(0.75)" />
  <path
     style="fill:#ffffff;stroke-width:0.909091"
     d="m 297.05675,153.61023 c -5.48283,-3.84032 -2.30818,-13.90589 7.14674,-22.65947 6.67097,-6.17615 13.12334,-9.58609 19.33042,-10.21574 3.89157,-0.39476 5.07109,-0.13647 7.24845,1.58727 2.39977,1.89981 2.56947,2.43341 2.19812,6.91142 -0.31042,3.74326 -1.20029,6.01115 -3.89239,9.91996 -3.56533,5.17669 -12.0275,11.97102 -18.03684,14.48188 -4.22928,1.76711 -11.45411,1.75404 -13.9945,-0.0253 z"
     id="path17"
     transform="scale(0.75)" />
  <path
     style="fill:#ffffff;stroke-width:0.270677"
     d="m 171.83295,285.86086 c -1.23567,-0.5582 -1.70055,-1.44682 -1.95803,-3.74277 -0.38946,-3.47286 0.35756,-6.22165 2.51092,-9.23931 2.76773,-3.87863 7.27281,-6.85357 10.80842,-7.13738 3.92681,-0.31521 6.20216,2.23884 5.3574,6.01361 -1.08285,4.83869 -6.03113,11.16288 -10.515,13.43877 -2.06704,1.04917 -4.72518,1.335 -6.20371,0.66708 z"
     id="path19"
     transform="scale(0.75)" />
  <path
     style="fill:#ffffff;stroke-width:0.270677"
     d="m 315.74525,206.48533 c -0.82646,-0.33113 -1.63783,-1.30511 -1.90081,-2.28175 -0.57457,-2.13378 1.0915,-6.50729 3.51456,-9.2259 2.2135,-2.4835 6.50629,-4.32722 8.69989,-3.73654 2.09974,0.5654 3.34667,3.43443 2.68727,6.18309 -1.02555,4.27497 -6.64973,8.96766 -10.97082,9.15382 -0.89324,0.0385 -1.80678,-0.003 -2.03009,-0.0927 z"
     id="path20"
     transform="scale(0.75)" />
  <path
     style="fill:#ffffff;stroke-width:0.482195"
     d="m 697.45065,609.7851 c -5.36056,-1.71508 -10.04851,-6.04556 -12.78691,-11.81185 -1.54351,-3.2502 -2.18792,-5.77713 -3.50129,-13.7297 -0.61263,-3.70954 -1.59393,-5.36887 -3.17505,-5.36887 -1.471,0 -2.79612,1.82227 -4.37455,6.01578 -3.876,10.29758 -9.63296,16.70516 -19.27471,21.45306 -6.01737,2.96314 -10.85771,4.01611 -17.30656,3.76491 -6.81979,-0.26566 -9.82544,-1.35643 -13.75012,-4.98998 -3.72742,-3.45094 -4.92929,-6.23116 -5.24272,-12.12767 -0.28563,-5.37344 0.26675,-8.46265 2.99829,-16.76817 2.47367,-7.52146 2.90611,-9.87604 2.03306,-11.07001 -0.61002,-0.83424 -0.70279,-0.83414 -2.46627,0.003 -1.00782,0.47824 -4.16201,3.16404 -7.00931,5.96843 -6.09211,6.00032 -10.86439,9.07371 -17.71646,11.40958 -13.56242,4.62342 -26.5178,2.36394 -28.99357,-5.05661 -0.7274,-2.1802 -0.68985,-3.62321 0.18368,-7.05966 3.4951,-13.74963 20.45293,-31.00636 38.56832,-39.24812 7.65861,-3.48434 10.36719,-5.36279 10.36719,-7.18981 0,-1.08498 -0.88867,-1.5212 -3.09897,-1.5212 -3.30347,0 -4.03833,-3.39396 -2.18385,-10.08609 5.10271,-18.41372 17.84531,-33.8542 35.25468,-42.71884 7.43877,-3.78773 10.53249,-5.8741 10.53249,-7.10299 0,-0.93147 -0.20948,-0.97205 -3.761,-0.72862 -7.11807,0.48788 -17.11115,4.53613 -26.35296,10.67572 -2.63931,1.75337 -4.97873,3.18794 -5.19873,3.18794 -1.16526,0 -0.86617,-4.02364 1.358,-18.26902 5.84706,-37.44937 23.94836,-63.89831 52.34908,-76.49051 7.46005,-3.30761 11.00501,-6.2619 9.02175,-7.51855 -0.98217,-0.62233 -1.80547,-0.53435 -6.7405,0.72032 -6.30457,1.60287 -13.09998,4.22586 -20.36094,7.8592 l -6.19492,3.09991 0.27466,-1.8352 c 0.15108,-1.00936 0.51474,-6.28345 0.80814,-11.72019 0.61984,-11.4853 0.30128,-16.42603 -2.02584,-31.42015 l -1.54619,-9.96249 10.41258,-10.86414 c 11.38021,-11.87372 17.22633,-18.61845 21.47402,-24.77483 5.56034,-8.05886 6.85047,-9.74422 8.07158,-10.54433 1.21064,-0.79324 1.34538,-0.76589 4.75697,0.96575 7.45928,3.78613 18.33229,13.16054 24.66191,21.26281 8.16921,10.45706 13.89914,22.90658 16.86678,36.6468 0.95657,4.42887 3.13431,20.44611 3.13431,23.05272 0,0.41961 1.90925,2.07061 4.24278,3.66887 13.41427,9.18761 22.33794,25.10183 26.34466,46.9823 1.65937,9.06174 2.20202,15.55209 2.20014,26.31469 -0.002,13.89117 -1.20354,24.89516 -4.16204,38.13018 -2.99137,13.38208 -6.64461,23.7818 -13.2529,37.72718 -4.52119,9.541 -5.02669,11.54696 -3.59178,14.25324 0.37971,0.71615 3.79799,4.35594 7.59617,8.08842 9.34215,9.18056 14.03375,16.21251 16.04904,24.05489 3.47635,13.528 -5.60704,22.95853 -19.79968,20.55635 -4.75518,-0.80484 -7.25483,-1.67087 -15.08312,-5.22573 -7.10815,-3.22785 -10.56095,-4.10585 -11.87096,-3.01865 -0.98338,0.81615 -0.91505,2.21099 0.27403,5.59353 1.42669,4.05845 1.02378,7.48217 -1.47903,12.56806 -2.16908,4.40771 -6.39547,9.17186 -10.37156,11.69123 -5.14801,3.26192 -11.7766,4.23039 -17.16182,2.50742 z"
     id="path21"
     transform="scale(0.75)" />
  <path
     style="fill:#ffffff;stroke-width:0.482195"
     d="m 452.50473,154.99183 c -7.87459,-0.83605 -12.60564,-2.5304 -18.78759,-6.72849 -12.67902,-8.61015 -20.20472,-24.64835 -18.35046,-39.10708 0.65114,-5.07732 1.49218,-7.03309 3.20981,-7.46419 2.87996,-0.72283 10.11933,1.58914 10.83014,3.45871 0.23978,0.63065 0.30297,3.62813 0.14043,6.66108 -0.35078,6.54541 0.25083,10.27528 2.38141,14.76424 3.93369,8.28796 13.44767,13.27495 22.23613,11.65561 4.0402,-0.74443 6.63132,-1.88183 9.98251,-4.3819 3.32357,-2.47947 5.56374,-5.37648 8.45411,-10.93298 1.22935,-2.36332 2.43839,-4.55096 2.68677,-4.86141 0.34059,-0.42573 1.24483,-0.34392 3.67912,0.33287 4.97914,1.38432 12.98039,4.24857 16.84954,6.03172 3.13385,1.44428 3.49542,1.75172 3.4912,2.96855 -0.0169,4.86838 -10.27793,17.52927 -18.84086,23.24738 -3.69559,2.46781 -7.73062,3.72895 -13.98416,4.37068 -5.45033,0.55931 -8.60213,0.55598 -13.9781,-0.0148 z"
     id="path22"
     transform="scale(0.75)" />
  <path
     style="fill:#ffffff;stroke-width:0.482195"
     d="m 641.28401,124.40629 c -3.50061,-0.94426 -7.88771,-2.96783 -8.2003,-3.78242 -0.14687,-0.38274 0.48237,-2.184 1.39831,-4.00281 1.93556,-3.84352 3.2204,-7.87913 3.2204,-10.1151 0,-3.27207 1.60311,-2.10382 4.71283,3.43442 4.28275,7.62734 5.52415,12.93471 3.37719,14.4385 -1.26058,0.88295 -1.33509,0.8834 -4.50843,0.0274 z"
     id="path23"
     transform="scale(0.75)" />
  <ellipse
     style="fill:#007105;stroke-width:0.623504;fill-opacity:1"
     id="path24"
     ry="5.90415"
     rx="15.157931"
     cy="399.28119"
     cx="455.89865"
     transform="matrix(0.88865272,-0.45858079,0.40717221,0.91335141,0,0)" />
</svg>
