<?xml version="1.0" encoding="UTF-8" standalone="no"?>
<svg
   version="1.0"
   width="600.000000pt"
   height="600.000000pt"
   viewBox="0 0 600.000000 600.000000"
   preserveAspectRatio="xMidYMid meet"
   id="svg15"
   sodipodi:docname="frog9_t1.svg"
   inkscape:version="1.4.3 (0d15f75, 2025-12-25)"
   xmlns:inkscape="http://www.inkscape.org/namespaces/inkscape"
   xmlns:sodipodi="http://sodipodi.sourceforge.net/DTD/sodipodi-0.dtd"
   xmlns="http://www.w3.org/2000/svg"
   xmlns:svg="http://www.w3.org/2000/svg">
  <defs
     id="defs15" />
  <sodipodi:namedview
     id="namedview15"
     pagecolor="#505050"
     bordercolor="#ffffff"
     borderopacity="1"
     inkscape:showpageshadow="0"
     inkscape:pageopacity="0"
     inkscape:pagecheckerboard="1"
     inkscape:deskcolor="#505050"
     inkscape:document-units="pt"
     inkscape:zoom="0.53064629"
     inkscape:cx="512.58249"
     inkscape:cy="153.5863"
     inkscape:window-width="1496"
     inkscape:window-height="910"
     inkscape:window-x="1920"
     inkscape:window-y="142"
     inkscape:window-maximized="0"
     inkscape:current-layer="svg15" />
  <g
     transform="translate(0.000000,600.000000) scale(0.066667,-0.066667)"
     fill="#000000"
     stroke="none"
     id="g15">
    <path
       d="M4095 8675 c-485 -72 -865 -322 -1168 -767 -474 -696 -255 -1111 609 -1153 l199 -10 0 -51 c0 -28 -11 -120 -24 -206 l-24 -154 -62 19 c-536 160 -1053 -376 -892 -925 16 -54 15 -55 -108 -194 -318 -361 -574 -878 -642 -1300 l-25 -154 -113 0 c-412 -2 -725 -296 -781 -734 -52 -412 196 -903 605 -1197 39 -29 67 -59 62 -67 -18 -29 -194 -102 -245 -102 -265 0 -373 -370 -152 -520 115 -79 263 -58 382 55 153 144 285 150 226 10 -84 -201 50 -408 263 -406 181 1 288 111 298 305 8 174 66 203 175 89 230 -239 618 -3 467 284 l-26 49 124 -10 c236 -17 250 -155 34 -342 -92 -79 -118 -141 -109 -256 23 -273 393 -321 530 -69 82 150 212 130 273 -43 54 -152 148 -225 289 -225 256 0 378 281 203 469 -74 80 16 119 112 49 177 -128 299 -134 426 -24 110 98 111 261 2 371 -59 59 -62 65 -32 70 251 46 427 113 599 230 l118 80 -10 -49 c-13 -68 -152 -195 -239 -218 -293 -79 -265 -489 35 -511 100 -7 155 15 250 102 125 115 195 95 180 -52 -21 -209 97 -353 291 -353 210 0 343 220 246 407 -65 126 46 123 186 -5 185 -169 436 -121 501 96 20 67 -1 179 -43 225 -81 89 138 152 248 71 55 -39 166 -65 230 -53 352 66 263 581 -94 544 -75 -8 -301 32 -327 58 -3 3 23 38 58 78 236 269 358 720 277 1031 -93 355 -431 559 -780 469 l-45 -12 -42 121 -43 120 110 118 c375 400 331 935 -108 1304 -39 33 -40 37 -21 99 75 250 15 519 -153 690 l-65 66 0 119 0 120 132 7 c352 20 454 268 266 650 -204 416 -621 531 -975 271 -80 -59 -81 -59 -65 10 132 570 -894 1411 -1593 1306z m318 -131 c548 -105 1168 -669 1170 -1064 1 -279 -240 -441 -783 -527 -491 -77 -1244 -101 -1530 -49 -487 89 -595 369 -317 827 363 598 931 914 1460 813z m1916 -1195 c319 -145 506 -676 271 -770 -89 -36 -302 -31 -560 13 -617 104 -706 240 -364 559 220 206 469 282 653 198z m-936 -394 c-70 -166 12 -303 221 -369 31 -10 56 -22 56 -26 0 -25 -140 -260 -155 -260 -10 0 -57 -19 -105 -41 l-88 -42 -149 37 c-101 25 -148 43 -148 58 0 11 -37 109 -83 216 -45 107 -86 220 -91 251 l-9 57 103 19 c128 24 300 79 392 126 84 43 84 43 56 -26z m-641 -243 c19 -62 60 -173 93 -246 98 -216 98 -277 2 -337 -126 -80 -395 -116 -683 -92 l-133 11 -69 70 c-38 39 -93 89 -121 112 l-51 42 25 155 c14 85 25 192 25 237 l0 83 124 9 c68 4 198 12 289 17 90 6 225 18 300 29 74 10 142 20 150 21 9 1 31 -49 49 -111z m1181 -201 c74 -15 170 -33 213 -39 l79 -10 0 -139 0 -139 -46 -19 c-53 -22 -86 -16 -351 66 -195 60 -191 55 -114 183 34 56 61 107 61 114 0 16 6 16 158 -17z m-2376 -261 c114 -27 198 -79 306 -189 116 -119 146 -127 472 -128 380 -1 590 64 671 209 17 30 122 17 263 -31 53 -19 63 -17 164 32 145 69 163 68 472 -37 145 -49 239 -57 321 -29 160 56 300 -396 202 -658 l-29 -78 132 -134 c479 -484 365 -1000 -302 -1359 -51 -28 -79 -52 -79 -70 0 -41 34 -35 177 32 152 71 133 85 219 -156 226 -632 223 -928 -15 -1717 -29 -93 -48 -182 -44 -196 19 -59 276 -224 380 -243 116 -22 183 -109 153 -200 -46 -140 -203 -162 -316 -44 -135 141 -333 162 -383 41 -25 -58 -17 -127 17 -156 72 -59 -3 -243 -106 -263 -145 -27 -219 54 -214 232 3 102 -2 138 -22 168 -70 105 -260 97 -342 -14 -76 -103 -212 -113 -283 -22 -74 94 -15 205 130 244 40 11 95 49 164 112 l104 96 26 162 c21 128 37 179 79 250 147 251 247 616 251 912 4 289 -62 309 -92 28 -65 -613 -274 -1042 -603 -1233 -294 -171 -764 -228 -992 -120 l-99 47 -10 85 c-12 104 -53 259 -130 493 -96 293 -121 545 -74 764 13 62 -11 89 -51 56 -99 -82 -88 -536 20 -856 68 -202 102 -327 128 -481 l25 -143 183 -80 c220 -97 281 -118 374 -129 134 -17 208 -127 155 -230 -58 -112 -208 -121 -300 -18 -67 74 -241 91 -307 30 -48 -45 -28 -224 25 -224 56 0 78 -157 30 -217 -101 -129 -300 -78 -335 85 -51 242 -369 288 -463 66 -79 -184 -339 -156 -339 37 0 50 9 69 49 105 249 223 270 317 125 554 -368 603 -469 1182 -298 1715 59 183 -4 201 -83 25 -188 -417 -129 -1007 155 -1556 53 -101 87 -184 77 -184 -239 2 -734 250 -1081 544 -234 197 -226 87 9 -133 118 -110 332 -256 499 -339 66 -34 149 -89 184 -123 34 -34 83 -80 108 -102 116 -102 7 -288 -151 -257 -27 6 -70 34 -101 68 -169 183 -400 94 -368 -141 22 -159 -138 -272 -279 -199 -87 45 -112 146 -60 247 106 208 -103 312 -334 166 -39 -25 -71 -52 -71 -61 0 -60 -179 -95 -255 -50 -154 91 -55 320 139 320 31 0 106 29 197 76 145 76 146 76 220 59 147 -36 152 14 10 89 -656 348 -971 1065 -679 1545 327 538 1146 369 1420 -294 43 -104 98 -117 82 -20 -47 294 -302 582 -608 686 l-98 33 4 64 c28 423 460 1266 743 1451 64 42 65 47 23 170 -152 448 260 921 709 816z m3537 -2714 c438 -219 380 -959 -111 -1419 -118 -110 -125 -151 -20 -112 63 23 68 23 211 -23 117 -38 172 -47 275 -47 127 0 130 -1 180 -51 159 -159 -53 -340 -256 -219 -127 75 -261 63 -362 -32 -61 -58 -147 -41 -302 59 -123 80 -123 78 -71 229 215 628 237 1150 68 1595 -37 95 211 108 388 20z"
       id="path1" />
    <path
       d="M4052 8438 c-229 -72 -269 -360 -67 -488 216 -137 504 -8 502 226 -1 203 -214 330 -435 262z m237 -90 c202 -105 122 -368 -111 -368 -201 1 -317 199 -190 321 84 80 202 98 301 47z"
       id="path2" />
    <path
       d="M4858 8006 c-160 -107 -141 -344 36 -429 272 -132 504 185 286 391 -85 81 -231 98 -322 38z m251 -78 c59 -39 88 -121 67 -192 -58 -194 -364 -118 -340 84 15 128 157 184 273 108z"
       id="path3" />
    <path
       d="M3373 7805 c-67 -12 -197 -100 -240 -162 -251 -369 243 -749 552 -426 247 258 39 649 -312 588z m203 -114 c95 -54 122 -102 121 -221 0 -333 -506 -394 -543 -66 -26 223 230 397 422 287z"
       id="path4" />
    <path
       d="M4590 7415 c-195 -64 -164 -320 38 -320 189 0 232 236 57 309 -52 22 -59 23 -95 11z m117 -130 c48 -100 -106 -166 -161 -68 -19 35 -19 44 5 80 37 57 127 50 156 -12z"
       id="path5" />
    <path
       d="M6210 7219 c-111 -56 -132 -201 -45 -307 93 -113 221 -134 311 -51 166 152 -64 461 -266 358z m198 -106 c90 -89 56 -228 -55 -228 -92 0 -184 110 -165 196 21 97 139 114 220 32z"
       id="path6" />
    <path
       d="M5765 7013 c-138 -60 -94 -255 57 -255 160 0 197 194 49 256 -59 25 -47 25 -106 -1z m107 -82 c48 -54 -7 -122 -81 -99 -40 13 -50 52 -23 93 28 43 68 45 104 6z"
       id="path7" />
    <path
       d="M3360 5971 c-260 -79 -356 -386 -183 -587 218 -254 618 -101 618 238 0 234 -224 413 -435 349z m256 -150 c102 -102 -19 -257 -133 -169 -54 42 -61 127 -13 174 50 51 92 49 146 -5z"
       id="path8" />
    <path
       d="M5871 5887 c-268 -118 -231 -532 55 -608 342 -92 527 436 209 597 -76 39 -190 44 -264 11z m279 -112 c62 -62 22 -180 -61 -180 -41 0 -89 58 -89 108 0 92 88 134 150 72z"
       id="path9" />
    <path
       d="M5310 5039 c-34 -63 29 -136 90 -104 34 18 41 88 12 117 -28 28 -84 21 -102 -13z"
       id="path10" />
    <path
       d="M4908 5022 c-42 -42 -4 -132 55 -132 37 0 62 30 62 75 0 47 -25 75 -67 75 -18 0 -40 -8 -50 -18z"
       id="path11" />
    <path
       d="M5595 4619 c-574 -50 -1560 -254 -1560 -323 0 -62 63 -69 257 -28 991 209 1406 262 1875 240 240 -12 281 2 239 80 -24 45 -453 61 -811 31z"
       id="path12" />
    <path
       d="M7245 7785 c0 -11 5 -16 10 -10 6 6 6 14 0 20 -5 6 -10 1 -10 -10z"
       id="path13" />
    <path
       d="M8640 6945 c0 -11 5 -15 10 -10 6 6 6 15 0 20 -5 6 -10 1 -10 -10z"
       id="path14" />
    <path
       d="M7665 6225 c0 -11 5 -15 10 -10 6 6 6 15 0 20 -5 6 -10 1 -10 -10z"
       id="path15" />
  </g>
  <path
     style="fill:#ff6600;stroke-width:0.378757"
     d="m 380.272,263.74926 c -1.35406,-0.0541 -6.72294,-0.39584 -11.93085,-0.75938 l -9.46892,-0.661 -6.62825,-6.42796 c -3.64553,-3.53538 -8.55394,-8.04253 -10.90756,-10.0159 -3.82337,-3.20565 -4.25742,-3.69319 -4.07375,-4.57583 0.53195,-2.55622 2.88227,-18.20808 3.41866,-22.76642 0.33093,-2.81227 0.70752,-8.03215 0.83686,-11.59972 l 0.23516,-6.48651 2.6887,-0.23725 c 1.47879,-0.13048 9.84722,-0.66475 18.5965,-1.18726 23.79955,-1.4213 31.08535,-2.06203 45.45084,-3.99704 4.58296,-0.61732 8.66587,-1.16254 9.07314,-1.2116 1.11317,-0.1341 2.14262,2.00918 4.77809,9.94786 2.89568,8.72248 5.10867,14.51005 8.97916,23.48293 4.27501,9.91065 5.4805,13.78888 5.53339,17.80158 0.0479,3.63721 -0.59305,5.30529 -2.85918,7.44074 -6.4723,6.09905 -20.80302,10.05276 -40.27612,11.1118 -6.50743,0.3539 -7.78299,0.36727 -13.44587,0.14096 z"
     id="path16"
     transform="scale(0.75)" />
  <path
     style="fill:#ff6600;stroke-width:0.378757"
     d="m 536.50925,251.32238 c -10.23471,-2.66162 -27.15354,-7.9873 -30.07102,-9.4657 -3.95616,-2.00474 -3.80611,-2.7506 2.78522,-13.84498 1.42328,-2.39564 3.07593,-5.42096 3.67254,-6.72294 0.72594,-1.5842 1.30276,-2.36657 1.74381,-2.36523 0.36248,0.001 4.38251,0.76668 8.93339,1.70127 12.59892,2.58738 27.0441,5.11435 29.23563,5.11435 0.097,0 0.17635,5.52694 0.17635,12.28207 v 12.28208 l -3.01783,1.1638 c -4.11808,1.5881 -6.9104,1.55807 -13.45809,-0.14472 z"
     id="path17"
     transform="scale(0.75)" />
  <path
     style="fill:#ff0000;stroke-width:0.378757"
     d="m 313.23201,188.25272 c -17.22301,-0.80231 -28.32153,-2.63675 -38.21611,-6.31662 -22.71847,-8.4492 -30.28641,-23.93996 -22.89066,-46.85471 5.63867,-17.4707 21.72527,-41.435892 39.18957,-58.383104 21.36467,-20.732097 45.02807,-33.065076 70.58747,-36.789042 6.23504,-0.908435 19.10566,-0.911437 25.37672,-0.0059 5.84882,0.844549 14.19205,2.89059 19.81131,4.858396 41.16137,14.414297 81.06833,51.715071 88.03355,82.28438 1.59666,7.00751 0.88199,15.98267 -1.7458,21.92457 -9.63324,21.78247 -44.06464,33.12076 -115.18923,37.9319 -20.37572,1.3783 -50.78433,2.01035 -64.95682,1.35015 z m -2.08316,-19.73575 c 11.68118,-2.83913 22.05722,-13.19022 25.2181,-25.15746 1.02625,-3.88545 1.11954,-10.58968 0.19763,-14.20338 -3.44599,-13.50753 -14.05395,-22.54777 -27.49889,-23.4349 -9.89876,-0.65314 -15.60216,1.45413 -25.51173,9.42597 -4.54321,3.65482 -8.08688,9.0406 -10.08965,15.33458 -1.28866,4.04979 -1.49091,11.12745 -0.43705,15.2949 1.95984,7.75011 6.46255,13.95542 13.42105,18.49592 7.35578,4.79973 16.17827,6.31573 24.70054,4.24437 z m 103.61587,0.5999 c 4.25566,-0.53379 8.51998,-3.77734 10.45949,-7.95578 0.90574,-1.95131 1.05569,-2.75552 1.0608,-5.68932 0.005,-3.09958 -0.10894,-3.65017 -1.23171,-5.93083 -2.5323,-5.14384 -8.73707,-9.19447 -14.10199,-9.20613 -2.05769,-0.004 -2.92833,0.21923 -5.3026,1.36247 -3.9524,1.90313 -6.12302,3.94758 -7.80544,7.3517 -2.87833,5.82392 -1.88902,12.14257 2.57832,16.46758 2.49361,2.41415 8.20347,4.33716 11.66599,3.92896 0.52079,-0.0614 1.7255,-0.20929 2.67714,-0.32865 z m 38.30796,-40.71581 c 7.14048,-2.21746 13.25249,-8.78593 14.71049,-15.8091 0.6465,-3.11416 0.2772,-8.8543 -0.7411,-11.51908 -1.95262,-5.109844 -6.6537,-10.492859 -11.29231,-12.930376 -7.40601,-3.891751 -16.21759,-4.121641 -22.86293,-0.596482 -4.3395,2.301979 -8.35423,7.254389 -9.92307,12.240709 -1.21688,3.867669 -1.18045,9.571829 0.0858,13.442559 1.6907,5.16803 5.29597,9.60104 10.11961,12.44298 2.46215,1.45063 6.8795,3.05548 9.59529,3.48604 2.89567,0.45907 7.47465,0.12269 10.30818,-0.75725 z m -76.2095,-30.459454 c 10.59281,-1.897217 19.00726,-9.205594 21.4058,-18.592021 0.67503,-2.641667 0.77933,-8.703359 0.19463,-11.312384 -1.5943,-7.114099 -6.39351,-13.069941 -13.35023,-16.567713 -4.70535,-2.365804 -7.91269,-3.087917 -13.93155,-3.136609 -5.57538,-0.0451 -9.04822,0.550795 -13.31568,2.284815 -16.3029,6.624466 -20.61854,27.018512 -8.28389,39.146564 7.0052,6.887877 17.28178,9.968239 27.28092,8.177348 z"
     id="path18"
     transform="scale(0.75)" />
  <path
     style="fill:#ff0000;stroke-width:0.378757"
     d="m 556.39399,216.45967 c -18.63243,-1.7675 -42.88688,-6.69615 -53.32234,-10.83541 -12.03711,-4.77457 -17.01718,-10.30611 -15.69234,-17.43004 1.14976,-6.18253 7.66121,-14.92345 18.26124,-24.51374 17.30976,-15.66087 36.17885,-22.50974 51.32157,-18.62807 9.58306,2.4565 19.31452,9.96106 27.28247,21.03925 2.81949,3.92007 7.616,13.35811 9.05362,17.81471 3.22275,9.99052 3.27632,18.9858 0.14802,24.8551 -2.06902,3.88188 -5.34722,6.12141 -10.79121,7.3721 -3.61838,0.83128 -18.93115,1.02143 -26.26103,0.3261 z m -36.1614,-17.26739 c 6.02647,-1.11405 10.02717,-5.55802 10.02717,-11.13817 0,-5.13295 -2.70479,-8.93616 -8.28838,-11.65428 -4.11393,-2.00269 -5.33695,-2.02558 -9.17455,-0.17173 -3.37806,1.63185 -5.5346,3.58798 -6.8081,6.17543 -0.7581,1.54028 -0.91318,2.41763 -0.89816,5.08117 0.0153,2.70841 0.17462,3.52003 1.00386,5.11322 1.8194,3.49554 4.93357,5.86136 8.68619,6.59885 2.34396,0.46065 2.93845,0.46016 5.45197,-0.004 z m 50.93292,-5.88143 c 11.43142,-5.37271 12.91463,-19.28529 3.20212,-30.03589 -2.03377,-2.25113 -6.63368,-5.19291 -9.50819,-6.08075 -7.84827,-2.42409 -16.4939,0.97003 -19.95899,7.83554 -2.01282,3.98807 -2.2886,9.80729 -0.67826,14.31167 2.20755,6.1749 8.7674,12.56009 14.98914,14.59004 3.59181,1.17189 8.70513,0.90642 11.95418,-0.62061 z"
     id="path19"
     transform="scale(0.75)" />
  <path
     style="fill:#ececec;stroke-width:0.378757"
     d="m 296.94546,160.40583 c -6.20619,-1.4008 -11.62793,-5.56478 -14.12808,-10.85058 -1.75756,-3.7158 -2.30983,-6.2351 -2.31308,-10.55144 -0.005,-6.39275 2.2805,-11.86368 7.0555,-16.89051 5.63739,-5.9347 12.56558,-8.80591 20.2395,-8.38773 4.28562,0.23354 7.01062,1.07128 10.79202,3.31777 7.31315,4.34467 9.76916,8.91485 9.7844,18.207 0.0199,12.15971 -6.74197,21.16647 -18.50792,24.65229 -3.36016,0.9955 -9.65521,1.24063 -12.92234,0.5032 z"
     id="path20"
     transform="scale(0.75)" />
  <path
     style="fill:#ececec;stroke-width:0.378757"
     d="m 367.9624,90.284103 c -6.08965,-0.94377 -12.14939,-4.544672 -15.08133,-8.961835 -5.84795,-8.810315 -2.55059,-18.129399 8.2637,-23.355058 3.51614,-1.69906 6.00828,-2.289936 9.6583,-2.289936 3.64921,0 6.13107,0.588432 9.73225,2.30745 4.26815,2.037394 7.264,4.866658 9.10994,8.603394 1.35772,2.748438 1.42127,3.047414 1.42036,6.683038 -8.8e-4,3.497681 -0.0995,4.014078 -1.21773,6.376739 -2.22713,4.705587 -6.58174,8.345637 -11.84844,9.904212 -2.11578,0.626125 -7.96683,1.052838 -10.03705,0.731996 z"
     id="path21"
     transform="scale(0.75)" />
  <path
     style="fill:#ececec;stroke-width:0.378757"
     d="m 444.28192,121.8949 c -4.34446,-0.56602 -7.65061,-2.26645 -10.52803,-5.41482 -2.67161,-2.92316 -3.62479,-5.50634 -3.63829,-9.85999 -0.009,-3.03665 0.11829,-3.68386 1.16974,-5.92802 1.48086,-3.160687 3.67767,-5.379584 6.74893,-6.816799 7.37934,-3.45321 17.13035,-0.123918 20.66481,7.055599 1.61776,3.28615 2.16015,6.71973 1.53759,9.73384 -1.61847,7.83587 -7.92675,12.27613 -15.95475,11.23019 z"
     id="path22"
     transform="scale(0.75)" />
  <path
     style="fill:#ececec;stroke-width:0.378757"
     d="m 408.11063,161.9563 c -1.57056,-0.6922 -3.13218,-2.35261 -4.20645,-4.47258 -1.1877,-2.34382 -1.15308,-2.77017 0.43051,-5.30187 2.39367,-3.82679 6.42568,-5.05262 10.28818,-3.12786 3.77484,1.88109 5.38638,6.47337 3.44447,9.81545 -1.70918,2.94155 -6.74442,4.50261 -9.95671,3.08686 z"
     id="path23"
     transform="scale(0.75)" />
  <path
     style="fill:#ececec;stroke-width:0.378757"
     d="m 514.16259,192.21915 c -2.54441,-1.357 -3.14461,-3.84256 -1.66564,-6.89771 2.05321,-4.24136 6.16458,-4.71758 9.35525,-1.08362 1.55667,1.77295 1.87608,3.55285 0.96617,5.38382 -1.0531,2.11908 -2.39532,2.91879 -5.15636,3.07221 -1.65122,0.0917 -2.70547,-0.0513 -3.49942,-0.4747 z"
     id="path24"
     transform="scale(0.75)" />
  <path
     style="fill:#ececec;stroke-width:0.378757"
     d="m 561.28334,187.14519 c -5.47903,-1.75299 -10.4153,-7.57193 -11.15525,-13.14996 -0.51115,-3.85321 1.54663,-7.94652 4.88219,-9.71161 1.20955,-0.64006 2.22957,-0.83446 4.41376,-0.84121 3.69668,-0.0114 6.91513,1.43084 9.93753,4.45324 2.9899,2.9899 4.23137,5.71478 4.39985,9.6572 0.11911,2.78724 0.0213,3.3657 -0.8816,5.21106 -1.17066,2.39273 -2.8239,3.8014 -5.35562,4.56334 -2.29611,0.69103 -3.63397,0.652 -6.24086,-0.18206 z"
     id="path25"
     transform="scale(0.75)" />
  <path
     style="fill:#ffffff;stroke-width:1.15543"
     d="m 372.62615,734.3778 c -4.99109,-2.21831 -8.09356,-6.16469 -10.38204,-13.20612 -2.32632,-7.15783 -7.04131,-13.00644 -12.61936,-15.65341 -4.87811,-2.31481 -14.7558,-2.41191 -19.05766,-0.18733 -3.66277,1.89409 -8.98377,7.77985 -11.88971,13.15166 -5.48582,10.14086 -20.80322,10.96635 -25.75634,1.38805 -3.59092,-6.94407 -2.54653,-9.70071 7.81915,-20.63846 5.26452,-5.55505 10.46395,-11.98006 11.55429,-14.2778 3.36411,-7.08931 2.61042,-14.51594 -2.45755,-24.21603 -2.442,-4.674 -8.10775,-15.51741 -12.59056,-24.09648 -13.77034,-26.35332 -20.78775,-48.62081 -23.44515,-74.39566 -1.72976,-16.77752 -0.17062,-34.55443 4.6809,-53.37052 3.78885,-14.69464 4.29874,-20.12885 1.88871,-20.12885 -3.9684,0 -10.86559,13.77037 -14.92569,29.7994 -3.65915,14.44612 -3.5987,47.44831 0.11777,64.29369 3.71955,16.85928 10.50389,36.08281 19.15216,54.26789 4.20181,8.83534 7.3886,16.31531 7.08176,16.62216 -1.15345,1.15344 -15.44949,-2.39106 -25.47023,-6.31498 -20.63062,-8.07856 -44.34449,-22.09472 -65.70514,-38.83523 -11.80883,-9.25467 -17.79067,-13.03595 -18.88739,-11.93924 -1.9833,1.98331 2.19856,8.1967 12.17535,18.09009 11.8821,11.78279 23.51558,20.45395 39.48742,29.43248 15.88586,8.93019 24.66115,15.16116 31.60594,22.44203 5.5029,5.76921 6.52325,7.50299 6.52325,11.08427 0,3.27275 -0.88438,5.1297 -3.86036,8.10569 -7.11403,7.11402 -12.58029,6.77158 -21.73807,-1.36183 -9.81467,-8.71682 -18.55731,-10.81184 -26.05096,-6.24268 -5.33199,3.25109 -7.18935,7.72897 -7.55314,18.20971 -0.35456,10.21463 -2.10552,14.01212 -8.16404,17.70623 -6.66687,4.06505 -16.73553,2.25463 -20.95368,-3.76762 -2.51896,-3.59633 -2.24671,-11.09488 0.68057,-18.74432 2.11153,-5.51778 2.28987,-7.13816 1.18976,-10.81 -3.11966,-10.41252 -19.33898,-11.34583 -33.56508,-1.93144 -2.58373,1.70982 -4.99386,4.04194 -5.35585,5.18248 -0.78033,2.45862 -8.42303,5.75603 -13.34123,5.75603 -9.05388,0 -15.85167,-6.768 -14.59233,-14.52839 1.31532,-8.10536 7.77283,-13.3755 17.99518,-14.68631 2.79153,-0.35795 10.59068,-3.3325 17.33145,-6.6101 l 12.25594,-5.95926 8.95458,0.79226 c 7.60799,0.67313 8.95459,0.52677 8.95459,-0.97325 0,-2.20074 -3.53908,-4.96574 -16.74248,-13.08056 -14.07677,-8.65157 -24.90709,-17.70314 -34.14289,-28.53529 -33.235267,-38.97982 -37.074743,-85.87045 -9.33324,-113.98475 12.54357,-12.71213 28.00661,-18.40186 46.14101,-16.97791 28.41244,2.23101 53.57835,20.67482 68.16755,49.95923 5.18796,10.41362 7.63351,13.19951 9.73881,11.0942 2.1489,-2.14889 -0.90405,-14.41936 -6.36974,-25.60151 -3.90306,-7.98517 -6.75252,-11.76902 -15.24258,-20.24082 -11.38605,-11.36157 -21.07753,-17.67169 -33.10017,-21.55153 l -7.63746,-2.46468 0.48367,-5.31294 c 2.42786,-26.6694 20.17662,-69.61377 42.09188,-101.84428 8.05345,-11.84411 18.07948,-23.14823 23.5051,-26.50145 5.33451,-3.2969 5.77488,-5.49807 2.93768,-14.68383 -5.03813,-16.3116 -4.20344,-28.299 2.99023,-42.9441 11.76717,-23.95597 37.89025,-36.36046 61.4821,-29.19465 8.65141,2.62778 14.68883,6.63187 26.35906,17.48163 9.17512,8.53006 12.15987,9.24035 38.78363,9.22936 33.81032,-0.014 46.58691,-3.01958 57.40796,-13.50492 6.32707,-6.13076 6.63053,-6.27653 11.69505,-5.61785 2.85969,0.37193 8.43606,1.69054 12.39194,2.93025 7.83315,2.45477 9.05965,2.26301 21.11552,-3.30137 7.8203,-3.60945 13.99279,-3.08694 32.48107,2.74961 16.7462,5.28659 24.97383,6.4381 34.07067,4.7684 4.11267,-0.75488 5.2037,-0.47598 8.28685,2.11832 10.54619,8.87403 15.34508,37.20475 9.37997,55.37569 l -2.5142,7.6588 10.87406,11.25623 c 12.02533,12.44796 18.18881,21.07508 22.74717,31.83962 2.69191,6.35694 3.03083,8.68872 3.06621,21.09529 l 0.0398,13.94836 -5.10817,10.31567 c -4.15539,8.39157 -6.95725,12.14752 -15.02159,20.13682 -5.45238,5.40163 -13.69129,12.1609 -18.30868,15.02059 -17.93806,11.10957 -19.333,12.15336 -19.70227,14.74262 -0.54906,3.84984 3.20986,3.34585 15.35035,-2.05814 12.64755,-5.62971 12.39309,-5.78621 18.49971,11.37761 19.93626,56.03455 20.30882,80.20737 2.22023,144.05296 -3.42086,12.07424 -6.22376,23.54098 -6.22867,25.48165 -0.006,2.49451 1.09147,4.56159 3.7462,7.05395 7.70572,7.23435 20.14915,14.40309 30.16232,17.37668 7.09244,2.10623 13.45516,8.00764 13.45516,12.47963 0,4.72767 -3.38865,10.87841 -7.03101,12.76193 -6.71024,3.47 -13.42472,1.84782 -20.9793,-5.06848 -7.46015,-6.82986 -14.15939,-9.84648 -22.05437,-9.93094 -6.18874,-0.0662 -7.01023,0.23454 -10.11001,3.70131 -4.22181,4.72161 -4.70946,12.6512 -1.06309,17.2868 8.66822,11.01985 -6.86508,28.29809 -19.54529,21.7409 -5.06971,-2.62165 -6.95276,-7.7208 -7.82176,-21.18064 -0.8295,-12.84811 -2.06777,-15.46516 -8.54336,-18.05618 -8.69711,-3.4799 -17.84871,-1.18204 -24.74966,6.21436 -6.4379,6.90007 -13.44784,8.744 -20.12159,5.29287 -3.17771,-1.64325 -7.03102,-7.89222 -7.03102,-11.4023 0,-3.46675 6.22015,-9.04764 14.42185,-12.93969 5.66579,-2.68865 10.94911,-6.47462 16.4501,-11.78798 l 8.10365,-7.82726 1.46808,-10.39887 c 1.77457,-12.56987 2.92444,-15.96812 10.94122,-32.33478 9.95682,-20.32738 15.35445,-39.24677 17.97027,-62.98819 1.88637,-17.12083 -0.0342,-33.9136 -3.62491,-31.69445 -2.10222,1.29925 -3.20322,5.91144 -5.66537,23.73293 -5.86755,42.4702 -18.26378,72.49102 -37.83233,91.62123 -8.66025,8.46625 -16.65857,13.57105 -28.29381,18.05808 -27.52529,10.61487 -57.61792,12.01891 -75.57287,3.52601 l -6.75626,-3.19579 -1.98566,-11.45053 c -1.09211,-6.29779 -4.15305,-18.46977 -6.80207,-27.04884 -12.68007,-41.06535 -14.23575,-52.7841 -10.71101,-80.68458 l 0.77814,-6.15934 -3.24454,0.38219 c -2.43782,0.28717 -3.83895,1.53135 -5.63517,5.00393 -1.96843,3.80549 -2.46872,7.29144 -2.8328,19.73856 -0.57396,19.62159 1.75076,34.44961 9.17425,58.51697 3.14471,10.19535 7.14114,25.61554 8.88097,34.26709 l 3.1633,15.7301 17.89473,7.72557 c 9.84211,4.24907 22.68374,8.83659 28.53695,10.19449 9.20208,2.13481 11.11743,3.01017 14.15401,6.46865 7.65609,8.7198 1.40623,21.26381 -10.58482,21.24469 -3.74707,-0.006 -4.93641,-0.6065 -14.77103,-7.45803 -3.87915,-2.70251 -6.45915,-3.51881 -12.29645,-3.8905 -9.58494,-0.61032 -13.78763,1.11225 -15.51995,6.3612 -2.07551,6.28888 -0.46372,13.77455 3.61523,16.79024 4.05971,3.00148 5.82503,8.50616 4.54622,14.17619 -1.1582,5.13533 -2.53411,6.82621 -7.45465,9.16116 -4.66107,2.21182 -8.13582,2.26856 -12.77081,0.20852 z m 31.35514,-317.76117 c 31.66199,-6.35619 56.5089,-10.74531 79.56613,-14.05506 8.34076,-1.19728 24.62511,-2.0049 47.37263,-2.34946 19.06459,-0.28878 35.83277,-0.77429 37.26261,-1.07893 1.76141,-0.37528 2.59401,-1.3851 2.58203,-3.13159 -0.0286,-4.17038 -1.47275,-5.36514 -8.13015,-6.72625 -9.73534,-1.9904 -56.69267,-1.6311 -75.04312,0.57421 -34.626,4.16126 -75.81811,11.45691 -101.97044,18.06027 -24.50004,6.18615 -29.90357,8.88099 -26.36266,13.14754 2.56597,3.09179 11.73802,2.18105 44.72297,-4.44073 z m 40.60213,-52.14401 c 5.04456,-3.53335 2.19889,-13.22193 -3.88346,-13.22193 -5.92385,0 -8.46746,8.18973 -3.94745,12.70973 2.78102,2.78103 4.43706,2.88935 7.83091,0.5122 z m 36.57061,-3.4833 c 2.14353,-2.14353 2.40682,-8.68531 0.42916,-10.66297 -2.29821,-2.2982 -7.543,-1.64763 -9.52456,1.18143 -2.3614,3.37138 -2.2722,4.60642 0.59607,8.25282 2.71184,3.44755 5.82975,3.89829 8.49933,1.22872 z M 319.47637,330.04526 c 7.03339,-3.28222 13.41749,-10.11755 16.16226,-17.30463 3.04,-7.96015 2.04497,-21.77763 -2.07445,-28.8069 -5.97954,-10.20333 -15.50779,-15.80762 -26.94529,-15.84861 -12.57613,-0.0451 -23.31306,6.69216 -28.91608,18.14434 -6.27325,12.82205 -3.54783,28.27412 6.71864,38.09212 9.03421,8.63957 23.68163,11.03117 35.05492,5.72368 z m 226.84278,-1.56239 c 9.14291,-5.21877 14.81179,-17.41012 13.72465,-29.51583 -0.7938,-8.83929 -5.07732,-16.05655 -11.90424,-20.0574 -22.70589,-13.30653 -47.41178,4.39453 -42.06707,30.13985 2.23443,10.7632 10.15636,19.31389 20.41934,22.04001 7.05633,1.87436 13.4494,1.03389 19.82732,-2.60663 z"
     id="path26"
     transform="scale(0.75)" />
  <path
     style="fill:#ffffff;stroke-width:1.15543"
     d="m 604.73394,653.44165 c -9.78832,-4.91974 -16.62011,-10.44931 -16.62011,-13.45213 0,-1.2437 2.33843,-9.79327 5.19651,-18.99906 15.34159,-49.41472 17.13856,-90.2917 5.57802,-126.88729 -2.72292,-8.61956 -2.78946,-9.35606 -0.96575,-10.68958 3.24693,-2.37422 10.27341,-2.98617 18.0656,-1.57338 26.52405,4.80903 41.65711,26.26741 39.90897,56.59013 -1.4796,25.6648 -11.9489,47.70006 -33.34982,70.19311 -11.91989,12.52816 -13.58968,17.46187 -4.75643,14.05373 5.05895,-1.9519 9.55262,-1.5422 20.08861,1.83152 7.06647,2.26275 13.18973,3.29254 22.31429,3.75278 11.79962,0.59516 12.81095,0.84113 16.39433,3.98739 5.0136,4.40199 6.9748,10.1457 4.90541,14.36629 -4.19096,8.54759 -13.76904,10.21909 -26.30549,4.59065 -13.03953,-5.85431 -20.52056,-5.29397 -31.67444,2.37242 -3.08987,2.12376 -6.7896,3.86139 -8.22162,3.86139 -1.43203,0 -6.18316,-1.79908 -10.55808,-3.99797 z"
     id="path27"
     transform="scale(0.75)" />
  <path
     style="fill:#ffffff;stroke-width:0.124338"
     d="m 540.37251,302.50843 c -1.89949,-0.39302 -4.20697,-2.37531 -5.60587,-4.81586 -1.26383,-2.20488 -1.63356,-4.47253 -1.12737,-6.91453 1.1118,-5.36363 6.04887,-8.11302 10.50099,-5.84786 2.36717,1.20437 3.99302,3.15515 4.75862,5.70966 0.44567,1.48699 0.47518,3.69072 0.0699,5.22219 -1.0065,3.80374 -3.84078,6.44739 -7.18094,6.69796 -0.47072,0.0353 -1.10763,0.0121 -1.41537,-0.0516 z"
     id="path28"
     transform="scale(0.75)" />
  <path
     style="fill:#ffffff;stroke-width:0.282266"
     d="m 312.67505,299.10146 c -2.91122,-1.22869 -4.58968,-2.78003 -5.87614,-5.43113 -1.18393,-2.43979 -1.36525,-4.79842 -0.57013,-7.41619 0.5048,-1.66195 0.89613,-2.31327 2.27626,-3.78864 4.16987,-4.4576 7.65241,-4.54347 12.15114,-0.29959 2.65664,2.50614 3.74082,4.61855 3.89069,7.58058 0.14491,2.86396 -0.5468,4.86173 -2.39511,6.91749 -2.58723,2.87763 -6.21996,3.81199 -9.47671,2.43748 z"
     id="path29"
     transform="scale(0.75)" />
</svg>
