<?xml version="1.0" encoding="UTF-8" standalone="no"?>
<svg
   version="1.0"
   width="553.000000pt"
   height="600.000000pt"
   viewBox="0 0 553.000000 600.000000"
   preserveAspectRatio="xMidYMid meet"
   id="svg11"
   sodipodi:docname="frog3_t2.svg.svg"
   inkscape:version="1.4.3 (0d15f75, 2025-12-25)"
   xmlns:inkscape="http://www.inkscape.org/namespaces/inkscape"
   xmlns:sodipodi="http://sodipodi.sourceforge.net/DTD/sodipodi-0.dtd"
   xmlns="http://www.w3.org/2000/svg"
   xmlns:svg="http://www.w3.org/2000/svg">
  <defs
     id="defs11" />
  <sodipodi:namedview
     id="namedview11"
     pagecolor="#505050"
     bordercolor="#ffffff"
     borderopacity="1"
     inkscape:showpageshadow="0"
     inkscape:pageopacity="0"
     inkscape:pagecheckerboard="1"
     inkscape:deskcolor="#505050"
     inkscape:document-units="pt"
     inkscape:zoom="0.30973529"
     inkscape:cx="335.77059"
     inkscape:cy="779.69805"
     inkscape:window-width="1024"
     inkscape:window-height="1022"
     inkscape:window-x="0"
     inkscape:window-y="30"
     inkscape:window-maximized="0"
     inkscape:current-layer="svg11" />
  <g
     transform="translate(0.000000,600.000000) scale(0.050000,-0.050000)"
     fill="#000000"
     stroke="none"
     id="g11">
    <path
       d="M8120 11860 c-290 -50 -588 -273 -718 -537 -51 -104 -54 -106 -122 -94 -381 66 -728 52 -964 -39 -26 -10 -46 10 -85 89 -381 752 -1511 628 -1812 -197 l-42 -116 -134 -4 c-293 -9 -602 -121 -815 -295 -83 -67 -150 -101 -255 -130 -375 -103 -699 -374 -887 -743 -48 -92 -81 -128 -172 -182 -377 -227 -761 -761 -823 -1144 -13 -76 -22 -86 -127 -135 -584 -270 -959 -1197 -712 -1757 l33 -73 -101 -207 c-131 -268 -169 -426 -175 -726 -4 -225 -9 -251 -76 -410 -126 -302 -133 -351 -133 -951 0 -656 44 -834 291 -1171 47 -64 69 -115 69 -162 0 -469 433 -1040 983 -1296 l193 -90 14 -130 c73 -675 678 -1034 1075 -637 l100 100 83 -78 c368 -352 912 -236 912 194 l0 76 141 -10 c218 -16 459 114 459 247 0 30 17 32 135 21 74 -7 164 -13 199 -13 l64 0 -27 -65 c-203 -494 292 -846 779 -552 73 44 135 77 138 74 201 -303 425 -471 653 -492 300 -27 559 200 559 491 0 95 4 107 35 94 572 -238 993 267 593 710 -75 82 -73 86 52 130 88 31 85 33 109 -75 57 -260 472 -360 731 -175 l58 41 21 -75 c145 -526 801 -603 1002 -118 l45 108 88 -68 c327 -250 771 -44 720 334 -5 43 -9 78 -7 78 2 0 56 -27 121 -60 255 -130 524 -34 593 212 77 277 -116 548 -556 777 -137 72 -136 76 68 382 696 1042 767 2185 178 2894 l-112 135 48 95 c324 640 92 1497 -520 1921 l-63 44 50 121 c298 740 -26 1697 -750 2214 -73 52 -122 101 -117 116 254 659 -387 1430 -1087 1309z m389 -253 c465 -164 656 -670 429 -1134 -54 -110 -24 -165 76 -140 90 22 371 -199 570 -450 566 -711 494 -1649 -171 -2257 -111 -101 -138 -146 -88 -146 36 0 239 97 279 133 164 149 226 -604 84 -1028 -26 -80 -48 -152 -48 -159 0 -27 117 100 152 166 47 87 61 82 160 -66 319 -471 320 -1156 3 -1806 l-102 -210 -2 -450 c-3 -496 -24 -647 -192 -1403 -102 -459 -102 -454 16 -560 379 -341 467 -521 321 -656 -98 -91 -248 -44 -451 141 -124 115 -265 92 -265 -43 0 -500 -608 -522 -673 -24 -31 234 -110 262 -328 113 -244 -167 -479 -126 -479 83 0 88 55 154 215 258 611 395 981 834 1151 1361 113 353 128 620 34 620 -47 0 -52 -11 -94 -220 -176 -866 -843 -1577 -1793 -1908 -222 -78 -212 -79 -437 26 l-188 87 -93 238 c-236 608 -346 1114 -386 1771 -13 218 -33 269 -96 244 -180 -69 10 -1272 331 -2098 126 -324 96 -291 406 -441 493 -237 643 -440 462 -621 -99 -99 -191 -94 -430 22 -288 140 -345 112 -291 -148 100 -479 -334 -631 -663 -231 -268 327 -302 339 -530 191 -215 -140 -335 -153 -457 -50 -122 103 -103 252 63 498 125 186 131 159 -130 608 -454 781 -584 1191 -584 1832 1 471 45 658 253 1075 133 267 117 324 -42 140 -583 -679 -509 -1839 199 -3085 100 -178 179 -335 173 -349 -28 -74 -498 -50 -552 28 -147 215 -354 357 -661 453 -186 59 -184 53 -80 206 576 844 459 2136 -253 2802 -215 201 -280 151 -95 -73 738 -898 753 -2044 37 -2846 -153 -172 -147 -185 117 -231 485 -84 814 -328 727 -537 -63 -151 -207 -155 -482 -13 -278 142 -359 96 -214 -121 127 -189 126 -320 -1 -403 -176 -114 -348 -38 -578 253 -155 196 -237 205 -271 29 -110 -580 -806 -241 -807 393 0 154 -15 172 -216 258 -499 212 -842 578 -943 1007 -30 126 -27 131 57 102 127 -45 125 12 -4 125 -885 776 -508 2709 605 3105 430 154 860 53 1305 -305 193 -156 225 -162 131 -26 -488 709 -1447 744 -2102 77 l-178 -181 14 108 c43 330 234 697 415 799 589 331 1094 1565 718 1753 -79 39 -83 54 -52 173 78 301 320 657 597 877 122 97 133 96 133 -10 0 -871 1516 -729 1945 181 188 399 -33 866 -451 955 -30 6 -77 16 -105 22 -172 35 386 258 615 245 l106 -6 17 -130 c21 -149 21 -176 3 -380 -20 -224 58 -308 107 -115 37 146 64 168 134 110 188 -156 299 -109 146 62 -635 715 463 1744 1140 1068 95 -95 223 -323 223 -398 1 -195 130 -261 171 -88 45 184 512 250 973 137 202 -50 217 -44 265 101 137 413 589 648 980 510z m-4743 -1279 c644 -219 352 -1105 -446 -1356 -602 -190 -1032 59 -912 527 150 584 841 1005 1358 829z m-2258 -2160 c214 -82 -57 -879 -437 -1285 -349 -373 -466 -349 -469 96 -5 616 539 1330 906 1189z m8498 -326 c508 -354 680 -1110 379 -1668 -60 -110 -69 -106 -114 56 -41 144 -163 379 -276 529 l-82 108 5 222 c4 227 -27 432 -89 587 -31 78 -30 83 15 152 56 87 58 87 162 14z m658 -2313 c352 -670 229 -1527 -344 -2389 -307 -463 -306 -539 10 -709 296 -159 428 -289 444 -436 25 -217 -162 -263 -383 -95 -177 133 -202 145 -287 132 -69 -11 -83 -3 -212 116 l-137 127 112 557 c138 693 161 893 148 1285 l-10 308 96 202 c162 341 258 753 260 1118 l0 165 115 -120 c63 -66 147 -184 188 -261z"
       id="path1" />
    <path
       d="M8082 11307 c-280 -139 -341 -485 -124 -708 334 -344 886 -27 753 432 -81 277 -371 405 -629 276z m458 -187 c127 -127 -50 -303 -185 -185 -79 70 -13 225 95 225 28 0 68 -18 90 -40z"
       id="path2" />
    <path
       d="M5212 11230 c-328 -125 -425 -544 -179 -773 419 -388 1019 157 686 624 -98 139 -345 211 -507 149z m395 -211 c144 -113 -13 -313 -163 -208 -89 62 -24 249 86 249 14 0 48 -19 77 -41z"
       id="path3" />
    <path
       d="M7733 10027 c-29 -29 -12 -148 27 -187 114 -114 213 42 105 165 -31 35 -106 47 -132 22z"
       id="path4" />
    <path
       d="M7171 9989 c-64 -65 -18 -229 64 -229 80 0 115 166 48 227 -45 41 -72 42 -112 2z"
       id="path5" />
    <path
       d="M9421 9552 c-18 -23 -11 -42 35 -95 32 -37 82 -106 112 -153 60 -96 102 -94 81 3 -37 170 -170 314 -228 245z"
       id="path6" />
    <path
       d="M7557 9339 c-790 -66 -2017 -417 -2017 -578 0 -101 69 -102 338 -2 1109 408 2077 495 3066 277 214 -47 256 -37 256 57 0 155 -979 302 -1643 246z"
       id="path7" />
    <path
       d="M2795 8619 c-988 -153 -1517 -1411 -811 -1930 443 -327 1200 -209 1666 260 735 740 177 1831 -855 1670z m428 -148 c844 -179 825 -1240 -31 -1662 -791 -390 -1556 43 -1362 771 165 621 788 1019 1393 891z"
       id="path8" />
    <path
       d="M4900 7344 c0 -70 406 -374 698 -522 1077 -548 2437 -541 3082 16 123 106 99 113 -87 22 -1029 -502 -2383 -358 -3498 371 -107 71 -195 121 -195 113z"
       id="path9" />
    <path
       d="M8971 6046 c-875 -547 -2049 -579 -3081 -84 -99 47 -189 90 -200 95 -60 27 79 -95 192 -169 966 -629 2598 -530 3237 197 87 100 64 94 -148 -39z"
       id="path10" />
    <path
       d="M1126 4951 c-437 -123 -677 -500 -607 -952 184 -1188 1897 -1122 1815 70 -43 620 -625 1046 -1208 882z m447 -99 c855 -228 846 -1506 -12 -1567 -551 -40 -986 412 -934 968 42 457 468 726 946 599z"
       id="path11" />
  </g>
  <path
     style="fill:#ffffff;stroke-width:1.9892"
     d="m 407.78663,764.91286 c -3.28218,-2.11592 -10.71558,-9.25708 -16.51864,-15.86925 -5.80308,-6.61219 -12.67472,-12.55515 -15.27034,-13.20662 -3.28719,-0.82502 -8.59429,0.98257 -17.48895,5.95675 -15.05568,8.41962 -21.70171,8.94833 -28.3914,2.25862 -6.54462,-6.5446 -6.16529,-11.35087 2.07961,-26.35063 3.82922,-6.96639 6.96222,-14.99054 6.96222,-17.8314 0,-2.84086 -6.33249,-16.23611 -14.07218,-29.76721 -15.5212,-27.13528 -27.78792,-54.02278 -32.72993,-71.74093 -1.95549,-7.01082 -3.65105,-23.26946 -4.31592,-41.38533 -1.26967,-34.59397 0.67225,-45.13581 13.40838,-72.7884 11.77207,-25.55941 10.11681,-31.44439 -3.86804,-13.75222 -16.3751,20.71606 -24.02329,45.16341 -23.96208,76.59461 0.0722,37.06603 8.90357,68.0863 33.12978,116.36838 9.05785,18.05201 16.47502,33.58799 16.4826,34.52439 0.008,0.93637 -7.09748,1.37957 -15.78899,0.98487 -15.73143,-0.7144 -15.83445,-0.75466 -22.82592,-8.92265 -8.23498,-9.6207 -22.01161,-18.69338 -35.96645,-23.68588 -5.4703,-1.95708 -10.74418,-4.25327 -11.71972,-5.1027 -0.98822,-0.86043 1.00363,-5.87255 4.49764,-11.31747 15.81471,-24.6451 23.24072,-55.23351 21.56334,-88.82154 -1.32174,-26.46734 -4.84162,-40.41351 -15.81557,-62.66334 -11.60223,-23.52366 -39.30435,-51.27302 -39.30435,-39.37138 0,1.37579 4.84713,9.20828 10.7714,17.40553 21.91791,30.32729 30.70983,53.80872 32.42922,86.61197 1.76054,33.58845 -8.23769,63.6677 -30.41255,91.49494 -5.93938,7.45335 -10.79887,14.30613 -10.79887,15.22845 0,2.32552 6.5221,4.73733 23.28715,8.61136 16.52083,3.81762 33.92335,13.45956 38.2471,21.191 2.2362,3.99863 2.49271,6.73898 1.02406,10.94062 -2.87268,8.21837 -11.33398,8.31978 -30.78031,0.36887 -21.07515,-8.61687 -23.26671,-6.81286 -13.90268,11.44419 6.30092,12.28492 6.55439,13.50247 3.82365,18.36762 -3.5525,6.32923 -11.1912,9.31216 -18.93312,7.39341 -3.34154,-0.82816 -11.37951,-7.25619 -19.19167,-15.34775 -8.38736,-8.68735 -14.72431,-13.67586 -16.85205,-13.2661 -2.01844,0.38873 -4.8829,4.70886 -7.01924,10.58632 -6.19444,17.04202 -14.93366,20.76277 -29.51653,12.56673 -12.67293,-7.1226 -21.65183,-24.35904 -21.6786,-41.6156 -0.0136,-8.76389 -2.12867,-10.70303 -23.881534,-21.89498 -27.287824,-14.03971 -48.516201,-38.58694 -52.993671,-61.27867 -1.229449,-6.23082 -0.991146,-6.68776 2.950279,-5.65706 7.87463,2.05927 6.674693,-2.48958 -3.631328,-13.76602 C 20.964785,576.69189 12.679551,553.37503 12.660721,519.182 12.622665,450.07538 55.971542,392.81056 108.62176,392.41534 c 21.8565,-0.16405 38.0305,6.65047 66.90095,28.18711 3.54224,2.64242 7.032,4.21285 7.75501,3.48984 2.21241,-2.21241 -9.66208,-17.54133 -19.80398,-25.5652 C 127.57032,370.12173 78.845416,374.39822 41.618576,409.2221 l -12.765006,11.94103 1.273661,-6.68824 c 4.086461,-21.45883 15.686835,-41.86737 29.108173,-51.21005 40.376136,-28.10608 69.267636,-101.66707 45.934866,-116.95529 -6.268925,-4.10756 -5.608868,-9.07506 3.71237,-27.93872 5.8712,-11.88172 33.15156,-44.31556 37.27416,-44.31556 0.83946,0 2.09324,4.27389 2.78618,9.49753 2.59653,19.5736 17.01068,31.29737 41.26406,33.56219 33.03468,3.08483 71.39534,-17.52383 86.95384,-46.71458 11.91254,-22.35019 7.4051,-47.10742 -11.16067,-61.3005 -4.51372,-3.45064 -11.83044,-6.8861 -16.2594,-7.63436 -4.42894,-0.74827 -8.05264,-2.057603 -8.05264,-2.909634 0,-4.498867 43.68732,-16.742211 47.20137,-13.228153 0.80877,0.808762 1.61258,11.032968 1.78626,22.720457 0.40566,27.29975 0.25593,26.22299 3.64641,26.22299 1.66448,0 3.92145,-3.39612 5.28788,-7.95681 1.31114,-4.37625 2.91358,-7.95092 3.56095,-7.94371 0.64737,0.007 3.86246,1.79159 7.14464,3.9653 6.91598,4.58028 12.92982,5.1701 12.92982,1.26813 0,-1.49066 -2.63339,-6.02398 -5.85198,-10.07404 -17.22214,-21.671242 -15.22794,-47.500547 5.18613,-67.172271 20.28683,-19.549114 49.36178,-20.828731 67.97907,-2.991827 7.2919,6.986244 16.23331,22.933972 16.23331,28.953429 0,2.10329 1.63447,5.84264 3.63215,8.309666 3.95033,4.87846 3.86169,4.92468 12.39361,-6.462744 2.22597,-2.970986 7.36329,-6.322774 11.41627,-7.448418 10.21227,-2.836291 32.74646,-2.458935 47.96122,0.803157 7.00886,1.502717 13.85156,2.306958 15.20602,1.787203 1.35447,-0.519757 4.22881,-5.194847 6.38745,-10.389092 14.17835,-34.116885 52.97342,-44.654903 79.24862,-21.526533 16.98664,14.952228 21.8798,33.060429 14.89048,55.105293 -5.59111,17.634787 -5.41881,19.892027 1.51842,19.892027 10.12743,0 31.53233,18.63062 45.47509,39.58108 12.18833,18.31422 17.33394,35.82425 17.3042,58.88448 -0.0201,15.59823 -1.00938,22.683 -4.58295,32.82185 -5.31656,15.08395 -18.38397,35.46946 -29.90506,46.65268 -4.45544,4.32476 -8.10079,8.57669 -8.10079,9.44871 0,3.02831 7.01025,1.51011 15.53731,-3.36485 l 8.57509,-4.90243 2.86282,6.85171 c 5.4165,12.96349 3.42937,45.84977 -4.29807,71.13127 -1.86181,6.0912 2.63645,3.75558 8.73298,-4.53441 l 5.89467,-8.01549 6.05788,9.5074 c 20.28971,31.84322 20.11275,73.61197 -0.50355,118.85144 -7.01321,15.38949 -7.05352,15.63822 -7.06147,43.57564 -0.009,29.9985 -2.3172,47.74567 -11.87897,91.31636 -3.30872,15.0771 -6.01586,28.82341 -6.01586,30.54735 0,1.72397 6.14882,9.52884 13.66407,17.34418 18.69762,19.44424 22.02907,26.96789 15.03728,33.95966 -5.31809,5.31809 -13.59007,3.71752 -24.96698,-4.83092 -11.44882,-8.60249 -20.68405,-10.45404 -22.32405,-4.47571 -0.52523,1.91461 -1.50245,6.73757 -2.17158,10.71767 -4.09439,24.35409 -34.80317,23.47468 -41.00368,-1.17421 -4.90406,-19.4951 -8.67243,-21.06743 -26.44828,-11.03536 -14.71599,8.3052 -23.80135,7.8408 -27.31323,-1.39614 -2.74492,-7.21972 0.38342,-11.22388 18.62644,-23.8413 8.98551,-6.21463 24.48402,-19.44859 34.44116,-29.40879 15.23467,-15.23941 19.56914,-21.09258 27.34943,-36.93202 10.69145,-21.76612 15.69239,-39.6718 14.82991,-53.0981 -0.44956,-6.9983 -1.48196,-9.61716 -3.97801,-10.09093 -2.51021,-0.47645 -3.91521,1.55052 -5.50285,7.93893 -5.33502,21.46712 -12.85648,41.50613 -20.29345,54.06676 -9.71286,16.40446 -31.98579,40.3448 -48.40306,52.02661 -14.55681,10.358 -39.83077,23.17356 -55.0145,27.89597 l -11.24337,3.49688 -13.01227,-5.66875 -13.01228,-5.66878 -6.86639,-18.0063 c -13.28378,-34.83516 -19.95353,-62.91356 -23.32702,-98.20246 -3.0854,-32.27518 -3.51534,-34.18304 -7.70295,-34.18304 -5.09602,0 -6.09031,3.75905 -6.09031,23.02552 0,28.74577 13.65129,88.69636 28.12628,123.51853 l 5.92848,14.26205 16.29177,8.40183 c 22.14139,11.41853 34.41368,20.64732 36.88548,27.73791 1.78231,5.11275 1.38011,6.71963 -2.97849,11.89951 -6.35205,7.54899 -10.01204,7.51284 -28.95749,-0.28589 -20.07615,-8.26418 -21.48628,-7.2687 -20.0194,14.13264 1.01951,14.87404 0.81724,15.90489 -4.08174,20.80388 -6.34648,6.34647 -17.48403,6.87325 -26.22188,1.24027 z M 114.31319,589.62702 c 15.48876,-3.32173 27.74211,-12.8583 35.37434,-27.53122 5.58587,-10.73879 6.46491,-14.42353 6.46491,-27.09935 0,-27.74338 -15.03009,-52.33812 -38.38805,-62.81695 -15.59999,-6.99845 -38.20313,-6.61875 -53.5707,0.8999 -21.99206,10.75972 -33.061432,31.18605 -30.685926,56.62479 2.069055,22.15704 13.519189,41.50389 30.428079,51.41314 17.262677,10.11661 31.595464,12.53769 50.377347,8.50969 z M 544.4867,429.85851 c 10.25595,-2.60164 24.83619,-7.73697 32.40053,-11.41186 13.56002,-6.58768 37.00465,-25.95514 34.5011,-28.50114 -0.70742,-0.7194 -9.21126,3.18081 -18.89743,8.66716 -59.26206,33.56658 -129.80521,34.63317 -199.19396,3.01171 -8.23061,-3.75082 -15.32389,-6.4605 -15.76287,-6.02152 -1.59215,1.59216 16.62553,14.85308 28.74616,20.92477 38.45635,19.26424 93.78008,24.60057 138.20647,13.33088 z m -24.31009,-59.7229 c 25.26417,-4.57421 52.44094,-16.87803 61.56587,-27.87287 4.68688,-5.64735 1.13281,-5.23674 -14.97971,1.73065 -25.32234,10.9499 -44.47644,15.23638 -73.6332,16.47826 -52.2454,2.22532 -97.58145,-10.39156 -149.61819,-41.63828 -18.20837,-10.93366 -23.70187,-11.00809 -11.31447,-0.15333 31.03175,27.19235 77.19483,46.68827 125.3198,52.92595 14.15137,1.83423 48.91341,1.01849 62.6599,-1.47038 z m -323.32816,-6.17349 c 27.70039,-7.21504 52.16469,-26.43967 62.93539,-49.45612 11.5278,-24.63437 7.01607,-53.54108 -11.19976,-71.75692 -21.85272,-21.85272 -60.65361,-24.99796 -92.92634,-7.53268 -13.58805,7.35355 -30.36237,25.83313 -37.71859,41.553 -8.0262,17.15161 -9.93795,39.61898 -4.5677,53.68078 11.20085,29.32902 45.96114,43.28358 83.477,33.51194 z M 407.54021,212.06573 c 66.87247,-21.629 121.55139,-26.24224 179.53326,-15.14716 22.77727,4.35852 26.59568,4.08478 26.59568,-1.90668 0,-2.96674 -1.67308,-5.79842 -4.23653,-7.17035 -16.13655,-8.63601 -84.51099,-14.40536 -118.09946,-9.96508 -39.71629,5.25036 -92.38675,18.86425 -112.58788,29.10094 -7.72801,3.91609 -9.74811,5.96336 -9.74811,9.87925 0,6.97719 3.50569,6.54144 38.54304,-4.79092 z M 643.4295,177.76279 c -2.6646,-9.29091 -7.49804,-15.64274 -11.90337,-15.64274 -5.9254,0 -4.79329,5.24225 3.25258,15.06117 7.98498,9.74463 11.34347,9.97041 8.65079,0.58157 z M 487.14193,147.03834 c 3.95633,-10.31002 -3.01217,-20.19857 -9.59504,-13.6157 -3.65451,3.6545 -3.77471,4.84029 -1.18199,11.65969 2.17599,5.7233 8.86548,6.93743 10.77703,1.95601 z m 37.84499,-0.0501 c 3.71742,-1.42651 4.2176,-10.85022 0.75945,-14.30836 -1.31287,-1.31288 -4.44587,-2.38705 -6.96221,-2.38705 -3.73258,0 -4.57516,1.07285 -4.57516,5.82552 0,3.20404 1.40664,7.23218 3.12589,8.95142 3.56598,3.56598 3.44058,3.53455 7.65203,1.91847 z M 374.96138,106.42478 c 9.22511,-6.568854 14.68465,-19.848983 12.9408,-31.47793 -2.59581,-17.310021 -20.82716,-29.163622 -38.78765,-25.218836 -14.08923,3.094514 -25.915,22.346449 -23.06346,37.546485 1.60754,8.568828 9.70998,18.674151 17.98244,22.427601 8.50209,3.85763 23.0767,2.3132 30.92787,-3.27732 z m 190.99719,-6.467325 c 10.58553,-5.36548 16.54679,-14.774189 16.5454,-26.113779 -0.002,-18.304591 -12.07397,-31.07581 -29.37379,-31.07581 -35.06396,0 -44.22613,44.705901 -12.06694,58.879464 8.62829,3.80275 14.89869,3.37712 24.89533,-1.689875 z"
     id="path12"
     transform="scale(0.75)" />
  <path
     style="fill:#ffffff;stroke-width:1.9892"
     d="M 81.96049,576.98362 C 50.017084,565.58913 33.958721,530.22689 47.511073,501.1223 c 7.822679,-16.79973 21.847706,-25.03256 42.456683,-24.9225 37.393534,0.1997 64.582484,36.55269 53.930084,72.10723 -3.08458,10.29542 -14.5017,23.2821 -24.43464,27.79378 -9.55683,4.34084 -26.678553,4.74388 -37.50271,0.88281 z"
     id="path13"
     transform="scale(0.75)" />
  <path
     style="fill:#ffffff;stroke-width:1.9892"
     d="m 155.79549,352.29783 c -24.39131,-6.56768 -38.73126,-29.20792 -33.61373,-53.0701 8.8104,-41.08149 48.78346,-69.43385 89.00087,-63.12714 27.77678,4.35583 43.38059,21.78393 43.29384,48.35545 -0.0391,11.96426 -0.99198,15.69443 -6.76923,26.49804 -17.06259,31.90747 -58.21277,50.41765 -91.91175,41.34375 z"
     id="path14"
     transform="scale(0.75)" />
  <path
     style="fill:#ffffff;stroke-width:0.358781"
     d="m 46.462196,358.01009 c -1.029464,-0.41152 -2.583473,-2.10892 -3.399735,-3.71342 -2.289875,-4.50115 -3.405952,-17.92047 -2.321209,-27.9094 3.42417,-31.53172 26.433611,-65.77968 47.828961,-71.19011 2.309038,-0.58391 3.57568,-0.69118 6.312296,-0.53457 4.252149,0.24333 5.927551,0.78226 7.585281,2.44 1.85437,1.85437 2.52969,4.05945 2.73604,8.93384 0.71803,16.96096 -12.689378,48.85501 -29.184086,69.42421 -4.086036,5.09537 -13.737035,14.76878 -17.989814,18.03159 -1.826932,1.40166 -4.228361,2.99206 -5.336508,3.53423 -1.956806,0.95738 -5.068229,1.44853 -6.231226,0.98363 z"
     id="path15"
     transform="scale(0.75)" />
  <path
     style="fill:#ffffff;stroke-width:1.42983"
     d="m 178.88749,202.31655 c -13.09013,-5.11221 -18.51566,-12.93299 -18.5476,-26.73595 -0.0542,-23.41654 26.8012,-54.54318 54.10605,-62.7114 26.01743,-7.7831 50.20948,0.11593 57.31179,18.71306 7.55209,19.77486 -9.08843,48.91769 -36.12525,63.2668 -18.29782,9.7111 -42.75793,12.92999 -56.74499,7.46749 z"
     id="path16"
     transform="scale(0.75)" />
  <path
     style="fill:#ffffff;stroke-width:0.233153"
     d="m 365.71472,80.558937 c -3.67012,-1.352005 -5.37686,-3.679694 -5.37686,-7.333102 0,-5.059115 3.5518,-9.90852 7.56019,-10.322223 1.00344,-0.103564 1.41864,-0.01738 2.47664,0.514082 4.45066,2.235694 6.98627,5.411906 7.0113,8.782662 0.0139,1.869333 -0.15209,2.553306 -1.02303,4.216007 -0.86443,1.650274 -2.34748,3.050106 -4.09346,3.863773 -1.7996,0.838655 -4.70012,0.962025 -6.55478,0.278801 z"
     id="path17"
     transform="scale(0.75)" />
  <path
     style="fill:#ffffff;stroke-width:0.256481"
     d="m 561.18054,73.138527 c -2.49826,-0.827787 -4.43077,-2.237052 -5.45361,-3.977003 -0.63187,-1.074863 -0.70193,-1.437247 -0.70193,-3.630615 0,-2.106861 0.093,-2.635022 0.68738,-3.903145 1.51599,-3.234464 4.54779,-5.426353 7.50568,-5.426353 3.12692,0 6.45706,2.25476 8.01457,5.426477 0.61017,1.242565 0.71898,1.779711 0.71264,3.518299 -0.006,1.731529 -0.11779,2.263434 -0.71411,3.407185 -1.47667,2.832287 -4.25537,4.671277 -7.30337,4.833485 -0.99684,0.05305 -2.15312,-0.05147 -2.74725,-0.24833 z"
     id="path18"
     transform="scale(0.75)" />
  <path
     style="fill:#ffffff;stroke-width:0.237956"
     d="m 657.75264,611.96578 c 8.25148,-40.68864 10.72255,-60.0225 10.19645,-79.77768 -0.0819,-3.07558 -0.30594,-10.4301 -0.49785,-16.34337 l -0.34893,-10.75141 3.47695,-7.31951 c 1.91233,-4.02574 3.74491,-7.91463 4.07241,-8.64199 6.50897,-14.45634 11.29103,-30.40602 13.87853,-46.28934 1.60331,-9.84192 2.13234,-16.08751 2.33704,-27.59074 l 0.15634,-8.78546 4.43359,4.66346 c 8.11602,8.53682 12.95773,15.26987 16.98177,23.61546 13.7655,28.54871 15.17679,61.40448 4.16801,97.0342 -3.40359,11.01566 -7.86817,21.82491 -13.7811,33.36557 -4.60196,8.98195 -8.59481,15.75011 -15.72271,26.65105 -7.1622,10.95339 -10.68973,17.06459 -12.63657,21.89193 l -0.8637,2.1416 -8.32957,0.0625 -8.32956,0.0625 z"
     id="path19"
     transform="scale(0.75)" />
  <path
     style="fill:#ffffff;stroke-width:0.237956"
     d="m 687.71001,392.68652 c -0.69163,-1.05774 -1.3125,-2.74373 -2.51228,-6.82226 -1.93219,-6.56823 -4.69441,-13.09358 -8.598,-20.31154 -3.98339,-7.36551 -6.80086,-11.74772 -11.9243,-18.54669 l -3.71548,-4.93057 0.23642,-9.10882 c 0.48271,-18.59782 -0.97818,-31.13872 -4.91408,-42.18468 -0.60624,-1.70138 -1.16126,-3.28082 -1.23339,-3.50985 -0.12366,-0.39271 0.53283,-0.41642 11.52968,-0.41642 h 11.66081 l 2.07722,2.36735 c 13.97398,15.92572 21.767,37.01536 21.767,58.90626 0,14.6934 -3.62661,29.0751 -10.35469,41.06255 -2.13879,3.81072 -3.20565,4.73841 -4.01891,3.49467 z"
     id="path20"
     transform="scale(0.75)" />
  <path
     style="fill:#ffffff;stroke-width:0.288717"
     d="m 706.41553,679.7685 c -3.68374,-0.65113 -8.35964,-2.81429 -12.33908,-5.70829 -8.45615,-6.14965 -10.32684,-7.42105 -12.51588,-8.50634 -2.64162,-1.30967 -3.18284,-1.37132 -9.71535,-1.10665 -2.47761,0.10039 -3.2036,-0.16517 -5.77435,-2.11217 -2.82873,-2.1424 -15.28422,-13.69626 -15.385,-14.27133 -0.0456,-0.26042 1.35103,-7.54673 3.10372,-16.19179 1.75268,-8.64506 3.18669,-15.75772 3.18669,-15.8059 0,-0.0482 3.71795,-0.0876 8.26212,-0.0876 h 8.26211 l -0.17207,0.64961 c -0.62038,2.34212 -0.8349,5.15624 -0.51502,6.75633 1.03395,5.17201 4.71454,8.59857 15.77741,14.68846 17.38693,9.57117 25.48933,16.61377 28.49967,24.7719 1.23673,3.35158 1.4576,7.84375 0.535,10.88122 -0.52809,1.7386 -0.89227,2.35088 -2.14118,3.59978 -2.19801,2.19802 -5.46897,3.07909 -9.06879,2.44278 z"
     id="path21"
     transform="scale(0.75)" />
</svg>
