<?xml version="1.0" encoding="UTF-8" standalone="no"?>
<svg
   version="1.0"
   width="1071"
   height="997"
   viewBox="83 98 1071 997"
   preserveAspectRatio="xMidYMid meet"
   id="svg15"
   sodipodi:docname="frog8.svg"
   inkscape:version="1.4.3 (0d15f75, 2025-12-25)"
   xmlns:inkscape="http://www.inkscape.org/namespaces/inkscape"
   xmlns:sodipodi="http://sodipodi.sourceforge.net/DTD/sodipodi-0.dtd"
   xmlns="http://www.w3.org/2000/svg"
   xmlns:svg="http://www.w3.org/2000/svg">
  <defs
     id="defs15" />
  <sodipodi:namedview
     id="namedview15"
     pagecolor="#505050"
     bordercolor="#ffffff"
     borderopacity="1"
     inkscape:showpageshadow="0"
     inkscape:pageopacity="0"
     inkscape:pagecheckerboard="1"
     inkscape:deskcolor="#505050"
     inkscape:zoom="0.47996528"
     inkscape:cx="656.29747"
     inkscape:cy="559.41546"
     inkscape:window-width="1728"
     inkscape:window-height="1056"
     inkscape:window-x="0"
     inkscape:window-y="33"
     inkscape:window-maximized="1"
     inkscape:current-layer="svg15" />
  <metadata
     id="metadata1">
Created by potrace 1.16, written by Peter Selinger 2001-2019
</metadata>
  <g
     transform="translate(0.000000,1254.000000) scale(0.100000,-0.100000)"
     fill="#000000"
     stroke="none"
     id="g15">
    <path
       d="M7151 11247 c-20 -10 -56 -87 -188 -402 -90 -214 -189 -452 -220 -527 -30 -76 -59 -138 -64 -138 -4 0 -179 106 -388 235 -225 140 -389 235 -403 235 -31 0 -58 -29 -58 -60 0 -13 22 -94 49 -179 27 -86 76 -244 109 -351 34 -107 83 -267 111 -355 l50 -160 -27 -19 c-15 -10 -67 -60 -117 -110 -98 -99 -164 -203 -202 -316 l-22 -65 -123 -51 c-161 -66 -304 -152 -393 -235 -30 -28 -32 -28 -93 -19 -120 20 -272 -25 -361 -106 -48 -43 -88 -106 -110 -175 -12 -35 -28 -56 -62 -82 -44 -33 -50 -35 -106 -30 -199 18 -397 -125 -436 -315 l-12 -61 -88 -62 c-209 -149 -484 -415 -642 -621 l-80 -104 -58 -11 c-236 -46 -426 -282 -404 -502 6 -53 5 -57 -42 -120 -77 -104 -135 -198 -189 -307 l-51 -101 -63 9 c-85 13 -235 3 -338 -22 -174 -43 -382 -167 -505 -303 -118 -130 -217 -306 -271 -482 -15 -49 -38 -104 -51 -122 -59 -80 -88 -221 -65 -307 11 -37 9 -41 -23 -79 -19 -22 -45 -66 -57 -96 -22 -56 -22 -59 -16 -246 0 -16 -3 -61 -7 -100 -9 -91 17 -168 75 -217 35 -31 39 -39 50 -113 29 -195 100 -410 191 -586 l51 -97 -50 -93 c-109 -203 -154 -345 -156 -494 -1 -106 0 -113 32 -177 38 -77 92 -130 171 -167 50 -23 68 -26 166 -26 103 0 114 2 178 32 45 22 93 56 138 100 38 36 70 64 72 62 2 -2 24 -31 49 -64 171 -226 397 -316 585 -235 87 37 162 139 163 221 0 20 3 38 6 41 3 3 42 -11 87 -32 109 -51 195 -73 292 -74 108 0 175 23 231 81 60 61 79 145 54 232 -5 19 -8 36 -6 39 2 2 46 -10 98 -26 218 -70 641 -142 833 -142 40 0 47 -3 55 -26 19 -48 97 -160 149 -212 116 -116 281 -196 458 -222 94 -14 86 -10 272 -137 99 -67 179 -112 233 -133 236 -92 456 -15 498 173 l12 53 82 -43 c266 -140 496 -114 592 67 14 26 19 57 19 117 l0 81 110 4 c119 4 168 21 228 77 72 66 89 182 42 277 -32 65 -120 152 -202 200 -79 46 -84 42 127 81 145 26 172 28 420 28 146 0 412 -9 592 -19 352 -21 437 -18 516 23 72 37 112 104 112 188 0 100 -70 182 -217 255 -46 23 -80 45 -76 48 5 4 63 44 129 89 156 105 298 224 447 373 l118 118 62 -63 c34 -34 84 -77 110 -95 26 -18 47 -38 47 -43 0 -6 -5 -53 -11 -106 -12 -96 0 -314 21 -406 7 -34 6 -39 -13 -46 -12 -5 -67 -26 -122 -46 -199 -74 -354 -182 -398 -277 -42 -91 -38 -193 11 -262 57 -82 189 -124 327 -106 39 5 73 9 77 10 3 0 7 -27 7 -60 0 -141 104 -242 263 -256 124 -12 249 31 380 127 38 29 70 50 72 48 1 -2 10 -25 20 -51 55 -149 179 -225 350 -216 98 6 165 36 234 106 42 43 92 130 92 160 0 18 8 16 88 -25 62 -31 84 -37 155 -41 111 -5 178 19 241 89 61 67 80 129 73 231 -8 117 -62 221 -198 380 l-31 37 20 103 c40 198 47 278 47 528 0 186 -5 273 -18 360 -34 216 -96 422 -181 605 -48 102 -51 113 -42 153 12 57 -6 134 -47 203 l-32 54 19 40 c28 57 32 132 10 202 -33 107 -156 203 -260 203 -17 0 -23 7 -28 41 -9 54 -29 92 -79 147 -49 52 -126 92 -180 92 -56 0 -104 49 -117 121 -13 69 -59 164 -110 226 -22 26 -39 50 -37 53 2 3 20 40 40 82 20 42 42 80 48 84 6 3 38 43 70 87 65 87 140 234 158 309 13 57 14 171 2 215 -8 28 -4 43 32 112 38 76 41 85 45 188 5 132 -12 212 -67 324 -53 106 -97 166 -208 280 l-93 95 24 60 c66 162 72 347 18 510 -43 127 -92 206 -187 300 l-82 81 -5 101 c-4 88 -9 110 -37 167 -141 285 -564 356 -974 161 -50 -24 -117 -60 -147 -79 l-55 -36 -6 52 c-7 64 -18 85 -65 126 l-36 32 26 587 c14 323 28 624 31 669 6 79 5 84 -19 108 -14 14 -33 25 -43 25 -24 0 -93 -74 -323 -348 -107 -128 -197 -232 -200 -232 -4 0 -31 30 -60 68 -196 246 -626 765 -647 782 -30 23 -39 24 -72 7z m97 -217 c58 -68 274 -333 451 -555 184 -230 198 -245 233 -245 32 0 20 -12 226 235 82 99 168 200 190 225 l41 45 -4 -85 c-3 -47 -15 -303 -26 -570 -11 -267 -22 -486 -23 -487 -1 -2 -43 5 -92 14 -68 13 -143 17 -319 17 -237 0 -291 -5 -526 -50 l-136 -27 -59 35 c-144 84 -314 128 -496 128 -124 0 -224 -18 -342 -61 -44 -17 -88 -32 -96 -35 -17 -5 -12 -18 -176 509 -52 169 -94 312 -92 317 3 8 63 -28 473 -283 115 -72 219 -132 230 -135 32 -6 60 26 93 108 44 109 273 663 339 818 30 72 58 132 62 132 3 0 26 -23 49 -50z m-325 -1464 c251 -64 470 -233 644 -496 31 -47 58 -87 60 -89 2 -3 8 0 13 5 14 14 -21 127 -66 216 -27 54 -31 67 -19 72 72 27 421 37 578 17 239 -31 475 -124 651 -255 49 -37 91 -65 93 -62 20 20 -123 180 -214 241 -24 15 -43 32 -43 37 0 15 140 99 233 140 258 112 521 111 678 -1 96 -68 133 -145 133 -271 -1 -166 -93 -344 -252 -491 -94 -87 -150 -106 -211 -72 -36 21 -49 12 -31 -22 22 -42 76 -69 134 -68 48 1 53 -2 118 -62 37 -34 140 -113 230 -176 263 -184 406 -313 498 -449 131 -194 155 -418 58 -544 -14 -18 -17 -18 -109 12 -568 188 -1229 186 -2211 -9 -399 -78 -758 -171 -1338 -344 -367 -110 -399 -117 -535 -122 -102 -4 -125 -1 -155 14 -28 14 -36 25 -38 51 -4 38 8 55 60 88 43 27 47 39 18 47 -62 16 -162 -57 -176 -128 -9 -49 16 -99 65 -132 112 -75 295 -61 678 53 437 130 571 168 808 229 1096 282 1899 355 2525 229 149 -30 334 -89 367 -118 50 -44 38 -177 -28 -308 -42 -83 -79 -137 -158 -227 -41 -47 -66 -85 -67 -101 -4 -62 -129 -235 -286 -396 -108 -111 -129 -142 -85 -128 36 11 99 44 135 71 18 14 35 23 37 21 12 -12 16 -269 6 -382 -41 -475 -232 -928 -570 -1356 -109 -137 -338 -364 -471 -466 -377 -290 -793 -498 -1265 -633 -193 -55 -464 -103 -657 -117 l-95 -7 -209 69 -210 69 -12 94 c-42 327 -163 664 -332 925 -33 51 -60 96 -60 100 0 4 22 33 48 64 130 151 235 369 284 586 24 107 31 337 10 358 -18 18 -23 6 -33 -78 -36 -289 -176 -609 -348 -796 l-48 -52 -40 34 c-89 76 -252 155 -275 132 -6 -6 17 -30 70 -71 303 -230 540 -698 607 -1196 7 -55 11 -103 9 -106 -2 -4 -17 -9 -33 -12 -30 -6 -49 -35 -28 -42 6 -3 77 -25 157 -49 186 -57 528 -176 603 -210 178 -81 287 -188 287 -281 0 -89 -67 -136 -193 -136 -125 -1 -163 13 -224 81 -84 93 -269 198 -297 169 -8 -8 2 -21 34 -47 98 -78 216 -208 248 -272 57 -113 38 -211 -49 -258 -39 -21 -54 -23 -139 -20 -111 5 -169 26 -310 114 -74 46 -94 64 -119 108 -32 58 -114 137 -173 167 -75 38 -77 17 -7 -66 28 -33 68 -96 90 -141 32 -66 39 -91 39 -141 0 -175 -188 -234 -405 -126 -38 19 -142 85 -229 145 -167 116 -216 143 -223 121 -6 -18 -37 -16 -123 8 -104 28 -203 83 -278 153 -81 76 -122 135 -122 176 0 26 -11 44 -56 88 -205 205 -443 758 -479 1114 l-7 67 47 -45 c41 -40 47 -51 52 -99 13 -129 113 -207 204 -159 61 31 86 143 54 248 -22 73 -20 149 5 171 11 10 20 25 20 33 0 9 6 12 18 7 74 -30 159 -8 220 59 55 59 75 119 70 203 -4 66 -4 67 29 96 43 38 63 76 63 122 0 31 4 38 33 50 106 45 167 132 167 242 0 72 -15 109 -59 146 -43 36 -95 50 -157 44 l-53 -5 -11 33 c-24 71 -114 115 -192 94 -60 -16 -108 -42 -141 -77 l-29 -30 -36 21 c-24 15 -53 21 -89 21 -29 0 -53 3 -53 7 0 14 81 181 123 251 137 232 341 440 541 552 140 79 335 136 462 136 29 0 55 4 59 9 12 21 -42 34 -144 34 -130 0 -209 -14 -325 -59 -335 -129 -629 -440 -811 -858 -25 -57 -45 -109 -45 -115 0 -5 -20 -33 -44 -60 -60 -67 -92 -124 -110 -196 -16 -60 -20 -170 -7 -215 5 -19 -4 -46 -36 -110 -84 -165 -78 -336 17 -443 28 -33 33 -48 41 -120 40 -361 190 -774 398 -1096 l15 -24 -99 6 c-349 24 -749 134 -990 274 -155 89 -365 265 -365 305 0 7 16 24 35 37 63 43 199 195 246 277 26 43 64 124 84 179 34 91 44 137 74 325 6 36 20 103 30 150 91 392 27 864 -165 1216 -126 232 -328 428 -528 515 -31 13 -56 27 -56 32 0 14 71 150 122 231 88 140 113 167 169 186 55 19 137 90 125 108 -4 8 -22 5 -52 -8 -63 -27 -72 -25 -83 18 -16 54 -13 92 8 155 36 104 109 185 211 237 49 25 174 38 199 21 22 -14 1 -74 -60 -166 -38 -58 -47 -80 -39 -89 24 -23 159 153 182 238 11 42 10 48 -11 76 l-22 31 27 37 c166 220 402 452 608 599 l88 63 30 -30 29 -30 -19 -27 c-42 -62 -55 -159 -27 -212 8 -16 28 -40 44 -54 l30 -25 -24 -58 c-66 -159 15 -306 159 -290 117 13 238 138 261 271 10 52 40 85 78 85 56 0 110 24 163 73 51 46 56 48 85 38 160 -56 359 97 359 276 0 82 -47 147 -123 172 -32 11 -35 15 -40 67 -5 50 -3 60 22 95 16 21 34 59 40 83 10 41 48 86 74 86 22 0 188 134 193 157 8 32 0 38 -33 25 -15 -6 -40 -13 -55 -16 -14 -3 -41 -24 -59 -47 -19 -25 -52 -49 -84 -63 -61 -27 -90 -61 -98 -113 -4 -21 -19 -53 -34 -71 -24 -28 -36 -34 -75 -36 -44 -2 -88 -26 -88 -48 0 -4 17 -8 38 -8 70 0 109 -72 62 -115 -11 -10 -20 -27 -20 -38 0 -17 5 -19 44 -13 85 13 156 -40 156 -117 0 -150 -192 -261 -299 -172 -39 34 -49 32 -67 -12 -20 -48 -49 -80 -96 -104 -45 -23 -70 -24 -109 -3 -40 20 -59 12 -59 -26 0 -16 -9 -39 -19 -49 -11 -11 -23 -41 -26 -68 -11 -71 -37 -123 -84 -166 -74 -67 -134 -76 -183 -26 -29 28 -30 34 -25 83 6 62 24 101 78 172 22 28 39 56 39 62 0 20 -19 23 -50 7 -27 -14 -33 -14 -60 0 -78 40 -54 156 51 248 35 31 50 50 46 61 -7 19 -30 21 -59 5 -48 -26 -94 37 -86 114 15 133 134 235 284 245 63 4 74 2 93 -17 31 -31 59 -27 79 11 26 49 61 77 115 93 61 18 74 34 46 56 -19 14 -20 19 -8 58 17 58 88 134 155 167 46 22 70 27 132 28 44 0 90 -6 107 -14 17 -7 56 -15 88 -16 63 -4 81 11 59 47 -10 16 -4 24 46 62 31 24 85 60 120 81 63 38 214 107 220 101 2 -2 -4 -18 -14 -36 -28 -54 -64 -170 -64 -206 0 -41 21 -44 41 -5 40 77 127 214 171 266 37 45 48 65 43 80 -10 32 -8 47 15 109 48 129 185 288 313 365 82 50 203 99 282 116 115 24 285 20 398 -8z m1272 -26 c141 -25 195 -42 225 -70 33 -31 40 -73 17 -104 -13 -18 -17 -18 -88 -1 -133 30 -172 35 -324 46 -151 10 -331 2 -494 -22 l-74 -11 -53 53 c-30 29 -54 56 -54 60 0 11 213 48 365 63 73 7 419 -2 480 -14z m1716 -811 c81 -163 91 -335 29 -502 -12 -31 -27 -57 -33 -57 -7 0 -36 18 -64 38 -48 35 -51 40 -39 58 53 77 61 254 16 349 -27 55 -120 155 -144 155 -9 0 -16 2 -16 4 0 2 19 41 42 87 l41 83 63 -67 c41 -43 79 -96 105 -148z m-335 -97 c40 -26 45 -107 9 -146 -33 -35 -79 -35 -117 1 -15 15 -28 30 -28 34 0 8 112 119 120 119 3 0 10 -4 16 -8z m394 -2474 c22 -33 44 -83 51 -113 10 -47 10 -56 -5 -70 -24 -24 -20 -33 21 -52 21 -10 50 -37 66 -60 26 -39 30 -41 55 -32 52 20 151 -11 199 -63 28 -29 53 -89 53 -125 0 -18 -10 -35 -27 -49 l-28 -22 24 -26 c29 -31 42 -33 59 -6 26 43 143 18 208 -45 68 -65 82 -171 30 -232 l-23 -26 -31 19 c-26 15 -34 16 -44 6 -22 -22 22 -87 58 -87 55 0 122 -122 108 -194 -8 -38 -49 -70 -67 -52 -16 16 -44 14 -51 -5 -3 -9 -6 -43 -6 -77 0 -112 -30 -168 -80 -152 -32 10 -43 44 -42 123 1 55 -3 86 -18 120 -13 30 -18 56 -14 76 4 24 0 36 -15 50 -19 17 -20 17 -38 -3 -44 -52 -130 -5 -152 85 -13 50 -8 91 16 138 8 15 12 39 9 52 -6 21 -12 24 -57 22 -64 -1 -97 22 -123 86 -18 41 -18 52 -7 89 25 87 26 86 -5 93 -39 9 -63 32 -81 77 -15 36 -35 48 -48 26 -12 -18 25 -97 55 -121 28 -22 28 -25 18 -69 -24 -102 21 -200 110 -242 26 -12 48 -22 49 -22 1 0 -3 -22 -9 -48 -12 -59 3 -137 37 -189 28 -43 93 -80 144 -83 30 -2 36 -8 52 -46 12 -30 16 -58 12 -86 -18 -137 82 -243 177 -187 40 24 61 67 67 135 6 59 6 59 38 59 31 0 34 -4 72 -87 80 -172 138 -371 170 -573 24 -157 24 -526 0 -690 -16 -106 -47 -254 -62 -291 -4 -10 16 -37 59 -82 134 -138 191 -252 184 -368 -3 -53 -9 -73 -31 -102 -33 -44 -52 -55 -114 -66 -66 -13 -142 10 -218 64 -53 38 -63 50 -68 82 -10 61 -58 147 -84 151 -27 4 -27 -1 -12 -99 24 -158 -41 -317 -155 -376 -17 -9 -64 -18 -103 -21 -64 -4 -79 -1 -129 23 -61 30 -105 86 -126 160 -14 53 -14 156 1 228 7 32 10 65 7 73 -15 38 -81 -44 -107 -135 -22 -75 -188 -205 -312 -242 -160 -49 -293 7 -305 130 -8 92 71 241 178 333 53 46 63 68 30 68 -56 0 -211 -115 -245 -181 -30 -58 -247 -84 -333 -40 -104 53 -105 158 -1 259 50 48 198 127 309 165 105 36 243 96 252 110 9 15 -10 37 -33 37 -26 0 -34 26 -49 152 -16 136 -8 329 18 423 50 182 162 344 322 467 37 29 36 44 -2 35 -31 -8 -136 -73 -198 -122 -60 -47 -152 -159 -186 -227 -13 -26 -29 -48 -34 -48 -16 0 -126 108 -144 143 l-19 34 70 94 c382 518 563 1092 524 1660 l-11 151 42 53 c23 30 46 51 51 48 5 -3 26 -32 47 -65z m-7415 -152 c72 -20 207 -83 271 -127 287 -197 486 -593 533 -1058 14 -134 15 -501 1 -501 -5 0 -10 5 -10 10 0 13 -27 13 -35 0 -4 -6 -17 -63 -31 -128 -82 -399 -253 -651 -527 -777 -122 -56 -185 -69 -342 -68 -179 1 -291 28 -450 107 -60 31 -111 53 -113 51 -19 -19 86 -106 199 -165 42 -22 121 -52 175 -67 86 -24 117 -27 239 -27 114 0 156 4 229 23 110 29 112 28 246 -94 52 -48 151 -124 221 -170 69 -46 146 -107 173 -135 146 -156 101 -299 -94 -300 -158 0 -392 108 -440 202 -34 70 -136 168 -173 168 -24 0 -21 -15 12 -63 122 -178 144 -355 55 -441 -97 -95 -283 -62 -424 75 -85 84 -176 223 -182 282 -11 95 -46 95 -73 -1 -32 -110 -117 -207 -220 -253 -75 -33 -193 -33 -259 1 -65 33 -102 81 -121 157 -26 103 6 243 100 438 78 161 91 178 115 165 22 -12 40 -6 40 13 0 7 -18 39 -41 72 -102 152 -198 388 -238 590 -29 147 -29 166 -1 205 18 26 25 51 28 100 5 84 20 101 78 93 23 -3 54 -3 68 1 64 16 129 111 142 208 6 45 9 48 46 58 77 21 148 109 148 184 0 52 -20 45 -50 -17 -34 -71 -79 -101 -142 -93 -58 6 -63 0 -63 -79 0 -95 -43 -167 -113 -189 -19 -6 -30 -1 -57 29 -39 41 -55 39 -55 -7 0 -19 -11 -42 -29 -64 -23 -26 -32 -47 -37 -93 -8 -73 -31 -100 -69 -83 -58 26 -74 140 -35 245 23 60 21 87 -5 87 -22 0 -19 58 6 125 13 35 41 77 76 115 35 38 53 66 49 75 -3 8 -10 15 -15 15 -17 0 -34 71 -27 118 18 134 127 252 231 252 28 0 44 -7 66 -31 16 -17 33 -28 38 -25 5 3 19 27 31 52 41 85 140 130 194 89 28 -21 36 -19 36 9 0 34 -44 66 -89 66 -50 -1 -110 -30 -148 -73 l-31 -36 -39 20 c-30 16 -49 19 -90 14 l-53 -6 21 48 c142 333 391 553 699 619 82 17 273 12 355 -10z m2138 -926 c30 -24 47 -68 36 -95 -22 -57 -4 -68 60 -35 80 42 148 31 194 -32 64 -87 -26 -246 -143 -252 -45 -2 -64 -20 -49 -47 5 -10 9 -34 9 -54 0 -29 -8 -45 -34 -71 -19 -19 -43 -34 -54 -34 -36 0 -44 -23 -22 -65 36 -72 22 -152 -39 -212 -34 -34 -84 -50 -123 -37 -12 4 -38 23 -56 42 -40 44 -53 35 -57 -39 -2 -44 -7 -56 -34 -81 -31 -29 -32 -32 -25 -87 3 -31 15 -89 26 -130 30 -111 7 -177 -58 -169 -42 5 -70 53 -79 135 -8 79 -19 103 -44 103 -48 0 -75 100 -53 196 13 56 -1 78 -28 45 -11 -13 -23 -35 -26 -50 -10 -45 -13 -51 -27 -51 -8 0 -27 10 -42 22 -95 75 -84 290 21 407 24 27 44 52 44 55 0 4 -9 19 -20 34 -67 91 -7 296 112 382 59 43 113 56 163 39 32 -11 41 -20 45 -44 8 -48 36 -44 61 10 23 49 97 121 132 128 51 10 86 6 110 -13z m3710 -1661 c91 -31 173 -77 212 -121 59 -64 43 -137 -35 -166 -53 -20 -153 -22 -360 -8 -118 8 -284 18 -368 22 -84 4 -149 10 -145 14 4 4 37 17 73 30 93 32 297 124 425 191 61 31 116 58 123 58 7 1 41 -8 75 -20z"
       id="path1" />
    <path
       d="M7402 10290 c-49 -30 -89 -100 -103 -183 -46 -271 178 -531 346 -402 98 74 122 275 52 429 -30 65 -94 138 -141 160 -47 22 -114 20 -154 -4z m155 -86 c18 -14 46 -53 65 -91 31 -63 33 -75 33 -168 0 -86 -3 -105 -23 -136 -12 -20 -36 -42 -53 -50 -28 -11 -36 -10 -76 11 -74 39 -124 147 -126 270 -1 167 78 240 180 164z"
       id="path2" />
    <path
       d="M6111 9022 c-61 -30 -47 -52 41 -67 l37 -6 -33 -47 c-46 -65 -80 -134 -108 -222 -33 -108 -33 -292 0 -400 41 -130 87 -206 187 -305 73 -74 108 -100 182 -138 132 -68 221 -90 368 -90 209 -1 378 62 534 200 101 90 198 262 216 386 l7 47 62 0 c74 0 122 22 153 69 25 36 29 74 13 115 -13 36 -40 34 -40 -3 0 -17 -10 -42 -23 -56 -68 -80 -252 -16 -722 251 -195 111 -357 190 -471 229 -156 54 -337 71 -403 37z m303 -109 c65 -16 183 -61 254 -97 l46 -23 -30 -16 c-17 -9 -36 -22 -42 -30 -11 -12 -4 -15 44 -19 50 -4 62 -10 90 -41 67 -72 50 -162 -38 -205 -36 -18 -55 -22 -85 -16 -46 9 -101 60 -109 103 -4 17 -10 31 -14 31 -12 0 -40 -113 -40 -161 0 -101 54 -216 137 -289 66 -58 140 -83 243 -84 75 -1 93 3 152 31 140 66 218 177 226 324 3 43 6 79 7 79 1 0 40 -17 86 -39 46 -21 92 -41 102 -44 22 -8 22 -26 -3 -116 -59 -210 -211 -366 -427 -437 -79 -26 -101 -29 -223 -29 -122 0 -144 3 -224 29 -227 75 -404 269 -452 496 -38 179 19 393 141 528 51 57 39 55 159 25z"
       id="path3" />
    <path
       d="M9406 8008 c-23 -32 -20 -100 5 -132 44 -55 109 -17 109 64 0 33 -15 70 -34 82 -23 16 -65 8 -80 -14z"
       id="path4" />
    <path
       d="M8730 8013 c-79 -30 -61 -116 33 -162 102 -49 176 -6 133 78 -27 51 -123 100 -166 84z"
       id="path5" />
    <path
       d="M4699 7981 c-40 -40 -39 -92 1 -71 18 10 60 73 60 91 0 19 -32 8 -61 -20z"
       id="path6" />
    <path
       d="M3875 7459 c-72 -21 -133 -133 -91 -168 45 -37 166 54 166 124 0 24 -6 37 -19 45 -11 5 -21 10 -23 9 -2 0 -17 -5 -33 -10z m35 -55 c0 -9 -14 -29 -31 -45 -56 -52 -82 -28 -33 30 28 33 64 42 64 15z"
       id="path7" />
    <path
       d="M4720 7045 c-46 -21 -68 -42 -91 -87 -41 -81 -11 -148 67 -148 77 0 156 85 156 168 0 64 -65 96 -132 67z m80 -56 c33 -60 -87 -166 -130 -114 -19 23 -2 71 36 105 41 35 78 39 94 9z"
       id="path8" />
    <path
       d="M3785 6927 c-119 -40 -216 -124 -268 -234 -27 -57 -32 -80 -32 -140 0 -57 4 -77 21 -99 53 -72 130 -91 224 -55 60 22 130 74 130 96 0 27 -20 25 -81 -7 -85 -45 -159 -47 -195 -5 -34 40 -33 119 3 193 49 100 178 194 266 194 115 0 148 -99 77 -229 -34 -61 -36 -71 -16 -71 24 0 86 81 101 134 29 97 11 168 -51 207 -42 26 -126 33 -179 16z"
       id="path9" />
    <path
       d="M3091 6353 c-45 -22 -91 -96 -91 -145 0 -29 6 -41 25 -54 65 -42 175 52 175 149 0 63 -42 83 -109 50z m67 -61 c4 -30 -68 -105 -92 -96 -26 10 -19 50 15 89 37 41 72 44 77 7z"
       id="path10" />
    <path
       d="M4035 6251 c-92 -57 -137 -160 -100 -230 34 -67 120 -65 196 6 82 77 101 176 42 223 -33 26 -98 26 -138 1z m116 -55 c15 -33 5 -69 -31 -110 -83 -94 -180 -53 -125 53 38 75 133 109 156 57z"
       id="path11" />
    <path
       d="M4955 4465 c-30 -29 -32 -66 -5 -90 20 -18 21 -18 48 2 43 32 40 113 -5 113 -8 0 -25 -11 -38 -25z m45 -35 c0 -11 -7 -20 -15 -20 -15 0 -21 21 -8 33 12 13 23 7 23 -13z"
       id="path12" />
    <path
       d="M4892 4041 c-85 -63 -87 -222 -2 -266 121 -63 242 82 182 218 -35 79 -109 99 -180 48z m111 -41 c46 -36 44 -114 -4 -159 -72 -66 -152 35 -103 130 24 48 67 60 107 29z"
       id="path13" />
    <path
       d="M1740 5062 c-36 -37 -41 -75 -9 -70 38 5 81 85 52 95 -7 3 -26 -9 -43 -25z"
       id="path14" />
    <path
       d="M4473 4698 c-27 -30 -32 -49 -21 -70 14 -29 27 -21 50 30 12 26 24 50 26 55 9 17 -36 5 -55 -15z"
       id="path15" />
  </g>
  <path
     style="fill:#ffffff;stroke-width:1.2493"
     d="m 485.95527,953.81669 c -4.78529,-1.51787 -15.22763,-7.4288 -28.71574,-16.25466 -19.09005,-12.49145 -21.60775,-13.79214 -25.34137,-13.0917 -5.0688,0.9509 -15.49184,-1.93074 -25.79399,-7.13126 -10.38231,-5.24097 -23.93646,-18.87331 -25.13914,-25.28415 -0.59994,-3.19794 -2.94447,-7.03984 -7.08886,-11.61622 -18.22094,-20.12019 -38.13492,-63.6548 -44.76679,-97.86617 -3.27906,-16.9155 -3.2327,-17.37405 1.31599,-13.01612 2.21729,2.12429 4.02619,5.38872 4.45618,8.04188 2.35149,14.50866 11.25627,21.87349 21.05113,17.41065 5.21082,-2.3742 7.41527,-8.82868 6.51483,-19.07495 -0.4283,-4.87371 -1.13207,-11.07072 -1.56394,-13.77114 -0.55916,-3.49628 -0.15791,-6.07473 1.39369,-8.95586 1.94255,-3.60713 2.63026,-3.97277 6.33965,-3.37082 6.57445,1.06689 12.724,-0.67244 17.64088,-4.98952 6.11294,-5.36724 9.08581,-12.32652 9.11952,-21.34817 0.0247,-6.62052 0.45842,-7.82146 4.39999,-12.18432 2.898,-3.20773 4.37257,-6.0725 4.37257,-8.49498 0,-4.05183 1.32021,-5.60356 8.36816,-9.83568 7.74089,-4.64822 10.89217,-10.39265 11.41845,-20.81449 0.41813,-8.28023 0.19738,-9.22729 -3.05075,-13.08746 -4.37149,-5.19522 -9.91426,-7.56947 -17.67114,-7.56947 -5.48454,0 -6.13263,-0.31759 -7.37734,-3.61518 -3.93528,-10.42576 -20.95155,-11.53712 -31.44832,-2.05393 -4.30094,3.88565 -4.8645,4.06596 -7.73734,2.47566 -1.7042,-0.94337 -4.7851,-1.74377 -6.84645,-1.77863 -6.97435,-0.11798 -7.21395,-1.25257 -2.39352,-11.33382 14.23289,-29.76603 41.15788,-58.86732 66.10803,-71.45144 9.76456,-4.92496 26.61645,-9.8209 36.4347,-10.58528 14.23101,-1.10795 15.89319,-3.77501 3.40855,-5.46922 -8.95287,-1.21493 -26.61878,0.60428 -35.47628,3.65329 -37.10317,12.77201 -69.26652,46.62644 -87.92691,92.54996 -1.76855,4.35241 -5.21753,10.35664 -7.66441,13.34273 -8.12897,9.92034 -11.08364,18.25052 -11.40037,32.14132 -0.24398,10.69994 -0.80054,13.48932 -4.36228,21.86282 -3.53002,8.29894 -4.08468,11.03544 -4.09779,20.21718 -0.0157,11.00041 0.75713,13.45314 7.25708,23.03134 1.79031,2.63818 3.30066,7.21658 3.82353,11.59053 3.82175,31.97003 18.45566,74.11864 35.36719,101.8646 l 5.13991,8.4328 -4.60732,-0.0244 c -7.17075,-0.038 -29.57112,-3.27066 -43.11472,-6.22209 -36.85547,-8.03155 -65.50728,-21.91327 -87.03607,-42.16871 l -8.95798,-8.42815 12.49393,-12.70404 c 10.89945,-11.08274 13.30663,-14.35121 18.86201,-25.61074 6.85385,-13.89125 8.82546,-20.97899 15.23228,-54.75837 3.7255,-19.64241 4.13632,-24.01979 4.04499,-43.10099 -0.1121,-23.41934 -2.39932,-37.86482 -9.23993,-58.35687 -11.39325,-34.13014 -34.19586,-62.1086 -61.49321,-75.45122 -3.95093,-1.93117 -7.1835,-4.07966 -7.1835,-4.77445 0,-2.268 15.39127,-28.21668 19.77253,-33.33519 2.34943,-2.74479 6.64891,-6.10794 9.55441,-7.47368 6.08949,-2.8624 12.54262,-9.07712 11.3795,-10.95909 -0.52682,-0.85242 -2.51505,-0.67659 -5.91541,0.52313 -2.81703,0.99391 -5.31062,1.80711 -5.5413,1.80711 -1.38424,0 -2.76434,-10.02142 -1.89254,-13.74235 4.02781,-17.19093 17.63566,-29.54067 33.35036,-30.26691 6.56663,-0.30347 7.41735,-0.0658 7.72298,2.15757 0.18891,1.37423 -1.91929,6.35571 -4.68489,11.06995 -2.76559,4.71423 -5.02835,9.3935 -5.02835,10.39837 0,6.45807 13.88584,-8.97148 18.1704,-20.19046 2.13337,-5.58615 2.13557,-6.02558 0.0479,-9.5597 l -2.18824,-3.70438 9.34929,-11.49715 c 12.12323,-14.90836 33.21282,-35.3606 48.91619,-47.43789 l 12.45501,-9.57901 2.77847,2.61023 c 2.46331,2.31415 2.58545,2.91188 1.0767,5.26962 -2.69431,4.21045 -4.6319,13.14368 -3.73577,17.22373 0.45134,2.05489 2.51349,5.66426 4.58257,8.02081 3.75522,4.27695 3.75836,4.29364 1.75431,9.30226 -2.83174,7.07724 -2.59574,17.10486 0.52297,22.22018 4.47775,7.34437 13.96037,9.56115 23.08011,5.3955 8.71265,-3.97969 19.36421,-17.82008 19.36421,-25.16139 0,-4.11546 4.22675,-7.66031 10.54024,-8.83979 3.92758,-0.73376 8.35179,-2.86131 12.45488,-5.98942 6.06928,-4.62709 6.69719,-4.82206 13.57936,-4.21642 9.09352,0.80024 16.34771,-1.80258 22.71737,-8.15109 6.77729,-6.75475 8.65998,-11.03547 8.73212,-19.85446 0.0745,-9.11099 -2.31257,-13.18693 -10.35432,-17.67974 -4.6398,-2.59219 -5.19635,-3.39828 -5.17539,-7.49582 0.0351,-6.86895 8.39105,-22.84915 13.10398,-25.0606 7.32092,-3.43518 19.35444,-14.14657 19.35444,-17.22796 0,-1.59781 -0.4783,-2.90512 -1.06288,-2.90512 -3.31564,0 -10.12699,3.35629 -13.92877,6.86339 -2.40491,2.21851 -6.81698,5.37052 -9.80459,7.00449 -5.20758,2.8481 -8.93497,7.68098 -8.93497,11.58495 0,3.66473 -6.05474,9.17768 -10.93704,9.95838 -9.01545,1.44164 -12.20695,7.06513 -4.00968,7.06513 2.50982,0 4.28286,0.97292 5.69183,3.12326 1.88587,2.87821 1.88813,3.36486 0.0288,6.20257 -3.40331,5.19411 -2.64632,6.91512 3.04162,6.91512 10.43529,0 16.05507,6.43822 13.54738,15.52033 -1.73097,6.26905 -6.56882,11.45445 -12.96612,13.8976 -6.27564,2.39669 -10.26838,1.81937 -15.91279,-2.30082 -3.64692,-2.66209 -3.82297,-2.67631 -5.18423,-0.41876 -4.61836,7.65933 -6.90579,10.19654 -11.18247,12.40357 -4.2153,2.17536 -5.33663,2.27983 -9.54897,0.88963 -5.36916,-1.77198 -7.5377,-1.02327 -7.5377,2.60248 0,1.35785 -0.7881,3.71396 -1.75132,5.2358 -0.96323,1.52184 -2.15621,4.73464 -2.65108,7.13955 -1.49915,7.28553 -5.38312,13.57534 -10.81062,17.507 -6.19239,4.48575 -9.76299,4.6946 -14.25165,0.83361 -3.06042,-2.63246 -3.28975,-3.42362 -2.50642,-8.64715 0.51749,-3.45084 2.83541,-8.8025 5.79756,-13.38554 6.57447,-10.17198 6.4986,-11.68709 -0.53249,-10.63271 -4.79893,0.71965 -5.71594,0.46575 -7.49583,-2.07539 -1.11538,-1.59243 -2.02797,-3.91701 -2.02797,-5.16573 0,-3.63931 4.41178,-11.18862 9.26031,-15.84596 2.46512,-2.36792 4.48204,-5.39125 4.48204,-6.71852 0,-2.1129 -0.61755,-2.31445 -4.96239,-1.61969 -4.37315,0.6993 -5.20801,0.41866 -7.03089,-2.3634 -2.96437,-4.5242 -1.71114,-13.30168 2.81959,-19.74813 7.17283,-10.20569 25.18363,-15.57712 33.64389,-10.03373 3.10401,2.03381 3.21901,1.97982 9.0135,-4.23278 3.73758,-4.00726 7.33888,-6.60545 9.91528,-7.15344 5.00194,-1.06391 6.04527,-2.60791 4.15232,-6.14492 -2.97049,-5.55041 5.33626,-17.08128 15.8733,-22.03427 5.11264,-2.40322 7.03086,-2.64605 14.6427,-1.8536 4.81763,0.50155 12.13245,0.98913 16.25516,1.08351 7.41688,0.1698 7.49218,0.1364 7.15067,-3.17172 -0.28946,-2.80391 0.81915,-4.1785 6.87118,-8.51972 7.57188,-5.43146 27.43113,-15.81213 28.39884,-14.84442 0.31001,0.31002 -0.81556,4.3634 -2.50128,9.00751 -3.38262,9.31903 -4.03653,17.0753 -1.43955,17.0753 0.89396,0 3.97161,-4.12372 6.83923,-9.16384 2.8676,-5.04011 8.03913,-13.03924 11.4923,-17.77583 4.99219,-6.84764 6.27846,-9.60984 6.27846,-13.48265 0,-8.41575 6.81407,-20.13296 18.72089,-32.19176 8.74482,-8.85644 12.52737,-11.67621 21.25684,-15.8464 16.33252,-7.80225 24.04636,-9.36923 42.47634,-8.62861 16.46704,0.66174 22.78609,2.2298 36.2579,8.99735 16.5191,8.29836 30.66951,21.24493 44.18999,40.43057 3.94652,5.60013 7.69896,10.18205 8.33875,10.18205 2.33333,0 1.01707,-7.11507 -3.21883,-17.39949 -2.385,-5.79057 -4.06666,-10.79802 -3.73703,-11.12765 1.54108,-1.54108 14.26145,-2.56302 32.74857,-2.63099 36.17342,-0.13298 60.48993,6.93481 87.77168,25.51159 5.56996,3.79272 10.38657,6.89585 10.70358,6.89585 4.09052,0 -8.45954,-15.98901 -18.11114,-23.07393 -5.88184,-4.31767 -6.25584,-4.88588 -4.49592,-6.83056 3.11333,-3.44019 23.0532,-13.37162 33.17788,-16.52488 7.62688,-2.37533 12.15844,-2.91815 24.36143,-2.91815 13.88893,0 15.56575,0.26516 22.79665,3.60479 9.14917,4.22559 17.03565,12.15825 18.95323,19.06421 4.73108,17.03847 -3.18581,39.0616 -20.2704,56.38797 -9.45347,9.58725 -16.52164,13.40255 -21.39609,11.54929 -4.64004,-1.76414 -6.95456,-1.60377 -6.95456,0.48189 0,3.34877 7.16459,7.95151 13.79722,8.86373 5.08601,0.6995 7.63035,1.96896 12.3529,6.16324 3.27116,2.90526 13.20191,10.5262 22.0683,16.93543 29.68654,21.45939 42.34182,33.11199 51.72057,47.62273 9.52071,14.7304 12.77186,34.23372 7.6038,45.61453 -1.28759,2.83548 -2.93383,5.52175 -3.6583,5.9695 -0.72447,0.44775 -8.16425,-1.1757 -16.53283,-3.60765 -55.69224,-16.18451 -117.36442,-15.60435 -209.15881,1.96759 -40.81268,7.81265 -69.68927,15.15313 -135.54949,34.45697 -38.38172,11.24979 -41.39314,11.93693 -55.06043,12.56347 -16.61021,0.76145 -19.89782,-0.20201 -19.89782,-5.83126 0,-2.63521 1.23906,-4.58255 4.68489,-7.36291 3.60716,-2.91052 4.34712,-4.12399 3.21659,-5.27493 -2.50857,-2.55384 -9.64808,-0.268 -14.58603,4.66996 -3.81786,3.81787 -4.55918,5.42381 -4.55918,9.87673 0,4.24228 0.75762,6.07519 3.74673,9.06429 5.22997,5.22996 11.45376,7.07745 23.1133,6.86101 13.29628,-0.24681 26.71345,-3.34139 72.64729,-16.75561 104.69569,-30.57469 178.90779,-44.05695 242.80199,-44.11036 40.50385,-0.0339 69.97993,4.40311 95.77414,14.41665 7.81944,3.03557 9.89695,6.82528 8.57482,15.64185 -1.74331,11.62529 -8.90637,25.3748 -20.06086,38.50683 -2.91822,3.43559 -6.97087,9.90074 -9.00588,14.367 -4.52497,9.93094 -11.70561,19.54231 -26.50919,35.48286 -12.30122,13.246 -13.97096,16.5273 -7.23367,14.21529 2.23313,-0.76632 6.15727,-2.70473 8.72031,-4.30757 2.56303,-1.60283 5.30714,-2.91424 6.09801,-2.91424 1.05767,0 1.25654,6.19495 0.752,23.42445 -0.77942,26.61556 -3.82025,44.15402 -11.54929,66.61227 -9.25249,26.8849 -27.74652,59.72315 -46.51157,82.58656 -10.30035,12.54997 -37.51423,38.89647 -49.7009,48.11678 -52.14901,39.45543 -116.60812,64.75925 -182.55919,71.66472 l -13.93976,1.45957 -21.1604,-7.05276 -21.1604,-7.05277 -1.4943,-10.88877 C 536.29267,792.67359 523.9071,758.28334 508.0872,733.08847 l -6.43439,-10.24743 8.0999,-10.73946 c 9.45703,-12.53884 17.83075,-29.28048 22.52525,-45.03485 2.61107,-8.76253 3.47245,-14.78206 3.98091,-27.81942 0.44414,-11.38787 0.20893,-17.07725 -0.74544,-18.03162 -0.76687,-0.76687 -1.68511,-1.1035 -2.04054,-0.74808 -0.35542,0.35543 -1.70301,6.502 -2.99464,13.65907 -5.19541,28.7884 -19.88359,60.78667 -34.26403,74.6444 l -4.32065,4.1636 -6.0804,-4.66778 c -6.24539,-4.79442 -15.9315,-9.72889 -22.00904,-11.21223 -5.90928,-1.44228 -4.05934,2.23791 4.69563,9.3412 28.89978,23.44769 51.80345,68.10015 58.67787,114.39702 1.09768,7.39247 1.83427,13.53539 1.63688,13.65091 -0.1974,0.11552 -1.94907,0.89413 -3.89261,1.73024 -1.94355,0.83611 -3.3225,2.15386 -3.06434,2.92834 0.25816,0.77448 15.05973,6.2892 32.89237,12.25493 39.95793,13.36751 50.06334,17.58258 59.72082,24.91009 9.9228,7.52885 14.23949,15.36387 12.07615,21.91886 -1.87009,5.66639 -6.78663,8.31267 -16.96165,9.12942 -10.5797,0.84924 -15.51851,-1.12381 -25.64664,-10.24576 -9.41103,-8.47609 -19.81765,-14.4366 -25.2053,-14.4366 -1.87971,0 -3.41324,0.42164 -3.40783,0.93698 0.005,0.51534 4.73047,5.28341 10.50011,10.5957 11.9524,11.00494 20.10332,22.33122 21.34052,29.65409 1.11244,6.58451 -2.20982,13.37634 -8.11368,16.58711 -13.15922,7.15655 -44.54479,-5.03079 -56.84334,-22.07284 -5.53433,-7.6689 -14.40309,-15.04652 -19.67968,-16.37086 -4.60105,-1.15479 -4.37544,0.48121 1.0458,7.58343 8.62115,11.29431 13.54743,21.75587 13.54743,28.7696 0,8.01226 -2.76092,12.45823 -9.69026,15.60437 -6.52247,2.96141 -11.89442,2.93535 -21.47712,-0.10422 z m -65.7437,-176.79044 c 7.27366,-6.12038 8.11302,-16.89103 1.89245,-24.28376 -7.82629,-9.30101 -22.95137,-0.68061 -22.95137,13.08091 0,5.15142 2.73697,11.15541 5.93417,13.01761 4.10845,2.39295 11.12466,1.55111 15.12475,-1.81476 z m -1.23204,-60.63693 c 2.51513,-4.49635 0.99951,-10.20797 -2.56777,-9.67664 -1.45279,0.21639 -3.7793,1.9232 -5.17003,3.79292 -2.14667,2.88601 -2.3053,3.88958 -1.05024,6.64415 1.88117,4.1287 6.26544,3.74932 8.78804,-0.76043 z m -93.7861,-159.08816 c 7.35494,-3.84241 12.74332,-11.77868 12.74332,-18.76897 0,-6.21041 -3.54021,-9.45417 -10.30676,-9.44368 -9.7294,0.0151 -17.29246,7.56306 -18.16899,18.13275 -0.45247,5.45621 -0.0997,7.00363 2.09751,9.20085 3.07299,3.07299 8.73647,3.43811 13.63492,0.87905 z m -92.81079,-20.02742 c 7.51819,-7.9716 6.8796,-18.1879 -1.13686,-18.1879 -7.21416,0 -14.49152,7.99926 -14.49152,15.92906 0,4.69925 2.06537,6.55842 7.28584,6.55842 3.26779,0 5.25195,-1.0226 8.34254,-4.29958 z m 60.94126,-22.08136 c 6.88994,-3.46369 9.63234,-5.96717 9.63234,-8.79321 0,-3.025 -1.10866,-2.92168 -10.3395,0.96352 -10.38565,4.37126 -15.79409,3.31395 -18.02947,-3.52464 -1.24288,-3.80227 -1.16723,-5.79314 0.4237,-11.15036 3.91102,-13.16984 21.60291,-25.65499 31.4766,-22.213 7.36241,2.56655 8.30905,8.58024 3.15758,20.05922 -4.97824,11.093 -1.11067,11.8082 6.40594,1.18462 3.17771,-4.49123 3.72843,-6.42725 3.74792,-13.17565 0.0178,-6.16459 -0.52871,-8.53012 -2.47577,-10.71639 -3.30851,-3.71497 -9.4407,-6.20886 -15.26385,-6.20765 -6.46697,0.001 -18.59865,6.07222 -24.99709,12.50891 -8.06107,8.10925 -11.58518,16.19733 -11.58518,26.58875 0,8.14283 0.23735,8.86213 4.24763,12.87241 3.82644,3.82644 4.94629,4.24763 11.29351,4.24763 4.68555,0 8.80786,-0.88578 12.30564,-2.64416 z m 104.1487,-45.23021 c 5.03244,-5.49133 6.50962,-12.12928 3.66528,-16.4703 -4.16216,-6.35227 -16.90053,-2.97587 -21.36829,5.66383 -2.49005,4.81523 -2.34342,11.09561 0.32798,14.04748 3.56685,3.94131 12.28288,2.3155 17.37503,-3.24101 z m -90.31812,-46.20276 c 7.48536,-7.05961 7.26061,-14.61232 -0.43483,-14.61232 -4.40959,0 -9.13374,3.75073 -11.79935,9.36809 -2.92186,6.15737 -1.66708,9.37147 3.65861,9.37147 3.03582,0 5.41199,-1.1436 8.57557,-4.12724 z m 314.99895,-45.95238 c 22.98167,-7.67727 43.00345,-29.26676 48.25982,-52.03857 l 1.44524,-6.26115 8.25403,-1.35495 c 10.19186,-1.67305 15.13687,-6.14278 15.10607,-13.6542 -0.0362,-8.81944 -4.18081,-10.52687 -6.706,-2.76261 -3.91637,12.04178 -18.82964,7.53781 -72.67453,-21.94848 -38.79626,-21.24543 -57.27201,-28.04598 -76.1387,-28.02513 -9.32218,0.0103 -14.71769,1.8512 -15.37117,5.24452 -0.29219,1.51718 1.00324,2.46398 4.75259,3.47357 l 5.15425,1.3879 -2.66779,3.99087 c -8.5773,12.83123 -12.45174,25.92926 -12.45174,42.09465 0,18.86937 4.70667,32.2987 16.06654,45.84202 10.19412,12.15349 24.97396,21.66833 40.39668,26.00621 10.17412,2.86163 35.25265,1.78761 46.57471,-1.99465 z m 185.50639,-7.35984 c 1.81304,-3.3877 -1.08244,-10.067 -5.66594,-13.07023 -1.93793,-1.26977 -5.89325,-2.57578 -8.78962,-2.90224 -4.67668,-0.52714 -5.51662,-0.21127 -7.50405,2.82192 -2.00999,3.06763 -2.05135,3.74789 -0.40616,6.67902 4.50141,8.01981 19.25282,12.28813 22.36577,6.47153 z m 59.28851,-1.20193 c 2.49018,-2.7516 2.88514,-9.72286 0.77433,-13.66695 -2.06014,-3.84939 -8.16283,-3.57431 -10.82451,0.48794 -2.3785,3.63004 -1.65099,9.7608 1.58221,13.33345 2.65701,2.93595 5.7218,2.88006 8.46797,-0.15444 z m -475.66785,-8.66215 c 2.74678,-4.08578 2.82156,-6.4054 0.20652,-6.4054 -2.05405,0 -8.5753,7.11843 -8.5753,9.36057 0,3.50275 5.28092,1.63796 8.36878,-2.95517 z"
     id="path16"
     transform="translate(83,98)" />
  <path
     style="fill:#ffffff;stroke-width:0.645805"
     d="m 346.595,785.94706 c -2.50803,-2.11037 -3.72031,-5.28992 -4.96421,-13.02007 -1.1427,-7.10119 -2.19011,-9.2626 -4.48861,-9.2626 -0.90762,0 -2.10795,-0.70582 -2.88904,-1.69883 -2.28947,-2.91057 -2.81959,-6.34351 -2.3459,-15.19131 0.31775,-5.93516 0.23167,-8.29898 -0.3145,-8.63654 -1.2821,-0.79238 -3.90237,2.55109 -5.38874,6.87605 -1.73108,5.03702 -2.88709,5.42782 -6.61551,2.23643 -3.7992,-3.25197 -5.56918,-7.72249 -5.9137,-14.93646 -0.47069,-9.8561 2.06391,-17.2163 8.81365,-25.5939 l 3.99401,-4.95726 -2.40379,-4.37315 c -2.24082,-4.07668 -2.39937,-4.72571 -2.3386,-9.57336 0.15305,-12.20804 7.95641,-25.22425 18.0522,-30.11154 4.12436,-1.99657 9.51247,-2.34067 12.44599,-0.79484 2.23367,1.17703 2.5236,1.537 4.05979,5.04042 1.28189,2.92349 3.02933,2.51071 5.46784,-1.29161 3.93262,-6.13205 5.71112,-8.20428 9.47452,-11.03928 3.58733,-2.70237 3.99434,-2.84553 8.09032,-2.84553 3.02847,0 4.78849,0.33067 5.9097,1.1103 3.86182,2.68529 5.13239,6.06989 3.98119,10.60525 -1.27853,5.03703 0.50169,5.61884 7.62555,2.49216 5.73056,-2.51515 10.04131,-2.60948 13.97235,-0.30573 7.77341,4.55552 8.0622,15.48899 0.60952,23.07578 -3.03651,3.09115 -6.27582,4.72675 -10.49564,5.29946 -5.35927,0.72736 -5.80623,1.32024 -4.80243,6.37033 0.63616,3.20049 0.66612,4.76369 0.12289,6.40971 -1.00816,3.05478 -5.13532,6.86158 -8.51703,7.85594 -3.57593,1.05146 -3.76848,2.06746 -1.58873,8.38279 1.91307,5.54263 1.9972,6.80501 0.73339,11.00433 -1.84763,6.13921 -7.2056,11.3924 -12.53861,12.29341 -3.25657,0.55019 -5.16713,-0.29062 -9.42769,-4.149 -1.98053,-1.79358 -3.85292,-3.26105 -4.16086,-3.26105 -1.1035,0 -1.89554,1.66758 -2.30053,4.84353 -0.8907,6.98511 -1.09798,7.56112 -3.76033,10.44943 -2.54661,2.76274 -2.67176,3.08722 -2.52679,6.55145 0.0839,2.00461 1.01702,7.51132 2.07364,12.23712 1.05663,4.72581 1.92114,9.75274 1.92114,11.17095 0,7.12025 -4.95996,10.61332 -9.56645,6.73722 z m 18.78568,-91.86946 c 1.22576,-1.35445 5.14194,-9.90903 4.72644,-10.32453 -0.73774,-0.73774 -4.45218,0.77024 -6.19833,2.51639 -2.38775,2.38775 -2.96994,4.50386 -1.92991,7.01472 0.90765,2.19124 1.92256,2.42796 3.4018,0.79342 z"
     id="path17"
     transform="translate(83,98)" />
  <path
     style="fill:#ffffff;stroke-width:0.645805"
     d="m 408.69241,772.40011 c -3.43653,-2.40704 -4.20441,-9.32021 -1.52469,-13.72666 2.77176,-4.55779 7.12382,-5.16655 10.64688,-1.48926 2.15178,2.24597 2.93751,7.21225 1.6376,10.35052 -1.94719,4.70093 -7.44519,7.18704 -10.75979,4.8654 z"
     id="path18"
     transform="translate(83,98)" />
  <path
     style="fill:#ffffff;stroke-width:0.0339348"
     d="m 415.14988,714.93886 c -0.27488,-0.0772 -0.4464,-0.17846 -0.65444,-0.38651 -0.31902,-0.31903 -0.48499,-0.75774 -0.48217,-1.27452 0.003,-0.58753 0.22232,-1.07574 0.70171,-1.56347 0.73717,-0.75001 1.32711,-0.88228 1.79038,-0.40142 0.37997,0.39439 0.58093,1.47424 0.41452,2.22739 -0.21783,0.98591 -1.01002,1.61184 -1.77,1.39853 z"
     id="path19"
     transform="translate(83,98)" />
  <path
     style="fill:#ffffff;stroke-width:0.715959"
     d="m 167.84775,915.97759 c -10.85171,-1.46961 -21.08316,-8.31692 -30.35271,-20.31326 -7.48862,-9.69152 -10.63571,-15.55698 -11.5235,-21.47724 -0.27013,-1.80128 -1.06644,-3.98553 -1.76958,-4.85388 -1.25006,-1.54376 -1.31112,-1.54927 -2.7491,-0.24791 -0.80885,0.732 -2.00689,2.98447 -2.6623,5.00549 -6.78207,20.91297 -25.219053,32.7786 -43.52364,28.01086 -15.788995,-4.11251 -21.000694,-19.7148 -13.944021,-41.74429 2.604352,-8.13025 9.410577,-23.41203 13.472364,-30.24903 2.892537,-4.86886 2.903525,-4.87764 5.934903,-4.74292 4.367976,0.19412 4.255738,-1.44704 -0.627303,-9.17249 -10.105119,-15.9873 -19.808102,-40.11928 -23.475003,-58.38393 -3.011444,-14.99985 -3.021357,-15.45209 -0.443856,-20.25006 1.63904,-3.05103 2.419021,-5.72239 2.898625,-9.92752 0.360894,-3.16428 0.848926,-6.36055 1.084514,-7.10282 0.693646,-2.18549 2.910019,-2.91866 7.202005,-2.38241 2.902823,0.36268 4.74499,0.17827 7.063219,-0.70707 5.948177,-2.27163 11.428387,-10.27283 13.273394,-19.37938 0.478681,-2.36266 1.182388,-4.68082 1.563794,-5.15146 0.381405,-0.47064 2.287327,-1.3851 4.235382,-2.03214 4.28906,-1.4246 10.106943,-6.8206 12.108413,-11.23037 0.80789,-1.77998 1.39762,-4.66254 1.40675,-6.87606 0.0133,-3.21927 -0.17498,-3.77456 -1.21202,-3.57484 -1.18917,0.22901 -2.1579,1.49816 -5.931841,7.77143 -2.645152,4.39692 -6.543966,6.41629 -12.388,6.41629 -5.724442,0 -5.886609,0.20939 -6.412854,8.28034 -0.613148,9.40378 -3.904137,15.27051 -9.992874,17.81391 l -2.661236,1.11167 -3.669625,-3.25915 c -2.018294,-1.79253 -4.042552,-3.13688 -4.498351,-2.98744 -0.4558,0.14944 -1.221861,1.83995 -1.702358,3.7567 -0.480497,1.91675 -1.863659,4.86359 -3.073693,6.54853 -1.540093,2.14454 -2.518039,4.72546 -3.260072,8.60371 -0.583006,3.0471 -1.543088,6.27744 -2.133513,7.17855 -1.353714,2.06603 -4.127445,2.13121 -6.114956,0.1437 -4.045264,-4.04527 -4.625793,-12.13486 -1.6181,-22.548 2.00878,-6.95474 1.900196,-8.7809 -0.560375,-9.42435 -1.386871,-0.36268 -1.485231,-0.75883 -1.138316,-4.58467 0.511845,-5.64472 3.603204,-11.85865 9.386129,-18.86702 4.90363,-5.94276 5.743861,-8.358 3.352806,-9.63765 -2.163777,-1.15802 -3.324474,-7.5565 -2.303903,-12.70052 2.502928,-12.61561 12.632479,-23.12521 22.288954,-23.12521 3.092126,0 3.967221,0.34483 6.359216,2.50585 1.525525,1.37822 3.247247,2.50586 3.826049,2.50586 0.578801,0 1.953308,-1.69145 3.054459,-3.75878 5.219762,-9.79973 13.602994,-13.83646 20.229534,-9.74103 2.06076,1.27362 2.59504,1.36515 3.13445,0.53697 0.89407,-1.37269 0.11283,-4.25787 -1.67022,-6.16828 -4.66669,-5 -14.317889,-3.14158 -21.763915,4.19084 l -3.665322,3.6094 -3.136286,-1.61293 c -2.482409,-1.27666 -4.218483,-1.593 -8.326987,-1.51732 -3.110575,0.0573 -5.1907,-0.19677 -5.1907,-0.63402 0,-0.4013 1.744493,-4.33759 3.876651,-8.74732 12.781167,-26.43401 32.666439,-44.9384 57.337819,-53.35613 8.262,-2.81894 13.84634,-3.69261 23.64542,-3.69933 9.83772,-0.007 18.64662,1.06774 24.28633,2.96235 6.99407,2.3496 19.67694,8.72329 25.24991,12.68917 18.77145,13.3583 33.82468,35.52566 43.0915,63.45651 6.41878,19.34665 8.97088,35.21041 9.79035,60.85649 0.45122,14.12129 -0.10218,31.49674 -0.92921,29.17532 -0.47647,-1.33741 -3.63295,-1.07947 -4.38063,0.35798 -0.35844,0.68911 -1.84752,6.52785 -3.30906,12.97498 -6.52624,28.78836 -15.22832,46.62099 -29.74165,60.94775 -10.2053,10.07412 -22.44805,17.12838 -36.2195,20.86968 -4.77137,1.29623 -7.68948,1.54491 -18.54936,1.58076 -19.95494,0.0659 -27.92089,-1.71334 -46.33574,-10.34909 -5.79579,-2.71796 -10.87015,-4.94176 -11.27635,-4.94176 -1.72948,0 -0.51339,2.88901 2.31258,5.4939 8.84552,8.15352 23.08585,15.35699 37.65257,19.04659 5.40145,1.36813 8.06463,1.56445 20.86875,1.53844 12.79797,-0.026 15.50216,-0.23698 21.12078,-1.64781 7.7928,-1.95674 11.47508,-2.1117 14.31966,-0.6026 1.18107,0.62658 5.69139,4.25494 10.02294,8.06302 7.88505,6.93215 16.11341,13.27356 28.01448,21.59014 12.76162,8.91792 19.36067,16.46668 21.06926,24.10144 3.61227,16.14137 -18.48794,20.56101 -43.52001,8.7032 -9.29073,-4.40106 -13.91659,-8.02495 -17.67592,-13.84731 -5.87069,-9.09241 -13.21806,-15.87827 -17.19213,-15.87827 -2.69798,0 -2.36181,1.32393 2.32396,9.15249 4.89263,8.17417 6.88685,12.68596 8.34943,18.89001 4.15548,17.62696 -5.60401,29.29393 -22.58126,26.99475 z M 94.074402,654.36134 c 2.326224,-2.64942 3.185495,-7.49773 1.327095,-7.48794 -2.782361,0.0147 -7.682946,5.37141 -7.691839,8.4078 -0.0079,2.70092 3.649799,2.17229 6.364744,-0.91986 z"
     id="path20"
     transform="translate(83,98)" />
  <path
     style="fill:#ffffff;stroke-width:0.242757"
     d="m 318.26277,552.27578 c -2.23529,-0.59306 -3.5012,-2.73931 -3.18842,-5.40572 0.64176,-5.47085 5.67663,-11.20005 11.05319,-12.57746 3.5642,-0.9131 5.98891,0.74738 6.46563,4.42776 0.33177,2.5613 -1.21582,5.88364 -4.2531,9.13051 -3.26799,3.49348 -7.15498,5.20025 -10.0773,4.42491 z"
     id="path21"
     transform="translate(83,98)" />
  <path
     style="fill:#ffffff;stroke-width:0.242757"
     d="m 385.79881,469.51427 c -1.8471,-0.67049 -2.46092,-1.70414 -2.3206,-3.90784 0.1466,-2.30231 1.29078,-4.41176 3.69717,-6.81629 2.29808,-2.29629 4.11801,-3.30749 6.19127,-3.44002 1.58472,-0.1013 2.64395,0.42296 3.41446,1.68996 2.00368,3.29478 -1.24442,9.21834 -6.42831,11.72332 -2.04209,0.98679 -3.32246,1.1979 -4.55399,0.75087 z"
     id="path22"
     transform="translate(83,98)" />
  <path
     style="fill:#ffffff;stroke-width:0.102112"
     d="m 223.37053,536.21713 c -2.04984,-1.0953 -1.61315,-4.23172 1.08907,-7.82193 1.17266,-1.55803 3.0016,-3.12518 4.39748,-3.76803 0.48802,-0.22474 0.7393,-0.27212 1.46413,-0.27606 1.15721,-0.006 1.55752,0.23483 2.04967,1.23453 0.29203,0.59319 0.3377,0.79048 0.33775,1.45923 5e-5,0.59006 -0.0577,0.90639 -0.24354,1.33492 -1.44631,3.33437 -5.92999,7.72662 -8.19149,8.02445 -0.34893,0.046 -0.54161,0.006 -0.90307,-0.18711 z"
     id="path23"
     transform="translate(83,98)" />
  <path
     style="fill:#ffffff;stroke-width:0.0776675"
     d="m 299.54953,422.81777 c -0.99676,-0.51119 -0.42853,-2.40891 1.47556,-4.92791 1.7081,-2.25972 3.92858,-3.80575 5.466,-3.80575 0.64227,0 1.01072,0.18328 1.25996,0.62675 0.41711,0.74213 0.17572,1.60494 -0.85677,3.06246 -0.612,0.86393 -2.59157,2.86623 -3.49928,3.53945 -1.74997,1.29791 -3.16752,1.85269 -3.84547,1.505 z"
     id="path24"
     transform="translate(83,98)" />
  <path
     style="fill:#ffffff;stroke-width:0.336036"
     d="m 749.35926,844.07359 c -25.83216,-1.61361 -35.58706,-2.20408 -43.5166,-2.63406 -5.26736,-0.28562 -11.15324,-0.66856 -13.07974,-0.85098 -1.9265,-0.18242 -3.70329,-0.33168 -3.94842,-0.33168 -0.64978,0 -0.54542,-0.5639 0.14237,-0.76929 0.32344,-0.0966 3.53678,-1.30242 7.14076,-2.67964 12.37667,-4.7296 22.12429,-9.12043 40.15934,-18.08986 9.28792,-4.61918 13.09247,-6.35111 13.94548,-6.34832 1.78777,0.006 10.74709,3.1338 15.38294,5.37061 10.50117,5.06683 15.72212,10.18873 16.12496,15.81903 0.13404,1.87335 0.0332,2.54208 -0.57217,3.7925 -1.41912,2.9315 -4.67454,5.07739 -9.32005,6.14354 -1.7156,0.39372 -4.59243,0.54949 -11.3697,0.61559 -4.99012,0.0487 -9.98025,0.0318 -11.08917,-0.0374 z"
     id="path25"
     transform="translate(83,98)" />
  <path
     style="fill:#ffffff;stroke-width:0.336036"
     d="m 945.436,918.5421 c -4.71478,-0.98532 -9.89613,-4.14288 -13.28467,-8.09577 -2.01789,-2.35396 -4.7306,-7.86192 -5.44084,-11.0472 -0.87963,-3.94499 -0.7994,-15.35881 0.14528,-20.66619 1.34988,-7.58395 1.35823,-8.56665 0.0785,-9.25153 -2.25788,-1.20838 -7.15555,5.35829 -9.77979,13.11252 -1.08709,3.21219 -2.35562,5.26614 -5.13065,8.30737 -5.88597,6.45057 -17.45809,14.05357 -25.3941,16.68419 -6.16087,2.04219 -13.59307,2.63062 -18.14592,1.43672 -6.75032,-1.7702 -11.42358,-6.1397 -12.77489,-11.94458 -1.60654,-6.90126 2.90952,-18.72357 10.81606,-28.31456 0.96457,-1.17008 3.91792,-4.24443 6.563,-6.8319 3.90882,-3.82369 4.80882,-4.87907 4.80703,-5.63692 -0.008,-3.49846 -8.61633,-0.13628 -17.08401,6.67277 -3.23305,2.59977 -7.43767,6.92728 -8.86165,9.12065 -2.15676,3.32212 -5.64408,5.06211 -12.70063,6.33689 -4.2999,0.77682 -12.97577,0.78169 -16.44003,0.009 -10.44749,-2.32954 -14.88718,-10.55471 -10.44597,-19.3527 1.23903,-2.4545 3.55696,-5.50536 5.77154,-7.59652 5.05781,-4.77591 18.25242,-11.93783 29.68336,-16.11187 11.65174,-4.25466 23.30691,-9.20069 25.70499,-10.90828 2.0235,-1.44087 0.66907,-4.11872 -2.34332,-4.63298 -0.99309,-0.16953 -1.66041,-0.52684 -2.11093,-1.13027 -0.88688,-1.18788 -1.76037,-5.01883 -2.66872,-11.70449 -0.66484,-4.89334 -0.75523,-7.00689 -0.762,-17.81723 -0.006,-9.72872 0.11456,-13.24108 0.58339,-16.98358 1.32773,-10.59877 4.75838,-20.40272 10.5165,-30.05351 5.72674,-9.59822 12.15617,-16.93726 21.98948,-25.10047 3.51192,-2.91545 4.12335,-3.58755 3.97512,-4.36953 -0.17691,-0.93325 -1.96512,-0.94102 -4.24915,-0.0185 -2.75084,1.11111 -9.79705,5.37333 -15.0047,9.07627 -8.38548,5.96255 -16.96398,15.85898 -22.70741,26.196 -0.79433,1.42964 -1.77086,2.9062 -2.17006,3.28123 l -0.72582,0.68187 -1.37547,-0.99638 c -2.02035,-1.46354 -7.75427,-7.0484 -10.03299,-9.77218 -1.08859,-1.30121 -2.54812,-3.36067 -3.24338,-4.57658 l -1.26412,-2.21074 4.14173,-5.59246 c 14.75417,-19.92218 24.45127,-35.98134 33.1033,-54.82167 12.06665,-26.27588 19.17326,-52.57175 21.79572,-80.64853 1.06228,-11.37308 0.66565,-37.45523 -0.73124,-48.0854 -0.1473,-1.12096 0.0933,-1.52233 3.32332,-5.54458 1.91517,-2.38488 3.93555,-4.66679 4.48974,-5.07091 l 1.00762,-0.73476 0.83787,0.90278 c 1.57798,1.70024 5.05919,7.24148 6.67516,10.62524 1.62386,3.40027 2.98223,8.07614 2.98661,10.28069 0.002,0.86282 -0.36324,1.67173 -1.34179,2.97406 -0.73928,0.98388 -1.34414,2.00052 -1.34414,2.25919 0,0.74393 1.15558,1.7096 3.40405,2.84462 2.24442,1.13298 5.47382,4.16819 8.02864,7.54586 1.75967,2.32641 2.21255,2.46945 5.23132,1.65231 5.22106,-1.41327 13.09586,1.0399 18.12191,5.64536 1.74638,1.60024 2.47808,2.6069 3.68845,5.07455 1.50056,3.05926 2.5287,6.30463 2.51458,7.93741 -0.0144,1.66022 -1.22667,3.59758 -3.29578,5.2669 -1.11478,0.89938 -2.03734,1.7987 -2.05013,1.99849 -0.0128,0.19979 1.09473,1.44732 2.46118,2.77229 3.09907,3.005 3.66464,3.07887 5.86528,0.766 0.85982,-0.90367 2.07733,-1.81097 2.70557,-2.01621 2.79312,-0.91251 7.25967,-0.0458 12.10587,2.34908 2.82692,1.397 3.96304,2.19322 5.88589,4.12494 7.25549,7.28899 7.96615,18.15155 1.58313,24.19828 l -1.02426,0.97029 -1.6177,-1.03807 c -3.48686,-2.23752 -4.99042,-2.45677 -6.02453,-0.87851 -1.59962,2.44132 2.69074,8.5449 6.00642,8.5449 2.64595,0 6.16321,3.39731 8.50852,8.21838 3.31586,6.81614 3.19671,12.14075 -0.34119,15.24706 -1.68006,1.47511 -2.68679,1.66298 -3.94128,0.7355 -1.4856,-1.09835 -3.25094,-1.24734 -4.3658,-0.36846 -1.06555,0.84001 -1.16992,1.49393 -1.61312,10.10711 -0.17025,3.30868 -0.5368,6.76243 -0.8381,7.89683 -1.49299,5.62112 -5.1439,7.69455 -8.44503,4.79612 -1.77831,-1.56137 -2.17066,-3.3984 -2.45978,-11.51683 l -0.2513,-7.05674 -1.48157,-4.20045 c -1.38716,-3.9328 -1.47754,-4.40223 -1.41843,-7.36734 0.068,-3.41314 -0.10132,-3.98166 -1.68425,-5.65403 -1.42067,-1.50094 -2.42735,-1.43399 -4.02875,0.26794 -1.51053,1.60536 -2.41041,2.00029 -4.55784,2.00029 -3.22581,0 -7.02587,-2.90602 -8.9236,-6.82414 -2.64888,-5.46898 -2.57,-11.72117 0.21672,-17.17841 0.40769,-0.79838 0.76254,-2.27774 0.8521,-3.55236 0.13183,-1.87618 0.0502,-2.31456 -0.57879,-3.10833 -0.69155,-0.87271 -0.88507,-0.9242 -3.48017,-0.92604 -5.53655,-0.004 -8.74823,-1.04382 -10.88259,-3.52362 -1.49248,-1.73403 -3.704,-6.29052 -4.19934,-8.65212 -0.36331,-1.73207 -0.30299,-2.14737 1.01854,-7.01299 0.77259,-2.84455 1.4042,-5.49362 1.40357,-5.88684 -0.001,-0.92735 -0.5035,-1.31325 -2.35149,-1.80754 -3.73144,-0.99805 -5.75063,-2.76989 -7.76927,-6.81749 -2.1633,-4.33767 -3.72475,-5.53041 -5.16156,-3.94276 -0.9854,1.08886 -0.53441,3.55424 1.34141,7.33288 1.27308,2.5645 2.10499,3.72993 3.95359,5.53863 2.6668,2.60922 2.54711,1.89355 1.40624,8.40879 -0.4939,2.8205 -0.51988,3.73571 -0.18107,6.37761 0.98979,7.71799 4.86151,12.93609 12.30437,16.58319 2.75094,1.348 3.84943,2.05622 3.84943,2.48181 0,0.32754 -0.24574,1.78364 -0.5461,3.23576 -1.20234,5.81293 -0.0841,13.35358 2.73376,18.43389 2.75569,4.9683 8.47101,8.7516 14.5275,9.6166 1.43379,0.20478 2.95434,0.59029 3.37901,0.8567 1.10238,0.69155 1.9728,2.24916 2.92132,5.22766 0.76286,2.39547 0.82074,3.04316 0.7508,8.40089 -0.0631,4.83235 0.0276,6.14028 0.54098,7.80395 1.48765,4.82079 4.25589,8.54906 7.54802,10.16573 3.90786,1.91901 8.9043,1.00975 12.1196,-2.20556 2.53881,-2.53881 3.77464,-5.84689 4.56411,-12.2173 0.64486,-5.20352 0.70531,-5.30231 3.24439,-5.30231 2.52388,0 3.01753,0.26308 4.24603,2.26287 1.35208,2.20095 5.49837,11.34414 7.66779,16.90876 6.4881,16.64158 11.8401,38.22259 13.246,53.41205 1.3939,15.05977 1.3106,41.92413 -0.1757,56.62199 -0.8612,8.51669 -3.7265,23.91996 -5.8687,31.54913 -0.709,2.5248 -0.9107,3.76672 -0.7015,4.31718 0.4256,1.11925 2.4627,3.60919 6.3964,7.81831 9.3757,10.03204 14.6054,18.25371 16.707,26.26548 0.7084,2.70068 0.8711,4.10514 0.8891,7.67411 0.034,6.72151 -0.7012,9.23378 -3.8343,13.10538 -2.1689,2.68019 -4.2468,4.03256 -7.5228,4.89617 -4.1402,1.09145 -8.1115,1.20688 -11.7612,0.34182 -3.7937,-0.89913 -9.45663,-3.64074 -13.2734,-6.42607 -5.08961,-3.71421 -5.3753,-4.10428 -6.5855,-8.99164 -1.5426,-6.22967 -5.57219,-13.12475 -8.07403,-13.81553 -2.7443,-0.75774 -2.9583,0.28489 -1.76676,8.60805 1.92277,13.43104 -1.00236,25.05138 -8.416,33.43335 -1.89333,2.14062 -5.53837,4.83539 -7.58514,5.60773 -3.59073,1.3549 -13.17614,2.35813 -16.29772,1.70575 z"
     id="path26"
     transform="translate(83,98)" />
  <path
     style="fill:#ffffff;stroke-width:0.377723"
     d="m 583.24534,371.84827 c -1.22385,-0.18916 -3.85847,-0.78836 -5.8547,-1.33156 -23.42094,-6.37308 -42.03026,-24.944 -48.17292,-48.07349 -2.71626,-10.2278 -2.14156,-22.93934 1.539,-34.04027 2.66084,-8.02537 6.57009,-14.84374 12.32354,-21.4943 3.66503,-4.2365 4.30995,-4.50593 8.67021,-3.62226 6.177,1.25187 14.13618,3.74987 22.1995,6.96735 4.62271,1.84458 13.5982,6.06366 13.59764,6.3918 -2.1e-4,0.12395 -0.89258,0.72008 -1.98305,1.32474 -4.49705,2.4936 -6.00468,4.45252 -3.77684,4.90738 0.57131,0.11664 2.56244,0.39441 4.42474,0.61727 4.23851,0.50722 5.2848,1.00593 7.93114,3.78033 2.97658,3.12064 4.16387,5.80641 4.16696,9.42609 0.002,2.42884 -0.15542,3.11785 -1.10418,4.83047 -1.50371,2.71436 -3.85526,4.78158 -7.32187,6.43654 -2.4323,1.16119 -3.30127,1.38478 -5.3583,1.37873 -5.81478,-0.0171 -10.93861,-4.44972 -13.41696,-11.607 -0.34169,-0.9868 -0.84124,-1.79419 -1.1101,-1.79419 -0.68046,0 -1.86154,2.95748 -2.80037,7.01223 -2.24171,9.68185 -1.48849,16.57403 2.7631,25.28308 4.98078,10.20275 12.7235,17.08963 22.28871,19.82504 6.09001,1.74159 17.89062,1.99492 22.11573,0.47479 8.11981,-2.9214 15.1495,-7.73608 19.95075,-13.66439 2.57421,-3.17849 5.4959,-9.14149 6.48993,-13.24559 0.4277,-1.76585 0.97207,-5.71293 1.2097,-8.77128 0.23764,-3.05834 0.55325,-5.75671 0.70137,-5.99637 0.18525,-0.29974 2.50824,0.57712 7.44247,2.80932 3.94524,1.78478 8.08646,3.60421 9.20272,4.04317 3.13159,1.23149 3.47765,1.67682 3.21553,4.13793 -0.30324,2.84729 -1.92027,8.9018 -3.53086,13.2203 -6.66829,17.87993 -20.84187,31.40775 -39.77121,37.95918 -8.23907,2.85153 -8.73907,2.92105 -21.90793,3.046 -6.54405,0.0621 -12.8996,-0.0419 -14.12345,-0.23104 z"
     id="path27"
     transform="translate(83,98)" />
  <path
     style="fill:#ffffff;stroke-width:0.287385"
     d="m 905.25868,337.60499 c -4.57883,-2.85628 -8.1874,-5.77138 -8.1874,-6.614 0,-0.24969 0.6467,-1.75725 1.4371,-3.35014 2.64001,-5.32034 3.61754,-10.90341 3.36574,-19.2232 -0.31156,-10.29479 -2.06814,-14.69377 -9.06512,-22.70178 -3.75383,-4.29624 -6.86406,-6.80578 -8.43753,-6.80796 -0.42534,-5.9e-4 -0.85962,-0.14066 -0.96506,-0.31127 -0.10543,-0.1706 1.63596,-4.00349 3.86976,-8.51753 l 4.06147,-8.20734 2.6737,2.84168 c 8.45915,8.99064 11.54721,13.24965 14.87532,20.51584 6.81252,14.87365 7.78044,30.20163 2.86308,45.33953 -1.1007,3.38848 -2.56218,6.65664 -3.40358,7.6111 -0.64126,0.72744 -1.1522,0.6323 -3.08748,-0.57493 z"
     id="path28"
     transform="translate(83,98)" />
  <path
     style="fill:#ffffff;stroke-width:0.287385"
     d="m 867.8512,309.54472 c -0.66003,-0.2141 -1.65053,-0.66767 -2.20109,-1.00794 -1.14058,-0.70492 -4.50192,-4.19851 -4.50192,-4.67905 0,-0.39648 10.55298,-10.95593 11.38438,-11.39137 0.50277,-0.26331 0.83178,-0.17588 1.90914,0.50736 3.36206,2.13216 4.34144,8.3973 1.99396,12.75551 -1.68984,3.13727 -5.48081,4.82222 -8.58447,3.81549 z"
     id="path29"
     transform="translate(83,98)" />
  <path
     style="fill:#ffff00;stroke-width:0.443131"
     d="m 639.65982,198.8837 c -15.04052,-9.28806 -32.18403,-13.87644 -51.84635,-13.87644 -13.80237,0 -21.82672,1.4684 -36.25218,6.63389 -4.21862,1.51061 -7.93301,2.64572 -8.2542,2.52247 -0.32119,-0.12325 -1.1853,-1.88593 -1.92025,-3.91708 -2.755,-7.6138 -19.93619,-63.11414 -22.86502,-73.86077 -1.03635,-3.80264 -1.06456,-4.12881 -0.34072,-3.93952 1.06748,0.27915 12.94191,7.44478 35.28433,21.29235 28.34316,17.56675 33.00879,20.24948 35.21665,20.24948 1.6622,0 4.13081,-2.34347 5.86662,-5.56922 0.65785,-1.22251 5.17312,-11.88573 10.03393,-23.69603 22.47512,-54.607711 31.04664,-74.850374 32.2511,-76.164789 0.32226,-0.351676 2.50459,1.96751 7.88956,8.384312 6.04544,7.203823 26.41867,32.258356 37.4748,46.085637 18.05326,22.57821 22.93441,28.261 25.34957,29.51274 0.65814,0.3411 2.0086,0.62018 3.00104,0.62018 2.55761,0 3.79165,-1.2532 18.32686,-18.61151 15.41338,-18.407023 21.98579,-26.137277 24.76531,-29.128143 l 2.15487,-2.31871 -0.24479,3.204973 c -0.33251,4.353558 -1.3205,25.53406 -2.89866,62.14142 -1.40868,32.67613 -2.1607,47.73532 -2.39548,47.97011 -0.0801,0.0801 -3.14486,-0.36197 -6.81059,-0.98235 -10.34523,-1.75081 -18.51786,-2.1392 -39.31082,-1.86817 -22.6085,0.2947 -28.35288,0.94473 -53.68001,6.07444 -3.57639,0.72436 -6.72068,1.31163 -6.98731,1.30505 -0.26663,-0.007 -1.98035,-0.93552 -3.80826,-2.06432 z m 39.35121,-11.6498 c 7.65158,-4.07859 11.76435,-13.0929 11.73136,-25.7126 -0.025,-9.56872 -2.19044,-17.2194 -6.84226,-24.17444 -2.70312,-4.04151 -7.56847,-8.93911 -10.42438,-10.49349 -4.35857,-2.37223 -11.061,-2.58441 -15.53224,-0.49169 -4.18619,1.9593 -8.78823,8.79142 -10.53489,15.63994 -4.22316,16.55866 2.79721,36.8805 15.28823,44.25475 3.58996,2.11938 6.09721,2.77643 9.97624,2.61436 3.00963,-0.12574 3.96686,-0.37296 6.33794,-1.63683 z"
     id="path30"
     transform="translate(83,98)" />
  <path
     style="fill:#c60000;stroke-width:0.443131;fill-opacity:1"
     d="m 668.04195,179.01554 c -3.37546,-1.81875 -5.25625,-3.54592 -7.44229,-6.8344 -3.53324,-5.31511 -5.48166,-12.53126 -5.51051,-20.40872 -0.0226,-6.1754 0.62716,-9.70547 2.46091,-13.36939 2.73071,-5.45609 7.07474,-6.89227 12.48225,-4.12677 3.30419,1.68983 6.12835,5.09684 9.05293,10.92129 2.90042,5.77633 3.22866,7.67754 3.03646,17.58747 -0.14103,7.27153 -0.27237,8.503 -1.09403,10.25769 -1.89637,4.0498 -6.10694,7.55061 -9.0484,7.52317 -0.59329,-0.006 -2.36508,-0.70319 -3.93732,-1.55034 z"
     id="path31"
     transform="translate(83,98)" />
  <path
     style="fill:#ffff00;fill-opacity:1;stroke-width:0.239471"
     d="m 754.93167,220.05907 c -10.71597,-2.43865 -17.51833,-3.67369 -23.58787,-4.28264 -11.08775,-1.11241 -13.14183,-1.20804 -25.74311,-1.19845 -15.48797,0.0118 -22.31326,0.49966 -37.11797,2.65323 l -5.86704,0.85345 -4.31047,-4.39965 c -5.32692,-5.43712 -6.325,-6.61699 -5.85119,-6.9169 1.8297,-1.15812 19.56335,-4.22292 33.15086,-5.72926 6.72869,-0.74595 25.68277,-0.6366 41.30871,0.23832 6.48622,0.36318 8.62871,0.62905 14.60772,1.81276 11.24365,2.22597 15.17361,3.6933 17.9714,6.70996 1.70134,1.83444 2.26388,3.19723 2.26388,5.48435 0,2.16207 -0.62244,3.76516 -1.86928,4.81431 -0.8553,0.71969 -1.64741,0.71338 -4.95564,-0.0395 z"
     id="path32"
     transform="translate(83,98)" />
</svg>
