<?xml version="1.0" encoding="UTF-8" standalone="no"?>
<svg
   version="1.0"
   width="600.000000pt"
   height="429.000000pt"
   viewBox="0 0 600.000000 429.000000"
   preserveAspectRatio="xMidYMid meet"
   id="svg12"
   sodipodi:docname="frog13_t1.svg"
   inkscape:version="1.4.3 (0d15f75, 2025-12-25)"
   xmlns:inkscape="http://www.inkscape.org/namespaces/inkscape"
   xmlns:sodipodi="http://sodipodi.sourceforge.net/DTD/sodipodi-0.dtd"
   xmlns="http://www.w3.org/2000/svg"
   xmlns:svg="http://www.w3.org/2000/svg">
  <defs
     id="defs12" />
  <sodipodi:namedview
     id="namedview12"
     pagecolor="#505050"
     bordercolor="#ffffff"
     borderopacity="1"
     inkscape:showpageshadow="0"
     inkscape:pageopacity="0"
     inkscape:pagecheckerboard="1"
     inkscape:deskcolor="#505050"
     inkscape:document-units="pt"
     inkscape:zoom="1.3240361"
     inkscape:cx="395.00435"
     inkscape:cy="254.14716"
     inkscape:window-width="1920"
     inkscape:window-height="1022"
     inkscape:window-x="0"
     inkscape:window-y="30"
     inkscape:window-maximized="1"
     inkscape:current-layer="svg12" />
  <g
     transform="translate(0.000000,429.000000) scale(0.050000,-0.050000)"
     fill="#000000"
     stroke="none"
     id="g12">
    <path
       d="M6907 8321 c-46 -20 -136 -91 -200 -156 -107 -109 -126 -120 -225 -131 l-108 -13 -121 112 c-368 341 -743 268 -969 -186 l-51 -104 -195 -62 -196 -62 -106 67 c-539 339 -955 144 -1115 -522 -14 -57 -31 -104 -39 -104 -8 0 -79 -41 -157 -91 l-142 -91 -126 53 c-508 214 -819 -12 -828 -604 l-5 -262 -93 -118 c-51 -64 -111 -150 -134 -190 -36 -62 -55 -74 -133 -85 -155 -21 -261 -126 -283 -281 -10 -71 -26 -89 -173 -194 -301 -214 -523 -472 -604 -703 -26 -77 -59 -118 -147 -188 -532 -419 -743 -1435 -464 -2233 76 -217 78 -240 57 -533 -48 -642 543 -1170 777 -695 l36 75 115 -116 c297 -302 701 -279 702 41 0 66 -6 65 103 15 235 -106 447 -1 441 219 -2 75 27 201 46 201 2 0 80 -35 172 -78 312 -146 862 -302 1065 -302 62 0 76 -9 105 -70 65 -139 211 -243 435 -312 112 -34 266 -97 344 -139 321 -176 564 -166 656 28 l33 69 100 -38 c261 -99 500 9 500 227 0 74 1 75 82 75 52 0 104 16 144 44 59 42 79 44 393 39 501 -7 963 57 1478 207 l240 70 127 -34 c85 -23 209 -34 381 -35 l255 -1 12 -65 c22 -117 132 -191 269 -181 l114 8 28 -89 c56 -186 304 -238 537 -112 61 32 117 62 125 66 8 3 15 -9 15 -27 0 -19 32 -66 70 -104 128 -128 302 -95 614 119 52 36 145 96 207 135 131 82 215 198 250 345 14 58 51 146 82 197 633 1028 572 2293 -145 3023 l-152 155 38 84 c94 211 126 391 126 716 -1 460 -75 635 -401 950 -189 183 -209 228 -209 483 0 874 -652 1386 -1330 1047 l-160 -80 -186 71 c-376 141 -772 221 -1204 242 l-270 13 -95 88 c-162 150 -335 186 -508 107z m303 -98 c44 -21 120 -80 169 -134 l89 -96 191 5 c341 8 840 -76 1199 -202 259 -91 250 -83 202 -177 -53 -103 -36 -100 122 27 658 531 1316 134 1375 -829 21 -328 32 -353 263 -577 534 -517 471 -1375 -155 -2119 -71 -85 -72 -87 -15 -47 81 58 251 236 326 342 l61 86 133 -125 c680 -636 749 -1838 163 -2854 -55 -95 -107 -213 -116 -262 -21 -111 -86 -208 -177 -267 -38 -25 -162 -107 -274 -182 -250 -167 -350 -190 -437 -103 -65 66 -59 154 20 273 113 170 46 157 -149 -30 -419 -400 -842 -236 -444 172 62 63 107 120 100 126 -27 27 -122 -21 -230 -115 -181 -159 -351 -199 -406 -95 -78 147 87 327 414 449 219 82 238 102 253 275 33 390 231 782 507 1007 147 119 77 122 -96 4 -267 -183 -472 -579 -512 -990 -13 -139 -45 -171 -216 -225 -149 -47 -273 -122 -370 -224 l-96 -101 -257 1 c-410 2 -422 13 -157 151 794 414 1448 1164 1660 1906 88 307 60 392 -39 117 -558 -1552 -2034 -2462 -3855 -2374 l-173 8 -13 76 c-30 180 -222 325 -524 397 -162 39 -246 73 -246 99 -1 167 -96 544 -191 758 l-49 111 59 74 c503 635 335 1699 -320 2032 -184 93 -212 57 -46 -61 393 -281 566 -602 567 -1052 0 -303 -111 -651 -270 -847 l-48 -60 -114 115 c-111 112 -340 247 -390 230 -13 -4 33 -50 104 -100 360 -259 553 -652 603 -1226 6 -74 42 -92 308 -161 314 -81 476 -210 463 -368 -12 -145 -177 -155 -344 -22 -102 80 -241 145 -296 137 -40 -5 -31 -17 68 -91 308 -229 361 -403 140 -464 -128 -36 -250 8 -390 138 -205 191 -404 265 -231 86 151 -156 175 -248 88 -336 -81 -81 -181 -67 -451 61 -127 60 -296 128 -376 150 -208 58 -404 212 -404 318 0 11 -71 90 -157 176 -737 734 -1026 1842 -676 2592 63 134 163 280 316 459 78 91 64 115 -32 56 -180 -111 -388 -449 -475 -771 -181 -674 118 -1670 684 -2276 163 -174 162 -175 -96 -122 -456 94 -910 291 -1089 472 -102 102 -378 287 -481 321 -8 3 38 60 103 127 540 555 415 1864 -220 2313 -261 184 -516 229 -812 143 -180 -52 192 440 498 658 159 113 169 114 186 19 53 -288 442 -156 532 180 31 112 14 111 -60 -3 -78 -122 -221 -256 -292 -274 -87 -22 -115 27 -123 216 -12 259 60 346 285 346 133 0 146 5 105 46 -18 18 -1 56 73 164 113 166 117 169 226 172 173 6 566 264 745 490 108 136 87 146 -53 26 -311 -267 -626 -468 -692 -443 -68 26 -72 431 -6 615 95 263 319 319 687 172 105 -43 177 -62 181 -49 8 23 239 177 267 177 9 0 26 -23 36 -50 78 -206 753 -46 1059 252 115 111 89 119 -60 17 -283 -192 -562 -287 -809 -276 l-140 7 6 70 c62 711 493 961 1030 599 89 -59 146 -87 150 -71 3 13 66 44 140 67 242 76 224 75 224 9 0 -95 39 -112 226 -98 296 22 722 167 868 294 39 35 90 60 122 60 30 0 74 6 97 12 34 9 45 2 50 -33 6 -39 23 -24 112 96 172 232 328 304 495 228z m-1187 -56 c121 -67 281 -233 265 -275 -30 -78 -918 -310 -974 -254 -31 31 35 218 128 363 154 238 347 293 581 166z m-4401 -3720 c894 -422 966 -2314 93 -2457 -88 -14 -98 -44 -20 -61 381 -81 810 -378 770 -533 -8 -30 -21 -26 -90 34 -82 69 -195 120 -239 105 -13 -4 21 -41 75 -82 263 -199 290 -423 51 -423 -142 0 -268 73 -385 222 -89 113 -163 169 -190 142 -5 -5 24 -61 64 -124 301 -471 -78 -686 -437 -247 -39 48 -117 143 -174 212 -116 143 -149 147 -108 12 93 -310 -116 -474 -349 -275 -184 157 -274 482 -221 790 29 167 29 169 -23 298 -511 1271 258 2822 1183 2387z"
       id="path1" />
    <path
       d="M7300 7855 c-49 -10 -220 -13 -379 -7 -281 11 -326 0 -181 -45 186 -57 539 -42 633 27 52 38 31 46 -73 25z"
       id="path2" />
    <path
       d="M6290 7493 c-195 -51 -376 -177 -490 -343 -103 -150 -73 -150 101 1 391 338 766 334 1144 -12 162 -149 194 -148 98 2 -178 280 -546 432 -853 352z"
       id="path3" />
    <path
       d="M9777 7452 c-506 -180 -483 -1122 31 -1284 413 -130 759 337 625 842 -90 339 -387 538 -656 442z m337 -124 c295 -171 359 -689 119 -962 -295 -334 -742 -60 -742 454 0 433 313 688 623 508z"
       id="path4" />
    <path
       d="M9780 7135 c-308 -209 -111 -808 229 -695 90 29 183 137 212 245 84 311 -208 609 -441 450z m283 -88 c68 -61 25 -207 -60 -207 -83 0 -140 155 -79 216 34 34 96 30 139 -9z"
       id="path5" />
    <path
       d="M6207 7012 c-419 -196 -522 -825 -188 -1149 387 -375 1020 -137 1091 409 68 526 -451 950 -903 740z m463 -69 c399 -182 489 -742 167 -1033 -532 -481 -1238 265 -808 853 138 188 437 272 641 180z"
       id="path6" />
    <path
       d="M6320 6735 c-373 -199 -229 -778 187 -752 153 10 233 64 303 205 167 335 -174 716 -490 547z m371 -124 c81 -81 42 -191 -68 -191 -110 0 -161 122 -83 200 53 53 91 50 151 -9z"
       id="path7" />
    <path
       d="M3691 6378 c-149 -130 -72 -326 127 -326 118 0 195 46 233 138 84 200 -186 341 -360 188z m269 -38 c89 -89 8 -220 -136 -220 -141 0 -185 102 -86 202 71 70 163 77 222 18z"
       id="path8" />
    <path
       d="M9007 6131 c-51 -36 -94 -150 -75 -198 19 -51 85 -39 151 27 111 110 45 256 -76 171z"
       id="path9" />
    <path
       d="M7871 6089 c-47 -48 -38 -86 37 -161 72 -72 132 -86 170 -40 78 93 -121 286 -207 201z"
       id="path10" />
    <path
       d="M2875 5889 c-66 -36 -115 -125 -115 -209 0 -210 380 -219 437 -10 52 186 -141 317 -322 219z m225 -69 c89 -89 8 -240 -129 -240 -165 0 -202 169 -55 249 75 41 137 38 184 -9z"
       id="path11" />
    <path
       d="M10517 5438 c-237 -248 -496 -306 -1110 -248 -641 60 -853 39 -1537 -149 -1030 -283 -1731 -181 -2269 331 -194 185 -201 189 -201 121 0 -122 258 -350 570 -503 540 -265 1119 -280 1930 -49 611 174 914 206 1432 151 730 -78 1177 47 1334 373 67 138 -5 125 -149 -27z"
       id="path12" />
  </g>
  <path
     style="fill:#ffffff;stroke-width:0.755266"
     d="m 331.56197,539.35742 c -2.90778,-0.94787 -10.21498,-3.93769 -16.23823,-6.64404 -6.02325,-2.70635 -15.53961,-6.53839 -21.14746,-8.51564 -5.60785,-1.97724 -12.06538,-4.64563 -14.35006,-5.92974 -5.7284,-3.21965 -13.04666,-10.6993 -14.19232,-14.50528 -0.66808,-2.2194 -3.59662,-5.86676 -11.03612,-13.74496 -5.5697,-5.89814 -12.32728,-13.54521 -15.01685,-16.9935 -15.46249,-19.82437 -27.58589,-43.99432 -33.71942,-67.22503 -4.26445,-16.15161 -4.912,-21.40924 -4.91082,-39.87264 9.5e-4,-14.69596 0.22324,-17.98538 1.64413,-24.3299 4.20898,-18.79367 10.56287,-31.35206 24.7565,-48.93094 8.46804,-10.48769 9.20972,-12.82093 3.21869,-10.12546 -13.6756,6.15288 -31.27297,36.36662 -35.80984,61.48357 -1.74128,9.64004 -1.71755,30.51599 0.0476,41.91729 6.00678,38.79756 22.59542,73.90131 48.34092,102.29578 3.55676,3.92272 6.46683,7.40639 6.46683,7.74148 0,2.95594 -31.84621,-4.9169 -51.042,-12.61832 -16.519,-6.62747 -25.2868,-11.71998 -35.11048,-20.39283 -7.39658,-6.53008 -17.31373,-13.52478 -25.21169,-17.78213 l -6.38748,-3.44313 6.01398,-6.66116 c 16.11611,-17.85038 23.3715,-38.96675 23.3715,-68.02135 0,-39.03678 -15.326,-73.38527 -39.95952,-89.55693 -14.46123,-9.49366 -29.537322,-12.44134 -46.126332,-9.01865 -4.447619,0.91764 -7.428357,1.20952 -7.867484,0.77039 -2.053751,-2.05375 8.63811,-17.19047 20.652324,-29.23798 10.52641,-10.55558 22.870732,-19.77592 25.252592,-18.86191 0.56714,0.21763 1.27239,1.68153 1.56722,3.25311 1.98816,10.5978 10.3393,14.27174 20.61019,9.06707 4.15397,-2.10497 10.67219,-8.68777 12.86476,-12.9922 1.5612,-3.06495 3.94305,-10.41393 3.94305,-12.16593 0,-2.29532 -2.12312,-0.6353 -5.6645,4.42893 -7.20898,10.30897 -17.54923,19.21367 -21.61131,18.61101 -0.90772,-0.13468 -2.36424,-1.20443 -3.23671,-2.37723 -1.449,-1.94779 -1.58631,-3.12933 -1.58631,-13.64996 0,-11.20663 0.0543,-11.59957 2.00959,-14.55427 2.91075,-4.39844 6.2982,-5.73099 15.86648,-6.24153 4.43167,-0.23647 8.28275,-0.65573 8.55794,-0.9317 0.27518,-0.27597 0.13293,-1.18826 -0.31612,-2.02733 -0.44905,-0.83906 -0.81646,-2.03954 -0.81646,-2.66774 0,-1.6944 10.39661,-16.93264 12.48725,-18.30249 0.99101,-0.64933 4.19643,-1.48129 7.12314,-1.84878 9.58164,-1.2031 22.82873,-8.15268 35.89978,-18.83342 9.63795,-7.87545 19.92587,-19.98084 18.33392,-21.5728 -0.61624,-0.61624 -4.01434,1.84692 -16.54712,11.99438 -16.09389,13.03083 -30.69546,22.26085 -35.80854,22.63551 -3.39203,0.24855 -4.36192,-2.61696 -4.73493,-13.9891 -0.83159,-25.3539 5.75912,-39.14842 20.16004,-42.19545 6.1428,-1.29973 14.04881,0.0416 27.71293,4.70188 l 11.38017,3.88128 4.71959,-3.47436 c 2.59578,-1.9109 6.78904,-4.73149 9.31837,-6.26797 l 4.59877,-2.79361 1.20419,1.6012 c 0.6623,0.88066 1.84122,2.50181 2.61983,3.60256 2.48916,3.51904 5.78533,4.32686 15.9463,3.90808 18.62821,-0.76774 39.4919,-9.41655 52.98091,-21.962633 4.73516,-4.404156 6.77206,-7.289241 5.14628,-7.289241 -0.82734,0 -5.03586,2.406373 -11.1209,6.358767 -12.61549,8.194092 -26.07366,13.922057 -37.55628,15.984407 -6.43909,1.15651 -20.22988,1.3887 -21.84291,0.36777 -0.90521,-0.57293 -0.93711,-1.78219 -0.20388,-7.729917 2.68437,-21.774844 11.36077,-37.547257 24.10643,-43.821925 4.10745,-2.022092 6.00406,-2.474524 11.43936,-2.728833 10.1468,-0.474752 19.53699,2.537498 30.97397,9.936046 9.60855,6.215735 9.5563,6.200238 13.58854,4.030764 4.42407,-2.380285 17.95838,-6.711007 20.04253,-6.413228 1.26311,0.180469 1.62195,0.847289 1.80483,3.353784 0.1392,1.907775 0.7993,3.645304 1.6917,4.452914 5.66859,5.130006 41.76163,-1.937859 61.95158,-12.131574 2.25634,-1.139204 6.50045,-3.741539 9.43136,-5.782968 4.49651,-3.131887 6.14366,-3.827067 10.54458,-4.450313 5.98674,-0.847827 7.16212,-0.594679 7.16212,1.542546 0,0.84383 0.2732,1.534237 0.60711,1.534237 0.82294,0 4.35577,-3.865366 9.12514,-9.984098 9.34352,-11.986983 18.53605,-16.737139 27.52138,-14.221402 4.18839,1.172677 12.10333,7.101342 16.76477,12.557618 l 3.63962,4.260222 8.36787,-0.519099 c 17.96014,-1.114157 48.45208,2.887554 71.6075,9.397647 9.6696,2.718586 24.90181,8.098229 26.74415,9.445377 1.33164,0.973725 1.31812,1.162063 -0.36201,5.044891 -0.95991,2.218372 -1.92638,4.458242 -2.14771,4.977487 -0.96027,2.25286 2.47469,0.557207 9.35651,-4.618783 9.37676,-7.05251 13.78311,-9.746964 20.40542,-12.477783 7.09734,-2.926711 12.1426,-3.924129 19.83693,-3.921642 17.84476,0.0058 32.70617,10.7403 42.28683,30.544165 5.71774,11.818953 8.26754,22.631927 9.81986,41.643347 1.577,19.3136 2.59192,21.60407 15.58041,35.16205 10.20865,10.65625 14.23721,16.14879 18.47089,25.18322 15.51061,33.09877 6.11328,76.52676 -24.83747,114.78179 -2.98258,3.68647 -5.42288,7.01216 -5.42288,7.39043 0,3.31264 18.16459,-14.84284 26.9058,-26.8923 l 1.60436,-2.21156 5.48005,4.86196 c 21.7217,19.27171 35.26708,46.66322 39.31196,79.49678 1.3503,10.96078 0.54527,36.26177 -1.50627,47.34071 -4.48333,24.21125 -10.75158,41.22115 -25.30242,68.66209 -2.29323,4.32472 -5.21242,11.12212 -6.48708,15.10533 -3.56023,11.12534 -5.15265,12.85408 -22.38464,24.301 -17.09873,11.3584 -22.37229,14.20294 -27.44498,14.80373 -2.89112,0.34241 -4.17754,0.10797 -6.16698,-1.12389 -3.15127,-1.95126 -5.15945,-5.295 -5.14988,-8.57482 0.008,-2.75033 2.53809,-8.72596 5.60627,-13.24119 1.99038,-2.92912 2.58341,-6.27921 1.11153,-6.27921 -1.27746,0 -4.99086,2.79935 -12.01204,9.05528 -7.74845,6.90393 -12.1035,9.96314 -18.33393,12.87871 -11.63025,5.44246 -21.02473,4.08874 -22.1885,-3.1973 -0.68958,-4.31734 2.89621,-10.98612 10.59051,-19.69596 3.58526,-4.05848 6.51866,-7.72275 6.51866,-8.14282 0,-3.26283 -7.57708,0.10096 -16.23823,7.20884 -13.7595,11.29191 -24.2766,12.91915 -26.90028,4.1621 -2.73424,-9.12608 7.28802,-18.72222 28.69703,-27.47689 14.29847,-5.84699 15.16098,-6.87884 16.68485,-19.96056 1.50322,-12.90434 4.78544,-24.01747 10.41266,-35.25576 5.47053,-10.92537 10.36397,-17.5722 19.53559,-26.53551 4.72602,-4.61867 8.59277,-8.78208 8.59277,-9.25201 0,-2.48697 -7.92247,1.48022 -16.23419,8.12932 -14.26754,11.41355 -26.16322,35.41726 -29.49627,59.51912 -1.80801,13.07401 -2.24897,13.62712 -14.35926,18.01086 -12.53822,4.53865 -20.04256,9.29638 -27.4542,17.40591 l -3.81974,4.1794 -18.85706,-0.23679 c -12.49289,-0.15686 -19.13911,-0.51929 -19.69277,-1.07386 -0.93383,-0.93536 2.15481,-3.07463 12.46955,-8.63675 55.06163,-29.69145 97.84441,-80.40851 110.73814,-131.27511 2.20526,-8.69987 2.77732,-14.45831 1.43634,-14.45831 -1.25925,0 -2.77308,3.00998 -7.21716,14.35007 -17.38949,44.3732 -42.61425,78.12164 -78.36557,104.84599 -36.79105,27.50157 -81.37504,44.02993 -131.79684,48.86027 -11.73937,1.12462 -46.60088,1.56066 -53.13805,0.66464 l -3.34672,-0.45872 -0.86185,-4.53503 c -1.5958,-8.39712 -8.03057,-15.56696 -18.71223,-20.84984 -4.26702,-2.11035 -9.32044,-3.7964 -23.28551,-7.76905 -7.58532,-2.1578 -9.56826,-3.67755 -9.56962,-7.3343 -0.003,-9.13053 -6.37574,-33.43332 -12.57843,-47.97152 -1.38922,-3.25614 -2.52586,-6.20759 -2.52586,-6.55878 0,-0.3512 1.89088,-3.12501 4.20198,-6.16403 5.10375,-6.71129 12.55066,-21.59449 14.66865,-29.31637 5.26512,-19.19592 5.06808,-41.36354 -0.52702,-59.28842 -5.91566,-18.95184 -18.17847,-35.61211 -32.4553,-44.09381 -9.3447,-5.55159 -16.55611,-7.22435 -14.13338,-3.27837 0.43931,0.71551 3.92972,3.70281 7.75647,6.63845 25.83345,19.81774 36.35713,39.77346 36.34616,68.92206 -0.007,19.56681 -6.83556,41.74409 -16.97128,55.12103 l -3.6079,4.76164 -6.13594,-5.95359 c -10.85961,-10.5369 -27.66103,-20.11176 -27.66103,-15.76358 0,0.5628 3.48367,3.75857 7.74148,7.10172 4.25782,3.34315 9.32181,7.72582 11.25332,9.73927 14.63181,15.25253 24.06582,37.67465 27.12118,64.45977 0.49753,4.36166 1.37394,8.68794 1.94758,9.61393 1.53825,2.48312 4.25708,3.63507 16.6487,7.05398 18.21622,5.02593 29.45868,11.44076 32.40371,18.48922 2.20237,5.27101 0.79038,11.27662 -3.0642,13.03288 -4.51521,2.05728 -8.88842,0.68544 -18.70372,-5.86717 -4.28961,-2.8637 -9.58547,-5.91078 -11.76859,-6.77128 -4.69816,-1.85185 -9.43616,-2.11159 -9.06683,-0.49705 0.1343,0.58714 3.71556,3.80657 7.95834,7.15429 12.1442,9.58223 17.49865,17.48794 15.35292,22.66818 -1.20419,2.90718 -3.46517,4.35753 -9.00591,5.777 -8.00579,2.05099 -14.29983,-0.42466 -25.76779,-10.1353 -7.97,-6.74871 -15.30615,-11.42636 -17.9204,-11.42636 -0.94409,0 -1.71653,0.26424 -1.71653,0.58721 0,0.96663 2.3122,4.05223 6.6345,8.85362 5.02496,5.58193 6.9603,9.23254 6.9603,13.12913 0,5.07921 -5.49882,9.96304 -11.11592,9.87271 -1.15569,-0.0186 -4.48034,-0.80932 -7.38811,-1.7572 z M 490.37299,251.20459 c 12.92184,-2.22056 20.68004,-4.00464 39.82405,-9.15799 20.81147,-5.60221 31.54221,-7.92276 43.45878,-9.39806 12.19043,-1.5092 30.53436,-1.46968 45.66266,0.0984 16.48407,1.70859 41.32999,1.69978 51.32577,-0.0182 14.3784,-2.47124 25.91687,-7.40288 32.68269,-13.96888 3.88456,-3.76985 7.53046,-9.09831 8.91989,-13.03639 1.46205,-4.14389 1.41275,-4.44494 -0.72789,-4.44494 -2.07534,0 -4.44296,1.78297 -12.51985,9.42825 -16.35293,15.47909 -30.75187,18.34663 -74.01611,14.74027 -40.01139,-3.33521 -54.96078,-1.93291 -96.56389,9.058 -33.12764,8.75183 -46.91063,10.89955 -69.97236,10.90336 -17.85526,0.003 -24.59913,-0.808 -37.63163,-4.52511 -18.36694,-5.2386 -32.61563,-13.82706 -50.61285,-30.50712 -4.50244,-4.17292 -8.66585,-7.58712 -9.25202,-7.58712 -1.49443,0 -1.38558,4.74067 0.17861,7.77899 6.17706,11.99844 30.19406,28.10528 53.54923,35.91246 7.63908,2.55358 18.41419,5.04034 27.90807,6.44082 1.24619,0.18382 10.42267,0.23112 20.39219,0.10511 14.19882,-0.17948 20.13462,-0.57423 27.39466,-1.82183 z M 204.89028,203.1284 c 10.85231,-4.52637 12.42213,-18.53592 2.7145,-24.22497 -2.92858,-1.71626 -4.00151,-1.92456 -8.58047,-1.66583 -6.42509,0.36305 -10.68007,2.97246 -13.33908,8.18031 -2.36487,4.63175 -2.42826,11.05369 -0.13787,13.96546 3.54518,4.50696 13.08686,6.35435 19.34292,3.74503 z m 239.67474,-11.97574 c 6.62776,-2.30492 14.69278,-7.63802 18.81238,-12.43995 4.17158,-4.86253 8.05975,-12.5588 9.81817,-19.43418 7.41958,-29.01026 -14.22508,-58.45046 -42.97324,-58.45046 -11.33815,0 -20.18056,3.68648 -28.42579,11.85096 -11.66482,11.55061 -16.77425,31.3112 -12.45885,48.18429 4.20381,16.43675 16.80706,28.48853 33.61152,32.14085 5.26189,1.14362 15.5331,0.26384 21.61581,-1.85151 z m 93.62971,-10.9243 c 3.80959,-3.08483 0.77004,-11.323 -5.32501,-14.43246 -4.92589,-2.513 -8.16821,-1.80377 -9.80362,2.14446 -1.14319,2.75989 -1.1e-4,5.2585 4.23644,9.26031 5.04576,4.76617 7.79984,5.53172 10.89219,3.02769 z m 66.7863,-4.72117 c 6.4481,-5.94365 6.12089,-14.2578 -0.56113,-14.2578 -4.33189,0 -9.64758,7.55963 -9.64758,13.72018 0,4.77493 5.30848,5.05449 10.20871,0.53762 z m -343.87111,-7.49365 c 5.68686,-1.57939 10.37012,-7.69849 10.37936,-13.56155 0.0105,-6.68263 -6.3853,-12.09856 -14.25103,-12.06768 -5.44966,0.0214 -9.61408,1.93905 -13.12935,6.04586 -5.84057,6.82337 -4.22833,15.40276 3.55913,18.93965 3.42692,1.55643 9.16596,1.83127 13.44189,0.64372 z m 414.9628,-8.65721 c 9.79885,-4.79837 17.53138,-15.46299 20.32893,-28.03747 1.74997,-7.86576 1.18192,-21.98211 -1.16619,-28.98026 -6.43772,-19.186565 -21.35833,-30.480383 -37.83898,-28.641373 -13.49027,1.505323 -25.36361,14.008933 -29.05392,30.596163 -1.93614,8.70261 -1.25261,22.79956 1.49789,30.89205 2.66037,7.82732 6.16239,13.50917 11.35087,18.41622 9.85028,9.31597 23.13355,11.50742 34.8814,5.75467 z m -196.1009,-56.86388 c 0,-2.34256 -7.36617,-12.698341 -12.02048,-16.899066 -10.21325,-9.217901 -24.50468,-14.975972 -37.17012,-14.975972 -17.07543,0 -35.89187,10.980166 -45.87679,26.771009 -4.81848,7.620269 -2.70744,7.553809 6.83613,-0.215206 12.63685,-10.287124 19.75262,-14.386873 29.13608,-16.78676 16.32147,-4.174327 30.81299,0.731965 49.27672,16.683266 7.94502,6.863909 9.81846,7.898619 9.81846,5.422729 z m 4.15397,-49.390635 c 4.5964,-0.945546 9.44083,-3.514557 9.44083,-5.006497 0,-0.895835 -0.65648,-0.977495 -3.58752,-0.446246 -1.97313,0.357631 -12.99019,0.658729 -24.48236,0.669109 -24.05825,0.02173 -26.65369,0.665486 -15.74958,3.906434 8.24574,2.450824 24.68946,2.870399 34.37863,0.8772 z"
     id="path13"
     transform="scale(0.75)" />
  <path
     style="fill:#ffffff;stroke-width:0.755266"
     d="m 106.04514,517.81799 c -7.107086,-2.78062 -13.383101,-8.40759 -24.100328,-21.60794 -6.978748,-8.59568 -12.125971,-13.97243 -13.37599,-13.97243 -1.285992,0 -1.225255,3.14542 0.160424,8.30793 3.236565,12.05823 -1.255719,21.90273 -9.994746,21.90273 -10.882704,0 -22.583101,-13.40824 -26.692175,-30.58829 -1.820728,-7.61247 -2.182205,-21.10353 -0.75657,-28.23676 1.416647,-7.08827 1.026028,-12.34862 -1.364945,-18.38128 -17.966949,-45.33237 -13.719892,-98.48709 10.815354,-135.36129 13.378654,-20.10687 33.311746,-31.1108 51.65635,-28.51654 29.514706,4.17392 53.205356,33.37724 60.673116,74.79133 2.13526,11.84161 2.3317,33.56511 0.39391,43.56203 -4.42938,22.85086 -14.16367,38.53484 -28.33524,45.65401 -1.79906,0.90377 -5.86518,2.30668 -9.03583,3.1176 -6.73902,1.72355 -7.9695,2.59392 -5.86403,4.14789 0.80634,0.59513 1.95284,1.08206 2.54778,1.08206 2.24751,0 16.85705,5.31995 22.91239,8.34337 14.37291,7.17637 25.98168,16.90892 27.93164,23.41729 1.3814,4.61072 0.12169,4.84393 -5.0103,0.92752 -5.8993,-4.50199 -11.73562,-7.18173 -14.90239,-6.84242 l -2.46874,0.26451 4.13211,3.74954 c 11.74023,10.65328 15.88246,16.30826 15.88246,21.68278 0,5.40505 -3.84623,7.68232 -12.25773,7.25756 -7.54828,-0.38118 -12.93499,-3.15865 -19.43024,-10.01851 -11.73495,-12.39372 -13.55047,-14.03939 -15.48842,-14.03939 -1.05376,0 -1.91593,0.40284 -1.91593,0.89519 0,0.49236 1.86084,4.15318 4.1352,8.13515 5.00565,8.76397 7.19379,14.84392 7.19379,19.98862 0,9.62136 -7.66286,14.16336 -17.44092,10.33774 z"
     id="path14"
     transform="scale(0.75)" />
  <path
     style="fill:#ffffff;stroke-width:0.755266"
     d="m 354.33084,61.948439 c -1.64811,-4.294887 6.85914,-22.012134 14.35337,-29.892417 5.96336,-6.270559 9.66425,-7.887496 18.0531,-7.887496 6.38316,0 7.22057,0.188989 12.58203,2.839561 6.36754,3.147951 15.9293,11.462054 18.34858,15.95437 1.44035,2.674573 1.44004,2.713708 -0.0304,3.798298 -5.82069,4.293371 -43.05823,14.665869 -57.44606,16.001569 -4.66848,0.433401 -5.42218,0.328732 -5.86064,-0.813885 z"
     id="path15"
     transform="scale(0.75)" />
  <path
     style="fill:#ffffff;stroke-width:0.755266"
     d="m 249.84841,162.75267 c -2.4422,-0.98372 -4.26575,-4.15456 -3.69564,-6.42606 0.7077,-2.81969 5.44511,-7.70605 8.42446,-8.68933 3.6393,-1.20108 6.67756,-0.31134 9.35674,2.74008 2.6519,3.02035 2.86318,5.02581 0.87326,8.28904 -2.48866,4.08113 -9.92709,6.11307 -14.95882,4.08627 z"
     id="path16"
     transform="scale(0.75)" />
  <path
     style="fill:#ffffff;stroke-width:0.755266"
     d="m 194.73236,199.27926 c -2.28309,-0.49548 -5.38291,-3.53916 -5.96453,-5.85651 -0.84691,-3.37438 1.85478,-7.32043 6.72592,-9.82374 3.95542,-2.03272 4.5022,-2.12823 7.33139,-1.28058 3.36142,1.00711 6.00039,4.36325 6.00039,7.63108 0,2.41414 -2.39841,6.35829 -4.83876,7.95727 -1.9933,1.30606 -6.48855,1.97273 -9.25441,1.37248 z"
     id="path17"
     transform="scale(0.75)" />
  <path
     style="fill:#ffffff;stroke-width:0.755266"
     d="m 438.7253,143.13804 c -2.37258,-0.95863 -4.82473,-4.45944 -4.82473,-6.88802 0,-1.31406 0.90312,-3.16626 2.34404,-4.80738 3.23837,-3.6883 5.70821,-3.59415 9.27471,0.35353 4.14592,4.58904 3.63919,9.58073 -1.14178,11.24738 -2.76641,0.96438 -3.47019,0.97614 -5.65224,0.0945 z"
     id="path18"
     transform="scale(0.75)" />
  <path
     style="fill:#ffffff;stroke-width:0.755266"
     d="m 421.33908,186.29478 c -21.0581,-7.27818 -32.67023,-30.80589 -25.59975,-51.86848 5.1528,-15.34991 15.49268,-24.23537 31.37087,-26.95817 16.37399,-2.80783 33.34382,9.01935 39.29225,27.38489 3.75592,11.59625 1.9207,25.57946 -4.64822,35.41649 -3.26656,4.89171 -10.12519,11.14538 -14.87897,13.56658 -7.72427,3.93413 -18.31652,4.95398 -25.53618,2.45869 z m 20.04696,-14.14405 c 5.17048,-1.53546 9.96243,-6.27882 13.14888,-13.01555 2.13597,-4.51582 2.39376,-5.79284 2.39376,-11.85822 0,-6.03364 -0.26219,-7.34901 -2.33345,-11.70663 -7.84529,-16.50534 -26.31889,-20.57301 -39.47083,-8.69102 -1.72185,1.55558 -4.21166,5.04531 -5.57386,7.81233 -2.25651,4.58363 -2.46193,5.60088 -2.46193,12.1918 0,6.16784 0.2795,7.78681 1.96454,11.37934 3.28829,7.01071 8.1948,11.61775 14.94005,14.02816 3.77915,1.35048 12.61295,1.27927 17.39284,-0.14021 z"
     id="path19"
     transform="scale(0.75)" />
  <path
     style="fill:#ffffff;stroke-width:0.755266"
     d="m 655.01434,155.5745 c -6.9923,-2.56842 -13.04895,-8.51321 -17.20256,-16.88486 -3.04161,-6.13042 -4.49415,-13.1154 -4.49659,-21.62334 -0.003,-12.04665 3.20722,-21.349145 9.89345,-28.66495 7.8385,-8.576567 17.8484,-10.665512 28.10603,-5.865388 11.90935,5.573059 19.09214,17.901628 19.89783,34.152708 0.86412,17.42958 -6.40947,31.91568 -19.02082,37.88194 -5.15215,2.43741 -12.15977,2.84695 -17.17734,1.00389 z m 15.77895,-14.40751 c 7.93613,-4.90653 12.00128,-13.45281 11.44454,-24.06015 -0.39208,-7.47014 -2.71805,-12.91515 -7.61972,-17.83749 -8.11408,-8.14829 -19.17542,-8.069935 -26.63658,0.188686 -4.19387,4.642114 -5.85304,9.036244 -6.22087,16.475364 -0.2564,5.18569 -0.002,7.35143 1.32145,11.26637 2.71813,8.03827 7.44164,13.67589 13.24443,15.80754 4.02503,1.4786 10.41289,0.66599 14.46675,-1.84032 z"
     id="path20"
     transform="scale(0.75)" />
  <path
     style="fill:#ffffff;stroke-width:0.755266"
     d="m 665.17753,115.09152 c -4.00357,-1.48102 -6.30883,-10.32237 -3.37531,-12.94533 4.02631,-3.600056 10.76553,-0.22193 10.75972,5.39345 -0.003,3.18731 -2.24541,7.26022 -4.29122,7.79521 -0.78473,0.20521 -2.17667,0.0957 -3.09319,-0.24333 z"
     id="path21"
     transform="scale(0.75)" />
</svg>
