<?xml version="1.0" encoding="UTF-8" standalone="no"?>
<svg
   version="1.0"
   width="600.000000pt"
   height="600.000000pt"
   viewBox="0 0 600.000000 600.000000"
   preserveAspectRatio="xMidYMid meet"
   id="svg6"
   sodipodi:docname="frog5_t2.svg.svg"
   inkscape:version="1.4.3 (0d15f75, 2025-12-25)"
   xmlns:inkscape="http://www.inkscape.org/namespaces/inkscape"
   xmlns:sodipodi="http://sodipodi.sourceforge.net/DTD/sodipodi-0.dtd"
   xmlns="http://www.w3.org/2000/svg"
   xmlns:svg="http://www.w3.org/2000/svg">
  <defs
     id="defs6" />
  <sodipodi:namedview
     id="namedview6"
     pagecolor="#505050"
     bordercolor="#ffffff"
     borderopacity="1"
     inkscape:showpageshadow="0"
     inkscape:pageopacity="0"
     inkscape:pagecheckerboard="1"
     inkscape:deskcolor="#505050"
     inkscape:document-units="pt"
     inkscape:zoom="0.76525028"
     inkscape:cx="415.55032"
     inkscape:cy="606.99096"
     inkscape:window-width="1920"
     inkscape:window-height="1022"
     inkscape:window-x="0"
     inkscape:window-y="30"
     inkscape:window-maximized="1"
     inkscape:current-layer="svg6" />
  <g
     transform="translate(0.000000,600.000000) scale(0.050000,-0.050000)"
     fill="#000000"
     stroke="none"
     id="g6">
    <path
       d="M6349 11628 c-136 -71 -454 -374 -524 -499 -16 -28 -40 -13 -158 105 -188 188 -485 386 -579 386 -116 0 -393 -377 -496 -676 l-23 -65 -140 111 c-321 256 -859 450 -977 352 -118 -98 -193 -775 -124 -1127 30 -155 30 -154 -124 -77 -391 196 -985 285 -1157 172 -143 -94 51 -759 353 -1216 l135 -204 -102 -5 c-453 -21 -943 -207 -984 -374 -64 -251 840 -834 1474 -950 l134 -25 -136 -128 c-228 -215 -229 -305 -7 -388 382 -143 941 -181 1283 -87 87 24 42 -215 -62 -333 -236 -267 -363 -606 -352 -936 l7 -219 -118 -77 c-408 -264 -733 -624 -929 -1031 -84 -174 -103 -198 -196 -255 -652 -394 -693 -1385 -82 -2012 l175 -179 0 -129 c0 -233 85 -342 410 -528 189 -108 259 -176 329 -319 151 -310 594 -245 640 93 l13 102 31 -71 c148 -336 637 -247 637 116 0 79 7 105 29 105 54 0 167 118 186 195 12 49 28 73 47 68 15 -4 141 -11 278 -15 285 -10 339 -49 201 -147 -171 -122 -170 -398 2 -526 119 -89 331 -63 434 54 l58 67 13 -77 c57 -359 652 -320 652 43 0 75 0 75 70 64 156 -25 319 90 344 245 12 71 12 71 54 32 96 -87 282 -115 363 -54 56 42 69 38 69 -21 0 -339 547 -380 636 -48 12 45 28 67 46 62 148 -45 288 -11 377 90 59 68 62 68 120 39 174 -91 426 15 454 191 l12 75 142 -10 c121 -8 153 -3 208 31 278 176 122 602 -221 602 -32 0 -94 10 -136 23 l-78 23 157 164 c582 606 418 1609 -285 1741 -41 8 -78 24 -82 37 -3 12 -21 103 -39 202 -18 99 -38 198 -43 221 -8 32 17 59 126 134 784 535 970 1474 415 2092 -104 115 -105 114 99 132 76 7 199 34 275 61 302 105 331 186 136 376 -67 65 -119 120 -115 123 3 2 68 19 144 38 492 118 1166 601 1100 788 -53 153 -564 364 -883 365 -125 0 -126 2 -29 119 296 353 563 1031 483 1223 -71 172 -695 104 -1231 -134 -13 -6 -6 49 18 136 87 327 55 1019 -55 1188 -86 131 -617 -40 -980 -314 -114 -87 -133 -95 -144 -64 -76 215 -215 475 -313 581 -99 109 -407 -19 -696 -289 l-93 -87 -36 56 c-177 271 -528 531 -640 473z m243 -244 c291 -245 484 -564 544 -901 l19 -107 -94 -93 c-51 -51 -114 -120 -139 -153 -43 -57 -46 -58 -66 -20 -37 72 -373 388 -426 402 -80 20 -345 -176 -488 -362 l-47 -60 -42 59 c-24 32 -77 97 -119 143 l-75 84 28 137 c69 328 289 663 600 910 126 100 142 98 305 -39z m-1354 21 c131 -77 391 -305 462 -405 l40 -56 -61 -145 c-33 -81 -65 -179 -71 -220 -19 -113 -32 -125 -100 -90 -78 41 -75 42 -159 -44 -116 -119 -253 -341 -320 -520 l-62 -165 -61 65 c-33 36 -112 115 -177 175 l-118 110 0 230 c-1 356 133 738 359 1025 107 136 105 136 268 40z m2563 -139 c281 -444 387 -1092 205 -1242 -31 -25 -104 -87 -162 -137 -58 -50 -109 -88 -112 -84 -3 4 -16 58 -30 120 -29 136 -154 401 -232 494 -57 67 -100 75 -193 35 -27 -12 -38 10 -65 129 -17 79 -56 197 -85 262 l-53 118 58 62 c125 132 494 377 568 377 9 0 55 -60 101 -134z m-4099 -57 c248 -64 540 -225 745 -412 l96 -87 -23 -168 c-12 -93 -17 -212 -10 -265 16 -116 27 -113 -139 -27 -191 100 -235 95 -289 -29 -108 -252 -145 -638 -86 -899 33 -145 16 -151 -90 -32 -407 456 -569 1121 -427 1757 47 209 46 208 223 162z m5476 -118 c164 -651 -21 -1374 -473 -1854 -151 -160 -153 -160 -114 -16 73 266 53 700 -42 928 -41 98 -61 101 -218 42 -75 -28 -141 -51 -148 -51 -7 0 -13 127 -13 282 l0 282 80 68 c245 210 642 404 833 407 69 1 73 -3 95 -88z m-2666 -753 c101 -77 203 -189 274 -299 31 -47 30 -57 -11 -160 -58 -142 -50 -142 -249 -1 -205 146 -196 145 -377 32 -174 -108 -157 -108 -187 -8 -34 113 65 254 305 431 141 105 117 104 245 5z m-895 -58 c123 -123 250 -340 274 -467 11 -61 0 -76 -175 -248 -102 -101 -222 -237 -266 -304 -97 -146 -87 -146 -157 2 -32 66 -98 181 -148 254 l-90 133 22 109 c46 222 295 641 381 641 22 0 93 -54 159 -120z m1840 -8 c83 -138 135 -274 165 -437 l24 -129 -113 -133 c-62 -73 -154 -205 -205 -293 -112 -193 -98 -192 -205 -18 -48 78 -142 199 -207 269 l-120 128 33 98 c71 213 250 449 430 565 117 77 122 75 198 -50z m-4821 -84 c198 -41 359 -96 533 -183 250 -125 281 -151 349 -296 101 -217 232 -396 413 -565 210 -197 211 -208 5 -81 -384 239 -979 430 -1114 358 -76 -41 -22 -320 117 -604 100 -204 76 -198 -158 38 -268 271 -436 540 -551 885 -55 166 -113 440 -97 464 17 28 343 17 503 -16z m1722 -40 c351 -193 673 -552 874 -974 l69 -147 -53 -138 c-77 -202 -89 -472 -29 -669 24 -79 39 -149 34 -154 -50 -50 -919 676 -1007 841 -202 378 -235 870 -86 1264 25 64 42 62 198 -23z m4134 -133 c224 -733 -282 -1662 -1118 -2055 -263 -123 -265 -123 -182 14 152 253 198 583 120 877 l-37 140 43 86 c221 433 605 823 986 1004 159 75 143 80 188 -66z m1876 13 c90 -34 -106 -609 -309 -910 -174 -258 -484 -546 -392 -364 61 121 133 352 133 428 0 196 -828 -24 -1292 -343 -166 -115 -67 41 129 201 151 124 359 382 448 555 62 120 73 130 235 213 342 175 874 287 1048 220z m-3896 -228 c724 -528 974 -1256 620 -1808 -268 -418 -894 -585 -1253 -333 -61 43 -149 93 -195 112 -305 122 -459 732 -287 1133 137 320 430 653 771 878 214 141 177 139 344 18z m-3202 -534 c436 -138 792 -360 1260 -785 233 -212 427 -358 655 -493 246 -145 247 -148 94 -148 -158 -1 -273 -26 -409 -91 -313 -148 -1045 141 -1474 583 -273 282 -516 740 -516 975 0 49 154 33 390 -41z m6421 -181 c-61 -331 -443 -840 -811 -1080 -155 -101 -143 -100 -307 -24 -349 164 -738 94 -1015 -183 l-117 -117 -226 27 c-124 15 -205 28 -180 30 261 14 784 331 1081 656 350 382 1093 760 1501 765 l87 1 -13 -75z m-6849 -427 c49 -40 142 -107 208 -149 66 -42 177 -138 248 -213 152 -164 317 -294 518 -409 l148 -84 -97 -13 c-93 -12 -301 -62 -482 -114 -248 -71 -881 107 -1298 367 -179 111 -514 407 -501 444 16 48 392 206 574 240 28 5 173 8 322 6 l273 -4 87 -71z m7510 -99 c137 -35 355 -130 437 -190 38 -28 35 -33 -60 -130 -392 -399 -1061 -644 -1482 -544 -97 23 -224 48 -280 55 -189 24 -195 69 -23 181 80 52 241 191 356 308 387 392 559 444 1052 320z m-1965 -629 c354 -92 613 -448 613 -841 l0 -128 137 -137 c642 -642 376 -1614 -572 -2092 -144 -72 -139 -201 6 -135 45 20 49 17 68 -55 160 -593 61 -1309 -283 -2049 -253 -544 -258 -712 -26 -815 157 -69 206 -231 97 -317 -81 -63 -151 -53 -257 39 -135 117 -246 79 -194 -67 47 -131 28 -220 -57 -264 -156 -80 -292 22 -270 203 24 191 -86 250 -218 118 -125 -125 -311 -75 -311 85 0 94 29 138 120 185 109 56 164 167 176 360 8 136 16 159 84 250 282 373 514 1160 341 1160 -46 0 -51 -12 -92 -220 -147 -744 -624 -1306 -1205 -1422 -145 -29 -318 738 -249 1107 39 207 -82 228 -131 23 -132 -551 203 -1438 544 -1438 28 0 75 -26 110 -62 163 -162 -36 -398 -211 -251 -149 124 -289 37 -187 -117 57 -86 51 -162 -18 -232 -126 -125 -290 -53 -320 141 -27 172 -157 236 -242 118 -112 -156 -184 -187 -299 -128 -101 53 -115 201 -26 283 30 28 71 65 90 83 83 76 69 148 -80 420 -331 605 -435 1109 -318 1538 30 111 18 147 -51 147 -46 0 -71 -63 -110 -270 -68 -370 35 -870 270 -1314 51 -96 86 -181 78 -189 -25 -24 -479 32 -524 64 -22 17 -69 51 -104 77 -35 26 -103 53 -150 60 -100 15 -396 110 -396 127 0 6 28 97 63 203 326 990 -365 2073 -1287 2016 l-173 -11 40 93 c123 287 501 720 804 920 183 121 195 124 230 43 95 -213 470 -551 570 -513 63 24 36 88 -64 152 -465 299 -609 828 -361 1328 85 173 207 330 263 338 43 6 46 17 57 216 53 880 940 1289 1533 707 146 -143 194 -161 181 -66 l-9 61 131 -13 c159 -15 368 25 542 103 130 58 611 65 666 10 39 -39 92 -24 123 36 132 255 542 414 858 332z m-3997 -269 c99 -25 192 -49 207 -53 17 -5 -5 -43 -66 -111 -51 -56 -124 -168 -163 -249 -38 -80 -85 -151 -104 -156 -336 -105 -802 -93 -1214 29 -182 54 -184 65 -25 209 350 318 894 450 1365 331z m4851 -61 c226 -59 602 -303 549 -357 -68 -68 -607 -174 -653 -128 -12 12 -32 87 -46 168 -14 81 -50 196 -78 256 -29 60 -53 110 -53 112 0 7 197 -29 281 -51z m-5757 -3635 c668 -333 932 -1175 603 -1923 -75 -169 -55 -182 527 -340 160 -44 217 -203 102 -288 l-54 -40 -109 57 c-164 86 -260 -21 -102 -114 204 -120 119 -358 -121 -338 -45 4 -123 83 -174 177 -56 105 -261 204 -337 164 -61 -33 -60 -77 2 -148 123 -140 48 -314 -135 -311 -94 1 -149 47 -214 181 -65 134 -111 172 -482 398 -144 88 -210 180 -210 295 l0 86 75 -33 c192 -84 327 -115 359 -82 45 45 20 87 -68 113 -788 241 -1199 1103 -853 1788 213 420 746 580 1191 358z m5532 23 c638 -318 522 -1300 -201 -1707 -158 -89 -150 -211 8 -129 58 29 69 28 200 -20 77 -29 176 -52 220 -52 104 0 205 -48 234 -112 90 -198 -126 -332 -302 -187 -167 138 -377 62 -225 -81 108 -101 35 -260 -120 -260 -94 0 -147 44 -195 161 -36 86 -139 177 -219 193 -158 31 -150 171 33 565 270 580 391 1049 391 1511 0 198 7 203 176 118z m-1756 -2053 c-26 -108 -40 -130 -102 -156 -79 -33 -154 -125 -169 -210 -16 -81 -22 -83 -82 -26 -25 23 -100 57 -168 76 l-123 34 145 53 c146 54 411 207 459 264 40 49 57 35 40 -35z"
       id="path1" />
    <path
       d="M8250 7517 c-334 -185 -268 -741 101 -848 455 -132 657 539 246 815 -90 61 -266 77 -347 33z m199 -181 c99 -142 -78 -308 -200 -187 -96 96 -43 231 91 231 58 0 86 -11 109 -44z"
       id="path2" />
    <path
       d="M5219 7273 c-407 -113 -489 -680 -131 -902 302 -187 696 2 745 358 47 343 -284 636 -614 544z m160 -192 c52 -52 70 -127 42 -179 -83 -155 -301 -109 -301 63 0 126 172 203 259 116z"
       id="path3" />
    <path
       d="M7651 6389 c-37 -38 -37 -40 -10 -90 32 -60 115 -51 132 14 21 84 -62 135 -122 76z"
       id="path4" />
    <path
       d="M7081 6331 c-41 -50 -18 -120 43 -127 75 -9 114 63 64 118 -41 45 -75 48 -107 9z"
       id="path5" />
    <path
       d="M8227 5899 c-482 -416 -1339 -475 -1884 -131 -99 62 -170 62 -179 0 -12 -84 351 -269 646 -330 553 -114 1171 38 1526 376 171 162 70 240 -109 85z"
       id="path6" />
  </g>
  <path
     style="fill:#F0ACAF;stroke-width:0.844178"
     d="m 404.18714,295.48324 c -6.61816,-1.85773 -10.08965,-3.47315 -17.0913,-7.95324 -3.50434,-2.2423 -8.50888,-5.08403 -11.1212,-6.31497 -18.41964,-8.67938 -28.67062,-44.46598 -20.05937,-70.02808 5.26234,-15.62101 19.741,-35.69051 36.04954,-49.9698 8.68343,-7.60296 26.52756,-19.81732 28.95141,-19.81732 2.3499,0 4.33498,1.15468 12.14713,7.06571 13.72602,10.38574 28.30042,25.93929 36.51574,38.96896 12.09828,19.18814 16.29198,43.09736 10.80435,61.59803 -3.81728,12.8694 -10.44786,23.09911 -20.67532,31.89811 -5.38465,4.63257 -19.20128,11.77745 -26.64477,13.77859 -7.11708,1.91339 -23.2743,2.34647 -28.87621,0.77401 z"
     id="path7"
     transform="scale(0.75)" />
  <path
     style="fill:#F0ACAF;stroke-width:0.844178"
     d="m 480.61828,267.08573 c 2.34422,-4.35768 5.30214,-11.34198 6.57316,-15.52066 2.0885,-6.86626 2.31677,-8.89777 2.3714,-21.10445 0.0519,-11.58899 -0.2314,-14.69575 -1.99493,-21.87986 l -2.05537,-8.373 2.89955,-5.49687 c 11.55471,-21.90503 30.0195,-43.20573 49.19617,-56.75193 6.91026,-4.88133 21.66417,-12.59852 24.08616,-12.59852 1.83901,0 3.66959,4.68572 6.10128,15.6173 1.63421,7.34659 1.42325,25.44375 -0.39857,34.18921 -6.84899,32.87806 -28.29012,63.54346 -58.61372,83.83018 -7.35875,4.92306 -25.68181,14.31864 -30.07345,15.42087 l -2.35389,0.59079 z"
     id="path8"
     transform="scale(0.75)" />
  <path
     style="fill:#F0ACAF;stroke-width:0.844178"
     d="m 482.17994,285.9398 -9.97587,-1.28159 7.86543,-2.63705 c 9.47528,-3.17677 21.89845,-9.68439 32.76868,-17.16518 11.0114,-7.57794 14.6514,-10.64816 28.27997,-23.85325 17.0322,-16.50298 33.7751,-28.10438 55.02624,-38.12851 15.81028,-7.45768 36.48216,-13.35624 46.8078,-13.35624 3.89684,0 3.98178,0.45749 1.61899,8.71976 -4.73968,16.57379 -18.21277,36.65792 -36.1109,53.82998 -7.81415,7.49716 -21.4531,17.61145 -25.4664,18.88522 -1.03189,0.32751 -3.82251,-0.34327 -7.02104,-1.68764 -13.99168,-5.88084 -16.71742,-6.57592 -27.25709,-6.95073 -19.47871,-0.6927 -30.89375,4.0761 -47.9508,20.03213 -3.00943,2.81518 -6.15507,5.04643 -7.02835,4.98532 -0.86943,-0.0608 -6.06993,-0.68733 -11.55666,-1.39222 z"
     id="path9"
     transform="scale(0.75)" />
  <path
     style="fill:#F0ACAF;stroke-width:0.844178"
     d="m 623.00342,287.72579 c -6.04944,-0.99711 -31.4585,-6.16934 -32.75889,-6.66835 -2.99679,-1.14997 -1.46052,-3.71076 5.11206,-8.52125 8.51983,-6.23568 15.11399,-11.95411 28.07647,-24.34783 11.89424,-11.37235 19.95822,-17.25544 27.42824,-20.0103 10.60177,-3.90983 31.27764,-1.87004 48.57788,4.79248 8.69183,3.34732 16.5156,7.22623 19.38102,9.60883 l 2.10788,1.75271 -7.81116,7.57994 c -21.07986,20.45586 -52.48347,34.57772 -79.74893,35.86223 -4.30762,0.20293 -8.97167,0.18113 -10.36457,-0.0485 z"
     id="path10"
     transform="scale(0.75)" />
  <path
     style="fill:#F0ACAF;stroke-width:0.844178"
     d="m 300.03923,284.49909 c -23.86439,-4.52594 -50.74391,-18.86058 -70.17346,-37.42295 -16.86429,-16.11162 -34.59911,-46.21462 -36.82784,-62.5114 -0.67896,-4.96472 -0.60981,-5.36185 1.04208,-5.9842 3.46742,-1.30636 15.11107,1.1344 29.77835,6.24218 24.49185,8.52912 46.00479,22.14268 74.1365,46.9142 22.12032,19.47815 29.12443,24.78947 48.35558,36.66877 6.63076,4.09589 11.86626,7.63673 11.63446,7.86854 -0.2318,0.2318 -4.90354,0.70756 -10.38164,1.05724 -8.76449,0.55944 -11.07325,1.05649 -19.23206,4.14045 -10.92329,4.12891 -18.34272,4.92165 -28.33197,3.02717 z"
     id="path11"
     transform="scale(0.75)" />
  <path
     style="fill:#F0ACAF;stroke-width:0.844178"
     d="m 227.92454,330.01646 c -8.10261,-1.10312 -25.29707,-5.09998 -30.19746,-7.01941 -4.32974,-1.69591 -3.90255,-3.31091 2.48764,-9.40454 20.04458,-19.11435 50.9613,-29.44939 78.43836,-26.22088 9.42938,1.10793 26.69196,5.21415 27.07775,6.44094 0.13934,0.44307 -1.97311,3.58646 -4.69434,6.9853 -2.72122,3.39885 -7.08633,10.08585 -9.70023,14.86 -2.61391,4.77415 -5.41402,9.2739 -6.22249,9.99943 -5.38614,4.83364 -36.3617,7.1947 -57.18923,4.35916 z"
     id="path12"
     transform="scale(0.75)" />
  <path
     style="fill:#F0ACAF;stroke-width:0.844178"
     d="m 342.68237,258.20894 c -12.69015,-8.47052 -32.35763,-24.81482 -47.07424,-39.1202 -9.53576,-9.26929 -11.22072,-11.33787 -14.09634,-17.30564 -6.76417,-14.03767 -10.74528,-34.20493 -9.77958,-49.54074 0.89035,-14.1391 5.08784,-31.48706 7.87759,-32.55759 2.49811,-0.95861 14.76808,5.93356 25.98266,14.59474 16.93793,13.08139 31.85207,32.17548 43.00262,55.05485 l 4.17043,8.55713 -3.07593,9.10905 c -5.45729,16.16122 -6.01766,30.21926 -1.83865,46.12635 1.11608,4.24828 2.03635,8.00905 2.04506,8.35727 0.0311,1.24594 -1.44286,0.5767 -7.21362,-3.27522 z"
     id="path13"
     transform="scale(0.75)" />
  <path
     style="fill:#EDCBCC;stroke-width:0.844178;fill-opacity:1"
     d="m 572.31335,188.99323 c 2.84308,-11.14001 3.29676,-15.08149 3.34044,-29.02148 0.0601,-19.1784 -2.63514,-34.23076 -7.15908,-39.98201 -2.34441,-2.98045 -4.83768,-2.86861 -14.56745,0.65342 l -7.95701,2.88033 -0.52665,-3.84233 c -0.28966,-2.11328 -0.52665,-10.40637 -0.52665,-18.4291 V 86.665288 l 6.54238,-5.276004 c 8.81115,-7.10562 16.3941,-11.934514 27.12219,-17.271675 11.76061,-5.850833 19.53084,-8.374876 25.82806,-8.389858 4.62212,-0.011 5.13328,0.174232 6.12284,2.218702 0.59383,1.226885 1.87952,6.925087 2.85709,12.662671 2.32968,13.673457 1.9205,37.112016 -0.8674,49.686256 -5.34872,24.12424 -16.32393,45.65741 -32.00589,62.79502 -7.57834,8.28177 -9.0871,9.36749 -8.20287,5.90283 z"
     id="path14"
     transform="scale(0.75)" />
  <path
     style="fill:#EDCBCC;fill-opacity:1;stroke-width:0.844178"
     d="m 513.81282,138.58265 c -3.13508,-12.49998 -11.37897,-29.40627 -16.89943,-34.65681 -2.70893,-2.57648 -5.06578,-2.9971 -10.40072,-1.85619 l -3.11061,0.66523 -0.92777,-3.671379 c -1.97698,-7.823332 -5.3628,-18.27549 -7.73306,-23.872267 l -2.47744,-5.849862 3.61468,-3.75404 c 6.9668,-7.235401 26.24058,-20.707327 34.58457,-24.173818 l 3.11202,-1.292879 4.36851,6.531292 c 8.07585,12.074065 15.30582,29.281342 19.06035,45.363484 1.15547,4.949343 1.57732,10.023319 1.57917,18.994009 0.003,15.63299 -0.37791,16.42432 -12.96338,26.91463 -5.07863,4.23317 -9.41563,7.69667 -9.63778,7.69667 -0.22215,0 -1.19825,-3.16713 -2.16911,-7.03807 z"
     id="path15"
     transform="scale(0.75)" />
  <path
     style="fill:#EDCBCC;fill-opacity:1;stroke-width:0.844178"
     d="m 477.43723,185.68486 c -4.22406,-6.96966 -10.86378,-15.67012 -17.75257,-23.26234 l -6.13311,-6.75937 2.24762,-6.16257 c 5.78679,-15.86638 18.21114,-31.29223 31.45451,-39.05336 l 3.72363,-2.1822 1.89801,1.78309 c 2.37334,2.22963 8.28731,13.24831 11.04976,20.58745 1.14827,3.05069 2.82885,9.25388 3.73461,13.78488 l 1.64684,8.23817 -5.74278,6.82224 c -5.22924,6.21215 -12.85478,17.21182 -18.76201,27.06375 -1.25895,2.09966 -2.79318,3.81756 -3.40939,3.81756 -0.61621,0 -2.39602,-2.10479 -3.95512,-4.6773 z"
     id="path16"
     transform="scale(0.75)" />
  <path
     style="fill:#EDCBCC;fill-opacity:1;stroke-width:0.844178"
     d="m 435.12554,140.91259 c -9.98198,-6.88084 -10.69275,-7.22345 -14.30277,-6.89422 -2.76725,0.25237 -5.89677,1.64547 -11.5248,5.13022 -4.24929,2.63108 -8.27288,4.78377 -8.94129,4.78377 -1.6031,0 -3.37551,-6.03765 -2.65453,-9.04258 1.48378,-6.18414 8.08294,-13.92359 18.89973,-22.16549 9.5438,-7.27193 9.23038,-7.18232 14.03513,-4.01278 5.7648,3.80286 17.0834,15.49044 20.42226,21.08802 l 2.80072,4.69538 -2.28121,5.77395 c -2.52296,6.38587 -3.46361,7.88439 -4.94915,7.88439 -0.55007,0 -5.7269,-3.2583 -11.50409,-7.24066 z"
     id="path17"
     transform="scale(0.75)" />
  <path
     style="fill:#EDCBCC;fill-opacity:1;stroke-width:0.844178"
     d="m 455.54676,123.28068 c -3.18235,-4.43134 -18.65386,-19.07309 -23.82079,-22.54324 -2.37677,-1.596257 -4.18749,-2.24013 -5.34878,-1.901966 -8.25338,2.403356 -22.29949,13.609296 -31.13152,24.836616 -2.07462,2.63725 -2.41673,2.79664 -3.18499,1.48384 -0.4734,-0.80893 -3.89308,-5.04928 -7.59929,-9.423 l -6.73856,-7.95223 1.63924,-7.5107 c 3.89862,-17.86284 12.95234,-34.350723 27.26268,-49.64852 6.28436,-6.718004 16.90582,-15.388037 19.71541,-16.093199 3.05407,-0.766523 8.46845,2.786742 17.71243,11.624051 16.72418,15.988415 27.36554,34.674367 31.17109,54.735598 l 1.33396,7.03202 -6.57909,6.82085 c -3.6185,3.75146 -7.58701,8.05545 -8.81892,9.56442 -1.23192,1.50897 -2.38991,2.74358 -2.57333,2.74358 -0.18341,0 -1.55121,-1.69566 -3.03954,-3.76812 z"
     id="path18"
     transform="scale(0.75)" />
  <path
     style="fill:#EDCBCC;fill-opacity:1;stroke-width:0.844178"
     d="m 353.20069,182.22052 c -2.04103,-4.01361 -6.40982,-11.46367 -9.70842,-16.5557 l -5.99746,-9.25823 1.09594,-5.18189 c 1.49311,-7.05978 2.83661,-10.62531 7.50959,-19.92977 5.09898,-10.15268 10.68487,-18.63057 14.45805,-21.94347 2.95113,-2.59112 2.96838,-2.59457 5.51909,-1.10378 7.39824,4.32401 19.30796,19.82584 24.00273,31.24226 3.48374,8.4715 3.25908,9.11384 -6.94999,19.8718 -11.71061,12.34025 -18.20378,19.8968 -21.96676,25.56426 -1.6769,2.52559 -3.31955,4.59198 -3.65035,4.59198 -0.3308,0 -2.27138,-3.28386 -4.31242,-7.29746 z"
     id="path19"
     transform="scale(0.75)" />
  <path
     style="fill:#EDCBCC;fill-opacity:1;stroke-width:0.844178"
     d="M 319.31036,136.72016 307.70291,125.4602 v -10.28272 c 0,-25.247648 7.28879,-49.117751 20.77623,-68.040199 6.44585,-9.04332 8.66786,-11.259713 11.28825,-11.259713 5.66694,0 30.5044,19.155445 38.82995,29.946893 l 3.50772,4.546662 -3.78591,9.555876 c -2.08225,5.255733 -4.21391,11.690231 -4.73702,14.298886 -0.52311,2.608655 -1.43561,5.405589 -2.02776,6.215405 -1.01684,1.39062 -1.27084,1.37334 -4.57255,-0.31107 -1.92274,-0.98091 -3.88982,-1.783474 -4.37127,-1.783474 -1.41709,0 -7.50996,5.876724 -11.58941,11.178264 -6.04645,7.85783 -12.6681,19.70766 -16.37433,29.30288 -1.88844,4.88906 -3.50001,8.94838 -3.58126,9.02071 -0.0813,0.0723 -5.3711,-4.93546 -11.75519,-11.12844 z"
     id="path20"
     transform="scale(0.75)" />
  <path
     style="fill:#EDCBCC;fill-opacity:1;stroke-width:0.844178"
     d="m 260.41924,179.59889 c -27.11647,-29.57599 -37.93381,-77.411 -27.08359,-119.765499 0.90881,-3.547604 2.04436,-6.842171 2.52345,-7.321258 1.43894,-1.438944 6.17093,-0.803453 14.97048,2.010487 16.98292,5.430841 33.61149,15.328302 48.08621,28.621307 l 3.45346,3.171522 -1.18287,8.759227 c -0.65057,4.817575 -1.02782,12.463054 -0.83833,16.989964 0.18949,4.5269 0.0454,8.23074 -0.32016,8.23074 -0.36559,0 -4.09879,-1.75525 -8.29602,-3.90055 -4.27148,-2.18326 -9.28695,-4.08716 -11.39181,-4.32441 -3.30466,-0.37248 -4.02301,-0.14059 -5.92633,1.91313 -2.61754,2.82437 -6.69896,15.12128 -8.61672,25.96129 -2.26306,12.79182 -1.78688,31.41237 1.11121,43.45285 0.77177,3.20644 -1.03728,2.14738 -6.48898,-3.7988 z"
     id="path21"
     transform="scale(0.75)" />
  <path
     style="fill:#EDCBCC;fill-opacity:1;stroke-width:0.844178"
     d="m 185.61998,208.68058 c -16.78073,-17.28575 -25.479,-30.15616 -32.9738,-48.78971 -4.2041,-10.45223 -9.27901,-29.18939 -9.71037,-35.85181 l -0.26971,-4.16577 13.50684,0.0566 c 15.19871,0.0636 22.33213,1.23345 36.72175,6.022 11.11793,3.6998 30.79796,13.61142 34.86088,17.55729 1.68954,1.64085 5.20086,7.14548 7.80293,12.2325 6.65679,13.01393 13.29832,21.93747 24.89464,33.44836 5.52068,5.48001 9.91449,10.08677 9.76402,10.23725 -0.15048,0.15047 -3.20775,-1.46114 -6.79396,-3.58136 -23.95504,-14.16262 -53.42729,-24.89983 -68.34678,-24.89983 -8.65244,0 -9.38661,0.71586 -9.24254,9.01201 0.13025,7.50063 3.35363,18.65826 8.7931,30.4371 3.86904,8.37816 4.53816,10.3574 3.50152,10.3574 -0.43407,0 -6.06291,-5.4324 -12.50852,-12.07199 z"
     id="path22"
     transform="scale(0.75)" />
  <path
     style="fill:#EDCBCC;fill-opacity:1;stroke-width:0.844178"
     d="m 206.82363,288.21577 c -19.77506,-2.68805 -48.61283,-13.21973 -66.18139,-24.16973 -8.2074,-5.11545 -20.94537,-15.2981 -28.683,-22.92901 -5.40254,-5.32803 -6.02581,-6.25156 -5.03511,-7.4608 1.5792,-1.92755 15.28135,-8.21855 25.9509,-11.91471 l 8.94689,-3.0994 20.46051,-0.2653 20.46051,-0.26531 6.97528,5.39368 c 3.8364,2.96652 9.90501,7.39709 13.48579,9.84572 3.58079,2.44862 11.17839,9.00623 16.88356,14.57245 12.23248,11.93457 22.41505,19.87346 34.2888,26.73344 l 8.63307,4.9877 -4.87801,0.60073 c -2.6829,0.3304 -11.62697,2.28978 -19.8757,4.35418 -16.48306,4.1252 -22.55198,4.82344 -31.4321,3.61636 z"
     id="path23"
     transform="scale(0.75)" />
  <path
     style="fill:#EDCBCC;fill-opacity:1;stroke-width:0.844178"
     d="m 643.91636,218.95137 c 6.74153,-15.98059 10.50187,-28.60705 9.5953,-32.2191 -0.70614,-2.81346 -3.89941,-3.96976 -10.92082,-3.95449 -16.61335,0.0361 -47.87924,10.73871 -69.62159,23.83205 -5.308,3.1965 -9.84498,5.61776 -10.08217,5.38057 -0.7898,-0.78981 5.50003,-7.70008 12.26968,-13.47997 11.03466,-9.42134 23.64405,-24.7782 30.41164,-37.03805 1.95152,-3.53529 4.88795,-7.6041 6.5254,-9.0418 6.03541,-5.29916 24.46177,-13.17407 40.45585,-17.28969 21.83593,-5.61886 38.67675,-6.09014 39.42433,-1.10327 1.54002,10.27305 -12.87366,46.17157 -25.02183,62.31903 -6.10376,8.11318 -18.38562,21.08098 -21.49497,22.69546 -1.6776,0.87106 -1.94345,0.85368 -1.54082,-0.10074 z"
     id="path24"
     transform="scale(0.75)" />
  <path
     style="fill:#ffffff;stroke-width:1.09831"
     d="m 413.77019,747.89851 c -3.82325,-1.60756 -5.75723,-4.80187 -8.33252,-13.76265 -2.04266,-7.10747 -4.90514,-10.16958 -9.50658,-10.16958 -2.59384,0 -4.59366,1.40792 -9.62016,6.77287 -5.27487,5.63005 -6.95306,6.77289 -9.94549,6.77289 -7.76754,0 -13.43839,-6.20707 -11.76439,-12.87683 0.41892,-1.66909 3.50151,-5.90716 6.85021,-9.41792 5.9407,-6.22819 6.07454,-6.50743 5.51191,-11.49913 -0.38613,-3.42575 -3.30177,-10.39046 -8.82529,-21.08136 -21.47349,-41.56243 -27.71423,-71.03981 -20.87149,-98.58413 2.20287,-8.86733 1.39363,-12.38474 -2.84933,-12.38474 -2.66004,0 -3.43287,0.69511 -4.92835,4.43268 -3.29548,8.23622 -5.35622,23.85534 -4.70427,35.65547 1.14031,20.63967 6.88341,41.06536 17.80113,63.31091 3.30612,6.73641 6.01113,12.96642 6.01113,13.84445 0,1.32005 -1.37845,1.46369 -7.96272,0.8297 -17.42304,-1.67761 -24.37513,-3.41392 -30.08026,-7.51265 -3.78883,-2.722 -8.68667,-4.76664 -16.2193,-6.77089 -5.93527,-1.57922 -13.4085,-3.85049 -16.60719,-5.04727 l -5.81579,-2.17597 2.68964,-8.46965 c 4.19572,-13.21225 5.88451,-21.83107 6.62435,-33.80753 2.46891,-39.96695 -19.60556,-81.18548 -52.2949,-97.64757 -11.75484,-5.91964 -17.92248,-7.37222 -34.48662,-8.1222 l -15.21715,-0.68898 4.27629,-8.2561 c 6.42304,-12.40073 15.72021,-24.37343 29.88798,-38.48915 11.48291,-11.44069 29.34354,-25.21082 32.68385,-25.19844 0.69742,0.003 2.85778,2.84655 4.8008,6.31995 2.02007,3.61112 8.06106,10.80742 14.10823,16.80633 14.76701,14.64916 24.06111,18.75855 25.19749,11.14109 0.25875,-1.73449 -1.37491,-3.60153 -6.58983,-7.53122 -17.24757,-12.99687 -26.30469,-25.89605 -30.07176,-42.82832 -3.36355,-15.11853 -0.10118,-33.21756 8.89915,-49.3708 4.20523,-7.54731 13.12893,-18.00355 15.36481,-18.00355 1.98211,0 2.44163,-1.8791 3.80339,-15.55299 2.04595,-20.54421 8.00522,-34.18168 20.32588,-46.51461 11.77967,-11.79141 23.78198,-16.94218 39.54467,-16.9705 14.47448,-0.026 26.46073,4.91368 39.14833,16.13351 9.98905,8.83347 12.58001,10.58823 14.17675,9.60139 0.68869,-0.42564 1.05129,-2.14255 0.80578,-3.81536 l -0.4464,-3.04148 13.79507,-0.48996 c 12.43047,-0.4415 14.99014,-0.90344 25.87643,-4.66991 11.79594,-4.08119 12.47055,-4.1828 28.55594,-4.30121 13.8789,-0.10216 17.03853,0.18681 20.05399,1.8341 4.24202,2.31735 7.06003,1.30942 9.49298,-3.39538 2.30443,-4.45628 11.66095,-12.80443 17.88731,-15.95957 8.99448,-4.55785 18.38096,-6.49232 29.07423,-5.99196 8.21631,0.38446 10.60985,0.98777 17.57288,4.42939 19.46461,9.62077 31.67457,29.56089 31.67457,51.72781 v 9.03871 l 6.68509,6.55545 c 12.88902,12.63907 21.55889,27.35939 24.61758,41.79739 7.56684,35.71805 -13.82769,73.69682 -54.39381,96.55783 -9.00311,5.0737 -12.05463,7.92668 -12.05463,11.2703 0,2.48548 0.32985,2.62962 5.21695,2.27974 l 5.21695,-0.3735 1.82527,7.30466 c 9.46388,37.87412 2.97283,80.3594 -20.40321,133.54345 -9.26873,21.0878 -11.90506,29.22392 -12.01181,37.07052 -0.10202,7.49758 2.58672,11.60999 10.50134,16.06176 10.68457,6.0098 13.60906,13.6578 7.54238,19.72448 -4.53022,4.53021 -8.0596,4.17166 -17.04799,-1.73194 -4.1387,-2.71831 -8.31654,-4.93481 -9.28409,-4.92556 -4.74818,0.0454 -6.09287,4.0016 -3.91106,11.50675 0.93356,3.21135 1.37503,7.12324 0.98102,8.69308 -1.05872,4.21832 -6.51104,8.33929 -11.03342,8.33929 -7.99296,0 -11.4093,-5.09558 -11.4093,-17.0174 0,-5.1976 -0.4744,-7.23419 -2.00851,-8.62255 -2.99796,-2.71312 -7.34657,-2.21138 -11.40751,1.31617 -5.00284,4.34574 -7.80374,5.65259 -12.11485,5.65259 -6.70639,0 -10.92514,-6.42084 -8.88862,-13.52827 0.69646,-2.43065 2.74329,-4.66646 6.71919,-7.33953 7.62774,-5.12827 10.90381,-11.67483 12.39069,-24.76026 1.05505,-9.28519 1.43481,-10.28414 7.13028,-18.75611 18.09621,-26.91796 30.78426,-70.25743 22.11392,-75.53602 -3.16479,-1.92676 -5.65515,2.26657 -7.82009,13.16769 -9.1859,46.25383 -37.0828,82.582 -71.74266,93.42545 -10.43172,3.26359 -10.95326,3.08869 -15.0424,-5.04465 -7.13207,-14.18579 -12.24774,-48.27933 -9.63507,-64.21329 1.38027,-8.41785 0.41227,-12.18792 -3.12934,-12.18792 -3.74536,0 -6.12781,5.4551 -7.59837,17.39793 -2.93372,23.82568 5.61979,56.99427 19.65781,76.22861 4.53532,6.21411 11.08136,10.80483 16.6845,11.70082 6.71676,1.07404 11.97238,6.64055 11.97238,12.68056 0,9.22627 -8.45886,12.80604 -16.82573,7.12061 -4.99602,-3.39489 -11.04311,-4.60499 -13.36838,-2.67519 -2.29617,1.90566 -2.06985,6.97359 0.53986,12.08907 2.97504,5.83155 2.763,9.22509 -0.82373,13.18304 -3.90412,4.30819 -8.69562,5.68553 -13.19601,3.79326 z m 81.34202,-308.63169 c 18.06822,-1.64499 40.26142,-10.22267 54.3306,-20.99879 9.07346,-6.94971 12.64994,-11.3441 12.14082,-14.91729 -0.50351,-3.53388 -5.63548,-2.90245 -11.27677,1.38747 -15.79879,12.0142 -27.5447,17.7647 -45.26223,22.15922 -7.9711,1.9771 -12.75601,2.39765 -26.73265,2.34959 -14.71447,-0.0506 -18.48907,-0.44601 -27.82605,-2.91497 -6.05384,-1.6008 -15.60617,-5.28773 -21.73059,-8.3874 -10.98151,-5.55793 -16.99293,-6.87565 -18.10818,-3.96936 -2.22608,5.80109 16.2067,16.74787 38.01057,22.57354 9.53066,2.54645 26.70167,4.41291 34.59662,3.76059 2.41628,-0.19965 7.7523,-0.66883 11.85786,-1.0426 z m -15.08484,-54.38585 c 1.87692,-2.07399 1.91243,-2.52797 0.40808,-5.21695 -3.05967,-5.4691 -9.81161,-4.0398 -9.81161,2.07699 0,5.22235 5.77412,7.15041 9.40353,3.13996 z m 38.14915,-4.42275 c 3.23981,-5.17806 -3.5513,-11.0728 -8.05794,-6.99435 -2.43067,2.19972 -2.68241,4.05631 -0.98108,7.23528 1.41574,2.64532 7.3318,2.48764 9.03902,-0.24093 z m -147.80357,-3.02345 c 6.88085,-3.52701 12.16543,-8.61613 15.46722,-14.89514 2.55212,-4.85334 2.94103,-6.89362 2.94981,-15.47514 0.009,-8.93749 -0.30564,-10.45546 -3.2848,-15.84026 -13.04207,-23.57334 -46.86021,-23.10218 -58.3822,0.81339 -4.09017,8.48975 -4.34272,21.11326 -0.58628,29.30484 4.02605,8.77951 11.22663,15.01723 21.07694,18.25856 4.93892,1.62518 17.7395,0.40681 22.75931,-2.16625 z m 199.19697,-21.15843 c 19.43957,-4.16905 25.06873,-33.37376 9.7874,-50.77823 -7.94324,-9.04685 -25.19189,-11.30503 -33.70731,-4.41293 -6.18857,5.00882 -9.57489,12.4025 -10.0575,21.9595 -0.51103,10.11984 1.77562,17.23376 7.70452,23.96935 5.51838,6.26921 10.92476,9.10113 19.80498,10.37404 0.42332,0.0607 3.33387,-0.4396 6.46791,-1.11173 z"
     id="path25"
     transform="scale(0.75)" />
  <path
     style="fill:#ffffff;stroke-width:0.262844"
     d="m 349.12144,345.74873 c -1.26439,-0.29799 -3.31322,-1.3362 -4.33713,-2.19777 -1.06114,-0.89289 -2.26305,-2.84052 -2.82452,-4.57696 -0.68897,-2.13079 -0.45852,-5.49412 0.50516,-7.37283 1.9373,-3.77673 6.94938,-6.4744 11.05918,-5.95242 4.23447,0.53782 8.18683,5.04998 8.48114,9.68238 0.15258,2.40166 -0.19317,3.66732 -1.56171,5.71672 -2.49665,3.73877 -7.17053,5.67934 -11.32212,4.70088 z"
     id="path26"
     transform="scale(0.75)" />
  <path
     style="fill:#ffffff;stroke-width:0.18713"
     d="m 554.30254,325.86673 c -1.98116,-0.4651 -4.3819,-2.30165 -5.80096,-4.43771 -2.40665,-3.62263 -2.27869,-7.55638 0.34007,-10.45411 1.10942,-1.22761 2.53304,-2.03805 4.41726,-2.51467 2.08513,-0.52744 5.28132,-0.42578 7.00397,0.22278 2.69776,1.01569 4.77763,4.5568 4.77763,8.13425 0,5.70162 -5.44651,10.29169 -10.73797,9.04946 z"
     id="path27"
     transform="scale(0.75)" />
  <path
     style="fill:#ffffff;stroke-width:0.572165"
     d="m 583.60809,702.81171 c -2.56784,-1.41395 -5.09188,-4.44158 -7.23304,-8.67614 -3.76982,-7.4556 -8.64235,-11.89469 -15.48125,-14.1041 -5.20953,-1.68303 -6.3758,-3.08248 -6.65269,-7.98276 -0.34296,-6.06942 1.3137,-11.10675 10.34721,-31.46238 17.80788,-40.1273 25.0275,-68.69426 25.0275,-99.03006 0,-6.66792 0.66032,-10.2417 1.91551,-10.36715 4.48736,-0.44849 16.89191,6.82854 23.39992,13.72738 15.62708,16.56552 17.94693,43.39941 5.85566,67.73295 -6.97925,14.04567 -16.23844,24.05514 -31.25109,33.78341 -6.97012,4.51667 -9.6468,7.21671 -9.6468,9.73099 0,2.91523 2.94584,3.07816 8.79824,0.48661 1.53479,-0.67963 3.15496,-1.23569 3.6004,-1.23569 0.44543,0 3.95297,1.01245 7.79453,2.24988 9.37947,3.0213 10.69784,3.33589 16.92232,4.038 9.22187,1.04021 14.06232,4.21331 15.48708,10.15237 1.63388,6.81078 -3.56227,13.29123 -10.6715,13.30913 -2.40541,0.006 -6.67636,-1.83765 -10.53627,-4.54836 -8.5143,-5.97936 -18.23501,-5.86984 -18.23501,0.20544 0,1.90334 0.82807,3.29282 4.34069,7.28353 4.10988,4.66926 2.57507,11.28141 -3.31661,14.28841 -2.3949,1.22231 -8.55748,1.46878 -10.4648,0.41854 z"
     id="path28"
     transform="scale(0.75)" />
  <path
     style="fill:#F0ACAF;stroke-width:0.572165;fill-opacity:1"
     d="m 241.45354,741.56614 c -3.14586,-1.15072 -6.3843,-4.89586 -9.73746,-11.26102 -4.51453,-8.56974 -8.50052,-11.95789 -28.88366,-24.55152 -13.09776,-8.0924 -17.16494,-13.39787 -17.16494,-22.39095 0,-3.59821 0.11178,-4.01464 1.00128,-3.72989 0.55071,0.1763 3.85748,1.49389 7.34837,2.928 6.88835,2.82984 14.15772,4.89524 17.22921,4.89524 2.23868,0 4.74587,-2.11588 4.74587,-4.00516 0,-2.09796 -2.4083,-3.71118 -8.86856,-5.94067 -30.79128,-10.62633 -53.55591,-35.75147 -60.45549,-66.72425 -1.16501,-5.22981 -1.33227,-7.45244 -1.29173,-17.16495 0.0441,-10.56506 0.13978,-11.50643 1.80287,-17.73711 5.35296,-20.0546 15.66472,-33.34001 31.75262,-40.90926 7.85676,-3.69654 13.46006,-4.97965 23.10795,-5.29152 11.94192,-0.38602 19.3157,1.14055 29.68687,6.14598 12.30493,5.93872 25.99456,17.94118 33.63061,29.48581 18.86687,28.52409 21.29855,63.97733 6.76403,98.61803 -2.44127,5.81836 -2.39571,8.55414 0.1801,10.81573 2.58797,2.27227 8.87361,4.63538 22.54032,8.47414 6.1965,1.7405 12.34568,3.54931 13.66485,4.0196 5.67721,2.02394 9.42625,6.2591 9.42625,10.6485 0,3.41164 -1.23286,5.66339 -4.44265,8.11425 l -2.62702,2.00589 -5.1506,-2.58679 c -5.69768,-2.86154 -9.6974,-3.6716 -12.46615,-2.52476 -3.41341,1.41389 -2.53025,5.5864 1.79267,8.46958 6.72922,4.48806 9.53026,8.65429 8.91291,13.25695 -0.73814,5.50328 -5.22426,9.13979 -11.86093,9.61464 -3.33192,0.2384 -4.22047,0.0938 -5.93547,-0.96617 -2.30359,-1.4237 -5.56094,-5.18472 -8.4785,-9.78951 -3.57305,-5.63936 -9.5693,-9.96139 -16.22539,-11.69508 -3.97938,-1.0365 -6.54172,-0.68821 -8.53632,1.16033 -2.03368,1.88474 -1.87395,4.1062 0.53808,7.48365 5.59866,7.83953 6.37494,13.59381 2.40906,17.85746 -3.1502,3.38671 -9.90574,4.92209 -14.40905,3.27483 z"
     id="path29"
     transform="scale(0.75)" />
  <path
     style="fill:#F0ACAF;fill-opacity:1;stroke-width:0.572165"
     d="m 608.76673,323.89378 c -0.44905,-1.07474 -1.47089,-5.00122 -2.27075,-8.72552 -1.77325,-8.2566 -3.17049,-12.67688 -6.07437,-19.2168 -1.22282,-2.75398 -2.22332,-5.13561 -2.22332,-5.29253 0,-0.917 14.6873,1.91011 21.14425,4.06999 12.6917,4.24543 33.21141,17.44925 33.21141,21.37056 0,3.12669 -25.90359,9.74837 -38.13502,9.74837 h -4.83573 z"
     id="path30"
     transform="scale(0.75)" />
  <path
     style="fill:#ffffff;fill-opacity:1;stroke-width:0.449513"
     d="m 240.81538,740.96872 c -2.59255,-1.28328 -5.30825,-4.50129 -8.42926,-9.98833 -5.66015,-9.95115 -7.4193,-11.44916 -31.49411,-26.81893 -6.89584,-4.40242 -11.36482,-8.70459 -13.26898,-12.77369 -1.19361,-2.55067 -1.467,-3.75574 -1.65126,-7.27838 -0.15417,-2.94747 -0.0689,-4.22161 0.28259,-4.22161 0.27687,0 2.98465,0.98775 6.01729,2.19501 12.6051,5.01793 18.99301,6.36372 21.79665,4.59208 1.6277,-1.02855 2.25347,-2.74123 1.64063,-4.49027 -0.50466,-1.44031 -3.41133,-3.07766 -8.93314,-5.03211 -8.56583,-3.03187 -18.19157,-8.14946 -25.39746,-13.50274 -4.55509,-3.38398 -12.54828,-11.0323 -16.25838,-15.55688 -8.71394,-10.62694 -14.94658,-23.40006 -18.17993,-37.25778 -1.19124,-5.10552 -1.24604,-5.84834 -1.23955,-16.80421 0.007,-11.0299 0.0539,-11.64922 1.254,-16.40721 5.54398,-21.97932 16.75163,-35.98657 34.92753,-43.65219 4.97184,-2.09686 9.58941,-3.20045 15.91796,-3.80437 17.08877,-1.63074 31.11799,2.46877 46.0285,13.4501 5.3595,3.94718 12.42806,10.54051 16.35308,15.25365 9.72998,11.68367 16.68701,27.13727 19.7376,43.84302 1.35968,7.44588 1.47074,24.86384 0.20639,32.3698 -1.62746,9.66171 -4.19631,18.742 -8.02368,28.36193 -2.87213,7.21897 -2.40985,10.09245 2.05202,12.75492 2.98975,1.78402 7.74845,3.42646 22.42111,7.7385 13.07761,3.84328 15.14271,4.68014 17.76359,7.19852 2.52035,2.42178 3.38085,4.50792 3.15386,7.64604 -0.21297,2.9442 -1.30126,4.69571 -4.59431,7.39411 l -1.98585,1.62726 -3.74564,-1.88399 c -5.18027,-2.60558 -8.16993,-3.55756 -11.17234,-3.55756 -3.23041,0 -4.93575,1.13785 -4.93321,3.29159 0.003,2.1839 1.38235,3.99456 5.33948,7.00686 5.7222,4.35594 7.44219,7.13201 7.16043,11.55694 -0.14508,2.27843 -0.45088,3.2085 -1.55703,4.73549 -1.85942,2.56684 -5.0099,4.2651 -9.08338,4.89636 -2.83834,0.43986 -3.58483,0.40704 -5.2557,-0.23108 -2.29998,-0.87836 -6.13028,-4.80025 -9.35569,-9.57937 -4.26776,-6.32359 -10.31965,-10.72528 -17.12444,-12.45503 -3.31087,-0.8416 -4.3598,-0.85103 -6.26189,-0.0563 -2.22884,0.93126 -3.42057,2.42915 -3.42057,4.2993 0,1.65401 0.23674,2.16419 3.46731,7.47219 2.54425,4.18032 3.59568,8.23953 2.84166,10.97071 -1.61774,5.85972 -11.12206,9.60513 -16.99588,6.69764 z"
     id="path31"
     transform="scale(0.75)" />
</svg>
