<?xml version="1.0" encoding="UTF-8" standalone="no"?>
<svg
   version="1.0"
   width="600.000000pt"
   height="600.000000pt"
   viewBox="0 0 600.000000 600.000000"
   preserveAspectRatio="xMidYMid meet"
   id="svg8"
   sodipodi:docname="frog6_t1.svg.svg"
   inkscape:version="1.4.3 (0d15f75, 2025-12-25)"
   xmlns:inkscape="http://www.inkscape.org/namespaces/inkscape"
   xmlns:sodipodi="http://sodipodi.sourceforge.net/DTD/sodipodi-0.dtd"
   xmlns="http://www.w3.org/2000/svg"
   xmlns:svg="http://www.w3.org/2000/svg">
  <defs
     id="defs8" />
  <sodipodi:namedview
     id="namedview8"
     pagecolor="#505050"
     bordercolor="#ffffff"
     borderopacity="1"
     inkscape:showpageshadow="0"
     inkscape:pageopacity="0"
     inkscape:pagecheckerboard="1"
     inkscape:deskcolor="#505050"
     inkscape:document-units="pt"
     inkscape:zoom="0.2087909"
     inkscape:cx="-292.15833"
     inkscape:cy="136.5002"
     inkscape:window-width="1024"
     inkscape:window-height="1022"
     inkscape:window-x="0"
     inkscape:window-y="30"
     inkscape:window-maximized="0"
     inkscape:current-layer="svg8" />
  <g
     transform="translate(0.000000,600.000000) scale(0.050000,-0.050000)"
     fill="#000000"
     stroke="none"
     id="g8">
    <path
       d="M3840 11111 c-2249 -330 -3659 -2728 -3099 -5273 335 -1525 1508 -2698 2697 -2698 l113 0 45 -145 c69 -222 179 -375 485 -675 283 -277 359 -384 359 -505 0 -397 617 -473 745 -91 l26 80 57 -81 c177 -255 570 -188 611 104 l11 77 114 3 c189 5 305 121 305 304 0 85 6 108 27 99 15 -5 129 -10 252 -10 260 0 305 -29 237 -152 -92 -170 -105 -203 -105 -277 2 -341 461 -461 656 -171 62 94 72 94 113 2 171 -380 779 -267 700 130 l-12 58 111 -7 c407 -25 482 532 85 639 l-81 22 157 79 c188 95 319 178 481 306 l120 94 6 -112 c8 -140 -7 -165 -148 -251 -135 -83 -188 -169 -188 -306 0 -292 321 -425 563 -233 84 66 97 60 97 -43 0 -288 317 -457 564 -300 103 65 168 194 152 301 -10 67 5 77 45 30 194 -234 619 -87 619 212 0 52 6 61 35 50 370 -142 752 161 607 481 -69 152 -218 228 -445 228 -160 0 -156 -6 -68 110 413 541 284 1250 -276 1519 -81 39 -160 71 -176 71 -20 0 -35 49 -52 178 -14 98 -43 253 -65 345 -52 218 -56 201 65 296 933 737 1084 1706 390 2507 l-104 119 6 233 c10 470 -185 829 -545 1001 -410 196 -960 -18 -1164 -453 l-55 -116 -291 0 c-161 0 -333 -7 -382 -16 -85 -14 -93 -12 -124 41 -162 275 -499 474 -834 494 l-146 9 -87 153 c-621 1090 -1945 1725 -3209 1540z m1044 -189 c772 -158 1525 -659 1941 -1292 168 -254 166 -244 36 -291 -520 -186 -839 -731 -740 -1266 21 -111 19 -117 -37 -189 -32 -41 -84 -118 -115 -173 l-57 -99 -27 189 c-409 2902 -3952 2870 -4546 -41 -373 -1836 1047 -3413 2451 -2721 1384 682 1295 3443 -120 3704 -1086 199 -1943 -1174 -1375 -2203 345 -623 1125 -629 1418 -10 289 612 -127 1317 -649 1099 -318 -133 -408 -620 -143 -776 171 -101 421 87 313 235 -38 52 -103 33 -110 -32 -15 -126 -141 -116 -196 15 -122 293 252 563 520 375 441 -310 170 -1187 -378 -1221 -948 -59 -1087 1688 -177 2219 897 523 1741 -214 1735 -1514 -5 -1274 -865 -2127 -1865 -1849 -1670 462 -1794 3303 -191 4371 1552 1034 3308 -247 3198 -2332 -15 -284 13 -466 97 -642 60 -126 87 -81 -281 -471 -434 -459 -639 -733 -823 -1101 l-82 -163 -96 -13 c-615 -83 -1043 -581 -1052 -1225 l-3 -205 -113 0 c-832 -1 -1751 702 -2224 1701 -583 1230 -546 2909 90 4055 22 41 68 124 102 184 702 1262 2152 1959 3499 1682z m5194 -1611 c293 -149 495 -547 453 -889 -5 -39 -14 -110 -20 -157 -11 -81 -6 -91 94 -200 700 -761 583 -1613 -322 -2345 -195 -158 -188 -142 -141 -322 192 -721 183 -1326 -33 -2310 -70 -320 -36 -404 220 -525 22 -11 83 -39 134 -62 221 -101 191 -351 -41 -351 -83 0 -107 11 -191 85 -205 181 -386 120 -301 -102 63 -165 -75 -308 -248 -256 -103 31 -142 90 -160 242 -26 215 -150 266 -320 131 -114 -91 -201 -94 -284 -12 -101 102 -68 225 80 301 42 21 104 71 139 111 l63 71 0 242 0 241 77 93 c293 355 562 970 563 1287 0 148 -82 114 -121 -50 -207 -878 -823 -1614 -1559 -1864 -120 -41 -135 -42 -193 -14 -188 88 -295 803 -197 1309 47 244 -1 332 -79 145 -190 -456 -65 -1431 202 -1572 151 -79 358 -158 417 -158 142 0 223 -209 121 -311 -64 -64 -142 -63 -280 5 -184 90 -270 11 -161 -150 120 -177 -8 -367 -209 -307 -89 27 -104 43 -177 186 -89 177 -225 185 -323 20 -90 -153 -230 -188 -345 -85 -90 80 -90 180 -1 302 101 136 92 185 -89 468 -427 673 -577 1246 -499 1909 l17 146 -47 -6 c-72 -11 -120 -219 -120 -527 0 -481 142 -950 444 -1468 l63 -108 -247 12 c-264 13 -428 45 -639 125 -214 81 -222 92 -136 183 592 623 185 1709 -722 1927 -60 15 -113 29 -117 32 -12 8 151 300 266 477 134 207 283 383 618 732 l272 283 136 -127 c131 -124 346 -258 413 -258 76 0 28 80 -106 177 -551 401 -680 971 -359 1583 87 168 130 226 182 245 43 17 44 58 3 257 -201 993 1140 1571 1709 736 112 -163 114 -164 276 -126 103 24 213 30 447 25 l310 -7 70 143 c214 438 636 623 998 438z m523 -4772 c541 -275 477 -1146 -112 -1532 -79 -51 -64 -94 26 -78 134 24 542 7 627 -26 199 -77 173 -356 -35 -395 -65 -12 -106 -9 -327 24 -106 15 -422 166 -515 245 l-64 55 71 329 c109 506 148 807 148 1154 l0 304 49 -19 c27 -10 87 -37 132 -61z m-5620 9 c545 -162 896 -654 823 -1154 -72 -494 -461 -834 -955 -834 -173 0 -194 -89 -27 -112 126 -17 359 23 516 89 l132 55 155 -76 c85 -42 211 -90 280 -107 172 -43 217 -68 248 -144 67 -159 -117 -266 -295 -174 -130 67 -226 -6 -149 -115 81 -116 3 -256 -142 -256 -96 0 -126 23 -274 208 -101 128 -217 86 -239 -86 -38 -305 -473 -290 -474 16 -1 150 -85 274 -396 582 -414 409 -504 592 -504 1026 0 756 631 1281 1301 1082z"
       id="path1" />
    <path
       d="M9730 8910 c-95 -51 -190 -153 -190 -204 0 -66 52 -58 141 23 140 126 311 120 441 -13 75 -77 82 -81 113 -49 132 131 -314 345 -505 243z"
       id="path2" />
    <path
       d="M7073 8748 c-115 -36 -262 -173 -282 -265 -29 -131 44 -139 118 -13 112 191 339 233 533 99 130 -90 170 5 46 108 -120 98 -252 121 -415 71z"
       id="path3" />
    <path
       d="M9870 8470 c-11 -3 -45 -12 -75 -19 -225 -49 -364 -430 -241 -661 274 -515 971 -152 765 399 -72 191 -297 332 -449 281z m249 -203 c54 -69 52 -118 -8 -178 -86 -86 -231 -23 -231 100 0 123 162 176 239 78z"
       id="path4" />
    <path
       d="M7130 8243 c-330 -151 -369 -662 -64 -851 306 -189 674 33 674 408 0 341 -321 574 -610 443z m364 -166 c57 -54 59 -135 5 -193 -85 -91 -239 -29 -239 96 0 125 142 183 234 97z"
       id="path5" />
    <path
       d="M9084 7316 c-53 -53 -14 -156 59 -156 67 0 97 98 46 149 -38 37 -72 40 -105 7z"
       id="path6" />
    <path
       d="M8541 7261 c-36 -66 7 -145 74 -137 44 5 56 18 61 62 12 102 -91 159 -135 75z"
       id="path7" />
    <path
       d="M9555 6812 c-371 -263 -1071 -286 -1491 -48 -142 81 -230 23 -119 -78 217 -199 878 -286 1284 -169 285 81 527 242 479 318 -33 52 -52 49 -153 -23z"
       id="path8" />
  </g>
  <path
     style="fill:#ff7f2a;stroke-width:1.12944"
     d="M 216.8664,578.71705 C 196.73194,576.5979 170.77484,566.02107 150.21541,551.55858 136.92989,542.2129 111.53931,516.78044 102.19402,503.45799 87.292959,482.21534 77.059528,462.22963 69.067661,438.76281 43.301828,363.10561 48.095014,272.513 81.381894,206.02019 99.519593,169.78891 116.75559,146.20367 140.37951,125.28956 186.71709,84.267213 249.29209,63.254316 306.40489,69.537682 c 44.01872,4.842795 87.44871,25.281079 120.79577,56.846868 15.39776,14.57525 36.01608,41.89161 35.12237,46.53219 -0.23812,1.23649 -2.91179,3.02385 -6.95413,4.64885 -32.87331,13.21494 -52.82174,47.03997 -48.20447,81.73668 l 1.28871,9.68405 -6.29235,9.40087 c -3.46079,5.17047 -6.29235,9.8613 -6.29235,10.42407 0,0.56276 -0.4366,0.75338 -0.9702,0.42358 -0.53362,-0.32978 -1.31383,-3.53633 -1.73382,-7.12564 -1.27828,-10.92466 -5.02038,-27.79045 -8.58892,-38.71059 -16.46273,-50.37792 -48.15737,-84.5755 -93.07439,-100.42458 -28.03017,-9.89051 -63.65655,-9.65749 -92.41901,0.60448 -55.96886,19.96879 -95.44196,69.41887 -110.099421,137.9275 -2.861591,13.37501 -3.082157,16.30838 -3.079016,40.94888 0.0037,29.18432 1.155147,37.27296 8.372367,58.81492 20.46227,61.07581 71.91166,100.09554 123.52412,93.68194 50.28111,-6.24816 85.14343,-42.80692 98.03126,-102.80154 2.17995,-10.14799 2.55096,-15.28137 2.57133,-35.57733 0.0204,-20.37018 -0.3308,-25.34349 -2.48832,-35.23193 -10.82622,-49.61931 -36.08422,-78.80407 -73.61887,-85.06411 -14.5027,-2.41876 -29.34518,-0.27157 -43.89858,6.35061 -23.63197,10.75317 -42.66332,32.43909 -51.66478,58.87117 -4.50698,13.23443 -6.09707,22.44517 -6.10848,35.384 -0.0338,38.36969 21.20984,71.00171 50.69351,77.86935 7.525,1.7528 20.32443,0.91233 27.22926,-1.78801 18.72507,-7.32297 31.82227,-24.93592 35.14242,-47.25906 2.90072,-19.50304 -4.5052,-40.98242 -17.56497,-50.94359 -12.54336,-9.56728 -30.46651,-8.13057 -41.96062,3.36354 -6.99971,6.99971 -10.02174,14.73141 -9.95117,25.45948 0.0559,8.50003 1.89928,12.74518 7.77412,17.90337 3.43901,3.01948 4.9387,3.55485 9.9403,3.54853 9.17205,-0.0116 15.38844,-5.04908 15.45457,-12.5237 0.0672,-7.59515 -7.79278,-10.50199 -9.54284,-3.52921 -1.59427,6.3521 -5.31108,7.69024 -9.31658,3.35416 -4.58115,-4.95924 -5.29806,-13.958 -1.65436,-20.7663 3.24538,-6.06405 12.89312,-11.67965 20.0988,-11.69877 7.21947,-0.0192 15.97386,5.5844 20.9274,13.39532 4.23579,6.67915 5.69991,12.26657 5.69991,21.75229 0,19.2986 -11.3607,38.87235 -26.74114,46.07325 -11.46249,5.36658 -26.337,3.99262 -38.14691,-3.52361 -24.55435,-15.62727 -33.27417,-61.61879 -18.80618,-99.19071 4.45517,-11.56964 13.19253,-24.51018 21.67162,-32.09693 8.22659,-7.36083 24.05437,-15.60738 34.71675,-18.08806 32.0024,-7.44558 61.45516,9.16552 78.01694,44.00088 9.16503,19.27734 13.44912,39.89987 13.46098,64.79781 0.0263,55.2312 -23.89084,100.50969 -62.79872,118.88667 -12.29022,5.80493 -21.83935,7.86061 -36.41519,7.83927 -25.55713,-0.0374 -48.81382,-9.79574 -68.89926,-28.90964 C 118.70091,414.87093 105.46921,388.72251 99.087011,354.64391 96.057182,338.46572 96.423909,302.06579 99.786303,285.2349 113.7205,215.48542 157.54499,165.39653 218.54648,149.49875 c 11.18893,-2.91598 32.98215,-3.95828 45.25166,-2.16424 46.88319,6.85523 87.50434,41.80762 107.23382,92.26912 9.75758,24.95671 13.68638,50.19073 13.35935,85.80478 -0.22054,24.01729 0.4225,28.84236 5.45481,40.92935 2.25839,5.42439 2.73775,7.83868 1.96377,9.8905 -0.56316,1.49292 -8.78978,11.04346 -18.28139,21.22341 -30.28,32.47597 -42.85492,49.12782 -56.16289,74.37155 -5.77061,10.94621 -6.70688,12.14147 -9.51056,12.14147 -1.71043,0 -7.13007,1.01947 -12.04368,2.26548 -27.25589,6.91166 -47.72523,26.34042 -56.42027,53.55211 -2.42354,7.5846 -4.84985,26.10031 -5.00684,38.20823 -0.029,2.23722 -2.27827,2.33051 -17.51786,0.72654 z"
     id="path9"
     transform="scale(0.75)" />
  <path
     style="fill:#ffffff;stroke-width:1.95444"
     d="m 519.28157,691.32256 c -2.88638,-0.46688 -6.63916,-4.19259 -10.43197,-10.35669 -8.5915,-13.96295 -13.59354,-14.59386 -24.19145,-3.05129 -9.48886,10.33466 -14.49148,11.32695 -21.54492,4.27349 -5.98453,-5.98451 -5.96859,-7.16624 0.23952,-17.75957 6.1575,-10.50699 5.90971,-11.50968 -9.22626,-37.33485 -23.90392,-40.78514 -32.13263,-70.03139 -30.54565,-108.56442 0.72151,-17.51897 0.36924,-23.07892 -1.46227,-23.07892 -4.40822,0 -6.69859,5.04693 -8.7025,19.17629 -4.19476,29.57692 3.91926,67.60241 21.84952,102.39549 4.59626,8.91891 8.59884,16.69851 8.89462,17.28803 0.94896,1.89141 -25.48994,-0.33436 -38.42644,-3.23495 -6.88391,-1.54348 -16.42581,-4.53574 -21.20422,-6.64947 l -8.68803,-3.84313 5.18836,-6.166 c 2.8536,-3.39132 7.55826,-10.65801 10.45481,-16.14822 4.75946,-9.02122 5.26339,-11.95775 5.23468,-30.50379 -0.0295,-19.0363 -0.48004,-21.4411 -6.22531,-33.22547 -11.17827,-22.92826 -28.71667,-38.59237 -52.01773,-46.45877 -6.14648,-2.07503 -11.70649,-4.30387 -12.35559,-4.95298 -1.36762,-1.36762 8.1902,-18.84097 19.17223,-35.05017 8.29619,-12.24497 51.604,-60.12101 54.3844,-60.12101 0.94717,0 5.81334,3.54092 10.81372,7.86871 11.18735,9.68258 23.70293,16.25937 27.88647,14.65399 2.39133,-0.91765 -0.84284,-5.01036 -13.62168,-17.23774 -10.41089,-9.9616 -18.88741,-20.10555 -22.38115,-26.78379 -5.15561,-9.85487 -5.62359,-12.45719 -5.62359,-31.27102 0,-19.59613 0.3239,-21.20278 7.18215,-35.62561 3.95018,-8.30719 9.55092,-17.29929 12.44608,-19.98244 5.24623,-4.86204 5.25576,-4.92183 2.83167,-17.76902 -5.88967,-31.21404 7.77374,-57.45778 36.91594,-70.90559 8.67239,-4.00192 14.0688,-5.07979 25.64226,-5.12174 22.07866,-0.08 34.69416,6.96344 51.79263,28.91674 l 5.86332,7.52811 11.59698,-2.1534 c 6.37833,-1.18437 20.49491,-2.1534 31.37017,-2.1534 h 19.77322 l 4.16749,-8.57795 c 8.37956,-17.24764 24.35657,-30.55651 39.96017,-33.28684 18.30527,-3.20307 38.62814,9.7047 48.8659,31.03647 4.98873,10.39467 5.63373,13.79092 5.39716,28.41827 -0.35907,22.20311 -0.74706,20.53272 6.69484,28.82235 25.97404,28.93277 34.61958,62.34953 23.95044,92.57319 -6.62455,18.76608 -16.66095,32.58893 -38.8821,53.55121 l -19.66901,18.55472 4.29484,18.69699 c 9.51349,41.41562 9.28214,77.94823 -0.82219,129.82838 -7.54873,38.75856 -6.61541,42.98721 11.4869,52.04425 18.059,9.03538 22.81778,16.13648 15.34557,22.89874 -5.36968,4.8595 -12.61788,3.91836 -20.97566,-2.72359 -5.76407,-4.5807 -9.10206,-5.82327 -14.43844,-5.37471 l -6.94105,0.58346 v 12.59965 c 0,11.40995 -0.46137,12.85698 -4.8861,15.32483 -3.72804,2.07929 -6.16565,2.2291 -10.28483,0.63207 -5.58403,-2.16497 -7.30866,-5.15914 -11.09042,-19.25398 -2.9625,-11.04147 -8.56873,-12.5743 -20.47336,-5.59771 -10.71892,6.2817 -12.98686,6.32689 -18.58281,0.3703 -5.3841,-5.73113 -4.16584,-11.5184 3.4123,-16.20984 2.87457,-1.77958 7.6451,-5.43868 10.60119,-8.13135 5.03938,-4.59033 5.37471,-5.90909 5.37471,-21.13735 0,-16.22462 0.009,-16.25433 8.97488,-28.4331 22.53427,-30.61066 41.60485,-87.49586 29.33269,-87.49586 -1.66929,0 -5.3597,8.34817 -9.90113,22.39757 -10.10021,31.24613 -22.80418,52.09335 -45.9964,75.48017 -15.7483,15.88044 -21.37079,20.12314 -37.03392,27.94564 -28.39567,14.18135 -33.98035,11.60925 -40.42591,-18.61877 -2.84191,-13.32778 -2.88618,-31.67825 -0.16668,-69.09305 0.74021,-10.1838 -5.00667,-7.1123 -9.14206,4.8861 -7.34551,21.31224 -4.53534,67.6842 5.32267,87.83177 5.36581,10.96653 10.2248,14.45049 29.64698,21.25728 12.98017,4.54909 15.94882,6.3863 17.5149,10.83941 3.86265,10.98338 -4.91018,15.70167 -18.83505,10.13004 -13.84599,-5.54008 -19.06772,-0.15329 -11.92147,12.2983 6.01895,10.48745 -0.7895,20.27164 -12.75903,18.33554 z M 620.40442,364.54668 c 15.38038,-5.18127 27.49214,-13.09132 27.49214,-17.9548 0,-6.12409 -4.74497,-6.0731 -14.85862,0.15967 -12.51787,7.71444 -29.34436,11.89945 -47.60545,11.84025 -17.70919,-0.0574 -28.5487,-2.27874 -43.68378,-8.95204 -15.85013,-6.98859 -22.33991,-3.94444 -12.01034,5.63367 15.13068,14.02997 62.24233,18.84851 90.66605,9.27325 z M 579.0969,320.35699 c 0.81674,-5.71646 -4.48106,-9.92252 -8.40068,-6.66951 -3.07797,2.55448 -3.90161,8.15076 -1.54626,10.50611 2.7584,2.75841 9.36896,0.20867 9.94694,-3.8366 z m 34.59698,-3.71109 c 0,-4.13197 -1.05952,-6.0406 -3.62787,-6.53521 -5.20784,-1.00294 -7.8192,2.48547 -6.32304,8.44667 0.98408,3.92084 2.33104,5.00862 5.62251,4.54058 3.36457,-0.47843 4.3284,-1.91516 4.3284,-6.45204 z m -110.78146,-8.88118 c 14.38911,-8.77274 18.22286,-33.54133 7.38997,-47.74398 -13.29086,-17.42521 -35.20072,-16.93495 -48.54465,1.08626 -5.66541,7.65124 -6.68404,26.29347 -1.91192,34.99052 8.26509,15.06292 28.50384,20.54581 43.0666,11.6672 z m 175.7645,-15.22669 c 8.71084,-6.20266 12.83217,-16.36165 11.78084,-29.03946 -1.45704,-17.56984 -12.95147,-29.06072 -28.83611,-28.82717 -15.68594,0.23063 -25.69343,9.96675 -28.33229,27.56404 -1.67285,11.15524 4.71848,24.97748 14.6072,31.59038 8.42256,5.63244 21.85079,5.07062 30.78036,-1.28779 z M 462.66239,234.70106 c 2.928,-3.66963 8.38984,-7.68399 12.13741,-8.9208 5.80759,-1.91668 8.16072,-1.65294 15.93503,1.78601 5.01669,2.21912 10.3287,4.03476 11.80446,4.03476 6.67608,0 -0.15131,-10.12278 -10.38076,-15.39128 -12.63505,-6.50745 -34.37922,2.76464 -39.91656,17.02112 -3.86341,9.94678 2.89601,10.90045 10.42042,1.47019 z m 183.46003,-15.92882 c 3.97701,-2.75607 9.91307,-5.0873 13.19125,-5.1805 5.2548,-0.14941 8.55618,1.43591 19.09704,9.17039 3.7029,2.71703 7.32399,-1.50024 5.69502,-6.63265 -3.37831,-10.64408 -30.62596,-15.86769 -40.84404,-7.83015 -6.09185,4.79185 -9.70358,10.88468 -8.04402,13.5699 1.72227,2.78667 2.89536,2.45351 10.90475,-3.09699 z"
     id="path10"
     transform="scale(0.75)" />
  <path
     style="fill:#ffffff;stroke-width:1.95444"
     d="m 312.24593,687.90639 c -2.5218,-1.76634 -4.74157,-5.96119 -5.42967,-10.26081 -2.05419,-12.83563 -5.97399,-18.78499 -27.11675,-41.15703 -11.40172,-12.06464 -23.15035,-26.52646 -26.10807,-32.13738 -5.00175,-9.48854 -5.37767,-11.84117 -5.37767,-33.65495 0,-21.3115 0.47483,-24.46618 5.1996,-34.545 6.63347,-14.15044 18.22882,-26.71657 31.37108,-33.99752 9.28169,-5.14215 12.12986,-5.72617 27.92581,-5.72617 15.70581,0 18.99273,0.66456 30.68608,6.20416 15.43434,7.31187 28.50528,19.68197 36.11587,34.17943 4.81761,9.17708 5.47728,12.54756 5.48442,28.02178 0.006,13.83829 -0.88072,19.51681 -4.15928,26.62416 -9.68705,20.99986 -29.26879,34.54643 -52.65031,36.42327 -13.08004,1.04994 -18.18186,4.60255 -12.34131,8.59377 3.9932,2.7288 25.01249,0.48435 37.90709,-4.04774 10.9071,-3.83353 11.36271,-3.84258 18.297,-0.36322 3.91125,1.96251 12.98141,5.49794 20.15591,7.8565 14.41292,4.73813 17.86336,7.5991 16.91068,14.02167 -1.05609,7.11974 -5.93241,8.77172 -17.29573,5.85939 -12.76659,-3.27198 -15.53288,-1.29525 -11.97121,8.55436 2.81327,7.77996 0.73831,13.69505 -5.49848,15.67454 -4.95226,1.57178 -9.04354,-0.75947 -18.55111,-10.57061 -10.98616,-11.33694 -17.12827,-10.25207 -19.881,3.51153 -2.30775,11.5388 -14.66326,17.2465 -23.67295,10.93587 z"
     id="path11"
     transform="scale(0.75)" />
  <path
     style="fill:#ffffff;stroke-width:0.479258"
     d="m 723.67945,631.71575 c -8.5277,-1.31677 -13.27734,-2.96069 -24.44215,-8.45978 -7.88461,-3.88347 -13.34021,-7.24703 -16.87189,-10.4021 l -2.01489,-1.80003 3.10267,-14.37774 c 9.10372,-42.18653 10.7636,-54.74664 11.09968,-83.98995 0.12799,-11.13675 0.28058,-20.24864 0.33909,-20.24864 0.54581,0 7.18882,2.96569 10.81532,4.82836 9.40455,4.83045 15.33891,10.74763 19.91106,19.85342 1.5783,3.1433 3.15492,7.20687 3.90489,10.06442 1.12116,4.2719 1.26256,5.72979 1.30145,13.41922 0.0336,6.64231 -0.15616,9.56368 -0.82495,12.70033 -2.04901,9.60981 -6.07368,19.05769 -11.53303,27.0737 -3.57076,5.24298 -11.16328,13.03608 -16.35386,16.7859 -6.45368,4.66232 -7.48236,5.98417 -5.76566,7.40891 0.55424,0.45997 2.52007,0.4567 9.22571,-0.0154 13.25178,-0.93293 32.86479,0.3794 38.03062,2.54467 2.55228,1.06979 5.14186,3.56178 6.55287,6.30593 1.65873,3.22589 1.78403,8.09024 0.29233,11.34854 -1.28787,2.81309 -4.03615,5.55749 -6.83722,6.82757 -3.29835,1.49556 -10.78292,1.54537 -19.93204,0.13265 z"
     id="path12"
     transform="scale(0.75)" />
  <path
     style="fill:#ffffff;stroke-width:0.13582"
     d="m 665.6382,263.02796 c -1.88677,-0.51217 -3.74058,-1.70181 -4.81997,-3.09312 -1.407,-1.81358 -1.89744,-3.13165 -1.98855,-5.34433 -0.0786,-1.90877 0.0762,-2.73002 0.7949,-4.21611 0.42264,-0.87398 0.77274,-1.34902 1.58875,-2.15576 3.1824,-3.14623 8.09833,-3.55273 11.60457,-0.95958 1.67946,1.2421 3.60713,4.10744 4.12667,6.13397 0.57188,2.23071 -0.26677,4.4507 -2.6065,6.89967 -1.90742,1.99647 -3.71847,2.85101 -6.23781,2.9433 -1.18137,0.0433 -1.6966,-2.6e-4 -2.46206,-0.20804 z"
     id="path13"
     transform="scale(0.75)" />
  <path
     style="fill:#ffffff;stroke-width:0.314577"
     d="m 490.05563,276.46989 c -1.85131,-0.65599 -4.14727,-2.78877 -5.02022,-4.6634 -0.5388,-1.15707 -0.73884,-2.14735 -0.74108,-3.66871 -0.006,-3.88259 1.53434,-6.50056 4.77739,-8.12114 3.47722,-1.73758 7.12294,-1.16863 10.13165,1.58116 3.89124,3.55638 4.14131,8.65522 0.61624,12.56526 -2.341,2.59666 -6.30381,3.53291 -9.76398,2.30683 z"
     id="path14"
     transform="scale(0.75)" />
</svg>
