<?xml version="1.0" encoding="UTF-8" standalone="no"?>
<svg
   version="1.0"
   width="600.000000pt"
   height="500.000000pt"
   viewBox="0 0 600.000000 500.000000"
   preserveAspectRatio="xMidYMid meet"
   id="svg17"
   sodipodi:docname="frog17_t2.svg"
   inkscape:version="1.4.3 (0d15f75, 2025-12-25)"
   xmlns:inkscape="http://www.inkscape.org/namespaces/inkscape"
   xmlns:sodipodi="http://sodipodi.sourceforge.net/DTD/sodipodi-0.dtd"
   xmlns="http://www.w3.org/2000/svg"
   xmlns:svg="http://www.w3.org/2000/svg">
  <defs
     id="defs17" />
  <sodipodi:namedview
     id="namedview17"
     pagecolor="#505050"
     bordercolor="#ffffff"
     borderopacity="1"
     inkscape:showpageshadow="0"
     inkscape:pageopacity="0"
     inkscape:pagecheckerboard="1"
     inkscape:deskcolor="#505050"
     inkscape:document-units="pt"
     inkscape:zoom="0.92426452"
     inkscape:cx="395.99053"
     inkscape:cy="275.35407"
     inkscape:window-width="1920"
     inkscape:window-height="1022"
     inkscape:window-x="0"
     inkscape:window-y="30"
     inkscape:window-maximized="1"
     inkscape:current-layer="svg17" />
  <g
     transform="translate(0.000000,500.000000) scale(0.066667,-0.066667)"
     fill="#000000"
     stroke="none"
     id="g17">
    <path
       d="M4875 7164 c-316 -64 -405 -121 -551 -358 -46 -73 -62 -88 -115 -101 -237 -58 -393 -128 -546 -243 -99 -75 -119 -84 -205 -92 -387 -36 -838 -283 -1074 -589 -47 -60 -90 -96 -155 -129 -270 -135 -513 -370 -655 -633 -41 -76 -86 -134 -131 -171 -208 -167 -363 -349 -435 -510 -15 -34 -77 -107 -145 -170 -209 -195 -358 -427 -442 -688 -25 -79 -50 -118 -124 -195 -169 -178 -228 -377 -169 -571 25 -84 25 -91 -2 -182 -103 -350 36 -844 313 -1113 29 -28 29 -29 -21 -67 -217 -165 -327 -393 -263 -546 81 -194 415 -238 701 -93 l69 35 25 -44 c172 -290 583 -376 768 -160 46 54 57 60 79 44 203 -148 525 -131 611 31 23 45 36 55 60 49 16 -5 70 -19 118 -32 151 -41 319 -1 397 94 55 66 98 53 165 -52 227 -354 759 -495 925 -245 l38 57 72 -34 c289 -139 662 -41 662 172 0 27 5 28 56 14 183 -50 409 59 409 197 l0 40 184 17 c214 21 479 84 662 159 71 29 129 49 129 44 0 -4 -8 -34 -17 -66 -66 -218 167 -333 493 -244 30 8 34 4 34 -34 0 -257 445 -346 704 -141 l56 45 33 -44 c153 -208 581 -126 696 132 24 56 33 64 61 55 457 -150 692 289 353 660 -55 60 -74 91 -65 105 8 10 46 57 84 105 282 349 367 867 199 1218 -42 90 -51 125 -51 210 -1 198 -83 389 -221 516 -45 41 -87 74 -93 74 -7 0 -17 52 -23 116 -32 368 -210 677 -522 902 l-86 63 24 56 c73 169 83 243 43 319 -27 52 -22 54 119 24 l88 -18 20 -78 c62 -240 276 -443 470 -446 l69 0 -2 86 c-3 121 -71 255 -180 355 -69 63 -79 77 -56 84 174 52 363 246 347 357 -4 31 -12 32 -140 31 -200 -1 -354 -78 -449 -223 -34 -52 -53 -67 -75 -62 -17 4 -76 15 -132 25 -99 17 -101 18 -90 57 58 207 -95 498 -323 616 l-55 28 0 125 c0 181 -59 289 -207 383 -31 19 -56 48 -56 62 0 46 -102 202 -179 275 -254 239 -585 258 -874 50 l-74 -53 -196 24 c-195 25 -196 26 -295 97 -259 188 -581 272 -842 219z m508 -167 c199 -76 359 -199 522 -405 87 -110 99 -41 22 132 -17 39 274 -10 468 -79 178 -63 211 -31 65 62 -123 78 -123 75 1 136 284 140 634 -2 762 -308 l21 -50 -134 -55 c-74 -30 -154 -55 -179 -55 -24 0 -49 -7 -54 -16 -13 -21 21 -59 52 -59 15 0 33 -21 45 -56 48 -137 128 -196 403 -299 330 -122 498 -293 498 -506 0 -146 -48 -171 -151 -77 -253 229 -1198 62 -2043 -361 -219 -110 -230 -107 -138 45 83 139 48 162 -67 43 -234 -242 -81 -348 264 -183 504 241 858 359 1280 427 186 30 500 32 571 3 l52 -21 -97 -10 c-180 -19 -166 -46 41 -77 326 -49 374 -115 258 -349 -49 -100 -60 -137 -60 -210 0 -413 -394 -856 -898 -1009 -128 -39 -136 -70 -15 -63 166 11 403 113 567 245 110 88 107 89 152 -58 77 -256 41 -572 -88 -768 -262 -398 -600 -524 -1067 -399 -243 65 -291 37 -81 -48 237 -96 465 -118 658 -65 125 35 115 47 81 -95 -15 -66 -35 -180 -43 -255 -31 -268 -95 -401 -276 -575 -349 -333 -835 -538 -1345 -568 l-157 -9 -53 72 c-64 88 -156 159 -311 240 -64 34 -164 88 -221 120 -60 32 -171 75 -255 97 l-150 39 -10 59 c-5 32 -17 118 -27 191 -9 73 -34 177 -54 231 l-37 97 86 -12 c197 -28 295 -2 136 36 -200 48 -282 81 -315 129 -18 25 -79 95 -136 154 l-103 107 35 61 c25 44 52 67 99 85 96 37 229 144 292 236 87 126 68 140 -44 32 -75 -73 -211 -171 -238 -171 -10 0 -15 46 -15 120 1 146 -20 159 -53 33 -97 -368 -442 -661 -795 -676 -117 -4 -150 -1 -154 15 -4 11 -14 63 -24 116 -59 314 -370 669 -680 774 -144 49 -142 10 5 -76 470 -278 658 -673 578 -1213 -29 -191 -30 -192 -103 -172 -67 18 -215 13 -211 -8 2 -8 48 -26 103 -41 187 -51 323 -143 392 -264 22 -39 82 -109 134 -157 162 -149 178 -272 40 -310 -93 -26 -166 -5 -206 57 -68 108 -222 229 -252 199 -11 -11 10 -43 68 -105 150 -163 164 -274 41 -336 -157 -79 -353 -6 -471 175 -109 168 -191 170 -99 3 116 -211 63 -339 -141 -339 -170 0 -303 82 -325 201 -23 120 -70 111 -98 -18 -76 -339 -526 -305 -683 50 -20 46 -54 84 -113 127 -134 95 -189 74 -85 -32 78 -81 3 -141 -219 -177 -403 -65 -455 236 -90 525 l59 46 44 -31 c66 -47 208 -109 226 -99 29 18 14 36 -109 132 -259 203 -394 382 -479 635 -52 155 -49 436 5 578 l38 100 -34 73 c-78 164 -25 344 153 522 79 80 95 106 125 203 158 524 619 899 1105 900 100 0 257 -21 273 -37 16 -16 -67 -147 -101 -160 -25 -10 -31 -19 -20 -30 18 -18 -13 -107 -50 -144 -12 -12 -18 -27 -14 -33 13 -21 -91 -263 -145 -339 -113 -158 -207 -408 -207 -550 0 -66 25 -76 38 -16 40 187 130 374 239 495 37 42 68 83 68 92 0 67 80 260 113 272 40 15 48 39 18 49 -27 9 27 117 64 127 22 5 28 16 22 40 -13 51 74 163 117 151 52 -15 251 -109 251 -119 0 -5 -27 -43 -60 -85 -96 -122 -81 -137 35 -35 42 37 88 67 100 67 31 0 180 -109 297 -217 52 -48 98 -83 103 -78 20 20 -36 92 -179 229 -90 87 -146 151 -143 166 3 19 -7 26 -40 26 -51 2 -323 136 -323 159 0 8 34 50 75 93 41 43 75 84 75 92 0 7 41 59 90 116 104 116 97 152 -12 65 -113 -91 -190 -160 -198 -179 -4 -10 -36 -50 -71 -89 l-64 -72 -104 17 c-228 37 -467 12 -672 -71 -92 -37 -95 -31 -30 67 164 250 476 461 768 520 129 26 149 56 36 55 -72 0 -197 -22 -297 -53 -47 -14 -39 8 51 144 166 248 482 478 786 570 122 38 134 68 27 68 -89 0 -89 -1 31 114 298 287 705 447 1086 429 190 -9 212 13 66 65 l-45 16 45 37 c67 54 234 138 355 180 142 48 148 47 131 -13 -8 -26 -14 -90 -14 -140 0 -177 76 -149 106 38 49 307 244 531 519 600 120 30 422 10 543 -37z m2053 -699 c30 -46 42 -84 45 -153 7 -133 1 -137 -136 -91 l-116 39 51 50 c56 54 76 119 61 199 -13 68 35 46 95 -44z m1030 -1042 c7 -19 -102 -43 -127 -28 -24 15 2 40 33 32 15 -4 28 -1 28 5 0 20 58 11 66 -9z m-81 -180 l38 -23 -41 6 c-23 4 -43 -1 -46 -10 -3 -8 -10 -1 -14 18 -11 39 9 42 63 9z m120 -90 c0 -4 -13 0 -30 9 -16 9 -30 19 -30 24 0 4 14 0 30 -9 17 -9 30 -19 30 -24z m-523 -405 c318 -234 501 -689 411 -1026 -35 -129 -12 -149 52 -45 46 74 59 74 135 6 105 -95 157 -225 163 -409 4 -141 9 -162 48 -223 101 -160 132 -474 68 -686 -78 -259 -325 -624 -404 -599 -100 32 -105 -3 -9 -67 233 -158 354 -392 279 -538 -73 -140 -345 -140 -446 0 -81 112 -121 113 -92 3 55 -208 -85 -381 -309 -382 -173 0 -243 72 -243 251 0 140 -27 144 -82 13 -73 -172 -211 -266 -389 -267 -238 -1 -324 150 -214 379 66 139 38 144 -83 15 -224 -238 -608 -159 -449 91 72 114 326 328 389 328 8 0 48 23 89 51 41 28 123 76 182 105 102 52 146 98 73 78 -18 -5 -58 -13 -89 -18 l-55 -10 29 79 c70 182 167 295 334 390 164 92 72 106 -104 15 l-115 -59 10 108 c30 329 87 429 476 831 87 90 225 175 347 214 31 10 56 25 56 32 0 28 -157 13 -247 -23 -105 -44 -105 -44 -82 39 47 165 17 454 -69 676 l-28 70 61 80 c118 156 187 313 209 474 12 93 6 91 98 24z m-4130 -2198 c199 -198 271 -357 310 -686 l9 -80 -49 11 c-75 16 -75 16 -80 0 -10 -32 208 -154 334 -186 141 -37 263 -88 354 -148 34 -23 109 -64 165 -92 206 -101 350 -292 289 -384 -69 -106 -325 -88 -415 29 -77 100 -209 191 -209 144 0 -8 33 -59 74 -113 168 -221 121 -353 -128 -366 -196 -10 -331 52 -440 199 -90 123 -131 112 -83 -21 136 -388 -488 -337 -743 61 -27 41 -46 77 -43 78 3 2 37 19 76 39 120 60 146 173 73 316 -28 54 -159 196 -182 196 -6 0 -31 36 -56 80 -42 74 -117 153 -177 187 -24 13 -24 24 -1 177 14 90 27 204 29 254 l4 90 127 9 c217 15 413 95 563 230 94 85 89 85 199 -24z"
       id="path1" />
    <path
       d="M4550 6441 c-6 -16 2 -34 22 -49 29 -23 30 -30 14 -97 -102 -440 458 -821 888 -603 121 61 286 264 286 350 0 8 41 17 90 21 121 9 171 45 177 130 5 72 -26 86 -54 24 -26 -57 -83 -72 -198 -52 -179 31 -559 132 -814 216 -269 90 -393 108 -411 60z m306 -119 c112 -34 125 -42 121 -72 -4 -28 -13 -32 -70 -29 l-66 3 8 -66 c31 -281 418 -328 528 -64 27 66 18 64 165 27 143 -36 137 -29 99 -116 -204 -461 -951 -317 -966 186 -5 180 2 185 181 131z"
       id="path2" />
    <path
       d="M3326 6074 c-138 -33 -312 -156 -351 -250 -139 -332 509 -389 725 -64 138 209 -72 385 -374 314z m300 -111 c130 -151 -201 -395 -458 -337 -296 66 -20 400 318 385 92 -4 107 -9 140 -48z"
       id="path3" />
    <path
       d="M7165 5883 c-28 -31 -33 -86 -9 -101 26 -16 87 6 104 39 39 72 -40 123 -95 62z"
       id="path4" />
    <path
       d="M6693 5842 c-76 -54 -1 -125 121 -114 17 1 26 15 26 37 0 68 -91 115 -147 77z"
       id="path5" />
    <path
       d="M4275 5786 c0 -10 30 -56 66 -103 l66 -84 -27 -45 c-40 -66 -50 -68 -106 -19 -94 80 -116 54 -43 -50 l47 -66 -39 -76 c-69 -136 -46 -163 46 -55 l58 67 88 -76 c60 -51 93 -71 104 -60 16 16 15 18 -85 139 l-58 70 33 54 c40 65 36 66 128 -7 117 -93 138 -66 37 49 -70 79 -71 84 -26 161 44 76 25 91 -42 32 -67 -59 -63 -60 -142 21 -66 66 -105 85 -105 48z"
       id="path6" />
    <path
       d="M2645 5459 c-135 -40 -279 -186 -279 -284 0 -233 436 -212 600 30 118 173 -74 325 -321 254z m247 -90 c129 -120 -224 -353 -399 -263 -72 37 -66 96 17 180 107 107 309 151 382 83z"
       id="path7" />
    <path
       d="M3442 5084 c-12 -20 -14 -18 71 -50 58 -21 190 -101 276 -166 42 -31 39 10 -4 63 -71 88 -316 197 -343 153z"
       id="path8" />
    <path
       d="M4755 4980 c0 -27 77 -169 140 -258 56 -81 59 -90 44 -139 -19 -63 0 -83 43 -44 28 26 32 24 157 -100 141 -139 137 -127 79 -280 -54 -142 -20 -157 64 -29 76 116 73 115 167 51 64 -42 72 -54 65 -90 -9 -44 5 -51 53 -25 23 13 36 11 55 -5 14 -12 75 -50 135 -85 71 -41 107 -71 102 -84 -45 -118 -14 -172 46 -81 46 69 39 69 214 7 262 -92 315 -45 66 59 -219 90 -211 83 -178 156 57 128 8 125 -87 -5 -19 -25 -22 -25 -71 0 -122 63 -210 132 -200 156 29 68 16 128 -16 76 -28 -44 -64 -43 -130 4 -91 66 -92 68 -42 160 75 139 47 164 -61 54 -83 -85 -72 -86 -197 26 -137 123 -152 146 -131 206 21 59 11 69 -37 38 -44 -29 -48 -27 -171 137 -78 103 -109 131 -109 95z"
       id="path9" />
    <path
       d="M3038 4907 c-87 -19 -44 -40 98 -49 214 -14 362 -62 548 -180 145 -92 173 -73 52 35 -173 156 -479 241 -698 194z"
       id="path10" />
    <path
       d="M4065 4424 c0 -9 13 -35 28 -57 256 -359 290 -789 92 -1154 -64 -118 -52 -150 25 -67 272 294 246 917 -52 1223 -70 71 -93 85 -93 55z"
       id="path11" />
    <path
       d="M4590 4039 c1 -76 390 -325 437 -278 10 10 -14 32 -80 68 -52 30 -147 91 -211 137 -111 80 -146 98 -146 73z"
       id="path12" />
    <path
       d="M4815 3611 c2 -76 330 -221 500 -221 78 0 106 25 44 39 -209 47 -265 67 -427 150 -113 57 -117 59 -117 32z"
       id="path13" />
    <path
       d="M6930 3471 c-93 -52 -273 -96 -391 -96 -123 0 -153 -18 -78 -47 126 -48 416 21 507 122 32 35 9 48 -38 21z"
       id="path14" />
    <path
       d="M720 3418 c-77 -107 -93 -239 -43 -349 30 -66 39 -45 46 107 5 111 14 163 39 213 55 112 31 129 -42 29z"
       id="path15" />
    <path
       d="M5828 2661 c-346 -270 -644 -384 -1088 -415 -74 -5 -65 -32 15 -44 415 -62 872 116 1158 452 50 58 61 93 30 90 -6 0 -58 -38 -115 -83z"
       id="path16" />
    <path
       d="M730 2495 c-20 -20 -9 -167 18 -248 89 -256 384 -508 658 -561 90 -18 52 20 -90 89 -252 122 -434 328 -515 580 -44 135 -54 157 -71 140z"
       id="path17" />
  </g>
  <path
     style="fill:#007105;fill-opacity:1;stroke-width:0.604201"
     id="path27-8"
     sodipodi:type="arc"
     sodipodi:cx="492.54196"
     sodipodi:cy="-316.6105"
     sodipodi:rx="16.171209"
     sodipodi:ry="5.5854635"
     sodipodi:start="0"
     sodipodi:end="6.2831282"
     sodipodi:arc-type="slice"
     d="m 508.71317,-316.6105 a 16.171209,5.5854635 0 0 1 -16.17098,5.58546 16.171209,5.5854635 0 0 1 -16.17144,-5.5853 16.171209,5.5854635 0 0 1 16.17052,-5.58563 16.171209,5.5854635 0 0 1 16.1719,5.58515 l -16.17121,3.2e-4 z"
     transform="matrix(0.65278599,0.75754237,-0.77202132,0.63559664,0,0)" />
  <path
     style="fill:#ffffff;fill-opacity:1;stroke-width:0.909091"
     d="m 118.40538,616.79406 c -10.21381,-2.56811 -20.655203,-11.39251 -26.325488,-22.24861 -3.64495,-6.97847 -7.871305,-11.50934 -14.757875,-15.8212 -4.741168,-2.96856 -9.594744,-3.749 -9.594744,-1.5428 0,0.69979 1.648743,3.46115 3.663874,6.13636 2.01624,2.67667 3.549299,5.66759 3.409091,6.65095 -0.305454,2.14233 -5.143787,5.56363 -9.693301,6.85437 -1.808815,0.51318 -7.098564,1.61887 -11.754997,2.45709 -6.995125,1.25923 -9.512068,1.3449 -14.484953,0.49308 -6.615246,-1.13315 -9.59447,-2.89677 -12.811598,-7.58416 -5.774972,-8.41419 1.886273,-23.7822 18.818393,-37.74861 l 5.822849,-4.80296 2.833503,2.12645 c 3.439176,2.58097 12.46202,7.1165 17.235379,8.66372 4.0989,1.32861 5.972286,0.28136 4.613917,-2.57924 -0.458686,-0.96595 -5.743066,-5.82 -11.743066,-10.78679 C 41.613776,528.83148 29.8652,513.25966 23.32816,493.63636 18.056714,477.8122 18.394779,455.00539 24.133884,439.27987 l 2.625668,-7.1945 -1.705355,-3.34277 c -5.411028,-10.60649 -5.725205,-20.66997 -0.963016,-30.84655 3.005375,-6.42233 5.717669,-10.11079 14.706828,-19.99983 4.939332,-5.4338 6.529961,-7.97794 8.534776,-13.65098 4.658374,-13.18185 8.241079,-21.53585 11.98532,-27.94688 17.827821,-30.52544 47.393555,-50.74265 78.862845,-53.92686 9.51027,-0.96228 28.3738,0.43835 31.61239,2.34725 1.22681,0.72311 -4.14672,9.45515 -7.67931,12.47891 -2.54891,2.18177 -3.27214,3.39192 -2.89318,4.84104 0.66164,2.53013 -0.97668,7.36199 -3.7884,11.17307 -1.23785,1.6778 -2.25063,3.98316 -2.25063,5.123 0,4.51804 -7.32031,20.64798 -14.19074,31.26858 -9.21158,14.23964 -15.994,32.90682 -16.16383,44.48756 -0.0806,5.49898 0.16386,6.81818 1.26366,6.81818 0.83045,0 1.83776,-1.59954 2.57624,-4.09091 3.9798,-13.42652 5.17515,-16.68921 8.82624,-24.09091 3.60495,-7.30816 6.35138,-11.37188 15.25704,-22.57485 1.49708,-1.88327 3.12522,-5.61718 3.90288,-8.95076 1.88048,-8.06088 7.20369,-18.7785 9.9479,-20.02884 2.2866,-1.04185 3.02589,-3.93348 1.1643,-4.55401 -1.92698,-0.64233 0.15768,-5.55011 3.84911,-9.06167 2.51872,-2.396 3.5672,-4.1534 3.5672,-5.9791 0,-3.56051 4.83173,-10.93254 7.62479,-11.63355 2.78234,-0.69833 4.32752,-0.21202 14.8625,4.6776 4.63199,2.14986 8.4218,4.37272 8.4218,4.93969 0,0.56697 -1.77819,3.35207 -3.95154,6.18909 -9.24657,12.07022 -7.5057,13.48311 4.68475,3.80213 3.15326,-2.50415 6.48164,-4.553 7.39641,-4.553 2.50433,0 11.08436,6.06121 23.05632,16.28773 10.10409,8.63096 14.30713,11.12934 13.00223,7.72882 -0.3035,-0.79089 -0.55181,-1.7948 -0.55181,-2.2309 0,-0.43611 -6.34091,-7.40212 -14.09091,-15.48003 -7.92845,-8.26392 -14.09091,-15.43103 -14.09091,-16.38814 0,-1.11993 -0.85404,-1.88376 -2.5,-2.23593 -7.39544,-1.58238 -28.13783,-11.37141 -29.03181,-13.7011 -0.25972,-0.6768 2.237,-4.39441 5.56468,-8.28583 C 203.43783,259.16484 215,244.02705 215,242.64825 c 0,-2.12957 -2.22348,-1.46684 -6.91473,2.06099 -11.01265,8.28155 -17.38183,14.65624 -29.44891,29.47441 -1.29212,1.5867 -1.81651,1.6052 -10,0.35265 -18.83962,-2.88356 -38.52422,-1.22678 -56.20885,4.73091 -5.16486,1.73996 -9.57618,2.97805 -9.80292,2.75132 -0.99419,-0.99419 9.8233,-15.39778 16.64729,-22.16605 14.93466,-14.81268 34.46387,-25.66681 54.64911,-30.37339 7.72339,-1.80086 10.16992,-2.93565 10.16992,-4.71721 0,-1.56575 -19.66042,-0.12491 -27.61015,2.02346 -3.93559,1.06357 -7.35945,1.72991 -7.6086,1.48076 -0.57048,-0.57048 6.08288,-11.19768 11.17019,-17.84178 6.32107,-8.25541 19.75058,-20.35246 30.65869,-27.61674 11.31562,-7.53568 21.31606,-12.50203 34.15513,-16.96193 11.59584,-4.02802 12.42887,-6.17751 2.75895,-7.11901 l -5.59575,-0.54482 9.09428,-8.72312 c 14.773,-14.17009 32.61285,-25.00653 51.48247,-31.27191 14.97023,-4.97065 21.3116,-6.00299 40.13115,-6.5331 21.24861,-0.59854 23.13377,-1.56254 11.94687,-6.10924 l -5.14199,-2.08986 5.23392,-3.659479 c 9.81735,-6.864134 33.84578,-17.522384 39.50326,-17.522384 1.54568,0 1.76194,0.413188 1.30855,2.5 -1.32295,6.089043 -1.64715,16.334663 -0.63465,20.056643 0.88907,3.26824 1.39828,3.87305 3.06161,3.63636 2.72486,-0.38775 4.68487,-4.76736 7.04346,-15.738457 2.44201,-11.359124 5.04822,-17.849469 10.40015,-25.89992 7.42,-11.161271 18.62045,-19.563794 32.27882,-24.215416 6.73091,-2.29234 28.57089,-2.286639 40.45455,0.01056 13.46826,2.603516 30.44657,11.7471 42.14767,22.698427 1.68122,1.573491 6.51046,6.849531 10.73165,11.724531 4.22118,4.875 8.2661,8.863636 8.98869,8.863636 1.91922,0 1.67493,-5.393999 -0.50392,-11.126612 -0.99975,-2.630364 -1.81793,-5.089297 -1.81818,-5.464297 -0.002,-2.499493 20.50193,0.878306 37.2987,6.144649 5.57496,1.747937 11.68467,3.425662 13.57712,3.728277 7.11422,1.137611 4.98977,-2.926768 -5.08245,-9.723432 -3.74635,-2.528007 -6.65968,-5.078782 -6.47409,-5.66839 0.54972,-1.746361 10.69526,-6.759279 16.77619,-8.289118 18.63065,-4.687103 39.97907,3.480681 51.44434,19.682311 3.59022,5.073363 8.3371,14.241182 7.69803,14.867498 -1.10911,1.086979 -20.57547,8.108157 -25.14002,9.067565 -3.19595,0.671745 -6.25493,1.665478 -6.79775,2.208288 -1.39675,1.39676 0.27217,3.82289 3.6919,5.36692 2.04429,0.92302 3.56296,2.89865 5.82921,7.58322 5.24334,10.83851 10.15879,14.22814 36.03094,24.84638 29.0218,11.91091 41.81556,24.81136 42.71457,43.07077 0.59234,12.03109 -3.09307,14.80998 -11.16632,8.41966 -10.0167,-7.92863 -16.59524,-9.61743 -37.67355,-9.67131 -16.98773,-0.0434 -24.68728,0.82227 -45,5.05953 -31.52504,6.57616 -59.52228,16.37542 -97.29425,34.05376 -10.29899,4.82022 -19.00315,8.48633 -19.34257,8.1469 -0.33943,-0.33941 1.32182,-4.22398 3.69166,-8.63235 3.72206,-6.92379 5.46446,-12.76113 3.8091,-12.76113 -3.25885,0 -14.51344,11.06159 -17.79076,17.48567 -2.53212,4.96337 -2.48468,9.6881 0.11843,11.79599 2.9982,2.42778 12.14397,2.17152 20.28446,-0.56836 3.58816,-1.20768 12.71933,-5.07165 20.29149,-8.58661 16.98813,-7.88581 44.99403,-19.02823 57.14153,-22.73434 12.13791,-3.70318 29.471,-7.89583 42.27272,-10.22524 13.79882,-2.51084 48.24808,-3.42993 54.54546,-1.45524 l 4.09091,1.28279 -5.45455,0.69134 c -8.6524,1.09667 -11.65901,1.83647 -12.03387,2.96108 -0.59093,1.77278 2.61675,2.81509 16.21495,5.26899 15.19298,2.74169 21.76191,5.3488 24.45167,9.70453 2.52886,4.09517 1.85166,7.78703 -3.77988,20.60658 -4.17453,9.50284 -4.59446,11.11899 -5.31476,20.45455 -0.91833,11.90216 -3.20694,19.93383 -8.71687,30.591 -5.2978,10.24688 -11.17406,17.88999 -21.14263,27.49972 -12.78591,12.32565 -26.86121,21.05589 -44.22406,27.43009 -13.79504,5.06438 -14.09091,5.20143 -14.09091,6.5268 0,4.86097 23.34721,0.11818 39.48373,-8.02078 6.57098,-3.31429 10.78711,-6.01063 19.36857,-12.38673 3.76706,-2.79897 7.14369,-4.67222 7.89928,-4.38227 1.55665,0.59734 5.5328,12.6663 6.85284,20.80071 2.2445,13.8312 0.40755,32.42735 -4.43516,44.89889 -6.71326,17.28879 -23.25585,35.4816 -39.62381,43.57649 -10.04501,4.96783 -16.52617,6.69104 -27.72727,7.37212 -9.99341,0.60765 -18.4032,-0.42823 -34.8222,-4.28921 -16.62337,-3.90904 -22.22874,-3.00259 -12.89841,2.08582 6.90093,3.76351 18.50085,7.73053 28.85685,9.86868 11.90376,2.4577 28.38905,2.06119 38.75263,-0.93209 3.68888,-1.06544 6.86563,-1.77859 7.05946,-1.58476 0.19382,0.19383 -0.64774,5.01656 -1.87015,10.71719 -1.2224,5.70063 -2.88118,15.27387 -3.68617,21.27387 -3.30225,24.61323 -8.95129,36.36866 -24.68678,51.37217 -31.32209,29.86502 -74.77028,47.92713 -121.53882,50.52563 l -11.19388,0.62193 -3.28408,-4.44168 c -4.11949,-5.57155 -10.76879,-11.96162 -16.33132,-15.69458 -2.35358,-1.57947 -11.74408,-6.93918 -20.8678,-11.91047 -15.81062,-8.61484 -28.50866,-13.69728 -43.30888,-17.33454 -2.15074,-0.52856 -4.05358,-1.45095 -4.22851,-2.04974 -0.17494,-0.59879 -1.35933,-8.12033 -2.63198,-16.71453 -1.37239,-9.26775 -3.40712,-18.88529 -5.00062,-23.63637 -1.47769,-4.4058 -2.55659,-8.14664 -2.39755,-8.31299 0.15904,-0.16634 4.60874,0.13229 9.88822,0.66364 9.33207,0.93922 14.65624,0.63626 15.59801,-0.88755 0.72773,-1.17751 -1.99615,-2.24635 -13.56813,-5.3241 -13.87788,-3.69102 -18.16468,-5.94252 -23.74609,-12.47185 -2.49841,-2.92273 -7.73404,-8.65087 -11.63473,-12.72919 l -7.09215,-7.41514 2.87252,-4.66843 c 2.28622,-3.7156 4.01148,-5.2427 8.4529,-7.48201 12.53,-6.3175 24.82865,-17.26778 29.64401,-26.39398 3.98656,-7.5554 0.98324,-6.6633 -9.4751,2.81447 -6.75969,6.1259 -18.41388,14.31062 -19.2237,13.5008 -0.3052,-0.3052 -0.77609,-4.88834 -1.0464,-10.18475 -0.43522,-8.52756 -1.21772,-11.61411 -2.59519,-10.23664 -0.23568,0.23569 -2.00424,4.99942 -3.93013,10.58609 -4.55458,13.21199 -10.55397,23.11372 -19.61128,32.36761 -16.10666,16.45622 -34.09677,24.45252 -53.72453,23.87966 l -8.96448,-0.26164 -1.97998,-9.09091 c -3.04048,-13.96011 -6.74546,-22.22077 -15.69782,-35 -5.31381,-7.58531 -17.03424,-19.33188 -24.77545,-24.83071 -7.95941,-5.65381 -20.53164,-11.48306 -26.21882,-12.15662 -7.92841,-0.93901 -5.95494,1.34047 10.41718,12.03252 11.60248,7.57716 23.43882,18.21978 30.23378,27.18462 5.33397,7.03732 12.31226,21.62428 14.80721,30.95201 3.76154,14.06311 3.2159,46.39491 -0.98642,58.44969 l -0.94056,2.69808 -11.63577,-0.47193 c -8.74764,-0.35479 -11.81005,-0.18995 -12.33789,0.66412 -0.95903,1.55173 0.50365,2.33761 9.50826,5.10869 15.56838,4.79101 26.35396,11.84199 32.87803,21.49373 2.11686,3.13169 7.21334,9.20238 11.32551,13.4904 4.11217,4.28803 8.74007,9.78858 10.28421,12.22344 5.07977,8.00996 3.14211,14.44914 -5.03089,16.71846 -8.50337,2.36106 -12.94562,0.6001 -19.63469,-7.78341 -7.91298,-9.91747 -18.48008,-17.45626 -20.97344,-14.9629 -1.05474,1.05475 1.16636,4.52796 8.47822,13.25769 10.66436,12.73231 10.83655,20.71878 0.56422,26.16902 -5.77366,3.06337 -16.58122,2.85257 -23.35704,-0.45556 -7.05676,-3.44529 -11.7636,-7.75585 -18.19163,-16.66004 -5.10656,-7.07368 -9.79888,-11.15751 -11.20469,-9.75171 -1.30716,1.30718 -0.3527,5.01983 3.24981,12.64094 3.00298,6.3528 3.89941,9.38996 4.19287,14.20569 0.36322,5.96041 0.29014,6.20844 -2.71445,9.21303 -7.79504,7.79504 -27.91372,5.83385 -37.39262,-3.64506 -3.25436,-3.25436 -4.09471,-4.89003 -6.24105,-12.14782 -1.01583,-3.43497 -1.57423,-4.09091 -3.48254,-4.09091 -2.05853,0 -2.53844,0.7953 -5.09197,8.43834 -3.3181,9.93148 -6.47248,14.24089 -13.03718,17.81099 -5.32356,2.89514 -13.3598,3.87523 -19.37456,2.36291 z m 11.14007,-100.21174 c 0,-1.38513 -1.48205,-2.35718 -13.18181,-8.64577 C 100.91465,499.63277 90.373366,490.5703 82.282244,478.63636 77.470162,471.53882 75.240616,466.90056 70.920566,455 c -4.063297,-11.19328 -6.143547,-13.48776 -7.186771,-7.9269 -0.771319,4.11147 0.975021,16.17135 3.204625,22.13049 7.336007,19.60724 30.957545,40.4511 53.06158,46.82202 6.6209,1.9083 9.54545,2.07887 9.54545,0.55671 z M 455,470.86583 c 17.48148,-2.833 36.88322,-11.01096 51.28601,-21.61739 12.38939,-9.12374 25.35914,-23.40472 23.69749,-26.09332 -1.01975,-1.64999 -2.50381,-0.88737 -11.24692,5.77958 -31.98248,24.38786 -56.01413,33.92221 -94.42199,37.46112 -6.52788,0.60147 -8.53236,1.56823 -6.81415,3.28643 2.61994,2.61995 24.39523,3.30723 37.49956,1.18358 z M 63.595425,395.68182 c 0.246536,-1.125 0.843949,-7.00584 1.327584,-13.06854 0.656429,-8.22876 1.468996,-12.47423 3.205437,-16.74763 3.732003,-9.18452 2.797399,-11.65378 -2.306143,-6.09292 -8.229812,8.96726 -10.763434,24.23166 -5.768994,34.75666 1.750286,3.68846 2.904099,4.06385 3.542116,1.15243 z m 310.886495,-8.31316 c 22.29225,-24.07011 22.35379,-74.5619 0.12667,-103.94588 -4.1409,-5.47423 -10.96628,-12.05914 -12.4995,-12.05914 -2.02641,0 -0.23129,4.99859 4.42523,12.32223 15.80884,24.86374 20.27677,52.79388 12.56623,78.55466 -1.168,3.90228 -4.20481,11.57357 -6.74846,17.04732 -2.54365,5.47374 -4.62482,10.43006 -4.62482,11.01402 0,2.2773 3.22669,0.87611 6.75465,-2.93321 z m 224.41498,-16.8645 c 8.4703,-2.16633 15.99235,-5.6402 19.68786,-9.09232 5.61861,-5.24857 2.836,-5.96899 -7.03538,-1.82147 -8.10866,3.4069 -20.62608,6.25517 -27.91302,6.35144 -11.67222,0.15421 -16.26292,2.35556 -10.30654,4.94225 4.47045,1.94139 17.23236,1.75177 25.56708,-0.3799 z M 477.5,365.3361 c 3.29038,-0.88178 2.36563,-2.91076 -1.81818,-3.9892 -19.97514,-5.1489 -22.86965,-6.17333 -36.34712,-12.86399 -4.86592,-2.4156 -9.46819,-4.392 -10.22727,-4.392 -2.59901,0 -1.38129,3.49372 2.32281,6.66428 10.35728,8.86546 36.51023,17.14276 46.06976,14.58091 z m -30.34091,-32.87951 c 0.79727,-1.29002 -0.65727,-2.56224 -8.52273,-7.45444 -4.25,-2.64343 -11.81818,-7.56089 -16.81818,-10.92768 -11.95254,-8.04833 -13.06813,-8.61035 -13.71985,-6.91198 -0.77994,2.03247 0.95629,4.55275 6.20947,9.01356 12.49389,10.60934 30.76123,19.66233 32.85129,16.28054 z m 78.03465,-4.27477 c 2.0906,-2.96597 3.50098,-4.09091 5.1289,-4.09091 1.23495,0 7.19029,1.60873 13.23409,3.57495 6.0438,1.96623 13.13645,3.85985 15.76145,4.20803 4.28901,0.56891 4.77257,0.45996 4.7711,-1.07495 -0.002,-2.29687 -5.47519,-5.59721 -17.84181,-10.759 -14.50207,-6.05313 -13.886,-5.35795 -11.43136,-12.89911 2.4471,-7.51803 2.44974,-7.59538 0.2592,-7.59538 -0.98117,0 -3.75776,2.28453 -6.35319,5.22728 L 524.1118,310 l -6.79298,-3.55581 c -3.73614,-1.95569 -8.64377,-5.22842 -10.90585,-7.27273 l -4.11286,-3.71691 1.08194,-3.85891 c 0.84606,-3.01756 0.83928,-4.10159 -0.0311,-4.97195 -0.87799,-0.87799 -1.59708,-0.59102 -3.40515,1.35891 -1.26066,1.35957 -2.91609,2.47195 -3.67873,2.47195 -3.47242,0 -13.08526,-7.4077 -13.08526,-10.08356 0,-0.97901 1.43182,-4.62323 3.18182,-8.09826 5.77511,-11.46785 3.36007,-13.25446 -6.14427,-4.54546 -3.27397,3 -6.77927,5.45455 -7.78955,5.45455 -1.10342,0 -5.91331,-3.94091 -12.04581,-9.86953 -10.00554,-9.6729 -10.19475,-9.93099 -9.4972,-12.95454 1.04677,-4.53727 1.05611,-7.65593 0.0223,-7.44497 -0.5,0.10203 -2.26903,0.71455 -3.93118,1.36117 -2.94996,1.1476 -3.10184,1.0879 -6.36364,-2.50171 -1.83784,-2.02256 -6.09864,-7.23735 -9.46843,-11.58844 -5.96665,-7.70416 -8.87311,-9.72158 -8.87311,-6.15895 0,2.34927 4.97286,11.7538 11.41082,21.5798 3.84209,5.86404 5.21022,8.76778 5.06924,10.75899 -0.1062,1.5 -0.27811,3.94331 -0.38203,5.42958 -0.22802,3.26131 2.22088,4.18723 4.82985,1.82614 1.60352,-1.45116 1.84898,-1.43512 4.25479,0.27796 4.68402,3.33532 18.37727,18.20895 18.98197,20.61825 0.40152,1.5998 -0.33025,4.92081 -2.23861,10.15939 -5.08462,13.95772 -3.07791,17.28553 4.23239,7.0187 7.90459,-11.10145 7.54239,-10.81093 11.16569,-8.95613 1.72174,0.88137 4.66452,2.8081 6.53952,4.2816 2.90292,2.28132 3.40909,3.20768 3.40909,6.23908 0,3.89472 1.4074,4.53658 5.67934,2.59015 1.86437,-0.84947 3.42096,-0.16167 12.54278,5.54217 5.72784,3.58159 10.88778,6.98392 11.46656,7.56072 0.78052,0.77789 0.80024,2.2453 0.0764,5.68171 -1.78321,8.46531 1.16448,10.24341 5.88324,3.54886 z M 339.15463,255.806 c 0.3593,-0.58137 -2.14676,-3.67674 -5.88788,-7.27244 -10.78311,-10.36395 -28.11635,-17.61724 -46.53899,-19.47478 -6.23347,-0.62851 -18.79117,0.82281 -20.31636,2.348 -1.77514,1.77514 1.1431,2.65162 13.32571,4.00233 21.89443,2.42747 26.62685,4.05714 50.26289,17.30869 7.96921,4.46794 8.24451,4.5608 9.15463,3.0882 z m 0.39082,-22.62156 c 0,-2.77093 -5.97851,-8.78586 -12.64917,-12.72619 -7.72935,-4.56572 -17.88933,-7.95543 -19.94959,-6.65586 -2.62886,1.65825 -1.61846,3.13083 3.60685,5.25671 5.60316,2.27962 15.11272,7.70705 22.17373,12.65532 5.2435,3.67459 6.81818,4.01409 6.81818,1.47002 z m -93.82171,-14.82962 c 12.38325,-5.08944 20.28454,-13.55428 20.90224,-22.39308 0.43585,-6.23658 -1.93114,-10.27429 -8.0248,-13.68901 -3.57899,-2.00558 -5.12433,-2.27131 -13.14663,-2.26067 -7.9011,0.0105 -9.74531,0.32261 -14.09091,2.38481 -10.20628,4.84339 -18.96586,13.56831 -20.92433,20.84153 -1.85419,6.88595 1.67887,13.37912 9.10614,16.73555 4.9975,2.2584 18.82459,1.40319 26.17829,-1.61913 z m 135.15198,-21.02419 5.48792,-5.8512 3.63636,3.23932 c 8.75553,7.79958 14.09091,10.44947 14.09091,6.99847 0,-0.80554 -2.90139,-5.1029 -6.44754,-9.5497 l -6.44753,-8.08509 2.39495,-4.08667 c 1.31722,-2.24767 2.89782,-4.08667 3.51246,-4.08667 0.61462,0 3.9232,2.04546 7.35237,4.54546 9.79719,7.14252 12.71705,5.7529 5.77165,-2.74686 -7.64172,-9.35192 -7.56319,-9.0754 -4.41163,-15.53524 3.92301,-8.04112 2.31217,-9.56961 -4.20561,-3.99063 -2.04448,1.75 -4.37844,3.18182 -5.18657,3.18182 -0.80812,0 -4.10778,-2.45455 -7.33255,-5.45455 -5.85966,-5.45123 -9.5524,-6.94706 -9.53806,-3.86364 0.004,0.875 2.60772,5.10057 5.78589,9.39015 l 5.77849,7.79924 -2.41758,3.5598 c -1.32967,1.9579 -3.03835,3.67935 -3.79707,3.82547 -0.75871,0.14612 -3.1949,-1.17739 -5.41375,-2.94113 -3.84461,-3.05602 -6.23388,-3.90363 -7.48288,-2.65463 -0.67749,0.67749 1.34624,4.79463 4.93708,10.04419 l 2.59643,3.79581 -3.17881,6.63309 c -3.2136,6.70562 -4.09811,11.68438 -2.07584,11.68438 0.60664,0 3.57254,-2.63304 6.59091,-5.85119 z m -78.82093,-24.60842 c 18.85728,-4.44606 33.17207,-19.71796 30.72228,-32.77645 -0.79813,-4.25444 -6.24906,-10.19453 -11.40643,-12.43003 -5.15007,-2.23234 -16.05978,-3.03157 -23.18882,-1.69879 -11.21126,2.09597 -27.31521,11.96681 -32.27005,19.7798 -2.90942,4.58769 -4.16469,10.39501 -3.19813,14.79573 1.23863,5.63947 7.61771,10.80953 15.68133,12.7093 5.42239,1.2775 17.45001,1.08455 23.65982,-0.37956 z m 175.76287,-8.05071 c 8.37765,-2.6454 13.97381,-6.23517 21.27719,-13.64872 6.85091,-6.95424 13.17788,-16.5549 13.17788,-19.99635 0,-1.58869 1.0623,-1.92619 10.45454,-3.32149 9.57418,-1.42233 13.14192,-4.81066 13.16842,-12.5062 0.0153,-4.4492 -2.30985,-6.3875 -4.01947,-3.3507 -0.53192,0.94485 -2.06066,2.85875 -3.3972,4.25311 -2.13849,2.23103 -3.09477,2.53521 -7.96998,2.53521 -9.67546,0 -45.34289,-8.76789 -77.78177,-19.120588 -23.81275,-7.599714 -32.84987,-9.366819 -36.87794,-7.211059 -2.29861,1.230176 -2.2287,3.670402 0.19335,6.749546 1.87137,2.379071 1.90517,2.794481 0.82057,10.084731 -3.81864,25.66716 14.96588,49.76351 43.95926,56.38993 6.66165,1.52252 20.88927,1.07062 26.99515,-0.85742 z m 130.38543,-8.82943 c 0.87004,-2.74124 -1.24721,-7.08781 -4.19508,-8.61222 -6.93464,-3.58603 -14.93336,1.37034 -11.08297,6.86752 1.82421,2.60446 4.33255,3.50335 9.96824,3.57228 3.99628,0.0489 4.80229,-0.22855 5.30981,-1.82758 z m 35.05751,-3.82552 c 4.02992,-3.09409 4.36361,-9.16795 0.58055,-10.5674 -4.93428,-1.8253 -10.75435,3.97186 -9.401,9.36401 0.50956,2.03026 1.07906,2.36453 3.98626,2.33975 1.86547,-0.0159 4.04086,-0.52727 4.83419,-1.13636 z"
     id="path18"
     transform="scale(0.75)" />
  <path
     style="fill:#ffffff;fill-opacity:1;stroke-width:0.909091"
     d="m 326.23822,626.83505 c -15.47214,-4.05624 -29.49485,-14.29896 -38.19451,-27.89872 -2.68084,-4.19082 -3.08119,-5.35539 -2.05102,-5.96606 10.00511,-5.93086 11.70703,-7.33931 13.60424,-11.25842 4.54366,-9.38595 0.24897,-20.93177 -12.2156,-32.84035 -4.05047,-3.8698 -9.23961,-9.90354 -11.53141,-13.4083 -3.88472,-5.94076 -13.58021,-15.91775 -15.46864,-15.91775 -1.26204,0 -1.02009,-4.66418 0.96814,-18.66256 0.99218,-6.98559 1.81036,-14.59312 1.81818,-16.90562 0.008,-2.3125 0.25288,-5.39785 0.54458,-6.85634 l 0.53036,-2.6518 11.06055,-1.07569 c 19.98709,-1.94385 33.24957,-7.16768 47.9047,-18.86872 4.68245,-3.7386 9.02339,-6.79745 9.64652,-6.79745 1.75744,0 11.89273,9.74336 17.64045,16.95831 10.42887,13.09104 15.07035,24.65035 18.01287,44.85987 0.98281,6.75 1.67807,12.38349 1.54503,12.51886 -0.13303,0.13537 -2.3865,-0.21381 -5.00768,-0.77595 -3.62682,-0.77782 -5.01643,-0.764 -5.81448,0.0578 -2.84128,2.92589 17.10833,14.10353 33.49677,18.76803 11.45439,3.26016 38.62491,16.98649 52.38208,26.46301 8.55013,5.88969 16.25429,16.60083 16.25429,22.59843 0,8.81826 -14.12048,13.21389 -27.01136,8.4085 -4.19207,-1.5627 -6.76933,-3.4906 -12.68113,-9.48605 -6.6017,-6.69509 -12.99361,-11.27992 -15.72584,-11.27992 -2.10286,0 -0.63819,3.2558 5.37248,11.94247 9.73201,14.06475 11.2377,21.1972 5.61251,26.58648 -3.63913,3.48651 -9.8932,5.10742 -19.7063,5.10742 -14.17392,0 -25.22294,-4.8028 -32.84848,-14.2786 -5.66597,-7.04074 -10.15634,-11.36253 -11.16076,-10.74176 -1.39191,0.86025 -1.1449,5.91928 0.52887,10.83151 3.48942,10.24088 -0.0105,18.32936 -9.09919,21.0284 -5.87354,1.74425 -10.43598,1.63046 -18.40622,-0.45905 z"
     id="path19"
     transform="scale(0.75)" />
  <path
     style="fill:#ffffff;fill-opacity:1;stroke-width:0.909091"
     d="m 626.60368,610.50734 c -4.98397,-1.59868 -8.75828,-4.68927 -10.74922,-8.80202 -2.71011,-5.59832 -2.07024,-12.05305 2.22295,-22.42428 1.80742,-4.36629 3.28623,-8.54754 3.28623,-9.29169 0,-2.79639 -3.05661,-1.14911 -9.83029,5.29775 -8.21922,7.82266 -13.18027,10.91848 -20.58799,12.84745 -9.23632,2.40512 -16.14519,1.35094 -20.64645,-3.15032 -4.68756,-4.68757 -2.89941,-11.85063 5.38173,-21.55838 7.31788,-8.57857 25.60024,-22.9713 29.17926,-22.9713 0.72716,0 4.43116,-1.99108 8.23111,-4.42461 3.79994,-2.43354 10.39965,-6.30896 14.66602,-8.61206 4.26637,-2.30309 8.75981,-5.11883 9.98542,-6.25721 2.1091,-1.95896 2.1318,-2.08372 0.42416,-2.33056 -0.99233,-0.14345 -4.59889,0.32501 -8.01459,1.041 l -6.21035,1.30179 0.57858,-2.40463 c 0.31822,-1.32255 2.36878,-6.11145 4.55681,-10.64201 5.09108,-10.54165 12.45556,-18.53912 24.50825,-26.61476 4.97192,-3.33133 9.21895,-6.62759 9.43784,-7.32504 0.79803,-2.54269 -7.8793,-0.42988 -17.55504,4.27442 l -9.42199,4.58093 0.35606,-2.88455 c 0.19584,-1.58649 0.81941,-6.96206 1.38571,-11.94571 2.4923,-21.93285 9.65632,-34.31687 34.89137,-60.31458 15.01126,-15.46492 19.16051,-18.31425 39.43579,-27.0809 5.02508,-2.17274 3.11117,-3.56384 -4.65088,-3.38043 -4.94289,0.1168 -9.09801,0.92246 -14.6793,2.84624 -4.81375,1.65924 -7.78459,2.29097 -7.78412,1.65527 4e-4,-0.56543 0.65503,-4.09624 1.45473,-7.84624 1.08381,-5.08229 1.33337,-9.71134 0.98022,-18.18182 -0.55672,-13.35303 -2.24037,-22.32661 -6.6697,-35.54829 l -3.22917,-9.63921 5.68052,-7.63352 c 9.31546,-12.51819 18.1044,-33.11178 18.1602,-42.55167 0.008,-1.29502 0.38613,-2.94281 0.84104,-3.66175 1.18698,-1.87591 6.76111,2.08397 16.52643,11.74042 14.44139,14.28039 24.17571,32.81409 27.64792,52.64038 1.811,10.34083 1.67971,16.6682 -0.57864,27.88904 -2.75406,13.68383 -1.41191,15.39923 4.92205,6.29084 2.23918,-3.22002 4.10632,-4.98078 5.28169,-4.98078 2.73012,0 11.11029,8.43921 14.24219,14.34254 4.10244,7.73272 5.64312,14.18502 6.51065,27.2665 0.75952,11.45269 0.89485,12.00765 4.95232,20.30996 6.49755,13.29511 7.37083,17.65839 7.34875,36.71736 -0.018,15.55446 -0.14471,16.72327 -2.56229,23.63636 -5.79138,16.56059 -18.89856,38.80119 -27.73212,47.05658 l -4.63252,4.3293 -5.02706,-0.59083 c -6.9152,-0.81275 -6.72674,1.1075 0.65477,6.67143 9.83406,7.4126 19.03594,17.34876 22.97309,24.80625 3.32908,6.30575 3.6003,7.36986 3.60872,14.15859 0.008,6.57649 -0.24574,7.67484 -2.43959,10.55388 -3.49253,4.58335 -8.08814,6.52131 -16.46802,6.94454 -6.48987,0.32777 -7.59162,0.11576 -12.84917,-2.47252 -4.29445,-2.11414 -6.69252,-4.07855 -9.47028,-7.75766 -3.47491,-4.60248 -6.7913,-6.88423 -8.10152,-5.57401 -0.31035,0.31036 -0.0697,3.98487 0.53475,8.16558 0.81291,5.62239 0.84173,8.80105 0.11068,12.20979 -2.60326,12.13862 -13.79091,20.18796 -27.93044,20.09555 -14.63461,-0.0957 -19.45656,-5.23057 -20.67735,-22.01936 -0.35504,-4.88259 -1.02342,-9.11099 -1.48529,-9.39644 -1.52481,-0.94239 -3.53192,1.65732 -7.17886,9.29841 -4.30935,9.02897 -10.30707,15.43314 -17.85631,19.0664 -4.50949,2.1703 -6.58293,2.57231 -14.36132,2.78446 -5,0.13636 -10.21017,-0.11107 -11.57814,-0.54987 z"
     id="path20"
     transform="scale(0.75)" />
  <path
     style="fill:#ffffff;fill-opacity:1;stroke-width:0.909091"
     d="m 446.76562,154.79355 c -20.23095,-7.08266 -30.85653,-21.67064 -30.85653,-42.36329 0,-8.09894 1.58701,-10.57379 6.22282,-9.70411 5.46976,1.02613 17.79223,5.09528 19.03786,6.28672 0.64337,0.61538 0.90642,1.80514 0.58455,2.64391 -0.46294,1.2064 -1.79477,1.52504 -6.37431,1.52504 h -5.7891 l 0.4941,2.95454 c 2.07162,12.38741 5.50535,18.09221 13.1967,21.92497 6.11503,3.04725 16.36793,3.33789 22.32562,0.63287 4.99462,-2.26776 10.72905,-8.28094 12.62073,-13.23422 0.83588,-2.18872 2.06708,-4.1895 2.73601,-4.44619 1.73542,-0.66595 19.70175,3.82015 21.17576,5.28746 1.03441,1.02972 0.77219,2.18594 -1.6438,7.2482 -4.02836,8.44066 -10.89564,15.19608 -19.69633,19.37551 -6.66756,3.16641 -7.63946,3.36858 -17.56526,3.65379 -9.11097,0.26179 -11.29935,0.0246 -16.46882,-1.7852 z"
     id="path21"
     transform="scale(0.75)" />
  <path
     style="fill:#ffffff;fill-opacity:1;stroke-width:0.233899"
     d="m 661.23386,130.72744 c -0.25729,-0.0546 -1.0467,-0.21318 -1.75425,-0.35252 -1.41922,-0.27949 -16.14315,-5.06744 -16.44493,-5.34759 -0.1039,-0.0965 0.88202,-1.16358 2.19095,-2.37139 5.5309,-5.10362 7.69904,-9.27042 7.77657,-14.94522 0.0167,-1.22213 -0.11487,-3.3007 -0.29237,-4.61904 -0.49897,-3.706006 0.17277,-4.444378 2.4832,-2.72952 1.39545,1.03573 2.23042,1.94864 4.32554,4.72927 4.16383,5.52621 5.32383,9.53337 5.41605,18.70942 0.0445,4.42807 -0.12581,5.42679 -1.07618,6.31088 -0.53317,0.49598 -1.79409,0.79179 -2.62458,0.61571 z"
     id="path24"
     transform="scale(0.75)" />
  <path
     style="fill:#ffffff;fill-opacity:1;stroke-width:0.38825"
     d="m 284.19902,166.86421 c -6.04984,-0.83666 -10.97568,-3.49161 -12.68139,-6.83507 -1.23061,-2.41221 -0.8782,-6.30026 0.86803,-9.57652 2.54137,-4.76811 9.43689,-10.62166 15.98647,-13.5708 7.27156,-3.27424 13.69342,-4.49572 21.98637,-4.18198 7.29373,0.27595 8.23496,0.56547 10.99407,3.38183 4.60396,4.69949 4.42085,10.25783 -0.54164,16.44121 -7.83166,9.75843 -23.98815,16.08713 -36.61191,14.34133 z"
     id="path25"
     transform="scale(0.75)" />
  <path
     style="fill:#ffffff;fill-opacity:1;stroke-width:0.467531"
     d="m 224.45199,213.62379 c -2.64106,-0.84739 -5.17334,-2.44989 -6.20991,-3.92981 -3.35226,-4.78601 5.1008,-15.17915 16.22253,-19.94581 10.68282,-4.57854 21.08085,-3.62668 24.09699,2.2059 3.29117,6.36442 -6.75421,16.84503 -20.12064,20.9924 -4.36282,1.3537 -10.89514,1.66999 -13.98897,0.67732 z"
     id="path26"
     transform="scale(0.75)" />
  <path
     style="fill:#007105;fill-opacity:1;stroke-width:0.604201"
     id="path27"
     sodipodi:type="arc"
     sodipodi:cx="440.66168"
     sodipodi:cy="398.75891"
     sodipodi:rx="16.171209"
     sodipodi:ry="5.5854635"
     sodipodi:start="0"
     sodipodi:end="6.2831282"
     sodipodi:arc-type="slice"
     d="m 456.83289,398.75891 a 16.171209,5.5854635 0 0 1 -16.17098,5.58546 16.171209,5.5854635 0 0 1 -16.17144,-5.5853 16.171209,5.5854635 0 0 1 16.17052,-5.58562 16.171209,5.5854635 0 0 1 16.1719,5.58514 l -16.17121,3.2e-4 z"
     transform="matrix(0.87832032,-0.4780726,0.45821309,0.88884237,0,0)" />
</svg>
