<?xml version="1.0" encoding="UTF-8" standalone="no"?>
<svg
   version="1.0"
   width="600.000000pt"
   height="448.000000pt"
   viewBox="0 0 600.000000 448.000000"
   preserveAspectRatio="xMidYMid meet"
   id="svg6"
   sodipodi:docname="KPip1bI01.svg"
   inkscape:version="1.4.3 (0d15f75, 2025-12-25)"
   xmlns:inkscape="http://www.inkscape.org/namespaces/inkscape"
   xmlns:sodipodi="http://sodipodi.sourceforge.net/DTD/sodipodi-0.dtd"
   xmlns="http://www.w3.org/2000/svg"
   xmlns:svg="http://www.w3.org/2000/svg">
  <defs
     id="defs6" />
  <sodipodi:namedview
     id="namedview6"
     pagecolor="#505050"
     bordercolor="#ffffff"
     borderopacity="1"
     inkscape:showpageshadow="0"
     inkscape:pageopacity="0"
     inkscape:pagecheckerboard="1"
     inkscape:deskcolor="#505050"
     inkscape:document-units="pt"
     inkscape:zoom="1.1"
     inkscape:cx="400"
     inkscape:cy="298.63636"
     inkscape:window-width="1920"
     inkscape:window-height="1022"
     inkscape:window-x="0"
     inkscape:window-y="30"
     inkscape:window-maximized="1"
     inkscape:current-layer="svg6" />
  <g
     transform="translate(0.000000,448.000000) scale(0.050000,-0.050000)"
     fill="#000000"
     stroke="none"
     id="g6">
    <path
       d="M6594 8805 c-17 -19 -40 -59 -51 -88 -35 -92 -203 -1026 -203 -1131 0 -57 6 -55 -266 -115 l-234 -53 -385 386 c-399 400 -741 715 -845 779 -160 98 -240 6 -221 -253 14 -199 124 -1182 143 -1285 l13 -66 -208 -96 -207 -97 -160 100 c-696 438 -1105 658 -1204 650 -170 -14 -162 -71 126 -881 105 -295 188 -543 185 -552 -4 -9 -79 -79 -167 -157 -88 -77 -187 -166 -219 -196 -69 -65 -38 -73 -501 131 -575 253 -613 142 -221 -639 l92 -184 -116 -174 c-63 -96 -143 -226 -175 -289 -83 -158 -161 -163 -316 -18 -445 413 -600 425 -551 41 9 -70 21 -173 27 -228 l11 -100 -101 -76 c-549 -411 -749 -1432 -434 -2211 47 -118 48 -123 12 -155 -79 -71 -138 -229 -138 -367 2 -383 314 -595 990 -671 349 -39 449 -68 727 -211 524 -268 944 -172 894 204 l-13 98 56 -13 c31 -7 105 -25 165 -40 281 -71 503 9 571 205 19 55 38 76 64 73 20 -2 149 -17 286 -34 138 -16 354 -36 482 -43 l232 -13 25 -72 c35 -94 185 -240 321 -312 61 -31 167 -115 236 -185 199 -201 386 -274 584 -227 112 27 218 128 223 211 5 117 11 119 128 39 340 -230 804 -50 692 269 l-21 61 120 0 c205 0 325 83 351 243 7 42 17 77 22 77 40 0 548 112 689 151 683 192 1366 564 1675 913 65 73 81 71 81 -11 0 -45 -16 -81 -52 -115 -29 -26 -73 -90 -99 -141 -38 -74 -61 -96 -113 -108 -421 -90 -676 -282 -676 -509 0 -263 243 -366 619 -262 174 49 170 50 141 -59 -112 -416 435 -557 750 -192 157 182 219 190 496 60 612 -286 1008 110 536 537 l-124 112 89 177 c112 223 171 414 186 606 l13 151 117 123 c174 183 161 288 -39 315 l-99 13 -13 94 c-7 52 -30 153 -51 223 l-39 129 68 111 c176 286 127 377 -169 316 l-143 -29 -98 121 -98 121 81 91 c628 713 562 1700 -160 2391 l-82 78 12 204 c53 861 -882 1332 -1443 726 l-113 -123 -194 61 -193 60 -48 138 c-284 818 -402 997 -550 837 -50 -54 -312 -539 -403 -747 l-56 -127 -102 15 c-55 9 -150 21 -211 27 l-109 12 -171 301 c-461 816 -613 999 -726 874z m139 -220 c482 -754 625 -1025 539 -1025 -103 0 -361 -198 -469 -360 -134 -201 -166 -313 -172 -603 l-5 -252 -104 -128 c-219 -270 -361 -643 -361 -947 0 -232 24 -240 76 -25 82 342 274 704 497 938 l111 116 -24 186 c-122 922 862 1300 1418 545 126 -172 161 -199 224 -179 45 14 46 36 6 98 -30 45 -29 50 11 71 56 30 512 31 670 2 308 -56 401 -41 308 52 -17 17 -7 50 34 126 402 739 1411 265 1230 -579 l-22 -105 160 -169 c308 -326 509 -706 535 -1014 l11 -138 -58 13 c-490 102 -2072 54 -3228 -99 -1295 -172 -1801 -302 -1600 -409 32 -17 179 1 645 78 1587 264 2791 351 3875 280 390 -25 375 -16 329 -202 -149 -610 -837 -1198 -1533 -1309 -42 -7 -76 -21 -76 -32 0 -34 334 -4 516 45 197 53 198 53 153 -84 -173 -529 -654 -1134 -1199 -1506 -529 -362 -1818 -762 -1976 -614 -73 69 -253 140 -436 171 -115 20 -197 47 -248 82 -42 28 -111 62 -155 75 -94 28 -100 39 -155 324 -52 271 -98 409 -214 643 l-92 185 171 167 c154 150 223 256 189 290 -6 6 -76 -43 -154 -109 -78 -66 -181 -140 -229 -166 l-87 -46 -67 51 c-153 116 -280 139 -158 28 216 -196 438 -690 523 -1167 48 -269 49 -271 177 -314 52 -17 138 -58 190 -91 62 -40 151 -71 258 -91 385 -73 599 -280 399 -385 -65 -34 -526 45 -628 108 -10 6 -24 -4 -31 -23 -10 -25 19 -65 107 -147 354 -332 103 -550 -318 -277 -323 210 -477 195 -364 -35 148 -303 -265 -318 -521 -19 -53 62 -137 129 -212 169 -253 135 -349 271 -298 424 25 75 23 80 -38 152 -550 645 -877 1642 -691 2105 94 232 188 321 188 177 0 -230 638 64 800 369 79 148 26 168 -77 28 -146 -198 -380 -355 -537 -361 l-94 -3 -67 220 c-185 605 -226 790 -177 790 32 0 522 -205 758 -318 183 -87 213 -72 90 44 -123 118 -787 434 -910 434 -135 0 -143 -98 -36 -480 41 -148 88 -320 105 -381 l31 -110 -81 -120 c-351 -513 -170 -1463 434 -2286 68 -92 120 -182 117 -200 -9 -45 -321 -42 -725 8 l-299 36 -123 125 c-124 126 -249 203 -406 250 -117 34 -120 57 -27 182 413 552 394 1411 -44 1970 -232 296 -635 531 -1037 606 -171 31 -169 26 -69 192 176 295 182 297 283 98 56 -110 56 -110 148 -110 248 2 643 293 643 473 0 40 -22 24 -139 -100 -150 -157 -342 -274 -462 -280 l-65 -3 -177 370 c-281 591 -339 729 -309 736 24 5 564 -222 960 -405 86 -40 162 -68 168 -62 25 25 -46 109 -138 163 -61 36 -96 70 -93 89 7 42 338 339 362 325 26 -16 148 -286 156 -345 41 -297 987 83 1158 466 54 121 33 115 -112 -33 -265 -270 -811 -520 -912 -419 -60 60 -653 1788 -605 1761 421 -238 1215 -712 1523 -909 176 -112 188 -54 23 107 -122 118 -124 108 37 182 151 71 170 64 170 -55 0 -106 29 -121 229 -121 277 0 587 114 766 281 115 107 81 120 -78 30 -263 -148 -458 -211 -660 -211 -146 0 -122 -75 -202 640 -112 1013 -117 1070 -99 1088 40 41 1328 -1210 1308 -1271 -16 -51 18 -46 85 13 55 49 55 51 17 80 -54 42 -27 60 143 98 203 45 230 43 215 -15 -8 -32 -2 -51 17 -59 50 -19 110 41 122 121 6 41 48 300 93 575 118 723 121 734 172 655z m1856 -540 c50 -129 130 -342 176 -473 92 -258 89 -255 264 -295 219 -50 150 -67 -278 -68 l-410 -1 -140 135 c-171 165 -175 110 31 521 261 522 230 506 357 181z m-7198 -3614 c272 -240 292 -263 281 -316 -12 -60 2 -60 73 1 46 40 44 87 -5 129 -240 206 553 27 906 -204 711 -466 865 -1589 295 -2164 l-131 -132 -250 -11 c-137 -6 -272 -20 -300 -30 l-50 -19 60 -12 c33 -6 164 -26 290 -43 546 -73 811 -176 921 -356 134 -219 -70 -334 -422 -238 -82 23 -189 47 -239 54 -49 7 -160 35 -246 62 -258 79 -307 57 -129 -60 579 -379 239 -652 -408 -327 -294 149 -393 177 -796 226 -428 52 -632 138 -750 318 -69 103 -65 266 7 368 l46 65 105 -99 c189 -179 367 -240 213 -73 -606 657 -599 1856 15 2457 120 118 129 114 163 -67 35 -185 175 -213 394 -77 92 56 72 66 -56 28 -127 -37 -217 -40 -227 -6 -12 41 -112 742 -111 781 0 52 20 37 351 -255z m9627 -649 c74 -93 76 -108 17 -148 -126 -85 -7 -81 420 17 30 6 45 1 45 -18 0 -36 -233 -393 -257 -393 -38 0 -119 82 -165 169 -84 159 -112 97 -29 -67 72 -142 201 -215 271 -152 47 43 65 13 102 -165 30 -146 27 -151 -108 -165 -74 -7 -105 -19 -110 -42 -8 -41 83 -57 321 -58 209 0 208 1 50 -151 -223 -214 -229 -219 -268 -187 -49 41 -106 178 -107 257 0 51 -6 63 -22 47 -106 -106 87 -453 214 -385 69 37 79 13 50 -127 -34 -167 -124 -395 -222 -561 -107 -184 -105 -194 59 -314 431 -313 203 -551 -300 -310 -318 153 -468 132 -657 -90 -267 -314 -606 -208 -442 138 115 244 71 263 -353 151 -293 -77 -447 -48 -447 85 0 130 130 224 470 337 l240 80 52 109 c28 59 82 133 118 164 l67 56 -4 205 -5 206 102 140 c214 293 368 587 479 917 89 266 306 398 419 255z"
       id="path1" />
    <path
       d="M10136 7160 c-187 -56 -295 -271 -227 -450 113 -297 531 -310 642 -21 105 277 -139 554 -415 471z"
       id="path2" />
    <path
       d="M7453 6971 c-303 -108 -333 -530 -48 -669 383 -185 736 282 438 580 -110 110 -245 140 -390 89z"
       id="path3" />
    <path
       d="M9840 5895 c-88 -60 -154 -184 -120 -225 38 -46 104 -36 194 30 190 140 118 326 -74 195z"
       id="path4" />
    <path
       d="M8755 5878 c-55 -32 -41 -97 36 -170 181 -171 386 -107 235 73 -82 98 -199 140 -271 97z"
       id="path5" />
    <path
       d="M762 3642 c-60 -60 -57 -72 98 -378 77 -152 140 -286 140 -298 0 -66 204 -32 329 53 138 95 236 307 156 336 -14 4 -25 -4 -25 -19 0 -54 -119 -214 -194 -263 -137 -89 -161 -87 -204 11 -21 47 -75 167 -120 266 -97 216 -110 209 229 122 151 -39 282 -66 292 -60 52 32 -39 89 -267 164 -337 111 -382 118 -434 66z"
       id="path6" />
  </g>
  <path
     style="fill:#ffffff;stroke-width:0.909091"
     d="m 162.27273,554.9132 c -7.95704,-1.35275 -15.86433,-4.21678 -30,-10.86603 -16.36762,-7.69912 -22.05238,-9.28377 -45.519711,-12.68877 -29.973205,-4.34896 -40.675444,-7.90428 -49.022212,-16.28531 -5.62863,-5.65173 -7.60659,-10.10902 -7.551032,-17.01609 0.04362,-5.42352 2.620704,-12.6725 5.29391,-14.89106 0.688435,-0.57136 3.3253,1.20816 8.075,5.4495 15.527204,13.8653 23.875633,14.90442 12.529085,1.55949 C 25.664758,454.40548 19.109808,397.61357 40.475815,355 c 5.795942,-11.55975 14.891863,-23.65077 21.701652,-28.84755 2.946794,-2.24879 3.141611,-2.28016 4.302361,-0.69274 0.668692,0.91449 1.701264,4.15107 2.294604,7.19241 0.812301,4.16368 1.804341,6.25957 4.015821,8.48424 2.607591,2.62315 3.500959,2.95455 7.964803,2.95455 4.032622,0 6.331763,-0.67477 11.615788,-3.40909 9.840396,-5.09211 9.076116,-7.48 -1.378963,-4.30834 -4.92098,1.49283 -12.874562,1.81128 -13.656071,0.54677 -0.789075,-1.27675 -7.929565,-52.08407 -7.395048,-52.61859 0.694053,-0.69405 7.063157,4.44607 22.882624,18.4672 17.125164,15.1784 18.815444,17.09048 18.077614,20.4498 -0.81584,3.71451 0.84246,4.00868 4.49912,0.79809 4.06981,-3.57334 4.16866,-6.35113 0.37959,-10.66663 l -2.85665,-3.25355 2.05417,-0.9166 c 2.90584,-1.29662 17.34209,1.3085 30.17409,5.44511 11.76262,3.79189 24.91897,9.69755 31.35631,14.07532 25.8683,17.59195 42.12873,49.49749 42.12873,82.66324 0,25.61302 -8.98948,47.18902 -26.97313,64.73921 l -4.3905,4.28468 -16.31557,0.97463 c -15.60182,0.93199 -24.13898,2.20112 -24.13898,3.58848 0,0.35412 3.375,1.14435 7.5,1.75604 40.31474,5.97826 50.0425,8.08096 61.16997,13.22217 10.9744,5.07048 18.60276,13.59393 18.60276,20.78556 0,6.65438 -9.54231,10.83565 -20.45455,8.96284 -8.44054,-1.44862 -27.20354,-5.72678 -38.63636,-8.80949 -6.25,-1.68522 -13.10227,-3.33808 -15.22727,-3.673 -3.39539,-0.53515 -3.86023,-0.40207 -3.83553,1.09814 0.0159,0.96741 1.88701,3.06224 4.31818,4.83456 11.51878,8.39719 14.40732,10.83785 17.59375,14.86579 3.80075,4.80451 5.13722,9.42921 3.57077,12.35616 -2.21866,4.14561 -10.29032,6.06952 -19.14717,4.56379 z M 84.593686,398.68045 c 10.708397,-5.27172 20.137174,-19.9496 15.679044,-24.40772 -1.726388,-1.72639 -2.424672,-1.3216 -3.92837,2.27726 -2.354982,5.63626 -8.493105,12.93874 -13.646867,16.23556 -8.268058,5.28901 -8.318794,5.25348 -15.814359,-11.07714 -7.053758,-15.36804 -8.369821,-19.43568 -6.288314,-19.43568 0.702152,0 7.827177,1.6179 15.83339,3.59534 8.006214,1.97744 16.314376,3.8764 18.462585,4.21991 3.729578,0.59639 3.891963,0.52755 3.598429,-1.52531 -0.198213,-1.38623 -1.599071,-2.88388 -3.943769,-4.21627 -5.396549,-3.06661 -31.052314,-11.2996 -36.87166,-11.83219 -4.829293,-0.44197 -5.164014,-0.33112 -7.545132,2.49867 -3.221663,3.82873 -2.886024,5.35688 4.389932,19.98712 3.108269,6.25 7.019925,14.43182 8.69257,18.18182 1.672644,3.75 3.463472,7.37816 3.979617,8.06258 1.558873,2.06711 10.745003,0.71373 17.402904,-2.56395 z"
     id="path7"
     transform="scale(0.75)" />
  <path
     style="fill:#ffffff;stroke-width:0.909091"
     d="m 377.42095,568.27937 c -5.92131,-2.4902 -6.29669,-2.772 -16.51186,-12.39544 -4,-3.7683 -10.94043,-9.06674 -15.42317,-11.77431 -16.93137,-10.22653 -20.0372,-15.02242 -18.26275,-28.20053 l 0.67326,-5 -6.11699,-7.72727 c -21.52069,-27.18597 -37.46292,-60.45408 -44.21749,-92.27273 -2.30983,-10.88088 -2.78743,-32.02035 -0.8729,-38.63636 1.76713,-6.10667 6.95068,-16.5204 9.69967,-19.48661 2.70219,-2.91571 4.02609,-2.13932 4.05191,2.37622 0.0248,4.33176 2.28469,5.56917 9.25971,5.07011 17.74907,-1.26994 46.9792,-24.1838 47.09788,-36.92062 0.0148,-1.58425 -0.35483,-1.99889 -1.41803,-1.59091 -0.79089,0.3035 -1.56503,0.55181 -1.72029,0.55181 -0.15527,0 -3.16628,3.42477 -6.69115,7.61061 -10.75964,12.77726 -23.83654,21.16261 -34.5127,22.13069 l -5.26845,0.47772 -6.20869,-20.79132 c -7.04306,-23.58545 -11.43346,-40.37148 -11.43346,-43.71415 0,-1.99134 0.2921,-2.20099 2.34776,-1.68504 3.4423,0.86396 26.48328,10.47412 42.65677,17.79171 14.00513,6.33654 17.72275,7.42364 17.72275,5.18246 0,-1.75055 -6.04021,-7.2353 -12.56554,-11.41003 -12.96828,-8.29674 -44.28964,-22.34451 -52.25399,-23.43614 -3.62689,-0.49713 -4.41075,-0.2816 -6.47178,1.77942 -4.03687,4.03689 -3.54097,7.7098 5.55888,41.17171 l 5.96265,21.92583 -3.85499,5.67671 c -10.52344,15.49646 -14.67931,33.79134 -12.72922,56.03625 2.74555,31.3188 14.9483,62.17657 37.70411,95.34448 8.48894,12.37313 10.80871,16.50034 9.6699,17.20417 -3.50976,2.16914 -24.8793,1.30083 -53.08169,-2.1569 l -13.4253,-1.646 -7.6824,-7.37541 C 230.18029,493.823 224.31374,489.87147 215.45455,486.4604 205.44815,482.60763 205,482.3799 205,481.14795 c 0,-0.64008 2.44213,-4.75288 5.42697,-9.13956 13.05514,-19.18661 18.54044,-37.54697 18.5255,-62.00839 -0.012,-19.59488 -3.61497,-35.26118 -11.91733,-51.81818 -14.01218,-27.94381 -42.23779,-48.7069 -76.79536,-56.49158 -11.59814,-2.61268 -11.60531,-2.61559 -11.59808,-4.69844 0.006,-1.70761 10.92859,-19.6192 13.65304,-22.38901 1.65935,-1.68698 1.80652,-1.6934 3.50873,-0.15293 0.9772,0.88436 3.26261,4.43558 5.0787,7.89159 3.73906,7.11545 4.87206,7.71787 13.11036,6.97085 6.63951,-0.60205 13.19902,-3.35954 22.53454,-9.47308 7.8893,-5.16646 14.26968,-11.57846 16.32006,-16.40093 1.2911,-3.03665 1.6818,-7.5292 0.65479,-7.5292 -0.32395,0 -4.10877,3.39307 -8.41073,7.54017 -12.22147,11.78154 -21.78355,17.61589 -31.5053,19.22311 l -3.68685,0.60952 -3.26711,-7.09549 C 154.83502,272.28388 148.26789,258.25 142.03832,245 135.80874,231.75 129.82377,218.50946 128.73838,215.57658 l -1.97342,-5.3325 2.52661,0.62358 c 3.42885,0.84626 30.77567,12.32328 51.86577,21.76724 19.87092,8.89801 22.02448,9.61961 22.02448,7.37977 0,-2.32118 -2.91308,-5.58107 -9.21281,-10.30962 -3.11457,-2.33778 -5.82685,-4.76085 -6.02729,-5.3846 -0.58929,-1.83378 20.00321,-21.13863 22.54859,-21.13863 1.17804,0 6.51065,10.82762 9.53693,19.36425 3.09108,8.71949 5.00469,10.02865 14.50414,9.92275 18.18587,-0.20274 49.71228,-16.742 60.85989,-31.92808 3.56492,-4.85639 6.333,-11.57419 5.08659,-12.34451 -0.43367,-0.26802 -4.67726,3.1241 -9.43021,7.53803 C 273.41628,212.10808 249.13145,225 235.91906,225 h -4.66945 l -2.56986,-5.68182 c -7.56512,-16.72602 -39.37865,-109.83141 -37.99984,-111.21022 0.52992,-0.52992 56.23289,32.49458 98.78836,58.56844 7.65454,4.68996 11.89537,5.88855 11.89537,3.36198 0,-0.72889 -3.08614,-4.62527 -6.85809,-8.65862 -3.77194,-4.03335 -6.58724,-7.77158 -6.25622,-8.30717 0.9034,-1.46174 13.22674,-7.1635 15.48263,-7.1635 2.19225,0 3.05395,2.08432 3.07381,7.43506 0.007,1.8393 0.63094,3.96269 1.38691,4.71866 3.43506,3.43505 22.24417,3.01765 35.44368,-0.78656 12.6404,-3.64307 22.39246,-8.86246 29.42697,-15.7496 8.4545,-8.27738 5.94279,-8.2256 -11.035,0.22748 -14.39818,7.16871 -22.89482,9.91162 -34.13338,11.01903 -8.9568,0.88259 -10.80064,0.26477 -11.95015,-4.00417 -1.00157,-3.71955 -10.57033,-88.214124 -11.54499,-101.945169 -0.31964,-4.503102 -0.34246,-8.187457 -0.0507,-8.187457 2.64737,0 35.99286,30.920072 63.05947,58.472775 19.22864,19.573971 21.9631,22.757021 23.40175,27.240831 0.4723,1.47204 0.75429,1.50116 3.03697,0.31365 1.38399,-0.71997 3.5081,-2.37065 4.72025,-3.66816 l 2.20393,-2.3591 -2.06211,-2.19501 c -1.96195,-2.0884 -1.98069,-2.23752 -0.38573,-3.07049 2.29939,-1.20087 17.71357,-4.7345 20.65253,-4.7345 2.11355,0 2.38747,0.35803 2.38747,3.12056 0,5.4462 5.72511,5.23647 8.59582,-0.31489 0.73806,-1.42724 4.21685,-19.926476 7.73066,-41.109415 6.4375,-38.808331 7.59936,-45.01604 8.61567,-46.032342 0.93182,-0.931821 2.60905,1.419344 13.46932,18.881545 18.79277,30.216832 26.96344,45.618099 25.8041,48.639308 -0.23262,0.606191 -1.76915,1.371406 -3.4145,1.700478 -8.40748,1.681496 -25.74476,17.113696 -32.37633,28.818706 -5.60757,9.89763 -7.47572,18.27831 -8.1489,36.55688 l -0.56205,15.26083 -5.7925,7.35214 C 424.76491,194.8627 417.18761,209.78676 413.20408,225 c -3.21976,12.29642 -3.53411,36.54215 -0.43357,33.44161 0.32815,-0.32816 2.15967,-6.04358 4.07004,-12.70095 7.27422,-25.34963 17.9573,-44.78969 33.79462,-61.49622 5.97058,-6.29827 6.28853,-6.84802 5.78346,-10 -3.33295,-20.79998 -1.98683,-33.98784 4.79159,-46.94299 8.60062,-16.43778 26.11305,-26.21426 44.24433,-24.6998 16.33767,1.36464 29.94671,9.59807 42.88713,25.94657 7.97258,10.07231 10.87946,12.8046 13.62942,12.8109 5.03431,0.0115 6.07068,-2.26159 3.26219,-7.1551 -2.72057,-4.74033 -1.52719,-5.07787 19.07405,-5.39497 13.35302,-0.20552 20.73618,0.10219 27.26576,1.13637 4.92485,0.78002 11.60981,1.41822 14.85548,1.41822 6.76138,0 7.8387,-1.06376 5.34781,-5.28049 -1.53445,-2.59761 -1.5083,-2.75154 1.3917,-8.1925 3.85281,-7.22861 11.27778,-15.32149 17.46269,-19.033537 2.88336,-1.730528 7.86564,-3.597333 11.98893,-4.492121 6.03494,-1.309632 7.98681,-1.371312 13.49655,-0.426495 9.7598,1.673619 17.3407,5.712902 24.86819,13.250353 7.38796,7.39772 11.4891,14.85164 13.55108,24.62933 1.72032,8.15768 1.70855,12.72946 -0.0593,23.02111 l -1.43287,8.3415 8.3134,8.98748 c 23.70657,25.62877 36.11752,48.99056 37.90334,71.34746 0.53887,6.74622 0.4729,7.1222 -1.16258,6.62537 -10.91281,-3.3151 -49.91605,-4.81162 -90.35276,-3.46674 -53.13676,1.76728 -95.82143,5.27939 -140.30418,11.54431 -76.89899,10.8304 -104.65608,18.39088 -93.75129,25.53597 2.83349,1.85657 7.42254,1.38024 44.94708,-4.66535 76.12359,-12.26429 125.84211,-17.61294 181.81641,-19.55954 37.34418,-1.29871 93.47331,0.8746 96.94228,3.75359 4.30935,3.57644 -4.24654,26.81175 -15.76225,42.80567 -18.50008,25.69435 -49.24656,46.07415 -79.99189,53.02132 -9.95475,2.24935 -11.18636,2.71874 -11.18636,4.2633 0,1.72081 21.12754,0.12345 32.25614,-2.43874 9.37225,-2.15782 14.10749,-2.80107 14.10749,-1.91642 0,0.21017 -1.27441,3.99278 -2.83201,8.40581 -12.11731,34.3309 -42.7314,72.74284 -77.16799,96.82377 -25.12725,17.57108 -82.27537,39.17589 -115.22465,43.56062 -10.23561,1.36211 -14.55167,0.78532 -19.47605,-2.60275 -5.88078,-4.04608 -14.09787,-7.12314 -26.0804,-9.76633 -7.78527,-1.71733 -12.953,-3.52574 -19.55041,-6.84153 -4.93232,-2.47893 -9.46329,-4.50715 -10.0688,-4.50715 -0.60552,0 -1.99136,-0.94782 -3.07966,-2.10626 -1.49316,-1.5894 -2.88422,-6.29872 -5.66875,-19.19122 -4.31012,-19.95613 -6.25731,-25.77798 -14.13357,-42.25773 l -5.82679,-12.19157 10.73325,-10.99025 c 10.12135,-10.3637 14.63299,-16.6834 13.36961,-18.72758 -1.03586,-1.67606 -2.79889,-0.9097 -8.52836,3.70716 -8.749,7.05003 -16.57508,12.68195 -20.18329,14.5246 l -3.26333,1.66653 -4.46394,-3.22848 c -4.66633,-3.37486 -10.93009,-6.60565 -12.87304,-6.63978 -2.40778,-0.0423 -0.93046,2.97488 4.11884,8.41205 13.88398,14.95053 25.53007,41.60947 32.05907,73.38617 3.80996,18.54314 4.16187,19.32733 9.62962,21.45885 2.43086,0.94763 8.27689,3.70132 12.99117,6.11931 6.0332,3.09447 12.15335,5.29849 20.66733,7.44282 23.57562,5.93774 35.52693,15.68242 27.90122,22.7497 -1.8845,1.74649 -3.38691,2.22932 -6.93697,2.22932 -6.75493,0 -21.97323,-2.61177 -30.05823,-5.1586 -12.11588,-3.81659 -12.68236,-1.69203 -2.47839,9.295 3.96652,4.27092 8.05743,9.51203 9.09091,11.64692 4.27221,8.82521 1.33128,14.21668 -7.75489,14.21668 -6.15,0 -12.12541,-2.25754 -23.54786,-8.8965 -11.16264,-6.48794 -15.78233,-8.37623 -20.49244,-8.37623 -5.28206,0 -6.19555,2.45576 -3.57193,9.60251 4.60608,12.54692 3.11492,16.85222 -6.0277,17.40335 -4.16244,0.25091 -6.54994,-0.17613 -10.6688,-1.90831 z M 604.09091,222.27273 c 2.09454,-2.09454 2.16517,-2.59763 0.85334,-6.07718 -2.26571,-6.0096 -10.76625,-12.10464 -16.8819,-12.10464 -6.87433,0 -8.83932,5.68054 -3.90787,11.29714 6.46199,7.3598 16.12453,10.69658 19.93643,6.88468 z m 55.18574,-3.2426 c 7.2046,-4.22218 11.6703,-13.17409 8.2688,-16.57558 -1.48088,-1.48089 -6.63612,-1.37647 -9.63605,0.19516 -5.04302,2.64199 -11.09122,10.81474 -11.09122,14.98724 0,4.15318 6.5072,4.88085 12.45847,1.39318 z M 514.31354,178.64505 c 2.91848,-1.09193 6.33753,-3.34504 8.62209,-5.68181 10.58262,-10.8245 10.01357,-26.15722 -1.34175,-36.15257 -12.12259,-10.67073 -31.85364,-6.7009 -38.88028,7.8226 -2.45055,5.06508 -2.88353,14.83291 -0.88901,20.05548 4.81126,12.5981 19.3857,18.85886 32.48895,13.9563 z m 178.82163,-15.43943 c 8.12171,-4.14339 11.81398,-10.56537 11.84487,-20.60181 0.0165,-5.35886 -0.42159,-7.33234 -2.51889,-11.34702 -7.6791,-14.69947 -27.04574,-16.89131 -37.8385,-4.2824 -3.29256,3.84661 -5.98629,10.73985 -5.98629,15.31886 0,3.94465 2.40141,10.74426 4.99582,14.1457 2.73546,3.58638 7.86776,7.09558 12.40369,8.481 4.517,1.37966 12.6287,0.5664 17.0993,-1.71433 z"
     id="path8"
     transform="scale(0.75)" />
  <path
     style="fill:#ffffff;stroke-width:0.909091"
     d="m 547.37574,107.5743 c -8.5177,-8.369665 -8.95924,-8.989035 -8.44016,-11.839359 0.68126,-3.740874 22.01734,-46.445092 24.18542,-48.407171 1.44583,-1.308461 1.70499,-1.294091 2.97336,0.16487 1.53954,1.770873 5.96258,12.902003 15.3165,38.545904 3.41752,9.369197 6.85736,18.279636 7.64407,19.800976 1.75011,3.38433 4.43321,4.79712 13.0579,6.87564 3.66206,0.88255 6.32115,1.93196 5.90909,2.33203 -0.41205,0.40007 -12.20374,0.86947 -26.20374,1.0431 l -25.45454,0.3157 z"
     id="path9"
     transform="scale(0.75)" />
  <path
     style="fill:#ffffff;stroke-width:0.909091"
     d="m 660.77554,545.12423 c -5.56648,-3.50567 -5.8163,-10.0026 -0.81913,-21.30211 2.91726,-6.59645 3.0503,-11.0926 0.37066,-12.52671 -2.4956,-1.3356 -7.47651,-0.66289 -21.75107,2.93764 -8.2528,2.08164 -13.5516,2.87653 -19.63427,2.94538 -7.63241,0.0864 -8.52812,-0.0905 -10.68182,-2.10962 -1.42842,-1.33916 -2.35082,-3.18864 -2.35082,-4.71355 0,-9.06996 8.65586,-15.05653 33.8947,-23.44226 l 12.92348,-4.29389 3.18182,-6.28744 c 1.75,-3.45809 5.32955,-8.5268 7.95455,-11.26381 l 4.77272,-4.97636 v -13.697 -13.697 l 8.54229,-12.20454 c 10.72472,-15.32263 19.15111,-30.74302 25.10778,-45.94751 7.12382,-18.18368 9.19403,-22.24447 13.71227,-26.89719 7.1797,-7.39342 13.88971,-7.59231 19.24555,-0.57045 3.16544,4.15012 3.12307,5.52445 -0.24425,7.92219 -1.5,1.06809 -2.72727,2.52777 -2.72727,3.24372 0,1.99725 5.18577,1.63061 19.94349,-1.41002 7.21892,-1.48736 13.31946,-2.51014 13.55676,-2.27284 1.34387,1.34387 -14.62679,25.89369 -16.84491,25.89369 -1.94336,0 -6.84292,-5.32776 -10.45838,-11.37241 -3.47559,-5.81081 -5.2882,-6.96676 -5.28715,-3.37179 10e-4,3.94536 4.84557,13.08815 8.84605,16.69498 4.58043,4.1297 8.20779,5.04247 12.08045,3.03984 1.58296,-0.81858 2.98922,-1.35589 3.12503,-1.19402 1.21908,1.45302 2.42531,5.22057 3.72498,11.63469 1.82454,9.00449 1.5686,9.42242 -6.33932,10.35184 -6.48678,0.7624 -7.80155,1.34002 -7.80155,3.42754 0,2.64278 2.97867,3.307 18.04649,4.02422 7.57443,0.36055 13.77169,0.95246 13.77169,1.31536 0,1.51104 -21.02176,20.90429 -22.65968,20.90429 -0.96908,0 -2.66258,-1.2648 -3.76333,-2.81066 -2.21415,-3.10949 -5.39517,-12.48815 -5.39517,-15.9067 0,-2.40623 -0.86567,-2.78061 -2.54545,-1.10082 -2.207,2.207 -1.2878,10.18807 1.87764,16.30289 4.45809,8.61188 9.20335,11.19694 15.58605,8.49076 1.62952,-0.69089 1.70177,-0.4048 1.17375,4.64705 -0.89362,8.54968 -5.87247,22.48411 -13.12782,36.74112 -3.6895,7.25 -6.7489,14.40122 -6.79867,15.89159 -0.0747,2.23568 0.84931,3.50808 5.2811,7.27273 15.82634,13.44387 20.58473,20.41825 17.32499,25.39324 -0.8218,1.25423 -3.08455,2.75363 -5.03933,3.33929 -6.45138,1.93288 -14.74736,-0.003 -32.97235,-7.69605 -10.1089,-4.26686 -16.45674,-5.47076 -22.1355,-4.19812 -6.16744,1.38214 -7.20972,2.08744 -16.80623,11.37249 -9.45889,9.15191 -14.26531,12.12228 -20.74399,12.8198 -3.24426,0.34929 -4.93609,0.0299 -7.11683,-1.34347 z"
     id="path10"
     transform="scale(0.75)" />
</svg>
