<?xml version="1.0" encoding="UTF-8" standalone="no"?>
<svg
   version="1.0"
   width="600.000000pt"
   height="436.000000pt"
   viewBox="0 0 600.000000 436.000000"
   preserveAspectRatio="xMidYMid meet"
   id="svg63"
   sodipodi:docname="frog11_t2.svg"
   inkscape:version="1.4.3 (0d15f75, 2025-12-25)"
   xmlns:inkscape="http://www.inkscape.org/namespaces/inkscape"
   xmlns:sodipodi="http://sodipodi.sourceforge.net/DTD/sodipodi-0.dtd"
   xmlns="http://www.w3.org/2000/svg"
   xmlns:svg="http://www.w3.org/2000/svg">
  <defs
     id="defs63" />
  <sodipodi:namedview
     id="namedview63"
     pagecolor="#505050"
     bordercolor="#ffffff"
     borderopacity="1"
     inkscape:showpageshadow="0"
     inkscape:pageopacity="0"
     inkscape:pagecheckerboard="1"
     inkscape:deskcolor="#505050"
     inkscape:document-units="pt"
     inkscape:zoom="0.66356696"
     inkscape:cx="602.80276"
     inkscape:cy="299.14087"
     inkscape:window-width="1920"
     inkscape:window-height="1022"
     inkscape:window-x="0"
     inkscape:window-y="30"
     inkscape:window-maximized="1"
     inkscape:current-layer="svg63" />
  <g
     transform="translate(0.000000,436.000000) scale(0.050000,-0.050000)"
     fill="#000000"
     stroke="none"
     id="g63">
    <path
       d="M7507 8598 c-241 -44 -606 -306 -831 -597 l-53 -69 -111 104 c-60 57 -118 104 -129 104 -11 0 -36 42 -55 93 -118 310 -269 280 -443 -87 l-91 -193 -115 243 c-238 501 -371 458 -580 -189 -44 -137 -46 -139 -131 -159 l-87 -20 -139 213 c-305 467 -454 406 -513 -212 l-13 -142 -144 -24 c-82 -14 -202 -53 -278 -92 l-134 -67 -72 83 c-66 78 -280 393 -455 672 -271 434 -487 -56 -414 -944 38 -468 5 -462 -457 90 -204 243 -299 276 -375 129 -65 -125 -19 -651 90 -1039 31 -112 33 -138 11 -157 -15 -12 -33 -53 -40 -92 -23 -125 -13 -129 -608 239 -427 264 -480 -56 -140 -843 90 -208 96 -231 69 -269 -16 -23 -29 -61 -29 -84 0 -72 -14 -69 -373 93 -389 175 -465 191 -520 106 -67 -102 69 -466 309 -828 l100 -149 -108 -117 c-59 -64 -108 -123 -108 -130 -2 -57 -37 -64 -106 -24 -262 155 -313 -74 -131 -592 l77 -222 -52 -138 c-37 -100 -55 -192 -63 -333 l-11 -195 -54 0 c-177 0 -131 -217 107 -517 114 -143 124 -166 175 -375 81 -333 82 -325 -25 -424 -233 -214 -220 -477 24 -516 63 -11 79 -24 104 -86 58 -150 272 -183 468 -73 l90 50 100 -80 c237 -187 557 -181 657 13 17 32 32 61 34 66 2 4 41 -8 86 -25 231 -93 449 -21 489 162 11 52 24 65 63 65 69 0 148 84 148 158 l0 60 144 -49 c79 -27 220 -63 313 -81 154 -29 181 -41 282 -127 129 -111 289 -221 320 -221 11 0 21 -38 21 -85 0 -214 148 -302 527 -312 l256 -6 81 -79 c162 -156 473 -256 677 -217 49 10 95 18 103 18 34 2 153 126 164 171 16 62 16 62 174 -3 372 -152 738 -40 738 228 0 59 5 65 61 65 149 0 279 124 279 266 l0 68 359 -10 c867 -23 1573 208 1894 621 l42 54 82 -34 c113 -48 104 -75 -43 -142 -473 -214 -469 -721 5 -678 l119 11 46 -93 c124 -249 507 -235 831 31 166 136 223 140 356 25 305 -264 701 -287 802 -46 25 62 34 67 119 67 314 0 367 317 96 572 l-86 81 51 76 c55 81 127 266 127 327 0 20 28 63 63 95 221 208 232 389 23 389 l-66 0 0 129 c0 119 7 139 82 245 207 296 191 440 -47 422 l-125 -10 -42 130 -42 130 104 222 c252 534 210 729 -123 574 -170 -80 -187 -64 -79 74 191 244 336 566 295 655 -47 104 -137 100 -448 -21 -26 -11 -16 25 46 157 112 240 211 522 249 709 79 389 -85 397 -597 31 -106 -76 -133 -76 -184 2 -32 49 -31 60 37 266 194 584 106 785 -228 521 -53 -42 -99 -76 -102 -76 -3 0 -6 164 -7 365 -2 573 -145 954 -524 1390 -413 475 -943 595 -683 155 196 -331 267 -580 266 -935 0 -289 -34 -389 -54 -161 -31 342 -168 451 -310 246 -65 -94 -76 -97 -93 -25 -43 175 -149 195 -292 54 l-93 -91 -13 250 c-37 691 -168 957 -367 747 -62 -66 -242 -331 -300 -443 l-33 -62 -28 70 c-96 235 -209 188 -496 -210 -39 -54 -77 -54 -144 -1 -31 25 139 375 283 580 165 235 139 329 -81 289z m53 -129 c0 -7 -39 -67 -88 -135 -404 -570 -445 -1322 -97 -1777 40 -53 89 -102 109 -108 52 -17 44 -58 -24 -136 -104 -118 -37 -138 73 -22 89 95 90 167 2 234 -71 55 -185 232 -207 323 l-14 58 104 -12 c109 -13 326 -100 364 -147 29 -34 98 -36 97 -2 0 24 -133 122 -235 174 -26 13 -120 39 -210 58 l-163 33 -16 98 c-9 53 -14 156 -11 229 l6 133 180 -3 c225 -4 302 -29 266 -86 -19 -30 -19 -46 -2 -63 40 -40 34 -47 444 616 242 391 284 434 325 331 70 -177 102 -519 116 -1210 1 -44 39 -45 71 -2 26 36 170 -49 170 -99 0 -78 -90 -152 -172 -141 -94 13 -328 -77 -328 -126 0 -38 39 -34 148 14 118 52 184 46 177 -16 -15 -148 114 -8 493 531 162 230 182 238 215 83 79 -372 25 -649 -160 -814 -40 -37 -73 -80 -73 -98 0 -32 -28 -31 -155 5 -32 9 -45 4 -45 -17 0 -35 87 -73 387 -169 66 -21 29 61 -42 93 -83 36 -83 84 1 141 416 285 492 1126 161 1777 -121 238 -121 247 7 185 768 -373 1166 -1555 805 -2394 -34 -80 -38 -105 -18 -137 34 -55 -23 -91 -146 -91 -67 0 -96 -8 -90 -24 20 -61 226 -65 275 -6 42 51 61 11 47 -103 -10 -88 -7 -109 15 -105 15 2 59 -10 98 -27 119 -54 140 -3 28 66 -66 41 -71 51 -61 117 7 40 -1 125 -16 190 -24 106 -24 126 8 200 46 106 363 386 407 359 50 -32 -45 -431 -168 -705 -83 -184 -63 -310 28 -177 30 45 31 45 62 5 43 -56 49 -49 -136 -170 -214 -141 -234 -210 -123 -440 129 -267 180 -242 63 30 -89 208 -106 184 370 500 515 341 554 363 571 320 51 -132 -204 -818 -443 -1195 -89 -140 -137 -145 -265 -29 -51 47 -75 36 -55 -24 38 -120 263 -176 330 -82 23 33 50 60 59 60 27 0 67 -256 53 -343 -11 -71 -6 -89 47 -149 34 -38 61 -80 61 -94 0 -27 -287 -205 -350 -217 -52 -10 -64 -126 -22 -225 34 -82 106 -105 84 -27 -42 148 -44 145 81 221 187 113 549 294 590 294 81 0 11 -244 -172 -595 -125 -238 -134 -275 -64 -258 45 12 93 -73 93 -164 0 -26 -126 -83 -182 -83 -48 0 -71 -86 -41 -151 30 -67 63 -61 63 10 0 55 8 62 105 89 396 111 419 106 322 -78 -91 -173 -210 -308 -272 -309 -30 -1 -55 -8 -55 -17 0 -33 50 -64 104 -64 52 0 56 -6 56 -79 0 -90 -11 -100 -115 -109 -88 -8 -155 -90 -110 -135 20 -20 31 -17 53 14 22 30 59 40 178 46 245 12 252 -7 69 -187 -85 -84 -164 -147 -175 -140 -11 7 -29 7 -41 -1 -30 -18 16 -69 63 -69 52 0 48 -52 -12 -173 -76 -152 -111 -178 -187 -138 -124 64 -171 23 -53 -46 39 -23 70 -50 70 -61 0 -11 19 -25 42 -33 65 -20 197 -148 239 -232 81 -157 37 -237 -128 -237 l-104 0 -36 103 c-56 158 -293 375 -293 268 0 -16 16 -40 37 -55 126 -90 222 -327 182 -448 -87 -266 -734 -15 -807 312 -31 138 -60 134 -68 -9 -6 -104 -9 -109 -74 -131 -38 -12 -113 -63 -168 -112 -219 -197 -539 -255 -657 -119 -136 160 73 568 320 622 68 15 74 69 7 69 -168 0 -452 -269 -452 -429 0 -64 -264 -103 -359 -52 -169 91 110 480 344 481 20 0 45 24 57 55 76 194 157 271 333 315 155 40 134 75 -38 67 l-147 -7 -6 76 c-5 58 6 90 46 137 28 34 69 95 89 135 24 46 82 101 161 152 138 89 300 285 300 362 0 73 -26 58 -109 -63 -69 -99 -231 -253 -231 -219 0 74 123 385 195 495 91 140 206 401 247 563 16 67 38 101 76 121 217 114 384 508 333 783 -18 97 -63 78 -54 -24 7 -84 3 -82 -84 36 -68 94 -184 184 -213 166 -14 -8 9 -47 61 -103 213 -231 213 -490 0 -702 -47 -47 -94 -85 -104 -85 -10 0 -58 -37 -107 -83 -96 -87 -120 -149 -50 -127 51 16 50 4 -8 -146 -180 -459 -618 -896 -1036 -1035 -105 -35 -140 -100 -41 -77 185 45 381 146 594 307 163 124 159 124 109 -4 -203 -517 -774 -955 -1244 -955 -19 0 -34 -15 -34 -32 0 -40 144 -27 361 34 168 46 171 46 137 6 -260 -313 -1192 -544 -1904 -471 l-217 23 -135 139 c-144 149 -275 224 -453 261 l-101 21 33 133 c44 175 87 195 206 98 414 -336 1528 -520 1825 -303 58 42 20 59 -78 34 -495 -125 -1157 -19 -1615 257 -160 97 -162 102 -70 159 120 75 230 227 279 385 9 30 27 24 142 -43 513 -299 1608 -375 1869 -129 53 50 1 56 -124 13 -525 -179 -1276 -89 -1778 213 -174 105 -199 152 -141 268 52 104 58 194 14 194 -16 0 -30 -16 -30 -35 0 -19 -18 -64 -40 -100 -48 -79 -51 -193 -9 -274 73 -140 -217 -511 -399 -511 -43 0 -57 193 -19 266 164 316 131 490 -81 431 -138 -39 -143 -32 -101 142 41 168 20 330 -66 501 -89 177 -117 134 -45 -68 45 -125 61 -399 26 -434 -12 -12 -48 24 -94 90 -205 298 -564 527 -886 565 -95 11 -104 17 -163 116 -195 321 -315 332 -416 35 -36 -106 -53 -132 -81 -127 -183 38 -313 -38 -331 -195 -9 -85 40 -66 96 37 51 93 61 101 127 101 124 -1 129 -11 102 -222 -28 -220 -22 -308 19 -308 23 0 38 56 63 230 52 368 119 590 177 590 41 0 237 -296 353 -532 54 -109 109 -198 123 -198 40 0 29 -61 -25 -132 -87 -114 -30 -129 68 -17 71 81 82 172 25 213 -29 20 -183 294 -183 325 0 13 159 -29 260 -69 242 -95 470 -291 638 -549 125 -191 127 -167 -28 -251 -133 -71 -162 -109 -140 -180 17 -55 47 -50 70 11 21 54 339 222 442 234 69 7 57 -92 -32 -282 -96 -203 -144 -266 -197 -259 -28 4 -43 -5 -43 -24 0 -43 102 -50 161 -11 l49 32 0 -107 c0 -276 -57 -340 -356 -400 -261 -53 -134 -93 143 -46 392 67 775 -113 860 -404 63 -215 -183 -346 -294 -157 -97 164 -287 292 -438 293 -103 0 -94 -30 20 -69 315 -107 507 -478 320 -617 -157 -118 -692 8 -723 170 -13 74 -144 244 -173 226 -9 -6 10 -67 42 -136 67 -142 73 -209 26 -308 -142 -300 -907 -25 -907 325 0 83 -49 47 -56 -42 -9 -101 -23 -108 -205 -109 -280 0 -458 90 -432 219 29 145 175 249 382 273 116 14 142 35 66 55 -130 35 -331 -15 -432 -107 l-66 -61 -104 56 c-531 284 -769 1044 -512 1635 l43 100 50 -110 c28 -60 57 -137 64 -170 35 -155 339 -115 454 60 53 81 12 98 -68 28 -137 -120 -304 -166 -304 -82 0 17 -22 86 -49 154 -112 278 -185 670 -125 670 28 0 331 -192 505 -321 70 -51 120 -76 132 -64 34 34 -3 77 -174 203 -93 69 -169 139 -169 155 0 100 188 316 355 408 73 40 97 66 107 117 21 102 88 159 196 166 121 8 130 61 12 76 -275 34 76 789 471 1015 178 101 228 107 211 23 -8 -37 -19 -111 -26 -164 -10 -85 -20 -100 -84 -133 -137 -71 -272 -246 -286 -370 -10 -93 35 -79 74 21 36 96 202 288 248 288 19 0 24 -47 19 -192 l-7 -191 73 -67 c77 -71 241 -131 346 -128 203 7 228 78 28 78 -156 1 -279 41 -339 112 -77 90 91 1084 202 1196 67 69 262 -196 496 -672 74 -151 143 -272 154 -269 47 14 26 107 -69 306 -56 117 -97 217 -92 223 33 33 278 -173 375 -316 l34 -50 1 48 c3 128 -194 321 -399 393 -77 26 -102 50 -170 162 -237 388 -380 404 -495 54 l-51 -154 -123 -44 c-343 -124 -629 -444 -733 -819 -36 -130 -35 -251 1 -303 27 -37 24 -44 -25 -81 -30 -22 -74 -80 -98 -129 -30 -60 -68 -100 -116 -123 -106 -50 -267 -209 -334 -329 -69 -122 -56 -116 -151 -65 -197 106 -259 5 -194 -314 l32 -152 -72 -157 c-129 -281 -176 -662 -115 -916 27 -112 33 -108 -117 -81 -306 56 -558 247 -492 375 267 515 -2 1450 -527 1835 l-93 69 15 105 c37 262 296 700 341 578 27 -72 51 -46 86 92 66 264 179 505 333 712 28 38 112 -8 103 -55 -13 -66 31 -84 55 -22 10 28 33 51 50 51 42 0 38 60 -5 61 -116 2 -129 46 -40 132 185 177 223 183 256 42 13 -58 50 -179 82 -268 31 -90 57 -177 57 -193 0 -103 340 -120 422 -22 24 29 13 31 -107 18 -159 -17 -235 -3 -235 45 0 19 -18 84 -41 143 -98 257 -225 926 -192 1012 27 69 246 -59 848 -494 197 -142 199 -204 16 -444 -112 -146 -71 -195 50 -58 129 148 205 407 134 465 -14 11 -52 42 -85 69 l-60 49 56 21 c31 12 72 22 90 23 19 0 65 27 103 60 89 76 119 74 220 -10 80 -67 85 -68 147 -42 35 16 79 33 98 39 19 5 59 49 88 96 125 198 347 402 483 445 45 14 45 12 44 -183 l-1 -196 -84 -60 c-101 -74 -194 -218 -208 -325 -17 -124 24 -117 72 13 26 72 77 154 133 214 110 118 123 107 142 -123 18 -210 169 -298 388 -226 124 40 98 68 -56 61 -140 -6 -240 27 -230 74 3 14 -9 125 -27 248 -73 495 36 1364 170 1364 16 0 100 -135 193 -310 90 -170 238 -434 328 -586 l164 -276 -52 -153 c-28 -85 -43 -158 -33 -164 11 -6 25 -36 32 -65 32 -126 68 -106 66 37 -3 200 81 376 110 232 18 -86 66 -141 96 -110 20 20 19 45 -7 130 -75 244 -103 529 -75 769 80 663 445 1224 973 1495 123 63 227 91 227 60z m-2072 -134 c81 -138 256 -541 256 -590 1 -25 8 -50 17 -56 28 -17 82 56 72 96 -10 36 -3 39 79 30 119 -14 117 -10 73 -172 -40 -146 -33 -183 36 -183 25 0 33 20 34 85 2 111 69 305 106 305 16 0 65 -60 109 -134 142 -238 163 -183 48 130 -77 213 -63 251 59 166 187 -129 194 -160 88 -372 -145 -292 -248 -765 -217 -995 10 -78 7 -85 -39 -97 -61 -15 -44 -35 -165 183 -284 514 -290 536 -154 564 117 24 88 55 -52 55 -100 0 -124 7 -142 40 -168 313 -357 83 -437 -532 l-24 -188 -123 -58 c-140 -67 -382 -296 -447 -422 -92 -178 -137 -193 -261 -87 -99 86 -196 76 -328 -34 -30 -25 -101 -55 -157 -67 l-102 -22 -164 117 c-704 507 -804 500 -725 -51 19 -127 31 -233 28 -236 -3 -2 -46 -30 -96 -61 -257 -159 -549 -564 -622 -860 -19 -80 -49 -124 -158 -233 -155 -156 -285 -388 -321 -575 -14 -67 -30 -121 -37 -121 -6 0 -69 18 -139 40 -153 48 -374 52 -519 9 -57 -17 -110 -31 -119 -31 -8 -1 -26 -10 -39 -21 -28 -23 -35 -19 -186 91 -60 44 -113 82 -116 84 -19 11 83 170 137 215 93 79 119 70 121 -42 5 -252 68 -267 84 -21 20 295 123 552 298 738 87 93 96 112 96 197 0 93 2 97 117 177 263 184 583 616 583 785 0 40 16 75 45 99 158 132 195 166 195 182 0 29 -73 20 -100 -12 -78 -94 -174 239 -212 733 -28 370 7 389 234 122 92 -107 215 -246 274 -309 l108 -114 -72 -76 c-40 -42 -78 -98 -85 -126 -7 -27 -26 -66 -43 -85 -18 -21 -34 -91 -40 -180 -9 -136 -13 -147 -72 -185 -77 -50 -152 -194 -152 -294 0 -98 33 -98 59 1 31 114 102 208 188 251 75 36 77 39 64 124 -32 214 15 263 180 184 101 -50 131 -35 114 55 -10 51 -34 63 -55 29 -8 -12 -34 -9 -70 10 -32 17 -72 30 -89 30 -51 0 -36 26 74 133 172 167 287 184 174 26 -33 -47 -38 -68 -21 -85 15 -15 29 -17 38 -4 8 11 86 21 174 21 176 1 350 60 350 118 0 38 -4 38 -96 0 -41 -18 -133 -37 -205 -43 l-130 -11 0 87 c0 49 -12 195 -27 326 -48 418 -2 1020 84 1106 29 29 43 14 168 -183 295 -465 571 -811 648 -811 21 0 38 -9 38 -21 0 -34 -59 -139 -79 -139 -9 0 -56 -32 -102 -71 -47 -39 -104 -84 -126 -100 -81 -56 -7 -78 80 -23 184 117 389 394 291 394 -84 0 -119 55 -64 99 67 54 270 121 364 121 l76 0 2 -155 c2 -85 1 -172 -1 -192 -9 -84 132 -154 249 -125 78 20 59 46 -45 65 l-95 17 -6 234 c-6 269 35 650 84 764 43 103 65 84 288 -256 278 -426 322 -504 310 -550 -13 -51 8 -54 57 -9 51 46 48 63 -46 225 -45 79 -79 146 -75 150 46 41 94 28 105 -28 16 -78 108 -120 264 -120 103 0 156 42 67 54 -290 38 -275 15 -187 288 159 492 210 562 297 413z m717 -97 c32 -66 33 -78 5 -130 -16 -32 -30 -78 -30 -103 0 -25 -12 -45 -28 -45 -15 0 -38 -13 -52 -30 -28 -34 -151 -41 -171 -9 -14 24 49 183 126 315 60 103 101 103 150 2z m1654 -403 c26 -103 26 -118 -8 -180 -72 -134 -69 -132 -201 -106 -154 31 -156 50 -28 222 169 225 194 232 237 64z m-530 -238 c63 -29 65 -49 6 -64 -70 -19 -75 -16 -75 37 0 57 1 58 69 27z m1633 -217 c27 -98 18 -205 -23 -272 l-42 -67 -98 74 c-121 90 -120 83 -5 217 101 116 146 129 168 48z m-7536 -1077 c156 -98 322 -199 369 -225 47 -26 85 -55 85 -64 0 -61 -413 -554 -464 -554 -75 0 -368 887 -328 992 18 46 44 35 338 -149z m4841 132 c21 -77 14 -87 -27 -35 -47 59 -50 80 -12 80 15 0 33 -20 39 -45z m-5495 -1131 c120 -54 261 -118 314 -141 105 -45 105 -44 11 -163 -67 -86 -167 -287 -186 -375 -20 -93 -50 -81 -145 60 -194 286 -369 684 -322 731 25 25 36 21 328 -112z m10820 -607 c-29 -146 -273 -547 -333 -547 -22 0 -32 40 -41 170 -7 94 -19 199 -28 235 -8 36 -12 65 -7 65 4 0 84 32 177 69 220 90 249 91 232 8z m-11113 -602 c72 -46 256 -177 409 -291 174 -129 285 -199 297 -187 29 29 -10 85 -113 162 -111 83 -113 93 -17 122 562 167 1153 -271 1335 -990 180 -708 -109 -1278 -670 -1325 -207 -17 -171 -56 52 -56 143 1 196 10 269 45 51 25 98 45 105 45 31 0 13 -166 -21 -194 -33 -26 -33 -29 4 -52 225 -141 335 -370 228 -477 -91 -91 -419 -1 -444 122 -13 66 -161 240 -184 217 -7 -7 15 -70 49 -138 133 -266 24 -436 -242 -379 -223 48 -348 172 -343 342 6 180 -62 136 -90 -58 -12 -83 -22 -97 -102 -141 -266 -147 -441 44 -273 298 59 90 65 120 23 120 -32 0 -107 -93 -159 -195 -29 -57 -41 -64 -88 -52 -171 40 -131 218 88 389 124 96 153 147 94 162 -27 7 -45 51 -71 182 -20 95 -41 187 -48 204 -10 26 -2 30 40 19 79 -20 69 37 -18 103 -142 108 -389 451 -389 540 0 38 156 30 400 -20 142 -30 185 -24 176 25 -5 24 -53 41 -180 65 -244 46 -236 40 -236 161 0 137 37 345 69 389 33 45 91 -52 91 -150 0 -106 156 -160 289 -99 92 42 61 71 -74 69 -115 -2 -125 1 -119 39 3 23 -30 117 -74 210 -168 360 -296 859 -221 859 14 0 85 -38 158 -85z m1972 -2317 c119 -124 316 -212 526 -235 l128 -13 38 -98 c22 -54 57 -125 80 -156 54 -77 48 -79 -107 -47 -207 44 -433 143 -531 233 -48 45 -121 95 -161 111 -41 17 -93 54 -117 83 l-42 53 50 65 c61 81 63 81 136 4z m7027 -43 c36 -96 -108 -207 -189 -146 -37 28 -35 33 51 109 105 94 116 97 138 37z m-7108 -252 c214 -97 326 -340 167 -359 -40 -5 -62 13 -115 96 -37 57 -97 122 -134 146 -39 25 -64 55 -58 71 6 14 10 39 10 55 0 37 33 35 130 -9z"
       id="path1" />
    <path
       d="M7573 7307 c-42 -43 24 -147 94 -147 41 0 43 27 3 60 -16 14 -30 42 -30 62 0 37 -40 51 -67 25z"
       id="path2" />
    <path
       d="M8136 7265 c-119 -128 -186 -285 -120 -285 9 0 55 60 101 133 99 155 118 150 139 -35 19 -174 76 -187 70 -15 -7 229 -86 313 -190 202z"
       id="path3" />
    <path
       d="M8516 6565 c-51 -58 -80 -126 -67 -159 14 -36 71 0 71 45 0 41 38 55 72 28 58 -48 82 13 28 71 -56 59 -64 61 -104 15z"
       id="path4" />
    <path
       d="M7946 6475 c-88 -97 -114 -153 -77 -167 18 -7 35 -10 38 -5 3 4 26 36 51 72 56 81 87 82 142 5 45 -63 100 -80 100 -31 0 115 -182 205 -254 126z"
       id="path5" />
    <path
       d="M8286 6187 c-149 -53 -346 -260 -346 -364 0 -63 26 -52 69 28 207 385 713 369 939 -30 71 -126 96 -57 30 83 -118 253 -424 378 -692 283z"
       id="path6" />
    <path
       d="M7005 5994 c-53 -91 -131 -328 -115 -354 28 -46 69 -16 90 65 74 290 123 322 249 161 81 -103 117 -125 142 -85 13 21 -105 182 -179 244 -69 57 -142 45 -187 -31z"
       id="path7" />
    <path
       d="M9459 5939 c-55 -56 -99 -113 -99 -127 0 -60 34 -47 134 52 126 124 141 118 202 -84 63 -208 124 -160 66 51 -64 233 -151 264 -303 108z"
       id="path8" />
    <path
       d="M6350 5980 c-46 -75 136 -194 264 -173 121 19 113 73 -10 73 -75 0 -204 63 -204 100 0 26 -34 26 -50 0z"
       id="path9" />
    <path
       d="M8371 5927 c-274 -78 -387 -437 -207 -656 246 -297 722 -124 722 262 0 256 -271 463 -515 394z m223 -88 c153 -58 249 -240 208 -393 -93 -342 -564 -338 -643 6 -57 251 196 477 435 387z"
       id="path10" />
    <path
       d="M8445 5684 c-109 -16 -163 -195 -84 -280 152 -164 398 45 259 221 -40 52 -97 71 -175 59z"
       id="path11" />
    <path
       d="M4443 5705 c-31 -61 -42 -134 -24 -163 21 -34 61 -12 61 34 1 72 31 91 86 55 69 -46 92 -3 33 60 -54 57 -130 64 -156 14z"
       id="path12" />
    <path
       d="M7283 5507 c-414 -210 -297 -802 163 -823 444 -21 623 544 251 790 -106 70 -309 86 -414 33z m333 -75 c231 -121 272 -403 85 -585 -295 -287 -765 114 -535 456 98 145 305 204 450 129z"
       id="path13" />
    <path
       d="M7349 5234 c-74 -64 -79 -190 -10 -263 67 -72 195 -72 262 0 158 168 -77 413 -252 263z"
       id="path14" />
    <path
       d="M9265 5498 c-260 -129 -326 -477 -129 -685 270 -284 745 -92 744 301 -2 314 -336 522 -615 384z m351 -77 c231 -120 242 -469 19 -617 -228 -150 -533 24 -535 305 -1 262 283 434 516 312z"
       id="path15" />
    <path
       d="M9329 5231 c-114 -114 -34 -311 127 -311 105 0 173 71 173 183 0 157 -190 238 -300 128z"
       id="path16" />
    <path
       d="M6105 5475 c-55 -70 -43 -385 15 -385 25 0 29 27 23 153 -9 190 7 200 133 87 111 -100 124 -106 124 -54 0 94 -246 260 -295 199z"
       id="path17" />
    <path
       d="M4166 5344 c-74 -47 -146 -444 -81 -444 21 0 35 29 44 95 42 289 73 318 171 165 63 -98 120 -131 120 -68 0 57 -165 268 -209 268 -11 0 -32 -8 -45 -16z"
       id="path18" />
    <path
       d="M2734 5055 c-61 -45 -81 -237 -54 -520 l23 -256 -61 -57 c-126 -118 -224 -462 -132 -462 20 0 30 20 30 59 0 87 73 267 130 321 55 52 53 55 91 -120 30 -136 52 -180 90 -180 37 0 37 16 -10 231 -79 361 -103 835 -46 892 44 44 349 -156 690 -452 165 -143 235 -181 235 -127 0 13 -24 49 -53 79 -96 101 80 105 214 6 58 -43 70 -46 76 -19 18 87 -162 176 -321 159 l-106 -12 -150 124 c-348 288 -560 398 -646 334z"
       id="path19" />
    <path
       d="M6325 4975 c-53 -68 -47 -335 8 -335 20 0 27 34 27 130 0 154 16 161 124 56 61 -59 81 -69 101 -49 20 20 4 45 -79 124 -105 101 -146 118 -181 74z"
       id="path20" />
    <path
       d="M10315 4777 c-79 -29 -73 -81 8 -73 58 5 65 0 85 -72 28 -98 72 -119 72 -35 0 72 -33 166 -66 187 -29 18 -29 18 -99 -7z"
       id="path21" />
    <path
       d="M8206 4687 c-18 -48 88 -137 126 -106 21 18 22 33 5 66 -41 77 -109 98 -131 40z"
       id="path22" />
    <path
       d="M8693 4683 c-49 -54 -42 -103 16 -103 61 0 120 75 88 114 -30 36 -65 33 -104 -11z"
       id="path23" />
    <path
       d="M2218 4435 c-101 -78 -159 -181 -164 -296 -5 -108 36 -127 55 -25 19 102 93 226 169 282 58 43 84 104 44 104 -11 0 -57 -29 -104 -65z"
       id="path24" />
    <path
       d="M5920 4409 c0 -96 -62 -211 -159 -294 -91 -78 -99 -95 -41 -95 125 0 302 275 267 415 -19 74 -67 55 -67 -26z"
       id="path25" />
    <path
       d="M6419 4403 c-422 -267 -412 -818 17 -912 97 -22 82 32 -24 84 -315 153 -273 576 79 799 49 31 89 63 89 71 0 32 -76 12 -161 -42z"
       id="path26" />
    <path
       d="M8190 4420 c-664 -50 -1700 -330 -1727 -467 -13 -72 28 -77 159 -22 1130 478 2650 507 3524 66 121 -61 154 -60 154 3 0 229 -1274 483 -2110 420z"
       id="path27" />
    <path
       d="M3739 4247 c-1 -105 -41 -208 -116 -303 -107 -135 -76 -171 41 -49 105 110 139 190 132 309 -7 124 -56 160 -57 43z"
       id="path28" />
    <path
       d="M10815 4118 c-88 -66 -70 -131 18 -69 52 37 67 23 67 -62 0 -46 9 -67 30 -67 23 0 30 24 30 96 0 143 -46 176 -145 102z"
       id="path29" />
    <path
       d="M4623 4014 c-35 -42 -51 -187 -23 -204 32 -19 59 25 60 95 0 66 8 67 75 14 85 -66 111 -11 30 62 -72 64 -109 73 -142 33z"
       id="path30" />
    <path
       d="M2800 3751 c0 -157 385 -224 575 -100 75 49 28 72 -75 36 -132 -46 -320 -27 -409 41 -79 60 -91 63 -91 23z"
       id="path31" />
    <path
       d="M5281 3687 c-59 -42 -146 -185 -133 -219 18 -46 40 -33 97 62 69 114 84 113 125 -11 36 -108 83 -124 76 -27 -12 152 -91 246 -165 195z"
       id="path32" />
    <path
       d="M2520 3573 c0 -45 80 -133 121 -133 53 0 48 18 -21 95 -63 69 -100 83 -100 38z"
       id="path33" />
    <path
       d="M10508 3332 c-37 -37 -68 -78 -68 -90 0 -38 51 -24 99 27 56 60 72 53 90 -39 21 -116 80 -95 64 23 -23 164 -77 187 -185 79z"
       id="path34" />
    <path
       d="M6040 3328 c0 -7 43 -51 96 -98 133 -120 204 -229 244 -375 40 -146 71 -154 68 -19 -4 153 -112 329 -275 447 -73 53 -133 73 -133 45z"
       id="path35" />
    <path
       d="M10980 3302 c0 -65 176 -202 259 -202 64 0 48 35 -34 78 -41 21 -97 61 -123 90 -49 52 -102 69 -102 34z"
       id="path36" />
    <path
       d="M9708 3198 c-21 -23 -94 -87 -163 -142 -69 -55 -120 -108 -114 -118 31 -49 349 196 349 269 0 45 -26 42 -72 -9z"
       id="path37" />
    <path
       d="M6600 3153 c0 -78 525 -393 820 -493 288 -97 661 -130 871 -78 123 31 126 89 4 65 -426 -84 -998 74 -1491 411 -190 130 -204 137 -204 95z"
       id="path38" />
    <path
       d="M10714 2924 c-71 -72 -97 -144 -53 -144 11 0 48 32 82 70 77 88 82 88 118 -14 41 -117 89 -129 74 -18 -25 187 -105 225 -221 106z"
       id="path39" />
    <path
       d="M10277 2926 c-66 -41 -158 -181 -144 -218 17 -43 43 -34 75 27 16 30 56 81 90 114 96 91 82 141 -21 77z"
       id="path40" />
    <path
       d="M8950 2808 c-44 -16 -140 -39 -215 -52 -129 -21 -159 -39 -115 -66 32 -20 298 27 394 70 150 66 97 107 -64 48z"
       id="path41" />
    <path
       d="M2580 2633 c0 -56 175 -193 246 -193 36 0 76 -10 88 -22 39 -39 46 14 12 99 -35 90 -64 106 -80 43 -16 -60 -70 -49 -146 30 -70 73 -120 90 -120 43z"
       id="path42" />
    <path
       d="M4240 2631 c0 -95 250 -196 392 -159 110 28 82 57 -67 68 -126 9 -265 64 -265 104 0 9 -13 16 -30 16 -16 0 -30 -13 -30 -29z"
       id="path43" />
    <path
       d="M11002 2462 c-34 -32 -62 -72 -62 -90 0 -45 19 -40 82 20 66 63 98 49 98 -43 0 -48 9 -69 30 -69 31 0 43 142 18 208 -19 50 -98 38 -166 -26z"
       id="path44" />
    <path
       d="M5156 2326 c-49 -56 -99 -165 -86 -187 23 -36 49 -19 90 61 50 98 48 98 111 -2 77 -122 118 -73 49 58 -55 104 -113 128 -164 70z"
       id="path45" />
    <path
       d="M10400 2203 c-57 -56 -80 -123 -43 -123 9 0 37 23 63 50 63 67 90 63 113 -15 22 -76 80 -90 72 -17 -17 155 -109 202 -205 105z"
       id="path46" />
    <path
       d="M4160 2170 c-51 -61 2 -330 65 -330 18 0 8 139 -17 225 -16 54 27 42 121 -35 97 -80 111 -84 111 -35 0 33 -97 125 -189 179 -54 32 -61 32 -91 -4z"
       id="path47" />
    <path
       d="M3369 2027 c-54 -55 1 -253 149 -527 20 -38 127 -50 181 -20 65 34 50 66 -24 52 -75 -14 -159 109 -222 321 -42 144 -48 141 222 73 133 -34 153 -31 134 19 -27 70 -385 136 -440 82z"
       id="path48" />
    <path
       d="M10952 1879 c-107 -93 -82 -145 28 -59 71 55 80 50 80 -40 0 -94 50 -113 68 -25 35 163 -58 228 -176 124z"
       id="path49" />
    <path
       d="M4972 1774 c-39 -29 -92 -170 -78 -208 18 -45 42 -29 66 44 32 96 54 103 122 38 82 -79 121 -38 47 50 -72 86 -115 106 -157 76z"
       id="path50" />
    <path
       d="M4683 7174 c-67 -81 -95 -524 -33 -524 37 0 41 17 52 200 20 316 34 327 198 150 121 -130 147 -142 180 -80 25 47 11 80 -34 80 -18 0 -80 45 -138 100 -107 102 -181 126 -225 74z"
       id="path51" />
    <path
       d="M3923 7123 c-61 -61 -91 -630 -38 -698 38 -48 175 -25 175 29 0 22 -13 27 -48 18 -76 -19 -103 506 -30 578 29 29 362 -317 346 -359 -15 -37 33 -42 68 -7 43 43 26 74 -141 248 -213 222 -269 254 -332 191z"
       id="path52" />
    <path
       d="M3482 6633 c-12 -15 -25 -62 -27 -103 -6 -95 40 -120 58 -31 11 58 16 61 80 49 87 -16 88 20 2 72 -77 47 -83 48 -113 13z"
       id="path53" />
    <path
       d="M2413 5983 c-36 -40 -47 -289 -15 -341 37 -57 62 3 62 149 0 169 -3 167 115 97 60 -35 96 -45 109 -32 30 30 4 59 -105 114 -117 60 -124 60 -166 13z"
       id="path54" />
    <path
       d="M2021 5561 c-39 -71 -19 -181 31 -181 19 0 28 24 28 71 0 70 1 71 70 58 81 -16 93 13 26 60 -61 42 -130 39 -155 -8z"
       id="path55" />
    <path
       d="M1624 5258 c-75 -28 -53 -238 67 -633 10 -33 68 -32 81 2 5 15 -13 94 -41 177 -68 203 -88 376 -44 376 41 0 292 -94 326 -123 15 -12 40 -16 57 -10 41 16 38 72 -5 85 -19 7 -89 35 -154 63 -154 66 -232 83 -287 63z"
       id="path56" />
    <path
       d="M1229 4678 c-21 -34 -15 -240 8 -263 38 -38 57 5 47 107 l-10 104 58 -12 c32 -6 74 -17 93 -25 24 -9 35 -4 35 18 0 64 -198 125 -231 71z"
       id="path57" />
    <path
       d="M1160 3429 c-11 -29 -20 -58 -20 -66 0 -8 -27 -47 -60 -87 -58 -70 -56 -108 4 -85 45 17 136 173 136 233 0 70 -35 73 -60 5z"
       id="path58" />
    <path
       d="M1563 3394 c-44 -54 -102 -206 -103 -271 0 -99 42 -69 90 62 56 157 62 158 131 7 59 -132 116 -171 102 -70 -25 180 -159 346 -220 272z"
       id="path59" />
    <path
       d="M1061 2721 c-42 -77 -9 -301 39 -271 11 7 20 63 20 125 l0 113 88 -86 c85 -84 137 -87 94 -5 -64 118 -205 191 -241 124z"
       id="path60" />
    <path
       d="M806 2406 c2 -86 -4 -190 -13 -231 -14 -62 -12 -75 13 -75 62 0 107 233 69 358 -43 148 -73 126 -69 -52z"
       id="path61" />
    <path
       d="M1251 2036 c-38 -55 -43 -183 -6 -171 13 4 33 37 43 72 21 74 33 77 82 23 42 -46 90 -53 90 -12 0 88 -161 156 -209 88z"
       id="path62" />
    <path
       d="M889 1719 c-18 -29 7 -56 92 -99 82 -42 187 -54 176 -20 -11 32 -255 140 -268 119z"
       id="path63" />
  </g>
  <path
     style="fill:#ffffff;stroke-width:0.82146"
     d="m 340.9057,569.29803 c -12.93676,-2.82163 -25.28415,-10.41489 -30.58175,-18.80683 -1.10468,-1.74993 -2.4709,-5.44855 -3.03606,-8.21917 -0.56515,-2.77062 -1.3648,-5.01225 -1.77698,-4.98138 -1.08603,0.0813 -2.66687,3.57511 -3.21492,7.10524 -0.85416,5.50179 -1.66417,5.79662 -14.72603,5.35998 -13.96653,-0.46688 -19.16642,-1.86281 -23.65346,-6.34984 -3.56677,-3.56677 -3.90581,-6.00662 -1.54245,-11.10026 3.26369,-7.0341 11.27457,-11.88866 23.02854,-13.95521 3.66955,-0.64517 7.0313,-1.39515 7.47055,-1.66662 1.56727,-0.96862 0.75212,-1.97524 -2.28183,-2.81781 -9.08514,-2.52307 -22.17366,0.99761 -30.7545,8.27266 l -3.03024,2.56911 -5.59509,-3.05801 c -20.43163,-11.16695 -34.51985,-31.35236 -39.86259,-57.11453 -1.34711,-6.49564 -1.55035,-9.93833 -1.21242,-20.53648 0.25732,-8.0703 0.90074,-14.5374 1.75713,-17.66138 1.65175,-6.02527 6.39339,-18.48284 7.035,-18.48284 0.60348,0 5.25675,10.859 6.62102,15.45102 2.05167,6.90568 8.80586,9.73168 17.33377,7.25255 8.24205,-2.39603 15.46563,-8.75498 15.46563,-13.61447 0,-1.49656 -0.31726,-1.70785 -1.84828,-1.23088 -1.01656,0.31668 -3.62169,1.98055 -5.78917,3.69749 -7.4865,5.93031 -16.30161,8.75048 -17.80085,5.69494 -1.82678,-3.7231 -9.37666,-27.98068 -11.12163,-35.73349 -2.15164,-9.55969 -2.7217,-19.3043 -1.1293,-19.3043 1.39613,0 9.47848,5.01008 25.40465,15.74782 7.92707,5.34458 15.05456,9.71742 15.83887,9.71742 2.18097,0 2.60178,-2.35044 0.84264,-4.70661 -0.86806,-1.16267 -5.97491,-5.6621 -11.34856,-9.99874 -5.37365,-4.33663 -10.13203,-8.48006 -10.57418,-9.20763 -2.25615,-3.71252 10.27089,-18.83019 22.00865,-26.56012 6.38722,-4.20631 6.85313,-4.71738 8.55453,-9.38362 2.07356,-5.68693 5.27973,-8.83389 9.78232,-9.60166 1.68096,-0.28663 4.46566,-0.8763 6.18822,-1.31039 4.37935,-1.1036 3.7762,-3.20142 -1.39148,-4.83966 -5.49116,-1.74079 -7.07994,-3.93217 -7.07994,-9.76526 0,-17.43422 20.26535,-47.81349 38.84145,-58.22625 7.19434,-4.03276 12.08904,-5.29974 12.08904,-3.12922 0,4.16485 -2.7594,17.54592 -3.87173,18.77502 -0.71411,0.78909 -2.84598,2.34166 -4.7375,3.45016 -4.73111,2.77262 -12.86837,11.67205 -15.49863,16.9503 -2.64054,5.29885 -3.06329,11.73371 -0.7415,11.28658 0.80681,-0.15538 2.87885,-2.96235 4.72339,-6.39874 2.0843,-3.88304 5.51624,-8.38524 9.38422,-12.31068 l 6.09816,-6.18876 0.51824,2.87511 c 0.28503,1.58131 0.35567,7.51193 0.15698,13.17915 l -0.36125,10.30405 4.01309,3.345 c 4.74102,3.95176 8.94162,6.18325 15.04653,7.99322 7.61129,2.25656 20.59276,1.28422 20.59276,-1.54244 0,-1.86683 -1.5239,-2.31642 -10.10459,-2.98108 -9.68985,-0.75057 -15.87511,-2.53659 -19.60972,-5.66237 l -2.73334,-2.28774 0.0852,-10.14707 c 0.20259,-24.13037 10.31294,-68.88143 15.56199,-68.88143 2.23212,0 8.63465,6.7783 13.92814,14.7456 2.86656,4.3145 8.97048,15.05285 13.56427,23.863 11.14307,21.37066 13.05133,24.64379 14.3675,24.64379 3.4485,0 1.83983,-7.27958 -4.85926,-21.98918 -6.91706,-15.18818 -6.88803,-15.51662 0.86203,-9.75474 6.41113,4.76643 12.2873,10.55127 16.75541,16.49501 l 3.66609,4.87685 0.25362,-3.00636 c 0.72611,-8.60681 -12.05343,-22.10822 -25.76625,-27.2217 -5.44146,-2.02911 -6.97818,-3.54456 -13.66979,-13.48067 -7.33887,-10.8972 -10.90641,-14.81143 -15.26155,-16.74463 -4.0523,-1.79878 -6.12224,-1.42617 -9.49785,1.70973 -3.04019,2.82431 -4.31411,5.32618 -7.95918,15.63116 l -3.01923,8.53567 -6.22332,2.26889 c -25.01676,9.12063 -44.07648,30.33357 -50.77023,56.50588 -1.92202,7.51504 -2.00751,13.80698 -0.24735,18.20606 l 1.32606,3.31412 -3.17478,3.47954 c -1.74614,1.91374 -4.60147,5.73643 -6.34519,8.49486 -2.34145,3.70401 -4.38014,5.74444 -7.79719,7.80387 -6.84952,4.12815 -16.03937,13.25975 -21.14196,21.00796 -2.4757,3.7593 -5.05598,6.83509 -5.73397,6.83509 -0.67799,0 -2.1803,-0.62088 -3.33848,-1.37975 -3.22254,-2.11149 -9.38911,-3.44518 -11.89338,-2.57227 -1.18018,0.41138 -2.56639,1.6711 -3.08047,2.79937 -1.4469,3.17558 -1.10804,13.21727 0.7541,22.34757 l 1.68879,8.28033 -4.10971,9.29007 c -6.58071,14.87584 -9.93707,30.22152 -9.93725,45.43428 -7e-5,6.59049 0.32178,9.51009 2.21037,20.05087 l 0.50172,2.80021 -5.12514,-0.53569 c -13.81629,-1.44408 -31.00524,-10.25459 -35.04304,-17.96193 -1.62402,-3.09992 -1.48612,-4.32252 1.29353,-11.46828 10.07912,-25.91083 3.8491,-64.86656 -14.98681,-93.71101 -6.55969,-10.04521 -12.9703,-17.1814 -20.98364,-23.35862 -3.93108,-3.03035 -7.21298,-5.53537 -7.29309,-5.5667 -0.41221,-0.16119 2.21795,-12.91771 3.39553,-16.46864 2.68149,-8.08588 10.28558,-22.34231 14.07889,-26.39563 l 3.7419,-3.99838 2.02089,2.46438 c 1.94765,2.37507 2.06373,2.40763 3.20312,0.89853 0.65023,-0.86122 1.75706,-3.63364 2.45961,-6.16095 2.92558,-10.52421 6.50738,-20.53049 9.85663,-27.53592 4.05924,-8.49047 12.23938,-21.46456 13.94637,-22.11959 1.74231,-0.66858 5.50193,2.64309 4.95541,4.365 -0.6181,1.94747 0.30772,4.14047 1.74799,4.14047 0.6446,0 1.91195,-1.25411 2.81632,-2.78691 0.90438,-1.5328 2.39978,-2.98447 3.32312,-3.22593 1.18222,-0.30916 1.59883,-0.98407 1.40845,-2.2817 -0.2096,-1.42864 -1.10097,-2.04199 -3.96692,-2.72965 -5.78152,-1.38724 -5.40698,-3.20749 2.10311,-10.22109 8.34331,-7.79173 11.70606,-8.50074 13.0368,-2.74872 1.00069,4.32541 9.62271,31.82663 10.61293,33.85151 1.66685,3.40853 5.02558,4.51803 13.67722,4.51803 6.33172,0 8.42372,-0.32494 11.0897,-1.72249 1.80722,-0.94738 3.41359,-2.3763 3.56971,-3.17539 0.26333,-1.34772 -0.37739,-1.40969 -8.85128,-0.85612 -12.12263,0.79192 -13.21109,0.33043 -15.06068,-6.38564 -0.77415,-2.81106 -2.72812,-9.36206 -4.34214,-14.5578 -4.05967,-13.06859 -9.31849,-39.65286 -9.95306,-50.31439 l -0.52559,-8.83069 h 2.19966 c 4.68704,0 22.96635,11.25122 49.17216,30.26628 17.56312,12.74389 17.95698,14.28954 7.58053,29.74947 -3.37036,5.02151 -6.12793,9.83712 -6.12793,10.70135 0,2.8709 2.94166,1.68328 7.33393,-2.9609 6.04415,-6.3908 10.88266,-16.88826 11.38443,-24.69924 l 0.37385,-5.81988 -5.39128,-4.57376 -5.39129,-4.57375 2.2115,-0.86301 c 1.21631,-0.47466 3.71797,-1.24682 5.55924,-1.71592 1.84126,-0.46911 5.417,-2.33469 7.94609,-4.14573 6.34179,-4.54126 8.04828,-4.37745 15.20788,1.4598 2.98153,2.43086 3.95903,2.79281 6.58946,2.44 6.06316,-0.81325 10.99177,-3.94343 15.20533,-9.65698 10.09628,-13.69048 18.57051,-22.10046 27.51543,-27.30683 6.81619,-3.96734 6.7478,-4.07172 6.72355,10.26154 l -0.0212,12.52726 -4.22137,2.86502 c -7.95835,5.40128 -14.31919,15.56504 -15.22327,24.32474 -0.4343,4.20795 -0.34077,4.57951 1.08593,4.31424 1.03813,-0.19302 2.85059,-2.90439 5.41005,-8.09326 3.81823,-7.74081 11.21546,-17.24979 13.41898,-17.24979 1.6956,0 2.01593,0.96107 2.93069,8.79297 1.10827,9.48861 2.01551,12.144 5.4467,15.94191 4.61523,5.10851 11.46432,6.13524 21.09139,3.16174 5.29738,-1.63619 6.89243,-3.3358 4.12664,-4.39714 -0.71465,-0.27424 -4.58856,-0.49861 -8.6087,-0.49861 -4.65229,0 -8.45395,-0.45799 -10.45812,-1.2599 l -3.14879,-1.2599 -1.80938,-15.37466 c -1.19223,-10.13053 -1.80502,-20.07582 -1.79659,-29.15746 0.0261,-28.08543 5.12515,-58.39667 10.66749,-63.412416 1.53426,-1.388493 1.69809,-1.256065 5.19702,4.200925 1.98704,3.099038 4.91914,8.037381 6.51577,10.974101 9.32874,17.1586 21.15004,38.16701 27.61671,49.07945 l 7.42198,12.5245 -1.8805,5.54761 c -3.59035,10.59185 -4.11547,13.93956 -2.71608,17.31539 0.6882,1.66017 1.70074,4.21987 2.25012,5.68823 1.06668,2.85104 2.76899,3.50143 3.58675,1.37037 0.27425,-0.71465 0.50504,-3.57949 0.51288,-6.36631 0.008,-2.78681 0.55888,-7.63787 1.22451,-10.78014 1.75019,-8.26211 4.52773,-10.33677 5.6721,-4.23672 1.08749,5.79676 6.42575,9.45303 7.50771,5.14215 0.26678,-1.06296 -0.45424,-5.40643 -1.60228,-9.65215 -6.11332,-22.6084 -6.7082,-41.26651 -2.01163,-63.09257 7.46807,-34.705819 28.84638,-65.577066 57.16152,-82.543842 7.99367,-4.789909 19.10852,-8.907733 19.10852,-7.079319 0,0.464266 -2.41022,4.374266 -5.35604,8.688888 -14.748,21.600774 -21.91175,43.714924 -21.93603,67.71549 -0.0182,17.997693 3.19429,31.053523 10.93132,44.425653 3.57239,6.17427 9.91733,13.56725 12.29033,14.32041 2.49073,0.79052 1.92932,2.98137 -2.09053,8.15814 -4.09238,5.27019 -4.57566,7.02715 -1.93288,7.02715 2.56035,0 8.30926,-5.03818 10.53385,-9.23157 2.60705,-4.91436 1.95821,-6.8356 -4.75298,-14.07363 -5.55228,-5.98814 -10.97703,-15.01011 -12.03707,-20.01896 -0.63158,-2.98439 -1.22153,-2.9207 8.9061,-0.96157 5.6611,1.0951 15.80478,5.30106 19.70853,8.1719 1.85566,1.36467 4.34638,2.43399 5.66939,2.43399 3.7554,0 2.61555,-3.01221 -2.68334,-7.09112 -8.08092,-6.22042 -14.25124,-8.60557 -30.51416,-11.7953 -3.62913,-0.71179 -4.76073,-1.30299 -5.20145,-2.71744 -0.30979,-0.99425 -0.76464,-7.77243 -1.01078,-15.062617 l -0.44752,-13.254883 9.34554,0.346077 c 18.94605,0.701598 21.34978,1.411115 19.80392,5.845578 -0.66386,1.904373 -0.62271,2.874563 0.1678,3.955647 2.40942,3.295083 4.45361,0.657438 24.68517,-31.851701 15.05647,-24.193526 20.69842,-32.43969 23.12342,-33.79679 2.45805,-1.375593 3.9726,1.942842 6.49943,14.240545 2.15014,10.46444 4.44779,41.79899 4.48748,61.198734 0.0209,10.21267 0.51973,11.24222 4.42753,9.13774 3.48148,-1.8749 5.95505,-1.38654 9.43304,1.8624 2.97594,2.77993 3.10653,3.7017 1.01125,7.13772 -2.03644,3.33952 -6.31143,5.26974 -11.71849,5.29106 -7.81634,0.0308 -20.84067,5.75751 -20.24207,8.90028 0.41754,2.19219 3.28853,2.00199 9.99513,-0.66216 9.08543,-3.60911 12.01401,-3.19036 12.01401,1.71788 0,3.55791 1.31994,3.50158 5.3672,-0.22905 4.59532,-4.23583 11.05752,-12.47033 23.76347,-30.28076 13.9217,-19.514603 15.22725,-20.675892 16.85393,-14.991637 1.45067,5.069256 3.29295,18.335597 3.29812,23.750067 0.007,7.01255 -1.95125,16.55559 -4.50375,21.95114 -1.17945,2.49315 -4.71374,7.36166 -7.85398,10.81893 -3.14024,3.45726 -5.70953,6.85089 -5.70953,7.54139 0,1.30092 0.23358,1.30874 -10.14609,-0.33992 -2.74051,-0.43529 -3.12509,-0.3059 -2.87511,0.96732 0.48773,2.48414 4.06408,4.45685 14.97393,8.25955 11.38617,3.96874 13.655,4.35742 13.655,2.33928 0,-1.52646 -4.29414,-5.76766 -6.57148,-6.49046 -0.85749,-0.27215 -1.79238,-1.2299 -2.07753,-2.12833 -0.41051,-1.29341 1.17422,-3.29423 7.61163,-9.61013 5.65136,-5.54468 8.94257,-9.54315 10.79497,-13.11472 9.96359,-19.21057 12.40505,-45.388036 6.69055,-71.736569 -2.25314,-10.388828 -5.2364,-18.720515 -11.16041,-31.168908 -5.12101,-10.761022 -5.96776,-13.136864 -4.67163,-13.107989 0.33885,0.0075 3.70963,1.674581 7.49063,3.704515 26.26612,14.101708 46.81097,42.772058 55.48692,77.432011 3.24985,12.98299 4.1195,20.34601 4.09555,34.67554 -0.0274,16.40426 -1.47676,25.35617 -6.25078,38.6086 -2.56286,7.11435 -3.4182,10.72826 -3.46431,14.637 -0.0736,6.24318 -0.31132,6.43241 -9.18296,7.31089 -4.8686,0.4821 -6.48598,0.94346 -6.48598,1.85018 0,2.24244 3.79379,3.38392 10.41088,3.13245 5.27677,-0.20055 6.63568,-0.55156 8.34231,-2.15486 2.02488,-1.90228 2.04238,-1.90374 2.57817,-0.21562 0.29671,0.93482 0.28452,4.28685 -0.0271,7.44898 -0.44737,4.54007 -0.32853,5.81853 0.56502,6.0784 0.62235,0.181 3.80416,1.19295 7.07067,2.24879 4.63787,1.49911 6.15633,1.70252 6.93046,0.92839 1.17241,-1.17241 -1.31313,-4.19023 -5.6678,-6.88156 -2.63578,-1.62901 -2.68376,-1.76629 -2.68376,-7.68034 0,-3.31193 -0.54999,-8.89623 -1.2222,-12.40957 -1.50013,-7.84048 -0.82564,-10.95654 3.57176,-16.50102 5.64862,-7.12207 20.64606,-19.97152 23.31009,-19.97152 1.2044,0 0.60225,9.50285 -1.04105,16.42919 -2.09126,8.81451 -4.09919,15.02023 -9.03691,27.92963 -3.6006,9.41356 -4.40996,12.64348 -4.1683,16.63455 0.1392,2.29888 2.77572,1.67922 5.15065,-1.21056 2.16266,-2.6315 2.2087,-2.64463 3.90193,-1.11228 0.94239,0.85286 1.71344,2.012 1.71344,2.57587 0,0.56387 -3.82678,3.63007 -8.50395,6.81378 -8.99407,6.12217 -13.31469,10.30871 -14.17455,13.73466 -1.06301,4.23536 0.23527,10.00128 3.98698,17.70695 8.62794,17.72103 12.22138,15.92088 4.82743,-2.41832 -1.8626,-4.61983 -3.38656,-9.13032 -3.38656,-10.02331 0,-3.30133 6.67363,-8.77849 27.60354,-22.65472 26.17394,-17.35296 34.7977,-22.6358 36.4432,-22.32481 3.12358,0.59033 1.43117,11.186 -4.59838,28.78918 -7.09588,20.7163 -20.73311,48.58085 -27.09771,55.36794 -3.25471,3.47076 -5.64222,3.48524 -10.16867,0.0617 -1.94137,-1.46836 -4.19662,-3.16485 -5.01167,-3.76999 -0.81504,-0.60512 -1.86971,-0.86055 -2.3437,-0.56761 -2.49807,1.54389 0.9081,7.84349 5.51049,10.19146 7.38041,3.7652 13.03019,3.19286 17.57633,-1.78054 l 3.02535,-3.3097 0.89849,3.33674 c 1.49657,5.55781 2.53684,15.79033 2.05813,20.24459 -0.34859,3.24364 -0.11327,4.69072 1.03281,6.35116 0.81634,1.18273 2.58006,3.72344 3.91939,5.64604 l 2.43513,3.49563 -2.43513,1.98514 c -3.52375,2.87259 -15.06372,9.79606 -19.49141,11.69399 -3.26636,1.40012 -3.8759,2.0429 -4.35399,4.59129 -1.06218,5.6619 1.3736,13.84148 4.74967,15.94987 2.7774,1.73451 3.49423,0.0263 2.31696,-5.52122 -0.56775,-2.67534 -0.80168,-5.59078 -0.51986,-6.47873 0.2871,-0.90455 4.20952,-3.81568 8.92014,-6.62033 11.79293,-7.02137 35.62446,-18.55848 37.13659,-17.97822 3.44911,1.32355 -0.7887,14.84839 -11.49224,36.67715 -8.43583,17.20399 -9.11574,19.91891 -5.03119,20.08965 2.71968,0.11369 4.32069,1.98102 5.5213,6.43974 0.64977,2.41304 0.59957,3.47417 -0.21053,4.45028 -1.35586,1.63372 -7.63405,4.34309 -10.06385,4.34309 -2.85258,0 -4.57724,2.50902 -4.57724,6.65894 0,3.79673 1.75569,7.30587 3.65526,7.30587 1.26609,0 2.09496,-1.77434 2.09496,-4.48463 0,-1.03724 0.49129,-2.29361 1.09175,-2.79195 1.76602,-1.46567 21.86977,-6.68823 25.74571,-6.68823 3.14063,0 3.55653,0.21614 3.5565,1.84828 -6e-5,2.37292 -6.41686,13.74436 -11.18122,19.81466 -3.98693,5.07975 -7.84816,7.90167 -10.81856,7.90653 -2.31824,0.004 -3.28019,2.18328 -1.67298,3.79049 0.65761,0.65761 3.01851,1.6455 5.24645,2.19532 3.76896,0.93011 4.06931,1.19333 4.3167,3.78308 0.57676,6.03776 -0.71909,7.28043 -9.04706,8.67578 -1.96471,0.32919 -3.77082,1.38712 -5.13413,3.00731 -2.5368,3.01483 -2.61768,4.11754 -0.44609,6.08279 1.61533,1.46185 1.71997,1.43938 4.1536,-0.89219 2.48616,-2.38188 2.53956,-2.39186 12.84884,-2.39914 6.87057,-0.005 10.45693,0.3 10.66343,0.90645 0.87769,2.57764 -15.635,18.42505 -20.02694,19.22006 -1.80565,0.32685 -2.3136,0.86791 -2.3136,2.46438 0,1.61421 0.60631,2.24039 2.87511,2.96937 2.10005,0.67476 2.9406,1.45776 3.11806,2.90459 0.32714,2.66712 -6.25675,15.41875 -8.97107,17.37511 -2.12351,1.53053 -2.21607,1.5279 -6.06001,-0.17246 -7.47118,-3.30486 -10.53693,-1.40096 -4.769,2.96165 1.66816,1.26172 3.98313,3.25569 5.14438,4.43105 1.16126,1.17537 3.36625,2.78595 4.89999,3.57908 3.91449,2.02426 10.23338,8.12135 13.10212,12.6422 7.27628,11.46672 4.43588,17.2078 -8.57347,17.32882 l -4.9841,0.0464 -1.40583,-4.45979 c -2.55483,-8.1049 -11.82741,-19.71695 -17.45228,-21.85552 -5.26703,-2.00252 -4.7773,1.95909 0.96326,7.79209 5.93078,6.0263 9.46989,13.42474 10.00598,20.9173 0.68253,9.53926 -2.94365,13.41901 -12.54199,13.41901 -12.63976,0 -29.18245,-8.79294 -36.45622,-19.37759 -1.29183,-1.87985 -3.0174,-5.63585 -3.83459,-8.34667 -1.49063,-4.94476 -3.17793,-7.7305 -4.11485,-6.79359 -0.27596,0.27597 -0.85769,3.36877 -1.29273,6.87291 -0.43504,3.50414 -0.96443,6.65181 -1.17643,6.99482 -0.212,0.34302 -2.31908,1.5202 -4.6824,2.61594 -2.36333,1.09575 -6.69973,3.93768 -9.63645,6.31541 -7.77334,6.29374 -11.1345,8.26413 -18.48284,10.8351 -14.46987,5.0626 -26.25583,1.54933 -27.92389,-8.32381 -0.69927,-4.13898 1.28803,-11.93235 4.65229,-18.24435 3.56124,-6.68156 11.29437,-13.7062 17.78173,-16.15259 3.70533,-1.39728 5.07914,-2.32662 5.07914,-3.43585 0,-1.90533 -2.51789,-2.74909 -5.97404,-2.00194 -10.65283,2.30295 -24.79791,15.58363 -27.27543,25.60865 -0.82418,3.33496 -1.44679,4.16147 -4.1483,5.5067 -4.38458,2.18334 -14.55958,2.73645 -18.67873,1.01535 -7.06226,-2.95079 -5.50261,-11.8927 3.78766,-21.71579 5.04695,-5.33641 9.95967,-8.35827 15.6382,-9.61919 l 4.20299,-0.93329 3.85348,-7.22611 c 5.84437,-10.95951 7.63595,-12.5057 18.98592,-16.3854 5.23604,-1.78981 7.62405,-3.01698 7.81328,-4.01517 0.24682,-1.30199 -0.62402,-1.43756 -9.2345,-1.43756 h -9.50702 v -4.58483 c 0,-4.26863 0.36485,-5.1326 5.29011,-12.52725 5.62342,-8.44284 8.17949,-11.17957 14.99075,-16.05025 5.76629,-4.12344 15.32425,-14.49286 17.49836,-18.98397 1.91474,-3.95535 1.94745,-7.40951 0.0701,-7.40951 -0.64348,0 -4.15521,3.6426 -7.80387,8.09465 -6.06142,7.39613 -12.39428,13.52695 -13.17069,12.75054 -0.50879,-0.50879 3.99195,-13.78164 6.92919,-20.43446 1.49605,-3.38852 4.84616,-9.85752 7.44468,-14.37554 5.54253,-9.63673 11.18962,-22.56482 14.25506,-32.63458 1.87514,-6.15974 2.61336,-7.49005 5.24217,-9.44678 10.89197,-8.10734 18.25813,-19.43643 21.51,-33.08219 2.70231,-11.33969 1.88223,-25.11465 -1.45747,-24.48143 -1.03469,0.19618 -1.48902,1.40143 -1.79583,4.76401 l -0.41073,4.50139 -3.04042,-4.15326 c -5.02224,-6.8605 -12.83882,-13.48909 -15.90663,-13.48909 -0.19649,0 -0.35725,0.69231 -0.35725,1.53847 0,0.84615 2.09072,4.08065 4.64605,7.18777 10.80075,13.13303 12.76334,25.77714 5.78583,37.27549 -2.50122,4.12179 -9.47853,11.37225 -13.24376,13.76224 -4.43056,2.8123 -11.04865,9.11855 -12.48558,11.89727 -1.03037,1.99252 -1.03209,2.35992 -0.0128,2.75104 0.64699,0.24827 1.8613,0.33404 2.69847,0.1906 1.93249,-0.3311 1.72216,1.03897 -1.41044,9.18747 -5.54442,14.42209 -15.36676,28.75475 -29.02034,42.34618 -12.63469,12.57718 -22.19152,19.15323 -36.22823,24.92864 -7.99305,3.28874 -10.26824,4.67653 -10.26824,6.26326 0,1.79628 3.73419,1.52168 10.47231,-0.7701 10.94899,-3.724 23.722,-10.99266 36.60649,-20.83147 2.6255,-2.00487 4.95262,-3.46624 5.17138,-3.24747 0.8466,0.8466 -6.2346,15.59215 -10.8043,22.49837 -5.98569,9.04622 -21.53297,24.8299 -30.06733,30.52452 -13.13834,8.76666 -24.76659,13.44744 -37.71614,15.18202 -6.80974,0.91217 -7.75298,1.23508 -7.75298,2.65419 0,1.48229 0.54248,1.60541 6.57167,1.49142 4.41704,-0.0835 9.76896,-0.97106 16.32341,-2.70706 5.36346,-1.42056 9.90782,-2.42676 10.09858,-2.236 0.19076,0.19075 -1.95599,2.43076 -4.77054,4.97779 -9.30233,8.41812 -30.31084,17.27434 -52.86691,22.28623 -22.69014,5.0417 -49.90573,6.69389 -72.934,4.42764 l -10.03341,-0.98741 -9.51792,-9.20909 c -10.9369,-10.58202 -18.38692,-14.96073 -29.52771,-17.35477 -4.48617,-0.96403 -6.54537,-1.77747 -6.54537,-2.58562 0,-2.08752 2.55687,-11.12269 3.87745,-13.7017 2.53685,-4.95426 4.01625,-4.89438 11.33713,0.45891 11.0147,8.05433 27.14579,15.01129 45.49186,19.61956 27.93772,7.01756 55.00644,8.28146 69.62751,3.25108 4.56122,-1.56929 8.49271,-4.3292 8.49271,-5.96187 0,-0.96283 -6.77198,-0.32751 -16.4292,1.5413 -9.43022,1.82488 -31.89885,1.8456 -43.53735,0.0401 -11.63342,-1.80467 -25.57829,-5.55191 -35.64099,-9.57737 -9.08434,-3.63409 -21.7233,-10.33508 -25.57705,-13.56058 l -2.44507,-2.04646 2.80398,-2.24005 c 9.48716,-7.57908 15.4606,-15.05368 18.67367,-23.36642 0.74775,-1.93457 1.62993,-3.82489 1.96039,-4.2007 0.33045,-0.37582 4.4335,1.36257 9.11788,3.86307 13.66268,7.29307 32.85264,13.01349 54.51879,16.25172 4.61671,0.69002 14.64267,1.09819 26.69743,1.08688 17.16322,-0.0161 20.10204,-0.2195 26.4968,-1.834 10.23444,-2.5839 17.86202,-6.76515 17.86202,-9.79151 0,-1.6403 -2.88157,-1.31602 -11.56049,1.30096 -26.24016,7.91226 -57.29823,7.31341 -86.54976,-1.66884 -15.23375,-4.67782 -30.53625,-12.25162 -37.54225,-18.58112 -3.88007,-3.50541 -4.07577,-5.92458 -1.07643,-13.30603 2.5607,-6.30189 2.49894,-11.01074 -0.14935,-11.38852 -1.32141,-0.1885 -1.88767,0.30636 -2.31954,2.02711 -0.31425,1.25207 -1.48254,4.20254 -2.59619,6.55661 -2.71615,5.74148 -3.28279,11.22919 -1.64162,15.89872 1.97266,5.61264 1.66375,9.73492 -1.15169,15.36912 -4.64915,9.30377 -17.21241,20.74431 -22.80539,20.76739 -2.38295,0.01 -3.47088,-2.72121 -3.47088,-8.71298 0,-3.44765 0.7972,-6.37837 3.39302,-12.47378 3.65268,-8.57709 5.43468,-16.50244 4.52525,-20.1259 -1.34277,-5.35001 -5.05515,-6.49794 -14.62311,-4.52171 -2.61255,0.53961 -5.01522,0.71599 -5.33925,0.39196 -0.32403,-0.32403 0.0354,-3.84709 0.79872,-7.82902 2.63796,-13.76106 1.65728,-23.35574 -3.51747,-34.41394 -5.95479,-12.72509 -8.75102,-10.75224 -4.45525,3.14334 2.59355,8.38938 3.96003,29.20844 1.87281,28.53321 -0.62565,-0.20241 -3.47823,-3.29949 -6.33905,-6.88241 -7.21743,-9.03915 -11.83396,-13.66555 -19.22608,-19.26718 -12.04592,-9.12819 -23.95868,-14.49085 -37.3956,-16.83406 -3.93231,-0.68574 -7.6756,-1.77273 -8.31841,-2.41555 -0.64282,-0.64282 -3.60678,-4.7631 -6.58656,-9.15619 -6.53646,-9.63663 -10.149,-12.81131 -14.57832,-12.81131 -2.60464,0 -3.60075,0.51963 -5.7399,2.99427 -1.42358,1.64685 -3.42713,5.28797 -4.45232,8.09138 -1.02519,2.8034 -2.52685,6.43761 -3.33703,8.07601 l -1.47306,2.97891 -6.40503,-0.0947 c -5.58852,-0.0827 -6.89194,0.19061 -10.22447,2.1436 -4.36866,2.56021 -7.26306,7.49314 -7.26306,12.37843 0,5.09447 2.56708,4.04489 7.16403,-2.9291 l 3.92567,-5.95558 4.37935,-0.2506 c 6.53657,-0.37406 7.02257,0.32924 6.40422,9.26762 -1.53092,22.12972 -1.53883,22.96349 -0.23417,24.66282 2.55477,3.32761 3.77242,0.13702 6.77769,-17.7595 3.70636,-22.07154 7.00606,-33.66647 10.13036,-35.59739 2.05023,-1.26711 14.32533,16.54784 23.41455,33.98173 3.13045,6.00446 6.7346,11.96008 8.00923,13.23471 1.27463,1.27463 2.31751,2.64493 2.31751,3.04512 0,0.40018 -1.2938,2.87617 -2.87511,5.50219 -2.84667,4.72737 -3.65807,7.86138 -2.0353,7.86138 1.30841,0 8.18857,-6.63842 9.49151,-9.15801 1.99564,-3.85915 1.48986,-8.28458 -1.35613,-11.86579 -3.39081,-4.26678 -11.77789,-19.16321 -11.14546,-19.79564 0.74832,-0.74832 10.72741,2.10043 17.92984,5.11848 9.44169,3.95635 17.39509,9.57978 26.5853,18.79704 8.43667,8.46151 20.40294,24.92883 19.92089,27.41403 -0.13506,0.69629 -3.57248,3.18399 -7.6387,5.52822 -8.84337,5.09831 -10.92915,7.81041 -9.45109,12.289 0.52425,1.58847 1.41712,2.88814 1.98418,2.88814 0.56704,0 2.18139,-1.43151 3.58742,-3.18113 1.40603,-1.74963 5.44172,-4.86903 8.96818,-6.93201 6.6065,-3.8648 17.99017,-8.78043 20.33381,-8.78043 3.63197,0 2.16604,7.4793 -3.95051,20.15586 -5.16934,10.71345 -8.69947,15.1669 -12.02241,15.1669 -2.71319,0 -3.73106,1.90459 -1.96286,3.67279 1.72333,1.72334 5.9161,1.57478 9.6775,-0.34289 l 3.13606,-1.59885 -0.32671,9.19735 c -0.55861,15.72583 -3.11568,18.31859 -22.82139,23.13978 -9.09597,2.22543 -11.13096,3.25051 -9.05648,4.56204 1.74608,1.10391 5.66377,0.98445 16.86718,-0.51432 20.99522,-2.80869 37.28592,1.19842 49.22214,12.10745 4.56694,4.17392 8.98325,11.51891 9.90091,16.46669 1.68449,9.08239 -7.7006,16.80747 -14.91665,12.27824 -1.42047,-0.89157 -3.95599,-3.69004 -5.6345,-6.21881 -3.93195,-5.92372 -10.14817,-11.36147 -16.69405,-14.6034 -4.15504,-2.05783 -6.27856,-2.58591 -10.59803,-2.63552 -7.93346,-0.0911 -7.53902,1.31643 1.557,5.55616 8.7648,4.08535 13.60481,7.83787 18.46379,14.31523 7.76893,10.35652 7.94013,21.16693 0.40937,25.85 -2.70701,1.68337 -3.97424,1.8568 -13.26126,1.81489 -8.88939,-0.0401 -11.16828,-0.3451 -16.97067,-2.27118 -6.70192,-2.22468 -13.99492,-6.45053 -15.13908,-8.77219 -0.33399,-0.6777 -1.56758,-3.31109 -2.74132,-5.85197 -2.42658,-5.25302 -8.90191,-12.69152 -10.29737,-11.82908 -1.08311,0.66939 -0.79228,1.78412 2.92496,11.21122 3.1212,7.91551 3.56933,13.22765 1.46745,17.39497 -4.27657,8.479 -13.00879,11.28131 -26.19293,8.40574 z m -94.44146,-86.23791 c 1.93783,-0.80968 2.84873,-1.72901 2.84873,-2.87511 0,-1.45229 -0.5166,-1.68483 -3.74288,-1.68483 -3.16207,0 -4.11504,-0.40747 -6.14124,-2.62588 -3.58674,-3.92698 -8.98442,-16.48156 -9.99608,-23.2501 -0.3694,-2.47146 2.29163,-2.47418 12.58527,-0.0129 4.98069,1.19093 9.83203,2.05068 10.78076,1.91056 4.75499,-0.70229 0.67038,-5.43395 -6.56117,-7.60053 -2.60069,-0.77918 -8.26034,-1.6166 -12.577,-1.86094 -9.33948,-0.52866 -10.63437,0.18891 -10.63437,5.89301 0,7.61505 9.31947,30.3668 13.20133,32.22861 2.77912,1.33291 6.87141,1.28417 10.23665,-0.12192 z m 84.6319,-9.10761 c 1.055,-2.38553 2.27242,-4.55627 2.70537,-4.82385 0.43296,-0.26758 2.33591,0.80741 4.22878,2.38885 7.21342,6.02664 9.35598,1.65097 2.6157,-5.34195 -6.2571,-6.49163 -9.99507,-5.5934 -13.33827,3.20519 -1.82285,4.79737 -2.02191,7.54649 -0.64606,8.92234 1.38854,1.38854 2.28558,0.50846 4.43448,-4.35058 z m 410.14679,-6.7474 c 1.60057,-3.04771 1.89572,-8.16516 0.64374,-11.16157 -1.4435,-3.45479 -4.2531,-4.52442 -7.90789,-3.01056 -2.52094,1.04422 -9.04075,7.5488 -9.04075,9.01965 0,1.68297 3.9465,0.77774 7.3463,-1.68506 1.91702,-1.38869 3.67928,-2.33109 3.91614,-2.09423 0.23686,0.23686 0.62049,2.20478 0.8525,4.37316 0.59439,5.55519 2.54948,7.6823 4.18996,4.55861 z m -458.76167,-9.68565 c 0.47747,-1.24425 -0.90083,-13.30444 -1.66107,-14.53454 -1.15355,-1.86648 2.65503,-0.12184 7.59328,3.47833 3.09862,2.25902 6.10385,4.1073 6.67828,4.1073 0.57442,0 1.04441,-0.94498 1.04441,-2.09996 0,-2.64702 -6.44305,-8.99663 -12.44225,-12.2618 l -4.2644,-2.32097 -1.91492,2.22623 c -2.18754,2.54316 -2.48923,6.73346 -0.99356,13.79997 1.57887,7.45958 4.55763,11.26056 5.96023,7.60544 z m 424.56511,-16.72074 c -0.5979,-9.21613 -6.7931,-12.74202 -12.92645,-7.35688 -3.36545,2.95491 -5.65268,6.8782 -5.00059,8.57753 0.70583,1.83936 1.92784,1.3864 5.74028,-2.12779 1.9606,-1.80721 3.9406,-3.28584 4.40002,-3.28584 0.45942,0 1.31069,1.20138 1.8917,2.66974 2.57474,6.50683 6.28049,7.46436 5.89504,1.52324 z m -363.4507,-4.67809 c 3.99866,-6.73521 3.56131,-6.6647 7.41803,-1.19588 3.39724,4.8173 5.32416,6.05759 6.12116,3.94 0.73357,-1.94905 -1.81633,-8.51383 -4.52331,-11.64534 -3.06353,-3.54399 -6.15748,-4.12264 -8.87816,-1.66045 -2.29948,2.08099 -6.82037,11.55461 -6.23809,13.07203 0.97435,2.53911 3.79056,1.38021 6.10037,-2.51036 z m 401.02849,-7.67548 c 0.4677,-0.8739 0.85036,-4.01599 0.85036,-6.98241 0,-4.29821 -0.33363,-5.72712 -1.64292,-7.03641 -0.9036,-0.9036 -2.02444,-1.64292 -2.49076,-1.64292 -3.65195,0 -11.09362,6.00211 -12.02052,9.6952 -0.88058,3.50847 0.85443,3.5586 5.38346,0.15555 2.39821,-1.80198 4.64502,-3.10041 4.99291,-2.88541 0.34789,0.21501 0.88825,2.31868 1.20081,4.67484 0.31255,2.35614 0.75275,4.58238 0.97821,4.94719 0.69698,1.12774 1.85896,0.7364 2.74845,-0.92563 z m -548.1049,-10.70238 c -0.56886,-4.24114 -3.12136,-9.41205 -4.79842,-9.72076 -0.8239,-0.15166 -1.71277,0.69966 -2.35868,2.25902 -0.5814,1.40364 -1.65082,2.50238 -2.4356,2.50238 -0.76949,0 -3.74678,-2.03311 -6.61619,-4.51802 -5.14641,-4.45679 -7.66522,-5.5 -8.4295,-3.49121 -1.57887,4.14978 11.30824,14.55597 18.07269,14.59349 1.24739,0.007 2.82245,0.37091 3.50016,0.80888 2.62207,1.69451 3.52329,0.97902 3.06554,-2.43378 z m 112.41046,-0.9531 c 7.46296,-1.87919 5.75882,-3.68538 -5.00244,-5.30199 -8.7505,-1.31454 -13.97035,-3.22021 -16.62477,-6.06939 -2.07146,-2.22345 -4.62612,-1.90516 -4.98617,0.62123 -0.51783,3.63344 6.8053,8.62356 15.46274,10.5366 5.8673,1.29651 6.78038,1.31399 11.15064,0.21355 z m 240.12023,-6.51243 c 5.91729,-0.96014 9.95326,-2.74492 9.95326,-4.40152 0,-1.63933 -2.62876,-2.05039 -7.12275,-1.11378 -7.00656,1.46027 -26.02119,0.97871 -35.43129,-0.89731 -22.57851,-4.50134 -40.86322,-12.49027 -65.02952,-28.41262 -5.18053,-3.41327 -9.89366,-6.20595 -10.47361,-6.20595 -2.31212,0 -0.92642,3.66468 2.61517,6.91621 8.55329,7.85277 37.74743,23.87015 51.58753,28.30354 17.95278,5.75079 39.77485,8.10356 53.90121,5.81143 z m 42.58199,-9.85668 c 9.75543,-2.25311 15.83738,-5.12543 15.83738,-7.47949 0,-1.21917 -5.80819,-0.74645 -11.44148,0.93122 -3.00172,0.89394 -9.13103,2.38118 -13.62071,3.30497 -8.98155,1.84803 -10.26778,2.52816 -8.59432,4.54456 1.32192,1.59282 7.12259,1.16922 17.81913,-1.30126 z m 86.91261,1.87667 c 0.46223,-0.33194 1.54781,-1.71249 2.41238,-3.0679 0.86458,-1.35541 3.53606,-4.77971 5.93661,-7.60956 4.5241,-5.33314 5.39541,-7.59046 2.9271,-7.58323 -3.76428,0.011 -9.96206,5.63582 -13.3303,12.09793 -2.41282,4.62908 -1.13762,8.4548 2.05421,6.16276 z M 429.87642,391.88972 c -0.30613,-5.83237 -0.80992,-7.81485 -3.18349,-12.52726 -4.73175,-9.39429 -17.29375,-20.79538 -22.91284,-20.79538 -0.92161,0 -1.67565,0.24366 -1.67565,0.54146 0,0.2978 3.66124,4.30459 8.13609,8.90396 7.63831,7.85087 11.74847,13.92016 13.63019,20.12713 2.01753,6.65491 3.93674,10.67897 5.09319,10.67897 1.08181,0 1.22079,-1.0553 0.91251,-6.92888 z m 299.53168,5.43708 c 0.61557,-1.93949 -0.80027,-9.34772 -2.36467,-12.37295 -1.33961,-2.59052 -2.75711,-3.3859 -6.03421,-3.3859 -3.2141,0 -11.67892,8.90895 -11.67892,12.29169 0,3.69451 1.80348,3.16117 6.99025,-2.0672 4.03447,-4.06685 6.15311,-5.03311 6.15311,-2.8063 0,0.41226 0.9038,2.79321 2.00844,5.29101 2.03072,4.59182 4.04144,5.83665 4.926,3.04965 z m -93.77817,-13.6316 c 8.81241,-5.30655 17.01967,-13.33643 17.01967,-16.65182 0,-2.92017 -2.8019,-1.62439 -10.40313,4.81108 -10.93963,9.26189 -14.47286,12.7805 -13.84832,13.79102 0.86278,1.39601 2.3333,0.99944 7.23178,-1.95028 z M 752.0462,373.52692 c 0,-0.89605 -1.71059,-2.50608 -4.38423,-4.12648 -2.41132,-1.46141 -6.3229,-4.31194 -8.6924,-6.3345 -4.52662,-3.86386 -6.37676,-4.4936 -7.16523,-2.43887 -0.95094,2.47813 4.0657,8.03572 10.79507,11.95912 4.7668,2.77917 9.44679,3.24521 9.44679,0.94073 z m -39.59435,-2.80223 c 1.97541,-1.97542 0.58361,-11.81026 -2.09832,-14.82735 -2.40871,-2.70972 -5.12955,-1.77803 -10.28283,3.52113 -2.65218,2.72728 -4.67449,5.40729 -4.49398,5.95558 0.69546,2.11252 3.8068,1.484 7.01881,-1.41785 1.78053,-1.60861 3.45552,-2.92474 3.7222,-2.92474 0.26668,0 0.8814,1.57104 1.36604,3.49121 1.75118,6.9382 2.74248,8.22761 4.76808,6.20202 z M 363.49584,349.68012 c 0,-7.39466 -4.60966,-15.75682 -8.68598,-15.75682 -3.4756,0 -12.26313,11.87582 -11.70114,15.81339 0.52351,3.66788 2.91864,2.57306 6.58753,-3.01117 3.76701,-5.73359 5.16671,-6.51502 6.37816,-3.5608 3.64493,8.88847 4.09847,9.65215 5.73232,9.65215 1.40961,0 1.68911,-0.51905 1.68911,-3.13675 z m -184.82839,1.04791 c 0,-1.84837 -7.35178,-9.4116 -9.14847,-9.4116 -3.07828,0 -1.02328,6.34888 3.05343,9.4335 2.15624,1.63149 6.09504,1.61734 6.09504,-0.0219 z m 254.98044,-1.88459 c 0.78014,-1.26228 -1.89828,-4.04335 -6.27057,-6.51092 -14.19276,-8.00989 -17.64901,-22.92138 -8.72554,-37.64504 3.13879,-5.17898 7.25626,-9.3689 14.61194,-14.86903 6.10306,-4.56349 6.9735,-6.00418 3.62763,-6.00418 -7.37027,0 -21.21127,11.88885 -26.28905,22.58123 -7.02499,14.79264 -3.61134,30.79986 8.18219,38.36775 5.42885,3.48368 13.81012,5.78445 14.8634,4.08019 z m -214.3182,-7.98926 c 5.2606,-1.46656 9.47099,-4.72174 8.02064,-6.201 -0.81644,-0.83271 -2.18469,-0.76217 -6.98241,0.35995 -6.62988,1.55065 -15.96876,1.80746 -20.32239,0.55886 -1.56428,-0.44863 -4.98049,-2.13431 -7.59158,-3.74598 -4.68851,-2.89391 -6.39337,-3.07751 -6.39337,-0.68854 0,2.97138 2.61675,6.02538 7.00033,8.17006 7.36356,3.60266 16.88327,4.16316 26.26878,1.54665 z m -49.54132,-14.71856 c 0.32032,-2.25011 1.54808,-6.73881 2.72834,-9.97489 2.36208,-6.47639 7.6199,-13.56115 8.66915,-11.6814 0.33881,0.60699 1.56324,4.94377 2.72095,9.63728 2.15734,8.74607 3.72577,11.59209 6.38839,11.59209 2.13132,0 1.99756,-3.97933 -0.55508,-16.51283 -5.0941,-25.0121 -6.71351,-53.25727 -3.31957,-57.89876 0.95332,-1.30374 1.34713,-1.25374 5.65326,0.71767 7.15751,3.27682 20.34888,12.62321 34.84495,24.68847 14.53789,12.10007 18.54655,14.89552 20.36141,14.19909 1.89316,-0.72648 1.44838,-2.45002 -1.63912,-6.35168 -2.40525,-3.03951 -2.67573,-3.77685 -1.73173,-4.72085 1.74202,-1.74203 7.03636,-0.43928 13.11558,3.22728 2.93779,1.77185 5.73133,3.22156 6.20789,3.22156 1.50818,0 0.93604,-4.54427 -0.80782,-6.41608 -3.87673,-4.16118 -7.98456,-5.45941 -17.92238,-5.66414 l -9.3284,-0.19218 -9.56517,-7.73631 c -24.21688,-19.58663 -37.20897,-26.32697 -43.19079,-22.40752 -4.48343,2.93765 -5.7712,17.42768 -3.63767,40.93094 l 0.94642,10.42588 -3.94644,4.3604 c -6.19259,6.84214 -11.00887,18.43146 -11.05782,26.60825 -0.0231,3.84903 0.48026,4.61437 2.81386,4.27885 1.32622,-0.19067 1.78909,-1.08097 2.25179,-4.33112 z m 139.8553,0.21176 c 0.70331,-1.00413 1.27876,-3.22207 1.27876,-4.92876 0,-3.66311 0.56251,-3.78672 4.63997,-1.01968 1.68852,1.14585 3.615,1.97758 4.28108,1.84828 2.47469,-0.48038 1.80824,-2.47313 -2.15134,-6.4327 -5.98783,-5.98783 -9.58007,-5.3412 -11.61224,2.09032 -1.17882,4.31084 -1.1473,8.05712 0.0781,9.28249 1.39337,1.39338 2.02863,1.24031 3.4857,-0.83995 z m -66.14991,-3.51486 c 2.6058,-2.4855 5.81285,-6.45931 7.12679,-8.83069 2.11803,-3.82256 2.38898,-5.11251 2.38898,-11.37311 0,-4.75471 -0.36583,-7.50232 -1.1199,-8.41091 -1.68199,-2.02668 -2.40596,-1.01336 -2.99378,4.19031 -0.82519,7.30496 -2.63337,11.97617 -7.45846,19.26803 -6.85159,10.35438 -5.89857,12.7441 2.05637,5.15637 z m 202.95261,-5.12198 c 27.00863,-10.62161 55.14157,-17.45342 87.7493,-21.30907 18.90194,-2.23504 58.60887,-2.02748 76.53447,0.40006 24.63259,3.33583 44.94715,8.92514 63.10238,17.36186 10.27987,4.77706 12.23195,5.08317 12.99625,2.03795 1.42693,-5.68534 -6.19151,-11.07923 -23.5002,-16.63825 -34.57982,-11.10597 -88.96454,-16.43422 -126.50477,-12.39408 -34.39071,3.70118 -86.37349,16.92807 -101.60137,25.85221 -4.07569,2.38851 -5.677,5.31078 -4.30991,7.86524 1.13275,2.11654 3.09773,1.7148 15.53385,-3.17592 z m 284.24188,-4.32373 c 0,-5.55793 -0.26324,-6.83491 -1.70643,-8.27811 -0.93854,-0.93853 -2.26257,-1.49302 -2.9423,-1.23219 -0.67972,0.26084 -1.57421,0.47425 -1.98777,0.47425 -1.48302,0 -7.32831,5.97323 -7.32831,7.48872 0,1.9121 1.54134,1.96092 5.3013,0.16792 1.59097,-0.75868 3.13561,-1.13647 3.43256,-0.83952 0.29694,0.29694 0.71827,2.3963 0.93629,4.66524 0.35382,3.68239 0.60568,4.12537 2.34553,4.12537 1.88878,0 1.94913,-0.2035 1.94913,-6.57168 z m -341.25381,-4.23917 c 5.63115,-5.32572 9.5778,-12.99629 10.01944,-19.47347 0.57678,-8.45923 -4.07093,-10.65358 -5.14081,-2.42715 -0.90163,6.93277 -3.91817,12.54002 -10.27058,19.09128 -3.1682,3.26739 -5.76038,6.18996 -5.76038,6.49461 0,0.30464 1.50076,0.5539 3.33501,0.5539 2.88916,0 3.93424,-0.56672 7.81732,-4.23917 z M 141.36494,305.931 c 2.50677,-7.70483 4.02227,-10.23217 9.86797,-16.45633 2.89032,-3.07745 5.25513,-6.16449 5.25513,-6.86008 0,-4.12704 -11.25609,3.09547 -15.66918,10.0542 -2.96318,4.67245 -4.03527,8.33445 -4.04127,13.80407 -0.008,7.30974 2.11439,7.05904 4.58735,-0.54186 z M 698.4974,274.35111 c 0.3102,-4.82577 -1.73481,-10.65828 -4.33419,-12.36146 -1.4404,-0.94378 -2.39821,-1.02519 -4.23169,-0.35966 -4.8192,1.7493 -6.14372,2.75452 -5.89749,4.47582 0.19852,1.3878 0.93063,1.7344 4.09417,1.93835 3.64161,0.23476 3.90608,0.41456 4.83323,3.28584 2.69726,8.35309 5.10866,9.66905 5.53597,3.02111 z M 556.37696,273.8661 c 0.35257,-3.03797 -3.38195,-7.30248 -6.39494,-7.30248 -4.01624,0 -4.45467,3.90116 -0.84419,7.51164 3.1731,3.17311 6.85896,3.06662 7.23913,-0.20916 z m 28.97614,0.15384 c 1.32066,-1.32065 2.40119,-2.95771 2.40119,-3.63789 0,-1.84711 -2.32509,-3.81843 -4.50367,-3.81843 -3.75997,0 -8.22271,8.073 -5.14848,9.31348 2.5249,1.01881 5.012,0.3818 7.25096,-1.85716 z m -161.56787,-3.00548 c 0.27424,-0.71466 0.49862,-3.97091 0.49862,-7.23613 0,-3.55285 0.42577,-6.51903 1.06032,-7.38683 0.9736,-1.33149 1.48001,-1.07559 6.192,3.12883 2.82242,2.5184 5.2723,4.57891 5.44416,4.57891 1.40348,0 2.91125,-1.24995 2.91125,-2.41344 0,-1.91132 -11.49596,-12.95569 -14.18895,-13.6316 -2.66806,-0.66963 -3.53429,-0.14946 -5.26082,3.15914 -1.66145,3.18389 -1.92284,16.38863 -0.3811,19.25221 1.15607,2.14725 3.00652,2.41997 3.72452,0.54891 z m 85.73452,-3.79722 c 5.60968,-2.07692 11.9231,-8.21754 14.80183,-14.39671 1.88189,-4.03946 2.20814,-5.83209 2.20814,-12.13289 0,-6.28536 -0.32807,-8.09722 -2.18949,-12.09216 -2.53268,-5.43557 -8.65396,-11.76743 -13.3924,-13.8531 -4.79271,-2.10958 -13.35344,-3.44907 -18.07211,-2.82773 -5.8686,0.77275 -10.41631,3.02275 -15.25207,7.54604 -17.63442,16.49493 -9.02592,45.45403 14.73507,49.56897 5.04468,0.87363 11.84633,0.1553 17.16103,-1.81242 z m 132.71921,-0.21112 c 12.54816,-5.93623 19.16028,-19.66656 15.88161,-32.97877 -3.46315,-14.06121 -16.10167,-23.32862 -30.29404,-22.2136 -7.13829,0.56081 -11.91237,2.7317 -17.38073,7.90345 -6.44245,6.09301 -9.08489,12.30539 -9.09448,21.38117 -0.006,5.79014 0.35444,7.76027 2.11155,11.53792 3.72834,8.01562 9.69415,13.28306 18.20623,16.07498 5.37743,1.76378 14.907,0.97381 20.56986,-1.70515 z M 274.71937,251.98271 c 0.45571,-1.69426 1.42072,-6.20309 2.14447,-10.0196 2.24236,-11.82459 3.40544,-12.40946 9.19006,-4.62138 4.48456,6.03772 7.28374,8.08015 8.47401,6.18306 0.41211,-0.65683 0.53824,-1.93354 0.28029,-2.83715 -0.72702,-2.5468 -5.62458,-9.7359 -9.17557,-13.46876 -6.20519,-6.52302 -10.30021,-3.52199 -13.61813,9.97997 -1.39672,5.68386 -1.95324,15.39186 -0.97325,16.97752 1.1297,1.82789 2.87668,0.78597 3.67812,-2.19366 z M 409.96288,232.7878 c -0.297,-4.13993 -0.16121,-7.99004 0.32713,-9.27448 1.03374,-2.71891 1.91456,-2.33337 9.21462,4.03323 2.84782,2.48367 5.64264,4.51577 6.21072,4.51577 1.58268,0 1.22805,-4.00831 -0.61905,-6.99698 -2.01923,-3.26719 -9.2024,-8.33797 -13.48743,-9.52112 -2.77777,-0.76698 -3.36392,-0.66647 -4.86453,0.83413 -1.44411,1.44411 -1.75682,2.96626 -2.03568,9.90918 -0.37661,9.37653 0.16954,13.35996 2.09585,15.28626 1.25195,1.25196 1.43357,1.23899 2.50794,-0.17895 0.89006,-1.1747 1.04067,-3.16767 0.65043,-8.60704 z m 167.22979,4.73178 c 5.37995,-2.56204 10.77404,-8.04825 13.30042,-13.52755 1.39912,-3.0345 1.77021,-5.39304 1.76752,-11.23401 -0.003,-6.48709 -0.28277,-7.9251 -2.28292,-11.73385 -2.8994,-5.52115 -7.55375,-10.17679 -13.07968,-13.0833 -3.86031,-2.03044 -5.2044,-2.28356 -12.14458,-2.28707 -7.10708,-0.004 -8.19399,0.21216 -12.17309,2.4164 -8.56802,4.7463 -13.36471,12.68004 -13.9328,23.0449 -0.1981,3.61442 0.0407,8.05599 0.53072,9.87015 2.10233,7.78357 9.45938,15.43275 17.36057,18.04991 5.69566,1.88661 14.93305,1.20876 20.65384,-1.51558 z m -278.1754,-28.1903 c 1.08168,-4.48225 1.43046,-4.73648 4.39489,-3.20351 3.19487,1.65213 5.86735,1.66656 5.86735,0.0317 0,-3.45989 -5.18719,-7.77496 -9.34637,-7.77496 -2.70576,0 -5.22169,3.32343 -5.89007,7.78055 -0.71985,4.80028 0.1004,7.17142 2.36901,6.84824 1.33036,-0.18952 1.98596,-1.1161 2.60519,-3.68199 z m 164.20239,-3.17678 c 0.69632,-0.69632 2.38699,-4.89855 3.75704,-9.33829 2.62485,-8.50598 4.9318,-12.39655 7.35063,-12.39655 0.80198,0 4.24258,2.99289 7.64578,6.65088 6.24709,6.71479 8.87391,7.9681 9.53253,4.54817 0.39166,-2.03373 -4.69887,-9.27536 -10.13272,-14.41447 -3.57128,-3.37757 -4.96532,-4.17771 -7.27857,-4.17771 -4.4401,0 -7.40249,3.08521 -10.38271,10.81318 -4.10223,10.63744 -5.48441,16.68658 -4.17363,18.26597 1.36219,1.64135 2.07961,1.65086 3.68165,0.0488 z m 189.42994,-4.57098 c 0,-7.7442 -4.95847,-20.57135 -8.59206,-22.22692 -3.96491,-1.80654 -7.60635,-0.17597 -14.09283,6.3105 -4.88733,4.88734 -6.0662,6.55284 -6.0662,8.57033 0,3.58293 1.5628,3.20215 7.42251,-1.80854 2.77388,-2.37196 5.96575,-5.05197 7.09304,-5.95558 l 2.04962,-1.64292 1.51424,1.86436 c 0.83284,1.02538 2.14149,3.79781 2.90812,6.16094 2.75537,8.49348 4.61,12.10046 6.22179,12.10046 1.2577,0 1.54177,-0.6214 1.54177,-3.37263 z m -51.70654,-8.3068 c -5.08729,-17.01189 -20.98221,-27.98215 -38.65401,-26.678 -8.14989,0.60144 -12.42721,2.21452 -19.05215,7.18501 -8.50176,6.37861 -15.61358,16.96844 -14.07978,20.96546 0.87939,2.29164 2.65509,1.10483 5.3152,-3.55248 11.66803,-20.42839 36.36658,-24.07692 53.34681,-7.88051 2.71827,2.59278 6.22856,6.83156 7.80065,9.41951 1.5721,2.58794 3.31033,4.87141 3.86275,5.07438 1.97275,0.72481 2.52258,-0.98184 1.46053,-4.53337 z m -155.91736,0.028 c 1.24246,-0.47836 2.25901,-1.37234 2.25901,-1.98663 0,-1.17157 -0.75915,-1.419 -8.39951,-2.73758 -5.6572,-0.97633 -8.95405,-2.57746 -11.20845,-5.44348 -2.16011,-2.74612 -4.53389,-2.37382 -4.89409,0.76759 -0.19357,1.68814 0.3823,3.03124 2.05365,4.7897 5.34528,5.62392 13.01061,7.37435 20.18939,4.6104 z m 85.83822,-36.40705 c 1.91779,-2.48319 3.83802,-4.5149 4.26717,-4.5149 0.42916,0 2.63468,1.88388 4.90116,4.18639 4.32879,4.39761 6.04809,4.79573 6.52621,1.51119 0.7003,-4.81078 -5.6655,-10.62633 -11.63176,-10.62633 -3.52311,0 -7.11517,2.78317 -10.04548,7.78337 -4.27568,7.2959 0.58786,8.64561 5.9827,1.66028 z m 36.14003,-2.25588 c 0.44482,-0.56476 1.05162,-2.04338 1.34842,-3.28584 0.54479,-2.28051 3.13637,-3.16651 4.20492,-1.43756 0.27923,0.45181 1.41002,0.82146 2.51286,0.82146 1.57553,0 2.00517,-0.42749 2.00517,-1.99516 0,-2.01326 -4.76067,-7.86235 -6.39929,-7.86235 -0.4762,0 -2.198,1.55634 -3.82621,3.45854 -3.04683,3.55954 -4.55262,7.36608 -3.91235,9.89018 0.42209,1.66398 2.88354,1.91259 4.06648,0.41073 z m -11.6844,-39.30108 c 1.1084,-6.56058 -0.94438,-16.954945 -4.01241,-20.317072 -1.99198,-2.182929 -5.41973,-1.980126 -8.16056,0.482819 -5.59633,5.028933 -12.00527,17.375353 -10.37566,19.988043 1.15159,1.84628 3.12357,0.0727 8.40149,-7.55631 6.73244,-9.731404 7.1303,-9.653768 8.85851,1.72869 0.51449,3.38852 1.27811,6.80784 1.69693,7.5985 1.33589,2.52192 2.99022,1.63542 3.5917,-1.92467 z M 512.52356,104.2375 c 1.76919,-0.6789 1.63207,-2.2315 -0.35596,-4.03065 -0.91044,-0.823927 -1.95049,-2.637085 -2.31123,-4.029242 -0.54513,-2.103708 -1.06328,-2.531192 -3.06806,-2.531192 -2.05396,0 -2.45267,0.355263 -2.68496,2.392384 -0.36486,3.199768 1.18002,5.86536 4.28799,7.39867 3.04353,1.50153 2.55211,1.40638 4.13222,0.80003 z"
     id="path64"
     transform="scale(0.75)" />
  <path
     style="fill:#ffffff;stroke-width:0.574408"
     d="m 491.86456,263.40598 c -1.8015,-0.57601 -4.38996,-1.70043 -5.75214,-2.49872 -3.55131,-2.08121 -8.30182,-7.33916 -10.10257,-11.18171 -1.35875,-2.89938 -1.54854,-4.00944 -1.54854,-9.05728 0,-5.32303 0.13879,-6.0351 1.85742,-9.52912 2.34965,-4.77692 6.90396,-9.1542 12.06708,-11.598 3.56049,-1.68524 4.3581,-1.83761 9.62624,-1.83894 5.19055,-0.001 6.0762,0.16107 9.19053,1.685 4.40596,2.15596 9.36899,7.11899 11.52495,11.52495 1.53976,3.14668 1.68645,3.97106 1.68645,9.47774 0,5.56578 -0.1379,6.31946 -1.78662,9.76494 -5.32902,11.13655 -16.3342,16.58557 -26.7628,13.25114 z m 12.23203,-11.13422 c 3.4654,-1.81994 6.26524,-6.42076 6.26524,-10.29528 0,-7.55472 -6.93363,-13.88818 -14.03793,-12.82283 -6.27646,0.94121 -10.31585,5.79094 -10.35318,12.43011 -0.0409,7.27923 4.70676,12.01753 12.04133,12.01753 2.60184,0 4.23066,-0.35591 6.08454,-1.32953 z"
     id="path65"
     transform="scale(0.75)" />
  <path
     style="fill:#ffffff;stroke-width:0.185616"
     d="m 561.85946,234.87684 c -7.20757,-1.03863 -13.53003,-5.94995 -16.42881,-12.76198 -1.30608,-3.06926 -1.88103,-5.90405 -1.87308,-9.23527 0.0213,-8.92519 5.78798,-17.12216 14.47663,-20.5776 4.39889,-1.74941 9.64897,-1.89816 14.05871,-0.39831 6.02223,2.04829 11.24618,7.17315 13.64058,13.38184 1.88622,4.89096 2.084,9.48829 0.60502,14.06325 -2.69793,8.34551 -9.08128,13.99507 -17.46463,15.45701 -1.70428,0.2972 -5.1994,0.33261 -7.01442,0.0711 z m 6.65538,-10.1083 c 2.15902,-0.55049 3.78107,-1.5013 5.50907,-3.2293 2.44735,-2.44735 3.43626,-4.79883 3.3984,-8.08091 -0.058,-5.02522 -3.83362,-9.88344 -8.60225,-11.0687 -1.29186,-0.32109 -4.95547,-0.31264 -6.31094,0.0146 -3.15792,0.7623 -5.70956,3.45105 -7.05551,7.43462 -0.57152,1.69153 -0.72451,5.35729 -0.29437,7.05341 0.51598,2.0346 1.15621,3.12282 2.78513,4.73401 2.40119,2.37505 4.7239,3.39523 7.78623,3.41987 0.92859,0.007 2.13995,-0.11329 2.78424,-0.27757 z"
     id="path66"
     transform="scale(0.75)" />
  <path
     style="fill:#ffffff;stroke-width:0.185616"
     d="m 626.45381,264.30111 c -6.15917,-1.08299 -11.99801,-4.89601 -15.48889,-10.11494 -1.41553,-2.11624 -2.02615,-3.3115 -2.77189,-5.42583 -1.78061,-5.04845 -1.86273,-10.54579 -0.2297,-15.37693 2.71598,-8.03494 9.93742,-14.18917 18.38092,-15.66454 2.35517,-0.41153 6.06353,-0.36848 8.34717,0.0969 9.1289,1.86035 15.72074,8.41153 17.74751,17.63805 0.46913,2.13562 0.57671,6.74607 0.21125,9.05345 -1.22362,7.72566 -5.93507,14.33733 -12.66458,17.77246 -4.03661,2.06053 -9.05003,2.80943 -13.53179,2.02138 z m 7.42464,-11.32003 c 3.66642,-0.97929 6.31347,-3.58805 7.51998,-7.41119 0.57019,-1.80679 0.71371,-5.42235 0.28736,-7.23902 -0.78848,-3.35966 -3.19789,-6.38692 -6.26498,-7.87147 -4.79502,-2.32092 -9.8697,-1.51536 -13.56485,2.1533 -4.3737,4.34236 -4.76272,11.13997 -0.92759,16.20858 1.69224,2.23651 4.1427,3.74485 7.10317,4.37224 1.46887,0.31129 4.26668,0.20963 5.84691,-0.21244 z"
     id="path67"
     transform="scale(0.75)" />
  <path
     style="fill:#ffffff;stroke-width:1.68385"
     d="m 94.006139,529.67625 c -8.553717,-3.88366 -12.484993,-9.5143 -13.609706,-19.49273 -0.468236,-4.15417 -1.526773,-7.55305 -2.352303,-7.55305 -1.685032,0 -4.060712,5.2319 -5.567056,12.26018 -2.099005,9.79351 -19.929845,15.14369 -25.233676,7.5714 -3.559295,-5.08161 -3.321724,-7.5975 1.588373,-16.8211 5.051908,-9.48998 5.078075,-9.7459 0.996545,-9.7459 -1.976144,0 -5.055256,2.9159 -7.998307,7.57433 -2.631869,4.16589 -5.670413,7.5757 -6.752317,7.57735 -11.906201,0.0182 -9.113397,-11.25716 6.176735,-24.93729 7.15422,-6.40092 7.444426,-6.99854 5.197023,-10.70223 -1.309177,-2.15748 -3.711119,-9.0964 -5.337646,-15.41979 -2.404869,-9.34931 -2.520755,-11.32954 -0.620349,-10.60029 6.01849,2.30951 3.41867,-3.43131 -6.315033,-13.94461 C 23.655845,424.07717 13.004551,407.39771 14.997,405.40526 c 0.559992,-0.55999 6.886434,-0.12496 14.058761,0.96673 15.779088,2.40173 23.985646,2.51738 23.985646,0.33804 0,-2.42825 -4.795306,-4.50785 -15.446257,-6.69864 -13.339841,-2.74388 -14.193394,-4.19204 -11.746706,-19.92975 2.48316,-15.97232 4.385589,-18.26007 7.133164,-8.57795 1.149281,4.04992 3.246784,8.31067 4.661119,9.46832 4.832794,3.9557 20.450242,1.66009 20.450242,-3.00599 0,-0.89354 -3.433586,-1.62461 -7.630191,-1.62461 -5.777395,0 -7.864047,-0.71554 -8.593261,-2.94675 -0.529688,-1.62071 -3.664422,-9.76635 -6.966076,-18.10143 -10.437983,-26.35086 -16.660732,-51.35755 -12.779985,-51.35755 1.105401,0 18.35653,11.55392 41.538391,27.82028 7.230421,5.07348 13.860597,9.22451 14.733724,9.22451 3.575491,0 1.1985,-5.57963 -4.66564,-10.95189 -3.439227,-3.15075 -5.835799,-6.14597 -5.325716,-6.65606 0.510085,-0.51008 5.230598,-1.72291 10.490033,-2.69517 29.593042,-5.47057 62.573012,18.92307 76.123362,56.30465 11.76422,32.45416 8.29368,63.3586 -9.25282,82.3943 -7.77914,8.43936 -18.5737,13.70329 -31.68367,15.45042 -10.78504,1.43729 -11.39338,3.64058 -1.4182,5.13645 7.58349,1.13721 14.46713,0.26584 24.10791,-3.05169 6.99017,-2.40541 7.95546,-1.24182 4.94566,5.96162 l -2.45032,5.86445 7.58909,6.34368 c 10.8526,9.07166 14.95531,19.77702 9.6229,25.10943 -5.71467,5.71468 -26.02841,0.34674 -28.5314,-7.53947 -1.51485,-4.77289 -10.91565,-15.27303 -12.6914,-14.17556 -0.78828,0.48719 -0.0494,4.11418 1.64199,8.05999 5.36226,12.50965 5.7115,16.85773 1.75775,21.88411 -2.85636,3.63128 -4.93871,4.51284 -10.58968,4.48314 -3.86879,-0.0203 -10.195469,-1.47231 -14.059281,-3.22662 z M 76.825847,474.52029 c 0.816422,-1.51082 -8.128968,-6.68575 -14.102279,-8.15822 -3.573019,-0.88078 -4.630599,-0.53645 -4.630599,1.5076 0,2.75749 4.318173,5.67542 11.688644,7.89841 4.267782,1.28721 5.823256,1.01168 7.044234,-1.24779 z m 9.050716,-20.72159 c 1.1546,-3.63782 3.384549,-4.38114 5.051563,-1.68385 1.450999,2.34776 7.577343,2.11461 7.577343,-0.28838 0,-3.75821 -5.596082,-8.13089 -10.405777,-8.13089 -3.688197,0 -5.237331,1.0654 -6.543166,4.50001 -1.817889,4.78141 -1.057636,8.97082 1.627938,8.97082 0.892776,0 2.104222,-1.51547 2.692099,-3.36771 z M 58.09649,436.95166 c 2.427517,-5.86054 1.518267,-22.71721 -1.381796,-25.61728 -1.063319,-1.06332 -2.226522,-1.60495 -2.5849,-1.20363 -0.358376,0.40132 -1.033607,7.73871 -1.500511,16.30532 -0.643698,11.81033 -0.338818,15.57565 1.26117,15.57565 1.160549,0 3.053267,-2.27703 4.206037,-5.06006 z m 16.835021,-25.33501 v -6.82111 l 5.631467,4.29533 c 6.450591,4.92011 7.839366,5.25648 7.839366,1.89874 0,-4.73127 -8.498028,-12.7581 -13.507046,-12.7581 -5.781429,0 -7.471611,3.91567 -5.845279,13.54185 1.551553,9.18357 5.881492,9.0682 5.881492,-0.15671 z m 28.812559,-41.58969 c 3.74787,-8.72667 3.87959,-8.68928 10.32134,2.92975 3.40706,6.14533 6.84313,5.26328 5.25548,-1.3491 -3.35369,-13.96768 -12.42679,-22.84954 -16.43153,-16.08519 -5.33197,9.00618 -7.925433,22.50284 -4.324052,22.50284 0.959033,0 3.289472,-3.59924 5.178762,-7.9983 z m -25.925032,-6.99609 c 3.846817,-5.70829 5.198049,-13.63113 2.324773,-13.63113 -1.397731,0 -11.947717,17.18544 -11.947717,19.46228 0,2.92134 6.295438,-0.89347 9.622944,-5.83115 z"
     id="path68"
     transform="scale(0.75)" />
  <path
     style="fill:#ffffff;stroke-width:0.173666"
     d="m 213.78228,500.47223 c -0.28655,-0.0405 -2.08399,-0.38404 -3.99431,-0.76344 -15.01145,-2.98137 -29.85446,-9.31814 -37.45578,-15.9906 -3.87221,-3.39904 -6.76192,-5.37688 -10.85049,-7.42654 -2.73653,-1.37187 -5.11875,-2.95812 -6.62789,-4.41334 -0.41278,-0.39804 -1.41692,-1.56793 -2.23143,-2.59977 l -1.48093,-1.87607 1.74742,-2.29511 c 4.63755,-6.09108 5.14428,-6.52664 6.67324,-5.73599 0.30473,0.15758 1.92245,1.62609 3.59493,3.26335 1.67249,1.63726 3.70515,3.49117 4.51704,4.1198 6.45685,4.99947 15.12277,8.84179 24.18723,10.72421 3.02853,0.62893 5.22353,0.93462 10.70955,1.49149 2.33464,0.23698 4.2967,0.49008 4.36013,0.56244 0.0634,0.0724 0.56318,1.3038 1.11055,2.73654 2.45158,6.41698 4.41259,10.48704 6.83824,14.19273 2.41867,3.695 2.46229,4.02679 0.53419,4.06303 -0.61088,0.0115 -1.34514,-0.0122 -1.63169,-0.0527 z"
     id="path69"
     transform="scale(0.75)" />
  <path
     style="fill:#ffffff;stroke-width:0.173666"
     d="m 166.68284,505.97195 c -1.01305,-0.51816 -2.69141,-2.35669 -4.12263,-4.51604 -3.28127,-4.95064 -7.30473,-9.45863 -10.25599,-11.49109 -1.55979,-1.07419 -3.32451,-2.87476 -3.49903,-3.57012 -0.0648,-0.2581 0.0114,-0.93473 0.17393,-1.54465 0.15906,-0.59695 0.3395,-1.68035 0.40098,-2.40757 0.14582,-1.72511 0.46717,-2.17043 1.56621,-2.17043 2.92869,0 10.11643,3.42653 14.20962,6.774 1.8597,1.52089 4.5656,4.4276 5.78938,6.21902 4.77666,6.9923 3.85271,12.67133 -2.11539,13.00213 -1.20588,0.0668 -1.52492,0.023 -2.14708,-0.29525 z"
     id="path70"
     transform="scale(0.75)" />
  <path
     style="fill:#ffffff;stroke-width:0.593427"
     d="m 49.060191,311.79435 c -4.62575,-3.29214 -8.410454,-6.30244 -8.410454,-6.68956 0,-1.39498 4.515924,-8.37518 7.557666,-11.68179 1.708831,-1.85762 3.978689,-3.80123 5.044128,-4.31913 2.967495,-1.44246 3.456296,-0.52227 4.066655,7.65567 0.576449,7.7236 1.367215,10.93226 2.694225,10.93226 1.511693,0 2.480207,-3.62199 3.448327,-12.89584 2.131865,-20.42166 7.660084,-34.02958 19.321219,-47.5599 2.637328,-3.06008 5.161743,-6.2727 5.60981,-7.13917 0.448068,-0.86647 1.005826,-3.83713 1.239462,-6.60148 0.233637,-2.76435 0.664595,-5.4888 0.957685,-6.05433 0.293091,-0.56554 3.530187,-3.26941 7.193548,-6.0086 11.299838,-8.44919 24.289658,-22.97589 32.073538,-35.86832 3.61621,-5.98953 5.71707,-11.1725 6.35339,-15.67431 0.27395,-1.9381 0.9082,-4.14972 1.40943,-4.9147 0.50123,-0.76498 3.52286,-3.6458 6.71475,-6.40184 3.19187,-2.75604 6.30313,-5.57146 6.91388,-6.25649 2.73058,-3.06261 -1.72153,-4.24728 -5.67235,-1.50936 -1.90672,1.32136 -2.39633,1.44079 -3.19368,0.77906 -5.16377,-4.28556 -10.98233,-34.74881 -11.16848,-58.472981 -0.0494,-6.292181 0.13601,-8.606065 0.74883,-9.346472 2.15106,-2.598936 4.26371,-0.823487 19.30694,16.225351 5.90378,6.690892 12.97805,14.504082 15.72059,17.362652 l 4.98645,5.1974 -3.52711,3.704 c -4.40031,4.621 -5.92699,6.78888 -7.07337,10.04413 -0.49609,1.4087 -1.53528,3.49592 -2.30932,4.63827 -1.5902,2.34684 -2.41761,6.01512 -3.23568,14.34527 -0.66052,6.72593 -1.22488,7.98093 -4.80315,10.68103 -5.51069,4.15828 -9.76392,12.67993 -9.78146,19.59788 -0.017,6.70133 2.10015,6.9445 4.14653,0.47626 2.52582,-7.98371 6.79154,-13.63566 12.87839,-17.06349 4.46161,-2.51258 4.86412,-3.3484 4.07178,-8.45514 -1.68187,-10.83986 0.15789,-15.18052 5.94369,-14.02336 0.9824,0.19648 3.62099,1.16254 5.86355,2.1468 5.11981,2.2471 6.97255,2.3133 7.74683,0.27678 0.69746,-1.83446 -0.11475,-5.96629 -1.4317,-7.28324 -0.82595,-0.82594 -1.02487,-0.81781 -2.01987,0.0827 -1.44354,1.30638 -1.88233,1.27125 -6.05437,-0.48474 -1.93864,-0.81596 -4.20045,-1.48357 -5.02625,-1.48357 -0.82579,0 -1.50145,-0.29966 -1.50145,-0.66593 0,-1.08645 9.49639,-10.52231 13.42793,-13.34235 2.00001,-1.43457 4.50944,-2.78293 5.57653,-2.99635 1.86708,-0.37342 1.92517,-0.32833 1.54225,1.19731 -0.21883,0.87193 -1.3263,3.03667 -2.46103,4.81054 -2.24002,3.5017 -2.59338,5.66399 -1.12482,6.88279 0.77027,0.63927 1.15921,0.64079 2.17166,0.009 0.74162,-0.46315 4.80362,-0.98936 10.18842,-1.31986 16.58979,-1.01822 26.46447,-4.72565 24.98684,-9.38127 -0.48508,-1.52835 -0.52757,-1.52603 -5.35927,0.29262 -5.28145,1.98793 -10.85015,3.12314 -17.67314,3.60275 l -5.57159,0.39164 -0.36065,-8.83408 c -0.19836,-4.85875 -0.82425,-12.7062 -1.39087,-17.43878 -1.2833,-10.718562 -1.46456,-38.812245 -0.3216,-49.84785 1.40244,-13.540984 4.03139,-23.824429 6.31469,-24.700613 1.4575,-0.559296 2.52641,0.679125 8.51465,9.864943 14.49238,22.230973 22.31841,33.294055 31.27436,44.210297 7.24501,8.830803 9.85163,11.042041 15.25664,12.942479 0.93447,0.328563 0.94811,0.565892 0.16085,2.797242 -1.17797,3.338712 -2.98156,5.729592 -5.54807,7.354642 -3.3158,2.09949 -15.11131,11.56791 -16.04961,12.88325 -2.43338,3.41118 3.84765,2.65297 9.39543,-1.13417 6.96217,-4.75264 17.33809,-16.65678 19.05628,-21.862967 0.80786,-2.447814 0.0303,-3.78236 -2.20384,-3.78236 -0.79221,0 -2.22824,-0.407423 -3.19119,-0.905379 -2.14423,-1.10883 -2.31409,-3.106572 -0.4156,-4.888111 3.44017,-3.228247 16.47066,-7.655741 24.3305,-8.266998 l 4.59906,-0.357668 v 12.462162 c 0,11.933411 0.0567,12.547711 1.33607,14.478561 2.64569,3.99288 10.50111,6.27401 16.15462,4.69112 1.84483,-0.51652 2.68582,-1.06964 2.68582,-1.76646 0,-1.25879 -1.70536,-2.06012 -6.261,-2.94199 -1.9418,-0.37588 -4.16449,-0.81983 -4.93932,-0.98654 l -1.40877,-0.30313 0.32692,-19.404958 c 0.40346,-23.94698 1.92597,-37.326429 5.2623,-46.243579 2.05415,-5.490202 3.36882,-5.003743 9.58681,3.54736 4.51834,6.213691 17.64423,26.246233 23.3468,35.631517 5.21555,8.583756 6.28789,11.032288 6.21664,14.194838 -0.0799,3.546728 1.04438,3.766551 4.2494,0.830863 1.72208,-1.577358 2.19296,-2.451369 2.19296,-4.070362 0,-2.079564 -0.54735,-3.28133 -6.74142,-14.801559 -3.33333,-6.199589 -3.38173,-6.356607 -2.16081,-7.010027 2.40789,-1.288659 3.75028,-0.51257 5.63838,3.259753 1.32297,2.643221 2.38174,3.890372 4.12171,4.855066 4.13013,2.289874 13.47518,3.276144 18.31296,1.932736 2.07698,-0.576758 3.38538,-1.931847 2.61201,-2.705219 -0.17632,-0.176322 -3.69196,-0.828958 -7.81253,-1.450301 -9.36867,-1.412707 -10.97342,-2.159496 -10.99408,-5.116223 -0.0123,-1.760907 3.44408,-13.039487 7.47303,-24.385384 5.86403,-16.513655 8.87963,-21.706696 11.72511,-20.191357 1.69221,0.901172 2.30634,1.735303 5.37807,7.30474 5.24148,9.503437 13.46438,28.862349 15.12386,35.605609 0.79912,3.247179 1.27719,4.191761 2.19001,4.327024 1.86805,0.276808 3.99671,-2.49591 4.36334,-5.683521 l 0.32176,-2.797491 4.07965,0.191236 c 5.74389,0.269248 6.90127,0.808107 6.88659,3.20628 -0.007,1.068829 -0.66879,4.480225 -1.47167,7.58088 -1.66526,6.431101 -1.89873,10.785236 -0.63456,11.834397 1.13648,0.943198 4.49129,0.9952 5.0579,0.0784 0.24917,-0.40315 0.62495,-2.969709 0.83508,-5.70347 0.57351,-7.461175 4.62712,-19.26472 6.61595,-19.26472 1.07237,0 2.84164,2.208842 7.12996,8.901403 4.39769,6.863239 6.58547,9.494829 7.89356,9.494829 1.45652,0 0.46188,-4.974222 -3.10507,-15.528414 -5.98915,-17.721231 -5.74311,-19.160772 2.35587,-13.784097 4.87354,3.235393 8.31851,6.399 9.57279,8.790934 1.36555,2.604151 0.63338,5.963262 -3.02096,13.85981 -10.26049,22.171564 -15.2978,42.792237 -15.42785,63.155317 -0.0367,5.74929 -0.31242,10.14517 -0.65672,10.47081 -0.32638,0.30869 -1.4062,0.73203 -2.39959,0.94074 -2.43723,0.51208 -3.20805,-0.42228 -9.02198,-10.93612 -12.87773,-23.28791 -16.7662,-31.32459 -16.7662,-34.652293 0,-1.896752 1.70896,-3.069731 5.7283,-3.931719 1.67334,-0.358869 3.53915,-1.019252 4.14626,-1.467515 2.08456,-1.539159 0.072,-2.267009 -7.33743,-2.653556 -3.84331,-0.200501 -7.4292,-0.621199 -7.96865,-0.934884 -0.53945,-0.313686 -2.14171,-2.301559 -3.56056,-4.417493 -11.00385,-16.409999 -22.22323,-1.542287 -27.53255,36.48563 -0.82023,5.87493 -1.62364,11.52251 -1.78533,12.55019 -0.26105,1.65909 -0.74117,2.05719 -4.28402,3.55223 -6.20383,2.61792 -14.00705,8.1736 -21.10025,15.0228 -7.37047,7.11695 -10.34253,10.79889 -14.08877,17.45396 -4.51463,8.02006 -7.46071,9.26808 -12.79815,5.42156 -7.31015,-5.26819 -7.34208,-5.28398 -11.17899,-5.5283 -4.36226,-0.27777 -7.71102,0.96432 -12.44404,4.61562 -3.70761,2.86025 -7.51567,4.52212 -13.61809,5.94307 l -4.70754,1.09615 -11.99049,-8.52112 c -25.40574,-18.05475 -35.93016,-24.01181 -42.42202,-24.01181 -2.7807,0 -5.00392,1.7048 -6.00969,4.60834 -1.16236,3.35558 -0.78669,13.80616 0.94012,26.15314 0.83704,5.98493 1.52188,11.38932 1.52188,12.00977 0,0.77356 -1.87242,2.35878 -5.95799,5.04412 -17.37791,11.42208 -34.05918,33.81235 -40.99441,55.02438 -1.30207,3.98251 -3.00741,8.21713 -3.78964,9.41027 -0.78223,1.19314 -4.10352,5.02095 -7.38066,8.50626 -11.55233,12.28616 -18.37079,24.66774 -22.00039,39.95032 -0.64966,2.73541 -1.3804,5.31652 -1.62386,5.73581 -0.34668,0.59704 -1.66501,0.39088 -6.08022,-0.95086 -13.68641,-4.15914 -26.388432,-4.53565 -39.462883,-1.16974 -3.916617,1.0083 -7.829929,2.23484 -8.696249,2.72563 -0.866321,0.49079 -1.955135,0.89235 -2.419587,0.89235 -0.464451,0 -4.629161,-2.69357 -9.25491,-5.98571 z m 36.450338,-25.1853 c 0.207016,-0.82481 0.27016,-4.14456 0.140319,-7.3772 l -0.236072,-5.87753 1.799623,0.34758 c 0.989793,0.19117 3.41803,0.79059 5.396082,1.33206 4.176277,1.1432 5.00823,1.00752 5.00823,-0.81678 0,-2.9128 -6.364085,-6.28497 -11.861222,-6.28497 -4.475889,0 -4.926914,1.02247 -4.666293,10.57851 0.217412,7.97172 0.715573,9.598 2.940055,9.598 0.684657,0 1.245618,-0.56869 1.479278,-1.49967 z m 31.967351,-12.35739 c 1.46059,-1.06801 1.08207,-3.6842 -2.02818,-14.01807 -4.07268,-13.53157 -5.31661,-22.7615 -3.17818,-23.58209 1.30917,-0.50238 13.31455,3.56296 19.09006,6.46442 5.34941,2.68738 6.81638,2.81525 8.1931,0.71412 1.87774,-2.86579 0.47404,-4.02972 -10.01111,-8.30117 -13.19399,-5.37499 -18.01545,-6.48042 -21.44653,-4.91712 -0.79532,0.36238 -1.74254,1.3096 -2.10492,2.10492 -1.04787,2.29983 -0.7665,11.05904 0.5659,17.61623 2.01009,9.89245 5.83981,23.16874 6.91695,23.97865 1.27788,0.96084 2.63473,0.94054 4.00291,-0.0599 z m 20.81377,-52.16167 c 0.15546,-0.40799 0.48555,-2.34404 0.73353,-4.30235 l 0.45087,-3.56056 4.34138,0.21046 c 4.21755,0.20446 4.33574,0.17233 4.14361,-1.12625 -0.32552,-2.20016 -4.17246,-4.85025 -7.50571,-5.17053 -3.57094,-0.34312 -5.28528,0.50126 -6.39111,3.14789 -1.47134,3.52141 -0.82978,9.83337 1.12586,11.07689 1.09446,0.69591 2.78874,0.54539 3.10157,-0.27555 z m 24.69702,-16.61596 c 0.41861,-0.76757 0.88175,-4.93038 1.08942,-9.79191 0.20869,-4.88575 0.63782,-8.7333 1.01626,-9.11174 0.47777,-0.47777 2.0116,0.0844 5.66771,2.07736 5.58414,3.04392 8.42262,3.51049 9.06394,1.48986 0.28288,-0.89129 -0.0563,-1.71299 -1.19998,-2.90669 -2.06976,-2.16037 -12.08259,-7.12587 -14.36917,-7.12587 -3.27469,0 -4.69207,2.68504 -5.59115,10.59174 -0.71698,6.30519 -0.10096,13.57907 1.29216,15.25767 1.02619,1.23649 2.19554,1.05114 3.03081,-0.48042 z M 268.761,153.91423 c 1.61809,-0.73725 2.57613,-2.88551 1.82722,-4.09727 -0.23343,-0.3777 -1.22203,-0.5669 -2.20688,-0.42235 -1.61053,0.23637 -1.88874,0.0251 -2.86059,-2.17189 -1.64828,-3.72619 -2.32656,-9.27301 -2.33148,-19.06621 -0.004,-8.43562 0.92212,-15.08208 2.2936,-16.45637 1.1445,-1.14684 12.31213,9.21663 18.9977,17.62972 2.58042,3.24719 3.62815,5.06852 3.62815,6.30704 0,1.54505 0.20378,1.74141 1.80725,1.74141 2.21424,0 4.72044,-2.31745 4.72044,-4.36493 0,-2.11433 -4.16354,-7.31537 -13.14694,-16.42294 -10.72536,-10.87362 -14.30797,-13.25734 -17.8825,-11.89831 -3.6341,1.38168 -5.31146,7.79252 -6.37841,24.3782 -0.60166,9.35272 -0.13744,20.49132 0.97482,23.38981 0.96225,2.50756 6.55494,3.27784 10.55762,1.45409 z m -34.23363,-5.75994 1.06308,-3.35815 4.30234,0.20965 c 3.68827,0.17973 4.30234,0.0698 4.30234,-0.77011 0,-2.13399 -7.34867,-7.05303 -10.06377,-6.73648 -2.25059,0.26239 -3.85165,3.91936 -3.86842,8.83584 -0.0226,6.62208 2.41484,7.66191 4.26443,1.81925 z m 77.89974,-11.63426 c 0.30356,-0.79845 0.84019,-5.53844 1.19249,-10.53333 1.12173,-15.9035 2.14445,-19.64109 4.97694,-18.18856 0.69328,0.35552 4.509,3.8384 8.47937,7.73975 6.23849,6.13004 7.44735,7.06719 8.9014,6.90069 2.14311,-0.24539 4.14409,-3.62382 3.54949,-5.9929 -0.30311,-1.20772 -0.94638,-1.72345 -2.75814,-2.2113 -1.32328,-0.35633 -3.97005,-1.99745 -6.01596,-3.73018 -9.69685,-8.21252 -11.49172,-9.33788 -14.84261,-9.30606 -1.09302,0.0104 -2.45242,0.37202 -3.0209,0.80362 -3.17985,2.41428 -5.41751,13.92976 -5.10696,26.28152 0.11346,4.51269 0.42233,8.53869 0.68638,8.94667 0.85889,1.32706 3.35418,0.87954 3.9585,-0.70992 z"
     id="path71"
     transform="scale(0.75)" />
  <path
     style="fill:#ffffff;stroke-width:0.593427"
     d="m 91.775341,213.69627 c -5.922271,-9.7717 -17.90472,-46.69879 -18.873985,-58.16517 -0.295386,-3.49441 -0.188135,-4.37395 0.614597,-5.04016 1.330347,-1.10409 4.974895,0.7535 21.146449,10.77812 7.023228,4.35364 16.398398,10.09927 20.833728,12.76807 4.43532,2.66879 8.38609,5.24019 8.7795,5.71422 0.56574,0.68167 0.50269,1.27398 -0.30158,2.83312 -3.72005,7.21163 -26.929196,34.31303 -29.385056,34.31303 -0.480427,0 -1.746571,-1.44055 -2.813653,-3.20123 z"
     id="path72"
     transform="scale(0.75)" />
  <path
     style="fill:#ffffff;stroke-width:0.593427"
     d="m 55.087804,273.61052 c -7.16012,-8.05155 -19.431909,-30.72192 -23.982234,-44.30373 -2.805185,-8.37292 -2.264662,-10.32331 2.467998,-8.90537 2.634134,0.7892 41.98202,18.31227 43.126848,19.20598 1.247524,0.97387 0.893047,1.77587 -3.485734,7.8864 -4.624946,6.45406 -10.714448,18.17749 -12.140634,23.37301 -1.199511,4.36975 -1.885065,5.9668 -2.561318,5.9668 -0.307276,0 -1.848493,-1.45039 -3.424926,-3.22309 z"
     id="path73"
     transform="scale(0.75)" />
  <path
     style="fill:#ffffff;stroke-width:0.593427"
     d=""
     id="path74"
     transform="scale(0.75)" />
  <path
     style="fill:#ffffff;stroke-width:0.593427"
     d="m 396.46473,53.543644 c -1.03238,-0.774227 -1.0674,-1.102387 -0.40077,-3.75564 0.93613,-3.725877 7.02903,-16.37593 9.49241,-19.708099 1.52718,-2.065793 2.19628,-2.522965 3.47406,-2.373707 1.77969,0.207885 3.64501,2.606749 5.2067,6.695985 0.96453,2.52558 0.95228,2.67224 -0.53326,6.38551 -0.83626,2.090307 -1.7038,4.947092 -1.92788,6.34841 -0.33502,2.095065 -0.7348,2.695208 -2.24959,3.377036 -1.0132,0.456052 -2.57296,1.410277 -3.46613,2.1205 -2.05823,1.636644 -7.88922,2.189633 -9.59554,0.910005 z"
     id="path75"
     transform="scale(0.75)" />
  <path
     style="fill:#ffffff;stroke-width:0.593427"
     d="m 509.61358,77.698859 c -5.06815,-1.110728 -7.27778,-2.330868 -7.27778,-4.01873 0,-2.67167 12.72455,-19.75312 15.96183,-21.427185 1.55976,-0.806581 1.78216,-0.783253 2.75224,0.288676 1.12598,1.244193 3.83078,10.499331 3.83414,13.119441 0.002,1.833036 -3.74895,9.392674 -5.71198,11.510816 -1.5655,1.689207 -3.71468,1.807695 -9.55845,0.526982 z"
     id="path76"
     transform="scale(0.75)" />
  <path
     style="fill:#ffffff;stroke-width:0.0399617"
     d="m 417.87313,156.63264 c -0.34792,-0.23234 -1.02053,-0.94547 -1.73638,-1.841 -1.6857,-2.10884 -2.47948,-3.38473 -2.63241,-4.23124 -0.0845,-0.46752 0.0805,-0.82153 0.4677,-1.00385 0.26964,-0.12695 0.80365,-0.21111 1.21643,-0.1917 0.30324,0.0143 0.38471,0.0354 0.65802,0.17043 0.73541,0.36346 1.49135,1.37493 1.82687,2.44441 0.26002,0.82881 0.69754,2.68902 0.80358,3.4165 0.18129,1.24388 -0.009,1.63362 -0.60381,1.23645 z"
     id="path77"
     transform="scale(0.75)" />
  <path
     style="fill:#ffffff;stroke-width:0.435345"
     d="m 749.96737,303.97389 c -0.81442,-0.98131 -1.36927,-4.30485 -2.05223,-12.29271 -0.36849,-4.30991 -0.99217,-9.69731 -1.38595,-11.97199 -0.39378,-2.27467 -0.73108,-4.58499 -0.74955,-5.13403 -0.0305,-0.90626 0.97919,-1.39847 10.95573,-5.34088 14.5222,-5.7387 16.64772,-6.00037 15.97493,-1.96665 -1.25658,7.53377 -12.47816,27.87445 -19.30721,34.99702 -2.28829,2.38664 -2.70251,2.59271 -3.43572,1.70924 z"
     id="path78"
     transform="scale(0.75)" />
  <path
     style="fill:#ffffff;stroke-width:0.305114"
     d="m 587.95471,107.83984 c -8.08799,-6.08161 -8.37051,-6.59924 -5.60177,-10.263474 2.72973,-3.612604 7.32323,-8.616477 9.21589,-10.039216 1.56688,-1.177844 2.00071,-1.359647 3.05735,-1.281247 1.02153,0.07579 1.32958,0.260104 1.80762,1.081519 2.01084,3.455228 2.42403,11.497914 0.85043,16.553868 -0.55157,1.77221 -3.82095,7.63307 -4.2527,7.62361 -0.10724,-0.002 -2.39181,-1.65613 -5.07682,-3.67506 z"
     id="path79"
     transform="scale(0.75)" />
  <path
     style="fill:#ffffff;stroke-width:0.0682812"
     d="m 484.75111,79.648291 c -0.40866,-0.21588 -0.58563,-0.669301 -0.67889,-1.739415 -0.0868,-0.996518 -0.0406,-3.012382 0.0823,-3.585211 0.21961,-1.024024 0.88476,-1.003834 3.37344,0.102398 2.9827,1.325824 4.26758,2.221779 4.26758,2.975815 0,0.212524 -0.0518,0.324982 -0.25172,0.546246 -0.41354,0.457736 -1.05994,0.739816 -2.75265,1.20122 -2.35951,0.643159 -3.50032,0.78405 -4.04003,0.498947 z"
     id="path80"
     transform="scale(0.75)" />
</svg>
