<?xml version="1.0" encoding="UTF-8" standalone="no"?>
<svg
   version="1.0"
   width="562.000000pt"
   height="600.000000pt"
   viewBox="0 0 562.000000 600.000000"
   preserveAspectRatio="xMidYMid meet"
   id="svg52"
   sodipodi:docname="frog15_t2.svg"
   inkscape:version="1.4.3 (0d15f75, 2025-12-25)"
   xmlns:inkscape="http://www.inkscape.org/namespaces/inkscape"
   xmlns:sodipodi="http://sodipodi.sourceforge.net/DTD/sodipodi-0.dtd"
   xmlns="http://www.w3.org/2000/svg"
   xmlns:svg="http://www.w3.org/2000/svg">
  <defs
     id="defs52" />
  <sodipodi:namedview
     id="namedview52"
     pagecolor="#505050"
     bordercolor="#ffffff"
     borderopacity="1"
     inkscape:showpageshadow="0"
     inkscape:pageopacity="0"
     inkscape:pagecheckerboard="1"
     inkscape:deskcolor="#505050"
     inkscape:document-units="pt"
     inkscape:zoom="1.09125"
     inkscape:cx="374.79954"
     inkscape:cy="400"
     inkscape:window-width="1920"
     inkscape:window-height="1022"
     inkscape:window-x="0"
     inkscape:window-y="30"
     inkscape:window-maximized="1"
     inkscape:current-layer="svg52" />
  <g
     transform="translate(0.000000,600.000000) scale(0.050000,-0.050000)"
     fill="#000000"
     stroke="none"
     id="g52">
    <path
       d="M4319 11816 c-445 -222 -772 -777 -812 -1378 l-13 -193 -111 -25 c-101 -22 -114 -21 -132 10 -147 247 -287 322 -408 219 -59 -49 -183 -279 -183 -338 0 -52 -36 -52 -191 0 -245 82 -454 80 -531 -6 -75 -85 -74 -109 23 -310 152 -316 88 -483 -139 -364 -294 153 -398 48 -357 -358 l18 -174 -62 -70 c-143 -164 -237 -430 -248 -701 -7 -204 -36 -254 -133 -233 -328 70 -428 -101 -312 -531 33 -123 33 -129 -11 -265 l-45 -139 -103 0 c-216 0 -273 -204 -152 -543 l40 -114 -47 -148 c-45 -140 -92 -368 -119 -578 -12 -89 -15 -93 -93 -105 -202 -32 -230 -269 -63 -526 24 -37 24 -74 4 -238 -27 -209 -16 -486 27 -668 23 -101 21 -124 -22 -270 -131 -440 -52 -1010 189 -1370 64 -96 77 -135 97 -301 17 -131 41 -225 78 -298 40 -80 50 -123 40 -168 -7 -34 -12 -101 -11 -151 1 -65 -11 -107 -45 -151 -263 -346 -37 -685 356 -532 69 27 96 12 245 -134 216 -211 483 -239 549 -58 l24 68 107 -49 c203 -93 372 -58 398 81 l12 67 134 -9 c165 -11 223 29 223 154 0 61 9 81 40 91 43 14 72 91 53 140 -17 43 -4 38 110 -40 89 -61 249 -122 417 -158 38 -8 58 -33 85 -108 74 -209 291 -342 628 -385 260 -33 315 -50 558 -171 351 -176 558 -168 629 24 l30 82 90 -40 c221 -97 442 -47 473 106 10 51 15 53 119 44 141 -12 203 26 220 136 11 66 21 80 58 80 74 0 150 74 150 146 l0 64 218 -7 c486 -15 1155 111 1487 280 84 42 90 33 42 -62 -103 -207 53 -371 258 -273 31 14 34 7 23 -71 -23 -168 138 -256 308 -170 124 63 144 62 145 -11 2 -209 272 -228 535 -37 90 65 124 65 124 -1 0 -231 374 -176 630 93 l143 149 152 0 c385 0 516 268 284 578 l-89 118 80 166 c44 91 80 178 80 192 0 14 41 82 92 151 389 528 524 1461 283 1945 -30 60 -41 129 -45 280 -8 278 -133 680 -230 740 -12 7 -20 128 -20 306 -1 162 -9 352 -20 424 -16 117 -13 144 33 270 109 300 66 490 -112 490 l-75 0 -14 143 c-7 79 -40 221 -73 315 -82 235 -84 222 41 265 235 79 256 186 78 397 -178 211 -171 324 33 541 182 193 177 258 -31 399 -270 183 -354 473 -220 757 72 153 75 210 12 273 -95 95 -366 116 -514 39 -34 -18 -64 -29 -67 -25 -4 3 -26 47 -51 96 -139 281 -297 263 -453 -51 -116 -236 -148 -200 -75 83 214 835 -130 1778 -763 2090 -240 118 -287 36 -181 -312 163 -536 23 -1010 -357 -1212 l-86 -45 -64 53 c-62 52 -112 65 -224 56 -43 -3 -57 8 -75 62 -96 274 -274 319 -484 123 -92 -87 -95 -88 -181 -68 -48 11 -154 20 -237 21 l-150 0 -88 103 c-269 312 -507 268 -573 -105 -11 -64 -22 -76 -96 -98 -98 -29 -265 -111 -282 -138 -7 -12 -71 1 -155 29 -595 203 -836 695 -658 1345 43 154 35 227 -28 251 -49 19 -53 18 -191 -51z m83 -272 c-169 -720 154 -1222 938 -1456 319 -96 432 -256 417 -594 -15 -333 -258 -654 -496 -654 -47 0 -61 -9 -61 -39 0 -128 288 -38 449 140 325 361 289 971 -70 1176 -106 60 -106 71 -2 115 102 42 143 37 143 -20 0 -51 47 -103 76 -84 10 6 24 81 30 166 21 281 80 400 182 375 58 -15 247 -192 305 -287 54 -88 165 -172 193 -144 17 17 17 32 -2 62 -36 58 -33 60 77 60 240 0 577 -121 773 -277 120 -95 126 -97 126 -45 0 65 -173 217 -335 295 l-153 73 66 55 c126 106 210 76 274 -96 52 -141 63 -150 159 -136 150 23 250 -76 283 -277 8 -53 29 -83 78 -113 258 -160 548 -698 548 -1018 0 -171 91 -193 387 -93 394 132 454 169 754 472 305 309 388 356 584 333 168 -20 185 -54 100 -205 -161 -286 -2 -754 312 -916 88 -46 79 -83 -45 -204 -226 -221 -229 -461 -9 -699 107 -116 98 -148 -61 -203 -293 -100 -385 -295 -310 -663 l13 -68 -87 12 c-352 48 -436 30 -514 -107 -69 -121 -88 -98 -270 303 -80 176 -167 311 -274 427 -40 44 -89 121 -107 170 -18 50 -53 122 -77 160 -35 55 -45 105 -49 230 -6 228 -143 670 -206 670 -41 0 -36 -41 24 -221 85 -252 95 -682 19 -846 -84 -183 -18 -224 71 -43 67 137 83 132 142 -41 64 -186 67 -464 7 -639 -39 -113 -34 -171 13 -142 44 27 108 247 118 407 9 139 15 161 39 142 46 -39 153 -235 245 -451 122 -288 255 -391 340 -266 119 174 108 171 481 129 178 -21 213 43 159 287 -49 224 41 387 116 210 81 -192 103 -379 77 -646 -9 -94 -7 -102 12 -57 27 64 92 97 190 97 l72 0 -12 -125 c-14 -145 -52 -255 -87 -255 -48 0 -49 -42 -6 -215 43 -171 64 -566 32 -598 -7 -8 -33 5 -58 27 -66 61 -180 126 -220 126 -48 0 -44 -54 4 -70 63 -20 288 -277 358 -408 141 -265 192 -556 143 -822 -13 -71 -29 -155 -34 -185 -15 -79 39 -72 78 10 l32 65 23 -60 c162 -411 61 -1198 -206 -1604 l-63 -96 -10 133 c-17 230 -80 214 -80 -20 0 -233 -138 -654 -232 -709 -49 -28 -30 -77 59 -156 256 -225 200 -437 -120 -457 -205 -13 -233 -27 -390 -192 -311 -329 -564 -211 -355 166 69 124 69 125 20 125 -35 0 -162 -160 -162 -203 0 -9 -29 -31 -65 -49 -36 -19 -105 -64 -153 -101 -97 -74 -122 -82 -122 -37 0 44 -21 37 -92 -32 -69 -67 -136 -67 -157 0 -31 98 114 398 238 493 72 54 94 109 44 109 -79 0 -333 -270 -333 -354 0 -45 -115 -92 -135 -55 -17 31 -85 21 -85 -12 0 -36 -67 -79 -124 -79 -178 0 63 431 324 580 22 13 24 23 8 40 -54 54 -290 -112 -391 -275 -43 -69 -77 -85 -77 -35 0 45 -32 36 -86 -22 -64 -68 -145 -61 -141 13 11 175 271 439 499 507 65 19 172 56 238 82 66 26 147 55 180 65 83 25 93 85 14 85 -190 0 -85 685 147 956 36 41 85 118 109 171 25 52 85 135 133 185 117 120 104 179 -22 97 l-47 -31 1 256 c1 277 -32 446 -135 677 l-50 115 47 62 c195 256 219 558 72 889 l-62 138 54 217 c71 284 53 568 -37 568 -17 0 -24 -65 -25 -235 -1 -255 -59 -475 -118 -453 -15 6 -33 1 -40 -11 -21 -34 9 -141 39 -141 41 0 148 -234 170 -372 25 -153 0 -296 -74 -432 -83 -152 -138 -143 -252 40 -37 59 -63 83 -76 70 -25 -25 100 -291 171 -365 261 -272 279 -1121 30 -1421 -136 -164 -219 -388 -219 -592 0 -208 -364 -559 -817 -787 -409 -205 -1167 -350 -1630 -312 l-174 15 -66 103 c-133 206 -308 329 -535 374 -59 11 -149 39 -199 62 l-92 40 -26 183 c-44 311 -169 624 -286 717 l-42 32 53 160 c102 308 124 826 47 1100 l-29 105 53 10 c310 60 538 194 688 403 91 128 49 146 -72 32 -204 -192 -396 -293 -600 -317 l-107 -13 -52 93 -52 94 79 122 c154 238 229 600 180 863 -50 264 -136 266 -98 2 40 -272 -44 -626 -196 -825 l-51 -67 -44 42 c-123 115 -142 26 -26 -123 274 -352 351 -1060 165 -1506 l-29 -69 -60 34 c-131 75 -118 -2 23 -140 196 -194 310 -451 345 -780 l14 -132 -57 -6 c-61 -7 -77 -53 -27 -77 73 -34 361 -125 473 -150 280 -62 570 -348 543 -536 -11 -80 -116 -60 -168 32 -97 174 -333 357 -361 282 -9 -21 0 -40 25 -53 201 -108 391 -512 250 -532 -128 -18 -179 12 -240 143 -98 213 -310 407 -426 390 -65 -9 -53 -40 34 -86 220 -117 433 -536 320 -630 -83 -68 -449 64 -490 177 -29 81 -199 263 -245 263 -66 0 -58 -46 22 -127 355 -363 116 -618 -327 -348 -139 85 -287 132 -527 167 -450 67 -625 211 -627 516 -1 108 -4 114 -94 187 -123 100 -175 160 -215 250 -22 47 -72 99 -138 143 -161 107 -328 346 -412 590 -20 60 -50 124 -67 142 -143 158 -217 490 -221 990 -4 527 -57 809 -147 781 -26 -9 -54 16 -107 94 -191 278 -170 779 49 1201 92 175 84 248 -15 142 -170 -184 -308 -670 -268 -948 28 -193 36 -186 -126 -110 -444 209 -1002 37 -1226 -380 -21 -38 -44 -70 -51 -70 -47 0 -52 541 -6 711 45 165 44 178 -6 185 -33 5 -54 34 -85 116 -73 195 -53 241 114 261 l99 12 14 170 c17 225 76 488 151 675 73 183 72 167 13 189 -39 15 -54 44 -80 159 -56 247 -40 275 149 255 88 -9 122 -6 127 12 4 14 17 70 30 125 13 55 49 155 81 222 55 120 55 176 0 164 -61 -14 -106 376 -49 424 32 26 200 12 219 -19 6 -9 -4 -58 -21 -109 -62 -181 8 -206 80 -28 50 122 194 335 320 472 106 116 73 163 -48 67 l-80 -65 0 107 c0 130 45 294 115 413 l51 89 36 -71 c20 -39 91 -115 158 -168 278 -224 277 -409 -4 -664 -189 -171 -125 -340 152 -405 351 -83 479 -284 362 -569 -61 -146 -63 -209 -9 -266 50 -55 28 -52 399 -53 423 -1 550 -73 629 -353 72 -256 180 -264 429 -33 155 145 256 194 398 195 139 0 180 44 263 285 128 368 292 604 405 581 l62 -12 -18 78 c-66 290 0 575 200 856 77 109 0 115 -97 8 -150 -165 -230 -384 -231 -631 0 -141 -3 -149 -77 -230 -159 -177 -274 -385 -363 -661 -51 -158 -48 -155 -199 -163 -144 -7 -239 -58 -428 -230 -172 -156 -211 -156 -243 -1 -69 330 -404 497 -840 421 -115 -20 -141 -18 -182 8 l-47 32 49 132 c127 338 -12 601 -370 699 -279 76 -293 108 -122 273 295 284 272 534 -74 815 -140 113 -135 148 36 236 415 213 541 610 327 1031 -102 203 -52 244 228 185 289 -60 469 -190 800 -577 262 -308 469 -431 945 -565 105 -29 280 -96 390 -149 359 -172 597 -203 691 -90 38 46 12 55 -140 51 -240 -7 -376 47 -308 122 55 60 127 179 127 211 0 48 -50 24 -98 -46 -116 -170 -166 -185 -307 -93 -93 61 -93 79 -5 150 132 105 82 151 -60 54 -113 -78 -110 -79 -225 55 -228 266 -240 315 -104 431 77 66 101 114 58 114 -35 0 -127 -54 -167 -98 -56 -61 -62 -56 -129 103 -139 336 -141 455 -8 538 112 69 80 126 -37 66 -92 -48 -104 -26 -88 169 41 492 279 922 650 1175 173 117 175 115 122 -109z m4238 -49 c265 -260 432 -606 489 -1010 12 -91 3 -100 -58 -54 -119 90 -133 24 -18 -83 l93 -87 -13 -185 c-8 -102 -19 -211 -26 -242 l-12 -55 -78 84 c-59 64 -83 79 -101 61 -18 -18 -14 -34 18 -69 142 -155 140 -251 -10 -545 -50 -100 -63 -113 -75 -80 -55 157 -151 295 -182 264 -7 -7 11 -66 40 -131 106 -236 97 -310 -61 -485 -104 -115 -137 -105 -153 43 -36 342 -282 794 -530 972 -45 32 -84 79 -90 107 -6 28 -16 64 -22 81 -9 22 14 43 79 75 419 203 605 748 450 1314 -24 88 -49 182 -55 208 l-11 48 103 -56 c56 -31 157 -110 223 -175z m-5602 -1186 c142 -162 142 -157 10 -278 -97 -88 -113 -112 -92 -134 20 -21 32 -21 60 -1 192 138 466 253 502 211 9 -9 27 -71 41 -137 55 -264 233 -621 423 -849 117 -139 118 -139 -130 -57 -262 86 -391 169 -592 380 -104 110 -264 276 -354 369 l-164 169 38 124 c80 257 157 318 258 203z m6567 -659 c83 -152 87 -141 -193 -444 -184 -199 -773 -500 -608 -311 45 51 214 335 248 416 48 116 99 79 90 -67 -8 -135 49 -105 106 56 89 254 215 466 269 456 18 -4 58 -51 88 -106z m-7869 -301 c41 -17 99 -55 129 -83 53 -51 55 -52 95 -16 58 53 74 20 30 -62 -86 -160 -350 -348 -350 -249 0 21 -14 47 -31 56 -37 21 -61 206 -41 313 16 83 48 91 168 41z m-231 -4905 c316 -156 531 -457 549 -770 16 -255 -2 -298 -62 -150 -51 124 -161 276 -200 276 -49 0 -50 -26 -2 -88 69 -90 150 -273 150 -339 0 -32 22 -84 50 -117 55 -64 56 -70 89 -310 28 -202 100 -418 188 -566 183 -307 166 -512 -57 -716 -104 -95 -263 -163 -311 -133 -32 19 -103 -12 -92 -41 16 -40 -138 -95 -277 -100 -93 -3 -121 -12 -126 -37 -13 -64 266 -49 413 21 202 96 514 19 651 -160 92 -120 51 -153 -81 -64 -96 66 -139 36 -63 -45 123 -132 131 -225 19 -225 -122 0 -193 35 -282 141 -100 119 -195 177 -213 131 -7 -19 15 -54 59 -92 126 -110 200 -338 121 -368 -80 -31 -396 116 -415 193 -18 68 -131 195 -174 195 -50 0 -50 1 26 -121 208 -335 -10 -471 -304 -190 -192 184 -232 198 -397 140 -259 -90 -359 114 -176 355 62 80 68 101 65 212 -1 74 7 132 22 147 35 35 31 107 -8 140 -105 86 -184 459 -83 388 111 -77 129 -10 24 90 -485 468 -548 1375 -135 1943 230 315 687 430 1032 260z m1083 -2661 c49 -64 136 -152 192 -195 56 -43 124 -116 152 -163 27 -46 94 -129 149 -184 149 -149 136 -184 -51 -134 -193 51 -333 153 -423 306 -28 49 -77 102 -109 118 -132 68 -140 96 -70 239 74 155 52 153 160 13z m-195 -324 c59 -44 107 -84 107 -89 0 -17 -249 128 -256 149 -15 43 46 19 149 -60z"
       id="path1" />
    <path
       d="M2313 9827 c-28 -29 -9 -49 103 -105 155 -78 261 -170 450 -388 341 -394 503 -501 1015 -677 184 -63 382 -138 439 -167 105 -53 159 -47 135 15 -18 47 -234 148 -518 242 -482 159 -567 215 -987 644 -345 352 -568 505 -637 436z"
       id="path2" />
    <path
       d="M6330 9717 c-107 -59 -230 -212 -230 -286 0 -58 59 -32 167 74 59 58 132 124 163 147 92 67 6 123 -100 65z"
       id="path3" />
    <path
       d="M7660 9671 c0 -17 48 -60 107 -98 58 -38 125 -92 148 -121 66 -84 137 -67 102 25 -56 150 -357 313 -357 194z"
       id="path4" />
    <path
       d="M9940 9354 c-48 -15 -151 -103 -334 -287 -260 -262 -269 -268 -500 -377 -317 -150 -335 -161 -342 -209 -9 -59 22 -53 237 45 377 172 463 235 700 510 92 107 181 187 252 227 143 81 135 137 -13 91z"
       id="path5" />
    <path
       d="M6366 9131 c-202 -88 -142 -420 76 -420 220 0 274 334 67 421 -80 33 -64 33 -143 -1z"
       id="path6" />
    <path
       d="M7820 9056 c-66 -108 -38 -290 51 -324 119 -45 208 16 223 152 21 194 -182 322 -274 172z"
       id="path7" />
    <path
       d="M1928 8711 c-19 -49 24 -70 144 -71 153 0 419 -51 788 -150 375 -101 613 -142 930 -159 121 -7 295 -23 386 -35 125 -17 171 -17 189 1 64 64 -133 113 -576 144 -324 22 -580 70 -1069 200 -374 99 -768 134 -792 70z"
       id="path8" />
    <path
       d="M7213 8567 c-27 -27 -13 -128 20 -141 39 -15 95 17 103 59 11 56 -84 120 -123 82z"
       id="path9" />
    <path
       d="M7541 8531 c-53 -64 25 -164 87 -112 38 31 41 84 8 117 -32 32 -66 30 -95 -5z"
       id="path10" />
    <path
       d="M9700 8398 c-101 -23 -295 -43 -480 -51 -328 -13 -400 -27 -400 -77 0 -51 594 -42 840 13 122 27 275 43 430 46 201 4 241 10 246 37 16 79 -346 97 -636 32z"
       id="path11" />
    <path
       d="M6740 8247 c-437 -55 -840 -179 -840 -258 0 -57 65 -55 318 7 425 105 486 112 942 111 461 -1 592 -18 914 -119 289 -90 308 36 21 140 -275 100 -1003 164 -1355 119z"
       id="path12" />
    <path
       d="M5134 8095 c-130 -192 -168 -453 -97 -665 38 -115 119 -163 96 -57 -64 287 -51 440 57 657 104 208 68 249 -56 65z"
       id="path13" />
    <path
       d="M5432 8139 c-145 -173 -138 -719 12 -811 47 -30 56 30 19 125 -79 199 -66 498 28 641 68 104 21 140 -59 45z"
       id="path14" />
    <path
       d="M4060 8126 c-27 -4 -180 -43 -340 -85 -459 -122 -615 -149 -990 -171 -384 -24 -770 -114 -770 -180 0 -37 40 -47 110 -26 149 44 373 75 674 96 394 26 599 61 961 162 213 60 567 138 628 138 4 0 7 18 7 40 0 41 -125 52 -280 26z"
       id="path15" />
    <path
       d="M8860 8048 c0 -28 46 -61 165 -119 91 -45 246 -124 345 -176 134 -70 254 -113 470 -166 160 -40 324 -89 366 -110 41 -21 84 -33 95 -27 86 54 -112 159 -471 249 -227 57 -317 95 -680 288 -173 92 -290 116 -290 61z"
       id="path16" />
    <path
       d="M4170 7797 c-55 -35 -199 -136 -320 -226 -271 -202 -412 -280 -720 -399 -429 -166 -690 -320 -635 -375 16 -16 78 6 219 78 108 55 268 124 356 154 285 96 624 277 849 453 115 89 259 195 320 235 213 139 147 215 -69 80z"
       id="path17" />
    <path
       d="M8860 7783 c0 -20 19 -54 42 -74 22 -21 121 -143 219 -271 198 -260 284 -343 526 -505 91 -62 182 -130 202 -152 43 -47 91 -54 91 -14 0 50 -83 134 -238 243 -229 160 -327 254 -480 457 -204 271 -362 409 -362 316z"
       id="path18" />
    <path
       d="M4278 7507 c-68 -65 -198 -225 -290 -357 -92 -132 -222 -303 -290 -380 -121 -139 -237 -317 -238 -365 0 -52 56 -21 118 65 36 50 134 169 219 266 85 96 220 269 299 385 78 115 193 262 254 326 179 189 117 239 -72 60z"
       id="path19" />
    <path
       d="M5750 7119 c-65 -104 364 -452 605 -490 145 -24 127 43 -25 91 -169 54 -405 222 -494 352 -49 72 -66 81 -86 47z"
       id="path20" />
    <path
       d="M8273 6983 c-68 -112 -154 -201 -284 -296 -46 -33 -54 -48 -35 -68 75 -78 426 284 426 440 0 69 -31 47 -107 -76z"
       id="path21" />
    <path
       d="M1123 6999 c-96 -103 -80 -556 20 -575 31 -6 33 16 23 221 -16 319 26 351 258 195 134 -90 167 -29 42 80 -136 120 -275 152 -343 79z"
       id="path22" />
    <path
       d="M4827 6950 c21 -154 171 -390 247 -390 43 0 30 39 -44 125 -65 77 -150 260 -150 326 0 16 -15 29 -33 29 -27 0 -30 -15 -20 -90z"
       id="path23" />
    <path
       d="M8486 6823 c-71 -255 -214 -462 -421 -606 -139 -96 -111 -152 38 -76 252 129 477 479 477 742 0 149 -43 121 -94 -60z"
       id="path24" />
    <path
       d="M5281 6712 c-58 -153 87 -500 288 -688 191 -178 491 -316 491 -226 0 11 -42 39 -92 61 -327 145 -586 465 -620 766 -15 130 -39 162 -67 87z"
       id="path25" />
    <path
       d="M5660 6713 c0 -211 752 -750 875 -627 35 36 13 53 -143 111 -212 79 -652 433 -652 525 0 10 -18 18 -40 18 -22 0 -40 -12 -40 -27z"
       id="path26" />
    <path
       d="M8612 6192 c-29 -59 -97 -153 -152 -208 -103 -105 -122 -144 -70 -144 89 0 362 373 321 439 -25 40 -46 21 -99 -87z"
       id="path27" />
    <path
       d="M1889 6167 c-118 -155 -196 -447 -119 -447 19 0 30 19 30 49 0 75 74 248 151 353 104 140 44 183 -62 45z"
       id="path28" />
    <path
       d="M9985 6198 c-89 -44 -165 -123 -165 -171 0 -39 48 -33 87 10 40 44 188 115 205 98 28 -29 46 -176 35 -290 -11 -108 -8 -125 21 -125 104 0 96 444 -9 500 -52 29 -79 25 -174 -22z"
       id="path29" />
    <path
       d="M4420 6151 c0 -16 27 -69 60 -118 93 -138 124 -245 130 -443 3 -137 11 -180 32 -180 78 0 65 338 -20 536 -61 142 -202 285 -202 205z"
       id="path30" />
    <path
       d="M4740 6163 c0 -11 26 -75 58 -142 32 -68 65 -177 72 -243 19 -166 60 -146 58 28 -1 106 -13 157 -60 248 -52 101 -128 166 -128 109z"
       id="path31" />
    <path
       d="M659 5723 c-115 -93 -34 -604 89 -557 24 10 24 24 -2 98 -48 134 -58 341 -19 373 35 29 139 6 230 -51 65 -41 112 -20 82 35 -54 102 -299 168 -380 102z"
       id="path32" />
    <path
       d="M8050 5648 c-463 -419 -1256 -459 -1708 -86 -138 113 -169 56 -37 -67 255 -235 712 -344 1111 -264 296 58 764 347 764 471 0 55 -18 47 -130 -54z"
       id="path33" />
    <path
       d="M2530 5249 c-127 -66 -278 -254 -293 -367 -11 -77 38 -71 72 8 43 104 144 225 234 282 117 74 106 138 -13 77z"
       id="path34" />
    <path
       d="M2690 4991 c-130 -55 -299 -250 -255 -294 13 -13 45 11 96 73 41 51 115 115 162 143 119 70 117 129 -3 78z"
       id="path35" />
    <path
       d="M10145 4976 c4 -13 39 -41 76 -61 70 -38 190 -155 232 -226 30 -51 55 -25 39 41 -16 63 -140 203 -215 241 -67 35 -143 38 -132 5z"
       id="path36" />
    <path
       d="M3804 4780 c-148 -35 -100 -80 86 -80 102 0 175 -12 240 -40 108 -46 150 -50 150 -14 0 37 -97 88 -232 124 -127 33 -146 34 -244 10z"
       id="path37" />
    <path
       d="M7326 4471 c-235 -53 -482 -191 -401 -222 17 -6 67 7 112 29 164 84 373 126 589 119 147 -5 203 0 209 18 22 65 -309 102 -509 56z"
       id="path38" />
    <path
       d="M8220 4362 c0 -85 309 -362 404 -362 62 0 39 51 -44 98 -45 25 -139 103 -209 173 -141 141 -151 147 -151 91z"
       id="path39" />
    <path
       d="M6286 3930 c-165 -169 -389 -293 -606 -336 -149 -30 -162 -61 -29 -70 267 -18 809 333 809 524 0 52 -22 37 -174 -118z"
       id="path40" />
    <path
       d="M2701 3697 c-108 -114 -182 -366 -149 -506 32 -135 62 -106 72 69 8 136 21 184 83 305 76 149 73 216 -6 132z"
       id="path41" />
    <path
       d="M9940 3573 c0 -16 40 -39 91 -53 55 -16 130 -61 188 -113 144 -129 185 -78 46 58 -115 112 -325 181 -325 108z"
       id="path42" />
    <path
       d="M10333 3264 c-6 -8 16 -55 48 -102 32 -48 64 -117 71 -154 15 -80 68 -93 68 -17 0 127 -146 340 -187 273z"
       id="path43" />
    <path
       d="M2711 2901 c-54 -107 -84 -294 -54 -339 33 -48 63 -3 63 94 0 58 20 135 50 201 78 167 23 208 -59 44z"
       id="path44" />
    <path
       d="M4170 2660 c-19 -31 4 -49 105 -77 48 -14 121 -59 168 -104 89 -84 117 -96 117 -51 0 112 -339 314 -390 232z"
       id="path45" />
    <path
       d="M2782 2398 c-37 -106 -23 -218 26 -218 15 0 25 39 26 105 2 58 6 117 9 133 14 58 -40 40 -61 -20z"
       id="path46" />
    <path
       d="M9181 2292 c-72 -116 -91 -312 -30 -312 20 0 29 24 29 77 0 42 22 120 50 175 74 146 35 195 -49 60z"
       id="path47" />
    <path
       d="M4395 2168 c-19 -19 7 -68 36 -68 15 0 60 -28 99 -63 76 -67 148 -56 90 13 -60 72 -198 145 -225 118z"
       id="path48" />
    <path
       d="M3207 2065 c-56 -144 -50 -349 13 -473 86 -169 110 -120 48 98 -34 120 -30 182 24 415 23 97 -44 66 -85 -40z"
       id="path49" />
    <path
       d="M548 3177 c-78 -126 82 -577 204 -577 38 0 36 49 -3 81 -75 62 -165 334 -141 427 14 56 -34 111 -60 69z"
       id="path50" />
    <path
       d="M1043 3065 c-55 -104 -49 -305 8 -305 21 0 29 25 29 95 0 52 6 129 13 170 13 80 -17 104 -50 40z"
       id="path51" />
    <path
       d="M1020 2137 c0 -154 175 -396 310 -429 33 -8 85 -35 116 -60 94 -79 317 -94 330 -23 6 29 -8 35 -86 35 -90 0 -187 36 -252 93 -18 16 -52 32 -75 36 -94 19 -208 142 -263 286 -39 103 -80 135 -80 62z"
       id="path52" />
  </g>
  <path
     style="fill:#ffffff;stroke-width:0.91638"
     d="m 313.40206,779.27436 c -2.01603,-0.46164 -8.45338,-3.28279 -14.30522,-6.26922 -13.00002,-6.63444 -18.67741,-8.48439 -35.17931,-11.46302 -14.72971,-2.65874 -19.66702,-4.04169 -26.36776,-7.38568 -10.50713,-5.24356 -15.05895,-12.62981 -15.97109,-25.9164 l -0.54683,-7.96513 -8.23096,-7.78923 c -4.52703,-4.28408 -9.4341,-9.92034 -10.90461,-12.52503 -2.59094,-4.58931 -5.96747,-8.07276 -14.68916,-15.15431 -8.01817,-6.51032 -17.68105,-21.47769 -23.00066,-35.62699 -1.24741,-3.3179 -4.09145,-8.69595 -6.32009,-11.95121 -8.31065,-12.13895 -11.39119,-27.35576 -12.68463,-62.65769 -0.98286,-26.82574 -1.96677,-37.39587 -4.24744,-45.63052 -1.45037,-5.23675 -3.98798,-8.25938 -6.2162,-7.40432 -3.24575,1.2455 -11.45709,-13.07198 -13.77671,-24.02135 -3.79191,-17.89913 -0.35917,-38.5248 10.15524,-61.01788 2.90583,-6.21633 4.08356,-9.84011 3.88145,-11.9428 l -0.29018,-3.01864 -4.30001,3.96265 c -4.91473,4.52917 -11.38517,16.76932 -14.37553,27.19428 -3.90157,13.60155 -4.95629,22.1465 -4.3248,35.03744 l 0.59413,12.12793 -2.08441,-0.8213 c -1.14643,-0.45171 -4.50333,-1.9046 -7.45979,-3.22864 -12.09046,-5.41464 -28.724027,-6.69459 -42.358898,-3.2595 -15.476192,3.89899 -29.743698,14.15172 -37.489085,26.93992 -2.016036,3.32862 -3.942034,6.05301 -4.279995,6.05421 -2.440281,0.009 -2.670299,-33.25534 -0.304148,-43.98408 0.833669,-3.78007 1.737938,-8.56886 2.009487,-10.64177 0.450239,-3.43697 0.2926,-3.8194 -1.789791,-4.34205 -2.887657,-0.72476 -4.465718,-3.14976 -7.068808,-10.86261 -3.3035752,-9.78836 -1.9667955,-11.67729 9.600495,-13.56595 3.024055,-0.49376 5.542207,-0.90013 5.595894,-0.90305 0.05369,-0.003 0.376971,-3.81974 0.718407,-8.48182 1.257164,-17.16574 4.68176,-32.71584 10.818411,-49.12328 2.763262,-7.38809 3.314514,-9.77281 2.489012,-10.76747 -0.583187,-0.7027 -1.617814,-1.27764 -2.299172,-1.27764 -1.732171,0 -3.676499,-4.1249 -5.354182,-11.35893 -1.743292,-7.51693 -1.831427,-12.82577 -0.234923,-14.15075 0.65729,-0.5455 5.065318,-1.11146 9.795618,-1.25768 l 8.600544,-0.26586 2.380168,-8.24742 c 1.309093,-4.53608 3.705188,-11.41464 5.324657,-15.28566 3.62357,-8.66147 3.684574,-10.3771 0.424443,-11.9368 -3.233471,-1.54694 -4.832611,-7.45011 -4.873206,-17.98926 -0.03751,-9.73969 0.572365,-10.54524 7.598978,-10.03698 7.463119,0.53983 7.842493,1.15064 5.8026,9.34241 -3.266302,13.11675 0.484592,13.07802 7.25937,-0.075 5.24288,-10.17886 10.119354,-17.39089 18.716637,-27.68087 3.44237,-4.12013 5.587259,-7.53489 5.587259,-8.89519 0,-2.91927 -0.76965,-2.79935 -6.414662,0.99946 -2.62134,1.76403 -4.93082,3.20733 -5.132178,3.20733 -0.976792,0 -0.194752,-12.76785 1.084398,-17.70425 1.419847,-5.47937 7.527065,-18.95096 8.591237,-18.95096 0.295927,0 1.33084,1.47213 2.299806,3.27139 0.968967,1.79926 5.790187,6.98559 10.713817,11.52518 16.98281,15.65812 17.66018,24.67306 2.9738,39.5777 -8.11424,8.23482 -10.4507,11.96905 -10.4507,16.70277 0,6.98852 5.01942,11.11408 18.32761,15.06382 13.50982,4.00957 20.46298,8.87955 23.82018,16.68356 2.53877,5.90156 2.13834,11.94447 -1.41619,21.37149 -3.03969,8.06157 -3.19232,13.02048 -0.51638,16.77846 2.49225,3.50005 3.12184,3.60215 25.76416,4.1778 30.92099,0.78613 36.69506,3.86867 43.06566,22.99097 3.47859,10.44149 5.92983,13.30016 11.40452,13.30016 4.62956,0 9.11879,-2.70857 18.84025,-11.36728 8.97999,-7.99829 16.00018,-11.46826 24.92683,-12.32092 10.92365,-1.04343 12.10784,-2.34108 19.05578,-20.88153 9.54138,-25.46102 18.94959,-38.10757 27.19832,-36.56009 l 3.30116,0.6193 -0.64016,-3.04372 c -2.77663,-13.20188 -2.95899,-19.02752 -0.90664,-28.9636 1.91964,-9.29355 4.8038,-16.22374 11.0676,-26.59374 3.57808,-5.92363 4.85875,-8.81944 4.19428,-9.48392 -3.92147,-3.92147 -17.42513,13.26472 -21.71224,27.6333 -0.82709,2.77205 -1.86297,10.3164 -2.30197,16.76522 -0.7435,10.9221 -0.97604,11.94564 -3.39549,14.94478 -9.7647,12.10436 -12.82776,16.576 -17.19717,25.10558 -2.71095,5.2921 -6.42015,13.95189 -8.24265,19.24399 -3.77975,10.97545 -5.38662,12.82932 -11.11999,12.82932 -10.47807,0 -17.54439,3.47619 -31.32964,15.41222 -7.51936,6.51068 -11.4558,8.55004 -13.17844,6.8274 -0.49624,-0.49623 -1.5309,-3.30957 -2.29923,-6.25185 -0.76834,-2.94228 -2.35102,-7.22772 -3.51708,-9.52321 -4.7736,-9.39732 -16.50515,-17.20556 -29.02286,-19.31695 -6.30869,-1.0641 -10.15064,-0.98374 -27.81283,0.58177 -5.44771,0.48285 -6.72514,0.31093 -8.47439,-1.14055 l -2.05973,-1.7091 2.74702,-8.47657 c 4.86729,-15.01917 3.49458,-26.38218 -4.22419,-34.96732 -5.28929,-5.88297 -9.94593,-8.51909 -21.88617,-12.38975 -10.63343,-3.44705 -14.2125,-5.31368 -14.2125,-7.41242 0,-0.74148 3.51749,-5.1491 7.81667,-9.79471 10.13035,-10.94671 12.80188,-16.26188 12.80188,-25.47012 0,-9.9929 -2.15219,-13.86087 -14.3319,-25.7576 -5.4737,-5.34653 -9.95218,-10.3262 -9.95218,-11.06593 0,-1.89846 2.96984,-4.29458 11.78245,-9.50627 19.3175,-11.4242 28.55147,-30.00542 24.67909,-49.66103 -0.79611,-4.04096 -3.14007,-11.30885 -5.2088,-16.15085 -4.49966,-10.53176 -4.73166,-13.07885 -1.30979,-14.37985 5.04927,-1.91973 23.90855,2.38639 33.2873,7.60043 10.32096,5.73788 16.41732,11.36041 38.6999,35.69197 15.66166,17.10183 25.50245,22.9063 55.67944,32.84188 10.3365,3.40323 23.94826,8.46804 30.24838,11.25514 16.43314,7.26985 22.24023,9.04721 31.25374,9.56577 6.08556,0.35012 8.59815,0.11579 11.00506,-1.02636 3.38758,-1.60752 6.00208,-4.93149 4.78092,-6.0783 -0.41938,-0.39384 -6.12334,-0.89221 -12.67546,-1.10749 -13.2334,-0.43479 -18.7858,-1.96892 -18.7858,-5.19054 0,-1.00399 0.45354,-2.10574 1.00786,-2.44833 1.96397,-1.2138 8.15594,-11.71445 8.15594,-13.83124 0,-3.2171 -2.56158,-2.67634 -5.85564,1.23616 -1.56749,1.86176 -4.60028,5.21273 -6.73956,7.44659 -3.45565,3.60843 -4.21521,3.99644 -6.80817,3.47784 -3.94934,-0.78986 -11.75356,-5.90648 -11.75356,-7.70588 0,-0.79902 2.06186,-3.35827 4.58191,-5.68721 4.60765,-4.25822 5.88875,-7.33104 3.05641,-7.33104 -0.83902,0 -4.56054,1.66573 -8.27006,3.70164 -5.92411,3.25134 -6.95722,3.55268 -8.49276,2.47714 -2.37778,-1.66547 -12.59643,-13.94168 -15.78087,-18.95842 -3.90647,-6.15421 -3.4986,-8.27878 2.91225,-15.16996 5.54505,-5.96052 6.24626,-7.21879 4.59246,-8.2409 -1.37095,-0.84728 -8.3734,2.55355 -12.22993,5.93963 -1.88136,1.65185 -3.56338,2.8454 -3.73783,2.65232 -1.14583,-1.26822 -5.37663,-10.80728 -7.87798,-17.76227 -2.15293,-5.98621 -2.99796,-9.97442 -3.08211,-14.54636 l -0.11593,-6.29893 5.26919,-4.7172 c 7.59646,-6.80067 6.78613,-9.54019 -1.81868,-6.14849 -2.54383,1.00269 -4.87633,1.57191 -5.18331,1.26493 -1.03997,-1.03996 -0.56536,-13.716975 0.80847,-21.595141 2.82023,-16.172375 10.08948,-33.989068 18.45409,-45.230382 6.07809,-8.16843 16.51185,-18.302157 24.00223,-23.312029 3.70234,-2.476271 7.10934,-4.502312 7.57113,-4.502312 1.31484,0 1.00268,3.498941 -1.14843,12.872229 -2.61974,11.415365 -2.87018,31.394046 -0.50489,40.277828 3.78174,14.203771 12.67102,27.444005 24.94424,37.153477 7.6391,6.04337 23.05671,13.74904 35.73883,17.86215 19.65407,6.37427 26.30803,12.13327 29.45201,25.49072 3.94469,16.7593 -1.77064,36.35202 -14.22591,48.76785 -6.15364,6.13416 -11.87836,9.09923 -17.56808,9.09923 -3.04556,0 -4.88059,2.03638 -4.08731,4.5358 2.07289,6.53108 18.7058,1.09105 29.41866,-9.6218 10.88991,-10.88992 16.55375,-26.78074 15.6613,-43.94035 -0.90745,-17.44813 -6.84939,-28.28815 -20.09258,-36.65538 -2.393,-1.51194 -4.35165,-3.01283 -4.35255,-3.33533 -0.003,-1.11387 8.23451,-4.45373 10.98493,-4.45373 2.26027,0 2.75913,0.37735 2.75913,2.08704 0,2.81205 2.46465,6.16038 4.53453,6.16038 2.01668,0 2.42588,-1.42257 3.70103,-12.86664 1.75883,-15.784841 4.88027,-22.872191 10.07348,-22.872191 3.19538,0 13.23909,8.308063 18.46826,15.276761 7.84947,10.46068 13.47876,14.91962 16.48779,13.05994 0.99907,-0.61746 1.02391,-1.32018 0.13035,-3.68749 -0.60717,-1.60856 -0.88642,-3.2766 -0.62057,-3.70675 1.39912,-2.26383 19.38137,0.59866 31.92513,5.08197 10.163,3.6324 18.13656,7.9077 25.69637,13.77803 5.98532,4.6477 7.81669,5.15813 7.81669,2.17864 0,-5.03084 -9.89121,-14.04093 -22.66918,-20.64977 -4.65591,-2.40806 -8.47035,-4.61767 -8.47652,-4.91024 -0.006,-0.29256 1.84728,-1.86662 4.11879,-3.49789 7.65701,-5.498844 12.59935,-3.330818 16.38107,7.18576 0.91156,2.53498 2.4726,5.64544 3.46898,6.91213 1.65096,2.09885 2.42907,2.30308 8.77503,2.30308 h 6.96342 l 3.82593,3.99296 c 3.10973,3.24549 4.1885,5.34691 5.76271,11.22566 1.59627,5.96111 2.46684,7.63547 4.95169,9.52365 6.60328,5.01765 17.02021,16.60859 21.66399,24.10559 8.78233,14.17833 15.69151,33.24087 15.70877,43.34071 0.008,4.86347 1.59189,9.33281 3.70809,10.46537 3.47621,1.86041 10.95135,0.92537 22.41333,-2.80361 25.54022,-8.30914 29.20199,-10.56997 50.45038,-31.14901 21.73716,-21.0524 26.15099,-23.68145 37.7697,-22.49702 11.21767,1.14353 12.26721,2.96708 7.45293,12.94921 -6.04877,12.54174 -5.42767,26.49428 1.83358,41.19013 4.08056,8.25853 9.61461,14.53179 16.97047,19.23727 2.7451,1.75601 5.24364,3.60139 5.55232,4.10085 0.88608,1.43372 -1.18304,4.62964 -6.85951,10.59507 -6.95277,7.30667 -10.22853,13.8546 -10.75984,21.50782 -0.56211,8.097 1.93842,14.43701 9.45862,23.98205 3.23844,4.11038 5.88806,7.78916 5.88806,8.17507 0,1.58542 -3.02175,3.48559 -10.0453,6.31679 -8.7899,3.54322 -15.41385,9.06608 -18.34016,15.29153 -2.59451,5.51959 -3.37121,15.55325 -1.9067,24.63163 0.61881,3.83604 0.91654,7.1832 0.66162,7.43813 -0.25493,0.25493 -5.87415,-0.0656 -12.48714,-0.7124 -17.40797,-1.70249 -20.68089,-0.56385 -28.08024,9.769 -1.75861,2.45582 -2.07437,2.57177 -3.60206,1.32268 -0.92097,-0.75302 -5.13666,-8.55167 -9.36821,-17.33035 -8.6363,-17.91663 -11.22617,-22.2452 -19.31853,-32.28792 -3.10765,-3.85663 -6.92746,-9.62982 -8.48848,-12.82933 -1.56102,-3.1995 -3.99649,-8.17856 -5.41215,-11.06456 -1.94519,-3.96553 -2.72573,-7.21126 -3.19542,-13.28751 -1.5923,-20.59887 -9.80922,-46.9864 -14.63131,-46.9864 -2.29149,0 -2.2644,2.75844 0.10573,10.76606 4.81833,16.27899 5.22745,19.13766 5.27899,36.88571 0.0476,16.38241 -0.0351,17.16491 -2.45648,23.24771 -5.70156,14.32319 -0.44801,15.70104 6.57207,1.72366 1.07583,-2.14204 2.38324,-3.89462 2.90534,-3.89462 1.34106,0 4.20584,6.84582 5.98076,14.29188 2.20515,9.25096 1.98907,25.40081 -0.46363,34.65195 -2.4284,9.15948 -2.51998,12.69856 -0.31809,12.29174 3.95057,-0.72988 7.56757,-12.82256 9.95493,-33.28213 l 0.5342,-4.57806 2.26324,2.7453 c 1.24478,1.50992 6.5873,11.53034 11.87226,22.26763 11.00404,22.35653 14.35718,26.75487 20.39699,26.75487 3.23715,0 3.89585,-0.45087 7.35823,-5.03677 6.06663,-8.03519 6.49851,-8.1925 20.06254,-7.30767 15.47942,1.00978 18.32287,0.88341 20.29573,-0.902 2.51403,-2.27516 2.86161,-5.96444 1.4013,-14.87355 -1.63075,-9.94895 -1.68378,-15.62302 -0.17392,-18.60728 1.99145,-3.93612 3.91247,-3.33534 6.40753,2.0039 4.54809,9.73259 5.6628,16.3793 5.55419,33.11833 l -0.10011,15.42818 2.6824,-3.25422 c 2.7943,-3.38997 7.05026,-5.13655 12.53868,-5.1457 l 3.06423,-0.005 -0.59503,4.811 c -1.66632,13.47303 -3.66642,19.34909 -6.8713,20.1872 -2.38898,0.62472 -2.39729,2.89212 -0.0492,13.43349 3.15925,14.18317 4.60171,37.92608 2.43571,40.09206 -0.32511,0.32512 -2.21165,-0.71117 -4.1923,-2.30285 -4.53287,-3.64273 -11.71314,-7.49238 -13.97458,-7.49238 -3.25928,0 -3.13325,2.91017 0.23331,5.38746 4.64224,3.41599 12.39662,11.61372 17.92408,18.94885 5.57277,7.39528 10.34939,17.17837 13.20361,27.04264 2.76347,9.55062 3.4479,27.83651 1.44094,38.49774 -1.98975,10.56976 -1.95925,13.90102 0.12358,13.4999 0.88184,-0.16983 2.61988,-1.87963 3.86232,-3.79957 l 2.25897,-3.49079 1.67615,4.87784 c 7.43536,21.63801 4.76268,59.50932 -6.16398,87.34201 -3.65865,9.31942 -10.29633,20.9046 -11.53766,20.13742 -0.47462,-0.29334 -0.88623,-2.67395 -0.91467,-5.29025 -0.0849,-7.8071 -3.27461,-14.39073 -4.90886,-10.13196 -0.33247,0.8664 -0.99176,6.55394 -1.4651,12.63897 -1.33679,17.18548 -7.27915,36.12878 -13.814,44.03684 -4.27697,5.17572 -4.18945,5.46556 4.3411,14.37783 9.36533,9.78441 11.0924,16.74501 5.53395,22.30345 -3.45275,3.45275 -6.98519,4.598 -18.04316,5.84978 -4.28408,0.48496 -8.942,1.32069 -10.35094,1.85719 -1.40894,0.53648 -6.41375,4.64507 -11.12181,9.13021 -12.113,11.53943 -19.62251,15.56887 -25.4052,13.63184 -3.07884,-1.03131 -4.84703,-5.15992 -4.12238,-9.62544 0.30353,-1.87039 2.43313,-7.29198 4.73246,-12.04797 4.25283,-8.79669 4.36511,-10.96449 0.50439,-9.73914 -2.08913,0.66305 -8.9262,8.74929 -10.17508,12.0341 -0.41129,1.08175 -5.41604,5.08206 -11.12168,8.88957 -9.3612,6.24694 -10.4381,6.74972 -11.03165,5.15038 -0.71152,-1.91723 -2.986,-2.37392 -3.96155,-0.79545 -0.97744,1.58154 -7.9197,6.35414 -9.24277,6.35414 -0.66877,0 -1.91338,-1.06442 -2.76581,-2.36539 -1.3687,-2.08889 -1.41172,-2.91905 -0.36812,-7.10195 2.05119,-8.22141 8.16997,-18.87904 14.44617,-25.16218 5.75429,-5.76066 6.89628,-8.06075 4.46531,-8.99361 -3.85884,-1.48077 -18.10596,11.7617 -22.28047,20.70934 -2.85861,6.12714 -6.3551,8.54403 -9.51011,6.57368 -2.78088,-1.73668 -5.35472,-1.26888 -6.46854,1.17567 -1.22379,2.68595 -6.5251,5.41702 -8.99399,4.63342 -2.60642,-0.82724 -3.00817,-3.36734 -1.32434,-8.37331 2.9993,-8.91685 12.62172,-20.8543 23.22249,-28.80952 5.76397,-4.32551 0.51044,-6.24046 -6.92824,-2.52541 -5.46759,2.73065 -13.04881,9.66648 -17.27811,15.80724 -1.93485,2.80932 -3.81364,5.10785 -4.17509,5.10785 -0.36145,0 -0.87286,-0.82474 -1.13646,-1.83276 -0.66734,-2.55189 -1.73518,-2.31319 -6.14914,1.37457 -5.96752,4.98571 -9.70067,3.69433 -8.2257,-2.84546 2.61425,-11.59127 19.35038,-26.78673 34.77889,-31.57727 9.43972,-2.93102 25.94779,-9.11775 28.20053,-10.56871 1.13402,-0.73041 2.06186,-1.95001 2.06186,-2.71023 0,-1.41602 -0.51277,-1.70076 -4.70816,-2.61435 -8.59831,-1.8724 -6.21765,-31.07507 4.22775,-51.86039 1.39307,-2.77205 4.48367,-7.7205 6.86802,-10.99656 2.38434,-3.27606 5.47199,-8.08237 6.86142,-10.6807 1.38944,-2.59831 5.16047,-7.95913 8.38006,-11.91294 7.89398,-9.69412 7.71949,-12.78327 -0.48561,-8.59734 l -3.52576,1.79872 -0.43029,-18.98085 c -0.47357,-20.88999 -1.65411,-26.83539 -8.43861,-42.49822 l -3.04186,-7.02253 3.17977,-4.43222 c 12.85815,-17.92265 14.02391,-37.04583 3.72779,-61.15061 l -3.08987,-7.23384 2.63313,-11.09377 c 4.61026,-19.42372 4.34911,-38.21291 -0.57377,-41.28094 -2.52036,-1.57075 -3.01365,0.42724 -3.67803,14.89736 -0.94555,20.59415 -3.41652,29.90613 -8.11251,30.5725 -1.74042,0.24698 -2.13096,0.9391 -2.36638,4.19379 -0.23892,3.30328 0.12255,4.28197 2.36923,6.41466 3.51869,3.34017 5.88456,7.49884 8.99097,15.80418 2.22161,5.9397 2.56908,8.17928 2.5591,16.49485 -0.01,8.33882 -0.33783,10.40245 -2.45825,15.47442 -3.23058,7.72739 -6.55442,12.01699 -9.31151,12.01699 -2.24748,0 -4.20953,-1.97619 -9.40884,-9.4766 -3.17442,-4.57937 -5.74626,-5.58618 -5.74626,-2.24952 0,3.00111 7.64942,18.16799 11.46846,22.73909 8.97171,10.73844 13.39302,26.9628 13.35572,49.00994 -0.0358,21.14422 -3.04149,32.87596 -11.63948,45.43044 -9.3313,13.62522 -12.81492,22.56494 -14.04283,36.03693 -0.81585,8.95101 -2.9274,13.69408 -9.81239,22.04107 -13.27602,16.09514 -40.71636,33.6085 -65.22733,41.63029 -30.06961,9.84099 -65.51778,14.59289 -92.09847,12.346 l -6.98992,-0.59086 -3.91582,-6.04759 c -8.97163,-13.85581 -20.22252,-21.85076 -36.31534,-25.80589 -4.21149,-1.03505 -10.2271,-2.93727 -13.36801,-4.22715 l -5.71075,-2.34523 -2.02805,-12.35951 c -3.40395,-20.74464 -10.12601,-38.43443 -17.5794,-46.26203 l -3.75858,-3.94728 2.8272,-9.1638 c 4.80155,-15.56322 5.966,-24.41418 5.96772,-45.36082 0.001,-16.34227 -0.2622,-19.83818 -2.02607,-26.87648 -1.11519,-4.44987 -2.02762,-8.19869 -2.02762,-8.3307 0,-0.132 2.31108,-0.7572 5.13574,-1.38934 14.85481,-3.32435 26.55002,-9.10015 35.63496,-17.59866 13.9614,-13.06021 15.56828,-22.86153 1.77501,-10.82685 -14.90755,13.00688 -25.91272,18.43173 -41.62933,20.52062 l -4.12371,0.54808 -3.20524,-5.96241 c -2.94166,-5.4721 -3.09591,-6.13284 -1.87576,-8.0348 14.10525,-21.98716 19.47412,-45.25785 15.16628,-65.73653 -3.64653,-17.33503 -8.89664,-15.49648 -6.86244,2.40316 2.16394,19.0413 -2.86368,39.81827 -13.09832,54.12971 l -2.7642,3.86527 -3.43403,-2.7198 c -3.50453,-2.77564 -5.84359,-3.40884 -6.81087,-1.84375 -0.78318,1.2672 1.77124,6.90546 5.35648,11.82312 6.47288,8.87846 11.79398,21.72807 14.93097,36.05587 2.35704,10.76545 2.37258,40.66666 0.0256,49.29766 -2.53355,9.3172 -5.48088,17.41122 -6.34009,17.41122 -0.43088,0 -2.46554,-0.85815 -4.52147,-1.907 -2.61946,-1.33636 -4.02703,-1.61802 -4.7038,-0.94125 -1.49897,1.49897 0.26173,4.44822 7.11184,11.91265 13.84345,15.08497 20.41743,30.4944 22.93433,53.75821 l 0.60033,5.54884 -3.50568,0.86582 c -2.861,0.7066 -3.50568,1.2743 -3.50568,3.08706 0,1.94322 0.91755,2.55525 7.33104,4.89 4.03207,1.46783 13.10424,4.3225 20.16037,6.34371 7.05613,2.02121 15.30355,4.97524 18.3276,6.56453 6.97893,3.66776 18.69755,15.17207 21.36938,20.97855 3.60249,7.82904 2.01743,13.61296 -3.19115,11.64458 -1.09017,-0.412 -4.23434,-3.76533 -6.98703,-7.45186 -9.95691,-13.33471 -21.03574,-20.84105 -23.07982,-15.63748 -0.45599,1.16079 0.21004,2.23635 2.41171,3.89462 9.18574,6.91859 17.67498,19.65795 18.82797,28.25417 0.65608,4.89147 -0.71865,6.56828 -5.38505,6.56828 -5.95914,0 -8.12645,-1.82937 -13.54257,-11.43095 -8.24747,-14.62091 -20.01309,-24.89186 -27.65296,-24.14001 -4.42075,0.43505 -4.1867,2.18503 0.73647,5.50655 2.43086,1.64004 6.90986,5.50076 9.95333,8.57938 10.17642,10.29396 17.19886,28.40403 12.74221,32.86069 -3.38303,3.38303 -18.55749,0.08 -27.36821,-5.95716 -1.67941,-1.15075 -4.39878,-4.34149 -6.04306,-7.09055 -4.18674,-6.99975 -13.09887,-15.73918 -16.05021,-15.73918 -4.93857,0 -3.89254,3.3706 3.69855,11.91776 8.561,9.63924 11.22834,19.73388 6.39736,24.21107 -3.43311,3.1817 -7.71472,3.83994 -14.64906,2.25206 z m -93.0126,-81.04944 c 0,-1.2913 -0.89544,-6.24598 -1.98986,-11.0104 -2.09267,-9.11014 -1.99837,-10.72483 1.69492,-29.02437 0.41962,-2.07919 0.18773,-2.52005 -1.32559,-2.52005 -4.4558,0 -7.89991,11.09006 -7.38962,23.79466 0.31263,7.7836 0.72872,9.63701 3.36628,14.99468 3.10059,6.29816 5.64387,7.99499 5.64387,3.76548 z m 391.61801,-32.24554 c 0.25808,-1.38602 0.71315,-4.01979 1.01127,-5.85281 0.29812,-1.83303 1.56301,-5.84545 2.8109,-8.9165 2.57491,-6.3369 2.87372,-9.28567 0.94094,-9.28567 -3.35143,0 -9.66863,13.26491 -9.66863,20.30226 0,5.66209 3.98267,8.70885 4.90552,3.75272 z m -302.46021,1.0293 c 0.93984,-0.93984 -1.7288,-5.2392 -4.5324,-7.30199 -5.98234,-4.4016 -11.39404,-6.13275 -12.67784,-4.05553 -0.69694,1.12768 1.10117,4.60084 2.38192,4.60084 0.52501,0 3.25804,1.64949 6.07341,3.66553 4.84323,3.46817 7.45555,4.39051 8.75491,3.09115 z M 188.70173,652.69187 c 0.23126,-1.13402 0.66869,-5.25773 0.97205,-9.16381 0.51253,-6.59934 0.42619,-7.10194 -1.21992,-7.10194 -3.48649,0 -6.21659,11.98544 -3.77099,16.55509 1.28431,2.39975 3.50303,2.24 4.01886,-0.28934 z m 115.67204,-13.9975 c 2.15673,-5.62034 -19.82174,-20.61774 -25.2225,-17.21103 -3.07655,1.94063 -1.73095,4.30763 3.55205,6.24832 6.66002,2.44651 9.70181,4.23978 14.66209,8.64392 4.44416,3.94589 6.16545,4.51539 7.00836,2.31879 z M 181.00779,628.57723 c 0.49154,-1.29283 0.9024,-4.07634 0.91303,-6.18557 0.0106,-2.10922 1.07969,-6.72156 2.3757,-10.24962 2.99524,-8.15381 3.44845,-10.14978 2.72986,-12.0224 -0.52851,-1.37728 -0.7546,-1.3579 -2.4939,0.21381 -2.60597,2.35487 -5.80677,8.96235 -7.19428,14.85127 -1.30756,5.54962 -1.61009,12.99304 -0.59485,14.63573 1.15347,1.86637 3.3226,1.23399 4.26444,-1.24322 z m 520.30892,-28.21279 c 0.52884,-6.27056 -6.82277,-18.92114 -10.9956,-18.92114 -2.47661,0 -2.04621,2.12445 1.9117,9.43606 1.96516,3.63033 3.8713,7.63152 4.23586,8.89154 1.59793,5.52279 4.40335,5.86625 4.84804,0.59354 z m -527.28249,-8.50985 c 0.31693,-0.82591 0.96764,-5.27623 1.44603,-9.8896 0.93649,-9.03128 1.91065,-12.35836 6.32397,-21.59844 1.56472,-3.27606 2.84529,-6.65378 2.84569,-7.50605 0.001,-2.91474 -1.91957,-2.73768 -4.93012,0.45443 -6.25915,6.63663 -11.28752,21.93895 -10.34639,31.48616 0.69167,7.01672 3.21156,10.83021 4.66082,7.0535 z m 516.45833,-15.35228 c 0,-0.70149 -1.87851,-3.36481 -4.17447,-5.91847 -7.05931,-7.85165 -22.26405,-14.02734 -23.91882,-9.71507 -0.6702,1.74649 1.24522,3.21525 6.85738,5.25833 2.35558,0.85753 7.32928,3.82975 11.05266,6.60491 6.66949,4.97103 10.18325,6.27198 10.18325,3.7703 z M 383.40576,564.9673 c 19.79622,-3.75427 47.75117,-24.13003 47.75117,-34.80479 0,-3.4407 -2.80967,-1.95546 -10.84277,5.7317 -4.36867,4.18054 -9.38632,8.68355 -11.15036,10.00671 -8.5017,6.37691 -21.51281,12.19314 -32.23199,14.40834 -5.31192,1.09776 -8.58915,3.29849 -6.13009,4.11651 4.54954,1.51342 6.93814,1.61605 12.60404,0.54153 z m 193.90935,-32.0849 c 0.93165,-1.50745 -0.6193,-3.28493 -6.86837,-7.8715 -3.27606,-2.40451 -9.32833,-7.5981 -13.44949,-11.54131 -4.12115,-3.94321 -7.93559,-7.16948 -8.47652,-7.16948 -1.38094,0 -1.22375,3.29245 0.2975,6.23108 1.40843,2.72072 11.07465,12.48168 16.13022,16.28833 5.69717,4.28974 11.12446,6.0728 12.36666,4.06288 z M 471.87962,514.08672 c 11.5974,-4.80076 18.48539,-6.11806 35.32652,-6.75603 12.71326,-0.4816 15.15358,-0.80084 15.3851,-2.01268 0.69693,-3.64777 -15.22118,-6.27963 -28.03871,-4.63585 -15.26373,1.95749 -34.07143,10.15159 -34.07143,14.84415 0,2.56785 2.47165,2.25569 11.39852,-1.43959 z M 285.26504,490.19333 c 0.35736,-2.48665 -6.04576,-6.00433 -15.80123,-8.68071 -7.805,-2.14127 -13.50741,-1.97259 -19.61727,0.58027 -2.99705,1.25225 -3.11813,1.45438 -1.7129,2.8596 1.11222,1.11222 4.12635,1.69524 11.39714,2.20453 6.79572,0.47602 11.88977,1.40963 16.29969,2.98733 7.40574,2.64948 9.05963,2.65807 9.43457,0.049 z m 414.82816,-2.15356 c 0.95093,-2.99612 -1.97338,-8.1893 -7.97756,-14.16701 -4.36299,-4.34375 -6.80701,-6.01502 -10.14975,-6.94055 -3.44837,-0.95479 -4.64042,-0.97828 -5.49828,-0.10831 -1.19094,1.20774 0.59954,3.0305 9.07216,9.23566 2.40863,1.76404 6.22401,5.57847 8.47862,8.47652 2.25462,2.89806 4.41771,5.26919 4.80688,5.26919 0.38917,0 0.95974,-0.79448 1.26793,-1.7655 z m -531.44753,-5.20588 c 1.90289,-2.32223 6.48865,-6.46217 10.19057,-9.19987 7.02977,-5.19876 8.43962,-7.65464 4.39431,-7.65464 -4.70157,0 -12.52013,5.31485 -17.98293,12.22433 -6.46717,8.17982 -3.18042,12.65834 3.39805,4.63018 z m -13.31284,-10.33027 c 4.33493,-7.67015 8.19575,-12.17065 14.32549,-16.69896 5.37244,-3.96886 6.66193,-5.85326 5.08466,-7.43052 -1.75158,-1.75158 -10.54752,3.40139 -16.16719,9.4713 -6.04641,6.53084 -9.66399,13.19129 -9.66399,17.79266 0,5.01258 2.50871,3.78793 6.42103,-3.13448 z M 51.236103,455.11419 c 0.266839,-0.43175 -0.334799,-3.62763 -1.336972,-7.10195 -2.33863,-8.10753 -3.209419,-18.32375 -1.85709,-21.78765 0.976528,-2.50132 1.248343,-2.61163 5.125807,-2.08016 2.252026,0.30867 6.14529,1.60039 8.651695,2.87048 5.844091,2.96143 8.28355,3.01731 8.28355,0.18975 0,-7.23647 -21.103184,-14.3489 -26.515526,-8.93655 -5.17157,5.17156 -4.657805,25.59348 0.872656,34.6876 1.744089,2.86792 5.581854,4.09046 6.77588,2.15848 z m 447.008637,-4.20294 c 19.9452,-5.5828 47.45973,-23.56614 47.45973,-31.0194 0,-3.65782 -1.87982,-3.12503 -8.42437,2.38766 -8.10821,6.82982 -13.30735,10.23029 -22.03665,14.41293 -16.11958,7.72371 -38.24296,10.87152 -55.3577,7.87656 -14.97869,-2.62118 -23.19934,-6.26312 -39.16598,-17.35143 -4.07643,-2.83096 -6.05769,-3.14433 -6.05769,-0.95813 0,3.89267 10.221,12.78989 20.61856,17.94816 5.83774,2.89612 14.97616,5.90324 23.02449,7.57653 8.33438,1.73275 32.51898,1.2042 39.93961,-0.87288 z M 311.99525,437.63184 c 1.38601,-2.5898 1.12936,-16.92173 -0.43596,-24.34433 -1.73209,-8.21344 -5.7532,-16.36349 -10.51197,-21.30584 -7.08553,-7.35886 -8.77342,-3.56876 -2.75469,6.18557 5.74008,9.30274 7.35586,14.62752 8.34112,27.48791 0.4828,6.30204 1.05622,11.97372 1.27426,12.60373 0.60208,1.73967 3.01906,1.36888 4.08724,-0.62704 z m 16.33251,-24.30032 c 0.24665,-8.39349 0.0808,-9.36245 -2.57483,-15.04599 -2.94701,-6.30713 -6.77801,-11.11485 -8.85679,-11.11485 -1.86631,0 -1.48171,1.85743 2.39924,11.5872 1.98129,4.96724 4.06455,11.71176 4.62944,14.98782 1.39029,8.06287 1.825,9.32398 3.07162,8.91088 0.6908,-0.22892 1.16077,-3.52071 1.33132,-9.32506 z m -208.28995,3.39242 c 1.28472,-6.67399 4.77855,-15.19067 9.29397,-22.6553 2.73556,-4.52228 4.8581,-8.818 4.71675,-9.54606 -1.32523,-6.82583 -12.71049,7.46278 -16.66356,20.91293 -1.49538,5.08794 -1.94811,12.10138 -0.85194,13.19755 1.37241,1.37242 3.04888,0.45921 3.50478,-1.90912 z m 561.04072,0.0391 c 2.47397,-3.77764 2.32576,-22.18253 -0.21975,-27.28851 -2.54442,-5.1038 -5.58844,-6.64074 -10.33551,-5.21848 -7.3149,2.1916 -17.47554,11.0522 -16.40593,14.3068 0.65558,1.99477 4.49419,1.59583 6.92085,-0.71927 1.33163,-1.27042 4.68919,-3.3634 7.46124,-4.65107 l 5.04009,-2.34124 1.10415,2.51253 c 0.65248,1.48476 1.12104,7.04196 1.14547,13.58544 0.0227,6.09012 0.31624,11.34785 0.65225,11.68385 1.25968,1.25969 3.06402,0.53204 4.63714,-1.87005 z m -276.95482,-3.00352 c 0,-0.76305 -3.35018,-3.17824 -7.62682,-5.49828 -21.62231,-11.72995 -35.51503,-28.80918 -39.14517,-48.12375 -0.75783,-4.03208 -1.60286,-8.05269 -1.87786,-8.93471 -0.90072,-2.8889 -3.02478,-1.7125 -4.13641,2.29095 -2.38518,8.58994 4.21862,26.8933 14.11046,39.10911 8.81331,10.88391 28.26272,23.39368 35.43295,22.79034 2.13451,-0.17962 3.24285,-0.73797 3.24285,-1.63366 z m 161.41147,-6.64476 c 7.4941,-6.90782 16.30528,-20.81068 15.73354,-24.8254 -0.57035,-4.00494 -3.67043,-2.32402 -7.18599,3.89636 -1.83019,3.23832 -5.56195,8.53 -8.2928,11.75929 -7.01547,8.29595 -9.13207,11.32399 -8.56115,12.24775 1.10473,1.78749 4.32087,0.59572 8.3064,-3.078 z M 436.19702,392.74042 c 0,-1.92889 -1.14494,-2.71514 -8.74425,-6.0048 -14.93596,-6.4656 -39.17797,-24.84911 -43.29687,-32.83344 -1.48141,-2.87166 -2.22221,-3.43699 -4.20281,-3.20733 -11.898,1.37964 15.40452,29.54115 40.20728,41.47228 5.56291,2.67599 7.74614,3.2572 11.45475,3.04945 4.16645,-0.2334 4.5819,-0.45792 4.5819,-2.47616 z m 104.83917,-2.10882 c 2.22052,-1.06141 6.91133,-4.64102 10.42401,-7.9547 13.07329,-12.33268 20.78142,-27.87549 20.80842,-41.95844 0.0198,-10.33298 -3.1264,-8.48822 -6.9611,4.08161 -5.06979,16.61831 -13.6433,29.36426 -26.2434,39.01516 -3.83115,2.93441 -7.20467,5.95798 -7.49671,6.71903 -1.39141,3.62596 2.01344,3.66097 9.46878,0.0973 z M 236.33278,371.82131 c 8.06862,-8.84097 27.9832,-33.62044 37.52301,-46.68943 5.81296,-7.96343 13.28389,-17.57174 16.60208,-21.35181 7.59997,-8.65787 9.04374,-12.87778 3.97024,-11.60442 -5.16101,1.29534 -16.41433,13.51164 -30.94909,33.59755 -4.19424,5.7961 -10.75984,14.3962 -14.59025,19.11133 -9.72072,11.96595 -13.60191,17.31872 -16.18696,22.32441 -4.17018,8.0751 -2.02092,10.80527 3.63097,4.61237 z M 78.350515,356.39783 c 0.252005,-8.5274 0.791806,-16.01982 1.199558,-16.64983 1.388275,-2.145 5.661545,-1.12199 12.504351,2.99351 11.119306,6.68754 14.985336,4.70134 6.685553,-3.43475 -4.717895,-4.62484 -12.898224,-8.9284 -16.998543,-8.94271 -7.897316,-0.0276 -11.180151,6.1586 -11.180151,21.06779 0,11.31632 0.731559,15.43023 3.331699,18.73578 3.439045,4.37203 3.969859,2.73228 4.457533,-13.76979 z m 261.735285,5.61954 c 0.28208,-0.73509 -1.31659,-3.90416 -3.58265,-7.10194 -5.0207,-7.08503 -7.80458,-12.46767 -9.85885,-19.06205 -1.18372,-3.79982 -2.04784,-5.11216 -3.51154,-5.33292 -1.70457,-0.2571 -1.94147,0.15712 -1.94147,3.39474 0,7.50829 6.97249,22.06981 12.99366,27.13629 3.07356,2.58624 5.14871,2.9259 5.90085,0.96588 z m 198.33731,-4.93479 c 8.97567,-5.72085 19.75656,-19.92788 20.31615,-26.77254 0.46186,-5.64921 -2.15713,-4.3079 -7.79525,3.99232 -4.9846,7.33813 -10.74133,13.3992 -18.49325,19.47088 -2.54864,1.99623 -3.40329,3.24531 -2.9783,4.35281 0.88096,2.29575 4.34528,1.89188 8.95065,-1.04347 z m -108.34792,-0.31489 c -0.22944,-1.56329 -2.27657,-2.85232 -9.45663,-5.9546 -12.0069,-5.18782 -20.06092,-10.79486 -28.40114,-19.7723 -6.96589,-7.4981 -9.62865,-8.6261 -9.62865,-4.07889 0,10.04517 30.10564,31.646 44.27909,31.7703 3.08125,0.027 3.46512,-0.2081 3.20733,-1.96451 z m 232.49996,-6.30431 c 2.06616,-3.34313 -2.81169,-8.80411 -17.71184,-19.82925 -14.31557,-10.5926 -18.02124,-14.19656 -29.96751,-29.14501 -11.43249,-14.30555 -19.56003,-22.45132 -22.40108,-22.45132 -3.06478,0 -2.34142,3.94527 1.54881,8.44724 1.89003,2.18724 7.76158,9.53191 13.0479,16.32148 11.8771,15.25459 20.03296,23.42272 31.08372,31.13048 4.69694,3.27606 11.64019,8.3276 15.42943,11.22566 7.20297,5.50891 7.99051,5.88648 8.97057,4.30072 z M 183.73425,340.949 c 6.80412,-3.18974 16.49485,-7.31525 21.53494,-9.16779 11.77449,-4.32781 33.34619,-14.75571 41.90252,-20.25594 3.6661,-2.35667 11.82027,-8.08198 18.12039,-12.72294 6.30011,-4.64096 14.45502,-10.62105 18.12201,-13.2891 8.91391,-6.48563 10.93354,-10.14095 5.60305,-10.14095 -4.21921,0 -11.1821,4.10731 -31.05611,18.31955 -19.48812,13.93629 -30.75685,20.25373 -49.02634,27.48497 -26.90369,10.64872 -44.79242,21.05652 -43.22266,25.14724 0.87157,2.2713 3.18071,1.58261 18.0222,-5.37504 z m 158.9389,-28.83563 c 0.28231,-0.45677 -0.10565,-4.06502 -0.86214,-8.01833 -2.99272,-15.63972 -1.74202,-25.16303 5.3969,-41.09389 3.57063,-7.96805 4.04728,-10.53838 1.95429,-10.53838 -1.83909,0 -8.05985,8.03508 -10.94913,14.14253 -6.84674,14.4728 -6.55592,36.65462 0.58016,44.25063 2.11504,2.25135 3.07365,2.56203 3.87992,1.25744 z m 23.42078,-2.63769 c 0,-1.40349 -0.91851,-5.01173 -2.04114,-8.01832 -1.74788,-4.68115 -2.0441,-7.3097 -2.06185,-18.29585 l -0.0207,-12.82932 3.43642,-7.19706 c 3.8984,-8.16456 4.17163,-9.75598 1.67507,-9.75598 -2.65115,0 -7.86481,6.71462 -9.80619,12.62931 -2.39828,7.30669 -2.42487,31.60518 -0.0413,37.74552 2.91911,7.51998 8.85971,11.35649 8.85971,5.7217 z m 322.24758,-7.10432 c 1.51009,-3.93524 -9.66662,-9.671 -29.44842,-15.11258 -17.76246,-4.8861 -21.99198,-6.55606 -41.30561,-16.30893 -20.10231,-10.15113 -26.98038,-12.05264 -26.98038,-7.45898 0,2.50737 2.79618,4.30478 21.66101,13.92393 21.47497,10.95006 23.13284,11.59731 45.16566,17.63325 9.86618,2.70287 19.79418,5.74416 22.06222,6.75843 5.0205,2.24517 8.12466,2.44341 8.84552,0.56488 z M 141.58076,288.66175 c 7.66766,-2.05512 21.52687,-3.92028 40.77892,-5.48801 30.16577,-2.45646 39.03044,-3.99713 70.56128,-12.26348 7.56014,-1.98202 18.48797,-4.52176 24.28408,-5.64387 13.55151,-2.62353 12.82932,-2.37049 12.82932,-4.49519 0,-5.86231 -10.55047,-5.18847 -41.91623,2.67707 -30.33839,7.60791 -41.63687,9.60071 -64.84207,11.43672 -30.70916,2.42971 -52.69187,7.54911 -52.69187,12.27103 0,3.32751 2.77949,3.7081 10.99657,1.50573 z M 409.62199,268.4187 c 35.33561,-8.25557 32.88341,-7.94951 64.60481,-8.06322 32.78519,-0.11751 38.18539,0.42934 58.06399,5.87986 7.29881,2.00126 14.64297,3.63234 16.32036,3.62463 11.72655,-0.054 2.40793,-9.1947 -13.93542,-13.66942 -14.72129,-4.0306 -44.9934,-7.3933 -66.55707,-7.3933 -33.88367,0 -83.3798,13.80289 -74.12908,20.67223 2.40361,1.78485 3.9363,1.68183 15.63241,-1.05078 z m 214.57412,-17.78022 c 6.12574,-0.47649 16.07714,-1.71886 22.11423,-2.76084 6.03709,-1.04197 17.77848,-2.23655 26.092,-2.6546 8.31351,-0.41805 15.57861,-1.04633 16.14466,-1.39617 2.02658,-1.25249 0.97063,-3.3964 -2.40725,-4.88746 -5.11246,-2.25673 -25.02332,-2.0118 -38.71707,0.47628 -12.96597,2.35585 -16.47206,2.72858 -36.65521,3.89684 -8.82016,0.51054 -17.24222,1.25303 -18.71569,1.65 -2.86286,0.77127 -5.04874,3.28527 -3.87608,4.45791 1.91619,1.9162 19.43065,2.50845 36.02041,1.21804 z m -332.50685,-5.1823 c 0.54688,-3.8362 -8.22648,-5.80307 -38.31011,-8.58856 -23.57938,-2.18326 -34.29727,-4.04966 -60.41938,-10.52137 -26.37876,-6.53529 -37.93634,-8.6855 -50.00444,-9.30302 -11.14176,-0.57012 -15.12028,0.2959 -15.12028,3.29131 0,2.6675 2.20412,3.437 11.91295,4.15899 11.71173,0.87093 23.52449,3.19011 51.31729,10.07505 27.06922,6.70568 35.73476,8.30008 52.97868,9.74764 6.89838,0.57909 17.69715,1.5719 23.99727,2.20623 6.30011,0.63432 14.13516,1.09637 17.41122,1.02677 5.34632,-0.11357 5.98519,-0.32798 6.2368,-2.09304 z m 218.04728,-7.50051 c 1.69514,-2.10386 1.3919,-5.40684 -0.68728,-7.48603 -2.37263,-2.37262 -3.27138,-2.31021 -5.99813,0.41655 -2.83451,2.8345 -2.83669,4.57765 -0.009,7.40511 2.37379,2.37379 4.60158,2.2621 6.69464,-0.33563 z m -21.76403,-1.07136 c 2.43081,-2.43081 2.31101,-4.18695 -0.47571,-6.97368 -1.58258,-1.58258 -3.09539,-2.21784 -4.811,-2.02021 -2.16202,0.24905 -2.54091,0.75058 -2.78462,3.6859 -0.15515,1.8687 0.16863,4.23984 0.71952,5.26919 1.28971,2.40983 4.9614,2.4292 7.35181,0.0388 z m 103.75915,-1.25879 c 8.67782,-3.2837 26.11864,-11.87181 32.38818,-15.9484 5.74888,-3.73806 12.62219,-10.21734 26.05198,-24.55853 4.28408,-4.57481 10.46965,-10.1565 13.74571,-12.40375 6.94448,-4.76366 8.12815,-7.8613 2.84109,-7.43502 -5.71214,0.46055 -9.37214,3.1645 -25.63592,18.9394 -8.88323,8.61621 -17.57699,16.67495 -19.31945,17.90831 -1.74246,1.23336 -10.19607,5.69396 -18.78579,9.91245 -8.58973,4.21849 -16.33934,8.3172 -17.22135,9.10824 -1.69068,1.51627 -2.23747,6.65247 -0.70821,6.65247 0.49251,0 3.4822,-0.97883 6.64376,-2.17517 z m -294.36625,-0.98553 c 0,-4.5321 -10.25144,-9.7803 -37.5716,-19.23465 -28.85376,-9.98507 -33.47744,-13.02828 -61.46437,-40.45457 -24.68036,-24.18594 -35.64509,-32.31854 -42.2998,-31.37397 -1.51708,0.21533 -2.07775,0.90384 -2.07775,2.55153 0,1.88766 1.34543,3.01135 8.22904,6.87285 8.67204,4.86474 13.75774,9.55772 38.96455,35.9557 17.37235,18.19331 24.48869,22.39362 59.5005,35.11926 10.87152,3.95143 22.65299,8.43499 26.18105,9.96345 8.0999,3.5091 10.53838,3.64803 10.53838,0.6004 z M 436.4794,217.61796 c 3.50537,-2.13717 6.55023,-8.09045 6.55023,-12.80696 0,-10.86128 -11.04784,-18.47152 -19.66193,-13.544 -7.41489,4.24154 -9.77705,14.58506 -5.07008,22.2011 3.58016,5.79282 12.2437,7.77021 18.18178,4.14986 z m 100.22549,-1.72043 c 8.48312,-9.4079 -0.1696,-27.61009 -11.28325,-23.73585 -9.37215,3.26714 -8.91705,24.1898 0.58065,26.69559 3.82597,1.00942 8.21906,-0.20547 10.7026,-2.95974 z m -121.4031,-46.75667 c 15.64601,-13.28134 18.59216,-17.14992 14.31158,-18.79253 -6.28322,-2.4111 -23.19871,12.7087 -23.19871,20.736 0,3.88687 2.71927,3.29221 8.88713,-1.94347 z m 119.87812,3.57447 c 1.19766,-1.93785 -0.73769,-6.4896 -4.57314,-10.75553 -7.03718,-7.82703 -18.41186,-12.29286 -20.10071,-7.89176 -0.75308,1.96249 0.46454,3.31472 8.1491,9.04992 3.53691,2.6397 7.64192,6.0902 9.12224,7.66778 2.65044,2.82457 6.26679,3.76723 7.40251,1.92959 z"
     id="path59"
     transform="scale(0.75)" />
  <path
     style="fill:#ffffff;stroke-width:0.91638"
     d="m 88.850761,756.13543 c -2.541015,-1.18326 -7.489469,-4.73232 -10.996564,-7.88683 -12.346224,-11.10498 -17.031678,-12.83806 -26.07871,-9.64608 -2.142771,0.75601 -5.937678,1.37457 -8.433127,1.37457 -3.792936,0 -4.976563,-0.43939 -7.215829,-2.67865 -4.506978,-4.50698 -3.508237,-10.37112 3.67969,-21.60543 3.180872,-4.97152 3.577424,-6.28215 4.139145,-13.68023 0.341682,-4.50007 1.21231,-9.32495 1.934729,-10.72196 1.968825,-3.80729 1.632163,-5.58675 -1.919446,-10.14539 -3.598737,-4.61913 -6.70461,-12.54532 -7.479435,-19.08751 -0.598121,-5.05019 0.323811,-6.00099 3.973239,-4.09765 3.494899,1.82275 4.906372,1.72671 4.906372,-0.33382 0,-1.96806 -2.006881,-4.74044 -9.126205,-12.60728 -9.611732,-10.62096 -17.766496,-28.36648 -20.659724,-44.95748 -1.958011,-11.22807 -1.776865,-30.76982 0.380705,-41.06971 4.934633,-23.55714 16.593105,-42.65065 31.513662,-51.61108 11.424872,-6.86112 26.136252,-9.6869 39.072025,-7.505 19.997062,3.37294 40.845702,22.06261 47.259362,42.36544 2.44392,7.73639 4.20423,25.64272 2.61726,26.62352 -0.46363,0.28653 -2.58117,-2.87364 -4.70567,-7.0226 -4.83786,-9.44794 -9.63759,-15.22141 -12.65421,-15.22141 -3.18108,0 -2.83461,2.135 1.40239,8.64172 3.836,5.89092 8.28087,16.6022 8.30609,20.01608 0.008,1.12252 1.0168,3.69042 2.24114,5.70646 1.22434,2.01604 2.86213,4.76957 3.63954,6.11896 0.77741,1.34939 2.05234,6.71022 2.83318,11.91295 2.8375,18.90625 5.84214,28.46132 13.60296,43.25895 6.42008,12.24123 8.2875,18.43804 7.65578,25.40481 -0.63923,7.04953 -4.22444,13.39915 -11.30598,20.02359 -7.33813,6.86445 -14.82345,10.53082 -19.85671,9.72597 -3.83012,-0.61246 -7.98879,1.15812 -7.98879,3.40128 0,0.62316 -0.82804,1.65014 -1.8401,2.28218 -2.59051,1.61779 -12.53018,3.84394 -17.23504,3.86006 -4.51511,0.0155 -7.49989,1.30317 -7.49989,3.23565 0,3.62834 16.87481,2.85828 28.40779,-1.29635 14.13786,-5.093 28.06099,-2.71705 39.01305,6.65751 3.98374,3.40994 7.61412,9.24164 6.46715,10.38861 -0.39413,0.39414 -3.13037,-0.62051 -6.08052,-2.25478 -5.43985,-3.01347 -9.15913,-3.80599 -9.15913,-1.95168 0,0.56084 1.85927,3.49308 4.13171,6.5161 6.68346,8.89096 6.44309,12.64301 -0.80749,12.60443 -5.96063,-0.0317 -11.01842,-2.96616 -18.75452,-10.88103 -7.02462,-7.18696 -11.18686,-9.58363 -13.18081,-7.58969 -1.17786,1.17786 0.17837,3.47451 5.23724,8.86885 5.98791,6.38499 10.30744,18.04993 7.80184,21.06899 -1.57394,1.89649 -3.99732,1.71395 -11.25605,-0.8478 -9.2711,-3.27196 -15.02548,-7.3191 -17.58321,-12.36653 -1.98399,-3.91522 -9.575657,-11.99731 -11.238339,-11.96434 -0.389268,0.008 -1.291821,0.38373 -2.005674,0.83558 -1.057853,0.66959 -0.620343,1.98057 2.365437,7.08792 4.877996,8.34407 6.031936,11.45786 5.967826,16.10345 -0.0973,7.0512 -5.060125,8.87127 -13.488139,4.94668 z m 28.047969,-62.00959 c 2.13837,-1.14443 2.33529,-4.13762 0.323,-4.90981 -0.79724,-0.30594 -3.41954,-0.55624 -5.82734,-0.55624 -4.1639,0 -6.96538,-1.09923 -17.007219,-6.67323 -1.512028,-0.8393 -4.316142,-2.21215 -6.231366,-3.05081 -4.661392,-2.04115 -9.483556,-7.75603 -13.929001,-16.50764 -4.251474,-8.36975 -6.522666,-9.51674 -6.223437,-3.14298 0.468785,9.98546 10.131664,22.73116 20.883683,27.54638 3.527053,1.57957 7.101832,3.49548 7.943952,4.25759 3.580758,3.24054 16.136698,5.14056 20.067728,3.03674 z M 52.484064,625.39019 c 0.148011,-0.77766 -1.172173,-3.26389 -2.933742,-5.52493 -4.599251,-5.90334 -7.910411,-15.37285 -8.628431,-24.67626 -0.548198,-7.10303 -0.778333,-7.81444 -2.612319,-8.07542 -1.659039,-0.23608 -2.184716,0.35835 -3.002426,3.39509 -2.266561,8.41737 3.211099,26.28265 10.366781,33.81106 2.983991,3.13942 6.316655,3.66327 6.810137,1.07046 z m 19.853198,-15.31001 c 0.301007,-3.40206 0.744075,-8.30178 0.984596,-10.88827 0.314658,-3.38373 0.0703,-5.00731 -0.871229,-5.7887 -1.935434,-1.60627 -4.107106,2.2314 -5.341867,9.43989 -1.235355,7.21196 0.1334,13.42265 2.958178,13.42265 1.462233,0 1.805876,-0.93627 2.270322,-6.18557 z"
     id="path60"
     transform="scale(0.75)" />
  <path
     style="fill:#ffffff;stroke-width:0.91638"
     d="m 198.80478,724.55379 c -11.26617,-3.92208 -18.14487,-9.40598 -25.81519,-20.58063 -1.62688,-2.37015 -5.03197,-5.58339 -7.57479,-7.148 -5.07755,-3.12425 -6.71321,-5.32489 -5.84942,-7.86989 1.45227,-4.27881 6.18679,-14.04118 6.80966,-14.04118 0.38338,0 2.74416,2.60488 5.24617,5.78862 2.502,3.18374 7.93622,8.85384 12.07604,12.60023 4.13982,3.74638 9.60878,9.66542 12.15324,13.15342 2.54447,3.48799 7.0448,8.94151 10.00073,12.11892 2.95594,3.17741 5.37444,6.40607 5.37444,7.1748 0,2.11299 -4.02983,1.72487 -12.42088,-1.19629 z"
     id="path61"
     transform="scale(0.75)" />
  <path
     style="fill:#ffffff;stroke-width:0.91638"
     d="m 258.86287,195.73445 c -12.35942,-4.05725 -21.62545,-8.56969 -28.08958,-13.6793 -4.16501,-3.29225 -19.603,-18.77522 -40.17622,-40.2933 l -7.27407,-7.60814 3.1592,-9.34489 c 3.72547,-11.01993 7.39922,-15.94324 11.18731,-14.99249 2.48218,0.62299 11.72339,11.14554 11.72339,13.3489 0,0.7119 -2.8866,4.16386 -6.41466,7.67101 -6.27253,6.23533 -7.78909,9.35824 -5.05424,10.4077 0.74823,0.28713 2.707,-0.31914 4.35281,-1.34725 12.18259,-7.61029 25.76034,-13.8944 30.02092,-13.8944 1.39477,0 2.10542,1.15478 3.24265,5.26919 3.71123,13.4269 5.40336,18.5245 8.64525,26.04413 5.01742,11.63801 10.47526,20.93678 18.64705,31.76979 3.93942,5.22232 7.02564,9.63207 6.85829,9.79943 -0.16736,0.16736 -5.04001,-1.25031 -10.8281,-3.15038 z"
     id="path62"
     transform="scale(0.75)" />
  <path
     style="fill:#ffffff;stroke-width:0.91638"
     d="m 109.87076,204.12371 c -0.27255,-0.88201 -0.88646,-2.22222 -1.36424,-2.97823 -2.73131,-4.32192 -3.58098,-7.80812 -3.58098,-14.6929 0,-4.0814 0.42688,-8.21835 0.94863,-9.19324 1.8675,-3.48946 8.7549,-1.60357 17.06932,4.67388 5.35455,4.04272 6.00172,4.23408 7.6407,2.25922 0.62744,-0.75601 1.7346,-1.37457 2.46035,-1.37457 2.3619,0 -3.35073,8.94232 -9.13182,14.29459 -4.58169,4.24184 -11.19237,8.61492 -13.02296,8.61492 -0.2879,0 -0.74645,-0.72165 -1.019,-1.60367 z"
     id="path63"
     transform="scale(0.75)" />
  <path
     style="fill:#ffffff;stroke-width:0.91638"
     d="m 568.27017,212.32712 c -0.24858,-0.40222 -1.12527,-4.62902 -1.9482,-9.3929 -3.95198,-22.87791 -15.65341,-44.89105 -31.83524,-59.8896 -6.0561,-5.61326 -8.46392,-8.52665 -9.47687,-11.46677 -1.66397,-4.8297 -1.35613,-5.27705 6.7514,-9.81103 16.90295,-9.45268 28.38397,-29.148385 30.37885,-52.11499 0.94443,-10.872898 -0.44043,-24.143894 -3.94532,-37.807615 -1.713,-6.678121 -2.78442,-12.142039 -2.38093,-12.142039 2.25949,0 15.33095,10.16157 22.02607,17.122758 8.73104,9.078014 13.93324,16.511945 19.20175,27.439274 5.87081,12.176547 10.97665,30.024691 10.97665,38.370382 v 3.28459 l -3.97513,-2.32958 c -2.18632,-1.28127 -4.45436,-2.32958 -5.04009,-2.32958 -2.57086,0 -0.63489,4.05823 4.61142,9.66654 l 5.67639,6.06808 -1.09653,12.98034 c -1.54611,18.30248 -1.28771,17.79647 -6.33344,12.40217 -2.71462,-2.90214 -4.93062,-4.46192 -6.33916,-4.46192 -3.11665,0 -2.73177,2.07242 1.41132,7.59946 6.74584,8.99921 6.60053,14.47704 -0.78901,29.74304 -2.50065,5.1661 -4.7407,9.3929 -4.97788,9.3929 -0.23718,0 -1.87532,-3.00236 -3.6403,-6.67192 -3.48016,-7.23555 -7.29592,-12.02589 -9.0815,-11.40101 -1.53896,0.53858 -1.09201,2.5536 2.64299,11.91564 5.37798,13.48025 4.34948,19.12591 -5.35353,29.38669 -4.69675,4.96674 -6.4843,6.03181 -7.46371,4.44709 z"
     id="path64"
     transform="scale(0.75)" />
  <path
     style="fill:#ffffff;stroke-width:0.91638"
     d="m 586.0252,209.90015 c 0,-0.3343 1.59121,-2.95632 3.53603,-5.82672 4.46921,-6.59622 13.45211,-22.14442 14.25458,-24.67278 0.33438,-1.05355 1.24199,-2.44174 2.0169,-3.08486 2.06597,-1.71461 3.06794,0.3856 3.102,6.50208 0.0621,11.15032 3.38045,9.16256 9.17882,-5.49828 4.78647,-12.1023 9.29798,-20.74472 12.87163,-24.65736 2.73298,-2.99224 2.80755,-3.01352 4.6736,-1.33374 3.02062,2.7191 7.16404,10.61542 7.17342,13.67076 0.0162,5.25916 -16.7134,23.36455 -29.36281,31.7776 -11.78087,7.8354 -27.44417,15.3253 -27.44417,13.1233 z"
     id="path65"
     transform="scale(0.75)" />
</svg>
