<?xml version="1.0" encoding="UTF-8" standalone="no"?>
<svg
   version="1.0"
   width="990"
   height="839"
   viewBox="150 196 990 839"
   preserveAspectRatio="xMidYMid meet"
   id="svg11"
   sodipodi:docname="frog19.svg"
   inkscape:version="1.4.3 (0d15f75, 2025-12-25)"
   xmlns:inkscape="http://www.inkscape.org/namespaces/inkscape"
   xmlns:sodipodi="http://sodipodi.sourceforge.net/DTD/sodipodi-0.dtd"
   xmlns="http://www.w3.org/2000/svg"
   xmlns:svg="http://www.w3.org/2000/svg">
  <defs
     id="defs11" />
  <sodipodi:namedview
     id="namedview11"
     pagecolor="#505050"
     bordercolor="#ffffff"
     borderopacity="1"
     inkscape:showpageshadow="0"
     inkscape:pageopacity="0"
     inkscape:pagecheckerboard="1"
     inkscape:deskcolor="#505050"
     inkscape:zoom="0.48030186"
     inkscape:cx="458.04528"
     inkscape:cy="302.93449"
     inkscape:window-width="1728"
     inkscape:window-height="1056"
     inkscape:window-x="0"
     inkscape:window-y="33"
     inkscape:window-maximized="1"
     inkscape:current-layer="g11" />
  <metadata
     id="metadata1">
Created by potrace 1.16, written by Peter Selinger 2001-2019
</metadata>
  <g
     transform="translate(0.000000,1254.000000) scale(0.100000,-0.100000)"
     fill="#000000"
     stroke="none"
     id="g11">
    <path
       id="path1"
       d="m 4240.7422,10110.176 c -0,-0.384 0,-0.768 0,-1.153 0.339,-0.03 0.6766,-0.08 1.0156,-0.117 -0.3517,0.419 -0.6653,0.85 -1.0156,1.27 z" />
    <path
       d="M6915 9819 c-362 -51 -644 -249 -789 -552 -41 -86 -86 -233 -86 -282 0 -13 -24 -46 -58 -81 -32 -32 -66 -70 -74 -82 -12 -18 -33 -27 -85 -37 -277 -54 -549 -226 -745 -472 -65 -82 -158 -236 -188 -312 -23 -58 -28 -62 -118 -118 -593 -366 -1190 -1130 -1411 -1803 -28 -85 -56 -175 -62 -198 -8 -35 -13 -42 -27 -36 -87 38 -223 74 -306 83 -169 17 -314 -8 -461 -81 -272 -134 -467 -408 -542 -760 -23 -110 -23 -339 0 -464 44 -235 160 -474 325 -670 l60 -71 -114 -57 c-194 -99 -334 -217 -388 -329 -94 -192 -16 -375 183 -434 116 -34 306 -15 440 43 63 28 61 28 61 9 0 -36 47 -133 84 -173 84 -91 184 -132 329 -133 156 -1 261 36 349 124 46 46 98 133 98 165 0 16 -3 17 92 -28 239 -115 524 -86 639 64 20 27 41 65 48 86 14 46 14 124 1 169 -5 19 -8 36 -6 38 1 2 32 -10 68 -26 103 -47 282 -106 413 -136 99 -23 126 -33 155 -59 20 -18 56 -46 81 -63 44 -31 46 -34 62 -113 50 -247 198 -434 397 -500 91 -31 223 -25 295 12 54 28 91 59 116 97 l15 24 54 -42 c116 -91 237 -135 375 -133 99 1 156 16 218 59 42 29 97 114 97 150 0 29 13 35 45 23 96 -37 263 -32 344 9 49 25 105 89 121 136 19 57 8 154 -24 211 -14 25 -26 50 -26 55 0 5 24 9 53 9 183 0 485 63 730 152 l138 50 44 -21 c25 -12 84 -33 132 -48 74 -22 108 -26 210 -27 l123 -1 0 -41 c0 -53 42 -135 87 -170 70 -53 127 -68 253 -68 111 0 170 13 270 58 12 5 18 -4 27 -36 38 -140 172 -234 348 -245 182 -12 337 70 407 216 17 36 32 67 33 68 1 2 42 -14 91 -35 88 -37 91 -37 224 -37 128 0 138 2 197 29 178 82 229 260 130 449 -39 75 -141 185 -226 244 -36 26 -69 49 -74 53 -4 3 18 44 49 90 117 176 211 393 256 591 20 89 23 131 23 294 0 181 -2 195 -30 290 -88 300 -284 531 -570 671 -113 55 -218 88 -323 100 l-60 6 5 162 c6 177 -2 249 -43 387 l-26 85 56 75 c58 76 152 255 181 343 24 75 43 173 46 246 3 64 4 66 66 135 35 38 78 99 96 135 17 36 33 67 35 69 3 6 190 -69 313 -126 l96 -45 6 -68 c12 -138 84 -294 180 -391 130 -129 372 -225 407 -160 28 54 -5 224 -67 344 -25 48 -63 98 -115 151 -43 43 -77 80 -76 80 2 1 26 7 53 14 88 22 174 71 250 143 83 79 138 170 133 222 -5 48 -39 60 -172 60 -200 0 -336 -52 -461 -177 -40 -39 -77 -80 -82 -90 -10 -18 -21 -14 -174 51 -90 39 -180 76 -199 83 -52 20 -53 23 -21 64 35 44 47 78 60 169 10 69 1 169 -20 237 -53 168 -219 372 -379 467 -27 15 -30 23 -30 68 -2 173 -104 370 -248 474 l-60 44 -4 66 c-6 78 -43 190 -90 269 -54 92 -179 211 -274 260 -112 58 -192 75 -329 70 -123 -5 -212 -30 -313 -90 -63 -37 -187 -156 -197 -189 -6 -19 -12 -21 -54 -15 -25 3 -85 9 -133 12 l-88 7 -65 76 c-117 135 -288 252 -435 295 -131 40 -298 53 -425 35z m337 -138 c264 -68 475 -257 608 -545 22 -48 47 -89 55 -92 24 -9 45 15 45 51 0 28 -25 125 -47 182 -5 13 2 14 48 8 90 -12 264 -55 351 -87 138 -50 158 -55 169 -38 5 8 8 22 6 30 -3 21 -131 105 -200 131 -31 12 -60 26 -63 30 -9 16 99 114 166 152 157 87 352 89 515 4 87 -45 194 -156 239 -248 34 -69 71 -203 61 -220 -6 -9 -116 -43 -210 -64 -59 -14 -76 -15 -108 -4 -44 15 -70 5 -75 -28 -4 -24 39 -62 79 -70 24 -4 27 -11 33 -60 13 -110 97 -232 192 -281 22 -11 91 -35 154 -53 192 -54 332 -129 456 -241 203 -186 282 -474 171 -620 -18 -23 -37 -43 -44 -45 -6 -2 -20 15 -31 39 -128 290 -816 219 -1560 -159 -186 -95 -311 -170 -587 -351 -366 -242 -409 -265 -464 -247 -12 3 -23 18 -27 33 -10 49 -23 72 -42 72 -31 0 -53 -24 -58 -65 -7 -56 21 -104 77 -133 87 -46 174 -16 416 144 474 312 730 458 1000 570 474 197 950 259 1093 143 l25 -20 -63 6 c-113 12 -181 9 -203 -11 -45 -41 -14 -68 95 -82 96 -13 253 -48 276 -62 24 -15 -33 -113 -112 -193 -64 -65 -68 -71 -68 -115 -1 -293 -179 -622 -461 -853 -65 -54 -89 -80 -89 -97 0 -51 61 -37 177 41 42 29 82 56 89 62 18 13 21 8 39 -60 35 -135 37 -324 4 -503 -14 -77 -3 -98 45 -87 132 31 370 -40 551 -166 93 -64 228 -204 278 -290 148 -253 170 -564 63 -892 -58 -175 -141 -335 -258 -491 -37 -48 -58 -86 -56 -99 2 -12 21 -30 51 -46 125 -69 275 -208 318 -298 93 -193 -57 -334 -309 -289 -56 10 -105 27 -155 53 -62 34 -75 46 -94 86 -16 33 -30 48 -49 53 -42 11 -54 -14 -47 -95 14 -173 -99 -297 -283 -309 -128 -8 -234 43 -275 132 -21 45 -25 140 -9 195 26 92 -76 93 -105 2 -7 -23 -142 -87 -214 -102 -76 -16 -186 -7 -238 19 -56 29 -73 56 -73 116 0 124 112 239 345 356 97 49 114 73 79 111 -14 16 -16 31 -10 101 25 307 154 549 396 745 61 50 80 71 78 87 -5 32 -43 31 -112 -3 -124 -63 -258 -194 -326 -322 -17 -32 -38 -59 -46 -59 -9 0 -14 3 -12 8 2 4 22 43 44 87 117 227 174 423 181 626 5 118 3 137 -11 152 -38 37 -61 9 -76 -95 -111 -772 -660 -1402 -1434 -1648 -216 -68 -363 -95 -606 -110 l-165 -10 -67 45 c-62 41 -272 152 -332 175 -15 6 -26 17 -26 29 0 65 -25 240 -45 322 -28 111 -81 242 -131 324 -19 32 -34 62 -34 67 0 5 20 37 44 71 61 86 150 274 181 382 30 106 51 265 41 318 -7 37 -33 61 -53 49 -17 -12 -33 -49 -33 -80 0 -46 -45 -212 -85 -314 -39 -99 -122 -255 -158 -300 l-22 -27 -59 45 c-42 32 -67 44 -85 42 -43 -5 -38 -38 15 -99 99 -114 195 -284 242 -429 46 -140 73 -350 53 -403 -14 -36 -1 -62 36 -72 44 -11 290 -136 370 -187 149 -97 213 -176 213 -264 0 -45 -4 -57 -30 -82 -16 -17 -46 -36 -67 -43 -51 -17 -185 -6 -256 21 -47 18 -60 28 -72 56 -41 98 -208 214 -229 158 -10 -27 -7 -33 50 -95 74 -81 97 -134 92 -210 -5 -65 -21 -90 -79 -120 -125 -63 -330 -11 -465 120 -48 46 -62 67 -67 98 -11 69 -69 119 -94 80 -4 -6 -8 -48 -8 -93 0 -72 -3 -85 -28 -123 -37 -56 -97 -83 -184 -83 -76 1 -121 14 -189 57 -57 37 -112 98 -154 170 -36 64 -80 193 -80 238 0 63 -17 90 -88 137 -90 60 -253 224 -332 335 -124 172 -226 407 -267 613 -24 120 -24 357 0 472 62 297 203 551 423 759 149 141 327 249 529 319 70 25 80 31 80 53 0 22 -5 24 -48 27 -70 5 -197 -32 -322 -92 -400 -193 -692 -590 -781 -1061 -26 -135 -24 -359 4 -502 50 -254 155 -480 338 -731 17 -23 17 -23 -12 -16 -257 62 -597 251 -681 379 -18 27 -57 74 -88 105 -30 30 -55 60 -55 66 0 6 14 31 32 55 91 125 150 350 102 390 -26 21 -46 -1 -69 -77 -70 -228 -242 -406 -465 -480 -100 -34 -123 -51 -101 -78 31 -37 205 -3 330 65 l76 41 98 -101 c53 -56 97 -109 97 -118 0 -9 35 -52 78 -97 96 -100 132 -168 132 -246 0 -76 -35 -127 -111 -160 -67 -29 -205 -39 -288 -20 -124 28 -251 105 -271 165 -13 41 -43 65 -70 58 -26 -7 -30 -24 -28 -114 2 -68 -2 -84 -31 -143 -57 -117 -156 -170 -311 -169 -142 1 -237 51 -285 149 -24 49 -25 160 -1 222 37 101 -53 112 -103 13 -16 -31 -34 -44 -108 -79 -298 -141 -581 -56 -523 159 22 82 110 181 227 255 98 63 292 156 341 163 39 5 48 10 50 29 3 18 -16 43 -86 110 -433 421 -524 1051 -218 1510 152 229 372 354 626 355 165 1 312 -45 459 -143 154 -104 326 -309 396 -474 28 -66 54 -86 76 -60 18 22 13 62 -16 139 -70 187 -182 338 -348 470 l-37 30 25 104 c86 354 318 793 616 1166 124 155 436 472 569 577 100 80 215 159 290 201 41 22 51 36 105 143 82 162 152 260 270 380 126 127 255 215 409 278 66 27 190 56 214 49 19 -5 31 4 65 43 23 27 75 81 115 120 57 57 72 78 72 101 0 108 101 343 193 451 154 179 348 278 622 316 58 8 214 -4 287 -23z m2203 -956 c30 -54 74 -199 64 -210 -2 -2 -53 13 -112 32 l-108 36 30 31 c39 41 61 95 61 152 0 41 2 45 15 34 9 -7 31 -41 50 -75z m1525 -1206 c0 -6 -33 -44 -72 -83 -82 -82 -149 -118 -249 -137 -66 -12 -179 -5 -179 11 0 4 24 32 53 62 63 63 173 124 260 143 78 17 187 19 187 4z m-385 -414 c77 -55 115 -96 160 -170 33 -55 75 -168 75 -201 0 -21 -16 -17 -88 18 -78 39 -163 114 -208 185 -36 56 -84 186 -84 227 l0 26 43 -21 c23 -12 69 -41 102 -64z m-1727 -2983 c10 -7 9 -17 -3 -52 -24 -69 -45 -205 -45 -295 l0 -82 -87 -50 -88 -50 -55 51 c-30 28 -66 58 -79 67 l-24 15 48 45 c63 58 216 235 262 304 36 55 47 62 71 47z m-432 -503 c24 -11 59 -38 79 -60 l36 -41 -44 -47 c-24 -26 -49 -57 -56 -69 -17 -32 -81 -45 -196 -39 -92 5 -215 31 -215 46 0 3 52 37 115 75 63 39 138 89 167 112 29 24 57 43 62 43 5 1 29 -8 52 -20z"
       id="path2" />
    <path
       d="M6328 9112 c-59 -8 -61 -53 -3 -78 19 -8 35 -16 35 -19 0 -3 -10 -40 -22 -82 -41 -151 -23 -328 49 -467 51 -98 174 -221 268 -269 130 -65 203 -82 350 -81 113 0 141 4 210 27 214 71 372 227 440 435 13 41 21 52 33 47 39 -15 151 -27 186 -21 69 13 111 83 70 117 -13 10 -23 10 -62 -4 -55 -20 -60 -19 -342 68 -480 148 -1085 320 -1150 327 -19 2 -47 2 -62 0z m238 -153 c41 -12 74 -26 74 -31 0 -5 -8 -23 -17 -41 -12 -23 -17 -57 -17 -117 -1 -76 2 -92 32 -151 35 -72 72 -107 150 -141 166 -75 381 52 417 245 8 43 12 43 96 18 292 -88 271 -80 265 -109 -13 -53 -76 -168 -121 -219 -54 -62 -157 -132 -240 -163 -82 -31 -262 -39 -355 -16 -213 53 -373 211 -420 415 -26 110 8 352 47 337 8 -3 48 -16 89 -27z"
       id="path3" />
    <path
       d="M9146 8368 c-34 -30 -44 -79 -21 -101 25 -26 63 -21 96 12 69 70 -2 153 -75 89z"
       id="path4" />
    <path
       d="M8626 8326 c-29 -28 -31 -38 -15 -68 21 -39 129 -64 157 -36 22 22 14 65 -19 92 -17 14 -36 26 -42 26 -7 0 -22 3 -34 6 -15 4 -29 -2 -47 -20z"
       id="path5" />
    <path
       d="M5533 8271 c-144 -49 -253 -195 -253 -339 0 -73 25 -116 83 -142 54 -25 93 -25 160 0 157 59 278 271 228 402 -15 39 -59 75 -107 87 -53 14 -49 14 -111 -8z m121 -82 c22 -17 26 -28 26 -70 0 -145 -188 -313 -290 -259 -30 16 -43 71 -30 122 42 156 208 274 294 207z"
       id="path6" />
    <path
       d="M6493 7873 c-28 -11 -9 -45 82 -151 52 -62 95 -116 95 -120 0 -5 -19 -30 -42 -56 l-41 -48 -87 87 c-60 59 -93 86 -106 83 -36 -7 -24 -34 60 -135 66 -78 82 -104 72 -112 -28 -23 -108 -150 -104 -167 6 -34 27 -24 97 48 l71 73 96 -97 c82 -84 98 -96 115 -88 10 6 19 16 19 22 0 6 -35 53 -77 106 -43 52 -84 102 -90 111 -11 14 -6 24 31 66 l45 50 69 -72 c43 -45 78 -73 91 -73 34 0 26 40 -20 95 -23 28 -53 65 -66 82 l-25 32 46 53 c83 95 50 135 -42 50 l-52 -49 -107 109 c-59 59 -109 108 -112 107 -3 0 -12 -3 -18 -6z"
       id="path7" />
    <path
       d="M5565 7513 c-101 -52 -152 -171 -111 -252 49 -95 201 -76 275 34 32 47 40 129 17 173 -30 58 -116 80 -181 45z m111 -78 c29 -45 -6 -119 -72 -150 -103 -49 -124 84 -24 153 43 29 75 28 96 -3z"
       id="path8" />
    <path
       d="M4684 7401 c-154 -73 -271 -282 -235 -419 42 -155 224 -182 379 -55 60 49 128 157 149 235 53 204 -101 330 -293 239z m189 -81 c39 -43 40 -104 1 -188 -46 -103 -127 -179 -216 -203 -83 -22 -147 44 -134 136 11 68 59 156 113 206 101 95 179 111 236 49z"
       id="path9" />
    <path
       d="M4095 6567 c-38 -17 -102 -88 -121 -133 -33 -78 -10 -178 48 -210 27 -16 87 -18 122 -4 72 27 146 139 146 221 0 39 -22 89 -49 113 -27 24 -106 31 -146 13z m109 -98 c29 -83 -68 -205 -141 -178 -49 18 -37 117 23 177 28 28 39 33 71 30 30 -2 39 -8 47 -29z"
       id="path10" />
  </g>
  <path
     style="fill:#ffffff;stroke-width:0.842546"
     d="m 458.86382,795.80149 c -8.4286,-2.28081 -16.24012,-6.80342 -23.02988,-13.33354 -4.66199,-4.48373 -5.89619,-6.25621 -6.99987,-10.05277 -1.99899,-6.87626 -6.88519,-10.79516 -9.46894,-7.59444 -0.4676,0.57925 -1.00375,4.71034 -1.19146,9.18021 -0.30308,7.21744 -0.62109,8.57962 -2.84133,12.17078 -3.80901,6.16094 -8.70194,8.35646 -18.54506,8.32139 -6.90626,-0.0246 -8.22854,-0.29849 -13.15862,-2.72557 -6.38333,-3.1425 -12.00114,-7.84939 -16.20726,-13.57928 -5.94676,-8.10111 -10.75077,-20.17806 -12.2229,-30.72753 -0.93273,-6.68407 -1.40564,-7.32267 -10.59736,-14.31036 -8.72658,-6.63408 -22.17857,-20.17871 -28.87069,-29.06952 -14.35438,-19.07048 -25.63701,-44.7534 -29.30988,-66.71876 -1.80799,-10.81253 -1.31761,-38.45793 0.83651,-47.15893 4.4483,-17.96776 13.30739,-37.76873 22.99458,-51.39528 7.28996,-10.25446 23.68888,-26.62382 33.94195,-33.88075 9.32815,-6.6023 24.69106,-14.59695 36.63699,-19.0654 7.98542,-2.987 8.43879,-3.28682 8.6809,-5.74079 0.23801,-2.41232 0.0343,-2.62455 -2.98265,-3.10698 -6.96527,-1.11379 -20.59299,2.50564 -34.34131,9.12083 -38.70402,18.62295 -67.54762,56.97174 -77.64012,103.22582 -2.2376,10.25491 -2.24732,43.30018 -0.016,54.34419 4.39717,21.7639 14.64553,44.96281 28.97036,65.57934 2.52265,3.63063 4.37145,6.81633 4.10845,7.07932 -1.72247,1.72247 -27.79736,-8.6598 -41.62169,-16.57254 -12.60414,-7.21434 -20.71208,-13.6911 -27.00646,-21.57324 -2.94661,-3.68988 -7.22857,-8.6939 -9.51548,-11.12005 -4.61932,-4.90057 -4.62303,-4.58547 0.13645,-11.59719 5.31815,-7.83475 9.70445,-19.64271 10.58239,-28.48789 0.65623,-6.61139 -0.46872,-9.84793 -3.42292,-9.84793 -2.37606,0 -2.84401,0.80155 -7.13236,12.21691 -3.661,9.7454 -7.98747,16.6042 -15.49515,24.56466 -7.89985,8.37628 -15.71385,13.76401 -25.65111,17.6864 -12.30144,4.85558 -14.49825,6.03234 -14.49825,7.76629 0,2.99596 2.08879,3.72113 9.48146,3.29168 7.86857,-0.45709 14.56433,-2.51932 24.93804,-7.68067 l 7.03677,-3.50108 7.97991,8.2946 c 4.38896,4.56202 9.24182,10.2492 10.78414,12.63818 1.54232,2.38897 5.26555,7.05991 8.27382,10.37987 10.3591,11.43235 13.94189,18.68653 12.91812,26.1557 -1.58242,11.54509 -11.68813,16.81265 -30.8378,16.07406 -8.12151,-0.31323 -10.67635,-0.76123 -15.60882,-2.73707 -8.98758,-3.60021 -16.9807,-9.20657 -19.07948,-13.38229 -0.96757,-1.92507 -2.34253,-4.16364 -3.05546,-4.97459 -1.50187,-1.70837 -5.49198,-1.95783 -6.73816,-0.42127 -0.46979,0.57925 -1.01193,5.03421 -1.20476,9.89991 -0.31366,7.91456 -0.63337,9.39774 -3.03418,14.07616 -3.77006,7.34664 -7.05457,10.75155 -13.37094,13.8611 -4.88856,2.40662 -6.4529,2.73578 -14.59663,3.07131 -7.59793,0.31305 -10.09569,0.0798 -14.95587,-1.39639 -6.69823,-2.03453 -12.74543,-6.75315 -15.4509,-12.05631 -2.51449,-4.9288 -2.97872,-12.80836 -1.19969,-20.36275 1.93824,-8.23043 1.37633,-10.67385 -2.45465,-10.67385 -2.26788,0 -3.33999,0.62066 -5.24985,3.03924 -7.05863,8.93875 -13.698709,12.79866 -28.422103,16.52189 -9.760461,2.46822 -21.09421,1.92065 -27.761213,-1.3412 -6.719619,-3.28761 -9.417009,-7.41943 -9.381377,-14.37027 0.06756,-13.17941 13.910186,-26.56172 41.004684,-39.64111 6.163811,-2.97547 13.292228,-5.92412 15.840929,-6.55256 4.06257,-1.00172 4.66693,-1.42297 4.90102,-3.41617 0.2226,-1.89536 -1.29665,-3.93279 -9.133124,-12.24823 -25.013252,-26.54207 -37.210012,-53.44891 -38.440875,-84.80307 -1.211974,-30.87302 9.270278,-58.76171 29.716038,-79.06137 25.250691,-25.07026 63.640931,-27.78338 95.373531,-6.74025 14.10635,9.35448 29.55597,27.26072 38.4887,44.60875 4.54359,8.82398 6.22719,10.59539 8.63609,9.0865 2.36956,-1.48424 2.27626,-6.61432 -0.24995,-13.74255 -6.29012,-17.74898 -17.35612,-33.21863 -33.58691,-46.95267 l -4.97966,-4.21365 1.90557,-7.94293 c 6.75152,-28.14212 21.59674,-60.10032 42.4362,-91.35494 15.25689,-22.882 27.54115,-37.50441 52.03794,-61.94267 17.60587,-17.56383 27.50552,-25.8616 42.87465,-35.93702 5.81214,-3.81024 11.73029,-7.87236 13.15143,-9.02696 1.5123,-1.22866 4.95128,-6.5759 8.29227,-12.89359 8.31612,-15.72547 14.04802,-23.79811 24.88055,-35.04099 12.04224,-12.49842 21.23092,-19.46685 34.17457,-25.91703 10.01375,-4.99014 23.55448,-9.23577 29.45593,-9.23577 2.34103,0 4.04215,-1.37119 12.80468,-10.32118 5.55775,-5.67665 10.69501,-11.26905 11.41615,-12.42755 0.72113,-1.1585 1.54511,-4.25523 1.83104,-6.88162 0.97657,-8.96998 7.95876,-25.93871 14.84933,-36.0882 12.53769,-18.46743 33.17338,-31.103759 58.55234,-35.854729 9.91008,-1.855178 26.5312,-1.283399 36.22946,1.24632 8.61012,2.245885 21.06775,8.238667 28.35245,13.639049 7.10413,5.2665 17.1042,15.82718 22.05389,23.29021 2.07313,3.12583 6.17749,10.23308 9.1208,15.79388 4.55039,8.59708 5.68005,10.14871 7.54658,10.36551 1.75636,0.204 2.40379,-0.24877 3.23899,-2.26514 0.89329,-2.15659 0.74016,-3.71257 -1.06154,-10.78679 -1.15798,-4.54667 -2.3888,-8.97315 -2.73516,-9.83661 -0.57602,-1.43601 -0.31347,-1.52016 3.07786,-0.98653 9.60192,1.5109 24.3288,5.21736 36.96389,9.30308 14.77594,4.77798 16.87517,4.87811 16.87517,0.80491 0,-2.77589 -7.78187,-8.50172 -18.49779,-13.61052 l -8.03843,-3.8323 6.55923,-6.18762 c 17.00028,-16.03714 40.53637,-19.187347 61.40862,-8.21929 6.99206,3.67422 17.29913,13.59651 21.66179,20.85312 3.22007,5.35609 7.44884,17.21392 7.84109,21.98705 l 0.26059,3.17112 -5.63745,1.92014 c -3.1006,1.05608 -9.28673,2.76341 -13.74695,3.79408 -6.77099,1.56463 -8.63798,1.7156 -11.31122,0.91468 -1.76094,-0.52759 -3.79414,-0.95925 -4.51823,-0.95925 -1.84767,0 -3.96452,2.32596 -3.96452,4.35614 0,2.23646 4.42839,6.32537 7.6065,7.0234 2.58116,0.56692 2.72453,0.85455 3.77718,7.57773 1.20294,7.68315 7.84314,18.51933 14.43041,23.54908 3.73888,2.85485 7.84084,4.49054 25.58119,10.20071 23.84607,7.67545 41.94841,20.6381 52.5299,37.6154 11.40696,18.30173 12.42968,38.61454 2.42267,48.11794 l -2.49486,2.36931 -2.55119,-4.47567 c -1.40316,-2.46162 -3.82229,-5.6816 -5.37586,-7.15552 -18.01271,-17.08934 -68.57017,-12.30343 -126.25758,11.95188 -13.26461,5.57724 -37.79435,18.14491 -50.99378,26.12636 -6.01333,3.63615 -22.11811,13.87304 -35.78841,22.74866 -30.06648,19.52105 -35.29629,22.50759 -39.6117,22.62075 -3.90108,0.10228 -3.92679,0.08 -5.7347,-4.97325 -1.64304,-4.59241 -3.22427,-5.91067 -6.1953,-5.16498 -2.59029,0.65011 -4.06631,3.72999 -4.06631,8.48477 0,4.52399 2.60652,8.6109 7.18655,11.26818 2.79868,1.62377 4.32258,1.89956 9.32671,1.68796 7.7829,-0.3291 14.44908,-3.60582 36.56711,-17.97433 46.26643,-30.05602 69.76811,-43.40089 96.09119,-54.56314 19.50018,-8.269 45.68688,-15.85026 64.3009,-18.61563 10.47436,-1.55611 27.97295,-1.75563 34.4051,-0.39229 4.15386,0.88043 10.78393,3.66021 10.78393,4.52135 0,0.208 -4.84816,0.29509 -10.77369,0.19352 -9.10039,-0.156 -11.1287,0.0473 -13.05946,1.3092 -3.08728,2.01771 -3.07258,5.22217 0.0312,6.8092 1.27435,0.6516 5.16059,1.63965 8.63609,2.19567 8.88681,1.42175 25.40468,5.10549 27.21258,6.06883 1.08389,0.57754 1.35023,1.33204 0.93604,2.65164 -1.0513,3.34942 -5.89363,10.17426 -11.88126,16.74558 l -5.9005,6.4757 -0.56245,8.0015 c -1.93853,27.57794 -16.63512,55.20932 -41.12397,77.3181 -13.2329,11.9468 -13.48063,12.22519 -13.18318,14.81494 0.56318,4.90321 6.21371,3.44103 18.82634,-4.87167 10.14409,-6.68573 9.52487,-6.88902 11.7607,3.86098 2.07345,9.96934 2.52548,22.92573 1.20523,34.54493 -0.63078,5.55131 -1.15692,12.55774 -1.1692,15.56984 l -0.0223,5.47654 8.84672,-0.27047 c 10.27676,-0.3142 20.53827,1.89737 32.20254,6.94032 12.92041,5.58603 19.71962,10.30699 31.0445,21.55543 14.74683,14.64729 20.69152,24.82992 25.41083,43.52598 1.60413,6.35499 1.88267,9.7355 1.89792,23.03512 0.0195,17.08687 -1.19625,24.81244 -6.41234,40.74417 -3.56534,10.88977 -13.96223,31.47856 -20.90815,41.40402 -8.74678,12.49883 -10.35341,15.31949 -9.77104,17.15439 0.28259,0.89037 4.00849,3.82331 8.27978,6.51765 9.88452,6.2352 24.67227,20.6441 28.00291,27.28555 3.28946,6.55917 3.70164,13.51407 1.09884,18.54115 -5.40736,10.44384 -21.77324,13.70346 -38.93584,7.75491 -9.2763,-3.21517 -13.21281,-5.91406 -17.05843,-11.69537 -2.52864,-3.80143 -3.79662,-4.95677 -5.6757,-5.1715 -1.3308,-0.15208 -2.84738,0.15026 -3.37018,0.67185 -0.53753,0.53629 -1.14977,5.2325 -1.40907,10.80832 -0.4121,8.86161 -0.71069,10.32256 -2.94891,14.42864 -5.28912,9.70303 -16.33452,14.99769 -29.56527,14.17226 -8.54686,-0.53322 -14.82988,-3.25589 -19.1438,-8.29573 -4.00524,-4.67923 -4.99595,-8.99019 -4.63686,-20.17684 0.26196,-8.16115 0.10987,-9.55771 -1.12718,-10.35066 -2.30261,-1.47598 -5.7378,0.30706 -8.66045,4.49521 -2.03214,2.91205 -4.12754,4.52284 -9.03402,6.94474 -9.19529,4.5389 -15.60632,5.98806 -24.26663,5.48525 -15.12546,-0.87816 -21.12193,-6.6805 -18.59114,-17.98928 2.11083,-9.43217 12.00292,-19.01052 29.54423,-28.60718 12.26217,-6.70851 13.48579,-7.64849 13.45394,-10.33518 -0.0148,-1.2428 -0.58347,-2.9956 -1.26382,-3.89512 -1.46953,-1.94289 -1.56546,-6.41306 -0.32848,-15.3066 2.29291,-16.4854 8.7908,-33.59863 17.35651,-45.71114 4.77228,-6.74834 14.74562,-17.22054 22.05077,-23.15375 6.56195,-5.32958 8.34062,-8.22768 6.30128,-10.26702 -5.76002,-5.76002 -31.7263,13.93527 -42.67233,32.36674 -2.23268,3.75949 -4.38726,6.83543 -4.78794,6.83543 -0.40069,0 1.70838,-5.06764 4.68681,-11.26142 10.62663,-22.09847 14.94262,-37.38968 16.47324,-58.36327 0.76408,-10.47021 0.7257,-13.17087 -0.21447,-15.08811 -1.79633,-3.66317 -3.73964,-4.48336 -5.78246,-2.44054 -1.29301,1.29301 -2.32367,5.03064 -4.21264,15.2769 -7.61148,41.28673 -24.79333,75.02329 -53.07263,104.20808 -24.03594,24.80557 -52.89492,42.89328 -86.21086,54.03372 -20.87131,6.9791 -39.80107,10.50128 -65.57808,12.20181 l -14.02823,0.92546 -7.03541,-4.58506 c -3.86948,-2.52178 -13.29131,-7.79178 -20.93741,-11.71112 l -13.902,-7.12607 -0.63735,-5.80781 c -2.6445,-24.09787 -6.76374,-39.14756 -15.36935,-56.15208 l -5.4376,-10.74463 4.68462,-7.18683 c 5.64194,-8.65552 13.63917,-25.26047 16.62293,-34.51485 3.09987,-9.61451 5.00494,-20.68604 5.1053,-29.66995 0.0767,-6.86533 -0.12119,-7.97242 -1.70998,-9.56684 -3.72684,-3.74008 -6.49812,-0.50575 -7.87302,9.18852 -2.25156,15.87561 -12.15784,41.03453 -22.18913,56.35365 l -3.43239,5.24173 -2.57823,-1.96651 c -8.71175,-6.64477 -13.00261,-8.06459 -14.71311,-4.86848 -1.07866,2.0155 0.007,4.051 6.55796,12.2946 17.44163,21.94845 28.05383,51.61805 26.85617,75.08452 -0.23948,4.69212 -0.0974,9.13507 0.31566,9.87321 0.41308,0.73815 2.16993,1.79912 3.9041,2.35772 5.05105,1.62699 30.51052,14.69278 37.3418,19.16378 13.50006,8.83565 20.15544,17.27074 20.15544,25.54522 0,10.23592 -11.41856,14.81939 -28.10917,11.28318 -8.4222,-1.78439 -11.5653,-3.58645 -13.97746,-8.01378 -6.80068,-12.48206 -23.63192,-21.18999 -23.63192,-12.22636 0,0.61409 2.52352,4.08595 5.60783,7.71523 7.09856,8.3528 8.67318,11.77844 8.69694,18.92044 0.0146,4.39605 -0.37905,6.15089 -1.87723,8.36791 -4.4475,6.58148 -16.51023,9.0872 -28.33815,5.88653 z M 266.4499,435.40258 c 5.93533,-2.73074 12.85203,-14.15843 12.85329,-21.23606 7.7e-4,-4.30655 -2.72608,-10.54871 -5.36155,-12.27338 -2.4506,-1.60369 -8.21852,-2.4321 -11.99761,-1.72314 -4.30923,0.80841 -12.20829,8.43592 -14.67542,14.17091 -2.33857,5.43617 -2.00027,13.25525 0.76727,17.7332 3.29354,5.32907 11.02724,6.72699 18.41402,3.32847 z m 58.58255,-64.89114 c 6.81625,-3.18971 11.35767,-7.25428 16.13565,-14.4414 5.71196,-8.59201 7.4939,-13.67422 7.56627,-21.57945 0.0697,-7.61399 -1.64946,-12.01673 -6.18125,-15.82997 -8.73003,-7.34585 -24.03135,-4.29586 -35.37931,7.05209 -5.76724,5.76725 -11.1296,15.5535 -12.75327,23.27457 -2.06469,9.81827 1.60107,18.54074 9.4712,22.53617 6.00842,3.05031 13.19488,2.70629 21.14071,-1.01201 z m 207.03508,-33.74566 c 0,-0.80133 -3.78737,-6.19082 -8.41638,-11.97663 -4.629,-5.78581 -8.42046,-10.76814 -8.42545,-11.07185 -0.008,-0.47926 4.63395,-6.3934 6.80013,-8.66403 0.45899,-0.48111 3.52236,1.91096 7.82274,6.10846 5.21082,5.08614 7.64893,6.89922 9.27764,6.89922 4.49303,0 2.76804,-4.08296 -6.89872,-16.32895 l -3.6315,-4.60044 4.26341,-5.29082 c 6.76561,-8.39604 5.42562,-13.15246 -2.13991,-7.5958 -1.80728,1.32739 -4.21646,3.42475 -5.35375,4.66081 l -2.06777,2.24736 -10.69524,-10.6715 c -9.53925,-9.51807 -10.93219,-10.61203 -12.88741,-10.1213 -1.20569,0.30261 -2.19075,1.0169 -2.18901,1.58732 0.005,1.76666 3.14698,6.31822 10.98956,15.92162 4.14881,5.08031 7.52872,9.68637 7.51092,10.23567 -0.0178,0.54932 -1.69464,2.88542 -3.72628,5.19135 l -3.69392,4.19259 -8.44502,-8.19468 c -6.20528,-6.02134 -9.01575,-8.19469 -10.59699,-8.19469 -3.36967,0 -2.7527,3.2941 1.68256,8.98334 2.10898,2.70526 5.48993,7.09787 7.51322,9.76134 l 3.67871,4.84266 -5.01104,7.39082 c -5.27233,7.7762 -6.5943,12.09604 -3.87384,12.65872 0.99014,0.20479 3.89509,-2.0186 8.46381,-6.47801 l 6.95625,-6.78982 6.702,6.81402 c 9.04946,9.20073 12.7426,11.89291 14.80242,10.79053 0.87387,-0.46768 1.58886,-1.50597 1.58886,-2.30731 z m -115.73068,-1.50162 c 2.2227,-1.37419 5.18427,-4.12482 6.58127,-6.11251 2.14456,-3.05134 2.5883,-4.57019 2.85016,-9.75585 0.39189,-7.76063 -1.05295,-10.92043 -6.02583,-13.17819 -4.81445,-2.18583 -8.71412,-2.03557 -13.87156,0.53448 -7.49374,3.73429 -11.93219,10.74566 -11.95918,18.89177 -0.0287,8.6739 4.61666,12.90523 13.60447,12.39183 3.50119,-0.19999 5.86021,-0.94122 8.82067,-2.77153 z m -11.18158,-57.13382 c 16.02332,-7.83948 26.30296,-30.78168 18.7885,-41.93239 -2.20208,-3.26768 -7.23312,-6.30167 -11.70136,-7.05658 -7.90909,-1.33623 -21.5527,6.53716 -28.17865,16.2612 -4.35827,6.39607 -6.18207,12.15874 -6.18207,19.53344 0,7.24282 1.81025,10.68381 7.24051,13.76303 5.57698,3.16243 12.82763,2.9566 20.03307,-0.5687 z M 569.68269,244.6617 c 7.69344,-2.37476 17.22624,-7.24242 23.66798,-12.08539 9.53761,-7.17048 15.80125,-16.20122 23.30851,-33.60554 0.97875,-2.26909 1.7795,-3.09363 2.67179,-2.75122 0.7008,0.26892 4.71736,0.90759 8.92568,1.41928 6.66564,0.81046 8.13584,0.74536 11.41053,-0.50525 2.39334,-0.91403 4.34416,-2.39521 5.36963,-4.07694 2.05198,-3.36517 2.03541,-4.95035 -0.0717,-6.85722 -1.53239,-1.3868 -2.11029,-1.42696 -6.24821,-0.43429 -2.50781,0.60161 -6.20291,0.90351 -8.21134,0.67088 -2.00844,-0.23263 -17.49051,-4.62232 -34.40461,-9.75486 -61.79621,-18.75193 -104.30061,-30.49949 -110.35159,-30.49949 -4.61672,0 -7.60479,1.51884 -7.60479,3.86554 0,1.908 3.02339,4.91142 5.84584,5.80723 1.40926,0.44729 1.38147,0.93993 -0.48912,8.67082 -4.7192,19.50376 -1.2068,39.68255 9.42937,54.17192 5.52189,7.52232 15.75011,16.29421 23.91884,20.51319 11.39305,5.88428 17.2022,7.1324 33.4546,7.18783 11.55722,0.0394 14.47113,-0.2217 19.37855,-1.73649 z m 157.37395,-8.80912 c 1.65033,-1.65032 1.68432,-3.96073 0.10325,-7.01818 -1.566,-3.02831 -4.54991,-4.96358 -8.66862,-5.62218 -2.75137,-0.43997 -3.69256,-0.16497 -5.95713,1.74054 -3.08086,2.59238 -3.44079,5.21151 -1.11149,8.08808 3.03665,3.7501 12.91842,5.52731 15.63399,2.81174 z m 44.19536,-4.26266 c 1.07885,-0.75566 2.49665,-2.65458 3.15065,-4.21982 3.21269,-7.68906 -4.23331,-11.92963 -10.29807,-5.86487 -2.27848,2.27847 -2.86466,3.53704 -2.86466,6.15058 0,1.80726 0.45497,3.7409 1.01106,4.29698 1.45568,1.45569 6.70691,1.24398 9.00102,-0.36287 z"
     id="path12"
     transform="translate(150,196)" />
  <path
     style="fill:#ffffff;stroke-width:0.364019"
     d="m 309.95985,364.95298 c -1.82976,-0.55659 -3.22207,-1.49148 -4.66857,-3.13479 -4.03953,-4.58915 -3.72548,-11.29167 0.95356,-20.35115 4.72484,-9.14816 13.87191,-17.22751 21.21103,-18.73511 6.98944,-1.43576 13.41387,5.153 12.55185,12.87293 -0.71877,6.43697 -5.64056,15.79938 -11.25961,21.41844 -5.97856,5.97855 -14.03051,9.37692 -18.78826,7.92968 z"
     id="path13"
     transform="translate(150,196)" />
  <path
     style="fill:#ffffff;stroke-width:0.364019"
     d="m 404.27822,329.9098 c -1.72753,-0.93307 -2.40121,-2.32423 -2.40121,-4.95851 0,-3.16644 1.26355,-5.93425 3.8961,-8.53439 3.69717,-3.65165 7.74431,-5.00555 9.97823,-3.33804 1.99229,1.48714 2.50797,2.56298 2.48904,5.19276 -0.0215,2.979 -1.20338,5.51335 -3.74395,8.02801 -3.19297,3.16039 -7.94349,4.83879 -10.21821,3.61017 z"
     id="path14"
     transform="translate(150,196)" />
  <path
     style="fill:#ffffff;stroke-width:0.364019"
     d="m 390.2284,272.30779 c -4.35053,-1.60475 -5.73933,-7.88607 -3.26439,-14.76433 2.87593,-7.99268 8.76276,-14.81877 15.79472,-18.31481 2.9676,-1.47539 3.17941,-1.52422 6.61072,-1.52422 3.36015,0 3.62693,0.0576 5.11921,1.10558 2.65415,1.86391 3.22317,3.0464 3.22317,6.69818 0,7.05413 -3.05216,13.40632 -9.45588,19.67967 -3.34283,3.27478 -5.81999,4.95024 -9.55363,6.46173 -2.81129,1.1381 -6.41421,1.41795 -8.47392,0.6582 z"
     id="path15"
     transform="translate(150,196)" />
  <path
     style="fill:#ffffff;stroke-width:0.364019"
     d="m 256.12248,428.53603 c -0.48123,-0.24731 -1.21837,-0.91214 -1.63809,-1.4774 -1.11803,-1.50572 -1.07949,-6.14742 0.0763,-9.19171 1.03151,-2.71688 4.07751,-6.79499 6.20651,-8.30953 1.4342,-1.02027 1.8388,-1.12599 4.23499,-1.10657 4.15219,0.0336 5.64592,1.54831 5.64592,5.72507 0,5.40723 -4.12333,11.94384 -8.91847,14.13821 -1.67989,0.76876 -4.33843,0.87398 -5.6072,0.22193 z"
     id="path16"
     transform="translate(150,196)" />
  <path
     style="fill:#ffffff;stroke-width:0.364019"
     d="m 541.66031,235.49098 c -5.15807,-0.71292 -7.11023,-1.13822 -10.85955,-2.36589 -17.61715,-5.76851 -30.60517,-18.49529 -36.26377,-35.53437 -1.69497,-5.10387 -2.20126,-8.43353 -2.20126,-14.47692 0,-10.18428 2.21212,-21.87708 4.39539,-23.23317 0.63366,-0.39358 11.50621,2.69617 15.13538,4.30116 2.25347,0.9966 2.25561,1.01205 0.59708,4.31131 -1.45751,2.89936 -1.91364,5.98326 -1.92057,12.98491 -0.007,7.5477 0.27751,8.92752 2.96166,14.33955 3.59558,7.24974 6.73726,10.41913 13.59488,13.71478 5.11479,2.45808 7.66451,2.98936 13.2867,2.76854 5.12838,-0.20142 7.85705,-0.9009 12.37664,-3.17268 9.04616,-4.54707 15.84524,-13.35797 17.83667,-23.11448 0.655,-3.20906 0.85216,-3.45818 2.73675,-3.45818 2.49271,0 31.01584,8.724 32.70838,10.00409 0.53593,0.40533 0.63011,0.78664 0.442,1.78938 -0.57578,3.06915 -4.69099,11.46207 -8.45896,17.25194 -2.77026,4.25679 -9.01112,10.4133 -13.98058,13.79163 -7.97317,5.42031 -14.60397,8.27739 -21.81976,9.40171 -3.62434,0.56471 -17.99894,1.05164 -20.56708,0.69669 z"
     id="path17"
     transform="translate(150,196)" />
  <path
     style="fill:#ffffff;stroke-width:0.158504"
     d="m 800.52461,206.19311 c -3.98083,-1.06436 -20.28851,-6.37596 -20.28851,-6.6082 0,-0.0803 0.80907,-0.97541 1.79793,-1.98919 2.22495,-2.28102 3.4509,-3.92546 4.58324,-6.14776 1.66714,-3.27191 2.29813,-5.9468 2.47388,-10.48722 0.0631,-1.63087 0.16925,-3.05336 0.23583,-3.16109 0.0666,-0.10774 0.23695,-0.19588 0.3786,-0.19588 0.98667,0 5.12792,6.3224 7.0599,10.77827 2.40706,5.5516 5.04176,14.29195 5.08705,16.87582 0.0224,1.27669 0.002,1.29089 -1.32792,0.93525 z"
     id="path18"
     transform="translate(150,196)" />
  <path
     style="fill:#ffffff;stroke-width:0.394584"
     d="m 669.2139,720.87875 c -6.75411,-0.91775 -12.96803,-2.35637 -14.4023,-3.33435 -0.76601,-0.52231 -0.74461,-0.53849 7.69438,-5.81598 9.22602,-5.76968 16.76544,-10.80376 20.51835,-13.70011 5.35465,-4.13252 5.09695,-4.05086 8.40177,-2.66232 1.55036,0.65139 3.95411,1.99446 5.34166,2.9846 2.436,1.73829 7.76138,7.09466 7.76138,7.80654 0,0.1915 -1.44761,1.90112 -3.21692,3.79916 -1.76931,1.89804 -4.17226,4.73678 -5.3399,6.30831 -2.3821,3.20609 -3.38819,3.86081 -7.16191,4.66064 -3.35448,0.71097 -14.21163,0.68522 -19.59651,-0.0465 z"
     id="path19"
     transform="translate(150,196)" />
  <path
     style="fill:#ffffff;stroke-width:0.394584"
     d="m 929.04725,384.76406 c -7.14478,-2.98972 -12.94999,-6.88758 -18.57699,-12.47338 -2.29608,-2.27927 -4.8913,-5.20949 -5.76717,-6.51162 -3.43365,-5.10472 -7.25978,-13.97814 -8.80323,-20.41614 -0.80346,-3.35139 -1.01261,-5.82945 -0.49087,-5.8161 1.33545,0.0342 12.06186,6.62366 17.24076,10.59141 6.04606,4.63212 11.48382,11.56837 15.0472,19.19379 2.40278,5.14181 4.88849,12.60366 4.89574,14.69653 0.007,2.00413 -0.34113,2.07634 -3.54544,0.73551 z"
     id="path20"
     transform="translate(150,196)" />
  <path
     style="fill:#008000;stroke-width:0.394584"
     d="m 902.41285,328.25851 c -2.15518,-0.30522 -4.14313,-0.97692 -4.14313,-1.3999 0,-0.88818 9.38614,-9.7623 12.42939,-11.75135 4.51223,-2.94918 12.04091,-6.54643 16.17446,-7.72827 7.2918,-2.08482 20.71911,-2.86219 20.71911,-1.19952 0,0.80498 -6.80897,8.16899 -10.38528,11.23183 -6.59122,5.6449 -10.60375,7.7652 -18.81391,9.94164 -2.88321,0.76431 -12.95001,1.33476 -15.98064,0.90557 z"
     id="path21"
     transform="translate(150,196)" />
  <path
     style="fill:#008000;stroke-width:0.501246"
     d="m 927.86399,383.9045 c -9.39255,-4.05811 -19.69935,-12.84387 -24.45913,-20.84954 -1.09742,-1.84578 -3.00897,-5.85134 -4.2479,-8.90124 -2.1888,-5.38824 -4.21531,-13.18943 -3.58892,-13.81582 1.01816,-1.01816 16.48631,9.18586 21.26636,14.02897 6.16114,6.24243 10.81675,14.14551 13.88639,23.57273 1.62811,5.0001 1.85834,6.93704 0.84519,7.11066 -0.41353,0.0709 -2.07942,-0.44473 -3.70199,-1.14576 z"
     id="path22"
     transform="translate(150,196)" />
</svg>
