<?xml version="1.0" encoding="UTF-8" standalone="no"?>
<svg
   version="1.0"
   width="198.000000pt"
   height="184.000000pt"
   viewBox="0 0 198.000000 184.000000"
   preserveAspectRatio="xMidYMid meet"
   id="svg4"
   sodipodi:docname="frog2.svg"
   inkscape:version="1.4.3 (0d15f75, 2025-12-25)"
   xmlns:inkscape="http://www.inkscape.org/namespaces/inkscape"
   xmlns:sodipodi="http://sodipodi.sourceforge.net/DTD/sodipodi-0.dtd"
   xmlns="http://www.w3.org/2000/svg"
   xmlns:svg="http://www.w3.org/2000/svg">
  <defs
     id="defs4" />
  <sodipodi:namedview
     id="namedview4"
     pagecolor="#505050"
     bordercolor="#ffffff"
     borderopacity="1"
     inkscape:showpageshadow="0"
     inkscape:pageopacity="0"
     inkscape:pagecheckerboard="1"
     inkscape:deskcolor="#505050"
     inkscape:document-units="pt"
     inkscape:zoom="3.3333333"
     inkscape:cx="132"
     inkscape:cy="122.55"
     inkscape:window-width="1920"
     inkscape:window-height="1022"
     inkscape:window-x="0"
     inkscape:window-y="30"
     inkscape:window-maximized="1"
     inkscape:current-layer="svg4" />
  <g
     transform="translate(0.000000,184.000000) scale(0.100000,-0.100000)"
     fill="#000000"
     stroke="none"
     id="g4">
    <path
       d="M1366 1755 c-50 -18 -104 -69 -128 -122 -18 -42 -20 -43 -67 -43 -42 0 -51 4 -66 28 -70 110 -179 153 -301 117 -101 -29 -194 -147 -194 -246 0 -20 -11 -36 -42 -61 -53 -41 -106 -99 -136 -147 -61 -98 -79 -249 -41 -351 35 -94 34 -96 -38 -92 -82 5 -149 -18 -196 -66 -44 -45 -57 -78 -57 -142 0 -68 31 -145 88 -215 l48 -60 -41 -30 c-72 -55 -71 -120 3 -153 46 -20 180 -19 265 1 56 14 57 14 57 -8 0 -52 83 -78 145 -45 24 13 28 13 36 -2 25 -45 131 -48 150 -4 10 21 16 23 55 18 51 -5 90 15 100 52 5 21 12 25 60 28 51 3 54 2 54 -20 0 -55 70 -87 137 -61 20 7 29 7 31 -1 6 -16 58 -40 89 -40 32 1 55 15 72 48 10 18 18 22 36 18 28 -7 82 11 89 30 3 8 16 14 29 14 38 0 77 36 77 71 0 29 -31 71 -59 80 -9 3 -5 20 14 60 38 83 50 156 36 215 -7 27 -14 58 -16 69 -3 15 9 31 48 61 66 51 121 124 148 194 31 82 24 202 -18 290 -30 64 -91 137 -146 176 -27 18 -27 21 -18 71 33 174 -139 327 -303 268z m155 -71 c26 -13 69 -59 69 -73 0 -4 -15 -5 -33 -3 -68 8 -121 -73 -98 -149 15 -51 48 -72 103 -67 35 4 51 -1 84 -23 93 -63 154 -165 162 -270 l5 -67 -56 -21 c-183 -68 -535 -99 -917 -81 -102 5 -105 4 -108 -17 -4 -29 6 -31 197 -43 266 -16 580 9 770 61 40 11 76 18 78 15 7 -7 -50 -86 -89 -123 -18 -18 -71 -55 -118 -83 l-85 -51 -1 -102 c0 -86 -5 -114 -28 -177 -41 -110 -40 -120 16 -150 27 -14 48 -29 48 -33 0 -5 -26 -7 -57 -5 l-58 3 -5 -35 c-7 -51 -42 -54 -71 -6 -24 41 -33 43 -74 16 -39 -26 -65 -26 -65 0 0 14 18 32 54 55 106 68 221 300 154 313 -13 3 -28 -20 -61 -90 -79 -168 -124 -201 -282 -202 -90 -1 -105 2 -152 27 -62 32 -91 68 -138 171 -27 59 -39 77 -53 74 -29 -5 -25 -46 12 -124 52 -110 70 -131 147 -169 39 -20 69 -42 69 -50 0 -20 -37 -19 -74 0 -39 21 -54 13 -58 -27 -4 -48 -33 -49 -72 -3 l-31 37 -48 -26 c-44 -23 -77 -26 -77 -6 0 5 20 25 45 46 25 20 45 42 45 50 0 7 -22 38 -49 69 -49 56 -121 180 -121 208 0 8 -9 25 -19 38 -18 22 -21 23 -36 8 -15 -15 -16 -22 -5 -55 20 -62 69 -153 112 -211 23 -30 39 -56 36 -58 -3 -3 -49 -17 -103 -30 -93 -24 -203 -32 -252 -19 -52 14 -13 56 79 87 31 11 20 39 -41 101 -98 103 -131 198 -96 276 28 62 73 85 170 86 44 1 88 4 97 8 11 5 33 -6 72 -38 57 -46 96 -63 115 -51 21 13 10 35 -31 64 -65 44 -104 90 -135 156 -37 80 -39 204 -5 280 35 75 94 148 156 189 51 34 56 41 56 73 0 102 75 202 166 221 50 11 101 5 140 -16 26 -14 73 -68 96 -110 l16 -30 84 5 c45 3 88 9 94 14 6 5 16 26 22 47 13 44 66 99 108 112 34 11 87 4 125 -16z m75 -1025 c31 -50 21 -141 -27 -248 -16 -35 -29 -68 -29 -72 0 -5 18 -20 40 -34 39 -24 45 -45 15 -45 -8 0 -30 11 -50 24 -20 14 -41 26 -47 28 -7 3 -2 30 17 84 22 62 28 98 29 169 1 50 6 93 11 97 15 11 33 10 41 -3z"
       id="path1" />
    <path
       d="M917 1550 c-82 -65 -38 -210 64 -210 86 0 130 140 64 206 -31 31 -91 33 -128 4z"
       id="path2" />
    <path
       d="M1549 1179 c-24 -24 -22 -67 3 -83 13 -8 23 -5 43 14 27 25 33 58 13 78 -17 17 -35 15 -59 -9z"
       id="path3" />
    <path
       d="M1327 1165 c-31 -30 16 -85 73 -85 33 0 30 45 -6 78 -29 26 -47 28 -67 7z"
       id="path4" />
  </g>
  <path
     style="fill:#f9f9f9;stroke-width:0.3"
     d="m 102.15445,225.375 c -1.4558,-0.87671 -3.815362,-3.29034 -6.957682,-7.1171 l -1.102059,-1.34211 -5.197353,2.63121 c -6.979239,3.53331 -10.087869,4.23263 -11.17236,2.51336 -0.488589,-0.77457 0.303513,-1.83796 3.470226,-4.65874 4.901232,-4.36582 7.452261,-6.92599 7.957983,-7.9865 0.48531,-1.0177 0.478902,-1.05062 -0.530985,-2.72808 C 88.059999,205.75316 86.4525,203.57556 85.05,201.84793 78.31194,193.5478 73.67529,186.66199 69.93456,179.40024 68.005215,175.65487 67.130733,173.4576 66.731355,171.35169 66.234681,168.73273 62.7582,163.95 61.351197,163.95 c -0.806211,0 -2.818752,1.85959 -3.448275,3.18622 -0.592338,1.24826 -0.490584,2.13104 0.652845,5.66378 2.638191,8.15095 8.609649,19.4108 15.114468,28.5 3.53907,4.94515 4.581822,6.65133 4.382502,7.17075 -0.272895,0.71115 -13.783386,4.33437 -21.202737,5.68611 -6.588532,1.20038 -10.286096,1.53541 -16.95,1.53582 -6.568246,4e-4 -9.003227,-0.34298 -10.805299,-1.52374 -3.14216,-2.05882 1.776455,-6.44546 11.105299,-9.9042 2.948838,-1.0933 3.753464,-1.78606 3.743411,-3.22297 -0.01461,-2.08858 -1.906139,-4.87082 -7.064908,-10.39177 -8.019131,-8.58212 -12.445523,-15.5729 -14.443274,-22.81084 -0.391604,-1.4188 -0.535104,-3.02595 -0.534763,-5.98916 3.99e-4,-3.46361 0.103076,-4.35405 0.709158,-6.15 1.990754,-5.89902 5.653657,-9.95306 10.690376,-11.83195 2.973955,-1.10939 5.669378,-1.49619 12.6,-1.80812 7.691676,-0.34618 9.769407,-0.50631 12.505776,-0.9638 1.90368,-0.31828 2.086926,-0.29544 3.6,0.44881 0.876822,0.43129 3.011724,1.87238 4.744224,3.20242 8.344482,6.40608 11.452575,8.16819 14.734509,8.35364 1.946877,0.11 2.088801,0.0718 2.955291,-0.79465 2.095755,-2.09575 0.776568,-4.22973 -5.5398,-8.96141 C 70.910685,137.36003 66.473364,132.3115 62.863944,125.1 59.638917,118.65651 58.394037,113.43675 58.14177,105.3 57.794145,94.087602 59.713587,87.261822 65.848413,77.894187 70.028973,71.510643 75.942474,65.191284 81.168339,61.522821 89.100396,55.954659 89.52144,55.388163 89.546784,50.25 c 0.03433,-6.960478 3.408405,-14.913742 8.689509,-20.482648 4.268657,-4.501283 8.294317,-6.886498 13.606017,-8.061591 2.31588,-0.512337 3.45461,-0.586086 7.10769,-0.460327 8.45609,0.291106 12.38989,2.306451 18.25938,9.354566 2.51203,3.016459 5.06089,6.80412 6.64062,9.868103 l 1.05,2.036542 4.05,-0.1931 c 8.43998,-0.402411 16.92412,-1.28743 19.12622,-1.995145 1.22696,-0.39432 2.15917,-1.931986 3.56766,-5.884798 0.57454,-1.612381 1.39553,-3.539102 1.82445,-4.281602 2.78927,-4.828572 8.13727,-9.673367 12.32803,-11.168048 5.28188,-1.883845 14.09887,-0.321431 18.9954,3.366077 3.35945,2.529958 7.56299,7.517221 6.89714,8.183068 -0.14414,0.144144 -2.00061,0.286116 -4.12549,0.315492 -3.51212,0.04855 -4.02111,0.127307 -5.59778,0.866102 -7.36487,3.45104 -10.40999,13.553509 -6.54728,21.721215 2.37901,5.030409 5.18119,6.416094 12.97485,6.416094 5.71612,0 6.63792,0.272667 11.17229,3.304734 10.12675,6.771621 17.77476,17.907501 20.39442,29.695266 0.76104,3.424455 1.82285,14.35191 1.43253,14.74265 -0.27308,0.27338 -8.97001,3.4692 -12.19244,4.4803 -13.47795,4.22896 -33.34328,7.29317 -57.15,8.81533 -18.09232,1.1568 -36.43125,1.24824 -59.55,0.29694 -11.00009,-0.45263 -13.743741,-0.32909 -14.462694,0.65124 -0.478674,0.65271 -0.801153,2.88223 -0.53718,3.71394 0.518811,1.63462 4.377614,2.37676 17.099874,3.2887 22.23181,1.59359 41.2982,1.63907 61.65,0.14709 19.54029,-1.4325 35.32755,-3.80726 49.65,-7.46848 5.43923,-1.39042 9.45566,-2.26771 10.38209,-2.26771 0.88093,0 0.69469,0.60651 -1.02959,3.35296 -3.52724,5.61824 -8.77244,11.78655 -12.63894,14.86328 -3.52292,2.80333 -10.17278,7.17331 -17.93154,11.78376 l -6.81558,4.05 -0.0168,7.2 c -0.0232,9.97463 -0.44442,17.4439 -1.19004,21.1027 -0.34117,1.67415 -1.44384,5.37342 -2.45037,8.22061 -3.07713,8.70424 -3.90316,11.58494 -3.9361,13.72669 -0.0496,3.223 0.95628,4.46828 5.82019,7.20568 3.46664,1.95101 6.25664,3.82381 6.25664,4.19978 0,0.57763 -1.77756,0.68255 -8.40178,0.4959 l -6.79151,-0.19136 -0.36638,2.77 c -0.49252,3.72374 -0.88596,4.91963 -2.01097,6.11249 -2.10785,2.23497 -4.74503,0.83477 -7.93205,-4.21152 -0.67646,-1.0711 -1.69979,-2.35999 -2.27406,-2.86421 -1.7649,-1.54961 -2.67804,-1.32047 -8.63837,2.16764 -3.68119,2.15432 -6.05128,2.39547 -6.82626,0.69458 -0.92794,-2.03661 0.82029,-4.29183 6.24896,-8.06117 5.79357,-4.02271 9.61139,-8.0899 14.51055,-15.45834 8.26196,-12.42619 11.64073,-24.45884 7.47319,-26.61396 -2.33066,-1.20523 -3.41688,0.20142 -9.56899,12.39185 -2.6404,5.23195 -5.58912,10.72764 -6.55272,12.21264 -7.43443,11.45719 -14.53251,14.27965 -34.88953,13.87336 -8.42494,-0.16814 -9.24903,-0.32335 -14.08008,-2.65186 -6.48244,-3.12445 -10.26068,-6.3212 -13.79657,-11.6732 -1.03498,-1.56657 -3.73715,-6.6283 -6.00483,-11.2483 -4.668277,-9.51083 -5.608396,-10.84051 -7.452883,-10.54119 -4.282839,0.69501 -3.563478,6.36581 2.376297,18.73267 5.838356,12.15569 8.632076,15.31352 17.827986,20.15154 5.83678,3.07077 10.05,6.03474 10.05,7.07011 0,0.21633 -0.35571,0.67312 -0.79046,1.0151 -1.51992,1.19557 -5.11997,0.59143 -9.77807,-1.6409 -2.88836,-1.38421 -4.64997,-1.42733 -5.73291,-0.14033 -0.45418,0.53976 -0.88419,1.5852 -1.07972,2.625 -0.81753,4.34745 -0.97216,4.8495 -1.72567,5.60301 -1.0317,1.0317 -2.02626,0.98182 -3.98872,-0.20001 z m 86.3125,-124.41682 c 1.1144,-0.67948 1.41248,-1.555607 1.21797,-3.579923 -0.20332,-2.115969 -1.31323,-4.125912 -3.43034,-6.211983 -3.16862,-3.122166 -5.58334,-3.830379 -8.07711,-2.368929 -2.26252,1.325922 -3.08488,3.376974 -2.34836,5.857074 0.84316,2.839239 4.20423,5.540751 8.05845,6.477121 2.21636,0.53844 3.49112,0.49019 4.57939,-0.17336 z m 21.77777,-1.554821 c 3.83365,-2.027985 6.59526,-6.967416 5.65327,-10.111482 C 215.22025,87.029802 213.26495,85.35 211.30961,85.35 c -2.40943,0 -5.77088,2.873739 -6.72637,5.750451 -0.98818,2.975136 0.1073,7.046448 2.20191,8.183274 0.98759,0.536007 2.56909,0.590697 3.45957,0.119634 z M 135.50908,65.617767 c 4.81571,-2.372265 8.10938,-8.540763 8.12553,-15.217767 0.0212,-8.779669 -5.10271,-14.513159 -12.99658,-14.542666 -3.98345,-0.01489 -7.33767,1.387225 -10.00278,4.181315 -2.82321,2.959839 -4.08525,6.250763 -4.08525,10.652771 0,4.253805 1.19241,7.876983 3.59102,10.911459 3.77601,4.777011 10.33988,6.491814 15.36806,4.014888 z"
     id="path5"
     transform="scale(0.75)" />
  <path
     style="fill:#f9f9f9;stroke-width:0.3"
     d="m 209.70639,209.37272 c -1.15148,-0.59089 -3.22364,-1.81095 -4.60479,-2.71123 -1.38115,-0.90028 -3.1615,-1.97691 -3.95633,-2.39252 -0.79483,-0.4156 -1.50819,-0.91993 -1.58524,-1.12071 -0.30212,-0.78732 0.48822,-4.0951 2.32801,-9.74327 3.26462,-10.02238 3.66321,-12.2008 4.07102,-22.24953 0.27236,-6.71097 0.66002,-11.39678 1.08499,-13.11467 0.39092,-1.58026 3.59605,-2.32551 4.90625,-1.14079 1.68329,1.52208 2.69328,4.71135 2.91014,9.18942 0.35171,7.26237 -1.36358,14.05013 -6.6456,26.29805 -1.44391,3.34811 -2.69387,6.59887 -2.77771,7.22391 -0.14406,1.07406 -0.0642,1.21088 1.45522,2.49245 0.88421,0.74581 2.62845,2.03824 3.87609,2.87207 3.63764,2.43112 5.01549,4.40668 3.60128,5.16355 -1.05713,0.56576 -2.54264,0.32151 -4.66333,-0.76673 z"
     id="path6"
     transform="scale(0.75)" />
</svg>
