<?xml version="1.0" standalone="no"?>
<!DOCTYPE svg PUBLIC "-//W3C//DTD SVG 20010904//EN"
 "http://www.w3.org/TR/2001/REC-SVG-20010904/DTD/svg10.dtd">
<svg version="1.0" xmlns="http://www.w3.org/2000/svg"
 width="198.000000pt" height="184.000000pt" viewBox="0 0 198.000000 184.000000"
 preserveAspectRatio="xMidYMid meet">

<g transform="translate(0.000000,184.000000) scale(0.100000,-0.100000)"
fill="#000000" stroke="none">
<path d="M1366 1755 c-50 -18 -104 -69 -128 -122 -18 -42 -20 -43 -67 -43 -42
0 -51 4 -66 28 -70 110 -179 153 -301 117 -101 -29 -194 -147 -194 -246 0 -20
-11 -36 -42 -61 -53 -41 -106 -99 -136 -147 -61 -98 -79 -249 -41 -351 35 -94
34 -96 -38 -92 -82 5 -149 -18 -196 -66 -44 -45 -57 -78 -57 -142 0 -68 31
-145 88 -215 l48 -60 -41 -30 c-72 -55 -71 -120 3 -153 46 -20 180 -19 265 1
56 14 57 14 57 -8 0 -52 83 -78 145 -45 24 13 28 13 36 -2 25 -45 131 -48 150
-4 10 21 16 23 55 18 51 -5 90 15 100 52 5 21 12 25 60 28 51 3 54 2 54 -20 0
-55 70 -87 137 -61 20 7 29 7 31 -1 6 -16 58 -40 89 -40 32 1 55 15 72 48 10
18 18 22 36 18 28 -7 82 11 89 30 3 8 16 14 29 14 38 0 77 36 77 71 0 29 -31
71 -59 80 -9 3 -5 20 14 60 38 83 50 156 36 215 -7 27 -14 58 -16 69 -3 15 9
31 48 61 66 51 121 124 148 194 31 82 24 202 -18 290 -30 64 -91 137 -146 176
-27 18 -27 21 -18 71 33 174 -139 327 -303 268z m155 -71 c26 -13 69 -59 69
-73 0 -4 -15 -5 -33 -3 -68 8 -121 -73 -98 -149 15 -51 48 -72 103 -67 35 4
51 -1 84 -23 93 -63 154 -165 162 -270 l5 -67 -56 -21 c-183 -68 -535 -99
-917 -81 -102 5 -105 4 -108 -17 -4 -29 6 -31 197 -43 266 -16 580 9 770 61
40 11 76 18 78 15 7 -7 -50 -86 -89 -123 -18 -18 -71 -55 -118 -83 l-85 -51
-1 -102 c0 -86 -5 -114 -28 -177 -41 -110 -40 -120 16 -150 27 -14 48 -29 48
-33 0 -5 -26 -7 -57 -5 l-58 3 -5 -35 c-7 -51 -42 -54 -71 -6 -24 41 -33 43
-74 16 -39 -26 -65 -26 -65 0 0 14 18 32 54 55 106 68 221 300 154 313 -13 3
-28 -20 -61 -90 -79 -168 -124 -201 -282 -202 -90 -1 -105 2 -152 27 -62 32
-91 68 -138 171 -27 59 -39 77 -53 74 -29 -5 -25 -46 12 -124 52 -110 70 -131
147 -169 39 -20 69 -42 69 -50 0 -20 -37 -19 -74 0 -39 21 -54 13 -58 -27 -4
-48 -33 -49 -72 -3 l-31 37 -48 -26 c-44 -23 -77 -26 -77 -6 0 5 20 25 45 46
25 20 45 42 45 50 0 7 -22 38 -49 69 -49 56 -121 180 -121 208 0 8 -9 25 -19
38 -18 22 -21 23 -36 8 -15 -15 -16 -22 -5 -55 20 -62 69 -153 112 -211 23
-30 39 -56 36 -58 -3 -3 -49 -17 -103 -30 -93 -24 -203 -32 -252 -19 -52 14
-13 56 79 87 31 11 20 39 -41 101 -98 103 -131 198 -96 276 28 62 73 85 170
86 44 1 88 4 97 8 11 5 33 -6 72 -38 57 -46 96 -63 115 -51 21 13 10 35 -31
64 -65 44 -104 90 -135 156 -37 80 -39 204 -5 280 35 75 94 148 156 189 51 34
56 41 56 73 0 102 75 202 166 221 50 11 101 5 140 -16 26 -14 73 -68 96 -110
l16 -30 84 5 c45 3 88 9 94 14 6 5 16 26 22 47 13 44 66 99 108 112 34 11 87
4 125 -16z m75 -1025 c31 -50 21 -141 -27 -248 -16 -35 -29 -68 -29 -72 0 -5
18 -20 40 -34 39 -24 45 -45 15 -45 -8 0 -30 11 -50 24 -20 14 -41 26 -47 28
-7 3 -2 30 17 84 22 62 28 98 29 169 1 50 6 93 11 97 15 11 33 10 41 -3z"/>
<path d="M917 1550 c-82 -65 -38 -210 64 -210 86 0 130 140 64 206 -31 31 -91
33 -128 4z"/>
<path d="M1549 1179 c-24 -24 -22 -67 3 -83 13 -8 23 -5 43 14 27 25 33 58 13
78 -17 17 -35 15 -59 -9z"/>
<path d="M1327 1165 c-31 -30 16 -85 73 -85 33 0 30 45 -6 78 -29 26 -47 28
-67 7z"/>
</g>
</svg>
