<?xml version="1.0" encoding="UTF-8" standalone="no"?>
<svg
   version="1.1"
   width="417.93494"
   height="825.93762"
   viewBox="0 0 417.93494 825.93762"
   id="svg40"
   sodipodi:docname="Космическая колба 9 мая 2026.svg"
   inkscape:version="1.4.3 (0d15f75, 2025-12-25)"
   xmlns:inkscape="http://www.inkscape.org/namespaces/inkscape"
   xmlns:sodipodi="http://sodipodi.sourceforge.net/DTD/sodipodi-0.dtd"
   xmlns="http://www.w3.org/2000/svg"
   xmlns:svg="http://www.w3.org/2000/svg">
  <defs
     id="defs40" />
  <sodipodi:namedview
     id="namedview40"
     pagecolor="#505050"
     bordercolor="#ffffff"
     borderopacity="1"
     inkscape:showpageshadow="0"
     inkscape:pageopacity="0"
     inkscape:pagecheckerboard="1"
     inkscape:deskcolor="#505050"
     inkscape:zoom="0.49141461"
     inkscape:cx="-83.432603"
     inkscape:cy="412.07566"
     inkscape:window-width="1920"
     inkscape:window-height="1022"
     inkscape:window-x="0"
     inkscape:window-y="30"
     inkscape:window-maximized="1"
     inkscape:current-layer="svg40" />
  <path
     d="m 103.73059,0.12047712 c 2.51161,-0.005711 5.02321,-0.0126786 7.53481,-0.02079773 6.08272,-0.01601451 12.16531,-0.01804855 18.24805,-0.0127871 4.95181,0.0040626 9.90359,0.0025735 14.85539,-0.0027482 0.70824,-7.4843e-4 1.41648,-0.0014969 2.14618,-0.002268 1.4394,-0.0015317 2.87881,-0.00307 4.31822,-0.004615 13.46243,-0.01368997 26.9248,-0.0083127 40.38722,0.0031852 12.272,0.0099222 24.54384,-0.002997 36.81581,-0.0269342 12.64769,-0.02448111 25.2953,-0.03397645 37.94301,-0.02734727 7.08189,0.0034731 14.16367,0.0013879 21.24555,-0.01625103 6.66589,-0.0163989 13.33145,-0.0114013 19.99734,0.007305 2.43141,0.0036582 4.86285,6.594e-4 7.29424,-0.009886 30.49128,-0.12203592 56.78157,5.45136031 79.14509,27.51719721 19.22874,19.502949 23.54172,43.326591 23.39111,69.704345 -0.0161,3.354825 -7e-5,6.708445 0.019,10.063235 0.0199,19.28416 -1.98197,34.05533 -14.99218,49.16211 -2.41797,2.07031 -2.41797,2.07031 -11.41797,7.07031 -0.33,164.34 -0.66,328.68 -1,498 1.65,0.66 3.3,1.32 5,2 15.23981,11.46406 19.9236,30.60595 22.59424,48.48975 0.67504,5.83983 0.69465,11.63788 0.65576,17.51025 0.008,1.16789 0.0155,2.33578 0.0234,3.53907 -0.0579,26.09661 -8.47413,49.78388 -26.45313,68.76171 -8.19536,7.73006 -17.95457,13.14175 -28.25781,17.51172 -0.6426,0.27788 -1.2852,0.55575 -1.94727,0.84204 -15.03072,6.07252 -30.09899,5.77628 -46.0332,5.73365 -2.5606,0.004 -5.1212,0.009 -7.68179,0.0159 -6.20452,0.0122 -12.40889,0.0105 -18.61341,0.002 -5.04723,-0.007 -10.09443,-0.008 -15.14166,-0.004 -0.72121,4.6e-4 -1.44241,9.2e-4 -2.18547,0.001 -1.46559,9.6e-4 -2.93119,0.002 -4.39678,0.003 -13.70927,0.009 -27.41849,-10e-4 -41.12776,-0.0174 -11.73655,-0.0134 -23.47302,-0.0111 -35.20958,0.003 -13.66371,0.0161 -27.32737,0.0223 -40.99109,0.0132 -1.45989,-9.6e-4 -2.91978,-0.002 -4.37966,-0.003 -0.7181,-4.6e-4 -1.4362,-9.3e-4 -2.17606,-10e-4 -5.03505,-0.003 -10.07008,0.002 -15.10513,0.009 -6.78976,0.009 -13.57932,0.003 -20.36906,-0.0147 -2.48392,-0.004 -4.96785,-0.003 -7.45176,0.004 -27.398593,0.0665 -51.650225,-4.90166 -71.995008,-24.63627 -11.36632,-11.38242 -17.575872,-22.70597 -22.7578131,-37.76172 -0.332578,-0.93328 -0.665156,-1.86656 -1.007812,-2.82812 -7.673906,-23.09623 -5.735726,-57.81593 4.916504,-79.58814 3.5075151,-6.67793 7.2686271,-13.61816 14.1452631,-17.15404 3.303214,-2.20538 3.303214,-2.20538 3.697648,-6.11968 0.0315,-1.52623 0.02971,-3.05335 0.0023,-4.57966 0.0086,-0.84542 0.01722,-1.69085 0.02609,-2.56189 0.02168,-2.85248 3.65e-4,-5.70304 -0.02051,-8.55549 0.0067,-2.05761 0.01612,-4.11522 0.02791,-6.17281 0.02482,-5.66915 0.01214,-11.33769 -0.0065,-17.00684 -0.01354,-6.10773 0.0074,-12.21536 0.02422,-18.32307 0.02441,-10.58698 0.02703,-21.17376 0.01441,-31.76075 -0.01314,-11.10525 -0.01391,-22.2104 0.0019,-33.31566 0.0015,-1.03518 0.0015,-1.03518 0.003,-2.09129 0.005,-3.5047 0.01024,-7.00941 0.01556,-10.51412 0.03727,-24.83293 0.04676,-49.6658 0.03993,-74.49875 -0.0066,-24.12697 -5.76e-4,-48.25389 0.02246,-72.38086 7.05e-4,-0.74351 0.0014,-1.48703 0.0021,-2.25307 0.0071,-7.46658 0.01444,-14.93315 0.02198,-22.39973 0.01535,-15.21068 0.02898,-30.42136 0.04159,-45.63205 5.82e-4,-0.69938 0.0012,-1.39877 0.0018,-2.11935 0.03866,-46.71486 0.0374,-93.42975 0.03019,-140.14463 -1.174779,-0.4492 -1.174779,-0.4492 -2.373291,-0.90747 -4.301927,-1.7893 -7.299255,-4.89608 -10.626709,-8.09253 -0.827578,-0.7889 -0.827578,-0.7889 -1.671875,-1.59375 C -0.2405561,139.01989 0.0651539,116.25104 0.1614539,98.27573 c 0.002,-0.899756 0.004,-1.799511 0.006,-2.726532 0.0646,-13.459969 0.52566,-26.340628 5.493648,-39.023468 0.27876,-0.71253 0.55752,-1.425059 0.844727,-2.15918 C 15.57715,32.295781 32.484589,16.913873 53.911499,7.0245298 70.33656,0.26126948 86.238121,0.08440937 103.73059,0.12047712 Z"
     fill="#090b09"
     id="path2" />
  <path
     d="m 133.7865,220.27453 c 0.73344,0.003 1.46687,0.007 2.22254,0.0104 10.67172,0.0587 21.13545,0.25905 31.65246,2.2396 0.70657,0.12939 1.41314,0.25878 2.14111,0.39209 11.8453,2.25588 23.14875,5.97155 34.53601,9.85663 30.91197,10.54575 58.49761,16.03815 89.32288,1.75128 2.43443,-1.07052 4.87141,-2.13254 7.3125,-3.1875 1.10988,-0.48856 2.21977,-0.97711 3.36328,-1.48047 11.17911,-4.47953 25.1237,-5.58276 36.69922,-1.64453 6.91302,3.09409 11.53977,7.23165 14.625,14.3125 0.50025,3.51706 0.50025,3.51706 0.50057,7.31016 0.008,1.0579 0.008,1.0579 0.0167,2.13717 0.0136,2.3574 -10e-4,4.71374 -0.0161,7.07112 0.004,1.70943 0.01,3.41887 0.0168,5.12829 0.0148,4.69297 0.005,9.3856 -0.01,14.07856 -0.0111,5.06277 8.3e-4,10.12549 0.01,15.18826 0.0139,9.91591 0.006,19.8317 -0.009,29.74761 -0.0169,11.5441 -0.0137,23.08817 -0.01,34.63228 0.006,20.595 -0.008,41.18994 -0.0329,61.78492 -0.0239,19.99123 -0.031,39.98239 -0.0205,59.97363 0.0114,21.76285 0.0134,43.52567 -0.001,65.28852 -0.002,2.31981 -0.003,4.63962 -0.005,6.95944 -7.6e-4,1.14143 -0.002,2.28286 -0.002,3.45888 -0.005,8.04988 -0.003,16.09974 0.001,24.14962 0.005,9.80717 -0.001,19.61427 -0.0209,29.42142 -0.01,5.00526 -0.015,10.01041 -0.007,15.01567 0.007,4.57993 2.8e-4,9.15961 -0.0176,13.7395 -0.004,1.6587 -0.003,3.31742 0.004,4.9761 0.008,2.2518 -0.002,4.50278 -0.017,6.75452 -10e-4,1.25157 -0.002,2.50313 -0.003,3.79261 -0.43562,3.91699 -1.51192,7.52644 -4.3772,10.39172 -1.37428,0.22894 -2.75868,0.39764 -4.14453,0.54077 -0.88865,0.0936 -1.7773,0.18715 -2.69287,0.28356 -0.98178,0.0979 -1.96357,0.19586 -2.9751,0.29676 -1.03334,0.10483 -2.06669,0.20965 -3.13135,0.31765 -2.22274,0.22345 -4.44573,0.44439 -6.66894,0.66307 -3.23573,0.32068 -6.46958,0.65663 -9.70362,0.99389 -36.56532,3.70132 -73.1532,4.2158 -109.87597,4.09992 -4.35842,-0.0109 -8.71681,-0.0104 -13.07525,-0.01 -28.27054,-6e-4 -56.41019,-0.34337 -84.60724,-2.56062 -0.838,-0.0654 -1.676,-0.13072 -2.5394,-0.19806 -5.07091,-0.39766 -10.14045,-0.81028 -15.209439,-1.23163 -2.28498,-0.18782 -4.570413,-0.36842 -6.85614,-0.54687 -3.947075,-0.31062 -7.889678,-0.66282 -11.83252,-1.02344 -1.733225,-0.13414 -1.733225,-0.13414 -3.501465,-0.271 -1.047524,-0.10393 -2.095049,-0.20786 -3.174316,-0.31494 -0.902747,-0.0804 -1.805493,-0.16081 -2.735596,-0.24365 -3.180556,-1.11147 -3.833646,-2.83942 -5.276123,-5.79541 -0.33,-0.66 -0.66,-1.32 -1,-2 -0.09995,-2.18446 -0.132861,-4.37207 -0.137014,-6.55881 -0.0027,-0.6848 -0.0053,-1.36959 -0.008,-2.07513 -0.0077,-2.31755 -0.0083,-4.63505 -0.0088,-6.95261 -0.004,-1.66927 -0.0085,-3.33854 -0.01328,-5.0078 -0.01199,-4.60522 -0.01762,-9.21042 -0.02218,-13.81564 -0.0059,-4.96 -0.01756,-9.91997 -0.02829,-14.87996 -0.02455,-11.98893 -0.03916,-23.97787 -0.05206,-35.96682 -0.0037,-3.38532 -0.0077,-6.77064 -0.01175,-10.15596 -0.02524,-21.01362 -0.0473,-42.02725 -0.05973,-63.04089 -0.0029,-4.86995 -0.0059,-9.7399 -0.0089,-14.60986 -7.46e-4,-1.21043 -0.0015,-2.42087 -0.0023,-3.66798 -0.01265,-19.60614 -0.04587,-39.21218 -0.08754,-58.81828 -0.04241,-20.12111 -0.06599,-40.24218 -0.07121,-60.36334 -0.0034,-11.30046 -0.01518,-22.60078 -0.0481,-33.90121 -0.02799,-9.62493 -0.039,-19.24969 -0.0278,-28.87466 0.0052,-4.91064 0.0023,-9.82091 -0.02247,-14.7315 -0.02249,-4.4984 -0.02176,-8.99619 -0.0028,-13.49461 0.0028,-1.62461 -0.0028,-3.24927 -0.01781,-4.87381 -0.09615,-11.08093 0.982923,-19.70935 9.005034,-27.89863 10.267562,-8.15252 22.999666,-11.75343 35.624999,-14.3125 0.78037,-0.17805 1.56073,-0.35611 2.36475,-0.53955 8.22745,-1.73348 16.39276,-1.77429 24.76025,-1.71045 z"
     fill="#8bec96"
     id="path3" />
  <path
     d="m 91.613161,13.250377 c 1.568199,-0.0079 1.568199,-0.0079 3.168078,-0.01587 3.473148,-0.0149 6.946151,-0.0157 10.419321,-0.01637 2.50279,-0.0076 5.00557,-0.01606 7.50835,-0.02522 6.77934,-0.02189 13.55863,-0.03076 20.338,-0.03583 4.24307,-0.0033 8.48612,-0.0098 12.72918,-0.017 11.77678,-0.01955 23.55355,-0.03596 35.33034,-0.03888 0.75201,-1.87e-4 1.50402,-3.75e-4 2.27882,-5.68e-4 1.52412,-3.66e-4 3.04824,-7.3e-4 4.57237,-0.0011 0.75644,-1.83e-4 1.51289,-3.66e-4 2.29226,-5.54e-4 0.75738,-1.81e-4 1.51477,-3.61e-4 2.2951,-5.47e-4 12.25678,-0.0035 24.51338,-0.03054 36.7701,-0.06795 12.62156,-0.03821 25.24303,-0.05745 37.86464,-0.05775 7.07135,-5.82e-4 14.14248,-0.0089 21.21377,-0.038 6.65848,-0.02729 13.31648,-0.02831 19.97502,-0.01234 2.43022,0.0018 4.86047,-0.0048 7.29065,-0.02082 24.65375,-0.152693 47.37147,4.11417 66.31875,20.927631 12.26155,12.315099 18.03904,26.098573 21.68359,42.695313 0.2651,0.974682 0.2651,0.974682 0.53555,1.969055 1.37798,6.025635 0.77468,12.802316 0.81455,18.970886 0.0164,1.852017 0.0435,3.703977 0.082,5.555667 0.32654,15.81305 -0.64096,30.78783 -11.80713,43.12939 -5.97948,5.41001 -11.44942,8.61976 -19.57186,8.63507 -1.79881,0.0106 -1.79881,0.0106 -3.63397,0.0214 -1.97083,-0.004 -1.97083,-0.004 -3.98149,-0.007 -1.41271,0.004 -2.82542,0.01 -4.23812,0.0159 -3.88209,0.0142 -7.76409,0.0158 -11.6462,0.0154 -4.18692,0.002 -8.3738,0.0147 -12.5607,0.0262 -9.15497,0.0229 -18.30993,0.0308 -27.46492,0.0358 -5.71671,0.003 -11.43341,0.01 -17.15011,0.017 -15.82897,0.0196 -31.65793,0.036 -47.48692,0.0389 -1.01295,1.9e-4 -2.0259,3.7e-4 -3.06955,5.7e-4 -2.05348,3.6e-4 -4.10697,7.3e-4 -6.16045,0.001 -1.52902,2.7e-4 -1.52902,2.7e-4 -3.08893,5.5e-4 -1.53089,2.7e-4 -1.53089,2.7e-4 -3.09271,5.5e-4 -16.53827,0.004 -33.0764,0.0306 -49.61463,0.0679 -16.9809,0.0381 -33.96174,0.0574 -50.94269,0.0577 -9.53367,5.8e-4 -19.06718,0.009 -28.6008,0.038 -8.117811,0.0245 -16.235407,0.0318 -24.353241,0.0167 -4.14095,-0.007 -8.281481,-0.006 -12.422384,0.0164 -3.793887,0.0206 -7.587035,0.018 -11.380915,-0.003 -2.01623,-0.005 -4.032476,0.0143 -6.048609,0.0347 -9.028832,-0.0835 -14.725972,-1.94027 -21.604081,-7.7602 -4.603092,-5.25364 -7.450859,-10.22225 -9.511719,-16.89454 -0.509019,-1.49648 -0.509019,-1.49648 -1.02832,-3.02319 -1.326991,-4.68889 -1.295897,-9.31607 -1.307618,-14.1604 -0.0067,-0.97317 -0.01331,-1.94633 -0.02017,-2.94899 -0.01009,-2.05662 -0.01482,-4.11327 -0.0145,-6.16991 -0.0043,-3.0944 -0.04059,-6.187342 -0.07861,-9.281493 -0.08424,-14.592636 1.060791,-28.411267 7.949219,-41.603515 0.334753,-0.651621 0.669507,-1.303243 1.014404,-1.97461 9.264208,-17.031661 26.673168,-29.70323 45.085534,-35.195651 8.098042,-2.166952 15.993608,-2.937531 24.351751,-2.916394 z"
     fill="#cbcbcb"
     id="path4" />
  <path
     d="m 45.661501,671.52453 c 17.010342,2.08955 34.044751,3.66139 51.12793,4.99756 1.127572,0.0896 1.127572,0.0896 2.277923,0.18109 2.049896,0.16258 4.100086,0.32144 6.150296,0.48004 3.44385,0.34131 3.44385,0.34131 5.73244,0.82974 6.03918,1.13942 12.2722,1.21957 18.40282,1.55844 1.20006,0.0666 1.20006,0.0666 2.42438,0.13445 20.75814,1.11491 41.51792,1.12336 62.30047,1.07942 5.40725,-0.0113 10.81429,-0.005 16.22153,0.007 55.84573,0.18728 55.84573,0.18728 111.48721,-4.14263 5.74993,-0.67848 11.5027,-1.29278 17.26562,-1.85157 0.6544,-0.0636 1.30879,-0.12727 1.98301,-0.19284 3.27234,-0.31787 6.54495,-0.6317 9.81826,-0.93948 6.76822,-0.65712 13.42751,-1.49538 20.11133,-2.75635 6.68396,-0.95364 11.1762,-0.2108 16.69678,3.61524 12.71594,12.13333 17.02803,29.93824 17.43359,47.05078 0.0376,2.75468 0.0298,5.50696 0.004,8.26172 -0.006,1.08076 -0.006,1.08076 -0.0122,2.18335 -0.17108,21.80434 -4.4546,41.33933 -20.25339,57.43774 -0.71671,0.68192 -1.43343,1.36383 -2.17187,2.06641 -0.63422,0.63035 -1.26844,1.2607 -1.92188,1.91016 -19.00699,17.86814 -43.60225,19.69888 -68.30175,19.59155 -2.50356,0.004 -5.00711,0.009 -7.51065,0.0164 -6.05343,0.0124 -12.10658,0.006 -18.15998,-0.009 -7.06686,-0.017 -14.13366,-0.0136 -21.20053,-0.01 -12.61623,0.006 -25.23237,-0.008 -37.84857,-0.0329 -12.21163,-0.0239 -24.42312,-0.031 -36.63477,-0.0205 -13.33924,0.0114 -26.67843,0.0133 -40.01768,-10e-4 -1.42471,-0.002 -2.84943,-0.003 -4.27415,-0.005 -0.70077,-7.6e-4 -1.40153,-0.002 -2.12354,-0.002 -4.91383,-0.005 -9.82763,-0.003 -14.74146,0.001 -6.62235,0.005 -13.24454,-0.005 -19.86686,-0.0269 -2.42306,-0.006 -4.84613,-0.006 -7.26919,-10e-4 -23.309244,0.0428 -23.309244,0.0428 -34.129119,-3.41081 -0.692696,-0.19721 -1.385392,-0.39442 -2.099079,-0.5976 -17.262979,-5.07746 -31.547192,-16.0322 -40.900921,-31.4024 -0.533672,-0.86367 -1.067344,-1.72734 -1.617187,-2.61719 -12.699234,-21.79719 -13.560305,-51.25865 -7.515625,-75.32813 3.141389,-11.55032 8.103836,-21.03683 18.132812,-28.05468 3.880349,-1.29345 7.044617,-0.56575 11,0 z"
     fill="#cccbcb"
     id="path5" />
  <path
     d="m 40.661501,165.52453 c 110.879999,0 221.759999,0 335.999999,0 0,163.02 0,326.04 0,494 -3.96,0.33 -7.92,0.66 -12,1 0.002,-0.88491 0.004,-1.76982 0.006,-2.68155 0.11188,-52.44142 0.19768,-104.88283 0.24958,-157.32435 0.006,-6.29605 0.0127,-12.5921 0.0193,-18.88814 0.001,-1.25344 0.003,-2.50687 0.004,-3.79829 0.0218,-20.29818 0.0612,-40.59628 0.10713,-60.89441 0.0467,-20.82618 0.0745,-41.65231 0.0847,-62.47853 0.007,-12.85197 0.0285,-25.70374 0.0691,-38.55565 0.0264,-8.81182 0.0344,-17.62353 0.0279,-26.43538 -0.003,-5.08479 0.002,-10.16924 0.0285,-15.25397 0.0244,-4.65761 0.0255,-9.31463 0.008,-13.97227 -0.002,-1.68254 0.004,-3.36513 0.0199,-5.0476 0.0936,-10.60915 -0.87064,-18.60733 -7.62411,-27.22064 -11.26058,-9.919 -24.44147,-12.12224 -38.99463,-11.58545 -9.24724,0.62819 -17.62826,4.47063 -26.00537,8.13623 -2.91055,1.24402 -5.82915,2.46791 -8.75,3.6875 -0.69698,0.29745 -1.39396,0.5949 -2.11206,0.90136 -7.75888,3.24076 -14.71732,4.76327 -23.13794,4.66114 -1.24113,-0.0112 -1.24113,-0.0112 -2.50732,-0.0227 -17.23908,-0.29574 -32.60233,-4.21268 -48.66456,-10.19995 -33.21191,-12.06455 -68.93577,-17.38195 -103.82812,-10.02734 -0.68707,0.1339 -1.37414,0.2678 -2.08203,0.40576 -15.013135,2.96029 -30.845218,8.57577 -40.917969,20.59424 -6.850489,10.40412 -8.005452,19.14599 -7.841782,31.32468 -0.0031,1.7115 -0.0092,3.42301 -0.01812,5.1345 -0.01554,4.66624 0.01219,9.33135 0.04745,13.99745 0.03038,5.04547 0.01999,10.09088 0.01468,15.13642 -0.0037,8.72945 0.0182,17.45853 0.05767,26.18789 0.05702,12.62094 0.07513,25.24171 0.08392,37.86276 0.0153,20.47938 0.06183,40.95857 0.128118,61.43784 0.06431,19.88736 0.113829,39.77467 0.143555,59.66211 0.0028,1.84045 0.0028,1.84045 0.0056,3.71808 0.0091,6.15564 0.01798,12.31129 0.02668,18.46694 0.07247,51.02391 0.196226,102.04761 0.352229,153.07133 -4.29,-0.33 -8.58,-0.66 -13,-1 0,-163.02 0,-326.04 0,-494 z"
     fill="#F5F5F5"
     id="path6"
     style="fill:#f5f5f5;fill-opacity:1" />
  <path
     d="m 154.81946,89.975207 c 1.30344,-0.01022 2.60689,-0.02044 3.94983,-0.03097 3.55592,-0.02665 7.11141,-0.02795 10.66741,-0.02287 2.97701,0.0021 5.95393,-0.0076 8.93093,-0.01721 7.02714,-0.02214 14.05407,-0.02309 21.08123,-0.01097 7.2314,0.01208 14.46203,-0.01255 21.6933,-0.05514 6.2262,-0.03531 12.45216,-0.04722 18.67846,-0.04073 3.71101,0.0036 7.42146,-0.0015 11.13238,-0.02943 4.14089,-0.02998 8.28021,-0.01115 12.42115,0.01201 1.21742,-0.01529 2.43485,-0.03057 3.68916,-0.04633 7.79027,0.09614 12.72985,1.564254 18.59819,6.790955 5.08353,5.591886 5.28617,9.329576 5.4375,16.624996 0.0458,0.87786 0.0915,1.75571 0.13867,2.66016 0.0995,5.82463 -0.96163,9.30869 -4.4978,13.93896 -7.23783,6.18443 -14.02591,6.34649 -23.17627,6.26172 -1.2969,0.004 -2.5938,0.008 -3.93001,0.0115 -3.53726,0.01 -7.07402,-0.006 -10.61122,-0.0259 -3.71228,-0.0177 -7.42454,-0.014 -11.13685,-0.0133 -6.23142,-0.002 -12.46264,-0.0192 -18.69399,-0.0465 -7.19256,-0.0315 -14.38492,-0.042 -21.57754,-0.0405 -7.67615,0.001 -15.35221,-0.0125 -23.02832,-0.0309 -2.20411,-0.004 -4.40821,-0.006 -6.61233,-0.006 -4.11454,-0.002 -8.22884,-0.0219 -12.34333,-0.0432 -1.8229,0.001 -1.8229,0.001 -3.68262,0.003 -13.68206,-0.10368 -13.68206,-0.10368 -19.03589,-4.60577 -5.0714,-6.05751 -5.79627,-10.24676 -5.8125,-18 -0.0367,-0.91201 -0.0735,-1.82402 -0.11133,-2.76367 -0.0379,-5.88103 1.02295,-9.48579 4.59986,-14.158938 7.24813,-6.167876 14.07791,-6.351329 23.23193,-6.314135 z"
     fill="#0e0d0d"
     id="path7" />
  <path
     d="m 166.89783,719.7799 c 0.99294,-0.007 1.98587,-0.0146 3.0089,-0.0221 3.26271,-0.0161 6.52342,0.0109 9.78602,0.0402 2.27869,0.001 4.55738,0 6.83606,-0.003 4.76798,1.8e-4 9.53527,0.021 14.3031,0.0572 6.09977,0.0454 12.19855,0.0465 18.29844,0.033 4.70306,-0.007 9.40588,0.007 14.1089,0.0263 2.24857,0.008 4.49717,0.01 6.74575,0.007 3.14721,-7.4e-4 6.29316,0.0246 9.44017,0.057 0.9218,-0.005 1.8436,-0.01 2.79332,-0.015 7.18627,0.11758 12.72244,1.77217 17.81801,7.00184 4.68925,7.39459 4.30206,15.11626 3.625,23.5625 -1.55726,5.999 -4.98113,9.54952 -10,13 -2.82309,0.9133 -5.39425,1.13028 -8.35092,1.14717 -0.86348,0.007 -1.72697,0.0143 -2.61662,0.0217 -0.93932,0.003 -1.87864,0.005 -2.84642,0.008 -1.49335,0.01 -1.49335,0.01 -3.01686,0.0199 -3.29337,0.0197 -6.5867,0.0314 -9.88012,0.0414 -1.68779,0.006 -1.68779,0.006 -3.40968,0.0124 -5.95263,0.0208 -11.90524,0.0352 -17.85789,0.0445 -6.14928,0.0111 -12.2982,0.0455 -18.44735,0.0852 -4.72863,0.0261 -9.45718,0.0345 -14.18588,0.0381 -2.26701,0.005 -4.53402,0.0165 -6.80096,0.035 -3.17181,0.0243 -6.34267,0.0234 -9.51454,0.0165 -1.40291,0.0192 -1.40291,0.0192 -2.83416,0.0388 -5.59166,-0.0447 -8.8118,-0.75931 -13.2386,-4.50879 -5.46841,-6.07602 -6.36291,-10.44328 -6.375,-18.375 -0.0245,-0.83789 -0.049,-1.67578 -0.0742,-2.53906 -0.0262,-5.54589 0.62236,-8.80034 4.44922,-13.08594 5.81438,-5.54778 10.31115,-6.87602 18.23633,-6.74458 z"
     fill="#0d110e"
     id="path8" />
  <path
     d="m 131.44275,241.9425 c 2.47308,1.76337 3.82559,2.86903 5.21875,5.58203 0.24016,2.72003 0.13705,5.25907 0,8 -0.66,0 -1.32,0 -2,0 -0.26812,0.78375 -0.53625,1.5675 -0.8125,2.375 -1.1875,2.625 -1.1875,2.625 -4.1875,4.625 -1.36579,0.2962 -2.74303,0.54196 -4.125,0.75 -8.96453,1.89186 -15.63545,7.9546 -20.875,15.25 -4.50923,8.3965 -5.295592,17.66243 -5.318847,27.03955 -0.01004,0.94756 -0.02009,1.89511 -0.03044,2.87138 -0.0306,3.09479 -0.0478,6.18949 -0.06477,9.28438 -0.01873,2.16048 -0.03831,4.32095 -0.05869,6.48142 -0.05113,5.65843 -0.09086,11.31689 -0.128143,16.97543 -0.04016,5.78528 -0.0912,11.57046 -0.141296,17.35565 -0.09653,11.33066 -0.181007,22.66138 -0.257813,33.99219 -0.66,0 -1.32,0 -2,0 -0.402187,0.92813 -0.402187,0.92813 -0.8125,1.875 -1.1875,2.125 -1.1875,2.125 -4.1875,4.125 -2.304687,0.40625 -2.304687,0.40625 -4.875,0.5 -0.843047,0.0516 -1.686094,0.10313 -2.554687,0.15625 -3.122067,-0.79712 -4.528061,-2.2445 -6.506455,-4.7393 -2.05545,-3.70368 -1.739316,-7.61499 -1.679092,-11.75508 -0.0055,-0.97486 -0.0111,-1.94972 -0.01682,-2.95412 -0.01179,-3.21689 0.01249,-6.43237 0.0383,-9.64916 0.0017,-2.24714 0.0016,-4.49429 -1.22e-4,-6.74143 0.0017,-4.71179 0.02034,-9.4231 0.05188,-14.13479 0.03952,-6.00953 0.04406,-12.01845 0.03654,-18.02809 -0.0031,-4.64404 0.0091,-9.28794 0.02613,-13.93194 0.007,-2.21375 0.01016,-4.4275 0.0093,-6.64126 0.01215,-20.77679 2.078111,-39.79024 16.470016,-56.08108 9.808969,-9.03142 25.030639,-19.59253 38.781259,-12.58203 z"
     fill="#fbfdfb"
     id="path9" />
  <path
     d="m 147.19603,101.00987 c 1.12577,-0.0127 2.25154,-0.0255 3.41142,-0.0386 1.23077,0.007 2.46153,0.013 3.72959,0.0198 1.29953,-0.009 2.59906,-0.0172 3.93797,-0.0261 3.5621,-0.0225 7.12376,-0.0196 10.68591,-0.0107 2.97469,0.005 5.94931,-0.002 8.924,-0.009 7.01829,-0.017 14.03637,-0.0134 21.05466,0.003 7.23813,0.0169 14.47567,0.001 21.71374,-0.0312 6.21671,-0.0267 12.43324,-0.034 18.65,-0.0255 3.71198,0.005 7.4236,0.003 11.13554,-0.0178 4.13962,-0.0218 8.27809,-0.003 12.41771,0.0198 1.22874,-0.0117 2.45747,-0.0234 3.72345,-0.0354 9.24202,0.10362 9.24202,0.10362 12.34028,2.99504 2.22341,3.41133 2.40989,5.6173 2.3662,9.67149 0.0129,1.19625 0.0258,2.3925 0.0391,3.625 -0.65038,3.30545 -1.32507,5.03742 -3.78964,7.33748 -4.37504,2.42166 -9.82096,1.72451 -14.67935,1.68449 -1.30129,0.009 -2.60257,0.0175 -3.94329,0.0266 -3.56208,0.0228 -7.12343,0.014 -10.68552,-0.002 -3.72974,-0.0127 -7.45942,-9.1e-4 -11.18917,0.007 -6.26196,0.009 -12.52362,-0.003 -18.78554,-0.0267 -7.23876,-0.0272 -14.47682,-0.0184 -21.71557,0.009 -6.21758,0.0227 -12.43495,0.0259 -18.65256,0.0128 -3.71248,-0.008 -7.42462,-0.009 -11.13707,0.008 -4.13736,0.0171 -8.27351,-0.007 -12.41081,-0.0345 -1.23077,0.0101 -2.46153,0.0202 -3.72959,0.0307 -8.26128,-0.10342 -8.26128,-0.10342 -11.70501,-2.99123 -1.64141,-3.55318 -1.77202,-6.34228 -1.74098,-10.24887 -0.0103,-1.30066 -0.0206,-2.60133 -0.0312,-3.94141 0.93506,-6.15351 4.08088,-7.99358 10.06578,-8.01075 z"
     fill="#c9c9c9"
     id="path10" />
  <path
     d="m 167.30188,731.00695 c 1.48332,-0.0105 1.48332,-0.0105 2.9966,-0.0212 3.27624,-0.0176 6.55162,-0.006 9.82786,0.008 2.273,-0.003 4.546,-0.007 6.81899,-0.0116 4.7674,-0.006 9.5345,0.003 14.30186,0.0214 6.11484,0.0228 12.22897,0.01 18.34377,-0.0143 4.69515,-0.0145 9.39013,-0.01 14.08528,5.1e-4 2.25469,0.003 4.50938,-6.1e-4 6.76405,-0.01 3.15089,-0.0101 6.30063,0.005 9.45143,0.0276 1.40203,-0.0121 1.40203,-0.0121 2.83237,-0.0245 6.28847,0.0825 6.28847,0.0825 9.51482,2.36743 2.03145,3.10543 1.95378,5.49399 1.92259,9.17469 0.0155,1.82531 0.0155,1.82531 0.0312,3.6875 -0.53125,3.3125 -0.53125,3.3125 -1.95384,5.48718 -3.9409,2.79094 -7.62788,2.38378 -12.34719,2.34289 -0.99063,0.007 -1.98125,0.014 -3.0019,0.0212 -3.27561,0.0176 -6.55036,0.006 -9.82598,-0.008 -2.27396,0.003 -4.54792,0.007 -6.82188,0.0116 -4.76562,0.006 -9.53094,-0.003 -14.29652,-0.0214 -6.11603,-0.0228 -12.23135,-0.01 -18.34735,0.0143 -4.6951,0.0144 -9.39004,0.01 -14.08515,-5.1e-4 -2.25551,-0.003 -4.51103,6.2e-4 -6.76653,0.01 -3.14858,0.0102 -6.29603,-0.005 -9.44453,-0.0276 -0.9367,0.008 -1.87341,0.0162 -2.8385,0.0245 -6.27894,-0.0827 -6.27894,-0.0827 -8.8795,-2.36743 -1.32374,-3.12096 -1.31886,-5.79596 -1.29738,-9.17468 -0.008,-1.21688 -0.0155,-2.43375 -0.0234,-3.6875 1.00754,-8.37641 5.82567,-7.89243 13.03882,-7.83008 z"
     fill="#8deb97"
     id="path11" />
  <path
     d="m 75.286501,28.774527 c 0.755391,0.06703 1.510781,0.134063 2.289062,0.203125 2.529654,0.663205 3.48199,1.505487 5.085938,3.546875 1.244274,3.732822 1.63904,7.127722 1,11 -2.627275,3.765761 -5.630552,5.365276 -9.6875,7.25 -10.168993,4.895622 -16.157006,12.260743 -21.425781,21.929687 -2.473721,3.697778 -4.8249,5.364877 -9.167969,6.324219 -4.35618,0.11504 -6.198799,-0.11129 -9.78125,-2.816406 -3.054121,-4.522653 -2.785505,-9.478324 -1.9375,-14.6875 3.288618,-11.071106 14.099248,-22.290946 24,-28 6.333441,-3.01082 12.517413,-5.482741 19.625,-4.75 z"
     fill="#fcfcfc"
     id="path12" />
  <path
     d="m 302.91541,312.43469 c 5.03136,2.96917 9.10563,6.80891 11.74609,12.08984 0.79998,5.92391 0.65535,10.78553 -2.5625,15.9375 -2.90349,3.75034 -5.75946,6.8011 -10.4375,8.0625 -5.94299,0.70573 -11.09415,0.90277 -16.5625,-1.6875 -3.97357,-3.7698 -7.93877,-7.80843 -8.73828,-13.42578 -0.0319,-5.98583 0.57936,-11.03383 4.91797,-15.58203 6.36813,-5.65753 13.16173,-8.81684 21.63672,-5.39453 z"
     fill="#f6f9f7"
     id="path13" />
  <path
     d="m 150.00134,585.26281 c 4.99783,2.26159 8.18086,5.30313 10.66016,10.26172 0.50178,6.44601 0.96229,12.58486 -3,18 -4.33462,4.33461 -8.53519,7.26926 -14.75,7.4375 -5.53708,-0.13863 -9.17202,-1.71216 -13.25,-5.4375 -3.38225,-3.78549 -5.28918,-7.38629 -5.5625,-12.5 0.44925,-6.69273 3.10214,-11.59598 8.125,-16 5.53085,-3.76964 11.50864,-3.73966 17.77734,-1.76172 z"
     fill="#247235"
     id="path14" />
  <path
     d="m 307.5365,308.02453 c 4.95268,3.01591 8.22414,6.50688 11.125,11.5 0.3777,0.59039 0.75539,1.18078 1.14453,1.78906 1.23448,3.19047 1.0435,6.05735 0.98047,9.46094 -0.0181,1.26328 -0.0361,2.52656 -0.0547,3.82812 -0.0232,0.96422 -0.0464,1.92844 -0.0703,2.92188 -0.66,0 -1.32,0 -2,0 -0.10184,0.74121 -0.20367,1.48242 -0.30859,2.24609 -1.42676,5.68286 -6.27833,10.23296 -11.19141,13.25391 -6.58272,2.86708 -15.29984,2.96261 -22.03516,0.61718 -5.70611,-3.32032 -11.06364,-8.91135 -13.46484,-15.11718 -0.95872,-10.22224 -0.24954,-17.14856 6.1875,-25.1875 8.18666,-8.78361 18.75375,-10.75706 29.6875,-5.3125 z m -27.8125,11.5625 c -3.41409,4.86249 -3.91527,10.10223 -3.0625,15.9375 2.45506,5.79638 6.3289,10.16445 12,13 7.04964,0.69897 13.50796,1.02786 19.34375,-3.39844 4.71749,-4.56172 6.93898,-8.58436 7.21875,-15.22656 -0.28803,-5.63609 -1.91983,-8.84539 -6.02344,-12.77344 -5.2217,-4.58556 -9.07296,-6.1322 -15.9414,-5.98047 -5.68959,0.82991 -9.79571,4.24254 -13.53516,8.44141 z"
     fill="#216e32"
     id="path15" />
  <path
     d="m 55.661501,685.52453 c 3.1875,1.9375 3.1875,1.9375 5,5 0.972103,3.99473 0.919207,7.38746 -1.144531,11.00781 -1.012047,1.31913 -2.061319,2.61031 -3.140625,3.875 -2.479436,3.06117 -4.253172,6.46187 -6.125,9.91797 -2.279772,3.15359 -4.831947,4.82966 -8.652344,5.63281 -3.806601,0.008 -5.565132,-0.19591 -8.875,-2.30859 -3.533242,-3.64031 -3.403403,-6.49731 -3.339844,-11.39844 0.877471,-8.6264 6.181538,-15.09885 12.464844,-20.66406 4.578445,-1.72964 8.994885,-1.80645 13.8125,-1.0625 z"
     fill="#fbfbfb"
     id="path16" />
  <path
     d="m 216.6615,430.52453 c 4.83764,2.32923 7.6362,5.18147 10,10 0.85888,4.05747 0.92622,7.42243 -1.21094,11.0625 -3.16388,3.85448 -6.09027,6.46736 -11.12109,7.34375 -4.84443,0.18309 -7.87825,-0.017 -11.66797,-3.21875 -3.28382,-3.19699 -5.29414,-5.81824 -5.375,-10.5 0.14191,-5.82794 2.70617,-8.82234 6.5,-13.0625 4.26585,-2.41113 8.08709,-2.37816 12.875,-1.625 z"
     fill="#226f33"
     id="path17" />
  <path
     d="m 150.974,592.39953 c 2.6895,2.12658 4.40037,3.70039 5.09375,7.14062 0.19598,4.67084 -0.20316,7.35073 -3.28125,10.98438 -3.21543,3.35523 -5.29135,4.18015 -9.9375,4.3125 -3.565,-0.0412 -5.00821,-0.21165 -8.1875,-2 -3.5582,-4.11417 -4.5281,-7.82667 -4.38281,-13.31641 0.71513,-3.72891 2.62764,-5.4246 5.38281,-7.99609 5.27978,-3.19566 10.12926,-2.05891 15.3125,0.875 z"
     fill="#f4f8f6"
     id="path18" />
  <path
     d="m 35.474001,87.024527 c 2.755881,0.06381 4.582085,0.136484 6.957031,1.5625 2.484989,2.635378 3.614149,5.409973 3.980469,8.9375 -0.242458,3.400973 -1.29356,5.157403 -3.6875,7.562503 -2.970424,2.2097 -5.055628,2.83296 -8.75,2.625 -3.173329,-0.62275 -4.310681,-1.18599 -6.875,-3.3125 -1.812125,-3.62425 -1.938783,-5.864737 -1.4375,-9.875003 2.419555,-4.949089 4.209642,-7.298398 9.8125,-7.5 z"
     fill="#fbfbfb"
     id="path19" />
  <path
     d="m 37.657591,729.04406 c 3.828388,0.91791 5.436211,2.46342 8.003906,5.48047 0.630626,3.92389 0.390868,6.14009 -1.25,9.75 -2.869794,3.68973 -4.484842,5.04297 -9.1875,5.8125 -3.5625,-0.5625 -3.5625,-0.5625 -6.5,-3 -2.385471,-3.34442 -2.799124,-6.38601 -2.539062,-10.4375 1.338902,-5.97019 5.642339,-8.01481 11.472656,-7.60547 z"
     fill="#fbfbfb"
     id="path20" />
  <path
     d="m 299.6615,306.52453 c 0.66,1.65 1.32,3.3 2,5 -1.05187,0.0213 -1.05187,0.0213 -2.125,0.043 -8.37902,0.42122 -13.51934,2.42928 -19.3125,8.51953 -3.59327,5.6055 -3.16528,12.47841 -1.875,18.8125 0.3125,2.625 0.3125,2.625 -1.125,4.5 -0.51562,0.37125 -1.03125,0.7425 -1.5625,1.125 -3.86858,-4.11037 -4.33548,-7.30267 -4.4375,-12.9375 0.29229,-8.70467 2.47922,-13.88609 8.42188,-20.32813 5.80825,-4.99779 12.6933,-5.08305 20.01562,-4.73437 z"
     fill="#1f6e32"
     id="path21" />
  <path
     d="m 211.599,434.89953 c 4.25332,0.86802 6.182,2.40158 9.0625,5.625 0.77153,4.32056 0.52748,6.1912 -1.875,9.875 -2.49954,2.49954 -3.44676,3.03457 -6.9375,3.5 -3.1875,-0.375 -3.1875,-0.375 -6.0625,-2.375 -2.36766,-3.34259 -2.88226,-5.06014 -2.60937,-9.0625 1.13722,-4.54891 4.01399,-6.62466 8.42187,-7.5625 z"
     fill="#f2f7f3"
     id="path22" />
  <path
     d="m 213.6615,430.52453 c 4.9229,0.43437 7.48751,2.64362 11,6 2.52577,4.1895 2.96163,8.2239 2,13 -1.68905,2.69069 -3.6737,4.84679 -6,7 -0.99,-0.33 -1.98,-0.66 -3,-1 -0.875,-1.8125 -0.875,-1.8125 -1,-4 0.71156,-0.89719 0.71156,-0.89719 1.4375,-1.8125 1.81342,-2.21246 1.81342,-2.21246 2.1875,-5.5625 -0.79385,-4.60435 -2.49044,-5.82037 -6.09375,-8.5586 -0.50531,-0.35191 -1.01062,-0.70382 -1.53125,-1.0664 0.33,-1.32 0.66,-2.64 1,-4 z"
     fill="#287b39"
     id="path23" />
  <path
     d="m 156.6615,596.52453 c 0.99,0 1.98,0 3,0 1.66027,4.98079 1.59904,9.30273 -0.125,14.1875 -2.58964,3.88446 -5.64814,6.69907 -9.875,8.8125 -1.70703,0.07 -3.41668,0.0844 -5.125,0.0625 -0.91008,-0.009 -1.82016,-0.0181 -2.75781,-0.0273 -1.04801,-0.0174 -1.04801,-0.0174 -2.11719,-0.0352 0.66,-0.66 1.32,-1.32 2,-2 -0.33,-0.66 -0.66,-1.32 -1,-2 0.88752,-0.22043 0.88752,-0.22043 1.79297,-0.44532 5.72524,-1.62511 9.0491,-3.22568 12.20703,-8.55468 0.49449,-2.40467 0.74441,-4.69333 0.85938,-7.14453 0.14062,-1.85547 0.14062,-1.85547 1.14062,-2.85547 z"
     fill="#1f6e31"
     id="path24" />
  <path
     d="m 124.6615,598.52453 c 0.33,0 0.66,0 1,0 0.33,1.98 0.66,3.96 1,6 0.47438,-0.825 0.94875,-1.65 1.4375,-2.5 0.51563,-0.825 1.03125,-1.65 1.5625,-2.5 0.33,0 0.66,0 1,0 0.0864,0.59168 0.17274,1.18336 0.26172,1.79297 0.97325,5.47343 2.00091,8.83823 6.73828,12.20703 3.68442,0.88527 3.68442,0.88527 7,1 0,0.99 0,1.98 0,3 -0.99,0.33 -1.98,0.66 -3,1 1.98,0.33 3.96,0.66 6,1 0,0.33 0,0.66 0,1 -6.30316,0.58123 -11.00157,0.39085 -16.23828,-3.39063 -3.75177,-3.42734 -6.44793,-6.98495 -7.0625,-12.125 -0.0103,-2.18771 0.0742,-4.30947 0.30078,-6.48437 z"
     fill="#2b793b"
     id="path25" />
  <path
     d="m 278.6615,339.52453 c 0.72188,0.76312 1.44375,1.52625 2.1875,2.3125 4.53886,4.33713 7.82798,6.02901 14.125,6.375 1.60295,0.0986 1.60295,0.0986 3.23828,0.19922 1.21237,0.0561 1.21237,0.0561 2.44922,0.11328 0,0.33 0,0.66 0,1 -3.3,0 -6.6,0 -10,0 0.33,1.65 0.66,3.3 1,5 -6.3389,-0.60371 -10.22808,-2.9483 -14.375,-7.75 -0.53625,-0.7425 -1.0725,-1.485 -1.625,-2.25 0.99,-1.65 1.98,-3.3 3,-5 z"
     fill="#2c7e39"
     id="path26" />
  <path
     d="m 148.6615,585.52453 c 5.46462,1.27084 7.87882,3.36281 11,8 0.8125,3.375 0.8125,3.375 1,6 -0.33,-0.99 -0.66,-1.98 -1,-3 -0.72187,0.26812 -1.44375,0.53625 -2.1875,0.8125 -0.92812,0.0619 -1.85625,0.12375 -2.8125,0.1875 -2.5625,-2.25 -2.5625,-2.25 -5,-5 -1.31176,-1.02814 -2.63699,-2.04085 -4,-3 0.66,-0.33 1.32,-0.66 2,-1 0.33,-0.99 0.66,-1.98 1,-3 z"
     fill="#247538"
     id="path27" />
  <path
     d="m 299.6615,306.52453 c 0.66,1.65 1.32,3.3 2,5 -0.73605,0.0606 -1.47211,0.12117 -2.23047,0.18359 -0.97582,0.0838 -1.95164,0.16758 -2.95703,0.25391 -0.96293,0.0812 -1.92586,0.16242 -2.91797,0.24609 -2.68103,0.29307 -5.26083,0.74344 -7.89453,1.31641 0,-1.65 0,-3.3 0,-5 4.6485,-2.39923 8.91086,-2.19958 14,-2 z"
     fill="#146729"
     id="path28" />
  <path
     d="m 320.6615,323.52453 c 0,4.62 0,9.24 0,14 -0.66,0 -1.32,0 -2,0 0,-0.99 0,-1.98 0,-3 -0.66,0 -1.32,0 -2,0 -2.39763,-2.39763 -2.34281,-3.33274 -2.625,-6.625 -0.0748,-0.81727 -0.14953,-1.63453 -0.22656,-2.47657 -0.049,-0.62648 -0.098,-1.25296 -0.14844,-1.89843 4.75,-1.125 4.75,-1.125 7,0 z"
     fill="#2b833b"
     id="path29" />
  <path
     d="m 304.22791,306.41906 c 2.18359,1.10547 2.18359,1.10547 5.43359,3.10547 -0.99,0.33 -1.98,0.66 -3,1 0,0.66 0,1.32 0,2 -1.8125,0.6875 -1.8125,0.6875 -4,1 -1.75,-1.25 -1.75,-1.25 -3,-3 0,-0.99 0,-1.98 0,-3 -7.05651,-0.14976 -7.05651,-0.14976 -14,1 2.67006,-5.34012 13.78443,-3.77225 18.56641,-2.10547 z"
     fill="#2f8641"
     id="path30" />
  <path
     d="m 125.6615,595.52453 c 1.65,0 3.3,0 5,0 -0.33,3.63 -0.66,7.26 -1,11 -0.66,-0.66 -1.32,-1.32 -2,-2 -0.66,0.66 -1.32,1.32 -2,2 0,-3.63 0,-7.26 0,-11 z"
     fill="#186c2b"
     id="path31" />
  <path
     d="m 290.6615,349.52453 c 3.3,0 6.6,0 10,0 -0.99,0.495 -0.99,0.495 -2,1 -0.65213,2.02463 -0.65213,2.02463 -1,4 -2.875,0.125 -2.875,0.125 -6,0 -0.66,-0.66 -1.32,-1.32 -2,-2 0.33,-0.99 0.66,-1.98 1,-3 z"
     fill="#1b6a2a"
     id="path32" />
  <path
     d="m 137.6615,585.52453 c 3.63,0 7.26,0 11,0 -0.33,1.32 -0.66,2.64 -1,4 -6.50381,0.36814 -6.50381,0.36814 -8.9375,-1.4375 -1.0625,-1.5625 -1.0625,-1.5625 -1.0625,-2.5625 z"
     fill="#176d2d"
     id="path33" />
  <path
     d="m 286.6615,348.52453 c 4.62,0 9.24,0 14,0 0,0.33 0,0.66 0,1 -3.3,0 -6.6,0 -10,0 0.33,1.65 0.66,3.3 1,5 -2.97,-0.495 -2.97,-0.495 -6,-1 0.33,-1.65 0.66,-3.3 1,-5 z"
     fill="#3d874b"
     id="path34" />
  <path
     d="m 339.6615,675.52453 c 0,0.33 0,0.66 0,1 -5.77156,1.98911 -10.86243,2.24511 -16.9375,2.125 -0.87463,-0.009 -1.74926,-0.0181 -2.65039,-0.0274 -2.13749,-0.0234 -4.27484,-0.0592 -6.41211,-0.0976 0,-0.33 0,-0.66 0,-1 2.83276,-0.33897 5.66605,-0.6713 8.5,-1 1.18723,-0.14309 1.18723,-0.14309 2.39844,-0.28907 5.07185,-0.58201 9.9965,-0.8046 15.10156,-0.71093 z"
     fill="#898989"
     id="path35" />
  <path
     d="m 156.6615,596.52453 c 0.99,0 1.98,0 3,0 0.33,2.97 0.66,5.94 1,9 -1.32,-0.33 -2.64,-0.66 -4,-1 -0.38063,-2.32609 -0.7127,-4.66056 -1,-7 0.33,-0.33 0.66,-0.66 1,-1 z"
     fill="#136526"
     id="path36" />
  <path
     d="m 24.661501,662.52453 c 0.66,0.33 1.32,0.66 2,1 -3.63,3.63 -7.26,7.26 -11,11 0,-4.15923 2.246836,-6.14545 5,-9 2.3125,-1.875 2.3125,-1.875 4,-3 z"
     fill="#232324"
     id="path37" />
  <path
     d="m 51.661501,654.52453 c 0.33,0 0.66,0 1,0 0.33,1.98 0.66,3.96 1,6 -1.98,0 -3.96,0 -6,0 2.875,-4.875 2.875,-4.875 4,-6 z"
     fill="#ececec"
     id="path38" />
  <path
     d="m 271.6615,324.52453 c 0.66,0.66 1.32,1.32 2,2 0.66,-0.33 1.32,-0.66 2,-1 0.33,2.31 0.66,4.62 1,7 -0.66,-0.99 -1.32,-1.98 -2,-3 -0.99,0.33 -1.98,0.66 -3,1 0,-1.98 0,-3.96 0,-6 z"
     fill="#267c39"
     id="path39" />
  <path
     d="m 207.6615,454.52453 c 2.468,1.15173 4.04784,2.04783 6,4 -2.31,0 -4.62,0 -7,0 0.33,-1.32 0.66,-2.64 1,-4 z"
     fill="#1b6e2b"
     id="path40" />
  <ellipse
     style="fill:#008000"
     id="path50"
     cx="296.80194"
     cy="329.24438"
     rx="27.005333"
     ry="26.924959" />
  <ellipse
     style="fill:#008000"
     id="path51"
     cx="211.35657"
     cy="444.68457"
     rx="17.014938"
     ry="16.498289" />
  <ellipse
     style="fill:#008000"
     id="path52"
     cx="141.27887"
     cy="600.71851"
     rx="21.651966"
     ry="22.263109" />
  <ellipse
     style="fill:#8deb97;fill-opacity:1;stroke-width:1.07759"
     id="path61"
     cx="141.23303"
     cy="601.33044"
     rx="17.58083"
     ry="17.92725" />
  <ellipse
     style="fill:#8deb97;fill-opacity:1;stroke-width:1.05966"
     id="path62"
     cx="211.44562"
     cy="444.93799"
     rx="13.847484"
     ry="13.491115" />
  <ellipse
     style="fill:#8deb97;fill-opacity:1;stroke-width:1.13307"
     id="path63"
     cx="297.05518"
     cy="329.15527"
     rx="21.917133"
     ry="22.145439" />
  <ellipse
     style="fill:#ffffff;fill-opacity:1;stroke-width:1.19713"
     id="path65"
     cx="122.7887"
     cy="251.44429"
     rx="15.893732"
     ry="12.289804" />
  <path
     style="fill:#ffffff;fill-opacity:1;stroke-width:0.0404936"
     d="m 76.666471,296.61143 c 0,-0.14528 0.21172,-2.52542 0.30541,-3.43342 1.42029,-13.76461 5.15732,-24.45064 11.79755,-33.73499 1.55764,-2.1779 3.48312,-4.51533 4.42997,-5.37775 5.09385,-4.63968 10.195229,-8.28341 14.950829,-10.67886 2.25347,-1.13509 4.20693,-1.92961 6.22979,-2.53382 0.68443,-0.20443 0.84449,-0.22425 0.49215,-0.0609 -1.00613,0.4663 -1.68005,0.83815 -2.47011,1.36293 -0.94159,0.62542 -1.7203,1.2862 -2.53391,2.15015 -1.27669,1.35569 -2.24384,3.09095 -2.66642,4.7841 -0.23704,0.94975 -0.26437,1.19302 -0.26458,2.3555 -2.2e-4,1.17314 0.0414,1.52088 0.29845,2.49366 0.38148,1.44369 1.22433,3.02076 2.27438,4.25566 0.33097,0.38924 1.16119,1.20409 1.61653,1.58661 2.27672,1.91261 5.40167,3.25358 8.68588,3.72727 1.00182,0.1445 1.39394,0.17472 2.60705,0.20091 l 1.18977,0.0257 -0.40015,0.11754 c -3.1477,0.92465 -6.6003,2.74245 -9.53145,5.01834 -3.08953,2.39886 -6.28612,5.79249 -8.87822,9.42548 -0.46983,0.65848 -1.61952,3.15633 -2.30932,5.01729 -1.38188,3.72806 -2.36618,8.28129 -2.761809,12.77572 -0.0137,0.1559 -0.0348,0.35179 -0.0468,0.43531 l -0.0218,0.15185 h -11.49662 c -10.46959,0 -11.49662,-0.006 -11.49662,-0.0642 z"
     id="path66" />
  <ellipse
     style="fill:#ffffff;fill-opacity:1;stroke-width:0.968678"
     id="path67"
     cx="87.828857"
     cy="389.77124"
     rx="11.223409"
     ry="17.700918" />
  <path
     style="fill:#ffffff;fill-opacity:1;stroke-width:0.140259"
     d="m 76.356491,390.22706 c -0.18401,-0.98321 -0.2048,-6.06901 -0.16803,-41.09583 0.0383,-36.47412 0.12398,-46.72987 0.42715,-51.12433 l 0.0919,-1.33246 11.48534,-0.0359 11.48533,-0.0359 -0.0894,0.65213 c -0.19972,1.45717 -0.35852,9.37993 -0.43535,21.72079 -0.0912,14.64427 -0.29908,41.11845 -0.44004,56.03339 l -0.0934,9.88824 -0.26419,-1.12207 c -1.7843,-7.57821 -6.50323,-12.33048 -11.51818,-11.59954 -4.08214,0.59498 -7.69635,4.70641 -9.27201,10.5476 -0.56524,2.09543 -0.81274,3.81305 -0.90949,6.31165 l -0.0896,2.31427 z"
     id="path68" />
  <path
     style="fill:#ffffff;fill-opacity:1;stroke-width:0.140259"
     d="m 86.143111,407.20009 c -4.58141,-1.16437 -8.31459,-6.7574 -9.22257,-13.81721 -0.0843,-0.65571 -0.27721,-1.80394 -0.42862,-2.55163 -0.26959,-1.33125 -0.27519,-2.14389 -0.27038,-39.20233 0.005,-38.78749 0.10274,-49.85229 0.48457,-54.88435 0.7923,-10.44132 2.66354,-18.8124 5.86301,-26.22839 l 0.75639,-1.75324 15.24286,-0.0357 15.242859,-0.0357 -0.94937,0.791 c -2.26066,1.88354 -5.3161,5.11775 -7.30929,7.73695 -2.31092,3.03671 -4.44331,9.0505 -5.42083,15.28785 -0.748549,4.77635 -0.863419,8.65245 -1.052489,35.51491 -0.0801,11.3785 -0.21476,28.76708 -0.29927,38.6413 -0.12233,14.29468 -0.11767,18.35501 0.0229,19.9253 0.66036,7.37622 -1.07901,13.83268 -4.79736,17.80761 -1.04437,1.11644 -2.59253,2.1726 -3.78294,2.58074 -1.15776,0.39694 -2.99879,0.49752 -4.07948,0.22286 z"
     id="path69" />
  <path
     style="fill:#ffffff;fill-opacity:1;stroke-width:0.140259"
     d="m 86.143111,407.20009 c -2.79746,-0.71098 -5.30556,-3.04562 -7.08497,-6.595 -1.06626,-2.12686 -1.70279,-4.26856 -2.14554,-7.21907 -0.14496,-0.96601 -0.36086,-2.25108 -0.47977,-2.85572 -0.19163,-0.9744 -0.21564,-5.45376 -0.21125,-39.41272 0.006,-46.44269 0.091,-51.92265 0.91588,-59.07168 0.92678,-8.03191 2.67448,-15.04708 5.27637,-21.17907 l 0.89271,-2.10389 15.25313,-0.0357 15.253129,-0.0357 -1.44106,1.24097 c -3.32414,2.86259 -7.08157,7.2366 -8.29253,9.65331 -2.57949,5.14789 -4.06702,11.33482 -4.580759,19.05222 -0.30755,4.62008 -0.83849,76.93038 -0.67094,91.3786 0.035,3.01978 -0.0518,3.84146 -0.66753,6.31547 -1.0644,4.27702 -3.27262,7.8158 -6.02643,9.65767 -0.56056,0.37492 -1.42049,0.81926 -1.91096,0.98742 -1.15776,0.39694 -2.99879,0.49752 -4.07948,0.22286 z"
     id="path70" />
  <path
     style="fill:#fbfbfb;fill-opacity:1;stroke-width:0.410739"
     d="m 83.842231,406.08557 c -3.23115,-1.93691 -5.47545,-5.96066 -6.7137,-12.03687 -0.81376,-3.99319 -0.83895,-5.42024 -0.83305,-47.18082 0.003,-23.75716 0.18674,-45.73314 0.40903,-49.01881 1.04203,-15.40192 4.42083,-26.66029 10.9429,-36.46236 6.67259,-10.02828 18.176069,-18.25491 29.715889,-21.25109 4.04059,-1.0491 9.72236,-0.71821 12.90959,0.75181 5.24528,2.41924 8.03811,6.08417 8.03811,10.54812 0,5.88568 -5.21826,10.70347 -12.90282,11.9126 -5.64659,0.88847 -11.28821,4.35945 -16.89491,10.39453 -5.18618,5.58241 -7.75008,12.12542 -8.802389,22.46344 -0.31413,3.086 -0.58757,21.02729 -0.78875,51.75313 -0.30525,46.61787 -0.31568,47.053 -1.1916,49.69943 -1.17742,3.55736 -3.41228,6.76787 -5.73778,8.24265 -2.52758,1.60295 -5.6655,1.67388 -8.15052,0.18424 z"
     id="path71" />
  <path
     style="fill:#fbfbfb;fill-opacity:1;stroke-width:0.79136"
     d="m 84.054261,406.13288 c -2.69668,-1.08561 -5.76789,-6.68531 -7.05667,-12.86636 -0.97718,-4.68659 -1.11101,-13.11008 -0.81911,-51.55901 0.1919,-25.27647 0.55051,-47.12703 0.79691,-48.5568 0.2464,-1.42977 0.66348,-4.10061 0.92685,-5.9352 2.89665,-20.17779 14.70726,-36.47844 32.148309,-44.37013 10.66181,-4.82424 21.01775,-3.89838 25.90605,2.31609 5.27606,6.70743 1.48182,14.54013 -8.43175,17.40625 -8.17915,2.36467 -12.24073,4.59986 -17.15673,9.44178 -2.65144,2.61149 -5.64659,6.50597 -6.65588,8.65439 -3.919009,8.34224 -4.161119,11.64944 -4.783079,65.33775 -0.56475,48.7498 -0.63201,50.36303 -2.25107,53.98919 -2.54034,5.68956 -7.61486,8.15853 -12.62383,6.14205 z"
     id="path72" />
  <path
     style="fill:#fcfcfc;fill-opacity:1;stroke-width:0.79136"
     d="m 84.129601,406.20124 c -2.55938,-1.09612 -4.94131,-4.59445 -6.45432,-9.47944 -1.23996,-4.00338 -1.36554,-9.06902 -1.31624,-53.09424 0.0591,-52.74576 0.31629,-56.56786 4.64448,-69.01357 4.46332,-12.83427 14.71171,-24.56398 26.732519,-30.59647 10.36753,-5.20282 17.49724,-5.84948 24.03847,-2.18027 6.22739,3.49316 8.27833,9.71895 4.86853,14.77876 -2.22095,3.29566 -5.61842,5.31598 -11.47909,6.82608 -12.84933,3.31083 -22.53378,14.40834 -24.74138,28.3514 -0.518679,3.27588 -1.115649,25.75059 -1.460899,54.99951 -0.56093,47.52009 -0.6475,49.59966 -2.20711,53.0211 -0.89281,1.95862 -2.35957,4.2145 -3.25947,5.01307 -1.89039,1.67751 -6.93039,2.41697 -9.36549,1.37407 z"
     id="path73" />
  <path
     style="fill:#fcfcfc;fill-opacity:1;stroke-width:0.307456"
     d="m 85.501231,406.93016 c -1.49925,-0.38241 -3.39918,-1.82204 -4.6933,-3.55624 -2.11055,-2.82826 -3.01137,-5.16573 -3.97075,-10.3034 -0.58124,-3.11261 -0.60148,-4.72103 -0.56484,-44.88851 0.0209,-22.91312 0.14612,-44.3745 0.27826,-47.69195 0.531,-13.33142 2.71779,-23.3001 7.04006,-32.09276 2.06981,-4.21055 4.83115,-8.58444 6.69656,-10.60721 0.70176,-0.76096 1.27963,-1.47335 1.28415,-1.58311 0.008,-0.18423 2.7436,-2.91778 4.676,-4.67178 2.93026,-2.65975 7.941499,-5.98743 11.939969,-7.92866 4.74736,-2.30482 6.0015,-2.76494 10.33772,-3.79277 1.66773,-0.3953 6.69797,-0.42469 8.25819,-0.0482 2.3315,0.56253 3.51414,1.01393 5.22674,1.99499 6.65375,3.8116 8.34472,11.25903 3.70152,16.30238 -2.07491,2.25372 -2.25382,2.39122 -4.62389,3.55368 -2.21112,1.0845 -1.80841,0.95535 -5.30078,1.70005 -6.00581,1.28065 -10.34668,3.77884 -15.47209,8.90425 -5.03139,5.03139 -7.44049,9.1696 -9.06399,15.56964 -1.0153,4.00245 -1.318819,7.4849 -1.672769,19.19246 -0.27473,9.08735 -0.99529,71.87099 -0.90332,78.70862 0.0492,3.65597 -0.32853,9.75552 -0.69491,11.22213 -0.34267,1.37172 -1.86707,4.81197 -2.47234,5.57956 -1.2374,1.56924 -3.32017,3.42842 -4.38902,3.91785 -1.40585,0.64374 -4.13836,0.89623 -5.61717,0.51903 z"
     id="path74" />
</svg>
