<?xml version="1.0" encoding="UTF-8" standalone="no"?>
<svg
   width="1011"
   height="764"
   viewBox="123 211 1011 764"
   version="1.1"
   id="svg8"
   sodipodi:docname="goo.svg"
   inkscape:version="1.4.3 (0d15f75, 2025-12-25)"
   xmlns:inkscape="http://www.inkscape.org/namespaces/inkscape"
   xmlns:sodipodi="http://sodipodi.sourceforge.net/DTD/sodipodi-0.dtd"
   xmlns="http://www.w3.org/2000/svg"
   xmlns:svg="http://www.w3.org/2000/svg">
  <defs
     id="defs8" />
  <sodipodi:namedview
     id="namedview8"
     pagecolor="#505050"
     bordercolor="#ffffff"
     borderopacity="1"
     inkscape:showpageshadow="0"
     inkscape:pageopacity="0"
     inkscape:pagecheckerboard="1"
     inkscape:deskcolor="#505050"
     inkscape:zoom="0.57495781"
     inkscape:cx="445.25006"
     inkscape:cy="319.15385"
     inkscape:window-width="1024"
     inkscape:window-height="1022"
     inkscape:window-x="0"
     inkscape:window-y="30"
     inkscape:window-maximized="0"
     inkscape:current-layer="svg8" />
  <g
     transform="translate(0,1254) scale(0.1,-0.1)"
     id="g8">
    <path
       d="M5895 10219 c-604 -63 -1156 -268 -1693 -631 -745 -503 -1252 -1155 -1489 -1913 -110 -354 -170 -654 -228 -1145 -18 -146 -83 -339 -149 -438 -53 -80 -206 -231 -291 -287 -270 -177 -424 -337 -530 -550 -65 -132 -85 -220 -85 -377 0 -345 191 -620 551 -792 152 -73 355 -126 567 -147 172 -17 172 -16 165 -162 -5 -96 -2 -124 17 -194 89 -328 452 -531 882 -493 165 15 369 86 475 167 64 49 167 77 283 77 122 -1 205 -20 405 -94 557 -206 997 -278 1532 -250 415 21 730 90 1253 274 504 177 628 189 996 96 435 -111 721 -55 953 184 59 60 124 81 306 95 276 23 464 71 659 170 378 192 592 475 661 875 39 227 -8 520 -110 691 -147 245 -358 410 -700 550 -289 119 -406 283 -450 635 -55 436 -150 739 -331 1055 -41 72 -104 168 -140 215 -108 143 -115 154 -125 222 -58 402 -96 518 -226 701 -193 271 -482 488 -913 683 -139 63 -183 92 -367 245 -175 145 -275 211 -428 285 -295 142 -599 226 -920 254 -129 12 -416 11 -530 -1z"
       fill="#7DD87A"
       stroke="none"
       id="path1" />
    <path
       d="M5895 10239 c-232 -24 -497 -78 -690 -139 -817 -260 -1618 -857 -2094 -1560 -358 -528 -536 -1084 -646 -2010 -4 -30 -16 -90 -26 -133 -50 -201 -114 -320 -236 -439 -68 -68 -100 -92 -259 -203 -106 -73 -276 -234 -344 -324 -72 -95 -156 -269 -175 -363 -38 -190 -11 -404 70 -555 174 -328 528 -534 1010 -588 72 -9 146 -18 166 -21 l36 -5 -8 -42 c-24 -125 1 -293 59 -402 31 -57 157 -194 218 -236 270 -186 683 -205 997 -48 45 23 96 53 114 66 64 49 167 77 283 77 122 -1 205 -20 405 -94 557 -206 997 -278 1532 -250 415 21 730 90 1253 274 504 177 628 189 996 96 435 -111 721 -55 953 184 59 60 124 81 306 95 354 29 621 118 856 287 424 304 598 825 440 1314 -62 192 -217 391 -416 532 -67 48 -259 148 -370 193 -281 115 -386 265 -430 615 -55 436 -150 739 -331 1055 -41 72 -104 168 -140 215 -108 143 -115 154 -125 222 -58 402 -96 517 -226 701 -199 279 -500 507 -933 703 -139 63 -183 92 -367 245 -175 145 -275 211 -428 285 -295 142 -599 226 -920 254 -129 12 -416 11 -530 -1z m475 -240 c526 -47 951 -216 1295 -515 125 -108 222 -174 333 -226 48 -23 134 -63 192 -90 111 -52 277 -152 375 -226 321 -242 463 -495 484 -859 10 -159 14 -172 108 -288 288 -356 426 -707 508 -1290 43 -299 106 -441 267 -591 85 -79 171 -135 288 -185 176 -75 264 -120 346 -175 165 -109 286 -277 340 -474 29 -104 27 -369 -4 -474 -122 -420 -488 -680 -1037 -736 -290 -29 -283 -28 -360 -65 -52 -25 -97 -58 -151 -109 -186 -180 -427 -214 -773 -110 -293 88 -598 71 -936 -52 -480 -176 -760 -251 -1140 -306 -157 -23 -669 -16 -843 11 -203 31 -426 83 -577 135 -71 24 -197 67 -280 96 -251 87 -424 108 -595 76 -96 -19 -122 -30 -253 -109 -158 -97 -268 -127 -457 -127 -274 1 -480 117 -560 318 -20 50 -18 176 4 263 23 91 18 120 -32 169 -52 52 -126 76 -293 95 -189 21 -314 47 -440 91 -358 123 -553 367 -536 669 14 250 159 460 459 664 257 174 376 298 477 499 69 137 97 261 156 687 152 1102 537 1816 1312 2435 707 565 1584 867 2323 799z"
       fill="#1a1a1a"
       stroke="none"
       id="path2" />
    <path
       d="M5380 9623 c-282 -47 -710 -261 -1019 -507 -106 -84 -303 -277 -380 -371 -252 -308 -327 -588 -176 -659 99 -47 209 3 479 218 152 121 344 263 392 290 16 9 72 43 124 76 172 109 374 211 710 360 199 88 324 181 365 271 66 148 -6 266 -192 314 -54 14 -239 19 -303 8z"
       fill="#C8F5C8"
       stroke="none"
       opacity="0.85"
       id="path3" />
    <path
       d="M7543 8778 c-29 -14 -35 -36 -34 -110 1 -115 53 -236 135 -318 63 -63 90 -79 134 -80 68 0 102 44 102 130 0 108 -139 319 -243 369 -48 23 -62 25 -94 9z"
       fill="#C8F5C8"
       stroke="none"
       opacity="0.85"
       id="path4" />
    <path
       d="M3409 7592 c-64 -41 -113 -100 -161 -194 -40 -79 -42 -88 -43 -170 0 -99 15 -130 78 -161 55 -28 106 -10 176 62 107 109 181 335 141 431 -27 64 -116 79 -191 32z"
       fill="#C8F5C8"
       stroke="none"
       opacity="0.85"
       id="path5" />
    <path
       d="M2182 5450 c-92 -44 -175 -122 -233 -218 -46 -76 -49 -161 -6 -198 81 -69 236 10 374 191 74 98 103 205 64 244 -35 35 -101 29 -199 -19z"
       fill="#C8F5C8"
       stroke="none"
       opacity="0.85"
       id="path6" />
    <path
       d="M9535 5147 c-93 -36 -129 -78 -140 -163 -23 -174 265 -236 413 -89 37 38 42 47 42 89 0 53 -10 78 -48 119 -47 50 -191 73 -267 44z"
       fill="#C8F5C8"
       stroke="none"
       opacity="0.85"
       id="path7" />
    <path
       d="M3272 4190 c-140 -101 -188 -354 -80 -420 109 -67 230 30 256 205 29 188 -61 298 -176 215z"
       fill="#C8F5C8"
       stroke="none"
       opacity="0.85"
       id="path8" />
  </g>
</svg>
