<?xml version="1.0" encoding="UTF-8" standalone="no"?>
<svg
   version="1.0"
   width="778"
   height="729"
   viewBox="5 11 778 729"
   preserveAspectRatio="xMidYMid meet"
   id="svg1"
   sodipodi:docname="poop.svg"
   inkscape:version="1.4.3 (0d15f75, 2025-12-25)"
   xmlns:inkscape="http://www.inkscape.org/namespaces/inkscape"
   xmlns:sodipodi="http://sodipodi.sourceforge.net/DTD/sodipodi-0.dtd"
   xmlns="http://www.w3.org/2000/svg"
   xmlns:svg="http://www.w3.org/2000/svg">
  <defs
     id="defs1" />
  <sodipodi:namedview
     id="namedview1"
     pagecolor="#505050"
     bordercolor="#ffffff"
     borderopacity="1"
     inkscape:showpageshadow="0"
     inkscape:pageopacity="0"
     inkscape:pagecheckerboard="1"
     inkscape:deskcolor="#505050"
     inkscape:zoom="1.0438957"
     inkscape:cx="388.92773"
     inkscape:cy="364.5"
     inkscape:window-width="1920"
     inkscape:window-height="1022"
     inkscape:window-x="0"
     inkscape:window-y="30"
     inkscape:window-maximized="1"
     inkscape:current-layer="svg1" />
  <metadata
     id="metadata1">
Created by potrace 1.16, written by Peter Selinger 2001-2019
</metadata>
  <g
     transform="translate(0.000000,741.000000) scale(0.100000,-0.100000)"
     fill="#000000"
     stroke="none"
     id="g1">
    <path
       d="M3808 6980 c-72 -45 -86 -117 -44 -218 32 -77 50 -241 36 -343 -9 -73 -64 -224 -100 -275 -20 -28 -144 -134 -157 -134 -6 0 -22 -9 -36 -20 -14 -11 -54 -26 -89 -35 -35 -8 -84 -21 -107 -30 -24 -8 -60 -15 -81 -15 -20 0 -59 -7 -86 -15 -27 -9 -76 -22 -109 -29 -195 -45 -386 -145 -569 -298 -63 -53 -225 -264 -226 -294 0 -5 -14 -36 -30 -69 -17 -33 -30 -65 -30 -73 0 -7 -10 -41 -22 -75 -19 -55 -22 -83 -22 -247 l-1 -185 -35 -17 c-19 -10 -49 -18 -65 -18 -17 0 -50 -11 -75 -24 -25 -13 -56 -27 -70 -31 -83 -25 -283 -162 -380 -258 -107 -107 -206 -263 -264 -415 -31 -80 -55 -230 -56 -340 0 -102 26 -264 51 -311 32 -61 22 -74 -104 -137 -146 -73 -206 -114 -332 -225 -86 -76 -200 -202 -226 -249 -11 -19 -33 -55 -49 -80 -34 -53 -76 -138 -96 -195 -8 -22 -21 -54 -29 -71 -8 -17 -19 -64 -25 -104 -6 -39 -15 -91 -21 -114 -15 -59 -6 -310 14 -424 10 -51 26 -111 37 -132 11 -22 20 -45 20 -53 0 -22 75 -170 111 -217 19 -25 43 -58 53 -75 51 -78 271 -265 376 -318 19 -10 58 -31 85 -47 28 -17 66 -37 85 -46 19 -8 51 -24 71 -34 20 -11 45 -20 56 -20 10 0 28 -7 41 -15 21 -15 81 -38 182 -71 25 -8 59 -20 75 -26 17 -6 57 -17 90 -25 33 -8 76 -21 95 -29 19 -8 69 -21 110 -28 41 -8 104 -21 140 -29 135 -33 275 -59 368 -68 53 -6 128 -17 166 -25 38 -8 137 -19 219 -25 83 -5 153 -11 156 -14 4 -2 85 -10 181 -19 381 -33 1501 -28 1815 8 72 8 204 20 295 26 91 5 197 17 237 24 39 8 116 18 170 21 54 4 149 18 211 31 63 13 130 24 151 24 21 0 60 7 87 15 27 8 92 22 144 31 52 9 109 22 126 29 17 7 50 16 74 20 24 4 74 18 111 31 38 13 74 24 81 24 13 0 123 41 186 70 23 11 51 20 60 20 10 0 33 11 52 25 19 14 41 25 51 25 9 0 33 14 54 30 21 17 42 30 46 30 26 0 220 152 271 212 77 90 154 217 165 270 3 18 12 43 20 54 16 26 53 230 53 294 0 72 -37 269 -64 346 -48 135 -117 238 -243 367 -48 49 -111 105 -139 123 -29 18 -58 40 -67 48 -16 16 -16 14 14 174 10 57 19 143 19 192 0 100 -41 328 -65 363 -8 12 -15 29 -15 37 0 23 -58 133 -112 215 -55 82 -185 217 -249 259 -24 16 -55 37 -69 46 -14 10 -44 26 -65 37 -22 11 -53 27 -70 35 -95 50 -115 58 -141 59 -16 0 -58 13 -94 27 -63 27 -65 29 -64 62 1 19 9 55 19 80 25 61 27 417 3 495 -55 179 -142 333 -251 442 -80 81 -281 213 -324 213 -8 0 -27 8 -41 18 -15 10 -65 29 -112 41 -47 13 -94 32 -104 42 -17 16 -18 23 -8 75 17 83 15 288 -3 354 -8 30 -20 80 -26 110 -13 66 -36 126 -94 245 -86 175 -128 232 -288 393 -138 140 -259 226 -470 336 -37 20 -74 36 -80 36 -7 0 -28 9 -48 19 -19 11 -55 25 -80 31 -24 7 -66 20 -94 30 -55 20 -205 50 -245 50 -14 0 -46 -14 -72 -30z m468 -361 c60 -29 133 -69 163 -88 29 -20 61 -41 70 -46 80 -50 120 -84 211 -176 58 -58 116 -125 130 -148 14 -24 34 -55 46 -69 63 -83 119 -225 155 -397 23 -109 -1 -295 -57 -442 -21 -54 -13 -84 37 -137 l39 -44 108 -7 c59 -4 119 -13 134 -21 15 -8 49 -19 76 -25 62 -13 167 -69 258 -137 48 -36 154 -158 154 -177 0 -7 9 -20 19 -29 11 -10 23 -32 27 -50 3 -17 14 -45 24 -61 50 -81 48 -362 -3 -490 -38 -95 -49 -114 -120 -218 -44 -64 -152 -169 -200 -193 -17 -9 -39 -24 -48 -33 -14 -15 -205 -106 -261 -124 -18 -6 -58 -84 -58 -112 0 -40 63 -116 106 -129 12 -4 41 1 65 10 24 9 64 23 89 32 160 59 355 198 498 356 30 33 37 36 87 36 57 0 202 -43 279 -82 22 -12 46 -24 52 -27 96 -49 239 -173 294 -256 18 -27 41 -61 50 -75 9 -14 20 -38 24 -54 4 -15 15 -40 26 -55 10 -14 23 -58 29 -98 6 -39 15 -83 21 -98 12 -31 12 -132 1 -195 -20 -108 -42 -192 -56 -213 -25 -39 -38 -122 -25 -162 14 -43 61 -81 116 -93 52 -12 114 -54 198 -135 175 -168 241 -320 240 -552 -1 -176 -33 -268 -147 -417 -44 -56 -237 -208 -266 -208 -5 0 -20 -9 -35 -21 -14 -11 -43 -25 -64 -31 -20 -5 -43 -15 -50 -21 -14 -11 -119 -50 -194 -72 -25 -7 -56 -18 -67 -25 -12 -6 -47 -15 -78 -21 -32 -5 -85 -18 -118 -29 -33 -10 -83 -21 -112 -24 -29 -4 -71 -13 -94 -21 -23 -8 -83 -20 -133 -25 -50 -6 -118 -17 -150 -25 -33 -9 -112 -20 -175 -25 -64 -5 -154 -17 -201 -25 -47 -9 -157 -20 -245 -25 -88 -5 -227 -17 -310 -26 -130 -16 -249 -18 -900 -18 -677 -1 -762 1 -875 17 -69 10 -188 22 -265 27 -77 4 -167 15 -200 23 -33 9 -89 18 -125 22 -78 7 -329 50 -420 72 -36 8 -101 23 -145 33 -113 26 -202 50 -260 71 -27 10 -70 24 -95 32 -81 27 -134 47 -175 66 -22 10 -60 27 -85 39 -25 11 -61 28 -80 37 -75 35 -160 91 -273 180 -45 36 -111 109 -173 192 -45 61 -124 229 -124 265 0 13 -7 55 -16 93 -18 82 -20 211 -3 281 6 27 14 72 19 99 12 75 85 247 127 298 13 16 23 33 23 39 0 17 42 67 145 171 102 102 156 147 210 173 17 8 59 32 95 54 36 21 74 39 85 40 11 0 34 9 50 20 17 11 36 20 44 20 8 0 42 -24 75 -52 34 -29 66 -57 71 -61 44 -36 295 -163 341 -171 20 -4 53 -16 73 -27 20 -10 45 -19 57 -19 12 0 56 -11 98 -25 123 -40 173 -30 214 43 27 49 28 74 2 128 -23 46 -31 51 -100 64 -25 5 -67 16 -95 25 -27 9 -70 24 -95 32 -122 40 -240 94 -260 118 -7 8 -19 15 -27 15 -35 0 -162 114 -218 195 -44 63 -83 170 -94 255 -19 147 24 363 91 464 84 125 109 158 164 211 34 33 74 67 90 75 16 8 40 24 54 36 39 33 204 114 234 114 8 0 47 12 85 26 42 16 80 24 94 20 13 -3 56 -34 95 -69 66 -59 226 -151 302 -173 14 -4 41 -15 60 -25 19 -11 45 -19 58 -19 12 0 55 -11 94 -25 39 -14 86 -25 104 -25 18 0 73 -9 121 -21 95 -22 544 -59 718 -59 112 0 166 17 203 65 48 61 15 160 -61 183 -18 6 -106 13 -197 16 -244 8 -485 26 -570 42 -41 8 -112 21 -158 29 -45 8 -87 17 -91 20 -5 3 -42 14 -83 24 -212 56 -364 166 -443 320 -25 49 -27 65 -28 170 0 96 3 128 22 186 49 147 137 276 259 377 81 67 97 78 152 104 19 9 45 25 59 35 13 10 31 19 41 19 9 0 38 11 64 25 26 14 60 25 75 25 16 0 48 9 73 20 24 11 82 24 129 29 46 5 96 14 112 20 15 6 56 17 92 26 35 8 81 24 102 35 21 11 45 20 54 20 9 0 22 6 28 14 7 8 31 23 55 34 44 21 170 142 209 202 58 88 109 208 128 300 6 30 11 125 11 210 0 85 2 159 5 164 12 19 104 -5 209 -55z"
       id="path1" />
  </g>
  <path
     style="fill:#ffffff;stroke-width:0.95795"
     d="m 310.8548,674.27109 c -23.92762,-2.5798 -30.27151,-3.22465 -36.40211,-3.70019 -7.27772,-0.56453 -27.16219,-3.4695 -52.95653,-7.73656 -22.27818,-3.6854 -46.5358,-9.60198 -66.30825,-16.17301 -49.34802,-16.39994 -75.075804,-34.85042 -89.560649,-64.22769 -6.559443,-13.30346 -9.020216,-24.28381 -8.909355,-39.75493 0.117152,-16.34898 6.098354,-37.36658 14.035924,-49.32143 1.772119,-2.669 3.550623,-5.88802 3.952229,-7.15336 0.401607,-1.26536 6.604146,-8.19044 13.783421,-15.38909 10.777813,-10.80688 14.72311,-14.06827 22.63273,-18.7094 5.26872,-3.09153 12.4658,-6.79663 15.9935,-8.23358 3.5277,-1.43693 7.24128,-3.05535 8.25239,-3.59649 1.54304,-0.8258 3.17859,0.10028 10.18029,5.7643 11.67024,9.44063 34.98505,21.25914 50.83137,25.76693 20.66868,5.8796 23.88641,6.34665 28.24509,4.09968 3.77111,-1.94406 7.63854,-8.02971 7.66228,-12.05712 0.017,-2.88161 -2.88238,-9.28128 -4.94346,-10.91148 -0.6971,-0.55137 -4.50054,-1.76731 -8.45208,-2.70211 -3.95154,-0.93478 -12.57309,-3.63371 -19.159,-5.99761 -24.83736,-8.91492 -40.3551,-19.3817 -49.33606,-33.27737 -8.13494,-12.5867 -10.94748,-29.64931 -7.7176,-46.81993 2.30092,-12.23212 5.42781,-19.70233 12.41743,-29.6655 9.95673,-14.19254 21.07816,-23.75069 36.97263,-31.77557 6.51657,-3.29012 26.20986,-10.04583 29.28418,-10.04583 0.6911,0 4.40745,2.53233 8.25852,5.62741 3.85109,3.09507 10.33481,7.6488 14.40826,10.11939 7.23922,4.39066 23.74912,11.7317 28.51684,12.67987 1.31719,0.26194 4.98134,1.29381 8.14258,2.29303 13.64375,4.31261 46.75764,8.5793 80.94678,10.42992 25.04292,1.35555 33.70709,-0.31677 37.40105,-7.21901 1.87375,-3.50113 1.53492,-9.64392 -0.70082,-12.70541 -3.70802,-5.07754 -6.66854,-5.74368 -30.47355,-6.85677 -40.54776,-1.89597 -63.14095,-4.83818 -84.77859,-11.04036 -21.82927,-6.25711 -36.49875,-16.52737 -44.5236,-31.17148 -2.58314,-4.71383 -2.88668,-6.20872 -3.21144,-15.81611 -0.40398,-11.95113 0.9486,-18.99797 5.53479,-28.83589 7.43303,-15.94469 19.73156,-28.97093 36.88529,-39.0678 7.35956,-4.33191 23.0309,-11.0544 25.76982,-11.0544 0.73542,0 3.21138,-0.66128 5.50214,-1.46951 2.29077,-0.80823 8.27227,-2.12944 13.29225,-2.93604 8.30533,-1.33447 25.1313,-5.92881 33.55496,-9.1622 12.94737,-4.96979 28.76596,-19.61466 35.71075,-33.06106 8.1553,-15.79015 9.41463,-21.08765 10.02588,-42.174771 l 0.53587,-18.48683 h 2.57843 c 6.53667,0 24.32527,8.381614 40.65891,19.157619 19.78804,13.055026 40.25212,36.977342 47.3282,55.326242 5.58365,14.47889 7.33866,22.73777 7.2767,34.24347 -0.0605,11.24091 -0.88471,16.21519 -4.86676,29.37244 -1.4674,4.84851 -2.26815,9.26609 -1.92642,10.62767 0.32165,1.28158 2.3015,4.48619 4.39965,7.12137 l 3.81484,4.79122 10.04355,0.61452 c 19.13802,1.17097 39.9729,10.27862 52.84731,23.10141 5.49982,5.47775 14.77545,18.2832 14.77545,20.39819 0,0.53548 1.17161,3.50438 2.60356,6.59757 2.36124,5.10054 2.63635,6.87219 2.95577,19.03527 0.54551,20.77173 -2.61724,31.75357 -13.97534,48.52579 -9.37897,13.8497 -21.812,23.62067 -41.39739,32.53368 -10.49,4.77385 -12.23961,5.90619 -14.114,9.1345 -1.1768,2.02683 -2.14672,5.23226 -2.15539,7.12319 -0.0269,5.86175 7.13123,13.32607 12.77937,13.32607 4.2173,0 22.12794,-7.52 30.6426,-12.86566 11.18755,-7.02377 18.38025,-12.69072 28.14975,-22.17849 8.0173,-7.7861 8.45763,-8.0636 12.7953,-8.0636 6.34051,0 19.56637,4.05467 29.50112,9.0442 13.08611,6.57223 26.72075,18.21963 34.26842,29.2738 8.29771,12.15266 14.13303,31.59459 13.94471,46.46058 -0.10725,8.46719 -3.01116,22.37774 -6.08543,29.15094 -1.09274,2.40752 -2.18352,7.17932 -2.42396,10.60399 -0.51653,7.35712 1.51778,11.60929 6.62296,13.84343 1.71593,0.75095 5.51574,2.40791 8.444,3.68215 6.43384,2.7997 17.30656,11.96637 24.48738,20.64502 6.7072,8.10624 12.34507,19.6349 14.22347,29.085 1.6461,8.28146 1.92626,22.98586 0.57382,30.11728 -2.71406,14.3112 -10.613,26.83799 -23.65006,37.50622 -14.05412,11.50048 -22.89783,16.09338 -48.2603,25.06352 -22.81636,8.06963 -65.66937,17.13655 -97.63533,20.65786 -7.59809,0.83699 -15.85076,1.90793 -18.33928,2.37986 -2.48851,0.47194 -13.515,1.54414 -24.5033,2.38266 -10.9883,0.83852 -23.42735,1.99591 -27.64233,2.57197 -7.20498,0.9847 -161.85512,2.01646 -170.03613,1.13441 z"
     id="path2"
     transform="translate(5,11)" />
</svg>
