<?xml version="1.0" standalone="no"?>
<!DOCTYPE svg PUBLIC "-//W3C//DTD SVG 20010904//EN"
 "http://www.w3.org/TR/2001/REC-SVG-20010904/DTD/svg10.dtd">
<svg version="1.0" xmlns="http://www.w3.org/2000/svg"
 width="164.000000pt" height="152.000000pt" viewBox="0 0 164.000000 152.000000"
 preserveAspectRatio="xMidYMid meet">

<g transform="translate(0.000000,152.000000) scale(0.100000,-0.100000)"
fill="#000000" stroke="none">
<path d="M783 1433 c-10 -3 -11 -23 -7 -72 6 -62 5 -69 -21 -99 -16 -19 -43
-36 -68 -43 -104 -28 -135 -41 -171 -71 -46 -38 -75 -98 -76 -155 0 -40 -2
-43 -47 -63 -110 -48 -169 -159 -141 -260 6 -22 3 -28 -27 -44 -47 -26 -103
-83 -128 -131 -30 -57 -30 -165 0 -221 48 -90 146 -145 335 -186 93 -20 130
-22 383 -22 221 0 301 3 378 17 169 30 272 74 315 134 27 38 43 103 36 144 -9
47 -48 113 -79 133 -24 16 -25 21 -19 62 10 69 -12 131 -67 186 -27 27 -63 51
-85 58 l-39 12 0 78 c0 72 -2 81 -30 117 -17 21 -54 49 -82 63 l-51 24 -4 61
c-6 74 -32 126 -90 182 -57 56 -179 110 -215 96z m125 -93 c91 -53 144 -152
124 -233 -13 -51 -6 -67 27 -67 16 0 47 -10 71 -23 115 -61 103 -214 -22 -282
-50 -27 -53 -31 -39 -54 13 -20 68 1 120 45 46 40 67 40 128 3 64 -40 87 -109
69 -205 -8 -39 -7 -42 28 -62 50 -30 76 -76 76 -136 0 -45 -4 -53 -45 -92 -52
-50 -124 -76 -280 -101 -146 -24 -557 -24 -680 -1 -126 24 -213 53 -266 87
-141 94 -117 285 48 370 19 10 28 7 63 -18 50 -36 138 -60 150 -41 14 22 1 37
-43 50 -23 6 -57 21 -75 32 -99 61 -76 205 43 263 l54 27 30 -21 c44 -32 103
-50 203 -62 104 -12 138 -7 138 21 0 23 -15 27 -130 33 -135 7 -210 50 -210
119 0 37 14 64 53 105 28 30 57 43 163 72 80 22 124 78 124 161 0 49 8 50 78
10z"/>
</g>
</svg>
